<?xml version="1.0" encoding="UTF-8" standalone="no"?>
<svg
   xmlns:dc="http://purl.org/dc/elements/1.1/"
   xmlns:cc="http://creativecommons.org/ns#"
   xmlns:rdf="http://www.w3.org/1999/02/22-rdf-syntax-ns#"
   xmlns:svg="http://www.w3.org/2000/svg"
   xmlns="http://www.w3.org/2000/svg"
   xmlns:sodipodi="http://sodipodi.sourceforge.net/DTD/sodipodi-0.dtd"
   xmlns:inkscape="http://www.inkscape.org/namespaces/inkscape"
   version="1.0"
   width="500.875"
   height="257.22479"
   viewBox="0 0 400.7 205.77983"
   preserveAspectRatio="xMidYMid meet"
   id="svg2"
   inkscape:version="0.48.4 r9939"
   sodipodi:docname="39a33eb49f0cb381529011fe31e17f4ce4ffac12.svg">
  <defs
     id="defs160" />
  <sodipodi:namedview
     pagecolor="#ffffff"
     bordercolor="#666666"
     borderopacity="1"
     objecttolerance="10"
     gridtolerance="10"
     guidetolerance="10"
     inkscape:pageopacity="0"
     inkscape:pageshadow="2"
     inkscape:window-width="1600"
     inkscape:window-height="824"
     id="namedview158"
     showgrid="false"
     fit-margin-top="0"
     fit-margin-left="0"
     fit-margin-right="0"
     fit-margin-bottom="0"
     inkscape:zoom="1.8646914"
     inkscape:cx="340.6663"
     inkscape:cy="144.49736"
     inkscape:window-x="0"
     inkscape:window-y="24"
     inkscape:window-maximized="1"
     inkscape:current-layer="svg2" />
  <metadata
     id="metadata4">
Created by potrace 1.10, written by Peter Selinger 2001-2011
<rdf:RDF>
  <cc:Work
     rdf:about="">
    <dc:format>image/svg+xml</dc:format>
    <dc:type
       rdf:resource="http://purl.org/dc/dcmitype/StillImage" />
  </cc:Work>
</rdf:RDF>
</metadata>
  <g
     transform="matrix(0.0531785,0,0,-0.0531785,-2.9248175,208.64103)"
     id="g6"
     style="fill:#000000;stroke:none">
    <path
       d="m 1060,3918 c -74,-5 -227,-11 -340,-13 -491,-10 -578,-13 -588,-19 -6,-4 -9,-13 -5,-21 3,-9 0,-22 -7,-30 -9,-11 -13,-422 -16,-1832 -1,-1000 -3,-1828 -3,-1841 -1,-18 -6,-23 -24,-20 -16,2 -22,-2 -22,-17 0,-15 7,-19 30,-20 25,0 30,-4 30,-25 0,-24 1,-24 93,-26 51,-1 107,2 125,5 l 32,7 -34,12 c -19,7 -31,15 -27,19 9,9 1889,15 3048,10 179,-1 329,1 332,4 4,4 9,161 11,350 2,189 8,387 12,439 5,52 4,288 -1,525 -14,618 -14,613 24,1245 5,97 4,178 -7,285 -13,135 -18,623 -8,725 6,55 9,200 4,204 -2,2 -202,7 -444,10 -242,3 -543,8 -670,11 -126,3 -484,6 -795,8 -311,2 -576,6 -590,9 -14,3 -86,1 -160,-4 z m 75,-89 c 4,-5 0,-18 -9,-28 -21,-23 16.2368,29.5074 64.2368,29.5074 36,0 9.7632,-59.5074 7.7632,-30.5074 l -3,31 640,-2 c 352,-1 696,-3 765,-5 69,-1 186,-3 260,-4 74,-1 167,-6 205,-12 39,-5 188,-9 333,-10 144,0 265,-4 267,-9 3,-4 1,-29 -5,-54 -6,-26 -11,-159 -11,-295 l -1,-247 -27,-30 c -15,-17 -39,-52 -53,-79 -29,-55 -42,-61 -148,-63 -73,-2 -93,-12 -121,-65 -27,-51 -60,-86 -80,-86 -10,0 -19,-6 -21,-12 -5,-14 -425,-18 -714,-8 -142,5 -142,5 -163,-20 -11,-14 -20,-33 -21,-42 0,-25 -40,-99 -50,-93 -4,3 -6,31 -3,63 8,99 4,101 -272,109 -117,3 -175,9 -185,18 -8,7 -34,15 -56,18 -23,2 -53,13 -68,22 -23,15 -26,24 -26,74 0,31 -5,62 -12,69 -8,8 -46,12 -102,12 -50,1 -149,5 -221,11 -71,5 -192,14 -269,19 -144,9 -279,24 -381,41 -33,6 -89,13 -125,18 -71,8 -135,40 -146,73 -3,11 -3,77 1,146 7,114 10,130 36,173 16,25 29,49 29,52 0,4 25,47 55,97 30,50 55,95 55,100 0,17 44,22 159,16 93,-5 265,1 393,12 9,1 20,-3 23,-9 z m -612,-6 c 4,-3 -8,-25 -27,-47 -40,-49 -126,-189 -126,-205 0,-6 -4,-11 -9,-11 -19,0 -27,-61 -24,-200 1,-80 4,-154 7,-165 10,-38 123,-80 239,-90 43,-3 88,-10 100,-15 12,-5 87,-14 167,-20 147,-12 511,-37 651,-46 l 77,-5 5,-46 c 11,-100 58,-120 304,-132 98,-4 157,-11 165,-19 7,-7 35,-12 64,-12 80,0 84,-3 84,-71 0,-40 -7,-73 -20,-99 -25,-49 -25,-60 -2,-60 43,0 141,107 157,173 14,55 29,59 176,46 74,-7 250,-13 393,-15 227,-2 262,-1 285,14 14,9 28,19 31,23 3,3 25,16 50,28 34,16 51,33 66,64 22,46 38,53 134,57 30,1 63,5 74,9 18,7 54,59 76,109 11,26 25,28 35,5 13,-34 18,-429 7,-520 -12,-95 -27,-461 -25,-608 14,-990 13,-1193 -3,-1261 -13,-57 -15,-102 -9,-259 7,-206 7,-267 -1,-274 -7,-7 -785,-3 -792,4 -4,3 -8,24 -9,47 -3,47 -27,88 -81,141 -26,24 -48,59 -62,100 -13,34 -30,75 -39,90 -16,28 -15,29 18,58 31,26 33,30 20,46 -23,29 -49,80 -49,97 0,12 10,16 43,16 23,0 67,9 97,21 30,12 69,26 85,33 53,20 140,83 155,113 8,15 26,42 40,58 41,46 89,131 98,173 16,70 -34,315 -74,362 -7,8 -17,26 -23,40 -6,14 -15,32 -20,40 -6,8 -12,27 -15,42 -7,31 -33,61 -47,53 -5,-4 -9,-17 -9,-31 0,-27 -15,-32 -24,-9 -11,28 -45,16 -71,-25 -14,-22 -25,-47 -25,-55 0,-9 -7,-30 -16,-47 -13,-25 -15,-50 -11,-115 5,-79 4,-83 -20,-98 -30,-20 -25,-38 13,-45 22,-4 28,-10 26,-25 -5,-29 -9,-30 -42,-18 -33,13 -40,9 -40,-24 0,-21 4,-23 48,-23 61,0 98,32 89,77 -4,19 2,41 19,71 19,31 25,58 26,102 1,54 -2,63 -31,92 -26,27 -29,34 -17,47 7,9 16,24 19,34 9,24 24,14 32,-23 9,-41 25,-38 25,4 0,44 17,56 25,19 4,-15 11,-37 15,-48 5,-11 19,-49 31,-84 12,-35 28,-75 35,-90 8,-14 14,-44 14,-67 0,-23 5,-56 11,-74 15,-42 3,-77 -61,-185 -63,-104 -85,-124 -208,-184 l -102,-51 -143,0 c -109,1 -147,4 -161,15 -11,8 -30,15 -43,15 -55,0 -251,135 -253,173 0,5 -9,21 -20,37 -15,21 -31,29 -67,35 -64,9 -91,25 -142,80 l -43,47 4,83 c 4,75 7,86 37,123 36,46 81,77 126,86 23,5 36,1 58,-18 16,-14 35,-22 43,-19 22,8 17,49 -8,65 -28,19 -20,40 47,118 l 48,55 181,6 c 100,3 303,12 451,19 260,13 455,9 693,-16 68,-8 85,7 39,33 -72,43 -471,62 -747,35 -84,-8 -144,-19 -158,-28 -30,-20 -39,-11 -19,19 16,25 259,150 335,172 12,3 22,10 22,13 0,17 96,53 250,94 126,34 159,41 230,47 72,6 75,7 75,31 0,24 -2,25 -60,24 -84,-3 -229,-32 -340,-69 -22,-7 -60,-19 -85,-26 -25,-8 -63,-25 -85,-40 -22,-14 -63,-35 -90,-47 -141,-59 -262,-127 -294,-166 -24,-29 -31,-6 -31,108 0,62 -4,126 -10,142 -5,16 -11,102 -13,192 -4,171 -11,197 -45,176 -20,-13 -19,5 -3,-317 6,-131 16,-249 21,-263 31,-80 -7,-84 -84,-9 -31,30 -85,71 -119,92 -34,20 -66,41 -72,45 -102,84 -165,116 -165,84 0,-20 90,-99 163,-143 119,-71 219,-154 200,-166 -4,-3 -44,-2 -88,3 -89,8 -424,5 -497,-5 -62,-9 -74,-1 -48,32 11,14 20,36 20,49 0,12 4,26 10,29 5,3 10,37 10,75 0,65 2,71 28,86 15,9 39,25 54,35 15,11 30,19 33,19 12,0 4,-48 -10,-54 -8,-3 -15,-11 -15,-18 0,-8 -9,-21 -20,-31 -25,-21 -26,-47 -2,-47 28,0 46,29 83,135 23,67 40,101 51,103 14,3 16,-3 11,-34 -5,-29 -3,-36 8,-32 9,3 13,18 12,42 -2,26 2,36 12,36 11,0 15,23 17,113 2,92 6,112 18,112 12,0 16,-15 18,-65 3,-82 8,-96 26,-81 19,16 25,65 14,118 -8,33 -20,52 -53,80 -31,26 -46,48 -54,79 -15,57 -52,99 -117,130 -29,14 -56,29 -59,35 -4,5 -17,9 -31,9 -14,0 -37,6 -52,14 -41,20 -238,28 -381,15 -70,-6 -130,-15 -135,-20 -6,-5 -23,-9 -38,-9 -16,0 -41,-6 -56,-14 -15,-7 -45,-16 -68,-18 -36,-5 -112,-34 -187,-73 -41,-21 -62,-18 -75,10 -58,127 -212,218 -328,193 -57,-12 -126,-76 -143,-134 -7,-21 -17,-49 -23,-60 -6,-13 -9,-70 -6,-140 3,-105 7,-125 30,-171 l 26,-52 -30,-73 c -19,-47 -32,-99 -35,-144 -5,-66 -3,-77 27,-139 36,-73 65,-105 119,-130 35,-15 101,-96 101,-123 0,-6 3,-12 8,-12 4,0 16,-16 27,-35 28,-54 175,-146 268,-169 15,-3 27,-11 27,-18 0,-14 -40,-78 -48,-78 -4,0 -18,-10 -32,-23 -26,-24 -134,-80 -180,-93 -14,-4 -41,-17 -60,-29 -19,-12 -43,-24 -52,-28 -23,-8 -24,-64 -2,-88 20,-22 13,-33 -38,-65 C 481,978 425,916 384,843 355,792 347,766 343,707 337,635 336,632 286,579 258,549 222,508 206,487 l -29,-37 18,-55 c 9,-30 34,-77 56,-104 26,-32 39,-59 39,-79 0,-16 7,-35 15,-42 8,-7 12,-16 9,-21 -7,-12 -125,-11 -143,0 -16,10 -18,56 -20,471 0,135 3,268 8,297 4,28 4,130 -2,225 -6,121 -6,224 3,344 14,214 14,551 -1,664 -8,59 -9,170 -4,360 4,151 9,502 11,779 2,277 6,506 8,508 3,3 65,6 138,7 85,0 140,5 153,13 22,14 48,17 58,6 z M 665,2695 c 47,-15 125,-79 125,-105 0,-5 6,-10 14,-10 7,0 29,-11 48,-23 39,-27 94,-41 103,-27 3,6 18,10 33,10 14,0 62,13 106,29 140,49 194,64 217,58 12,-3 40,0 63,7 22,7 50,14 61,14 32,2 87,9 126,17 27,5 43,3 62,-10 22,-14 32,-15 62,-5 29,9 41,9 66,-4 18,-9 42,-16 54,-16 23,0 108,-42 136,-66 9,-8 28,-38 43,-68 29,-56 37,-144 21,-213 -8,-36 -47,-83 -67,-83 -8,0 -33,18 -57,40 -102,96 -127,111 -155,100 -15,-5 -40,-10 -56,-10 -16,0 -37,-9 -48,-20 -10,-11 -32,-22 -48,-26 -26,-5 -35,-1 -57,26 -15,17 -27,36 -27,41 0,5 -8,9 -19,9 -10,0 -36,14 -57,31 -30,24 -45,29 -68,25 -15,-3 -45,-6 -66,-6 -29,0 -46,-8 -81,-41 -24,-23 -54,-45 -66,-50 -15,-5 -23,-17 -23,-32 0,-14 -14,-36 -35,-56 -19,-17 -35,-39 -35,-47 0,-13 -7,-15 -32,-10 -17,3 -39,13 -49,22 -12,11 -27,13 -52,9 -31,-6 -38,-3 -71,32 -148,154 -130,144 -282,151 -39,2 -42,4 -57,45 -20,56 -19,124 4,167 11,19 19,42 19,52 0,21 46,58 74,58 11,0 43,-7 71,-15 z m 725,-380 c 94,-49 94,-273 1,-430 -37,-61 -100,-114 -136,-114 -31,0 -98,51 -122,94 -36,63 -29,233 12,285 7,8 27,44 46,79 19,36 41,72 49,82 19,23 110,25 150,4 z m -710,-26 c 0,-6 14,-27 30,-46 19,-21 30,-45 30,-63 0,-30 0,-30 59,-30 32,0 75,-7 94,-15 20,-8 52,-15 72,-15 22,0 38,-6 41,-15 4,-8 17,-15 29,-15 26,0 41,-15 25,-25 -6,-3 -24,1 -42,9 -18,9 -57,16 -93,16 -34,0 -75,6 -91,14 -16,8 -42,16 -59,18 -29,3 -30,1 -33,-38 -3,-36 0,-42 20,-48 41,-11 85,-6 99,10 15,18 62,15 144,-9 l 50,-14 5,-79 c 5,-66 10,-86 36,-124 57,-86 165,-115 243,-65 22,13 45,33 53,43 30,44 88,30 73,-18 -4,-14 -15,-20 -36,-20 -19,0 -29,-5 -29,-15 0,-11 12,-15 51,-15 43,0 55,-5 81,-30 25,-25 37,-30 79,-30 27,0 58,5 69,12 49,31 29,-44 -38,-145 -51,-76 -67,-87 -165,-112 -110,-27 -385,-5 -482,39 -213,98 -294,150 -321,210 -10,22 -28,48 -39,58 -20,19 -20,19 8,40 34,24 49,51 41,72 -8,22 -27,20 -49,-4 -25,-28 -65,-25 -112,9 -75,54 -99,124 -83,236 15,107 37,150 100,191 38,25 140,34 140,13 z m 1109,-65 31,-26 0,-124 c 0,-105 -3,-130 -20,-161 -11,-21 -20,-44 -20,-51 0,-24 -39,-90 -66,-111 -21,-16 -41,-21 -88,-21 -69,0 -106,18 -106,53 0,13 -7,33 -16,45 -25,36 -12,125 39,265 7,20 38,64 68,97 52,57 57,60 101,60 35,0 54,-6 77,-26 z m -329,-330 c 0,-8 -7,-14 -15,-14 -15,0 -21,21 -9,33 10,9 24,-2 24,-19 z m 507,-166 c 83,2 154,-1 157,-6 2,-4 -8,-20 -23,-35 -16,-14 -36,-42 -45,-61 -13,-28 -24,-37 -54,-42 -59,-11 -140,-70 -162,-118 -29,-64 -32,-83 -31,-172 0,-83 7,-105 55,-176 22,-34 109,-78 152,-78 28,0 36,-7 63,-50 17,-28 47,-60 66,-71 19,-12 35,-28 35,-37 0,-10 -34,-42 -76,-72 -103,-75 -106,-79 -92,-118 11,-29 10,-34 -13,-59 -78,-83 -110,-225 -77,-334 8,-29 8,-45 0,-62 -6,-12 -12,-33 -14,-47 -4,-29 5,-29 -330,-32 -155,-2 -238,0 -239,7 0,5 0,55 1,111 1,86 -2,105 -20,136 -11,20 -31,43 -43,51 -12,8 -31,38 -41,68 -10,30 -23,59 -28,65 -13,18 -36,103 -44,163 -3,31 -10,64 -15,73 -7,12 -1,24 21,44 29,28 32,60 8,91 -24,30 -50,156 -55,268 -7,146 -4,151 78,130 111,-29 248,-21 364,22 65,24 95,58 164,187 22,42 31,72 31,106 0,54 6,63 34,53 12,-4 89,-6 173,-5 z m -921,-334 c 24,-6 28,-15 24,-69 -3,-50 -17,-52 -55,-11 -43,48 -48,107 -7,91 8,-3 25,-8 38,-11 z m -96,-122 c 0,-33 30,-62 71,-68 42,-7 44,-11 52,-89 2,-22 10,-54 18,-72 11,-28 11,-34 -4,-51 -13,-14 -17,-38 -17,-105 0,-47 -7,-128 -15,-179 -14,-86 -26,-214 -43,-443 l -7,-90 -119,-3 c -100,-2 -122,0 -138,14 -17,16 -19,16 -38,-4 -23,-24 -86,-40 -102,-24 -6,6 -6,35 2,87 9,60 9,96 0,159 -7,45 -11,125 -8,177 3,81 8,104 33,153 18,35 39,62 53,67 29,11 202,186 202,205 0,7 9,18 20,24 23,12 27,52 6,69 -22,18 -56,-3 -49,-29 4,-14 -6,-32 -33,-61 C 738,907 698,870 691,874 c -4,3 -15,40 -25,83 -9,43 -21,92 -26,109 -6,17 -10,38 -10,47 0,21 56,63 95,72 50,11 115,37 115,46 0,4 9,11 21,14 12,4 30,16 40,26 24,24 49,25 49,1 z m 88,-12 c 34,-21 38,-43 9,-48 -11,-2 -21,6 -27,22 -5,14 -14,26 -20,26 -5,0 -10,5 -10,10 0,15 11,12 48,-10 z M 620,956 c 0,-19 7,-39 15,-46 23,-19 17,-62 -15,-100 -17,-19 -30,-39 -30,-44 0,-5 -6,-17 -14,-25 -28,-32 -37,-146 -24,-328 11,-158 11,-174 -5,-191 -9,-10 -17,-31 -17,-45 0,-22 -5,-27 -25,-27 -27,0 -32,18 -14,52 7,12 7,24 2,29 -16,16 -40,-1 -50,-34 -11,-39 -49,-53 -40,-15 2,12 8,37 12,54 6,26 4,32 -14,37 -12,3 -21,13 -21,25 0,11 -7,25 -15,32 -9,8 -15,30 -15,57 0,37 5,48 30,70 25,21 30,32 30,70 0,24 -5,53 -10,64 -16,29 6,185 32,229 29,48 166,183 178,175 5,-3 10,-21 10,-39 z m 510,-32 c 0,-15 -6,-24 -15,-24 -15,0 -21,40 -9,53 12,11 24,-3 24,-29 z m 1152,-91 c 35,-15 39,-21 33,-43 -14,-53 -17,-102 -7,-112 7,-7 20,-5 43,6 44,22 54,20 68,-10 11,-25 13,-25 30,-10 24,21 26,21 71,-16 39,-31 40,-32 34,-82 -3,-28 -9,-112 -12,-186 l -7,-135 -29,-14 c -23,-11 -46,-12 -115,-3 -108,13 -182,29 -196,43 -5,5 -10,54 -10,112 l 0,101 34,7 c 38,8 78,50 87,92 4,15 11,30 15,33 5,3 9,12 9,20 0,28 -44,11 -61,-23 -36,-72 -49,-74 -114,-12 -22,20 -50,47 -62,58 -31,29 -29,46 10,70 19,11 53,43 77,71 24,27 48,50 53,50 6,0 28,-8 49,-17 z m 113,-43 c 11,-18 -6,-50 -25,-50 -25,0 -33,15 -20,40 11,21 35,27 45,10 z m 66,-16 c 17,-15 16,-17 -2,-35 -10,-10 -23,-19 -28,-19 -13,0 -20,35 -9,54 11,20 17,20 39,0 z m 85,-30 c 8,-29 -7,-49 -31,-41 -34,14 -31,67 4,67 14,0 23,-9 27,-26 z M 1129,663 c 1,-46 74,-199 117,-244 28,-30 54,-104 54,-157 0,-33 -1,-34 -18,-19 -13,12 -21,14 -29,6 -7,-7 -22,-8 -44,-1 -48,13 -55,7 -51,-38 3,-31 1,-40 -12,-40 -13,0 -15,12 -13,73 2,64 -1,77 -27,116 -27,43 -28,48 -22,125 4,45 9,115 12,156 3,41 8,82 11,90 8,23 21,-16 22,-67 z m 1490,-16 c 1,-28 -32,-17 -48,17 -11,23 -11,33 -1,55 l 13,26 18,-40 c 9,-22 18,-48 18,-58 z m -506,-71 c 41,-49 44,-63 22,-92 -23,-30 -18,-121 10,-205 14,-41 28,-81 31,-90 5,-14 -8,-17 -98,-21 -115,-5 -135,1 -112,36 11,18 14,51 12,148 -3,125 -3,125 32,197 21,42 41,71 50,71 9,0 32,-20 53,-44 z M 350,551 c 0,-5 2,-16 5,-23 3,-8 -8,-32 -26,-54 -30,-37 -31,-42 -25,-103 l 5,-64 -21,19 c -21,19 -57,89 -58,111 0,6 20,33 45,60 25,26 45,51 45,55 0,5 7,8 15,8 8,0 15,-4 15,-9 z m 2276,-89 c 10,-57 37,-102 98,-165 42,-44 56,-66 56,-88 0,-16 -5,-29 -11,-29 -16,0 -48,42 -49,63 0,9 -7,17 -16,17 -11,0 -15,-8 -12,-27 4,-34 -26,-45 -35,-13 -3,11 -10,20 -16,20 -16,0 -13,-32 5,-58 9,-13 14,-26 11,-29 -12,-12 -47,10 -65,42 -19,31 -20,40 -9,144 7,75 7,118 0,133 -14,33 -6,50 17,38 11,-6 22,-26 26,-48 z M 1098,250 c 4,-72 -4,-100 -28,-100 -29,0 -33,15 -20,91 10,56 15,69 28,67 13,-2 18,-17 20,-58 z m -718,1 c 0,-33 -11,-51 -31,-51 -22,0 -23,8 -9,44 11,30 40,35 40,7 z m 902,-72 c 10,-5 18,-14 18,-19 0,-15 -48,-12 -53,3 -3,9 -9,9 -24,0 -25,-14 -48,-1 -39,22 5,14 13,16 43,10 21,-4 46,-11 55,-16 z M 180,90 c 0,-5 -11,-10 -25,-10 -14,0 -25,5 -25,10 0,6 11,10 25,10 14,0 25,-4 25,-10 z"
       id="path8"
       inkscape:connector-curvature="0"
       sodipodi:nodetypes="scccccccscsccccscssccccccscsssccsccccsccccccccccsccccccccccssccccccccssscccccsscccscccccssscscccccccccccccccccccccccssscccccscccsccsccccccsscccccccsccscsccccccscccccccccccccccccccccsccsccccccsccccccccscccccscsccscscscccccscscccccccscccsccccccccscccccssccssccsccccccccccssccccccccssccccssccsccccccccscccsccscccssccsccscscccccccsscccscccccscsscscsccsscccccccccccssscsccccccccccccsccscscsscccscsscsccccccccsccsccccccccccsscccccccccscccccccsccccsccccccscccccscccccccscscsscccsscsccscccsscsccccscscscccssscsscscccccccccssccccssccccsscscccssccccscccscsccscccsccccccccccccccccscsccccsccsssccsscsccsssccccccscscsscscssccccsssss" />
    <path
       d="m 2588,1683 c -39,-48 -50,-97 -45,-204 6,-115 18,-207 30,-226 13,-20 57,-16 57,5 0,10 -5,23 -11,29 -7,7 -1,27 21,69 26,49 31,66 26,101 -6,48 -36,108 -62,128 -15,11 -17,18 -9,42 6,15 14,27 19,26 8,-1 56,-76 72,-113 12,-25 36,-50 51,-50 17,0 17,44 -1,59 -8,7 -29,43 -47,82 -28,60 -36,69 -59,69 -15,0 -34,-8 -42,-17 z"
       id="path48"
       inkscape:connector-curvature="0" />
    <path
       d="m 2668,942 c -69,-39 -60,-72 16,-58 50,9 80,37 72,64 -9,29 -31,27 -88,-6 z"
       id="path50"
       inkscape:connector-curvature="0" />
    <path
       d="m 1302,2048 c -12,-16 -42,-92 -49,-128 -6,-34 30,-69 55,-54 29,19 64,94 65,143 2,44 1,46 -29,49 -17,2 -36,-3 -42,-10 z"
       id="path52"
       inkscape:connector-curvature="0" />
    <path
       d="m 1040,1691 c 0,-38 -4,-81 -10,-96 -17,-44 26,-105 74,-105 8,0 32,11 52,25 20,14 49,25 64,25 28,0 41,15 33,38 -3,6 -16,12 -29,12 -58,0 -112,48 -121,106 -7,47 -19,64 -44,64 -17,0 -19,-8 -19,-69 z"
       id="path54"
       inkscape:connector-curvature="0" />
    <path
       d="m 1577,1972 c -24,-27 -42,-119 -28,-148 15,-34 47,-30 71,9 26,41 28,142 4,151 -24,9 -29,8 -47,-12 z"
       id="path56"
       inkscape:connector-curvature="0" />
    <path
       d="m 834,1195 c -10,-25 4,-45 31,-45 34,0 34,33 0,48 -21,10 -27,9 -31,-3 z"
       id="path58"
       inkscape:connector-curvature="0" />
    <path
       d="m 882,948 c -7,-7 -12,-22 -12,-35 0,-31 45,-33 53,-2 11,41 -14,64 -41,37 z"
       id="path60"
       inkscape:connector-curvature="0" />
    <path
       d="m 846,804 c -8,-31 4,-47 30,-42 29,5 26,62 -2,66 -16,2 -23,-4 -28,-24 z"
       id="path62"
       inkscape:connector-curvature="0" />
    <path
       d="m 824,686 c -3,-14 -3,-30 1,-36 4,-6 -1,-17 -11,-24 -26,-20 -11,-48 23,-44 24,3 28,7 26,32 -1,16 4,41 12,56 16,31 11,40 -21,40 -17,0 -25,-7 -30,-24 z"
       id="path64"
       inkscape:connector-curvature="0" />
    <path
       d="m 802,541 c -6,-4 -14,-21 -18,-38 -5,-25 -2,-31 14,-35 11,-3 25,-1 31,5 25,25 2,86 -27,68 z"
       id="path66"
       inkscape:connector-curvature="0" />
    <path
       d="m 760,425 c -14,-38 -12,-62 6,-69 27,-10 45,14 42,53 -4,45 -33,55 -48,16 z"
       id="path68"
       inkscape:connector-curvature="0" />
    <path
       d="m 732,295 c -18,-40 -15,-55 13,-55 18,0 26,7 31,25 13,53 -23,77 -44,30 z"
       id="path70"
       inkscape:connector-curvature="0" />
    <path
       d="m 2406,494 c -19,-19 -22,-114 -4,-132 33,-33 78,4 85,71 4,32 1,48 -12,60 -21,21 -49,22 -69,1 z m 41,-68 c -4,-9 -11,-16 -17,-16 -11,0 -14,33 -3,43 11,11 26,-10 20,-27 z"
       id="path72"
       inkscape:connector-curvature="0" />
    <path
       d="m 1190,358 c 1,-13 12,-36 25,-53 21,-25 25,-27 31,-12 8,21 -25,87 -43,87 -7,0 -13,-10 -13,-22 z"
       id="path74"
       inkscape:connector-curvature="0" />
    <path
       d="m 5955,3894 c -104,-7 -221,-9 -260,-6 -58,4 -563,4 -1155,-2 -74,0 -233,2 -352,5 -119,3 -223,2 -232,-3 -13,-7 -15,-63 -16,-404 0,-279 -4,-403 -12,-418 -8,-15 -12,-185 -14,-596 -1,-316 -5,-636 -9,-710 -4,-75 -2,-248 5,-388 9,-200 8,-297 -2,-460 -15,-243 -16,-422 -4,-621 11,-183 12,-184 129,-178 45,3 90,8 99,12 10,4 37,4 60,0 60,-10 351,-15 363,-6 14,10 231,6 280,-5 26,-6 137,-5 312,2 149,6 320,9 380,6 128,-6 575,-5 1355,2 360,3 569,2 573,-4 14,-23 45,-9 60,27 14,32 15,109 13,577 -1,298 3,604 8,681 11,164 11,366 0,555 -10,160 -8,284 4,440 5,63 10,248 11,410 2,391 11,602 27,608 9,3 12,63 12,242 l 0,238 -62,4 c -35,1 -90,0 -123,-3 -52,-5 -691,-3 -1115,4 -80,1 -230,-3 -335,-9 z m -1281,-44 c 7,-7 -41,-10 -132,-10 -81,0 -142,4 -142,9 0,5 10,12 23,14 38,8 241,-3 251,-13 z m 1126,0 c 0,-5 -16,-10 -36,-10 -21,0 -33,4 -29,10 3,6 19,10 36,10 16,0 29,-4 29,-10 z m 780,-38 c 399,-7 802,-6 865,2 47,7 63,5 71,-5 8,-10 8,-104 1,-314 -5,-165 -10,-345 -11,-400 -1,-55 -7,-109 -13,-120 -18,-32 -85,-91 -128,-114 -22,-12 -53,-34 -70,-49 -59,-55 -101,-79 -145,-86 -25,-4 -152,-7 -283,-7 l -238,1 -10,-28 c -7,-15 -15,-36 -20,-47 -4,-11 -11,-38 -14,-60 -4,-22 -11,-45 -15,-50 -5,-6 -10,-25 -12,-44 -2,-19 -9,-36 -15,-39 -10,-3 -13,17 -13,77 0,99 -25,188 -54,195 -12,3 -139,5 -284,5 -145,0 -266,2 -270,5 -4,2 -138,7 -297,11 -344,7 -538,31 -705,85 -30,10 -73,23 -95,29 -22,5 -49,13 -60,16 -30,8 -56,51 -66,108 -12,73 -34,169 -43,190 -5,10 -2,31 9,55 9,20 30,66 47,102 16,36 33,74 38,85 4,11 28,63 53,115 25,52 55,118 67,145 12,28 25,59 30,70 4,11 11,27 13,37 5,13 27,18 129,24 68,4 132,6 143,4 20,-4 42,-4 105,-1 19,0 125,-3 235,-8 127,-6 260,-6 365,0 91,5 207,11 258,13 51,2 96,7 100,11 4,4 27,3 52,-1 25,-4 151,-9 280,-12 z m -2246,-24 c 157,-9 233,-9 368,1 93,7 172,10 175,7 6,-6 1,-18 -26,-61 -11,-16 -38,-68 -61,-115 -23,-47 -46,-93 -51,-102 -5,-10 -9,-28 -9,-41 0,-13 -10,-35 -21,-48 -12,-13 -28,-40 -36,-59 -8,-19 -28,-62 -44,-96 -30,-64 -35,-96 -19,-154 5,-19 19,-78 31,-130 11,-52 23,-101 25,-108 2,-7 25,-22 51,-33 53,-22 108,-47 135,-60 9,-5 35,-12 58,-15 22,-4 43,-11 46,-15 3,-5 24,-9 47,-9 23,0 54,-6 68,-14 15,-8 60,-17 100,-20 41,-4 94,-11 119,-16 40,-8 410,-18 955,-26 105,-1 195,-3 201,-3 5,-1 19,-20 30,-43 16,-37 19,-66 19,-193 0,-127 2,-150 16,-153 10,-2 22,15 38,55 12,32 27,66 32,75 5,10 9,23 9,30 0,7 9,35 19,63 11,27 26,73 34,100 l 14,50 249,6 c 137,3 266,10 287,16 22,6 60,30 85,52 26,23 66,56 90,74 23,17 64,49 90,70 l 47,37 3,-77 c 2,-43 -1,-100 -7,-128 -8,-41 -32,-441 -34,-565 0,-19 6,-116 13,-215 12,-173 9,-455 -7,-620 -4,-38 -7,-132 -8,-207 0,-105 -3,-138 -13,-138 -7,0 -15,7 -18,14 -3,8 -29,33 -57,54 -29,22 -62,48 -74,58 -12,11 -35,29 -50,41 -15,12 -37,30 -48,40 -11,10 -40,27 -65,38 -48,21 -122,67 -155,96 -11,9 -34,25 -52,36 -17,10 -67,39 -110,65 -43,26 -102,57 -131,69 -61,26 -67,45 -14,52 20,3 71,13 112,21 41,9 113,23 160,31 149,25 204,36 236,46 17,5 75,9 130,9 123,0 146,6 142,34 -3,20 -9,21 -98,22 -108,0 -255,-12 -285,-25 -11,-5 -54,-14 -95,-19 -135,-20 -288,-58 -327,-83 -17,-10 -25,-11 -34,-2 -9,9 -1,33 31,100 24,48 47,90 51,93 8,5 79,145 79,155 0,3 11,22 24,43 12,20 27,48 31,62 4,14 19,42 31,62 31,49 32,81 2,76 -18,-2 -37,-30 -89,-133 -36,-71 -82,-161 -104,-200 -76,-138 -85,-156 -85,-170 0,-25 -33,-85 -47,-85 -8,0 -13,13 -13,37 0,47 -27,121 -57,153 -13,14 -23,28 -23,32 0,4 -22,54 -48,110 -73,155 -82,175 -82,187 0,6 -4,11 -8,11 -4,0 -26,38 -47,85 -33,70 -44,85 -62,85 -13,0 -23,-6 -23,-14 0,-23 22,-76 31,-76 5,0 9,-6 9,-12 0,-7 20,-53 44,-103 61,-122 116,-242 116,-250 0,-4 20,-37 45,-74 25,-37 45,-72 45,-78 0,-6 7,-16 15,-23 17,-15 20,-50 4,-50 -10,0 -36,14 -149,80 -80,47 -197,93 -265,105 -22,4 -44,10 -50,14 -5,4 -32,16 -60,26 -27,10 -57,23 -65,30 -8,7 -24,15 -35,17 -38,7 -31,84 8,90 20,3 22,9 25,74 3,65 1,73 -28,108 -20,26 -30,50 -30,73 0,46 -32,106 -67,123 -15,8 -49,30 -74,48 -115,80 -417,133 -594,103 -38,-7 -99,-16 -135,-21 -54,-7 -120,-30 -227,-77 -8,-3 -13,3 -13,15 0,25 -78,113 -136,152 -25,16 -48,30 -51,30 -4,0 -14,6 -22,14 -17,16 -56,21 -143,18 -54,-2 -60,-5 -105,-50 -33,-33 -54,-65 -67,-104 -18,-54 -18,-57 2,-139 22,-90 46,-154 62,-164 18,-11 11,-36 -17,-60 -29,-24 -63,-84 -82,-146 -13,-42 -15,-185 -2,-193 4,-3 11,-18 14,-34 7,-35 88,-128 119,-136 13,-3 34,-24 48,-46 25,-41 124,-141 170,-172 14,-10 43,-30 65,-45 22,-15 61,-38 88,-51 26,-13 47,-27 47,-31 0,-10 -54,-61 -79,-75 -11,-6 -39,-21 -62,-34 -23,-13 -75,-48 -116,-79 -71,-53 -73,-56 -73,-98 0,-39 -5,-47 -59,-96 -58,-53 -121,-142 -121,-171 0,-8 -11,-38 -25,-66 -14,-29 -25,-55 -25,-58 0,-3 -13,-23 -29,-43 -16,-20 -45,-65 -66,-99 -44,-76 -43,-100 10,-178 18,-29 31,-55 28,-58 -9,-8 -96,-7 -109,2 -27,17 -36,99 -36,351 0,141 5,312 11,381 15,178 16,275 5,435 -5,77 -9,203 -9,280 1,189 14,696 20,770 3,33 1,173 -4,310 -7,193 -6,271 4,340 9,62 12,193 10,423 l -2,332 71,0 c 39,0 160,-5 270,-12 z m 180,-1324 c 25,-14 46,-32 46,-40 0,-8 6,-14 13,-14 6,0 35,-17 62,-38 28,-20 63,-43 78,-50 39,-17 121,-15 184,5 39,12 56,14 64,6 18,-18 3,-43 -25,-43 -15,0 -27,-7 -30,-18 -3,-10 -24,-38 -47,-62 -23,-25 -59,-69 -81,-97 -32,-42 -46,-53 -69,-53 -15,0 -31,5 -34,10 -3,6 -28,10 -54,10 -31,0 -53,5 -61,15 -7,8 -17,15 -22,15 -6,0 -22,13 -37,29 -15,16 -47,35 -72,42 -58,17 -63,20 -99,90 -24,47 -30,70 -28,106 3,42 7,50 48,79 57,41 101,43 164,8 z m 895,-104 c 47,-6 94,-18 105,-26 11,-8 30,-14 41,-14 37,-1 119,-53 136,-88 9,-18 28,-42 43,-53 17,-13 26,-30 26,-47 0,-15 2,-43 6,-63 9,-55 -31,-123 -74,-127 -27,-3 -32,0 -32,18 0,42 -59,136 -106,168 -24,18 -51,32 -59,32 -7,0 -16,4 -19,9 -9,14 -129,1 -142,-15 -13,-16 -34,-19 -34,-4 0,5 -16,25 -35,44 -19,20 -35,42 -35,51 0,8 -8,15 -18,15 -9,0 -23,9 -29,19 -18,29 -117,63 -148,51 -16,-6 -25,-6 -25,0 0,16 47,30 77,24 16,-3 36,1 47,9 22,16 147,15 275,-3 z m -282,-141 c 40,-25 83,-88 83,-123 0,-14 5,-37 10,-52 15,-38 -7,-260 -28,-294 -9,-14 -19,-27 -22,-30 -3,-3 -18,-25 -35,-49 -16,-23 -49,-59 -72,-79 -43,-35 -44,-35 -86,-21 -60,20 -100,60 -136,134 -26,53 -31,75 -31,137 0,126 33,218 106,297 91,100 146,120 211,80 z m -664,-147 c 9,-8 17,-25 17,-36 0,-12 4,-28 9,-35 6,-9 6,-22 0,-32 -15,-29 25,-59 77,-59 24,0 46,5 49,10 3,6 17,10 30,10 13,0 27,-4 30,-10 3,-5 13,-10 22,-10 9,0 27,-9 39,-21 19,-18 21,-28 17,-79 -5,-49 -2,-63 16,-86 11,-15 21,-33 21,-41 0,-7 8,-26 18,-41 54,-84 124,-132 194,-132 51,0 66,11 142,103 54,64 91,76 102,33 9,-36 -3,-48 -37,-41 -26,6 -29,4 -29,-19 0,-19 7,-29 25,-36 14,-5 29,-20 34,-33 5,-13 25,-41 45,-62 32,-33 39,-37 71,-31 l 35,7 0,-43 c 0,-45 -38,-139 -61,-154 -46,-28 -235,-36 -378,-16 -94,13 -161,35 -206,67 -16,11 -78,51 -136,88 -102,64 -199,153 -199,182 0,8 12,20 28,27 18,9 27,21 27,37 0,30 -17,37 -38,16 -30,-30 -100,-14 -147,34 -9,9 -26,33 -39,54 -20,34 -23,47 -19,130 3,84 6,97 38,147 43,69 59,87 90,98 29,11 87,-2 113,-26 z m 1033,1 c 14,-9 37,-35 51,-56 23,-37 25,-47 20,-121 -4,-71 -10,-92 -48,-166 -24,-47 -52,-105 -63,-130 -19,-48 -85,-120 -109,-120 -18,0 -67,62 -67,85 0,33 20,56 47,53 23,-3 28,3 45,52 24,70 21,95 -12,95 -20,0 -27,-8 -41,-45 -19,-53 -37,-59 -63,-24 -17,24 -17,29 -3,67 8,23 20,65 27,92 6,28 20,66 30,85 10,19 26,55 35,79 9,25 24,51 33,58 24,18 88,16 118,-4 z m 372,-63 c -5,-49 -28,-51 -28,-2 0,21 3,42 7,46 13,12 24,-12 21,-44 z m -1263,9 c 5,-5 17,-9 28,-9 29,0 129,-49 122,-60 -9,-15 -61,-12 -75,5 -7,8 -25,15 -41,15 -15,0 -30,4 -33,9 -3,5 -22,12 -41,15 -34,7 -48,29 -22,39 14,6 48,-2 62,-14 z m 1210,-157 c -3,-8 -5,-23 -5,-34 0,-12 -8,-22 -20,-25 -24,-6 -23,-36 1,-41 10,-2 19,6 22,18 7,26 46,27 79,0 29,-22 103,-50 136,-50 28,0 51,-10 237,-100 77,-38 166,-80 197,-94 31,-14 60,-31 64,-37 3,-6 30,-22 58,-35 79,-37 216,-113 323,-180 54,-33 117,-70 141,-82 24,-12 49,-27 55,-32 7,-6 62,-47 122,-92 61,-45 112,-85 113,-90 2,-4 9,-8 16,-8 7,0 28,-15 47,-33 19,-19 40,-36 47,-38 8,-3 13,-71 17,-239 7,-324 3,-477 -12,-489 -4,-4 -111,-3 -238,2 -324,12 -475,13 -586,4 l -96,-7 1,192 1,193 45,1 c 51,0 125,20 154,40 15,10 42,12 111,7 79,-5 97,-3 139,16 52,23 65,35 96,93 27,51 42,195 29,277 -11,73 -34,110 -84,141 -20,12 -55,42 -79,66 -29,31 -48,43 -59,38 -24,-9 -21,-21 9,-49 l 26,-24 -32,-30 c -40,-36 -36,-68 8,-56 15,4 45,7 67,7 33,0 45,-7 73,-37 l 34,-36 -6,-107 c -3,-60 -10,-108 -16,-110 -5,-2 -10,-14 -10,-27 0,-14 -18,-41 -44,-68 -54,-56 -107,-68 -174,-42 -30,12 -46,14 -55,7 -41,-34 -252,-47 -407,-25 -155,22 -394,178 -440,288 -12,28 -32,73 -45,100 -55,118 -52,276 7,362 19,28 40,63 47,79 7,16 34,46 61,66 39,31 49,35 54,22 12,-30 6,-54 -22,-86 -41,-49 -54,-84 -40,-107 10,-16 7,-23 -20,-46 -25,-21 -32,-35 -32,-63 0,-48 24,-72 72,-72 43,0 50,16 14,29 -13,5 -26,17 -30,27 -8,20 14,38 28,24 15,-15 36,-12 36,4 0,8 -7,21 -15,30 -20,20 -20,20 18,71 20,28 40,44 53,45 27,0 39,-28 20,-49 -20,-23 -29,-77 -16,-100 14,-27 51,-27 75,-1 10,11 23,43 29,72 11,47 16,55 51,72 22,11 44,25 48,33 4,7 15,13 22,13 22,0 19,-43 -6,-90 -20,-39 -20,-70 0,-70 17,0 50,56 61,105 22,98 -24,147 -85,90 -15,-13 -50,-31 -78,-39 -43,-13 -55,-13 -83,-1 -42,17 -60,67 -44,125 6,22 8,45 5,50 -9,15 -31,12 -45,-5 -7,-8 -23,-15 -36,-15 -38,0 -102,-46 -123,-88 -11,-21 -27,-44 -36,-52 -8,-7 -32,-42 -51,-77 -34,-61 -36,-67 -36,-166 -1,-75 4,-117 17,-153 27,-75 52,-126 80,-164 14,-19 25,-40 25,-47 0,-20 119,-129 161,-149 38,-16 54,-38 43,-55 -3,-5 -11,-9 -18,-9 -19,0 -54,-19 -113,-63 -56,-41 -66,-57 -57,-93 3,-13 2,-30 -3,-37 -6,-6 -13,-26 -16,-44 -3,-17 -17,-54 -31,-82 -13,-28 -27,-70 -31,-94 -11,-65 -19,-70 -95,-62 -36,4 -195,6 -355,5 -159,-2 -348,-4 -420,-4 l -130,-1 2,25 c 17,206 34,602 31,734 -6,221 10,271 76,237 29,-15 224,-31 272,-21 54,10 130,37 160,57 35,23 74,114 74,174 0,26 -4,51 -10,54 -19,12 -9,40 30,85 22,25 40,51 40,58 0,8 6,26 14,40 8,15 23,50 34,77 18,44 26,52 67,67 26,9 56,25 66,34 14,13 23,14 30,7 15,-15 4,-42 -31,-80 -16,-18 -30,-37 -30,-42 0,-22 40,-10 57,17 10,15 21,30 26,33 5,4 11,29 13,57 2,28 10,68 19,89 16,36 17,37 31,18 8,-11 12,-26 9,-33 z m -997,-668 c 21,-14 21,-17 7,-45 -19,-36 -39,-37 -70,-3 -38,41 -32,64 14,64 15,0 37,-7 49,-16 z m -88,-73 c 0,-5 13,-14 30,-21 31,-13 32,-30 2,-30 -20,0 -65,44 -55,54 9,9 23,7 23,-3 z m -34,-47 c 19,-28 63,-54 94,-54 11,0 21,-6 21,-12 5,-49 -4,-355 -11,-408 -5,-36 -10,-138 -10,-227 0,-89 -3,-168 -6,-177 -5,-14 -29,-16 -160,-16 l -154,0 0,63 c 0,34 -7,87 -15,117 -18,68 -19,163 -2,212 17,48 48,82 114,125 29,18 61,46 70,61 10,15 23,32 28,37 35,32 66,88 63,113 -4,38 -30,34 -50,-8 -9,-19 -21,-39 -25,-45 -5,-5 -17,-23 -27,-40 -58,-92 -82,-88 -139,26 -25,50 -43,97 -40,104 6,16 146,125 160,125 6,0 16,7 23,15 19,23 48,18 66,-11 z M 4449,813 c 12,-27 28,-58 37,-70 15,-21 14,-24 -34,-75 -46,-49 -50,-58 -60,-125 -11,-75 -1,-208 19,-249 6,-11 11,-43 12,-70 l 2,-49 -100,0 -100,0 -3,38 c -2,22 -10,41 -18,44 -24,9 -16,48 16,71 l 30,23 0,138 c 0,122 3,144 23,189 20,47 130,182 147,182 4,0 17,-21 29,-47 z M 6215,636 c 18,-13 18,-15 3,-38 -22,-33 -34,-113 -18,-123 11,-7 82,23 88,38 2,4 14,7 27,7 16,0 26,-7 31,-22 17,-58 64,-78 64,-28 0,41 22,39 56,-5 25,-34 26,-39 25,-157 -1,-67 -4,-124 -6,-126 -2,-2 -19,-5 -37,-5 l -33,-2 0,54 c 0,61 -15,78 -58,67 -32,-8 -51,-39 -51,-86 l -1,-35 -95,-3 c -52,-1 -101,0 -108,3 -19,7 9,56 73,123 39,41 55,65 55,85 0,41 -26,32 -64,-22 -18,-25 -37,-46 -43,-48 -12,-4 -38,21 -76,71 -12,16 -29,36 -37,45 -22,24 -43,67 -39,79 8,20 181,142 203,142 12,0 31,-6 41,-14 z m 85,-35 c 15,-30 13,-38 -20,-51 -39,-16 -45,-10 -29,34 14,40 33,46 49,17 z m 121,-16 c 4,-3 1,-19 -8,-36 l -15,-30 -24,22 c -23,21 -31,49 -18,62 5,5 44,-6 65,-18 z m 79,-40 c 0,-40 -14,-45 -41,-13 -22,24 -10,48 22,48 15,0 19,-7 19,-35 z M 4202,453 c -2,-38 -13,-85 -23,-105 -23,-45 -24,-77 -4,-104 34,-45 8,-60 -31,-16 -41,45 -66,100 -55,120 25,47 110,171 117,172 1,0 -1,-30 -4,-67 z m 1778,-64 c 0,-6 23,-34 50,-63 28,-29 50,-58 50,-64 0,-6 -9,-30 -21,-52 l -21,-40 -77,0 c -43,0 -81,3 -84,6 -3,4 -1,16 5,27 11,22 36,111 44,162 9,54 12,57 34,45 11,-6 20,-15 20,-21 z m 400,-165 c 0,-15 -6,-24 -15,-24 -15,0 -21,40 -9,53 12,11 24,-3 24,-29 z"
       id="path76"
       inkscape:connector-curvature="0" />
    <path
       d="m 5110,1857 c -23,-19 -50,-84 -50,-122 0,-32 3,-35 28,-35 17,0 32,8 42,23 45,70 51,104 22,130 -22,20 -23,20 -42,4 z"
       id="path130"
       inkscape:connector-curvature="0" />
    <path
       d="m 5008,1298 c -43,-23 -49,-45 -15,-53 32,-8 73,10 80,34 8,34 -21,42 -65,19 z"
       id="path132"
       inkscape:connector-curvature="0" />
    <path
       d="m 5960,1062 c 0,-10 12,-22 30,-29 29,-11 29,-13 28,-78 -1,-59 2,-69 25,-92 25,-25 27,-26 51,-9 21,13 26,24 26,61 0,57 -11,84 -53,128 -27,29 -42,37 -71,37 -28,0 -36,-4 -36,-18 z"
       id="path134"
       inkscape:connector-curvature="0" />
    <path
       d="m 6242,991 c -8,-4 -14,-23 -15,-42 -3,-48 26,-51 48,-5 23,47 5,72 -33,47 z"
       id="path136"
       inkscape:connector-curvature="0" />
    <path
       d="m 4646,1033 c -13,-13 -5,-40 19,-63 14,-13 27,-22 29,-19 9,11 15,45 8,55 -10,16 -48,34 -56,27 z"
       id="path138"
       inkscape:connector-curvature="0" />
    <path
       d="m 4690,791 c -17,-33 -12,-51 15,-51 22,0 25,4 25,35 0,39 -22,48 -40,16 z"
       id="path140"
       inkscape:connector-curvature="0" />
    <path
       d="m 4665,676 c -20,-31 -14,-56 14,-56 27,0 40,46 18,67 -13,14 -17,13 -32,-11 z"
       id="path142"
       inkscape:connector-curvature="0" />
    <path
       d="m 4624,555 c -17,-42 -12,-55 21,-55 18,0 26,7 31,24 16,65 -27,91 -52,31 z"
       id="path144"
       inkscape:connector-curvature="0" />
    <path
       d="m 4599,446 c -13,-29 -7,-54 17,-63 21,-8 35,15 32,52 -4,39 -33,46 -49,11 z"
       id="path146"
       inkscape:connector-curvature="0" />
    <path
       d="m 4575,349 c -9,-14 3,-59 15,-59 18,0 52,41 46,56 -6,16 -52,19 -61,3 z"
       id="path148"
       inkscape:connector-curvature="0" />
    <path
       d="m 4550,231 c 0,-42 15,-46 39,-12 23,31 19,41 -16,41 -19,0 -23,-5 -23,-29 z"
       id="path150"
       inkscape:connector-curvature="0" />
    <path
       d="m 455,76 c -17,-12 -17,-13 1,-18 10,-2 62,-1 114,2 83,5 89,7 50,12 -103,16 -148,17 -165,4 z"
       id="path152"
       inkscape:connector-curvature="0" />
    <path
       d="m 1460,70 c -10,-7 15,-9 80,-9 77,1 88,3 55,10 -55,11 -117,11 -135,-1 z"
       id="path154"
       inkscape:connector-curvature="0" />
    <path
       d="m 1705,70 c -3,-5 3,-10 15,-10 12,0 18,5 15,10 -3,6 -10,10 -15,10 -5,0 -12,-4 -15,-10 z"
       id="path156"
       inkscape:connector-curvature="0" />
  </g>
  <text
     xml:space="preserve"
     style="font-size:10.85881233px;font-style:normal;font-variant:normal;font-weight:normal;font-stretch:normal;text-align:start;line-height:125%;letter-spacing:0px;word-spacing:0px;text-anchor:start;fill:#000000;fill-opacity:1;stroke:none;font-family:URW Bookman L;-inkscape-font-specification:URW Bookman L"
     x="30.814404"
     y="19.696838"
     id="text3057"
     sodipodi:linespacing="125%"
     transform="scale(0.96790536,1.0331589)"><tspan
       sodipodi:role="line"
       x="30.814404"
       y="19.696838"
       id="tspan3061"
       style="font-style:normal;font-variant:normal;font-weight:bold;font-stretch:normal;font-family:Comic Sans MS;-inkscape-font-specification:Comic Sans MS">VOCÊ SE DIVERTIU MUITO</tspan><tspan
       sodipodi:role="line"
       x="30.814404"
       y="33.270355"
       id="tspan3065"
       style="font-style:normal;font-variant:normal;font-weight:bold;font-stretch:normal;font-family:Comic Sans MS;-inkscape-font-specification:Comic Sans MS">NAS FESTAS DE SÃO JOÃO</tspan><tspan
       sodipodi:role="line"
       x="30.814404"
       y="46.843868"
       id="tspan3067"
       style="font-style:normal;font-variant:normal;font-weight:bold;font-stretch:normal;font-family:Comic Sans MS;-inkscape-font-specification:Comic Sans MS">              CEBOLINHA?</tspan></text>
  <text
     xml:space="preserve"
     style="font-size:11.09599876px;font-style:normal;font-variant:normal;font-weight:normal;font-stretch:normal;text-align:start;line-height:125%;letter-spacing:0px;word-spacing:0px;text-anchor:start;fill:#000000;fill-opacity:1;stroke:none;font-family:URW Bookman L;-inkscape-font-specification:URW Bookman L"
     x="288.97903"
     y="20.007591"
     id="text3069"
     sodipodi:linespacing="125%"
     transform="scale(0.92389277,1.0823767)"><tspan
       sodipodi:role="line"
       id="tspan3071"
       x="288.97903"
       y="20.007591"
       style="font-style:normal;font-variant:normal;font-weight:bold;font-stretch:normal;font-family:Comic Sans MS;-inkscape-font-specification:Comic Sans MS">EU ME DIVERTI BAS-</tspan><tspan
       sodipodi:role="line"
       x="288.97903"
       y="33.87759"
       id="tspan3073"
       style="font-style:normal;font-variant:normal;font-weight:bold;font-stretch:normal;font-family:Comic Sans MS;-inkscape-font-specification:Comic Sans MS">TANTE... ATÉ TENTAR</tspan><tspan
       sodipodi:role="line"
       x="288.97903"
       y="47.747589"
       id="tspan3075"
       style="font-style:normal;font-variant:normal;font-weight:bold;font-stretch:normal;font-family:Comic Sans MS;-inkscape-font-specification:Comic Sans MS">PULAR A FOGUEIRA!</tspan></text>
</svg>
