<?xml version="1.0" encoding="UTF-8"?>
<svg xmlns="http://www.w3.org/2000/svg" xmlns:xlink="http://www.w3.org/1999/xlink" width="400pt" height="112pt" viewBox="0 0 400 112" version="1.1">
<g id="surface1">
<path style=" stroke:none;fill-rule:nonzero;fill:rgb(0%,0%,0%);fill-opacity:1;" d="M 19.867188 8.710938 C 19.378906 9.199219 19.511719 10.578125 20.089844 10.933594 C 20.398438 11.109375 23.246094 11.246094 26.398438 11.199219 C 29.601562 11.15625 32.445312 11.246094 32.667969 11.421875 C 32.976562 11.644531 33.066406 12.890625 32.890625 14.667969 L 32.667969 17.554688 L 19.554688 17.644531 C 12.355469 17.6875 6.089844 17.734375 5.644531 17.734375 C 5.023438 17.777344 4.84375 18.089844 4.976562 18.976562 L 5.109375 20.222656 L 18.890625 20.445312 L 32.667969 20.667969 L 32.800781 24.3125 L 32.933594 28 L 26.222656 28 C 19.867188 28 19.554688 28.042969 19.554688 28.890625 C 19.554688 30.042969 20.398438 30.222656 27.289062 30.355469 L 33.066406 30.445312 L 32.933594 33.109375 C 32.753906 37.867188 34.265625 37.421875 18.84375 37.289062 C 7.378906 37.15625 5.246094 37.199219 4.890625 37.734375 C 4.667969 38.132812 4.667969 38.753906 4.976562 39.246094 C 5.421875 40.089844 5.957031 40.089844 18.578125 39.957031 C 25.867188 39.867188 32.042969 39.957031 32.355469 40.132812 C 32.710938 40.355469 32.890625 41.601562 32.890625 43.601562 L 32.890625 46.667969 L 26.445312 46.667969 C 21.066406 46.667969 19.910156 46.800781 19.734375 47.332031 C 19.554688 47.6875 19.734375 48.3125 20.042969 48.710938 C 20.535156 49.289062 21.554688 49.378906 26.265625 49.246094 C 30 49.15625 32.132812 49.289062 32.445312 49.601562 C 32.710938 49.867188 32.890625 51.332031 32.800781 53.15625 L 32.667969 56.222656 L 19.246094 56.265625 C 11.910156 56.3125 5.554688 56.445312 5.15625 56.578125 C 4.222656 56.933594 4.265625 57.511719 5.199219 58.488281 C 5.910156 59.199219 7.023438 59.199219 18.667969 58.933594 C 25.644531 58.753906 31.6875 58.753906 32.132812 58.890625 C 33.246094 59.332031 33.246094 65.554688 32.179688 65.957031 C 31.777344 66.132812 29.066406 66.089844 26.179688 65.957031 C 20.621094 65.644531 19.554688 65.910156 19.554688 67.601562 C 19.554688 68.753906 20.84375 68.976562 26.398438 68.890625 C 33.554688 68.710938 32.890625 68.398438 32.890625 71.957031 C 32.890625 75.464844 32.355469 76.265625 30.222656 75.867188 C 29.511719 75.6875 23.644531 75.554688 17.246094 75.554688 C 6.667969 75.511719 5.511719 75.554688 5.023438 76.265625 C 3.734375 78.042969 4.667969 78.222656 19.066406 78.3125 L 32.667969 78.445312 L 32.800781 81.066406 C 32.890625 82.535156 32.710938 83.910156 32.445312 84.179688 C 32.179688 84.445312 29.601562 84.621094 25.867188 84.667969 L 19.777344 84.667969 L 19.511719 87.066406 L 32.667969 87.332031 L 32.667969 93.554688 L 19.554688 93.644531 C 12.355469 93.6875 6.089844 93.820312 5.6875 93.957031 C 5.15625 94.042969 4.890625 94.578125 4.890625 95.289062 C 4.890625 96.089844 5.109375 96.445312 5.6875 96.488281 C 6.089844 96.488281 12.265625 96.488281 19.421875 96.445312 C 29.066406 96.398438 32.445312 96.535156 32.710938 96.933594 C 33.109375 97.644531 33.109375 100.800781 32.710938 101.246094 C 32.535156 101.421875 29.910156 101.464844 26.890625 101.421875 C 21.023438 101.246094 19.554688 101.464844 19.554688 102.445312 C 19.554688 103.378906 21.644531 104.578125 22.535156 104.222656 C 23.554688 103.867188 372.3125 103.820312 373.867188 104.222656 C 375.464844 104.621094 376.976562 103.734375 376.800781 102.535156 C 376.667969 101.601562 376.488281 101.554688 370.222656 101.554688 L 363.777344 101.554688 L 363.777344 96.667969 L 377.511719 96.578125 C 385.867188 96.535156 391.378906 96.355469 391.644531 96.089844 C 392.355469 95.378906 391.601562 93.867188 390.535156 93.6875 C 390 93.601562 383.867188 93.644531 376.976562 93.777344 C 367.6875 93.957031 364.265625 93.867188 363.957031 93.464844 C 363.6875 93.199219 363.554688 91.6875 363.644531 90.132812 L 363.777344 87.332031 L 369.554688 87.246094 C 372.753906 87.199219 375.6875 87.15625 376.132812 87.15625 C 376.753906 87.109375 376.933594 86.800781 376.800781 85.867188 L 376.667969 84.667969 L 363.777344 84.667969 L 363.777344 78.089844 L 377.6875 78.179688 C 389.957031 78.265625 391.601562 78.179688 391.820312 77.554688 C 392 77.199219 391.820312 76.578125 391.511719 76.179688 C 391.023438 75.554688 389.332031 75.464844 377.464844 75.644531 C 362 75.820312 363.378906 76.222656 363.644531 71.332031 L 363.777344 68.667969 L 370.089844 68.84375 C 375.820312 68.976562 376.445312 68.933594 376.710938 68.222656 C 376.890625 67.777344 376.84375 67.109375 376.578125 66.710938 C 376.179688 66.132812 375.15625 66 369.957031 66 L 363.777344 66 L 363.644531 62.753906 C 363.554688 60.933594 363.6875 59.246094 363.957031 58.976562 C 364.265625 58.578125 365.820312 58.535156 369.421875 58.753906 C 378.3125 59.246094 390.890625 59.15625 391.464844 58.578125 C 392.265625 57.777344 392.132812 56.445312 391.246094 56.398438 C 390.800781 56.398438 384.445312 56.3125 377.109375 56.3125 L 363.777344 56.222656 L 363.644531 53.554688 C 363.378906 48.753906 363.199219 48.933594 369.289062 49.199219 C 375.601562 49.511719 377.023438 49.246094 376.800781 47.867188 C 376.667969 46.933594 376.488281 46.890625 370.667969 46.800781 C 367.378906 46.753906 364.398438 46.710938 364.089844 46.710938 C 363.644531 46.667969 363.554688 45.777344 363.644531 43.199219 L 363.777344 39.777344 L 377.199219 39.957031 C 390.976562 40.132812 392 40 392 38.398438 C 392 37.109375 390.265625 36.976562 377.421875 37.289062 C 369.378906 37.464844 364.222656 37.378906 363.957031 37.109375 C 363.332031 36.488281 363.421875 30.222656 364.132812 30.179688 C 364.398438 30.179688 367.378906 30.132812 370.667969 30.089844 C 376.535156 30 376.667969 29.957031 376.800781 28.976562 C 376.933594 28 376.933594 28 370.222656 28 L 363.511719 28 L 363.644531 24.179688 L 363.777344 20.3125 L 377.421875 20.398438 C 390.976562 20.488281 391.066406 20.488281 391.554688 19.554688 C 391.910156 18.84375 391.957031 18.445312 391.601562 18.089844 C 391.289062 17.777344 386.445312 17.601562 377.464844 17.601562 L 363.777344 17.554688 L 363.777344 11.332031 L 369.554688 11.289062 C 377.601562 11.199219 376.976562 11.289062 376.800781 9.867188 L 376.667969 8.667969 L 369.109375 8.710938 C 336.578125 8.84375 34.089844 8.710938 28 8.578125 C 23.6875 8.488281 20.042969 8.535156 19.867188 8.710938 Z M 360.621094 11.511719 C 360.976562 12.042969 360.976562 100.355469 360.667969 100.933594 C 360.488281 101.199219 360.089844 101.15625 359.554688 100.890625 C 359.109375 100.667969 358.265625 100.445312 357.6875 100.445312 C 357.109375 100.445312 356.265625 100.132812 355.820312 99.777344 C 355.332031 99.421875 354.3125 99.109375 353.601562 99.109375 C 352.84375 99.109375 351.820312 98.800781 351.378906 98.445312 C 350.890625 98.089844 350 97.777344 349.378906 97.777344 C 348.753906 97.777344 347.644531 97.464844 346.933594 97.109375 C 346.265625 96.753906 345.246094 96.445312 344.753906 96.445312 C 344.222656 96.445312 343.023438 96.179688 342 95.820312 C 340.089844 95.199219 336.976562 94.265625 332.667969 93.15625 C 331.199219 92.753906 327.109375 91.601562 323.554688 90.621094 C 320 89.601562 316.042969 88.488281 314.800781 88.179688 C 310.753906 87.066406 307.867188 86.265625 305.332031 85.511719 C 304 85.15625 302.089844 84.621094 301.109375 84.355469 C 300.132812 84.132812 299.023438 83.777344 298.621094 83.554688 C 298.222656 83.332031 297.109375 83.023438 296.179688 82.84375 C 295.199219 82.710938 294.265625 82.398438 294 82.222656 C 293.777344 82.042969 292.667969 81.734375 291.554688 81.554688 C 290.445312 81.378906 289.378906 81.066406 289.109375 80.890625 C 288.890625 80.710938 287.957031 80.398438 287.109375 80.265625 C 286.265625 80.089844 285.15625 79.777344 284.667969 79.554688 C 284.179688 79.378906 282.976562 78.976562 282 78.753906 C 281.023438 78.488281 279.109375 77.957031 277.777344 77.554688 C 276.445312 77.15625 274.355469 76.535156 273.109375 76.222656 C 271.910156 75.910156 269.777344 75.289062 268.445312 74.890625 C 265.066406 73.910156 261.421875 72.933594 259.554688 72.445312 C 258.710938 72.265625 257.421875 71.867188 256.667969 71.644531 C 252.753906 70.355469 250.667969 69.777344 249.734375 69.777344 C 249.15625 69.777344 248.265625 69.464844 247.820312 69.109375 C 247.332031 68.753906 246.355469 68.445312 245.644531 68.445312 C 244.976562 68.445312 243.957031 68.222656 243.421875 67.910156 C 242.890625 67.644531 241.734375 67.246094 240.890625 67.066406 C 240.042969 66.933594 238.222656 66.445312 236.890625 66.042969 C 235.554688 65.6875 231.867188 64.667969 228.667969 63.777344 C 219.644531 61.332031 216.355469 60.398438 214.667969 59.910156 C 213.820312 59.6875 212.132812 59.246094 210.890625 58.976562 C 209.6875 58.667969 208.488281 58.3125 208.222656 58.179688 C 208 58 206.890625 57.734375 205.777344 57.554688 C 203.734375 57.199219 201.777344 56.222656 201.777344 55.511719 C 201.777344 55.289062 202.535156 55.109375 203.421875 55.109375 C 204.3125 55.109375 205.644531 54.933594 206.398438 54.710938 C 208.890625 53.957031 212.621094 52.933594 214.667969 52.445312 C 216.84375 51.910156 217.378906 51.734375 223.554688 50 C 225.867188 49.332031 228.398438 48.667969 229.109375 48.445312 C 229.867188 48.265625 232.042969 47.644531 234 47.109375 C 235.957031 46.578125 238.265625 45.957031 239.109375 45.777344 C 239.957031 45.554688 241.289062 45.199219 242 44.976562 C 245.910156 43.6875 248 43.109375 248.933594 43.109375 C 249.511719 43.109375 250.398438 42.800781 250.84375 42.445312 C 251.332031 42.089844 252.355469 41.777344 253.15625 41.777344 C 253.957031 41.777344 254.710938 41.601562 254.890625 41.378906 C 255.023438 41.109375 256.089844 40.800781 257.246094 40.621094 C 258.398438 40.488281 259.554688 40.179688 259.820312 39.957031 C 260.089844 39.734375 261.199219 39.378906 262.265625 39.15625 C 265.511719 38.445312 268.179688 37.734375 268.890625 37.378906 C 269.289062 37.15625 270.265625 36.84375 271.109375 36.710938 C 271.957031 36.535156 273.066406 36.222656 273.554688 36 C 274.398438 35.644531 276.398438 35.109375 280.222656 34.179688 C 281.199219 33.957031 282.398438 33.554688 282.890625 33.332031 C 283.378906 33.109375 284.578125 32.710938 285.554688 32.488281 C 286.535156 32.265625 288.445312 31.734375 289.777344 31.332031 C 291.109375 30.933594 293.023438 30.398438 294 30.179688 C 294.976562 29.910156 296.179688 29.554688 296.667969 29.332031 C 297.15625 29.109375 298.355469 28.753906 299.332031 28.535156 C 300.3125 28.265625 302.222656 27.734375 303.554688 27.332031 C 304.890625 26.933594 307.023438 26.355469 308.222656 26 C 309.464844 25.6875 314.132812 24.398438 318.667969 23.109375 C 330.042969 19.910156 330.398438 19.820312 334.667969 18.710938 C 336.753906 18.179688 339.066406 17.554688 339.777344 17.289062 C 340.535156 17.023438 341.820312 16.621094 342.667969 16.445312 C 346.089844 15.601562 348.265625 14.933594 349.644531 14.398438 C 350.398438 14.042969 351.511719 13.777344 352.089844 13.777344 C 352.667969 13.777344 353.554688 13.464844 354.042969 13.109375 C 354.488281 12.753906 355.511719 12.445312 356.222656 12.445312 C 356.976562 12.445312 358.042969 12.132812 358.667969 11.777344 C 360 11.023438 360.3125 10.976562 360.621094 11.511719 Z M 39.554688 12.3125 C 40.398438 12.445312 41.378906 12.753906 41.6875 13.023438 C 42 13.289062 43.109375 13.644531 44.132812 13.820312 C 45.15625 14 46.667969 14.355469 47.464844 14.621094 C 48.222656 14.890625 49.554688 15.332031 50.355469 15.601562 C 51.109375 15.867188 52.578125 16.265625 53.554688 16.445312 C 54.535156 16.621094 55.957031 16.976562 56.667969 17.246094 C 59.332031 18.179688 61.601562 18.84375 63.109375 19.15625 C 63.957031 19.332031 67.289062 20.222656 70.445312 21.109375 C 73.644531 22 77.332031 23.066406 78.667969 23.421875 C 80 23.777344 82.132812 24.355469 83.332031 24.667969 C 84.578125 25.023438 86.445312 25.511719 87.554688 25.820312 C 88.667969 26.089844 89.957031 26.488281 90.445312 26.710938 C 90.933594 26.933594 92.132812 27.289062 93.109375 27.511719 C 97.15625 28.488281 98.976562 29.023438 100.3125 29.601562 C 101.066406 29.957031 102.179688 30.222656 102.800781 30.222656 C 103.421875 30.222656 104.042969 30.398438 104.179688 30.621094 C 104.355469 30.84375 105.289062 31.15625 106.3125 31.332031 C 107.332031 31.511719 108.488281 31.820312 108.890625 32.042969 C 109.246094 32.222656 110.398438 32.578125 111.464844 32.84375 C 112.488281 33.109375 114.179688 33.554688 115.246094 33.820312 C 116.265625 34.089844 117.421875 34.445312 117.777344 34.621094 C 118.179688 34.84375 119.378906 35.15625 120.445312 35.332031 C 121.511719 35.511719 122.710938 35.820312 123.109375 36.042969 C 123.910156 36.445312 127.644531 37.554688 129.777344 38 C 130.621094 38.179688 131.601562 38.488281 132 38.667969 C 132.84375 39.109375 136.132812 39.957031 138.578125 40.398438 C 139.644531 40.578125 140.710938 40.976562 140.976562 41.246094 C 141.289062 41.554688 142.132812 41.777344 142.84375 41.777344 C 143.601562 41.777344 144.800781 42.089844 145.511719 42.445312 C 146.179688 42.800781 147.246094 43.109375 147.820312 43.109375 C 148.398438 43.109375 149.511719 43.378906 150.3125 43.734375 C 151.6875 44.3125 153.6875 44.890625 157.332031 45.777344 C 158.179688 45.957031 160.710938 46.667969 162.890625 47.289062 C 165.109375 47.910156 169.511719 49.15625 172.667969 50 C 175.867188 50.84375 179.554688 51.867188 180.890625 52.265625 C 182.222656 52.621094 184.445312 53.246094 185.777344 53.601562 C 187.109375 53.957031 188.84375 54.445312 189.601562 54.667969 C 190.355469 54.933594 191.6875 55.109375 192.578125 55.109375 C 195.644531 55.109375 194.222656 56.933594 190.667969 57.554688 C 189.820312 57.734375 188.535156 58.042969 187.777344 58.222656 C 187.066406 58.445312 185.332031 58.933594 184 59.289062 C 181.511719 59.957031 178.933594 60.667969 170 63.109375 C 167.332031 63.867188 163.910156 64.753906 162.445312 65.15625 C 160.976562 65.554688 158.890625 66.132812 157.777344 66.445312 C 156.667969 66.753906 154.578125 67.378906 153.109375 67.777344 C 151.644531 68.179688 149.867188 68.710938 149.109375 68.976562 C 148.398438 69.199219 146.976562 69.554688 146 69.734375 C 145.023438 69.910156 143.777344 70.3125 143.246094 70.578125 C 142.710938 70.890625 141.6875 71.109375 141.023438 71.109375 C 140.3125 71.109375 139.554688 71.289062 139.289062 71.554688 C 139.066406 71.777344 137.957031 72.179688 136.890625 72.398438 C 134.132812 72.976562 131.066406 73.820312 130 74.265625 C 129.511719 74.445312 128.398438 74.753906 127.554688 74.933594 C 126.710938 75.066406 125.734375 75.378906 125.332031 75.601562 C 124.710938 75.910156 123.15625 76.355469 118.890625 77.378906 C 117.910156 77.601562 116.710938 77.957031 116.222656 78.179688 C 115.332031 78.578125 113.109375 79.199219 109.332031 80.089844 C 108.222656 80.355469 107.15625 80.710938 106.890625 80.890625 C 106.667969 81.066406 105.6875 81.378906 104.710938 81.511719 C 103.777344 81.6875 102.667969 82 102.265625 82.222656 C 101.867188 82.398438 100.667969 82.800781 99.554688 83.066406 C 98.445312 83.332031 96.578125 83.867188 95.332031 84.265625 C 94.132812 84.621094 92.132812 85.199219 90.890625 85.511719 C 89.6875 85.867188 87.554688 86.445312 86.222656 86.84375 C 84.890625 87.246094 82.667969 87.867188 81.332031 88.265625 C 80 88.621094 78.3125 89.109375 77.554688 89.289062 C 76.84375 89.511719 72.84375 90.578125 68.667969 91.734375 C 64.535156 92.84375 60.132812 94.042969 58.890625 94.398438 C 57.6875 94.753906 55.464844 95.378906 54 95.777344 C 52.535156 96.179688 50.753906 96.710938 50 96.976562 C 49.289062 97.246094 47.957031 97.554688 47.109375 97.6875 C 46.265625 97.777344 45.15625 98.179688 44.667969 98.488281 C 44.179688 98.84375 43.246094 99.109375 42.535156 99.109375 C 41.867188 99.109375 40.84375 99.378906 40.3125 99.734375 C 38.84375 100.621094 35.734375 101.023438 35.246094 100.3125 C 34.976562 100 34.933594 98.179688 35.15625 95.601562 C 35.332031 93.332031 35.464844 73.464844 35.421875 51.464844 L 35.289062 11.464844 L 36.667969 11.777344 C 37.378906 11.910156 38.710938 12.179688 39.554688 12.3125 Z M 345.554688 12.890625 C 342.890625 13.601562 339.554688 14.488281 338.222656 14.890625 C 336.890625 15.289062 334.976562 15.777344 333.957031 16 C 332.976562 16.222656 331.6875 16.578125 331.066406 16.800781 C 330.488281 17.023438 328.84375 17.554688 327.421875 17.957031 C 325.066406 18.578125 322.890625 19.199219 317.777344 20.667969 C 316.667969 20.976562 314.578125 21.601562 313.109375 22 C 308.488281 23.332031 306.042969 24.042969 304.667969 24.535156 C 303.957031 24.753906 302.621094 25.15625 301.777344 25.332031 C 300.933594 25.511719 299.644531 25.910156 298.890625 26.132812 C 298.179688 26.398438 296.355469 26.933594 294.890625 27.332031 C 293.421875 27.777344 291.332031 28.355469 290.222656 28.667969 C 288.222656 29.246094 286.042969 29.867188 280.445312 31.289062 C 278.84375 31.734375 276.976562 32.265625 276.222656 32.488281 C 275.511719 32.753906 273.777344 33.246094 272.445312 33.554688 C 271.109375 33.867188 268.890625 34.445312 267.554688 34.800781 C 266.222656 35.199219 263.910156 35.820312 262.445312 36.222656 C 256.976562 37.6875 255.289062 38.132812 252.890625 38.890625 C 251.554688 39.289062 249.734375 39.777344 248.890625 40 C 248.042969 40.222656 245.957031 40.800781 244.222656 41.332031 C 242.535156 41.820312 240.132812 42.535156 238.890625 42.84375 C 236.578125 43.464844 233.734375 44.3125 229.644531 45.554688 C 228.398438 45.957031 226.535156 46.445312 225.511719 46.667969 C 224.535156 46.890625 223.246094 47.246094 222.621094 47.464844 C 222.042969 47.6875 220.355469 48.222656 218.890625 48.621094 C 217.421875 49.066406 215.644531 49.601562 214.890625 49.867188 C 214.179688 50.089844 212.84375 50.445312 212 50.621094 C 211.15625 50.800781 210 51.199219 209.464844 51.464844 C 208.933594 51.777344 208.132812 52 207.6875 52 C 207.246094 52 206.3125 52.3125 205.601562 52.667969 C 204.933594 53.023438 204 53.332031 203.601562 53.332031 C 203.199219 53.332031 202.3125 53.644531 201.644531 54 C 199.332031 55.199219 197.554688 55.246094 195.332031 54.265625 C 194.179688 53.734375 192.890625 53.332031 192.488281 53.332031 C 192.089844 53.332031 191.554688 53.15625 191.332031 52.933594 C 191.066406 52.667969 190.089844 52.3125 189.109375 52.042969 C 188.132812 51.820312 185.957031 51.199219 184.222656 50.667969 C 182.535156 50.132812 180.621094 49.601562 180 49.464844 C 179.378906 49.378906 178.265625 48.976562 177.464844 48.621094 C 176.710938 48.265625 175.734375 48 175.289062 48 C 174.84375 48 173.6875 47.734375 172.667969 47.378906 C 170.667969 46.710938 167.6875 45.777344 163.777344 44.667969 C 162.3125 44.265625 160.222656 43.644531 159.109375 43.332031 C 153.867188 41.820312 151.6875 41.246094 150.445312 40.890625 C 149.734375 40.710938 147.601562 40.089844 145.777344 39.554688 C 143.957031 39.066406 141.332031 38.3125 140 37.957031 C 138.667969 37.601562 136.667969 37.023438 135.554688 36.710938 C 134.445312 36.355469 132.265625 35.777344 130.667969 35.332031 C 129.066406 34.933594 126.667969 34.3125 125.332031 33.910156 C 122.042969 33.023438 118.488281 32.042969 115.777344 31.332031 C 109.421875 29.601562 103.601562 28 101.332031 27.289062 C 100.222656 26.933594 98.933594 26.667969 98.445312 26.667969 C 97.957031 26.621094 97.15625 26.355469 96.710938 26 C 96.222656 25.644531 95.199219 25.332031 94.445312 25.332031 C 93.6875 25.332031 92.890625 25.15625 92.621094 24.890625 C 92.398438 24.667969 91.289062 24.265625 90.222656 24.042969 C 89.109375 23.820312 87.644531 23.421875 86.890625 23.199219 C 86.179688 22.933594 84.355469 22.398438 82.890625 21.957031 C 81.421875 21.554688 79.421875 20.933594 78.445312 20.667969 C 77.464844 20.355469 75.464844 19.734375 74 19.332031 C 70.976562 18.488281 68.488281 17.777344 64.667969 16.667969 C 63.199219 16.265625 60.890625 15.601562 59.554688 15.246094 C 58.222656 14.890625 56.222656 14.3125 55.109375 14 C 54 13.6875 51.554688 13.066406 49.6875 12.667969 C 47.777344 12.222656 46.222656 11.820312 46.222656 11.734375 C 46.222656 11.644531 114.667969 11.554688 198.355469 11.601562 L 350.445312 11.644531 Z M 202 58.488281 C 202.753906 58.84375 204.042969 59.332031 204.890625 59.554688 C 206.355469 59.910156 207.066406 60.132812 210.800781 61.378906 C 211.554688 61.644531 212.933594 62.042969 213.777344 62.222656 C 214.621094 62.445312 216.398438 62.933594 217.644531 63.332031 C 222.976562 64.933594 224.3125 65.332031 226.222656 65.820312 C 227.332031 66.089844 228.535156 66.488281 228.890625 66.667969 C 229.289062 66.84375 230.265625 67.15625 231.109375 67.289062 C 231.957031 67.464844 233.464844 67.910156 234.445312 68.222656 C 235.421875 68.535156 237.421875 69.15625 238.890625 69.554688 C 245.511719 71.332031 250.488281 72.753906 253.109375 73.601562 C 254.089844 73.910156 256.042969 74.445312 257.464844 74.84375 C 263.910156 76.578125 265.066406 76.933594 267.464844 77.554688 C 268.84375 77.957031 271.023438 78.535156 272.265625 78.890625 C 273.511719 79.246094 274.84375 79.554688 275.289062 79.554688 C 275.6875 79.554688 276.355469 79.734375 276.800781 80 C 277.464844 80.355469 280.265625 81.15625 284.890625 82.265625 C 287.957031 82.976562 290.445312 83.6875 291.332031 84.042969 C 291.820312 84.265625 293.109375 84.621094 294.222656 84.84375 C 295.332031 85.066406 296.890625 85.464844 297.6875 85.734375 C 298.445312 86 299.777344 86.445312 300.578125 86.710938 C 301.332031 86.976562 302.710938 87.378906 303.554688 87.554688 C 304.398438 87.777344 306.132812 88.265625 307.332031 88.621094 C 308.578125 89.023438 310.445312 89.554688 311.554688 89.820312 C 312.667969 90.132812 314.179688 90.621094 314.976562 90.933594 C 315.734375 91.289062 316.710938 91.554688 317.15625 91.554688 C 317.601562 91.554688 318.753906 91.820312 319.777344 92.179688 C 320.753906 92.535156 322.753906 93.15625 324.222656 93.554688 C 325.6875 93.957031 327.777344 94.578125 328.890625 94.890625 C 333.554688 96.222656 336.132812 96.933594 338.3125 97.554688 C 339.601562 97.910156 341.644531 98.535156 342.800781 98.890625 C 343.957031 99.246094 345.246094 99.554688 345.6875 99.554688 C 346.089844 99.601562 347.734375 99.957031 349.332031 100.445312 C 352.179688 101.246094 350.042969 101.289062 198 101.289062 L 43.777344 101.289062 L 48.890625 99.957031 C 51.6875 99.199219 54.84375 98.445312 55.910156 98.222656 C 56.933594 98 58.132812 97.644531 58.578125 97.421875 C 58.976562 97.199219 60.089844 96.84375 61.066406 96.710938 C 62 96.535156 63.109375 96.222656 63.511719 96 C 63.910156 95.820312 65.109375 95.421875 66.222656 95.15625 C 67.332031 94.890625 69.246094 94.355469 70.445312 93.957031 C 71.6875 93.601562 73.511719 93.109375 74.535156 92.890625 C 75.554688 92.667969 76.753906 92.3125 77.199219 92.089844 C 77.644531 91.867188 78.890625 91.421875 80 91.15625 C 81.109375 90.890625 83.023438 90.355469 84.222656 89.957031 C 85.464844 89.601562 87.15625 89.109375 88 88.890625 C 88.84375 88.710938 90.179688 88.3125 90.890625 88.089844 C 91.644531 87.820312 93.421875 87.289062 94.890625 86.890625 C 96.355469 86.488281 98.179688 85.957031 98.890625 85.6875 C 99.644531 85.464844 100.933594 85.109375 101.777344 84.933594 C 102.621094 84.753906 104.042969 84.398438 104.890625 84.132812 C 106.84375 83.511719 110.535156 82.488281 114 81.554688 C 115.464844 81.15625 117.777344 80.535156 119.109375 80.179688 C 120.445312 79.820312 122.578125 79.246094 123.777344 78.890625 C 125.023438 78.578125 127.109375 78 128.445312 77.644531 C 129.777344 77.246094 132.089844 76.621094 133.554688 76.265625 C 136 75.601562 141.109375 74.179688 146.222656 72.667969 C 147.332031 72.355469 149.421875 71.777344 150.890625 71.332031 C 152.355469 70.933594 154.578125 70.3125 155.777344 69.957031 C 157.023438 69.601562 158.710938 69.109375 159.554688 68.890625 C 161.023438 68.535156 164.222656 67.601562 169.554688 65.957031 C 170.800781 65.601562 172.621094 65.109375 173.644531 64.890625 C 174.667969 64.667969 175.867188 64.3125 176.3125 64.089844 C 176.753906 63.867188 178 63.421875 179.109375 63.15625 C 180.222656 62.890625 182.132812 62.355469 183.332031 61.957031 C 184.578125 61.601562 186.355469 61.109375 187.332031 60.84375 C 188.3125 60.578125 189.289062 60.222656 189.554688 59.957031 C 189.777344 59.734375 190.355469 59.554688 190.800781 59.554688 C 191.246094 59.554688 192.265625 59.246094 193.023438 58.890625 C 196.398438 57.332031 199.289062 57.199219 202 58.488281 Z M 202 58.488281 "/>
<path style="fill-rule:nonzero;fill:rgb(30.196078%,30.196078%,30.196078%);fill-opacity:1;stroke-width:1.733105;stroke-linecap:butt;stroke-linejoin:miter;stroke:rgb(0%,0%,0%);stroke-opacity:1;stroke-miterlimit:4;" d="M 544.108887 149.820557 C 526.651611 143.448486 413.22876 110.906982 324.008789 86.671143 C 300.651855 80.321045 278.041992 74.003906 273.746338 72.630615 C 263.562012 69.367676 188.833008 47.746582 161.092529 40.045166 L 139.438477 34.024658 L 974.794922 34.090576 L 962.655029 37.529297 C 955.986328 39.418945 919.720459 49.833984 882.070312 60.666504 C 844.420166 71.51001 791.773682 86.330566 765.087891 93.592529 C 701.5979 110.88501 614.904785 135.74707 586.571045 144.788818 C 558.413086 153.775635 555.820312 154.083252 544.108887 149.820557 Z M 544.108887 149.820557 " transform="matrix(0.355556,0,0,0.355556,0,0)"/>
<path style="fill-rule:nonzero;fill:rgb(30.196078%,30.196078%,30.196078%);fill-opacity:1;stroke-width:1.733105;stroke-linecap:butt;stroke-linejoin:miter;stroke:rgb(0%,0%,0%);stroke-opacity:1;stroke-miterlimit:4;" d="M 146.37085 279.931641 C 153.039551 278.22876 184.625244 269.263916 216.551514 260.002441 C 275.141602 243.006592 286.896973 239.699707 356.066895 220.748291 C 389.498291 211.585693 464.941406 190.140381 509.754639 177.044678 C 518.027344 174.627686 530.562744 170.661621 537.615967 168.222656 C 551.425781 163.45459 560.10498 162.718506 567.828369 165.651855 C 580.078125 170.310059 695.43457 203.565674 765.955811 222.758789 C 797.88208 231.459961 836.103516 242.072754 850.869141 246.368408 C 904.438477 261.925049 966.280518 279.602051 973.059082 281.293945 C 977.728271 282.458496 842.321777 283.018799 557.116699 283.018799 C 148.634033 283.007812 134.648437 282.897949 146.37085 279.931641 Z M 146.37085 279.931641 " transform="matrix(0.355556,0,0,0.355556,0,0)"/>
</g>
</svg>
