<?xml version="1.0" encoding="UTF-8"?>
<svg xmlns="http://www.w3.org/2000/svg" xmlns:xlink="http://www.w3.org/1999/xlink" width="380pt" height="200pt" viewBox="0 0 380 200" version="1.1">
<g id="surface1">
<path style=" stroke:none;fill-rule:nonzero;fill:rgb(0%,0%,0%);fill-opacity:1;" d="M 127.050781 27.445312 C 125.964844 27.921875 123.1875 28.871094 120.953125 29.550781 C 118.714844 30.164062 115.667969 31.113281 114.175781 31.589844 C 112.683594 32.132812 110.449219 32.675781 109.296875 32.949219 C 108.078125 33.21875 106.925781 33.695312 106.722656 34.035156 C 106.453125 34.375 105.707031 34.648438 105.027344 34.648438 C 104.28125 34.648438 102.386719 35.054688 100.828125 35.597656 C 99.199219 36.140625 94.730469 37.5 90.800781 38.722656 C 86.867188 39.878906 82.464844 41.304688 80.972656 41.78125 C 77.925781 42.730469 73.925781 43.953125 66.40625 46.195312 C 63.628906 47.011719 60.714844 47.894531 59.96875 48.234375 C 59.222656 48.574219 57.527344 49.050781 56.242188 49.320312 C 54.953125 49.523438 53.464844 50 52.851562 50.273438 C 52.3125 50.542969 50.144531 51.289062 48.109375 51.835938 C 41.402344 53.804688 34.898438 55.84375 33.542969 56.386719 C 32.796875 56.726562 31.101562 57.199219 29.816406 57.472656 C 28.527344 57.675781 27.171875 58.152344 26.765625 58.425781 C 26.425781 58.695312 25.003906 59.171875 23.714844 59.441406 C 22.429688 59.714844 20.9375 60.191406 20.328125 60.53125 C 18.566406 61.414062 12.332031 63.179688 10.839844 63.179688 C 9.011719 63.179688 8.539062 64.46875 9.488281 66.984375 C 10.027344 68.34375 10.230469 81.316406 10.164062 109.035156 C 10.097656 155.164062 9.488281 151.085938 16.941406 151.835938 C 19.378906 152.105469 22.089844 152.582031 23.039062 152.921875 C 23.988281 153.261719 26.5625 153.804688 28.796875 154.144531 C 31.035156 154.484375 36.25 155.433594 40.316406 156.25 C 44.449219 156.996094 49.464844 157.949219 51.496094 158.289062 C 53.53125 158.628906 57.800781 159.375 60.984375 159.917969 C 64.167969 160.460938 67.21875 161.074219 67.761719 161.277344 C 68.300781 161.550781 70.742188 161.957031 73.179688 162.363281 C 75.621094 162.703125 80.023438 163.449219 83.007812 164.0625 C 85.988281 164.605469 90.867188 165.558594 93.847656 166.03125 C 100.21875 167.1875 106.179688 168.273438 110.585938 169.226562 C 112.347656 169.632812 115.394531 170.175781 117.359375 170.515625 C 121.628906 171.128906 127.863281 172.351562 132.269531 173.300781 C 134.03125 173.710938 137.078125 174.253906 139.042969 174.59375 C 148.464844 176.15625 159.167969 178.058594 165.472656 179.414062 C 167.234375 179.824219 170.28125 180.367188 172.246094 180.707031 C 174.210938 180.976562 177.667969 181.589844 179.902344 181.996094 C 182.140625 182.472656 186.136719 183.21875 188.710938 183.761719 C 191.355469 184.238281 196.371094 185.121094 199.894531 185.734375 C 203.417969 186.34375 207.753906 187.160156 209.515625 187.566406 C 211.277344 187.976562 214.324219 188.519531 216.289062 188.859375 C 222.050781 189.742188 231.199219 191.507812 234.113281 192.253906 C 235.601562 192.59375 238.109375 192.933594 239.667969 192.933594 C 241.226562 192.933594 242.71875 193.207031 242.921875 193.613281 C 243.464844 194.496094 248.339844 194.496094 249.898438 193.683594 C 250.511719 193.273438 253.355469 192.324219 256.132812 191.574219 C 258.914062 190.761719 261.960938 189.878906 262.910156 189.605469 C 263.859375 189.265625 266.433594 188.519531 268.667969 187.839844 C 270.90625 187.226562 273.953125 186.277344 275.445312 185.800781 C 276.9375 185.324219 279.984375 184.375 282.222656 183.761719 C 284.457031 183.152344 287.507812 182.199219 288.996094 181.726562 C 290.488281 181.25 292.792969 180.570312 294.078125 180.300781 C 295.367188 180.09375 296.859375 179.621094 297.46875 179.347656 C 298.011719 179.074219 300.3125 178.328125 302.550781 177.648438 C 304.785156 176.96875 307.972656 176.085938 309.664062 175.542969 C 311.359375 175.066406 315.761719 173.710938 319.488281 172.621094 C 323.21875 171.535156 328.570312 169.972656 331.347656 169.15625 C 334.125 168.34375 338.734375 166.914062 341.511719 166.03125 C 344.289062 165.148438 347.542969 164.265625 348.628906 163.996094 C 349.777344 163.722656 351 163.316406 351.335938 163.042969 C 351.742188 162.773438 353.234375 162.296875 354.726562 162.023438 C 356.214844 161.753906 357.773438 161.277344 358.179688 160.9375 C 358.65625 160.597656 360.484375 160.121094 362.316406 159.851562 C 366.378906 159.375 368.074219 157.539062 366.3125 155.636719 C 365.363281 154.550781 365.226562 149.933594 365.226562 115.558594 C 365.226562 81.65625 365.363281 76.699219 366.246094 76.359375 C 366.855469 76.085938 367.261719 75.066406 367.261719 73.980469 C 367.261719 72.214844 367.058594 72.011719 364.957031 72.011719 C 363.667969 72.011719 361.773438 71.671875 360.6875 71.261719 C 359.671875 70.855469 356.691406 70.109375 354.046875 69.632812 C 351.472656 69.15625 345.441406 67.933594 340.699219 66.984375 C 335.957031 66.03125 331.28125 65.21875 330.332031 65.21875 C 329.316406 65.21875 328.027344 64.945312 327.351562 64.605469 C 326.742188 64.265625 324.234375 63.65625 321.792969 63.246094 C 319.421875 62.839844 315.152344 62.09375 312.375 61.550781 C 309.597656 61.003906 304.855469 60.121094 301.871094 59.578125 C 290.757812 57.539062 288.253906 56.996094 285.269531 56.316406 C 283.578125 55.910156 280.527344 55.300781 278.496094 55.027344 C 276.460938 54.6875 273.074219 54.074219 271.042969 53.667969 C 259.859375 51.425781 256.878906 50.816406 246.648438 48.914062 C 240.480469 47.757812 234.042969 46.535156 232.28125 46.128906 C 230.519531 45.71875 227.472656 45.109375 225.507812 44.835938 C 223.542969 44.496094 219.609375 43.75 216.832031 43.207031 C 214.054688 42.664062 209.3125 41.78125 206.332031 41.238281 C 195.21875 39.199219 192.710938 38.65625 189.730469 37.976562 C 188.035156 37.566406 184.984375 36.957031 182.953125 36.683594 C 180.921875 36.34375 177.53125 35.734375 175.5 35.324219 C 164.859375 33.21875 161.40625 32.539062 151.105469 30.570312 C 144.9375 29.414062 138.027344 28.058594 135.722656 27.511719 C 130.640625 26.289062 129.625 26.289062 127.050781 27.445312 Z M 137.554688 31.929688 C 145.414062 33.355469 157.542969 35.734375 163.640625 37.023438 C 166.285156 37.636719 169.265625 38.042969 170.28125 38.042969 C 171.367188 38.042969 172.722656 38.316406 173.398438 38.65625 C 174.007812 38.996094 176.515625 39.605469 178.953125 40.011719 C 181.328125 40.421875 185.59375 41.167969 188.375 41.710938 C 191.152344 42.253906 195.894531 43.136719 198.875 43.683594 C 209.988281 45.71875 212.496094 46.261719 215.476562 46.941406 C 217.171875 47.351562 220.222656 47.960938 222.253906 48.234375 C 224.285156 48.574219 227.675781 49.183594 229.707031 49.59375 C 240.886719 51.835938 243.871094 52.445312 254.101562 54.347656 C 260.265625 55.503906 266.703125 56.726562 268.464844 57.132812 C 270.226562 57.539062 273.277344 58.152344 275.242188 58.425781 C 277.207031 58.761719 281.136719 59.511719 283.914062 60.054688 C 289.878906 61.210938 298.011719 62.773438 304.242188 63.859375 C 306.683594 64.265625 310.34375 65.082031 312.441406 65.625 C 314.476562 66.167969 317.1875 66.574219 318.40625 66.574219 C 319.625 66.574219 321.117188 66.847656 321.726562 67.1875 C 322.402344 67.527344 325.046875 68.136719 327.621094 68.546875 C 330.265625 68.953125 334.667969 69.769531 337.445312 70.3125 C 340.226562 70.855469 345.375 71.738281 348.898438 72.351562 C 356.351562 73.503906 359.941406 74.59375 359.46875 75.476562 C 359.199219 75.816406 357.976562 76.085938 356.621094 76.085938 C 355.265625 76.085938 353.234375 76.359375 352.082031 76.765625 C 350.929688 77.105469 348.152344 77.921875 345.917969 78.53125 C 336.226562 81.183594 334.261719 81.726562 331.347656 82.609375 C 329.652344 83.085938 326.46875 84.035156 324.234375 84.648438 C 321.996094 85.257812 318.8125 86.140625 317.117188 86.683594 C 315.425781 87.160156 311.765625 88.246094 308.988281 89.0625 C 306.210938 89.808594 303.023438 90.761719 301.871094 91.101562 C 300.789062 91.441406 297.535156 92.324219 294.757812 93.070312 C 291.980469 93.886719 288.929688 94.769531 287.980469 95.039062 C 282.765625 96.738281 269.347656 100.613281 263.25 102.242188 C 261.417969 102.71875 257.488281 103.941406 254.507812 104.890625 C 249.019531 106.726562 244.34375 107.066406 239.53125 106.046875 C 238.042969 105.707031 234.992188 105.09375 232.757812 104.6875 C 230.519531 104.210938 227.269531 103.601562 225.507812 103.191406 C 223.746094 102.785156 220.695312 102.242188 218.730469 101.902344 C 214.460938 101.289062 208.226562 100.066406 203.824219 99.117188 C 202.0625 98.710938 199.011719 98.164062 197.046875 97.824219 C 195.082031 97.554688 190.136719 96.601562 186.003906 95.855469 C 181.9375 95.039062 176.855469 94.089844 174.820312 93.75 C 172.789062 93.410156 169.738281 92.867188 168.046875 92.527344 C 166.351562 92.121094 161.945312 91.304688 158.21875 90.691406 C 154.492188 90.082031 150.226562 89.265625 148.734375 88.859375 C 147.242188 88.449219 144.328125 87.90625 142.296875 87.566406 C 135.113281 86.480469 121.765625 83.96875 116.414062 82.8125 C 114.652344 82.40625 111.601562 81.863281 109.636719 81.523438 C 103.808594 80.570312 88.628906 77.785156 83.886719 76.699219 C 82.125 76.289062 79.078125 75.746094 77.109375 75.40625 C 75.144531 75.136719 70.199219 74.183594 66.066406 73.4375 C 62 72.621094 56.917969 71.671875 54.886719 71.332031 C 52.851562 70.992188 48.71875 70.246094 45.738281 69.699219 C 38.625 68.34375 28.527344 66.644531 23.175781 65.898438 C 20.800781 65.625 18.769531 65.21875 18.632812 65.082031 C 18.296875 64.808594 22.632812 63.316406 30.492188 61.140625 C 33.269531 60.324219 36.320312 59.441406 37.269531 59.171875 C 38.21875 58.832031 40.792969 58.085938 43.027344 57.40625 C 45.265625 56.792969 48.3125 55.84375 49.804688 55.367188 C 53.125 54.28125 57.664062 52.921875 64.371094 51.019531 C 67.152344 50.203125 69.996094 49.253906 70.605469 48.84375 C 71.285156 48.503906 72.234375 48.234375 72.84375 48.234375 C 73.382812 48.234375 76.5 47.351562 79.753906 46.332031 C 83.074219 45.246094 88.019531 43.683594 90.800781 42.867188 C 93.578125 42.050781 96.421875 41.03125 97.03125 40.691406 C 97.710938 40.351562 98.660156 40.082031 99.269531 40.082031 C 99.8125 40.082031 103.0625 39.199219 106.519531 38.042969 C 109.976562 36.957031 114.515625 35.53125 116.546875 34.917969 C 118.582031 34.308594 121.96875 33.21875 124 32.539062 C 128 31.183594 132.675781 30.976562 137.554688 31.929688 Z M 19.3125 68.273438 C 20.800781 68.546875 22.765625 68.953125 23.714844 69.292969 C 24.664062 69.566406 29.203125 70.515625 33.878906 71.332031 C 38.554688 72.148438 43.570312 73.097656 45.0625 73.503906 C 46.550781 73.914062 49.464844 74.457031 51.496094 74.796875 C 59.289062 76.019531 71.621094 78.328125 78.667969 79.824219 C 81.175781 80.367188 83.953125 80.84375 84.835938 80.84375 C 85.785156 80.84375 87.410156 81.113281 88.496094 81.453125 C 89.578125 81.792969 94.117188 82.675781 98.589844 83.492188 C 103.0625 84.308594 108.144531 85.257812 109.90625 85.664062 C 111.667969 86.074219 114.71875 86.617188 116.683594 86.957031 C 123.933594 88.113281 132.335938 89.675781 133.691406 90.082031 C 134.503906 90.351562 136.808594 90.761719 138.910156 91.101562 C 140.941406 91.441406 144.9375 92.121094 147.71875 92.59375 C 150.496094 93.136719 154.96875 93.953125 157.542969 94.429688 C 160.183594 94.835938 163.980469 95.652344 166.082031 96.195312 C 168.113281 96.738281 170.757812 97.148438 171.90625 97.148438 C 172.992188 97.148438 174.820312 97.417969 175.90625 97.824219 C 176.988281 98.164062 179.699219 98.777344 181.9375 99.117188 C 186.542969 99.796875 192.644531 100.949219 197.316406 101.96875 C 199.078125 102.378906 202.128906 102.921875 204.09375 103.261719 C 206.058594 103.601562 210.125 104.28125 213.105469 104.890625 C 216.085938 105.433594 220.695312 106.25 223.269531 106.65625 C 225.914062 107.066406 228.960938 107.746094 230.113281 108.085938 C 231.332031 108.425781 234.382812 108.898438 236.890625 109.171875 C 239.464844 109.375 241.972656 109.851562 242.445312 110.257812 C 243.054688 110.734375 243.257812 119.632812 243.257812 150.542969 C 243.257812 184.917969 243.125 190.21875 242.242188 190.21875 C 241.699219 190.21875 239.9375 189.808594 238.382812 189.265625 C 236.753906 188.722656 233.976562 188.113281 232.078125 187.839844 C 230.25 187.566406 227.742188 187.09375 226.589844 186.753906 C 225.4375 186.414062 222.59375 185.871094 220.152344 185.460938 C 217.78125 185.121094 214.121094 184.511719 212.089844 184.171875 C 210.058594 183.761719 205.789062 182.949219 202.601562 182.335938 C 199.417969 181.792969 195.421875 180.976562 193.660156 180.636719 C 191.898438 180.230469 188.847656 179.6875 186.882812 179.347656 C 179.699219 178.191406 171.773438 176.699219 170.757812 176.359375 C 170.214844 176.085938 167.773438 175.679688 165.335938 175.339844 C 162.894531 175 159.574219 174.386719 157.882812 174.050781 C 156.1875 173.640625 151.78125 172.824219 148.054688 172.214844 C 144.328125 171.601562 140.195312 170.789062 138.910156 170.449219 C 137.554688 170.175781 134.503906 169.566406 132.132812 169.15625 C 129.691406 168.816406 124.542969 167.867188 120.613281 167.121094 C 116.683594 166.304688 111.804688 165.421875 109.773438 165.082031 C 107.738281 164.742188 104.351562 164.128906 102.316406 163.789062 C 100.285156 163.382812 96.015625 162.566406 92.832031 161.957031 C 89.648438 161.414062 85.648438 160.597656 83.886719 160.257812 C 82.125 159.851562 79.078125 159.308594 77.109375 158.96875 C 75.144531 158.695312 70.199219 157.746094 66.066406 156.996094 C 62 156.183594 56.917969 155.230469 54.886719 154.890625 C 52.851562 154.550781 48.855469 153.804688 46.078125 153.328125 C 43.300781 152.785156 38.894531 151.96875 36.25 151.496094 C 33.675781 151.085938 29.679688 150.273438 27.375 149.726562 C 25.140625 149.183594 22.5625 148.777344 21.617188 148.777344 C 20.734375 148.777344 18.703125 148.371094 17.074219 147.894531 L 14.230469 147.011719 L 14.160156 107.675781 C 14.160156 86.003906 14.160156 68.003906 14.160156 67.730469 C 14.230469 67.390625 14.773438 67.324219 15.449219 67.527344 C 16.058594 67.730469 17.820312 68.070312 19.3125 68.273438 Z M 361.027344 117.324219 C 360.824219 155.976562 360.824219 156.589844 359.46875 156.792969 C 358.722656 156.929688 356.757812 157.40625 355.0625 157.878906 C 353.371094 158.425781 349.710938 159.511719 346.933594 160.257812 C 344.15625 161.074219 341.308594 162.023438 340.699219 162.433594 C 340.019531 162.773438 339.074219 163.042969 338.464844 163.042969 C 337.921875 163.042969 336.160156 163.449219 334.601562 163.996094 C 332.972656 164.539062 329.382812 165.625 326.605469 166.441406 C 323.828125 167.253906 320.777344 168.136719 319.828125 168.476562 C 318.878906 168.816406 316.304688 169.566406 314.070312 170.175781 C 309.664062 171.398438 304.855469 172.894531 300.515625 174.253906 C 299.027344 174.726562 295.976562 175.679688 293.742188 176.289062 C 291.503906 176.902344 288.320312 177.851562 286.625 178.398438 C 284.933594 178.871094 280.390625 180.230469 276.460938 181.386719 C 272.53125 182.609375 268.128906 183.96875 266.636719 184.441406 C 265.144531 184.988281 262.773438 185.597656 261.351562 185.871094 C 259.996094 186.074219 258.640625 186.550781 258.4375 186.886719 C 258.234375 187.226562 257.558594 187.5 256.945312 187.5 C 256.269531 187.5 254.574219 188.113281 253.085938 188.859375 C 251.660156 189.605469 250.171875 189.945312 249.898438 189.675781 C 249.5625 189.335938 249.425781 171.261719 249.492188 149.457031 L 249.695312 109.78125 L 253.421875 108.96875 C 255.457031 108.492188 258.84375 107.609375 260.878906 106.996094 C 262.910156 106.386719 265.214844 105.707031 265.960938 105.503906 C 267.925781 104.960938 278.222656 101.96875 282.222656 100.816406 C 284.117188 100.273438 286.828125 99.523438 288.320312 99.117188 C 289.8125 98.777344 291.640625 98.234375 292.386719 97.894531 C 293.671875 97.28125 296.585938 96.46875 302.550781 95.039062 C 304.039062 94.699219 305.871094 94.15625 306.617188 93.816406 C 307.359375 93.476562 309.191406 92.867188 310.679688 92.527344 C 312.171875 92.121094 315.085938 91.304688 317.117188 90.761719 C 319.152344 90.148438 322.402344 89.199219 324.234375 88.722656 C 326.128906 88.179688 329.316406 87.296875 331.347656 86.683594 C 333.382812 86.003906 336.429688 85.191406 338.125 84.78125 C 339.816406 84.441406 341.445312 83.832031 341.851562 83.492188 C 342.191406 83.152344 342.933594 82.878906 343.546875 82.878906 C 344.96875 82.878906 353.4375 80.300781 356.082031 79.074219 C 357.234375 78.601562 358.789062 78.125 359.671875 78.125 L 361.164062 78.125 Z M 361.027344 117.324219 "/>
</g>
</svg>
