<?xml version="1.0" encoding="UTF-8" standalone="no"?>
<svg
   xmlns:dc="http://purl.org/dc/elements/1.1/"
   xmlns:cc="http://creativecommons.org/ns#"
   xmlns:rdf="http://www.w3.org/1999/02/22-rdf-syntax-ns#"
   xmlns:svg="http://www.w3.org/2000/svg"
   xmlns="http://www.w3.org/2000/svg"
   xmlns:sodipodi="http://sodipodi.sourceforge.net/DTD/sodipodi-0.dtd"
   xmlns:inkscape="http://www.inkscape.org/namespaces/inkscape"
   version="1.0"
   width="200.66199"
   height="54.988743"
   viewBox="0 0 160.52959 43.990994"
   preserveAspectRatio="xMidYMid meet"
   id="svg3018"
   inkscape:version="0.48.4 r9939"
   sodipodi:docname="114bb36b0d4412268945978bd2f02e0f1b94baa3.svg">
  <defs
     id="defs3044" />
  <sodipodi:namedview
     pagecolor="#ffffff"
     bordercolor="#666666"
     borderopacity="1"
     objecttolerance="10"
     gridtolerance="10"
     guidetolerance="10"
     inkscape:pageopacity="0"
     inkscape:pageshadow="2"
     inkscape:window-width="1600"
     inkscape:window-height="824"
     id="namedview3042"
     showgrid="false"
     fit-margin-top="0"
     fit-margin-left="0"
     fit-margin-right="0"
     fit-margin-bottom="0"
     inkscape:zoom="0.70382514"
     inkscape:cx="332.75587"
     inkscape:cy="75.000002"
     inkscape:window-x="0"
     inkscape:window-y="24"
     inkscape:window-maximized="1"
     inkscape:current-layer="svg3018" />
  <metadata
     id="metadata3020">
Created by potrace 1.10, written by Peter Selinger 2001-2011
<rdf:RDF>
  <cc:Work
     rdf:about="">
    <dc:format>image/svg+xml</dc:format>
    <dc:type
       rdf:resource="http://purl.org/dc/dcmitype/StillImage" />
  </cc:Work>
</rdf:RDF>
</metadata>
  <g
     transform="matrix(0.03088713,0,0,-0.03088713,-2.5621802,51.867213)"
     id="g3022"
     style="fill:#000000;stroke:none">
    <path
       d="m 2582,1671 c -11,-6 -13,-96 -13,-451 1,-244 2,-445 4,-447 2,-1 609,-3 1348,-3 1197,-1 1345,1 1354,15 7,10 7,20 0,30 -9,14 -152,16 -1328,15 l -1318,0 1,416 c 1,338 -1,418 -12,425 -16,11 -20,11 -36,0 z"
       id="path3024"
       inkscape:connector-curvature="0" />
    <path
       d="m 1709,1312 -97,-3 -7,-63 c -3,-35 -13,-85 -21,-111 -7,-26 -11,-51 -8,-56 9,-15 71,-10 84,6 7,9 29,15 51,15 33,0 41,-5 54,-30 21,-41 19,-58 -14,-91 -37,-37 -52,-36 -94,1 -34,29 -80,40 -91,21 -12,-19 14,-61 53,-86 102,-64 233,1 233,115 0,97 -86,155 -178,120 l -27,-11 6,42 c 3,23 10,46 15,51 6,6 48,11 94,12 l 83,1 3,31 c 4,38 -3,40 -139,36 z"
       id="path3026"
       inkscape:connector-curvature="0" />
    <path
       d="m 3590,1313 c -52,-2 -98,-7 -102,-11 -4,-4 -12,-46 -17,-93 -5,-47 -13,-97 -16,-112 -7,-25 -5,-27 28,-27 19,0 40,7 47,15 19,23 73,19 98,-8 31,-33 28,-70 -9,-101 -39,-33 -54,-33 -96,4 -42,37 -83,41 -83,8 1,-28 26,-58 69,-80 43,-23 83,-23 130,2 59,29 81,64 81,123 0,44 -4,53 -40,90 l -40,40 -61,-7 -61,-6 7,37 c 4,21 9,41 11,45 3,5 43,8 89,8 82,0 85,1 91,25 6,24 -10,58 -25,53 -3,-1 -49,-4 -101,-5 z"
       id="path3028"
       inkscape:connector-curvature="0" />
    <path
       d="m 150,1287 c -19,-12 -43,-37 -53,-55 -18,-30 -18,-35 -4,-49 19,-19 65,-10 74,15 19,55 69,68 102,26 29,-37 2,-94 -45,-94 -29,0 -38,-14 -24,-40 7,-13 21,-20 38,-20 37,0 52,-17 52,-57 0,-66 -84,-83 -115,-23 -13,25 -22,30 -51,30 -46,0 -53,-21 -20,-65 53,-69 135,-85 206,-40 76,48 90,115 34,164 l -35,32 25,30 c 85,100 -70,223 -184,146 z"
       id="path3030"
       inkscape:connector-curvature="0" />
    <path
       d="m 650,1292 c -58,-40 -65,-53 -65,-126 0,-66 1,-69 35,-98 30,-25 41,-29 80,-25 25,2 55,8 68,12 19,6 22,4 22,-18 0,-29 -50,-87 -74,-87 -9,0 -29,9 -44,20 -36,26 -71,29 -85,8 -9,-14 -7,-21 8,-35 61,-56 127,-68 184,-35 17,9 42,38 56,63 21,40 25,59 25,137 0,74 -4,97 -21,126 -40,68 -133,96 -189,58 z m 110,-62 c 50,-50 30,-123 -35,-128 -48,-4 -75,19 -75,66 0,68 67,105 110,62 z"
       id="path3032"
       inkscape:connector-curvature="0" />
    <path
       d="m 1150,1292 c -32,-21 -60,-52 -60,-66 0,-6 -3,-21 -6,-33 -8,-30 28,-50 63,-34 17,8 23,17 19,28 -8,19 30,63 54,63 36,0 60,-30 60,-75 0,-43 -2,-46 -72,-102 -40,-32 -79,-65 -86,-73 -21,-25 -52,-92 -46,-101 3,-5 70,-9 150,-9 l 145,0 -3,33 -3,32 -85,0 c -113,0 -116,14 -20,84 75,55 110,100 110,142 0,34 -37,88 -75,110 -38,22 -112,23 -145,1 z"
       id="path3034"
       inkscape:connector-curvature="0" />
    <path
       d="m 3190,1292 c -40,-27 -51,-40 -61,-74 -13,-48 -12,-55 16,-62 33,-8 69,10 60,31 -7,19 31,63 55,63 36,0 60,-30 60,-73 0,-41 -3,-45 -87,-118 -65,-55 -91,-84 -101,-113 -6,-21 -10,-42 -6,-47 3,-5 63,-9 133,-9 139,0 156,6 140,48 -9,23 -13,24 -86,20 -105,-4 -107,11 -11,84 53,40 79,67 93,98 l 19,42 -24,46 c -14,25 -38,54 -55,63 -39,23 -113,23 -145,1 z"
       id="path3036"
       inkscape:connector-curvature="0" />
    <path
       d="m 3337,544 c -17,-14 -27,-31 -23,-39 8,-22 49,-18 69,6 13,14 27,19 50,17 28,-3 32,-7 35,-37 3,-28 -3,-39 -38,-72 -23,-22 -46,-39 -51,-39 -5,0 -9,-7 -9,-15 0,-10 10,-15 29,-15 22,0 43,14 85,55 66,64 71,91 27,136 -26,25 -36,29 -88,29 -47,-1 -63,-5 -86,-26 z"
       id="path3038"
       inkscape:connector-curvature="0" />
    <path
       d="m 3374,306 c -13,-33 0,-51 36,-51 32,0 35,2 35,30 0,27 -4,30 -33,33 -22,2 -34,-2 -38,-12 z"
       id="path3040"
       inkscape:connector-curvature="0" />
  </g>
</svg>
