<?xml version="1.0" encoding="UTF-8" standalone="no"?>
<svg
   xmlns:dc="http://purl.org/dc/elements/1.1/"
   xmlns:cc="http://creativecommons.org/ns#"
   xmlns:rdf="http://www.w3.org/1999/02/22-rdf-syntax-ns#"
   xmlns:svg="http://www.w3.org/2000/svg"
   xmlns="http://www.w3.org/2000/svg"
   xmlns:sodipodi="http://sodipodi.sourceforge.net/DTD/sodipodi-0.dtd"
   xmlns:inkscape="http://www.inkscape.org/namespaces/inkscape"
   version="1.0"
   width="500.02301"
   height="185.7469"
   viewBox="0 0 400.01841 148.59752"
   preserveAspectRatio="xMidYMid meet"
   id="svg2"
   inkscape:version="0.48.4 r9939"
   sodipodi:docname="168c344b7b700327adab5a9d8fb16f31bb33cc4c.svg">
  <defs
     id="defs96" />
  <sodipodi:namedview
     pagecolor="#ffffff"
     bordercolor="#666666"
     borderopacity="1"
     objecttolerance="10"
     gridtolerance="10"
     guidetolerance="10"
     inkscape:pageopacity="0"
     inkscape:pageshadow="2"
     inkscape:window-width="1600"
     inkscape:window-height="824"
     id="namedview94"
     showgrid="false"
     fit-margin-top="0"
     fit-margin-left="0"
     fit-margin-right="0"
     fit-margin-bottom="0"
     inkscape:zoom="0.42933333"
     inkscape:cx="557.37672"
     inkscape:cy="213.56251"
     inkscape:window-x="0"
     inkscape:window-y="24"
     inkscape:window-maximized="1"
     inkscape:current-layer="svg2" />
  <metadata
     id="metadata4">
Created by potrace 1.10, written by Peter Selinger 2001-2011
<rdf:RDF>
  <cc:Work
     rdf:about="">
    <dc:format>image/svg+xml</dc:format>
    <dc:type
       rdf:resource="http://purl.org/dc/dcmitype/StillImage" />
  </cc:Work>
</rdf:RDF>
</metadata>
  <g
     transform="matrix(0.04464399,0,0,-0.04464399,-1.8297899,148.66449)"
     id="g6"
     style="fill:#000000;stroke:none">
    <path
       d="m 413,3318 c -19,-25 -22,-47 -7,-59 11,-9 18,-8 32,5 10,9 26,16 35,16 33,0 27,-23 -19,-68 -27,-26 -54,-57 -61,-69 -10,-20 -9,-24 8,-33 11,-6 45,-10 77,-8 49,3 57,6 57,23 0,15 -8,21 -32,25 l -33,5 35,38 c 37,40 45,80 25,118 -8,15 -21,19 -59,19 -27,0 -53,-6 -58,-12 z"
       id="path8"
       inkscape:connector-curvature="0" />
    <path
       d="m 604,3299 -29,-31 23,-15 c 19,-13 22,-24 22,-79 0,-68 5,-76 38,-67 21,5 22,10 21,108 -1,82 -4,105 -16,109 -24,9 -28,8 -59,-25 z"
       id="path10"
       inkscape:connector-curvature="0" />
    <path
       d="m 838,3274 c -35,-19 -48,-43 -48,-92 0,-71 82,-111 128,-61 17,17 20,18 25,5 4,-9 13,-16 21,-16 11,0 16,15 18,58 3,50 6,57 26,60 21,3 22,0 22,-56 0,-42 4,-61 14,-65 24,-9 36,15 36,71 0,46 3,53 18,50 13,-2 18,-16 22,-63 4,-52 8,-60 25,-60 18,0 20,8 23,68 3,62 1,69 -24,92 -19,18 -31,22 -43,16 -9,-5 -42,-9 -74,-9 -69,1 -87,-12 -87,-63 0,-28 -4,-39 -15,-39 -8,0 -24,-5 -34,-12 -28,-17 -51,-3 -51,31 0,33 31,51 55,31 16,-13 35,-5 35,15 0,11 -50,56 -62,55 -1,-1 -15,-7 -30,-16 z"
       id="path12"
       inkscape:connector-curvature="0" />
    <path
       d="m 8970,2921 c 0,-181 3,-336 6,-345 19,-48 24,28 24,335 0,295 -2,339 -15,339 -13,0 -15,-43 -15,-329 z"
       id="path14"
       inkscape:connector-curvature="0" />
    <path
       d="m 46,2883 c -9,-32 -5,-312 5,-318 5,-4 18,-3 30,0 18,6 20,13 17,68 l -3,62 680,0 680,0 5,-65 c 4,-53 8,-65 24,-68 10,-2 23,1 28,6 14,14 14,310 1,323 -6,6 -19,9 -29,7 -16,-3 -20,-15 -24,-71 l -5,-68 -670,1 c -369,0 -676,0 -683,0 -10,0 -12,13 -7,55 5,38 4,60 -5,70 -17,20 -38,19 -44,-2 z"
       id="path16"
       inkscape:connector-curvature="0" />
    <path
       d="m 51,2416 c -8,-9 -11,-63 -9,-172 l 3,-159 4440,-3 c 3159,-2 4451,0 4478,8 36,11 53,40 22,40 -22,0 -22,238 0,246 22,9 18,30 -7,40 -13,5 -2024,10 -4469,11 -3798,3 -4448,1 -4458,-11 z m 8867,-166 3,-120 -4410,0 c -3518,0 -4410,3 -4413,13 -9,23 0,220 10,226 6,3 1989,5 4409,4 l 4398,-3 3,-120 z"
       id="path18"
       inkscape:connector-curvature="0" />
    <path
       d="m 47,1883 c -9,-14 -6,-309 4,-324 6,-11 12,-11 26,-3 14,9 18,25 18,75 l 0,64 4418,3 4417,2 0,-69 c 0,-39 3,-72 8,-74 4,-3 19,-3 35,0 26,5 27,8 27,65 0,32 -4,57 -9,54 -12,-8 -21,18 -21,60 0,22 6,37 15,40 10,4 15,21 15,54 0,41 -3,49 -22,54 -44,11 -47,8 -50,-59 l -3,-65 -4409,0 c -2425,0 -4412,3 -4415,6 -3,3 -6,31 -6,62 0,51 -2,57 -22,60 -11,2 -23,0 -26,-5 z"
       id="path20"
       inkscape:connector-curvature="0" />
    <path
       d="m 4211,1504 c -40,-33 -45,-59 -14,-73 22,-10 25,-17 23,-59 -4,-71 -3,-74 28,-70 l 27,3 3,106 c 2,100 1,107 -18,112 -13,3 -31,-3 -49,-19 z"
       id="path22"
       inkscape:connector-curvature="0" />
    <path
       d="m 4598,1523 c -20,-5 -48,-72 -48,-114 0,-77 53,-132 108,-113 37,13 52,48 52,122 0,54 -4,67 -25,87 -23,23 -48,29 -87,18 z m 57,-59 c 28,-43 10,-123 -28,-124 -15,0 -28,56 -22,94 10,65 22,72 50,30 z"
       id="path24"
       inkscape:connector-curvature="0" />
    <path
       d="m 4436,1489 c -32,-38 -33,-57 -3,-61 19,-3 23,-10 27,-63 4,-43 9,-61 20,-62 32,-6 36,11 32,115 -4,98 -5,102 -27,102 -14,0 -34,-13 -49,-31 z"
       id="path26"
       inkscape:connector-curvature="0" />
    <path
       d="m 823,1479 c -29,-17 -53,-37 -53,-45 0,-20 -23,-17 -46,5 -33,30 -58,34 -84,11 -13,-11 -28,-20 -34,-20 -6,0 -18,-15 -27,-33 -14,-28 -21,-32 -52,-29 -43,3 -105,-31 -118,-65 -12,-33 0,-141 18,-147 8,-3 11,-10 8,-16 -6,-10 -54,18 -55,33 0,4 -5,13 -10,20 -6,7 -26,30 -45,52 -19,22 -35,43 -35,47 0,6 -22,31 -77,90 -57,60 -77,65 -125,32 -35,-25 -38,-30 -38,-76 0,-38 5,-54 23,-71 13,-12 41,-51 62,-87 47,-78 123,-180 135,-180 5,0 12,-10 15,-21 6,-19 33,-54 72,-94 7,-7 15,-25 19,-41 4,-15 13,-39 20,-53 8,-14 14,-31 14,-37 0,-6 7,-17 15,-24 8,-7 15,-21 15,-31 0,-11 4,-19 9,-19 5,0 13,-10 16,-22 7,-26 37,-91 46,-98 3,-3 16,-23 29,-45 14,-22 50,-64 80,-92 30,-29 64,-73 75,-98 22,-49 45,-59 45,-20 0,14 -4,25 -9,25 -5,0 -12,18 -16,40 -4,26 -13,41 -26,45 -10,4 -19,10 -19,15 0,5 -8,11 -17,14 -10,3 -29,23 -43,43 -14,21 -30,42 -37,46 -7,4 -13,15 -13,22 0,8 -4,15 -10,15 -5,0 -13,12 -16,26 -4,15 -20,50 -35,80 -16,29 -29,58 -29,64 0,6 -11,27 -23,48 -13,20 -27,50 -31,66 -4,15 -12,34 -19,42 -13,15 -11,11 -92,114 -59,73 -102,134 -138,194 -11,17 -27,40 -38,52 -10,11 -19,25 -19,31 0,6 -7,16 -15,23 -23,19 -18,46 11,65 24,15 28,15 60,0 19,-9 34,-20 34,-25 0,-6 8,-18 18,-28 9,-10 33,-38 52,-62 19,-24 56,-64 81,-89 25,-26 63,-67 84,-93 20,-27 43,-48 50,-48 6,0 17,-10 24,-22 10,-20 11,-18 6,17 -4,22 -15,52 -26,67 -10,15 -19,36 -19,46 0,10 -7,27 -15,38 -8,10 -15,40 -15,65 0,36 5,50 25,67 14,12 33,22 43,22 24,0 82,-66 82,-94 0,-12 7,-31 15,-42 8,-10 15,-29 15,-40 0,-12 7,-24 15,-28 10,-3 15,-19 15,-46 0,-33 -3,-40 -19,-40 -11,0 -23,-4 -26,-10 -3,-5 2,-10 12,-10 28,0 43,-14 52,-47 11,-38 1,-55 -34,-55 -34,0 -47,13 -50,54 -2,18 -3,35 -4,38 -2,10 -51,-49 -51,-62 0,-15 66,-75 91,-83 20,-7 83,35 93,61 4,12 11,11 37,-5 26,-16 37,-18 53,-9 32,16 54,43 58,69 3,21 9,24 54,27 75,4 86,21 89,127 2,61 -1,85 -9,82 -6,-2 -13,-14 -14,-28 -2,-13 -8,-28 -13,-34 -5,-5 -9,-24 -9,-43 0,-85 -65,-98 -94,-18 -8,23 28,66 56,66 10,0 18,5 18,10 0,17 -32,11 -78,-12 l -43,-23 3,-83 c 3,-89 -3,-102 -50,-102 -30,0 -60,63 -41,86 18,21 2,30 -19,11 -24,-22 -32,-13 -32,35 0,25 -5,41 -15,44 -10,4 -15,20 -15,44 0,21 -7,43 -15,50 -8,7 -15,21 -15,31 0,10 -5,39 -12,64 -12,43 -11,46 17,75 31,32 59,37 88,15 28,-21 57,-81 57,-119 0,-18 7,-39 15,-46 8,-7 15,-24 15,-39 0,-36 15,-59 24,-36 10,28 7,68 -9,99 -9,17 -15,55 -15,95 1,57 4,68 24,83 31,22 83,11 101,-22 18,-33 39,-135 31,-148 -3,-6 -3,-18 1,-29 6,-16 8,-15 13,7 3,14 14,26 23,28 13,3 17,-4 17,-26 0,-16 7,-35 15,-42 8,-7 15,-20 15,-30 0,-10 7,-23 15,-30 8,-7 15,-18 15,-24 0,-19 81,-76 108,-76 26,0 82,50 82,74 0,9 5,16 10,16 6,0 10,9 10,19 0,11 5,23 10,26 6,4 16,21 24,39 8,18 30,50 50,70 34,33 41,36 95,36 85,0 94,-16 42,-77 -22,-26 -60,-87 -85,-136 -38,-75 -45,-99 -51,-172 -4,-47 -11,-88 -16,-91 -5,-3 -9,-15 -9,-28 0,-12 -7,-31 -15,-42 -8,-10 -15,-26 -15,-35 0,-9 -7,-22 -15,-29 -16,-13 -38,-57 -50,-97 -3,-13 -10,-23 -15,-23 -5,0 -21,-21 -36,-46 -23,-40 -26,-53 -21,-106 6,-67 10,-74 50,-83 24,-6 27,-4 27,18 0,17 -7,28 -20,32 -32,10 -22,92 19,143 17,22 31,46 31,54 0,8 9,23 20,33 11,10 20,29 20,42 0,12 5,23 10,23 6,0 10,6 10,14 0,7 9,25 20,39 11,14 20,37 20,50 0,14 4,28 9,31 4,3 11,38 14,78 6,70 48,193 76,221 6,6 11,16 11,23 0,6 7,17 15,24 8,7 15,20 15,30 0,9 13,27 29,39 40,31 44,56 14,89 -22,24 -32,27 -91,27 -61,0 -71,-3 -114,-35 -26,-19 -47,-40 -48,-47 0,-6 -6,-18 -14,-26 -16,-16 -56,-87 -56,-100 0,-5 -9,-22 -21,-38 -39,-55 -107,-23 -146,69 -7,17 -18,32 -23,32 -6,0 -10,14 -10,30 0,17 -4,30 -8,30 -9,0 -52,93 -52,114 0,7 -7,19 -15,26 -8,7 -15,17 -15,22 0,12 -20,32 -47,46 -27,15 -19,17 -80,-19 z"
       id="path28"
       inkscape:connector-curvature="0" />
    <path
       d="m 4819,1463 c -22,-5 -37,-141 -17,-154 30,-20 43,-5 48,54 3,31 8,57 13,57 4,0 12,0 18,0 8,0 10,-17 7,-50 -5,-53 8,-77 37,-66 11,4 15,20 15,60 0,58 10,75 30,51 8,-10 10,-29 6,-54 -6,-42 11,-68 39,-57 20,7 21,113 0,142 -13,19 -24,21 -97,21 -46,0 -90,-2 -99,-4 z"
       id="path30"
       inkscape:connector-curvature="0" />
    <path
       d="m 8971,833 c 0,-329 2,-618 6,-643 16,-115 22,49 22,627 0,522 -2,613 -14,613 -12,0 -14,-89 -14,-597 z"
       id="path32"
       inkscape:connector-curvature="0" />
    <path
       d="m 4334,1337 c -3,-8 -4,-30 -2,-49 2,-25 8,-33 23,-33 17,0 20,7 20,45 0,35 -4,45 -18,48 -9,2 -20,-3 -23,-11 z"
       id="path34"
       inkscape:connector-curvature="0" />
    <path
       d="m 928,915 c -21,-18 -38,-38 -38,-43 0,-5 -7,-15 -15,-22 -8,-7 -15,-22 -15,-34 -1,-11 -11,-34 -24,-50 -26,-32 -60,-30 -71,5 -8,25 -41,43 -51,28 -3,-6 8,-24 25,-39 17,-16 31,-33 31,-39 0,-5 12,-11 28,-13 26,-3 27,-6 32,-66 4,-47 10,-67 24,-78 36,-26 48,8 21,60 -19,36 -19,77 0,123 8,19 15,47 15,62 0,28 61,103 93,114 9,4 17,11 17,17 0,21 -36,9 -72,-25 z"
       id="path36"
       inkscape:connector-curvature="0" />
    <path
       d="m 1075,369 c -11,-17 0,-20 46,-12 39,6 41,8 19,14 -38,11 -58,10 -65,-2 z"
       id="path38"
       inkscape:connector-curvature="0" />
    <path
       d="m 970,340 c -11,-7 -3,-10 28,-10 26,0 41,4 37,10 -8,13 -45,13 -65,0 z"
       id="path40"
       inkscape:connector-curvature="0" />
    <path
       d="m 825,310 c -8,-12 17,-23 41,-18 10,1 19,9 22,16 5,15 -54,17 -63,2 z"
       id="path42"
       inkscape:connector-curvature="0" />
    <path
       d="m 586,264 c -10,-37 0,-42 41,-19 47,26 47,39 2,43 -32,3 -37,0 -43,-24 z"
       id="path44"
       inkscape:connector-curvature="0" />
    <path
       d="m 1209,276 c -14,-7 -59,-21 -100,-30 -41,-9 -102,-24 -136,-32 -34,-7 -76,-14 -93,-14 -17,0 -41,-5 -52,-11 -20,-11 -123,-28 -201,-33 -55,-3 -61,-14 -46,-80 7,-31 17,-56 23,-56 6,0 33,7 60,15 27,8 68,15 92,15 23,0 55,5 71,11 15,6 55,15 88,19 33,5 103,18 155,30 52,12 127,26 165,31 84,12 100,24 85,63 -5,15 -10,41 -10,57 0,27 -3,29 -37,29 -21,0 -50,-6 -64,-14 z"
       id="path46"
       inkscape:connector-curvature="0" />
    <path
       d="m 333,3 c 15,-2 39,-2 55,0 15,2 2,4 -28,4 -30,0 -43,-2 -27,-4 z"
       id="path48"
       inkscape:connector-curvature="0" />
    <path
       d="m 1938,3 c 18,-2 45,-2 60,0 15,2 0,4 -33,4 -33,0 -45,-2 -27,-4 z"
       id="path50"
       inkscape:connector-curvature="0" />
    <path
       d="m 2383,3 c 26,-2 67,-2 90,0 23,2 2,3 -48,3 -49,0 -68,-1 -42,-3 z"
       id="path52"
       inkscape:connector-curvature="0" />
    <path
       d="m 2643,3 c 9,-2 25,-2 35,0 9,3 1,5 -18,5 -19,0 -27,-2 -17,-5 z"
       id="path54"
       inkscape:connector-curvature="0" />
    <path
       d="m 2823,3 c 26,-2 68,-2 95,0 26,2 4,3 -48,3 -52,0 -74,-1 -47,-3 z"
       id="path56"
       inkscape:connector-curvature="0" />
    <path
       d="m 3333,3 c 9,-2 25,-2 35,0 9,3 1,5 -18,5 -19,0 -27,-2 -17,-5 z"
       id="path58"
       inkscape:connector-curvature="0" />
    <path
       d="m 3498,3 c 12,-2 32,-2 45,0 12,2 2,4 -23,4 -25,0 -35,-2 -22,-4 z"
       id="path60"
       inkscape:connector-curvature="0" />
    <path
       d="m 3873,3 c 15,-2 37,-2 50,0 12,2 0,4 -28,4 -27,0 -38,-2 -22,-4 z"
       id="path62"
       inkscape:connector-curvature="0" />
    <path
       d="m 4553,3 c 9,-2 25,-2 35,0 9,3 1,5 -18,5 -19,0 -27,-2 -17,-5 z"
       id="path64"
       inkscape:connector-curvature="0" />
    <path
       d="m 4813,3 c 15,-2 37,-2 50,0 12,2 0,4 -28,4 -27,0 -38,-2 -22,-4 z"
       id="path66"
       inkscape:connector-curvature="0" />
    <path
       d="m 5028,3 c 12,-2 32,-2 45,0 12,2 2,4 -23,4 -25,0 -35,-2 -22,-4 z"
       id="path68"
       inkscape:connector-curvature="0" />
    <path
       d="m 5222,3 c 37,-2 100,-2 140,0 40,1 10,3 -67,3 -77,0 -110,-1 -73,-3 z"
       id="path70"
       inkscape:connector-curvature="0" />
    <path
       d="m 5653,3 c 15,-2 37,-2 50,0 12,2 0,4 -28,4 -27,0 -38,-2 -22,-4 z"
       id="path72"
       inkscape:connector-curvature="0" />
    <path
       d="m 6063,3 c 26,-2 67,-2 90,0 23,2 2,3 -48,3 -49,0 -68,-1 -42,-3 z"
       id="path74"
       inkscape:connector-curvature="0" />
    <path
       d="m 6303,3 c 9,-2 25,-2 35,0 9,3 1,5 -18,5 -19,0 -27,-2 -17,-5 z"
       id="path76"
       inkscape:connector-curvature="0" />
    <path
       d="m 6493,3 c 15,-2 37,-2 50,0 12,2 0,4 -28,4 -27,0 -38,-2 -22,-4 z"
       id="path78"
       inkscape:connector-curvature="0" />
    <path
       d="m 6603,3 c 9,-2 25,-2 35,0 9,3 1,5 -18,5 -19,0 -27,-2 -17,-5 z"
       id="path80"
       inkscape:connector-curvature="0" />
    <path
       d="m 6843,3 c 9,-2 25,-2 35,0 9,3 1,5 -18,5 -19,0 -27,-2 -17,-5 z"
       id="path82"
       inkscape:connector-curvature="0" />
    <path
       d="m 7053,3 c 20,-2 54,-2 75,0 20,2 3,4 -38,4 -41,0 -58,-2 -37,-4 z"
       id="path84"
       inkscape:connector-curvature="0" />
    <path
       d="m 7603,3 c 32,-2 81,-2 110,0 29,2 3,3 -58,3 -60,0 -84,-1 -52,-3 z"
       id="path86"
       inkscape:connector-curvature="0" />
    <path
       d="m 7893,3 c 9,-2 25,-2 35,0 9,3 1,5 -18,5 -19,0 -27,-2 -17,-5 z"
       id="path88"
       inkscape:connector-curvature="0" />
    <path
       d="m 8028,3 c 12,-2 30,-2 40,0 9,3 -1,5 -23,4 -22,0 -30,-2 -17,-4 z"
       id="path90"
       inkscape:connector-curvature="0" />
    <path
       d="m 8648,3 c 12,-2 30,-2 40,0 9,3 -1,5 -23,4 -22,0 -30,-2 -17,-4 z"
       id="path92"
       inkscape:connector-curvature="0" />
  </g>
</svg>
