<?xml version="1.0" encoding="UTF-8"?>
<svg xmlns="http://www.w3.org/2000/svg" xmlns:xlink="http://www.w3.org/1999/xlink" width="249pt" height="194pt" viewBox="0 0 249 194" version="1.1">
<g id="surface1">
<path style=" stroke:none;fill-rule:nonzero;fill:rgb(0%,0%,0%);fill-opacity:1;" d="M 11.121094 1.886719 L 0.800781 1.941406 L 0.609375 2.582031 C 0.496094 2.914062 0.441406 46.113281 0.496094 98.582031 C 0.554688 189.339844 0.582031 193.945312 1.050781 193.945312 C 1.300781 193.945312 1.660156 193.722656 1.824219 193.472656 C 2.101562 193.027344 2.683594 192.972656 7.886719 193 C 12.921875 193.027344 13.667969 193.085938 13.972656 193.472656 C 14.414062 194.082031 15.105469 194.082031 15.4375 193.5 C 15.660156 193.113281 16.460938 193.027344 21.691406 193 C 27.167969 192.972656 27.695312 193 27.832031 193.445312 C 28.027344 194.082031 28.46875 194.082031 28.910156 193.472656 C 29.214844 193.085938 29.992188 193.027344 35.136719 193 C 40.449219 192.972656 41.03125 193.027344 41.25 193.445312 C 41.582031 194.082031 42.300781 194.082031 42.746094 193.5 C 43.023438 193.085938 43.851562 193.027344 48.832031 193 C 54.03125 192.972656 54.613281 193.027344 54.890625 193.445312 C 55.277344 194.054688 55.832031 194.082031 56.46875 193.5 C 56.910156 193.113281 57.824219 193.027344 62.691406 193 C 67.867188 192.972656 68.417969 193.027344 68.640625 193.445312 C 68.972656 194.082031 69.773438 194.082031 70.164062 193.472656 C 70.4375 193.027344 71.019531 192.972656 76.222656 193 C 81.257812 193.027344 82.003906 193.085938 82.308594 193.472656 C 82.75 194.082031 83.496094 194.082031 83.609375 193.472656 C 83.691406 193.054688 84.300781 193.027344 89.777344 193.027344 C 95.199219 193.027344 95.863281 193.085938 95.949219 193.5 C 96.058594 194.082031 96.804688 194.082031 97.25 193.5 C 97.523438 193.113281 98.355469 193.027344 103.390625 193 C 108.675781 192.972656 109.253906 193.027344 109.53125 193.445312 C 109.917969 194.082031 110.582031 194.082031 110.914062 193.445312 C 111.136719 193.027344 111.71875 192.972656 117.03125 193 C 122.203125 193.027344 122.949219 193.085938 123.171875 193.472656 C 123.476562 194.054688 123.917969 194.054688 124.554688 193.472656 C 124.996094 193.085938 125.855469 193.027344 130.753906 193 C 135.898438 192.972656 136.480469 193.027344 136.699219 193.445312 C 137.03125 194.082031 137.972656 194.082031 138.304688 193.445312 C 138.527344 193.027344 139.109375 192.972656 144.421875 193 C 149.566406 193.027344 150.339844 193.085938 150.5625 193.5 C 150.894531 194.082031 151.53125 194.082031 151.863281 193.445312 C 152.082031 193.027344 152.664062 192.972656 157.976562 193 C 163.148438 193.027344 163.871094 193.085938 164.117188 193.472656 C 164.449219 194.082031 165.335938 194.082031 165.667969 193.472656 C 165.890625 193.085938 166.609375 193.027344 171.671875 193.027344 C 176.707031 193.027344 177.480469 193.085938 177.757812 193.472656 C 178.199219 194.082031 178.921875 194.082031 179.113281 193.445312 C 179.253906 193.027344 179.804688 192.972656 185.226562 192.972656 C 190.652344 192.972656 191.203125 193.027344 191.34375 193.445312 C 191.535156 194.082031 192.171875 194.082031 192.503906 193.472656 C 192.726562 193.085938 193.5 193.027344 198.757812 193 C 204.234375 192.972656 204.761719 193.027344 204.898438 193.445312 C 204.980469 193.722656 205.285156 193.945312 205.5625 193.945312 C 205.867188 193.945312 206.226562 193.722656 206.367188 193.445312 C 206.585938 193.027344 207.167969 192.972656 212.507812 193 C 217.570312 193.054688 218.429688 193.113281 218.703125 193.5 C 219.148438 194.082031 219.867188 194.054688 220.199219 193.445312 C 220.421875 193.027344 221 192.972656 226.3125 193 C 231.460938 193.027344 232.234375 193.085938 232.539062 193.472656 C 232.980469 194.082031 233.671875 194.082031 233.839844 193.472656 C 233.949219 193 234.476562 192.972656 239.871094 193 C 244.988281 193.027344 245.816406 193.113281 246.09375 193.5 C 246.539062 194.082031 246.648438 194.054688 247.449219 193.25 C 247.839844 192.863281 248.335938 192.558594 248.585938 192.558594 C 249.332031 192.558594 249.027344 191.753906 248.253906 191.667969 L 247.476562 191.585938 L 247.339844 186.035156 C 247.257812 182.984375 247.3125 180.265625 247.421875 179.988281 C 247.535156 179.738281 247.949219 179.515625 248.308594 179.515625 C 248.804688 179.515625 249 179.378906 249 178.960938 C 249 178.65625 248.835938 178.40625 248.640625 178.40625 C 248.445312 178.40625 248.058594 178.242188 247.78125 178.046875 C 247.367188 177.742188 247.3125 177.046875 247.257812 171.941406 C 247.203125 165.894531 247.203125 165.921875 248.472656 165.921875 C 248.804688 165.921875 249 165.726562 249 165.367188 C 249 165.003906 248.804688 164.8125 248.472656 164.8125 C 247.476562 164.8125 247.367188 164.230469 247.3125 158.539062 L 247.285156 153.019531 L 248.140625 152.601562 C 249.222656 152.074219 249.222656 151.410156 248.140625 150.910156 L 247.257812 150.523438 L 247.3125 144.863281 C 247.339844 141.726562 247.421875 139.089844 247.507812 138.953125 C 247.589844 138.839844 247.949219 138.730469 248.335938 138.730469 C 248.804688 138.730469 249 138.589844 249 138.175781 C 249 137.785156 248.804688 137.621094 248.390625 137.621094 C 248.03125 137.621094 247.644531 137.507812 247.476562 137.398438 C 247.3125 137.289062 247.230469 135.011719 247.285156 131.292969 L 247.367188 125.382812 L 248.199219 125.21875 C 249.25 125.023438 249.359375 124.023438 248.335938 124.023438 C 247.949219 124.023438 247.5625 123.886719 247.476562 123.746094 C 247.257812 123.386719 247.257812 112.453125 247.476562 112.09375 C 247.589844 111.925781 247.949219 111.816406 248.335938 111.816406 C 248.804688 111.816406 249 111.675781 249 111.261719 C 249 110.902344 248.804688 110.707031 248.472656 110.707031 C 247.421875 110.707031 247.3125 110.125 247.285156 104.269531 L 247.285156 98.636719 L 248.140625 98.554688 C 248.835938 98.46875 249 98.332031 249 97.777344 C 249 97.304688 248.835938 97.109375 248.472656 97.109375 C 247.476562 97.109375 247.367188 96.527344 247.3125 90.867188 L 247.257812 85.320312 L 248.140625 84.929688 C 249.109375 84.488281 249.332031 83.515625 248.472656 83.515625 C 247.421875 83.515625 247.3125 82.933594 247.3125 77.105469 C 247.3125 71.25 247.367188 71.058594 248.53125 71.03125 C 248.804688 71.03125 249 70.808594 249 70.476562 C 249 70.113281 248.804688 69.917969 248.472656 69.917969 C 247.367188 69.917969 247.285156 69.335938 247.3125 63.621094 C 247.339844 60.597656 247.476562 58.015625 247.589844 57.90625 C 247.699219 57.792969 248.085938 57.65625 248.417969 57.628906 C 249.386719 57.574219 249.195312 56.464844 248.140625 56.15625 L 247.285156 55.90625 L 247.285156 44.53125 L 248.140625 44.117188 C 249.277344 43.5625 249.277344 42.785156 248.140625 42.671875 L 247.285156 42.589844 L 247.285156 36.957031 C 247.3125 31.101562 247.421875 30.519531 248.472656 30.519531 C 248.804688 30.519531 249 30.328125 249 29.964844 C 249 29.632812 248.804688 29.410156 248.53125 29.410156 C 247.367188 29.382812 247.3125 29.160156 247.3125 23.304688 C 247.285156 18.203125 247.339844 17.617188 247.78125 17.285156 C 248.058594 17.089844 248.445312 16.925781 248.640625 16.925781 C 249.277344 16.925781 249.027344 16.148438 248.308594 15.980469 C 247.949219 15.898438 247.535156 15.59375 247.421875 15.316406 C 247.3125 15.066406 247.257812 12.347656 247.339844 9.292969 L 247.476562 3.746094 L 248.253906 3.664062 C 248.890625 3.578125 249 3.441406 249 2.746094 L 249 1.941406 L 244.933594 1.941406 C 188.300781 1.859375 18.648438 1.832031 11.121094 1.886719 Z M 13.886719 7.90625 C 13.832031 10.183594 13.859375 12.542969 13.972656 13.125 C 14.164062 14.152344 14.746094 14.707031 15.160156 14.289062 C 15.273438 14.207031 15.410156 11.765625 15.492188 8.933594 L 15.632812 3.746094 L 21.664062 3.664062 C 24.957031 3.632812 27.667969 3.691406 27.667969 3.800781 C 27.695312 3.941406 27.722656 6.546875 27.75 9.65625 L 27.804688 15.316406 L 21.855469 15.316406 C 18.59375 15.316406 15.578125 15.234375 15.160156 15.121094 C 14.636719 14.984375 14.191406 15.09375 13.640625 15.480469 C 12.949219 15.980469 12.617188 16.007812 10.511719 15.816406 C 9.214844 15.675781 6.832031 15.648438 5.230469 15.730469 C 2.960938 15.871094 2.242188 15.816406 2.074219 15.539062 C 1.796875 15.09375 1.796875 4.355469 2.046875 3.914062 C 2.1875 3.691406 3.984375 3.605469 8.105469 3.664062 L 13.972656 3.746094 Z M 41.113281 8.378906 C 41.167969 14.207031 41.277344 14.816406 42.328125 14.152344 C 42.660156 13.929688 42.746094 13.011719 42.773438 8.824219 L 42.800781 3.746094 L 48.554688 3.664062 C 51.984375 3.632812 54.421875 3.71875 54.613281 3.855469 C 54.835938 4.050781 54.890625 4.71875 54.726562 6.160156 C 54.613281 7.269531 54.613281 9.40625 54.695312 10.902344 C 54.863281 13.707031 55.277344 14.84375 55.914062 14.234375 C 56.605469 13.539062 56.910156 8.796875 56.46875 5.605469 C 56.300781 4.328125 56.328125 4.105469 56.746094 3.855469 C 57.046875 3.71875 59.648438 3.632812 62.859375 3.664062 L 68.476562 3.746094 L 68.503906 8.601562 C 68.503906 13.484375 68.640625 14.429688 69.304688 14.429688 C 70.023438 14.429688 70.136719 13.734375 70.273438 8.738281 L 70.410156 3.746094 L 75.808594 3.664062 C 78.765625 3.632812 81.449219 3.664062 81.753906 3.71875 C 82.28125 3.855469 82.308594 4.050781 82.226562 8.242188 C 82.140625 11.597656 82.226562 12.902344 82.53125 13.816406 C 82.75 14.457031 82.835938 15.066406 82.695312 15.121094 C 82.53125 15.261719 74.007812 15.289062 69.582031 15.203125 C 69.277344 15.203125 66.179688 15.203125 62.664062 15.203125 C 59.179688 15.234375 56.109375 15.234375 55.886719 15.234375 C 55.664062 15.234375 49.523438 15.261719 42.246094 15.261719 C 34.96875 15.289062 28.96875 15.261719 28.9375 15.203125 C 28.910156 15.175781 28.9375 12.542969 28.996094 9.351562 L 29.105469 3.605469 L 35.109375 3.664062 L 41.085938 3.746094 Z M 96.003906 9.433594 C 96.085938 12.570312 96.113281 15.175781 96.085938 15.234375 C 95.976562 15.425781 83.746094 15.289062 83.554688 15.066406 C 83.441406 14.957031 83.46875 13.902344 83.609375 12.761719 C 83.746094 11.625 83.800781 9.15625 83.71875 7.324219 C 83.636719 5.464844 83.664062 3.882812 83.746094 3.773438 C 83.859375 3.691406 86.625 3.632812 89.890625 3.664062 L 95.863281 3.746094 Z M 109.3125 3.941406 C 109.3125 4.132812 109.339844 6.464844 109.367188 9.101562 C 109.421875 12.984375 109.503906 13.929688 109.835938 14.152344 C 110.75 14.734375 110.914062 13.957031 111 8.769531 L 111.082031 3.746094 L 116.476562 3.664062 C 119.4375 3.632812 122.148438 3.664062 122.453125 3.746094 C 123.035156 3.882812 123.035156 4.023438 123.035156 8.519531 C 123.007812 13.347656 123.308594 15.175781 124.03125 14.457031 C 124.25 14.234375 124.390625 12.597656 124.417969 9.101562 C 124.445312 6.324219 124.582031 3.96875 124.722656 3.828125 C 124.859375 3.691406 127.570312 3.632812 130.753906 3.664062 L 136.535156 3.746094 L 136.699219 9.015625 C 136.785156 11.902344 136.867188 14.316406 136.894531 14.34375 C 137.0625 14.566406 137.78125 14.371094 137.972656 14.066406 C 138.085938 13.902344 138.25 11.488281 138.332031 8.738281 L 138.472656 3.746094 L 150.339844 3.746094 L 150.367188 8.601562 C 150.367188 12.125 150.480469 13.625 150.726562 14.121094 C 151.503906 15.453125 151.75 14.316406 151.890625 8.933594 L 152.027344 3.746094 L 157.8125 3.664062 C 161.074219 3.632812 163.730469 3.71875 163.871094 3.855469 C 164.007812 3.996094 164.089844 6.105469 164.089844 8.519531 C 164.035156 12.957031 164.257812 14.429688 165.003906 14.429688 C 165.640625 14.429688 165.722656 13.761719 165.722656 8.574219 L 165.722656 3.605469 L 171.476562 3.605469 C 174.632812 3.605469 177.34375 3.71875 177.507812 3.828125 C 177.703125 3.941406 177.785156 5.464844 177.785156 8.183594 C 177.757812 12.597656 177.980469 14.539062 178.53125 14.34375 C 179.085938 14.179688 179.308594 11.929688 179.195312 7.824219 C 179.085938 3.996094 179.113281 3.855469 179.667969 3.71875 C 180 3.664062 182.738281 3.632812 185.78125 3.664062 L 191.316406 3.746094 L 191.230469 7.769531 C 191.203125 9.988281 191.257812 12.511719 191.398438 13.402344 C 191.621094 14.84375 191.589844 15.039062 191.121094 15.289062 C 190.84375 15.425781 190.511719 15.511719 190.375 15.425781 C 190.097656 15.261719 173.054688 15.175781 159.636719 15.316406 C 156.371094 15.34375 153.355469 15.34375 152.941406 15.316406 C 152 15.261719 150.535156 15.289062 149.34375 15.316406 C 148.847656 15.34375 145.832031 15.34375 142.621094 15.289062 C 139.441406 15.261719 134.015625 15.234375 130.585938 15.234375 C 127.15625 15.234375 124.058594 15.234375 123.671875 15.234375 C 121.59375 15.234375 110.472656 15.203125 110.113281 15.203125 C 109.890625 15.203125 106.847656 15.234375 103.363281 15.261719 C 96.832031 15.316406 96.085938 15.203125 96.859375 14.261719 C 97.164062 13.902344 97.25 12.679688 97.277344 9.015625 C 97.304688 6.382812 97.386719 4.078125 97.496094 3.914062 C 97.800781 3.441406 109.285156 3.496094 109.3125 3.941406 Z M 204.761719 3.941406 C 204.761719 4.132812 204.761719 6.160156 204.734375 8.460938 C 204.734375 12.875 204.925781 14.234375 205.617188 14.371094 C 206.367188 14.511719 206.503906 13.59375 206.53125 8.601562 L 206.558594 3.746094 L 212.066406 3.664062 C 215.109375 3.632812 217.847656 3.664062 218.152344 3.71875 C 218.675781 3.855469 218.703125 4.078125 218.703125 8.851562 C 218.703125 14.207031 218.898438 15.039062 219.894531 14.066406 C 220.308594 13.625 220.363281 12.957031 220.363281 8.65625 L 220.394531 3.746094 L 226.175781 3.691406 C 229.382812 3.632812 232.125 3.71875 232.316406 3.828125 C 232.566406 3.996094 232.566406 4.523438 232.34375 6.105469 C 232.011719 8.519531 232.261719 12.707031 232.816406 14.039062 C 233.035156 14.566406 233.089844 15.039062 232.953125 15.121094 C 232.757812 15.234375 223.574219 15.289062 219.535156 15.203125 C 217.542969 15.175781 205.066406 15.261719 204.316406 15.316406 C 204.015625 15.34375 201.21875 15.34375 198.09375 15.316406 L 192.421875 15.261719 L 192.503906 9.792969 C 192.558594 6.769531 192.644531 4.132812 192.699219 3.941406 C 192.78125 3.691406 194.246094 3.605469 198.785156 3.605469 C 203.351562 3.605469 204.734375 3.691406 204.761719 3.941406 Z M 245.816406 3.882812 C 245.902344 4.023438 245.984375 6.660156 245.984375 9.738281 C 245.984375 14.09375 245.929688 15.398438 245.625 15.59375 C 245.429688 15.730469 244.074219 15.789062 242.636719 15.730469 C 241.199219 15.675781 239.066406 15.703125 237.933594 15.816406 C 236.246094 15.953125 235.636719 15.898438 234.667969 15.453125 C 233.726562 15.066406 233.507812 14.84375 233.671875 14.484375 C 233.785156 14.234375 233.894531 11.707031 233.921875 8.878906 C 233.949219 6.046875 234.003906 3.71875 234.03125 3.664062 C 234.144531 3.46875 245.679688 3.664062 245.816406 3.882812 Z M 13.113281 17.089844 C 13.5 17.230469 13.558594 18.0625 13.558594 23.304688 C 13.558594 30.105469 13.613281 29.9375 11.535156 29.382812 C 10.84375 29.1875 8.742188 29.105469 6.308594 29.160156 C 4.09375 29.214844 2.15625 29.1875 2.074219 29.078125 C 1.910156 28.9375 1.796875 19.644531 1.910156 17.5625 C 1.9375 17.3125 3.238281 17.203125 7 17.121094 C 9.765625 17.089844 12.171875 17.035156 12.367188 16.980469 C 12.53125 16.953125 12.863281 17.007812 13.113281 17.089844 Z M 245.902344 17.339844 C 246.148438 17.589844 245.984375 28.660156 245.707031 28.9375 C 245.542969 29.105469 243.992188 29.1875 241.695312 29.160156 C 239.621094 29.132812 237.464844 29.246094 236.828125 29.410156 C 234.890625 29.9375 234.890625 29.910156 234.890625 23.167969 C 234.890625 19.476562 235 17.203125 235.167969 17.148438 C 235.5 17.035156 245.789062 17.230469 245.902344 17.339844 Z M 39.507812 30.410156 C 39.5625 41.230469 39.617188 43.171875 39.976562 43.5625 C 40.339844 43.976562 40.394531 45.640625 40.339844 55.796875 L 40.253906 67.5625 L 38.734375 67.421875 C 37.902344 67.339844 32.507812 67.285156 26.753906 67.285156 C 17.679688 67.285156 16.324219 67.230469 16.324219 66.867188 C 16.210938 52.246094 16.40625 17.894531 16.574219 17.785156 C 16.710938 17.675781 21.910156 17.644531 28.136719 17.675781 L 39.425781 17.730469 Z M 94.398438 17.8125 C 94.507812 17.867188 94.621094 23.085938 94.621094 29.410156 L 94.675781 40.925781 L 68.695312 41.0625 C 54.421875 41.148438 42.632812 41.175781 42.46875 41.121094 C 42.273438 41.09375 42.21875 37.011719 42.246094 29.492188 C 42.300781 19.53125 42.386719 17.894531 42.71875 17.757812 C 43.132812 17.617188 93.984375 17.675781 94.398438 17.8125 Z M 122.175781 17.839844 C 122.230469 17.867188 122.285156 23.085938 122.285156 29.410156 L 122.34375 40.925781 L 109.863281 41.007812 L 97.386719 41.0625 L 97.386719 29.4375 C 97.386719 21.917969 97.496094 17.757812 97.664062 17.703125 C 98.023438 17.589844 122.066406 17.703125 122.175781 17.839844 Z M 146.578125 17.839844 L 149.703125 17.894531 L 149.730469 29.855469 C 149.730469 36.457031 149.648438 42.007812 149.511719 42.203125 C 149.371094 42.421875 149.207031 48.195312 149.125 55.074219 L 148.984375 67.5625 L 147.1875 67.421875 C 144.476562 67.199219 128.097656 67.257812 127.128906 67.476562 C 126.65625 67.589844 126.105469 67.5625 125.9375 67.449219 C 125.660156 67.285156 125.578125 61.957031 125.605469 42.589844 C 125.605469 28.660156 125.71875 17.867188 125.855469 17.757812 C 126.078125 17.617188 139.164062 17.675781 146.578125 17.839844 Z M 205.371094 17.757812 C 205.480469 17.757812 205.535156 23 205.507812 29.410156 L 205.425781 41.09375 L 179.03125 41.09375 C 164.507812 41.0625 152.582031 41.035156 152.527344 40.953125 C 152.386719 40.8125 152.414062 18.007812 152.554688 17.785156 C 152.636719 17.675781 194.414062 17.644531 205.371094 17.757812 Z M 232.125 29.1875 C 232.207031 35.488281 232.179688 40.757812 232.09375 40.871094 C 232.011719 40.980469 226.589844 41.09375 220.0625 41.09375 L 208.191406 41.121094 L 208.109375 29.632812 C 208.082031 23.335938 208.109375 18.0625 208.164062 17.894531 C 208.21875 17.703125 212.398438 17.644531 220.117188 17.675781 L 231.984375 17.730469 Z M 13.226562 30.574219 C 13.722656 31.074219 13.695312 42.617188 13.226562 42.757812 C 13.03125 42.8125 10.375 42.8125 7.359375 42.730469 L 1.855469 42.589844 L 1.855469 36.792969 C 1.855469 32.101562 1.9375 30.964844 2.242188 30.796875 C 2.460938 30.6875 3.511719 30.714844 4.566406 30.824219 C 6.667969 31.074219 11.234375 30.882812 11.898438 30.492188 C 12.476562 30.160156 12.835938 30.1875 13.226562 30.574219 Z M 238.488281 30.796875 C 239.484375 30.9375 241.476562 30.964844 242.941406 30.882812 C 244.765625 30.769531 245.652344 30.824219 245.789062 31.019531 C 245.902344 31.214844 246.011719 33.851562 246.039062 36.902344 C 246.09375 41.0625 246.011719 42.480469 245.761719 42.5625 C 245.488281 42.671875 237.796875 42.8125 235.386719 42.730469 C 234.917969 42.730469 234.890625 42.257812 234.890625 36.820312 C 234.890625 30.574219 235 30.019531 236.136719 30.410156 C 236.4375 30.492188 237.492188 30.6875 238.488281 30.796875 Z M 122.839844 54.578125 C 122.839844 60.652344 122.921875 65.867188 123.007812 66.203125 C 123.199219 66.949219 122.398438 67.8125 121.761719 67.507812 C 121.511719 67.394531 109.808594 67.257812 95.753906 67.230469 C 81.699219 67.199219 70.136719 67.089844 70.050781 67.035156 C 69.996094 66.949219 69.941406 62.289062 69.96875 56.683594 C 69.996094 51.082031 69.886719 46.03125 69.746094 45.476562 C 69.25 43.394531 66.980469 43.5625 96.417969 43.5625 L 122.839844 43.5625 Z M 237.242188 44.171875 C 238.070312 44.339844 239.980469 44.394531 241.972656 44.308594 C 243.796875 44.226562 245.457031 44.253906 245.625 44.367188 C 245.875 44.503906 245.984375 46.140625 245.984375 50.246094 L 246.011719 55.90625 L 240.949219 56.046875 C 238.15625 56.128906 235.664062 56.296875 235.414062 56.40625 C 234.53125 56.851562 234.363281 56.019531 234.308594 49.96875 C 234.253906 43.8125 234.335938 43.3125 235.441406 43.726562 C 235.664062 43.8125 236.46875 44.003906 237.242188 44.171875 Z M 13.5 49.96875 C 13.585938 56.628906 13.5 56.878906 12.007812 56.324219 C 11.535156 56.128906 9.40625 56.046875 6.722656 56.074219 C 4.234375 56.101562 2.128906 56.046875 2.019531 55.964844 C 1.796875 55.714844 1.796875 44.835938 2.046875 44.449219 C 2.1875 44.226562 3.210938 44.171875 5.617188 44.28125 C 7.46875 44.367188 9.683594 44.308594 10.511719 44.171875 C 11.34375 44.003906 12.339844 43.921875 12.726562 43.921875 L 13.417969 43.976562 Z M 176.539062 70.058594 L 176.539062 94.945312 L 164.089844 95.003906 L 151.613281 95.03125 L 151.613281 70.167969 C 151.613281 56.492188 151.667969 45.253906 151.722656 45.199219 C 151.78125 45.144531 157.394531 45.113281 164.175781 45.113281 L 176.511719 45.171875 Z M 231.402344 56.878906 C 231.433594 64.480469 231.347656 68.53125 231.15625 68.53125 C 231.015625 68.53125 219.230469 68.53125 205.011719 68.558594 L 179.140625 68.558594 L 179.058594 57.101562 C 179.03125 50.804688 179.058594 45.53125 179.113281 45.363281 C 179.167969 45.171875 188.105469 45.113281 205.285156 45.144531 L 231.347656 45.199219 Z M 67.785156 70.390625 L 67.785156 95.03125 L 42.882812 95.03125 L 42.882812 45.78125 L 67.785156 45.78125 Z M 13.613281 63.34375 C 13.667969 66.425781 13.613281 69.253906 13.472656 69.613281 C 13.308594 70.167969 13.167969 70.226562 12.503906 70.03125 C 12.089844 69.917969 9.601562 69.808594 6.972656 69.753906 C 4.34375 69.726562 2.101562 69.613281 2.019531 69.53125 C 1.882812 69.421875 1.796875 59.433594 1.910156 57.988281 C 1.9375 57.824219 3.761719 57.710938 6.863281 57.710938 C 9.546875 57.710938 11.953125 57.601562 12.144531 57.460938 C 12.394531 57.296875 12.753906 57.296875 13.058594 57.460938 C 13.472656 57.683594 13.558594 58.292969 13.613281 63.34375 Z M 240.699219 57.65625 C 243.355469 57.710938 245.652344 57.851562 245.789062 57.988281 C 245.957031 58.15625 246.09375 66.394531 245.957031 69.421875 C 245.957031 69.53125 243.882812 69.671875 241.335938 69.726562 C 238.761719 69.808594 236.382812 69.890625 236.023438 69.949219 C 235.554688 70.03125 235.25 69.890625 235.054688 69.503906 C 234.890625 69.199219 234.640625 68.78125 234.503906 68.558594 C 234.144531 68.003906 234.308594 57.933594 234.667969 57.488281 C 234.863281 57.269531 235.140625 57.210938 235.414062 57.351562 C 235.664062 57.460938 238.042969 57.601562 240.699219 57.65625 Z M 94.648438 96.277344 L 94.621094 122.5 L 82.253906 122.582031 C 75.003906 122.609375 69.832031 122.527344 69.746094 122.386719 C 69.664062 122.25 69.664062 113.785156 69.804688 103.574219 C 69.914062 93.394531 69.96875 81.710938 69.941406 77.605469 C 69.886719 72.859375 69.96875 70.140625 70.136719 70.085938 C 70.300781 70.003906 75.863281 69.976562 82.53125 70.003906 L 94.648438 70.058594 Z M 13.558594 77.132812 C 13.558594 84.042969 13.558594 84.042969 11.59375 83.515625 C 10.871094 83.320312 8.824219 83.210938 6.335938 83.265625 C 4.09375 83.320312 2.15625 83.265625 2.046875 83.183594 C 1.824219 82.933594 1.796875 71.640625 2.019531 71.390625 C 2.128906 71.308594 4.148438 71.25 6.558594 71.28125 C 8.964844 71.308594 11.316406 71.222656 11.757812 71.085938 C 13.585938 70.558594 13.558594 70.445312 13.558594 77.132812 Z M 39.5625 71.363281 C 39.589844 71.640625 39.589844 94.558594 39.5625 94.808594 C 39.5625 94.945312 34.335938 95.03125 27.941406 95.03125 L 16.324219 95.03125 L 16.269531 83.652344 C 16.210938 77.382812 16.210938 72.027344 16.269531 71.722656 C 16.351562 71.167969 16.542969 71.167969 27.941406 71.167969 C 34.335938 71.167969 39.5625 71.25 39.5625 71.363281 Z M 148.984375 83.097656 L 148.984375 94.917969 L 123.253906 94.917969 L 97.523438 94.890625 L 97.441406 83.320312 C 97.414062 76.941406 97.441406 71.613281 97.496094 71.445312 C 97.550781 71.25 106.351562 71.195312 123.28125 71.222656 L 148.984375 71.28125 Z M 205.507812 96.945312 L 205.5625 122.636719 L 193.113281 122.582031 L 180.636719 122.5 L 180.636719 97.027344 C 180.664062 83.042969 180.664062 71.5 180.664062 71.363281 C 180.664062 71.25 186.222656 71.195312 193.058594 71.222656 L 205.425781 71.25 Z M 232.125 71.640625 C 232.125 72.277344 232.125 93.921875 232.125 94.53125 C 232.125 95.003906 231.375 95.03125 220.089844 95.03125 L 208.054688 95.03125 L 208.054688 83.210938 C 208.054688 76.71875 208.109375 71.335938 208.164062 71.28125 C 208.21875 71.222656 213.640625 71.167969 220.199219 71.167969 C 231.375 71.167969 232.125 71.195312 232.125 71.640625 Z M 245.929688 71.472656 C 246.066406 71.613281 246.011719 83.015625 245.847656 83.183594 C 245.761719 83.238281 243.964844 83.292969 241.835938 83.265625 C 239.675781 83.238281 237.464844 83.347656 236.828125 83.515625 C 234.890625 84.042969 234.890625 84.015625 234.890625 77.273438 C 234.890625 74.054688 234.945312 71.335938 235.027344 71.25 C 235.167969 71.113281 245.761719 71.308594 245.929688 71.472656 Z M 13.226562 84.679688 C 13.472656 84.929688 13.558594 86.734375 13.558594 91.0625 C 13.558594 96.472656 13.5 97.109375 13.085938 97.359375 C 12.753906 97.527344 12.367188 97.5 11.8125 97.222656 C 11.203125 96.890625 10.042969 96.804688 6.613281 96.859375 C 4.175781 96.890625 2.128906 96.832031 2.019531 96.75 C 1.796875 96.5 1.824219 85.484375 2.046875 85.234375 C 2.15625 85.152344 4.34375 85.042969 6.917969 85.042969 C 10.292969 85.042969 11.675781 84.929688 11.925781 84.679688 C 12.367188 84.265625 12.808594 84.265625 13.226562 84.679688 Z M 236.523438 84.679688 C 236.742188 84.929688 238.128906 85.042969 241.253906 85.070312 C 243.6875 85.070312 245.734375 85.152344 245.847656 85.234375 C 245.957031 85.375 246.066406 94.363281 245.957031 96.554688 C 245.957031 96.722656 244.296875 96.832031 241.613281 96.832031 C 238.429688 96.859375 237.046875 96.945312 236.550781 97.222656 C 236.078125 97.5 235.71875 97.527344 235.386719 97.359375 C 234.945312 97.109375 234.890625 96.527344 234.890625 91.0625 C 234.890625 85.042969 235 84.347656 235.859375 84.347656 C 236.023438 84.347656 236.328125 84.515625 236.523438 84.679688 Z M 120.902344 110.957031 L 120.902344 125.105469 L 121.484375 125.191406 L 122.09375 125.273438 L 122.09375 148.578125 L 109.976562 148.71875 C 99.90625 148.828125 97.773438 148.800781 97.46875 148.46875 C 97.25 148.273438 97.136719 147.914062 97.21875 147.691406 C 97.304688 147.46875 97.386719 135.925781 97.386719 122.054688 L 97.386719 96.832031 L 120.902344 96.832031 Z M 13.417969 98.5 C 13.527344 98.664062 13.585938 101.382812 13.558594 104.546875 C 13.527344 110.929688 13.417969 111.398438 12.007812 110.734375 C 11.261719 110.402344 3.875 110.234375 3.042969 110.539062 C 1.964844 110.957031 1.882812 110.429688 1.855469 104.4375 L 1.855469 98.636719 L 6.945312 98.5 C 9.738281 98.414062 12.3125 98.304688 12.644531 98.277344 C 12.976562 98.25 13.335938 98.359375 13.417969 98.5 Z M 245.375 98.582031 L 246.011719 98.636719 L 246.011719 104.269531 C 245.984375 107.347656 245.902344 110.011719 245.816406 110.152344 C 245.707031 110.316406 243.964844 110.429688 241.558594 110.429688 C 239.234375 110.429688 237.074219 110.566406 236.578125 110.734375 C 235 111.289062 234.917969 111.011719 234.863281 104.546875 C 234.835938 101.410156 234.890625 98.71875 234.972656 98.582031 C 235.113281 98.386719 243.164062 98.386719 245.375 98.582031 Z M 175.792969 110.816406 L 175.820312 122.636719 L 123.394531 122.636719 L 123.449219 110.816406 L 123.53125 98.996094 L 148.15625 98.996094 C 161.710938 99.027344 173.332031 98.941406 174.023438 98.804688 C 174.714844 98.691406 175.378906 98.691406 175.515625 98.804688 C 175.65625 98.914062 175.765625 104.296875 175.792969 110.816406 Z M 66.398438 99.054688 C 66.398438 99.136719 66.425781 104.4375 66.425781 110.84375 L 66.457031 122.5 L 41.390625 122.582031 L 16.324219 122.636719 L 16.269531 111.207031 C 16.210938 104.90625 16.210938 99.550781 16.269531 99.332031 C 16.351562 98.96875 19.367188 98.914062 41.390625 98.914062 C 55.140625 98.914062 66.398438 98.96875 66.398438 99.054688 Z M 232.125 99.332031 C 232.179688 108.679688 232.09375 147.996094 232.039062 148.082031 C 231.984375 148.136719 226.589844 148.191406 220.0625 148.191406 L 208.191406 148.191406 L 208.109375 123.554688 L 208.054688 98.914062 L 220.089844 98.914062 C 230.601562 98.914062 232.125 98.96875 232.125 99.332031 Z M 13.5 118.03125 L 13.417969 124.164062 L 12.449219 124.082031 C 11.925781 124.023438 9.40625 123.96875 6.863281 123.941406 C 4.316406 123.914062 2.15625 123.800781 2.074219 123.691406 C 1.742188 123.386719 1.769531 112.09375 2.074219 112.011719 C 2.242188 111.957031 3.957031 111.957031 5.949219 112.011719 C 7.941406 112.09375 10.238281 112.039062 11.066406 111.898438 C 13.75 111.457031 13.585938 111.011719 13.5 118.03125 Z M 242.136719 112.011719 C 243.910156 111.957031 245.515625 111.984375 245.679688 112.09375 C 246.011719 112.289062 246.148438 123.386719 245.816406 123.691406 C 245.707031 123.800781 243.6875 123.914062 241.308594 123.941406 C 238.902344 123.96875 236.523438 124.023438 235.996094 124.082031 L 235.027344 124.164062 L 234.945312 118.003906 C 234.863281 111.011719 234.695312 111.457031 237.378906 111.898438 C 238.210938 112.039062 240.367188 112.09375 242.136719 112.011719 Z M 13.558594 131.347656 L 13.558594 137.507812 L 7.828125 137.453125 C 4.648438 137.398438 2.019531 137.371094 1.9375 137.371094 C 1.714844 137.34375 1.855469 125.6875 2.074219 125.46875 C 2.1875 125.355469 4.09375 125.300781 6.308594 125.328125 C 8.550781 125.382812 10.871094 125.300781 11.480469 125.191406 C 13.667969 124.746094 13.558594 124.441406 13.558594 131.347656 Z M 40.394531 136.789062 C 40.394531 146.609375 40.308594 148.359375 39.976562 148.609375 C 39.617188 148.886719 39.5625 150.882812 39.5625 162.898438 L 39.5625 176.878906 L 28.027344 176.824219 L 16.460938 176.769531 L 16.324219 151.160156 C 16.242188 137.066406 16.210938 125.46875 16.269531 125.328125 C 16.324219 125.21875 21.773438 125.164062 28.386719 125.191406 L 40.421875 125.273438 Z M 149.066406 150.964844 L 148.984375 176.796875 L 136.589844 176.824219 L 124.222656 176.878906 L 124.222656 125.132812 L 149.125 125.132812 Z M 245.875 125.523438 C 246.039062 125.6875 246.121094 137.34375 245.957031 137.371094 C 245.875 137.371094 243.355469 137.398438 240.367188 137.453125 L 234.890625 137.535156 L 234.890625 125.21875 L 240.339844 125.300781 C 243.328125 125.355469 245.816406 125.46875 245.875 125.523438 Z M 94.535156 126.050781 C 94.59375 126.132812 94.648438 131.210938 94.648438 137.371094 L 94.648438 148.578125 L 68.78125 148.664062 L 42.882812 148.71875 L 42.882812 137.398438 C 42.882812 131.15625 42.9375 125.996094 42.992188 125.9375 C 43.132812 125.800781 94.371094 125.910156 94.535156 126.050781 Z M 205.507812 137.34375 L 205.5625 148.71875 L 178.976562 148.664062 L 152.414062 148.578125 L 152.414062 137.398438 C 152.414062 131.265625 152.472656 126.132812 152.554688 126.023438 C 152.609375 125.910156 164.535156 125.855469 179.058594 125.882812 L 205.425781 125.9375 Z M 13.5 144.75 C 13.558594 150.550781 13.527344 150.9375 13.058594 151.1875 C 12.753906 151.355469 12.421875 151.382812 12.339844 151.269531 C 12.230469 151.160156 9.820312 151.019531 7 150.9375 L 1.855469 150.800781 L 1.855469 145.027344 C 1.855469 141.867188 1.964844 139.144531 2.101562 139.007812 C 2.324219 138.785156 9.324219 138.507812 12.726562 138.589844 L 13.417969 138.589844 Z M 245.761719 138.980469 C 245.875 139.117188 246.011719 141.78125 246.039062 144.917969 C 246.09375 149.46875 246.011719 150.6875 245.734375 150.800781 C 245.515625 150.882812 243.328125 150.9375 240.867188 150.9375 C 237.40625 150.9375 236.246094 151.019531 235.832031 151.328125 C 235.386719 151.660156 235.359375 151.796875 235.664062 152.105469 C 235.914062 152.351562 237.40625 152.492188 241.03125 152.601562 L 246.011719 152.742188 L 246.011719 158.402344 C 245.984375 161.507812 245.902344 164.117188 245.816406 164.230469 C 245.707031 164.3125 243.632812 164.394531 241.171875 164.421875 C 238.292969 164.421875 236.382812 164.5625 235.886719 164.785156 C 234.417969 165.367188 234.363281 165.0625 234.363281 158.570312 C 234.363281 155.351562 234.449219 152.296875 234.53125 151.769531 C 234.613281 151.242188 234.75 148.164062 234.808594 144.972656 C 234.863281 141.753906 234.945312 139.007812 235 138.867188 C 235.113281 138.535156 245.402344 138.648438 245.761719 138.980469 Z M 66.316406 151.605469 C 66.484375 151.769531 66.457031 176.519531 66.289062 176.660156 C 66.207031 176.769531 43.796875 176.824219 42.414062 176.742188 C 42.164062 176.742188 42.191406 151.9375 42.414062 151.578125 C 42.550781 151.355469 66.09375 151.382812 66.316406 151.605469 Z M 176.570312 151.632812 C 176.625 151.769531 176.625 157.515625 176.570312 164.394531 L 176.484375 176.878906 L 164.117188 176.824219 L 151.75 176.796875 L 151.667969 164.339844 C 151.640625 157.515625 151.667969 151.769531 151.722656 151.632812 C 151.78125 151.464844 156.179688 151.355469 164.175781 151.355469 C 172.167969 151.355469 176.539062 151.464844 176.570312 151.632812 Z M 13.226562 152.382812 C 13.472656 152.628906 13.558594 154.40625 13.558594 158.625 C 13.558594 163.867188 13.5 164.535156 13.085938 164.785156 C 12.808594 164.921875 12.367188 164.921875 11.980469 164.785156 C 10.902344 164.367188 6.335938 164.199219 4.425781 164.476562 C 1.769531 164.894531 1.855469 165.0625 1.855469 158.429688 C 1.855469 155.378906 1.910156 152.796875 2.019531 152.714844 C 2.101562 152.628906 4.261719 152.574219 6.832031 152.574219 C 9.488281 152.601562 11.648438 152.492188 11.898438 152.324219 C 12.449219 151.964844 12.835938 151.992188 13.226562 152.382812 Z M 121.871094 153.433594 C 122.148438 153.433594 122.285156 176.742188 122.011719 176.742188 C 121.925781 176.742188 110.058594 176.742188 95.589844 176.769531 L 69.304688 176.769531 L 69.222656 165.3125 C 69.195312 159.011719 69.222656 153.742188 69.277344 153.574219 C 69.359375 153.324219 78.933594 153.296875 121.871094 153.433594 Z M 231.292969 153.433594 C 231.460938 153.433594 231.375 176.464844 231.210938 176.632812 C 231.15625 176.714844 219.398438 176.769531 205.121094 176.769531 L 179.140625 176.769531 L 179.058594 165.199219 C 179.03125 158.402344 179.113281 153.546875 179.253906 153.464844 C 179.445312 153.351562 212.589844 153.324219 231.292969 153.433594 Z M 242.386719 166.058594 C 243.992188 165.976562 245.488281 165.976562 245.707031 166.058594 C 246.039062 166.171875 246.09375 167.167969 246.039062 171.914062 C 246.011719 175.078125 245.902344 177.742188 245.761719 177.851562 C 245.652344 177.992188 243.050781 178.128906 240.007812 178.15625 L 234.476562 178.242188 L 234.390625 172.164062 C 234.363281 168.308594 234.417969 166.03125 234.613281 165.921875 C 234.75 165.835938 235.914062 165.867188 237.160156 166.003906 C 238.429688 166.117188 240.78125 166.171875 242.386719 166.058594 Z M 13.558594 172.054688 C 13.558594 176.714844 13.472656 178.128906 13.226562 178.15625 C 11.480469 178.296875 2.296875 178.046875 2.101562 177.851562 C 1.796875 177.546875 1.714844 166.226562 2.019531 166.117188 C 2.15625 166.085938 4.785156 166.03125 7.914062 166.03125 L 13.558594 166.003906 Z M 14.054688 180.042969 C 14.582031 180.347656 14.828125 180.375 15.246094 180.128906 C 15.605469 179.90625 17.652344 179.792969 21.800781 179.792969 L 27.804688 179.792969 L 27.75 185.539062 C 27.722656 188.726562 27.695312 191.363281 27.667969 191.449219 C 27.667969 191.53125 24.957031 191.585938 21.664062 191.558594 L 15.632812 191.53125 L 15.492188 186.371094 C 15.355469 181.097656 15.132812 180.128906 14.359375 181.070312 C 14.054688 181.429688 13.972656 182.652344 13.945312 186.34375 C 13.945312 189.003906 13.859375 191.253906 13.75 191.363281 C 13.472656 191.640625 2.1875 191.640625 2.019531 191.335938 C 1.796875 190.976562 1.824219 180.210938 2.046875 179.847656 C 2.1875 179.601562 3.265625 179.542969 6.03125 179.65625 C 8.105469 179.738281 10.457031 179.710938 11.203125 179.570312 C 12.699219 179.324219 13.058594 179.378906 14.054688 180.042969 Z M 240.753906 179.65625 C 243.4375 179.65625 245.734375 179.738281 245.847656 179.847656 C 246.121094 180.128906 245.984375 191.253906 245.679688 191.449219 C 245.570312 191.53125 242.859375 191.585938 239.675781 191.585938 L 233.921875 191.558594 L 234.003906 187.980469 C 234.058594 185.980469 233.976562 183.484375 233.8125 182.429688 C 233.5625 180.542969 233.5625 180.460938 234.253906 179.847656 C 234.722656 179.433594 235.113281 179.265625 235.414062 179.40625 C 235.664062 179.542969 238.042969 179.628906 240.753906 179.65625 Z M 55.75 179.988281 C 55.914062 179.988281 62 179.988281 69.304688 179.960938 L 82.585938 179.933594 L 82.472656 180.765625 C 82.417969 181.210938 82.363281 183.734375 82.308594 186.34375 C 82.28125 188.976562 82.171875 191.226562 82.085938 191.335938 C 81.921875 191.640625 70.660156 191.640625 70.355469 191.363281 C 70.273438 191.253906 70.21875 189.199219 70.246094 186.785156 C 70.300781 182.375 70.078125 180.902344 69.332031 180.902344 C 68.640625 180.902344 68.503906 181.792969 68.503906 186.730469 L 68.476562 191.558594 L 62.71875 191.585938 C 59.539062 191.585938 56.855469 191.53125 56.746094 191.449219 C 56.605469 191.363281 56.523438 189.253906 56.550781 186.730469 C 56.578125 182.261719 56.355469 180.902344 55.609375 180.902344 C 54.917969 180.902344 54.695312 182.320312 54.667969 186.839844 L 54.640625 191.558594 L 48.886719 191.585938 C 45.316406 191.585938 43.050781 191.476562 42.9375 191.308594 C 42.828125 191.140625 42.800781 189.089844 42.855469 186.730469 C 42.882812 184.179688 42.800781 182.125 42.632812 181.652344 C 42.328125 180.875 41.695312 180.652344 41.335938 181.210938 C 41.25 181.375 41.140625 183.789062 41.113281 186.535156 L 41.085938 191.558594 L 35.164062 191.585938 C 31.457031 191.585938 29.214844 191.476562 29.160156 191.308594 C 29.132812 191.140625 29.050781 188.507812 28.996094 185.425781 L 28.882812 179.792969 L 42.164062 179.90625 C 49.496094 179.960938 55.609375 179.988281 55.75 179.988281 Z M 96.058594 179.988281 C 96.113281 180.128906 96.085938 182.761719 96.003906 185.871094 L 95.863281 191.558594 L 83.691406 191.558594 L 83.773438 187.675781 C 83.800781 185.566406 83.746094 183.066406 83.609375 182.152344 C 83.46875 181.238281 83.414062 180.320312 83.46875 180.128906 C 83.582031 179.878906 85.101562 179.792969 89.777344 179.792969 C 93.179688 179.792969 96.003906 179.878906 96.058594 179.988281 Z M 123.394531 180.210938 C 123.640625 180.488281 123.613281 180.738281 123.367188 181.238281 C 123.117188 181.679688 123.007812 183.261719 123.007812 186.59375 C 123.035156 189.171875 122.949219 191.363281 122.8125 191.449219 C 122.703125 191.53125 120.019531 191.585938 116.835938 191.558594 L 111.082031 191.558594 L 110.941406 186.398438 C 110.859375 183.539062 110.722656 181.125 110.613281 181.042969 C 110.195312 180.625 109.617188 181.179688 109.421875 182.207031 C 109.3125 182.789062 109.285156 185.011719 109.3125 187.148438 C 109.367188 189.28125 109.339844 191.140625 109.226562 191.308594 C 109.035156 191.640625 97.800781 191.667969 97.46875 191.335938 C 97.359375 191.226562 97.304688 189.28125 97.359375 187.035156 C 97.414062 184.539062 97.304688 182.484375 97.109375 181.765625 C 96.945312 181.097656 96.859375 180.40625 96.945312 180.183594 C 97.164062 179.628906 122.921875 179.628906 123.394531 180.210938 Z M 136.867188 180.097656 C 137.089844 180.320312 137.335938 180.320312 137.726562 180.097656 C 138.085938 179.90625 140.519531 179.792969 144.363281 179.792969 C 151.003906 179.792969 151.503906 179.90625 150.726562 181.238281 C 150.480469 181.707031 150.367188 183.207031 150.367188 186.59375 C 150.367188 189.171875 150.285156 191.363281 150.175781 191.449219 C 150.089844 191.53125 147.40625 191.585938 144.226562 191.558594 L 138.472656 191.558594 L 138.332031 186.535156 C 138.222656 182.820312 138.085938 181.429688 137.808594 181.070312 C 137.03125 180.128906 136.8125 181.097656 136.671875 186.371094 L 136.535156 191.558594 L 124.636719 191.558594 L 124.5 186.453125 C 124.417969 183.621094 124.25 181.152344 124.140625 180.960938 C 124.003906 180.738281 124.03125 180.433594 124.222656 180.210938 C 124.5 179.878906 125.660156 179.792969 130.558594 179.792969 C 134.542969 179.792969 136.671875 179.90625 136.867188 180.097656 Z M 164.476562 180.128906 C 165.003906 180.375 165.253906 180.375 165.503906 180.128906 C 165.917969 179.710938 177.398438 179.65625 178.171875 180.070312 C 178.53125 180.265625 178.753906 180.265625 178.863281 180.070312 C 179.113281 179.65625 191.371094 179.710938 191.507812 180.128906 C 191.5625 180.292969 191.507812 181.152344 191.398438 181.984375 C 191.257812 182.847656 191.203125 185.34375 191.230469 187.535156 L 191.316406 191.558594 L 185.421875 191.558594 C 181.992188 191.585938 179.445312 191.476562 179.335938 191.335938 C 179.253906 191.167969 179.167969 188.894531 179.167969 186.285156 C 179.140625 182.761719 179.058594 181.402344 178.78125 181.125 C 178.503906 180.847656 178.394531 180.847656 178.171875 181.179688 C 177.730469 181.875 177.535156 185.066406 177.730469 188.285156 C 177.867188 190.699219 177.839844 191.390625 177.566406 191.503906 C 177.371094 191.558594 174.660156 191.585938 171.535156 191.585938 L 165.863281 191.558594 L 165.722656 186.371094 C 165.585938 181.097656 165.363281 180.128906 164.589844 181.070312 C 164.3125 181.429688 164.175781 182.820312 164.0625 186.535156 L 163.925781 191.558594 L 152.027344 191.558594 L 151.890625 186.425781 C 151.808594 183.621094 151.613281 181.097656 151.503906 180.792969 C 151.335938 180.460938 151.390625 180.210938 151.640625 180.042969 C 152.25 179.65625 163.621094 179.738281 164.476562 180.128906 Z M 205.203125 180.097656 C 205.425781 180.320312 205.675781 180.320312 206.0625 180.097656 C 206.78125 179.710938 218.734375 179.683594 218.980469 180.070312 C 219.09375 180.238281 219.398438 180.238281 219.839844 180.070312 C 220.695312 179.738281 232.125 179.710938 232.648438 180.042969 C 232.953125 180.238281 232.953125 180.460938 232.648438 181.347656 C 232.398438 182.097656 232.289062 183.816406 232.289062 186.871094 C 232.316406 189.3125 232.234375 191.363281 232.125 191.449219 C 231.984375 191.53125 229.300781 191.585938 226.121094 191.558594 L 220.363281 191.558594 L 220.363281 186.648438 C 220.363281 182.375 220.308594 181.707031 219.894531 181.265625 C 218.898438 180.292969 218.703125 181.125 218.675781 186.285156 C 218.648438 188.921875 218.566406 191.199219 218.484375 191.335938 C 218.371094 191.53125 207.96875 191.640625 206.613281 191.476562 C 206.476562 191.449219 206.476562 189.78125 206.558594 187.785156 C 206.753906 183.429688 206.476562 181.097656 205.757812 180.960938 C 204.925781 180.792969 204.679688 182.179688 204.734375 186.730469 C 204.761719 189.089844 204.761719 191.140625 204.761719 191.308594 C 204.734375 191.585938 192.976562 191.695312 192.726562 191.417969 C 192.617188 191.335938 192.449219 180.683594 192.53125 179.988281 C 192.585938 179.65625 204.84375 179.738281 205.203125 180.097656 Z M 205.203125 180.097656 "/>
<path style="fill-rule:nonzero;fill:rgb(100%,100%,0%);fill-opacity:1;stroke-width:3.702331;stroke-linecap:butt;stroke-linejoin:miter;stroke:rgb(0%,0%,0%);stroke-opacity:1;stroke-miterlimit:4;" d="M 558.793769 499.069064 L 558.793769 447.242187 L 792.039251 447.242187 L 792.039251 550.913539 L 558.793769 550.913539 Z M 558.793769 499.069064 " transform="matrix(0.221333,0,0,0.221968,0,0)"/>
<path style="fill-rule:nonzero;fill:rgb(89.019608%,42.352941%,3.921569%);fill-opacity:1;stroke-width:3.702331;stroke-linecap:butt;stroke-linejoin:miter;stroke:rgb(0%,0%,0%);stroke-opacity:1;stroke-miterlimit:4;" d="M 195.971386 315.800781 L 195.971386 206.585978 L 303.328549 206.585978 L 303.328549 425.033183 L 195.971386 425.033183 Z M 195.971386 315.800781 " transform="matrix(0.221333,0,0,0.221968,0,0)"/>
<path style="fill-rule:nonzero;fill:rgb(89.019608%,42.352941%,3.921569%);fill-opacity:1;stroke-width:3.702331;stroke-linecap:butt;stroke-linejoin:miter;stroke:rgb(0%,0%,0%);stroke-opacity:1;stroke-miterlimit:4;" d="M 79.348645 300.701474 C 76.966067 299.715971 76.013037 260.225475 76.683688 189.938024 L 77.707314 80.705622 L 177.457878 80.705622 L 177.475527 116.817252 C 177.475527 136.66809 178.569748 186.647149 179.91105 227.879873 L 182.328925 302.848462 L 132.700725 302.566889 C 105.380506 302.390907 81.378247 301.563789 79.348645 300.701474 Z M 79.348645 300.701474 " transform="matrix(0.221333,0,0,0.221968,0,0)"/>
<path style="fill-rule:nonzero;fill:rgb(89.019608%,42.352941%,3.921569%);fill-opacity:1;stroke-width:3.702331;stroke-linecap:butt;stroke-linejoin:miter;stroke:rgb(0%,0%,0%);stroke-opacity:1;stroke-miterlimit:4;" d="M 74.618788 374.121416 L 75.642413 323.209649 L 175.604763 323.209649 L 176.628389 374.121416 L 177.669663 425.033183 L 73.577513 425.033183 Z M 74.618788 374.121416 " transform="matrix(0.221333,0,0,0.221968,0,0)"/>
<path style="fill-rule:nonzero;fill:rgb(89.019608%,42.352941%,3.921569%);fill-opacity:1;stroke-width:3.702331;stroke-linecap:butt;stroke-linejoin:miter;stroke:rgb(0%,0%,0%);stroke-opacity:1;stroke-miterlimit:4;" d="M 74.618788 500.001772 L 75.642413 449.090005 L 187.64119 448.104502 L 299.639966 447.136598 L 299.639966 550.913539 L 73.577513 550.913539 Z M 74.618788 500.001772 " transform="matrix(0.221333,0,0,0.221968,0,0)"/>
<path style="fill-rule:nonzero;fill:rgb(89.019608%,42.352941%,3.921569%);fill-opacity:1;stroke-width:3.702331;stroke-linecap:butt;stroke-linejoin:miter;stroke:rgb(0%,0%,0%);stroke-opacity:1;stroke-miterlimit:4;" d="M 76.24247 714.735744 C 74.901167 670.440923 73.806947 618.790029 73.806947 599.95989 L 73.789298 565.713676 L 182.328925 565.713676 L 179.91105 640.682265 C 178.569748 681.914989 177.475527 733.565883 177.475527 755.458119 L 177.457878 795.265383 L 78.677993 795.265383 Z M 76.24247 714.735744 " transform="matrix(0.221333,0,0,0.221968,0,0)"/>
<path style="fill-rule:nonzero;fill:rgb(89.019608%,42.352941%,3.921569%);fill-opacity:1;stroke-width:3.702331;stroke-linecap:butt;stroke-linejoin:miter;stroke:rgb(0%,0%,0%);stroke-opacity:1;stroke-miterlimit:4;" d="M 195.971386 619.405968 L 195.971386 569.426909 L 425.510636 569.426909 L 425.510636 669.385027 L 195.971386 669.385027 Z M 195.971386 619.405968 " transform="matrix(0.221333,0,0,0.221968,0,0)"/>
<path style="fill-rule:nonzero;fill:rgb(89.019608%,42.352941%,3.921569%);fill-opacity:1;stroke-width:3.702331;stroke-linecap:butt;stroke-linejoin:miter;stroke:rgb(0%,0%,0%);stroke-opacity:1;stroke-miterlimit:4;" d="M 192.265154 739.725274 L 192.265154 684.185164 L 300.663592 684.185164 L 298.333961 703.631242 C 297.045604 714.313386 295.986681 739.302916 295.969032 759.171351 L 295.933735 795.265383 L 192.265154 795.265383 Z M 192.265154 739.725274 " transform="matrix(0.221333,0,0,0.221968,0,0)"/>
<path style="fill-rule:nonzero;fill:rgb(89.019608%,42.352941%,3.921569%);fill-opacity:1;stroke-width:3.702331;stroke-linecap:butt;stroke-linejoin:miter;stroke:rgb(0%,0%,0%);stroke-opacity:1;stroke-miterlimit:4;" d="M 314.447242 745.867067 L 314.447242 696.46875 L 376.129518 694.022592 C 410.050358 692.685124 462.290569 691.594032 492.205149 691.594032 L 546.616152 691.594032 L 548.981081 716.583562 C 551.981363 748.295627 552.051958 781.837911 549.139919 789.405163 C 547.163262 794.579051 533.238422 795.265383 430.664062 795.265383 L 314.447242 795.265383 Z M 314.447242 745.867067 " transform="matrix(0.221333,0,0,0.221968,0,0)"/>
<path style="fill-rule:nonzero;fill:rgb(89.019608%,42.352941%,3.921569%);fill-opacity:1;stroke-width:3.702331;stroke-linecap:butt;stroke-linejoin:miter;stroke:rgb(0%,0%,0%);stroke-opacity:1;stroke-miterlimit:4;" d="M 442.788733 666.921271 C 441.429782 665.548607 440.317912 613.915311 440.317912 552.145417 L 440.317912 439.83332 L 543.986493 439.83332 L 543.986493 502.782297 C 543.986493 542.272793 545.363093 565.713676 547.692724 565.713676 C 549.987058 565.713676 551.398955 585.458924 551.398955 617.540553 L 551.398955 669.385027 L 498.329255 669.385027 C 469.138272 669.385027 444.147684 668.276337 442.788733 666.921271 Z M 442.788733 666.921271 " transform="matrix(0.221333,0,0,0.221968,0,0)"/>
<path style="fill-rule:nonzero;fill:rgb(89.019608%,42.352941%,3.921569%);fill-opacity:1;stroke-width:3.702331;stroke-linecap:butt;stroke-linejoin:miter;stroke:rgb(0%,0%,0%);stroke-opacity:1;stroke-miterlimit:4;" d="M 318.153473 434.289868 L 318.153473 317.666197 L 425.510636 317.666197 L 425.510636 550.913539 L 318.153473 550.913539 Z M 318.153473 434.289868 " transform="matrix(0.221333,0,0,0.221968,0,0)"/>
<path style="fill-rule:nonzero;fill:rgb(89.019608%,42.352941%,3.921569%);fill-opacity:1;stroke-width:3.702331;stroke-linecap:butt;stroke-linejoin:miter;stroke:rgb(0%,0%,0%);stroke-opacity:1;stroke-miterlimit:4;" d="M 193.094644 133.465206 L 194.11827 82.553439 L 309.823277 81.585535 L 425.510636 80.600032 L 425.510636 184.376973 L 192.05337 184.376973 Z M 193.094644 133.465206 " transform="matrix(0.221333,0,0,0.221968,0,0)"/>
<path style="fill-rule:nonzero;fill:rgb(89.019608%,42.352941%,3.921569%);fill-opacity:1;stroke-width:3.702331;stroke-linecap:butt;stroke-linejoin:miter;stroke:rgb(0%,0%,0%);stroke-opacity:1;stroke-miterlimit:4;" d="M 440.317912 160.865697 C 440.317912 147.948574 441.394484 124.613281 442.718138 109.038821 L 445.118364 80.705622 L 551.398955 80.705622 L 551.398955 184.376973 L 440.317912 184.376973 Z M 440.317912 160.865697 " transform="matrix(0.221333,0,0,0.221968,0,0)"/>
<path style="fill-rule:nonzero;fill:rgb(89.019608%,42.352941%,3.921569%);fill-opacity:1;stroke-width:3.702331;stroke-linecap:butt;stroke-linejoin:miter;stroke:rgb(0%,0%,0%);stroke-opacity:1;stroke-miterlimit:4;" d="M 374.611728 300.085535 L 318.153473 298.959246 L 318.153473 199.17711 L 550.445924 199.17711 L 553.093232 247.149968 C 554.558076 273.512162 554.663968 296.847455 553.357963 298.976844 C 551.028332 302.742872 518.307605 302.954051 374.611728 300.085535 Z M 374.611728 300.085535 " transform="matrix(0.221333,0,0,0.221968,0,0)"/>
<path style="fill-rule:nonzero;fill:rgb(89.019608%,42.352941%,3.921569%);fill-opacity:1;stroke-width:3.702331;stroke-linecap:butt;stroke-linejoin:miter;stroke:rgb(0%,0%,0%);stroke-opacity:1;stroke-miterlimit:4;" d="M 569.912462 191.785841 L 569.912462 80.705622 L 673.563394 80.705622 L 673.545745 166.796311 C 673.528097 214.135631 672.451525 264.114691 671.163168 277.858932 L 668.79824 302.848462 L 569.912462 302.848462 Z M 569.912462 191.785841 " transform="matrix(0.221333,0,0,0.221968,0,0)"/>
<path style="fill-rule:nonzero;fill:rgb(89.019608%,42.352941%,3.921569%);fill-opacity:1;stroke-width:3.702331;stroke-linecap:butt;stroke-linejoin:miter;stroke:rgb(0%,0%,0%);stroke-opacity:1;stroke-miterlimit:4;" d="M 442.647543 398.723784 C 441.306241 384.240416 441.270943 361.996215 442.5593 349.272672 L 444.941877 326.13096 L 483.927899 323.755195 C 505.371094 322.435325 555.987622 321.361832 596.403191 321.361832 L 669.874812 321.361832 L 669.874812 425.033183 L 445.083067 425.033183 Z M 442.647543 398.723784 " transform="matrix(0.221333,0,0,0.221968,0,0)"/>
<path style="fill-rule:nonzero;fill:rgb(89.019608%,42.352941%,3.921569%);fill-opacity:1;stroke-width:3.702331;stroke-linecap:butt;stroke-linejoin:miter;stroke:rgb(0%,0%,0%);stroke-opacity:1;stroke-miterlimit:4;" d="M 688.37067 315.800781 L 688.37067 206.585978 L 795.745482 206.585978 L 795.745482 425.033183 L 688.37067 425.033183 Z M 688.37067 315.800781 " transform="matrix(0.221333,0,0,0.221968,0,0)"/>
<path style="fill-rule:nonzero;fill:rgb(89.019608%,42.352941%,3.921569%);fill-opacity:1;stroke-width:3.702331;stroke-linecap:butt;stroke-linejoin:miter;stroke:rgb(0%,0%,0%);stroke-opacity:1;stroke-miterlimit:4;" d="M 692.076901 132.550097 L 692.076901 80.705622 L 925.322383 80.705622 L 925.322383 184.376973 L 692.076901 184.376973 Z M 692.076901 132.550097 " transform="matrix(0.221333,0,0,0.221968,0,0)"/>
<path style="fill-rule:nonzero;fill:rgb(89.019608%,42.352941%,3.921569%);fill-opacity:1;stroke-width:3.702331;stroke-linecap:butt;stroke-linejoin:miter;stroke:rgb(0%,0%,0%);stroke-opacity:1;stroke-miterlimit:4;" d="M 943.83589 132.550097 L 943.83589 80.705622 L 1047.504471 80.705622 L 1047.504471 130.262323 C 1047.504471 188.934923 1052.710843 184.253785 987.339985 184.324178 L 943.83589 184.376973 Z M 943.83589 132.550097 " transform="matrix(0.221333,0,0,0.221968,0,0)"/>
<path style="fill-rule:nonzero;fill:rgb(89.019608%,42.352941%,3.921569%);fill-opacity:1;stroke-width:3.702331;stroke-linecap:butt;stroke-linejoin:miter;stroke:rgb(0%,0%,0%);stroke-opacity:1;stroke-miterlimit:4;" d="M 810.552758 256.565037 L 810.552758 206.585978 L 1043.79824 206.585978 L 1043.79824 306.561695 L 810.552758 306.561695 Z M 810.552758 256.565037 " transform="matrix(0.221333,0,0,0.221968,0,0)"/>
<path style="fill-rule:nonzero;fill:rgb(89.019608%,42.352941%,3.921569%);fill-opacity:1;stroke-width:3.702331;stroke-linecap:butt;stroke-linejoin:miter;stroke:rgb(0%,0%,0%);stroke-opacity:1;stroke-miterlimit:4;" d="M 817.96522 438.390263 C 817.96522 339.188869 818.65352 325.585414 823.824595 323.614409 C 827.036662 322.364932 851.19776 321.361832 877.494352 321.361832 L 925.322383 321.361832 L 925.322383 550.913539 L 817.96522 550.913539 Z M 817.96522 438.390263 " transform="matrix(0.221333,0,0,0.221968,0,0)"/>
<path style="fill-rule:nonzero;fill:rgb(89.019608%,42.352941%,3.921569%);fill-opacity:1;stroke-width:3.702331;stroke-linecap:butt;stroke-linejoin:miter;stroke:rgb(0%,0%,0%);stroke-opacity:1;stroke-miterlimit:4;" d="M 940.129659 401.521907 C 940.129659 388.587186 941.22388 365.216696 942.547534 349.589441 L 944.94776 321.168251 L 1045.651355 323.209649 L 1046.69263 374.121416 L 1047.716256 425.033183 L 940.129659 425.033183 Z M 940.129659 401.521907 " transform="matrix(0.221333,0,0,0.221968,0,0)"/>
<path style="fill-rule:nonzero;fill:rgb(89.019608%,42.352941%,3.921569%);fill-opacity:1;stroke-width:3.702331;stroke-linecap:butt;stroke-linejoin:miter;stroke:rgb(0%,0%,0%);stroke-opacity:1;stroke-miterlimit:4;" d="M 943.83589 607.034391 C 943.83589 574.77678 942.74167 525.624839 941.418016 497.801989 L 938.982492 447.242187 L 1047.504471 447.242187 L 1047.504471 665.671794 L 943.83589 665.671794 Z M 943.83589 607.034391 " transform="matrix(0.221333,0,0,0.221968,0,0)"/>
<path style="fill-rule:nonzero;fill:rgb(89.019608%,42.352941%,3.921569%);fill-opacity:1;stroke-width:3.702331;stroke-linecap:butt;stroke-linejoin:miter;stroke:rgb(0%,0%,0%);stroke-opacity:1;stroke-miterlimit:4;" d="M 692.076901 619.405968 L 692.076901 569.426909 L 925.322383 569.426909 L 925.322383 669.385027 L 692.076901 669.385027 Z M 692.076901 619.405968 " transform="matrix(0.221333,0,0,0.221968,0,0)"/>
<path style="fill-rule:nonzero;fill:rgb(89.019608%,42.352941%,3.921569%);fill-opacity:1;stroke-width:3.702331;stroke-linecap:butt;stroke-linejoin:miter;stroke:rgb(0%,0%,0%);stroke-opacity:1;stroke-miterlimit:4;" d="M 562.5 680.48953 L 562.5 565.713676 L 674.72821 565.713676 L 672.310335 629.577763 C 670.986681 664.70389 669.89246 716.354784 669.874812 744.353616 L 669.874812 795.265383 L 562.5 795.265383 Z M 562.5 680.48953 " transform="matrix(0.221333,0,0,0.221968,0,0)"/>
<path style="fill-rule:nonzero;fill:rgb(89.019608%,42.352941%,3.921569%);fill-opacity:1;stroke-width:3.702331;stroke-linecap:butt;stroke-linejoin:miter;stroke:rgb(0%,0%,0%);stroke-opacity:1;stroke-miterlimit:4;" d="M 688.37067 739.725274 L 688.37067 684.185164 L 795.745482 684.185164 L 795.745482 795.265383 L 688.37067 795.265383 Z M 688.37067 739.725274 " transform="matrix(0.221333,0,0,0.221968,0,0)"/>
<path style="fill-rule:nonzero;fill:rgb(89.019608%,42.352941%,3.921569%);fill-opacity:1;stroke-width:3.702331;stroke-linecap:butt;stroke-linejoin:miter;stroke:rgb(0%,0%,0%);stroke-opacity:1;stroke-miterlimit:4;" d="M 810.552758 743.420909 L 810.552758 691.594032 L 1043.79824 691.594032 L 1043.79824 795.265383 L 810.552758 795.265383 Z M 810.552758 743.420909 " transform="matrix(0.221333,0,0,0.221968,0,0)"/>
</g>
</svg>
