<?xml version="1.0" encoding="UTF-8" standalone="no"?>
<svg
   xmlns:dc="http://purl.org/dc/elements/1.1/"
   xmlns:cc="http://creativecommons.org/ns#"
   xmlns:rdf="http://www.w3.org/1999/02/22-rdf-syntax-ns#"
   xmlns:svg="http://www.w3.org/2000/svg"
   xmlns="http://www.w3.org/2000/svg"
   xmlns:sodipodi="http://sodipodi.sourceforge.net/DTD/sodipodi-0.dtd"
   xmlns:inkscape="http://www.inkscape.org/namespaces/inkscape"
   version="1.0"
   width="500.00003"
   height="299.65836"
   viewBox="0 0 400.00002 239.72668"
   preserveAspectRatio="xMidYMid meet"
   id="svg3047"
   inkscape:version="0.48.4 r9939"
   sodipodi:docname="24561f4cc94bf18c7ea50babeed8b64f033dbaab.svg">
  <defs
     id="defs3057" />
  <sodipodi:namedview
     pagecolor="#ffffff"
     bordercolor="#666666"
     borderopacity="1"
     objecttolerance="10"
     gridtolerance="10"
     guidetolerance="10"
     inkscape:pageopacity="0"
     inkscape:pageshadow="2"
     inkscape:window-width="1600"
     inkscape:window-height="824"
     id="namedview3055"
     showgrid="false"
     inkscape:zoom="0.77392325"
     inkscape:cx="554.61305"
     inkscape:cy="255.33215"
     inkscape:window-x="0"
     inkscape:window-y="24"
     inkscape:window-maximized="1"
     inkscape:current-layer="svg3047"
     fit-margin-top="0"
     fit-margin-left="0"
     fit-margin-right="0"
     fit-margin-bottom="0" />
  <metadata
     id="metadata3049">
Created by potrace 1.10, written by Peter Selinger 2001-2011
<rdf:RDF>
  <cc:Work
     rdf:about="">
    <dc:format>image/svg+xml</dc:format>
    <dc:type
       rdf:resource="http://purl.org/dc/dcmitype/StillImage" />
  </cc:Work>
</rdf:RDF>
</metadata>
  <g
     transform="matrix(0.07634494,0,0,-0.07634494,-9.9723109,249.64795)"
     id="g3051"
     style="fill:#000000;stroke:none">
    <path
       d="m 142,3257 c -15,-18 -15,-3096 -1,-3114 14,-16 5195,-18 5216,-2 10,9 13,308 13,1554 0,849 -3,1550 -6,1559 -6,15 -241,16 -2609,16 -2105,0 -2605,-3 -2613,-13 z m 5175,-40 c 2,-2 3,-457 3,-1011 l 1,-1007 -2047,0 -2046,0 1,1013 c 0,557 1,1013 1,1013 1150,0 4084,-6 4087,-8 z m -4139,-482 -3,-485 -495,0 -495,0 -3,485 -2,485 500,0 500,0 -2,-485 z m 2,-1030 c 3,-272 4,-498 3,-503 -2,-4 -227,-6 -500,-5 l -498,3 -3,492 c -1,271 0,498 2,503 2,7 175,9 497,8 l 494,-3 5,-495 z m 1,-1037 -1,-483 -500,-3 -500,-2 0,483 c 0,266 2,486 4,488 2,2 228,3 501,2 l 496,-2 0,-483 z m 1019,-3 0,-480 -485,0 -485,0 -3,483 c -1,265 1,483 5,485 5,1 224,0 488,-3 l 480,-5 0,-480 z m 1050,0 0,-480 -500,0 -500,0 0,478 c 0,262 0,479 0,482 0,3 225,4 500,3 l 500,-3 0,-480 z m 1020,0 0,-480 -485,0 -485,0 0,478 c 0,262 0,479 0,482 0,3 218,4 485,3 l 485,-3 0,-480 z m 1050,0 0,-485 -500,2 -500,3 0,478 c 0,262 0,479 0,482 0,3 225,5 500,5 l 500,0 0,-485 z"
       id="path3053"
       inkscape:connector-curvature="0" />
  </g>
  <path
     style="fill:#666666;fill-opacity:1;stroke:none"
     d="M 3.290352,3.1841428 C 2.55786,13.385764 3.185766,23.838974 2.97646,34.137354 c 0.150303,14.66303 -0.300728,29.45311 0.225726,44.03666 2.674435,1.61029 6.721185,0.27188 9.92344,0.71035 22.135179,0 44.270356,0 66.405538,0 2.62444,-1.95969 0.568288,-6.56577 1.220689,-9.59114 0.111048,-21.88427 -0.290203,-43.91381 0.52976,-65.7112412 -2.586108,-1.777773 -6.758432,-0.329135 -9.963948,-0.798924 -22.373506,0 -44.747011,0 -67.120515,0 l -0.510338,0.225726 -0.39646,0.175358 z"
     id="path8574"
     inkscape:connector-curvature="0" />
  <path
     style="fill:#666666;fill-opacity:1;stroke:none"
     d="m 22.235461,80.697964 c -5.867859,0.0735 -11.759171,-0.0671 -17.612813,0.27901 -2.198888,1.98872 -0.815453,5.71198 -1.392817,8.38741 -0.593724,22.888166 -0.297392,45.787326 0.259319,68.673006 1.986419,2.59611 6.563271,0.55407 9.591136,1.20325 21.75598,-0.17578 43.545877,0.40953 65.280504,-0.53931 4.527414,0.5399 2.537181,-4.86757 2.904461,-7.56934 -0.345427,-23.07106 -0.04367,-46.19048 -0.977258,-69.230776 -2.169295,-2.04046 -5.912017,-0.47413 -8.666866,-1.05246 -16.460934,-0.19521 -32.92387,-0.18231 -49.385666,-0.15079 z"
     id="path9084"
     inkscape:connector-curvature="0" />
  <path
     style="fill:#666666;fill-opacity:1;stroke:none"
     d="m 3.837918,161.10655 c -1.569526,10.23299 -0.642718,20.8109 -1.006254,31.17988 0.09928,14.58737 -0.310522,29.30219 0.203114,43.80999 2.674435,1.61029 6.721185,0.27189 9.923439,0.71035 22.337631,-0.13039 44.695762,0.3423 67.015882,-0.73241 2.535458,-2.05726 0.528289,-6.55548 1.168377,-9.59114 0,-21.51902 0,-43.03804 0,-64.55706 -1.959689,-2.62444 -6.565768,-0.56829 -9.591135,-1.22069 -22.268877,0 -44.537751,0 -66.806624,0 l -0.510338,0.22572 -0.396461,0.17536 z"
     id="path9086"
     inkscape:connector-curvature="0" />
  <path
     style="fill:#666666;fill-opacity:1;stroke:none"
     d="m 83.653608,161.10655 c -1.550523,12.87561 -0.824837,26.06037 -1.014557,39.06205 0.178818,11.78543 0.0229,23.70951 0.942457,35.39726 2.692661,1.56119 6.709035,0.25215 9.907375,0.68288 21.333007,0 42.666017,0 63.999027,0 2.62445,-1.95968 0.56829,-6.56576 1.2207,-9.59114 0,-21.33301 0,-42.66602 0,-63.99903 -1.9506,-2.62234 -6.55432,-0.66297 -9.57252,-1.36095 -21.52297,-0.38795 -43.0488,-0.67074 -64.575682,-0.59215 l -0.510338,0.22572 -0.396462,0.17536 z"
     id="path9088"
     inkscape:connector-curvature="0" />
  <path
     style="fill:#666666;fill-opacity:1;stroke:none"
     d="m 161.04535,161.66458 c -0.73249,10.20162 -0.10458,20.65484 -0.31389,30.95321 0.15029,14.29101 -0.30071,28.70906 0.22573,42.92061 2.67443,1.61028 6.72118,0.27188 9.92344,0.71034 22.32119,0 44.64237,0 66.96356,0 2.62444,-1.95968 0.56829,-6.56576 1.22069,-9.59114 0,-21.39113 0,-42.78228 0,-64.17341 -1.95969,-2.62444 -6.56576,-0.56829 -9.59113,-1.22069 -22.5072,0 -45.0144,0 -67.5216,0 l -0.51033,0.22572 -0.39647,0.17536 z"
     id="path9090"
     inkscape:connector-curvature="0" />
  <path
     style="fill:#666666;fill-opacity:1;stroke:none"
     d="m 367.48148,160.7229 c -16.03244,0.16327 -32.21094,-0.0357 -48.14286,0.9606 -1.56291,2.70451 -0.25462,6.70356 -0.68475,9.90355 0,21.13538 0,42.27075 0,63.40613 1.6064,2.50238 5.72151,0.84754 8.40533,1.42995 22.90109,0.29061 45.80494,0.27033 68.70741,0.38364 2.62444,-1.95969 0.56829,-6.56577 1.22069,-9.59113 0,-21.76317 0,-43.52632 0,-65.28948 -1.95969,-2.62444 -6.56577,-0.56829 -9.59114,-1.22069 -6.63823,0.005 -13.2765,-0.0134 -19.91468,0.0174 z"
     id="path9092"
     inkscape:connector-curvature="0" />
  <path
     style="fill:#666666;fill-opacity:1;stroke:none"
     d="m 241.40164,161.66458 c -0.7325,10.20162 -0.10459,20.65484 -0.3139,30.95321 0.1503,14.29101 -0.30071,28.70906 0.22573,42.92061 2.67443,1.61028 6.72118,0.27188 9.92344,0.71034 21.57715,0 43.1543,0 64.73145,0 2.62444,-1.95968 0.56829,-6.56576 1.22069,-9.59114 0,-21.39113 0,-42.78228 0,-64.17341 -1.95969,-2.62444 -6.56577,-0.56829 -9.59114,-1.22069 -21.76316,0 -43.52632,0 -65.28948,0 l -0.51034,0.22572 -0.39645,0.17536 z"
     id="path9094"
     inkscape:connector-curvature="0" />
</svg>
