<?xml version="1.0" encoding="UTF-8" standalone="no"?>
<svg
   xmlns:dc="http://purl.org/dc/elements/1.1/"
   xmlns:cc="http://creativecommons.org/ns#"
   xmlns:rdf="http://www.w3.org/1999/02/22-rdf-syntax-ns#"
   xmlns:svg="http://www.w3.org/2000/svg"
   xmlns="http://www.w3.org/2000/svg"
   xmlns:sodipodi="http://sodipodi.sourceforge.net/DTD/sodipodi-0.dtd"
   xmlns:inkscape="http://www.inkscape.org/namespaces/inkscape"
   version="1.0"
   width="500.70404"
   height="306.65747"
   viewBox="0 0 400.56323 245.32598"
   preserveAspectRatio="xMidYMid meet"
   id="svg4389"
   inkscape:version="0.48.4 r9939"
   sodipodi:docname="2c54e962d3ad2e3af2221e934d5eb73893b64367.svg">
  <defs
     id="defs4403" />
  <sodipodi:namedview
     pagecolor="#ffffff"
     bordercolor="#666666"
     borderopacity="1"
     objecttolerance="10"
     gridtolerance="10"
     guidetolerance="10"
     inkscape:pageopacity="0"
     inkscape:pageshadow="2"
     inkscape:window-width="1600"
     inkscape:window-height="824"
     id="namedview4401"
     showgrid="false"
     inkscape:zoom="1.031694"
     inkscape:cx="477.41096"
     inkscape:cy="201.12243"
     inkscape:window-x="0"
     inkscape:window-y="24"
     inkscape:window-maximized="1"
     inkscape:current-layer="svg4389"
     fit-margin-top="0"
     fit-margin-left="0"
     fit-margin-right="0"
     fit-margin-bottom="0" />
  <metadata
     id="metadata4391">
Created by potrace 1.10, written by Peter Selinger 2001-2011
<rdf:RDF>
  <cc:Work
     rdf:about="">
    <dc:format>image/svg+xml</dc:format>
    <dc:type
       rdf:resource="http://purl.org/dc/dcmitype/StillImage" />
  </cc:Work>
</rdf:RDF>
</metadata>
  <g
     transform="matrix(0.07005758,0,0,-0.07005758,-7.1894015,250.15103)"
     id="g4393"
     style="fill:#000000;stroke:none">
    <path
       d="M 114,3558 C 101,3538 98,99 111,84 127,64 5793,64 5809,83 c 15,19 15,3455 0,3474 -15,17 -5684,19 -5695,1 z m 618,-255 0,-218 -292,0 -292,0 1,213 c 0,117 3,216 5,220 2,4 133,6 291,5 l 286,-1 1,-219 z m 630,0 0,-218 -292,0 -292,0 0,220 c 1,121 1,220 2,220 0,0 131,-1 291,-2 l 290,-2 1,-218 z m 630,0 0,-218 -292,0 -292,0 0,220 c 1,121 1,220 2,220 0,0 131,-1 291,-2 l 291,-2 0,-218 z m 630,2 0,-216 -292,0 -292,-1 1,216 c 0,119 0,217 1,219 0,1 131,1 291,0 l 291,-2 0,-216 z m 630,0 0,-216 -292,0 -292,0 1,215 c 0,119 0,217 1,219 0,1 131,1 291,0 l 291,-2 0,-216 z m 630,0 0,-216 -292,0 -292,0 1,215 c 0,119 0,217 1,219 0,1 131,1 291,0 l 291,-2 0,-216 z m 630,0 0,-216 -292,0 -292,0 1,215 c 0,119 0,217 1,219 0,1 131,1 291,0 l 291,-2 0,-216 z m 630,0 0,-216 -292,0 -292,0 1,215 c 0,119 0,217 1,219 0,1 131,1 291,0 l 291,-2 0,-216 z m 625,212 c 2,-2 4,-99 4,-216 l 1,-212 -292,0 -292,0 1,215 c 0,119 0,217 1,219 0,3 573,-2 577,-6 z m -3145,-707 0,-231 -294,0 -293,-1 -3,223 c -1,123 -1,228 2,234 2,6 104,9 296,8 l 292,-2 0,-231 z m 630,0 0,-231 -292,0 -292,0 1,230 c 0,127 0,232 1,234 0,1 131,1 291,0 l 291,-2 0,-231 z m 630,-2 0,-233 -292,0 -292,0 1,235 c 0,129 0,235 1,235 0,0 131,-1 291,-2 l 290,-2 1,-233 z m 630,2 0,-231 -292,0 -292,0 1,230 c 0,127 0,232 1,234 0,1 131,1 291,0 l 291,-2 0,-231 z m 630,0 0,-231 -292,0 -292,0 1,230 c 0,127 0,232 1,234 0,1 131,1 291,0 l 291,-2 0,-231 z m 630,0 0,-231 -292,0 -292,0 1,230 c 0,127 0,232 1,234 0,1 131,1 291,0 l 291,-2 0,-231 z m -5041,-5 c 1,-228 1,-230 -20,-229 -12,0 -142,1 -291,2 l -270,2 0,230 0,230 290,-2 290,-3 1,-230 z m 630,5 0,-225 -291,0 -292,0 1,225 c 0,124 1,226 1,228 0,1 131,1 291,0 l 290,-3 0,-225 z m 629,0 0,-230 -290,2 -291,3 0,223 c 0,122 1,224 1,227 0,3 131,5 290,5 l 290,0 0,-230 z m -1262,-493 2,-217 -290,0 -290,0 0,215 0,215 278,2 c 152,2 282,3 287,2 6,0 11,-82 13,-217 z m 634,0 -1,-218 -293,0 -293,-1 -3,221 -2,221 296,-2 296,-3 0,-218 z m 630,0 -1,-218 -291,0 -291,0 0,213 c 0,117 0,216 0,221 1,4 132,6 292,5 l 291,-3 0,-218 z m 630,-2 0,-216 -292,0 -292,0 1,215 c 0,119 0,217 1,219 0,1 131,1 291,0 l 291,-2 0,-216 z m 633,0 0,-217 -293,1 -294,0 1,215 c 0,119 0,217 1,219 0,1 132,1 293,0 l 292,-1 0,-217 z m 1257,0 0,-216 -294,0 -293,-1 -3,208 c -1,115 -1,213 2,219 2,6 103,9 296,8 l 292,-2 0,-216 z m 630,0 0,-216 -292,0 -292,0 1,215 c 0,119 0,217 1,219 0,1 131,1 291,0 l 291,-2 0,-216 z m 630,0 0,-216 -292,0 -292,0 1,215 c 0,119 0,217 1,219 0,1 131,1 291,0 l 291,-2 0,-216 z m -1894,0 -3,-216 -285,0 -285,0 -3,216 -2,215 290,0 290,0 -2,-215 z m -3146,-493 -1,-233 -291,0 -292,0 1,230 c 0,127 0,233 1,236 0,3 131,4 291,3 l 291,-3 0,-233 z m 630,-2 0,-231 -292,0 -292,0 1,230 c 0,127 0,232 1,234 0,1 131,1 291,0 l 291,-2 0,-231 z m 630,0 0,-231 -292,0 -292,0 1,230 c 0,127 0,232 1,234 0,1 131,1 291,0 l 291,-2 0,-231 z m 630,0 0,-231 -292,0 -292,0 1,230 c 0,127 0,232 1,234 0,1 131,1 291,0 l 291,-2 0,-231 z m 633,0 0,-232 -293,1 -294,0 1,230 c 0,127 0,232 1,234 0,1 132,1 293,0 l 292,-1 0,-232 z m 620,0 0,-231 -285,0 -285,1 -3,222 c -1,122 -1,227 2,233 2,6 101,9 287,8 l 284,-2 0,-231 z m 637,-2 0,-233 -293,0 -294,0 -3,225 c -1,123 -1,229 2,235 2,6 104,9 295,8 l 292,-2 1,-233 z m 630,2 0,-231 -292,0 -292,-1 1,234 c 0,128 0,233 1,233 0,0 131,-1 291,-2 l 291,-2 0,-231 z m 630,0 0,-231 -292,0 -292,0 1,230 c 0,127 0,232 1,234 0,1 131,1 291,0 l 291,-2 0,-231 z m -5040,-495 0,-216 -292,0 -292,0 1,215 c 0,119 0,217 1,219 0,1 131,1 291,0 l 291,-2 0,-216 z m 630,0 0,-216 -292,0 -292,0 1,215 c 0,119 0,217 1,219 0,1 131,1 291,0 l 291,-2 0,-216 z m 630,0 0,-216 -292,0 -292,0 1,215 c 0,119 0,217 1,219 0,1 131,1 291,0 l 291,-2 0,-216 z m 630,0 0,-216 -292,0 -292,0 1,215 c 0,119 0,217 1,219 0,1 131,1 291,0 l 291,-2 0,-216 z m 633,0 0,-217 -293,1 -294,0 1,215 c 0,119 0,217 1,219 0,1 132,1 293,0 l 292,-1 0,-217 z m 626,4 -1,-214 -290,-3 -290,-2 0,213 c 0,118 2,216 4,218 2,2 133,3 291,3 l 287,-2 -1,-213 z m 1261,-4 0,-216 -294,0 -293,-1 -3,208 c -1,115 -1,213 2,219 2,6 103,9 296,8 l 292,-2 0,-216 z m 630,0 0,-216 -292,0 -292,0 1,215 c 0,119 0,217 1,219 0,1 131,1 291,0 l 291,-2 0,-216 z m -1262,0 0,-215 -290,2 -291,3 0,205 c 0,113 0,208 1,213 0,4 131,7 290,7 l 290,0 0,-215 z M 732,830 l 0,-231 -292,0 -292,0 1,230 c 0,127 0,232 1,234 0,1 131,1 291,0 l 291,-2 0,-231 z m 630,0 0,-231 -292,0 -292,0 1,230 c 0,127 0,232 1,234 0,1 131,1 291,0 l 291,-2 0,-231 z m 630,0 0,-231 -292,0 -292,0 1,230 c 0,127 0,232 1,234 0,1 131,1 291,0 l 291,-2 0,-231 z m 630,0 0,-231 -292,0 -292,0 1,230 c 0,127 0,232 1,234 0,1 131,1 291,0 l 291,-2 0,-231 z m 630,0 0,-231 -292,0 -292,0 1,230 c 0,127 0,232 1,234 0,1 131,1 291,0 l 291,-1 0,-232 z m 630,2 -1,-233 -291,0 -292,0 1,230 c 0,127 0,233 1,236 0,3 131,4 291,3 l 291,-3 0,-233 z m 630,0 -1,-233 -291,0 -291,0 0,228 c 0,125 0,231 0,236 1,4 132,6 292,5 l 291,-3 0,-233 z m 630,-2 0,-231 -292,0 -292,0 1,230 c 0,127 0,232 1,234 0,1 131,1 291,0 l 291,-2 0,-231 z m 630,0 0,-231 -292,0 -292,0 1,230 c 0,127 0,232 1,234 0,1 131,1 291,0 l 291,-2 0,-231 z M 732,335 l 0,-217 -288,1 c -158,0 -289,2 -291,4 -2,3 -6,404 -4,427 1,3 132,4 292,3 l 291,-2 0,-216 z m 630,0 0,-216 -292,0 -292,0 1,215 c 0,119 0,217 1,219 0,1 131,1 291,0 l 291,-2 0,-216 z m 630,0 0,-216 -292,0 -292,0 1,215 c 0,119 0,217 1,219 0,1 131,1 291,0 l 291,-2 0,-216 z m 630,0 0,-216 -292,0 -292,0 1,215 c 0,119 0,217 1,219 0,1 131,1 291,0 l 291,-2 0,-216 z m 630,0 0,-216 -292,0 -292,0 1,215 c 0,119 0,217 1,219 0,1 131,1 291,0 l 291,-2 0,-216 z m 630,0 0,-216 -292,0 -292,0 1,215 c 0,119 0,217 1,219 0,1 131,1 291,0 l 291,-2 0,-216 z m 630,0 0,-216 -292,0 -292,0 1,215 c 0,119 0,217 1,219 0,1 131,1 291,0 l 291,-2 0,-216 z m 630,0 0,-216 -292,0 -292,0 1,215 c 0,119 0,217 1,219 0,1 131,1 291,0 l 291,-2 0,-216 z m 629,4 c 0,-117 -2,-214 -4,-216 -2,-2 -133,-4 -291,-4 l -288,-1 1,216 c 0,119 0,217 1,219 0,1 131,1 291,0 l 291,-2 -1,-212 z"
       id="path4395"
       inkscape:connector-curvature="0" />
    <path
       d="m 430,2940 c -6,-12 -25,-26 -41,-32 -16,-5 -29,-16 -29,-24 0,-13 7,-16 55,-18 19,-1 20,-7 17,-102 -4,-92 -2,-102 15,-106 10,-3 27,-2 37,2 17,5 18,19 18,151 l -1,144 -30,3 c -22,2 -33,-2 -41,-18 z"
       id="path4397"
       inkscape:connector-curvature="0" />
    <path
       d="m 3489,1977 c -32,-27 -52,-64 -45,-83 8,-20 66,-19 66,1 0,9 7,30 16,46 22,44 58,37 62,-12 3,-32 -3,-41 -55,-90 -117,-110 -120,-134 -16,-143 114,-9 133,-8 140,10 9,24 -17,34 -73,28 -59,-7 -77,6 -42,33 12,10 45,39 71,65 47,45 49,50 43,85 -4,21 -15,43 -24,50 -9,7 -22,17 -29,23 -21,18 -86,11 -114,-13 z"
       id="path4399"
       inkscape:connector-curvature="0" />
  </g>
  <path
     style="fill:#0000ff;fill-opacity:1;stroke:none"
     d="m 7.8758793,68.672482 -4.074322,-0.42618 0,-15.14522 0,-15.14522 19.4333857,0 19.433386,0 0.747102,4.98202 c 0.410904,2.74012 0.403435,9.82944 -0.0166,15.75405 l -0.763697,10.77203 -15.342465,-0.18265 C 18.854311,69.180862 10.116757,68.906892 7.8758793,68.672482 z M 28.55846,52.895042 c 0.296462,-10.09916 0.205729,-10.59324 -1.945346,-10.59324 -2.757349,0 -8.687238,4.21845 -8.687238,6.18 0,0.78397 0.977838,1.4254 2.172973,1.4254 1.952357,0 2.172972,0.72433 2.172972,7.13433 l 0,7.13433 2.987837,-0.34379 2.987837,-0.34378 0.310965,-10.59325 z"
     id="path5730"
     inkscape:connector-curvature="0" />
  <path
     style="fill:#0000ff;fill-opacity:1;stroke:none"
     d="m 3.8015573,87.934222 0,-14.12432 7.3337807,-0.005 c 4.03358,-0.003 12.834117,-0.32188 19.55675,-0.70925 l 12.222969,-0.7043 0,14.83356 0,14.833568 -19.55675,0 -19.5567497,0 0,-14.124318 z"
     id="path5732"
     inkscape:connector-curvature="0" />
  <path
     style="fill:#0000ff;fill-opacity:1;stroke:none"
     d="m 48.347488,53.166662 0,-15.2108 19.556749,0 19.556751,0 0,15.2108 0,15.21081 -19.556751,0 -19.556749,0 0,-15.21081 z"
     id="path5734"
     inkscape:connector-curvature="0" />
  <path
     style="fill:#0000ff;fill-opacity:1;stroke:none"
     d="m 91.806937,53.166662 0,-15.2108 20.099993,0 20.09999,0 0,15.2108 0,15.21081 -20.09999,0 -20.099993,0 0,-15.21081 z"
     id="path5736"
     inkscape:connector-curvature="0" />
  <path
     style="fill:#0000ff;fill-opacity:1;stroke:none"
     d="m 224.35824,87.934222 0,-14.12432 20.25134,0 20.25133,0 -0.68514,5.70406 c -0.37683,3.13722 -0.68939,9.49317 -0.69458,14.12431 l -0.009,8.420268 -19.55675,0 -19.55675,0 0,-14.124318 z"
     id="path5738"
     inkscape:connector-curvature="0" />
  <path
     style="fill:#0000ff;fill-opacity:1;stroke:none"
     d="m 224.35824,122.84393 0,-15.06864 4.07432,-0.67345 c 5.28385,-0.87336 22.04021,-0.86955 29.33513,0.007 l 5.70405,0.68514 0,15.05946 0,15.05947 -19.55675,0 -19.55675,0 0,-15.06865 z m 24.78819,7.19163 c 0.2977,-1.57086 -0.44825,-1.90135 -4.2915,-1.90135 l -4.65182,0 4.57215,-4.65869 c 2.51469,-2.56228 4.57216,-5.63147 4.57216,-6.82041 0,-7.86418 -10.95638,-9.82185 -14.67913,-2.62285 -1.30568,2.5249 -1.32162,3.21712 -0.0975,4.23303 1.73382,1.43894 4.99829,0.44463 4.99829,-1.52239 0,-0.75925 0.72759,-1.98431 1.61687,-2.72234 1.31094,-1.08798 1.74635,-1.00448 2.30115,0.44131 0.46709,1.21721 -1.10703,3.67726 -4.9593,7.75047 -3.10398,3.28199 -5.44515,6.56819 -5.20263,7.30267 0.51022,1.54514 6.18075,2.79669 11.6673,2.57511 2.67482,-0.10803 3.89993,-0.71397 4.15399,-2.05456 l 0,0 z"
     id="path5740"
     inkscape:connector-curvature="0" />
  <path
     style="fill:#0000ff;fill-opacity:1;stroke:none"
     d="m 224.35824,156.92609 0,-14.66756 20.09999,0 20.1,0 0,14.66756 0,14.66756 -20.1,0 -20.09999,0 0,-14.66756 z"
     id="path5742"
     inkscape:connector-curvature="0" />
  <path
     style="fill:#0000ff;fill-opacity:1;stroke:none"
     d="m 268.90418,157.63777 0,-13.95588 14.83934,-0.71168 c 8.16164,-0.39143 16.96218,-0.71168 19.55675,-0.71168 l 4.7174,0 0,14.66756 0,14.66756 -19.55675,0 -19.55674,0 0,-13.95588 z"
     id="path5744"
     inkscape:connector-curvature="0" />
</svg>
