<?xml version="1.0" encoding="UTF-8"?>
<svg xmlns="http://www.w3.org/2000/svg" xmlns:xlink="http://www.w3.org/1999/xlink" width="399pt" height="289pt" viewBox="0 0 399 289" version="1.1">
<g id="surface1">
<path style=" stroke:none;fill-rule:nonzero;fill:rgb(0%,0%,0%);fill-opacity:1;" d="M 5.894531 4.304688 C 5.453125 4.480469 5.320312 32.886719 5.320312 144.234375 C 5.320312 226.46875 5.496094 284.074219 5.71875 284.207031 C 6.164062 284.472656 393.28125 284.605469 393.546875 284.339844 C 393.8125 284.074219 393.679688 4.835938 393.414062 4.394531 C 393.191406 3.996094 6.914062 3.859375 5.894531 4.304688 Z M 390.578125 7.101562 C 390.710938 7.101562 390.753906 68.832031 390.710938 144.324219 L 390.621094 281.542969 L 199.675781 281.542969 C 94.695312 281.589844 8.6875 281.457031 8.601562 281.277344 C 8.203125 280.65625 8.421875 7.367188 8.824219 7.144531 C 9.089844 6.96875 355.066406 6.921875 390.578125 7.101562 Z M 390.578125 7.101562 "/>
<path style=" stroke:none;fill-rule:nonzero;fill:rgb(0%,0%,0%);fill-opacity:1;" d="M 161.460938 13.003906 C 160.929688 13.582031 160.488281 14.46875 160.488281 14.957031 C 160.488281 15.445312 160.175781 16.109375 159.820312 16.421875 C 159.46875 16.730469 159.15625 17.308594 159.15625 17.707031 C 159.15625 18.105469 158.933594 18.683594 158.667969 18.949219 C 158.136719 19.484375 157.207031 20.992188 156.539062 22.5 C 156.320312 22.988281 155.875 23.566406 155.65625 23.742188 C 154.902344 24.1875 155.078125 26.09375 155.964844 26.539062 C 156.984375 27.070312 157.828125 26.714844 157.828125 25.785156 C 157.828125 25.386719 158.136719 24.628906 158.492188 24.140625 C 158.847656 23.699219 159.15625 22.945312 159.15625 22.5 C 159.15625 22.058594 159.46875 21.613281 159.820312 21.480469 C 160.175781 21.300781 160.488281 20.769531 160.488281 20.191406 C 160.488281 19.617188 160.796875 19.082031 161.152344 18.90625 C 161.507812 18.773438 161.816406 18.238281 161.816406 17.75 C 161.816406 17.261719 162.128906 16.730469 162.480469 16.597656 C 162.835938 16.421875 163.148438 15.976562 163.148438 15.53125 C 163.148438 15.089844 163.457031 14.511719 163.8125 14.203125 C 164.699219 13.492188 164.652344 12.605469 163.765625 12.25 C 162.703125 11.847656 162.480469 11.894531 161.460938 13.003906 Z M 161.460938 13.003906 "/>
<path style=" stroke:none;fill-rule:nonzero;fill:rgb(0%,0%,0%);fill-opacity:1;" d="M 136.457031 13.492188 C 136.015625 14.113281 135.660156 14.867188 135.660156 15.222656 C 135.660156 15.578125 135.351562 16.109375 134.996094 16.421875 C 134.640625 16.730469 134.328125 17.21875 134.328125 17.574219 C 134.328125 17.886719 133.753906 18.816406 133 19.617188 C 131.535156 21.167969 131.449219 21.570312 132.113281 23.253906 C 132.511719 24.320312 132.691406 24.363281 134.464844 24.140625 C 136.371094 23.875 136.457031 23.921875 136.902344 25.253906 C 137.609375 27.292969 138.894531 27.070312 139.828125 24.71875 C 140.714844 22.367188 140.714844 22.011719 139.828125 21.257812 C 139.25 20.769531 139.164062 19.925781 139.25 16.640625 C 139.429688 12.648438 139.429688 12.648438 138.320312 12.558594 C 137.566406 12.46875 136.945312 12.78125 136.457031 13.492188 Z M 137.433594 19.214844 C 137.433594 20.59375 136.371094 21.96875 135.570312 21.65625 C 135.128906 21.480469 134.996094 20.902344 135.128906 19.792969 C 135.304688 18.460938 135.484375 18.195312 136.371094 18.195312 C 137.167969 18.195312 137.433594 18.417969 137.433594 19.214844 Z M 137.433594 19.214844 "/>
<path style=" stroke:none;fill-rule:nonzero;fill:rgb(0%,0%,0%);fill-opacity:1;" d="M 143.328125 14.203125 C 141.957031 15.800781 141.867188 16.019531 141.867188 19.484375 C 141.867188 22.988281 141.910156 23.121094 143.460938 24.851562 C 145.589844 27.160156 146.875 27.203125 149.09375 24.941406 C 150.6875 23.300781 150.734375 23.210938 150.734375 19.835938 C 150.734375 16.640625 150.644531 16.242188 149.316406 14.421875 C 148.074219 12.738281 147.628906 12.46875 146.300781 12.46875 C 145.058594 12.515625 144.4375 12.824219 143.328125 14.203125 Z M 148.117188 19.484375 C 148.027344 22.5 146.964844 23.921875 145.457031 23.121094 C 144.660156 22.679688 144.527344 22.191406 144.527344 19.703125 C 144.527344 17.21875 144.660156 16.6875 145.546875 15.976562 C 146.476562 15.179688 146.566406 15.179688 147.363281 16.066406 C 148.027344 16.777344 148.207031 17.53125 148.117188 19.484375 Z M 148.117188 19.484375 "/>
<path style=" stroke:none;fill-rule:nonzero;fill:rgb(0%,0%,0%);fill-opacity:1;" d="M 152.59375 13.445312 C 151.355469 14.734375 151.355469 16.421875 152.550781 17.929688 C 154.367188 20.238281 157.828125 18.726562 157.828125 15.621094 C 157.828125 12.738281 154.546875 11.359375 152.59375 13.445312 Z M 155.167969 16.019531 C 155.167969 17.308594 154.589844 17.75 154.058594 16.820312 C 153.613281 16.152344 154.234375 14.113281 154.722656 14.421875 C 154.988281 14.554688 155.167969 15.265625 155.167969 16.019531 Z M 155.167969 16.019531 "/>
<path style=" stroke:none;fill-rule:nonzero;fill:rgb(0%,0%,0%);fill-opacity:1;" d="M 161.640625 20.902344 C 159.335938 22.722656 160.753906 26.628906 163.765625 26.628906 C 165.230469 26.628906 167.136719 24.71875 167.136719 23.253906 C 167.136719 21.746094 165.453125 19.972656 164.035156 19.972656 C 163.367188 19.972656 162.304688 20.371094 161.640625 20.902344 Z M 164.078125 23.832031 C 163.679688 24.585938 163.632812 24.585938 163.367188 23.832031 C 163.191406 23.433594 163.191406 22.722656 163.367188 22.277344 C 163.632812 21.570312 163.679688 21.570312 164.078125 22.277344 C 164.386719 22.8125 164.386719 23.34375 164.078125 23.832031 Z M 164.078125 23.832031 "/>
<path style=" stroke:none;fill-rule:nonzero;fill:rgb(0%,0%,0%);fill-opacity:1;" d="M 134.550781 31.507812 C 134.417969 31.730469 134.285156 80.328125 134.328125 139.53125 C 134.328125 218.746094 134.195312 247.195312 133.84375 247.460938 C 133.265625 247.816406 83.613281 247.859375 82.992188 247.460938 C 82.726562 247.328125 82.59375 230.996094 82.636719 204.546875 C 82.683594 175.566406 82.546875 161.851562 82.238281 161.628906 C 81.574219 161.230469 52.667969 161.230469 51.738281 161.675781 C 51.027344 161.984375 50.984375 164.292969 50.984375 204.679688 C 51.027344 239.027344 50.894531 247.417969 50.453125 247.726562 C 50.140625 247.90625 47.347656 247.949219 44.246094 247.816406 C 38.082031 247.503906 36.929688 247.769531 37.507812 249.589844 C 37.90625 250.878906 38.570312 251.234375 40.078125 250.921875 C 40.785156 250.746094 87.78125 250.65625 144.480469 250.65625 C 201.183594 250.699219 259.660156 250.699219 274.421875 250.65625 C 319.113281 250.613281 344.515625 250.699219 348.015625 251.011719 C 352.09375 251.320312 353.78125 250.789062 353.78125 249.191406 C 353.78125 248.4375 353.46875 248.039062 352.761719 247.859375 C 352.183594 247.683594 347.351562 247.636719 342.03125 247.726562 L 332.277344 247.859375 L 332.144531 154.128906 L 332.058594 60.445312 L 330.816406 60.179688 C 328.464844 59.734375 301.511719 60.132812 301.023438 60.621094 C 300.714844 60.933594 300.535156 88.980469 300.445312 154.398438 L 300.359375 247.726562 L 275.089844 247.726562 C 261.210938 247.726562 249.550781 247.683594 249.242188 247.683594 C 248.796875 247.636719 248.710938 235.035156 248.710938 183.507812 C 248.753906 148.226562 248.621094 119.160156 248.488281 118.9375 C 248.132812 118.40625 218.164062 118.359375 217.320312 118.847656 C 216.878906 119.160156 216.878906 119.914062 217.234375 122.308594 C 217.765625 126.171875 217.808594 246.261719 217.277344 247.148438 C 216.921875 247.683594 212.710938 247.769531 191.476562 247.769531 L 166.027344 247.726562 L 165.894531 139.75 C 165.851562 57.25 165.671875 31.6875 165.273438 31.464844 C 164.519531 30.976562 134.816406 31.019531 134.550781 31.507812 Z M 154.058594 33.773438 C 155.789062 33.996094 157.871094 34.261719 158.714844 34.304688 C 160.042969 34.394531 160.265625 34.570312 160.574219 35.949219 C 160.753906 36.789062 160.886719 84.453125 160.929688 141.835938 C 160.929688 228.734375 160.839844 246.261719 160.355469 246.707031 C 159.289062 247.59375 151.265625 248.125 146.121094 247.683594 C 143.460938 247.460938 141.203125 247.105469 141.023438 246.882812 C 140.890625 246.707031 140.847656 198.820312 140.980469 140.460938 L 141.203125 34.4375 L 143.863281 33.90625 C 147.320312 33.242188 150.203125 33.195312 154.058594 33.773438 Z M 324.164062 62.886719 C 324.429688 63.195312 325.183594 63.460938 325.894531 63.460938 C 327.222656 63.460938 327.667969 64.21875 326.558594 64.617188 C 326.160156 64.792969 325.984375 65.371094 326.117188 66.480469 C 326.203125 67.367188 326.335938 108.109375 326.425781 156.96875 C 326.558594 229.886719 326.515625 245.996094 326.027344 246.660156 C 324.875 248.347656 311.664062 248.304688 305.988281 246.660156 L 304.082031 246.085938 L 304.171875 155.996094 C 304.214844 102.5625 304.4375 65.460938 304.660156 64.792969 C 305.058594 63.730469 305.101562 63.730469 305.722656 64.527344 C 306.253906 65.28125 306.34375 65.28125 306.34375 64.660156 C 306.34375 64.261719 307.140625 63.550781 308.25 63.0625 C 309.890625 62.265625 310.953125 62.175781 316.894531 62.265625 C 321.816406 62.308594 323.8125 62.488281 324.164062 62.886719 Z M 238.425781 120.710938 C 239.976562 120.710938 240.417969 120.890625 240.597656 121.601562 C 240.863281 122.664062 240.820312 122.621094 242.28125 121.957031 C 243.035156 121.644531 243.566406 121.601562 243.832031 121.867188 C 244.144531 122.175781 244.277344 143.921875 244.320312 184.398438 C 244.320312 234.457031 244.1875 246.527344 243.746094 246.796875 C 243.433594 246.929688 240.863281 247.28125 238.027344 247.59375 C 233.105469 248.082031 224.902344 247.683594 222.996094 246.839844 C 222.640625 246.707031 222.019531 246.574219 221.667969 246.574219 C 221.089844 246.527344 221 239.648438 220.914062 187.949219 C 220.824219 134.914062 220.914062 129.277344 221.535156 128.300781 C 222.019531 127.503906 222.109375 127.148438 221.753906 127.015625 C 221.445312 126.925781 221.222656 126.082031 221.222656 125.105469 C 221.222656 123.863281 221.402344 123.464844 221.84375 123.640625 C 222.199219 123.773438 222.554688 123.464844 222.730469 122.796875 C 222.863281 122.175781 223.351562 121.554688 223.75 121.378906 C 224.949219 120.890625 231.820312 120.3125 234.300781 120.535156 C 235.542969 120.625 237.40625 120.710938 238.425781 120.710938 Z M 77.449219 164.871094 C 77.9375 165.046875 78.515625 165.625 78.648438 166.113281 C 78.78125 166.644531 78.914062 184.929688 78.914062 206.71875 C 78.914062 244.265625 78.867188 246.351562 78.160156 246.21875 C 77.714844 246.128906 77.140625 246.308594 76.917969 246.617188 C 75.722656 248.171875 59.628906 248.214844 57.765625 246.660156 C 57.410156 246.351562 56.570312 246.128906 55.949219 246.085938 L 54.75 246.085938 L 54.617188 208.804688 C 54.53125 188.300781 54.617188 170.0625 54.75 168.289062 L 55.0625 165.003906 L 56.4375 165.269531 C 57.277344 165.402344 58.296875 165.226562 58.964844 164.871094 C 59.851562 164.382812 61.710938 164.25 68.273438 164.425781 C 72.796875 164.515625 76.917969 164.738281 77.449219 164.871094 Z M 139.207031 236.988281 C 139.207031 242.667969 139.074219 245.863281 138.761719 245.863281 C 138.496094 245.863281 138.320312 242.667969 138.320312 236.988281 C 138.320312 231.707031 138.496094 228.109375 138.71875 228.109375 C 138.984375 228.109375 139.164062 231.707031 139.207031 236.988281 Z M 139.207031 236.988281 "/>
<path style=" stroke:none;fill-rule:nonzero;fill:rgb(0%,0%,0%);fill-opacity:1;" d="M 222.90625 186.925781 C 222.953125 218.925781 223.085938 245.242188 223.21875 245.332031 C 223.351562 245.464844 223.574219 245.417969 223.792969 245.242188 C 223.972656 245.0625 224.148438 218.746094 224.238281 186.792969 C 224.371094 130.875 224.371094 128.699219 223.574219 128.699219 C 222.820312 128.699219 222.773438 130.875 222.90625 186.925781 Z M 222.90625 186.925781 "/>
<path style=" stroke:none;fill-rule:nonzero;fill:rgb(0%,0%,0%);fill-opacity:1;" d="M 238.292969 180.847656 C 238.292969 189.367188 238.335938 192.828125 238.378906 188.480469 C 238.46875 184.132812 238.46875 177.117188 238.378906 172.949219 C 238.335938 168.730469 238.246094 172.28125 238.292969 180.847656 Z M 238.292969 180.847656 "/>
<path style=" stroke:none;fill-rule:nonzero;fill:rgb(0%,0%,0%);fill-opacity:1;" d="M 77.050781 197.578125 C 77.09375 214.265625 77.183594 231.882812 77.273438 236.765625 C 77.316406 241.648438 77.449219 228.464844 77.496094 207.476562 C 77.539062 186.484375 77.714844 168.863281 77.847656 168.289062 C 78.027344 167.621094 77.9375 167.3125 77.539062 167.3125 C 77.007812 167.3125 76.917969 172.238281 77.050781 197.578125 Z M 77.050781 197.578125 "/>
<path style=" stroke:none;fill-rule:nonzero;fill:rgb(0%,0%,0%);fill-opacity:1;" d="M 55.726562 168.464844 C 55.417969 168.777344 55.859375 245.0625 56.125 245.375 C 57.058594 246.394531 57.144531 241.335938 57.058594 206.585938 C 56.96875 169.839844 56.878906 167.3125 55.726562 168.464844 Z M 55.726562 168.464844 "/>
<path style=" stroke:none;fill-rule:nonzero;fill:rgb(0%,0%,0%);fill-opacity:1;" d="M 329.617188 42.425781 C 328.996094 43.09375 328.511719 43.890625 328.511719 44.203125 C 328.511719 44.777344 327.136719 47.886719 326.160156 49.484375 C 323.277344 54.320312 323.144531 54.585938 323.632812 55.472656 C 324.5625 57.25 325.761719 56.496094 326.78125 53.476562 C 327.136719 52.5 327.667969 51.4375 327.976562 51.125 C 328.242188 50.816406 328.511719 50.148438 328.511719 49.75 C 328.511719 49.304688 328.820312 48.683594 329.175781 48.375 C 329.53125 48.0625 329.839844 47.664062 329.839844 47.441406 C 329.839844 47.265625 330.460938 46.199219 331.171875 45.132812 C 332.675781 42.914062 332.808594 41.9375 331.789062 41.539062 C 330.816406 41.140625 330.769531 41.140625 329.617188 42.425781 Z M 329.617188 42.425781 "/>
<path style=" stroke:none;fill-rule:nonzero;fill:rgb(0%,0%,0%);fill-opacity:1;" d="M 301.15625 42.691406 C 299.871094 44.15625 299.648438 44.644531 299.960938 45.445312 C 300.3125 46.421875 301.867188 46.332031 303.019531 45.265625 C 303.726562 44.601562 304.214844 44.46875 305.234375 44.777344 C 307.007812 45.222656 307.097656 46.777344 305.367188 46.953125 C 304.304688 47.085938 304.125 47.308594 304.125 48.417969 C 304.125 49.484375 304.304688 49.707031 305.191406 49.707031 C 306.566406 49.707031 306.917969 50.28125 306.566406 51.925781 C 306.164062 53.699219 304.703125 53.699219 303.285156 51.925781 C 301.644531 49.839844 298.894531 50.503906 300.09375 52.722656 C 300.890625 54.1875 303.59375 56.363281 304.613281 56.363281 C 305.679688 56.363281 309.445312 52.765625 309.445312 51.746094 C 309.445312 51.4375 309.046875 50.636719 308.558594 50.015625 C 307.496094 48.683594 307.453125 47.796875 308.339844 47.042969 C 309.359375 46.199219 309.136719 44.023438 307.894531 42.828125 C 306.386719 41.273438 302.488281 41.230469 301.15625 42.691406 Z M 301.15625 42.691406 "/>
<path style=" stroke:none;fill-rule:nonzero;fill:rgb(0%,0%,0%);fill-opacity:1;" d="M 311.664062 42.339844 C 311.351562 42.738281 311.21875 43.492188 311.351562 44.023438 C 311.484375 44.601562 311.308594 45.445312 310.953125 45.886719 C 310.113281 47.042969 310.15625 49.21875 311 49.570312 C 311.398438 49.707031 312.0625 49.484375 312.503906 49.082031 C 312.949219 48.683594 313.925781 48.375 314.679688 48.375 L 316.097656 48.375 L 316.097656 50.816406 C 316.097656 53.65625 315.476562 53.964844 313.347656 52.144531 C 310.6875 49.925781 309.269531 51.925781 311.664062 54.453125 C 313.703125 56.628906 314.898438 56.761719 316.9375 54.988281 C 318.535156 53.609375 318.667969 53.300781 318.710938 51.167969 C 318.757812 49.039062 318.625 48.683594 317.117188 47.265625 C 316.183594 46.421875 315.078125 45.710938 314.632812 45.710938 C 314.144531 45.710938 313.878906 45.445312 314.011719 45.132812 C 314.101562 44.824219 315.03125 44.601562 316.363281 44.601562 C 318.492188 44.601562 318.535156 44.558594 318.535156 43.269531 L 318.535156 41.9375 L 315.386719 41.804688 C 312.992188 41.71875 312.105469 41.851562 311.664062 42.339844 Z M 311.664062 42.339844 "/>
<path style=" stroke:none;fill-rule:nonzero;fill:rgb(0%,0%,0%);fill-opacity:1;" d="M 321.0625 42.738281 C 319.820312 44.023438 319.777344 46.597656 320.882812 47.621094 C 322.082031 48.683594 324.164062 48.550781 325.316406 47.351562 C 326.558594 46.066406 326.558594 44.378906 325.363281 42.871094 C 324.210938 41.40625 322.347656 41.363281 321.0625 42.738281 Z M 324.078125 45.800781 C 324.078125 46.242188 323.765625 46.597656 323.410156 46.597656 C 322.746094 46.597656 322.480469 44.824219 323.058594 44.246094 C 323.457031 43.847656 324.078125 44.824219 324.078125 45.800781 Z M 324.078125 45.800781 "/>
<path style=" stroke:none;fill-rule:nonzero;fill:rgb(0%,0%,0%);fill-opacity:1;" d="M 331.171875 49.570312 C 328.421875 50.105469 327.535156 53.210938 329.617188 55.253906 C 331.523438 57.207031 334.273438 56.183594 334.9375 53.300781 C 335.203125 52.058594 335.070312 51.65625 334.007812 50.546875 C 333.34375 49.839844 332.675781 49.304688 332.542969 49.304688 C 332.410156 49.351562 331.789062 49.484375 331.171875 49.570312 Z M 331.96875 52.855469 C 331.921875 53.433594 331.65625 53.875 331.390625 53.832031 C 330.816406 53.699219 330.59375 52.5 330.902344 51.613281 C 331.347656 50.546875 332.191406 51.570312 331.96875 52.855469 Z M 331.96875 52.855469 "/>
<path style=" stroke:none;fill-rule:nonzero;fill:rgb(0%,0%,0%);fill-opacity:1;" d="M 215.546875 100.164062 C 213.640625 101.808594 213.289062 102.828125 214.21875 103.757812 C 215.148438 104.691406 216.347656 104.378906 216.835938 103.003906 C 217.101562 102.207031 217.722656 101.585938 218.386719 101.453125 C 219.847656 101.050781 220.335938 101.453125 220.335938 102.917969 C 220.335938 103.894531 219.582031 104.914062 217.011719 107.441406 C 215.195312 109.21875 213.6875 110.90625 213.6875 111.214844 C 213.6875 112.191406 215.0625 112.503906 219.007812 112.503906 L 222.773438 112.457031 L 222.773438 111.125 C 222.773438 109.882812 222.6875 109.839844 220.691406 109.707031 C 219.496094 109.617188 218.5625 109.394531 218.5625 109.21875 C 218.5625 108.996094 219.582031 107.84375 220.78125 106.644531 C 222.773438 104.648438 222.996094 104.203125 222.996094 102.429688 C 222.996094 98.300781 219.050781 97.101562 215.546875 100.164062 Z M 215.546875 100.164062 "/>
<path style=" stroke:none;fill-rule:nonzero;fill:rgb(0%,0%,0%);fill-opacity:1;" d="M 225.835938 99.054688 C 225.613281 99.367188 225.523438 100.164062 225.566406 100.785156 C 225.65625 101.40625 225.390625 102.160156 225.035156 102.515625 C 224.148438 103.226562 224.105469 105.578125 224.992188 105.890625 C 225.347656 106.066406 226.144531 105.84375 226.765625 105.445312 C 227.339844 105.046875 228.140625 104.734375 228.449219 104.734375 C 229.601562 104.734375 230.621094 106.332031 230.445312 107.886719 C 230.265625 109.929688 229.070312 110.0625 227.207031 108.285156 C 226.277344 107.398438 225.433594 106.953125 225.035156 107.089844 C 223.792969 107.574219 224.238281 109.351562 226.054688 111.125 C 227.5625 112.589844 227.960938 112.769531 229.160156 112.503906 C 231.066406 112.101562 233.191406 109.527344 233.191406 107.621094 C 233.191406 105.84375 231.066406 103.09375 229.511719 102.871094 C 227.785156 102.648438 228.359375 101.40625 230.222656 101.363281 C 232.128906 101.320312 232.882812 100.742188 232.660156 99.585938 C 232.527344 98.878906 232.039062 98.746094 229.335938 98.613281 C 227.121094 98.523438 226.054688 98.65625 225.835938 99.054688 Z M 225.835938 99.054688 "/>
<path style=" stroke:none;fill-rule:nonzero;fill:rgb(0%,0%,0%);fill-opacity:1;" d="M 234.746094 99.722656 C 233.460938 101.183594 233.371094 101.941406 234.390625 103.40625 C 235.367188 104.867188 235.851562 105.179688 237.273438 105.179688 C 238.734375 105.179688 240.285156 103.359375 240.285156 101.628906 C 240.285156 100.164062 238.601562 98.523438 237.050781 98.523438 C 236.339844 98.523438 235.453125 99.011719 234.746094 99.722656 Z M 237.539062 102.117188 C 237.492188 102.695312 237.226562 103.136719 236.960938 103.09375 C 236.386719 102.960938 236.164062 101.761719 236.472656 100.875 C 236.917969 99.808594 237.757812 100.832031 237.539062 102.117188 Z M 237.539062 102.117188 "/>
<path style=" stroke:none;fill-rule:nonzero;fill:rgb(0%,0%,0%);fill-opacity:1;" d="M 243.523438 99.367188 C 243.078125 99.855469 242.460938 101.140625 242.105469 102.25 C 241.792969 103.359375 241.261719 104.46875 240.90625 104.78125 C 240.550781 105.046875 240.285156 105.535156 240.285156 105.84375 C 240.285156 106.15625 239.976562 106.644531 239.621094 106.953125 C 239.265625 107.265625 238.957031 107.886719 238.957031 108.332031 C 238.957031 108.773438 238.691406 109.308594 238.335938 109.484375 C 237.539062 109.972656 237.09375 111.480469 237.582031 112.191406 C 237.757812 112.546875 238.425781 112.722656 239 112.636719 C 239.753906 112.546875 240.109375 112.191406 240.199219 111.304688 C 240.285156 110.683594 240.640625 109.882812 240.996094 109.617188 C 241.351562 109.308594 241.617188 108.730469 241.617188 108.285156 C 241.617188 107.84375 241.925781 107.265625 242.28125 106.953125 C 242.636719 106.644531 242.945312 106.199219 242.945312 105.933594 C 242.945312 105.3125 245.605469 101.097656 246.40625 100.429688 C 246.757812 100.121094 246.9375 99.585938 246.804688 99.1875 C 246.40625 98.257812 244.453125 98.34375 243.523438 99.367188 Z M 243.523438 99.367188 "/>
<path style=" stroke:none;fill-rule:nonzero;fill:rgb(0%,0%,0%);fill-opacity:1;" d="M 244.230469 106.644531 C 243.613281 107.175781 242.945312 108.285156 242.8125 109.085938 C 242.546875 110.285156 242.726562 110.773438 243.65625 111.703125 C 244.542969 112.589844 245.03125 112.769531 246.183594 112.546875 C 249.285156 111.925781 250.261719 108.820312 248 106.734375 C 246.539062 105.402344 245.738281 105.355469 244.230469 106.644531 Z M 246.492188 109.660156 C 246.492188 110.550781 245.828125 110.816406 245.386719 110.0625 C 244.984375 109.394531 245.519531 108.152344 246.050781 108.507812 C 246.273438 108.640625 246.492188 109.175781 246.492188 109.660156 Z M 246.492188 109.660156 "/>
<path style=" stroke:none;fill-rule:nonzero;fill:rgb(0%,0%,0%);fill-opacity:1;" d="M 75.632812 140.726562 C 74.96875 141.261719 74.480469 142.058594 74.480469 142.726562 C 74.480469 143.300781 74.082031 144.011719 73.636719 144.324219 C 73.195312 144.589844 72.882812 145.121094 73.015625 145.433594 C 73.148438 145.742188 73.015625 146.320312 72.707031 146.675781 C 72.441406 147.03125 71.820312 147.960938 71.421875 148.761719 C 70.976562 149.558594 70.269531 150.890625 69.78125 151.644531 C 68.804688 153.289062 69.292969 154.664062 70.757812 154.664062 C 71.375 154.664062 71.820312 154.042969 72.394531 152.222656 C 72.839844 150.890625 73.414062 149.691406 73.636719 149.648438 C 73.859375 149.558594 74.035156 149.117188 74.035156 148.671875 C 74.035156 148.226562 74.347656 147.5625 74.703125 147.164062 C 75.054688 146.808594 75.589844 146.054688 75.808594 145.476562 C 76.476562 144.054688 77.273438 142.679688 77.980469 141.835938 C 78.648438 141.039062 78.335938 139.796875 77.449219 139.796875 C 77.09375 139.796875 76.296875 140.195312 75.632812 140.726562 Z M 75.632812 140.726562 "/>
<path style=" stroke:none;fill-rule:nonzero;fill:rgb(0%,0%,0%);fill-opacity:1;" d="M 49.34375 142.636719 C 47.039062 144.988281 46.417969 146.585938 47.570312 147.03125 C 47.925781 147.164062 48.722656 146.542969 49.386719 145.699219 C 50.050781 144.855469 50.761719 144.324219 50.894531 144.457031 C 51.070312 144.632812 51.203125 146.984375 51.203125 149.691406 C 51.203125 153.730469 51.339844 154.664062 51.871094 154.75 C 53.554688 155.0625 53.777344 154.308594 53.777344 147.296875 L 53.777344 140.460938 L 52.710938 140.328125 C 51.914062 140.238281 51.027344 140.859375 49.34375 142.636719 Z M 49.34375 142.636719 "/>
<path style=" stroke:none;fill-rule:nonzero;fill:rgb(0%,0%,0%);fill-opacity:1;" d="M 57.5 140.550781 C 57.324219 140.683594 57.191406 141.480469 57.191406 142.238281 C 57.191406 143.035156 56.878906 143.921875 56.523438 144.234375 C 55.683594 144.945312 55.683594 147.074219 56.523438 147.785156 C 57.101562 148.226562 57.367188 148.226562 57.988281 147.605469 C 58.429688 147.207031 59.539062 146.898438 60.425781 146.898438 L 62.066406 146.898438 L 62.066406 149.117188 C 62.066406 151.910156 61.222656 152.398438 59.449219 150.714844 C 58.03125 149.335938 55.859375 149.117188 55.859375 150.3125 C 55.90625 151.46875 58.386719 153.996094 59.894531 154.441406 C 61.089844 154.796875 61.445312 154.664062 62.996094 153.152344 C 64.503906 151.644531 64.726562 151.203125 64.726562 149.382812 C 64.726562 147.5625 64.550781 147.164062 63.128906 145.875 C 62.242188 145.078125 61.136719 144.367188 60.648438 144.234375 C 58.964844 143.789062 59.894531 143.125 62.289062 142.992188 C 64.683594 142.859375 64.726562 142.8125 64.726562 141.570312 L 64.726562 140.238281 L 61.269531 140.238281 C 59.363281 140.238281 57.632812 140.371094 57.5 140.550781 Z M 57.5 140.550781 "/>
<path style=" stroke:none;fill-rule:nonzero;fill:rgb(0%,0%,0%);fill-opacity:1;" d="M 66.855469 141.128906 C 65.746094 142.324219 65.703125 144.855469 66.722656 145.964844 C 69.203125 148.761719 73.683594 144.367188 71.332031 141.394531 C 70.222656 140.019531 68.007812 139.882812 66.855469 141.128906 Z M 69.601562 143.789062 C 69.601562 144.5 69.425781 145.121094 69.160156 145.121094 C 68.9375 145.121094 68.714844 144.5 68.714844 143.789062 C 68.714844 143.035156 68.9375 142.457031 69.160156 142.457031 C 69.425781 142.457031 69.601562 143.035156 69.601562 143.789062 Z M 69.601562 143.789062 "/>
<path style=" stroke:none;fill-rule:nonzero;fill:rgb(0%,0%,0%);fill-opacity:1;" d="M 76.917969 148.09375 C 75.722656 148.40625 74.035156 150.003906 74.035156 150.847656 C 74.035156 152.265625 75.722656 154.351562 77.140625 154.664062 C 78.25 154.929688 78.691406 154.75 79.535156 153.863281 C 81.042969 152.222656 81.21875 150.933594 80.199219 149.25 C 79.3125 147.828125 78.78125 147.652344 76.917969 148.09375 Z M 77.804688 151.023438 C 77.804688 152.753906 76.960938 152.710938 76.785156 150.933594 C 76.652344 149.871094 76.785156 149.515625 77.230469 149.648438 C 77.539062 149.78125 77.804688 150.402344 77.804688 151.023438 Z M 77.804688 151.023438 "/>
<path style=" stroke:none;fill-rule:nonzero;fill:rgb(0%,0%,0%);fill-opacity:1;" d="M 25.800781 257.269531 C 24.828125 257.445312 24.828125 257.492188 24.914062 264.191406 L 25.046875 270.9375 L 27.707031 270.9375 L 27.707031 266.941406 C 27.707031 264.679688 27.886719 262.90625 28.152344 262.816406 C 28.417969 262.773438 28.683594 263.125 28.726562 263.703125 C 28.816406 264.234375 29.171875 265.078125 29.527344 265.566406 C 29.878906 266.054688 30.148438 267.078125 30.148438 267.832031 C 30.191406 269.164062 31.433594 271.160156 32.273438 271.160156 C 32.539062 271.160156 32.894531 270.761719 33.027344 270.273438 C 33.160156 269.785156 33.515625 269.382812 33.738281 269.382812 C 33.960938 269.382812 34.136719 268.628906 34.136719 267.652344 C 34.136719 266.675781 34.402344 265.699219 34.800781 265.390625 C 35.15625 265.078125 35.464844 264.371094 35.464844 263.792969 C 35.464844 263.125 35.734375 262.726562 36.175781 262.726562 C 36.796875 262.726562 36.839844 263.214844 36.574219 266.722656 C 36.308594 270.273438 36.351562 270.761719 37.019531 271.027344 C 38.835938 271.691406 39.058594 270.804688 39.101562 264.101562 C 39.144531 257.757812 39.101562 257.667969 38.082031 257.3125 C 36.441406 256.691406 35.023438 257.222656 35.023438 258.511719 C 35.023438 259.089844 34.847656 259.710938 34.578125 259.84375 C 34.359375 259.976562 34.136719 260.773438 34.136719 261.574219 C 34.136719 262.417969 33.871094 263.304688 33.515625 263.613281 C 33.160156 263.882812 32.808594 264.503906 32.71875 264.992188 C 32.539062 266.144531 31.742188 266.144531 31.566406 264.992188 C 31.476562 264.503906 31.121094 263.882812 30.765625 263.613281 C 30.414062 263.304688 30.148438 262.503906 30.148438 261.796875 C 30.148438 261.085938 29.925781 260.066406 29.613281 259.488281 C 29.347656 258.953125 28.992188 258.199219 28.816406 257.84375 C 28.507812 257.136719 27.441406 256.957031 25.800781 257.269531 Z M 25.800781 257.269531 "/>
<path style=" stroke:none;fill-rule:nonzero;fill:rgb(0%,0%,0%);fill-opacity:1;" d="M 44.421875 258.066406 C 43.136719 259.53125 43.179688 260.066406 44.554688 260.066406 C 45.886719 260.066406 48.144531 258.15625 47.703125 257.445312 C 47.171875 256.601562 45.398438 256.914062 44.421875 258.066406 Z M 44.421875 258.066406 "/>
<path style=" stroke:none;fill-rule:nonzero;fill:rgb(0%,0%,0%);fill-opacity:1;" d="M 58.652344 257.269531 C 58.296875 257.402344 58.078125 258.332031 58.078125 259.710938 C 58.078125 261.527344 57.945312 261.882812 57.410156 261.664062 C 57.058594 261.527344 56.4375 261.261719 56.082031 261.128906 C 55.683594 260.953125 54.839844 261.441406 53.863281 262.417969 C 52.578125 263.703125 52.3125 264.28125 52.3125 265.878906 C 52.3125 267.476562 52.578125 268.140625 53.863281 269.472656 C 55.417969 271.203125 56.214844 271.515625 57.011719 270.714844 C 57.367188 270.359375 57.855469 270.40625 58.742188 270.714844 C 59.449219 270.980469 60.160156 271.027344 60.382812 270.804688 C 60.605469 270.582031 60.824219 267.476562 60.871094 263.925781 C 60.957031 258.777344 60.871094 257.355469 60.382812 257.179688 C 59.671875 256.914062 59.40625 256.957031 58.652344 257.269531 Z M 58.078125 264.722656 C 58.832031 265.65625 58.253906 267.476562 57.101562 267.875 C 55.636719 268.320312 54.398438 266.632812 55.0625 265.125 C 55.636719 263.925781 57.234375 263.703125 58.078125 264.722656 Z M 58.078125 264.722656 "/>
<path style=" stroke:none;fill-rule:nonzero;fill:rgb(0%,0%,0%);fill-opacity:1;" d="M 63.53125 257.445312 C 63.308594 257.667969 63.175781 258.378906 63.308594 259 C 63.574219 260.464844 65.835938 260.550781 66.191406 259.089844 C 66.632812 257.402344 64.769531 256.203125 63.53125 257.445312 Z M 63.53125 257.445312 "/>
<path style=" stroke:none;fill-rule:nonzero;fill:rgb(0%,0%,0%);fill-opacity:1;" d="M 138.761719 257.269531 C 137.167969 257.492188 135.660156 258.6875 135.660156 259.753906 C 135.660156 260.066406 135.394531 260.730469 135.039062 261.21875 C 134.464844 261.972656 134.507812 262.238281 135.214844 263.394531 C 135.925781 264.546875 136.015625 265.167969 135.703125 267.386719 C 135.304688 270.226562 135.617188 271.160156 136.988281 271.160156 C 138.277344 271.160156 138.675781 270.183594 138.363281 267.566406 C 138.007812 264.503906 138.097656 264.101562 139.472656 263.613281 C 140.847656 263.082031 140.890625 261.527344 139.5625 261.308594 C 137.742188 261.039062 138.144531 260.066406 140.050781 260.066406 C 141.601562 260.066406 141.867188 259.929688 142.132812 258.910156 C 142.441406 257.757812 141.777344 256.871094 140.757812 257.046875 C 140.535156 257.089844 139.605469 257.179688 138.761719 257.269531 Z M 138.761719 257.269531 "/>
<path style=" stroke:none;fill-rule:nonzero;fill:rgb(0%,0%,0%);fill-opacity:1;" d="M 206.148438 257.3125 C 205.882812 257.402344 205.707031 260.242188 205.707031 264.324219 L 205.707031 271.160156 L 209.164062 271.160156 C 212.089844 271.160156 212.84375 270.980469 214.21875 270.050781 C 217.765625 267.652344 217.855469 259.796875 214.394531 258.289062 C 213.109375 257.710938 207.082031 257.003906 206.148438 257.3125 Z M 213.332031 260.820312 C 213.910156 261.351562 214.128906 262.195312 214.128906 264.058594 C 214.128906 267.121094 213.421875 267.917969 210.582031 268.140625 L 208.589844 268.273438 L 208.457031 264.148438 L 208.324219 260.066406 L 210.40625 260.066406 C 211.734375 260.066406 212.800781 260.332031 213.332031 260.820312 Z M 213.332031 260.820312 "/>
<path style=" stroke:none;fill-rule:nonzero;fill:rgb(0%,0%,0%);fill-opacity:1;" d="M 247.511719 257.269531 C 247.203125 257.355469 246.9375 257.800781 246.9375 258.246094 C 246.9375 260.242188 249.816406 260.820312 250.304688 258.910156 C 250.703125 257.3125 249.332031 256.515625 247.511719 257.269531 Z M 247.511719 257.269531 "/>
<path style=" stroke:none;fill-rule:nonzero;fill:rgb(0%,0%,0%);fill-opacity:1;" d="M 300.714844 257.222656 C 300.402344 257.355469 300.136719 257.980469 300.136719 258.554688 C 300.136719 259.175781 299.828125 259.753906 299.472656 259.886719 C 299.074219 260.066406 298.808594 260.730469 298.808594 261.617188 C 298.808594 262.417969 298.496094 263.304688 298.140625 263.613281 C 297.785156 263.925781 297.476562 264.722656 297.476562 265.390625 C 297.476562 266.054688 297.167969 266.855469 296.765625 267.164062 C 296.324219 267.566406 296.148438 268.320312 296.234375 269.339844 C 296.367188 270.804688 296.5 270.9375 297.699219 270.9375 C 298.941406 270.9375 299.027344 270.804688 299.25 269.164062 L 299.472656 267.386719 L 302.265625 267.253906 C 304.660156 267.121094 305.011719 267.210938 305.058594 267.917969 C 305.234375 271.027344 305.191406 270.9375 306.566406 270.9375 C 308.292969 270.9375 308.558594 269.515625 307.230469 267.386719 C 306.699219 266.542969 306.386719 265.65625 306.566406 265.390625 C 306.699219 265.167969 306.519531 264.503906 306.164062 263.96875 C 305.765625 263.4375 305.457031 262.328125 305.457031 261.574219 C 305.457031 260.773438 305.191406 260.066406 304.835938 259.929688 C 304.480469 259.796875 304.125 259.132812 304.039062 258.421875 C 303.949219 257.402344 303.683594 257.179688 302.574219 257.089844 C 301.867188 257.046875 300.980469 257.089844 300.714844 257.222656 Z M 302.929688 261.484375 C 303.0625 262.285156 303.285156 263.394531 303.460938 263.925781 C 303.773438 264.859375 303.640625 264.945312 302.132812 264.945312 C 300.757812 264.945312 300.535156 264.8125 300.800781 264.148438 C 300.980469 263.746094 301.199219 262.636719 301.332031 261.707031 C 301.644531 259.664062 302.621094 259.53125 302.929688 261.484375 Z M 302.929688 261.484375 "/>
<path style=" stroke:none;fill-rule:nonzero;fill:rgb(0%,0%,0%);fill-opacity:1;" d="M 315.078125 257.222656 C 314.898438 257.402344 314.765625 258.511719 314.765625 259.664062 C 314.765625 261.972656 314.277344 262.636719 313.4375 261.617188 C 312.59375 260.597656 311.886719 260.820312 310.378906 262.503906 C 308.605469 264.546875 308.515625 266.765625 310.113281 268.941406 C 311.53125 270.894531 312.328125 271.292969 313.390625 270.761719 C 313.925781 270.449219 314.632812 270.449219 315.566406 270.804688 C 316.316406 271.113281 317.070312 271.203125 317.203125 271.070312 C 317.339844 270.9375 317.515625 267.742188 317.558594 264.015625 L 317.605469 257.179688 L 316.496094 257.046875 C 315.917969 256.957031 315.253906 257.046875 315.078125 257.222656 Z M 314.855469 265.167969 C 315.253906 266.101562 315.210938 266.410156 314.546875 267.164062 C 313.480469 268.363281 312.371094 268.273438 311.707031 266.988281 C 311.265625 266.1875 311.265625 265.699219 311.617188 264.992188 C 312.371094 263.660156 314.191406 263.746094 314.855469 265.167969 Z M 314.855469 265.167969 "/>
<path style=" stroke:none;fill-rule:nonzero;fill:rgb(0%,0%,0%);fill-opacity:1;" d="M 369.074219 257.402344 C 368.898438 257.667969 368.898438 258.867188 369.074219 260.066406 C 369.339844 261.882812 369.253906 262.285156 368.71875 262.285156 C 368.367188 262.285156 367.964844 261.972656 367.789062 261.617188 C 367.347656 260.464844 365.882812 260.90625 364.242188 262.726562 C 362.070312 265.125 362.113281 266.765625 364.332031 269.296875 C 366.058594 271.25 367.035156 271.601562 367.964844 270.492188 C 368.5 269.871094 368.632812 269.871094 369.339844 270.539062 C 369.785156 270.9375 370.492188 271.113281 370.9375 270.980469 C 371.644531 270.761719 371.734375 270.09375 371.78125 264.191406 C 371.824219 259.664062 371.691406 257.535156 371.335938 257.3125 C 370.625 256.824219 369.386719 256.871094 369.074219 257.402344 Z M 368.765625 265.035156 C 369.429688 266.1875 369.429688 266.277344 368.410156 267.386719 L 367.347656 268.496094 L 366.328125 267.519531 C 365.128906 266.367188 365.085938 266.144531 366.015625 264.679688 C 366.902344 263.347656 367.789062 263.4375 368.765625 265.035156 Z M 368.765625 265.035156 "/>
<path style=" stroke:none;fill-rule:nonzero;fill:rgb(0%,0%,0%);fill-opacity:1;" d="M 104.714844 264.148438 L 104.847656 270.9375 L 106.179688 270.9375 C 107.464844 270.9375 107.507812 270.847656 107.640625 268.585938 L 107.773438 266.277344 L 109.902344 266.277344 C 111.851562 266.277344 112.207031 266.101562 113.671875 264.503906 C 114.957031 263.082031 115.265625 262.371094 115.265625 260.953125 C 115.265625 257.933594 114.292969 257.402344 109.058594 257.402344 L 104.582031 257.402344 Z M 112.429688 260.730469 C 112.605469 261.085938 112.5625 261.882812 112.429688 262.503906 C 112.164062 263.480469 111.941406 263.613281 109.945312 263.613281 C 107.953125 263.613281 107.730469 263.480469 107.464844 262.503906 C 106.976562 260.550781 107.507812 260.066406 109.945312 260.066406 C 111.542969 260.066406 112.253906 260.242188 112.429688 260.730469 Z M 112.429688 260.730469 "/>
<path style=" stroke:none;fill-rule:nonzero;fill:rgb(0%,0%,0%);fill-opacity:1;" d="M 241.4375 260.199219 C 240.109375 261.929688 240.019531 262.816406 240.953125 263.613281 C 241.394531 264.015625 241.617188 265.035156 241.617188 266.941406 C 241.617188 270.671875 242.148438 271.113281 246.492188 270.980469 L 249.816406 270.894531 L 249.953125 266.054688 L 250.085938 261.261719 L 248.3125 261.574219 C 246.003906 261.929688 244.277344 261.175781 244.277344 259.753906 C 244.277344 258.199219 242.769531 258.46875 241.4375 260.199219 Z M 247.378906 265.878906 C 247.378906 268.496094 247.292969 268.941406 246.582031 268.941406 C 244.984375 268.941406 243.832031 267.652344 243.832031 265.832031 C 243.832031 264.414062 244.054688 264.015625 245.296875 263.261719 C 246.050781 262.816406 246.847656 262.503906 247.070312 262.59375 C 247.246094 262.683594 247.378906 264.148438 247.378906 265.878906 Z M 247.378906 265.878906 "/>
<path style=" stroke:none;fill-rule:nonzero;fill:rgb(0%,0%,0%);fill-opacity:1;" d="M 262.054688 260.285156 C 260.992188 261.839844 260.992188 261.882812 261.789062 263.613281 C 262.320312 264.8125 262.496094 265.878906 262.277344 267.078125 C 262.054688 268.539062 262.1875 269.027344 263.117188 270.003906 C 264.226562 271.203125 266.578125 271.601562 267.109375 270.714844 C 267.597656 269.917969 266.84375 268.453125 265.734375 268.054688 C 264.847656 267.699219 264.671875 267.34375 264.671875 265.878906 C 264.671875 264.414062 264.847656 264.101562 265.734375 263.882812 C 267.550781 263.4375 267.730469 261.261719 265.957031 260.820312 C 265.46875 260.6875 265.113281 260.199219 265.113281 259.664062 C 265.113281 258.113281 263.296875 258.46875 262.054688 260.285156 Z M 262.054688 260.285156 "/>
<path style=" stroke:none;fill-rule:nonzero;fill:rgb(0%,0%,0%);fill-opacity:1;" d="M 187.441406 261.128906 C 186.6875 261.527344 186.113281 261.574219 185.84375 261.308594 C 185.625 261.085938 185.046875 260.953125 184.605469 261.039062 C 183.851562 261.175781 183.71875 261.75 183.539062 265.613281 C 183.40625 268.097656 183.496094 270.316406 183.71875 270.625 C 183.9375 270.9375 184.648438 271.160156 185.269531 271.070312 C 186.378906 270.9375 186.421875 270.847656 186.289062 268.363281 C 186.113281 265.433594 186.863281 264.058594 188.683594 264.058594 C 189.925781 264.058594 190.589844 262.195312 189.746094 261.175781 C 189.082031 260.375 188.949219 260.375 187.441406 261.128906 Z M 187.441406 261.128906 "/>
<path style=" stroke:none;fill-rule:nonzero;fill:rgb(0%,0%,0%);fill-opacity:1;" d="M 326.605469 260.996094 C 326.160156 261.261719 325.851562 261.972656 325.851562 262.859375 C 325.804688 263.660156 325.585938 264.859375 325.273438 265.523438 L 324.742188 266.808594 L 323.898438 265.878906 C 323.410156 265.34375 322.925781 264.058594 322.789062 263.039062 C 322.570312 261.394531 322.390625 261.175781 321.328125 261.039062 C 320.175781 260.90625 320.085938 260.996094 320.085938 262.503906 C 320.085938 263.394531 320.574219 264.992188 321.152344 266.054688 C 321.769531 267.121094 322.304688 268.628906 322.390625 269.472656 C 322.523438 270.761719 322.703125 270.9375 323.988281 271.070312 C 325.71875 271.25 326.871094 270.449219 326.515625 269.339844 C 326.382812 268.894531 326.824219 267.386719 327.625 265.878906 C 328.332031 264.414062 328.953125 262.816406 328.953125 262.328125 C 328.953125 261.175781 327.625 260.417969 326.605469 260.996094 Z M 326.605469 260.996094 "/>
<path style=" stroke:none;fill-rule:nonzero;fill:rgb(0%,0%,0%);fill-opacity:1;" d="M 44.820312 261.261719 C 44.246094 261.394531 43.179688 262.105469 42.515625 262.859375 C 40.652344 264.902344 40.742188 267.253906 42.691406 269.472656 C 44.023438 270.980469 44.421875 271.160156 46.238281 271.160156 C 47.96875 271.160156 48.410156 270.980469 49.210938 269.871094 C 50.316406 268.230469 49.875 267.875 47.082031 268.230469 C 44.867188 268.539062 43.578125 268.054688 44.113281 267.164062 C 44.289062 266.855469 45.308594 266.722656 46.726562 266.765625 C 49.433594 266.898438 50.097656 266.589844 50.097656 265.210938 C 50.097656 264.234375 47.125 260.90625 46.328125 260.996094 C 46.0625 261.039062 45.398438 261.175781 44.820312 261.261719 Z M 46.90625 264.414062 C 47.039062 265.125 46.816406 265.390625 46.195312 265.390625 C 43.980469 265.390625 43.179688 264.324219 44.910156 263.613281 C 46.238281 263.082031 46.726562 263.304688 46.90625 264.414062 Z M 46.90625 264.414062 "/>
<path style=" stroke:none;fill-rule:nonzero;fill:rgb(0%,0%,0%);fill-opacity:1;" d="M 63.972656 261.261719 C 63.574219 261.394531 63.398438 262.859375 63.398438 266.320312 L 63.398438 271.203125 L 64.636719 271.070312 L 65.835938 270.9375 L 65.96875 266.320312 C 66.101562 261.261719 65.789062 260.507812 63.972656 261.261719 Z M 63.972656 261.261719 "/>
<path style=" stroke:none;fill-rule:nonzero;fill:rgb(0%,0%,0%);fill-opacity:1;" d="M 69.648438 262.503906 C 68.539062 263.792969 68.273438 264.503906 68.273438 266.101562 C 68.273438 267.785156 68.496094 268.320312 69.824219 269.605469 C 71.644531 271.46875 73.414062 271.648438 74.835938 270.136719 C 76.652344 268.230469 75.675781 266.234375 73.59375 267.476562 C 71.820312 268.496094 70.933594 268.007812 70.933594 265.878906 C 70.933594 263.925781 71.910156 263.171875 73.148438 264.28125 C 74.921875 265.878906 76.519531 264.101562 75.1875 262.0625 C 74.613281 261.175781 74.082031 260.953125 72.75 260.953125 C 71.332031 260.953125 70.800781 261.21875 69.648438 262.503906 Z M 69.648438 262.503906 "/>
<path style=" stroke:none;fill-rule:nonzero;fill:rgb(0%,0%,0%);fill-opacity:1;" d="M 79.488281 262.726562 C 77.363281 265.210938 77.449219 267.296875 79.710938 269.515625 C 81.972656 271.738281 83.257812 271.691406 85.5625 269.296875 C 87.867188 266.855469 87.914062 265.34375 85.742188 262.816406 C 84.410156 261.261719 83.921875 260.953125 82.546875 260.953125 C 81.175781 260.953125 80.640625 261.261719 79.488281 262.726562 Z M 84.011719 265.433594 C 84.367188 266.5 83.523438 268.054688 82.546875 268.054688 C 80.640625 268.054688 80.023438 265.480469 81.660156 264.324219 C 82.726562 263.570312 83.566406 263.96875 84.011719 265.433594 Z M 84.011719 265.433594 "/>
<path style=" stroke:none;fill-rule:nonzero;fill:rgb(0%,0%,0%);fill-opacity:1;" d="M 117.660156 261.617188 C 117.570312 261.839844 117.4375 264.058594 117.394531 266.5 C 117.261719 270.847656 117.304688 270.9375 118.28125 271.070312 C 119.878906 271.292969 120.542969 270.492188 120.277344 268.496094 C 119.921875 265.878906 120.410156 264.503906 121.917969 264.015625 C 123.15625 263.570312 124.089844 262.0625 123.46875 261.484375 C 122.980469 260.996094 117.839844 261.085938 117.660156 261.617188 Z M 117.660156 261.617188 "/>
<path style=" stroke:none;fill-rule:nonzero;fill:rgb(0%,0%,0%);fill-opacity:1;" d="M 126.039062 262.726562 C 123.910156 265.167969 124 267.296875 126.261719 269.515625 C 128.566406 271.78125 130.074219 271.738281 132.023438 269.382812 C 133.042969 268.140625 133.441406 267.210938 133.441406 266.054688 C 133.441406 263.613281 131.09375 260.953125 129.011719 260.996094 C 127.769531 261.039062 127.148438 261.394531 126.039062 262.726562 Z M 130.296875 264.679688 C 131.316406 265.789062 131.269531 266.1875 129.984375 267.742188 C 129.320312 268.453125 129.230469 268.453125 128.257812 267.519531 C 127.058594 266.410156 126.96875 265.523438 127.992188 264.414062 C 128.921875 263.394531 129.097656 263.394531 130.296875 264.679688 Z M 130.296875 264.679688 "/>
<path style=" stroke:none;fill-rule:nonzero;fill:rgb(0%,0%,0%);fill-opacity:1;" d="M 143.328125 262.726562 C 141.203125 265.167969 141.289062 267.296875 143.550781 269.515625 C 144.925781 270.847656 145.546875 271.160156 146.964844 271.160156 C 149.003906 271.160156 149.492188 270.894531 150.246094 269.515625 C 150.910156 268.1875 150.335938 267.917969 147.453125 268.273438 C 145.503906 268.539062 145.058594 268.453125 144.835938 267.875 C 144.4375 266.898438 145.457031 266.542969 147.585938 266.855469 C 150.953125 267.296875 151.707031 265.390625 149.269531 262.59375 C 147.1875 260.332031 145.324219 260.332031 143.328125 262.726562 Z M 147.542969 264.414062 C 147.71875 264.992188 145.679688 265.613281 145.015625 265.167969 C 144.660156 264.992188 144.660156 264.636719 144.96875 264.058594 C 145.324219 263.394531 145.679688 263.304688 146.386719 263.570312 C 146.921875 263.746094 147.453125 264.148438 147.542969 264.414062 Z M 147.542969 264.414062 "/>
<path style=" stroke:none;fill-rule:nonzero;fill:rgb(0%,0%,0%);fill-opacity:1;" d="M 153.4375 262.328125 C 152.0625 264.589844 153.214844 266.542969 156.054688 266.808594 C 157.074219 266.898438 157.605469 267.164062 157.605469 267.609375 C 157.605469 268.097656 157.160156 268.230469 155.832031 268.140625 C 153.304688 268.007812 152.640625 268.539062 153.613281 270.003906 C 154.28125 270.980469 154.722656 271.160156 156.453125 271.160156 C 158.09375 271.160156 158.757812 270.9375 159.511719 270.136719 C 161.507812 268.007812 160.042969 264.945312 157.027344 264.945312 C 154.902344 264.945312 155.476562 263.835938 157.648438 263.792969 C 160.621094 263.703125 160.574219 263.746094 159.820312 262.285156 C 159.199219 261.039062 158.933594 260.953125 156.71875 260.953125 C 154.457031 260.953125 154.191406 261.039062 153.4375 262.328125 Z M 153.4375 262.328125 "/>
<path style=" stroke:none;fill-rule:nonzero;fill:rgb(0%,0%,0%);fill-opacity:1;" d="M 163.679688 261.972656 C 163.148438 262.550781 162.703125 263.394531 162.703125 263.882812 C 162.703125 265.300781 163.988281 266.722656 165.273438 266.722656 C 165.941406 266.722656 166.738281 266.898438 167.09375 267.121094 C 167.980469 267.699219 166.871094 268.273438 164.921875 268.273438 C 163.855469 268.273438 163.324219 268.496094 163.234375 268.984375 C 162.835938 271.160156 167.492188 272.046875 169.265625 270.136719 C 171.171875 268.140625 170.285156 265.566406 167.535156 265.125 C 165.320312 264.769531 165.496094 263.835938 167.847656 263.835938 C 169.351562 263.835938 169.574219 263.703125 169.707031 262.773438 C 169.929688 261.394531 169.175781 260.953125 166.648438 260.953125 C 165.097656 260.953125 164.386719 261.175781 163.679688 261.972656 Z M 163.679688 261.972656 "/>
<path style=" stroke:none;fill-rule:nonzero;fill:rgb(0%,0%,0%);fill-opacity:1;" d="M 173.917969 262.726562 C 171.792969 265.167969 171.878906 267.296875 174.140625 269.515625 C 176.445312 271.78125 177.953125 271.738281 179.90625 269.382812 C 180.96875 268.097656 181.324219 267.253906 181.324219 265.96875 C 181.324219 264.679688 180.96875 263.882812 179.90625 262.59375 C 177.867188 260.285156 175.914062 260.332031 173.917969 262.726562 Z M 178.175781 264.679688 C 179.195312 265.789062 179.152344 266.1875 177.867188 267.742188 C 177.199219 268.453125 177.113281 268.453125 176.136719 267.519531 C 174.9375 266.410156 174.851562 265.523438 175.871094 264.414062 C 176.800781 263.394531 176.980469 263.394531 178.175781 264.679688 Z M 178.175781 264.679688 "/>
<path style=" stroke:none;fill-rule:nonzero;fill:rgb(0%,0%,0%);fill-opacity:1;" d="M 220.46875 262.816406 C 218.476562 265.257812 218.519531 266.855469 220.648438 269.296875 C 222.109375 270.980469 222.464844 271.160156 224.371094 271.160156 C 226.101562 271.160156 226.542969 270.980469 227.207031 270.003906 C 227.605469 269.382812 227.828125 268.71875 227.652344 268.585938 C 227.472656 268.40625 226.234375 268.273438 224.859375 268.273438 C 222.820312 268.273438 222.332031 268.140625 222.199219 267.476562 C 222.066406 266.808594 222.421875 266.722656 224.902344 266.722656 C 228.050781 266.722656 228.761719 266.144531 227.828125 264.371094 C 226.71875 262.195312 225.082031 260.953125 223.484375 260.996094 C 222.15625 260.996094 221.621094 261.308594 220.46875 262.816406 Z M 225.035156 264.101562 C 225.167969 264.371094 225.035156 264.769531 224.726562 264.992188 C 223.792969 265.613281 222.375 265.257812 222.199219 264.371094 C 222.066406 263.792969 222.332031 263.613281 223.394531 263.613281 C 224.105469 263.613281 224.859375 263.835938 225.035156 264.101562 Z M 225.035156 264.101562 "/>
<path style=" stroke:none;fill-rule:nonzero;fill:rgb(0%,0%,0%);fill-opacity:1;" d="M 230.445312 261.261719 C 230.355469 261.484375 230.265625 263.703125 230.265625 266.277344 L 230.3125 270.9375 L 232.972656 270.9375 L 232.839844 268.273438 C 232.707031 266.054688 232.839844 265.433594 233.636719 264.589844 C 234.125 264.058594 234.921875 263.613281 235.410156 263.613281 C 236.164062 263.613281 236.296875 264.015625 236.386719 267.253906 C 236.519531 270.894531 236.519531 270.9375 237.757812 271.070312 L 238.957031 271.203125 L 238.957031 267.03125 C 238.957031 263.261719 238.867188 262.773438 237.9375 261.929688 C 236.828125 260.863281 235.632812 260.730469 233.902344 261.394531 C 233.191406 261.664062 232.707031 261.664062 232.527344 261.394531 C 232.21875 260.863281 230.667969 260.820312 230.445312 261.261719 Z M 230.445312 261.261719 "/>
<path style=" stroke:none;fill-rule:nonzero;fill:rgb(0%,0%,0%);fill-opacity:1;" d="M 253.230469 261.972656 C 251.28125 264.058594 252.390625 266.5 255.359375 266.808594 C 256.378906 266.898438 256.910156 267.164062 256.910156 267.609375 C 256.910156 268.097656 256.46875 268.230469 255.183594 268.140625 C 252.433594 267.917969 252.035156 268.273438 253.144531 269.828125 C 253.941406 270.980469 254.382812 271.160156 256.023438 271.160156 C 259.660156 271.160156 261.34375 267.832031 258.816406 265.699219 C 258.285156 265.257812 257.355469 264.945312 256.734375 265.035156 C 255.9375 265.125 255.539062 264.945312 255.449219 264.371094 C 255.316406 263.746094 255.625 263.613281 257.3125 263.613281 C 259.394531 263.613281 259.703125 263.304688 258.90625 261.796875 C 258.199219 260.507812 254.519531 260.597656 253.230469 261.972656 Z M 253.230469 261.972656 "/>
<path style=" stroke:none;fill-rule:nonzero;fill:rgb(0%,0%,0%);fill-opacity:1;" d="M 269.191406 262.0625 C 268.484375 263.613281 268.484375 263.613281 270.121094 263.613281 C 272.207031 263.613281 273.09375 264.414062 273.226562 266.5 C 273.316406 268.054688 273.183594 268.273438 272.339844 268.40625 C 271.585938 268.539062 271.320312 268.320312 271.320312 267.699219 C 271.320312 267.210938 271.628906 266.722656 271.984375 266.542969 C 272.78125 266.234375 272.871094 264.945312 272.074219 264.945312 C 271.277344 264.945312 268.214844 267.566406 268.214844 268.273438 C 268.214844 268.628906 268.703125 269.382812 269.28125 270.003906 C 270.476562 271.335938 272.382812 271.515625 273.625 270.449219 C 274.335938 269.738281 274.421875 269.738281 274.6875 270.449219 C 275 271.25 276.863281 271.425781 277.304688 270.671875 C 277.480469 270.449219 277.304688 269.871094 276.90625 269.429688 C 276.417969 268.894531 276.195312 267.785156 276.195312 265.746094 C 276.195312 262.015625 275.222656 260.953125 271.894531 260.953125 C 269.945312 260.953125 269.636719 261.085938 269.191406 262.0625 Z M 269.191406 262.0625 "/>
<path style=" stroke:none;fill-rule:nonzero;fill:rgb(0%,0%,0%);fill-opacity:1;" d="M 332.191406 262.816406 C 330.105469 265.390625 330.195312 267.34375 332.410156 269.515625 C 334.714844 271.78125 336.222656 271.738281 338.261719 269.339844 C 340.347656 266.855469 340.390625 265.078125 338.394531 262.726562 C 337.109375 261.21875 336.578125 260.953125 335.25 260.996094 C 333.875 260.996094 333.386719 261.308594 332.191406 262.816406 Z M 336.535156 264.589844 C 337.597656 265.921875 337.597656 266.234375 336.402344 267.476562 L 335.425781 268.496094 L 334.40625 267.519531 C 333.210938 266.367188 333.164062 266.144531 334.097656 264.722656 C 334.984375 263.347656 335.46875 263.347656 336.535156 264.589844 Z M 336.535156 264.589844 "/>
<path style=" stroke:none;fill-rule:nonzero;fill:rgb(0%,0%,0%);fill-opacity:1;" d="M 343.230469 262.816406 C 341.5 265.035156 341.589844 266.898438 343.449219 269.164062 C 344.824219 270.847656 345.578125 271.027344 346.730469 270.003906 C 347.441406 269.382812 347.527344 269.382812 348.015625 270.226562 C 348.28125 270.761719 348.371094 271.382812 348.238281 271.601562 C 347.796875 272.3125 345.269531 272.136719 344.425781 271.335938 C 343.539062 270.539062 342.03125 270.847656 341.632812 271.914062 C 341.101562 273.289062 343.449219 274.664062 346.375 274.710938 C 350.410156 274.710938 350.675781 274.265625 350.675781 266.941406 C 350.675781 260.996094 350.675781 260.953125 349.65625 260.953125 C 349.082031 260.953125 348.414062 261.175781 348.105469 261.484375 C 347.707031 261.882812 347.441406 261.882812 347.042969 261.484375 C 346.023438 260.464844 344.691406 260.90625 343.230469 262.816406 Z M 348.195312 265.480469 C 348.328125 266.054688 348.015625 266.765625 347.261719 267.519531 L 346.109375 268.675781 L 345.3125 267.652344 C 344.292969 266.410156 344.25 265.878906 345.136719 264.636719 C 345.710938 263.792969 345.976562 263.703125 346.863281 264.148438 C 347.484375 264.414062 348.0625 264.992188 348.195312 265.480469 Z M 348.195312 265.480469 "/>
<path style=" stroke:none;fill-rule:nonzero;fill:rgb(0%,0%,0%);fill-opacity:1;" d="M 354 261.664062 C 352.804688 262.90625 353.335938 263.835938 355.289062 263.835938 C 357.328125 263.835938 357.8125 264.589844 356.261719 265.300781 C 354.355469 266.144531 353.335938 267.296875 353.335938 268.585938 C 353.335938 270.359375 354.753906 271.027344 358.390625 270.9375 C 361.539062 270.894531 362.335938 270.40625 361.09375 269.382812 C 360.605469 268.984375 360.429688 268.007812 360.429688 265.878906 C 360.429688 261.882812 359.765625 260.953125 356.882812 260.953125 C 355.507812 260.953125 354.488281 261.21875 354 261.664062 Z M 358.214844 267.386719 C 358.214844 268.054688 357.015625 268.628906 356.394531 268.230469 C 355.730469 267.832031 355.953125 266.808594 356.792969 266.589844 C 357.769531 266.367188 358.214844 266.632812 358.214844 267.386719 Z M 358.214844 267.386719 "/>
<path style=" stroke:none;fill-rule:nonzero;fill:rgb(0%,0%,0%);fill-opacity:1;" d="M 375.945312 261.929688 C 375.414062 262.503906 374.75 263.4375 374.484375 264.058594 C 373.996094 265.035156 373.953125 265.523438 374.128906 267.476562 C 374.171875 267.785156 374.792969 268.71875 375.546875 269.605469 C 377.410156 271.691406 379.09375 271.738281 381.089844 269.605469 C 382.375 268.320312 382.597656 267.785156 382.597656 265.921875 C 382.597656 264.101562 382.375 263.570312 381.132812 262.371094 C 379.359375 260.640625 377.320312 260.464844 375.945312 261.929688 Z M 379.40625 264.589844 C 379.714844 264.902344 379.9375 265.523438 379.9375 266.054688 C 379.9375 268.097656 377.808594 268.761719 376.878906 266.988281 C 375.8125 265.035156 377.898438 263.082031 379.40625 264.589844 Z M 379.40625 264.589844 "/>
<path style=" stroke:none;fill-rule:nonzero;fill:rgb(65.098039%,65.098039%,65.098039%);fill-opacity:1;" d="M 66.558594 164.699219 C 63.382812 165.539062 58.128906 163.445312 55.910156 166.429688 C 56.734375 192.960938 56.53125 219.582031 56.832031 246.148438 C 62.308594 249.199219 69.710938 248.117188 75.828125 247.175781 C 80.761719 245.941406 78.941406 239.320312 78.503906 235.652344 C 76.523438 230.1875 77.964844 223.332031 77.351562 217.394531 C 77.519531 200.824219 76.667969 184.09375 78.042969 167.621094 C 80.664062 165.824219 75.917969 164.265625 74.339844 164.753906 C 71.75 164.644531 69.152344 164.660156 66.558594 164.699219 Z M 66.558594 164.699219 "/>
<path style=" stroke:none;fill-rule:nonzero;fill:rgb(65.098039%,65.098039%,65.098039%);fill-opacity:1;" d="M 230.238281 120.414062 C 225.851562 120.234375 217.160156 120.996094 218.5 126.609375 C 222.542969 132.046875 219.90625 139.410156 220.847656 145.601562 C 220.96875 179.234375 220.625 212.867188 220.546875 246.5 C 227.171875 248.929688 235.5 248.054688 242.710938 247.175781 C 246.125 243.945312 243.160156 237.097656 244.152344 232.515625 C 243.8125 196.390625 244.871094 160.222656 243.507812 124.121094 C 243.917969 121.785156 241.3125 121.960938 240.117188 121.578125 C 237.558594 119.730469 233.320312 120.640625 230.238281 120.414062 Z M 230.238281 120.414062 "/>
<path style=" stroke:none;fill-rule:nonzero;fill:rgb(65.098039%,65.098039%,65.098039%);fill-opacity:1;" d="M 311.550781 62.527344 C 308.933594 62.351562 306.027344 64.082031 304.6875 65.472656 C 303.925781 125.695312 304.621094 185.925781 304.605469 246.148438 C 310.40625 248.683594 317.71875 248.105469 324.144531 247.636719 C 327.25 246.066406 325.035156 240.859375 325.914062 238.0625 C 326.523438 179.878906 325.890625 121.6875 325.898438 63.5 C 321.941406 61.832031 316.082031 62.820312 311.550781 62.527344 Z M 311.550781 62.527344 "/>
<path style=" stroke:none;fill-rule:nonzero;fill:rgb(65.098039%,65.098039%,65.098039%);fill-opacity:1;" d="M 144.292969 33.390625 C 137.105469 32.179688 135.660156 36.539062 136.910156 41.640625 C 136.910156 109.917969 136.910156 178.195312 136.910156 246.472656 C 143.101562 249.140625 151.253906 247.597656 158.164062 247.285156 C 162.039062 246.132812 159.03125 241.015625 160.121094 238.414062 C 160.894531 171.113281 161.523438 103.800781 160.730469 36.503906 C 158.730469 32.222656 151.382812 33.984375 147.085938 33.335938 C 146.152344 33.324219 145.222656 33.335938 144.292969 33.390625 Z M 144.292969 33.390625 "/>
</g>
</svg>
