<?xml version="1.0" encoding="UTF-8" standalone="no"?>
<svg
   xmlns:dc="http://purl.org/dc/elements/1.1/"
   xmlns:cc="http://creativecommons.org/ns#"
   xmlns:rdf="http://www.w3.org/1999/02/22-rdf-syntax-ns#"
   xmlns:svg="http://www.w3.org/2000/svg"
   xmlns="http://www.w3.org/2000/svg"
   xmlns:sodipodi="http://sodipodi.sourceforge.net/DTD/sodipodi-0.dtd"
   xmlns:inkscape="http://www.inkscape.org/namespaces/inkscape"
   version="1.0"
   width="500.59903"
   height="277.70062"
   viewBox="0 0 400.47922 222.1605"
   preserveAspectRatio="xMidYMid meet"
   id="svg4491"
   inkscape:version="0.48.4 r9939"
   sodipodi:docname="35aab5b7ad08ea21b40270932034a283c746bb83.svg">
  <defs
     id="defs4501" />
  <sodipodi:namedview
     pagecolor="#ffffff"
     bordercolor="#666666"
     borderopacity="1"
     objecttolerance="10"
     gridtolerance="10"
     guidetolerance="10"
     inkscape:pageopacity="0"
     inkscape:pageshadow="2"
     inkscape:window-width="1600"
     inkscape:window-height="824"
     id="namedview4499"
     showgrid="false"
     fit-margin-top="0"
     fit-margin-left="0"
     fit-margin-right="0"
     fit-margin-bottom="0"
     inkscape:zoom="0.54252874"
     inkscape:cx="356.97425"
     inkscape:cy="208.78125"
     inkscape:window-x="0"
     inkscape:window-y="24"
     inkscape:window-maximized="1"
     inkscape:current-layer="svg4491" />
  <metadata
     id="metadata4493">
Created by potrace 1.10, written by Peter Selinger 2001-2011
<rdf:RDF>
  <cc:Work
     rdf:about="">
    <dc:format>image/svg+xml</dc:format>
    <dc:type
       rdf:resource="http://purl.org/dc/dcmitype/StillImage" />
  </cc:Work>
</rdf:RDF>
</metadata>
  <g
     transform="matrix(0.07074612,0,0,-0.07074612,-11.263206,227.09505)"
     id="g4495"
     style="fill:#000000;stroke:none">
    <path
       d="M 171,3197 C 154,3176 156,96 173,81 c 19,-15 5615,-15 5634,0 10,9 13,290 13,1555 0,848 -3,1550 -6,1558 -5,14 -290,16 -2819,16 -2317,0 -2815,-3 -2824,-13 z m 770,-402 0,-366 -366,0 -366,0 0,361 c 1,199 3,365 5,368 2,4 167,6 366,5 l 361,-2 0,-366 z m 811,-2 3,-368 -383,2 -383,3 0,365 c 0,201 1,366 1,368 0,1 171,1 380,0 l 380,-2 2,-368 z m 811,27 2,-340 -383,2 -384,3 1,340 c 0,187 1,340 1,340 0,0 171,-1 380,-2 l 380,-2 3,-341 z m 810,0 2,-340 -385,0 -385,0 2,342 c 2,189 3,343 3,343 0,0 171,-1 380,-2 l 380,-2 3,-341 z m 808,3 1,-338 -384,-3 -383,-2 2,342 c 2,189 3,343 3,343 0,0 171,-1 380,-2 l 381,-2 0,-338 z m 810,-28 0,-365 -383,-3 -383,-2 3,366 c 1,201 2,368 2,370 0,2 171,3 381,2 l 380,-2 0,-366 z m 776,362 c 2,-2 3,-167 4,-366 l 0,-362 -366,0 -366,0 0,365 c 0,202 1,367 1,369 0,3 723,-2 727,-6 z M 941,2015 l 0,-366 -366,0 -366,0 0,365 c 0,202 1,367 1,369 0,1 164,1 366,0 l 365,-2 0,-366 z m 784,0 0,-367 -368,1 -368,0 0,366 c 0,201 1,366 1,368 0,1 165,1 368,0 l 367,-1 0,-367 z m 3266,0 0,-366 -368,0 -368,-1 -3,358 c -1,198 -1,363 2,369 2,6 132,9 370,8 l 367,-2 0,-366 z m 780,0 0,-366 -366,0 -366,0 0,365 c 0,202 1,367 1,369 0,1 164,1 366,0 l 365,-2 0,-366 z m -3208,18 -1,-328 -356,-3 -356,-2 0,330 0,330 358,0 357,0 -2,-327 z m 812,-31 0,-357 -385,0 -385,0 0,357 0,358 385,0 385,0 0,-358 z m 755,28 0,-330 -356,2 -356,3 -1,328 -2,327 358,0 357,0 0,-330 z m -3189,-795 0,-366 -366,0 -366,0 0,365 c 0,202 1,367 1,369 0,1 164,1 366,0 l 365,-2 0,-366 z m 812,2 -3,-368 -380,0 -381,0 0,366 c 0,201 1,366 1,368 0,1 172,2 383,2 l 382,0 -2,-368 z m 1567,31 c 3,-183 4,-336 2,-340 -2,-5 -151,-8 -332,-8 -181,0 -330,3 -332,8 -2,4 -2,158 0,342 l 3,335 327,-2 327,-1 5,-334 z m 1671,-33 0,-366 -381,0 -380,0 -3,368 -2,368 383,-2 383,-3 0,-365 z m 780,0 0,-366 -366,0 -366,0 0,365 c 0,202 1,367 1,369 0,1 164,1 366,0 l 365,-2 0,-366 z m -3265,343 c 5,-7 7,-170 4,-361 l -5,-349 -353,1 -353,0 0,353 -1,353 344,5 c 188,3 346,6 349,8 4,1 10,-4 15,-10 z m 1583,-1 93,-2 -1,-353 0,-353 -353,0 -353,-1 -5,349 c -3,191 -2,353 2,358 6,9 315,10 617,2 z M 941,470 l 0,-351 -362,0 c -199,1 -364,2 -366,4 -2,3 -6,665 -3,697 0,3 164,4 366,3 l 365,-2 0,-351 z m 810,0 0,-351 -381,0 -381,0 0,351 c 0,192 1,351 1,353 0,1 171,1 381,0 l 380,-2 0,-351 z m 812,2 -3,-353 -380,0 -381,0 0,351 c 0,192 1,351 1,353 0,1 172,2 383,2 l 382,0 -2,-353 z m 1618,-3 0,-350 -381,0 -380,0 -3,353 -2,353 383,-3 383,-2 0,-351 z m 810,1 0,-351 -381,0 -381,0 0,351 c 0,192 1,351 1,353 0,1 171,1 381,0 l 380,-2 0,-351 z m 780,4 c -1,-191 -2,-349 -4,-351 -2,-2 -167,-3 -366,-4 l -362,0 0,350 c 0,193 1,352 1,354 0,1 165,1 366,0 l 365,-2 0,-347 z m -2400,-17 0,-338 -381,0 -381,0 0,333 c 0,183 0,336 0,341 1,4 172,6 382,5 l 381,-3 -1,-338 z"
       id="path4497"
       inkscape:connector-curvature="0" />
  </g>
</svg>
