<?xml version="1.0" encoding="UTF-8"?>
<svg xmlns="http://www.w3.org/2000/svg" xmlns:xlink="http://www.w3.org/1999/xlink" width="399pt" height="320pt" viewBox="0 0 399 320" version="1.1">
<g id="surface1">
<path style=" stroke:none;fill-rule:nonzero;fill:rgb(0%,0%,0%);fill-opacity:1;" d="M 11.269531 161.355469 L 11.269531 317.066406 L 391.671875 317.066406 L 391.671875 5.640625 L 11.269531 5.640625 Z M 388.292969 161.355469 L 388.292969 313.679688 L 14.652344 313.679688 L 14.652344 9.027344 L 388.292969 9.027344 Z M 388.292969 161.355469 "/>
<path style=" stroke:none;fill-rule:nonzero;fill:rgb(0%,0%,0%);fill-opacity:1;" d="M 55.625 15.742188 L 53.425781 16.078125 L 53.425781 23.414062 C 53.367188 29.5625 53.539062 30.804688 54.328125 31.253906 C 55.847656 32.269531 57.203125 30.972656 57.203125 28.433594 L 57.203125 26.234375 L 60.246094 26.066406 C 64.078125 25.839844 65.316406 24.542969 65.371094 20.707031 C 65.371094 18.503906 65.089844 17.773438 63.90625 16.644531 C 62.328125 15.175781 60.414062 14.949219 55.625 15.742188 Z M 61.710938 20.875 L 61.710938 23.976562 L 57.203125 23.976562 L 57.03125 21.496094 C 56.75 17.941406 57.144531 17.375 59.566406 17.601562 L 61.710938 17.773438 Z M 61.710938 20.875 "/>
<path style=" stroke:none;fill-rule:nonzero;fill:rgb(0%,0%,0%);fill-opacity:1;" d="M 91.128906 17.601562 C 88.875 20.027344 88.589844 20.875 89.886719 20.875 C 90.5625 20.875 90.734375 21.664062 90.734375 24.542969 C 90.734375 27.476562 91.015625 28.605469 91.972656 29.902344 C 92.648438 30.859375 93.664062 31.59375 94.226562 31.59375 C 95.636719 31.59375 96.257812 29.902344 95.074219 29.222656 C 93.777344 28.546875 93.664062 21.550781 94.960938 21.101562 C 96.085938 20.648438 96.03125 19.40625 94.902344 18.957031 C 94.339844 18.730469 94.171875 18.222656 94.394531 17.546875 C 94.566406 16.980469 94.394531 16.25 93.945312 15.910156 C 93.382812 15.457031 92.707031 15.851562 91.128906 17.601562 Z M 91.128906 17.601562 "/>
<path style=" stroke:none;fill-rule:nonzero;fill:rgb(0%,0%,0%);fill-opacity:1;" d="M 69.882812 19.011719 C 67.964844 19.800781 67.121094 21.664062 67.0625 25.21875 C 67.0625 28.152344 67.289062 28.941406 68.417969 30.125 C 70.332031 32.214844 73.828125 32.15625 75.796875 30.070312 C 76.980469 28.773438 77.207031 27.984375 77.207031 25.105469 C 77.207031 22.226562 76.980469 21.4375 75.796875 20.140625 C 74.390625 18.617188 72.023438 18.167969 69.882812 19.011719 Z M 73.542969 25.105469 C 73.542969 28.941406 73.488281 29.054688 72.136719 29.054688 C 70.839844 29.054688 70.726562 28.828125 70.558594 25.726562 C 70.332031 21.609375 70.671875 20.761719 72.25 20.988281 C 73.433594 21.15625 73.542969 21.4375 73.542969 25.105469 Z M 73.542969 25.105469 "/>
<path style=" stroke:none;fill-rule:nonzero;fill:rgb(0%,0%,0%);fill-opacity:1;" d="M 84.195312 19.40625 C 83.96875 19.972656 84.195312 20.648438 84.703125 21.042969 C 85.378906 21.550781 85.660156 22.90625 85.773438 26.515625 C 85.941406 31.199219 86 31.3125 87.351562 31.3125 C 88.761719 31.3125 88.761719 31.199219 88.929688 26.347656 C 89.042969 22.339844 88.929688 21.382812 88.195312 21.101562 C 87.746094 20.929688 87.351562 20.421875 87.351562 19.972656 C 87.351562 19.519531 87.125 19.183594 86.84375 19.183594 C 86.5625 19.183594 85.941406 19.011719 85.4375 18.84375 C 84.871094 18.617188 84.421875 18.84375 84.195312 19.40625 Z M 84.195312 19.40625 "/>
<path style=" stroke:none;fill-rule:nonzero;fill:rgb(0%,0%,0%);fill-opacity:1;" d="M 98.960938 20.027344 C 97.664062 21.214844 97.496094 21.832031 97.496094 25.105469 C 97.496094 28.378906 97.664062 29 98.960938 30.183594 C 100.03125 31.140625 101.160156 31.59375 102.566406 31.59375 C 103.976562 31.59375 105.105469 31.140625 106.175781 30.183594 C 107.472656 29 107.640625 28.378906 107.640625 25.105469 C 107.640625 21.832031 107.472656 21.214844 106.175781 20.027344 C 105.105469 19.070312 103.976562 18.617188 102.566406 18.617188 C 101.160156 18.617188 100.03125 19.070312 98.960938 20.027344 Z M 103.976562 25.105469 C 103.976562 28.941406 103.921875 29.054688 102.566406 29.054688 C 101.273438 29.054688 101.160156 28.828125 100.988281 25.726562 C 100.765625 21.609375 101.101562 20.761719 102.679688 20.988281 C 103.863281 21.15625 103.976562 21.4375 103.976562 25.105469 Z M 103.976562 25.105469 "/>
<path style=" stroke:none;fill-rule:nonzero;fill:rgb(0%,0%,0%);fill-opacity:1;" d="M 110.796875 20.027344 C 110.007812 20.761719 109.332031 21.832031 109.332031 22.453125 C 109.332031 23.640625 111.527344 25.953125 112.769531 25.953125 C 113.953125 26.007812 116.261719 28.097656 115.8125 28.773438 C 115.304688 29.621094 113.5 29.449219 112.710938 28.492188 C 111.921875 27.589844 109.332031 27.304688 109.332031 28.152344 C 109.332031 28.492188 109.949219 29.335938 110.683594 30.125 C 112.597656 32.269531 116.148438 32.15625 118.402344 29.957031 C 119.304688 29.054688 120.039062 27.925781 120.039062 27.53125 C 120.039062 26.628906 117.109375 24.257812 115.980469 24.257812 C 114.851562 24.203125 112.597656 22.117188 112.992188 21.4375 C 113.5 20.648438 115.304688 20.761719 116.035156 21.664062 C 116.882812 22.679688 118.574219 23.132812 119.53125 22.511719 C 120.152344 22.171875 119.925781 21.664062 118.628906 20.308594 C 116.488281 18.054688 113.050781 17.941406 110.796875 20.027344 Z M 110.796875 20.027344 "/>
<path style=" stroke:none;fill-rule:nonzero;fill:rgb(0%,0%,0%);fill-opacity:1;" d="M 78.898438 25.050781 C 78.898438 30.464844 79.011719 30.972656 80.027344 31.3125 C 81.886719 31.875 82.28125 31.140625 82.28125 27.25 C 82.28125 24.597656 82.5625 23.1875 83.179688 22.511719 C 83.96875 21.609375 83.96875 21.4375 82.898438 20.367188 C 82.222656 19.691406 81.097656 19.183594 80.308594 19.183594 L 78.898438 19.183594 Z M 78.898438 25.050781 "/>
<path style=" stroke:none;fill-rule:nonzero;fill:rgb(0%,0%,0%);fill-opacity:1;" d="M 33.699219 48.011719 C 31.726562 50.15625 31.617188 50.4375 31.503906 54.667969 C 31.390625 58.617188 31.558594 59.183594 32.800781 60.535156 C 33.925781 61.722656 34.773438 62.058594 36.519531 62.058594 C 39.789062 62.058594 41.703125 59.972656 41.703125 56.359375 C 41.703125 53.257812 40.183594 51.507812 37.195312 51.226562 C 35.503906 51.058594 35.222656 50.832031 35.222656 49.648438 C 35.222656 47.953125 37.195312 47.390625 38.320312 48.800781 C 39.109375 49.703125 41.703125 49.984375 41.703125 49.140625 C 41.703125 48.800781 41.082031 47.953125 40.351562 47.164062 C 38.320312 44.964844 36.238281 45.246094 33.699219 48.011719 Z M 38.039062 56.417969 C 38.039062 59.351562 37.984375 59.519531 36.632812 59.519531 C 35.335938 59.519531 35.222656 59.292969 35.054688 56.25 L 34.882812 52.976562 L 36.460938 53.144531 C 37.984375 53.316406 38.039062 53.425781 38.039062 56.417969 Z M 38.039062 56.417969 "/>
<path style=" stroke:none;fill-rule:nonzero;fill:rgb(0%,0%,0%);fill-opacity:1;" d="M 44.859375 47.109375 C 43.449219 48.40625 43.394531 48.746094 43.394531 53.710938 C 43.394531 58.5625 43.507812 59.070312 44.804688 60.535156 C 46.832031 62.679688 50.269531 62.679688 52.242188 60.59375 C 53.480469 59.238281 53.59375 58.617188 53.652344 53.933594 C 53.707031 49.140625 53.59375 48.632812 52.296875 47.222656 C 50.382812 45.191406 47 45.078125 44.859375 47.109375 Z M 49.875 53.878906 C 49.875 59.519531 49.875 59.519531 48.464844 59.519531 C 47.058594 59.519531 47.058594 59.464844 46.886719 54.5 C 46.71875 48.574219 46.886719 47.84375 48.578125 48.066406 C 49.820312 48.238281 49.875 48.460938 49.875 53.878906 Z M 49.875 53.878906 "/>
<path style=" stroke:none;fill-rule:nonzero;fill:rgb(0%,0%,0%);fill-opacity:1;" d="M 61.878906 53.425781 C 60.695312 54.894531 61.652344 56.136719 64.1875 56.417969 L 66.667969 56.699219 L 66.667969 83.214844 L 64.1875 83.214844 C 62.105469 83.214844 61.710938 83.386719 61.710938 84.34375 C 61.710938 85.304688 62.105469 85.472656 64.1875 85.472656 L 66.613281 85.472656 L 66.667969 98.730469 L 66.667969 111.988281 L 64.1875 112.269531 C 61.992188 112.496094 61.710938 112.722656 61.710938 113.964844 C 61.710938 115.203125 61.992188 115.429688 64.1875 115.65625 L 66.667969 115.9375 L 66.667969 129.195312 L 66.613281 142.453125 L 64.1875 142.453125 C 62.105469 142.453125 61.710938 142.625 61.710938 143.582031 C 61.710938 144.542969 62.105469 144.710938 64.1875 144.710938 L 66.613281 144.710938 L 66.667969 158.816406 L 66.667969 172.917969 L 64.1875 173.203125 C 61.992188 173.425781 61.710938 173.652344 61.710938 174.894531 C 61.710938 176.136719 61.992188 176.359375 64.1875 176.585938 L 66.667969 176.867188 L 66.667969 190.125 L 66.613281 203.386719 L 64.1875 203.386719 C 62.105469 203.386719 61.710938 203.554688 61.710938 204.511719 C 61.710938 205.472656 62.105469 205.640625 64.1875 205.640625 L 66.613281 205.640625 L 66.667969 218.898438 L 66.667969 232.15625 L 64.1875 232.441406 C 62.386719 232.664062 61.652344 233.003906 61.539062 233.792969 C 61.203125 235.375 62.328125 236.105469 64.867188 235.882812 L 67.175781 235.710938 L 67.007812 238.136719 C 66.839844 239.886719 67.0625 240.675781 67.796875 241.128906 C 69.488281 242.199219 70.726562 240.902344 70.5 238.195312 L 70.332031 235.824219 L 144.949219 235.824219 L 144.777344 238.195312 C 144.554688 240.902344 145.792969 242.199219 147.484375 241.128906 C 148.214844 240.675781 148.441406 239.886719 148.273438 238.195312 L 148.101562 235.824219 L 224.410156 235.824219 L 224.183594 238.136719 C 224.070312 239.886719 224.242188 240.621094 225.027344 241.128906 C 226.71875 242.199219 228.015625 240.902344 227.789062 238.136719 L 227.566406 235.824219 L 302.179688 235.824219 L 301.957031 238.136719 C 301.730469 240.902344 303.027344 242.199219 304.773438 241.128906 C 305.503906 240.621094 305.675781 239.886719 305.5625 238.136719 L 305.335938 235.824219 L 343.320312 235.9375 L 381.246094 236.105469 L 381.246094 238.644531 C 381.246094 240.789062 381.417969 241.183594 382.375 241.183594 C 383.503906 241.183594 383.503906 240.734375 383.671875 147.363281 C 383.785156 72.046875 383.671875 53.539062 383.109375 53.316406 C 382.714844 53.144531 310.410156 52.976562 222.4375 52.863281 C 98.398438 52.808594 62.328125 52.917969 61.878906 53.425781 Z M 380.964844 69.789062 L 380.964844 83.214844 L 369.242188 83.386719 C 362.820312 83.496094 350.757812 83.554688 342.363281 83.496094 C 334.023438 83.496094 269.4375 83.386719 198.9375 83.214844 L 70.726562 82.933594 L 70.558594 69.675781 L 70.445312 56.417969 L 380.964844 56.417969 Z M 325.738281 98.503906 C 325.90625 105.5 325.90625 111.480469 325.738281 111.761719 C 325.398438 112.269531 305.898438 112.328125 165.011719 112.269531 L 70.445312 112.269531 L 70.445312 99.125 C 70.445312 91.847656 70.558594 85.8125 70.671875 85.699219 C 70.78125 85.585938 128.210938 85.527344 198.203125 85.585938 L 325.457031 85.753906 Z M 380.964844 98.898438 L 380.964844 112.269531 L 370.425781 112.15625 C 362.367188 112.046875 359.832031 111.820312 359.890625 111.253906 C 359.945312 110.917969 360 104.992188 360.058594 98.222656 C 360.113281 86.996094 360.226562 85.8125 361.074219 85.640625 C 361.636719 85.527344 366.3125 85.472656 371.5 85.472656 L 380.964844 85.472656 Z M 357.296875 88.351562 C 358.085938 90.4375 358.085938 231.707031 357.242188 232.15625 C 356.902344 232.382812 356.507812 232.382812 356.28125 232.15625 C 356.058594 231.933594 355.832031 199.660156 355.773438 160.394531 L 355.71875 89.027344 L 342.53125 88.914062 C 330.527344 88.859375 329.402344 88.800781 329.230469 87.84375 C 329.0625 86.9375 330.019531 86.882812 342.925781 86.882812 L 356.734375 86.882812 Z M 349.800781 95.570312 L 351.378906 96.925781 L 351.546875 147.925781 C 351.773438 206.601562 351.324219 226.234375 349.800781 227.8125 C 349.011719 228.546875 347.601562 228.828125 342.757812 228.941406 C 335.9375 229.167969 333.851562 228.605469 333.0625 226.460938 C 332.726562 225.558594 332.332031 215.289062 332.160156 202.03125 C 331.992188 189.449219 331.597656 178.167969 331.371094 176.980469 C 331.089844 175.796875 331.148438 173.992188 331.429688 173.03125 C 332.050781 170.777344 332.105469 118.929688 331.429688 116.21875 C 331.148438 114.980469 331.261719 112.609375 331.710938 110.015625 C 332.105469 107.699219 332.445312 103.75 332.5 101.269531 C 332.5 94.328125 332.667969 94.21875 341.234375 94.21875 C 347.828125 94.21875 348.335938 94.273438 349.800781 95.570312 Z M 247.851562 128.96875 L 247.683594 142.285156 L 225.875 142.339844 L 204.066406 142.453125 L 203.894531 135.121094 L 203.726562 127.785156 L 186.988281 127.617188 C 173.800781 127.503906 170.195312 127.617188 170.082031 128.179688 C 170.082031 128.574219 169.96875 131.902344 169.96875 135.570312 L 169.914062 142.226562 L 146.242188 142.511719 C 120.546875 142.792969 96.875 142.792969 80.871094 142.566406 L 70.726562 142.398438 L 70.558594 129.027344 L 70.445312 115.65625 L 247.964844 115.65625 Z M 325.851562 116.050781 C 325.960938 116.332031 325.960938 122.3125 325.851562 129.476562 L 325.679688 142.453125 L 303.871094 142.339844 L 282.0625 142.285156 L 281.890625 128.96875 L 281.78125 115.65625 L 303.703125 115.65625 C 315.820312 115.65625 325.738281 115.824219 325.851562 116.050781 Z M 380.964844 129.027344 L 380.964844 142.453125 L 370.652344 142.398438 L 360.394531 142.339844 L 360.113281 129.421875 C 359.945312 122.3125 359.890625 116.332031 360 116.050781 C 360.113281 115.824219 364.847656 115.65625 370.597656 115.65625 L 380.964844 115.65625 Z M 251.402344 145.671875 C 251.460938 200.847656 251.292969 230.972656 250.898438 231.539062 C 250.332031 232.382812 249.882812 182.847656 250.109375 147.082031 C 250.21875 129.195312 250.503906 117.914062 250.839844 117.914062 C 251.121094 117.914062 251.347656 128.574219 251.402344 145.671875 Z M 279.636719 146.402344 C 279.917969 190.070312 279.582031 231.875 278.960938 231.875 C 278.625 231.875 278.398438 220.421875 278.285156 203.386719 C 278.003906 159.71875 278.34375 117.914062 278.960938 117.914062 C 279.300781 117.914062 279.527344 129.367188 279.636719 146.402344 Z M 272.648438 120.902344 C 273.4375 121.75 273.664062 123.609375 274.003906 133.316406 C 274.507812 148.546875 274.507812 199.832031 274.003906 214.894531 C 273.496094 229.789062 273.945312 229.054688 264.871094 229.054688 C 255.800781 229.054688 256.25 229.675781 255.742188 215.402344 C 255.292969 200.5625 255.292969 147.363281 255.742188 132.976562 C 256.25 119.097656 255.6875 119.886719 265.042969 119.945312 C 270.507812 119.945312 271.804688 120.113281 272.648438 120.902344 Z M 200.515625 131.847656 C 200.34375 132.808594 199.21875 132.863281 187.101562 132.917969 L 173.859375 132.976562 L 173.746094 182.511719 C 173.6875 209.703125 173.519531 232.15625 173.292969 232.328125 C 172 233.679688 171.828125 228.886719 172 182.117188 C 172.109375 141.269531 172.28125 132.582031 172.957031 131.847656 C 173.632812 131 175.324219 130.886719 187.214844 130.886719 C 199.78125 130.886719 200.683594 130.945312 200.515625 131.847656 Z M 194.144531 138.109375 C 195.273438 138.390625 196.175781 139.238281 196.851562 140.535156 C 197.753906 142.398438 197.808594 144.9375 197.867188 168.96875 C 197.867188 195.488281 197.472656 220.480469 196.90625 224.992188 C 196.625 227.082031 196.402344 227.476562 194.539062 228.265625 C 193.132812 228.828125 190.652344 229.113281 186.875 229.113281 C 178.703125 229.054688 179.042969 229.5625 178.59375 215.628906 C 177.914062 196.898438 178.027344 143.019531 178.703125 141.214844 C 179.832031 138.167969 180.394531 137.941406 186.652344 137.773438 C 189.863281 137.714844 193.246094 137.828125 194.144531 138.109375 Z M 90.5625 146.515625 C 90.621094 147.363281 90.789062 153.738281 90.847656 160.675781 L 91.015625 173.203125 L 70.445312 173.203125 L 70.445312 159.210938 C 70.445312 151.480469 70.558594 145.050781 70.671875 144.9375 C 70.78125 144.824219 75.292969 144.765625 80.703125 144.824219 L 90.453125 144.878906 Z M 170.082031 159.039062 L 170.195312 173.203125 L 147.878906 173.089844 L 125.503906 172.917969 L 125.617188 159.097656 C 125.671875 151.539062 125.957031 145.164062 126.238281 144.992188 C 126.460938 144.824219 136.4375 144.765625 148.328125 144.765625 L 169.914062 144.878906 Z M 247.851562 159.039062 L 247.964844 173.203125 L 226.042969 173.203125 C 212.011719 173.203125 204.007812 172.976562 203.894531 172.636719 C 203.839844 172.355469 203.78125 165.925781 203.894531 158.421875 L 204.066406 144.710938 L 225.875 144.824219 L 247.683594 144.878906 Z M 325.851562 158.421875 C 325.960938 165.925781 325.960938 172.355469 325.851562 172.636719 C 325.738281 172.976562 317.734375 173.203125 303.703125 173.203125 L 281.78125 173.203125 L 281.78125 159.210938 C 281.78125 151.480469 281.890625 145.050781 282.003906 144.9375 C 282.117188 144.824219 292.035156 144.710938 303.984375 144.710938 L 325.679688 144.710938 Z M 380.964844 158.984375 L 380.964844 173.203125 L 370.484375 173.089844 L 360 172.917969 L 360.058594 159.152344 C 360.113281 151.539062 360.285156 145.21875 360.394531 145.050781 C 360.453125 144.878906 365.1875 144.710938 370.765625 144.710938 L 380.964844 144.710938 Z M 122.574219 146.628906 C 123.308594 147.8125 120.828125 148.097656 108.878906 148.097656 L 96.3125 148.097656 L 96.199219 190.125 C 96.085938 229.621094 96.03125 232.15625 95.128906 232.328125 C 94.171875 232.496094 94.113281 230.183594 94.113281 189.902344 C 94.113281 149.957031 94.171875 147.25 95.128906 146.742188 C 96.367188 146.007812 122.125 145.894531 122.574219 146.628906 Z M 117.21875 153.90625 C 118.347656 154.867188 118.515625 155.65625 119.023438 163.949219 C 119.304688 168.859375 119.53125 173.824219 119.472656 174.894531 C 119.472656 175.964844 119.304688 186.742188 119.191406 198.871094 C 118.96875 222.453125 118.742188 226.347656 117.445312 227.589844 C 115.585938 229.449219 103.976562 229.5625 102.171875 227.757812 C 101.214844 226.796875 101.160156 224.429688 101.160156 191.03125 C 101.160156 156.671875 101.214844 155.203125 102.230469 154.074219 C 103.1875 153.003906 103.921875 152.890625 109.613281 152.890625 C 114.910156 152.890625 116.207031 153.0625 117.21875 153.90625 Z M 90.902344 189.902344 L 90.789062 203.273438 L 70.726562 203.273438 L 70.558594 189.957031 L 70.445312 176.585938 L 91.015625 176.585938 Z M 170.082031 189.902344 L 169.914062 203.214844 L 148.046875 203.214844 C 135.988281 203.214844 126.011719 203.101562 125.898438 202.933594 C 125.730469 202.765625 125.503906 179.292969 125.617188 176.980469 C 125.671875 176.757812 135.707031 176.585938 147.933594 176.585938 L 170.195312 176.585938 Z M 247.851562 189.902344 L 247.683594 203.214844 L 225.875 203.273438 L 204.066406 203.386719 L 203.894531 190.410156 C 203.78125 183.242188 203.78125 177.265625 203.894531 176.980469 C 204.007812 176.757812 213.925781 176.585938 226.042969 176.585938 L 247.964844 176.585938 Z M 325.851562 176.980469 C 325.960938 177.265625 325.960938 183.242188 325.851562 190.410156 L 325.679688 203.386719 L 303.871094 203.273438 L 282.0625 203.214844 L 281.890625 189.902344 L 281.78125 176.585938 L 303.703125 176.585938 C 315.820312 176.585938 325.738281 176.757812 325.851562 176.980469 Z M 380.964844 189.957031 L 380.964844 203.386719 L 370.652344 203.328125 L 360.394531 203.273438 L 360.113281 190.351562 C 359.945312 183.242188 359.890625 177.265625 360 176.980469 C 360.113281 176.757812 364.847656 176.585938 370.597656 176.585938 L 380.964844 176.585938 Z M 90.847656 218.957031 L 90.847656 232.15625 L 80.644531 232.328125 L 70.445312 232.441406 L 70.445312 219.292969 C 70.445312 212.015625 70.558594 205.980469 70.671875 205.867188 C 70.78125 205.753906 75.402344 205.640625 80.871094 205.699219 L 90.789062 205.753906 Z M 170.082031 219.125 L 170.195312 232.441406 L 125.730469 232.441406 L 125.5625 219.40625 C 125.449219 212.300781 125.5625 206.261719 125.785156 206.035156 C 126.011719 205.8125 136.042969 205.699219 148.046875 205.753906 L 169.914062 205.8125 Z M 247.851562 219.125 L 247.964844 232.441406 L 204.007812 232.441406 L 204.007812 205.640625 L 225.816406 205.753906 L 247.683594 205.8125 Z M 325.738281 219.011719 L 325.738281 232.441406 L 281.78125 232.441406 L 281.78125 219.292969 C 281.78125 212.015625 281.890625 205.980469 282.003906 205.867188 C 282.117188 205.753906 292.035156 205.640625 303.984375 205.640625 L 325.738281 205.640625 Z M 381.078125 218.503906 C 381.191406 225.558594 381.191406 231.59375 381.078125 231.875 C 380.742188 232.777344 360.113281 232.609375 360.113281 231.707031 C 360 227.757812 360.226562 206.261719 360.339844 205.980469 C 360.453125 205.8125 365.128906 205.640625 370.765625 205.640625 L 380.910156 205.640625 Z M 381.078125 218.503906 "/>
<path style=" stroke:none;fill-rule:nonzero;fill:rgb(0%,0%,0%);fill-opacity:1;" d="M 33.53125 78.308594 C 33.363281 78.476562 33.25 79.210938 33.25 79.886719 C 33.25 80.621094 32.855469 81.410156 32.347656 81.691406 C 31.785156 82.03125 31.390625 83.046875 31.332031 84.402344 C 31.277344 86.429688 31.390625 86.601562 32.855469 86.769531 C 33.871094 86.882812 34.714844 86.601562 35.167969 86.035156 C 35.5625 85.472656 36.347656 85.191406 36.96875 85.304688 C 37.871094 85.472656 38.039062 85.980469 38.039062 88.574219 C 38.039062 91.113281 37.871094 91.679688 37.027344 91.847656 C 36.40625 91.960938 35.449219 91.507812 34.882812 90.886719 C 33.589844 89.535156 31.671875 89.308594 31.222656 90.550781 C 30.65625 91.960938 33.8125 94.160156 36.40625 94.21875 C 39.84375 94.21875 41.703125 92.300781 41.703125 88.6875 C 41.703125 85.246094 40.125 83.496094 37.027344 83.496094 C 34.601562 83.496094 34.433594 83.046875 36.292969 81.242188 C 37.25 80.394531 38.152344 80.054688 39.109375 80.226562 C 40.914062 80.5625 41.984375 79.945312 41.535156 78.757812 C 41.253906 78.023438 40.40625 77.855469 37.53125 77.914062 C 35.503906 77.96875 33.699219 78.136719 33.53125 78.308594 Z M 33.53125 78.308594 "/>
<path style=" stroke:none;fill-rule:nonzero;fill:rgb(0%,0%,0%);fill-opacity:1;" d="M 44.859375 79.265625 C 43.449219 80.5625 43.394531 80.902344 43.394531 85.867188 C 43.394531 90.71875 43.507812 91.226562 44.804688 92.695312 C 46.832031 94.835938 50.269531 94.835938 52.242188 92.75 C 53.480469 91.394531 53.652344 90.777344 53.652344 86.035156 C 53.652344 81.296875 53.480469 80.675781 52.242188 79.324219 C 50.382812 77.347656 47 77.292969 44.859375 79.265625 Z M 49.875 86.035156 C 49.875 91.679688 49.875 91.679688 48.464844 91.679688 C 47.058594 91.679688 47.058594 91.621094 46.886719 86.65625 C 46.71875 80.734375 46.886719 80 48.578125 80.226562 C 49.820312 80.394531 49.875 80.621094 49.875 86.035156 Z M 49.875 86.035156 "/>
<path style=" stroke:none;fill-rule:nonzero;fill:rgb(0%,0%,0%);fill-opacity:1;" d="M 37.925781 109.789062 C 37.195312 110.578125 36.632812 111.707031 36.632812 112.269531 C 36.632812 112.890625 36.125 113.625 35.503906 113.964844 C 34.714844 114.414062 34.433594 114.921875 34.660156 115.65625 C 34.882812 116.390625 34.601562 116.898438 33.8125 117.347656 C 32.574219 118.023438 32.292969 119.832031 33.417969 120.5625 C 33.757812 120.789062 34.996094 121.015625 36.066406 121.015625 C 37.816406 121.015625 38.039062 121.183594 38.320312 122.707031 C 38.546875 124.0625 38.886719 124.402344 40.011719 124.402344 C 41.082031 124.402344 41.476562 124.0625 41.589844 122.988281 C 41.703125 122.199219 42.210938 121.242188 42.660156 120.902344 C 43.507812 120.226562 43.507812 120.113281 42.660156 119.152344 C 41.984375 118.421875 41.703125 116.839844 41.589844 113.398438 C 41.421875 109.113281 41.308594 108.605469 40.292969 108.433594 C 39.675781 108.378906 38.605469 108.941406 37.925781 109.789062 Z M 38.320312 116.503906 C 38.320312 118.816406 38.210938 119.039062 36.96875 119.039062 C 35.222656 119.039062 34.714844 118.25 35.785156 117.347656 C 36.238281 116.953125 36.632812 116.050781 36.632812 115.316406 C 36.632812 114.472656 36.96875 113.964844 37.476562 113.964844 C 38.097656 113.964844 38.320312 114.640625 38.320312 116.503906 Z M 38.320312 116.503906 "/>
<path style=" stroke:none;fill-rule:nonzero;fill:rgb(0%,0%,0%);fill-opacity:1;" d="M 46.550781 109.730469 C 45.140625 111.03125 45.085938 111.367188 45.085938 116.503906 C 45.085938 121.636719 45.140625 121.976562 46.550781 123.273438 C 48.691406 125.304688 52.074219 125.191406 53.988281 123.160156 C 55.285156 121.75 55.339844 121.296875 55.285156 116.390625 C 55.171875 111.761719 55.003906 110.972656 53.875 109.730469 C 52.074219 107.8125 48.636719 107.757812 46.550781 109.730469 Z M 51.566406 116.503906 C 51.566406 122.144531 51.566406 122.144531 50.15625 122.144531 C 48.746094 122.144531 48.746094 122.085938 48.578125 117.121094 C 48.410156 111.199219 48.578125 110.464844 50.269531 110.691406 C 51.507812 110.859375 51.566406 111.085938 51.566406 116.503906 Z M 51.566406 116.503906 "/>
<path style=" stroke:none;fill-rule:nonzero;fill:rgb(0%,0%,0%);fill-opacity:1;" d="M 34.207031 138.5625 C 32.40625 140.085938 32.515625 141.609375 34.320312 141.609375 C 34.941406 141.609375 35.957031 141.101562 36.574219 140.421875 C 37.984375 138.898438 39.730469 139.183594 39.730469 141.042969 C 39.730469 142.003906 39.394531 142.511719 38.605469 142.625 C 36.292969 143.019531 35.84375 143.300781 36.574219 144.035156 C 36.914062 144.371094 37.757812 144.710938 38.492188 144.710938 C 39.617188 144.710938 39.730469 144.992188 39.730469 147.8125 C 39.730469 150.578125 39.617188 150.917969 38.492188 151.085938 C 37.703125 151.199219 37.027344 150.859375 36.632812 150.125 C 35.898438 148.773438 33.363281 148.546875 32.910156 149.789062 C 32.347656 151.199219 35.503906 153.398438 38.097656 153.457031 C 41.589844 153.457031 43.394531 151.539062 43.394531 147.8125 C 43.394531 145.78125 43.167969 144.878906 42.546875 144.65625 C 42.097656 144.429688 41.703125 143.976562 41.703125 143.582031 C 41.703125 143.1875 42.097656 142.734375 42.546875 142.511719 C 43.84375 142.003906 43.5625 140.027344 41.929688 138.503906 C 39.84375 136.585938 36.40625 136.585938 34.207031 138.5625 Z M 34.207031 138.5625 "/>
<path style=" stroke:none;fill-rule:nonzero;fill:rgb(0%,0%,0%);fill-opacity:1;" d="M 46.492188 138.617188 C 45.199219 140.085938 45.085938 140.59375 45.085938 145.273438 C 45.085938 149.957031 45.199219 150.464844 46.492188 151.933594 C 48.523438 154.074219 51.960938 154.074219 53.988281 151.933594 C 55.285156 150.523438 55.339844 150.070312 55.285156 145.164062 C 55.171875 140.535156 55.003906 139.746094 53.875 138.503906 C 51.960938 136.472656 48.464844 136.53125 46.492188 138.617188 Z M 51.566406 145.273438 C 51.566406 150.917969 51.566406 150.917969 50.15625 150.917969 C 48.746094 150.917969 48.746094 150.859375 48.578125 145.894531 C 48.410156 139.972656 48.578125 139.238281 50.269531 139.464844 C 51.507812 139.632812 51.566406 139.859375 51.566406 145.273438 Z M 51.566406 145.273438 "/>
<path style=" stroke:none;fill-rule:nonzero;fill:rgb(0%,0%,0%);fill-opacity:1;" d="M 32.515625 169.027344 C 31.558594 169.816406 30.996094 170.777344 31.222656 171.226562 C 31.671875 172.46875 34.207031 172.242188 34.941406 170.886719 C 35.957031 169.027344 37.984375 169.703125 38.210938 172.015625 C 38.378906 173.710938 37.984375 174.273438 34.714844 177.433594 C 29.304688 182.625 29.757812 183.863281 36.914062 183.75 C 41.027344 183.640625 41.421875 183.527344 41.421875 182.511719 C 41.421875 181.496094 41.082031 181.382812 38.546875 181.550781 C 36.914062 181.664062 35.503906 181.550781 35.335938 181.269531 C 35.167969 180.988281 36.519531 179.292969 38.378906 177.433594 C 41.140625 174.667969 41.703125 173.765625 41.703125 172.242188 C 41.703125 167.953125 35.957031 165.925781 32.515625 169.027344 Z M 32.515625 169.027344 "/>
<path style=" stroke:none;fill-rule:nonzero;fill:rgb(0%,0%,0%);fill-opacity:1;" d="M 44.859375 168.96875 C 43.449219 170.269531 43.394531 170.605469 43.394531 175.742188 C 43.394531 180.875 43.449219 181.214844 44.859375 182.511719 C 47 184.484375 50.382812 184.429688 52.242188 182.453125 C 53.480469 181.101562 53.652344 180.480469 53.652344 175.742188 C 53.652344 171 53.480469 170.378906 52.242188 169.027344 C 50.382812 167.050781 47 166.996094 44.859375 168.96875 Z M 49.875 175.742188 C 49.875 181.382812 49.875 181.382812 48.464844 181.382812 C 47.058594 181.382812 47.058594 181.324219 46.886719 176.359375 C 46.71875 170.4375 46.886719 169.703125 48.578125 169.929688 C 49.820312 170.097656 49.875 170.324219 49.875 175.742188 Z M 49.875 175.742188 "/>
<path style=" stroke:none;fill-rule:nonzero;fill:rgb(0%,0%,0%);fill-opacity:1;" d="M 35.109375 198.871094 C 32.515625 201.578125 31.953125 203.667969 33.757812 203.667969 C 34.320312 203.667969 34.941406 203.273438 35.167969 202.820312 C 35.335938 202.371094 35.730469 201.976562 36.125 201.976562 C 36.519531 201.976562 36.6875 203.554688 36.574219 206.882812 C 36.40625 210.832031 36.574219 211.847656 37.25 212.300781 C 37.757812 212.636719 38.605469 212.695312 39.109375 212.523438 C 39.957031 212.1875 40.011719 211.226562 39.898438 204.402344 C 39.730469 197.066406 39.675781 196.613281 38.605469 196.503906 C 37.925781 196.445312 36.574219 197.347656 35.109375 198.871094 Z M 35.109375 198.871094 "/>
<path style=" stroke:none;fill-rule:nonzero;fill:rgb(0%,0%,0%);fill-opacity:1;" d="M 44.859375 197.742188 C 43.449219 199.039062 43.394531 199.378906 43.394531 204.511719 C 43.394531 209.648438 43.449219 209.984375 44.859375 211.285156 C 47 213.257812 50.382812 213.203125 52.242188 211.226562 C 53.480469 209.875 53.652344 209.253906 53.652344 204.511719 C 53.652344 199.773438 53.480469 199.152344 52.242188 197.800781 C 50.382812 195.824219 47 195.769531 44.859375 197.742188 Z M 49.875 204.511719 C 49.875 210.15625 49.875 210.15625 48.464844 210.15625 C 47.058594 210.15625 47.058594 210.097656 46.886719 205.132812 C 46.71875 199.210938 46.886719 198.476562 48.578125 198.703125 C 49.820312 198.871094 49.875 199.097656 49.875 204.511719 Z M 49.875 204.511719 "/>
<path style=" stroke:none;fill-rule:nonzero;fill:rgb(0%,0%,0%);fill-opacity:1;" d="M 44.578125 226.628906 C 43.394531 228.039062 43.28125 228.714844 43.28125 233.285156 C 43.28125 237.96875 43.394531 238.589844 44.632812 239.945312 C 46.664062 242.085938 50.269531 242.085938 52.296875 239.945312 C 53.59375 238.53125 53.707031 238.023438 53.652344 233.230469 C 53.59375 228.546875 53.480469 227.925781 52.242188 226.574219 C 50.269531 224.484375 46.492188 224.484375 44.578125 226.628906 Z M 49.875 233.285156 C 49.875 238.929688 49.875 238.929688 48.464844 238.929688 C 47.058594 238.929688 47.058594 238.871094 46.886719 233.90625 C 46.71875 227.984375 46.886719 227.25 48.578125 227.476562 C 49.820312 227.644531 49.875 227.871094 49.875 233.285156 Z M 49.875 233.285156 "/>
<path style=" stroke:none;fill-rule:nonzero;fill:rgb(0%,0%,0%);fill-opacity:1;" d="M 109.667969 250.886719 C 109.5 251.113281 109.332031 251.847656 109.332031 252.582031 C 109.332031 253.316406 108.9375 254.046875 108.484375 254.21875 C 107.867188 254.441406 107.640625 255.402344 107.640625 257.488281 C 107.640625 259.578125 107.359375 260.648438 106.625 261.269531 C 105.386719 262.339844 105.328125 265.671875 106.570312 266.460938 C 108.035156 267.363281 109.332031 266.515625 109.332031 264.597656 C 109.332031 262.960938 109.441406 262.90625 111.867188 262.90625 C 114.289062 262.90625 114.402344 262.960938 114.402344 264.597656 C 114.402344 266.515625 115.699219 267.363281 117.164062 266.460938 C 118.402344 265.671875 118.347656 262.339844 117.109375 261.269531 C 116.375 260.648438 116.09375 259.578125 116.09375 257.488281 C 116.09375 255.457031 115.867188 254.441406 115.304688 254.273438 C 114.851562 254.105469 114.402344 253.257812 114.289062 252.355469 C 114.121094 251 113.839844 250.777344 112.09375 250.664062 C 110.964844 250.605469 109.894531 250.71875 109.667969 250.886719 Z M 112.710938 257.828125 C 112.710938 260.480469 112.542969 261.214844 111.867188 261.214844 C 111.191406 261.214844 111.019531 260.480469 111.019531 257.828125 C 111.019531 255.175781 111.191406 254.441406 111.867188 254.441406 C 112.542969 254.441406 112.710938 255.175781 112.710938 257.828125 Z M 112.710938 257.828125 "/>
<path style=" stroke:none;fill-rule:nonzero;fill:rgb(0%,0%,0%);fill-opacity:1;" d="M 180.507812 251.226562 C 180.339844 251.507812 180.226562 254.835938 180.226562 258.675781 C 180.226562 262.511719 180.339844 265.839844 180.507812 266.121094 C 180.675781 266.347656 182.707031 266.628906 185.074219 266.742188 C 189.128906 266.910156 189.46875 266.796875 190.992188 265.332031 C 192.285156 264.035156 192.511719 263.355469 192.285156 261.609375 C 192.117188 260.308594 191.777344 259.519531 191.273438 259.519531 C 190.820312 259.519531 190.484375 259.125 190.484375 258.675781 C 190.484375 258.222656 190.820312 257.828125 191.273438 257.828125 C 191.777344 257.828125 192.117188 257.039062 192.285156 255.742188 C 192.511719 253.992188 192.285156 253.316406 190.992188 252.015625 C 189.46875 250.550781 189.128906 250.4375 185.074219 250.605469 C 182.707031 250.71875 180.675781 251 180.507812 251.226562 Z M 188.511719 255.289062 C 188.511719 257.546875 188.511719 257.546875 186.257812 257.546875 C 184.226562 257.546875 184.003906 257.433594 183.832031 255.964844 C 183.496094 253.316406 184.058594 252.636719 186.367188 252.863281 C 188.453125 253.03125 188.511719 253.089844 188.511719 255.289062 Z M 188.511719 262.058594 C 188.511719 264.316406 188.511719 264.316406 186.257812 264.316406 C 184.226562 264.316406 184.003906 264.203125 183.832031 262.734375 C 183.496094 260.085938 184.058594 259.40625 186.367188 259.632812 C 188.453125 259.800781 188.511719 259.859375 188.511719 262.058594 Z M 188.511719 262.058594 "/>
<path style=" stroke:none;fill-rule:nonzero;fill:rgb(0%,0%,0%);fill-opacity:1;" d="M 261.828125 252.917969 C 259.746094 255.121094 259.632812 255.515625 259.632812 258.675781 C 259.632812 261.890625 259.746094 262.171875 261.941406 264.429688 C 263.914062 266.574219 264.535156 266.855469 266.675781 266.855469 C 269.382812 266.796875 272.539062 264.65625 271.972656 263.1875 C 271.578125 262.117188 268.875 262.117188 268.480469 263.1875 C 267.917969 264.65625 266.054688 264.765625 264.589844 263.355469 C 263.40625 262.285156 263.183594 261.550781 263.183594 258.675781 C 263.183594 255.796875 263.40625 255.0625 264.589844 253.992188 C 266.054688 252.582031 267.917969 252.695312 268.480469 254.160156 C 268.875 255.234375 271.578125 255.234375 271.972656 254.160156 C 272.199219 253.710938 271.636719 252.75 270.675781 251.960938 C 269.492188 250.886719 268.480469 250.550781 266.5625 250.550781 C 264.308594 250.550781 263.800781 250.832031 261.828125 252.917969 Z M 261.828125 252.917969 "/>
<path style=" stroke:none;fill-rule:nonzero;fill:rgb(0%,0%,0%);fill-opacity:1;" d="M 339.433594 251.226562 C 339.039062 251.902344 339.09375 265.726562 339.488281 266.175781 C 339.714844 266.347656 341.402344 266.574219 343.265625 266.683594 C 346.589844 266.910156 346.644531 266.855469 348.957031 264.484375 C 351.152344 262.171875 351.265625 261.890625 351.265625 258.675781 C 351.265625 255.457031 351.152344 255.175781 348.957031 252.863281 C 346.703125 250.492188 346.589844 250.492188 343.207031 250.605469 C 341.292969 250.71875 339.601562 251 339.433594 251.226562 Z M 346.363281 253.992188 C 347.492188 255.0625 347.714844 255.851562 347.714844 258.675781 C 347.714844 261.550781 347.492188 262.285156 346.308594 263.355469 C 345.574219 264.089844 344.503906 264.597656 343.941406 264.484375 C 343.09375 264.316406 342.925781 263.582031 342.757812 259.292969 C 342.644531 256.53125 342.699219 253.933594 342.871094 253.484375 C 343.320312 252.355469 344.84375 252.582031 346.363281 253.992188 Z M 346.363281 253.992188 "/>
<path style=" stroke:none;fill-rule:nonzero;fill:rgb(0%,0%,0%);fill-opacity:1;" d="M 195.160156 295.402344 C 194.710938 296.585938 195.554688 297.375 197.132812 297.207031 L 198.65625 297.039062 L 198.824219 303.640625 L 198.992188 310.296875 L 202.261719 310.296875 L 202.429688 303.640625 L 202.597656 297.039062 L 204.007812 297.039062 C 205.023438 297.039062 205.417969 296.699219 205.417969 295.910156 C 205.417969 294.894531 205.023438 294.78125 200.457031 294.726562 C 196.792969 294.667969 195.386719 294.835938 195.160156 295.402344 Z M 195.160156 295.402344 "/>
<path style=" stroke:none;fill-rule:nonzero;fill:rgb(0%,0%,0%);fill-opacity:1;" d="M 207.785156 294.835938 C 206.714844 295.910156 207.445312 296.8125 209.25 296.644531 C 211.449219 296.417969 211.785156 294.835938 209.644531 294.613281 C 208.855469 294.5 208.007812 294.613281 207.785156 294.835938 Z M 207.785156 294.835938 "/>
<path style=" stroke:none;fill-rule:nonzero;fill:rgb(0%,0%,0%);fill-opacity:1;" d="M 217.871094 298.277344 C 217.195312 298.957031 217.535156 300.140625 218.378906 300.140625 C 219.054688 300.140625 219.222656 301.101562 219.222656 305.21875 L 219.222656 310.296875 L 222.605469 310.296875 L 222.605469 306.515625 C 222.605469 303.863281 222.886719 302.453125 223.507812 301.777344 C 224.296875 300.875 224.296875 300.707031 223.28125 299.691406 C 222.210938 298.617188 218.492188 297.660156 217.871094 298.277344 Z M 217.871094 298.277344 "/>
<path style=" stroke:none;fill-rule:nonzero;fill:rgb(0%,0%,0%);fill-opacity:1;" d="M 224.464844 298.785156 C 224.242188 299.351562 224.464844 299.914062 225.027344 300.253906 C 225.816406 300.648438 225.988281 301.664062 225.988281 305.5 L 225.988281 310.296875 L 229.367188 310.296875 L 229.367188 305.613281 C 229.367188 301.4375 229.257812 300.816406 227.960938 299.40625 C 226.324219 297.660156 224.972656 297.433594 224.464844 298.785156 Z M 224.464844 298.785156 "/>
<path style=" stroke:none;fill-rule:nonzero;fill:rgb(0%,0%,0%);fill-opacity:1;" d="M 232.46875 299.40625 C 231.285156 300.761719 231.058594 301.496094 231.058594 304.371094 C 231.117188 309 232.1875 310.296875 236.074219 310.296875 C 238.894531 310.296875 241.203125 309 241.203125 307.476562 C 241.203125 306.574219 238.609375 306.796875 237.820312 307.757812 C 236.636719 309.167969 234.777344 308.605469 234.554688 306.796875 C 234.382812 305.332031 234.441406 305.273438 237.652344 305.105469 L 240.921875 304.9375 L 241.089844 302.847656 C 241.484375 298.390625 235.625 296.078125 232.46875 299.40625 Z M 237.710938 301.945312 C 237.878906 303.355469 237.710938 303.527344 236.1875 303.527344 C 234.722656 303.527344 234.441406 303.300781 234.441406 302.226562 C 234.441406 300.535156 234.949219 300.027344 236.414062 300.253906 C 237.144531 300.367188 237.597656 300.929688 237.710938 301.945312 Z M 237.710938 301.945312 "/>
<path style=" stroke:none;fill-rule:nonzero;fill:rgb(0%,0%,0%);fill-opacity:1;" d="M 244.359375 299.292969 C 243.570312 300.027344 242.894531 301.101562 242.894531 301.722656 C 242.894531 302.90625 245.09375 305.21875 246.332031 305.21875 C 247.347656 305.273438 249.65625 307.191406 249.65625 307.984375 C 249.65625 308.886719 247.0625 308.714844 246.277344 307.757812 C 245.488281 306.796875 242.894531 306.574219 242.894531 307.476562 C 242.894531 309 245.203125 310.296875 247.964844 310.296875 C 250.332031 310.296875 251.066406 310.015625 252.191406 308.828125 C 252.980469 307.984375 253.601562 307.082031 253.601562 306.855469 C 253.601562 306.121094 250.558594 303.527344 249.65625 303.527344 C 248.417969 303.46875 246.105469 301.382812 246.558594 300.707031 C 247.0625 299.914062 248.867188 300.027344 249.601562 300.929688 C 250.445312 301.945312 252.136719 302.398438 253.09375 301.777344 C 253.714844 301.4375 253.488281 300.929688 252.191406 299.578125 C 250.050781 297.320312 246.613281 297.207031 244.359375 299.292969 Z M 244.359375 299.292969 "/>
<path style=" stroke:none;fill-rule:nonzero;fill:rgb(0%,0%,0%);fill-opacity:1;" d="M 207.390625 304.371094 L 207.390625 310.296875 L 210.769531 310.296875 L 210.769531 298.449219 L 207.390625 298.449219 Z M 207.390625 304.371094 "/>
<path style=" stroke:none;fill-rule:nonzero;fill:rgb(0%,0%,0%);fill-opacity:1;" d="M 212.460938 304.371094 L 212.460938 310.296875 L 215.84375 310.296875 L 215.84375 306.515625 C 215.84375 303.863281 216.125 302.453125 216.746094 301.777344 C 217.535156 300.875 217.535156 300.707031 216.464844 299.632812 C 215.785156 298.957031 214.660156 298.449219 213.871094 298.449219 L 212.460938 298.449219 Z M 212.460938 304.371094 "/>
<path style=" stroke:none;fill-rule:nonzero;fill:rgb(0%,0%,0%);fill-opacity:1;" d="M 106.707031 152.5 C 104.199219 152.386719 100.851562 153.0625 101.355469 156.332031 C 100.488281 179.011719 100.527344 201.855469 100.972656 224.570312 C 100.894531 227.957031 104.144531 229.828125 107.277344 229.335938 C 111.09375 229.15625 117.691406 230.496094 118.574219 225.226562 C 120.160156 209.601562 119.8125 193.773438 119.910156 178.0625 C 119.5 170.078125 120.261719 161.636719 117.898438 154.003906 C 114.996094 151.769531 110.148438 152.734375 106.707031 152.5 Z M 106.707031 152.5 "/>
<path style=" stroke:none;fill-rule:nonzero;fill:rgb(0%,0%,0%);fill-opacity:1;" d="M 182.675781 137.335938 C 177.617188 137.738281 178.28125 144.386719 177.914062 147.988281 C 177.726562 172.875 177.765625 197.792969 178.46875 222.664062 C 178.222656 225.960938 180.195312 230.304688 184.222656 229.527344 C 188.203125 228.867188 193.621094 230.539062 196.535156 227.050781 C 198.570312 218.234375 197.578125 208.855469 198.199219 199.8125 C 198.394531 180.164062 199.121094 160.40625 197.464844 140.828125 C 195.136719 135.523438 187.050781 138.035156 182.675781 137.335938 Z M 182.675781 137.335938 "/>
<path style=" stroke:none;fill-rule:nonzero;fill:rgb(0%,0%,0%);fill-opacity:1;" d="M 266.433594 119.246094 C 262.753906 119.292969 256.84375 118.53125 256.046875 123.460938 C 254.230469 139.382812 255.390625 155.527344 255.03125 171.539062 C 255.394531 189.542969 254.605469 207.652344 256.003906 225.585938 C 256.78125 230.429688 262.601562 229.527344 266.179688 229.546875 C 269.355469 230.1875 273.320312 229.007812 273.542969 225.226562 C 275.191406 208.886719 274.585938 192.347656 274.933594 175.921875 C 274.683594 158.605469 275.109375 141.195312 273.625 123.949219 C 273.523438 120.589844 270.339844 118.492188 267.109375 119.238281 Z M 266.433594 119.246094 "/>
<path style=" stroke:none;fill-rule:nonzero;fill:rgb(0%,0%,0%);fill-opacity:1;" d="M 340.625 93.644531 C 337.851562 94.019531 332.609375 93.039062 332.460938 97.160156 C 330.613281 112.335938 331.691406 127.738281 331.277344 143.011719 C 331.542969 170.273438 330.757812 197.621094 332.546875 224.824219 C 332.640625 229.183594 337.582031 230.0625 341.027344 229.460938 C 343.992188 228.921875 348.257812 230.039062 350.359375 227.492188 C 352.527344 214.054688 351.625 200.238281 352.085938 186.640625 C 352.289062 156.800781 352.207031 126.957031 352.242188 97.117188 C 349.574219 93.496094 344.726562 93.382812 340.625 93.644531 Z M 340.625 93.644531 "/>
</g>
</svg>
