<?xml version="1.0" encoding="UTF-8"?>
<svg xmlns="http://www.w3.org/2000/svg" xmlns:xlink="http://www.w3.org/1999/xlink" width="399pt" height="359pt" viewBox="0 0 399 359" version="1.1">
<g id="surface1">
<path style=" stroke:none;fill-rule:nonzero;fill:rgb(0%,0%,0%);fill-opacity:1;" d="M 141.105469 20.5 C 140.710938 20.960938 136.253906 29.761719 131.144531 40.078125 C 125.964844 50.394531 121.117188 59.988281 120.261719 61.433594 C 119.410156 62.878906 118.691406 64.585938 118.625 65.175781 C 118.625 65.835938 118.363281 66.359375 117.96875 66.359375 C 117.640625 66.359375 117.117188 67.148438 116.921875 68.132812 C 116.660156 69.121094 116.070312 70.367188 115.542969 70.828125 C 115.085938 71.289062 114.691406 72.273438 114.691406 72.996094 C 114.691406 73.652344 114.429688 74.246094 114.039062 74.246094 C 113.710938 74.246094 113.183594 75.03125 112.988281 76.019531 C 112.726562 77.070312 112.332031 77.988281 112.070312 78.1875 C 111.808594 78.382812 109.054688 83.769531 105.84375 90.210938 C 102.699219 96.648438 99.816406 102.035156 99.488281 102.234375 C 99.226562 102.429688 98.964844 103.085938 98.964844 103.746094 C 98.964844 104.402344 98.503906 105.320312 97.980469 105.78125 C 97.457031 106.242188 96.996094 107.09375 96.996094 107.753906 C 96.996094 108.410156 96.539062 109.265625 96.015625 109.722656 C 95.488281 110.183594 95.03125 111.039062 95.03125 111.695312 C 95.03125 112.351562 94.574219 113.207031 94.046875 113.664062 C 93.523438 114.125 93.066406 114.980469 93.066406 115.636719 C 93.066406 116.292969 92.605469 117.148438 92.082031 117.609375 C 91.558594 118.066406 91.097656 118.921875 91.097656 119.578125 C 91.097656 120.234375 90.640625 121.089844 90.117188 121.550781 C 89.589844 122.011719 89.132812 122.863281 89.132812 123.519531 C 89.132812 124.179688 88.675781 125.03125 88.148438 125.492188 C 87.625 125.953125 87.167969 126.804688 87.167969 127.464844 C 87.167969 128.121094 86.707031 128.972656 86.183594 129.433594 C 85.660156 129.894531 85.199219 130.8125 85.199219 131.472656 C 85.199219 132.195312 84.9375 132.71875 84.546875 132.71875 C 84.21875 132.71875 83.691406 133.507812 83.496094 134.492188 C 83.234375 135.542969 82.839844 136.464844 82.578125 136.660156 C 82.316406 136.859375 78.253906 144.808594 73.46875 154.402344 C 64.425781 172.535156 63.964844 173.390625 62.917969 175.230469 C 62.523438 175.886719 62.066406 176.871094 61.867188 177.398438 C 61.671875 177.921875 60.949219 179.433594 60.230469 180.683594 C 59.507812 181.929688 55.445312 190.078125 51.054688 198.75 C 46.730469 207.421875 42.929688 214.980469 42.601562 215.503906 C 42.339844 216.03125 41.355469 217.9375 40.4375 219.777344 C 39.519531 221.550781 34.800781 230.945312 29.953125 240.605469 L 21.101562 258.210938 L 22.808594 259.394531 C 23.789062 260.117188 34.539062 265.636719 46.792969 271.679688 C 67.832031 282.195312 69.011719 282.71875 69.863281 281.535156 C 70.386719 280.878906 70.78125 279.761719 70.78125 279.105469 C 70.78125 278.449219 71.042969 277.921875 71.4375 277.921875 C 71.765625 277.921875 72.222656 277.199219 72.484375 276.28125 C 72.683594 275.425781 73.273438 274.375 73.796875 273.914062 C 74.320312 273.519531 74.714844 272.667969 74.714844 272.007812 C 74.714844 271.351562 75.171875 270.5 75.699219 270.039062 C 76.222656 269.578125 76.679688 268.722656 76.679688 268.066406 C 76.679688 267.410156 77.140625 266.554688 77.664062 266.097656 C 78.1875 265.636719 78.648438 264.78125 78.648438 264.125 C 78.648438 263.46875 79.105469 262.613281 79.628906 262.152344 C 80.152344 261.695312 80.613281 260.839844 80.613281 260.183594 C 80.613281 259.527344 81.070312 258.671875 81.597656 258.210938 C 82.121094 257.753906 82.578125 256.898438 82.578125 256.242188 C 82.578125 255.582031 83.039062 254.730469 83.5625 254.269531 C 84.085938 253.808594 84.546875 252.957031 84.546875 252.296875 C 84.546875 251.640625 85.003906 250.789062 85.527344 250.328125 C 86.050781 249.867188 86.511719 248.949219 86.511719 248.289062 C 86.511719 247.566406 86.773438 247.042969 87.167969 247.042969 C 87.496094 247.042969 88.019531 246.253906 88.214844 245.269531 C 88.476562 244.28125 89.066406 243.035156 89.589844 242.574219 C 90.050781 242.113281 90.445312 241.128906 90.445312 240.472656 C 90.445312 239.816406 90.707031 239.15625 90.96875 239.027344 C 91.296875 238.894531 94.574219 232.652344 98.308594 225.164062 C 102.042969 217.671875 105.320312 211.367188 105.648438 211.167969 C 105.910156 210.972656 106.171875 210.316406 106.171875 209.65625 C 106.171875 209 106.632812 208.082031 107.15625 207.621094 C 107.679688 207.160156 108.140625 206.242188 108.140625 205.648438 C 108.140625 204.992188 108.402344 204.335938 108.664062 204.203125 C 109.1875 204.007812 114.824219 192.773438 120 181.667969 C 121.179688 179.105469 122.296875 176.9375 122.492188 176.742188 C 123.082031 176.28125 126.292969 169.972656 136.78125 149.144531 C 141.957031 138.828125 146.480469 130.15625 146.808594 129.828125 C 147.199219 129.433594 147.460938 128.644531 147.460938 128.054688 C 147.460938 127.464844 147.921875 126.609375 148.445312 126.148438 C 148.96875 125.6875 149.429688 124.835938 149.429688 124.179688 C 149.429688 123.519531 149.886719 122.667969 150.410156 122.207031 C 150.9375 121.746094 151.394531 120.894531 151.394531 120.234375 C 151.394531 119.578125 151.851562 118.726562 152.378906 118.265625 C 152.902344 117.804688 153.359375 116.949219 153.359375 116.292969 C 153.359375 115.636719 153.820312 114.78125 154.34375 114.324219 C 154.867188 113.863281 155.328125 113.007812 155.328125 112.351562 C 155.328125 111.695312 155.785156 110.839844 156.308594 110.378906 C 156.835938 109.921875 157.292969 109.066406 157.292969 108.410156 C 157.292969 107.753906 157.75 106.898438 158.277344 106.4375 C 158.800781 105.980469 159.257812 105.058594 159.257812 104.402344 C 159.257812 103.679688 159.519531 103.152344 159.914062 103.152344 C 160.242188 103.152344 160.765625 102.363281 160.964844 101.3125 C 161.226562 100.328125 161.617188 99.410156 161.878906 99.210938 C 162.144531 99.015625 165.746094 91.917969 170.007812 83.441406 C 174.265625 74.96875 177.9375 67.542969 178.265625 67.015625 C 178.527344 66.492188 179.3125 64.847656 179.96875 63.402344 C 180.691406 61.957031 181.410156 60.644531 181.609375 60.445312 C 182.527344 59.59375 189.40625 45.007812 189.210938 44.414062 C 189.015625 43.957031 187.769531 43.101562 186.390625 42.378906 C 184.949219 41.65625 183.707031 40.867188 183.507812 40.671875 C 183.3125 40.472656 176.167969 36.792969 167.582031 32.523438 C 158.996094 28.253906 151.851562 24.507812 151.65625 24.179688 C 151.460938 23.914062 150.804688 23.652344 150.148438 23.652344 C 149.492188 23.652344 148.578125 23.191406 148.117188 22.667969 C 147.660156 22.140625 146.871094 21.683594 146.347656 21.683594 C 145.824219 21.683594 144.972656 21.222656 144.449219 20.695312 C 143.203125 19.515625 141.957031 19.449219 141.105469 20.5 Z M 147.527344 26.019531 C 148.050781 26.542969 149.035156 26.9375 149.558594 26.9375 C 150.148438 26.9375 150.9375 27.398438 151.394531 27.921875 C 151.851562 28.449219 152.640625 28.910156 153.164062 28.910156 C 153.6875 28.910156 154.539062 29.371094 155.066406 29.894531 C 155.65625 30.421875 156.636719 30.878906 157.359375 30.878906 C 158.015625 30.878906 158.605469 31.078125 158.605469 31.339844 C 158.605469 31.667969 164.632812 34.824219 172.039062 38.4375 C 181.410156 43.035156 185.410156 45.335938 185.476562 46.125 C 185.476562 46.714844 185.210938 47.304688 184.949219 47.4375 C 184.621094 47.503906 182.65625 51.050781 180.625 55.191406 C 176.496094 63.46875 176.234375 63.996094 174.921875 66.359375 C 174.464844 67.28125 169.8125 76.414062 164.632812 86.726562 C 159.519531 97.042969 155 105.714844 154.671875 106.042969 C 154.277344 106.4375 154.015625 107.226562 154.015625 107.816406 C 154.015625 108.410156 153.558594 109.265625 153.03125 109.722656 C 152.507812 110.183594 152.050781 111.039062 152.050781 111.695312 C 152.050781 112.351562 151.589844 113.207031 151.066406 113.664062 C 150.542969 114.125 150.082031 114.980469 150.082031 115.636719 C 150.082031 116.292969 149.625 117.148438 149.101562 117.609375 C 148.578125 118.066406 148.117188 118.921875 148.117188 119.578125 C 148.117188 120.234375 147.660156 121.089844 147.132812 121.550781 C 146.609375 122.011719 146.152344 122.863281 146.152344 123.519531 C 146.152344 124.179688 145.691406 125.03125 145.167969 125.492188 C 144.644531 125.953125 144.183594 126.804688 144.183594 127.464844 C 144.183594 128.121094 143.726562 128.972656 143.203125 129.433594 C 142.679688 129.894531 142.21875 130.8125 142.21875 131.472656 C 142.21875 132.195312 141.957031 132.71875 141.5625 132.71875 C 141.234375 132.71875 140.710938 133.507812 140.515625 134.492188 C 140.253906 135.542969 139.859375 136.464844 139.597656 136.660156 C 139.402344 136.859375 134.550781 146.121094 128.980469 157.359375 C 123.34375 168.527344 114.890625 185.28125 110.234375 194.480469 C 105.515625 203.679688 97.390625 219.777344 92.082031 230.289062 C 86.773438 240.734375 82.25 249.800781 81.921875 250.328125 C 81.597656 250.851562 81.203125 251.773438 81.007812 252.296875 C 80.808594 252.824219 80.351562 253.746094 80.023438 254.269531 C 79.695312 254.796875 79.238281 255.714844 79.039062 256.242188 C 78.84375 256.765625 78.382812 257.753906 77.992188 258.34375 C 77.664062 259 77.007812 260.050781 76.679688 260.644531 C 76.289062 261.300781 75.894531 262.21875 75.699219 262.613281 C 75.5 263.074219 75.238281 263.863281 75.042969 264.257812 C 74.84375 264.714844 74.453125 265.570312 74.125 266.097656 C 73.796875 266.621094 73.335938 267.542969 73.140625 268.066406 C 72.945312 268.59375 72.484375 269.511719 72.15625 270.039062 C 71.832031 270.5625 71.042969 272.207031 70.386719 273.652344 C 67.898438 279.039062 69.667969 279.5 47.449219 268.332031 C 36.375 262.746094 27.003906 258.210938 26.476562 258.210938 C 25.101562 258.210938 25.363281 255.847656 27.066406 253.085938 C 27.917969 251.773438 32.046875 243.691406 36.308594 235.214844 C 40.570312 226.742188 44.238281 219.316406 44.566406 218.789062 C 44.828125 218.265625 45.613281 216.621094 46.269531 215.175781 C 46.992188 213.730469 47.710938 212.417969 47.910156 212.21875 C 48.105469 212.023438 51.710938 204.925781 55.96875 196.453125 C 60.230469 187.976562 63.898438 180.550781 64.226562 180.027344 C 64.554688 179.5 64.949219 178.582031 65.144531 178.054688 C 65.34375 177.527344 65.800781 176.542969 66.195312 175.886719 C 67.570312 173.457031 68.421875 171.8125 78.710938 151.246094 C 84.609375 139.550781 89.589844 129.894531 89.917969 129.699219 C 90.179688 129.5 90.445312 128.84375 90.445312 128.1875 C 90.445312 127.527344 90.902344 126.609375 91.425781 126.148438 C 91.949219 125.6875 92.410156 124.835938 92.410156 124.179688 C 92.410156 123.519531 92.867188 122.667969 93.394531 122.207031 C 93.917969 121.746094 94.375 120.894531 94.375 120.234375 C 94.375 119.578125 94.835938 118.726562 95.359375 118.265625 C 95.882812 117.804688 96.34375 116.949219 96.34375 116.292969 C 96.34375 115.636719 96.800781 114.78125 97.324219 114.324219 C 97.847656 113.863281 98.308594 113.007812 98.308594 112.351562 C 98.308594 111.695312 98.765625 110.839844 99.292969 110.378906 C 99.816406 109.921875 100.273438 109.066406 100.273438 108.410156 C 100.273438 107.753906 100.734375 106.898438 101.257812 106.4375 C 101.78125 105.980469 102.242188 105.125 102.242188 104.46875 C 102.242188 103.808594 102.699219 102.957031 103.222656 102.496094 C 103.746094 102.035156 104.207031 101.117188 104.207031 100.460938 C 104.207031 99.738281 104.46875 99.210938 104.863281 99.210938 C 105.191406 99.210938 105.714844 98.421875 105.910156 97.4375 C 106.171875 96.453125 106.761719 95.203125 107.285156 94.742188 C 107.746094 94.285156 108.140625 93.296875 108.140625 92.640625 C 108.140625 91.984375 108.402344 91.328125 108.664062 91.195312 C 108.992188 91.0625 112.660156 84.035156 116.921875 75.558594 C 124.917969 59.527344 125.375 58.542969 126.488281 56.636719 C 126.882812 56.042969 127.34375 55.058594 127.539062 54.535156 C 127.734375 54.007812 128.257812 52.957031 128.652344 52.234375 C 131.472656 47.242188 141.5625 26.675781 141.5625 25.953125 C 141.5625 24.113281 145.429688 24.113281 147.527344 26.019531 Z M 147.527344 26.019531 "/>
<path style=" stroke:none;fill-rule:nonzero;fill:rgb(0%,0%,0%);fill-opacity:1;" d="M 331.757812 24.769531 C 331.035156 25.425781 329.792969 26.414062 329.003906 26.9375 C 327.628906 27.859375 325.726562 29.371094 323.957031 30.878906 C 323.5 31.207031 322.84375 31.539062 322.515625 31.539062 C 322.121094 31.539062 321.597656 31.929688 321.335938 32.324219 C 321.074219 32.785156 319.109375 34.296875 317.078125 35.742188 C 314.980469 37.121094 313.273438 38.5 313.273438 38.832031 C 313.273438 39.160156 312.949219 39.421875 312.621094 39.421875 C 312.09375 39.421875 290.925781 54.925781 286.730469 58.34375 C 286.40625 58.605469 285.027344 59.59375 283.78125 60.445312 C 282.539062 61.367188 281.160156 62.351562 280.769531 62.746094 C 280.375 63.074219 279.328125 63.863281 278.539062 64.390625 C 277.753906 64.914062 276.703125 65.703125 276.3125 66.03125 C 275.917969 66.425781 274.476562 67.410156 273.164062 68.332031 C 271.789062 69.25 270.675781 70.171875 270.675781 70.433594 C 270.675781 70.761719 270.214844 70.960938 269.691406 70.960938 C 269.101562 70.960938 268.511719 71.417969 268.316406 71.945312 C 268.054688 72.46875 267.660156 72.929688 267.332031 72.929688 C 266.480469 72.929688 260.1875 77.660156 260.1875 78.316406 C 260.1875 78.582031 259.859375 78.84375 259.535156 78.84375 C 259.007812 78.84375 245.902344 88.304688 241.511719 91.851562 C 240.070312 92.96875 234.695312 96.976562 233.316406 97.898438 C 232.53125 98.421875 231.484375 99.210938 231.089844 99.539062 C 230.695312 99.933594 229.253906 100.917969 227.945312 101.839844 C 226.566406 102.757812 225.453125 103.679688 225.453125 103.941406 C 225.453125 104.269531 224.996094 104.46875 224.46875 104.46875 C 224.011719 104.46875 223.289062 104.863281 223.027344 105.320312 C 222.765625 105.78125 220.800781 107.292969 218.769531 108.671875 C 216.671875 110.117188 214.96875 111.496094 214.96875 111.824219 C 214.96875 112.089844 214.640625 112.351562 214.3125 112.351562 C 213.394531 112.351562 207.101562 117.082031 207.101562 117.738281 C 207.101562 118.003906 206.773438 118.265625 206.445312 118.265625 C 205.855469 118.265625 194.585938 126.476562 187.179688 132.195312 C 186.128906 133.046875 184.230469 134.429688 182.917969 135.347656 C 181.609375 136.265625 180.492188 137.1875 180.363281 137.449219 C 180.230469 137.777344 179.707031 137.976562 179.25 137.976562 C 178.722656 137.976562 178.070312 138.371094 177.808594 138.828125 C 177.542969 139.289062 176.167969 140.339844 174.859375 141.261719 C 173.480469 142.179688 172.367188 143.101562 172.367188 143.363281 C 172.367188 143.691406 171.90625 143.890625 171.382812 143.890625 C 170.925781 143.890625 170.203125 144.285156 169.941406 144.675781 C 169.679688 145.136719 167.714844 146.648438 165.683594 148.09375 C 163.585938 149.472656 161.878906 150.855469 161.878906 151.183594 C 161.878906 151.511719 161.554688 151.773438 161.226562 151.773438 C 160.699219 151.773438 140.121094 166.820312 135.335938 170.695312 C 135.011719 170.957031 133.242188 172.273438 131.40625 173.652344 C 129.636719 174.964844 127.867188 176.28125 127.472656 176.609375 C 122.359375 180.617188 121.246094 181.667969 121.246094 182.523438 C 121.246094 183.507812 125.113281 189.289062 127.667969 192.179688 C 128.0625 192.640625 128.457031 193.296875 128.457031 193.496094 C 128.457031 193.953125 131.667969 198.289062 133.503906 200.394531 C 134.027344 200.917969 137.171875 205.191406 140.582031 209.921875 C 143.988281 214.585938 147.460938 219.316406 148.25 220.367188 C 149.101562 221.417969 150.476562 223.324219 151.394531 224.636719 C 152.3125 225.953125 153.558594 227.527344 154.148438 228.25 C 154.800781 228.972656 156.113281 230.75 157.097656 232.195312 C 158.144531 233.703125 159.128906 234.953125 159.457031 235.085938 C 159.71875 235.214844 159.914062 235.675781 159.914062 236.136719 C 159.914062 236.53125 160.4375 237.382812 161.09375 237.910156 C 161.683594 238.5 162.667969 239.617188 163.191406 240.40625 C 163.714844 241.261719 164.699219 242.507812 165.355469 243.230469 C 165.945312 244.019531 166.46875 244.875 166.46875 245.203125 C 166.46875 245.464844 166.796875 245.726562 167.125 245.726562 C 167.648438 245.726562 182.066406 235.28125 187.769531 230.8125 C 189.40625 229.5 192.027344 227.59375 193.339844 226.675781 C 194.125 226.148438 195.304688 225.230469 195.960938 224.703125 C 196.617188 224.179688 197.796875 223.257812 198.582031 222.734375 C 199.367188 222.207031 200.546875 221.285156 201.203125 220.761719 C 201.859375 220.234375 203.039062 219.316406 203.824219 218.789062 C 204.613281 218.265625 205.660156 217.476562 206.054688 217.148438 C 206.445312 216.753906 208.28125 215.503906 210.050781 214.257812 C 211.886719 213.007812 213.789062 211.628906 214.3125 211.101562 C 214.835938 210.644531 219.160156 207.421875 223.816406 204.007812 C 228.535156 200.589844 233.1875 197.109375 234.234375 196.320312 C 235.285156 195.464844 237.183594 194.085938 238.496094 193.167969 C 239.804688 192.246094 240.984375 191.328125 241.050781 190.996094 C 241.183594 190.734375 241.707031 190.539062 242.164062 190.539062 C 242.691406 190.539062 243.34375 190.144531 243.609375 189.683594 C 243.871094 189.222656 244.851562 188.371094 245.769531 187.777344 C 246.6875 187.253906 248.128906 186.136719 249.046875 185.347656 C 251.277344 183.507812 251.472656 183.375 255.796875 180.417969 C 257.828125 179.039062 259.535156 177.660156 259.535156 177.332031 C 259.535156 177.003906 259.859375 176.742188 260.1875 176.742188 C 261.105469 176.742188 267.398438 172.011719 267.398438 171.351562 C 267.398438 171.089844 267.726562 170.828125 268.054688 170.828125 C 268.644531 170.828125 279.917969 162.613281 287.320312 156.898438 C 288.371094 156.042969 290.269531 154.664062 291.582031 153.746094 C 292.894531 152.824219 294.074219 151.90625 294.136719 151.578125 C 294.269531 151.3125 294.792969 151.117188 295.253906 151.117188 C 295.777344 151.117188 296.433594 150.722656 296.695312 150.261719 C 296.957031 149.800781 298.332031 148.75 299.644531 147.832031 C 301.019531 146.910156 302.132812 145.992188 302.132812 145.664062 C 302.132812 145.398438 302.59375 145.203125 303.117188 145.203125 C 303.707031 145.203125 304.296875 144.742188 304.492188 144.21875 C 304.753906 143.691406 305.148438 143.230469 305.476562 143.230469 C 306.328125 143.230469 312.621094 138.5 312.621094 137.84375 C 312.621094 137.582031 312.949219 137.320312 313.273438 137.320312 C 313.800781 137.320312 326.90625 127.859375 331.296875 124.308594 C 332.742188 123.191406 338.113281 119.183594 339.492188 118.265625 C 340.277344 117.738281 341.324219 116.949219 341.71875 116.621094 C 342.113281 116.226562 343.554688 115.242188 344.863281 114.324219 C 346.242188 113.402344 347.355469 112.484375 347.355469 112.15625 C 347.355469 111.890625 347.8125 111.695312 348.339844 111.695312 C 348.796875 111.695312 349.519531 111.300781 349.78125 110.839844 C 350.042969 110.378906 352.007812 108.871094 354.105469 107.488281 C 356.136719 106.042969 357.839844 104.664062 357.839844 104.335938 C 357.839844 104.074219 358.167969 103.808594 358.496094 103.808594 C 359.414062 103.808594 365.707031 99.078125 365.707031 98.421875 C 365.707031 98.160156 366.035156 97.898438 366.363281 97.898438 C 367.476562 97.898438 381.4375 87.121094 381.4375 86.269531 C 381.4375 85.347656 377.042969 79.304688 376.128906 78.976562 C 375.800781 78.84375 375.539062 78.449219 375.539062 78.121094 C 375.539062 77.59375 361.90625 58.933594 355.746094 50.984375 C 354.890625 49.933594 353.515625 48.027344 352.597656 46.714844 C 351.679688 45.402344 350.761719 44.21875 350.5 44.152344 C 350.171875 44.019531 349.976562 43.496094 349.976562 43.035156 C 349.976562 42.507812 349.582031 41.851562 349.125 41.589844 C 348.667969 41.328125 347.617188 39.949219 346.699219 38.632812 C 345.78125 37.253906 344.863281 36.136719 344.601562 36.136719 C 344.273438 36.136719 344.078125 35.742188 344.078125 35.28125 C 344.078125 34.824219 343.554688 33.96875 342.964844 33.378906 C 341.523438 32.0625 340.867188 31.144531 339.230469 28.582031 C 336.148438 23.71875 334.246094 22.734375 331.757812 24.769531 Z M 334.902344 27.53125 C 334.902344 27.988281 351.089844 50.328125 353.710938 53.546875 C 354.761719 54.730469 358.824219 60.25 359.808594 61.761719 C 360.332031 62.550781 361.117188 63.601562 361.445312 63.996094 C 361.839844 64.390625 362.824219 65.835938 363.738281 67.148438 C 364.65625 68.527344 365.574219 69.644531 365.902344 69.644531 C 366.164062 69.644531 366.363281 70.105469 366.363281 70.628906 C 366.363281 71.089844 366.753906 71.8125 367.214844 72.074219 C 367.671875 72.339844 368.722656 73.652344 369.507812 74.96875 C 370.292969 76.214844 371.605469 78.054688 372.390625 78.910156 C 373.242188 79.828125 374.75 81.800781 375.800781 83.375 C 377.4375 85.675781 377.570312 86.269531 376.78125 86.726562 C 375.273438 87.714844 373.441406 88.960938 372.652344 89.683594 C 372.261719 90.078125 370.816406 91.0625 369.507812 91.984375 C 368.132812 92.902344 367.015625 93.824219 367.015625 94.085938 C 367.015625 94.414062 366.558594 94.613281 366.035156 94.613281 C 365.445312 94.613281 364.855469 95.070312 364.65625 95.597656 C 364.394531 96.125 364.003906 96.582031 363.675781 96.582031 C 362.824219 96.582031 356.53125 101.3125 356.53125 101.972656 C 356.53125 102.234375 356.203125 102.496094 355.875 102.496094 C 355.351562 102.496094 342.242188 111.957031 337.851562 115.503906 C 336.410156 116.621094 331.035156 120.628906 329.660156 121.550781 C 328.875 122.074219 327.824219 122.863281 327.433594 123.191406 C 327.039062 123.585938 325.597656 124.574219 324.285156 125.492188 C 322.910156 126.414062 321.796875 127.332031 321.796875 127.59375 C 321.796875 127.921875 321.335938 128.121094 320.8125 128.121094 C 320.351562 128.121094 319.632812 128.515625 319.371094 128.910156 C 319.109375 129.367188 317.140625 130.878906 315.109375 132.324219 C 313.011719 133.707031 311.308594 135.085938 311.308594 135.414062 C 311.308594 135.742188 310.980469 136.003906 310.652344 136.003906 C 309.734375 136.003906 303.445312 140.734375 303.445312 141.390625 C 303.445312 141.65625 303.117188 141.917969 302.789062 141.917969 C 302.265625 141.917969 289.15625 151.378906 284.765625 154.925781 C 283.324219 156.042969 277.949219 160.050781 276.574219 160.972656 C 275.789062 161.496094 274.738281 162.285156 274.34375 162.613281 C 273.953125 163.007812 272.511719 163.996094 271.199219 164.914062 C 269.824219 165.832031 268.707031 166.753906 268.707031 167.015625 C 268.707031 167.34375 268.25 167.542969 267.726562 167.542969 C 267.265625 167.542969 266.546875 167.9375 266.285156 168.332031 C 266.023438 168.789062 264.054688 170.300781 262.023438 171.746094 C 259.925781 173.125 258.222656 174.507812 258.222656 174.835938 C 258.222656 175.164062 257.894531 175.425781 257.566406 175.425781 C 257.042969 175.425781 243.933594 184.886719 239.542969 188.4375 C 238.101562 189.550781 232.726562 193.558594 231.351562 194.480469 C 230.566406 195.003906 229.515625 195.792969 229.125 196.121094 C 228.730469 196.515625 227.289062 197.503906 225.976562 198.421875 C 224.601562 199.34375 223.488281 200.261719 223.488281 200.523438 C 223.488281 200.851562 223.027344 201.050781 222.503906 201.050781 C 222.046875 201.050781 221.324219 201.445312 221.0625 201.90625 C 220.800781 202.363281 218.832031 203.875 216.800781 205.253906 C 214.703125 206.699219 213 208.082031 213 208.410156 C 213 208.671875 212.671875 208.933594 212.34375 208.933594 C 211.429688 208.933594 205.136719 213.664062 205.136719 214.324219 C 205.136719 214.585938 204.808594 214.847656 204.480469 214.847656 C 203.890625 214.847656 192.617188 223.0625 185.210938 228.777344 C 184.164062 229.632812 182.261719 231.011719 180.953125 231.929688 C 179.640625 232.851562 178.527344 233.769531 178.398438 234.035156 C 178.265625 234.363281 177.808594 234.558594 177.347656 234.558594 C 176.953125 234.558594 176.101562 235.085938 175.578125 235.675781 C 174.988281 236.332031 173.875 237.320312 173.085938 237.84375 C 172.234375 238.371094 170.992188 239.355469 170.269531 239.945312 C 169.484375 240.605469 168.566406 241.128906 168.171875 241.128906 C 167.777344 241.128906 165.09375 237.84375 162.207031 233.902344 C 159.324219 229.894531 156.308594 225.820312 155.457031 224.835938 C 154.671875 223.847656 153.164062 221.878906 152.179688 220.433594 C 151.199219 218.988281 150.214844 217.671875 149.953125 217.609375 C 149.625 217.476562 149.429688 216.949219 149.429688 216.492188 C 149.429688 215.964844 149.035156 215.308594 148.578125 215.046875 C 148.117188 214.78125 147.265625 213.796875 146.675781 212.878906 C 146.152344 211.957031 145.039062 210.511719 144.25 209.59375 C 142.414062 207.359375 142.285156 207.160156 139.335938 202.824219 C 137.960938 200.789062 136.582031 199.078125 136.253906 199.078125 C 135.925781 199.078125 135.664062 198.75 135.664062 198.421875 C 135.664062 197.503906 130.945312 191.195312 130.292969 191.195312 C 130.027344 191.195312 129.765625 190.867188 129.765625 190.472656 C 129.765625 190.078125 128.585938 188.238281 127.144531 186.464844 C 124.917969 183.640625 124.71875 183.046875 125.375 181.929688 C 125.769531 181.273438 126.359375 180.683594 126.554688 180.683594 C 126.949219 180.683594 134.289062 175.492188 137.894531 172.667969 C 138.941406 171.8125 140.84375 170.433594 142.152344 169.511719 C 143.464844 168.59375 144.644531 167.671875 144.710938 167.34375 C 144.839844 167.082031 145.363281 166.886719 145.824219 166.886719 C 146.347656 166.886719 147.003906 166.492188 147.265625 166.03125 C 147.527344 165.570312 148.902344 164.519531 150.214844 163.601562 C 151.589844 162.679688 152.707031 161.761719 152.707031 161.433594 C 152.707031 161.167969 153.164062 160.972656 153.6875 160.972656 C 154.148438 160.972656 154.867188 160.578125 155.128906 160.117188 C 155.390625 159.722656 157.359375 158.210938 159.457031 156.765625 C 161.488281 155.386719 163.191406 154.007812 163.191406 153.679688 C 163.191406 153.351562 163.519531 153.085938 163.847656 153.085938 C 164.371094 153.085938 185.539062 137.582031 189.734375 134.164062 C 190.128906 133.902344 191.4375 132.917969 192.683594 132.0625 C 193.929688 131.144531 195.304688 130.089844 195.699219 129.761719 C 196.09375 129.367188 197.140625 128.644531 197.925781 128.121094 C 198.714844 127.59375 199.761719 126.804688 200.15625 126.476562 C 200.546875 126.082031 201.992188 125.097656 203.300781 124.179688 C 204.675781 123.257812 205.792969 122.339844 205.792969 122.011719 C 205.792969 121.746094 206.25 121.550781 206.773438 121.550781 C 207.363281 121.550781 207.953125 121.089844 208.152344 120.566406 C 208.414062 120.039062 208.804688 119.578125 209.132812 119.578125 C 209.984375 119.578125 216.277344 114.847656 216.277344 114.191406 C 216.277344 113.929688 216.605469 113.664062 216.933594 113.664062 C 217.457031 113.664062 230.566406 104.203125 234.957031 100.65625 C 236.398438 99.539062 241.773438 95.53125 243.148438 94.613281 C 243.933594 94.085938 244.984375 93.296875 245.378906 92.96875 C 245.769531 92.574219 247.210938 91.589844 248.523438 90.667969 C 249.898438 89.75 251.011719 88.832031 251.011719 88.5 C 251.011719 88.238281 251.472656 88.042969 251.996094 88.042969 C 252.457031 88.042969 253.175781 87.648438 253.4375 87.1875 C 253.699219 86.792969 255.667969 85.28125 257.765625 83.835938 C 259.796875 82.457031 261.5 81.078125 261.5 80.75 C 261.5 80.421875 261.828125 80.15625 262.15625 80.15625 C 263.074219 80.15625 269.363281 75.425781 269.363281 74.769531 C 269.363281 74.507812 269.691406 74.246094 270.019531 74.246094 C 270.609375 74.246094 281.882812 66.03125 289.289062 60.316406 C 290.335938 59.460938 292.238281 58.082031 293.546875 57.160156 C 294.859375 56.242188 296.039062 55.320312 296.105469 54.992188 C 296.234375 54.730469 296.757812 54.535156 297.21875 54.535156 C 297.742188 54.535156 298.398438 54.140625 298.660156 53.679688 C 298.921875 53.21875 300.296875 52.167969 301.609375 51.25 C 302.984375 50.328125 304.101562 49.410156 304.101562 49.078125 C 304.101562 48.816406 304.558594 48.621094 305.082031 48.621094 C 305.542969 48.621094 306.261719 48.226562 306.523438 47.765625 C 306.785156 47.371094 308.753906 45.859375 310.851562 44.414062 C 312.882812 43.035156 314.585938 41.65625 314.585938 41.328125 C 314.585938 41 314.980469 40.734375 315.4375 40.671875 C 315.832031 40.671875 320.222656 37.582031 325.074219 33.835938 C 333.855469 27.070312 334.902344 26.414062 334.902344 27.53125 Z M 334.902344 27.53125 "/>
<path style=" stroke:none;fill-rule:nonzero;fill:rgb(0%,0%,0%);fill-opacity:1;" d="M 123.148438 26.542969 C 122.230469 27.003906 120.066406 27.59375 118.429688 27.859375 C 116.722656 28.121094 115.21875 28.582031 115.019531 28.976562 C 114.757812 29.304688 113.839844 29.566406 112.859375 29.566406 C 111.875 29.566406 110.234375 30.027344 109.1875 30.550781 C 108.203125 31.078125 106.695312 31.539062 105.910156 31.539062 C 105.191406 31.601562 103.8125 31.996094 102.894531 32.523438 C 101.976562 33.046875 100.535156 33.441406 99.617188 33.507812 C 98.703125 33.507812 97.195312 33.902344 96.277344 34.429688 C 95.359375 34.886719 93.457031 35.480469 92.082031 35.742188 C 90.769531 36.003906 89.132812 36.464844 88.542969 36.726562 C 86.640625 37.714844 80.808594 39.421875 79.5625 39.421875 C 78.84375 39.421875 77.53125 39.816406 76.613281 40.339844 C 75.699219 40.800781 73.796875 41.394531 72.421875 41.65625 C 71.109375 41.917969 69.472656 42.378906 68.882812 42.640625 C 67.175781 43.496094 61.476562 45.203125 58.855469 45.664062 C 57.476562 45.925781 56.363281 46.386719 56.363281 46.714844 C 56.363281 47.042969 55.578125 47.304688 54.660156 47.304688 C 53.742188 47.304688 52.039062 47.699219 50.921875 48.226562 C 48.957031 49.015625 46.597656 49.738281 40.304688 51.3125 C 38.863281 51.707031 37.421875 52.234375 37.03125 52.628906 C 36.703125 52.957031 35.71875 53.21875 34.734375 53.21875 C 33.816406 53.21875 32.246094 53.679688 31.195312 54.203125 C 30.214844 54.730469 28.902344 55.191406 28.378906 55.191406 C 27.855469 55.191406 26.476562 55.585938 25.363281 56.109375 C 24.183594 56.636719 22.675781 57.160156 21.957031 57.292969 C 21.167969 57.425781 20.644531 58.015625 20.644531 58.738281 C 20.644531 59.722656 22.675781 61.105469 29.164062 64.324219 C 33.816406 66.6875 37.945312 68.921875 38.339844 69.183594 C 38.929688 69.710938 43.910156 72.273438 67.375 84.164062 C 72.484375 86.726562 76.878906 89.160156 77.074219 89.421875 C 77.269531 89.75 77.925781 90.011719 78.582031 90.011719 C 79.238281 90.011719 80.152344 90.472656 80.613281 91 C 81.070312 91.523438 81.921875 91.984375 82.578125 91.984375 C 83.234375 91.984375 84.085938 92.445312 84.546875 92.96875 C 85.003906 93.496094 85.855469 93.953125 86.511719 93.953125 C 87.167969 93.953125 88.019531 94.414062 88.476562 95.007812 C 89 95.597656 90.117188 95.925781 91.296875 95.792969 C 93.066406 95.597656 93.65625 94.941406 96.40625 89.683594 C 102.960938 77.332031 106.171875 70.761719 106.171875 69.90625 C 106.171875 69.382812 106.433594 68.988281 106.761719 68.988281 C 107.089844 68.988281 107.679688 68.199219 108.074219 67.148438 C 108.464844 66.164062 109.054688 64.847656 109.449219 64.191406 C 111.152344 61.234375 111.480469 60.710938 111.808594 59.789062 C 112.59375 57.820312 114.363281 54.203125 114.757812 53.875 C 114.953125 53.679688 116.722656 50.261719 118.625 46.320312 C 120.589844 42.3125 122.820312 38.042969 123.605469 36.792969 C 124.390625 35.546875 125.246094 33.769531 125.507812 32.851562 C 125.769531 31.996094 126.425781 30.878906 126.949219 30.355469 C 127.472656 29.828125 127.800781 28.644531 127.667969 27.660156 C 127.40625 25.625 125.636719 25.164062 123.148438 26.542969 Z M 123.210938 31.144531 C 123.210938 31.667969 122.820312 32.523438 122.359375 32.984375 C 121.902344 33.441406 120.789062 35.28125 119.871094 37.121094 C 119.019531 38.894531 118.101562 40.539062 117.902344 40.734375 C 117.707031 40.933594 115.808594 44.480469 113.773438 48.621094 C 111.679688 52.757812 109.777344 56.636719 109.449219 57.160156 C 109.121094 57.6875 108.730469 58.605469 108.53125 59.132812 C 108.335938 59.65625 107.875 60.578125 107.550781 61.105469 C 107.222656 61.628906 106.761719 62.550781 106.566406 63.074219 C 106.371094 63.601562 105.910156 64.585938 105.515625 65.175781 C 104.207031 67.476562 103.550781 68.789062 99.160156 77.527344 C 96.734375 82.390625 94.308594 86.792969 93.917969 87.253906 C 93.457031 87.714844 93.066406 88.699219 93.066406 89.421875 C 93.066406 90.078125 92.804688 90.667969 92.410156 90.667969 C 92.082031 90.667969 91.753906 91.128906 91.753906 91.65625 C 91.753906 92.179688 91.164062 92.640625 90.445312 92.640625 C 89.722656 92.640625 89.132812 92.378906 89.132812 91.984375 C 89.132812 91.65625 88.410156 91.195312 87.496094 90.933594 C 86.640625 90.734375 85.59375 90.144531 85.136719 89.617188 C 84.742188 89.09375 83.890625 88.699219 83.234375 88.699219 C 82.578125 88.699219 81.726562 88.238281 81.269531 87.714844 C 80.808594 87.1875 79.957031 86.726562 79.300781 86.726562 C 78.648438 86.726562 77.792969 86.269531 77.335938 85.742188 C 76.878906 85.214844 75.960938 84.757812 75.371094 84.757812 C 74.714844 84.757812 74.058594 84.492188 73.925781 84.230469 C 73.863281 83.902344 69.339844 81.472656 63.898438 78.710938 C 41.75 67.476562 28.445312 60.644531 27.066406 59.722656 C 25.625 58.871094 25.691406 58.804688 29.035156 57.949219 C 30.867188 57.488281 33.753906 56.832031 35.390625 56.4375 C 36.964844 56.109375 38.601562 55.519531 38.929688 55.191406 C 39.324219 54.796875 40.304688 54.535156 41.289062 54.535156 C 42.207031 54.535156 43.78125 54.074219 44.828125 53.546875 C 45.8125 53.023438 47.253906 52.5625 47.910156 52.5625 C 48.5625 52.5625 50.070312 52.167969 51.25 51.640625 C 53.28125 50.789062 54.855469 50.328125 61.933594 48.554688 C 63.375 48.160156 64.816406 47.632812 65.210938 47.242188 C 65.539062 46.910156 66.585938 46.648438 67.503906 46.648438 C 68.421875 46.648438 69.796875 46.1875 70.519531 45.664062 C 71.175781 45.136719 72.683594 44.679688 73.730469 44.679688 C 74.84375 44.679688 76.484375 44.285156 77.402344 43.757812 C 78.320312 43.296875 80.21875 42.707031 81.597656 42.445312 C 82.90625 42.179688 84.546875 41.722656 85.136719 41.457031 C 87.035156 40.472656 92.867188 38.765625 94.113281 38.765625 C 94.835938 38.765625 96.144531 38.371094 97.0625 37.84375 C 97.980469 37.386719 99.882812 36.792969 101.257812 36.53125 C 102.566406 36.269531 104.207031 35.808594 104.796875 35.546875 C 106.371094 34.757812 112.464844 32.851562 113.382812 32.851562 C 113.839844 32.851562 115.085938 32.457031 116.199219 31.929688 C 120.132812 30.15625 123.210938 29.828125 123.210938 31.144531 Z M 123.210938 31.144531 "/>
<path style=" stroke:none;fill-rule:nonzero;fill:rgb(0%,0%,0%);fill-opacity:1;" d="M 352.074219 132.0625 C 351.222656 133.179688 349.976562 134.035156 349.257812 134.035156 C 348.535156 134.035156 347.160156 134.886719 346.242188 136.003906 C 345.390625 137.054688 344.011719 137.976562 343.292969 137.976562 C 342.636719 137.976562 341.261719 138.828125 340.34375 139.945312 C 339.425781 141.0625 338.113281 141.917969 337.195312 141.917969 C 336.410156 141.917969 335.558594 142.378906 335.296875 142.902344 C 335.101562 143.429688 334.3125 143.890625 333.59375 143.890625 C 332.804688 143.890625 331.429688 144.742188 330.511719 145.859375 C 329.660156 146.910156 328.285156 147.832031 327.5625 147.832031 C 326.90625 147.832031 325.53125 148.683594 324.613281 149.800781 C 323.761719 150.855469 322.386719 151.773438 321.664062 151.773438 C 321.007812 151.773438 319.632812 152.628906 318.714844 153.746094 C 317.796875 154.863281 316.488281 155.714844 315.570312 155.714844 C 314.78125 155.714844 313.929688 156.175781 313.667969 156.699219 C 313.472656 157.226562 312.683594 157.6875 311.964844 157.6875 C 311.179688 157.6875 309.800781 158.539062 308.882812 159.65625 C 308.03125 160.710938 306.65625 161.628906 305.933594 161.628906 C 305.28125 161.628906 303.902344 162.484375 302.984375 163.601562 C 302.132812 164.652344 300.757812 165.570312 300.035156 165.570312 C 299.382812 165.570312 298.003906 166.425781 297.085938 167.542969 C 296.234375 168.59375 294.859375 169.511719 294.136719 169.511719 C 293.484375 169.511719 292.105469 170.367188 291.1875 171.484375 C 290.269531 172.601562 288.960938 173.457031 288.042969 173.457031 C 287.257812 173.457031 286.40625 173.914062 286.140625 174.441406 C 285.945312 174.964844 285.160156 175.425781 284.4375 175.425781 C 283.652344 175.425781 282.277344 176.28125 281.359375 177.398438 C 280.507812 178.449219 279.128906 179.367188 278.410156 179.367188 C 277.753906 179.367188 276.378906 180.222656 275.460938 181.339844 C 274.609375 182.390625 273.230469 183.3125 272.511719 183.3125 C 271.855469 183.3125 270.476562 184.164062 269.5625 185.28125 C 268.707031 186.332031 267.332031 187.253906 266.613281 187.253906 C 265.957031 187.253906 264.578125 188.105469 263.664062 189.222656 C 262.746094 190.339844 261.433594 191.195312 260.515625 191.195312 C 259.730469 191.195312 258.878906 191.65625 258.617188 192.179688 C 258.417969 192.707031 257.632812 193.167969 256.910156 193.167969 C 256.125 193.167969 254.75 194.019531 253.832031 195.136719 C 252.980469 196.1875 251.601562 197.109375 250.882812 197.109375 C 250.226562 197.109375 248.851562 197.960938 247.933594 199.078125 C 247.082031 200.128906 245.703125 201.050781 244.984375 201.050781 C 244.328125 201.050781 242.953125 201.90625 242.035156 203.023438 C 241.117188 204.136719 239.804688 204.992188 238.890625 204.992188 C 238.101562 204.992188 237.25 205.453125 236.988281 205.976562 C 236.792969 206.503906 236.003906 206.964844 235.285156 206.964844 C 234.496094 206.964844 233.121094 207.816406 232.203125 208.933594 C 231.351562 209.984375 229.976562 210.90625 229.253906 210.90625 C 228.597656 210.90625 227.222656 211.761719 226.304688 212.878906 C 225.453125 213.929688 224.078125 214.847656 223.355469 214.847656 C 222.699219 214.847656 221.324219 215.703125 220.40625 216.820312 C 219.554688 217.871094 218.179688 218.789062 217.457031 218.789062 C 216.800781 218.789062 215.425781 219.644531 214.507812 220.761719 C 213.589844 221.878906 212.28125 222.734375 211.363281 222.734375 C 210.574219 222.734375 209.722656 223.191406 209.460938 223.71875 C 209.265625 224.242188 208.480469 224.703125 207.757812 224.703125 C 206.972656 224.703125 205.59375 225.558594 204.675781 226.675781 C 203.824219 227.726562 202.582031 228.644531 201.992188 228.644531 C 200.417969 228.710938 195.175781 233.835938 195.566406 234.953125 C 195.894531 235.742188 208.019531 235.871094 276.507812 235.871094 L 357.1875 235.871094 L 357.515625 234.363281 C 357.710938 233.574219 357.777344 209.855469 357.710938 181.667969 L 357.515625 130.421875 L 355.546875 130.289062 C 354.039062 130.15625 353.253906 130.617188 352.074219 132.0625 Z M 354.761719 182.785156 C 354.628906 209.921875 354.5 232.257812 354.367188 232.390625 C 354.238281 232.457031 319.566406 232.585938 277.359375 232.585938 C 210.707031 232.652344 194.714844 232.390625 201.792969 231.40625 C 202.644531 231.273438 204.085938 230.417969 205.070312 229.566406 C 205.988281 228.710938 207.234375 227.988281 207.824219 227.988281 C 208.414062 227.988281 209.265625 227.527344 209.722656 227.003906 C 210.183594 226.476562 211.101562 226.015625 211.820312 226.015625 C 212.542969 226.015625 213.851562 225.097656 214.769531 224.046875 C 215.621094 222.929688 217 222.074219 217.71875 222.074219 C 218.375 222.074219 219.75 221.222656 220.667969 220.105469 C 221.519531 218.988281 222.898438 218.132812 223.617188 218.132812 C 224.273438 218.132812 225.648438 217.214844 226.566406 216.164062 C 227.417969 215.046875 228.796875 214.191406 229.515625 214.191406 C 230.171875 214.191406 231.546875 213.269531 232.464844 212.21875 C 233.382812 211.101562 234.695312 210.25 235.613281 210.25 C 236.398438 210.25 237.25 209.789062 237.511719 209.261719 C 237.710938 208.738281 238.496094 208.277344 239.214844 208.277344 C 240.003906 208.277344 241.378906 207.359375 242.296875 206.308594 C 243.148438 205.191406 244.523438 204.335938 245.246094 204.335938 C 245.902344 204.335938 247.277344 203.414062 248.195312 202.363281 C 249.046875 201.246094 250.421875 200.394531 251.144531 200.394531 C 251.800781 200.394531 253.175781 199.472656 254.09375 198.421875 C 255.011719 197.304688 256.320312 196.453125 257.238281 196.453125 C 258.027344 196.453125 258.878906 195.992188 259.140625 195.464844 C 259.335938 194.941406 260.125 194.480469 260.84375 194.480469 C 261.628906 194.480469 263.007812 193.558594 263.925781 192.507812 C 264.777344 191.390625 266.152344 190.539062 266.875 190.539062 C 267.527344 190.539062 268.90625 189.617188 269.824219 188.566406 C 270.675781 187.449219 272.050781 186.597656 272.773438 186.597656 C 273.425781 186.597656 274.804688 185.675781 275.722656 184.625 C 276.574219 183.507812 277.949219 182.652344 278.671875 182.652344 C 279.328125 182.652344 280.703125 181.734375 281.621094 180.683594 C 282.539062 179.566406 283.847656 178.710938 284.765625 178.710938 C 285.550781 178.710938 286.40625 178.25 286.667969 177.726562 C 286.863281 177.199219 287.648438 176.742188 288.371094 176.742188 C 289.15625 176.742188 290.535156 175.820312 291.449219 174.769531 C 292.304688 173.652344 293.679688 172.796875 294.398438 172.796875 C 295.054688 172.796875 296.433594 171.878906 297.347656 170.828125 C 298.203125 169.710938 299.578125 168.855469 300.296875 168.855469 C 300.953125 168.855469 302.332031 167.9375 303.246094 166.886719 C 304.101562 165.769531 305.476562 164.914062 306.195312 164.914062 C 306.851562 164.914062 308.230469 163.996094 309.144531 162.941406 C 310.0625 161.824219 311.375 160.972656 312.292969 160.972656 C 313.078125 160.972656 313.929688 160.511719 314.191406 159.984375 C 314.390625 159.460938 315.175781 159 315.898438 159 C 316.683594 159 318.058594 158.082031 318.976562 157.03125 C 319.828125 155.914062 321.140625 155.058594 321.859375 155.058594 C 322.515625 155.058594 323.957031 154.140625 324.941406 153.085938 C 325.988281 151.96875 327.367188 151.117188 327.957031 151.117188 C 328.613281 151.117188 329.855469 150.195312 330.773438 149.144531 C 331.691406 148.027344 333.003906 147.175781 333.921875 147.175781 C 334.707031 147.175781 335.558594 146.714844 335.820312 146.1875 C 336.015625 145.664062 336.804688 145.203125 337.523438 145.203125 C 338.3125 145.203125 339.6875 144.285156 340.605469 143.230469 C 341.457031 142.113281 342.832031 141.261719 343.554688 141.261719 C 344.210938 141.261719 345.585938 140.339844 346.503906 139.289062 C 347.355469 138.171875 348.667969 137.320312 349.320312 137.320312 C 349.976562 137.320312 351.222656 136.464844 352.074219 135.414062 C 352.925781 134.296875 353.910156 133.441406 354.238281 133.441406 C 354.695312 133.375 354.828125 150.128906 354.761719 182.785156 Z M 354.761719 182.785156 "/>
<path style=" stroke:none;fill-rule:nonzero;fill:rgb(0%,0%,0%);fill-opacity:1;" d="M 121.902344 207.09375 C 120.984375 209 120.066406 210.839844 119.738281 211.234375 C 119.214844 211.890625 116.660156 216.820312 110.761719 228.515625 C 109.253906 231.472656 107.746094 234.097656 107.417969 234.296875 C 107.089844 234.492188 106.828125 235.148438 106.828125 235.808594 C 106.828125 236.464844 106.371094 237.382812 105.84375 237.84375 C 105.320312 238.304688 104.863281 239.15625 104.863281 239.816406 C 104.863281 240.472656 104.402344 241.328125 103.878906 241.785156 C 103.355469 242.246094 102.894531 243.164062 102.894531 243.757812 C 102.894531 244.414062 102.632812 245.070312 102.371094 245.203125 C 102.042969 245.269531 100.667969 247.765625 99.226562 250.65625 C 97.847656 253.546875 96.472656 256.042969 96.277344 256.242188 C 96.078125 256.4375 94.636719 259.066406 93.128906 262.152344 C 91.625 265.242188 89.65625 268.921875 88.804688 270.367188 C 87.953125 271.8125 87.230469 273.519531 87.167969 274.113281 C 87.167969 274.769531 86.90625 275.292969 86.640625 275.292969 C 85.789062 275.292969 83.757812 280.484375 84.152344 281.535156 C 84.480469 282.390625 90.050781 282.523438 124.128906 282.523438 C 145.890625 282.523438 164.175781 282.324219 164.765625 282.128906 C 166.402344 281.472656 166.007812 279.894531 162.929688 273.914062 C 161.355469 270.890625 158.800781 265.898438 157.292969 262.8125 C 155.71875 259.722656 154.210938 257.09375 153.886719 257.027344 C 153.621094 256.898438 153.359375 256.242188 153.359375 255.582031 C 153.359375 254.992188 152.902344 254.074219 152.378906 253.613281 C 151.851562 253.152344 151.394531 252.296875 151.394531 251.640625 C 151.394531 250.984375 151 250.128906 150.476562 249.734375 C 149.953125 249.277344 149.363281 248.226562 149.167969 247.371094 C 148.902344 246.449219 148.445312 245.726562 148.117188 245.726562 C 147.722656 245.726562 147.460938 245.203125 147.398438 244.546875 C 147.398438 243.953125 146.21875 241.328125 144.839844 238.828125 C 143.464844 236.265625 141.105469 231.734375 139.53125 228.644531 C 138.023438 225.558594 136.582031 222.929688 136.386719 222.734375 C 136.191406 222.535156 134.8125 220.039062 133.4375 217.148438 C 131.996094 214.257812 130.683594 211.761719 130.488281 211.5625 C 130.226562 211.367188 129.242188 209.527344 128.257812 207.421875 C 125.835938 202.363281 124.195312 202.300781 121.902344 207.09375 Z M 127.34375 211.761719 C 127.996094 213.269531 129.4375 216.292969 130.554688 218.460938 C 135.335938 227.921875 137.238281 231.601562 137.566406 231.929688 C 137.828125 232.128906 139.53125 235.347656 141.433594 239.15625 C 143.332031 242.96875 145.167969 246.515625 145.496094 247.042969 C 145.824219 247.566406 146.21875 248.488281 146.414062 249.011719 C 146.609375 249.539062 147.070312 250.523438 147.460938 251.117188 C 148.511719 252.957031 149.101562 254.136719 153.03125 261.824219 C 155 265.769531 156.964844 269.511719 157.292969 270.039062 C 160.765625 275.886719 161.878906 278.121094 161.683594 278.382812 C 161.488281 278.515625 145.039062 278.644531 125.113281 278.644531 C 98.636719 278.578125 88.738281 278.382812 88.542969 277.855469 C 88.410156 277.460938 88.609375 276.9375 88.9375 276.675781 C 89.265625 276.476562 90.574219 274.175781 91.886719 271.679688 C 93.195312 269.117188 95.425781 264.847656 96.933594 262.152344 C 98.375 259.460938 101.191406 253.941406 103.222656 250 C 107.222656 242.246094 107.8125 241.0625 108.792969 239.289062 C 109.1875 238.699219 109.644531 237.710938 109.84375 237.1875 C 110.039062 236.660156 110.433594 235.742188 110.761719 235.214844 C 111.089844 234.691406 112.921875 231.140625 114.824219 227.332031 C 116.722656 223.519531 118.492188 220.300781 118.691406 220.105469 C 118.953125 219.90625 120.261719 217.34375 121.640625 214.386719 C 123.210938 211.101562 124.589844 208.933594 125.179688 208.933594 C 125.703125 208.933594 126.6875 210.25 127.34375 211.761719 Z M 127.34375 211.761719 "/>
<path style=" stroke:none;fill-rule:nonzero;fill:rgb(0%,0%,0%);fill-opacity:1;" d="M 190.785156 263.863281 C 189.996094 264.847656 189.40625 265.964844 189.40625 266.425781 C 189.40625 266.882812 188.949219 267.609375 188.425781 268.066406 C 187.898438 268.527344 187.441406 269.445312 187.441406 270.105469 C 187.441406 270.828125 187.179688 271.351562 186.917969 271.351562 C 186.65625 271.351562 185.605469 273.125 184.621094 275.292969 C 183.640625 277.398438 182.527344 279.367188 182.199219 279.566406 C 181.804688 279.761719 181.542969 280.484375 181.542969 281.140625 C 181.542969 281.800781 181.082031 282.71875 180.558594 283.179688 C 180.035156 283.640625 179.578125 284.492188 179.578125 285.148438 C 179.578125 285.808594 179.117188 286.660156 178.59375 287.121094 C 178.070312 287.582031 177.609375 288.5 177.609375 289.09375 C 177.609375 289.75 177.347656 290.40625 177.085938 290.539062 C 176.824219 290.601562 175.054688 293.691406 173.21875 297.304688 C 171.382812 300.917969 168.238281 306.964844 166.207031 310.773438 C 164.238281 314.585938 160.964844 320.890625 158.929688 324.898438 C 154.933594 332.71875 154.34375 333.835938 153.359375 335.609375 C 152.96875 336.199219 152.507812 337.1875 152.3125 337.710938 C 152.117188 338.238281 151.65625 339.222656 151.328125 339.816406 C 150.9375 340.539062 151.066406 341.128906 151.589844 341.457031 C 152.640625 342.113281 214.902344 342.574219 225.324219 341.984375 L 233.316406 341.523438 L 233.316406 339.617188 C 233.316406 338.566406 233.054688 337.710938 232.726562 337.710938 C 232.402344 337.710938 231.941406 336.988281 231.746094 336.070312 C 231.484375 335.148438 231.023438 334.425781 230.695312 334.425781 C 230.304688 334.425781 230.042969 333.902344 229.976562 333.246094 C 229.976562 332.652344 228.796875 330.023438 227.417969 327.527344 C 226.042969 324.964844 223.683594 320.433594 222.109375 317.34375 C 220.601562 314.257812 219.160156 311.628906 218.964844 311.429688 C 218.769531 311.234375 217 308.015625 215.097656 304.203125 C 211.625 297.371094 210.96875 296.058594 209.722656 293.824219 C 209.332031 293.230469 208.871094 292.246094 208.675781 291.71875 C 208.480469 291.195312 208.019531 290.273438 207.691406 289.75 C 207.363281 289.222656 206.90625 288.304688 206.710938 287.777344 C 206.511719 287.253906 206.121094 286.332031 205.792969 285.808594 C 205.464844 285.28125 203.957031 282.324219 202.449219 279.238281 C 200.941406 276.148438 199.5 273.519531 199.304688 273.324219 C 199.042969 273.125 197.730469 270.5625 196.289062 267.609375 C 194.847656 264.585938 193.339844 262.152344 192.878906 262.152344 C 192.488281 262.152344 191.503906 262.941406 190.785156 263.863281 Z M 202.515625 286.464844 C 202.777344 286.988281 203.234375 287.910156 203.433594 288.433594 C 203.761719 289.355469 204.085938 289.878906 205.792969 292.835938 C 206.183594 293.496094 206.773438 294.808594 207.167969 295.792969 C 207.5625 296.84375 208.152344 297.632812 208.480469 297.632812 C 208.804688 297.632812 209.070312 298.027344 209.070312 298.554688 C 209.070312 299.078125 210.183594 301.640625 211.558594 304.203125 C 212.871094 306.765625 215.558594 311.890625 217.457031 315.570312 C 219.421875 319.25 222.503906 325.230469 224.339844 328.84375 C 226.175781 332.457031 227.945312 335.476562 228.207031 335.609375 C 228.46875 335.742188 228.730469 336.59375 228.730469 337.449219 L 228.730469 339.027344 L 191.964844 339.027344 C 171.777344 339.027344 155.328125 338.828125 155.457031 338.5 C 156.441406 336.199219 159.652344 330.089844 159.980469 329.828125 C 160.175781 329.628906 161.945312 326.214844 163.914062 322.273438 C 165.878906 318.265625 167.714844 314.714844 167.976562 314.386719 C 168.566406 313.730469 170.992188 309.066406 178.003906 295.136719 C 180.035156 291.0625 182 287.582031 182.261719 287.382812 C 182.589844 287.1875 182.851562 286.53125 182.851562 285.871094 C 182.851562 285.214844 183.3125 284.296875 183.835938 283.835938 C 184.359375 283.375 184.820312 282.523438 184.820312 281.863281 C 184.820312 281.207031 185.277344 280.355469 185.800781 279.894531 C 186.328125 279.433594 186.785156 278.515625 186.785156 277.855469 C 186.785156 277.132812 186.980469 276.609375 187.308594 276.609375 C 187.570312 276.609375 188.488281 275.03125 189.339844 273.125 C 192.488281 266.359375 192.355469 266.292969 197.402344 276.410156 C 199.894531 281.40625 202.1875 285.9375 202.515625 286.464844 Z M 202.515625 286.464844 "/>
<path style=" stroke:none;fill-rule:nonzero;fill:rgb(0%,0%,0%);fill-opacity:1;" d="M 301.9375 262.613281 C 301.675781 262.8125 301.476562 263.535156 301.476562 264.125 C 301.476562 264.78125 301.019531 265.636719 300.496094 266.097656 C 299.972656 266.554688 299.511719 267.34375 299.511719 267.871094 C 299.511719 268.394531 299.054688 269.25 298.527344 269.777344 C 298.003906 270.367188 297.546875 271.351562 297.546875 272.074219 C 297.546875 272.730469 297.285156 273.324219 296.957031 273.324219 C 296.628906 273.324219 296.039062 274.113281 295.644531 275.097656 C 295.253906 276.148438 294.664062 277.398438 294.335938 277.921875 C 294.007812 278.449219 293.546875 279.367188 293.351562 279.894531 C 293.15625 280.417969 292.695312 281.40625 292.304688 281.996094 C 291.058594 284.230469 290.402344 285.542969 286.929688 292.378906 C 285.027344 296.1875 283.257812 299.40625 283.0625 299.605469 C 282.867188 299.800781 281.359375 302.5625 279.71875 305.847656 C 278.082031 309.066406 275.261719 314.652344 273.363281 318.199219 C 271.527344 321.679688 270.019531 325.03125 270.019531 325.558594 C 270.019531 326.082031 269.757812 326.542969 269.363281 326.542969 C 269.035156 326.542969 268.578125 327.265625 268.316406 328.183594 C 268.117188 329.039062 267.527344 330.089844 267.003906 330.550781 C 266.480469 330.945312 266.085938 331.800781 266.085938 332.457031 C 266.085938 333.113281 265.628906 333.96875 265.105469 334.425781 C 264.578125 334.886719 264.121094 335.808594 264.121094 336.464844 C 264.121094 337.1875 263.859375 337.710938 263.53125 337.710938 C 262.679688 337.710938 262.089844 340.472656 262.808594 341.324219 C 263.53125 342.246094 324.089844 342.707031 336.542969 341.917969 L 344.078125 341.457031 L 344.078125 339.617188 C 344.078125 338.632812 343.683594 337.382812 343.226562 336.925781 C 342.703125 336.464844 342.113281 335.214844 341.851562 334.230469 C 341.652344 333.246094 341.128906 332.457031 340.800781 332.457031 C 340.410156 332.457031 340.144531 331.929688 340.144531 331.273438 C 340.144531 330.617188 339.6875 329.5 339.164062 328.644531 C 338.574219 327.855469 336.605469 324.175781 334.773438 320.5 C 332.871094 316.753906 331.234375 313.597656 331.035156 313.402344 C 330.839844 313.207031 329.070312 309.984375 327.167969 306.175781 C 323.695312 299.34375 323.039062 298.027344 321.796875 295.792969 C 321.402344 295.203125 321.007812 294.28125 320.8125 293.824219 C 320.027344 291.917969 319.566406 290.996094 315.699219 283.640625 C 313.472656 279.367188 310.324219 273.324219 308.6875 270.167969 C 304.820312 262.613281 303.445312 261.101562 301.9375 262.613281 Z M 309.015625 277.726562 C 311.832031 283.441406 314.390625 288.171875 314.71875 288.304688 C 314.980469 288.433594 315.242188 289.09375 315.242188 289.75 C 315.242188 290.339844 315.699219 291.261719 316.222656 291.71875 C 316.75 292.179688 317.207031 293.035156 317.207031 293.691406 C 317.207031 294.347656 317.667969 295.203125 318.191406 295.664062 C 318.714844 296.121094 319.171875 297.042969 319.171875 297.699219 C 319.171875 298.355469 319.4375 299.011719 319.761719 299.210938 C 320.027344 299.40625 321.992188 302.890625 324.023438 306.964844 C 331.035156 320.890625 333.460938 325.558594 334.050781 326.214844 C 334.773438 327.132812 340.144531 337.910156 340.144531 338.566406 C 340.144531 338.828125 323.628906 339.027344 303.445312 339.027344 C 268.839844 339.027344 266.808594 338.960938 267.203125 337.910156 C 267.59375 336.726562 269.5625 332.390625 270.675781 330.289062 C 271.066406 329.695312 271.59375 328.644531 271.984375 327.988281 C 272.3125 327.398438 274.148438 323.785156 276.050781 319.972656 C 277.949219 316.160156 279.71875 312.941406 279.917969 312.746094 C 280.113281 312.546875 281.75 309.460938 283.585938 305.847656 C 285.421875 302.234375 288.566406 296.1875 290.597656 292.378906 C 293.875 286.070312 294.464844 284.953125 295.316406 282.851562 C 295.449219 282.457031 295.84375 281.734375 296.167969 281.207031 C 296.496094 280.683594 296.957031 279.761719 297.152344 279.238281 C 297.347656 278.710938 297.808594 277.792969 298.136719 277.265625 C 298.660156 276.28125 300.5625 272.667969 301.542969 270.695312 C 301.804688 270.167969 302.199219 269.183594 302.394531 268.527344 C 302.59375 267.9375 302.984375 267.410156 303.3125 267.410156 C 303.640625 267.410156 306.195312 272.074219 309.015625 277.726562 Z M 309.015625 277.726562 "/>
</g>
</svg>
