<?xml version="1.0" encoding="UTF-8" standalone="no"?>
<svg
   xmlns:dc="http://purl.org/dc/elements/1.1/"
   xmlns:cc="http://creativecommons.org/ns#"
   xmlns:rdf="http://www.w3.org/1999/02/22-rdf-syntax-ns#"
   xmlns:svg="http://www.w3.org/2000/svg"
   xmlns="http://www.w3.org/2000/svg"
   xmlns:sodipodi="http://sodipodi.sourceforge.net/DTD/sodipodi-0.dtd"
   xmlns:inkscape="http://www.inkscape.org/namespaces/inkscape"
   version="1.0"
   width="500.87503"
   height="108.9661"
   viewBox="0 0 400.70002 87.172882"
   preserveAspectRatio="xMidYMid meet"
   id="svg3125"
   inkscape:version="0.48.4 r9939"
   sodipodi:docname="415a6c7c0b7a53350e0659e431edac2f0e629ddf.svg">
  <defs
     id="defs3143" />
  <sodipodi:namedview
     pagecolor="#ffffff"
     bordercolor="#666666"
     borderopacity="1"
     objecttolerance="10"
     gridtolerance="10"
     guidetolerance="10"
     inkscape:pageopacity="0"
     inkscape:pageshadow="2"
     inkscape:window-width="1600"
     inkscape:window-height="824"
     id="namedview3141"
     showgrid="false"
     fit-margin-top="0"
     fit-margin-left="0"
     fit-margin-right="0"
     fit-margin-bottom="0"
     inkscape:zoom="0.42933333"
     inkscape:cx="534.375"
     inkscape:cy="111.2824"
     inkscape:window-x="0"
     inkscape:window-y="24"
     inkscape:window-maximized="1"
     inkscape:current-layer="svg3125" />
  <metadata
     id="metadata3127">
Created by potrace 1.10, written by Peter Selinger 2001-2011
<rdf:RDF>
  <cc:Work
     rdf:about="">
    <dc:format>image/svg+xml</dc:format>
    <dc:type
       rdf:resource="http://purl.org/dc/dcmitype/StillImage" />
  </cc:Work>
</rdf:RDF>
</metadata>
  <g
     transform="matrix(0.0465119,0,0,-0.0465119,-10.465177,98.788798)"
     id="g3129"
     style="fill:#000000;stroke:none">
    <path
       d="m 6259,2114 c -9,-10 -11,-67 -8,-212 l 4,-197 -35,3 c -19,2 -44,4 -55,5 -29,3 -29,-26 -1,-67 13,-20 34,-58 46,-84 12,-26 27,-58 34,-72 9,-18 12,-83 11,-220 l -2,-195 -83,0 -84,0 3,160 c 2,164 -1,195 -24,195 -23,0 -26,-31 -24,-195 l 3,-160 -99,0 -99,0 3,160 c 2,164 -1,195 -24,195 -23,0 -26,-31 -24,-195 l 3,-160 -99,0 -99,0 2,165 c 2,91 -1,171 -7,179 -5,8 -16,11 -26,8 -14,-6 -16,-27 -14,-179 l 2,-173 -84,0 -84,0 3,160 c 3,132 1,164 -12,180 -14,19 -16,19 -32,3 -15,-14 -17,-35 -15,-135 1,-65 4,-137 7,-160 5,-32 3,-43 -7,-44 -8,0 -52,-1 -99,-2 l -85,-2 0,167 c 0,180 -5,199 -45,178 -22,-12 -23,-14 -18,-176 5,-145 3,-164 -11,-167 -14,-4 -110,-2 -136,2 -6,0 -9,61 -6,165 3,161 3,164 -19,176 -39,21 -44,2 -44,-177 l -1,-168 -93,1 c -50,0 -94,3 -95,5 -2,2 0,74 4,159 7,145 7,156 -11,175 -38,37 -45,9 -45,-173 l 0,-166 -88,-1 c -49,0 -93,3 -99,6 -8,5 -9,55 -5,161 5,153 0,188 -28,188 -23,0 -28,-38 -24,-199 l 4,-156 -84,0 -85,0 3,160 c 2,164 -1,195 -24,195 -23,0 -26,-31 -24,-195 l 3,-160 -99,0 -99,0 3,160 c 2,164 -1,195 -24,195 -23,0 -26,-31 -24,-195 l 3,-160 -99,0 -99,0 2,165 c 2,91 -2,171 -7,179 -5,8 -16,11 -25,8 -15,-6 -17,-27 -16,-169 0,-90 1,-168 0,-174 0,-8 -27,-11 -82,-10 l -83,1 3,165 c 3,174 -2,204 -35,184 -16,-10 -18,-28 -17,-177 1,-191 14,-173 -116,-172 l -75,0 0,165 c 0,189 -8,216 -49,174 -18,-18 -20,-102 -7,-244 6,-60 5,-87 -3,-92 -11,-8 -119,-9 -146,-2 -13,3 -14,28 -12,168 3,153 2,165 -15,174 -40,22 -45,3 -47,-174 l -1,-169 -80,0 c -44,-1 -87,2 -95,6 -13,6 -14,27 -7,149 10,152 6,184 -20,194 -33,13 -38,-11 -38,-182 l 0,-167 -85,2 c -47,1 -90,2 -96,2 -8,1 -11,51 -10,167 1,150 -1,168 -17,178 -33,20 -38,-10 -35,-184 l 3,-165 -82,-1 c -56,-1 -83,2 -83,10 -1,6 0,84 0,174 1,142 -1,163 -16,169 -9,3 -20,0 -25,-8 -5,-8 -9,-88 -7,-179 l 2,-165 -99,0 -99,0 3,160 c 2,164 -1,195 -24,195 -23,0 -26,-31 -24,-195 l 3,-160 -85,0 -84,0 3,165 c 3,166 -3,198 -32,187 -13,-5 -16,-33 -18,-179 l -3,-173 -95,0 -95,0 4,156 c 4,162 -1,199 -24,199 -30,0 -35,-37 -28,-190 4,-106 3,-154 -5,-159 -6,-3 -50,-6 -99,-6 l -88,1 0,166 c 0,182 -7,211 -44,173 -18,-19 -19,-31 -12,-175 4,-85 6,-157 4,-159 -4,-6 -133,-10 -153,-5 -13,3 -14,28 -12,168 3,153 2,165 -15,174 -40,22 -45,3 -47,-174 l -1,-168 -86,-2 c -48,-1 -91,1 -97,5 -7,4 -7,22 -2,51 5,25 9,98 10,162 0,109 -1,118 -21,129 -38,20 -43,0 -44,-177 l 0,-167 -345,-1 c -338,-1 -345,-1 -345,-21 0,-20 8,-20 348,-23 l 349,-2 -2,-158 c -2,-211 -5,-194 28,-190 l 27,3 -1,173 -2,172 1134,0 1134,0 -3,-172 -2,-173 24,-3 c 13,-2 27,2 31,8 4,6 5,85 2,176 l -5,164 1137,0 1136,0 0,-174 c 0,-136 3,-175 13,-179 35,-13 39,7 36,176 -2,91 -1,169 2,172 8,7 2250,7 2258,0 3,-3 4,-82 2,-174 -2,-150 -1,-169 14,-175 9,-3 21,-4 26,0 5,3 9,84 9,180 l 0,174 275,2 c 151,1 287,2 303,2 27,1 27,0 27,-63 0,-73 12,-85 54,-53 36,26 155,86 214,108 26,9 47,22 47,29 0,7 -19,20 -42,30 -92,38 -155,68 -201,98 -42,26 -50,28 -63,16 -11,-12 -12,-25 -5,-64 5,-28 7,-52 5,-54 -3,-3 -142,-4 -311,-4 l -306,1 2,171 c 2,151 0,172 -14,178 -10,3 -21,0 -26,-8 -6,-8 -9,-88 -7,-179 l 2,-165 -84,0 -84,0 3,160 c 2,164 -1,195 -24,195 -22,0 -26,-31 -24,-195 l 2,-160 -99,0 -98,0 2,165 c 3,166 -3,198 -32,187 -13,-5 -16,-33 -18,-179 l -3,-173 -80,0 -80,0 0,167 c 0,182 -7,211 -44,173 -17,-19 -18,-32 -12,-175 4,-85 6,-157 4,-159 -2,-2 -45,-5 -95,-5 l -93,-1 -1,168 c 0,179 -5,198 -44,177 -22,-12 -22,-15 -18,-176 2,-90 1,-164 -2,-165 -28,-6 -173,-3 -177,4 -2,4 -4,82 -3,173 l 1,164 -31,0 -31,0 1,-164 c 1,-91 -1,-169 -4,-174 -4,-7 -91,-9 -155,-3 -9,1 -12,10 -7,34 3,17 6,90 7,160 2,110 0,131 -15,145 -16,16 -18,16 -32,-3 -12,-16 -15,-50 -12,-180 l 3,-160 -85,0 c -47,-1 -91,1 -97,3 -16,5 -19,332 -4,360 6,9 25,51 45,92 19,41 46,92 60,113 45,66 34,82 -45,67 -41,-8 -56,-7 -64,2 -9,9 -10,65 -5,198 4,102 5,190 3,197 -7,19 -31,23 -44,7 z"
       id="path3131"
       inkscape:connector-curvature="0" />
    <path
       d="m 862,584 c -22,-27 -31,-49 -35,-92 -7,-74 5,-146 30,-180 17,-23 28,-27 80,-30 57,-3 62,-1 88,29 26,32 27,35 23,147 -3,113 -3,114 -33,138 -22,18 -42,24 -77,24 -41,0 -50,-4 -76,-36 z m 117,-40 c 17,-21 21,-41 21,-96 0,-111 -39,-159 -90,-108 -17,17 -20,33 -20,105 0,72 3,88 20,105 27,27 44,25 69,-6 z"
       id="path3133"
       inkscape:connector-curvature="0" />
    <path
       d="m 3209,568 c -32,-29 -55,-59 -52,-65 7,-19 40,-16 52,4 18,33 26,1 26,-110 0,-109 1,-112 23,-115 44,-7 47,6 42,175 -4,130 -8,158 -20,161 -8,1 -40,-21 -71,-50 z"
       id="path3135"
       inkscape:connector-curvature="0" />
    <path
       d="m 5482,570 c -32,-23 -42,-37 -40,-53 5,-35 41,-33 76,4 32,35 63,34 83,-2 24,-46 -3,-86 -128,-195 -73,-62 -59,-74 87,-74 106,0 130,5 130,26 0,18 -42,28 -86,20 -19,-4 -44,-4 -55,-1 -18,6 -12,14 45,67 97,89 108,153 34,208 -50,37 -96,37 -146,0 z"
       id="path3137"
       inkscape:connector-curvature="0" />
    <path
       d="m 7906,593 c -11,-3 -37,-21 -58,-41 -36,-33 -38,-37 -22,-49 27,-20 41,-16 71,17 31,35 44,37 66,12 26,-28 20,-51 -18,-73 -38,-23 -47,-49 -16,-49 52,0 80,-40 59,-85 -9,-20 -18,-25 -48,-25 -30,0 -39,5 -48,25 -9,18 -19,25 -41,25 -16,0 -32,-3 -34,-7 -10,-17 13,-52 48,-73 53,-33 128,-25 167,19 36,41 39,101 6,123 -20,14 -21,18 -10,42 13,30 16,75 4,92 -9,14 -83,54 -97,53 -5,-1 -19,-4 -29,-6 z"
       id="path3139"
       inkscape:connector-curvature="0" />
  </g>
</svg>
