<?xml version="1.0" encoding="UTF-8" standalone="no"?>
<svg
   xmlns:dc="http://purl.org/dc/elements/1.1/"
   xmlns:cc="http://creativecommons.org/ns#"
   xmlns:rdf="http://www.w3.org/1999/02/22-rdf-syntax-ns#"
   xmlns:svg="http://www.w3.org/2000/svg"
   xmlns="http://www.w3.org/2000/svg"
   xmlns:sodipodi="http://sodipodi.sourceforge.net/DTD/sodipodi-0.dtd"
   xmlns:inkscape="http://www.inkscape.org/namespaces/inkscape"
   version="1.0"
   width="500"
   height="172.84743"
   viewBox="0 0 400 138.27794"
   preserveAspectRatio="xMidYMid meet"
   id="svg3541"
   inkscape:version="0.48.4 r9939"
   sodipodi:docname="4645e39476fe85ca9ce06f1904cf08de084e6cf4.svg">
  <defs
     id="defs3649" />
  <sodipodi:namedview
     pagecolor="#ffffff"
     bordercolor="#666666"
     borderopacity="1"
     objecttolerance="10"
     gridtolerance="10"
     guidetolerance="10"
     inkscape:pageopacity="0"
     inkscape:pageshadow="2"
     inkscape:window-width="1600"
     inkscape:window-height="824"
     id="namedview3647"
     showgrid="false"
     inkscape:zoom="0.816"
     inkscape:cx="563.5352"
     inkscape:cy="122.70244"
     inkscape:window-x="0"
     inkscape:window-y="24"
     inkscape:window-maximized="1"
     inkscape:current-layer="g3545"
     fit-margin-top="0"
     fit-margin-left="0"
     fit-margin-right="0"
     fit-margin-bottom="0" />
  <metadata
     id="metadata3543">
Created by potrace 1.10, written by Peter Selinger 2001-2011
<rdf:RDF>
  <cc:Work
     rdf:about="">
    <dc:format>image/svg+xml</dc:format>
    <dc:type
       rdf:resource="http://purl.org/dc/dcmitype/StillImage" />
  </cc:Work>
</rdf:RDF>
</metadata>
  <g
     transform="matrix(0.1,0,0,-0.1,-127,144.2461)"
     id="g3545"
     style="fill:#000000;stroke:none">
    <path
       d="m 3399.173,1434.0773 c -5.3203,-13.3007 -4.7882,-324.0045 0.5321,-329.8568 2.6601,-2.1282 92.5727,-4.7883 199.5101,-5.3203 l 195.2541,-1.0641 1.596,-258.56519 1.0641,-258.0332 15.9608,0 c 11.7046,0 15.9608,2.66013 16.4928,9.57649 0,4.78824 0,119.17409 0,253.77699 -0.532,134.60289 1.0641,247.39261 3.1922,250.05281 2.6601,3.1921 75.5478,5.3202 198.4461,5.3202 158.5442,0 242.0724,2.1281 288.8908,7.4485 2.1281,0.5319 3.1922,75.5478 2.6602,167.0565 l -1.5961,165.9925 -459.1395,1.5961 c -433.6022,1.064 -459.1396,0.532 -462.8637,-7.9805 z m 888.4855,-36.1778 c 2.1281,-2.6601 4.2561,-65.9713 4.2561,-139.3912 l 0,-134.6028 -430.41,0 c -285.6986,0 -432.006,1.5961 -434.1341,5.3203 -5.3204,8.5124 -2.6602,261.7573 2.1281,268.1417 6.3842,7.9804 852.8396,7.9804 858.1599,0.532 z"
       id="path3547"
       inkscape:connector-curvature="0" />
    <path
       d="m 3580.0623,1348.421 c -4.7883,-3.7242 -6.3844,-24.4732 -5.3203,-86.7205 1.596,-80.8681 1.596,-81.9322 13.8327,-83.5282 19.685,-2.6601 27.6654,7.9804 27.1334,35.6458 -1.0641,34.0497 7.9804,54.7988 23.4091,52.6707 10.1086,-1.5961 12.2367,-5.3202 14.3648,-33.5177 4.2563,-47.3505 16.4928,-63.8433 36.7099,-51.0747 5.3203,3.1922 6.3843,9.5766 3.1922,19.685 -2.1282,8.5125 -4.7883,25.5374 -6.3844,38.306 -1.5961,14.8968 -6.3843,24.4732 -12.7686,28.1975 -17.0249,9.0445 -12.7687,32.9857 8.5124,49.4785 21.8131,17.0249 23.9413,28.1975 4.7883,32.9857 -11.1726,2.6601 -17.0249,-0.5321 -36.7099,-20.7491 -12.7687,-13.3007 -23.9412,-28.1974 -25.0053,-33.5177 -0.5321,-5.3202 -4.7882,-10.1085 -9.0445,-11.7046 -5.8522,-2.1281 -6.3843,3.1922 -3.7241,27.1334 3.1921,26.0694 2.6601,30.3255 -6.9165,35.1138 -12.2365,6.9164 -17.0247,6.9164 -26.0692,1.5961 z"
       id="path3549"
       inkscape:connector-curvature="0" />
    <path
       d="m 3771.06,1339.9086 c -6.9163,-7.4484 -10.6405,-15.4289 -8.5124,-18.621 5.3202,-9.5765 32.4537,-6.3843 42.5622,4.7882 21.8131,23.9412 -11.7046,37.2419 -34.0498,13.8328 z"
       id="path3551"
       inkscape:connector-curvature="0" />
    <path
       d="m 3924.8159,1344.6968 c -12.2366,-14.8968 -4.2562,-26.6014 18.6209,-26.6014 15.9609,0 21.8131,2.1281 22.8772,9.5765 2.6601,13.3007 -8.5124,25.0053 -22.8772,25.0053 -6.3843,0 -14.8967,-3.7241 -18.6209,-7.9804 z"
       id="path3553"
       inkscape:connector-curvature="0" />
    <path
       d="m 3860.9726,1312.7752 -17.5569,-18.089 9.5765,-18.0889 c 6.9164,-12.7686 8.5124,-24.4732 6.9164,-39.9021 -2.6601,-17.0248 -0.5321,-25.5372 9.5764,-40.434 13.8327,-20.749 16.4929,-21.8131 28.7295,-13.8327 6.3844,3.7242 6.3844,7.4483 1.064,22.8772 -9.0444,25.0053 -7.9804,67.5674 1.5962,78.2079 7.4483,7.9804 7.4483,9.5766 0,15.9609 -4.2563,3.7241 -7.9804,12.2366 -7.9804,19.153 0,18.0889 -10.6406,15.9608 -31.9217,-5.8523 z"
       id="path3555"
       inkscape:connector-curvature="0" />
    <path
       d="m 3734.3502,1288.3019 c -9.5766,-15.4288 -5.3203,-17.5569 19.6849,-11.7046 21.8131,5.8523 43.0943,0 25.5373,-6.3843 -4.7882,-2.1281 -18.6209,-12.7687 -30.3255,-23.4092 -24.4733,-22.3452 -27.1334,-37.7739 -8.5125,-56.3949 11.1726,-11.1726 16.4929,-12.7687 41.4982,-10.1085 43.6262,4.7882 41.4981,2.1281 41.4981,51.6066 0,39.37 -1.596,45.7543 -12.2366,55.8629 -17.5569,16.4928 -67.0354,17.0249 -77.1439,0.532 z m 59.055,-56.3949 c 4.2562,-7.4484 -6.3844,-28.1975 -14.8967,-28.1975 -9.5766,0 -15.9609,12.7687 -11.1726,23.9413 3.1921,7.9804 21.8131,11.1726 26.0693,4.2562 z"
       id="path3557"
       inkscape:connector-curvature="0" />
    <path
       d="m 3927.476,1292.5581 c -1.596,-3.7242 -2.1281,-29.7935 -1.596,-57.4589 l 1.596,-50.0106 15.9608,0 15.9609,0 0,55.8629 0,55.8629 -14.8968,1.596 c -8.5124,1.0641 -15.4288,-1.0641 -17.0249,-5.8523 z"
       id="path3559"
       inkscape:connector-curvature="0" />
    <path
       d="m 4000.3638,1286.7058 c -13.3008,-14.3648 -7.4485,-22.8771 9.0444,-13.8327 13.3008,6.9164 39.37,6.9164 35.1139,0 -1.5962,-2.6601 -7.9805,-5.3203 -13.8327,-5.3203 -5.3203,0 -10.1086,-3.7241 -10.1086,-7.9804 0,-4.2562 -6.9163,-14.3647 -15.9608,-22.3451 -19.153,-17.0249 -20.2171,-27.6655 -3.1922,-43.6263 10.6405,-9.5764 20.2171,-12.7686 44.1583,-13.3006 17.0249,-0.5321 34.0497,1.0641 37.7739,3.7242 4.2562,3.1921 6.3843,19.6849 6.3843,48.4144 0,38.838 -1.596,45.2223 -12.2365,55.3309 -18.089,17.0249 -60.1192,16.4928 -77.144,-1.0641 z m 49.4785,-64.9073 c 0,-12.7686 -2.1282,-15.4288 -13.3007,-15.4288 -10.1085,0 -12.7687,2.1281 -11.7046,10.6406 4.7883,26.6013 25.0053,30.8575 25.0053,4.7882 z"
       id="path3561"
       inkscape:connector-curvature="0" />
    <path
       d="m 4317.452,1093.58 c -29.7935,-1.5962 -47.8824,-4.2563 -51.6066,-9.0445 -4.2563,-4.7882 -5.3203,-55.8629 -4.7883,-165.99253 l 1.5961,-159.07614 204.8304,-2.66013 204.8306,-2.66015 0,-87.78449 c 0,-84.0603 0.5319,-87.78449 10.6405,-87.78449 10.1085,0 10.6406,4.25622 12.2366,89.38058 l 1.0641,88.84855 244.2005,0 c 217.5992,0 244.7325,1.06405 247.3927,8.51243 5.3202,13.83271 3.7241,312.83197 -2.1281,321.34447 -4.2563,6.9164 -56.395,7.9804 -413.3852,8.5124 -224.5155,0 -429.346,-0.532 -454.8833,-1.596 z m 840.6031,-25.5374 c 4.7882,-1.5961 6.3842,-35.1138 6.3842,-140.98719 0,-106.93747 -1.596,-138.32709 -6.3842,-138.32709 -3.7243,0 -199.5103,-0.53202 -435.1984,-0.53202 l -428.2819,0 -1.5961,137.26303 c -0.532,75.54787 -0.532,139.39117 1.0641,142.58327 1.5961,5.3203 849.1155,5.3203 864.0123,0 z"
       id="path3563"
       inkscape:connector-curvature="0" />
    <path
       d="m 4414.813,1023.3523 c -5.3202,-3.7241 -7.4484,-22.8771 -7.9805,-80.8681 -0.5319,-42.03015 1.0641,-79.80408 3.7242,-82.99625 3.1922,-4.78824 20.7492,-6.91635 51.6067,-6.91635 l 46.8184,0 11.1726,22.87716 c 12.7687,26.60137 13.8327,36.17786 4.7882,60.65111 -5.3203,14.36474 -5.3203,20.21703 0,28.19744 9.5765,15.42879 7.9805,34.04975 -4.7882,50.01059 -10.1085,12.7686 -13.8328,13.8327 -54.2668,13.8327 -23.9412,0 -46.8184,-2.1281 -51.0746,-4.7883 z m 76.0799,-25.00524 c 20.749,-20.74906 -3.1922,-47.88245 -31.3897,-35.1138 -15.4287,6.91635 -17.0249,20.21703 -4.2561,34.04974 10.6405,11.7046 24.4732,12.2366 35.6458,1.06406 z m 3.1922,-65.97138 c 3.192,-6.38433 5.3202,-18.62095 4.2561,-28.19745 -1.596,-16.49283 -2.6601,-17.02486 -25.5373,-17.02486 -22.8771,0 -23.9412,0.53203 -25.5372,17.02486 -2.6602,24.47326 6.9163,38.838 25.5372,38.838 10.1086,0 17.5569,-3.7242 21.2812,-10.64055 z"
       id="path3565"
       inkscape:connector-curvature="0" />
    <path
       d="m 4756.9065,1020.6922 c -6.3844,-15.9608 0.532,-27.13338 16.4928,-28.72947 22.3452,-1.59608 31.3896,5.32027 27.1334,22.34517 -2.6601,11.7046 -6.3843,13.8327 -22.3451,13.8327 -11.1726,0 -19.6851,-3.1922 -21.2811,-7.4484 z"
       id="path3567"
       inkscape:connector-curvature="0" />
    <path
       d="m 4699.4476,996.21895 c -12.7688,-15.42879 -13.3007,-18.08893 -10.1086,-62.77921 2.1282,-27.13339 5.8523,-48.41449 10.1086,-51.60665 3.7241,-2.66013 7.4483,-10.10851 8.5124,-15.96081 2.6601,-14.89677 28.1974,-17.5569 32.4537,-3.19216 1.0639,5.85229 -1.0641,15.96081 -5.3203,22.34513 -6.9164,9.04447 -7.4484,20.21705 -4.7882,55.33084 3.192,43.0942 -1.5962,71.82371 -12.2367,71.82371 -2.6601,0 -11.1726,-7.4484 -18.6209,-15.96085 z"
       id="path3569"
       inkscape:connector-curvature="0" />
    <path
       d="m 4971.8454,972.80975 c -9.5764,-6.91636 -12.7686,-19.68501 -6.3842,-25.53731 1.596,-2.12811 9.5764,0.53203 18.0889,5.32028 8.5124,4.78824 17.0249,6.91635 19.1529,5.32027 5.3203,-5.8523 -12.7686,-30.32556 -27.1333,-37.24191 -16.4929,-7.44838 -18.621,-23.40919 -6.9163,-47.88245 9.5764,-20.21703 9.5764,-20.21703 43.6262,-20.21703 20.749,0 35.6458,2.66013 39.3699,6.91635 4.2563,4.78825 5.3203,57.99097 1.5962,98.42504 -1.5962,17.5569 -63.3113,28.72947 -81.4003,14.89676 z m 48.9466,-72.3557 c 0,-13.30068 -2.1282,-15.96082 -13.3006,-15.96082 -11.1726,0 -13.3008,2.66014 -13.3008,15.96082 0,13.30068 2.1282,15.96082 13.3008,15.96082 11.1724,0 13.3006,-2.66014 13.3006,-15.96082 z"
       id="path3571"
       inkscape:connector-curvature="0" />
    <path
       d="m 4572.293,965.36136 c -10.1085,-11.17256 -12.7686,-68.6315 -4.2562,-85.12435 2.6602,-4.78825 6.3843,-13.30068 7.9804,-18.62095 2.6602,-7.98041 7.9804,-9.57649 33.5178,-7.98041 29.2615,1.59608 31.3895,2.66014 39.902,20.21703 11.1726,21.81312 5.3202,31.38962 -12.2367,19.15298 -22.8771,-15.42879 -40.9661,-8.51243 -34.0497,13.30069 3.1922,9.04446 7.4484,10.10852 28.1975,9.04446 l 25.0053,-1.59608 1.596,22.34514 c 1.0641,17.5569 -0.532,23.4092 -10.6405,30.32556 -17.0249,12.23662 -63.8433,11.17257 -75.0159,-1.06407 z m 54.7988,-22.34513 c 0,-12.76866 -13.8327,-20.21704 -22.3451,-11.7046 -8.5125,8.51243 -1.064,22.34514 11.7046,22.34514 6.9164,0 10.6405,-3.72419 10.6405,-10.64054 z"
       id="path3573"
       inkscape:connector-curvature="0" />
    <path
       d="m 4829.7942,967.48948 c -4.2562,-4.78825 -5.8523,-25.53731 -4.7882,-59.58705 1.596,-52.13867 1.596,-52.6707 14.8968,-52.6707 12.7686,0 13.3006,1.59608 15.9608,40.9661 2.1281,29.2615 5.3202,43.62623 11.7046,50.01056 8.5123,8.51243 9.5764,8.51243 14.8967,-6.38433 3.7242,-8.51243 4.2563,-26.06933 2.6601,-40.43407 -5.3202,-36.70987 0,-47.88245 20.2171,-45.75434 l 17.0249,1.59608 0,53.20273 c 0,51.60664 -0.532,53.20272 -14.3648,60.6511 -11.7046,6.91636 -15.9608,6.91636 -27.1333,1.06405 -9.5766,-5.32027 -15.9609,-5.32027 -23.9413,-1.06405 -14.3647,7.44838 -19.685,7.44838 -27.1334,-1.59608 z"
       id="path3575"
       inkscape:connector-curvature="0" />
    <path
       d="m 4763.2909,963.23326 c -1.5962,-3.72419 -3.7243,-27.66542 -4.7884,-53.20272 -2.6601,-50.54259 1.0641,-59.58706 23.9413,-56.39489 11.7046,1.59608 12.2366,3.19216 12.2366,57.45894 l 0,55.86286 -14.8967,1.59608 c -8.5124,1.06406 -15.4288,-1.06405 -16.4928,-5.32027 z"
       id="path3577"
       inkscape:connector-curvature="0" />
    <path
       d="m 1491.8554,1077.0871 c -7.4484,-1.5961 -9.0445,-15.9609 -10.1086,-125.02641 -1.064,-68.09949 -0.532,-142.5833 1.0641,-165.9925 l 2.6601,-42.56218 236.7521,-2.66013 236.7522,-2.66014 -2.1281,-61.18313 c -0.5321,-33.51772 -2.6602,-63.31125 -4.2563,-65.43935 -1.596,-2.66014 -1.064,-10.10852 0.5321,-17.5569 2.6601,-10.10852 6.9163,-12.76865 19.685,-12.76865 8.5124,0 17.0248,3.19216 18.0889,6.91636 1.5961,3.19216 0.532,37.77393 -2.1281,75.54786 -3.7242,51.07461 -3.1922,70.22759 1.5961,72.88772 3.1921,2.12812 97.361,4.25623 209.0867,4.25623 195.786,0 203.7664,0.53202 209.0867,10.10851 8.5124,15.96082 7.4483,319.21631 -1.0641,322.40851 -7.9804,2.6601 -901.7861,6.3844 -915.6188,3.7242 z m 886.3573,-164.92846 c 0,-78.74003 -1.596,-130.8787 -4.7882,-134.07086 -3.7242,-3.72418 -154.8199,-4.78824 -430.9421,-4.25621 l -425.0897,1.59608 -2.6602,130.34667 c -1.5961,71.82368 -2.1281,131.94278 -1.064,134.60288 1.064,2.1281 195.786,3.1922 433.0701,2.6601 l 430.9421,-1.596 0.532,-129.28266 z"
       id="path3579"
       inkscape:connector-curvature="0" />
    <path
       d="m 1767.9775,993.02679 c -11.1726,-11.17258 -9.0445,-160.14021 2.6601,-167.58859 3.7242,-2.66013 27.1334,-4.78824 51.6067,-4.78824 l 44.1582,0 -1.596,14.89677 c -1.5961,13.8327 -3.1922,14.36473 -31.9217,15.96081 l -30.3255,1.59609 -1.5961,69.69556 c -1.5961,66.5034 -2.1281,69.69556 -13.3007,73.95179 -7.9804,3.19216 -14.3647,2.1281 -19.685,-3.72419 z"
       id="path3581"
       inkscape:connector-curvature="0" />
    <path
       d="m 2041.9715,986.64246 c -14.8967,-21.2811 -13.8327,-27.66541 3.7242,-27.66541 21.2811,0 34.5818,11.17256 31.9216,27.13338 -2.6601,19.15297 -21.8131,19.68497 -35.6458,0.53203 z"
       id="path3583"
       inkscape:connector-curvature="0" />
    <path
       d="m 2031.331,946.20839 c -5.3203,-6.38433 -7.9804,-51.60665 -6.3844,-110.12964 0.5321,-4.78825 4.7883,-10.10851 10.1086,-11.17257 20.217,-5.32027 22.3451,0 22.3451,56.39489 0,46.81839 -1.5961,55.86285 -10.1085,63.84326 -8.5125,7.44839 -10.6406,7.98041 -15.9608,1.06406 z"
       id="path3585"
       inkscape:connector-curvature="0" />
    <path
       d="m 1903.1124,933.97176 c -10.6405,-10.64054 -11.7046,-13.83271 -5.3203,-17.55689 4.2563,-2.66014 11.1726,-2.66014 16.4929,0 4.7882,2.66013 10.1085,3.19215 12.2366,1.59608 6.9164,-6.91636 2.6601,-15.4288 -15.4288,-27.66542 -23.4092,-15.96082 -25.0053,-35.1138 -3.7242,-55.33083 11.7046,-11.7046 20.2171,-14.36474 40.4341,-14.36474 42.5622,0 45.7543,4.25622 45.7543,56.39488 0,40.96611 -1.064,46.28638 -13.3006,57.99098 -18.089,18.62095 -57.991,18.08892 -77.144,-1.06406 z m 58.523,-48.94651 c 8.5124,-15.96081 -2.1281,-38.83798 -17.5569,-36.70987 -17.0249,2.1281 -19.153,24.47325 -2.6601,37.2419 14.8967,11.70461 13.3007,11.70461 20.217,-0.53203 z"
       id="path3587"
       inkscape:connector-curvature="0" />
    <path
       d="m 2089.854,931.31163 c -9.0445,-9.5765 -16.4929,-20.21704 -16.4929,-23.4092 0,-8.51244 12.7687,-18.08893 30.3256,-22.87718 9.5765,-2.66013 16.4928,-9.04446 19.685,-18.08892 6.9163,-18.62095 1.5961,-22.34514 -18.0889,-14.36473 -12.7687,5.32027 -18.089,5.32027 -22.8772,0.53203 -4.7883,-5.32028 -3.1922,-9.57649 8.5124,-19.68502 21.8131,-18.62095 52.6707,-17.5569 73.4198,2.66014 25.5373,26.06934 18.0889,45.75434 -22.8772,59.05502 -14.8968,4.25622 -20.217,9.04446 -20.217,17.02487 0,7.98041 2.1281,9.57649 9.5765,6.91636 21.281,-9.57649 38.3059,-9.04446 41.4981,0 5.3203,13.83271 -17.5569,29.26149 -44.1583,29.26149 -18.6209,0 -25.0053,-3.19216 -38.3059,-17.02486 z"
       id="path3589"
       inkscape:connector-curvature="0" />
    <path
       d="m 2520.264,1077.0871 c -5.8523,-2.1282 -7.9804,-312.83202 -2.1281,-327.72879 2.6601,-7.44838 28.7295,-8.51243 238.8802,-8.51243 129.8147,0 239.9443,-1.59608 244.2005,-3.19216 6.9163,-2.66015 7.9804,-8.51244 6.3844,-28.19745 -1.5962,-13.30068 -4.2563,-46.28637 -5.8523,-73.41976 -2.6602,-46.28636 -2.1282,-49.47853 8.5124,-54.7988 20.217,-11.17258 23.4092,0 23.4092,81.40016 l 0,75.54787 205.8945,1.59608 c 201.6383,1.06406 206.4266,1.59608 211.7469,12.23663 7.9804,14.36474 5.3202,310.17185 -2.6602,318.15225 -5.3202,5.3203 -914.0228,11.7046 -928.3875,6.9164 z m 901.7861,-33.5177 c 3.1922,-2.6602 5.3204,-54.26681 5.3204,-136.199 l 0,-131.94275 -444.2429,0 -444.2427,0 1.0641,133.00681 1.0641,133.00684 424.5577,2.6601 c 233.56,1.5961 430.41,2.6601 437.8584,3.1922 7.4484,0 15.9608,-1.5961 18.6209,-3.7242 z"
       id="path3591"
       inkscape:connector-curvature="0" />
    <path
       d="m 2617.093,973.8738 c -3.7243,-3.72419 -6.3844,-10.64054 -6.3844,-15.42878 0,-5.32028 -2.1281,-11.17258 -5.3203,-12.76866 -2.6601,-1.59608 -5.3202,-11.17257 -5.3202,-20.74906 0,-10.10851 -3.7243,-20.74907 -7.9804,-24.47325 -4.2562,-3.72419 -9.0445,-14.89677 -10.6406,-26.06934 -1.5961,-10.64054 -5.3202,-23.4092 -8.5124,-28.19744 -2.6601,-5.32028 -4.7882,-16.49285 -4.7882,-25.53731 0,-14.36474 1.596,-15.96082 15.9608,-15.96082 13.3006,0 15.9608,2.12811 15.9608,12.76866 0,18.08893 5.3202,20.21703 53.7348,22.34514 38.8379,2.12811 42.0301,1.59608 42.0301,-7.98041 0,-18.08892 6.3843,-27.13339 18.6209,-27.13339 18.089,0 22.3452,18.62096 8.5124,37.77393 -6.3842,7.98041 -11.1725,20.21705 -11.1725,26.06934 0,6.38433 -3.7242,18.08892 -7.9804,26.06933 -4.2562,8.51244 -6.3843,16.49285 -4.2562,18.08893 6.9163,7.44838 -4.2563,29.79353 -15.4289,31.38961 -6.9163,1.06405 -15.4287,7.98041 -19.1529,16.49285 -3.7242,7.9804 -11.1725,14.36472 -17.0248,14.36472 -5.3203,0 -12.7688,1.06407 -17.0249,2.66015 -3.7243,1.59608 -10.1085,0 -13.8327,-3.7242 z m 30.8576,-56.92691 c 0,-5.32027 3.7241,-12.76866 7.9804,-16.49284 11.7045,-9.57649 10.1085,-35.64583 -2.1281,-42.56218 -17.0249,-9.04447 -32.4538,-6.38433 -37.242,6.38433 -5.8523,15.42879 -1.596,29.79352 10.6405,36.70987 5.8524,2.66014 10.1086,10.64055 10.1086,18.62095 0,7.44839 2.1281,11.70461 5.3203,10.10852 3.1921,-1.59608 5.3203,-7.44837 5.3203,-12.76865 z"
       id="path3593"
       inkscape:connector-curvature="0" />
    <path
       d="m 2944.2897,970.68164 c -6.3843,-6.91635 -7.9804,-14.89676 -5.8523,-28.19744 2.1281,-12.76866 0.5321,-20.74907 -4.7882,-25.00528 -6.9164,-5.8523 -6.3844,-9.04446 3.1921,-27.66542 11.1726,-19.685 11.1726,-21.28109 2.1282,-39.37002 -9.5766,-20.21703 -21.2812,-24.47324 -29.2616,-10.64054 -5.8523,10.10852 -1.596,60.65111 5.3203,69.69557 8.5124,10.64054 1.0641,24.47325 -10.1085,18.08892 -26.6013,-14.36473 -29.7935,-20.21703 -31.3897,-51.60664 -1.064,-25.53731 1.0641,-35.1138 11.7047,-51.07461 13.8327,-21.28109 30.3255,-26.06934 38.3059,-11.7046 4.7882,7.98041 6.3844,7.98041 21.8131,-1.06405 12.2367,-6.91636 18.089,-7.98041 22.3452,-3.72419 7.9804,7.9804 11.1726,155.88397 3.7242,165.46046 -7.9804,9.04446 -17.0249,7.98041 -27.1334,-3.19216 z"
       id="path3595"
       inkscape:connector-curvature="0" />
    <path
       d="m 3131.0313,969.08556 c -12.2367,-9.04446 -13.8327,-12.76866 -9.0445,-21.81312 3.1922,-5.85229 4.7882,-11.17257 3.7242,-11.7046 -1.0641,-0.53202 -9.5765,-6.91635 -19.153,-13.83271 l -18.0889,-12.23662 2.1281,-43.62623 c 2.1281,-55.33083 6.3843,-61.18314 47.3504,-61.18314 27.1334,0 32.4537,1.59608 39.902,13.30069 4.2563,6.91635 6.9164,15.42878 4.7883,18.62095 -4.2562,6.91636 -22.3451,6.91636 -26.6014,0 -5.3203,-8.51244 -29.2615,-6.38433 -32.9857,3.19216 -4.7882,12.23663 8.5125,18.62095 35.6458,17.02487 23.4093,-1.59608 23.9413,-1.06405 28.7295,18.08893 5.8524,23.94123 -5.3202,44.69028 -29.2614,53.20272 -19.685,6.91636 -19.685,11.7046 1.064,20.21703 11.7046,4.78825 15.4288,9.5765 14.3647,18.08894 -2.1281,15.42878 -24.4732,16.49283 -42.5621,2.66013 z m 19.153,-61.18313 c 6.9163,-17.5569 3.1921,-23.4092 -12.7687,-23.4092 -17.0249,0 -17.5569,1.06405 -12.7687,20.21704 3.7243,13.30068 20.7491,15.96081 25.5374,3.19216 z"
       id="path3597"
       inkscape:connector-curvature="0" />
    <path
       d="m 3217.2197,969.61759 c -4.7883,-9.04446 -4.2562,-13.83271 2.6601,-24.47326 6.3844,-9.57649 6.9164,-15.42879 2.6601,-23.4092 -3.1922,-6.38432 -4.7882,-32.98568 -4.2561,-62.77921 l 1.596,-51.60664 15.9608,0 15.9609,0 0.5319,66.5034 c 0.5321,36.70988 2.6602,70.75963 4.7884,76.61193 10.1084,23.40919 -27.6655,41.49812 -39.9021,19.15298 z"
       id="path3599"
       inkscape:connector-curvature="0" />
    <path
       d="m 2792.1299,923.33122 c -3.7242,-7.44838 -6.3844,-7.98041 -12.7686,-2.12812 -4.7882,3.7242 -13.8327,5.85231 -20.7491,4.78825 -11.7046,-1.59608 -12.2366,-3.19216 -12.2366,-60.11907 0,-57.45894 0,-58.523 12.7686,-60.11908 17.557,-2.66014 22.3452,7.44838 18.6209,41.49812 -2.128,23.40921 -0.5319,32.45367 7.9804,46.8184 20.2171,31.38961 28.7296,17.5569 29.2616,-46.8184 l 0.5321,-39.90204 15.9608,0 15.9608,0 -1.5961,50.54259 c -1.5961,47.35043 -2.6602,51.07461 -15.9609,62.24718 -17.0248,14.36474 -30.8575,15.42879 -37.7739,3.19217 z"
       id="path3601"
       inkscape:connector-curvature="0" />
    <path
       d="m 3015.5814,924.9273 c -4.2563,-4.78825 -5.8523,-26.60136 -4.7883,-62.24718 l 1.5961,-55.33084 14.8967,-1.59608 c 16.4929,-2.12811 15.9609,-3.72419 16.4929,53.73475 0.532,39.37002 1.5961,42.56218 15.4288,52.67069 7.9804,5.85231 13.3007,12.76866 11.1726,15.42879 -4.7883,7.44839 -47.8825,5.85231 -54.7988,-2.66013 z"
       id="path3603"
       inkscape:connector-curvature="0" />
    <path
       d="m 3298.0878,919.075 c -10.6405,-11.17257 -11.1725,-13.8327 -4.7883,-16.49285 4.7883,-1.59608 14.3648,1.06406 21.8131,5.85231 12.7688,8.51243 24.4734,7.44838 24.4734,-3.19216 0,-2.66015 -7.4485,-9.5765 -16.4929,-14.89677 -15.9609,-9.57649 -36.7099,-37.2419 -36.7099,-48.94651 0,-3.19216 4.7882,-12.76865 11.1726,-21.28108 10.6405,-15.4288 12.7686,-15.96082 46.2864,-14.36474 l 35.6458,1.59608 1.596,52.13867 c 1.5962,48.94651 0.5321,52.67069 -10.6405,62.24718 -18.6209,15.42879 -56.3949,14.36474 -72.3557,-2.66013 z m 49.4786,-67.03543 c 0,-14.89676 -2.1282,-18.62096 -12.2367,-19.68501 -15.9608,-2.66014 -20.2171,11.17258 -7.9804,27.66541 12.7686,17.5569 20.2171,14.89677 20.2171,-7.9804 z"
       id="path3605"
       inkscape:connector-curvature="0" />
    <path
       d="m 1317.8825,637.10057 c -5.3203,-6.91636 -6.3844,-36.17786 -3.7242,-135.13492 3.1921,-108.53356 2.1281,-127.68654 -4.7883,-137.79505 -4.2562,-6.38433 -7.4484,-17.02488 -6.3843,-23.94123 l 1.5961,-11.7046 1944.5596,-1.06405 1944.5595,-1.06406 1.596,-23.94122 c 1.5961,-20.74906 3.7242,-25.00529 14.8968,-27.66542 17.0248,-4.25622 24.4733,2.66013 32.9857,31.3896 4.2562,13.30069 11.7045,28.19745 17.5569,33.51772 13.3006,12.23663 12.7687,15.96082 -4.7883,26.06933 -7.9804,4.78825 -20.7491,17.02488 -27.6654,27.13339 -17.0249,25.00528 -28.7295,21.81312 -31.9216,-8.51243 -2.6601,-22.34514 -3.7242,-23.94122 -19.685,-25.53731 -11.7046,-1.06405 -17.5569,0.53203 -18.089,5.32028 -0.5319,3.72418 0,64.37529 0.5321,134.60288 0.532,70.2276 -1.064,131.94276 -2.6602,136.73101 -5.3202,12.76864 -21.281,12.23662 -27.1334,-1.06406 -2.6601,-6.38433 -3.1921,-65.43935 -1.596,-137.26303 2.1281,-69.16354 2.1281,-127.68653 1.064,-129.81465 -1.064,-2.66013 -25.0053,-4.25621 -52.6707,-4.25621 -36.1778,0 -50.0105,1.59608 -50.5426,6.91636 -0.532,3.19216 0,43.0942 0.5321,87.25246 1.064,70.2276 0,81.9322 -7.4485,84.59233 -4.7882,1.59608 -12.2365,0.53203 -16.4928,-3.19216 -9.5764,-7.98041 -11.1725,-82.99625 -2.1281,-129.81465 7.9804,-43.09421 4.2563,-45.75434 -55.8628,-45.75434 -35.6458,0 -52.1387,2.12811 -60.6511,8.51244 -10.6405,7.44838 -12.2367,7.44838 -14.8968,0 -4.2562,-11.7046 -79.8041,-12.23663 -96.2969,-0.53203 -10.1085,6.91636 -11.7047,6.91636 -14.3648,-0.53203 -2.6601,-6.91635 -12.2366,-7.9804 -60.1191,-5.8523 -69.6955,3.19216 -57.4589,3.19216 -122.3662,0 -43.0942,-1.59608 -54.7988,-0.53202 -55.3308,4.78825 -0.5321,3.72419 -0.5321,43.09421 0,86.72044 1.064,80.86814 -2.1281,97.36098 -17.5569,91.50868 -7.4484,-3.19216 -8.5124,-15.96082 -8.5124,-94.16882 l 0,-90.44463 -52.1387,0 c -28.7295,0 -54.7988,2.66013 -57.4589,5.32028 -4.2563,4.25621 -10.1086,4.25621 -20.2171,0 -20.2171,-7.44838 -80.8682,-6.91636 -93.6368,1.06405 -8.5125,5.32027 -12.7686,5.32027 -21.2811,0 -13.8327,-8.51243 -76.6119,-8.51243 -90.4446,0 -8.5125,5.32027 -12.7686,5.32027 -21.2811,0 -15.9609,-9.57649 -108.5336,-8.51243 -117.046,1.59608 -5.8523,7.44838 -7.4484,7.44838 -12.7687,0 -4.7882,-6.91635 -15.9607,-7.98041 -56.3949,-6.91635 l -50.5425,1.59607 -0.5321,111.72573 c -0.532,130.34667 -4.2561,150.5637 -22.8772,128.21856 -4.7882,-5.8523 -6.3842,-39.90204 -5.8522,-118.64207 0.532,-60.65111 0.532,-113.85383 0.532,-117.04599 -0.532,-10.10852 -97.893,-9.57649 -105.8734,0 -4.2562,4.78824 -4.2562,17.02487 -0.5321,41.49811 7.9804,51.60665 4.2563,121.83424 -6.9163,128.7506 -6.3843,4.25622 -11.1726,3.72419 -17.5569,-1.59608 -7.9804,-6.91636 -9.0445,-15.96082 -6.9163,-71.82368 1.596,-35.11379 5.3202,-69.16354 8.5124,-75.01584 4.7882,-9.57649 4.2562,-13.30068 -3.7242,-20.21703 -11.7046,-10.64054 -85.1244,-12.23663 -86.1885,-1.59608 0,3.19216 0,44.15826 0.5321,90.44462 l 1.0641,84.06031 -15.4289,-1.59609 -14.8967,-1.59608 0,-87.78449 0,-87.7845 -44.6903,-1.59607 c -26.0693,-1.06406 -51.6066,1.06405 -60.1191,4.78824 -11.1725,4.78824 -16.4928,4.78824 -22.3451,0 -4.7882,-4.25622 -23.9412,-5.8523 -52.1387,-4.78824 l -44.1583,1.59607 0,87.7845 c 0,84.06031 -0.532,87.78449 -10.6405,87.78449 -10.1085,0 -10.6405,-3.72418 -10.6405,-87.78449 l 0,-87.7845 -53.2028,0 -53.2026,0 2.128,80.33612 c 2.1281,90.44463 -2.6601,111.72572 -21.281,94.70085 -9.5766,-8.51244 -10.1086,-14.36474 -6.3844,-93.6368 l 3.1922,-84.0603 -53.7347,0 c -29.2616,0 -54.7989,1.59608 -56.395,4.25621 -1.064,2.12812 0.5321,39.37003 3.7243,82.46423 4.7882,69.16354 4.7882,79.80409 -2.6602,86.72044 -6.9164,6.91635 -10.6405,7.44838 -20.217,2.12811 -11.7047,-6.38433 -12.2366,-7.98041 -8.5125,-69.69557 2.1281,-35.1138 6.3844,-69.16354 9.5766,-76.61192 4.2561,-10.10852 4.2561,-14.89676 -1.0641,-21.28109 -5.3203,-6.91635 -17.0249,-7.98041 -57.991,-6.91635 l -51.0746,1.59607 2.1281,85.65639 c 1.596,75.01584 0.532,86.18842 -6.9163,88.84855 -4.7883,2.12811 -12.2367,2.12811 -17.0249,0 -7.4485,-2.66013 -8.5125,-13.83271 -6.9164,-88.84855 l 2.1282,-85.65639 -48.9466,-1.59607 c -29.7935,-1.06406 -53.7347,1.06405 -60.6511,4.78824 -7.9804,4.25622 -12.7686,4.25622 -17.0248,0 -3.1922,-3.19217 -27.1334,-5.8523 -57.991,-5.8523 -60.6511,0 -63.3113,2.12811 -56.3949,46.28637 2.6601,16.49284 3.7242,52.67069 3.1921,80.86814 -1.596,43.0942 -3.1921,51.07461 -10.6405,52.67069 -13.8327,2.66015 -15.9608,-15.42878 -10.6405,-94.70084 2.6601,-39.37002 3.7242,-75.01584 2.1281,-78.74003 -1.5961,-4.78825 -15.9608,-6.38433 -56.3949,-5.32027 l -53.7348,1.59607 2.1282,96.29693 c 1.064,52.6707 0,101.08518 -1.5962,107.4695 -4.2561,12.76866 -23.4091,16.49285 -25.5373,5.32028 -1.064,-3.72419 -1.596,-52.13867 -1.596,-108.00153 l 0,-101.08518 -53.2028,1.06406 c -29.2615,0.53202 -57.9909,1.06405 -63.8432,1.06405 -5.8523,0 -34.0498,-1.06405 -62.2472,-2.66013 -40.9661,-2.12811 -52.1387,-1.59608 -52.6707,4.25622 -0.532,3.72419 0,43.62623 0.532,87.78449 1.0641,71.82368 0,81.9322 -7.9804,84.59233 -4.7882,2.12811 -12.2366,0 -17.0248,-4.78824 -6.9164,-6.91636 -7.4485,-17.02487 -3.1922,-73.41977 2.6601,-36.17785 6.9163,-69.69556 9.0444,-74.4838 2.1282,-5.32028 0.5321,-12.23664 -4.2562,-17.02488 -6.9164,-6.91635 -26.6013,-7.9804 -122.3662,-7.9804 -86.1884,-0.53203 -115.4499,1.59607 -119.7062,6.38432 -4.2562,4.78824 -4.2562,15.96082 -0.532,36.70988 3.1922,16.49285 4.7883,51.60664 4.2562,78.74003 -1.064,39.37001 -3.1921,50.01057 -10.6405,54.79881 -4.7883,2.66013 -11.1726,3.72419 -13.3007,1.06405 -2.1281,-2.12811 -3.1922,-43.09421 -2.6601,-91.50868 l 2.1281,-87.25247 -43.0942,0 c -23.4092,0 -43.6263,1.59608 -44.6903,4.25621 -1.5961,2.12812 -0.532,38.30597 1.5961,80.86815 2.1281,42.03015 3.1921,79.80409 1.596,83.52827 -3.7241,9.04447 -22.8771,14.36474 -29.7935,7.44839 -4.7882,-4.78825 -5.3202,-70.75963 -1.5961,-157.48007 l 0.5321,-15.96082 -54.7988,-1.59607 -54.2668,-1.59608 3.1921,84.06029 c 1.5961,49.47854 1.0641,87.25247 -2.1281,91.50869 -5.8523,7.98041 -25.5373,3.72419 -29.2615,-6.38433 -1.064,-3.72418 -0.532,-40.9661 2.1282,-83.52827 2.1281,-42.03015 2.6601,-78.74003 1.596,-80.86815 -1.596,-2.66013 -25.0053,-4.25621 -52.6707,-4.25621 -54.7988,0 -64.9073,5.32028 -55.3308,29.79352 6.3843,17.5569 6.9164,140.45519 0.532,146.83952 -3.7242,3.72419 -9.0444,3.19216 -17.0248,-1.06405 -11.7046,-6.38433 -11.7046,-8.51244 -9.5765,-71.29165 1.596,-42.03015 5.3202,-68.63151 10.1085,-76.61192 6.3843,-11.17257 6.3843,-13.30068 -2.1281,-19.68501 -7.9804,-5.8523 -35.1138,-6.91635 -127.6866,-6.38433 l -118.11,1.06405 2.6601,61.18314 c 3.7242,101.08518 3.7242,107.4695 -6.3843,113.3218 -4.7882,3.19216 -11.1726,4.25622 -13.3007,1.59608 -2.1281,-2.12811 -4.2562,-43.09421 -4.2562,-89.9126 l 0,-86.18842 -42.5622,0 -42.5622,0 2.1282,131.94276 c 1.596,99.4891 0,133.53883 -4.7883,139.39114 -8.5124,10.10851 -18.0889,10.10851 -26.6013,0 z"
       id="path3613"
       inkscape:connector-curvature="0" />
    <path
       d="m 1569.5313,540.27161 c -4.7882,-1.59608 -6.9163,-18.08893 -6.9163,-57.45894 0,-62.77922 3.7242,-87.78449 13.3007,-87.78449 11.1725,0 14.3647,14.89676 17.0248,77.67597 2.6602,54.26678 2.1281,60.11908 -6.9163,64.90733 -5.8523,2.66013 -13.3007,3.72418 -16.4929,2.66013 z"
       id="path3615"
       inkscape:connector-curvature="0" />
    <path
       d="m 2465.9972,538.1435 c -10.6405,-5.8523 -11.7046,-25.53731 -5.8523,-99.48909 2.1281,-31.38961 5.3203,-45.22232 11.1726,-47.35043 12.2367,-4.78824 15.4287,6.38433 19.153,73.95179 2.6601,45.75434 2.1281,65.43935 -2.6602,71.29165 -6.9163,8.51244 -9.5764,9.04447 -21.8131,1.59608 z"
       id="path3617"
       inkscape:connector-curvature="0" />
    <path
       d="m 2856.5052,537.61148 c -4.2562,-4.25623 -6.3843,-23.94123 -5.8523,-54.26678 0,-56.92692 4.7883,-89.38058 13.8327,-92.04072 9.0444,-3.19216 16.4929,27.66542 19.6851,87.25247 2.6601,50.01056 1.596,55.33083 -7.4485,60.11908 -12.2366,6.91636 -12.2366,6.91636 -20.217,-1.06405 z"
       id="path3619"
       inkscape:connector-curvature="0" />
    <path
       d="m 3493.8738,532.82323 c -4.2562,-6.91636 -4.7882,-29.2615 -2.6601,-64.90732 4.2562,-67.03544 6.3843,-78.20801 15.4288,-78.20801 11.1726,0 13.8327,12.76865 17.5569,78.20801 2.1281,44.69028 1.5961,61.71516 -3.7242,68.09949 -9.0445,11.17257 -19.685,10.10851 -26.6014,-3.19217 z"
       id="path3621"
       inkscape:connector-curvature="0" />
    <path
       d="m 4006.7481,537.61148 c -5.3203,-8.51244 -2.6602,-137.79506 3.1921,-147.90358 3.7243,-6.38433 5.3203,-5.32027 10.1085,5.85231 5.8523,16.49283 9.5766,133.0068 3.7242,142.05127 -4.7882,7.98041 -12.2365,7.98041 -17.0248,0 z"
       id="path3623"
       inkscape:connector-curvature="0" />
    <path
       d="m 4249.8846,539.20756 c -4.7884,-3.19216 -6.3844,-21.28109 -4.7884,-71.29165 1.5962,-67.56746 5.3203,-81.93219 20.2171,-72.88773 6.3844,3.72419 8.5125,19.685 10.1085,71.29165 1.5961,60.6511 0.532,66.5034 -8.5124,71.29165 -5.8523,3.19216 -13.3007,3.72418 -17.0248,1.59608 z"
       id="path3625"
       inkscape:connector-curvature="0" />
    <path
       d="m 4364.2704,536.0154 c -6.9163,-6.91636 -7.9804,-16.49285 -5.3203,-49.47854 4.2562,-66.50341 7.4484,-85.12436 15.4288,-91.50868 10.6405,-9.04446 14.3647,16.49283 12.2366,87.25246 -1.5961,60.11908 -5.8523,70.22759 -22.3451,53.73476 z"
       id="path3627"
       inkscape:connector-curvature="0" />
    <path
       d="m 4627.0918,536.0154 c -8.5124,-10.10853 -4.7882,-133.00682 4.2563,-142.05128 9.5764,-9.57649 14.8967,13.30068 19.153,76.61192 2.6601,47.88246 2.1281,57.99097 -4.7883,64.90733 -10.6406,10.64054 -10.6406,10.64054 -18.621,0.53203 z"
       id="path3629"
       inkscape:connector-curvature="0" />
    <path
       d="m 4754.7784,536.0154 c -4.7883,-5.85231 -5.8523,-24.47326 -2.6601,-73.41977 3.7241,-70.22759 9.0444,-89.9126 17.5568,-67.56745 7.9804,21.28108 12.7687,133.53883 5.8523,142.05127 -7.9804,9.04446 -12.7686,9.04446 -20.749,-1.06405 z"
       id="path3631"
       inkscape:connector-curvature="0" />
    <path
       d="m 4868.6322,537.61148 c -2.1281,-3.19217 -3.1922,-36.17785 -2.6601,-72.88774 2.128,-109.06558 17.0249,-106.93747 24.4732,3.72419 2.6601,44.15826 2.1281,61.71516 -2.6601,67.56747 -7.9804,9.57649 -13.8327,10.10851 -19.153,1.59608 z"
       id="path3633"
       inkscape:connector-curvature="0" />
    <path
       d="m 2203.1758,530.69512 c -4.2562,-10.64054 0.532,-113.85383 5.8523,-126.09045 2.1281,-5.32028 5.8523,-9.57649 8.5124,-9.57649 10.6405,0 15.9608,30.32555 14.3647,84.59232 -1.596,53.73475 -2.1281,56.3949 -13.8327,57.99098 -6.9163,1.06405 -13.3007,-1.59608 -14.8967,-6.91636 z"
       id="path3635"
       inkscape:connector-curvature="0" />
    <path
       d="m 4131.2425,532.2912 c -3.1922,-7.98041 0.532,-100.02112 4.2561,-125.0264 2.1282,-12.76866 5.3203,-17.5569 12.7688,-17.5569 12.2365,0 17.5568,34.04975 14.8967,101.08517 -1.5961,44.6903 -1.5961,45.22233 -15.4288,46.81841 -8.5124,1.06405 -15.4287,-1.06406 -16.4928,-5.32028 z"
       id="path3637"
       inkscape:connector-curvature="0" />
    <path
       d="m 5096.8719,259.89326 c -16.4928,-7.98041 -22.3452,-13.83271 -21.2811,-21.81312 1.5961,-15.96081 31.3896,-17.55689 45.2223,-2.66014 17.0249,18.08893 30.3256,12.23663 30.3256,-13.30067 0,-18.62096 -1.5961,-21.2811 -13.3007,-22.87718 -7.4484,-1.06405 -16.4929,-2.66013 -20.749,-4.25621 -11.1726,-3.7242 2.6601,-17.02487 19.6849,-19.15298 13.3008,-1.59609 14.3648,-3.19217 14.3648,-28.19745 0,-22.87717 -1.5961,-26.60136 -11.1726,-28.19744 -7.4484,-1.06406 -14.3648,3.19216 -20.217,12.23662 -7.4485,11.17258 -12.7687,13.83271 -26.0694,12.23663 -14.3647,-1.06405 -17.5569,-4.25622 -18.6209,-16.49284 -1.5962,-12.76866 1.064,-15.96082 22.8772,-25.53731 31.9216,-14.364736 67.0354,-10.108518 82.9962,10.64054 9.0445,11.17258 10.6405,18.62096 7.9804,37.24191 -1.5961,12.76865 -5.8523,26.60137 -9.0444,30.32555 -4.2563,4.78825 -4.2563,9.57649 -1.0641,14.36474 3.1922,3.19216 6.9164,13.8327 8.5124,23.40919 2.6602,13.83271 0.5321,20.21704 -11.1726,32.98569 -19.685,21.2811 -48.4144,25.00528 -79.272,9.04447 z"
       id="path3639"
       inkscape:connector-curvature="0" />
    <path
       d="M 1282.2366,237.54812 C 1271.0641,225.31149 1270,219.45919 1270,164.12835 c 0,-55.86285 1.0641,-60.6511 12.2366,-71.291643 18.089,-17.024872 61.7152,-16.492845 81.4002,0.532026 13.8327,12.236627 14.3647,14.364737 14.8968,72.355697 1.064,55.33084 0,60.11908 -10.1086,65.43936 -5.8523,3.19216 -12.7686,9.04446 -14.8967,12.76865 -2.6602,4.78825 -13.8327,7.44838 -31.9217,6.91635 -21.8131,-0.53202 -30.3255,-3.19216 -39.37,-13.30067 z m 46.8184,-12.76866 c 9.0445,-4.78824 10.1085,-11.7046 10.1085,-55.86286 0,-38.30596 -2.1281,-51.60664 -8.5124,-57.99097 -11.7046,-11.704597 -17.5569,-10.64054 -23.4092,5.32027 -6.9163,18.08893 -6.9163,90.44463 0,103.74532 6.3843,11.70459 7.9804,12.23662 21.8131,4.78824 z"
       id="path3641"
       inkscape:connector-curvature="0" />
    <path
       d="m 3840.7556,240.74028 c -3.7242,-5.85231 -11.1726,-10.64055 -17.0249,-10.64055 -5.8523,0 -10.6405,-3.19217 -10.6405,-7.44838 0,-11.17257 21.8131,-14.36474 40.434,-5.32027 23.4093,11.17257 36.1779,7.98041 38.306,-9.57649 1.0641,-10.64055 -3.1922,-18.08893 -17.0249,-30.85758 -10.1085,-9.57649 -22.3451,-26.60136 -26.6013,-37.77393 -4.7883,-11.17258 -11.7047,-20.74907 -16.4929,-20.74907 -4.2562,0 -10.1085,-4.78824 -13.3007,-11.17257 -4.7882,-8.512434 -4.2561,-12.768651 1.5961,-19.685006 6.9164,-7.448381 18.621,-9.044463 57.991,-9.044463 49.4785,0 49.4785,0 49.4785,13.300681 0,12.236628 -1.596,13.300678 -26.0693,13.300678 -33.5177,0 -36.7099,8.51244 -11.7046,31.38961 10.6405,9.57649 19.153,21.28109 19.153,26.06933 0,4.78825 4.7882,11.7046 10.6405,15.4288 16.4929,10.64054 14.3648,38.83798 -4.7882,57.99096 -12.7686,12.76866 -20.2171,15.42879 -41.4981,15.42879 -19.6851,0 -27.1334,-2.12811 -32.4537,-10.64054 z"
       id="path3643"
       inkscape:connector-curvature="0" />
    <path
       d="m 2584.1073,214.13892 c -17.0249,-18.62096 -22.3452,-47.88245 -8.5125,-47.88245 4.2562,0 9.5766,2.66013 11.1726,5.32027 2.1281,3.19216 5.8523,3.72419 9.0445,2.1281 3.7241,-2.1281 4.2562,-19.15297 2.1281,-49.47853 -2.1281,-25.537304 -2.1281,-50.010556 -0.5321,-55.330829 4.2563,-10.640545 31.9216,-12.768654 37.7739,-2.660136 2.1282,3.192163 3.7243,40.966095 3.1922,83.528275 l -0.532,77.67597 -19.153,1.59609 c -15.4287,1.59608 -21.8131,-1.06405 -34.5817,-14.89676 z"
       id="path3645"
       inkscape:connector-curvature="0" />
  </g>
</svg>
