<?xml version="1.0" encoding="UTF-8"?>
<svg xmlns="http://www.w3.org/2000/svg" xmlns:xlink="http://www.w3.org/1999/xlink" width="479pt" height="307pt" viewBox="0 0 479 307" version="1.1">
<g id="surface1">
<path style=" stroke:none;fill-rule:nonzero;fill:rgb(0%,0%,0%);fill-opacity:1;" d="M 0 153.5 L 0 307 L 479 307 L 479 0 L 0 0 Z M 429.664062 2.292969 L 476.871094 2.398438 L 476.871094 151.742188 C 476.871094 244 477.03125 301.5625 477.351562 302.363281 C 477.722656 303.269531 477.667969 303.960938 477.242188 304.546875 C 476.660156 305.347656 456.488281 305.402344 239.289062 305.402344 C 108.734375 305.402344 1.863281 305.347656 1.757812 305.242188 C 1.488281 304.976562 1.542969 2.664062 1.808594 2.238281 C 2.023438 1.917969 312.785156 1.917969 429.664062 2.292969 Z M 429.664062 2.292969 "/>
<path style=" stroke:none;fill-rule:nonzero;fill:rgb(0%,0%,0%);fill-opacity:1;" d="M 71.636719 13.269531 C 71.476562 13.484375 71.316406 26.96875 71.316406 43.226562 L 71.265625 72.753906 L 72.703125 72.644531 C 73.445312 72.59375 74.246094 72.433594 74.351562 72.273438 C 74.511719 72.167969 74.722656 59 74.832031 43.117188 C 74.988281 22.332031 74.882812 14.015625 74.457031 13.484375 C 73.765625 12.683594 72.0625 12.523438 71.636719 13.269531 Z M 71.636719 13.269531 "/>
<path style=" stroke:none;fill-rule:nonzero;fill:rgb(0%,0%,0%);fill-opacity:1;" d="M 101.921875 13.324219 C 101.707031 13.644531 101.601562 26.863281 101.65625 42.796875 C 101.65625 69.394531 101.761719 71.738281 102.558594 72.378906 C 104.953125 74.136719 104.953125 74.511719 104.902344 43.277344 C 104.847656 27.023438 104.6875 13.539062 104.527344 13.269531 C 104.15625 12.632812 102.347656 12.683594 101.921875 13.324219 Z M 101.921875 13.324219 "/>
<path style=" stroke:none;fill-rule:nonzero;fill:rgb(0%,0%,0%);fill-opacity:1;" d="M 222.683594 13.378906 C 222.46875 13.699219 222.46875 26.117188 222.683594 40.988281 C 222.894531 57.882812 222.839844 68.753906 222.523438 70.085938 C 222.148438 71.632812 222.148438 72.328125 222.628906 72.59375 C 223.375 73.074219 225.238281 72.59375 225.769531 71.792969 C 226.195312 71.101562 225.820312 13.964844 225.34375 13.269531 C 224.96875 12.578125 223.160156 12.683594 222.683594 13.378906 Z M 222.683594 13.378906 "/>
<path style=" stroke:none;fill-rule:nonzero;fill:rgb(0%,0%,0%);fill-opacity:1;" d="M 253.179688 13.164062 C 252.964844 13.324219 252.804688 26.648438 252.804688 42.746094 L 252.804688 71.953125 L 254.136719 72.484375 C 256 73.179688 257.222656 72.59375 256.796875 71.207031 C 256.636719 70.621094 256.316406 57.347656 256.160156 41.839844 C 255.945312 21.90625 255.679688 13.484375 255.253906 13.21875 C 254.507812 12.683594 253.605469 12.683594 253.179688 13.164062 Z M 253.179688 13.164062 "/>
<path style=" stroke:none;fill-rule:nonzero;fill:rgb(0%,0%,0%);fill-opacity:1;" d="M 388.894531 13.164062 C 388.683594 13.324219 388.523438 14.125 388.523438 14.921875 C 388.523438 15.667969 388.308594 16.523438 388.042969 16.789062 C 387.777344 17.109375 387.296875 18.496094 386.980469 19.988281 C 385.808594 25.796875 385.277344 28.035156 384.796875 28.886719 C 384.53125 29.367188 384.050781 31.179688 383.730469 32.886719 C 383.464844 34.589844 382.828125 37.308594 382.347656 38.90625 C 381.871094 40.507812 381.285156 42.796875 381.019531 43.972656 C 380.75 45.144531 380.324219 46.582031 380.058594 47.167969 C 379.792969 47.753906 379.046875 50.527344 378.410156 53.296875 C 377.769531 56.070312 377.027344 58.894531 376.8125 59.480469 C 376.546875 60.121094 376.175781 61.773438 375.960938 63.160156 C 375.800781 64.542969 375.269531 66.355469 374.898438 67.101562 C 374.472656 67.847656 374.152344 69.023438 374.152344 69.660156 C 374.152344 70.355469 373.832031 70.886719 373.511719 70.886719 C 373.140625 70.886719 347.328125 70.886719 316.140625 70.886719 C 281.546875 70.886719 259.140625 71.101562 258.660156 71.367188 C 258.234375 71.6875 258.074219 72.113281 258.339844 72.328125 C 258.554688 72.539062 285.058594 72.804688 317.203125 72.859375 C 384.582031 72.964844 376.8125 73.765625 378.464844 66.515625 C 379.046875 64.066406 379.6875 61.132812 379.953125 59.960938 C 381.175781 54.683594 381.65625 52.980469 382.082031 51.964844 C 382.722656 50.582031 383.625 47.007812 384.476562 42.640625 C 384.902344 40.71875 385.433594 38.480469 385.808594 37.683594 C 386.128906 36.828125 386.394531 35.496094 386.394531 34.699219 C 386.394531 33.898438 386.605469 33.046875 386.871094 32.726562 C 387.351562 32.246094 388.097656 29.472656 389.320312 23.453125 C 389.691406 21.53125 390.542969 18.707031 391.128906 17.109375 C 392.035156 14.921875 392.140625 14.125 391.664062 13.539062 C 391.023438 12.738281 389.480469 12.523438 388.894531 13.164062 Z M 388.894531 13.164062 "/>
<path style=" stroke:none;fill-rule:nonzero;fill:rgb(0%,0%,0%);fill-opacity:1;" d="M 418.859375 13.964844 C 418.59375 14.65625 418.007812 16.84375 417.582031 18.921875 C 417.15625 20.945312 416.410156 23.984375 415.933594 25.582031 C 415.453125 27.183594 414.8125 29.582031 414.546875 30.914062 C 412.632812 39.8125 411.355469 44.769531 410.34375 47.167969 C 410.078125 47.753906 409.652344 49.566406 409.332031 51.167969 C 408.585938 55.269531 406.085938 65.078125 405.5 66.25 C 405.179688 66.78125 404.808594 68.382812 404.648438 69.769531 C 404.328125 72.644531 405.074219 73.390625 407.417969 72.484375 C 408.480469 72.058594 408.695312 71.738281 408.425781 70.675781 C 408.269531 69.980469 408.480469 67.902344 408.960938 66.035156 C 409.386719 64.171875 409.917969 61.773438 410.078125 60.761719 C 410.238281 59.746094 410.609375 58.414062 410.875 57.828125 C 411.515625 56.285156 412.207031 53.457031 414.8125 42.265625 C 415.1875 40.453125 415.71875 38.695312 415.984375 38.320312 C 416.199219 37.949219 416.570312 36.667969 416.785156 35.445312 C 416.996094 34.269531 417.527344 31.980469 417.953125 30.378906 C 421.785156 16.414062 422.316406 13.804688 421.414062 13.21875 C 420.242188 12.472656 419.390625 12.738281 418.859375 13.964844 Z M 418.859375 13.964844 "/>
<path style=" stroke:none;fill-rule:nonzero;fill:rgb(0%,0%,0%);fill-opacity:1;" d="M 12.347656 71.792969 C 12.507812 72.699219 14.105469 72.753906 40.820312 72.753906 C 56.363281 72.753906 69.296875 72.59375 69.507812 72.328125 C 69.722656 72.113281 69.722656 71.792969 69.507812 71.527344 C 69.296875 71.3125 56.308594 71.101562 40.609375 70.992188 C 13.570312 70.832031 12.1875 70.886719 12.347656 71.792969 Z M 12.347656 71.792969 "/>
<path style=" stroke:none;fill-rule:nonzero;fill:rgb(0%,0%,0%);fill-opacity:1;" d="M 107.402344 71.261719 C 105.753906 71.6875 106.390625 72.433594 108.734375 72.753906 C 111.980469 73.179688 220.710938 72.804688 221.191406 72.328125 C 221.40625 72.113281 221.40625 71.792969 221.191406 71.527344 C 220.765625 71.152344 108.945312 70.832031 107.402344 71.261719 Z M 107.402344 71.261719 "/>
<path style=" stroke:none;fill-rule:nonzero;fill:rgb(0%,0%,0%);fill-opacity:1;" d="M 411.300781 71.261719 C 409.492188 71.738281 410.34375 72.433594 413.164062 72.753906 C 414.65625 72.914062 427.160156 73.019531 440.945312 72.914062 C 464.257812 72.753906 465.960938 72.699219 466.121094 71.792969 C 466.28125 70.941406 464.738281 70.886719 439.242188 70.941406 C 424.394531 70.992188 411.78125 71.101562 411.300781 71.261719 Z M 411.300781 71.261719 "/>
<path style=" stroke:none;fill-rule:nonzero;fill:rgb(0%,0%,0%);fill-opacity:1;" d="M 146.148438 80.800781 C 145.988281 81.28125 145.828125 84.691406 145.828125 88.476562 C 145.828125 93.644531 145.988281 95.40625 146.574219 95.882812 C 147.160156 96.363281 147.53125 96.3125 148.171875 95.671875 C 148.863281 94.976562 148.96875 94.179688 148.703125 91.886719 C 148.332031 88.847656 148.542969 88.636719 151.152344 89.007812 C 152.320312 89.167969 154.34375 91.195312 154.34375 92.207031 C 154.34375 93.484375 156.367188 95.9375 157.378906 95.9375 C 158.496094 95.9375 157.855469 92.632812 156.421875 90.660156 C 155.410156 89.273438 155.460938 87.410156 156.527344 87.410156 C 157.484375 87.410156 158.441406 84.476562 158.015625 82.878906 C 157.324219 80.425781 156.261719 79.949219 151.097656 79.949219 C 147.371094 79.949219 146.414062 80.109375 146.148438 80.800781 Z M 154.183594 82.398438 C 154.824219 82.558594 155.515625 83.199219 155.675781 83.785156 C 156.261719 85.542969 155.035156 86.34375 151.628906 86.34375 L 148.488281 86.34375 L 148.488281 84.53125 C 148.488281 83.253906 148.757812 82.613281 149.449219 82.453125 C 150.832031 82.078125 152.90625 82.078125 154.183594 82.398438 Z M 154.183594 82.398438 "/>
<path style=" stroke:none;fill-rule:nonzero;fill:rgb(0%,0%,0%);fill-opacity:1;" d="M 187.714844 80.320312 C 187.5 80.480469 187.34375 84 187.34375 88.050781 C 187.34375 94.285156 187.449219 95.511719 188.195312 95.777344 C 189.578125 96.3125 190.214844 95.03125 190.054688 91.941406 C 189.949219 89.433594 190.109375 89.007812 190.90625 88.957031 C 193.515625 88.796875 195.058594 89.863281 195.589844 92.152344 C 195.964844 93.859375 198.359375 96.628906 199.105469 96.203125 C 200.007812 95.617188 199.582031 92.953125 198.253906 91.140625 C 197.507812 90.128906 196.921875 89.167969 196.921875 89.007812 C 196.921875 88.796875 197.667969 87.890625 198.519531 86.984375 C 199.421875 86.023438 200.117188 84.957031 200.117188 84.53125 C 200.117188 83.039062 198.945312 81.121094 197.613281 80.535156 C 196.230469 79.894531 188.300781 79.734375 187.714844 80.320312 Z M 195.21875 82.398438 C 197.082031 82.773438 197.933594 84.371094 196.921875 85.542969 C 196.496094 86.078125 195.21875 86.34375 193.144531 86.34375 L 190.003906 86.34375 L 190.003906 84.53125 C 190.003906 82.292969 191.492188 81.652344 195.21875 82.398438 Z M 195.21875 82.398438 "/>
<path style=" stroke:none;fill-rule:nonzero;fill:rgb(0%,0%,0%);fill-opacity:1;" d="M 167.222656 83.839844 C 166.90625 84.210938 166.585938 86.449219 166.480469 88.742188 L 166.320312 93.007812 L 163.125 93.007812 L 162.859375 88.476562 C 162.648438 84.746094 162.433594 83.945312 161.6875 83.785156 C 160.410156 83.519531 159.984375 85.652344 160.359375 90.234375 C 160.785156 94.976562 161.796875 95.992188 165.679688 95.722656 C 167.066406 95.617188 168.394531 95.351562 168.609375 95.191406 C 168.769531 94.976562 168.980469 92.472656 169.085938 89.59375 C 169.195312 85.703125 169.035156 84.160156 168.5 83.730469 C 167.96875 83.304688 167.648438 83.304688 167.222656 83.839844 Z M 167.222656 83.839844 "/>
<path style=" stroke:none;fill-rule:nonzero;fill:rgb(0%,0%,0%);fill-opacity:1;" d="M 173.398438 83.519531 C 172.917969 83.625 172.175781 84.320312 171.695312 85.011719 C 170.898438 86.183594 170.949219 86.289062 171.960938 86.609375 C 172.601562 86.824219 173.34375 86.71875 173.664062 86.398438 C 174.304688 85.757812 176.699219 85.597656 176.699219 86.183594 C 176.644531 87.144531 175.792969 87.835938 174.25 88.15625 C 171.855469 88.6875 170.097656 90.714844 170.523438 92.417969 C 170.898438 93.859375 173.34375 96.46875 174.304688 96.46875 C 174.621094 96.46875 175.101562 96.257812 175.421875 95.992188 C 175.6875 95.722656 176.859375 95.40625 178.027344 95.296875 L 180.15625 95.136719 L 180.105469 90.394531 C 180.050781 85.917969 179.945312 85.542969 178.613281 84.371094 C 177.285156 83.199219 175.527344 82.933594 173.398438 83.519531 Z M 177.125 90.925781 C 177.335938 92.3125 176.058594 93.433594 174.460938 93.164062 C 172.707031 92.953125 172.492188 90.765625 174.144531 90.074219 C 175.898438 89.382812 176.964844 89.648438 177.125 90.925781 Z M 177.125 90.925781 "/>
<path style=" stroke:none;fill-rule:nonzero;fill:rgb(0%,0%,0%);fill-opacity:1;" d="M 12.1875 100.414062 C 11.125 101.535156 11.65625 102.867188 13.199219 102.867188 C 13.996094 102.867188 27.410156 102.867188 43.003906 102.867188 L 71.316406 102.867188 L 71.210938 152.222656 L 71.050781 201.574219 L 41.992188 201.46875 C 26.027344 201.46875 12.558594 201.574219 12.082031 201.789062 C 11.070312 202.160156 10.910156 203.335938 11.761719 203.921875 C 12.613281 204.398438 73.605469 204.1875 74.085938 203.707031 C 74.5625 203.226562 74.777344 100.839844 74.351562 100.414062 C 73.871094 99.933594 12.71875 99.933594 12.1875 100.414062 Z M 12.1875 100.414062 "/>
<path style=" stroke:none;fill-rule:nonzero;fill:rgb(0%,0%,0%);fill-opacity:1;" d="M 102.347656 100.46875 C 101.761719 100.894531 101.65625 109.636719 101.761719 152.433594 L 101.921875 203.867188 L 163.550781 204.027344 C 212.570312 204.132812 225.183594 204.027344 225.34375 203.492188 C 225.503906 203.121094 225.714844 179.988281 225.875 152.113281 C 226.140625 109.796875 226.035156 101.265625 225.449219 100.789062 C 224.492188 99.988281 103.464844 99.667969 102.347656 100.46875 Z M 222.734375 152.0625 C 222.734375 179.03125 222.574219 201.148438 222.363281 201.253906 C 222.097656 201.46875 185.371094 201.523438 105.273438 201.46875 C 104.742188 201.46875 104.6875 103.71875 105.21875 103.238281 C 105.378906 103.027344 131.9375 102.917969 164.136719 102.972656 L 222.734375 103.132812 Z M 222.734375 152.0625 "/>
<path style=" stroke:none;fill-rule:nonzero;fill:rgb(0%,0%,0%);fill-opacity:1;" d="M 135.929688 132.074219 C 135.503906 132.289062 135.238281 134.792969 135.183594 138.84375 C 135.023438 147.105469 134.917969 146.679688 136.675781 146.464844 C 138.003906 146.304688 138.113281 146.144531 138.058594 144.171875 C 137.953125 141.722656 138.429688 141.242188 141.039062 141.242188 C 142.316406 141.242188 143.433594 140.707031 144.65625 139.640625 C 146.894531 137.5625 147 135.113281 144.871094 133.085938 C 143.539062 131.808594 142.953125 131.648438 139.921875 131.648438 C 138.058594 131.648438 136.25 131.859375 135.929688 132.074219 Z M 143.914062 136.070312 C 144.390625 136.871094 144.230469 137.191406 143.167969 138.042969 C 142.421875 138.628906 141.039062 139.109375 140.132812 139.109375 C 138.695312 139.109375 138.324219 138.84375 138.058594 137.777344 C 137.472656 135.433594 138.113281 134.792969 140.824219 134.953125 C 142.527344 135.058594 143.488281 135.433594 143.914062 136.070312 Z M 143.914062 136.070312 "/>
<path style=" stroke:none;fill-rule:nonzero;fill:rgb(0%,0%,0%);fill-opacity:1;" d="M 156.046875 135.804688 C 154.558594 136.390625 153.8125 136.976562 153.917969 137.511719 C 154.078125 138.148438 154.769531 138.257812 157.21875 138.148438 C 159.667969 137.988281 160.253906 138.097656 160.09375 138.683594 C 159.933594 139.054688 158.976562 139.484375 157.910156 139.640625 C 155.675781 139.960938 153.28125 141.882812 153.28125 143.375 C 153.28125 143.960938 153.757812 144.917969 154.34375 145.503906 C 155.300781 146.464844 155.941406 146.570312 158.550781 146.410156 C 160.253906 146.304688 161.957031 146.039062 162.273438 145.824219 C 162.964844 145.34375 163.074219 139.695312 162.328125 137.832031 C 161.957031 136.765625 159.132812 134.632812 158.496094 134.898438 C 158.390625 134.953125 157.324219 135.378906 156.046875 135.804688 Z M 160.464844 141.828125 C 160.996094 142.628906 159.132812 144.4375 157.75 144.4375 C 156.101562 144.4375 155.675781 143.53125 156.792969 142.253906 C 157.804688 141.132812 159.933594 140.867188 160.464844 141.828125 Z M 160.464844 141.828125 "/>
<path style=" stroke:none;fill-rule:nonzero;fill:rgb(0%,0%,0%);fill-opacity:1;" d="M 167.332031 135.75 C 165.734375 136.550781 163.925781 139.535156 163.925781 141.347656 C 163.925781 141.773438 164.617188 143.105469 165.414062 144.226562 C 167.648438 147.316406 167.757812 147.957031 166.265625 148.917969 C 164.777344 149.929688 164.667969 150.460938 165.839844 151.582031 C 167.703125 153.5 170.363281 151.953125 170.472656 148.863281 C 170.628906 145.078125 172.8125 143.265625 174.886719 145.238281 C 176.164062 146.410156 176.699219 146.570312 179.835938 146.410156 L 183.351562 146.25 L 183.511719 142.574219 C 183.722656 137.5625 183.457031 136.765625 181.113281 135.699219 C 179.253906 134.898438 178.878906 134.84375 177.125 135.589844 C 173.503906 137.136719 174.144531 138.308594 178.453125 138.097656 C 180.421875 137.988281 181.007812 138.148438 180.847656 138.683594 C 180.6875 139.054688 179.785156 139.429688 178.828125 139.535156 C 177.816406 139.640625 176.324219 140.28125 175.472656 141.027344 C 174.621094 141.722656 173.503906 142.308594 173.027344 142.308594 C 172.492188 142.308594 171.429688 142.785156 170.628906 143.425781 C 169.886719 144.011719 168.820312 144.4375 168.34375 144.332031 C 167.011719 144.066406 166.265625 141.613281 166.90625 139.75 C 167.4375 138.203125 168.023438 138.097656 171.800781 138.894531 C 173.34375 139.214844 173.558594 139.109375 173.398438 138.257812 C 173.238281 137.402344 170.097656 134.792969 169.300781 134.898438 C 169.140625 134.898438 168.234375 135.273438 167.332031 135.75 Z M 181.167969 141.667969 C 181.699219 142.519531 179.835938 144.4375 178.5625 144.4375 C 177.125 144.4375 176.539062 143.800781 177.015625 142.628906 C 177.441406 141.507812 180.582031 140.761719 181.167969 141.667969 Z M 181.167969 141.667969 "/>
<path style=" stroke:none;fill-rule:nonzero;fill:rgb(0%,0%,0%);fill-opacity:1;" d="M 149.449219 135.75 C 147.796875 136.019531 147.636719 136.390625 147.210938 141.773438 C 146.945312 145.613281 147.320312 146.785156 148.808594 146.464844 C 149.660156 146.304688 149.820312 145.71875 149.980469 142.46875 C 150.140625 138.84375 150.191406 138.683594 151.683594 138.042969 C 152.589844 137.671875 153.28125 137.242188 153.28125 137.03125 C 153.28125 136.445312 152.054688 135.378906 151.46875 135.433594 C 151.152344 135.484375 150.246094 135.644531 149.449219 135.75 Z M 149.449219 135.75 "/>
<path style=" stroke:none;fill-rule:nonzero;fill:rgb(0%,0%,0%);fill-opacity:1;" d="M 137.046875 166.34375 C 133.535156 169.488281 133.480469 174.125 136.941406 178.230469 C 138.484375 179.988281 139.070312 180.308594 141.410156 180.523438 C 143.859375 180.789062 144.285156 180.683594 145.402344 179.457031 C 148.597656 175.992188 148.648438 172.902344 145.402344 175.566406 C 141.144531 179.191406 136.140625 175.671875 137.632812 170.128906 C 138.324219 167.570312 142.796875 166.558594 145.136719 168.421875 C 146.945312 169.863281 147.957031 169.757812 147.957031 168.210938 C 147.957031 166.078125 145.667969 164.691406 142.050781 164.691406 C 139.335938 164.691406 138.695312 164.90625 137.046875 166.34375 Z M 137.046875 166.34375 "/>
<path style=" stroke:none;fill-rule:nonzero;fill:rgb(0%,0%,0%);fill-opacity:1;" d="M 194.15625 164.960938 C 193.941406 165.171875 193.996094 174.980469 194.261719 180.257812 C 194.261719 180.894531 195.75 180.789062 196.125 180.148438 C 196.390625 179.722656 196.65625 167.570312 196.441406 165.332031 C 196.390625 164.691406 194.6875 164.425781 194.15625 164.960938 Z M 194.15625 164.960938 "/>
<path style=" stroke:none;fill-rule:nonzero;fill:rgb(0%,0%,0%);fill-opacity:1;" d="M 171.164062 166.878906 C 170.203125 168.851562 170.046875 170.34375 170.84375 170.820312 C 171.164062 170.980469 171.375 172.847656 171.375 174.871094 C 171.375 176.953125 171.640625 179.082031 171.90625 179.667969 C 172.601562 180.894531 174.886719 181.003906 175.527344 179.828125 C 175.847656 179.242188 176.113281 179.136719 176.378906 179.5625 C 176.910156 180.363281 179.199219 180.308594 179.519531 179.457031 C 179.625 179.136719 179.625 177.324219 179.464844 175.566406 C 179.253906 172.792969 179.414062 172.101562 180.261719 171.25 C 180.847656 170.664062 181.699219 170.023438 182.074219 169.863281 C 182.660156 169.597656 182.605469 169.382812 181.808594 168.742188 C 180.902344 167.996094 179.730469 167.996094 177.390625 168.742188 C 176.910156 168.851562 176.699219 170.289062 176.699219 173.378906 C 176.699219 175.832031 176.539062 178.015625 176.324219 178.175781 C 176.164062 178.390625 175.421875 178.015625 174.730469 177.378906 C 173.078125 175.832031 172.972656 171.726562 174.621094 170.234375 C 175.6875 169.277344 175.6875 169.222656 174.675781 168.371094 C 174.089844 167.945312 173.558594 167.089844 173.453125 166.558594 C 173.132812 164.90625 172.066406 165.066406 171.164062 166.878906 Z M 171.164062 166.878906 "/>
<path style=" stroke:none;fill-rule:nonzero;fill:rgb(0%,0%,0%);fill-opacity:1;" d="M 186.011719 168.371094 C 183.828125 169.011719 182.925781 169.863281 183.296875 170.820312 C 183.511719 171.460938 183.9375 171.621094 184.574219 171.355469 C 185.054688 171.089844 186.277344 170.820312 187.234375 170.664062 C 188.777344 170.449219 188.992188 170.554688 188.832031 171.410156 C 188.726562 172.101562 187.925781 172.582031 186.382812 172.902344 C 183.351562 173.539062 182.390625 174.925781 183.136719 177.644531 C 183.882812 180.308594 185.53125 181.109375 188.351562 180.148438 C 189.472656 179.777344 190.695312 179.617188 190.960938 179.828125 C 191.972656 180.46875 192.34375 178.871094 192.183594 174.820312 C 192.078125 171.515625 191.867188 170.609375 190.90625 169.703125 C 189.578125 168.421875 187.609375 167.835938 186.011719 168.371094 Z M 189.472656 175.300781 C 189.472656 176.738281 188.085938 177.644531 186.542969 177.269531 C 184.839844 176.84375 184.734375 174.980469 186.4375 174.660156 C 188.9375 174.179688 189.472656 174.285156 189.472656 175.300781 Z M 189.472656 175.300781 "/>
<path style=" stroke:none;fill-rule:nonzero;fill:rgb(0%,0%,0%);fill-opacity:1;" d="M 150.726562 169.648438 C 148.914062 171.566406 148.757812 174.660156 150.246094 177.484375 C 151.683594 180.097656 153.386719 181.054688 155.570312 180.46875 C 157.324219 180.042969 159.027344 177.21875 157.804688 176.792969 C 157.429688 176.632812 156.367188 176.738281 155.515625 177.058594 C 154.183594 177.589844 153.652344 177.539062 152.535156 176.738281 C 150.511719 175.460938 151.257812 174.820312 154.824219 174.820312 C 159.242188 174.820312 160.039062 173.699219 157.964844 170.34375 C 156.847656 168.636719 156.472656 168.476562 154.292969 168.421875 C 152.429688 168.421875 151.578125 168.691406 150.726562 169.648438 Z M 155.835938 171.726562 C 155.996094 172.527344 155.621094 172.6875 154.132812 172.6875 C 152.054688 172.6875 152.054688 172.6875 152.535156 171.355469 C 153.015625 170.183594 155.621094 170.503906 155.835938 171.726562 Z M 155.835938 171.726562 "/>
<path style=" stroke:none;fill-rule:nonzero;fill:rgb(0%,0%,0%);fill-opacity:1;" d="M 160.730469 168.796875 C 160.464844 173.113281 160.519531 179.828125 160.785156 180.257812 C 160.996094 180.574219 161.53125 180.683594 162.007812 180.523438 C 162.699219 180.257812 162.859375 179.351562 162.859375 175.992188 C 162.859375 171.941406 163.339844 170.554688 164.777344 170.554688 C 166.480469 170.554688 166.957031 172.046875 166.691406 176.097656 C 166.480469 179.5625 166.585938 180.203125 167.382812 180.46875 C 168.875 181.054688 169.246094 179.667969 168.875 174.820312 C 168.5 169.0625 167.96875 168.421875 163.816406 168.421875 C 162.113281 168.421875 160.730469 168.582031 160.730469 168.796875 Z M 160.730469 168.796875 "/>
<path style=" stroke:none;fill-rule:nonzero;fill:rgb(0%,0%,0%);fill-opacity:1;" d="M 253.285156 100.519531 C 253.019531 100.894531 252.859375 121.789062 252.910156 152.488281 L 253.070312 203.867188 L 299.429688 204.027344 C 339.453125 204.132812 345.890625 204.027344 346.476562 203.386719 C 347.0625 202.640625 347.699219 200.457031 349.246094 194.007812 C 349.5625 192.675781 350.148438 191.128906 350.523438 190.542969 C 350.949219 189.957031 351.265625 188.945312 351.265625 188.304688 C 351.265625 187.609375 351.480469 186.652344 351.746094 186.117188 C 352.382812 185 353.929688 179.882812 353.929688 179.03125 C 353.929688 178.335938 357.492188 166.664062 358.1875 164.960938 C 358.453125 164.371094 359.195312 161.707031 359.78125 159.097656 C 360.421875 156.429688 361.273438 153.660156 361.699219 152.859375 C 362.125 152.113281 362.441406 150.941406 362.441406 150.300781 C 362.441406 149.664062 363.027344 147.425781 363.71875 145.34375 C 364.414062 143.214844 365.15625 140.65625 365.371094 139.640625 C 365.582031 138.628906 366.117188 136.65625 366.542969 135.21875 L 367.339844 132.714844 L 369.679688 134.84375 C 371.863281 136.871094 372.183594 136.976562 375.214844 136.976562 C 378.25 136.976562 378.621094 136.816406 380.699219 134.898438 L 382.933594 132.820312 L 382.933594 128.289062 L 382.988281 123.757812 L 378.25 123.386719 C 374.417969 123.121094 373.300781 123.171875 372.289062 123.867188 C 371.597656 124.34375 370.851562 124.71875 370.691406 124.71875 C 370.105469 124.71875 370.480469 122.105469 371.703125 118.324219 C 372.394531 116.136719 373.140625 113.527344 373.355469 112.566406 C 373.566406 111.605469 374.046875 110.167969 374.472656 109.367188 C 374.898438 108.570312 375.214844 107.398438 375.214844 106.808594 C 375.214844 106.171875 375.589844 104.945312 376.015625 104.144531 C 376.917969 102.386719 377.027344 100.949219 376.335938 100.46875 C 376.066406 100.308594 348.339844 100.148438 314.808594 100.042969 C 270.636719 99.988281 253.65625 100.09375 253.285156 100.519531 Z M 372.660156 105.105469 C 372.609375 106.171875 372.183594 107.769531 371.757812 108.570312 C 371.332031 109.367188 370.957031 110.328125 370.957031 110.648438 C 370.957031 110.96875 370.640625 111.925781 370.214844 112.78125 C 369.789062 113.632812 369.042969 116.136719 368.5625 118.324219 C 367.074219 124.984375 366.648438 126.53125 365.847656 128.34375 C 365.421875 129.300781 365.105469 130.476562 365.105469 131.007812 C 365.105469 131.488281 364.785156 132.554688 364.359375 133.351562 C 363.933594 134.152344 363.453125 135.589844 363.242188 136.550781 C 363.027344 137.511719 362.65625 138.523438 362.441406 138.84375 C 362.230469 139.109375 361.859375 140.441406 361.644531 141.773438 C 361.433594 143.105469 361.058594 144.386719 360.847656 144.707031 C 360.582031 144.972656 360.15625 146.410156 359.886719 147.902344 C 359.570312 149.34375 358.71875 152.378906 358.027344 154.566406 C 357.28125 156.75 356.269531 160.003906 355.789062 161.761719 C 355.257812 163.519531 354.300781 166.613281 353.660156 168.691406 C 352.96875 170.714844 352.277344 173.21875 352.066406 174.125 C 351.851562 175.085938 351.480469 175.992188 351.214844 176.152344 C 350.949219 176.363281 350.734375 177.109375 350.734375 177.910156 C 350.734375 178.710938 350.414062 180.414062 349.988281 181.75 C 349.511719 183.082031 348.820312 185.320312 348.445312 186.8125 C 345.519531 196.9375 344.027344 201.09375 343.175781 201.414062 C 342.699219 201.574219 322.847656 201.628906 299.109375 201.46875 L 255.890625 201.203125 L 256.050781 162.5625 C 256.105469 130.6875 256.316406 103.664062 256.476562 102.972656 C 256.53125 102.917969 282.714844 102.917969 314.703125 102.972656 L 372.820312 103.132812 Z M 378.515625 127.171875 C 378.410156 128.183594 378.675781 129.089844 379.15625 129.515625 C 380.273438 130.421875 380.21875 131.222656 378.890625 132.925781 C 377.984375 134.097656 377.398438 134.3125 375.164062 134.3125 C 370.480469 134.3125 368.457031 130.792969 370.800781 126.796875 C 371.703125 125.25 371.863281 125.199219 375.214844 125.359375 L 378.675781 125.519531 Z M 378.515625 127.171875 "/>
<path style=" stroke:none;fill-rule:nonzero;fill:rgb(0%,0%,0%);fill-opacity:1;" d="M 404.117188 100.628906 C 403.742188 101 403.425781 101.695312 403.425781 102.171875 C 403.425781 103.027344 403.210938 103.824219 400.019531 113.898438 C 398.953125 117.203125 398.101562 120.613281 398.101562 121.46875 C 398.101562 122.375 397.890625 123.171875 397.625 123.332031 C 397.355469 123.546875 396.984375 124.664062 396.773438 125.945312 C 396.558594 127.171875 396.1875 128.394531 395.972656 128.714844 C 395.761719 128.984375 395.070312 131.0625 394.375 133.246094 C 392.40625 139.960938 392.300781 140.28125 390.863281 144.757812 C 390.117188 147.15625 389.160156 150.515625 388.789062 152.222656 C 388.414062 153.980469 387.671875 156.699219 387.191406 158.296875 C 386.710938 159.894531 385.96875 162.402344 385.59375 163.894531 C 382.507812 175.085938 382.667969 174.820312 379.472656 174.820312 C 375.109375 174.820312 375.214844 172.207031 379.792969 169.328125 C 381.230469 168.371094 382.136719 167.410156 382.136719 166.769531 C 382.136719 165.4375 381.601562 165.492188 379.261719 167.089844 C 376.707031 168.796875 375.960938 168.742188 374.3125 166.824219 C 372.714844 164.851562 371.011719 164.800781 368.988281 166.503906 C 367.660156 167.675781 367.5 168.15625 367.339844 171.996094 C 367.074219 177.644531 367.234375 177.75 374.898438 177.75 C 381.710938 177.75 381.921875 177.910156 380.058594 182.335938 C 379.046875 184.679688 377.929688 188.355469 376.226562 195.339844 C 375.910156 196.457031 375.429688 197.738281 375.164062 198.109375 C 374.84375 198.429688 374.578125 199.921875 374.523438 201.308594 L 374.417969 203.867188 L 405.019531 204.132812 C 421.839844 204.292969 435.941406 204.347656 436.316406 204.242188 C 436.6875 204.082031 436.953125 203.492188 436.847656 202.855469 L 436.6875 201.734375 L 407.203125 201.628906 C 391.023438 201.574219 377.664062 201.414062 377.558594 201.308594 C 377.453125 201.203125 378.195312 198.589844 379.207031 195.445312 C 380.21875 192.355469 381.070312 189.53125 381.070312 189.210938 C 381.070312 188.835938 381.390625 187.824219 381.816406 186.917969 C 382.878906 184.519531 384.15625 179.777344 384.53125 176.84375 C 384.691406 175.460938 385.0625 174.179688 385.277344 174.019531 C 385.542969 173.914062 385.914062 172.847656 386.128906 171.78125 C 386.339844 170.664062 386.710938 169.488281 386.925781 169.222656 C 387.40625 168.691406 387.777344 167.359375 389.265625 161.226562 C 389.640625 159.734375 390.226562 157.871094 390.542969 157.070312 C 390.917969 156.21875 391.183594 155.152344 391.183594 154.671875 C 391.183594 154.191406 391.554688 153.285156 391.980469 152.753906 C 392.40625 152.167969 392.78125 150.996094 392.78125 150.195312 C 392.78125 149.34375 392.992188 148.277344 393.257812 147.742188 C 393.523438 147.265625 394.109375 145.398438 394.644531 143.640625 C 395.121094 141.882812 395.867188 139.484375 396.238281 138.308594 C 396.664062 137.136719 397.144531 135.324219 397.304688 134.3125 C 397.515625 133.300781 397.835938 132.179688 398.050781 131.914062 C 398.421875 131.273438 399.273438 128.34375 401.03125 121.519531 C 401.773438 118.75 402.679688 115.605469 403.105469 114.59375 C 404.167969 111.925781 405.554688 107.183594 405.554688 106.117188 C 405.554688 105.636719 405.925781 104.679688 406.40625 104.039062 L 407.203125 102.867188 L 436.792969 102.867188 C 456.914062 102.917969 466.546875 102.757812 466.972656 102.332031 C 467.34375 101.960938 467.238281 101.535156 466.652344 100.949219 C 465.960938 100.203125 462.289062 100.09375 435.359375 100.042969 C 410.664062 99.933594 404.703125 100.09375 404.117188 100.628906 Z M 374.046875 172.101562 C 373.886719 174.5 373.832031 174.554688 372.023438 174.554688 L 370.160156 174.554688 L 370 171.726562 C 369.839844 169.222656 369.949219 168.902344 371.066406 168.476562 C 373.035156 167.730469 374.257812 169.167969 374.046875 172.101562 Z M 374.046875 172.101562 "/>
<path style=" stroke:none;fill-rule:nonzero;fill:rgb(0%,0%,0%);fill-opacity:1;" d="M 82.070312 129.140625 C 81.695312 129.570312 81.535156 131.914062 81.589844 134.84375 C 81.695312 139.855469 81.695312 139.910156 83.027344 139.910156 C 84.089844 139.910156 84.410156 139.589844 84.625 138.308594 L 84.890625 136.710938 L 90.476562 136.710938 C 97.183594 136.710938 98.566406 136.125 96.597656 134.152344 C 96.011719 133.511719 94.734375 133.40625 90.210938 133.621094 L 84.625 133.9375 L 84.625 132.019531 C 84.625 128.714844 83.453125 127.4375 82.070312 129.140625 Z M 82.070312 129.140625 "/>
<path style=" stroke:none;fill-rule:nonzero;fill:rgb(0%,0%,0%);fill-opacity:1;" d="M 233.113281 130.6875 C 231.78125 133.671875 231.78125 134.953125 233.273438 137.5625 C 234.390625 139.589844 234.550781 139.640625 236.785156 139.535156 C 238.808594 139.375 239.179688 139.164062 240.03125 137.511719 C 240.5625 136.496094 241.414062 134.257812 241.949219 132.554688 L 242.90625 129.410156 L 243.863281 130.6875 C 244.820312 131.914062 245.140625 135.644531 244.394531 136.765625 C 244.183594 137.085938 243.492188 137.617188 242.851562 137.988281 C 241.363281 138.734375 241.789062 140.175781 243.492188 140.175781 C 244.183594 140.175781 245.246094 139.695312 245.941406 139.164062 C 247.109375 138.257812 247.21875 137.722656 247.21875 133.886719 C 247.21875 131.539062 247.058594 129.460938 246.898438 129.25 C 246.3125 128.714844 240.9375 128.554688 239.925781 129.089844 C 239.289062 129.410156 238.96875 130.15625 238.96875 131.433594 C 238.96875 133.78125 237.636719 136.976562 236.734375 136.976562 C 234.816406 136.976562 233.964844 133.460938 235.5625 132.179688 C 236.625 131.273438 236.308594 128.769531 235.082031 128.554688 C 234.445312 128.394531 233.859375 129.035156 233.113281 130.6875 Z M 233.113281 130.6875 "/>
<path style=" stroke:none;fill-rule:nonzero;fill:rgb(0%,0%,0%);fill-opacity:1;" d="M 376.8125 143.746094 C 372.023438 144.066406 370.746094 145.238281 371.066406 149.078125 C 371.277344 151.207031 371.597656 152.113281 372.609375 152.914062 C 374.257812 154.300781 375.109375 153.445312 373.9375 151.632812 C 372.875 150.035156 372.980469 146.835938 374.097656 146.835938 C 374.523438 146.835938 375.164062 147.957031 375.589844 149.503906 C 376.867188 153.925781 378.890625 155.152344 381.445312 153.019531 C 382.933594 151.742188 383.253906 150.195312 382.773438 146.570312 C 382.347656 143.265625 382.667969 143.425781 376.8125 143.746094 Z M 380.21875 147.425781 C 380.804688 148.917969 380.539062 150.140625 379.472656 151.101562 C 378.621094 151.847656 378.410156 151.902344 378.195312 151.316406 C 378.089844 150.886719 377.71875 149.769531 377.398438 148.757812 C 377.078125 147.742188 376.8125 146.835938 376.8125 146.785156 C 376.8125 146.089844 379.953125 146.730469 380.21875 147.425781 Z M 380.21875 147.425781 "/>
<path style=" stroke:none;fill-rule:nonzero;fill:rgb(0%,0%,0%);fill-opacity:1;" d="M 87.285156 147.582031 C 85.101562 148.171875 84.355469 153.234375 86.21875 155.097656 C 87.976562 156.859375 88.507812 156.429688 88.082031 153.5 C 87.710938 150.835938 87.710938 150.78125 88.988281 151.101562 C 89.839844 151.316406 90.53125 151.15625 90.957031 150.621094 C 92.074219 149.234375 93.457031 149.609375 94.203125 151.421875 C 94.734375 152.59375 94.734375 153.339844 94.363281 153.980469 C 93.40625 155.472656 92.234375 155.257812 91.914062 153.5 C 91.703125 152.648438 91.328125 151.902344 91.011719 151.902344 C 90.160156 151.902344 90.371094 155.097656 91.277344 155.417969 C 91.703125 155.632812 92.074219 156.21875 92.074219 156.804688 C 92.074219 157.816406 91.863281 157.871094 89.464844 157.550781 C 87.445312 157.285156 86.644531 157.390625 86.007812 158.03125 C 83.984375 160.054688 85.953125 161.386719 89.945312 160.75 C 92.5 160.375 94.734375 161.121094 94.734375 162.453125 C 94.734375 164.160156 93.566406 164.691406 89.890625 164.691406 C 87.496094 164.691406 86.167969 164.960938 85.742188 165.4375 C 84.675781 166.71875 86.910156 167.515625 91.0625 167.25 C 96.011719 166.984375 96.8125 166.238281 96.757812 161.65625 C 96.757812 159.257812 96.546875 158.136719 96.011719 157.921875 C 95.054688 157.550781 95.054688 156.484375 96.066406 155.632812 C 97.023438 154.832031 97.128906 151.847656 96.226562 150.941406 C 95.800781 150.515625 95.800781 150.140625 96.332031 149.554688 C 97.714844 147.796875 96.597656 147.105469 92.5 147.15625 C 90.371094 147.210938 88.03125 147.371094 87.285156 147.582031 Z M 87.285156 147.582031 "/>
<path style=" stroke:none;fill-rule:nonzero;fill:rgb(0%,0%,0%);fill-opacity:1;" d="M 238.277344 147.476562 C 237.105469 147.796875 235.773438 150.355469 235.773438 152.273438 C 235.828125 154.03125 237.691406 156.589844 238.4375 155.84375 C 238.703125 155.578125 238.96875 154.300781 239.074219 152.96875 C 239.289062 150.035156 240.136719 149.824219 240.617188 152.648438 C 240.777344 153.765625 241.363281 154.9375 241.839844 155.207031 C 242.320312 155.472656 242.691406 156.164062 242.691406 156.699219 C 242.691406 157.550781 242.320312 157.765625 240.882812 157.765625 C 239.871094 157.765625 238.863281 157.496094 238.703125 157.175781 C 238.277344 156.484375 235.773438 158.671875 235.773438 159.683594 C 235.773438 160.480469 238.222656 160.960938 241.734375 160.800781 C 244.664062 160.695312 245.621094 161.386719 245.140625 163.308594 C 244.820312 164.640625 244.609375 164.691406 241.203125 164.691406 C 238.914062 164.691406 237.210938 164.960938 236.519531 165.4375 C 235.5625 166.183594 235.5625 166.238281 237.105469 166.824219 C 239.445312 167.730469 245.035156 167.25 246.367188 166.078125 C 247.324219 165.226562 247.429688 164.53125 247.324219 161.707031 C 247.21875 159.84375 246.84375 157.976562 246.472656 157.550781 C 245.941406 156.910156 245.992188 156.539062 246.578125 155.523438 C 247.058594 154.726562 247.324219 153.074219 247.21875 150.835938 L 247.109375 147.371094 L 243.171875 147.265625 C 240.988281 147.265625 238.808594 147.316406 238.277344 147.476562 Z M 244.394531 150.675781 C 245.40625 151.582031 245.621094 153.285156 244.820312 154.566406 C 244.449219 155.207031 244.183594 155.207031 243.332031 154.351562 C 242.746094 153.875 242.109375 152.808594 241.949219 152.113281 C 241.363281 149.769531 242.585938 149.023438 244.394531 150.675781 Z M 244.394531 150.675781 "/>
<path style=" stroke:none;fill-rule:nonzero;fill:rgb(0%,0%,0%);fill-opacity:1;" d="M 371.652344 155.417969 C 370.585938 155.898438 370.851562 157.125 372.023438 157.496094 C 372.609375 157.65625 374.097656 157.65625 375.324219 157.496094 C 379.582031 156.859375 382.027344 158.882812 379.261719 160.75 C 378.25 161.386719 377.238281 161.496094 375.003906 161.226562 C 372.449219 160.910156 372.078125 160.960938 371.542969 161.921875 C 371.226562 162.453125 371.171875 163.09375 371.332031 163.308594 C 371.492188 163.46875 373.621094 163.625 376.066406 163.625 C 380.324219 163.625 380.484375 163.574219 381.816406 161.972656 C 382.988281 160.589844 383.148438 160.003906 382.878906 158.136719 C 382.667969 156.910156 382.507812 155.84375 382.453125 155.84375 C 382.242188 155.578125 372.128906 155.207031 371.652344 155.417969 Z M 371.652344 155.417969 "/>
<path style=" stroke:none;fill-rule:nonzero;fill:rgb(0%,0%,0%);fill-opacity:1;" d="M 83.773438 169.597656 C 83.132812 169.863281 82.386719 171.035156 82.015625 172.15625 C 81.324219 174.554688 81.269531 180.097656 81.960938 181.214844 C 82.652344 182.386719 94.46875 182.921875 96.226562 181.855469 C 97.980469 180.84375 97.398438 179.882812 94.949219 179.722656 C 90.742188 179.457031 90.371094 179.242188 90.796875 177.324219 C 91.328125 174.871094 91.96875 174.074219 94.574219 172.6875 C 96.332031 171.726562 96.863281 171.195312 96.757812 170.34375 C 96.546875 168.902344 95.160156 169.117188 92.871094 170.875 L 91.167969 172.15625 L 89.148438 170.554688 C 87.070312 168.902344 85.6875 168.636719 83.773438 169.597656 Z M 87.710938 172.261719 C 88.457031 173.21875 88.667969 178.445312 87.976562 179.136719 C 87.65625 179.457031 86.753906 179.617188 85.902344 179.507812 L 84.355469 179.351562 L 84.570312 175.886719 C 84.675781 173.964844 84.835938 172.261719 84.996094 171.996094 C 85.367188 171.410156 87.125 171.566406 87.710938 172.261719 Z M 87.710938 172.261719 "/>
<path style=" stroke:none;fill-rule:nonzero;fill:rgb(0%,0%,0%);fill-opacity:1;" d="M 233.804688 170.234375 C 232.421875 171.410156 232.316406 171.835938 232.15625 175.992188 C 232.101562 178.390625 232.261719 180.789062 232.527344 181.214844 C 232.953125 181.800781 234.65625 182.066406 239.605469 182.335938 C 246.3125 182.601562 247.484375 182.386719 247.484375 180.683594 C 247.484375 179.5625 246.417969 179.03125 244.875 179.457031 C 244.289062 179.617188 243.171875 179.5625 242.425781 179.402344 C 239.660156 178.710938 241.363281 174.871094 245.355469 172.742188 C 247.324219 171.726562 247.800781 170.769531 247.003906 169.542969 C 246.578125 168.902344 246.257812 168.957031 245.089844 169.808594 C 241.628906 172.207031 241.523438 172.261719 239.765625 170.554688 C 237.742188 168.582031 235.828125 168.53125 233.804688 170.234375 Z M 238.703125 175.617188 L 238.703125 179.351562 L 234.976562 179.351562 L 234.816406 176.257812 C 234.65625 172.6875 235.296875 171.515625 237.316406 171.726562 C 238.648438 171.886719 238.703125 171.996094 238.703125 175.617188 Z M 238.703125 175.617188 "/>
<path style=" stroke:none;fill-rule:nonzero;fill:rgb(0%,0%,0%);fill-opacity:1;" d="M 146.414062 211.4375 C 146.148438 211.96875 145.933594 215.484375 145.882812 219.21875 C 145.828125 224.8125 145.988281 226.09375 146.628906 226.304688 C 148.117188 226.890625 149.023438 225.507812 148.703125 223.320312 C 148.4375 221.667969 148.542969 221.1875 149.394531 220.761719 C 150.832031 219.964844 153.492188 221.617188 154.609375 224.066406 C 155.515625 225.933594 156.6875 226.785156 157.644531 226.199219 C 158.335938 225.71875 157.699219 223.480469 156.472656 222.09375 C 155.144531 220.65625 155.144531 220.441406 156.738281 218.84375 C 158.707031 216.871094 158.550781 214.421875 156.3125 212.234375 C 154.664062 210.636719 154.292969 210.53125 150.726562 210.53125 C 147.636719 210.53125 146.839844 210.6875 146.414062 211.4375 Z M 154.34375 214.421875 C 155.25 214.847656 155.675781 215.539062 155.675781 216.390625 C 155.675781 217.671875 155.515625 217.726562 152.214844 217.726562 C 149.023438 217.726562 148.757812 217.617188 148.597656 216.5 C 148.488281 215.804688 148.703125 214.898438 149.023438 214.472656 C 149.820312 213.566406 152.535156 213.515625 154.34375 214.421875 Z M 154.34375 214.421875 "/>
<path style=" stroke:none;fill-rule:nonzero;fill:rgb(0%,0%,0%);fill-opacity:1;" d="M 187.980469 211.222656 C 187.660156 211.59375 187.34375 214.953125 187.289062 218.789062 C 187.183594 224.546875 187.289062 225.71875 187.980469 226.199219 C 189.363281 227.050781 190.535156 225.71875 190.164062 223.746094 C 189.789062 221.777344 190.535156 221.1875 193.460938 221.1875 C 195.804688 221.136719 196.710938 220.601562 198.144531 218.363281 C 199.421875 216.339844 198.996094 214.6875 196.601562 212.394531 C 194.898438 210.6875 194.421875 210.53125 191.601562 210.53125 C 189.789062 210.53125 188.300781 210.796875 187.980469 211.222656 Z M 195.164062 214.898438 C 197.027344 216.390625 195.273438 218.523438 192.183594 218.523438 C 190.375 218.523438 189.203125 217.03125 189.738281 215.328125 C 190.269531 213.726562 193.460938 213.460938 195.164062 214.898438 Z M 195.164062 214.898438 "/>
<path style=" stroke:none;fill-rule:nonzero;fill:rgb(0%,0%,0%);fill-opacity:1;" d="M 160.785156 215.804688 C 160.039062 217.136719 160.039062 222.253906 160.730469 224.066406 C 161.476562 226.039062 163.179688 226.679688 166.320312 226.144531 L 168.980469 225.71875 L 169.140625 221.457031 C 169.300781 216.5 168.980469 214.792969 167.96875 214.792969 C 166.90625 214.792969 166.585938 216.019531 166.585938 219.855469 C 166.585938 222.628906 166.425781 223.375 165.574219 223.800781 C 163.710938 224.8125 162.914062 223.429688 162.753906 219.109375 C 162.59375 215.007812 161.847656 213.78125 160.785156 215.804688 Z M 160.785156 215.804688 "/>
<path style=" stroke:none;fill-rule:nonzero;fill:rgb(0%,0%,0%);fill-opacity:1;" d="M 171.695312 215.804688 C 170.363281 217.296875 171.109375 218.152344 173.503906 217.832031 C 174.621094 217.726562 175.792969 217.777344 176.164062 217.992188 C 177.175781 218.632812 176.273438 219.589844 174.621094 219.589844 C 173.71875 219.589844 172.601562 220.175781 171.640625 221.1875 C 170.203125 222.679688 170.152344 222.894531 170.898438 224.175781 C 171.960938 226.144531 173.292969 226.625 176.964844 226.144531 L 180.15625 225.71875 L 180.050781 220.921875 C 179.945312 215.753906 179.253906 214.421875 177.015625 215.167969 C 175.632812 215.59375 174.570312 215.59375 173.453125 215.113281 C 172.972656 214.898438 172.28125 215.167969 171.695312 215.804688 Z M 176.910156 221.507812 C 177.65625 221.777344 177.65625 221.933594 176.859375 223.109375 C 175.472656 225.238281 172.386719 224.332031 173.558594 222.148438 C 174.089844 221.1875 175.367188 220.921875 176.910156 221.507812 Z M 176.910156 221.507812 "/>
<path style=" stroke:none;fill-rule:nonzero;fill:rgb(0%,0%,0%);fill-opacity:1;" d="M 11.390625 232.59375 C 11.230469 233.023438 11.230469 233.660156 11.441406 233.980469 C 11.65625 234.355469 21.34375 234.515625 41.566406 234.515625 L 71.316406 234.515625 L 71.316406 263.507812 C 71.316406 288.773438 71.425781 292.554688 72.117188 292.824219 C 73.128906 293.195312 74.511719 292.664062 74.5625 291.863281 C 74.777344 288.453125 74.511719 232.753906 74.246094 232.488281 C 74.03125 232.273438 59.875 232.0625 42.789062 231.957031 C 15.753906 231.847656 11.65625 231.902344 11.390625 232.59375 Z M 11.390625 232.59375 "/>
<path style=" stroke:none;fill-rule:nonzero;fill:rgb(0%,0%,0%);fill-opacity:1;" d="M 102.347656 232.222656 C 101.8125 232.433594 101.65625 238.9375 101.65625 262.230469 C 101.65625 292.023438 101.65625 292.023438 102.773438 292.664062 C 103.515625 293.035156 104.101562 293.035156 104.421875 292.714844 C 104.742188 292.394531 104.902344 281.789062 104.902344 263.347656 L 104.792969 234.515625 L 163.710938 234.621094 L 222.574219 234.78125 L 222.734375 263.453125 C 222.839844 281.949219 223.054688 292.34375 223.425781 292.714844 C 223.800781 293.089844 224.332031 293.035156 225.078125 292.664062 L 226.195312 292.023438 L 225.875 262.601562 C 225.664062 244.640625 225.289062 232.914062 224.96875 232.488281 C 224.597656 232.007812 211.71875 231.847656 163.710938 231.902344 C 130.339844 231.902344 102.664062 232.0625 102.347656 232.222656 Z M 102.347656 232.222656 "/>
<path style=" stroke:none;fill-rule:nonzero;fill:rgb(0%,0%,0%);fill-opacity:1;" d="M 253.390625 232.59375 C 252.964844 233.074219 252.859375 241.441406 252.910156 262.816406 L 253.070312 292.34375 L 256.265625 292.34375 L 256.160156 279.019531 C 256.105469 271.664062 256 258.710938 255.945312 250.238281 L 255.839844 234.78125 L 291.925781 234.621094 L 327.957031 234.515625 L 327.6875 235.6875 C 327.53125 236.378906 326.996094 238.246094 326.519531 239.84375 C 326.039062 241.441406 325.402344 244.109375 325.132812 245.707031 C 324.816406 247.304688 324.390625 249.011719 324.125 249.492188 C 323.855469 249.96875 323.484375 251.304688 323.273438 252.421875 C 323.113281 253.59375 322.738281 254.765625 322.472656 255.085938 C 322.207031 255.40625 321.78125 257.058594 321.515625 258.816406 C 320.875 262.65625 319.8125 266.707031 316.351562 278.324219 C 315.925781 279.710938 315.609375 281.148438 315.609375 281.578125 C 315.609375 282.003906 315.128906 283.867188 314.542969 285.679688 C 313.265625 289.730469 313.160156 292.503906 314.277344 292.984375 C 315.714844 293.515625 317.097656 291.648438 317.363281 288.984375 C 317.578125 286.265625 319.171875 279.496094 319.867188 278.21875 C 320.078125 277.738281 320.449219 276.300781 320.664062 275.019531 C 320.875 273.742188 321.25 272.300781 321.515625 271.824219 C 322.207031 270.492188 324.125 262.070312 324.125 260.308594 C 324.125 259.457031 324.335938 258.5 324.601562 258.179688 C 324.921875 257.910156 325.347656 256.738281 325.667969 255.566406 C 325.984375 254.394531 326.570312 251.996094 327.050781 250.238281 C 327.53125 248.476562 328.222656 245.601562 328.648438 243.839844 C 329.019531 242.082031 329.871094 239.203125 330.457031 237.5 C 331.789062 233.714844 331.839844 232.59375 330.722656 232.167969 C 330.242188 232.007812 312.839844 231.847656 291.925781 231.847656 C 260.574219 231.847656 253.871094 231.957031 253.390625 232.59375 Z M 253.390625 232.59375 "/>
<path style=" stroke:none;fill-rule:nonzero;fill:rgb(0%,0%,0%);fill-opacity:1;" d="M 359.355469 232.273438 C 358.664062 232.753906 357.972656 234.566406 356.800781 239.578125 C 355.097656 246.398438 354.511719 248.746094 353.660156 251.570312 C 353.183594 253.167969 352.492188 255.941406 352.117188 257.699219 C 351.214844 261.695312 350.203125 265.90625 349.671875 267.292969 C 349.457031 267.878906 348.765625 270.648438 348.125 273.421875 C 347.433594 276.195312 346.691406 278.964844 346.476562 279.550781 C 345.625 281.46875 343.816406 289.359375 343.816406 291.011719 C 343.816406 293.035156 345.039062 293.621094 346.476562 292.34375 C 347.167969 291.703125 347.542969 290.691406 347.542969 289.464844 C 347.59375 286.851562 348.339844 283.601562 351 274.488281 C 351.480469 272.890625 352.4375 269.15625 353.183594 266.226562 C 353.875 263.296875 354.832031 259.5625 355.257812 257.964844 C 355.738281 256.367188 356.324219 254.179688 356.589844 253.167969 C 356.855469 252.15625 357.441406 249.96875 357.867188 248.371094 C 358.984375 244.109375 360.207031 238.832031 360.582031 236.484375 L 360.898438 234.515625 L 391.238281 234.515625 C 418.539062 234.515625 421.574219 234.40625 421.890625 233.660156 C 422.050781 233.179688 421.890625 232.59375 421.464844 232.328125 C 420.5625 231.742188 360.3125 231.6875 359.355469 232.273438 Z M 359.355469 232.273438 "/>
</g>
</svg>
