<?xml version="1.0" encoding="UTF-8"?>
<svg xmlns="http://www.w3.org/2000/svg" xmlns:xlink="http://www.w3.org/1999/xlink" width="399pt" height="257pt" viewBox="0 0 399 257" version="1.1">
<g id="surface1">
<path style=" stroke:none;fill-rule:nonzero;fill:rgb(0%,0%,0%);fill-opacity:1;" d="M 2.214844 128.898438 L 2.214844 253.363281 L 197.285156 253.273438 L 392.394531 253.140625 L 392.351562 128.898438 L 392.351562 4.660156 L 197.285156 4.527344 L 2.214844 4.4375 Z M 390.132812 128.898438 L 390.132812 250.699219 L 197.636719 250.609375 L 5.097656 250.476562 L 4.964844 129.34375 C 4.921875 62.695312 4.964844 7.941406 5.097656 7.632812 C 5.230469 7.234375 44.199219 7.097656 197.726562 7.097656 L 390.132812 7.097656 Z M 390.132812 128.898438 "/>
<path style=" stroke:none;fill-rule:nonzero;fill:rgb(0%,0%,0%);fill-opacity:1;" d="M 27.574219 13.710938 C 27 13.84375 26.289062 14.464844 25.933594 15.042969 L 25.359375 16.105469 L 24.207031 14.953125 C 22.742188 13.488281 20.039062 13.3125 18.929688 14.554688 C 17.820312 15.796875 17.867188 21.785156 18.976562 22.761719 C 20.214844 23.917969 22.566406 23.695312 23.941406 22.40625 C 25.003906 21.386719 25.09375 20.988281 24.914062 19.125 C 24.828125 17.792969 24.914062 16.859375 25.226562 16.683594 C 25.582031 16.460938 25.714844 17.214844 25.714844 19.078125 C 25.714844 22.808594 26.15625 23.515625 28.59375 23.515625 C 31.433594 23.515625 31.921875 22.808594 31.921875 18.679688 C 31.921875 15.929688 31.742188 15.085938 31.167969 14.554688 C 30.148438 13.667969 28.816406 13.355469 27.574219 13.710938 Z M 22.167969 18.457031 C 22.167969 21.386719 22.078125 21.785156 21.414062 21.652344 C 20.792969 21.519531 20.570312 20.988281 20.480469 18.902344 C 20.304688 15.886719 20.527344 15.085938 21.5 15.085938 C 22.035156 15.085938 22.167969 15.707031 22.167969 18.457031 Z M 29.171875 15.484375 C 29.570312 15.707031 29.703125 16.683594 29.613281 18.679688 C 29.480469 21.164062 29.394531 21.519531 28.59375 21.519531 C 27.839844 21.519531 27.707031 21.164062 27.574219 18.902344 C 27.398438 15.308594 27.753906 14.554688 29.171875 15.484375 Z M 29.171875 15.484375 "/>
<path style=" stroke:none;fill-rule:nonzero;fill:rgb(0%,0%,0%);fill-opacity:1;" d="M 12.945312 15.21875 C 11.128906 17.082031 11.039062 18.28125 12.769531 18.105469 C 13.964844 17.96875 13.964844 18.015625 13.964844 20.632812 C 13.964844 23.160156 14.007812 23.296875 15.074219 23.296875 C 16.183594 23.296875 16.183594 23.296875 16.316406 18.503906 C 16.449219 13.800781 16.449219 13.753906 15.382812 13.753906 C 14.808594 13.753906 13.742188 14.375 12.945312 15.21875 Z M 12.945312 15.21875 "/>
<path style=" stroke:none;fill-rule:nonzero;fill:rgb(0%,0%,0%);fill-opacity:1;" d="M 36 19.035156 C 34.3125 19.347656 34.09375 20.101562 35.554688 20.410156 C 36.53125 20.675781 36.53125 20.675781 36.574219 29.507812 C 36.621094 34.386719 36.53125 38.648438 36.441406 38.914062 C 36.351562 39.222656 35.867188 39.492188 35.421875 39.492188 C 34.980469 39.492188 34.578125 39.667969 34.578125 39.933594 C 34.578125 40.15625 34.980469 40.378906 35.421875 40.378906 C 35.910156 40.378906 36.351562 40.777344 36.488281 41.355469 C 36.574219 41.929688 36.664062 50.761719 36.621094 61.054688 C 36.574219 75.296875 36.441406 79.914062 36 80.402344 C 35.554688 80.933594 35.554688 81.15625 36.042969 81.554688 C 36.488281 81.910156 36.621094 84.171875 36.574219 91.050781 L 36.574219 100.058594 L 35.378906 100.191406 C 34.667969 100.28125 34.136719 100.589844 34.136719 100.945312 C 34.136719 101.300781 34.667969 101.609375 35.378906 101.699219 L 36.574219 101.832031 L 36.574219 110.839844 C 36.574219 117.40625 36.441406 119.980469 36.042969 120.335938 C 35.601562 120.691406 35.644531 121 36.085938 121.710938 C 36.53125 122.464844 36.664062 126.8125 36.621094 141.546875 L 36.574219 160.402344 L 35.554688 160.535156 C 35.023438 160.625 34.578125 160.980469 34.578125 161.335938 C 34.578125 161.777344 34.847656 161.910156 35.421875 161.734375 C 36.621094 161.378906 36.707031 162.222656 36.488281 173.050781 C 36.398438 178.285156 36.351562 182.898438 36.351562 183.253906 C 36.53125 197.632812 36.574219 202.46875 36.351562 202.777344 C 36.21875 203 35.820312 203.132812 35.464844 203.089844 C 35.113281 203.042969 34.800781 203.175781 34.800781 203.445312 C 34.800781 203.664062 35.113281 203.84375 35.464844 203.796875 C 35.820312 203.753906 36.21875 203.929688 36.398438 204.152344 C 36.929688 205.039062 36.574219 222.167969 36.042969 222.832031 C 35.601562 223.320312 35.601562 223.589844 36.042969 224.03125 C 36.308594 224.296875 36.574219 225.140625 36.621094 225.894531 C 36.707031 227.804688 37.550781 228.558594 38.394531 227.449219 C 38.746094 226.960938 39.011719 226.074219 39.011719 225.496094 L 39.011719 224.386719 L 51.339844 224.652344 C 58.078125 224.832031 69.691406 224.785156 77.140625 224.609375 C 84.589844 224.429688 93.1875 224.34375 96.335938 224.429688 L 101.964844 224.5625 L 101.964844 225.851562 C 101.964844 226.5625 102.1875 227.269531 102.453125 227.449219 C 103.074219 227.804688 103.785156 226.78125 103.605469 225.628906 C 103.519531 224.742188 103.785156 224.742188 135.351562 224.652344 L 167.136719 224.5625 L 167.136719 225.894531 C 167.136719 227.714844 168.601562 227.539062 168.820312 225.71875 L 168.953125 224.476562 L 183.230469 224.609375 C 191.078125 224.699219 202.601562 224.699219 208.808594 224.609375 C 215.015625 224.519531 222.863281 224.476562 226.234375 224.519531 L 232.308594 224.519531 L 232.308594 226.074219 C 232.308594 227.136719 232.527344 227.625 232.972656 227.625 C 233.414062 227.625 233.636719 227.183594 233.636719 226.160156 L 233.636719 224.699219 L 259.039062 224.609375 C 272.960938 224.5625 286.882812 224.519531 289.941406 224.519531 C 293 224.519531 295.613281 224.519531 295.835938 224.519531 C 296.011719 224.519531 296.148438 224.917969 296.148438 225.363281 C 296.148438 226.292969 297.832031 227.757812 298.453125 227.359375 C 298.628906 227.226562 298.808594 180.324219 298.808594 123.175781 L 298.808594 19.167969 L 297.785156 18.992188 C 296.148438 18.679688 37.59375 18.726562 36 19.035156 Z M 264.582031 20.855469 C 264.980469 20.855469 265.113281 22.894531 265.113281 29.683594 C 265.113281 36.207031 264.980469 38.601562 264.582031 38.871094 C 264.226562 39.089844 233.636719 39.179688 194.179688 39.046875 C 155.789062 38.914062 105.335938 38.914062 82.105469 39.046875 C 58.832031 39.179688 39.632812 39.136719 39.367188 39.003906 C 38.96875 38.738281 38.835938 21.519531 39.191406 20.898438 C 39.324219 20.722656 245.605469 20.675781 264.582031 20.855469 Z M 296.058594 29.816406 C 296.101562 34.921875 296.011719 39.046875 295.835938 39.046875 C 295.613281 39.046875 293 39.089844 289.941406 39.136719 L 284.398438 39.222656 L 284.265625 30.394531 C 284.222656 25.511719 284.265625 21.296875 284.355469 20.988281 C 284.53125 20.589844 286.082031 20.457031 290.25 20.542969 L 295.925781 20.632812 Z M 278.457031 21.964844 C 278.457031 22.1875 278.945312 22.675781 279.566406 22.984375 C 280.140625 23.296875 280.628906 23.738281 280.628906 24.003906 C 280.628906 24.269531 280.941406 24.40625 281.296875 24.226562 C 281.871094 24.003906 281.960938 25.027344 281.960938 31.636719 C 282.09375 90.117188 281.914062 221.636719 281.695312 221.8125 C 281.5625 221.945312 278.234375 222.167969 274.335938 222.257812 L 267.195312 222.390625 L 267.507812 124.863281 C 267.640625 71.171875 267.863281 26.535156 267.90625 25.648438 C 268.039062 23.738281 269.101562 22.71875 271.097656 22.585938 L 272.429688 22.496094 L 271.230469 22.320312 C 270.523438 22.230469 269.988281 21.917969 269.988281 21.699219 C 269.988281 21.121094 278.414062 21.386719 278.457031 21.964844 Z M 286.527344 40.601562 C 288.34375 41.355469 293.132812 41.488281 294.375 40.820312 C 295.96875 39.980469 296.191406 41.132812 296.058594 50.363281 L 295.925781 59.148438 L 291.179688 59.191406 C 286.214844 59.234375 285.152344 59.546875 286.570312 60.613281 C 287.679688 61.410156 293.972656 61.453125 294.726562 60.699219 C 295.878906 59.546875 296.148438 61.5 296.011719 70.726562 L 295.925781 79.957031 L 290.160156 80.046875 L 284.398438 80.089844 L 284.265625 61.453125 C 284.175781 44.949219 284.308594 39.933594 284.796875 39.933594 C 284.886719 39.933594 285.683594 40.246094 286.527344 40.601562 Z M 116.375 41.796875 C 116.507812 42.597656 116.597656 46.8125 116.507812 51.160156 L 116.375 59.015625 L 77.847656 59.058594 C 56.65625 59.058594 39.234375 58.96875 39.144531 58.835938 C 38.878906 58.570312 38.878906 41.664062 39.144531 41.398438 C 39.28125 41.308594 56.082031 41.222656 76.519531 41.222656 C 97 41.222656 114.113281 41.042969 114.601562 40.820312 C 115.976562 40.246094 116.109375 40.289062 116.375 41.796875 Z M 264.316406 41.132812 C 265.023438 41.753906 265.113281 42.683594 265.113281 50.273438 C 265.113281 57.683594 265.023438 58.746094 264.359375 59.234375 C 263.648438 59.769531 263.648438 59.855469 264.316406 60.921875 C 264.9375 61.808594 265.070312 63.453125 265.15625 70.285156 C 265.203125 74.855469 265.113281 78.671875 264.980469 78.847656 C 264.847656 78.980469 260.722656 79.027344 255.890625 79.027344 C 249.863281 78.980469 246.980469 79.113281 246.847656 79.425781 C 246.757812 79.78125 239.886719 79.914062 223.882812 79.914062 L 201.050781 79.914062 L 200.917969 70.863281 C 200.785156 60.167969 200.652344 60.523438 204.863281 61.234375 C 208.144531 61.722656 256.46875 61.808594 260.148438 61.277344 C 262.808594 60.921875 263.960938 60.125 262.898438 59.457031 C 262.496094 59.191406 238.378906 59.015625 199.5 59.015625 L 136.769531 59.058594 L 136.636719 50.9375 C 136.589844 46.457031 136.636719 42.417969 136.722656 41.929688 C 136.945312 41.042969 137.257812 41.042969 198.96875 41.175781 C 237.714844 41.222656 261.390625 41.132812 262.054688 40.867188 C 263.472656 40.289062 263.382812 40.289062 264.316406 41.132812 Z M 133.929688 62.785156 C 134.0625 74.765625 134.242188 115.5 134.285156 153.347656 C 134.328125 208.101562 134.195312 222.257812 133.796875 222.347656 C 133.488281 222.433594 129.898438 222.480469 125.816406 222.390625 L 118.371094 222.257812 L 118.371094 41.308594 L 125.375 41.132812 C 129.1875 41.089844 132.644531 41.042969 133 41.042969 C 133.578125 41.042969 133.710938 43.882812 133.929688 62.785156 Z M 77.804688 61.453125 C 106.886719 61.453125 113.890625 61.320312 114.734375 60.878906 C 115.3125 60.523438 115.933594 60.390625 116.066406 60.566406 C 116.242188 60.746094 116.375 65.136719 116.375 70.375 L 116.375 79.914062 L 77.847656 79.914062 C 56.65625 79.914062 39.28125 79.824219 39.191406 79.734375 C 39.101562 79.648438 39.011719 75.566406 39.011719 70.59375 C 38.925781 60.878906 39.144531 59.855469 40.964844 60.921875 C 41.671875 61.320312 50.230469 61.453125 77.804688 61.453125 Z M 141.203125 61.234375 C 144.082031 61.722656 174.140625 61.722656 177.332031 61.234375 C 181.058594 60.699219 181.058594 60.613281 181.101562 70.773438 C 181.101562 75.566406 180.96875 79.601562 180.746094 79.734375 C 180.570312 79.824219 174.628906 79.957031 167.535156 79.957031 C 158.136719 79.957031 154.5 79.78125 154.015625 79.378906 C 153.570312 79.027344 151.132812 78.894531 145.058594 79.027344 L 136.769531 79.203125 L 136.636719 70.773438 C 136.503906 60.964844 136.589844 60.125 138.007812 60.566406 C 138.542969 60.746094 140.003906 61.054688 141.203125 61.234375 Z M 198.746094 90.386719 C 199.144531 129.34375 199.144531 222.210938 198.746094 222.390625 C 198.523438 222.480469 195.023438 222.480469 190.855469 222.390625 L 183.316406 222.210938 L 183.40625 151.394531 C 183.496094 112.4375 183.539062 76.273438 183.539062 71.082031 L 183.539062 61.675781 L 198.480469 61.675781 Z M 295.613281 81.867188 C 296.058594 82.042969 296.148438 84.085938 296.058594 91.007812 L 295.925781 99.96875 L 290.160156 100.011719 L 284.398438 100.058594 L 284.265625 91.183594 C 284.222656 86.300781 284.222656 82.132812 284.308594 81.867188 C 284.488281 81.421875 294.328125 81.421875 295.613281 81.867188 Z M 116.375 90.960938 L 116.375 99.878906 L 77.9375 99.878906 C 56.746094 99.835938 39.324219 99.835938 39.144531 99.835938 C 38.878906 99.835938 38.792969 81.867188 39.011719 81.867188 C 39.011719 81.867188 56.4375 81.910156 77.671875 81.953125 L 116.375 82.042969 Z M 181.144531 90.828125 C 181.144531 95.796875 181.058594 99.835938 180.925781 99.835938 C 180.390625 99.878906 155.386719 99.878906 154.902344 99.878906 C 154.414062 99.835938 154.28125 82.488281 154.8125 82.085938 C 154.988281 81.953125 160.972656 81.867188 168.113281 81.867188 L 181.101562 81.867188 Z M 246.625 90.917969 L 246.671875 99.835938 L 223.707031 99.925781 L 200.742188 100.058594 L 200.785156 91.226562 C 200.828125 86.347656 200.964844 82.265625 201.050781 82.132812 C 201.140625 82 211.425781 81.910156 223.925781 81.910156 L 246.625 82 Z M 264.804688 152.0625 C 264.890625 214.226562 264.804688 222.300781 264.226562 222.347656 C 263.871094 222.347656 260.28125 222.347656 256.246094 222.347656 L 248.933594 222.300781 L 248.796875 151.972656 L 248.710938 81.644531 L 256.691406 81.730469 L 264.714844 81.867188 Z M 151.398438 82.621094 C 151.574219 82.753906 151.707031 114.167969 151.753906 152.371094 L 151.839844 221.859375 L 150.066406 222.078125 C 149.09375 222.210938 145.8125 222.300781 142.753906 222.210938 L 137.210938 222.078125 L 137.078125 152.0625 L 136.988281 82.042969 L 144.039062 82.175781 C 147.941406 82.265625 151.222656 82.441406 151.398438 82.621094 Z M 116.375 110.929688 L 116.375 119.847656 L 39.234375 119.847656 L 39.144531 118.828125 C 39.101562 118.25 38.96875 114.257812 38.925781 109.953125 C 38.792969 103.339844 38.878906 102.054688 39.414062 101.964844 C 39.765625 101.878906 57.234375 101.878906 78.203125 101.921875 L 116.375 102.011719 Z M 180.703125 102.054688 C 181.191406 102.054688 181.367188 119.757812 180.878906 119.847656 C 180.746094 119.847656 174.804688 119.890625 167.625 119.9375 L 154.589844 119.980469 L 154.546875 111.019531 C 154.5 106.09375 154.632812 102.011719 154.8125 101.964844 C 155.078125 101.878906 168.289062 101.921875 180.703125 102.054688 Z M 246.625 110.796875 C 246.582031 115.632812 246.539062 119.671875 246.539062 119.804688 C 246.492188 119.9375 241.351562 120.023438 235.101562 120.023438 C 228.804688 120.023438 222.6875 120.113281 221.445312 120.246094 L 219.226562 120.46875 L 219.09375 111.59375 C 219.050781 106.714844 219.050781 102.542969 219.183594 102.277344 C 219.273438 101.964844 223.972656 101.878906 233.015625 101.921875 L 246.671875 102.011719 Z M 295.925781 111.019531 L 295.925781 120.023438 L 291.046875 120.113281 C 288.386719 120.15625 285.773438 120.246094 285.285156 120.335938 C 284.441406 120.46875 284.398438 120.203125 284.265625 111.59375 C 284.222656 106.714844 284.222656 102.542969 284.355469 102.277344 C 284.441406 101.964844 286.570312 101.832031 290.207031 101.921875 L 295.925781 102.011719 Z M 215.683594 103.386719 C 215.902344 103.742188 215.992188 141.855469 215.902344 202.910156 L 215.902344 222.300781 L 208.722656 222.210938 L 201.496094 222.078125 L 201.363281 163.066406 C 201.316406 130.628906 201.363281 103.785156 201.496094 103.472656 C 201.628906 103.03125 203.3125 102.941406 208.589844 102.988281 C 212.355469 102.988281 215.546875 103.207031 215.683594 103.386719 Z M 233.992188 121.800781 C 244.808594 121.800781 246.492188 121.886719 246.539062 122.464844 C 246.582031 123.132812 246.539062 139.769531 246.492188 140.214844 C 246.492188 140.347656 240.953125 140.390625 234.214844 140.304688 C 222.109375 140.214844 219.539062 140.4375 221.222656 141.546875 C 222.421875 142.300781 226.234375 142.519531 235.234375 142.34375 C 241.171875 142.253906 244.367188 142.035156 245.03125 141.632812 C 245.652344 141.277344 246.09375 141.234375 246.273438 141.546875 C 246.492188 141.898438 246.714844 158.007812 246.539062 159.960938 C 246.492188 160.226562 242.058594 160.359375 233.992188 160.269531 C 220.867188 160.179688 219.40625 160.3125 220.914062 161.824219 C 221.621094 162.53125 222.820312 162.621094 231.6875 162.753906 C 237.804688 162.84375 242.546875 162.710938 243.921875 162.398438 C 245.164062 162.132812 246.273438 162.042969 246.40625 162.179688 C 246.671875 162.445312 246.625 182.367188 246.359375 182.632812 C 246.273438 182.765625 245.296875 182.632812 244.230469 182.410156 C 243.167969 182.144531 238.203125 181.921875 233.191406 181.921875 C 224.902344 181.921875 221.179688 182.234375 220.425781 183.03125 C 219.539062 183.921875 222.464844 184.140625 233.992188 184.054688 C 242.105469 183.964844 246.492188 184.097656 246.539062 184.363281 C 246.714844 186.847656 246.539062 202.335938 246.316406 202.6875 C 246.183594 202.957031 245.253906 202.957031 243.746094 202.6875 C 240.332031 202.066406 221.402344 202.421875 220.734375 203.089844 C 219.671875 204.152344 221.800781 204.332031 234.214844 204.332031 C 240.953125 204.332031 246.492188 204.417969 246.539062 204.554688 C 246.539062 204.6875 246.582031 208.722656 246.625 213.558594 L 246.714844 222.347656 L 232.972656 222.347656 L 219.226562 222.390625 L 219.140625 172.292969 C 219.050781 144.785156 219.09375 121.976562 219.226562 121.667969 C 219.363281 121.265625 219.761719 121.179688 220.425781 121.445312 C 221 121.621094 227.074219 121.800781 233.992188 121.800781 Z M 291.046875 121.84375 L 295.925781 121.886719 L 295.925781 140.4375 L 291.847656 140.304688 C 287.8125 140.125 285.949219 140.390625 285.949219 141.101562 C 285.949219 141.898438 290.515625 142.476562 293 141.988281 C 294.859375 141.632812 295.527344 141.679688 295.792969 142.078125 C 295.96875 142.386719 296.101562 146.648438 296.011719 151.484375 L 295.925781 160.359375 L 291.402344 160.226562 C 288.832031 160.179688 286.527344 160.3125 286.039062 160.582031 C 285.375 160.9375 285.019531 160.890625 284.664062 160.492188 C 284.175781 159.871094 283.953125 123.085938 284.488281 121.753906 C 284.664062 121.3125 284.976562 121.179688 285.460938 121.445312 C 285.863281 121.621094 288.386719 121.800781 291.046875 121.84375 Z M 116.242188 122.242188 C 116.730469 122.910156 116.683594 140.125 116.199219 140.4375 C 115.933594 140.570312 115.933594 141.144531 116.199219 141.898438 C 116.417969 142.566406 116.550781 146.957031 116.507812 151.660156 L 116.375 160.226562 L 77.847656 160.179688 C 56.613281 160.179688 39.191406 160.046875 39.011719 159.871094 C 38.660156 159.382812 39.144531 142.121094 39.546875 141.765625 C 39.722656 141.589844 40.742188 141.679688 41.851562 141.945312 C 43.226562 142.300781 54.085938 142.433594 77.894531 142.433594 C 111.632812 142.433594 115.578125 142.253906 115.132812 140.96875 C 115 140.570312 105.867188 140.4375 77.140625 140.347656 C 56.347656 140.304688 39.28125 140.167969 39.144531 140.035156 C 38.746094 139.679688 39.058594 122.289062 39.414062 122.023438 C 40.164062 121.578125 115.933594 121.800781 116.242188 122.242188 Z M 180.925781 122.511719 C 181.324219 123.175781 181.191406 139.59375 180.792969 139.992188 C 180.613281 140.167969 175.339844 140.257812 169.042969 140.257812 C 158.625 140.214844 155.699219 140.480469 156.585938 141.324219 C 157.695312 142.433594 173.34375 142.875 177.777344 141.945312 C 179.460938 141.589844 180.214844 141.589844 180.570312 141.945312 C 181.144531 142.519531 181.410156 159.605469 180.878906 159.960938 C 180.390625 160.269531 155.34375 160.359375 154.855469 160.046875 C 154.28125 159.691406 154.589844 142.433594 155.210938 141.722656 C 155.609375 141.234375 155.566406 140.925781 155.167969 140.390625 C 154.722656 139.902344 154.589844 137.507812 154.589844 131.164062 C 154.589844 126.457031 154.722656 122.421875 154.855469 122.199219 C 155.210938 121.578125 180.523438 121.886719 180.925781 122.511719 Z M 288.300781 162.53125 C 289.761719 162.84375 291.269531 162.84375 292.953125 162.53125 C 294.816406 162.179688 295.570312 162.179688 295.792969 162.578125 C 295.96875 162.84375 296.148438 167.238281 296.148438 172.382812 C 296.148438 177.484375 295.96875 181.921875 295.792969 182.191406 C 295.570312 182.589844 294.816406 182.589844 293.042969 182.277344 C 290.515625 181.789062 285.507812 182.457031 285.507812 183.253906 C 285.507812 183.964844 287.324219 184.230469 291.625 184.097656 L 295.925781 183.964844 L 295.925781 202.554688 L 291.269531 202.601562 C 286.394531 202.601562 285.019531 202.910156 285.949219 203.84375 C 286.214844 204.109375 288.253906 204.332031 291.179688 204.332031 L 295.925781 204.332031 L 295.925781 222.390625 L 290.160156 222.433594 L 284.398438 222.480469 L 284.265625 193.015625 C 284.222656 176.777344 284.265625 163.019531 284.398438 162.488281 C 284.574219 161.691406 284.839844 161.511719 285.417969 161.734375 C 285.816406 161.910156 287.148438 162.265625 288.300781 162.53125 Z M 45.441406 162.621094 C 46.90625 162.621094 48.8125 162.53125 49.652344 162.398438 L 51.203125 162.179688 L 51.203125 172.382812 C 51.203125 182.324219 51.160156 182.589844 50.316406 182.457031 C 46.152344 181.921875 43.402344 181.878906 41.894531 182.324219 C 40.566406 182.675781 40.03125 182.675781 39.589844 182.234375 C 38.835938 181.480469 38.703125 163.554688 39.457031 162.621094 C 39.8125 162.179688 40.386719 162.089844 41.363281 162.3125 C 42.160156 162.488281 43.980469 162.621094 45.441406 162.621094 Z M 102.144531 162.710938 C 108.484375 162.84375 112.5625 162.753906 113.847656 162.398438 C 115.445312 162 115.933594 162.042969 116.199219 162.488281 C 116.683594 163.242188 116.683594 181.523438 116.199219 182.277344 C 115.933594 182.722656 115.445312 182.765625 113.847656 182.367188 C 110.964844 181.613281 93.234375 181.921875 91.8125 182.765625 C 90.972656 183.210938 90.882812 183.433594 91.371094 183.742188 C 91.726562 183.964844 97.488281 184.140625 104.183594 184.097656 L 116.375 184.054688 L 116.464844 193.0625 C 116.550781 198.03125 116.417969 202.335938 116.242188 202.644531 C 116.019531 203.042969 115.355469 203.042969 113.804688 202.6875 C 111.367188 202.199219 92.835938 202.421875 91.59375 203 C 90.792969 203.355469 90.792969 203.355469 91.59375 203.84375 C 92.699219 204.507812 111.011719 204.773438 113.804688 204.199219 C 115.355469 203.84375 116.019531 203.84375 116.242188 204.242188 C 116.417969 204.554688 116.550781 208.722656 116.464844 213.558594 L 116.375 222.347656 L 103.519531 222.347656 C 96.46875 222.347656 90.394531 222.347656 90.128906 222.300781 C 89.332031 222.300781 89.332031 205.351562 90.085938 204.109375 C 90.527344 203.445312 90.527344 203.132812 90.085938 202.6875 C 89.375 201.980469 89.332031 184.542969 90.039062 183.832031 C 90.394531 183.476562 90.394531 183.078125 90.039062 182.457031 C 89.375 181.214844 89.375 163.996094 90.039062 162.753906 C 90.394531 162.089844 90.75 161.957031 91.460938 162.222656 C 91.992188 162.398438 96.824219 162.621094 102.144531 162.710938 Z M 168.953125 162.621094 C 175.160156 162.667969 180.480469 162.800781 180.703125 162.976562 C 181.011719 163.152344 181.144531 166.75 181.101562 172.339844 C 181.058594 182.722656 180.925781 183.164062 178.21875 182.367188 C 176.136719 181.746094 160.664062 181.789062 157.828125 182.410156 C 156.230469 182.765625 155.386719 182.765625 155.078125 182.457031 C 154.5 181.878906 154.414062 163.289062 154.945312 162.398438 C 155.167969 162.042969 155.65625 162 156.453125 162.222656 C 157.074219 162.398438 162.703125 162.578125 168.953125 162.621094 Z M 69.824219 163.375 C 69.957031 163.953125 70.003906 177.484375 69.957031 193.460938 L 69.824219 222.480469 L 62.066406 222.347656 C 57.8125 222.300781 54.21875 222.167969 54.085938 222.078125 C 53.953125 221.992188 53.953125 208.679688 54.085938 192.484375 L 54.308594 163.066406 L 61.625 162.84375 C 65.65625 162.710938 69.070312 162.53125 69.25 162.488281 C 69.425781 162.445312 69.691406 162.84375 69.824219 163.375 Z M 86.671875 192.792969 L 86.671875 222.078125 L 72.042969 222.078125 L 71.910156 192.660156 L 71.820312 163.289062 L 79.222656 163.375 L 86.671875 163.507812 Z M 51.339844 193.328125 L 51.425781 202.601562 L 45.351562 202.554688 L 39.234375 202.554688 L 39.011719 193.683594 C 38.878906 187.515625 38.925781 184.675781 39.28125 184.363281 C 39.546875 184.097656 42.207031 183.964844 45.484375 184.007812 L 51.203125 184.054688 Z M 180.703125 184.320312 C 181.234375 184.496094 181.277344 201.625 180.746094 202.15625 C 180.570312 202.335938 175.207031 202.511719 168.820312 202.511719 C 162.394531 202.554688 156.851562 202.6875 156.496094 202.867188 C 154.8125 203.710938 154.589844 202.777344 154.589844 193.546875 C 154.589844 188.710938 154.722656 184.542969 154.855469 184.320312 C 155.078125 183.964844 179.636719 183.964844 180.703125 184.320312 Z M 168.820312 204.375 C 175.207031 204.375 180.570312 204.554688 180.746094 204.730469 C 181.324219 205.308594 181.277344 222.300781 180.703125 222.300781 C 179.0625 222.347656 155.300781 222.347656 154.945312 222.347656 C 154.679688 222.300781 154.546875 219.105469 154.589844 213.382812 C 154.632812 204.109375 154.855469 203.175781 156.496094 204.019531 C 156.851562 204.199219 162.394531 204.332031 168.820312 204.375 Z M 51.515625 212.9375 C 51.605469 217.730469 51.515625 221.8125 51.339844 222.035156 C 51.117188 222.347656 43.757812 222.523438 39.234375 222.300781 C 38.835938 222.300781 38.792969 205.972656 39.191406 204.773438 C 39.28125 204.507812 41.71875 204.332031 45.351562 204.285156 L 51.382812 204.285156 Z M 51.515625 212.9375 "/>
<path style=" stroke:none;fill-rule:nonzero;fill:rgb(0%,0%,0%);fill-opacity:1;" d="M 19.0625 35.984375 C 18.175781 36.738281 17.953125 37.359375 17.953125 38.871094 C 17.953125 41.042969 18.53125 41.710938 20.527344 41.710938 C 21.855469 41.710938 22.433594 42.597656 21.945312 43.792969 C 21.679688 44.550781 21.632812 44.550781 21.101562 43.792969 C 20.480469 42.996094 18.398438 42.773438 17.953125 43.441406 C 17.644531 43.972656 19.285156 45.523438 20.4375 45.835938 C 21.234375 46.058594 23.496094 44.238281 23.496094 43.441406 C 23.496094 43.261719 23.851562 43.039062 24.292969 42.953125 C 25.003906 42.730469 25.09375 42.375 24.914062 40.113281 C 24.605469 35.71875 21.769531 33.765625 19.0625 35.984375 Z M 22.167969 39.089844 C 22.167969 40.953125 21.546875 41.265625 20.660156 39.84375 C 20.347656 39.3125 20.394531 38.738281 20.746094 37.9375 C 21.457031 36.382812 22.167969 36.917969 22.167969 39.089844 Z M 22.167969 39.089844 "/>
<path style=" stroke:none;fill-rule:nonzero;fill:rgb(0%,0%,0%);fill-opacity:1;" d="M 26.6875 35.941406 C 25.847656 36.738281 25.714844 37.316406 25.714844 40.554688 C 25.714844 43.574219 25.847656 44.371094 26.511719 44.949219 C 27.574219 45.878906 29.4375 45.925781 30.8125 44.992188 C 31.832031 44.328125 31.921875 44.015625 31.921875 40.644531 C 31.921875 36.785156 31.785156 36.339844 30.28125 35.542969 C 28.859375 34.832031 27.796875 34.921875 26.6875 35.941406 Z M 29.613281 40.15625 C 29.703125 43.085938 29.304688 44.195312 28.195312 43.792969 C 27.664062 43.574219 27.488281 42.863281 27.488281 40.6875 C 27.488281 37.671875 27.707031 37.183594 28.816406 37.359375 C 29.304688 37.449219 29.527344 38.160156 29.613281 40.15625 Z M 29.613281 40.15625 "/>
<path style=" stroke:none;fill-rule:nonzero;fill:rgb(0%,0%,0%);fill-opacity:1;" d="M 18.796875 56.085938 C 18.042969 56.972656 17.910156 57.636719 18 60.523438 C 18.089844 63.453125 18.265625 64.027344 19.152344 64.78125 C 20.792969 66.15625 22.65625 65.890625 24.027344 64.074219 L 25.226562 62.476562 L 24.292969 61.1875 L 23.320312 59.902344 L 24.292969 58.96875 C 25.3125 58.039062 25.269531 57.683594 23.761719 56.042969 C 22.476562 54.664062 20.039062 54.664062 18.796875 56.085938 Z M 22.078125 60.125 C 22.078125 63.585938 21.769531 64.339844 20.835938 63.230469 C 20.4375 62.742188 20.4375 62.253906 20.792969 61.1875 C 21.148438 60.125 21.148438 59.589844 20.792969 59.148438 C 20.394531 58.703125 20.394531 58.261719 20.792969 57.417969 C 21.589844 55.597656 22.078125 56.574219 22.078125 60.125 Z M 22.078125 60.125 "/>
<path style=" stroke:none;fill-rule:nonzero;fill:rgb(0%,0%,0%);fill-opacity:1;" d="M 26.46875 55.820312 C 25.890625 56.441406 25.714844 57.503906 25.714844 60.257812 C 25.714844 63.316406 25.847656 64.027344 26.601562 64.78125 C 27.753906 65.9375 29.703125 65.9375 30.945312 64.78125 C 31.785156 63.984375 31.921875 63.40625 31.921875 60.167969 C 31.921875 56.707031 31.832031 56.394531 30.8125 55.730469 C 29.394531 54.800781 27.355469 54.84375 26.46875 55.820312 Z M 29.4375 57.503906 C 29.570312 57.90625 29.703125 59.28125 29.703125 60.566406 C 29.703125 62.476562 29.527344 63.050781 28.859375 63.40625 C 28.195312 63.761719 27.972656 63.71875 27.753906 63.183594 C 27.398438 62.253906 27.398438 57.460938 27.796875 57.105469 C 28.285156 56.574219 29.171875 56.796875 29.4375 57.503906 Z M 29.4375 57.503906 "/>
<path style=" stroke:none;fill-rule:nonzero;fill:rgb(0%,0%,0%);fill-opacity:1;" d="M 17.910156 76.539062 C 17.511719 77.515625 18.441406 78.09375 19.996094 77.785156 C 21.769531 77.429688 21.902344 78.269531 20.394531 80.710938 C 18.707031 83.417969 18.664062 85.769531 20.304688 85.992188 C 20.835938 86.082031 21.367188 85.902344 21.457031 85.546875 C 22.433594 81.910156 23.71875 78.714844 24.382812 78.316406 C 24.648438 78.183594 24.828125 77.648438 24.828125 77.164062 C 24.828125 76.585938 24.515625 76.320312 23.851562 76.320312 C 23.273438 76.320312 21.769531 76.1875 20.527344 76.054688 C 18.574219 75.785156 18.132812 75.875 17.910156 76.539062 Z M 17.910156 76.539062 "/>
<path style=" stroke:none;fill-rule:nonzero;fill:rgb(0%,0%,0%);fill-opacity:1;" d="M 27.707031 76.1875 C 26.023438 76.585938 25.269531 78.09375 25.269531 81.289062 C 25.269531 85.238281 26.15625 86.300781 29.128906 85.949219 C 30.234375 85.816406 31.300781 85.460938 31.519531 85.148438 C 32.140625 84.171875 32.007812 77.917969 31.386719 77.074219 C 30.722656 76.273438 29.039062 75.832031 27.707031 76.1875 Z M 29.171875 78.050781 C 29.570312 78.269531 29.703125 79.246094 29.613281 81.246094 C 29.480469 83.730469 29.394531 84.085938 28.59375 84.085938 C 27.839844 84.085938 27.707031 83.730469 27.574219 81.464844 C 27.398438 77.871094 27.753906 77.117188 29.171875 78.050781 Z M 29.171875 78.050781 "/>
<path style=" stroke:none;fill-rule:nonzero;fill:rgb(0%,0%,0%);fill-opacity:1;" d="M 19.90625 97.75 C 18.398438 99.039062 18.265625 99.390625 18.042969 102.144531 C 17.867188 104.761719 17.953125 105.203125 18.796875 106.003906 C 21.148438 108.222656 25.582031 106.269531 24.960938 103.339844 C 24.828125 102.585938 24.425781 101.878906 24.117188 101.742188 C 23.761719 101.609375 23.496094 101.257812 23.496094 100.902344 C 23.496094 100.5 23.007812 100.28125 22.167969 100.28125 C 21.148438 100.28125 20.835938 100.101562 20.835938 99.390625 C 20.835938 98.636719 21.058594 98.550781 21.945312 98.769531 C 22.566406 98.902344 23.363281 98.902344 23.761719 98.769531 C 24.425781 98.503906 24.382812 98.371094 23.496094 97.394531 C 22.167969 95.976562 21.855469 96.019531 19.90625 97.75 Z M 22.167969 103.339844 C 22.167969 105.203125 21.457031 106.136719 20.792969 105.117188 C 20.347656 104.363281 20.261719 102.320312 20.703125 101.921875 C 21.5 101.078125 22.167969 101.699219 22.167969 103.339844 Z M 22.167969 103.339844 "/>
<path style=" stroke:none;fill-rule:nonzero;fill:rgb(0%,0%,0%);fill-opacity:1;" d="M 26.953125 97.039062 C 25.890625 97.308594 25.535156 98.726562 25.667969 102.230469 C 25.800781 106.179688 26.289062 106.933594 28.640625 106.933594 C 31.386719 106.933594 31.921875 106.046875 31.921875 101.699219 C 31.921875 98.503906 31.832031 98.015625 30.945312 97.441406 C 29.96875 96.773438 28.550781 96.597656 26.953125 97.039062 Z M 29.171875 99.039062 C 29.480469 99.347656 29.703125 100.769531 29.703125 102.320312 C 29.703125 104.40625 29.527344 105.117188 28.992188 105.339844 C 27.796875 105.78125 27.488281 105.203125 27.488281 102.5 C 27.488281 98.816406 27.972656 97.839844 29.171875 99.039062 Z M 29.171875 99.039062 "/>
<path style=" stroke:none;fill-rule:nonzero;fill:rgb(0%,0%,0%);fill-opacity:1;" d="M 322.570312 107.644531 C 322.082031 108.84375 322.257812 149 322.746094 149.308594 C 323.277344 149.664062 383.394531 149.621094 383.972656 149.265625 C 384.414062 149 384.546875 108.800781 384.105469 107.644531 C 383.839844 107.023438 380.734375 106.933594 353.335938 106.933594 C 325.9375 106.933594 322.835938 107.023438 322.570312 107.644531 Z M 382.199219 128.011719 C 382.199219 137.996094 382.199219 146.425781 382.199219 146.738281 C 382.152344 147.136719 375.59375 147.269531 353.46875 147.226562 C 337.644531 147.226562 324.652344 147.046875 324.519531 146.824219 C 324.386719 146.605469 324.34375 138.304688 324.386719 128.367188 C 324.476562 118.425781 324.519531 110.128906 324.519531 109.910156 C 324.519531 109.730469 337.507812 109.640625 353.382812 109.6875 L 382.199219 109.820312 Z M 382.199219 128.011719 "/>
<path style=" stroke:none;fill-rule:nonzero;fill:rgb(75.294118%,75.294118%,75.294118%);fill-opacity:1;" d="M 328.023438 116.785156 C 327.800781 119.582031 328.023438 127.035156 328.332031 127.257812 C 328.554688 127.433594 330.949219 127.480469 333.609375 127.347656 L 338.484375 127.125 L 338.617188 122.730469 C 338.796875 116.386719 338.664062 116.253906 332.722656 116.253906 C 329.308594 116.253906 328.066406 116.386719 328.023438 116.785156 Z M 336.535156 119.714844 C 336.667969 119.890625 336.667969 121.132812 336.535156 122.464844 L 336.269531 124.90625 L 333.078125 125.039062 L 329.839844 125.171875 L 329.839844 122.332031 C 329.839844 120.78125 329.972656 119.359375 330.195312 119.183594 C 330.550781 118.78125 336.136719 119.269531 336.535156 119.714844 Z M 336.535156 119.714844 "/>
<path style=" stroke:none;fill-rule:nonzero;fill:rgb(0%,0%,0%);fill-opacity:1;" d="M 350.144531 117.628906 C 348.992188 118.25 349.082031 121.179688 350.234375 122.242188 C 350.988281 122.910156 351.296875 122.953125 352.226562 122.554688 C 353.203125 122.109375 353.335938 121.753906 353.335938 119.847656 C 353.335938 117.984375 353.203125 117.671875 352.363281 117.40625 C 351.074219 117.097656 351.03125 117.097656 350.144531 117.628906 Z M 350.144531 117.628906 "/>
<path style=" stroke:none;fill-rule:nonzero;fill:rgb(0%,0%,0%);fill-opacity:1;" d="M 344.824219 118.648438 C 344.382812 119.269531 344.027344 120.070312 344.027344 120.511719 C 344.027344 120.914062 343.714844 121.488281 343.363281 121.753906 C 342.960938 122.023438 342.5625 122.996094 342.386719 123.929688 C 342.164062 125.527344 342.164062 125.570312 343.539062 125.570312 C 344.601562 125.570312 345.046875 125.835938 345.355469 126.679688 C 345.933594 128.234375 347.351562 128.101562 348.195312 126.414062 C 348.636719 125.484375 348.769531 124.816406 348.460938 124.507812 C 348.238281 124.195312 348.015625 122.597656 347.929688 120.914062 C 347.796875 117.984375 347.75 117.804688 346.6875 117.71875 C 345.933594 117.628906 345.3125 117.941406 344.824219 118.648438 Z M 345.136719 123.042969 C 345.136719 124.195312 344.25 124.152344 344.117188 122.953125 C 343.980469 122.242188 344.160156 121.976562 344.558594 122.109375 C 344.867188 122.242188 345.136719 122.644531 345.136719 123.042969 Z M 345.136719 123.042969 "/>
<path style=" stroke:none;fill-rule:nonzero;fill:rgb(0%,0%,0%);fill-opacity:1;" d="M 357.902344 120.113281 C 356.925781 120.46875 357.28125 121.535156 358.433594 121.84375 L 359.5 122.109375 L 358.167969 123.21875 C 357.105469 124.105469 356.882812 124.640625 356.972656 125.75 C 357.105469 126.945312 357.328125 127.167969 358.789062 127.523438 C 359.855469 127.789062 360.917969 127.789062 361.671875 127.523438 C 362.824219 127.125 362.867188 126.992188 362.867188 123.886719 C 362.867188 121.488281 362.691406 120.558594 362.203125 120.246094 C 361.492188 119.804688 358.835938 119.714844 357.902344 120.113281 Z M 361.183594 125.304688 C 360.875 126.105469 360.472656 126.191406 359.585938 125.617188 C 359.101562 125.304688 359.144531 125.039062 359.808594 124.105469 C 360.605469 123.042969 360.695312 123.042969 361.050781 123.796875 C 361.273438 124.242188 361.316406 124.949219 361.183594 125.304688 Z M 361.183594 125.304688 "/>
<path style=" stroke:none;fill-rule:nonzero;fill:rgb(0%,0%,0%);fill-opacity:1;" d="M 364.507812 120.203125 C 364.242188 120.335938 363.976562 121.84375 363.933594 123.53125 C 363.800781 125.972656 363.886719 126.679688 364.464844 127.035156 C 365.882812 127.921875 366.636719 127.082031 366.546875 124.683594 C 366.460938 122.421875 367.035156 121.222656 367.964844 121.800781 C 368.320312 122.023438 368.453125 122.910156 368.320312 124.328125 C 368.144531 125.882812 368.277344 126.726562 368.765625 127.167969 C 369.871094 128.324219 370.40625 127.613281 370.539062 124.640625 C 370.714844 120.867188 370.140625 120.070312 367.125 119.980469 C 365.925781 119.980469 364.730469 120.070312 364.507812 120.203125 Z M 364.507812 120.203125 "/>
<path style=" stroke:none;fill-rule:nonzero;fill:rgb(0%,0%,0%);fill-opacity:1;" d="M 372.800781 120.113281 C 371.335938 120.46875 371.292969 126.191406 372.710938 127.257812 C 373.597656 127.921875 376.65625 127.703125 377.410156 126.945312 C 377.632812 126.726562 377.941406 125.484375 378.074219 124.285156 C 378.339844 121.179688 377.453125 119.804688 375.148438 119.847656 C 374.261719 119.890625 373.199219 119.980469 372.800781 120.113281 Z M 375.636719 122.109375 C 375.726562 122.421875 375.769531 123.175781 375.679688 123.796875 C 375.636719 124.417969 375.546875 125.039062 375.546875 125.214844 C 375.503906 125.4375 375.105469 125.570312 374.617188 125.570312 C 373.863281 125.570312 373.730469 125.261719 373.730469 123.574219 C 373.730469 121.933594 373.863281 121.578125 374.574219 121.578125 C 375.015625 121.578125 375.503906 121.84375 375.636719 122.109375 Z M 375.636719 122.109375 "/>
<path style=" stroke:none;fill-rule:nonzero;fill:rgb(46.666667%,46.666667%,46.666667%);fill-opacity:1;" d="M 328.023438 132.449219 C 327.800781 134.667969 328.066406 142.609375 328.421875 142.832031 C 328.644531 142.964844 330.902344 143.007812 333.429688 142.875 L 337.996094 142.65625 L 337.953125 137.863281 C 337.910156 135.246094 337.863281 132.894531 337.863281 132.671875 C 337.820312 132.226562 328.109375 132.003906 328.023438 132.449219 Z M 328.023438 132.449219 "/>
<path style=" stroke:none;fill-rule:nonzero;fill:rgb(0%,0%,0%);fill-opacity:1;" d="M 343.449219 134.003906 C 342.917969 134.445312 342.519531 135.511719 342.386719 136.796875 C 342.164062 138.75 342.210938 138.882812 343.140625 138.882812 C 343.714844 138.882812 344.515625 138.574219 344.957031 138.171875 C 346.023438 137.195312 346.6875 137.730469 346.6875 139.546875 C 346.6875 141.414062 346.15625 141.765625 344.515625 140.96875 C 343.582031 140.480469 343.09375 140.4375 342.742188 140.789062 C 341.589844 141.945312 343.050781 143.320312 345.402344 143.320312 C 347.796875 143.320312 349.523438 141.589844 349.082031 139.59375 C 348.726562 137.863281 347.839844 136.84375 346.421875 136.488281 C 344.867188 136.085938 345.355469 135.15625 347.261719 134.84375 C 349.167969 134.535156 349.347656 134.667969 349.347656 136.265625 C 349.347656 137.328125 349.566406 137.550781 350.855469 137.816406 C 351.695312 137.949219 352.582031 137.949219 352.847656 137.773438 C 353.382812 137.464844 353.515625 133.601562 353.027344 133.515625 C 352.804688 133.46875 350.765625 133.425781 348.503906 133.382812 C 345.3125 133.335938 344.070312 133.515625 343.449219 134.003906 Z M 343.449219 134.003906 "/>
<path style=" stroke:none;fill-rule:nonzero;fill:rgb(0%,0%,0%);fill-opacity:1;" d="M 357.8125 135.734375 C 356.75 136.574219 356.839844 137.550781 358.035156 137.550781 C 358.96875 137.550781 358.789062 138.574219 357.769531 139.238281 C 356.882812 139.769531 356.660156 140.878906 357.148438 142.167969 C 357.371094 142.699219 358.082031 142.875 360.253906 142.875 L 363.089844 142.875 L 363.089844 139.992188 C 363.089844 137.464844 362.957031 136.929688 361.980469 136 C 360.695312 134.667969 359.277344 134.625 357.8125 135.734375 Z M 361.226562 140.125 C 361.40625 141.234375 360.207031 141.945312 359.5 141.234375 C 359.1875 140.925781 359.234375 140.4375 359.632812 139.816406 C 360.339844 138.707031 361.050781 138.839844 361.226562 140.125 Z M 361.226562 140.125 "/>
<path style=" stroke:none;fill-rule:nonzero;fill:rgb(0%,0%,0%);fill-opacity:1;" d="M 372.976562 135.6875 C 372.222656 136.21875 371.914062 137.0625 371.78125 138.574219 C 371.425781 142.34375 372.398438 143.363281 375.992188 142.964844 C 378.386719 142.699219 379.050781 137.90625 377.011719 136 C 375.636719 134.710938 374.351562 134.625 372.976562 135.6875 Z M 375.546875 137.640625 C 375.59375 137.949219 375.679688 138.75 375.726562 139.371094 C 375.902344 140.835938 375.324219 141.765625 374.4375 141.414062 C 373.730469 141.144531 373.417969 138.039062 374.039062 137.417969 C 374.527344 136.886719 375.503906 137.0625 375.546875 137.640625 Z M 375.546875 137.640625 "/>
<path style=" stroke:none;fill-rule:nonzero;fill:rgb(0%,0%,0%);fill-opacity:1;" d="M 364.507812 135.867188 C 364.285156 136.175781 364.019531 137.816406 363.933594 139.546875 L 363.753906 142.65625 L 365.21875 142.789062 L 366.636719 142.921875 L 366.636719 140.257812 C 366.636719 138.792969 366.8125 137.507812 367.035156 137.375 C 367.832031 136.84375 368.5 138.4375 368.320312 140.523438 C 368.1875 142.566406 368.234375 142.65625 369.429688 142.789062 L 370.625 142.921875 L 370.625 139.902344 C 370.625 137.328125 370.492188 136.753906 369.652344 136.042969 C 368.898438 135.378906 368.542969 135.332031 367.878906 135.734375 C 367.300781 136.085938 366.8125 136.085938 366.191406 135.777344 C 365.128906 135.199219 365.085938 135.199219 364.507812 135.867188 Z M 364.507812 135.867188 "/>
<path style=" stroke:none;fill-rule:nonzero;fill:rgb(0%,0%,0%);fill-opacity:1;" d="M 20.082031 117.453125 C 18.574219 117.585938 18.175781 117.804688 18.175781 118.472656 C 18.175781 118.914062 17.867188 119.582031 17.511719 119.980469 C 17.15625 120.335938 16.847656 121.132812 16.847656 121.800781 C 16.847656 123.972656 19.550781 123.753906 19.863281 121.535156 C 20.082031 120.070312 21.234375 118.914062 22.476562 118.914062 C 23.273438 118.914062 23.539062 118.695312 23.40625 118.160156 C 23.230469 117.273438 22.832031 117.183594 20.082031 117.453125 Z M 20.082031 117.453125 "/>
<path style=" stroke:none;fill-rule:nonzero;fill:rgb(0%,0%,0%);fill-opacity:1;" d="M 26.734375 117.496094 C 24.871094 117.761719 24.382812 119.136719 24.695312 123.085938 C 24.960938 127.082031 25.402344 127.789062 27.796875 127.789062 C 30.28125 127.789062 31.035156 126.59375 31.035156 122.554688 C 31.035156 119.757812 30.855469 118.914062 30.28125 118.382812 C 29.347656 117.585938 28.105469 117.273438 26.734375 117.496094 Z M 28.726562 122.644531 C 28.59375 125.082031 28.507812 125.351562 27.621094 125.484375 C 26.644531 125.617188 26.601562 125.484375 26.601562 122.554688 C 26.601562 119.359375 27.085938 118.515625 28.285156 119.492188 C 28.683594 119.804688 28.816406 120.824219 28.726562 122.644531 Z M 28.726562 122.644531 "/>
<path style=" stroke:none;fill-rule:nonzero;fill:rgb(0%,0%,0%);fill-opacity:1;" d="M 20.660156 121.535156 C 20.527344 121.710938 20.660156 122.511719 20.925781 123.265625 C 21.324219 124.328125 21.324219 124.773438 20.835938 125.351562 C 20.4375 125.835938 20.128906 125.925781 19.773438 125.570312 C 19.152344 124.949219 17.421875 124.996094 17.023438 125.660156 C 16.492188 126.503906 19.019531 128.367188 20.261719 128.011719 C 22.699219 127.433594 23.496094 126.503906 23.496094 124.242188 C 23.496094 122.464844 23.363281 122.109375 22.386719 121.667969 C 21.015625 121.046875 20.96875 121.046875 20.660156 121.535156 Z M 20.660156 121.535156 "/>
<path style=" stroke:none;fill-rule:nonzero;fill:rgb(0%,0%,0%);fill-opacity:1;" d="M 20.347656 136.796875 C 19.949219 137.109375 19.195312 138.304688 18.664062 139.460938 C 18.132812 140.613281 17.511719 141.546875 17.289062 141.546875 C 17.023438 141.546875 16.847656 142.121094 16.847656 142.875 C 16.847656 144.074219 16.980469 144.207031 18.175781 144.207031 C 19.0625 144.207031 19.726562 144.5625 20.214844 145.316406 C 20.613281 145.9375 21.191406 146.425781 21.5 146.425781 C 21.8125 146.425781 22.210938 145.9375 22.34375 145.316406 C 22.519531 144.695312 22.832031 144.207031 23.054688 144.207031 C 23.761719 144.207031 23.539062 143.007812 22.789062 142.699219 C 22.210938 142.476562 22.121094 141.855469 22.253906 139.460938 C 22.386719 136.265625 21.902344 135.597656 20.347656 136.796875 Z M 19.90625 142.433594 C 19.59375 142.65625 19.109375 142.699219 18.796875 142.566406 C 18.355469 142.386719 18.441406 142.121094 19.195312 141.546875 C 20.039062 140.835938 20.171875 140.789062 20.304688 141.414062 C 20.394531 141.8125 20.214844 142.253906 19.90625 142.433594 Z M 19.90625 142.433594 "/>
<path style=" stroke:none;fill-rule:nonzero;fill:rgb(0%,0%,0%);fill-opacity:1;" d="M 25.3125 137.195312 C 24.339844 138.085938 24.292969 138.351562 24.5625 141.722656 C 24.78125 144.738281 24.960938 145.40625 25.800781 146.070312 C 27.21875 147.179688 28.683594 147.046875 29.925781 145.761719 C 30.898438 144.828125 31.035156 144.296875 31.035156 141.546875 C 31.035156 137.507812 30.28125 136.21875 27.972656 136.21875 C 26.910156 136.21875 25.980469 136.574219 25.3125 137.195312 Z M 28.550781 138.707031 C 28.949219 139.726562 28.859375 143.453125 28.460938 144.117188 C 28.242188 144.429688 27.753906 144.5625 27.355469 144.386719 C 26.777344 144.164062 26.601562 143.542969 26.601562 141.367188 C 26.601562 139.816406 26.734375 138.4375 26.910156 138.304688 C 27.398438 137.773438 28.285156 137.996094 28.550781 138.707031 Z M 28.550781 138.707031 "/>
<path style=" stroke:none;fill-rule:nonzero;fill:rgb(0%,0%,0%);fill-opacity:1;" d="M 18.976562 156.71875 C 17.554688 157.917969 17.421875 158.628906 18.441406 159.027344 C 19.417969 159.382812 19.375 159.425781 20.394531 158.316406 C 21.058594 157.5625 21.414062 157.476562 21.8125 157.875 C 22.167969 158.230469 22.167969 158.539062 21.722656 159.070312 C 21.28125 159.605469 21.28125 160.003906 21.679688 160.890625 C 22.300781 162.265625 22.300781 164.175781 21.722656 164.175781 C 21.457031 164.175781 20.660156 163.863281 19.996094 163.507812 C 18.574219 162.800781 18.175781 162.976562 18.175781 164.484375 C 18.175781 166.792969 22.699219 166.792969 24.382812 164.484375 C 25.359375 163.199219 25.402344 163.109375 24.605469 161.691406 C 23.761719 160.09375 23.941406 158.851562 25.046875 158.851562 C 25.582031 158.851562 25.714844 159.425781 25.714844 161.558594 C 25.714844 165.328125 26.15625 165.949219 28.726562 165.949219 C 29.925781 165.949219 31.078125 165.726562 31.386719 165.417969 C 31.699219 165.105469 31.921875 163.464844 31.921875 161.246094 C 31.921875 157.785156 31.832031 157.519531 30.722656 156.632812 C 29.261719 155.476562 27.175781 155.699219 26.113281 157.121094 C 25.535156 157.917969 25.269531 157.960938 24.472656 157.5625 C 23.984375 157.296875 23.496094 156.898438 23.40625 156.632812 C 23.320312 156.367188 22.566406 156.054688 21.722656 155.921875 C 20.480469 155.699219 19.90625 155.878906 18.976562 156.71875 Z M 29.171875 157.917969 C 29.570312 158.140625 29.703125 159.117188 29.613281 161.113281 C 29.480469 163.597656 29.394531 163.953125 28.59375 163.953125 C 27.839844 163.953125 27.707031 163.597656 27.574219 161.335938 C 27.398438 157.742188 27.753906 156.988281 29.171875 157.917969 Z M 29.171875 157.917969 "/>
<path style=" stroke:none;fill-rule:nonzero;fill:rgb(0%,0%,0%);fill-opacity:1;" d="M 17.777344 178.375 C 17.203125 178.90625 16.847656 179.527344 17.023438 179.925781 C 17.289062 180.679688 19.285156 180.8125 19.726562 180.148438 C 20.082031 179.617188 21.28125 180.414062 21.28125 181.125 C 21.28125 181.390625 20.214844 182.632812 18.886719 183.964844 C 15.695312 187.203125 15.871094 188.003906 19.773438 188.222656 C 23.054688 188.402344 23.496094 188.3125 23.496094 187.425781 C 23.496094 186.761719 23.140625 186.671875 21.191406 186.804688 C 19.460938 186.894531 19.640625 186.050781 21.722656 183.921875 C 23.007812 182.632812 23.496094 181.789062 23.496094 180.769531 C 23.496094 177.972656 20.039062 176.511719 17.777344 178.375 Z M 17.777344 178.375 "/>
<path style=" stroke:none;fill-rule:nonzero;fill:rgb(0%,0%,0%);fill-opacity:1;" d="M 25.847656 178.285156 C 25.09375 178.90625 24.871094 179.703125 24.605469 182.632812 C 24.339844 186.003906 24.382812 186.316406 25.3125 187.203125 C 25.980469 187.78125 26.910156 188.136719 27.972656 188.136719 C 30.234375 188.136719 31.035156 186.804688 31.035156 183.078125 C 31.035156 179.570312 30.8125 178.949219 29.214844 178.152344 C 27.621094 177.308594 27.042969 177.308594 25.847656 178.285156 Z M 28.550781 180.414062 C 28.949219 181.480469 28.859375 185.164062 28.417969 185.871094 C 28.195312 186.226562 27.707031 186.359375 27.308594 186.226562 C 26.421875 185.871094 26.289062 180.371094 27.175781 180.015625 C 28.0625 179.617188 28.285156 179.660156 28.550781 180.414062 Z M 28.550781 180.414062 "/>
<path style=" stroke:none;fill-rule:nonzero;fill:rgb(0%,0%,0%);fill-opacity:1;" d="M 19.773438 200.605469 C 18.132812 201.890625 17.554688 203.132812 18.222656 203.929688 C 18.488281 204.285156 19.0625 204.507812 19.460938 204.464844 C 20.039062 204.332031 20.171875 204.773438 20.171875 206.992188 C 20.171875 209.523438 20.214844 209.65625 21.28125 209.65625 L 22.386719 209.65625 L 22.386719 204.996094 C 22.386719 199.496094 21.988281 198.828125 19.773438 200.605469 Z M 19.773438 200.605469 "/>
<path style=" stroke:none;fill-rule:nonzero;fill:rgb(0%,0%,0%);fill-opacity:1;" d="M 26.378906 199.984375 C 24.828125 200.335938 24.382812 201.445312 24.382812 204.773438 C 24.382812 208.546875 24.871094 209.390625 27.355469 209.746094 C 28.816406 209.921875 29.347656 209.789062 30.101562 209.035156 C 30.898438 208.234375 31.035156 207.570312 31.035156 204.863281 C 30.988281 203.042969 30.765625 201.359375 30.457031 200.957031 C 29.835938 200.160156 27.753906 199.671875 26.378906 199.984375 Z M 28.59375 204.773438 C 28.59375 207.570312 28.507812 207.878906 27.707031 207.878906 C 26.953125 207.878906 26.820312 207.527344 26.6875 205.261719 C 26.511719 202.15625 26.777344 201.3125 27.796875 201.535156 C 28.460938 201.667969 28.59375 202.199219 28.59375 204.773438 Z M 28.59375 204.773438 "/>
<path style=" stroke:none;fill-rule:nonzero;fill:rgb(0%,0%,0%);fill-opacity:1;" d="M 25.714844 218.886719 C 24.695312 219.417969 24.605469 219.683594 24.472656 223.410156 C 24.339844 228.023438 24.648438 228.511719 27.796875 228.511719 C 29.261719 228.511719 29.835938 228.292969 30.324219 227.492188 C 30.855469 226.695312 31.300781 222.746094 31.078125 220.75 C 30.855469 218.972656 27.664062 217.863281 25.714844 218.886719 Z M 28.59375 223.457031 C 28.59375 226.207031 28.507812 226.515625 27.707031 226.515625 C 26.910156 226.515625 26.820312 226.160156 26.6875 223.675781 C 26.601562 221.679688 26.734375 220.703125 27.132812 220.480469 C 28.285156 219.726562 28.59375 220.4375 28.59375 223.457031 Z M 28.59375 223.457031 "/>
<path style=" stroke:none;fill-rule:nonzero;fill:rgb(0%,0%,0%);fill-opacity:1;" d="M 47.660156 229.710938 C 46.683594 229.84375 45.664062 230.109375 45.351562 230.378906 C 44.511719 231.042969 44.554688 239.5625 45.351562 239.871094 C 45.707031 240.003906 47.125 240.140625 48.589844 240.183594 C 50.9375 240.273438 51.203125 240.183594 51.203125 239.382812 C 51.203125 238.628906 50.894531 238.496094 49.433594 238.496094 C 47.835938 238.496094 47.660156 238.363281 47.660156 237.386719 C 47.660156 236.410156 47.878906 236.234375 49.433594 236.054688 C 50.628906 235.921875 51.203125 235.613281 51.203125 235.167969 C 51.203125 234.679688 50.804688 234.546875 49.609375 234.636719 C 47.878906 234.769531 47.171875 234.015625 47.660156 232.460938 C 47.878906 231.839844 48.324219 231.664062 49.566406 231.753906 C 51.027344 231.839844 51.203125 231.753906 51.203125 230.730469 C 51.203125 229.535156 50.761719 229.402344 47.660156 229.710938 Z M 47.660156 229.710938 "/>
<path style=" stroke:none;fill-rule:nonzero;fill:rgb(0%,0%,0%);fill-opacity:1;" d="M 116.285156 229.710938 C 115.265625 229.800781 114.246094 230.15625 113.9375 230.511719 C 113.625 230.863281 113.492188 232.730469 113.582031 235.433594 L 113.714844 239.828125 L 116.152344 240.183594 C 118.679688 240.539062 120.898438 240.003906 120.363281 239.164062 C 120.230469 238.894531 119.433594 238.71875 118.679688 238.71875 C 117.882812 238.71875 116.996094 238.542969 116.683594 238.320312 C 115.796875 237.789062 116.242188 236.324219 117.261719 236.144531 C 119.746094 235.789062 120.277344 235.570312 119.789062 235.082031 C 119.523438 234.8125 118.769531 234.59375 118.105469 234.546875 C 116.683594 234.503906 115.710938 233.21875 116.464844 232.460938 C 116.773438 232.152344 117.660156 231.929688 118.457031 231.886719 C 119.523438 231.839844 119.964844 231.621094 120.054688 231 C 120.230469 230.15625 119.433594 229.355469 118.589844 229.488281 C 118.371094 229.535156 117.304688 229.621094 116.285156 229.710938 Z M 116.285156 229.710938 "/>
<path style=" stroke:none;fill-rule:nonzero;fill:rgb(0%,0%,0%);fill-opacity:1;" d="M 157.738281 229.976562 C 155.433594 230.910156 155.832031 233.351562 158.136719 232.460938 C 159.46875 231.972656 160.488281 232.195312 160.488281 233.082031 C 160.488281 233.394531 159.511719 234.636719 158.269531 235.835938 C 154.855469 239.207031 155.300781 240.316406 160.042969 240.273438 C 162.613281 240.273438 162.925781 240.183594 162.925781 239.382812 C 162.925781 238.675781 162.613281 238.496094 161.285156 238.496094 C 160.398438 238.496094 159.554688 238.363281 159.421875 238.230469 C 159.289062 238.097656 160.085938 237.121094 161.152344 236.054688 C 163.414062 233.839844 163.722656 232.285156 162.171875 230.820312 C 160.886719 229.667969 159.289062 229.355469 157.738281 229.976562 Z M 157.738281 229.976562 "/>
<path style=" stroke:none;fill-rule:nonzero;fill:rgb(0%,0%,0%);fill-opacity:1;" d="M 181.546875 229.800781 L 179.328125 230.066406 L 179.0625 239.917969 L 181.679688 240.226562 C 184.515625 240.539062 185.757812 240.273438 185.757812 239.382812 C 185.757812 238.984375 185.089844 238.71875 183.894531 238.628906 C 182.210938 238.496094 181.988281 238.363281 181.855469 237.300781 C 181.722656 236.191406 181.855469 236.101562 183.585938 235.96875 C 186.15625 235.789062 186.378906 234.8125 183.894531 234.636719 C 182.121094 234.503906 181.988281 234.414062 181.988281 233.171875 C 181.988281 231.886719 182.078125 231.839844 183.671875 231.972656 C 184.871094 232.109375 185.402344 231.929688 185.578125 231.441406 C 185.890625 230.644531 185.046875 229.355469 184.25 229.488281 C 183.984375 229.488281 182.785156 229.667969 181.546875 229.800781 Z M 181.546875 229.800781 "/>
<path style=" stroke:none;fill-rule:nonzero;fill:rgb(0%,0%,0%);fill-opacity:1;" d="M 222.90625 230.199219 C 222.199219 230.597656 221.667969 231.308594 221.667969 231.753906 C 221.667969 232.59375 222.507812 232.640625 224.726562 232.019531 C 225.035156 231.929688 225.433594 232.109375 225.523438 232.417969 C 225.65625 232.773438 225.347656 233.128906 224.8125 233.261719 C 223.660156 233.570312 223.617188 234.105469 224.769531 234.726562 C 225.390625 235.035156 225.65625 235.65625 225.65625 236.679688 C 225.65625 238.628906 225.347656 238.851562 223.882812 237.742188 C 221.800781 236.234375 220.78125 237.742188 222.6875 239.519531 C 224.0625 240.804688 225.746094 240.761719 227.386719 239.339844 C 228.539062 238.363281 228.761719 237.921875 228.582031 236.632812 C 228.492188 235.789062 228.226562 234.902344 227.917969 234.59375 C 227.5625 234.238281 227.605469 233.925781 228.140625 233.351562 C 229.957031 231.308594 225.480469 228.601562 222.90625 230.199219 Z M 222.90625 230.199219 "/>
<path style=" stroke:none;fill-rule:nonzero;fill:rgb(0%,0%,0%);fill-opacity:1;" d="M 247.378906 229.800781 C 246.273438 229.976562 245.117188 230.242188 244.851562 230.421875 C 244.011719 230.953125 244.054688 239.5625 244.851562 239.871094 C 245.207031 240.003906 246.625 240.140625 248.089844 240.183594 C 250.4375 240.273438 250.703125 240.183594 250.703125 239.382812 C 250.703125 238.628906 250.394531 238.496094 248.933594 238.496094 C 247.335938 238.496094 247.160156 238.363281 247.160156 237.386719 C 247.160156 236.410156 247.378906 236.234375 248.933594 236.054688 C 250.128906 235.921875 250.703125 235.613281 250.703125 235.167969 C 250.703125 234.679688 250.304688 234.546875 249.109375 234.636719 C 247.378906 234.769531 246.671875 234.015625 247.160156 232.460938 C 247.378906 231.839844 247.824219 231.664062 249.066406 231.753906 C 250.527344 231.839844 250.703125 231.753906 250.703125 230.730469 C 250.703125 229.488281 250.304688 229.355469 247.378906 229.800781 Z M 247.378906 229.800781 "/>
<path style=" stroke:none;fill-rule:nonzero;fill:rgb(0%,0%,0%);fill-opacity:1;" d="M 74.613281 230.199219 C 74.035156 230.554688 73.726562 237.519531 74.214844 239.03125 C 74.570312 240.09375 75.988281 240.40625 76.519531 239.5625 C 76.875 238.941406 76.828125 230.863281 76.476562 230.289062 C 76.164062 229.757812 75.367188 229.710938 74.613281 230.199219 Z M 74.613281 230.199219 "/>
<path style=" stroke:none;fill-rule:nonzero;fill:rgb(0%,0%,0%);fill-opacity:1;" d="M 90.085938 231.132812 C 88.578125 232.550781 88.089844 234.726562 89.332031 234.726562 C 89.6875 234.726562 89.996094 234.503906 89.996094 234.28125 C 89.996094 234.015625 90.21875 233.839844 90.441406 233.839844 C 90.707031 233.839844 90.882812 235.167969 90.882812 236.898438 C 90.882812 240.09375 91.28125 240.761719 92.746094 239.960938 C 93.410156 239.652344 93.5 238.984375 93.410156 235.257812 C 93.277344 229.402344 92.746094 228.734375 90.085938 231.132812 Z M 90.085938 231.132812 "/>
<path style=" stroke:none;fill-rule:nonzero;fill:rgb(0%,0%,0%);fill-opacity:1;" d="M 143.0625 230.378906 C 142.976562 230.6875 142.976562 232.996094 143.109375 235.523438 C 143.285156 239.429688 143.417969 240.050781 144.039062 239.960938 C 144.617188 239.828125 144.792969 238.984375 145.015625 235.390625 C 145.28125 231 145.058594 229.84375 143.863281 229.84375 C 143.550781 229.84375 143.195312 230.109375 143.0625 230.378906 Z M 143.0625 230.378906 "/>
<path style=" stroke:none;fill-rule:nonzero;fill:rgb(0%,0%,0%);fill-opacity:1;" d="M 208.675781 230.15625 C 208.5 230.289062 208.367188 232.59375 208.367188 235.257812 C 208.367188 239.652344 208.457031 240.050781 209.210938 240.050781 C 209.652344 240.050781 210.316406 239.605469 210.671875 239.074219 L 211.335938 238.097656 L 212.179688 239.074219 C 212.84375 239.828125 213.464844 240.050781 215.28125 240.050781 C 217.941406 240.050781 218.121094 239.828125 218.121094 236.277344 C 218.121094 233.171875 217.011719 231.972656 214.394531 232.152344 C 212.488281 232.285156 211.558594 233.394531 213.375 233.394531 C 213.953125 233.394531 214.574219 233.527344 214.707031 233.660156 C 215.0625 234.015625 211.382812 237.386719 210.9375 237.078125 C 210.316406 236.722656 210.582031 234.769531 211.292969 234.371094 C 211.957031 234.015625 211.957031 233.925781 211.25 233.660156 C 210.671875 233.484375 210.582031 233.082031 210.761719 232.242188 C 211.203125 230.597656 209.695312 229.089844 208.675781 230.15625 Z M 215.238281 237.386719 C 215.238281 238.585938 214.261719 239.117188 213.863281 238.097656 C 213.507812 237.121094 213.996094 235.921875 214.707031 236.191406 C 214.972656 236.277344 215.238281 236.8125 215.238281 237.386719 Z M 215.238281 237.386719 "/>
<path style=" stroke:none;fill-rule:nonzero;fill:rgb(0%,0%,0%);fill-opacity:1;" d="M 274.113281 230.199219 C 273.535156 230.554688 273.226562 237.519531 273.714844 239.03125 C 274.070312 240.09375 275.488281 240.40625 276.019531 239.5625 C 276.375 238.941406 276.328125 230.863281 275.976562 230.289062 C 275.664062 229.757812 274.867188 229.710938 274.113281 230.199219 Z M 274.113281 230.199219 "/>
<path style=" stroke:none;fill-rule:nonzero;fill:rgb(0%,0%,0%);fill-opacity:1;" d="M 290.292969 230.464844 C 289.851562 230.777344 289.496094 231.488281 289.496094 231.972656 C 289.496094 232.507812 289.230469 233.082031 288.964844 233.261719 C 288.035156 233.839844 286.660156 236.945312 287.101562 237.386719 C 287.324219 237.566406 288.121094 237.832031 288.832031 237.921875 C 289.808594 238.007812 290.207031 238.320312 290.292969 239.03125 C 290.382812 239.785156 290.738281 240.050781 291.492188 240.050781 C 292.910156 240.050781 293.886719 237.386719 293.042969 235.835938 C 292.6875 235.167969 292.601562 234.105469 292.777344 232.90625 C 293.21875 230.242188 292.066406 229.089844 290.292969 230.464844 Z M 290.5625 234.238281 C 290.914062 234.769531 290.425781 236.054688 289.894531 236.054688 C 289.675781 236.054688 289.496094 235.570312 289.496094 234.949219 C 289.496094 233.839844 290.117188 233.4375 290.5625 234.238281 Z M 290.5625 234.238281 "/>
<path style=" stroke:none;fill-rule:nonzero;fill:rgb(0%,0%,0%);fill-opacity:1;" d="M 61.84375 231.929688 C 61.355469 232.0625 60.691406 232.550781 60.382812 232.996094 C 59.628906 234.105469 58.652344 234.058594 58.078125 232.949219 C 57.410156 231.707031 54.617188 231.753906 53.289062 232.949219 C 52.757812 233.484375 52.3125 234.015625 52.3125 234.191406 C 52.3125 234.859375 53.421875 235.921875 55.105469 236.945312 C 56.125 237.519531 56.65625 238.097656 56.390625 238.363281 C 55.949219 238.808594 54.53125 238.363281 54.53125 237.789062 C 54.53125 237.253906 52.890625 237.253906 52.535156 237.789062 C 52.402344 238.054688 52.757812 238.628906 53.289062 239.117188 C 54.617188 240.359375 57.410156 240.40625 58.078125 239.164062 C 58.652344 238.054688 59.316406 238.054688 60.46875 239.117188 C 61.976562 240.449219 63.574219 240.625 64.902344 239.5625 C 66.988281 237.921875 65.789062 236.457031 63.664062 238.054688 C 62.464844 238.984375 62.066406 238.496094 62.066406 236.054688 C 62.066406 233.617188 62.644531 232.949219 63.796875 234.015625 C 64.726562 234.859375 66.058594 234.949219 66.058594 234.148438 C 66.058594 233.351562 64.148438 231.621094 63.351562 231.664062 C 62.996094 231.707031 62.332031 231.839844 61.84375 231.929688 Z M 56.613281 234.105469 C 56.789062 234.59375 57.191406 234.679688 58.121094 234.503906 C 59.316406 234.238281 59.40625 234.324219 59.40625 235.523438 C 59.40625 237.210938 59.050781 237.476562 58.078125 236.589844 C 57.632812 236.144531 56.746094 235.480469 56.125 235.035156 C 55.460938 234.59375 55.0625 234.058594 55.195312 233.792969 C 55.59375 233.171875 56.304688 233.304688 56.613281 234.105469 Z M 56.613281 234.105469 "/>
<path style=" stroke:none;fill-rule:nonzero;fill:rgb(0%,0%,0%);fill-opacity:1;" d="M 129.542969 232.730469 C 128.34375 233.703125 128.257812 233.972656 128.433594 236.144531 C 128.789062 240.226562 131.492188 241.601562 134.242188 239.074219 L 135.214844 238.140625 L 136.238281 239.074219 C 137.476562 240.273438 139.738281 240.359375 140.980469 239.296875 C 141.6875 238.675781 141.867188 237.964844 141.867188 236.054688 C 141.867188 234.148438 141.6875 233.4375 140.980469 232.816406 C 139.78125 231.796875 137.609375 231.839844 136.238281 232.949219 L 135.128906 233.839844 L 133.796875 232.730469 C 132.15625 231.351562 131.183594 231.351562 129.542969 232.730469 Z M 132.421875 234.105469 C 132.558594 234.503906 133.089844 234.726562 133.84375 234.636719 C 134.90625 234.503906 134.996094 234.636719 134.996094 236.054688 C 134.996094 237.433594 134.863281 237.609375 133.976562 237.476562 C 133.355469 237.386719 132.691406 237.652344 132.378906 238.097656 C 132.070312 238.496094 131.582031 238.71875 131.316406 238.542969 C 130.738281 238.1875 130.5625 234.191406 131.09375 233.703125 C 131.582031 233.171875 132.113281 233.351562 132.421875 234.105469 Z M 139.429688 236.101562 C 139.429688 237.921875 139.25 238.496094 138.761719 238.496094 C 138.054688 238.496094 137.566406 235.257812 138.054688 233.972656 C 138.628906 232.507812 139.429688 233.75 139.429688 236.101562 Z M 139.429688 236.101562 "/>
<path style=" stroke:none;fill-rule:nonzero;fill:rgb(0%,0%,0%);fill-opacity:1;" d="M 195.996094 231.929688 C 194.445312 232.550781 193.605469 233.972656 193.605469 236.054688 C 193.648438 238.453125 194.625 239.785156 196.707031 240.226562 C 197.726562 240.449219 198.257812 240.273438 199.234375 239.382812 C 200.695312 238.054688 201.097656 238.007812 201.804688 239.164062 C 202.558594 240.316406 205.261719 240.359375 206.28125 239.25 C 207.347656 238.054688 207.300781 233.792969 206.238281 232.816406 C 205.042969 231.753906 202.335938 231.839844 201.714844 232.949219 C 201.097656 234.105469 200.695312 234.058594 199.234375 232.730469 C 198.082031 231.664062 197.238281 231.441406 195.996094 231.929688 Z M 199.632812 234.726562 C 200.652344 234.726562 200.828125 234.902344 200.828125 236.054688 C 200.828125 237.210938 200.695312 237.386719 199.542969 237.386719 C 198.835938 237.386719 198.035156 237.699219 197.726562 238.054688 C 196.882812 239.074219 196.398438 238.410156 196.398438 236.101562 C 196.398438 233.617188 196.707031 233.128906 197.726562 234.058594 C 198.125 234.414062 199.011719 234.726562 199.632812 234.726562 Z M 205.175781 235.878906 C 205.261719 237.699219 205.175781 238.230469 204.554688 238.453125 C 203.535156 238.851562 203.046875 238.007812 203.046875 235.789062 C 203.046875 233.792969 203.3125 233.304688 204.375 233.484375 C 204.863281 233.570312 205.085938 234.28125 205.175781 235.878906 Z M 205.175781 235.878906 "/>
<path style=" stroke:none;fill-rule:nonzero;fill:rgb(0%,0%,0%);fill-opacity:1;" d="M 261.34375 231.929688 C 260.855469 232.0625 260.191406 232.550781 259.882812 232.996094 C 259.128906 234.105469 258.152344 234.058594 257.578125 232.949219 C 256.511719 230.953125 251.324219 232.507812 251.992188 234.636719 C 252.167969 235.125 253.1875 236.101562 254.296875 236.722656 C 255.582031 237.476562 256.15625 238.097656 255.9375 238.320312 C 255.449219 238.808594 254.03125 238.410156 254.03125 237.789062 C 254.03125 237.253906 252.390625 237.253906 252.035156 237.789062 C 251.902344 238.054688 252.257812 238.628906 252.789062 239.117188 C 254.117188 240.359375 256.910156 240.40625 257.578125 239.164062 C 258.152344 238.054688 258.816406 238.054688 259.96875 239.117188 C 261.476562 240.492188 262.984375 240.671875 264.359375 239.605469 C 265.023438 239.074219 265.558594 238.363281 265.558594 238.007812 C 265.558594 237.210938 264.269531 237.210938 263.164062 238.054688 C 261.964844 238.984375 261.566406 238.496094 261.566406 236.054688 C 261.566406 233.617188 262.144531 232.949219 263.296875 234.015625 C 264.226562 234.859375 265.558594 234.949219 265.558594 234.148438 C 265.558594 233.351562 263.648438 231.621094 262.851562 231.664062 C 262.496094 231.707031 261.832031 231.839844 261.34375 231.929688 Z M 256.113281 234.105469 C 256.289062 234.59375 256.691406 234.679688 257.621094 234.503906 C 258.816406 234.238281 258.90625 234.324219 258.90625 235.523438 C 258.90625 237.210938 258.550781 237.476562 257.578125 236.589844 C 257.132812 236.144531 256.246094 235.480469 255.625 235.035156 C 254.960938 234.59375 254.5625 234.058594 254.695312 233.792969 C 255.09375 233.171875 255.804688 233.304688 256.113281 234.105469 Z M 256.113281 234.105469 "/>
<path style=" stroke:none;fill-rule:nonzero;fill:rgb(0%,0%,0%);fill-opacity:1;" d="M 67.652344 233.039062 C 66.675781 234.460938 66.722656 237.921875 67.785156 239.074219 C 68.804688 240.316406 71.375 240.40625 72.394531 239.25 C 73.371094 238.1875 73.414062 234.371094 72.441406 233.039062 C 71.953125 232.328125 71.332031 232.0625 70.046875 232.0625 C 68.761719 232.0625 68.140625 232.328125 67.652344 233.039062 Z M 71.289062 235.835938 C 71.421875 238.140625 71.023438 238.894531 69.914062 238.453125 C 68.984375 238.097656 68.851562 234.058594 69.738281 233.703125 C 70.800781 233.261719 71.15625 233.703125 71.289062 235.835938 Z M 71.289062 235.835938 "/>
<path style=" stroke:none;fill-rule:nonzero;fill:rgb(0%,0%,0%);fill-opacity:1;" d="M 78.46875 232.683594 C 78.46875 233.039062 79.003906 233.394531 79.667969 233.484375 C 80.953125 233.617188 81.660156 234.726562 80.464844 234.726562 C 79.578125 234.726562 77.582031 236.855469 77.582031 237.832031 C 77.582031 239.207031 79.046875 240.050781 81.484375 240.050781 L 83.789062 240.050781 L 83.789062 236.8125 C 83.789062 234.191406 83.613281 233.394531 82.992188 232.816406 C 81.929688 231.839844 78.46875 231.796875 78.46875 232.683594 Z M 81.484375 237.253906 C 81.308594 238.894531 79.800781 239.25 79.800781 237.699219 C 79.800781 236.679688 80.242188 236.191406 81.261719 236.101562 C 81.484375 236.054688 81.574219 236.589844 81.484375 237.253906 Z M 81.484375 237.253906 "/>
<path style=" stroke:none;fill-rule:nonzero;fill:rgb(0%,0%,0%);fill-opacity:1;" d="M 121.5625 233.082031 C 121.03125 233.660156 120.585938 234.28125 120.585938 234.460938 C 120.585938 234.949219 122.449219 236.457031 123.070312 236.5 C 123.335938 236.5 123.910156 236.898438 124.3125 237.34375 C 124.886719 237.964844 124.929688 238.273438 124.53125 238.542969 C 124.222656 238.71875 123.777344 238.542969 123.46875 238.140625 C 122.9375 237.386719 121.429688 237.121094 120.898438 237.652344 C 120.71875 237.832031 121.074219 238.410156 121.605469 238.984375 C 123.511719 240.980469 127.238281 240.003906 127.238281 237.519531 C 127.238281 236.898438 126.570312 236.191406 125.199219 235.390625 C 123.957031 234.636719 123.335938 234.015625 123.558594 233.792969 C 124.042969 233.304688 125.464844 233.703125 125.464844 234.324219 C 125.464844 234.546875 125.863281 234.726562 126.351562 234.726562 C 127.457031 234.726562 127.503906 233.75 126.4375 232.816406 C 125.199219 231.707031 122.714844 231.839844 121.5625 233.082031 Z M 121.5625 233.082031 "/>
<path style=" stroke:none;fill-rule:nonzero;fill:rgb(0%,0%,0%);fill-opacity:1;" d="M 147.1875 232.730469 C 147.1875 233.082031 146.875 233.394531 146.523438 233.394531 C 145.769531 233.394531 145.636719 234.105469 146.300781 234.503906 C 146.566406 234.636719 146.875 234.460938 147.007812 234.105469 C 147.320312 233.304688 149.183594 233.128906 149.625 233.839844 C 149.757812 234.105469 149.402344 234.460938 148.828125 234.679688 C 148.25 234.902344 147.230469 235.746094 146.566406 236.5 L 145.367188 237.921875 L 146.523438 238.984375 C 147.453125 239.828125 148.160156 240.050781 150.113281 240.050781 L 152.507812 240.050781 L 152.507812 236.945312 C 152.507812 234.414062 152.328125 233.660156 151.621094 232.949219 C 150.511719 231.839844 147.1875 231.664062 147.1875 232.730469 Z M 149.847656 237.386719 C 149.847656 238.273438 149.625 238.71875 149.183594 238.71875 C 148.515625 238.71875 148.25 236.945312 148.828125 236.367188 C 149.449219 235.703125 149.847656 236.101562 149.847656 237.386719 Z M 149.847656 237.386719 "/>
<path style=" stroke:none;fill-rule:nonzero;fill:rgb(0%,0%,0%);fill-opacity:1;" d="M 187.21875 232.996094 C 186.421875 233.792969 186.378906 234.148438 186.730469 234.992188 C 186.996094 235.570312 187.484375 236.054688 187.75 236.054688 C 188.0625 236.054688 188.859375 236.5 189.523438 237.03125 C 190.632812 237.875 190.632812 238.007812 189.925781 238.410156 C 189.347656 238.71875 189.039062 238.675781 188.636719 238.097656 C 187.972656 237.253906 186.644531 237.164062 186.644531 237.964844 C 186.644531 239.03125 188.238281 240.050781 189.878906 240.050781 C 192.761719 240.050781 193.738281 236.679688 191.121094 235.835938 C 190.675781 235.703125 189.96875 235.214844 189.523438 234.726562 C 188.769531 233.882812 188.769531 233.839844 189.523438 233.570312 C 190.011719 233.351562 190.5 233.527344 190.855469 233.972656 C 191.5625 234.949219 192.40625 234.949219 192.40625 233.925781 C 192.40625 232.683594 191.519531 232.0625 189.746094 232.0625 C 188.726562 232.0625 187.839844 232.417969 187.21875 232.996094 Z M 187.21875 232.996094 "/>
<path style=" stroke:none;fill-rule:nonzero;fill:rgb(0%,0%,0%);fill-opacity:1;" d="M 267.242188 233.039062 C 266.132812 234.371094 266.175781 237.832031 267.285156 239.074219 C 268.304688 240.316406 270.875 240.40625 271.894531 239.25 C 272.871094 238.1875 272.914062 234.371094 271.941406 233.039062 C 271.007812 231.707031 268.304688 231.707031 267.242188 233.039062 Z M 270.789062 235.835938 C 270.921875 238.140625 270.523438 238.894531 269.414062 238.453125 C 268.484375 238.097656 268.351562 234.058594 269.238281 233.703125 C 270.300781 233.261719 270.65625 233.703125 270.789062 235.835938 Z M 270.789062 235.835938 "/>
<path style=" stroke:none;fill-rule:nonzero;fill:rgb(0%,0%,0%);fill-opacity:1;" d="M 277.96875 232.683594 C 277.96875 233.039062 278.503906 233.394531 279.167969 233.484375 C 280.453125 233.617188 281.160156 234.726562 279.964844 234.726562 C 279.078125 234.726562 277.082031 236.855469 277.082031 237.832031 C 277.082031 239.207031 278.546875 240.050781 280.984375 240.050781 L 283.289062 240.050781 L 283.289062 236.8125 C 283.289062 234.191406 283.113281 233.394531 282.492188 232.816406 C 281.429688 231.839844 277.96875 231.796875 277.96875 232.683594 Z M 280.984375 237.253906 C 280.808594 238.894531 279.300781 239.25 279.300781 237.699219 C 279.300781 236.679688 279.742188 236.191406 280.761719 236.101562 C 280.984375 236.054688 281.074219 236.589844 280.984375 237.253906 Z M 280.984375 237.253906 "/>
<path style=" stroke:none;fill-rule:nonzero;fill:rgb(75.294118%,75.294118%,75.294118%);fill-opacity:1;" d="M 331.265625 118.476562 C 329.171875 118.492188 329.222656 121.039062 329.304688 122.535156 C 329.242188 123.925781 328.898438 126.367188 331.121094 125.671875 C 332.960938 125.421875 335.023438 125.9375 336.738281 125.195312 C 337.105469 123.367188 337.351562 121.332031 337.121094 119.5 C 335.375 118.527344 333.214844 118.554688 331.265625 118.476562 Z M 331.265625 118.476562 "/>
<path style=" stroke:none;fill-rule:nonzero;fill:rgb(75.294118%,75.294118%,75.294118%);fill-opacity:1;" d="M 62.035156 162.328125 C 59.535156 162.839844 56.109375 161.644531 54.132812 163.246094 C 53.671875 182.777344 53.53125 202.324219 53.234375 221.859375 C 55.558594 223.582031 59.605469 222.230469 62.582031 222.765625 C 65.175781 222.304688 70.871094 224.671875 69.878906 220.042969 C 70.84375 200.976562 70.605469 181.875 69.886719 162.804688 C 68.144531 161.179688 64.429688 162.730469 62.035156 162.328125 Z M 62.035156 162.328125 "/>
<path style=" stroke:none;fill-rule:nonzero;fill:rgb(75.294118%,75.294118%,75.294118%);fill-opacity:1;" d="M 127.773438 40.503906 C 124.59375 40.664062 121.222656 40.535156 118.222656 41.527344 C 117.984375 101.628906 118.1875 161.789062 118.121094 221.910156 C 120.378906 223.566406 124.3125 222.171875 127.210938 222.625 C 129.777344 222.140625 135.160156 224.308594 134.347656 219.8125 C 135.097656 200.570312 134.542969 181.28125 134.675781 162.019531 C 134.5 122.390625 134.605469 82.746094 133.875 43.125 C 134.316406 38.953125 130.242188 40.898438 127.773438 40.503906 Z M 127.773438 40.503906 "/>
<path style=" stroke:none;fill-rule:nonzero;fill:rgb(75.294118%,75.294118%,75.294118%);fill-opacity:1;" d="M 182.988281 61.445312 C 182.632812 95.648438 182.9375 129.96875 182.835938 164.214844 C 182.835938 183.449219 182.835938 202.679688 182.835938 221.910156 C 185.089844 223.566406 189.015625 222.171875 191.910156 222.625 C 194.125 222.171875 198.523438 223.757812 199.167969 220.585938 C 199.792969 167.683594 199.472656 114.769531 198.777344 61.871094 C 196.480469 60.253906 192.617188 61.617188 189.71875 61.171875 C 187.523438 61.363281 185.070312 60.792969 182.988281 61.445312 Z M 182.988281 61.445312 "/>
<path style=" stroke:none;fill-rule:nonzero;fill:rgb(75.294118%,75.294118%,75.294118%);fill-opacity:1;" d="M 248.25 81.582031 C 247.828125 120.386719 248.398438 159.304688 248.628906 198.148438 C 248.875 206.234375 248.40625 214.492188 249.097656 222.472656 C 254.144531 222.632812 259.476562 222.898438 264.460938 222.355469 C 265.730469 214.335938 264.835938 206.058594 265.195312 197.945312 C 265.34375 159.304688 265.28125 120.664062 265.296875 82.027344 C 263.023438 80.363281 259.0625 81.777344 256.152344 81.3125 C 253.558594 81.5 250.726562 80.9375 248.25 81.582031 Z M 248.25 81.582031 "/>
<path style=" stroke:none;fill-rule:nonzero;fill:rgb(46.666667%,46.666667%,46.666667%);fill-opacity:1;" d="M 71.503906 163.230469 C 71.144531 182.738281 71.453125 202.359375 71.351562 221.910156 C 73.710938 223.582031 77.769531 222.148438 80.765625 222.625 C 83.984375 222.832031 88.460938 223.382812 86.917969 218.644531 C 86.917969 200.320312 86.917969 181.996094 86.917969 163.671875 C 84.558594 162 80.496094 163.433594 77.503906 162.957031 C 75.539062 163.121094 73.355469 162.617188 71.503906 163.230469 Z M 71.503906 163.230469 "/>
<path style=" stroke:none;fill-rule:nonzero;fill:rgb(46.666667%,46.666667%,46.666667%);fill-opacity:1;" d="M 136.78125 82.078125 C 136.382812 109.933594 136.722656 137.921875 136.609375 165.832031 C 136.609375 184.523438 136.609375 203.21875 136.609375 221.910156 C 138.96875 223.582031 143.03125 222.148438 146.023438 222.625 C 149.242188 222.832031 153.722656 223.382812 152.175781 218.644531 C 151.972656 174.910156 152.441406 131.164062 151.574219 87.4375 C 152.132812 83.800781 151.09375 80.835938 146.859375 82.039062 C 143.527344 82.148438 140.011719 81.507812 136.78125 82.078125 Z M 136.78125 82.078125 "/>
<path style=" stroke:none;fill-rule:nonzero;fill:rgb(46.666667%,46.666667%,46.666667%);fill-opacity:1;" d="M 208.632812 102.625 C 206.320312 103.398438 201.007812 101.097656 201.050781 104.613281 C 200.960938 143.714844 200.871094 182.8125 200.78125 221.910156 C 203.144531 223.582031 207.203125 222.148438 210.199219 222.625 C 213.414062 222.832031 217.894531 223.382812 216.351562 218.644531 C 216.351562 180.367188 216.351562 142.089844 216.351562 103.816406 C 214.492188 101.917969 211.074219 102.878906 208.632812 102.625 Z M 208.632812 102.625 "/>
<path style=" stroke:none;fill-rule:nonzero;fill:rgb(46.666667%,46.666667%,46.666667%);fill-opacity:1;" d="M 273.128906 20.808594 C 271.691406 20.757812 271.835938 22.441406 270.359375 22.339844 C 267.621094 23.191406 267.113281 25.867188 267.546875 28.445312 C 267.085938 92.933594 266.914062 157.421875 266.6875 221.910156 C 268.6875 223.523438 272.300781 222.242188 274.949219 222.601562 C 277.253906 222.1875 281.261719 223.359375 282.152344 220.703125 C 282.152344 155.335938 282.152344 89.96875 282.152344 24.601562 C 279.980469 22.191406 276.398438 20.816406 273.128906 20.808594 Z M 273.128906 20.808594 "/>
</g>
</svg>
