<?xml version="1.0" encoding="UTF-8"?>
<svg xmlns="http://www.w3.org/2000/svg" xmlns:xlink="http://www.w3.org/1999/xlink" width="398pt" height="245pt" viewBox="0 0 398 245" version="1.1">
<g id="surface1">
<path style=" stroke:none;fill-rule:nonzero;fill:rgb(0%,0%,0%);fill-opacity:1;" d="M 5.226562 9.269531 C 5.023438 9.871094 5.226562 10.476562 5.730469 10.828125 C 6.433594 11.382812 6.53125 13.195312 6.582031 26.191406 C 6.582031 36.164062 6.433594 41.101562 6.082031 41.453125 C 5.378906 42.160156 5.378906 43.46875 6.082031 44.175781 C 6.433594 44.527344 6.582031 49.664062 6.582031 59.4375 C 6.582031 72.886719 6.53125 74.195312 5.730469 74.800781 C 4.875 75.402344 4.875 75.503906 5.679688 76.714844 C 6.433594 77.871094 6.53125 79.734375 6.53125 91.925781 C 6.53125 103.8125 6.433594 105.828125 5.777344 106.078125 C 4.824219 106.480469 4.824219 107.488281 5.777344 108.296875 C 6.933594 109.253906 6.933594 138.921875 5.777344 139.324219 C 4.824219 139.726562 4.824219 140.984375 5.777344 141.339844 C 6.933594 141.792969 6.933594 172.015625 5.777344 172.46875 C 4.824219 172.820312 4.824219 174.078125 5.777344 174.480469 C 6.933594 174.886719 6.933594 205.257812 5.777344 205.710938 C 4.824219 206.0625 4.824219 207.324219 5.777344 207.726562 C 6.433594 207.976562 6.53125 210.144531 6.53125 222.988281 C 6.53125 237.796875 6.53125 238.050781 5.425781 238.957031 C 2.664062 241.375 -6.785156 241.273438 199.300781 241.273438 C 407.097656 241.273438 394.785156 241.421875 392.472656 238.753906 C 391.515625 237.644531 391.46875 236.839844 391.46875 222.785156 C 391.46875 210.09375 391.566406 207.976562 392.222656 207.726562 C 392.621094 207.523438 392.976562 207.121094 392.976562 206.769531 C 392.976562 206.417969 392.621094 205.863281 392.222656 205.511719 C 391.566406 204.957031 391.46875 202.589844 391.46875 189.84375 C 391.46875 174.886719 391.46875 174.835938 392.574219 174.230469 L 393.679688 173.625 L 392.574219 172.769531 C 391.46875 171.863281 391.46875 171.660156 391.46875 157.003906 C 391.46875 144.410156 391.566406 142.09375 392.222656 141.539062 C 393.175781 140.734375 393.175781 139.726562 392.222656 139.324219 C 391.566406 139.070312 391.46875 136.957031 391.46875 124.363281 C 391.46875 111.316406 391.566406 109.554688 392.371094 108.195312 C 393.175781 106.785156 393.175781 106.683594 392.371094 106.230469 C 391.515625 105.777344 391.46875 104.519531 391.46875 91.722656 C 391.46875 79.886719 391.566406 77.621094 392.222656 77.066406 C 392.621094 76.714844 392.976562 76.109375 392.976562 75.707031 C 392.976562 75.355469 392.621094 74.898438 392.222656 74.75 C 391.566406 74.496094 391.46875 72.28125 391.46875 59.386719 C 391.46875 46.441406 391.566406 44.273438 392.222656 44.023438 C 393.175781 43.621094 393.175781 42.613281 392.222656 41.808594 C 391.566406 41.253906 391.46875 38.9375 391.46875 26.394531 C 391.46875 13.449219 391.566406 11.585938 392.269531 11.183594 C 392.722656 10.929688 392.976562 10.277344 392.875 9.621094 L 392.722656 8.5625 L 199.101562 8.410156 C 8.441406 8.3125 5.527344 8.3125 5.226562 9.269531 Z M 388.453125 26.445312 L 388.453125 41.304688 L 9.046875 41.304688 L 9.046875 11.585938 L 388.453125 11.585938 Z M 388.550781 44.828125 C 388.652344 45.082031 388.601562 51.78125 388.453125 59.6875 L 388.199219 74.09375 L 198.648438 74.195312 L 9.046875 74.296875 L 9.046875 44.324219 L 198.699219 44.324219 C 323.625 44.324219 388.402344 44.476562 388.550781 44.828125 Z M 197.894531 91.523438 C 197.996094 102.753906 197.894531 105.777344 197.390625 105.777344 C 169.402344 105.980469 9.046875 105.929688 9.046875 105.777344 C 9.046875 105.121094 8.996094 78.273438 9.046875 77.820312 C 9.046875 77.417969 38.292969 77.269531 103.417969 77.316406 L 197.742188 77.316406 Z M 388.652344 91.523438 C 388.703125 99.378906 388.601562 105.777344 388.453125 105.777344 C 388.300781 105.777344 345.9375 105.777344 294.277344 105.777344 L 200.355469 105.777344 L 200.40625 91.824219 C 200.40625 84.117188 200.457031 77.671875 200.457031 77.46875 C 200.507812 77.316406 242.820312 77.21875 294.53125 77.21875 L 388.601562 77.316406 Z M 197.742188 123.660156 C 197.742188 132.121094 197.59375 139.019531 197.390625 139.019531 C 197.140625 139.019531 154.675781 139.019531 102.96875 139.019531 L 8.945312 139.019531 L 8.996094 124.164062 C 8.996094 116.003906 8.996094 109.050781 9.046875 108.800781 C 9.046875 108.445312 40.855469 108.296875 103.417969 108.296875 L 197.792969 108.296875 Z M 388.953125 123.660156 C 389.105469 131.96875 389.207031 138.820312 389.15625 138.921875 C 389.15625 138.972656 346.640625 139.019531 294.730469 139.019531 L 200.355469 139.019531 L 200.40625 124.0625 C 200.40625 115.800781 200.457031 108.898438 200.457031 108.648438 C 200.507812 108.445312 242.871094 108.347656 294.628906 108.394531 L 388.703125 108.546875 Z M 197.742188 156.902344 L 197.742188 172.265625 L 103.921875 172.316406 C 52.261719 172.367188 9.800781 172.417969 9.496094 172.46875 C 9.097656 172.515625 8.945312 168.035156 8.996094 157.15625 C 8.996094 148.691406 8.996094 141.742188 9.046875 141.640625 C 9.046875 141.589844 51.507812 141.539062 103.417969 141.539062 L 197.792969 141.539062 Z M 389.054688 156.703125 C 389.15625 165.011719 389.054688 171.964844 388.902344 172.0625 C 388.703125 172.164062 346.238281 172.265625 294.480469 172.265625 L 200.40625 172.265625 L 200.304688 156.902344 L 200.257812 141.539062 L 388.902344 141.539062 Z M 197.242188 174.785156 C 197.59375 174.785156 197.742188 180.171875 197.742188 190.148438 L 197.742188 205.511719 L 103.371094 205.410156 L 8.945312 205.257812 L 8.996094 189.996094 C 8.996094 181.632812 8.996094 174.734375 9.046875 174.632812 C 9.046875 174.582031 51.257812 174.582031 102.867188 174.632812 C 154.527344 174.734375 196.988281 174.785156 197.242188 174.785156 Z M 388.703125 174.984375 C 389.003906 175.085938 389.15625 180.527344 389.054688 190.347656 L 388.902344 205.511719 L 200.257812 205.511719 L 200.355469 190.046875 C 200.40625 181.484375 200.457031 174.53125 200.457031 174.53125 C 258.851562 174.53125 388.351562 174.835938 388.703125 174.984375 Z M 197.742188 222.9375 C 197.742188 231.148438 197.59375 237.949219 197.390625 238.050781 C 196.636719 238.550781 9.046875 238.503906 9.046875 238 C 8.996094 236.335938 8.996094 208.230469 9.046875 208.027344 C 9.046875 207.878906 51.507812 207.828125 103.371094 207.878906 L 197.742188 208.027344 Z M 388.953125 208.027344 C 389.355469 208.027344 388.953125 237.445312 388.550781 237.847656 C 388.101562 238.300781 200.507812 238.652344 200.457031 238.25 C 200.457031 237.898438 200.40625 208.332031 200.457031 208.027344 C 200.507812 207.878906 377.144531 207.878906 388.953125 208.027344 Z M 388.953125 208.027344 "/>
<path style=" stroke:none;fill-rule:nonzero;fill:rgb(0%,0%,0%);fill-opacity:1;" d="M 163.070312 18.484375 C 158.347656 19.695312 156.085938 26.496094 159 30.777344 C 162.113281 35.359375 168.445312 35.308594 170.808594 30.675781 C 174.175781 24.226562 169.5 16.875 163.070312 18.484375 Z M 167.792969 22.261719 C 169.148438 23.625 169.351562 24.226562 169.351562 26.445312 C 169.351562 28.609375 169.148438 29.265625 167.945312 30.375 C 164.777344 33.445312 160.859375 31.230469 160.808594 26.445312 C 160.808594 24.328125 161.058594 23.625 162.265625 22.261719 C 164.175781 20.199219 165.78125 20.199219 167.792969 22.261719 Z M 167.792969 22.261719 "/>
<path style=" stroke:none;fill-rule:nonzero;fill:rgb(0%,0%,0%);fill-opacity:1;" d="M 180.003906 18.585938 C 179.503906 18.890625 179.300781 20.652344 179.25 25.234375 C 179.148438 31.28125 179.101562 31.480469 178.042969 31.632812 C 177.191406 31.785156 176.738281 31.480469 176.386719 30.523438 C 176.035156 29.566406 175.53125 29.214844 174.628906 29.214844 C 173.019531 29.214844 172.917969 30.925781 174.425781 32.742188 C 175.28125 33.746094 175.984375 34 177.644531 34 C 181.3125 34 181.714844 33.246094 182.113281 25.890625 C 182.46875 18.738281 182.066406 17.277344 180.003906 18.585938 Z M 180.003906 18.585938 "/>
<path style=" stroke:none;fill-rule:nonzero;fill:rgb(0%,0%,0%);fill-opacity:1;" d="M 205.128906 18.9375 C 203.121094 19.996094 202.417969 21.207031 202.617188 23.320312 C 202.820312 25.234375 205.179688 27.046875 208.195312 27.550781 C 211.964844 28.15625 211.914062 31.734375 208.097656 31.734375 C 206.6875 31.734375 206.035156 31.429688 205.03125 30.222656 C 203.421875 28.257812 201.863281 28.558594 202.316406 30.675781 C 202.917969 33.195312 206.238281 34.703125 209.703125 34.050781 C 212.265625 33.546875 213.574219 32.136719 213.574219 29.871094 C 213.574219 27.300781 212.117188 25.890625 208.246094 24.730469 C 205.179688 23.824219 204.378906 22.816406 205.53125 21.40625 C 206.636719 20.097656 208.898438 20.5 210.15625 22.164062 C 210.859375 23.171875 211.664062 23.675781 212.316406 23.574219 C 213.824219 23.371094 213.773438 21.910156 212.214844 20.199219 C 210.457031 18.234375 207.542969 17.730469 205.128906 18.9375 Z M 205.128906 18.9375 "/>
<path style=" stroke:none;fill-rule:nonzero;fill:rgb(0%,0%,0%);fill-opacity:1;" d="M 218.851562 18.585938 L 216.335938 18.890625 L 216.4375 26.191406 C 216.539062 34.65625 216.238281 34.152344 222.117188 34.203125 C 226.4375 34.25 228.144531 33.898438 228.144531 32.992188 C 228.144531 32.035156 226.941406 31.734375 222.617188 31.734375 L 218.699219 31.734375 L 218.449219 30.070312 C 218.347656 29.214844 218.296875 28.308594 218.449219 28.054688 C 218.546875 27.855469 220.457031 27.703125 222.667969 27.703125 C 226.539062 27.703125 226.640625 27.652344 226.640625 26.496094 C 226.640625 24.933594 225.535156 24.582031 222.367188 24.933594 C 219.351562 25.335938 217.792969 24.378906 218.398438 22.464844 C 218.898438 20.902344 219.503906 20.652344 223.171875 20.652344 C 225.535156 20.652344 226.6875 20.449219 227.140625 19.894531 C 227.644531 19.292969 227.542969 19.089844 226.386719 18.636719 C 224.980469 18.082031 223.019531 18.082031 218.851562 18.585938 Z M 218.851562 18.585938 "/>
<path style=" stroke:none;fill-rule:nonzero;fill:rgb(0%,0%,0%);fill-opacity:1;" d="M 229.152344 18.738281 C 227.140625 19.492188 228.398438 20.652344 231.160156 20.652344 C 233.523438 20.652344 233.824219 21.507812 233.421875 27.957031 C 233.019531 34.101562 232.921875 33.746094 235.332031 33.949219 C 235.785156 34 235.984375 32.238281 236.1875 27.453125 L 236.4375 20.902344 L 238.449219 20.652344 C 239.804688 20.5 240.507812 20.148438 240.609375 19.492188 C 240.710938 19.039062 240.507812 18.636719 240.105469 18.585938 C 236.992188 18.335938 229.90625 18.433594 229.152344 18.738281 Z M 229.152344 18.738281 "/>
<path style=" stroke:none;fill-rule:nonzero;fill:rgb(0%,0%,0%);fill-opacity:1;" d="M 147.039062 19.039062 C 146.886719 19.292969 146.9375 22.667969 147.089844 26.59375 C 147.441406 34.703125 147.089844 34.25 152.566406 34.25 C 158.296875 34.25 158.699219 31.933594 153.019531 31.632812 L 150.003906 31.480469 L 150.203125 25.035156 L 150.355469 18.636719 L 148.847656 18.636719 C 147.992188 18.636719 147.191406 18.839844 147.039062 19.039062 Z M 147.039062 19.039062 "/>
<path style=" stroke:none;fill-rule:nonzero;fill:rgb(0%,0%,0%);fill-opacity:1;" d="M 188.296875 18.988281 C 188.09375 19.140625 187.945312 20.046875 187.945312 20.953125 C 187.945312 21.910156 187.644531 22.667969 187.191406 22.867188 C 186.789062 23.019531 186.4375 23.675781 186.4375 24.328125 C 186.4375 25.539062 185.078125 29.214844 183.671875 31.785156 C 183.070312 32.890625 183.070312 33.246094 183.574219 33.648438 C 184.476562 34.402344 185.128906 33.847656 186.1875 31.332031 C 187.089844 29.265625 187.191406 29.214844 189.503906 29.214844 C 191.863281 29.214844 191.914062 29.265625 192.917969 31.480469 C 193.773438 33.445312 194.125 33.746094 195.433594 33.746094 C 196.636719 33.746094 196.988281 33.546875 196.988281 32.742188 C 196.988281 32.1875 196.789062 31.734375 196.488281 31.734375 C 196.234375 31.734375 195.984375 31.480469 195.984375 31.179688 C 195.984375 30.925781 195.582031 29.71875 195.082031 28.558594 C 193.523438 24.984375 192.515625 22.464844 192.164062 21.15625 C 192.015625 20.449219 191.613281 19.59375 191.363281 19.242188 C 190.808594 18.585938 188.847656 18.386719 188.296875 18.988281 Z M 190.003906 23.675781 C 191.160156 24.328125 191.3125 26.59375 190.15625 27.046875 C 188.949219 27.503906 187.742188 25.992188 188.144531 24.480469 C 188.496094 23.019531 188.648438 22.96875 190.003906 23.675781 Z M 190.003906 23.675781 "/>
<path style=" stroke:none;fill-rule:nonzero;fill:rgb(0%,0%,0%);fill-opacity:1;" d="M 244.175781 19.695312 C 243.875 20.300781 243.726562 21.15625 243.875 21.609375 C 243.976562 22.113281 243.675781 22.765625 243.171875 23.121094 C 242.621094 23.421875 242.21875 24.175781 242.21875 24.78125 C 242.21875 25.789062 241.011719 28.8125 239.402344 31.785156 C 238.800781 32.941406 238.800781 33.195312 239.453125 33.746094 C 240.457031 34.554688 241.464844 33.746094 242.316406 31.429688 C 242.972656 29.515625 244.027344 29.0625 246.789062 29.316406 C 248.296875 29.464844 248.597656 29.71875 249.152344 31.53125 C 249.90625 33.847656 251.515625 34.753906 252.71875 33.496094 C 253.324219 32.890625 253.324219 32.691406 252.71875 31.933594 C 251.964844 31.027344 248.851562 23.269531 248.398438 21.15625 C 248.246094 20.449219 247.894531 19.59375 247.59375 19.242188 C 246.839844 18.285156 244.832031 18.535156 244.175781 19.695312 Z M 247.242188 25.132812 C 247.242188 26.546875 245.9375 27.453125 244.980469 26.695312 C 244.078125 25.941406 243.976562 23.824219 244.878906 23.523438 C 245.835938 23.171875 247.242188 24.128906 247.242188 25.132812 Z M 247.242188 25.132812 "/>
<path style=" stroke:none;fill-rule:nonzero;fill:rgb(0%,0%,0%);fill-opacity:1;" d="M 130.503906 51.730469 C 130.304688 51.882812 130.152344 55.304688 130.152344 59.234375 C 130.152344 66.085938 130.203125 66.488281 131.210938 67.042969 C 132.566406 67.746094 138.949219 67.445312 139.800781 66.589844 C 140.757812 65.632812 139.851562 65.230469 136.285156 64.976562 L 132.917969 64.726562 L 132.867188 58.679688 C 132.867188 55.304688 132.667969 52.335938 132.464844 51.980469 C 132.0625 51.328125 131.007812 51.175781 130.503906 51.730469 Z M 130.503906 51.730469 "/>
<path style=" stroke:none;fill-rule:nonzero;fill:rgb(0%,0%,0%);fill-opacity:1;" d="M 141.359375 51.730469 C 140.253906 52.132812 140.65625 53.34375 141.964844 53.695312 C 143.570312 54.097656 144.980469 53.039062 144.175781 52.082031 C 143.621094 51.378906 142.515625 51.226562 141.359375 51.730469 Z M 141.359375 51.730469 "/>
<path style=" stroke:none;fill-rule:nonzero;fill:rgb(0%,0%,0%);fill-opacity:1;" d="M 207.945312 51.730469 C 207.140625 51.929688 207.039062 52.738281 206.941406 58.480469 C 206.890625 62.054688 206.839844 65.378906 206.839844 65.832031 C 206.789062 66.488281 207.242188 66.789062 208.449219 66.890625 L 210.15625 67.042969 L 209.953125 64.121094 L 209.804688 61.199219 L 212.566406 60.949219 C 216.085938 60.59375 217.492188 59.6875 218.144531 57.269531 C 219.203125 53.34375 217.140625 51.328125 212.117188 51.429688 C 210.308594 51.476562 208.398438 51.578125 207.945312 51.730469 Z M 215.582031 54.601562 C 215.886719 55.003906 216.085938 55.859375 215.984375 56.515625 C 215.835938 57.523438 215.53125 57.671875 213.171875 57.824219 C 210.355469 57.976562 208.949219 57.371094 209.351562 56.113281 C 209.453125 55.710938 209.652344 55.054688 209.804688 54.652344 C 210.105469 53.644531 214.730469 53.59375 215.582031 54.601562 Z M 215.582031 54.601562 "/>
<path style=" stroke:none;fill-rule:nonzero;fill:rgb(0%,0%,0%);fill-opacity:1;" d="M 156.285156 53.140625 C 156.285156 53.84375 155.933594 54.550781 155.53125 54.703125 C 155.128906 54.902344 154.777344 55.304688 154.777344 55.660156 C 154.777344 56.011719 155.128906 56.566406 155.53125 56.917969 C 156.085938 57.371094 156.285156 58.679688 156.285156 62.054688 C 156.285156 66.1875 156.386719 66.539062 157.390625 66.941406 C 158.597656 67.394531 160.808594 67.09375 160.808594 66.4375 C 160.808594 66.238281 160.253906 65.480469 159.550781 64.777344 C 157.894531 63.113281 157.792969 59.234375 159.300781 57.269531 C 160.507812 55.757812 160.558594 55.105469 159.5 54.703125 C 159.050781 54.550781 158.796875 53.945312 158.898438 53.292969 C 159 52.335938 158.796875 52.082031 157.691406 51.980469 C 156.488281 51.832031 156.285156 51.980469 156.285156 53.140625 Z M 156.285156 53.140625 "/>
<path style=" stroke:none;fill-rule:nonzero;fill:rgb(0%,0%,0%);fill-opacity:1;" d="M 184.929688 53.34375 C 184.929688 54.851562 184.828125 54.902344 182.769531 54.902344 C 178.144531 54.902344 175.832031 60.445312 178.699219 64.625 C 180.253906 66.992188 181.613281 67.546875 184.679688 67.09375 L 187.089844 66.742188 L 187.191406 60.445312 C 187.242188 56.96875 187.339844 53.695312 187.492188 53.140625 C 187.644531 52.335938 187.390625 52.082031 186.335938 51.980469 C 185.078125 51.832031 184.929688 51.980469 184.929688 53.34375 Z M 184.628906 58.027344 C 184.777344 58.679688 184.929688 59.992188 184.929688 60.949219 C 184.929688 63.917969 184.425781 64.976562 183.121094 64.976562 C 179.402344 64.976562 179.753906 57.019531 183.472656 56.917969 C 183.925781 56.917969 184.425781 57.421875 184.628906 58.027344 Z M 184.628906 58.027344 "/>
<path style=" stroke:none;fill-rule:nonzero;fill:rgb(0%,0%,0%);fill-opacity:1;" d="M 193.371094 54.902344 C 191.363281 55.304688 189.453125 58.429688 189.453125 61.351562 C 189.453125 63.214844 189.804688 64.121094 190.910156 65.429688 C 192.117188 66.890625 192.617188 67.144531 194.628906 67.195312 C 196.386719 67.242188 197.191406 66.992188 198.195312 66.035156 C 200.003906 64.324219 199.152344 63.566406 196.488281 64.472656 C 194.929688 64.976562 194.175781 65.027344 193.171875 64.523438 C 191.210938 63.667969 191.964844 62.710938 194.777344 62.558594 C 199.753906 62.308594 200.660156 61.453125 199.351562 58.328125 C 198.144531 55.507812 196.136719 54.300781 193.371094 54.902344 Z M 196.386719 58.027344 C 197.242188 58.882812 196.1875 59.941406 194.476562 59.941406 C 192.769531 59.941406 191.714844 58.882812 192.566406 58.027344 C 192.917969 57.671875 193.773438 57.421875 194.476562 57.421875 C 195.179688 57.421875 196.035156 57.671875 196.386719 58.027344 Z M 196.386719 58.027344 "/>
<path style=" stroke:none;fill-rule:nonzero;fill:rgb(0%,0%,0%);fill-opacity:1;" d="M 240.359375 55.15625 C 238.800781 56.261719 237.542969 60.695312 238.148438 62.863281 C 238.699219 64.675781 240.609375 68 241.414062 68.605469 C 242.015625 69.058594 240.910156 70.015625 239.804688 70.015625 C 238.800781 70.015625 239.300781 71.726562 240.359375 71.929688 C 243.121094 72.484375 245.332031 70.066406 243.421875 68.65625 C 242.570312 68.050781 242.621094 67.898438 244.429688 66.386719 C 246.1875 64.976562 246.289062 64.726562 245.535156 64.171875 C 244.832031 63.667969 244.378906 63.71875 243.171875 64.371094 C 241.867188 65.128906 241.613281 65.128906 241.210938 64.472656 C 240.359375 63.164062 240.105469 60.746094 240.710938 59.234375 C 241.160156 57.925781 241.414062 57.824219 242.972656 58.078125 C 245.230469 58.429688 246.085938 57.472656 244.878906 56.011719 C 243.625 54.550781 241.714844 54.199219 240.359375 55.15625 Z M 240.359375 55.15625 "/>
<path style=" stroke:none;fill-rule:nonzero;fill:rgb(0%,0%,0%);fill-opacity:1;" d="M 250.410156 55.507812 C 248.398438 56.917969 247.542969 59.335938 247.945312 62.359375 C 248.550781 66.742188 252.21875 68.703125 255.535156 66.4375 C 257.492188 65.078125 258.097656 63.265625 257.644531 59.585938 C 257.191406 55.355469 253.523438 53.292969 250.410156 55.507812 Z M 255.332031 58.78125 C 255.9375 60.394531 255.632812 63.214844 254.730469 64.273438 C 253.574219 65.683594 251.964844 65.128906 251.011719 62.960938 C 250.15625 61.046875 250.15625 60.796875 250.910156 59.183594 C 251.613281 57.722656 252.015625 57.421875 253.273438 57.421875 C 254.480469 57.421875 254.929688 57.722656 255.332031 58.78125 Z M 255.332031 58.78125 "/>
<path style=" stroke:none;fill-rule:nonzero;fill:rgb(0%,0%,0%);fill-opacity:1;" d="M 141.460938 55.40625 C 141.261719 55.710938 141.109375 58.378906 141.058594 61.351562 L 141.007812 66.742188 L 142.617188 66.890625 L 144.273438 67.042969 L 144.125 61.097656 C 143.972656 55.457031 143.921875 55.15625 142.867188 55.003906 C 142.316406 54.902344 141.660156 55.105469 141.460938 55.40625 Z M 141.460938 55.40625 "/>
<path style=" stroke:none;fill-rule:nonzero;fill:rgb(0%,0%,0%);fill-opacity:1;" d="M 146.585938 56.363281 C 146.132812 57.171875 145.730469 58.175781 145.730469 58.53125 C 145.730469 59.539062 148.546875 62.003906 150.203125 62.410156 C 152.0625 62.914062 152.015625 64.675781 150.054688 64.875 C 149.25 64.976562 148.394531 64.828125 148.09375 64.523438 C 147.339844 63.769531 145.730469 63.820312 145.730469 64.625 C 145.730469 65.683594 147.390625 66.941406 149.148438 67.292969 C 151.160156 67.699219 152.96875 66.589844 153.671875 64.523438 C 154.375 62.558594 153.167969 60.898438 150.253906 59.738281 C 148.195312 58.933594 147.589844 57.625 149.050781 57.070312 C 149.449219 56.917969 150.457031 57.269531 151.261719 57.824219 C 152.71875 58.933594 153.269531 58.832031 153.269531 57.421875 C 153.269531 56.011719 151.5625 54.902344 149.449219 54.902344 C 147.792969 54.902344 147.289062 55.15625 146.585938 56.363281 Z M 146.585938 56.363281 "/>
<path style=" stroke:none;fill-rule:nonzero;fill:rgb(0%,0%,0%);fill-opacity:1;" d="M 162.917969 55.710938 C 161.664062 56.566406 161.511719 57.421875 162.417969 58.328125 C 162.867188 58.78125 163.269531 58.679688 164.125 57.875 C 166.488281 55.660156 169.148438 58.175781 166.988281 60.59375 C 166.136719 61.5 166.136719 61.550781 167.089844 62.257812 C 168.445312 63.265625 167.542969 64.675781 165.429688 64.875 C 163.921875 65.027344 163.875 64.976562 164.175781 63.265625 C 164.425781 61.703125 164.324219 61.453125 163.472656 61.453125 C 161.460938 61.453125 160.808594 63.265625 161.863281 65.683594 C 162.566406 67.242188 165.027344 67.796875 166.636719 66.742188 C 167.339844 66.285156 167.894531 66.1875 168.09375 66.488281 C 168.246094 66.789062 168.898438 66.992188 169.550781 66.992188 C 170.707031 66.992188 170.707031 66.941406 170.457031 61.804688 C 170.304688 58.175781 170.003906 56.414062 169.453125 55.757812 C 168.496094 54.652344 164.476562 54.601562 162.917969 55.710938 Z M 162.917969 55.710938 "/>
<path style=" stroke:none;fill-rule:nonzero;fill:rgb(0%,0%,0%);fill-opacity:1;" d="M 221.011719 55.507812 C 220.40625 56.011719 220.105469 57.421875 219.855469 61.550781 L 219.503906 66.992188 L 221.0625 66.992188 C 221.964844 66.992188 222.617188 66.742188 222.667969 66.335938 C 222.667969 66.035156 222.667969 64.121094 222.667969 62.207031 C 222.617188 58.277344 222.769531 57.925781 224.78125 57.019531 C 225.582031 56.667969 226.136719 56.113281 226.035156 55.757812 C 225.734375 54.902344 222.066406 54.703125 221.011719 55.507812 Z M 221.011719 55.507812 "/>
<path style=" stroke:none;fill-rule:nonzero;fill:rgb(0%,0%,0%);fill-opacity:1;" d="M 228.195312 56.214844 C 227.140625 57.320312 226.992188 57.976562 226.992188 61.148438 C 226.992188 64.371094 227.140625 64.976562 228.195312 66.035156 C 229.753906 67.597656 233.371094 67.699219 235.082031 66.238281 C 237.042969 64.523438 236.136719 62.761719 234.078125 64.171875 C 232.570312 65.230469 231.011719 65.179688 229.957031 64.019531 C 228.800781 62.710938 229.605469 62.257812 233.171875 62.207031 L 235.9375 62.207031 L 236.085938 59.992188 C 236.238281 58.175781 236.035156 57.574219 234.878906 56.363281 C 233.019531 54.398438 229.957031 54.347656 228.195312 56.214844 Z M 233.421875 57.625 C 234.980469 58.730469 234.027344 60.042969 231.816406 59.839844 C 229.554688 59.636719 228.898438 58.175781 230.757812 57.472656 C 232.316406 56.816406 232.367188 56.816406 233.421875 57.625 Z M 233.421875 57.625 "/>
<path style=" stroke:none;fill-rule:nonzero;fill:rgb(0%,0%,0%);fill-opacity:1;" d="M 260.207031 56.011719 C 259.152344 57.671875 258.851562 58.679688 259.203125 59.234375 C 259.753906 59.992188 262.71875 61.957031 264.078125 62.457031 C 265.484375 63.011719 265.734375 64.324219 264.527344 64.828125 C 264.128906 64.976562 262.871094 64.828125 261.765625 64.472656 C 259.152344 63.566406 258.296875 64.324219 260.058594 65.984375 C 261.917969 67.699219 265.835938 67.699219 267.292969 65.933594 C 269.453125 63.316406 268.046875 60.644531 263.824219 59.585938 C 261.917969 59.085938 261.464844 57.773438 263.121094 57.523438 C 263.675781 57.421875 264.78125 57.722656 265.585938 58.128906 C 267.191406 58.984375 267.847656 58.78125 267.847656 57.472656 C 267.847656 55.859375 266.1875 54.902344 263.472656 54.902344 C 261.363281 54.902344 260.8125 55.105469 260.207031 56.011719 Z M 260.207031 56.011719 "/>
<path style=" stroke:none;fill-rule:nonzero;fill:rgb(0%,0%,0%);fill-opacity:1;" d="M 81.507812 84.117188 C 81.207031 84.671875 80.90625 85.378906 80.90625 85.730469 C 80.855469 86.082031 80.453125 87.292969 79.902344 88.398438 C 79.347656 89.507812 78.945312 90.667969 78.894531 90.96875 C 78.894531 91.269531 78.191406 92.832031 77.339844 94.445312 C 75.730469 97.464844 75.730469 98.726562 77.289062 98.726562 C 78.496094 98.726562 79.398438 97.769531 79.398438 96.410156 C 79.398438 94.695312 80.753906 93.6875 82.917969 93.6875 C 85.078125 93.6875 86.03125 94.644531 86.636719 97.316406 C 86.886719 98.472656 87.238281 98.726562 88.496094 98.726562 C 90.453125 98.726562 90.90625 97.515625 89.5 96.003906 C 88.945312 95.402344 88.445312 94.59375 88.445312 94.292969 C 88.445312 93.992188 87.992188 92.730469 87.488281 91.574219 C 86.9375 90.363281 86.03125 87.996094 85.429688 86.234375 C 84.523438 83.714844 84.074219 83.109375 83.21875 83.109375 C 82.613281 83.109375 81.863281 83.5625 81.507812 84.117188 Z M 84.171875 90.714844 C 83.972656 90.96875 83.320312 91.167969 82.613281 91.167969 C 81.15625 91.167969 80.957031 89.507812 82.261719 87.996094 C 83.117188 87.089844 83.167969 87.089844 83.820312 88.652344 C 84.171875 89.507812 84.324219 90.414062 84.171875 90.714844 Z M 84.171875 90.714844 "/>
<path style=" stroke:none;fill-rule:nonzero;fill:rgb(0%,0%,0%);fill-opacity:1;" d="M 99.097656 83.714844 C 98.746094 84.066406 98.496094 84.722656 98.496094 85.226562 C 98.496094 86.082031 97.085938 86.6875 95.480469 86.535156 C 95.078125 86.535156 93.871094 86.535156 92.867188 86.535156 L 90.957031 86.636719 L 90.957031 92.429688 C 90.957031 97.164062 91.109375 98.324219 91.710938 98.523438 C 93.269531 99.128906 93.972656 97.820312 93.621094 94.695312 C 93.46875 93.082031 93.46875 91.167969 93.671875 90.464844 C 94.023438 88.953125 95.78125 88.046875 97.441406 88.5 C 98.394531 88.753906 98.496094 89.15625 98.496094 92.628906 C 98.496094 98.726562 98.496094 98.726562 102.464844 98.574219 L 105.78125 98.472656 L 105.78125 86.886719 L 104.273438 86.886719 C 101.761719 86.839844 100.40625 86.132812 100.65625 85.074219 C 100.957031 83.867188 99.902344 82.910156 99.097656 83.714844 Z M 103.417969 91.167969 C 103.519531 92.679688 103.417969 94.695312 103.269531 95.652344 L 102.96875 97.316406 L 101.710938 96.15625 C 100.707031 95.199219 100.503906 94.542969 100.503906 91.875 C 100.503906 88.753906 100.855469 88.097656 102.515625 88.296875 C 103.066406 88.398438 103.320312 89.15625 103.417969 91.167969 Z M 103.417969 91.167969 "/>
<path style=" stroke:none;fill-rule:nonzero;fill:rgb(0%,0%,0%);fill-opacity:1;" d="M 103.269531 83.5625 C 102.714844 84.46875 103.519531 85.125 105.078125 85.125 C 106.285156 85.125 106.585938 84.925781 106.433594 84.21875 C 106.234375 83.261719 103.820312 82.757812 103.269531 83.5625 Z M 103.269531 83.5625 "/>
<path style=" stroke:none;fill-rule:nonzero;fill:rgb(0%,0%,0%);fill-opacity:1;" d="M 110.304688 86.585938 C 108.996094 87.140625 107.339844 91.722656 107.792969 93.585938 C 107.941406 94.34375 108.644531 95.804688 109.347656 96.8125 C 110.304688 98.324219 110.90625 98.726562 112.0625 98.726562 C 112.917969 98.726562 113.570312 98.925781 113.570312 99.230469 C 113.570312 99.480469 112.667969 99.734375 111.609375 99.734375 C 109.199219 99.734375 108.042969 100.136719 108.042969 100.992188 C 108.042969 102.503906 112.917969 102.652344 114.726562 101.242188 C 116.484375 99.832031 117.089844 97.414062 117.089844 91.625 L 117.089844 86.789062 L 114.777344 86.433594 C 111.960938 86.082031 111.609375 86.082031 110.304688 86.585938 Z M 114.425781 90.363281 C 115.328125 92.277344 115.078125 93.941406 113.671875 95.703125 L 112.765625 96.8125 L 111.308594 95.601562 C 110.253906 94.644531 109.902344 93.941406 109.953125 92.679688 C 110.054688 88.601562 112.867188 87.140625 114.425781 90.363281 Z M 114.425781 90.363281 "/>
<path style=" stroke:none;fill-rule:nonzero;fill:rgb(0%,0%,0%);fill-opacity:1;" d="M 121.710938 86.535156 C 121.410156 86.789062 120.554688 87.695312 119.851562 88.652344 C 118.042969 91.070312 118.144531 93.941406 120.105469 96.609375 C 121.511719 98.574219 121.761719 98.726562 124.023438 98.726562 C 127.339844 98.726562 129.199219 96.863281 129.550781 93.183594 C 129.753906 91.019531 129.601562 90.363281 128.445312 88.703125 C 127.691406 87.59375 126.585938 86.585938 125.984375 86.433594 C 124.425781 86.03125 122.464844 86.082031 121.710938 86.535156 Z M 125.832031 89.757812 C 127.691406 92.378906 125.984375 96.710938 123.46875 95.90625 C 122.867188 95.703125 122.214844 95.300781 122.011719 94.996094 C 121.410156 94.089844 121.5625 89.910156 122.214844 89.253906 C 123.167969 88.296875 124.976562 88.550781 125.832031 89.757812 Z M 125.832031 89.757812 "/>
<path style=" stroke:none;fill-rule:nonzero;fill:rgb(0%,0%,0%);fill-opacity:1;" d="M 329.859375 82.859375 C 328.300781 85.226562 330.613281 86.03125 332.671875 83.816406 C 333.726562 82.757812 333.777344 82.457031 333.175781 82.101562 C 331.917969 81.296875 330.710938 81.550781 329.859375 82.859375 Z M 329.859375 82.859375 "/>
<path style=" stroke:none;fill-rule:nonzero;fill:rgb(0%,0%,0%);fill-opacity:1;" d="M 232.316406 83.511719 C 231.914062 83.765625 231.714844 85.78125 231.714844 89.808594 C 231.714844 93.082031 231.5625 95.953125 231.414062 96.207031 C 230.859375 97.113281 232.167969 98.726562 233.421875 98.726562 C 234.578125 98.726562 234.628906 98.523438 234.78125 95.300781 L 234.929688 91.925781 L 236.890625 92.078125 C 239.453125 92.277344 241.613281 91.371094 242.46875 89.609375 C 243.574219 87.542969 243.371094 85.730469 241.964844 84.371094 C 240.910156 83.261719 240.308594 83.109375 236.839844 83.109375 C 234.679688 83.109375 232.667969 83.3125 232.316406 83.511719 Z M 239.050781 85.425781 C 240.457031 85.832031 240.960938 87.242188 240.207031 88.652344 C 239.753906 89.558594 239.253906 89.710938 237.292969 89.558594 C 235.132812 89.40625 234.929688 89.304688 234.78125 87.996094 C 234.679688 87.191406 234.730469 86.234375 234.878906 85.832031 C 235.183594 85.125 237.089844 84.925781 239.050781 85.425781 Z M 239.050781 85.425781 "/>
<path style=" stroke:none;fill-rule:nonzero;fill:rgb(0%,0%,0%);fill-opacity:1;" d="M 290.257812 83.5625 C 290.109375 83.765625 290.109375 86.585938 290.308594 89.757812 C 290.558594 95.046875 290.710938 95.703125 291.917969 97.164062 C 293.171875 98.675781 293.523438 98.824219 296.238281 98.824219 C 298.902344 98.875 299.304688 98.726562 300.410156 97.414062 C 302.269531 95.148438 302.519531 93.992188 302.519531 88.347656 C 302.519531 83.109375 302.519531 83.109375 301.3125 83.109375 C 299.503906 83.109375 299.304688 83.816406 299.453125 88.753906 C 299.503906 91.167969 299.453125 93.636719 299.253906 94.191406 C 298.851562 95.453125 296.839844 96.308594 295.234375 95.90625 C 293.523438 95.453125 292.871094 93.335938 293.023438 88.550781 C 293.121094 86.234375 293.023438 84.066406 292.769531 83.714844 C 292.371094 83.011719 290.660156 82.910156 290.257812 83.5625 Z M 290.257812 83.5625 "/>
<path style=" stroke:none;fill-rule:nonzero;fill:rgb(0%,0%,0%);fill-opacity:1;" d="M 315.835938 83.5625 C 315.285156 84.46875 316.089844 85.125 317.644531 85.125 C 318.851562 85.125 319.152344 84.925781 319.003906 84.21875 C 318.800781 83.261719 316.390625 82.757812 315.835938 83.5625 Z M 315.835938 83.5625 "/>
<path style=" stroke:none;fill-rule:nonzero;fill:rgb(0%,0%,0%);fill-opacity:1;" d="M 321.96875 83.414062 C 321.765625 83.613281 321.617188 84.269531 321.617188 84.925781 C 321.617188 86.183594 320.5625 86.789062 318.097656 86.839844 L 316.339844 86.886719 L 316.339844 98.472656 L 317.597656 98.472656 C 318.851562 98.472656 318.851562 98.421875 319.105469 93.183594 C 319.253906 90.261719 319.503906 87.945312 319.757812 87.996094 C 321.363281 88.449219 321.566406 89.054688 321.714844 93.6875 L 321.867188 98.472656 L 323.527344 98.625 C 324.832031 98.777344 325.132812 98.625 325.132812 97.820312 C 325.132812 97.265625 324.78125 96.558594 324.378906 96.207031 C 323.828125 95.753906 323.625 94.59375 323.625 92.175781 C 323.625 89.609375 323.828125 88.703125 324.378906 88.449219 C 325.335938 88.097656 325.335938 86.839844 324.429688 86.484375 C 324.027344 86.335938 323.625 85.578125 323.527344 84.824219 C 323.375 83.464844 322.621094 82.757812 321.96875 83.414062 Z M 321.96875 83.414062 "/>
<path style=" stroke:none;fill-rule:nonzero;fill:rgb(0%,0%,0%);fill-opacity:1;" d="M 343.980469 83.613281 C 343.476562 84.421875 344.179688 85.125 345.535156 85.125 C 346.390625 85.125 346.742188 84.875 346.742188 84.117188 C 346.742188 83.363281 346.390625 83.109375 345.535156 83.109375 C 344.832031 83.109375 344.128906 83.3125 343.980469 83.613281 Z M 343.980469 83.613281 "/>
<path style=" stroke:none;fill-rule:nonzero;fill:rgb(0%,0%,0%);fill-opacity:1;" d="M 247.242188 86.585938 L 245.484375 86.886719 L 245.03125 92.027344 C 244.527344 98.121094 244.730469 98.875 246.589844 98.625 L 247.996094 98.472656 L 248.148438 93.585938 L 248.296875 88.703125 L 249.65625 88.550781 C 250.609375 88.449219 251.011719 88.097656 251.011719 87.390625 C 251.011719 86.285156 250.054688 86.082031 247.242188 86.585938 Z M 247.242188 86.585938 "/>
<path style=" stroke:none;fill-rule:nonzero;fill:rgb(0%,0%,0%);fill-opacity:1;" d="M 253.523438 87.339844 C 252.167969 88.550781 252.066406 88.851562 252.015625 92.378906 C 252.015625 95.652344 252.167969 96.308594 253.222656 97.414062 C 254.878906 99.230469 258.148438 99.230469 259.753906 97.515625 C 260.710938 96.507812 260.8125 96.15625 260.308594 95.199219 L 259.703125 94.089844 L 259 95.148438 C 257.59375 97.113281 253.675781 96.003906 254.480469 93.890625 C 254.730469 93.234375 255.28125 93.082031 257.09375 93.335938 C 260.257812 93.6875 261.714844 92.53125 260.910156 90.261719 C 259.605469 86.433594 256.136719 85.074219 253.523438 87.339844 Z M 258.296875 89.40625 C 259.203125 90.515625 258.449219 91.167969 256.238281 91.167969 C 254.679688 91.167969 254.277344 90.96875 254.277344 90.261719 C 254.277344 89.757812 254.429688 89.15625 254.628906 89.003906 C 255.234375 88.398438 257.644531 88.652344 258.296875 89.40625 Z M 258.296875 89.40625 "/>
<path style=" stroke:none;fill-rule:nonzero;fill:rgb(0%,0%,0%);fill-opacity:1;" d="M 265.28125 86.484375 C 264.429688 86.6875 263.726562 87.894531 262.871094 90.566406 C 262.269531 92.53125 263.574219 97.113281 265.28125 98.925781 C 266.691406 100.4375 266.640625 100.941406 264.730469 101.648438 C 263.472656 102.101562 263.222656 102.351562 263.726562 102.855469 C 264.679688 103.8125 267.746094 103.609375 268.601562 102.453125 C 269.554688 101.195312 269.554688 100.238281 268.601562 100.238281 C 267.445312 100.238281 267.695312 99.582031 269.355469 97.96875 C 271.765625 95.652344 271.113281 93.992188 268.398438 95.453125 C 266.941406 96.15625 266.890625 96.15625 265.835938 94.847656 C 264.679688 93.386719 264.78125 91.875 266.136719 89.757812 C 266.742188 88.851562 267.042969 88.753906 267.847656 89.15625 C 269.101562 89.808594 270.859375 89.808594 270.859375 89.105469 C 270.859375 88.753906 270.308594 87.996094 269.554688 87.339844 C 268.347656 86.183594 267.140625 85.980469 265.28125 86.484375 Z M 265.28125 86.484375 "/>
<path style=" stroke:none;fill-rule:nonzero;fill:rgb(0%,0%,0%);fill-opacity:1;" d="M 274.78125 87.242188 C 271.566406 90.113281 271.464844 94.242188 274.53125 97.566406 C 276.992188 100.335938 282.621094 98.070312 283.273438 94.089844 C 283.777344 90.867188 283.121094 88.902344 281.011719 87.441406 C 278.648438 85.832031 276.4375 85.78125 274.78125 87.242188 Z M 279.304688 89.253906 C 279.65625 89.609375 279.90625 91.070312 279.90625 92.53125 C 279.90625 94.59375 279.707031 95.25 279.003906 95.652344 C 275.9375 97.265625 273.925781 92.730469 276.136719 89.15625 C 276.589844 88.449219 278.550781 88.5 279.304688 89.253906 Z M 279.304688 89.253906 "/>
<path style=" stroke:none;fill-rule:nonzero;fill:rgb(0%,0%,0%);fill-opacity:1;" d="M 308.851562 86.484375 C 308.652344 86.6875 307.746094 86.789062 306.792969 86.738281 L 305.03125 86.585938 L 305.03125 92.679688 C 305.03125 98.726562 305.03125 98.777344 306.1875 98.625 C 307.195312 98.472656 307.292969 98.171875 307.445312 94.695312 C 307.597656 89.207031 307.796875 88.652344 309.554688 88.652344 C 311.3125 88.652344 311.714844 89.558594 311.566406 93.839844 C 311.414062 98.675781 311.414062 98.824219 312.722656 98.625 C 313.777344 98.472656 313.828125 98.324219 313.675781 93.4375 C 313.574219 88.753906 313.476562 88.296875 312.269531 87.242188 C 311.011719 86.132812 309.554688 85.832031 308.851562 86.484375 Z M 308.851562 86.484375 "/>
<path style=" stroke:none;fill-rule:nonzero;fill:rgb(0%,0%,0%);fill-opacity:1;" d="M 339.707031 86.585938 L 337.949219 86.886719 L 337.949219 92.679688 C 337.949219 98.273438 338 98.472656 339.054688 98.625 C 340.160156 98.777344 340.160156 98.625 340.308594 93.890625 L 340.460938 88.953125 L 342.121094 88.550781 C 343.828125 88.097656 344.28125 86.9375 342.921875 86.433594 C 342.472656 86.285156 341.96875 86.183594 341.816406 86.183594 C 341.617188 86.234375 340.660156 86.382812 339.707031 86.585938 Z M 339.707031 86.585938 "/>
<path style=" stroke:none;fill-rule:nonzero;fill:rgb(0%,0%,0%);fill-opacity:1;" d="M 351.265625 86.433594 C 350.109375 86.789062 347.746094 90.816406 347.746094 92.480469 C 347.746094 93.285156 348.449219 94.996094 349.253906 96.308594 C 350.710938 98.625 350.863281 98.726562 353.175781 98.726562 C 356.492188 98.726562 358.351562 96.863281 358.703125 93.183594 C 358.902344 91.019531 358.753906 90.363281 357.597656 88.703125 C 355.988281 86.382812 354.078125 85.679688 351.265625 86.433594 Z M 355.183594 89.910156 C 356.089844 91.875 355.886719 94.089844 354.78125 95.199219 C 353.578125 96.410156 353.324219 96.410156 351.867188 95.402344 C 351.015625 94.796875 350.761719 94.140625 350.761719 92.226562 C 350.761719 89.558594 351.367188 88.652344 353.273438 88.652344 C 354.230469 88.652344 354.78125 89.054688 355.183594 89.910156 Z M 355.183594 89.910156 "/>
<path style=" stroke:none;fill-rule:nonzero;fill:rgb(0%,0%,0%);fill-opacity:1;" d="M 327.496094 87.542969 C 326.441406 88.652344 326.390625 90.164062 327.34375 90.164062 C 327.695312 90.164062 328.300781 89.808594 328.652344 89.355469 C 329.605469 88.296875 332.371094 88.601562 332.570312 89.859375 C 332.671875 90.363281 332.421875 91.019531 331.96875 91.269531 C 331.113281 91.773438 330.863281 93.183594 331.617188 93.183594 C 332.269531 93.183594 332.671875 94.542969 332.371094 95.453125 C 331.96875 96.457031 329.203125 96.457031 328.851562 95.453125 C 328.652344 95.046875 328.800781 94.34375 329.152344 93.941406 C 329.65625 93.335938 329.605469 93.132812 328.953125 92.882812 C 326.84375 92.078125 325.535156 94.542969 326.742188 97.0625 C 327.394531 98.421875 327.496094 98.472656 331.414062 98.472656 L 335.4375 98.472656 L 335.234375 93.4375 C 335.035156 87.292969 334.632812 86.636719 330.914062 86.636719 C 329.003906 86.636719 328.097656 86.886719 327.496094 87.542969 Z M 327.496094 87.542969 "/>
<path style=" stroke:none;fill-rule:nonzero;fill:rgb(0%,0%,0%);fill-opacity:1;" d="M 344.582031 86.9375 C 344.378906 87.140625 344.230469 89.910156 344.230469 93.035156 C 344.230469 98.726562 344.230469 98.777344 345.386719 98.625 C 346.441406 98.472656 346.492188 98.324219 346.492188 92.679688 C 346.441406 87.894531 346.339844 86.886719 345.6875 86.738281 C 345.285156 86.6875 344.78125 86.738281 344.582031 86.9375 Z M 344.582031 86.9375 "/>
<path style=" stroke:none;fill-rule:nonzero;fill:rgb(0%,0%,0%);fill-opacity:1;" d="M 84.375 116.554688 C 84.273438 116.707031 84.222656 119.78125 84.273438 123.40625 C 84.375 127.035156 84.425781 130.359375 84.425781 130.8125 C 84.425781 131.414062 84.777344 131.515625 86.183594 131.316406 C 87.136719 131.164062 88.042969 131.265625 88.191406 131.515625 C 88.394531 131.769531 89.25 131.96875 90.203125 131.96875 C 91.660156 131.96875 92.0625 131.667969 93.167969 129.753906 C 94.925781 126.730469 94.925781 123.808594 93.167969 121.242188 C 92.011719 119.476562 91.710938 119.328125 89.800781 119.476562 C 87.839844 119.628906 87.742188 119.578125 87.742188 118.117188 C 87.691406 116.808594 87.488281 116.605469 86.183594 116.457031 C 85.328125 116.355469 84.523438 116.40625 84.375 116.554688 Z M 91.359375 122.800781 C 91.660156 123.253906 91.960938 124.464844 91.960938 125.472656 C 91.960938 128.746094 89.347656 130.105469 87.742188 127.6875 C 86.636719 126.027344 86.734375 124.664062 87.992188 122.902344 C 89.148438 121.390625 90.152344 121.390625 91.359375 122.800781 Z M 91.359375 122.800781 "/>
<path style=" stroke:none;fill-rule:nonzero;fill:rgb(0%,0%,0%);fill-opacity:1;" d="M 107.238281 117.058594 C 107.089844 117.464844 107.1875 119.425781 107.488281 121.390625 C 107.792969 123.355469 107.941406 126.429688 107.742188 128.140625 C 107.488281 130.761719 107.539062 131.363281 108.195312 131.617188 C 109.550781 132.121094 109.902344 130.863281 110.003906 125.167969 C 110.054688 122.097656 110.152344 118.921875 110.203125 118.117188 C 110.304688 116.808594 110.101562 116.605469 108.898438 116.457031 C 108.042969 116.355469 107.441406 116.554688 107.238281 117.058594 Z M 107.238281 117.058594 "/>
<path style=" stroke:none;fill-rule:nonzero;fill:rgb(0%,0%,0%);fill-opacity:1;" d="M 97.289062 121.089844 C 95.480469 123.507812 95.480469 127.183594 97.289062 129.953125 C 98.496094 131.769531 98.847656 131.96875 100.804688 131.96875 C 102.867188 131.96875 103.117188 131.820312 104.777344 129.550781 C 107.136719 126.378906 107.089844 124.515625 104.726562 121.59375 C 103.066406 119.628906 102.664062 119.378906 100.757812 119.378906 C 98.898438 119.378906 98.445312 119.628906 97.289062 121.089844 Z M 102.816406 122.75 C 103.722656 124.011719 103.671875 127.183594 102.714844 128.140625 C 100.90625 130.003906 97.992188 128.34375 97.992188 125.421875 C 97.992188 122.449219 101.257812 120.6875 102.816406 122.75 Z M 102.816406 122.75 "/>
<path style=" stroke:none;fill-rule:nonzero;fill:rgb(0%,0%,0%);fill-opacity:1;" d="M 113.371094 120.433594 C 111.007812 122.296875 112.164062 124.0625 114.625 122.296875 C 115.632812 121.542969 116.132812 121.441406 117.238281 121.84375 C 118.949219 122.5 118.949219 123.558594 117.339844 124.617188 C 115.832031 125.621094 115.730469 126.429688 117.089844 126.429688 C 117.84375 126.429688 118.09375 126.78125 118.09375 127.6875 C 118.09375 128.796875 117.890625 128.949219 116.335938 128.949219 C 114.976562 128.949219 114.574219 128.746094 114.574219 128.039062 C 114.574219 127.535156 114.828125 126.882812 115.179688 126.53125 C 116.03125 125.671875 115.480469 125.421875 113.773438 125.824219 C 112.617188 126.175781 112.265625 126.53125 112.164062 127.890625 C 111.914062 130.257812 113.21875 131.96875 115.230469 131.96875 C 116.132812 131.96875 117.136719 131.71875 117.441406 131.414062 C 117.792969 131.0625 118.292969 131.011719 118.949219 131.363281 C 120.90625 132.421875 121.410156 131.363281 121.359375 126.480469 C 121.359375 122.550781 121.210938 121.792969 120.203125 120.6875 C 118.746094 118.972656 115.378906 118.875 113.371094 120.433594 Z M 113.371094 120.433594 "/>
<path style=" stroke:none;fill-rule:nonzero;fill:rgb(0%,0%,0%);fill-opacity:1;" d="M 306.539062 116.152344 C 303.828125 116.960938 302.671875 126.277344 304.832031 129.953125 C 305.785156 131.617188 305.988281 131.71875 308.550781 131.71875 C 311.0625 131.71875 311.363281 131.566406 312.371094 130.105469 C 314.429688 127.035156 314.429688 120.234375 312.371094 117.664062 C 311.3125 116.304688 308.449219 115.550781 306.539062 116.152344 Z M 309.453125 118.773438 C 309.808594 119.023438 310.308594 119.980469 310.5625 120.9375 C 311.714844 124.96875 310.710938 128.949219 308.550781 128.949219 C 307.195312 128.949219 306.589844 127.535156 306.488281 124.363281 C 306.339844 119.78125 307.496094 117.5625 309.453125 118.773438 Z M 309.453125 118.773438 "/>
<path style=" stroke:none;fill-rule:nonzero;fill:rgb(0%,0%,0%);fill-opacity:1;" d="M 280.863281 117.210938 C 280.460938 117.714844 279.253906 119.476562 278.148438 121.140625 C 277.042969 122.800781 275.835938 124.464844 275.484375 124.867188 C 275.132812 125.21875 274.882812 126.125 274.980469 126.882812 C 275.132812 128.089844 275.332031 128.191406 277.644531 128.34375 C 280.359375 128.542969 281.414062 129.097656 281.414062 130.457031 C 281.414062 130.960938 281.765625 131.464844 282.167969 131.667969 C 283.074219 132.019531 284.429688 130.710938 284.429688 129.449219 C 284.429688 128.949219 284.679688 128.34375 284.933594 128.191406 C 285.636719 127.738281 285.535156 126.027344 284.832031 125.824219 C 284.378906 125.671875 284.179688 124.210938 284.179688 121.089844 C 284.179688 116.65625 284.179688 116.605469 282.871094 116.457031 C 282.117188 116.355469 281.3125 116.65625 280.863281 117.210938 Z M 281.613281 123.757812 C 282.015625 125.21875 281.363281 125.925781 279.554688 125.925781 C 277.894531 125.925781 277.644531 124.96875 278.953125 123.609375 C 280.410156 122.046875 281.214844 122.097656 281.613281 123.757812 Z M 281.613281 123.757812 "/>
<path style=" stroke:none;fill-rule:nonzero;fill:rgb(0%,0%,0%);fill-opacity:1;" d="M 295.585938 118.421875 C 292.972656 120.535156 292.570312 122.046875 294.679688 121.84375 C 296.992188 121.695312 296.992188 121.695312 296.839844 126.480469 C 296.742188 130.40625 296.890625 131.164062 297.644531 131.667969 C 298.25 132.070312 298.75 132.070312 299.40625 131.667969 C 300.160156 131.164062 300.257812 130.308594 300.160156 124.210938 C 300.109375 120.433594 299.90625 117.109375 299.757812 116.859375 C 299.203125 115.953125 298.148438 116.355469 295.585938 118.421875 Z M 295.585938 118.421875 "/>
<path style=" stroke:none;fill-rule:nonzero;fill:rgb(0%,0%,0%);fill-opacity:1;" d="M 288.046875 129.601562 C 287.746094 129.90625 287.59375 131.214844 287.644531 132.472656 C 287.746094 134.488281 287.898438 134.738281 288.953125 134.738281 C 289.90625 134.738281 290.257812 134.386719 290.609375 133.128906 C 291.515625 130.054688 289.707031 127.535156 288.046875 129.601562 Z M 288.046875 129.601562 "/>
<path style=" stroke:none;fill-rule:nonzero;fill:rgb(0%,0%,0%);fill-opacity:1;" d="M 102.617188 149.046875 C 101.609375 149.648438 102.113281 151.3125 103.320312 151.511719 C 104.878906 151.714844 105.78125 150.40625 104.777344 149.398438 C 103.820312 148.492188 103.519531 148.441406 102.617188 149.046875 Z M 102.617188 149.046875 "/>
<path style=" stroke:none;fill-rule:nonzero;fill:rgb(0%,0%,0%);fill-opacity:1;" d="M 118.695312 149.195312 C 118.292969 149.597656 118.09375 152.066406 118.09375 156.953125 C 118.09375 162.898438 118.246094 164.207031 118.898438 164.761719 C 120.304688 165.917969 121.160156 164.105469 120.757812 160.628906 C 120.304688 155.945312 121.109375 154.332031 123.570312 154.988281 C 124.527344 155.242188 124.625 155.59375 124.625 159.722656 C 124.625 163.652344 124.726562 164.257812 125.632812 164.710938 C 126.183594 165.011719 126.886719 165.113281 127.140625 164.960938 C 127.441406 164.8125 127.640625 162.746094 127.640625 160.429688 C 127.640625 157.054688 127.441406 155.84375 126.585938 154.433594 C 125.632812 152.773438 125.328125 152.621094 123.320312 152.621094 C 121.308594 152.621094 121.109375 152.519531 121.109375 151.414062 C 121.109375 150.707031 120.757812 149.800781 120.304688 149.398438 C 119.351562 148.441406 119.449219 148.441406 118.695312 149.195312 Z M 118.695312 149.195312 "/>
<path style=" stroke:none;fill-rule:nonzero;fill:rgb(0%,0%,0%);fill-opacity:1;" d="M 68.542969 154.183594 C 67.238281 155.542969 67.085938 156.046875 67.085938 158.765625 C 67.136719 161.585938 67.238281 161.890625 68.996094 163.5 C 71.507812 165.816406 73.269531 165.769531 75.328125 163.402344 C 76.183594 162.445312 76.785156 161.4375 76.636719 161.132812 C 76.183594 160.480469 74.777344 160.578125 73.671875 161.4375 C 72.414062 162.394531 72.113281 162.394531 71.15625 161.386719 C 70.101562 160.328125 70.101562 156.5 71.15625 155.59375 C 71.761719 155.089844 72.164062 155.089844 72.917969 155.542969 C 74.171875 156.347656 76.382812 156.296875 76.382812 155.492188 C 76.382812 154.132812 74.121094 152.621094 72.0625 152.621094 C 70.453125 152.621094 69.75 152.921875 68.542969 154.183594 Z M 68.542969 154.183594 "/>
<path style=" stroke:none;fill-rule:nonzero;fill:rgb(0%,0%,0%);fill-opacity:1;" d="M 78.496094 153.78125 C 77.890625 154.433594 77.390625 155.191406 77.390625 155.492188 C 77.390625 156.601562 78.894531 156.601562 79.902344 155.542969 C 80.753906 154.636719 81.15625 154.535156 82.261719 154.9375 C 83.015625 155.191406 83.722656 155.792969 83.820312 156.296875 C 84.023438 157.203125 83.167969 157.660156 79.449219 158.664062 L 77.289062 159.269531 L 77.539062 161.585938 C 77.789062 164.054688 78.796875 165.214844 80.707031 165.214844 C 81.308594 165.214844 82.0625 164.859375 82.414062 164.457031 C 82.867188 163.902344 83.269531 163.855469 83.921875 164.207031 C 85.933594 165.265625 86.433594 164.359375 86.433594 159.824219 C 86.433594 155.792969 85.933594 153.832031 84.726562 153.023438 C 84.425781 152.824219 83.117188 152.621094 81.863281 152.621094 C 80.101562 152.621094 79.296875 152.875 78.496094 153.78125 Z M 83.367188 159.621094 C 84.472656 160.328125 83.167969 162.191406 81.460938 162.191406 C 80.707031 162.191406 79.953125 162.039062 79.75 161.890625 C 79.25 161.386719 80.003906 160.125 81.109375 159.671875 C 82.464844 159.117188 82.566406 159.117188 83.367188 159.621094 Z M 83.367188 159.621094 "/>
<path style=" stroke:none;fill-rule:nonzero;fill:rgb(0%,0%,0%);fill-opacity:1;" d="M 89.199219 153.125 C 88.996094 153.425781 88.847656 155.996094 88.796875 158.765625 C 88.796875 163.199219 88.898438 163.902344 89.75 164.558594 C 91.359375 165.71875 91.910156 164.308594 91.609375 159.773438 C 91.308594 155.644531 91.609375 154.9375 93.722656 154.535156 C 94.273438 154.433594 94.726562 154.03125 94.726562 153.628906 C 94.726562 152.671875 89.75 152.269531 89.199219 153.125 Z M 89.199219 153.125 "/>
<path style=" stroke:none;fill-rule:nonzero;fill:rgb(0%,0%,0%);fill-opacity:1;" d="M 95.679688 153.277344 C 95.582031 153.628906 95.53125 156.398438 95.582031 159.472656 C 95.730469 164.558594 95.78125 164.960938 96.734375 164.960938 C 97.640625 164.960938 97.742188 164.558594 97.890625 160.125 L 98.042969 155.289062 L 99.75 154.789062 C 100.957031 154.382812 101.609375 154.382812 101.8125 154.738281 C 102.011719 155.039062 102.113281 157.253906 102.0625 159.671875 C 101.960938 164.308594 102.265625 165.011719 104.023438 164.457031 C 104.925781 164.15625 104.976562 163.703125 104.878906 158.765625 L 104.777344 153.375 L 102.515625 153.023438 C 98.695312 152.46875 95.980469 152.570312 95.679688 153.277344 Z M 95.679688 153.277344 "/>
<path style=" stroke:none;fill-rule:nonzero;fill:rgb(0%,0%,0%);fill-opacity:1;" d="M 107.589844 153.226562 C 106.785156 153.527344 106.585938 154.234375 106.433594 158.515625 C 106.234375 162.847656 106.335938 163.550781 107.136719 164.308594 C 108.949219 165.96875 109.550781 164.960938 109.550781 160.226562 C 109.550781 155.039062 109.902344 154.234375 111.914062 154.9375 C 113.269531 155.390625 113.320312 155.492188 113.570312 160.175781 C 113.773438 164.054688 113.972656 164.960938 114.625 165.113281 C 115.078125 165.214844 115.582031 164.859375 115.679688 164.308594 C 116.132812 162.59375 115.53125 155.945312 114.726562 154.234375 C 114.023438 152.621094 113.921875 152.570312 111.257812 152.722656 C 109.75 152.824219 108.09375 153.023438 107.589844 153.226562 Z M 107.589844 153.226562 "/>
<path style=" stroke:none;fill-rule:nonzero;fill:rgb(0%,0%,0%);fill-opacity:1;" d="M 130.457031 154.285156 C 128.496094 156.851562 128.597656 160.628906 130.707031 163.25 C 132.917969 166.070312 134.828125 166.019531 137.640625 162.945312 C 140.253906 160.125 140.457031 157.660156 138.34375 155.039062 C 136.4375 152.773438 136.234375 152.621094 133.824219 152.621094 C 132.011719 152.621094 131.511719 152.875 130.457031 154.285156 Z M 135.582031 155.746094 C 136.335938 156.5 136.386719 159.875 135.683594 161.234375 C 134.425781 163.5 131.160156 161.4375 131.160156 158.414062 C 131.160156 155.695312 133.871094 154.03125 135.582031 155.746094 Z M 135.582031 155.746094 "/>
<path style=" stroke:none;fill-rule:nonzero;fill:rgb(0%,0%,0%);fill-opacity:1;" d="M 294.429688 150.050781 C 292.769531 151.765625 292.417969 154.535156 293.777344 155.84375 C 294.480469 156.601562 294.429688 156.800781 293.273438 158.210938 C 292.570312 159.070312 291.96875 159.925781 291.96875 160.175781 C 291.96875 160.429688 292.722656 161.585938 293.625 162.796875 C 294.980469 164.609375 295.585938 165.011719 297.195312 165.113281 C 298.800781 165.265625 299.40625 165.011719 300.8125 163.652344 C 302.671875 161.890625 303.171875 159.070312 301.816406 158.3125 C 300.710938 157.707031 300.660156 155.84375 301.714844 154.738281 C 302.621094 153.679688 302.621094 153.628906 301.515625 151.867188 C 299.304688 148.289062 296.839844 147.683594 294.429688 150.050781 Z M 298.800781 152.015625 C 299.101562 152.21875 299.554688 153.074219 299.707031 153.929688 C 300.007812 155.390625 299.957031 155.542969 298.652344 155.746094 C 296.238281 156.046875 295.484375 155.695312 295.484375 154.183594 C 295.484375 152.066406 297.195312 150.960938 298.800781 152.015625 Z M 299.855469 158.96875 C 300.359375 160.277344 299.152344 162.191406 297.796875 162.191406 C 295.234375 162.191406 294.429688 161.183594 295.285156 158.96875 C 295.6875 157.859375 299.40625 157.859375 299.855469 158.96875 Z M 299.855469 158.96875 "/>
<path style=" stroke:none;fill-rule:nonzero;fill:rgb(0%,0%,0%);fill-opacity:1;" d="M 306.390625 149.144531 C 304.984375 149.953125 304.027344 152.972656 304.027344 156.652344 C 304.027344 160.125 305.082031 164.105469 306.1875 164.8125 C 306.890625 165.265625 309.65625 165.316406 310.761719 164.910156 C 313.023438 164.054688 314.480469 158.414062 313.625 153.878906 C 312.871094 149.800781 309.304688 147.484375 306.390625 149.144531 Z M 310.359375 153.375 C 311.867188 157.003906 310.8125 162.191406 308.5 162.191406 C 307.195312 162.191406 306.039062 159.671875 306.039062 156.902344 C 306.039062 152.117188 308.851562 149.800781 310.359375 153.375 Z M 310.359375 153.375 "/>
<path style=" stroke:none;fill-rule:nonzero;fill:rgb(0%,0%,0%);fill-opacity:1;" d="M 281.566406 149.5 C 280.960938 149.902344 278.398438 153.476562 278.398438 153.929688 C 278.398438 154.082031 277.59375 155.242188 276.640625 156.5 C 273.875 160.125 274.429688 161.890625 278.199219 161.335938 C 280.308594 161.082031 280.359375 161.082031 281.113281 162.898438 C 282.269531 165.667969 284.429688 165.214844 284.429688 162.191406 C 284.429688 161.738281 284.78125 161.03125 285.234375 160.628906 C 285.9375 160.027344 285.9375 159.925781 285.132812 159.320312 C 284.328125 158.765625 284.179688 157.910156 284.179688 153.980469 C 284.179688 149.75 284.078125 149.347656 283.171875 149.195312 C 282.621094 149.144531 281.917969 149.246094 281.566406 149.5 Z M 281.613281 156.953125 C 282.015625 158.464844 281.363281 159.167969 279.554688 159.167969 C 277.796875 159.167969 277.644531 158.210938 279.152344 156.652344 C 280.761719 154.988281 281.164062 155.039062 281.613281 156.953125 Z M 281.613281 156.953125 "/>
<path style=" stroke:none;fill-rule:nonzero;fill:rgb(0%,0%,0%);fill-opacity:1;" d="M 287.796875 162.542969 C 287.34375 163.5 287.796875 167.984375 288.347656 167.933594 C 289.804688 167.832031 290.007812 167.683594 290.511719 166.371094 C 291.261719 164.308594 290.609375 162.191406 289.203125 162.191406 C 288.550781 162.191406 287.898438 162.34375 287.796875 162.542969 Z M 287.796875 162.542969 "/>
<path style=" stroke:none;fill-rule:nonzero;fill:rgb(0%,0%,0%);fill-opacity:1;" d="M 84.171875 182.339844 C 83.570312 183.347656 84.472656 184.859375 85.628906 184.859375 C 87.039062 184.859375 88.144531 183.648438 87.742188 182.589844 C 87.4375 181.734375 84.675781 181.535156 84.171875 182.339844 Z M 84.171875 182.339844 "/>
<path style=" stroke:none;fill-rule:nonzero;fill:rgb(0%,0%,0%);fill-opacity:1;" d="M 91.058594 186.621094 C 89.148438 188.234375 87.941406 190.800781 88.292969 192.515625 C 88.644531 194.429688 91.660156 197.804688 93.320312 198.105469 C 95.179688 198.457031 96.183594 197.855469 97.992188 195.234375 C 99.953125 192.3125 99.902344 190.699219 97.742188 187.730469 C 96.234375 185.714844 95.730469 185.363281 94.273438 185.363281 C 93.167969 185.363281 92.011719 185.816406 91.058594 186.621094 Z M 95.933594 189.339844 C 96.535156 190.148438 96.988281 191.203125 96.988281 191.65625 C 96.988281 192.917969 95.027344 195.4375 94.121094 195.4375 C 92.566406 195.4375 91.460938 193.875 91.460938 191.757812 C 91.460938 188.082031 94.074219 186.671875 95.933594 189.339844 Z M 95.933594 189.339844 "/>
<path style=" stroke:none;fill-rule:nonzero;fill:rgb(0%,0%,0%);fill-opacity:1;" d="M 101.8125 186.671875 C 100.304688 188.332031 99.75 190.601562 100.253906 193.269531 C 100.707031 195.789062 101.761719 196.898438 104.125 197.25 C 106.335938 197.652344 106.183594 198.457031 103.871094 198.457031 C 101.8125 198.457031 100.855469 199.113281 101.109375 200.269531 C 101.207031 200.925781 101.761719 201.277344 102.96875 201.378906 C 105.328125 201.632812 106.585938 201.226562 108.195312 199.71875 C 109.550781 198.457031 109.550781 198.355469 109.550781 192.160156 L 109.550781 185.867188 L 108.195312 185.867188 C 107.390625 185.867188 105.984375 185.714844 104.976562 185.5625 C 103.417969 185.3125 102.96875 185.460938 101.8125 186.671875 Z M 106.535156 188.835938 C 107.238281 190.199219 107.1875 194.074219 106.433594 194.832031 C 105.628906 195.636719 103.769531 195.585938 103.117188 194.78125 C 102.566406 194.125 102.3125 192.464844 102.414062 190.550781 C 102.617188 188.183594 105.53125 186.972656 106.535156 188.835938 Z M 106.535156 188.835938 "/>
<path style=" stroke:none;fill-rule:nonzero;fill:rgb(0%,0%,0%);fill-opacity:1;" d="M 113.621094 186.671875 C 112.164062 187.878906 112.0625 188.183594 112.0625 191.609375 C 112.0625 194.933594 112.164062 195.335938 113.46875 196.542969 C 114.222656 197.25 115.230469 197.953125 115.730469 198.105469 C 117.039062 198.609375 119.75 197.300781 121.058594 195.636719 C 122.0625 194.378906 122.164062 193.722656 122.011719 191.203125 C 121.8125 188.636719 121.5625 188.03125 120.203125 186.824219 C 118.09375 184.910156 115.730469 184.859375 113.621094 186.671875 Z M 117.390625 188.285156 C 119.097656 189.390625 119.449219 193.019531 118.042969 194.78125 C 117.1875 195.738281 115.179688 195.585938 114.574219 194.480469 C 114.324219 193.925781 114.074219 192.566406 114.074219 191.457031 C 114.074219 188.738281 115.730469 187.125 117.390625 188.285156 Z M 117.390625 188.285156 "/>
<path style=" stroke:none;fill-rule:nonzero;fill:rgb(0%,0%,0%);fill-opacity:1;" d="M 84.574219 186.46875 C 84.375 186.824219 84.273438 189.542969 84.375 192.515625 C 84.523438 197.550781 84.472656 197.902344 83.417969 198.457031 C 81.761719 199.363281 82.261719 201.179688 84.273438 201.378906 C 86.835938 201.632812 87.289062 200.320312 87.339844 192.917969 C 87.390625 186.671875 87.1875 185.914062 85.578125 185.867188 C 85.277344 185.867188 84.828125 186.167969 84.574219 186.46875 Z M 84.574219 186.46875 "/>
<path style=" stroke:none;fill-rule:nonzero;fill:rgb(0%,0%,0%);fill-opacity:1;" d="M 277.445312 182.542969 C 277.09375 182.945312 276.640625 184.503906 276.390625 185.964844 C 276.1875 187.425781 275.835938 189.140625 275.636719 189.742188 C 275.332031 190.75 275.433594 190.902344 276.589844 190.902344 C 277.34375 190.902344 278.449219 190.550781 279.101562 190.148438 C 279.855469 189.644531 280.761719 189.441406 281.613281 189.695312 C 282.769531 189.996094 282.921875 190.246094 282.921875 192.414062 C 282.921875 194.578125 282.769531 194.832031 281.613281 195.132812 C 280.863281 195.335938 279.707031 195.183594 278.800781 194.679688 C 276.539062 193.570312 275.285156 193.671875 275.484375 194.984375 C 275.734375 196.644531 278.148438 198.207031 280.410156 198.207031 C 283.273438 198.207031 285.9375 195.386719 286.085938 192.414062 C 286.136719 190.601562 285.9375 190.046875 284.53125 188.835938 C 283.425781 187.828125 282.367188 187.375 281.164062 187.375 C 277.59375 187.375 278.601562 185.007812 282.320312 184.757812 C 284.480469 184.605469 284.679688 184.503906 284.679688 183.347656 C 284.679688 182.136719 284.53125 182.085938 281.363281 181.9375 C 278.902344 181.835938 277.894531 181.988281 277.445312 182.542969 Z M 277.445312 182.542969 "/>
<path style=" stroke:none;fill-rule:nonzero;fill:rgb(0%,0%,0%);fill-opacity:1;" d="M 294.832031 183.042969 C 293.726562 183.953125 293.324219 184.859375 292.871094 187.476562 C 292.117188 192.160156 292.671875 195.082031 294.53125 196.695312 C 296.640625 198.40625 298.800781 198.355469 300.914062 196.441406 C 302.320312 195.132812 302.519531 194.628906 302.519531 192.515625 C 302.519531 190.199219 302.371094 189.945312 300.609375 188.6875 C 299.503906 187.929688 297.996094 187.375 297.042969 187.375 C 295.636719 187.375 295.433594 187.226562 295.585938 186.21875 C 295.6875 185.3125 296.039062 185.109375 297.496094 185.210938 C 298.449219 185.210938 299.855469 185.414062 300.660156 185.613281 C 301.816406 185.914062 302.019531 185.816406 302.019531 185.007812 C 302.019531 182.136719 297.445312 180.878906 294.832031 183.042969 Z M 298.699219 189.695312 C 299.304688 189.894531 299.503906 190.699219 299.503906 192.464844 C 299.503906 194.679688 299.40625 194.933594 298.148438 195.234375 C 297.144531 195.535156 296.589844 195.335938 295.886719 194.429688 C 294.78125 193.070312 294.730469 191.960938 295.785156 190.5 C 296.589844 189.339844 297.292969 189.140625 298.699219 189.695312 Z M 298.699219 189.695312 "/>
<path style=" stroke:none;fill-rule:nonzero;fill:rgb(0%,0%,0%);fill-opacity:1;" d="M 305.6875 182.441406 C 305.484375 182.792969 305.132812 184.355469 304.933594 185.867188 C 304.730469 187.375 304.480469 189.089844 304.429688 189.644531 C 304.230469 190.953125 305.835938 191.253906 307.042969 190.148438 C 307.695312 189.542969 308.398438 189.390625 309.503906 189.644531 C 310.960938 189.945312 311.0625 190.148438 311.0625 192.210938 C 311.0625 194.125 310.863281 194.527344 309.757812 195.03125 C 308.703125 195.535156 308.199219 195.484375 306.742188 194.679688 C 305.433594 193.976562 304.882812 193.875 304.429688 194.328125 C 303.976562 194.78125 304.078125 195.234375 304.832031 196.292969 C 305.988281 197.855469 308.097656 198.660156 309.808594 198.257812 C 311.464844 197.855469 314.078125 194.074219 314.078125 192.160156 C 314.078125 190.046875 311.464844 187.527344 309.054688 187.277344 C 307.695312 187.175781 307.292969 186.921875 307.292969 186.117188 C 307.292969 185.3125 307.695312 185.058594 309.054688 184.957031 C 312.167969 184.757812 313.074219 184.355469 313.074219 183.398438 C 313.074219 182.894531 312.722656 182.289062 312.269531 182.136719 C 310.8125 181.585938 306.089844 181.835938 305.6875 182.441406 Z M 305.6875 182.441406 "/>
<path style=" stroke:none;fill-rule:nonzero;fill:rgb(0%,0%,0%);fill-opacity:1;" d="M 287.847656 195.789062 C 287.695312 196.140625 287.746094 198.660156 287.898438 200.574219 C 287.996094 201.632812 290.007812 200.875 290.511719 199.617188 C 291.261719 197.550781 290.609375 195.4375 289.203125 195.4375 C 288.550781 195.4375 287.945312 195.585938 287.847656 195.789062 Z M 287.847656 195.789062 "/>
<path style=" stroke:none;fill-rule:nonzero;fill:rgb(0%,0%,0%);fill-opacity:1;" d="M 97.1875 215.9375 C 97.039062 216.441406 96.636719 217.398438 96.335938 218.101562 C 96.03125 218.808594 95.730469 219.511719 95.628906 219.664062 C 95.582031 219.816406 95.882812 220.46875 96.335938 221.125 C 96.9375 221.929688 97.136719 223.238281 97.039062 225.859375 C 96.988281 227.824219 97.136719 229.6875 97.339844 229.988281 C 98.09375 231.046875 99.800781 231.25 100.554688 230.394531 C 101.160156 229.636719 101.109375 229.4375 100.101562 228.78125 C 99.148438 228.175781 98.996094 227.621094 98.996094 224.800781 C 98.996094 222.433594 99.199219 221.527344 99.75 221.324219 C 100.707031 220.921875 100.707031 219.160156 99.75 217.902344 C 99.347656 217.347656 98.996094 216.492188 98.996094 215.988281 C 98.996094 214.828125 97.539062 214.777344 97.1875 215.9375 Z M 97.1875 215.9375 "/>
<path style=" stroke:none;fill-rule:nonzero;fill:rgb(0%,0%,0%);fill-opacity:1;" d="M 76.382812 218.453125 C 73.46875 218.808594 73.367188 219.058594 73.367188 226.414062 C 73.367188 231.703125 73.519531 233.214844 74.121094 233.71875 C 75.277344 234.675781 76.285156 233.96875 76.484375 232.105469 C 76.636719 230.542969 76.734375 230.441406 78.445312 230.59375 C 79.953125 230.746094 80.453125 230.492188 81.660156 229.132812 C 82.867188 227.621094 83.015625 227.167969 82.816406 224.296875 C 82.664062 221.679688 82.363281 220.871094 81.15625 219.613281 C 80.355469 218.808594 79.347656 218.152344 78.945312 218.203125 C 78.496094 218.203125 77.339844 218.355469 76.382812 218.453125 Z M 79.800781 221.578125 C 80.753906 222.183594 81.058594 225.65625 80.304688 227.167969 C 78.847656 229.9375 76.382812 228.578125 76.382812 225.003906 C 76.382812 221.730469 77.789062 220.269531 79.800781 221.578125 Z M 79.800781 221.578125 "/>
<path style=" stroke:none;fill-rule:nonzero;fill:rgb(0%,0%,0%);fill-opacity:1;" d="M 87.289062 218.65625 C 86.234375 219.3125 84.375 222.785156 84.171875 224.75 C 84.023438 225.707031 84.425781 226.867188 85.480469 228.429688 C 86.9375 230.59375 87.136719 230.695312 89.398438 230.695312 C 91.308594 230.695312 92.113281 230.394531 93.21875 229.386719 C 95.179688 227.570312 94.273438 226.765625 91.511719 227.824219 C 89.347656 228.730469 87.691406 228.429688 86.535156 227.019531 C 85.730469 226.0625 87.039062 225.65625 91.359375 225.65625 L 94.476562 225.65625 L 94.476562 223.996094 C 94.476562 222.738281 93.972656 221.78125 92.566406 220.21875 C 90.554688 218.050781 89.097656 217.597656 87.289062 218.65625 Z M 91.359375 221.730469 C 92.3125 222.6875 92.0625 223.492188 90.707031 223.742188 C 88.898438 224.097656 86.9375 223.644531 86.9375 222.835938 C 86.9375 221.375 90.203125 220.570312 91.359375 221.730469 Z M 91.359375 221.730469 "/>
<path style=" stroke:none;fill-rule:nonzero;fill:rgb(0%,0%,0%);fill-opacity:1;" d="M 103.46875 219.511719 C 101.960938 220.871094 101.863281 221.125 101.863281 224.601562 C 101.863281 227.671875 102.011719 228.378906 103.019531 229.4375 C 105.179688 231.703125 111.058594 230.644531 111.058594 227.976562 C 111.058594 226.96875 109.550781 226.917969 108.242188 227.925781 C 106.9375 228.933594 106.183594 228.882812 104.425781 227.621094 C 102.414062 226.160156 103.269531 225.65625 107.691406 225.65625 L 111.058594 225.65625 L 111.058594 223.492188 C 111.058594 221.679688 110.757812 221.125 109.300781 219.714844 C 107.089844 217.699219 105.53125 217.648438 103.46875 219.511719 Z M 108.445312 222.433594 C 108.644531 223.742188 106.988281 224.296875 104.878906 223.742188 C 103.570312 223.390625 103.519531 223.339844 104.324219 222.234375 C 105.378906 220.671875 108.195312 220.824219 108.445312 222.433594 Z M 108.445312 222.433594 "/>
<path style=" stroke:none;fill-rule:nonzero;fill:rgb(0%,0%,0%);fill-opacity:1;" d="M 115.230469 219.3125 C 113.921875 220.46875 113.820312 220.773438 113.820312 224.601562 C 113.820312 228.125 113.972656 228.78125 114.925781 229.789062 C 116.386719 231.25 119.25 231.199219 120.808594 229.738281 C 122.164062 228.429688 122.363281 228.429688 123.621094 229.6875 C 124.675781 230.746094 127.792969 231.046875 129.097656 230.242188 C 129.550781 229.9375 130.054688 230.039062 130.554688 230.492188 C 131.964844 231.953125 132.515625 230.492188 132.363281 225.40625 C 132.265625 221.125 132.164062 220.417969 131.109375 219.3125 C 129.398438 217.496094 126.6875 217.648438 124.375 219.664062 C 123.421875 220.519531 122.617188 221.425781 122.617188 221.628906 C 122.617188 222.535156 124.726562 222.738281 125.582031 221.929688 C 127.1875 220.46875 130.152344 221.175781 130.152344 222.988281 C 130.152344 223.339844 129.199219 223.84375 128.042969 224.148438 C 125.128906 224.851562 122.617188 226.011719 122.617188 226.664062 C 122.617188 226.917969 121.914062 227.167969 121.109375 227.167969 C 120.253906 227.167969 119.148438 227.421875 118.644531 227.773438 C 116.835938 228.882812 116.082031 227.976562 116.082031 224.699219 C 116.082031 221.375 116.988281 220.417969 118.644531 221.929688 C 119.25 222.484375 120.003906 222.636719 120.855469 222.433594 C 122.464844 222.03125 122.464844 221.578125 120.65625 219.664062 C 118.898438 217.75 117.136719 217.648438 115.230469 219.3125 Z M 130.152344 226.414062 C 130.152344 227.167969 128.246094 228.679688 127.289062 228.679688 C 125.882812 228.679688 125.378906 227.824219 126.132812 226.917969 C 126.6875 226.210938 130.152344 225.808594 130.152344 226.414062 Z M 130.152344 226.414062 "/>
<path style=" stroke:none;fill-rule:nonzero;fill:rgb(0%,0%,0%);fill-opacity:1;" d="M 276.539062 216.039062 C 275.886719 216.589844 275.382812 217.546875 275.382812 218.304688 C 275.382812 219.363281 275.636719 219.613281 276.589844 219.613281 C 277.242188 219.613281 278.046875 219.261719 278.398438 218.859375 C 279.355469 217.699219 281.765625 217.902344 282.46875 219.160156 C 282.921875 220.066406 282.769531 220.621094 281.3125 222.6875 C 280.410156 224.046875 278.699219 225.808594 277.542969 226.664062 C 275.988281 227.722656 275.382812 228.480469 275.382812 229.4375 L 275.382812 230.695312 L 280.660156 230.695312 C 285.484375 230.695312 285.9375 230.59375 285.9375 229.738281 C 285.9375 228.578125 284.78125 228.074219 283.121094 228.480469 C 282.46875 228.628906 281.3125 228.628906 280.558594 228.429688 C 279.355469 228.125 279.253906 228.023438 279.957031 227.523438 C 286.039062 222.988281 287.242188 220.269531 284.628906 216.792969 C 283.375 215.179688 283.121094 215.082031 280.460938 215.082031 C 278.449219 215.128906 277.34375 215.382812 276.539062 216.039062 Z M 276.539062 216.039062 "/>
<path style=" stroke:none;fill-rule:nonzero;fill:rgb(0%,0%,0%);fill-opacity:1;" d="M 294.078125 216.339844 C 292.269531 218.65625 291.765625 220.417969 292.46875 222.183594 C 293.523438 224.652344 294.882812 225.65625 297.292969 225.65625 C 299.554688 225.65625 300.207031 226.109375 299.707031 227.320312 C 299.304688 228.480469 297.445312 228.730469 295.785156 227.925781 C 293.976562 227.019531 292.972656 226.96875 292.972656 227.824219 C 292.972656 228.980469 294.429688 230.59375 295.785156 230.847656 C 297.546875 231.148438 300.511719 230.34375 300.511719 229.484375 C 300.511719 229.132812 300.960938 228.429688 301.515625 227.925781 C 302.371094 227.167969 302.519531 226.363281 302.519531 223.039062 C 302.519531 219.3125 302.417969 218.910156 300.914062 217.042969 C 299.503906 215.332031 299.101562 215.082031 297.195312 215.082031 C 295.535156 215.082031 294.832031 215.332031 294.078125 216.339844 Z M 299.757812 219.210938 C 299.90625 219.867188 299.855469 221.023438 299.605469 221.878906 C 299.253906 223.191406 298.953125 223.390625 297.496094 223.390625 C 296.085938 223.390625 295.734375 223.140625 295.335938 221.980469 C 294.582031 219.664062 295.585938 218.101562 297.746094 218.101562 C 299.152344 218.101562 299.554688 218.304688 299.757812 219.210938 Z M 299.757812 219.210938 "/>
<path style=" stroke:none;fill-rule:nonzero;fill:rgb(0%,0%,0%);fill-opacity:1;" d="M 305.636719 215.9375 C 305.382812 216.441406 305.03125 218.40625 304.882812 220.269531 C 304.628906 223.039062 304.730469 223.742188 305.335938 223.996094 C 305.738281 224.148438 306.488281 223.894531 306.992188 223.441406 C 307.949219 222.585938 308.953125 222.433594 310.257812 222.9375 C 310.8125 223.140625 311.0625 223.894531 311.0625 225.457031 C 311.0625 227.421875 310.914062 227.773438 309.757812 228.175781 C 308.75 228.578125 308.046875 228.480469 306.890625 227.925781 C 304.128906 226.515625 303.324219 227.117188 304.832031 229.4375 C 305.6875 230.796875 307.898438 231.449219 309.957031 230.945312 C 311.816406 230.492188 314.078125 227.472656 314.078125 225.304688 C 314.078125 222.886719 311.816406 220.621094 309.40625 220.621094 C 308.25 220.621094 307.546875 220.320312 307.34375 219.816406 C 306.84375 218.503906 307.898438 217.648438 309.707031 217.902344 C 311.617188 218.203125 313.375 217.144531 312.921875 215.886719 C 312.421875 214.675781 306.238281 214.726562 305.636719 215.9375 Z M 305.636719 215.9375 "/>
<path style=" stroke:none;fill-rule:nonzero;fill:rgb(0%,0%,0%);fill-opacity:1;" d="M 287.644531 229.234375 C 287.496094 229.535156 287.59375 230.039062 287.847656 230.292969 C 288.25 230.695312 288.25 231.148438 287.898438 231.804688 C 287.292969 232.960938 287.695312 233.71875 289.003906 233.71875 C 290.15625 233.71875 291.164062 231.5 290.710938 229.839844 C 290.410156 228.578125 288.296875 228.175781 287.644531 229.234375 Z M 287.644531 229.234375 "/>
</g>
</svg>
