<?xml version="1.0" encoding="UTF-8"?>
<svg xmlns="http://www.w3.org/2000/svg" xmlns:xlink="http://www.w3.org/1999/xlink" width="400pt" height="226pt" viewBox="0 0 400 226" version="1.1">
<g id="surface1">
<path style=" stroke:none;fill-rule:nonzero;fill:rgb(0%,0%,0%);fill-opacity:1;" d="M 312.269531 4.472656 C 311.0625 4.96875 309.789062 5.535156 309.503906 5.820312 C 309.21875 6.175781 308.15625 6.386719 307.164062 6.386719 C 306.171875 6.386719 304.398438 6.886719 303.261719 7.453125 C 302.199219 8.019531 300.710938 8.519531 300.070312 8.519531 C 299.433594 8.519531 298.015625 9.015625 296.878906 9.582031 C 295.816406 10.148438 294.328125 10.648438 293.6875 10.648438 C 293.050781 10.648438 291.703125 11.074219 290.636719 11.640625 C 289.574219 12.207031 287.800781 12.847656 286.597656 13.132812 C 285.390625 13.414062 284.253906 13.910156 284.042969 14.265625 C 283.757812 14.621094 282.90625 14.90625 282.058594 14.90625 C 281.207031 14.90625 279.574219 15.402344 278.441406 15.96875 C 277.375 16.539062 275.886719 17.035156 275.25 17.035156 C 274.609375 17.035156 273.191406 17.53125 272.058594 18.101562 C 270.992188 18.667969 269.574219 19.164062 269.007812 19.164062 C 268.441406 19.164062 266.949219 19.589844 265.746094 20.085938 C 262.980469 21.292969 261.488281 21.789062 246.808594 26.617188 C 240.355469 28.746094 234.609375 30.804688 233.972656 31.160156 C 233.332031 31.515625 231.632812 32.082031 230.210938 32.296875 C 228.792969 32.578125 227.519531 33.078125 227.304688 33.359375 C 227.09375 33.714844 225.671875 34.140625 224.113281 34.425781 C 222.554688 34.710938 221.132812 35.136719 220.921875 35.488281 C 220.710938 35.84375 219.289062 36.269531 217.730469 36.554688 C 216.171875 36.839844 214.75 37.265625 214.539062 37.621094 C 214.328125 37.972656 212.90625 38.398438 211.347656 38.683594 C 209.789062 38.96875 208.367188 39.464844 208.085938 39.820312 C 207.871094 40.175781 207.164062 40.457031 206.523438 40.457031 C 205.886719 40.457031 204.398438 40.957031 203.261719 41.523438 C 202.199219 42.089844 200.710938 42.589844 200.070312 42.589844 C 199.433594 42.589844 198.015625 43.085938 196.878906 43.652344 C 195.816406 44.21875 194.328125 44.71875 193.6875 44.71875 C 193.050781 44.71875 191.632812 45.214844 190.496094 45.78125 C 189.433594 46.351562 187.941406 46.847656 187.304688 46.847656 C 186.667969 46.847656 185.25 47.34375 184.113281 47.910156 C 183.050781 48.480469 181.558594 48.976562 180.921875 48.976562 C 180.285156 48.976562 178.9375 49.402344 177.871094 49.96875 C 176.808594 50.539062 175.035156 51.175781 173.828125 51.460938 C 172.625 51.746094 171.488281 52.242188 171.277344 52.597656 C 170.992188 52.949219 170.140625 53.234375 169.289062 53.234375 C 168.441406 53.234375 166.808594 53.730469 165.671875 54.300781 C 164.609375 54.867188 163.121094 55.363281 162.480469 55.363281 C 161.84375 55.363281 160.425781 55.859375 159.289062 56.429688 C 158.226562 56.996094 156.808594 57.492188 156.242188 57.492188 C 155.671875 57.492188 154.183594 57.917969 152.980469 58.417969 C 150.140625 59.625 149.148438 59.976562 130.851562 66.011719 C 122.695312 68.78125 115.390625 71.265625 114.75 71.691406 C 114.042969 72.042969 112.90625 72.398438 112.269531 72.398438 C 111.558594 72.398438 110.140625 72.824219 109.078125 73.394531 C 108.015625 73.960938 106.097656 74.601562 104.824219 74.882812 C 103.546875 75.167969 102.199219 75.59375 101.773438 75.878906 C 101.417969 76.160156 98.652344 77.15625 95.746094 78.078125 C 92.835938 78.929688 89.714844 80.347656 88.867188 81.128906 C 87.09375 82.691406 81.558594 91.707031 81.558594 92.914062 C 81.558594 93.339844 81.277344 93.695312 80.921875 93.695312 C 80.566406 93.695312 79.929688 94.546875 79.503906 95.609375 C 79.078125 96.746094 77.730469 99.160156 76.597656 101.144531 C 75.390625 103.0625 74.042969 105.476562 73.546875 106.46875 C 73.121094 107.464844 72.480469 108.386719 72.199219 108.597656 C 71.914062 108.8125 71.347656 109.804688 70.921875 110.730469 C 70.566406 111.722656 69.574219 113.425781 68.792969 114.632812 C 68.085938 115.769531 66.738281 118.179688 65.816406 119.957031 C 64.894531 121.730469 63.972656 123.292969 63.6875 123.503906 C 63.402344 123.71875 62.835938 124.710938 62.410156 125.632812 C 62.058594 126.628906 61.0625 128.332031 60.355469 129.539062 C 58.9375 131.738281 56.808594 135.429688 54.398438 139.832031 C 53.6875 141.179688 52.480469 143.238281 51.703125 144.445312 C 50.992188 145.578125 50.140625 147.070312 49.859375 147.636719 C 49.574219 148.207031 48.015625 150.972656 46.3125 153.742188 C 44.609375 156.511719 43.261719 159.207031 43.261719 159.632812 C 43.261719 160.058594 42.980469 160.414062 42.625 160.414062 C 42.269531 160.414062 41.632812 161.265625 41.207031 162.332031 C 40.78125 163.464844 39.789062 165.242188 39.078125 166.449219 C 37.730469 168.507812 36.3125 171.0625 33.617188 176.03125 C 32.835938 177.378906 31.84375 178.871094 31.417969 179.4375 C 30.921875 179.933594 30.496094 180.714844 30.496094 181.140625 C 30.496094 181.496094 29.644531 183.199219 28.511719 184.832031 C 27.445312 186.394531 25.957031 189.019531 25.175781 190.582031 C 24.398438 192.144531 23.546875 193.5625 23.332031 193.773438 C 23.121094 193.988281 22.480469 194.980469 21.914062 196.046875 C 20.140625 199.453125 16.597656 206.125 14.679688 209.675781 C 13.617188 211.589844 12.765625 213.507812 12.765625 214.003906 C 12.765625 215.425781 37.800781 215.851562 105.746094 215.707031 C 162.90625 215.636719 168.15625 215.566406 171.558594 214.359375 C 173.546875 213.71875 175.390625 212.941406 175.671875 212.65625 C 175.886719 212.441406 176.597656 212.230469 177.234375 212.230469 C 177.871094 212.230469 179.289062 211.734375 180.425781 211.164062 C 181.488281 210.597656 182.980469 210.101562 183.617188 210.101562 C 184.253906 210.101562 185.671875 209.605469 186.808594 209.035156 C 187.871094 208.46875 189.148438 207.972656 189.503906 207.972656 C 189.929688 207.972656 191.207031 207.546875 192.410156 206.976562 C 193.6875 206.410156 195.320312 205.839844 196.097656 205.628906 C 199.078125 204.777344 211.417969 200.375 211.84375 199.878906 C 212.058594 199.667969 212.765625 199.453125 213.402344 199.453125 C 214.042969 199.453125 215.460938 198.957031 216.597656 198.390625 C 217.660156 197.820312 219.148438 197.324219 219.789062 197.324219 C 220.425781 197.324219 221.84375 196.828125 222.980469 196.257812 C 224.042969 195.691406 225.320312 195.195312 225.671875 195.195312 C 226.097656 195.195312 227.375 194.769531 228.582031 194.273438 C 231.347656 193.066406 234.113281 192.144531 241.488281 189.730469 C 244.609375 188.734375 247.519531 187.671875 247.871094 187.316406 C 248.296875 187.03125 249.789062 186.605469 251.277344 186.320312 C 252.695312 186.039062 254.113281 185.542969 254.328125 185.1875 C 254.539062 184.832031 255.25 184.546875 255.886719 184.546875 C 256.523438 184.546875 258.015625 184.050781 259.148438 183.484375 C 260.210938 182.914062 261.703125 182.417969 262.339844 182.417969 C 263.050781 182.417969 264.183594 181.921875 264.964844 181.355469 C 265.671875 180.785156 266.878906 180.289062 267.589844 180.289062 C 268.367188 180.289062 269.929688 179.863281 271.132812 179.296875 C 272.410156 178.726562 275.671875 177.519531 278.367188 176.667969 C 281.132812 175.816406 283.6875 174.824219 284.042969 174.539062 C 284.46875 174.253906 285.957031 173.828125 287.445312 173.546875 C 288.867188 173.261719 290.285156 172.765625 290.496094 172.410156 C 290.710938 172.054688 291.417969 171.769531 292.058594 171.769531 C 292.695312 171.769531 294.183594 171.273438 295.320312 170.707031 C 296.382812 170.140625 297.871094 169.640625 298.511719 169.640625 C 299.21875 169.640625 300.355469 169.144531 301.132812 168.578125 C 301.84375 168.007812 303.050781 167.511719 303.757812 167.511719 C 304.539062 167.511719 306.097656 167.085938 307.304688 166.519531 C 308.582031 165.949219 311.84375 164.746094 314.539062 163.894531 C 317.304688 163.039062 319.859375 162.046875 320.210938 161.761719 C 320.636719 161.480469 322.128906 161.054688 323.617188 160.769531 C 325.035156 160.484375 326.453125 159.988281 326.667969 159.632812 C 326.878906 159.277344 327.589844 158.996094 328.226562 158.996094 C 328.867188 158.996094 330.355469 158.5 331.488281 157.929688 C 332.554688 157.363281 334.042969 156.867188 334.679688 156.867188 C 335.390625 156.867188 336.523438 156.367188 337.304688 155.800781 C 338.015625 155.234375 339.21875 154.734375 339.929688 154.734375 C 340.710938 154.734375 342.269531 154.308594 343.476562 153.742188 C 344.75 153.175781 348.015625 151.96875 350.710938 151.117188 C 353.476562 150.265625 356.027344 149.269531 356.382812 148.988281 C 356.808594 148.773438 358.226562 148.277344 359.574219 147.992188 C 360.921875 147.710938 362.480469 147.210938 363.121094 146.929688 C 366.382812 145.296875 369.714844 144.089844 370.78125 144.089844 C 371.488281 144.089844 372.695312 143.59375 373.476562 143.023438 C 374.183594 142.457031 375.390625 141.960938 376.097656 141.960938 C 376.808594 141.960938 378.085938 141.605469 378.9375 141.109375 C 381.984375 139.40625 387.660156 137.773438 390.285156 137.699219 C 393.828125 137.699219 394.328125 136.210938 391.632812 133.65625 C 389.789062 131.953125 387.019531 127.480469 383.121094 119.601562 C 382.480469 118.394531 381.84375 117.328125 381.632812 117.117188 C 381.347656 116.902344 380.78125 115.980469 380.355469 114.988281 C 379.859375 113.992188 378.511719 111.582031 377.375 109.664062 C 376.171875 107.675781 374.824219 105.335938 374.46875 104.339844 C 374.042969 103.417969 373.476562 102.425781 373.191406 102.210938 C 372.90625 102 372.128906 100.71875 371.347656 99.371094 C 368.9375 94.828125 367.304688 91.917969 365.886719 89.789062 C 365.175781 88.582031 364.183594 86.808594 363.757812 85.671875 C 363.332031 84.609375 362.695312 83.757812 362.339844 83.757812 C 361.984375 83.757812 361.703125 83.402344 361.703125 82.976562 C 361.703125 82.550781 360.285156 79.851562 358.582031 77.011719 C 356.878906 74.246094 355.25 71.191406 355.035156 70.410156 C 354.75 69.558594 354.183594 68.851562 353.828125 68.851562 C 353.476562 68.851562 353.191406 68.496094 353.191406 68.070312 C 353.191406 67.644531 351.773438 64.945312 350.070312 62.105469 C 348.367188 59.339844 346.738281 56.285156 346.523438 55.507812 C 346.242188 54.65625 345.671875 53.945312 345.320312 53.945312 C 344.964844 53.945312 344.679688 53.589844 344.679688 53.164062 C 344.679688 52.738281 343.332031 50.039062 341.632812 47.273438 C 339.929688 44.503906 338.367188 41.734375 338.085938 41.167969 C 337.800781 40.601562 336.949219 39.109375 336.171875 37.972656 C 335.390625 36.769531 334.328125 34.851562 333.757812 33.714844 C 333.191406 32.507812 331.703125 29.953125 330.566406 28.035156 C 329.363281 26.050781 328.085938 23.847656 327.660156 23.070312 C 327.304688 22.289062 326.667969 21.152344 326.3125 20.585938 C 325.957031 20.015625 323.476562 15.898438 320.921875 11.5 C 318.367188 7.167969 315.816406 3.550781 315.390625 3.621094 C 314.894531 3.621094 313.546875 4.046875 312.269531 4.472656 Z M 316.3125 10.789062 C 317.800781 12.847656 321.132812 18.527344 321.984375 20.585938 C 322.410156 21.507812 322.980469 22.5 323.261719 22.714844 C 323.546875 22.925781 324.183594 23.847656 324.609375 24.84375 C 325.105469 25.835938 326.453125 28.179688 327.589844 30.167969 C 328.792969 32.082031 330.140625 34.496094 330.496094 35.488281 C 330.921875 36.414062 331.488281 37.40625 331.773438 37.621094 C 332.058594 37.832031 332.695312 38.753906 333.121094 39.75 C 333.617188 40.742188 334.964844 43.085938 336.097656 45.070312 C 337.304688 46.988281 338.652344 49.402344 339.007812 50.394531 C 339.433594 51.320312 340 52.3125 340.285156 52.523438 C 340.566406 52.738281 341.207031 53.660156 341.632812 54.65625 C 342.128906 55.648438 343.476562 57.992188 344.609375 59.976562 C 345.816406 61.894531 347.164062 64.308594 347.519531 65.300781 C 347.941406 66.222656 348.511719 67.21875 348.792969 67.429688 C 349.078125 67.644531 349.714844 68.566406 350.140625 69.558594 C 350.636719 70.554688 351.984375 72.894531 353.121094 74.882812 C 354.328125 76.800781 355.671875 79.214844 356.027344 80.207031 C 356.453125 81.128906 357.019531 82.125 357.304688 82.335938 C 357.589844 82.550781 358.226562 83.472656 358.652344 84.464844 C 359.148438 85.460938 360.496094 87.800781 361.703125 89.789062 C 362.835938 91.707031 364.183594 94.191406 364.609375 95.253906 C 365.035156 96.390625 365.671875 97.242188 365.957031 97.242188 C 366.242188 97.242188 366.738281 98.023438 366.949219 99.015625 C 367.234375 100.011719 367.730469 100.792969 368.085938 100.792969 C 368.511719 100.792969 368.792969 101.144531 368.792969 101.570312 C 368.792969 102 370.210938 104.695312 371.914062 107.535156 C 373.617188 110.304688 375.25 113.355469 375.460938 114.136719 C 375.746094 114.988281 376.3125 115.695312 376.667969 115.695312 C 377.019531 115.695312 377.304688 116.050781 377.304688 116.476562 C 377.304688 116.902344 379.503906 120.949219 382.269531 125.492188 L 387.164062 133.726562 L 385.25 134.863281 C 383.617188 135.855469 383.121094 135.855469 381.417969 135.003906 C 380.355469 134.507812 378.722656 134.152344 377.871094 134.292969 C 375.601562 134.578125 375.390625 136.847656 377.445312 137.628906 C 378.511719 138.054688 378.652344 138.339844 377.941406 138.339844 C 376.738281 138.410156 368.722656 140.824219 366.3125 141.890625 C 365.53125 142.242188 362.480469 143.238281 359.574219 144.089844 C 356.667969 145.011719 353.972656 146.003906 353.546875 146.289062 C 353.191406 146.644531 352.269531 146.929688 351.417969 146.929688 C 350.566406 146.929688 349.289062 147.425781 348.511719 147.992188 C 347.800781 148.5625 346.597656 149.058594 345.886719 149.058594 C 345.105469 149.058594 343.546875 149.484375 342.339844 150.050781 C 341.0625 150.621094 337.871094 151.824219 335.105469 152.679688 C 332.410156 153.53125 329.859375 154.523438 329.433594 154.808594 C 329.078125 155.089844 327.519531 155.515625 326.027344 155.800781 C 324.609375 156.085938 323.191406 156.582031 322.980469 156.9375 C 322.765625 157.292969 322.058594 157.574219 321.417969 157.574219 C 320.78125 157.574219 319.289062 158.070312 318.15625 158.640625 C 317.09375 159.207031 315.601562 159.703125 314.964844 159.703125 C 314.253906 159.703125 313.121094 160.203125 312.339844 160.769531 C 311.632812 161.335938 310.425781 161.835938 309.714844 161.835938 C 308.9375 161.835938 307.375 162.261719 306.171875 162.828125 C 304.894531 163.394531 301.703125 164.601562 298.9375 165.453125 C 296.242188 166.304688 293.6875 167.300781 293.261719 167.582031 C 292.90625 167.867188 291.347656 168.292969 289.859375 168.578125 C 288.441406 168.859375 287.019531 169.359375 286.808594 169.714844 C 286.597656 170.066406 285.886719 170.351562 285.25 170.351562 C 284.609375 170.351562 283.121094 170.847656 281.984375 171.417969 C 280.921875 171.984375 279.433594 172.480469 278.792969 172.480469 C 278.085938 172.480469 276.949219 172.976562 276.171875 173.546875 C 275.460938 174.113281 274.253906 174.609375 273.546875 174.609375 C 272.765625 174.609375 271.207031 175.035156 270 175.535156 C 267.09375 176.8125 263.402344 178.089844 260.285156 179.011719 C 258.9375 179.367188 257.519531 180.003906 257.09375 180.289062 C 256.738281 180.644531 255.175781 181.070312 253.6875 181.355469 C 252.269531 181.636719 250.851562 182.132812 250.636719 182.488281 C 250.425781 182.84375 249.714844 183.128906 249.078125 183.128906 C 248.441406 183.128906 246.949219 183.625 245.816406 184.191406 C 244.75 184.761719 243.261719 185.257812 242.625 185.257812 C 241.984375 185.257812 240.566406 185.753906 239.433594 186.320312 C 238.367188 186.890625 237.09375 187.386719 236.738281 187.386719 C 236.3125 187.386719 235.035156 187.8125 233.828125 188.308594 C 230.921875 189.585938 227.234375 190.863281 224.113281 191.789062 C 222.765625 192.144531 221.347656 192.78125 220.921875 193.066406 C 220.566406 193.421875 219.007812 193.847656 217.519531 194.128906 C 216.097656 194.414062 214.679688 194.910156 214.46875 195.265625 C 214.253906 195.621094 213.546875 195.90625 212.90625 195.90625 C 212.269531 195.90625 210.78125 196.402344 209.644531 196.96875 C 208.582031 197.535156 207.09375 198.035156 206.453125 198.035156 C 205.816406 198.035156 204.398438 198.53125 203.261719 199.097656 C 202.199219 199.667969 200.921875 200.164062 200.566406 200.164062 C 200.140625 200.164062 198.867188 200.589844 197.660156 201.085938 C 194.75 202.363281 191.0625 203.640625 187.941406 204.5625 C 186.597656 204.917969 185.175781 205.558594 184.75 205.839844 C 184.398438 206.195312 182.835938 206.621094 181.347656 206.90625 C 179.929688 207.191406 178.511719 207.6875 178.296875 208.042969 C 178.085938 208.398438 177.375 208.679688 176.738281 208.679688 C 176.097656 208.679688 174.609375 209.179688 173.546875 209.746094 C 172.480469 210.3125 170.496094 210.953125 169.148438 211.234375 C 166.949219 211.589844 166.597656 211.449219 165.816406 209.675781 C 165.320312 208.539062 163.332031 204.917969 161.347656 201.582031 C 159.363281 198.246094 157.519531 195.054688 157.234375 194.484375 C 156.949219 193.917969 156.097656 192.425781 155.320312 191.289062 C 154.539062 190.085938 153.546875 188.308594 153.121094 187.175781 C 152.695312 186.109375 152.058594 185.257812 151.703125 185.257812 C 151.347656 185.257812 151.0625 184.902344 151.0625 184.476562 C 151.0625 183.484375 143.972656 171.558594 142.980469 170.917969 C 141.914062 170.210938 142.835938 169.570312 145.53125 169.003906 C 147.234375 168.648438 147.941406 168.082031 148.085938 166.945312 C 148.367188 164.886719 146.878906 164.390625 144.253906 165.738281 C 141.207031 167.300781 140.851562 167.15625 139.007812 163.394531 C 138.085938 161.550781 137.164062 159.917969 136.949219 159.703125 C 136.667969 159.492188 136.097656 158.570312 135.671875 157.574219 C 134.539062 155.304688 131.984375 150.902344 129.714844 147.285156 C 128.722656 145.722656 127.660156 143.945312 127.445312 143.378906 C 127.164062 142.8125 126.3125 141.320312 125.53125 140.183594 C 124.75 138.980469 123.757812 137.273438 123.402344 136.28125 C 122.980469 135.359375 122.410156 134.363281 122.128906 134.152344 C 121.84375 133.9375 121.207031 133.015625 120.78125 132.023438 C 119.644531 129.75 117.09375 125.351562 114.824219 121.730469 C 113.828125 120.167969 112.765625 118.394531 112.554688 117.828125 C 112.269531 117.257812 111.417969 115.769531 110.636719 114.632812 C 109.859375 113.425781 108.792969 111.507812 108.226562 110.375 C 106.878906 107.675781 104.398438 103.417969 102.058594 99.726562 C 101.0625 98.164062 100 96.390625 99.789062 95.824219 C 99.503906 95.253906 98.652344 93.765625 97.871094 92.628906 C 97.09375 91.421875 96.242188 90.003906 95.957031 89.433594 C 95.746094 88.867188 94.894531 87.589844 94.183594 86.667969 C 91.84375 83.542969 92.410156 82.761719 98.367188 81.058594 C 101.417969 80.136719 104.398438 79.144531 104.964844 78.859375 C 105.601562 78.503906 107.09375 78.007812 108.367188 77.792969 C 109.574219 77.511719 110.78125 76.941406 110.992188 76.585938 C 111.277344 76.230469 112.128906 75.949219 112.980469 75.949219 C 113.828125 75.949219 115.460938 75.453125 116.597656 74.882812 C 117.660156 74.316406 119.148438 73.820312 119.789062 73.820312 C 120.425781 73.820312 121.84375 73.320312 122.980469 72.753906 C 124.042969 72.1875 125.53125 71.691406 126.171875 71.691406 C 126.808594 71.691406 128.226562 71.191406 129.363281 70.625 C 130.425781 70.058594 131.914062 69.558594 132.554688 69.558594 C 133.191406 69.558594 134.539062 69.132812 135.601562 68.566406 C 136.667969 68 138.441406 67.359375 139.644531 67.074219 C 140.851562 66.792969 141.984375 66.296875 142.199219 65.941406 C 142.480469 65.585938 143.332031 65.300781 144.183594 65.300781 C 145.035156 65.300781 146.667969 64.804688 147.800781 64.238281 C 148.867188 63.667969 150.355469 63.171875 150.992188 63.171875 C 151.632812 63.171875 153.050781 62.675781 154.183594 62.105469 C 155.25 61.539062 156.667969 61.042969 157.234375 61.042969 C 157.800781 61.042969 159.289062 60.617188 160.496094 60.121094 C 163.261719 58.914062 164.75 58.417969 179.433594 53.589844 C 185.886719 51.460938 191.632812 49.402344 192.269531 49.046875 C 192.90625 48.691406 194.609375 48.125 196.027344 47.910156 C 197.445312 47.628906 198.722656 47.128906 198.9375 46.847656 C 199.148438 46.492188 200.566406 46.066406 202.128906 45.78125 C 203.6875 45.5 205.105469 45.070312 205.320312 44.71875 C 205.53125 44.363281 206.949219 43.9375 208.511719 43.652344 C 210.070312 43.367188 211.488281 42.941406 211.703125 42.589844 C 211.914062 42.234375 213.332031 41.808594 214.894531 41.523438 C 216.453125 41.238281 217.871094 40.742188 218.15625 40.386719 C 218.367188 40.03125 219.078125 39.75 219.714844 39.75 C 220.355469 39.75 221.84375 39.25 222.980469 38.683594 C 224.042969 38.117188 225.53125 37.621094 226.171875 37.621094 C 226.808594 37.621094 228.226562 37.121094 229.363281 36.554688 C 230.425781 35.988281 231.914062 35.488281 232.554688 35.488281 C 233.191406 35.488281 234.609375 34.992188 235.746094 34.425781 C 236.808594 33.855469 238.296875 33.359375 238.9375 33.359375 C 239.574219 33.359375 240.992188 32.863281 242.128906 32.296875 C 243.191406 31.726562 244.679688 31.230469 245.320312 31.230469 C 245.957031 31.230469 247.304688 30.804688 248.367188 30.238281 C 249.433594 29.667969 251.207031 29.03125 252.410156 28.746094 C 253.617188 28.464844 254.75 27.964844 254.964844 27.609375 C 255.25 27.257812 256.097656 26.972656 256.949219 26.972656 C 257.800781 26.972656 259.433594 26.476562 260.566406 25.90625 C 261.632812 25.339844 263.121094 24.84375 263.757812 24.84375 C 264.398438 24.84375 265.816406 24.347656 266.949219 23.777344 C 268.015625 23.210938 269.433594 22.714844 270 22.714844 C 270.566406 22.714844 272.058594 22.289062 273.261719 21.789062 C 275.957031 20.65625 277.164062 20.230469 292.199219 15.191406 C 298.652344 13.058594 304.894531 10.859375 306.027344 10.363281 C 307.234375 9.867188 308.652344 9.226562 309.21875 9.015625 C 311.132812 8.304688 315.25 9.371094 316.3125 10.789062 Z M 92.410156 90.214844 C 93.546875 92.34375 95.816406 96.25 97.445312 99.015625 C 99.078125 101.714844 100.636719 104.480469 100.921875 105.050781 C 101.207031 105.617188 102.058594 107.039062 102.835938 108.246094 C 103.617188 109.378906 104.609375 111.15625 104.964844 112.148438 C 105.390625 113.070312 105.957031 114.066406 106.242188 114.277344 C 106.523438 114.492188 107.164062 115.414062 107.589844 116.40625 C 108.722656 118.679688 111.277344 123.078125 113.546875 126.699219 C 114.539062 128.261719 115.601562 130.035156 115.816406 130.601562 C 116.097656 131.171875 116.949219 132.589844 117.730469 133.796875 C 118.511719 134.933594 119.503906 136.707031 119.859375 137.699219 C 120.285156 138.625 120.851562 139.617188 121.132812 139.832031 C 121.417969 140.042969 122.058594 140.964844 122.480469 141.960938 C 123.617188 144.230469 126.171875 148.632812 128.441406 152.25 C 129.433594 153.8125 130.496094 155.589844 130.710938 156.15625 C 130.992188 156.722656 131.84375 158.144531 132.625 159.351562 C 133.402344 160.484375 134.253906 161.976562 134.539062 162.542969 C 134.75 163.113281 135.601562 164.390625 136.3125 165.3125 C 138.085938 167.65625 137.941406 168.082031 135.320312 168.789062 C 133.6875 169.214844 132.90625 169.855469 132.765625 170.917969 C 132.410156 173.121094 134.328125 173.617188 136.738281 171.84375 C 138.722656 170.492188 138.867188 170.492188 139.859375 171.628906 C 140.355469 172.269531 141.632812 174.398438 142.554688 176.242188 C 145.53125 182.132812 146.3125 183.484375 146.738281 183.839844 C 147.375 184.335938 148.867188 186.75 149.574219 188.453125 C 149.929688 189.304688 151.984375 192.921875 154.183594 196.472656 C 156.382812 200.09375 158.15625 203.214844 158.15625 203.355469 C 158.15625 203.5 159.148438 205.0625 160.285156 206.765625 C 161.488281 208.539062 162.410156 210.3125 162.410156 210.738281 C 162.410156 211.308594 142.90625 211.519531 91.914062 211.519531 L 21.417969 211.519531 L 20.285156 209.746094 C 19.148438 208.042969 19.21875 207.828125 22.058594 203.285156 C 23.617188 200.660156 25.25 197.820312 25.601562 197.039062 C 26.382812 195.195312 27.730469 193.066406 28.9375 191.789062 C 29.363281 191.289062 29.789062 190.582031 29.789062 190.226562 C 29.789062 189.871094 31.207031 187.175781 32.980469 184.335938 C 34.75 181.425781 36.171875 178.65625 36.171875 178.230469 C 36.171875 177.804688 36.453125 177.449219 36.808594 177.449219 C 37.164062 177.449219 37.800781 176.597656 38.226562 175.460938 C 38.652344 174.398438 39.644531 172.550781 40.355469 171.417969 C 41.703125 169.359375 43.121094 166.804688 45.816406 161.835938 C 46.597656 160.484375 47.589844 158.996094 48.085938 158.425781 C 48.511719 157.929688 48.9375 157.148438 48.9375 156.722656 C 48.9375 156.367188 49.789062 154.664062 50.921875 153.03125 C 51.984375 151.472656 53.476562 148.84375 54.253906 147.285156 C 55.035156 145.722656 55.886719 144.300781 56.171875 144.089844 C 56.453125 143.875 57.019531 142.882812 57.375 141.960938 C 57.800781 140.964844 58.441406 139.6875 58.867188 139.121094 C 60.636719 136.421875 65.460938 128.117188 66.027344 126.769531 C 66.382812 125.917969 67.304688 124.285156 68.085938 123.148438 C 68.867188 121.945312 69.789062 120.382812 70.210938 119.601562 C 70.566406 118.820312 72.058594 116.265625 73.402344 113.921875 C 74.75 111.582031 76.097656 109.097656 76.3125 108.386719 C 76.597656 107.746094 77.019531 107.179688 77.304688 107.179688 C 77.660156 107.179688 78.15625 106.46875 78.441406 105.546875 C 78.722656 104.695312 79.714844 102.777344 80.636719 101.289062 C 82.339844 98.519531 86.949219 90.285156 88.226562 87.519531 C 89.289062 85.246094 90 85.742188 92.410156 90.214844 Z M 92.410156 90.214844 "/>
<path style=" stroke:none;fill-rule:nonzero;fill:rgb(0%,0%,0%);fill-opacity:1;" d="M 309.007812 13.34375 C 306.808594 15.617188 306.523438 17.601562 308.226562 18.242188 C 310.425781 19.09375 313.402344 12.988281 311.488281 11.78125 C 311.132812 11.570312 310 12.28125 309.007812 13.34375 Z M 309.007812 13.34375 "/>
<path style=" stroke:none;fill-rule:nonzero;fill:rgb(0%,0%,0%);fill-opacity:1;" d="M 303.121094 22.359375 C 301.84375 25.480469 301.84375 25.980469 303.261719 26.546875 C 305.105469 27.257812 305.53125 27.042969 306.667969 24.699219 C 308.367188 21.363281 308.15625 19.875 305.957031 19.875 C 304.609375 19.875 303.972656 20.441406 303.121094 22.359375 Z M 303.121094 22.359375 "/>
<path style=" stroke:none;fill-rule:nonzero;fill:rgb(0%,0%,0%);fill-opacity:1;" d="M 299.503906 28.535156 C 296.597656 33.078125 296.453125 34.921875 299.078125 34.636719 C 300.355469 34.496094 301.347656 33.644531 302.339844 32.011719 C 303.617188 29.667969 303.617188 29.457031 302.410156 28.605469 C 300.851562 27.46875 300.210938 27.46875 299.503906 28.535156 Z M 299.503906 28.535156 "/>
<path style=" stroke:none;fill-rule:nonzero;fill:rgb(0%,0%,0%);fill-opacity:1;" d="M 293.757812 38.257812 C 291.914062 40.742188 291.773438 42.089844 293.191406 43.226562 C 294.679688 44.503906 298.015625 40.957031 297.730469 38.472656 C 297.445312 35.84375 295.601562 35.773438 293.757812 38.257812 Z M 293.757812 38.257812 "/>
<path style=" stroke:none;fill-rule:nonzero;fill:rgb(0%,0%,0%);fill-opacity:1;" d="M 289.078125 46.066406 C 287.589844 47.699219 287.800781 51.390625 289.363281 51.671875 C 290.710938 51.886719 293.902344 47.203125 293.332031 45.78125 C 292.765625 44.292969 290.566406 44.433594 289.078125 46.066406 Z M 289.078125 46.066406 "/>
<path style=" stroke:none;fill-rule:nonzero;fill:rgb(0%,0%,0%);fill-opacity:1;" d="M 283.6875 55.363281 C 281.84375 59.835938 285.53125 61.539062 287.589844 57.210938 C 288.9375 54.371094 288.582031 53.234375 286.242188 53.234375 C 285.035156 53.234375 284.328125 53.875 283.6875 55.363281 Z M 283.6875 55.363281 "/>
<path style=" stroke:none;fill-rule:nonzero;fill:rgb(0%,0%,0%);fill-opacity:1;" d="M 279.433594 62.746094 C 279.078125 63.667969 278.511719 64.664062 278.085938 64.875 C 276.738281 65.726562 278.15625 67.429688 280.140625 67.429688 C 282.625 67.429688 284.46875 63.882812 282.980469 62.105469 C 281.703125 60.546875 280.210938 60.828125 279.433594 62.746094 Z M 279.433594 62.746094 "/>
<path style=" stroke:none;fill-rule:nonzero;fill:rgb(0%,0%,0%);fill-opacity:1;" d="M 274.609375 71.050781 C 272.765625 73.394531 272.765625 75.453125 274.679688 75.804688 C 277.375 76.304688 279.433594 72.96875 278.296875 69.984375 C 277.660156 68.355469 276.453125 68.636719 274.609375 71.050781 Z M 274.609375 71.050781 "/>
<path style=" stroke:none;fill-rule:nonzero;fill:rgb(0%,0%,0%);fill-opacity:1;" d="M 270.78125 78.363281 C 268.085938 80.421875 267.941406 84.464844 270.566406 84.464844 C 271.984375 84.464844 274.398438 80.492188 273.972656 78.859375 C 273.546875 77.15625 272.554688 77.011719 270.78125 78.363281 Z M 270.78125 78.363281 "/>
<path style=" stroke:none;fill-rule:nonzero;fill:rgb(0%,0%,0%);fill-opacity:1;" d="M 265.460938 86.738281 C 264.253906 88.441406 262.90625 91.5625 263.191406 91.917969 C 263.402344 92.0625 264.328125 92.34375 265.25 92.414062 C 266.597656 92.558594 267.234375 92.0625 268.226562 89.929688 C 268.9375 88.441406 269.363281 86.949219 269.148438 86.59375 C 268.511719 85.601562 266.242188 85.742188 265.460938 86.738281 Z M 265.460938 86.738281 "/>
<path style=" stroke:none;fill-rule:nonzero;fill:rgb(0%,0%,0%);fill-opacity:1;" d="M 259.574219 96.675781 C 258.296875 99.230469 258.226562 99.726562 259.078125 100.578125 C 259.859375 101.429688 260.425781 101.429688 261.632812 100.863281 C 263.332031 99.941406 264.679688 95.894531 263.617188 94.546875 C 262.410156 92.984375 261.132812 93.621094 259.574219 96.675781 Z M 259.574219 96.675781 "/>
<path style=" stroke:none;fill-rule:nonzero;fill:rgb(0%,0%,0%);fill-opacity:1;" d="M 255.460938 104.128906 C 253.617188 106.398438 253.617188 109.523438 255.390625 109.875 C 256.808594 110.160156 259.789062 105.617188 259.433594 103.84375 C 259.078125 101.855469 257.164062 102 255.460938 104.128906 Z M 255.460938 104.128906 "/>
<path style=" stroke:none;fill-rule:nonzero;fill:rgb(0%,0%,0%);fill-opacity:1;" d="M 250.78125 111.863281 C 249.148438 113.425781 249.289062 117.828125 250.921875 117.828125 C 252.695312 117.753906 255.601562 113 254.539062 111.722656 C 253.476562 110.445312 252.128906 110.445312 250.78125 111.863281 Z M 250.78125 111.863281 "/>
<path style=" stroke:none;fill-rule:nonzero;fill:rgb(0%,0%,0%);fill-opacity:1;" d="M 245.035156 121.660156 C 243.6875 124.5 244.042969 125.632812 246.3125 125.632812 C 248.441406 125.632812 251.207031 120.878906 249.574219 119.886719 C 247.660156 118.679688 246.171875 119.246094 245.035156 121.660156 Z M 245.035156 121.660156 "/>
<path style=" stroke:none;fill-rule:nonzero;fill:rgb(0%,0%,0%);fill-opacity:1;" d="M 241.347656 128.261719 C 241.0625 128.96875 240.425781 129.964844 239.929688 130.460938 C 239.21875 131.171875 239.21875 131.808594 239.789062 132.804688 C 240.496094 134.152344 240.496094 134.152344 242.625 132.660156 C 244.253906 131.527344 244.679688 130.675781 244.539062 129.324219 C 244.253906 127.054688 242.058594 126.34375 241.347656 128.261719 Z M 241.347656 128.261719 "/>
<path style=" stroke:none;fill-rule:nonzero;fill:rgb(0%,0%,0%);fill-opacity:1;" d="M 233.191406 134.648438 C 231.632812 135.074219 231.488281 138.269531 232.980469 138.835938 C 234.679688 139.476562 239.148438 137.0625 238.867188 135.714844 C 238.652344 134.507812 235.671875 133.9375 233.191406 134.648438 Z M 233.191406 134.648438 "/>
<path style=" stroke:none;fill-rule:nonzero;fill:rgb(0%,0%,0%);fill-opacity:1;" d="M 241.558594 134.789062 C 240.496094 136.421875 242.058594 137.699219 245.105469 137.699219 C 247.941406 137.699219 248.226562 137.558594 248.226562 135.925781 C 248.226562 134.292969 247.941406 134.152344 245.105469 134.152344 C 243.332031 134.152344 241.773438 134.4375 241.558594 134.789062 Z M 241.558594 134.789062 "/>
<path style=" stroke:none;fill-rule:nonzero;fill:rgb(0%,0%,0%);fill-opacity:1;" d="M 250.355469 135.925781 C 250.355469 137.628906 250.566406 137.699219 254.609375 137.699219 C 258.652344 137.699219 258.867188 137.628906 258.867188 135.925781 C 258.867188 134.222656 258.652344 134.152344 254.609375 134.152344 C 250.566406 134.152344 250.355469 134.222656 250.355469 135.925781 Z M 250.355469 135.925781 "/>
<path style=" stroke:none;fill-rule:nonzero;fill:rgb(0%,0%,0%);fill-opacity:1;" d="M 260.851562 135.003906 C 260.140625 136.921875 261.132812 137.699219 264.183594 137.699219 C 267.164062 137.699219 268.226562 136.921875 267.589844 135.003906 C 267.375 134.507812 266.027344 134.152344 264.183594 134.152344 C 262.410156 134.152344 260.992188 134.507812 260.851562 135.003906 Z M 260.851562 135.003906 "/>
<path style=" stroke:none;fill-rule:nonzero;fill:rgb(0%,0%,0%);fill-opacity:1;" d="M 269.503906 135.925781 C 269.503906 137.628906 269.714844 137.699219 273.757812 137.699219 C 277.800781 137.699219 278.015625 137.628906 278.015625 135.925781 C 278.015625 134.222656 277.800781 134.152344 273.757812 134.152344 C 269.714844 134.152344 269.503906 134.222656 269.503906 135.925781 Z M 269.503906 135.925781 "/>
<path style=" stroke:none;fill-rule:nonzero;fill:rgb(0%,0%,0%);fill-opacity:1;" d="M 280 135.003906 C 279.289062 136.921875 280.285156 137.699219 283.332031 137.699219 C 286.3125 137.699219 287.375 136.921875 286.738281 135.003906 C 286.523438 134.507812 285.175781 134.152344 283.332031 134.152344 C 281.558594 134.152344 280.140625 134.507812 280 135.003906 Z M 280 135.003906 "/>
<path style=" stroke:none;fill-rule:nonzero;fill:rgb(0%,0%,0%);fill-opacity:1;" d="M 288.652344 135.925781 C 288.652344 137.628906 288.867188 137.699219 292.90625 137.699219 C 296.949219 137.699219 297.164062 137.628906 297.164062 135.925781 C 297.164062 134.222656 296.949219 134.152344 292.90625 134.152344 C 288.867188 134.152344 288.652344 134.222656 288.652344 135.925781 Z M 288.652344 135.925781 "/>
<path style=" stroke:none;fill-rule:nonzero;fill:rgb(0%,0%,0%);fill-opacity:1;" d="M 299.148438 135.003906 C 298.441406 136.921875 299.433594 137.699219 302.480469 137.699219 C 305.460938 137.699219 306.523438 136.921875 305.886719 135.003906 C 305.671875 134.507812 304.328125 134.152344 302.480469 134.152344 C 300.710938 134.152344 299.289062 134.507812 299.148438 135.003906 Z M 299.148438 135.003906 "/>
<path style=" stroke:none;fill-rule:nonzero;fill:rgb(0%,0%,0%);fill-opacity:1;" d="M 307.800781 135.925781 C 307.800781 137.628906 308.015625 137.699219 312.058594 137.699219 C 316.097656 137.699219 316.3125 137.628906 316.3125 135.925781 C 316.3125 134.222656 316.097656 134.152344 312.058594 134.152344 C 308.015625 134.152344 307.800781 134.222656 307.800781 135.925781 Z M 307.800781 135.925781 "/>
<path style=" stroke:none;fill-rule:nonzero;fill:rgb(0%,0%,0%);fill-opacity:1;" d="M 318.296875 135.003906 C 317.589844 136.921875 318.582031 137.699219 321.632812 137.699219 C 324.609375 137.699219 325.671875 136.921875 325.035156 135.003906 C 324.824219 134.507812 323.476562 134.152344 321.632812 134.152344 C 319.859375 134.152344 318.441406 134.507812 318.296875 135.003906 Z M 318.296875 135.003906 "/>
<path style=" stroke:none;fill-rule:nonzero;fill:rgb(0%,0%,0%);fill-opacity:1;" d="M 326.949219 135.925781 C 326.949219 137.628906 327.164062 137.699219 331.207031 137.699219 C 335.25 137.699219 335.460938 137.628906 335.460938 135.925781 C 335.460938 134.222656 335.25 134.152344 331.207031 134.152344 C 327.164062 134.152344 326.949219 134.222656 326.949219 135.925781 Z M 326.949219 135.925781 "/>
<path style=" stroke:none;fill-rule:nonzero;fill:rgb(0%,0%,0%);fill-opacity:1;" d="M 337.445312 135.003906 C 336.738281 136.921875 337.730469 137.699219 340.851562 137.699219 C 343.6875 137.699219 343.972656 137.558594 343.972656 135.925781 C 343.972656 134.292969 343.6875 134.152344 340.851562 134.152344 C 339.007812 134.152344 337.589844 134.507812 337.445312 135.003906 Z M 337.445312 135.003906 "/>
<path style=" stroke:none;fill-rule:nonzero;fill:rgb(0%,0%,0%);fill-opacity:1;" d="M 346.097656 135.925781 C 346.097656 137.628906 346.3125 137.699219 350.355469 137.699219 C 354.398438 137.699219 354.609375 137.628906 354.609375 135.925781 C 354.609375 134.222656 354.398438 134.152344 350.355469 134.152344 C 346.3125 134.152344 346.097656 134.222656 346.097656 135.925781 Z M 346.097656 135.925781 "/>
<path style=" stroke:none;fill-rule:nonzero;fill:rgb(0%,0%,0%);fill-opacity:1;" d="M 356.738281 135.996094 C 356.738281 137.628906 356.949219 137.773438 359.789062 137.558594 C 362.269531 137.417969 362.835938 137.0625 362.980469 135.714844 C 363.191406 134.292969 362.90625 134.152344 360 134.152344 C 356.949219 134.152344 356.738281 134.292969 356.738281 135.996094 Z M 356.738281 135.996094 "/>
<path style=" stroke:none;fill-rule:nonzero;fill:rgb(0%,0%,0%);fill-opacity:1;" d="M 365.390625 135.714844 C 365.601562 137.132812 366.097656 137.347656 368.792969 137.558594 C 372.480469 137.773438 374.183594 136.921875 373.546875 135.289062 C 373.191406 134.4375 372.128906 134.152344 369.148438 134.152344 C 365.390625 134.152344 365.175781 134.222656 365.390625 135.714844 Z M 365.390625 135.714844 "/>
<path style=" stroke:none;fill-rule:nonzero;fill:rgb(0%,0%,0%);fill-opacity:1;" d="M 224.964844 137.628906 C 222.058594 139.050781 222.058594 141.464844 224.964844 141.816406 C 228.722656 142.242188 231.207031 139.40625 228.9375 137.132812 C 227.941406 136.140625 228.015625 136.140625 224.964844 137.628906 Z M 224.964844 137.628906 "/>
<path style=" stroke:none;fill-rule:nonzero;fill:rgb(0%,0%,0%);fill-opacity:1;" d="M 217.019531 140.328125 C 216.027344 140.539062 214.894531 140.964844 214.46875 141.320312 C 213.617188 142.03125 213.972656 145.507812 214.894531 145.507812 C 215.671875 145.507812 220.140625 143.59375 220.710938 143.023438 C 221.277344 142.386719 220.070312 139.757812 219.289062 139.902344 C 219.007812 139.972656 218.015625 140.183594 217.019531 140.328125 Z M 217.019531 140.328125 "/>
<path style=" stroke:none;fill-rule:nonzero;fill:rgb(0%,0%,0%);fill-opacity:1;" d="M 205.746094 144.871094 C 204.539062 146.003906 204.328125 146.574219 205.035156 147.355469 C 205.460938 147.921875 206.382812 148.347656 207.09375 148.347656 C 208.722656 148.347656 212.058594 145.652344 212.058594 144.375 C 212.058594 142.8125 207.660156 143.09375 205.746094 144.871094 Z M 205.746094 144.871094 "/>
<path style=" stroke:none;fill-rule:nonzero;fill:rgb(0%,0%,0%);fill-opacity:1;" d="M 198.226562 146.714844 C 195.746094 147.355469 194.964844 148.347656 195.816406 149.910156 C 196.453125 151.046875 197.019531 151.257812 198.722656 150.902344 C 201.914062 150.265625 202.980469 149.199219 202.058594 147.566406 C 201.347656 146.21875 200.851562 146.078125 198.226562 146.714844 Z M 198.226562 146.714844 "/>
<path style=" stroke:none;fill-rule:nonzero;fill:rgb(0%,0%,0%);fill-opacity:1;" d="M 188.867188 149.769531 C 186.597656 150.691406 185.601562 152.960938 186.878906 154.027344 C 188.652344 155.515625 193.261719 153.386719 193.261719 151.1875 C 193.261719 149.199219 191.558594 148.632812 188.867188 149.769531 Z M 188.867188 149.769531 "/>
<path style=" stroke:none;fill-rule:nonzero;fill:rgb(0%,0%,0%);fill-opacity:1;" d="M 179.433594 153.246094 C 177.589844 153.742188 176.949219 155.234375 177.871094 156.722656 C 178.296875 157.363281 179.21875 157.433594 181.277344 157.007812 C 183.617188 156.511719 184.042969 156.15625 184.042969 154.734375 C 184.042969 152.820312 182.554688 152.324219 179.433594 153.246094 Z M 179.433594 153.246094 "/>
<path style=" stroke:none;fill-rule:nonzero;fill:rgb(0%,0%,0%);fill-opacity:1;" d="M 169.503906 156.867188 C 167.800781 158.570312 167.730469 159.207031 169.148438 160.414062 C 170.070312 161.195312 170.710938 161.054688 172.765625 159.988281 C 175.671875 158.425781 176.523438 157.007812 175.105469 156.085938 C 173.402344 155.019531 170.992188 155.375 169.503906 156.867188 Z M 169.503906 156.867188 "/>
<path style=" stroke:none;fill-rule:nonzero;fill:rgb(0%,0%,0%);fill-opacity:1;" d="M 161.132812 159.5625 C 158.085938 161.054688 158.367188 162.828125 161.703125 163.113281 C 165.035156 163.324219 166.242188 162.472656 165.671875 160.128906 C 165.175781 158.070312 164.46875 158 161.132812 159.5625 Z M 161.132812 159.5625 "/>
<path style=" stroke:none;fill-rule:nonzero;fill:rgb(0%,0%,0%);fill-opacity:1;" d="M 151.632812 162.332031 C 150.78125 162.542969 150.355469 163.324219 150.355469 164.746094 C 150.355469 167.15625 151.984375 167.441406 155.390625 165.667969 C 159.363281 163.679688 156.382812 160.980469 151.632812 162.332031 Z M 151.632812 162.332031 "/>
<path style=" stroke:none;fill-rule:nonzero;fill:rgb(0%,0%,0%);fill-opacity:1;" d="M 125.53125 171.84375 C 122.480469 173.476562 122.199219 175.605469 124.964844 175.886719 C 127.660156 176.171875 129.789062 174.894531 129.789062 172.90625 C 129.789062 170.566406 128.511719 170.28125 125.53125 171.84375 Z M 125.53125 171.84375 "/>
<path style=" stroke:none;fill-rule:nonzero;fill:rgb(0%,0%,0%);fill-opacity:1;" d="M 118.792969 174.253906 C 118.441406 174.398438 117.234375 174.679688 116.171875 174.894531 C 114.679688 175.25 114.183594 175.746094 114.183594 177.09375 C 114.183594 178.019531 114.46875 178.941406 114.75 179.152344 C 115.746094 179.722656 120.921875 177.664062 121.132812 176.597656 C 121.347656 175.390625 119.859375 173.972656 118.792969 174.253906 Z M 118.792969 174.253906 "/>
<path style=" stroke:none;fill-rule:nonzero;fill:rgb(0%,0%,0%);fill-opacity:1;" d="M 107.234375 177.945312 C 105.53125 178.796875 104.964844 179.507812 105.105469 180.574219 C 105.53125 183.484375 112.058594 181.851562 112.058594 178.871094 C 112.058594 178.160156 111.558594 177.378906 110.921875 177.164062 C 109.574219 176.667969 110 176.527344 107.234375 177.945312 Z M 107.234375 177.945312 "/>
<path style=" stroke:none;fill-rule:nonzero;fill:rgb(0%,0%,0%);fill-opacity:1;" d="M 98.085938 181.070312 C 93.828125 182.277344 95.886719 185.824219 100.140625 184.691406 C 102.625 184.050781 103.6875 181.992188 101.984375 180.929688 C 100.921875 180.21875 101.0625 180.21875 98.085938 181.070312 Z M 98.085938 181.070312 "/>
<path style=" stroke:none;fill-rule:nonzero;fill:rgb(0%,0%,0%);fill-opacity:1;" d="M 88.511719 184.335938 C 86.027344 185.894531 85.957031 187.953125 88.226562 188.523438 C 90.566406 189.089844 93.757812 186.960938 93.476562 184.972656 C 93.191406 183.058594 90.992188 182.773438 88.511719 184.335938 Z M 88.511719 184.335938 "/>
<path style=" stroke:none;fill-rule:nonzero;fill:rgb(0%,0%,0%);fill-opacity:1;" d="M 81.207031 186.960938 C 77.730469 188.238281 77.234375 188.734375 78.015625 190.226562 C 78.582031 191.289062 79.21875 191.503906 81.0625 191.148438 C 84.113281 190.582031 85.035156 189.730469 84.609375 188.027344 C 84.113281 186.179688 83.757812 186.109375 81.207031 186.960938 Z M 81.207031 186.960938 "/>
<path style=" stroke:none;fill-rule:nonzero;fill:rgb(0%,0%,0%);fill-opacity:1;" d="M 70.425781 190.582031 C 68.582031 191.859375 68.296875 194.34375 69.789062 194.910156 C 70.355469 195.125 71.984375 194.769531 73.402344 194.058594 C 75.320312 193.207031 75.886719 192.496094 75.746094 191.363281 C 75.460938 189.445312 72.554688 189.019531 70.425781 190.582031 Z M 70.425781 190.582031 "/>
<path style=" stroke:none;fill-rule:nonzero;fill:rgb(0%,0%,0%);fill-opacity:1;" d="M 61.488281 193.5625 C 59.007812 194.839844 59.21875 196.898438 61.84375 197.183594 C 64.609375 197.535156 66.808594 196.117188 66.523438 194.273438 C 66.242188 192.355469 64.253906 192.070312 61.488281 193.5625 Z M 61.488281 193.5625 "/>
<path style=" stroke:none;fill-rule:nonzero;fill:rgb(0%,0%,0%);fill-opacity:1;" d="M 52.339844 196.402344 C 50.992188 196.757812 50 199.027344 50.710938 200.164062 C 51.84375 202.007812 57.589844 199.878906 57.304688 197.679688 C 57.09375 196.257812 54.894531 195.691406 52.339844 196.402344 Z M 52.339844 196.402344 "/>
<path style=" stroke:none;fill-rule:nonzero;fill:rgb(0%,0%,0%);fill-opacity:1;" d="M 43.402344 199.878906 C 41.703125 200.589844 41.132812 201.226562 41.417969 202.007812 C 41.632812 202.648438 41.84375 203.285156 41.84375 203.429688 C 41.84375 203.855469 45.816406 203.785156 47.09375 203.285156 C 47.800781 203.003906 48.226562 202.007812 48.226562 200.800781 C 48.226562 198.460938 47.164062 198.246094 43.402344 199.878906 Z M 43.402344 199.878906 "/>
<path style=" stroke:none;fill-rule:nonzero;fill:rgb(0%,0%,0%);fill-opacity:1;" d="M 34.253906 202.71875 C 33.332031 203.144531 32.90625 207.261719 33.828125 207.261719 C 35.53125 207.261719 39.714844 204.707031 39.574219 203.710938 C 39.363281 202.648438 35.957031 202.007812 34.253906 202.71875 Z M 34.253906 202.71875 "/>
<path style=" stroke:none;fill-rule:nonzero;fill:rgb(0%,0%,0%);fill-opacity:1;" d="M 25.746094 206.339844 C 23.972656 207.546875 23.617188 209.035156 25.035156 209.605469 C 27.019531 210.3125 31.132812 207.402344 30.140625 205.839844 C 29.503906 204.847656 27.589844 204.988281 25.746094 206.339844 Z M 25.746094 206.339844 "/>
</g>
</svg>
