<?xml version="1.0" encoding="UTF-8"?>
<svg xmlns="http://www.w3.org/2000/svg" xmlns:xlink="http://www.w3.org/1999/xlink" width="398pt" height="215pt" viewBox="0 0 398 215" version="1.1">
<g id="surface1">
<path style=" stroke:none;fill-rule:nonzero;fill:rgb(0%,0%,0%);fill-opacity:1;" d="M 8.035156 6.320312 C 7.519531 7.023438 7.335938 70.558594 7.800781 71.402344 C 8.175781 72.058594 15.554688 72.152344 83.289062 72.152344 C 124.585938 72.152344 158.59375 72.011719 158.828125 71.871094 C 159.574219 71.402344 159.433594 7.867188 158.6875 6.882812 C 158.171875 6.132812 153.40625 6.039062 83.195312 5.945312 C 33.679688 5.898438 8.222656 5.992188 8.035156 6.320312 Z M 155.648438 10.535156 C 156.164062 10.722656 156.257812 15.917969 156.164062 39.46875 C 156.117188 55.203125 156.070312 68.265625 156.023438 68.453125 C 156.023438 68.964844 12.050781 68.917969 11.351562 68.453125 C 10.882812 68.171875 10.742188 61.617188 10.699219 39.65625 C 10.699219 24.066406 10.789062 11.050781 10.976562 10.769531 C 11.257812 10.300781 154.339844 10.019531 155.648438 10.535156 Z M 155.648438 10.535156 "/>
<path style=" stroke:none;fill-rule:nonzero;fill:rgb(0%,0%,0%);fill-opacity:1;" d="M 225.578125 6.273438 C 224.457031 7.445312 225.859375 12.96875 227.683594 14.46875 C 228.101562 14.796875 228.429688 15.355469 228.429688 15.683594 C 228.429688 16.011719 228.945312 16.621094 229.550781 16.996094 C 230.109375 17.417969 231 18.492188 231.417969 19.382812 C 231.839844 20.320312 232.726562 21.585938 233.289062 22.238281 C 233.894531 22.894531 234.550781 24.019531 234.734375 24.675781 C 235.0625 26.03125 236.511719 28 239.5 31.042969 C 240.574219 32.164062 241.835938 34.132812 242.351562 35.488281 C 242.910156 36.941406 244.125 38.71875 245.246094 39.84375 C 246.320312 40.875 247.394531 42.324219 247.675781 43.074219 C 247.910156 43.824219 248.609375 44.761719 249.265625 45.183594 C 249.917969 45.601562 250.386719 46.351562 250.386719 47.007812 C 250.386719 47.570312 250.851562 48.460938 251.367188 48.972656 C 251.925781 49.441406 252.675781 50.566406 253.046875 51.363281 C 253.375 52.203125 253.839844 52.90625 254.074219 52.90625 C 254.355469 52.90625 254.683594 53.328125 254.824219 53.84375 C 255.007812 54.359375 255.851562 55.574219 256.738281 56.558594 C 257.671875 57.496094 259.121094 59.742188 260.007812 61.523438 C 260.988281 63.488281 262.4375 65.457031 263.699219 66.578125 C 264.867188 67.609375 265.800781 68.734375 265.800781 69.058594 C 265.800781 69.433594 266.269531 70.277344 266.875 70.933594 L 267.902344 72.152344 L 310.273438 72.152344 C 333.535156 72.199219 352.78125 72.105469 353.015625 71.964844 C 353.25 71.824219 354.042969 70.464844 354.789062 68.917969 C 355.722656 66.953125 356.613281 65.921875 357.78125 65.269531 C 358.992188 64.613281 359.507812 63.957031 359.742188 62.785156 C 359.929688 61.945312 360.253906 61.101562 360.535156 60.914062 C 360.769531 60.773438 361.421875 59.789062 361.9375 58.714844 C 362.449219 57.683594 363.246094 56.558594 363.617188 56.230469 C 364.039062 55.855469 364.367188 55.34375 364.367188 55.015625 C 364.367188 54.6875 364.878906 54.078125 365.535156 53.65625 C 366.1875 53.234375 366.703125 52.578125 366.703125 52.203125 C 366.703125 51.785156 367.496094 50.613281 368.523438 49.488281 C 369.503906 48.414062 370.4375 47.007812 370.578125 46.351562 C 370.953125 44.808594 372.867188 42.136719 375.71875 39.234375 C 376.933594 37.972656 377.914062 36.613281 377.914062 36.238281 C 377.914062 35.210938 380.015625 31.746094 381.417969 30.433594 C 382.070312 29.824219 382.585938 29.074219 382.585938 28.746094 C 382.585938 28.46875 383.425781 27.34375 384.453125 26.265625 C 385.480469 25.234375 386.320312 24.066406 386.320312 23.691406 C 386.320312 23.363281 386.976562 22.285156 387.722656 21.304688 C 388.46875 20.320312 389.125 19.242188 389.125 18.914062 C 389.125 18.585938 389.453125 18.027344 389.824219 17.605469 C 390.199219 17.230469 390.710938 16.386719 390.992188 15.730469 C 391.226562 15.078125 391.742188 14.515625 392.066406 14.515625 C 393.796875 14.515625 395.945312 8.707031 394.871094 6.835938 C 394.496094 6.132812 387.535156 6.085938 310.273438 5.945312 C 257.53125 5.898438 225.859375 6.039062 225.578125 6.273438 Z M 390.621094 11.425781 C 390.527344 11.890625 389.777344 12.96875 388.9375 13.765625 C 387.628906 15.03125 385.855469 18.027344 385.855469 18.960938 C 385.855469 19.195312 384.921875 20.367188 383.753906 21.585938 C 382.585938 22.800781 381.648438 24.113281 381.648438 24.488281 C 381.648438 24.863281 381.136719 25.375 380.527344 25.65625 C 379.921875 25.9375 379.316406 26.6875 379.128906 27.34375 C 378.800781 28.652344 376.089844 32.773438 375.53125 32.773438 C 375.34375 32.773438 375.0625 33.382812 374.875 34.132812 C 374.738281 34.882812 373.664062 36.425781 372.585938 37.550781 C 371.464844 38.671875 369.785156 41.109375 368.898438 42.933594 C 367.964844 44.761719 366.1875 47.289062 364.925781 48.554688 C 363.480469 50.003906 362.359375 51.691406 361.796875 53.28125 C 361.28125 54.640625 360.117188 56.558594 359.132812 57.589844 C 358.152344 58.574219 357.359375 59.648438 357.359375 59.882812 C 357.359375 60.164062 356.9375 60.585938 356.472656 60.867188 C 355.957031 61.101562 355.445312 61.945312 355.257812 62.691406 C 355.117188 63.441406 354.554688 64.425781 353.996094 64.894531 C 353.480469 65.410156 352.875 66.25 352.640625 66.859375 C 352.40625 67.421875 351.707031 68.125 351.054688 68.359375 C 350.257812 68.640625 334.984375 68.828125 310.132812 68.828125 L 270.425781 68.828125 L 269.304688 67.65625 C 268.648438 67.046875 268.136719 66.34375 268.136719 66.109375 C 268.136719 65.875 267.761719 65.546875 267.25 65.410156 C 266.78125 65.316406 265.800781 64.191406 265.054688 62.925781 C 264.351562 61.664062 263.371094 60.351562 262.902344 60.023438 C 262.4375 59.695312 262.0625 59.132812 262.0625 58.761719 C 262.0625 58.386719 261.78125 57.917969 261.410156 57.730469 C 261.082031 57.542969 260.429688 56.605469 259.960938 55.714844 C 259.492188 54.828125 258.746094 53.5625 258.28125 52.953125 C 257.765625 52.34375 257.390625 51.457031 257.390625 50.988281 C 257.390625 50.472656 256.597656 49.582031 255.523438 48.878906 C 254.496094 48.226562 253.5625 47.195312 253.375 46.632812 C 253.234375 46.117188 252.8125 45.324219 252.488281 44.949219 C 252.160156 44.574219 251.554688 43.261719 251.085938 42.042969 C 250.523438 40.546875 249.730469 39.46875 248.46875 38.582031 C 247.207031 37.691406 246.601562 36.894531 246.367188 35.769531 C 246.226562 34.882812 245.902344 34.179688 245.714844 34.179688 C 245.292969 34.179688 242.164062 29.355469 241.742188 28.09375 C 241.554688 27.578125 241.277344 27.15625 241.042969 27.15625 C 240.808594 27.15625 239.875 26.03125 238.988281 24.628906 C 238.097656 23.222656 236.929688 21.863281 236.464844 21.585938 C 235.949219 21.304688 235.390625 20.554688 235.25 19.851562 C 234.828125 18.167969 232.726562 15.121094 230.625 13.015625 C 229.644531 12.078125 228.945312 11.050781 229.128906 10.769531 C 229.316406 10.441406 254.636719 10.347656 310.085938 10.394531 C 388.890625 10.535156 390.757812 10.535156 390.621094 11.425781 Z M 390.621094 11.425781 "/>
<path style=" stroke:none;fill-rule:nonzero;fill:rgb(0%,0%,0%);fill-opacity:1;" d="M 287.894531 77.863281 C 285.839844 78.660156 283.644531 81.5625 283.269531 84.089844 C 282.757812 87.789062 283.363281 90.082031 285.605469 92.46875 C 287.570312 94.53125 287.664062 94.578125 290.464844 94.578125 C 292.753906 94.578125 293.546875 94.390625 294.296875 93.640625 C 294.808594 93.125 295.230469 92.5625 295.230469 92.332031 C 295.230469 92.144531 295.695312 91.769531 296.304688 91.535156 C 297.097656 91.160156 297.332031 90.738281 297.238281 89.425781 C 296.957031 85.679688 296.492188 85.214844 292.847656 85.074219 C 290 84.933594 289.765625 88.070312 292.613281 88.398438 C 295.605469 88.773438 294.15625 91.300781 290.980469 91.300781 C 287.289062 91.300781 285.886719 89.753906 285.886719 85.726562 C 285.886719 83.855469 286.121094 83.152344 287.242188 81.984375 C 289.015625 80.0625 291.726562 79.921875 293.363281 81.703125 C 293.96875 82.355469 294.855469 82.871094 295.324219 82.871094 C 296.304688 82.871094 297.003906 81.5625 296.304688 81.046875 C 296.023438 80.90625 295.605469 80.296875 295.277344 79.6875 C 294.667969 78.566406 291.960938 77.253906 290.371094 77.300781 C 289.859375 77.300781 288.738281 77.582031 287.894531 77.863281 Z M 287.894531 77.863281 "/>
<path style=" stroke:none;fill-rule:nonzero;fill:rgb(0%,0%,0%);fill-opacity:1;" d="M 57.738281 78.613281 C 57.175781 79.265625 57.039062 80.8125 57.128906 86.851562 L 57.222656 94.34375 L 58.484375 94.484375 C 59.511719 94.625 59.839844 94.390625 60.074219 93.40625 C 60.214844 92.75 60.214844 91.160156 60.074219 89.847656 L 59.746094 87.554688 L 63.015625 87.554688 C 66.472656 87.554688 66.847656 87.273438 66.332031 85.214844 C 66.101562 84.183594 65.820312 84.042969 63.671875 83.996094 C 60.492188 83.902344 59.792969 83.574219 59.792969 82.21875 C 59.792969 81.234375 60.074219 81 61.335938 80.8125 C 62.128906 80.671875 63.8125 80.625 65.023438 80.671875 C 67.640625 80.765625 68.808594 79.96875 67.640625 78.847656 C 66.519531 77.722656 58.671875 77.535156 57.738281 78.613281 Z M 57.738281 78.613281 "/>
<path style=" stroke:none;fill-rule:nonzero;fill:rgb(0%,0%,0%);fill-opacity:1;" d="M 70.398438 78.378906 C 69.929688 78.847656 69.648438 80.953125 69.464844 85.914062 C 69.136719 93.359375 69.417969 94.71875 71.144531 94.484375 C 72.125 94.34375 72.171875 94.109375 72.453125 86.851562 C 72.828125 78.285156 72.359375 76.410156 70.398438 78.378906 Z M 70.398438 78.378906 "/>
<path style=" stroke:none;fill-rule:nonzero;fill:rgb(0%,0%,0%);fill-opacity:1;" d="M 78.851562 78.894531 C 78.480469 79.734375 78.480469 80.203125 78.898438 80.71875 C 79.367188 81.28125 79.226562 81.421875 78.152344 81.65625 C 77.40625 81.84375 76.238281 82.449219 75.488281 83.011719 C 74.226562 84.042969 74.226562 84.136719 74.929688 84.886719 C 75.675781 85.636719 75.863281 85.636719 77.496094 84.652344 C 79.785156 83.339844 80.90625 83.714844 80.722656 85.773438 C 80.582031 87.273438 80.488281 87.320312 78.152344 87.554688 C 76.285156 87.742188 75.535156 88.070312 74.789062 89.050781 C 73.621094 90.503906 73.527344 91.441406 74.507812 92.238281 C 74.882812 92.5625 75.207031 93.078125 75.207031 93.40625 C 75.207031 93.734375 75.535156 94.15625 75.957031 94.296875 C 77.171875 94.765625 80.253906 94.625 80.582031 94.0625 C 80.769531 93.78125 81.46875 93.734375 82.261719 93.875 L 83.617188 94.203125 L 83.617188 83.433594 L 81.890625 82.402344 L 80.113281 81.375 L 81.1875 80.484375 C 82.074219 79.78125 82.167969 79.453125 81.75 78.660156 C 81.046875 77.347656 79.507812 77.488281 78.851562 78.894531 Z M 80.722656 90.222656 C 80.582031 91.347656 80.347656 91.535156 78.851562 91.675781 C 77.453125 91.816406 77.125 91.628906 76.84375 90.785156 C 76.421875 89.519531 77.21875 88.960938 79.320312 88.960938 C 80.722656 88.960938 80.859375 89.050781 80.722656 90.222656 Z M 80.722656 90.222656 "/>
<path style=" stroke:none;fill-rule:nonzero;fill:rgb(0%,0%,0%);fill-opacity:1;" d="M 96.789062 78.285156 C 95.808594 79.265625 96.136719 80.484375 97.445312 80.8125 C 99.125 81.234375 100.246094 80.109375 99.546875 78.707031 C 98.9375 77.628906 97.679688 77.394531 96.789062 78.285156 Z M 96.789062 78.285156 "/>
<path style=" stroke:none;fill-rule:nonzero;fill:rgb(0%,0%,0%);fill-opacity:1;" d="M 299.761719 78.050781 C 299.574219 78.191406 299.433594 81.890625 299.433594 86.242188 C 299.433594 93.125 299.527344 94.15625 300.183594 94.4375 C 301.304688 94.859375 302.238281 93.359375 302.238281 91.207031 C 302.238281 89.285156 302.9375 88.820312 303.40625 90.363281 C 303.546875 90.878906 304.105469 91.535156 304.621094 91.816406 C 305.132812 92.050781 305.742188 92.796875 305.972656 93.453125 C 306.347656 94.390625 306.722656 94.578125 308.402344 94.578125 C 310.691406 94.578125 310.972656 94.4375 312.421875 92.378906 C 313.261719 91.160156 313.449219 90.222656 313.449219 87.601562 C 313.449219 84.417969 313.402344 84.230469 311.8125 82.824219 C 310.179688 81.328125 310.179688 81.28125 311.066406 80.34375 C 311.765625 79.59375 311.859375 79.171875 311.53125 78.519531 C 310.550781 76.785156 307.5625 78.285156 308.03125 80.25 C 308.167969 81 307.796875 81.515625 306.160156 82.542969 C 304.667969 83.527344 303.964844 84.324219 303.589844 85.726562 C 302.65625 88.773438 302.144531 87.835938 302.332031 83.386719 C 302.425781 80.390625 302.285156 79.03125 301.816406 78.472656 C 301.164062 77.675781 300.273438 77.488281 299.761719 78.050781 Z M 310.832031 85.308594 C 311.253906 85.867188 311.578125 87.132812 311.578125 88.070312 C 311.578125 90.269531 310.367188 91.441406 308.214844 91.207031 C 306.910156 91.066406 306.628906 90.832031 306.441406 89.660156 C 306.019531 87.179688 306.441406 85.167969 307.5625 84.746094 C 309.199219 84.089844 310.085938 84.230469 310.832031 85.308594 Z M 310.832031 85.308594 "/>
<path style=" stroke:none;fill-rule:nonzero;fill:rgb(0%,0%,0%);fill-opacity:1;" d="M 322.324219 78.378906 C 322.042969 78.660156 321.855469 79.21875 321.855469 79.6875 C 321.855469 80.390625 322.230469 80.53125 323.957031 80.53125 C 325.875 80.53125 326.0625 80.4375 326.0625 79.359375 C 326.0625 78.707031 325.921875 78.191406 325.734375 78.144531 C 323.679688 77.910156 322.699219 78.003906 322.324219 78.378906 Z M 322.324219 78.378906 "/>
<path style=" stroke:none;fill-rule:nonzero;fill:rgb(0%,0%,0%);fill-opacity:1;" d="M 86 82.355469 C 85.160156 82.871094 85.671875 85.773438 86.933594 87.835938 C 87.402344 88.632812 87.820312 89.753906 87.820312 90.269531 C 87.820312 91.628906 89.269531 94.015625 90.25 94.25 C 91.324219 94.53125 91.886719 93.828125 92.304688 91.535156 C 92.492188 90.503906 93.054688 89.097656 93.519531 88.445312 C 94.453125 87.179688 95.15625 83.855469 94.6875 82.683594 C 94.175781 81.328125 92.539062 82.402344 91.980469 84.464844 C 90.859375 88.726562 89.921875 88.867188 88.570312 85.027344 C 87.542969 82.125 87.074219 81.65625 86 82.355469 Z M 86 82.355469 "/>
<path style=" stroke:none;fill-rule:nonzero;fill:rgb(0%,0%,0%);fill-opacity:1;" d="M 102.394531 82.683594 C 101.226562 83.480469 101.089844 84.371094 102.023438 85.167969 C 102.488281 85.589844 102.957031 85.589844 103.65625 85.261719 C 104.21875 84.980469 105.105469 84.511719 105.621094 84.230469 C 106.925781 83.574219 107.582031 84.230469 107.347656 85.960938 C 107.207031 87.226562 107.066406 87.320312 104.871094 87.460938 C 102.816406 87.601562 102.394531 87.835938 101.226562 89.332031 C 100.105469 90.832031 100.015625 91.113281 100.621094 91.582031 C 100.996094 91.863281 101.554688 92.65625 101.789062 93.3125 C 102.210938 94.4375 102.535156 94.578125 104.5 94.578125 C 105.757812 94.578125 107.066406 94.390625 107.441406 94.109375 C 107.863281 93.875 108.328125 93.875 108.703125 94.203125 C 109.03125 94.4375 109.589844 94.578125 109.964844 94.4375 C 110.523438 94.203125 110.664062 93.125 110.617188 88.960938 C 110.570312 83.996094 110.523438 83.714844 109.402344 82.871094 C 107.957031 81.703125 103.9375 81.609375 102.394531 82.683594 Z M 107.675781 89.425781 C 107.816406 89.707031 107.816406 90.316406 107.675781 90.878906 C 107.441406 91.628906 107.019531 91.816406 105.667969 91.675781 C 103.84375 91.535156 103.003906 90.175781 104.265625 89.378906 C 105.105469 88.820312 107.300781 88.867188 107.675781 89.425781 Z M 107.675781 89.425781 "/>
<path style=" stroke:none;fill-rule:nonzero;fill:rgb(0%,0%,0%);fill-opacity:1;" d="M 318.351562 82.21875 C 317.839844 82.355469 316.953125 82.542969 316.34375 82.683594 C 315.316406 82.871094 315.269531 83.011719 315.410156 88.351562 L 315.550781 93.78125 L 316.90625 94.25 C 318.726562 94.859375 319.054688 94.203125 319.054688 89.378906 C 319.054688 85.589844 319.148438 85.261719 320.222656 84.558594 C 321.390625 83.808594 321.4375 83.808594 321.855469 85.027344 C 322.136719 85.726562 322.230469 87.460938 322.042969 89.007812 C 321.578125 93.078125 321.996094 94.109375 323.957031 94.109375 C 325.40625 94.109375 325.59375 93.96875 325.640625 92.796875 C 325.6875 91.628906 325.6875 83.949219 325.640625 83.292969 C 325.59375 83.105469 324.800781 82.871094 323.867188 82.730469 C 322.882812 82.589844 321.484375 82.355469 320.6875 82.265625 C 319.941406 82.125 318.867188 82.125 318.351562 82.21875 Z M 318.351562 82.21875 "/>
<path style=" stroke:none;fill-rule:nonzero;fill:rgb(0%,0%,0%);fill-opacity:1;" d="M 328.210938 82.871094 C 326.339844 84.746094 328.816406 86.054688 331.152344 84.417969 C 332.226562 83.714844 332.320312 83.714844 332.882812 84.511719 C 334.328125 86.476562 333.488281 87.554688 330.546875 87.554688 C 327.835938 87.554688 326.527344 90.035156 327.835938 92.703125 C 328.628906 94.296875 328.722656 94.34375 330.964844 94.25 C 332.273438 94.15625 334.1875 94.15625 335.308594 94.15625 L 337.273438 94.15625 L 337.273438 89.007812 C 337.273438 84.042969 337.226562 83.855469 336.058594 82.917969 C 334.375 81.5625 329.519531 81.5625 328.210938 82.871094 Z M 334.1875 89.332031 C 334.328125 89.566406 334.097656 90.175781 333.722656 90.738281 C 332.648438 92.332031 329.332031 92.003906 329.332031 90.363281 C 329.332031 89.894531 329.703125 89.378906 330.171875 89.285156 C 331.574219 88.914062 333.957031 88.960938 334.1875 89.332031 Z M 334.1875 89.332031 "/>
<path style=" stroke:none;fill-rule:nonzero;fill:rgb(0%,0%,0%);fill-opacity:1;" d="M 96.652344 82.730469 C 96.652344 82.964844 96.605469 85.496094 96.558594 88.398438 C 96.511719 92.46875 96.652344 93.78125 97.117188 94.109375 C 98.144531 94.71875 98.9375 94.15625 99.171875 92.5625 C 99.453125 90.457031 99.265625 83.574219 98.847656 82.964844 C 98.472656 82.355469 96.695312 82.21875 96.652344 82.730469 Z M 96.652344 82.730469 "/>
<path style=" stroke:none;fill-rule:nonzero;fill:rgb(0%,0%,0%);fill-opacity:1;" d="M 298.03125 119.019531 C 297.191406 119.484375 296.863281 120.046875 296.863281 121.03125 C 296.863281 122.390625 296.816406 122.4375 294.015625 122.714844 C 292.425781 122.855469 290.417969 123.417969 289.578125 123.886719 C 288.691406 124.402344 286.960938 125.105469 285.652344 125.433594 C 280.1875 126.789062 278.132812 127.539062 277.199219 128.335938 C 276.683594 128.851562 275.609375 129.226562 274.816406 129.226562 C 274.023438 129.226562 272.902344 129.597656 272.292969 130.113281 C 271.6875 130.582031 270.238281 131.144531 269.070312 131.332031 C 267.902344 131.519531 266.640625 131.988281 266.175781 132.363281 C 265.519531 132.96875 262.8125 133.8125 256.972656 135.3125 C 256.085938 135.546875 254.730469 136.199219 253.980469 136.761719 C 253.09375 137.417969 251.644531 137.886719 250.199219 138.027344 C 248.890625 138.121094 247.628906 138.496094 247.347656 138.777344 C 247.113281 139.105469 246.132812 139.617188 245.152344 139.945312 C 244.21875 140.273438 243.332031 140.789062 243.238281 141.117188 C 243.097656 141.492188 241.882812 141.914062 240.480469 142.101562 C 237.820312 142.429688 235.109375 143.222656 234.175781 143.878906 C 233.242188 144.582031 233.476562 146.128906 234.503906 146.40625 C 235.015625 146.546875 236.230469 148.09375 237.351562 150.011719 C 238.378906 151.839844 239.546875 153.523438 239.921875 153.710938 C 240.292969 153.898438 240.574219 154.507812 240.574219 155.023438 C 240.574219 156.285156 241.414062 157.785156 242.117188 157.785156 C 243.050781 157.832031 247.347656 164.714844 247.769531 166.914062 C 247.957031 167.945312 248.5625 168.601562 249.730469 169.257812 C 250.804688 169.816406 251.460938 170.566406 251.644531 171.457031 C 251.785156 172.160156 252.394531 173.046875 252.953125 173.421875 C 253.515625 173.796875 254.167969 174.6875 254.308594 175.390625 C 254.636719 176.699219 256.363281 179.417969 257.019531 179.699219 C 257.953125 180.117188 258.792969 181.335938 258.792969 182.320312 C 258.792969 182.929688 259.074219 183.675781 259.449219 183.957031 C 259.960938 184.378906 270.144531 184.519531 300.460938 184.519531 C 322.652344 184.519531 340.914062 184.472656 341.054688 184.472656 C 341.195312 184.472656 341.523438 184.003906 341.804688 183.441406 C 342.082031 182.835938 343.390625 181.148438 344.792969 179.652344 C 346.148438 178.152344 347.597656 176.046875 347.96875 174.96875 C 348.996094 172.253906 350.773438 169.492188 351.519531 169.492188 C 351.894531 169.492188 352.828125 168.273438 353.714844 166.773438 C 354.554688 165.324219 355.492188 163.683594 355.816406 163.167969 C 356.097656 162.65625 356.660156 161.578125 357.03125 160.828125 C 357.40625 160.03125 358.480469 158.675781 359.414062 157.832031 C 360.394531 156.894531 361.097656 155.726562 361.097656 155.117188 C 361.097656 154.507812 361.84375 153.382812 362.964844 152.355469 C 363.945312 151.417969 365.066406 149.871094 365.347656 148.9375 C 365.675781 148 366.421875 146.78125 367.027344 146.171875 C 367.683594 145.613281 368.101562 144.863281 368.011719 144.535156 C 367.683594 143.597656 365.253906 142.664062 362.078125 142.242188 C 360.023438 142.007812 358.621094 141.539062 357.546875 140.695312 C 356.707031 140.039062 355.816406 139.523438 355.585938 139.523438 C 355.351562 139.523438 354.882812 139.199219 354.554688 138.824219 C 354.183594 138.402344 353.15625 138.121094 351.753906 138.121094 C 350.070312 138.121094 349.277344 137.839844 348.296875 136.949219 C 347.597656 136.292969 346.476562 135.6875 345.773438 135.546875 C 341.148438 134.5625 335.636719 132.875 334.890625 132.222656 C 334.515625 131.847656 333.441406 131.425781 332.554688 131.285156 C 331.667969 131.097656 330.640625 130.722656 330.265625 130.394531 C 329.890625 130.113281 328.351562 129.597656 326.902344 129.273438 C 325.40625 128.945312 324.050781 128.382812 323.820312 128.007812 C 323.585938 127.632812 321.390625 126.789062 318.867188 126.179688 C 316.34375 125.574219 313.542969 124.589844 312.609375 124.074219 C 311.671875 123.511719 309.664062 122.902344 308.121094 122.761719 C 305.414062 122.4375 305.273438 122.34375 305.414062 121.21875 C 305.460938 120.515625 305.226562 119.765625 304.898438 119.484375 C 303.871094 118.597656 299.339844 118.316406 298.03125 119.019531 Z M 305.085938 124.964844 C 307.234375 125.949219 310.039062 126.929688 311.347656 127.117188 C 312.652344 127.304688 314.195312 127.914062 314.894531 128.476562 C 315.644531 129.132812 317.09375 129.644531 318.398438 129.832031 C 319.660156 129.972656 321.53125 130.535156 322.558594 131.050781 C 323.539062 131.613281 324.660156 132.035156 324.941406 132.035156 C 325.265625 132.035156 325.59375 132.363281 325.734375 132.691406 C 325.875 133.0625 326.808594 133.53125 327.789062 133.671875 C 328.769531 133.859375 331.105469 134.515625 333.019531 135.125 C 334.890625 135.734375 336.804688 136.246094 337.226562 136.246094 C 337.644531 136.246094 338.628906 136.667969 339.46875 137.183594 C 340.308594 137.652344 342.035156 138.214844 343.296875 138.402344 C 344.605469 138.589844 345.914062 139.011719 346.242188 139.386719 C 346.523438 139.757812 347.410156 140.367188 348.203125 140.695312 C 348.996094 141.070312 349.976562 141.585938 350.351562 141.820312 C 350.726562 142.054688 352.128906 142.476562 353.386719 142.710938 C 356.660156 143.410156 359.789062 144.253906 360.722656 144.722656 C 361.191406 144.957031 361.84375 145.144531 362.21875 145.144531 C 363.386719 145.144531 363.523438 146.035156 362.542969 147.4375 C 362.03125 148.1875 361.375 149.3125 361.097656 150.011719 C 360.863281 150.714844 360.253906 151.371094 359.835938 151.558594 C 358.386719 152.074219 357.03125 153.757812 356.660156 155.351562 C 356.332031 156.988281 353.480469 161.53125 352.40625 162.140625 C 352.035156 162.328125 351.753906 162.796875 351.753906 163.167969 C 351.753906 163.542969 351.332031 164.058594 350.820312 164.339844 C 350.304688 164.621094 349.886719 165.042969 349.886719 165.324219 C 349.886719 165.558594 349.324219 166.632812 348.625 167.757812 C 347.921875 168.835938 346.847656 170.707031 346.242188 171.972656 C 345.632812 173.1875 344.699219 174.40625 344.234375 174.6875 C 343.765625 174.921875 343.34375 175.4375 343.34375 175.765625 C 343.34375 176.140625 342.316406 177.496094 341.054688 178.808594 L 338.765625 181.195312 L 301.304688 181.195312 C 274.582031 181.195312 263.558594 181.054688 262.859375 180.679688 C 261.550781 180.023438 258.792969 177.402344 258.792969 176.839844 C 258.792969 176.652344 258.28125 175.765625 257.671875 174.96875 C 257.113281 174.125 256.128906 172.441406 255.523438 171.222656 C 254.917969 169.863281 254.027344 168.789062 253.375 168.554688 C 252.765625 168.320312 252.253906 167.757812 252.253906 167.335938 C 252.253906 166.445312 249.449219 162 248.890625 162 C 248.703125 162 248.003906 160.96875 247.347656 159.703125 C 246.742188 158.441406 245.992188 157.269531 245.714844 157.082031 C 245.480469 156.941406 245.246094 156.425781 245.246094 155.960938 C 245.246094 154.976562 244.125 153.429688 241.789062 151.277344 C 240.0625 149.683594 238.707031 147.296875 238.707031 145.941406 C 238.707031 145.332031 248.144531 142.289062 250.011719 142.335938 C 250.433594 142.335938 251.085938 142.054688 251.414062 141.679688 C 251.785156 141.351562 252.71875 140.882812 253.515625 140.742188 C 254.308594 140.554688 255.289062 140.039062 255.757812 139.523438 C 256.175781 139.058594 257.4375 138.542969 258.605469 138.355469 C 259.726562 138.214844 261.78125 137.558594 263.136719 136.996094 C 265.425781 135.96875 269.070312 134.84375 273.554688 133.8125 C 274.628906 133.578125 275.890625 132.96875 276.359375 132.457031 C 276.777344 131.988281 277.617188 131.566406 278.132812 131.566406 C 278.695312 131.566406 279.769531 131.144531 280.515625 130.628906 C 281.308594 130.113281 282.617188 129.691406 283.457031 129.691406 C 284.300781 129.691406 285.558594 129.273438 286.261719 128.757812 C 287.007812 128.195312 289.203125 127.351562 291.210938 126.882812 C 295.183594 125.855469 298.6875 124.449219 299.152344 123.652344 C 299.714844 122.761719 301.023438 123.042969 305.085938 124.964844 Z M 305.085938 124.964844 "/>
<path style=" stroke:none;fill-rule:nonzero;fill:rgb(0%,0%,0%);fill-opacity:1;" d="M 54.65625 135.453125 C 53.90625 135.640625 53.019531 136.152344 52.691406 136.621094 C 52.367188 137.089844 50.871094 138.167969 49.421875 139.011719 C 47.929688 139.851562 46.714844 140.742188 46.714844 140.976562 C 46.714844 141.210938 46.152344 141.632812 45.453125 141.914062 C 43.210938 142.757812 40.171875 144.253906 39.894531 144.722656 C 39.753906 144.957031 39.238281 145.144531 38.679688 145.144531 C 38.164062 145.144531 36.808594 146.035156 35.734375 147.109375 C 33.027344 149.777344 31.71875 150.761719 30.832031 150.761719 C 29.898438 150.761719 27 152.121094 26.578125 152.777344 C 26.253906 153.242188 24.757812 154.132812 22.5625 155.210938 C 21.722656 155.585938 20.835938 156.332031 20.554688 156.800781 C 20.320312 157.316406 19.621094 157.785156 19.058594 157.878906 C 18.171875 157.972656 17.9375 158.347656 17.84375 159.984375 C 17.703125 161.90625 17.75 161.953125 19.386719 162.28125 C 20.273438 162.421875 21.253906 162.933594 21.488281 163.402344 C 21.769531 163.871094 22.703125 164.527344 23.589844 164.808594 C 24.523438 165.089844 26.207031 166.304688 27.328125 167.429688 C 28.589844 168.648438 29.851562 169.492188 30.503906 169.492188 C 31.671875 169.492188 35.96875 172.019531 35.96875 172.722656 C 35.96875 172.957031 36.671875 173.28125 37.558594 173.421875 C 38.492188 173.609375 39.472656 174.171875 39.894531 174.875 C 40.3125 175.53125 40.875 176.046875 41.109375 176.046875 C 41.386719 176.046875 42.460938 176.652344 43.535156 177.449219 C 44.566406 178.199219 45.824219 178.855469 46.246094 178.855469 C 46.714844 178.855469 47.320312 179.183594 47.648438 179.558594 C 47.976562 179.929688 48.816406 180.257812 49.5625 180.257812 C 50.3125 180.257812 50.917969 180.445312 50.917969 180.632812 C 50.917969 180.820312 51.617188 181.804688 52.507812 182.742188 L 54.09375 184.519531 L 131.265625 184.519531 L 132.714844 183.441406 C 133.507812 182.835938 134.675781 181.898438 135.28125 181.289062 C 135.9375 180.726562 136.589844 180.257812 136.777344 180.257812 C 137.011719 180.257812 137.382812 180.023438 137.664062 179.742188 C 137.992188 179.417969 139.347656 178.808594 140.703125 178.339844 C 142.101562 177.824219 143.925781 176.652344 145.046875 175.625 C 146.074219 174.59375 147.523438 173.609375 148.222656 173.421875 C 148.96875 173.28125 149.671875 172.816406 149.8125 172.488281 C 149.949219 172.113281 150.371094 171.832031 150.746094 171.832031 C 151.117188 171.832031 152.097656 171.316406 152.941406 170.660156 C 153.78125 170.003906 154.855469 169.492188 155.277344 169.492188 C 155.742188 169.492188 156.722656 168.835938 157.519531 168.085938 C 158.265625 167.289062 159.058594 166.679688 159.292969 166.679688 C 159.902344 166.679688 162.9375 164.527344 163.871094 163.449219 C 164.292969 162.933594 165.601562 162.328125 166.769531 162.140625 C 168.589844 161.8125 168.871094 161.578125 169.011719 160.453125 C 169.195312 158.722656 168.402344 157.785156 166.675781 157.785156 C 165.925781 157.785156 165.226562 157.503906 165.085938 157.128906 C 164.664062 156.007812 159.433594 152.167969 157.890625 151.886719 C 157.097656 151.699219 156.351562 151.371094 156.210938 151.183594 C 156.070312 150.949219 155.601562 150.761719 155.183594 150.761719 C 154.761719 150.761719 153.59375 150.011719 152.613281 149.125 C 150.324219 147.015625 147.566406 145.144531 146.726562 145.144531 C 146.402344 145.144531 145.417969 144.535156 144.578125 143.785156 C 143.738281 143.082031 142.289062 142.335938 141.308594 142.148438 C 140.234375 141.914062 138.878906 141.117188 137.664062 139.945312 C 136.589844 138.964844 135.515625 138.121094 135.234375 138.121094 C 134.957031 138.121094 134.253906 137.605469 133.695312 136.949219 C 133.085938 136.246094 131.964844 135.6875 130.9375 135.546875 C 128.230469 135.125 56.242188 135.03125 54.65625 135.453125 Z M 131.265625 139.523438 C 131.546875 140.039062 132.152344 140.460938 132.621094 140.460938 C 133.085938 140.460938 133.835938 140.882812 134.300781 141.398438 C 135.234375 142.429688 140.234375 145.144531 141.214844 145.144531 C 141.589844 145.144531 142.242188 145.566406 142.710938 146.082031 C 143.175781 146.59375 143.832031 147.015625 144.160156 147.015625 C 144.484375 147.015625 144.859375 147.4375 145.046875 147.90625 C 145.1875 148.46875 146.867188 149.542969 149.203125 150.714844 C 151.398438 151.746094 153.265625 152.777344 153.40625 153.054688 C 153.59375 153.289062 154.339844 153.617188 155.089844 153.804688 C 155.882812 153.992188 156.492188 154.414062 156.492188 154.789062 C 156.492188 155.164062 157.285156 155.820312 158.265625 156.238281 C 160.695312 157.269531 163.496094 159.566406 163.21875 160.359375 C 163.078125 160.6875 162.328125 161.25 161.535156 161.578125 C 160.742188 161.90625 159.574219 162.609375 158.871094 163.121094 C 157.285156 164.386719 156.117188 165.136719 154.296875 165.933594 C 153.5 166.304688 152.613281 167.054688 152.285156 167.570312 C 152.007812 168.132812 151.445312 168.554688 151.023438 168.554688 C 149.855469 168.554688 146.121094 170.425781 144.71875 171.738281 C 143.410156 172.957031 142.242188 173.703125 139.8125 174.828125 C 138.972656 175.203125 138.273438 175.71875 138.273438 175.953125 C 138.273438 176.1875 136.21875 177.402344 133.742188 178.667969 L 129.164062 180.960938 L 93.894531 181.101562 C 74.507812 181.195312 57.972656 181.101562 57.128906 180.960938 C 56.335938 180.820312 54.609375 179.976562 53.347656 179.089844 C 52.085938 178.246094 50.265625 177.355469 49.375 177.214844 C 48.300781 176.980469 47.554688 176.558594 47.414062 176 C 47.226562 175.53125 46.855469 175.109375 46.527344 175.109375 C 46.199219 175.109375 44.796875 174.265625 43.398438 173.1875 C 41.996094 172.160156 39.238281 170.472656 37.277344 169.445312 C 35.269531 168.414062 33.632812 167.382812 33.632812 167.148438 C 33.632812 166.867188 33.074219 166.445312 32.371094 166.167969 C 29.289062 165.042969 27.609375 164.058594 27.234375 163.214844 C 27 162.75 25.878906 162 24.757812 161.578125 C 21.910156 160.5 21.769531 159.425781 24.382812 158.253906 C 25.503906 157.785156 27.1875 156.613281 28.074219 155.773438 C 29.007812 154.882812 30.222656 153.992188 30.832031 153.804688 C 31.390625 153.617188 32.886719 152.867188 34.054688 152.121094 C 35.222656 151.371094 37.089844 150.339844 38.210938 149.824219 C 39.285156 149.3125 40.3125 148.609375 40.453125 148.1875 C 40.640625 147.8125 41.015625 147.484375 41.339844 147.484375 C 41.714844 147.484375 42.554688 146.96875 43.304688 146.359375 C 44.84375 145.050781 49.1875 142.800781 50.171875 142.800781 C 50.542969 142.800781 51.757812 141.867188 52.878906 140.742188 L 54.886719 138.636719 L 92.820312 138.636719 C 130.285156 138.589844 130.75 138.589844 131.265625 139.523438 Z M 131.265625 139.523438 "/>
<path style=" stroke:none;fill-rule:nonzero;fill:rgb(0%,0%,0%);fill-opacity:1;" d="M 93.660156 190.746094 C 93.101562 191.589844 93.007812 192.105469 93.378906 192.808594 C 93.800781 193.601562 93.613281 193.835938 91.746094 194.539062 C 89.96875 195.195312 89.457031 195.710938 88.710938 197.441406 C 87.402344 200.484375 87.589844 201.796875 89.503906 204.324219 C 91.277344 206.574219 92.398438 207.132812 94.640625 206.851562 C 95.621094 206.757812 96.042969 206.433594 96.136719 205.683594 C 96.230469 205.074219 96.464844 204.605469 96.695312 204.605469 C 97.726562 204.605469 98.566406 203.015625 98.566406 201.140625 C 98.566406 197.441406 98.097656 196.320312 96.089844 194.960938 L 94.222656 193.742188 L 95.25 192.949219 C 95.949219 192.386719 96.277344 191.730469 96.136719 190.980469 C 95.949219 189.4375 94.59375 189.296875 93.660156 190.746094 Z M 95.484375 197.863281 C 96.464844 198.800781 96.417969 201.75 95.4375 202.828125 C 93.707031 204.746094 91.089844 203.246094 91.089844 200.34375 C 91.089844 198.332031 92.074219 197.113281 93.660156 197.113281 C 94.269531 197.113281 95.109375 197.441406 95.484375 197.863281 Z M 95.484375 197.863281 "/>
<path style=" stroke:none;fill-rule:nonzero;fill:rgb(0%,0%,0%);fill-opacity:1;" d="M 63.996094 190.511719 C 62.503906 190.933594 62.269531 192.292969 63.484375 193.414062 C 64.042969 193.929688 64.464844 194.632812 64.464844 194.960938 C 64.464844 195.289062 64.886719 195.945312 65.351562 196.367188 C 65.820312 196.832031 66.378906 197.957031 66.566406 198.894531 C 66.707031 199.832031 67.40625 202.03125 68.109375 203.808594 C 69.136719 206.433594 69.464844 206.945312 70.398438 206.945312 C 71.097656 206.945312 71.660156 206.574219 71.890625 205.871094 C 72.125 205.261719 72.640625 204.511719 73.058594 204.183594 C 73.480469 203.855469 73.808594 202.875 73.808594 202.03125 C 73.808594 201.1875 74.132812 200.25 74.507812 199.921875 C 74.882812 199.597656 75.207031 198.988281 75.207031 198.566406 C 75.207031 198.144531 75.722656 196.691406 76.375 195.335938 C 77.453125 193.042969 77.589844 192.902344 79.179688 192.902344 C 80.675781 192.902344 80.859375 192.761719 80.722656 191.824219 C 80.582031 190.933594 80.300781 190.792969 78.246094 190.746094 C 75.441406 190.652344 74.460938 191.402344 73.761719 193.976562 C 73.480469 195.007812 72.964844 196.132812 72.640625 196.507812 C 72.265625 196.832031 71.84375 198.050781 71.707031 199.222656 C 71.378906 201.234375 70.398438 202.734375 69.929688 201.9375 C 69.789062 201.703125 69.464844 200.203125 69.136719 198.566406 C 68.855469 196.925781 68.203125 194.726562 67.734375 193.648438 C 67.269531 192.621094 66.753906 191.355469 66.613281 190.886719 C 66.332031 190.042969 65.914062 189.996094 63.996094 190.511719 Z M 63.996094 190.511719 "/>
<path style=" stroke:none;fill-rule:nonzero;fill:rgb(0%,0%,0%);fill-opacity:1;" d="M 107.207031 191.074219 C 106.742188 192.480469 107.910156 193.507812 109.449219 193.089844 C 111.550781 192.574219 110.804688 190.089844 108.5625 190.089844 C 107.910156 190.089844 107.394531 190.464844 107.207031 191.074219 Z M 107.207031 191.074219 "/>
<path style=" stroke:none;fill-rule:nonzero;fill:rgb(0%,0%,0%);fill-opacity:1;" d="M 283.925781 190.605469 C 283.457031 190.839844 283.085938 191.261719 283.085938 191.542969 C 283.085938 191.777344 282.664062 192.574219 282.195312 193.273438 C 281.730469 193.976562 280.9375 196.132812 280.515625 198.050781 C 280.046875 199.96875 279.394531 201.890625 279.066406 202.3125 C 278.085938 203.433594 277.804688 205.683594 278.554688 206.664062 C 279.535156 208.023438 281.214844 206.945312 281.214844 204.933594 C 281.214844 202.6875 281.730469 202.21875 284.578125 201.9375 C 287.007812 201.703125 287.195312 201.75 288.128906 203.0625 C 288.691406 203.855469 289.34375 205.027344 289.625 205.730469 C 290.464844 208.023438 293.222656 206.664062 292.566406 204.230469 C 292.425781 203.667969 291.867188 202.921875 291.257812 202.546875 C 290.511719 202.078125 290.089844 201.1875 289.859375 199.832031 C 289.71875 198.707031 289.296875 197.066406 288.921875 196.179688 C 288.597656 195.289062 288.175781 194.023438 288.035156 193.367188 C 287.523438 190.980469 285.511719 189.671875 283.925781 190.605469 Z M 287.054688 197.113281 C 287.429688 198.941406 286.632812 200.015625 285 199.832031 C 284.066406 199.738281 283.738281 199.410156 283.644531 198.378906 C 283.410156 196.367188 283.832031 195.710938 285.375 195.710938 C 286.542969 195.710938 286.773438 195.945312 287.054688 197.113281 Z M 287.054688 197.113281 "/>
<path style=" stroke:none;fill-rule:nonzero;fill:rgb(0%,0%,0%);fill-opacity:1;" d="M 298.59375 190.652344 C 297.707031 191.542969 297.9375 192.761719 299.0625 193.089844 C 300.601562 193.460938 301.535156 192.386719 300.882812 191.074219 C 300.273438 189.949219 299.433594 189.808594 298.59375 190.652344 Z M 298.59375 190.652344 "/>
<path style=" stroke:none;fill-rule:nonzero;fill:rgb(0%,0%,0%);fill-opacity:1;" d="M 293.410156 191.402344 C 293.128906 191.964844 293.175781 194.726562 293.5 199.222656 C 293.96875 205.121094 294.203125 206.246094 294.855469 206.386719 C 295.277344 206.480469 295.742188 206.292969 295.929688 206.011719 C 296.445312 205.167969 296.585938 191.777344 296.070312 191.121094 C 295.371094 190.277344 293.921875 190.417969 293.410156 191.402344 Z M 293.410156 191.402344 "/>
<path style=" stroke:none;fill-rule:nonzero;fill:rgb(0%,0%,0%);fill-opacity:1;" d="M 83.992188 192.152344 C 82.730469 193.089844 82.308594 194.773438 82.777344 196.878906 C 83.058594 197.910156 83.105469 199.832031 82.964844 201.1875 C 82.730469 203.246094 82.824219 203.714844 83.570312 204.230469 C 84.039062 204.558594 84.503906 205.261719 84.597656 205.777344 C 84.738281 206.433594 85.160156 206.710938 85.953125 206.710938 C 87.449219 206.710938 87.726562 205.167969 86.605469 203.480469 C 86 202.5 85.90625 201.65625 86.140625 199.316406 C 86.605469 195.289062 86.605469 194.210938 86.234375 192.761719 C 85.90625 191.355469 85.207031 191.214844 83.992188 192.152344 Z M 83.992188 192.152344 "/>
<path style=" stroke:none;fill-rule:nonzero;fill:rgb(0%,0%,0%);fill-opacity:1;" d="M 101.976562 194.632812 C 100.574219 194.914062 100.386719 195.945312 100.527344 201.796875 C 100.667969 206.710938 100.667969 206.710938 101.835938 206.710938 C 103.003906 206.710938 103.003906 206.664062 103.238281 202.03125 L 103.46875 197.394531 L 104.964844 197.066406 C 105.945312 196.878906 106.648438 196.972656 106.972656 197.347656 C 107.207031 197.675781 107.441406 199.738281 107.394531 202.03125 C 107.394531 204.277344 107.535156 206.292969 107.769531 206.527344 C 108.515625 207.273438 109.542969 206.574219 110.152344 204.933594 L 110.757812 203.433594 L 112.113281 205.074219 L 113.46875 206.710938 L 117.578125 206.574219 C 119.820312 206.527344 121.875 206.246094 122.109375 206.011719 C 122.34375 205.777344 122.296875 204.746094 121.96875 203.480469 C 121.6875 202.3125 121.457031 200.109375 121.457031 198.613281 C 121.457031 196.179688 121.316406 195.710938 120.289062 195.054688 C 118 193.554688 111.410156 194.773438 111.738281 196.644531 C 111.925781 197.628906 114.261719 197.816406 115.664062 196.878906 C 117.0625 195.945312 118.183594 196.597656 118.183594 198.285156 C 118.183594 199.457031 117.390625 199.921875 115.570312 199.921875 C 114.074219 199.921875 111.832031 201.09375 111.503906 202.03125 C 110.804688 203.761719 110.242188 202.546875 110.242188 199.269531 C 110.242188 197.066406 110.011719 195.664062 109.683594 195.335938 C 108.984375 194.820312 103.515625 194.257812 101.976562 194.632812 Z M 118.417969 201.796875 C 118.558594 202.078125 118.558594 202.6875 118.417969 203.246094 C 118.183594 203.996094 117.765625 204.183594 116.410156 204.042969 C 114.589844 203.902344 113.746094 202.546875 115.007812 201.75 C 115.851562 201.1875 118.046875 201.234375 118.417969 201.796875 Z M 118.417969 201.796875 "/>
<path style=" stroke:none;fill-rule:nonzero;fill:rgb(0%,0%,0%);fill-opacity:1;" d="M 304.480469 195.382812 C 302.097656 197.347656 301.816406 203.621094 304.105469 204.371094 C 304.574219 204.511719 305.039062 205.121094 305.132812 205.683594 C 305.226562 206.527344 305.601562 206.757812 307.1875 206.851562 C 308.964844 206.992188 309.289062 206.804688 310.972656 204.886719 L 312.839844 202.78125 L 313.730469 203.808594 C 314.195312 204.371094 314.710938 205.261719 314.851562 205.777344 C 315.082031 206.480469 315.597656 206.757812 317.183594 206.851562 C 320.082031 207.085938 321.015625 206.710938 322.042969 204.980469 C 322.976562 203.386719 323.585938 197.300781 322.929688 196.414062 C 321.996094 195.148438 319.847656 194.304688 317.746094 194.304688 C 314.851562 194.304688 313.773438 195.429688 312.933594 199.082031 C 312.515625 201.046875 312.140625 201.796875 311.625 201.796875 C 311.207031 201.796875 310.039062 202.21875 309.011719 202.734375 C 307.984375 203.246094 306.910156 203.667969 306.582031 203.667969 C 305.039062 203.667969 304.480469 199.316406 305.878906 197.628906 C 306.628906 196.644531 306.769531 196.644531 308.121094 197.300781 C 308.871094 197.722656 310.039062 198.097656 310.691406 198.144531 C 311.625 198.285156 311.859375 198.050781 311.953125 197.019531 C 312.09375 195.945312 311.859375 195.617188 310.367188 195.007812 C 307.984375 194.023438 305.972656 194.164062 304.480469 195.382812 Z M 319.148438 196.972656 C 319.613281 197.394531 319.988281 198.097656 319.988281 198.613281 C 319.988281 199.316406 319.613281 199.457031 317.652344 199.457031 C 315.035156 199.457031 314.757812 198.941406 316.34375 197.253906 C 317.558594 195.992188 317.980469 195.945312 319.148438 196.972656 Z M 320.6875 201.796875 C 321.109375 202.5 319.195312 204.136719 317.933594 204.136719 C 316.53125 204.136719 314.570312 202.59375 315.035156 201.890625 C 315.457031 201.234375 320.269531 201.140625 320.6875 201.796875 Z M 320.6875 201.796875 "/>
<path style=" stroke:none;fill-rule:nonzero;fill:rgb(0%,0%,0%);fill-opacity:1;" d="M 78.804688 195.335938 C 78.199219 195.851562 78.011719 196.925781 77.917969 200.953125 C 77.777344 206.199219 78.105469 207.179688 79.695312 206.851562 C 80.488281 206.710938 80.582031 206.152344 80.722656 201.796875 C 80.90625 195.054688 80.582031 194.023438 78.804688 195.335938 Z M 78.804688 195.335938 "/>
<path style=" stroke:none;fill-rule:nonzero;fill:rgb(0%,0%,0%);fill-opacity:1;" d="M 298.3125 195.476562 C 298.171875 195.898438 298.03125 198.425781 298.03125 201.09375 C 298.03125 205.402344 298.125 206.011719 298.921875 206.433594 C 300.507812 207.320312 300.882812 206.058594 300.742188 200.34375 C 300.601562 195.289062 300.554688 195.007812 299.621094 194.867188 C 299.015625 194.773438 298.5 195.054688 298.3125 195.476562 Z M 298.3125 195.476562 "/>
<path style="fill-rule:nonzero;fill:rgb(70.196078%,70.196078%,70.196078%);fill-opacity:1;stroke-width:2.431144;stroke-linecap:butt;stroke-linejoin:miter;stroke:rgb(0%,0%,0%);stroke-opacity:1;stroke-miterlimit:4;" d="M 30.803971 171.052834 C 28.817967 156.588118 28.828419 50.298001 30.814424 38.294477 L 32.319606 29.169295 L 415.806572 29.169295 L 415.806572 182.336773 L 32.340511 182.336773 Z M 30.803971 171.052834 " transform="matrix(0.373709,0,0,0.374564,0,0)"/>
<path style="fill-rule:nonzero;fill:rgb(70.196078%,70.196078%,70.196078%);fill-opacity:1;stroke-width:2.431144;stroke-linecap:butt;stroke-linejoin:miter;stroke:rgb(0%,0%,0%);stroke-opacity:1;stroke-miterlimit:4;" d="M 712.400626 168.77936 C 706.39035 161.458358 698.613576 150.539426 695.122389 144.511592 C 691.641656 138.483757 686.572118 131.131468 683.864881 128.159266 C 681.157644 125.197493 677.018393 118.940225 674.676998 114.268132 C 672.335604 109.58561 669.032565 104.944804 667.339235 103.943641 C 665.645905 102.952907 660.712253 95.84048 656.374401 88.144041 C 652.03655 80.447602 644.918293 69.778961 640.559536 64.428997 C 636.200779 59.079033 628.768942 48.952689 624.054795 41.934121 L 615.483619 29.169295 L 828.048789 29.169295 C 1006.977318 29.169295 1040.613958 29.701163 1040.613958 32.527362 C 1040.613958 34.362827 1038.972892 37.230741 1036.965982 38.899346 C 1034.959073 40.567951 1033.318006 43.060429 1033.318006 44.447456 C 1033.318006 45.834484 1028.677028 53.082485 1023.011689 60.55992 C 1017.335898 68.037355 1008.252542 80.71875 1002.806709 88.738481 C 997.371329 96.758212 982.183623 119.190516 969.05509 138.577616 C 955.937009 157.964717 943.529709 175.745785 941.470536 178.081831 C 938.031613 182.013481 929.690395 182.326344 830.546973 182.222057 L 723.344555 182.096911 Z M 712.400626 168.77936 " transform="matrix(0.373709,0,0,0.374564,0,0)"/>
<path style="fill-rule:nonzero;fill:rgb(70.196078%,70.196078%,70.196078%);fill-opacity:1;stroke-width:2.431144;stroke-linecap:butt;stroke-linejoin:miter;stroke:rgb(0%,0%,0%);stroke-opacity:1;stroke-miterlimit:4;" d="M 141.089922 475.698328 C 135.069194 472.799128 120.843132 464.383103 109.481097 457.009956 C 98.119062 449.626381 82.523702 439.823328 74.830549 435.213808 L 60.855351 426.849927 L 77.266018 416.608866 C 86.297111 410.966897 99.781034 402.446584 107.233776 397.659775 C 114.686519 392.872965 125.160078 386.834702 130.511837 384.248365 C 135.874048 381.662028 141.664818 377.845094 143.399959 375.759339 C 146.149007 372.432558 158.932602 371.963263 246.724443 371.963263 L 346.902677 371.963263 L 365.73836 382.704906 C 376.107392 388.607594 386.413709 395.031722 388.650577 396.992333 C 390.876992 398.942515 397.629407 403.16617 403.650135 406.378234 C 414.479085 412.155778 435.258961 425.515044 435.258961 426.714353 C 435.258961 427.715516 402.834828 448.281068 398.141587 450.262536 C 395.779287 451.25327 387.573954 456.311228 379.901706 461.515189 C 348.575102 482.748183 357.595742 481.392442 248.76271 481.163009 C 154.741088 480.964862 151.720271 480.818859 141.089922 475.698328 Z M 141.089922 475.698328 " transform="matrix(0.373709,0,0,0.374564,0,0)"/>
<path style="fill-rule:nonzero;fill:rgb(70.196078%,70.196078%,70.196078%);fill-opacity:1;stroke-width:2.431144;stroke-linecap:butt;stroke-linejoin:miter;stroke:rgb(0%,0%,0%);stroke-opacity:1;stroke-miterlimit:4;" d="M 698.540407 475.896475 C 695.801812 472.892987 690.962233 466.468859 687.784626 461.619477 C 668.363595 432.001744 655.726337 413.282086 649.266597 404.542769 C 640.204146 392.288953 640.120524 390.192769 648.587174 387.241424 C 652.266508 385.948256 660.743611 382.944767 667.433309 380.567006 C 674.112555 378.178815 692.707826 371.546112 708.763103 365.820712 C 761.716247 346.955051 791.328616 336.056977 797.683829 333.12649 C 803.087851 330.634012 807.133028 331.437028 827.191671 338.945749 C 839.975267 343.732558 851.243228 347.653779 852.225777 347.653779 C 853.208327 347.653779 860.169794 350.281831 867.695705 353.493895 C 875.211163 356.716388 889.57311 361.784775 899.607657 364.767406 C 909.631753 367.739608 923.303824 372.75585 929.993522 375.894913 C 936.672768 379.044404 948.442456 383.35149 956.125157 385.468532 C 963.81831 387.596003 970.110808 390.088481 970.110808 391.027071 C 970.110808 391.955233 966.002915 397.837064 960.985641 404.083903 C 951.745495 415.618132 942.421728 429.592696 930.955166 449.094513 C 927.474433 455.01806 920.586134 464.706395 915.642029 470.619513 L 906.652746 481.371584 L 703.526323 481.371584 Z M 698.540407 475.896475 " transform="matrix(0.373709,0,0,0.374564,0,0)"/>
</g>
</svg>
