<?xml version="1.0" encoding="UTF-8" standalone="no"?>
<svg
   xmlns:dc="http://purl.org/dc/elements/1.1/"
   xmlns:cc="http://creativecommons.org/ns#"
   xmlns:rdf="http://www.w3.org/1999/02/22-rdf-syntax-ns#"
   xmlns:svg="http://www.w3.org/2000/svg"
   xmlns="http://www.w3.org/2000/svg"
   xmlns:sodipodi="http://sodipodi.sourceforge.net/DTD/sodipodi-0.dtd"
   xmlns:inkscape="http://www.inkscape.org/namespaces/inkscape"
   version="1.0"
   width="500.491"
   height="580.67255"
   viewBox="0 0 400.3928 464.53804"
   preserveAspectRatio="xMidYMid meet"
   id="svg3101"
   inkscape:version="0.48.4 r9939"
   sodipodi:docname="8422ddb7454c1d94e67c5b873f1b97d8627caa4a.svg">
  <defs
     id="defs3121" />
  <sodipodi:namedview
     pagecolor="#ffffff"
     bordercolor="#666666"
     borderopacity="1"
     objecttolerance="10"
     gridtolerance="10"
     guidetolerance="10"
     inkscape:pageopacity="0"
     inkscape:pageshadow="2"
     inkscape:window-width="1600"
     inkscape:window-height="824"
     id="namedview3119"
     showgrid="false"
     inkscape:zoom="0.29667058"
     inkscape:cx="1142.8706"
     inkscape:cy="433.31164"
     inkscape:window-x="0"
     inkscape:window-y="24"
     inkscape:window-maximized="1"
     inkscape:current-layer="svg3101"
     fit-margin-top="0"
     fit-margin-left="0"
     fit-margin-right="0"
     fit-margin-bottom="0" />
  <metadata
     id="metadata3103">
Created by potrace 1.10, written by Peter Selinger 2001-2011
<rdf:RDF>
  <cc:Work
     rdf:about="">
    <dc:format>image/svg+xml</dc:format>
    <dc:type
       rdf:resource="http://purl.org/dc/dcmitype/StillImage" />
  </cc:Work>
</rdf:RDF>
</metadata>
  <g
     transform="matrix(0.05243537,0,0,-0.05243537,-5.3811798,468.73288)"
     id="g3105"
     style="fill:#000000;stroke:none">
    <path
       d="m 3576,8925 c -25,-13 -247,-15 -1750,-17 l -1721,-3 -2,-2110 c -1,-1160 0,-2120 3,-2133 l 4,-22 3813,2 3812,3 3,23 c 4,29 -14,52 -42,52 l -21,0 2,377 c 2,208 3,381 3,386 0,4 11,7 24,7 16,0 27,7 31,21 8,24 3,32 -28,35 -12,1 -24,3 -27,3 -3,1 -5,179 -5,396 l 0,394 30,3 c 22,2 30,8 30,23 0,15 -8,21 -30,23 l -30,3 2,397 2,397 26,3 c 47,6 42,56 -6,64 -19,3 -20,12 -20,378 -1,368 0,375 19,378 49,8 54,58 7,64 l -27,3 -1,392 -2,392 30,3 c 22,2 30,8 30,23 0,20 -8,20 -1577,23 -1041,1 -1578,5 -1578,12 0,6 -13,10 -30,10 -16,0 -30,-4 -30,-10 0,-6 -138,-10 -394,-10 -330,0 -398,2 -422,15 -37,19 -91,19 -128,0 z M 945,8837 c -14,-39 -18,-605 -5,-685 6,-41 9,-76 7,-79 -4,-3 -667,-6 -797,-3 -8,0 -6,784 2,790 3,3 185,4 403,2 l 397,-2 -7,-23 z m 823,23 c 8,0 10,-790 2,-790 -8,-1 -764,-1 -775,0 -6,0 -10,129 -10,367 0,203 -2,379 -5,393 l -5,25 380,5 c 209,3 386,4 393,3 8,-2 17,-3 20,-3 z m 847,2 c 6,-4 9,-146 7,-399 l -2,-393 -398,0 -397,0 0,395 0,395 385,3 c 212,1 387,3 390,4 3,2 10,-1 15,-5 z m 829,-4 c 0,-2 -1,-180 -4,-396 l -5,-393 -384,0 -383,0 0,398 c 1,219 1,398 2,398 229,0 773,-5 774,-7 z m 844,-4 c 10,-3 10,-9 2,-24 -8,-15 -11,-135 -9,-388 l 2,-367 -391,-3 -391,-2 3,322 c 1,178 0,354 -4,391 -5,55 -3,70 9,77 15,8 752,3 779,-6 z m 237,-5 c 12,-12 52,-12 57,0 2,6 112,11 268,12 l 265,2 0,-397 -1,-397 -383,0 c -211,1 -385,2 -387,4 -9,8 -8,787 1,790 19,7 170,-5 180,-14 z m 1418,11 c 9,0 11,-99 10,-392 l -2,-393 -393,-3 -393,-2 0,395 0,395 370,2 c 204,2 376,2 383,1 8,-2 19,-3 25,-3 z m 842,-4 c 6,-2 9,-140 7,-395 l -2,-391 -391,2 -391,3 -1,392 c -2,331 0,393 12,395 21,4 754,-2 766,-6 z m 478,4 377,0 0,-395 0,-395 -390,-1 c -214,-1 -395,-2 -401,-3 -8,-1 -11,108 -11,399 1,220 1,402 1,404 1,2 11,1 24,-3 12,-3 192,-6 400,-6 z M 920,8010 c 13,-8 15,-51 12,-302 -1,-161 1,-327 6,-368 5,-41 6,-80 1,-85 -5,-7 -144,-9 -396,-8 l -388,2 -3,380 -2,381 372,3 c 205,1 375,3 378,4 3,2 12,-2 20,-7 z m 835,0 c 8,-12 12,-760 5,-760 -3,-1 -178,-2 -388,-3 l -384,-2 0,380 0,380 373,5 c 206,3 377,6 381,8 4,1 10,-3 13,-8 z m 865,-377 0,-388 -398,1 -397,1 -3,374 c -1,206 0,380 3,386 3,10 92,13 400,13 l 395,0 0,-387 z m 822,5 c 2,-243 -1,-386 -7,-394 -7,-9 -23,-10 -60,-4 -64,11 -584,11 -650,0 -27,-4 -51,-6 -53,-5 -3,2 -5,744 -3,778 1,4 174,7 386,7 l 385,0 2,-382 z m 839,32 c -2,-235 1,-354 9,-374 21,-57 22,-57 -393,-57 -207,0 -381,2 -387,6 -11,7 -14,757 -3,768 3,4 180,6 391,5 l 385,-3 -2,-345 z m 834,-43 0,-388 -385,0 c -304,0 -385,3 -389,13 -3,7 -5,183 -3,391 l 2,377 388,-2 387,-3 0,-388 z m 830,384 c 6,-11 8,-761 2,-768 -4,-3 -685,-6 -772,-3 -7,0 -9,133 -8,383 0,210 1,385 2,390 1,11 769,9 776,-2 z m 845,-381 c 0,-214 -3,-390 -7,-390 -106,-3 -766,0 -770,3 -3,4 -7,729 -3,772 0,3 176,5 390,5 l 390,0 0,-390 z m 845,1 0,-384 -345,2 c -190,1 -367,-2 -395,-8 -27,-5 -52,-8 -53,-6 -3,3 -5,747 -3,778 1,4 180,6 399,5 l 397,-3 0,-384 z M 936,7182 c 9,-5 9,-32 2,-102 -10,-99 -5,-629 7,-666 5,-17 2,-22 -17,-25 -13,-2 -193,-2 -401,1 l -377,5 0,388 c 0,213 0,392 0,397 0,12 768,14 786,2 z m 827,-377 c 1,-209 6,-388 11,-398 8,-16 -13,-17 -395,-15 -354,3 -403,5 -399,18 3,8 6,184 7,390 1,206 2,378 2,383 1,4 175,6 387,5 l 386,-3 1,-380 z m 860,-18 c 1,-218 0,-397 -3,-397 -3,0 -183,-1 -400,-1 l -395,-1 -3,401 -2,401 400,-2 401,-3 2,-398 z m 820,0 c 1,-218 -1,-397 -5,-397 -5,0 -179,-1 -389,-1 l -381,0 1,398 c 0,219 0,399 1,401 0,1 174,1 386,0 l 385,-3 2,-398 z m 832,393 c 7,0 9,-136 8,-392 l -2,-393 -388,-3 -388,-2 0,392 c 0,216 3,395 7,398 4,4 676,4 763,0 z m 843,-394 2,-396 -390,0 -390,0 0,393 c 0,217 2,396 4,398 2,2 177,3 388,2 l 383,-1 3,-396 z m 825,394 c 4,0 7,-178 7,-395 l 0,-395 -395,0 -395,0 0,394 c 0,254 4,396 10,398 7,2 710,1 773,-2 z m 491,0 351,0 0,-395 0,-395 -388,2 -388,3 -2,393 c -1,254 2,394 8,397 6,2 23,2 39,0 16,-3 187,-5 380,-5 z m 1204,-392 2,-397 -397,-3 c -219,-2 -401,-2 -405,0 -5,2 -8,183 -8,403 l 0,399 403,-2 402,-3 3,-397 z M 946,6337 c 1,-1 -2,-45 -8,-97 -5,-52 -8,-229 -6,-392 4,-266 3,-298 -11,-298 -110,-2 -766,1 -768,3 -1,2 -3,178 -3,393 l -1,389 368,6 c 332,4 422,4 429,-4 z m 830,0 c 2,-2 -1,-20 -7,-40 -6,-23 -9,-172 -7,-392 3,-300 1,-355 -11,-357 -8,-2 -183,-2 -390,0 l -376,2 3,340 c 2,187 -1,363 -6,391 -8,45 -7,51 9,57 17,7 779,6 785,-1 z m 844,3 c 3,0 4,-179 3,-397 l -2,-398 -398,0 -398,0 -3,390 c -1,214 -1,394 2,400 2,6 141,9 397,8 217,-2 396,-3 399,-3 z m 820,0 c 3,0 4,-179 3,-397 l -2,-398 -386,0 -386,0 0,395 c 0,217 0,397 1,400 0,3 680,4 770,0 z m 849,1 c 11,-7 11,-15 2,-42 -8,-24 -11,-139 -10,-394 l 1,-360 -388,0 -389,0 -1,370 c 0,204 -3,382 -7,397 -5,17 -3,28 6,31 22,9 772,7 786,-2 z m 826,-396 0,-400 -387,-3 c -214,-1 -388,1 -388,5 0,77 -1,790 0,796 0,4 174,6 388,5 l 387,-3 0,-400 z m 838,2 c 2,-390 2,-398 -18,-403 -11,-2 -189,-3 -395,-2 l -375,3 3,320 c 2,176 -1,354 -6,395 -6,53 -6,77 2,82 6,4 186,7 399,5 l 388,-2 2,-398 z m 839,396 c 2,-5 2,-187 0,-406 l -3,-397 -391,2 -390,3 1,360 c 1,219 -2,374 -9,394 -7,26 -7,37 3,43 15,10 785,11 789,1 z m 836,-3 c 10,0 12,-83 10,-397 l -3,-398 -399,0 -398,0 0,398 c 1,218 1,398 1,400 1,1 175,1 388,-1 214,-1 394,-2 401,-2 z M 939,5486 c 8,-9 8,-28 1,-66 -14,-72 -13,-548 1,-628 9,-53 9,-66 -2,-73 -8,-5 -189,-8 -403,-6 l -389,2 1,385 c 0,212 1,388 1,393 1,4 176,7 390,7 315,0 391,-3 400,-14 z m 833,-331 c -1,-187 2,-356 7,-376 17,-72 35,-69 -398,-69 -319,0 -391,2 -400,14 -9,10 -9,26 -1,62 8,32 11,166 10,374 -1,179 -2,328 -1,333 1,4 177,6 393,5 l 391,-3 -1,-340 z m 850,-40 c 2,-209 1,-386 -1,-393 -2,-10 -87,-12 -399,-10 l -395,3 1,385 c 1,212 2,387 2,390 0,3 178,5 395,5 l 394,0 3,-380 z m 818,-2 c 3,-208 3,-384 1,-391 -2,-10 -85,-12 -389,-10 l -385,3 1,385 c 1,212 2,387 2,390 0,3 172,4 382,3 l 383,-1 5,-379 z m 837,373 c 3,-3 5,-157 4,-343 -1,-233 2,-348 10,-371 22,-63 30,-62 -396,-62 -411,0 -416,1 -400,50 4,12 7,180 7,373 0,193 1,354 3,357 4,7 765,3 772,-4 z m 837,-383 1,-388 -387,-3 c -307,-2 -388,0 -389,10 -2,53 3,763 6,767 2,3 175,5 386,4 l 383,-2 0,-388 z m 831,385 c 7,-7 7,-756 1,-767 -5,-8 -125,-11 -391,-11 -332,0 -385,2 -392,15 -5,8 -5,55 0,103 5,48 7,214 5,369 -3,155 -1,286 3,290 8,8 767,8 774,1 z m 845,-375 c 3,-208 3,-384 1,-390 -2,-10 -89,-13 -392,-13 -431,0 -417,-2 -398,64 5,17 9,183 8,368 0,185 1,340 4,345 3,4 178,7 389,6 l 383,-1 5,-379 z m 842,372 c 4,-5 8,-172 8,-369 0,-197 2,-361 4,-364 3,-2 1,-13 -5,-23 -9,-18 -27,-19 -406,-17 l -396,3 1,385 c 1,212 1,387 2,390 0,10 785,5 792,-5 z"
       id="path3107"
       inkscape:connector-curvature="0" />
    <path
       d="m 4780,6154 c -64,-27 -106,-124 -60,-139 25,-8 50,10 50,35 0,24 32,50 62,50 31,0 78,-42 78,-70 0,-22 -15,-38 -85,-89 -45,-33 -116,-124 -128,-166 -13,-40 3,-45 144,-48 l 134,-2 0,35 0,35 -97,-4 c -117,-4 -124,5 -50,65 26,21 64,54 84,74 20,19 44,41 52,48 48,39 -13,154 -94,178 -54,16 -47,16 -90,-2 z"
       id="path3109"
       inkscape:connector-curvature="0" />
    <path
       d="m 1340,5261 c -17,-23 -45,-49 -61,-58 -23,-14 -29,-24 -29,-50 0,-39 14,-42 46,-8 13,14 28,25 34,25 6,0 10,-51 10,-145 l 0,-145 29,0 c 16,0 31,6 33,13 3,6 4,100 3,207 -3,220 -8,233 -65,161 z"
       id="path3111"
       inkscape:connector-curvature="0" />
    <path
       d="m 170,4340 c -5,-3 -8,-963 -7,-2133 l 2,-2127 3785,0 3785,0 2,2130 c 2,1693 0,2130 -10,2131 -66,4 -7551,3 -7557,-1 z m 5000,-440 c 0,-212 1,-392 0,-400 0,-13 -48,-15 -382,-12 -282,2 -386,6 -394,15 -9,9 -9,29 -3,72 5,33 8,206 7,385 l -3,325 285,-2 c 157,-2 328,1 380,5 52,4 98,5 102,2 4,-3 8,-179 8,-390 z M 988,4276 c 7,-4 11,-15 8,-23 -8,-21 -9,-661 -1,-704 5,-25 2,-39 -8,-47 -11,-9 -111,-12 -397,-10 l -383,3 1,390 c 0,215 1,392 1,395 1,9 765,5 779,-4 z m 835,-384 c 1,-216 0,-392 -3,-392 -3,0 -178,-1 -389,-1 l -384,-1 1,394 c 1,216 1,393 1,393 1,0 175,0 387,-1 l 386,-1 1,-391 z m 832,-1 0,-393 -385,1 -385,0 -3,383 c -1,211 -1,387 2,393 2,6 139,10 387,9 l 384,-1 0,-392 z m 840,0 0,-392 -384,0 c -211,0 -385,2 -388,4 -5,6 -5,766 1,775 2,4 177,7 388,6 l 383,-1 0,-392 z m 830,389 c 7,-11 9,-770 2,-776 -7,-7 -767,-7 -774,0 -6,6 -5,764 1,774 6,11 764,13 771,2 z m 1667,-310 c -2,-182 1,-344 7,-385 8,-53 7,-73 -2,-82 -9,-9 -114,-13 -395,-15 l -382,-3 0,402 0,403 388,-3 387,-2 -3,-315 z m 846,311 c 10,-6 13,-93 15,-395 2,-380 2,-387 -18,-392 -11,-2 -190,-3 -399,-2 l -379,3 1,388 c 1,213 4,391 7,397 7,11 755,13 773,1 z m 852,-1 c 1,-10 1,-765 1,-775 -1,-10 -788,-11 -798,-2 -5,6 -4,767 1,776 5,7 796,8 796,1 z M 972,3435 c 11,-4 12,-73 10,-366 -2,-263 0,-365 9,-375 9,-11 7,-15 -9,-21 -12,-5 -191,-7 -399,-5 l -378,2 2,378 3,377 367,5 c 203,3 371,6 375,8 3,1 12,0 20,-3 z m 855,-3 c 8,-5 9,-20 3,-52 -12,-60 -12,-614 0,-665 5,-22 8,-41 6,-42 -3,-3 -744,-6 -791,-3 -7,0 -9,133 -8,382 2,211 3,384 3,386 0,6 776,1 787,-6 z m 835,-373 c 2,-209 0,-383 -5,-386 -9,-5 -768,-6 -774,0 -2,3 -5,594 -3,757 0,6 137,10 390,10 l 390,0 2,-381 z m 836,-4 -3,-386 -382,0 c -211,0 -386,1 -390,1 -6,0 -8,716 -3,768 0,1 176,2 390,2 l 390,0 -2,-385 z m 842,2 c 3,-209 1,-381 -3,-384 -6,-4 -546,-6 -782,-3 -7,0 -9,133 -8,382 1,211 2,384 3,386 0,1 177,1 393,0 l 392,-3 5,-378 z m 830,373 c 0,-3 0,-175 1,-384 l 0,-379 -383,2 c -211,0 -385,1 -388,1 -8,0 -6,754 2,760 3,3 178,5 387,5 210,0 381,-2 381,-5 z m 836,-2 c 2,-2 -2,-37 -8,-78 -15,-111 -6,-633 11,-654 8,-9 12,-19 9,-21 -3,-3 -184,-6 -404,-6 -292,-1 -399,1 -398,10 1,6 2,179 2,384 l 2,372 391,-2 c 215,-1 393,-4 395,-5 z m 842,-3 c 11,-4 11,-9 0,-27 -19,-34 -19,-627 0,-681 8,-21 12,-40 10,-42 -5,-6 -808,-8 -814,-3 -2,3 1,31 7,64 7,38 10,174 7,377 -1,174 0,318 4,320 14,4 773,-3 786,-8 z m 844,-375 0,-385 -402,0 -401,0 0,385 c 0,212 1,386 1,388 0,1 181,1 401,0 l 401,-3 0,-385 z M 1830,2580 c -3,-19 -5,-181 -5,-360 0,-179 2,-341 5,-360 l 5,-35 -388,-5 c -214,-3 -393,-2 -398,1 -6,3 -11,165 -12,402 -2,335 0,397 12,399 8,2 188,1 400,-2 l 386,-5 -5,-35 z m 825,-360 0,-401 -384,0 c -211,1 -386,3 -388,5 -9,8 -2,790 6,796 5,3 179,4 388,3 l 378,-2 0,-401 z m 843,0 2,-400 -390,2 -391,3 -2,398 c -1,218 1,398 5,400 5,1 180,1 390,0 l 383,-2 3,-401 z m 830,401 c 16,-8 17,-41 12,-403 l -5,-393 -393,0 -393,0 -2,397 -2,398 375,3 c 206,1 379,3 383,5 5,1 16,-2 25,-7 z m 846,-13 c 0,-10 -1,-190 -2,-400 l -2,-383 -382,2 -383,2 -2,83 c -2,46 -4,224 -5,395 l -3,313 365,3 c 201,1 376,3 390,2 17,0 25,-5 24,-17 z m 835,7 c 10,-4 10,-9 3,-18 -8,-9 -12,-140 -14,-391 l -3,-377 -387,-2 -388,-2 -2,393 c -2,215 -2,395 -1,400 3,8 769,5 792,-3 z m -5026,-392 -2,-398 -386,-3 c -255,-1 -385,1 -385,8 0,5 0,183 0,395 0,212 0,387 0,390 0,3 174,5 388,5 l 387,0 -2,-397 z m 5872,2 c 0,-257 -4,-395 -10,-395 -37,-1 -772,-1 -780,-1 -7,1 -9,117 -7,333 2,183 -1,359 -6,390 -5,32 -7,60 -4,63 3,3 186,5 406,5 l 401,0 0,-395 z m 833,0 -3,-395 -395,-1 -395,0 -5,391 c -3,216 -3,394 -1,396 2,2 184,4 403,4 l 398,0 -2,-395 z M 5170,1370 c 0,-222 -2,-406 -5,-409 -2,-4 -39,-3 -82,1 -43,5 -215,7 -383,6 l -305,-3 3,335 c 2,185 -1,360 -7,390 -7,42 -6,58 4,68 10,11 80,14 356,13 189,-1 358,3 374,8 17,4 34,5 38,1 5,-4 8,-189 7,-410 z m -2040,394 365,-2 0,-397 0,-398 -388,-1 -387,-1 0,401 c 0,220 3,404 7,408 4,3 14,3 22,-1 9,-4 180,-9 381,-9 z m 2865,-1 c 12,-7 12,-21 4,-78 -6,-41 -9,-206 -7,-394 l 3,-324 -370,-1 c -203,-1 -377,-3 -385,-6 -13,-4 -15,46 -18,405 l -2,410 380,-2 c 210,-2 387,-6 395,-10 z m 779,4 78,-2 -1,-394 c 0,-216 -2,-396 -5,-398 -7,-7 -775,-7 -782,0 -10,10 -7,789 4,796 9,5 509,4 706,-2 z m 914,-1 c 3,-4 6,-750 2,-796 0,-3 -179,-4 -397,-4 l -398,2 -5,388 c -3,214 -2,396 2,404 5,13 58,15 399,13 215,-2 394,-5 397,-7 z m -6703,-7 c 10,-15 5,-773 -4,-782 -5,-5 -127,-7 -272,-5 -145,1 -317,2 -381,1 l -118,-2 0,395 0,394 353,3 c 193,1 366,3 384,5 17,1 35,-3 38,-9 z m 3341,-2 c 3,-3 7,-696 4,-782 0,-10 -766,-12 -776,-2 -6,6 -7,775 0,785 4,8 764,7 772,-1 z M 1822,1366 c -1,-214 -4,-392 -9,-396 -4,-5 -32,-4 -62,0 -29,5 -199,8 -377,6 -178,-2 -324,-1 -324,3 -1,19 -1,767 -1,774 1,4 175,6 387,5 l 386,-3 0,-389 z m 835,4 c 2,-212 -1,-390 -5,-396 -5,-8 -29,-10 -82,-5 -81,8 -595,5 -646,-4 -23,-4 -33,-1 -38,11 -3,8 -6,189 -6,400 l 0,384 388,-2 387,-3 2,-385 z M 990,840 c -3,-41 -5,-199 -5,-351 1,-248 2,-278 19,-303 9,-15 15,-31 11,-34 -4,-4 -187,-7 -408,-7 l -401,0 1,385 c 1,212 2,386 2,388 1,1 178,1 394,0 l 392,-3 -5,-75 z m 840,35 c -3,-22 -5,-184 -5,-361 0,-264 3,-324 14,-338 13,-15 13,-19 0,-27 -8,-5 -183,-8 -409,-6 l -395,2 5,50 c 3,28 5,202 5,388 l 0,337 395,-2 395,-3 -5,-40 z m 832,-325 c 1,-203 2,-378 2,-387 1,-17 -24,-18 -392,-18 l -393,0 0,385 c 1,212 1,386 1,388 0,1 176,2 390,2 l 390,0 2,-370 z m 838,-16 c 3,-208 4,-382 2,-386 -4,-11 -774,-10 -789,0 -10,6 -10,17 -3,43 6,20 10,172 10,374 -1,187 -1,342 0,345 0,3 174,5 387,4 l 388,-1 5,-379 z m 834,15 c 1,-200 4,-373 7,-384 4,-20 -1,-20 -401,-20 l -405,0 5,35 c 3,19 5,190 5,380 0,190 3,347 7,350 3,3 180,5 393,4 l 386,0 3,-365 z m 836,356 c 0,-5 0,-179 1,-385 l 1,-375 -389,-2 c -213,-2 -394,1 -402,6 -11,7 -11,12 0,32 17,30 26,573 11,664 -5,33 -6,62 -2,65 16,10 780,5 780,-5 z m 835,4 c 2,-3 0,-32 -5,-65 -11,-69 -12,-524 -1,-602 9,-60 24,-83 43,-63 10,9 13,99 14,373 l 2,362 393,-1 c 217,-1 396,-2 399,-2 3,-1 4,-142 2,-313 -4,-328 1,-422 21,-415 9,3 12,98 12,365 0,199 2,362 5,363 3,0 184,1 403,1 l 399,2 0,-385 1,-384 -1236,-2 c -680,-2 -1237,1 -1239,5 -2,4 -2,178 0,387 l 3,380 389,-1 c 214,0 392,-2 395,-5 z"
       id="path3113"
       inkscape:connector-curvature="0" />
    <path
       d="m 5669,1563 c -8,-10 -22,-34 -32,-54 -10,-20 -42,-61 -70,-90 -77,-80 -100,-116 -93,-144 6,-23 10,-24 99,-27 l 92,-3 -3,-41 c -2,-27 2,-45 12,-53 27,-23 45,-6 48,46 3,41 6,48 28,53 18,4 26,14 28,32 3,23 -1,27 -25,30 l -28,3 -3,133 c -2,120 -4,132 -21,132 -10,0 -24,-8 -32,-17 z m 6,-190 0,-58 -49,-3 c -61,-4 -74,7 -50,43 16,24 80,75 94,75 4,0 6,-26 5,-57 z"
       id="path3115"
       inkscape:connector-curvature="0" />
    <path
       d="m 1388,720 c -22,-13 -58,-73 -58,-96 0,-11 5,-26 10,-34 8,-12 16,-8 46,28 41,48 80,56 114,22 39,-39 23,-77 -35,-82 -35,-3 -40,-6 -43,-30 -3,-26 -1,-28 37,-28 75,0 106,-68 55,-123 -22,-23 -33,-28 -67,-25 -37,3 -43,7 -62,46 -27,57 -50,53 -50,-8 0,-44 1,-46 49,-69 42,-21 54,-23 85,-14 119,36 140,54 141,120 0,30 -7,50 -25,71 -25,30 -33,62 -15,62 19,0 11,81 -11,112 -35,49 -125,74 -171,48 z"
       id="path3117"
       inkscape:connector-curvature="0" />
  </g>
  <path
     style="fill:#c2c1c1;fill-opacity:1;stroke:none"
     d="m 63.551716,91.778561 c -5.609997,0.36356 -11.691238,-0.12087 -16.989723,1.03838 -0.13095,13.202849 -0.610159,26.412639 -0.35349,39.613229 4.151506,1.45522 9.298155,0.38847 13.764054,0.84776 9.124136,0.0801 18.24912,0.0148 27.373599,0.036 0.709359,-8.52721 -0.533074,-17.76909 -0.412788,-26.57787 -0.400358,-4.72223 0.456683,-9.884199 -0.493035,-14.338859 -7.620063,-0.53641 -15.249577,-0.81026 -22.888617,-0.6186 z"
     id="path7461"
     inkscape:connector-curvature="0" />
  <path
     style="fill:#c2c1c1;fill-opacity:1;stroke:none"
     d="m 33.860071,48.360721 c -10.246483,0.42567 -20.959765,0.19564 -30.900902,1.4685 0.279852,12.97957 -0.549137,26.41844 0.40618,39.11823 12.912965,-0.41263 26.171207,0.87728 38.899516,-0.99983 3.075011,-4.70534 0.660807,-11.47852 1.499743,-16.84083 -0.555462,-7.2183 0.85718,-15.2209 -1.34352,-22.05869 -2.630124,-1.05529 -5.77422,-0.60064 -8.561017,-0.68738 z"
     id="path7463"
     inkscape:connector-curvature="0" />
  <path
     style="fill:#c2c1c1;fill-opacity:1;stroke:none"
     d="m 77.165074,48.485701 c -10.009249,0.93993 -20.466791,0.17293 -30.213519,1.06232 0.278331,13.07393 -0.548235,26.60553 0.406181,39.39943 13.073937,-0.27833 26.605534,0.54823 39.399429,-0.40618 -0.30267,-13.50217 0.591878,-27.5264 -0.437425,-40.71171 -3.051554,0.21871 -6.103107,0.43743 -9.154666,0.65614 z"
     id="path7465"
     inkscape:connector-curvature="0" />
  <path
     style="fill:#c2c1c1;fill-opacity:1;stroke:none"
     d="m 2.959169,92.540571 c 0.25138,13.375339 -0.501439,27.143309 0.374935,40.274289 13.391761,0.91832 27.285857,1.36665 40.430504,0.71862 -0.277748,-13.74073 0.547598,-27.93838 -0.406181,-41.399079 -13.40527,0.26981 -27.276547,-0.54012 -40.399258,0.40617 z"
     id="path7467"
     inkscape:connector-curvature="0" />
  <path
     style="fill:#c2c1c1;fill-opacity:1;stroke:none"
     d="m 3.190033,156.64518 0,-19.79556 19.795564,0 19.795563,0 0,19.79556 0,19.79557 -19.795563,0 -19.795564,0 0,-19.79557 z"
     id="path7469"
     inkscape:connector-curvature="0" />
  <path
     style="fill:#c2c1c1;fill-opacity:1;stroke:none"
     d="m 47.023068,156.64518 0,-19.79556 19.795564,0 19.795564,0 0,19.79556 0,19.79557 -19.795564,0 -19.795564,0 0,-19.79557 z"
     id="path7471"
     inkscape:connector-curvature="0" />
  <path
     style="fill:#c2c1c1;fill-opacity:1;stroke:none"
     d="m 178.53222,122.35644 c 0.006,-5.6382 0.41568,-14.5462 0.91145,-19.79556 l 0.9014,-9.544289 18.88412,0 18.88411,0 0,19.795559 0,19.79557 -19.79557,0 -19.79556,0 0.0101,-10.25128 -1e-5,0 z"
     id="path7473"
     inkscape:connector-curvature="0" />
  <path
     style="fill:#c2c1c1;fill-opacity:1;stroke:none"
     d="m 222.35521,115.04875 c 0,-9.65743 0.38621,-18.565439 0.85826,-19.795559 0.72351,-1.88544 3.83159,-2.2366 19.79556,-2.2366 l 18.9373,0 0,19.795559 0,19.79557 -19.79556,0 -19.79556,0 0,-17.55897 z"
     id="path7475"
     inkscape:connector-curvature="0" />
  <path
     style="fill:#c2c1c1;fill-opacity:1;stroke:none"
     d="m 266.18824,112.81215 0,-19.795559 19.79556,0 19.79557,0 0,19.795559 0,19.79557 -19.79557,0 -19.79556,0 0,-19.79557 z"
     id="path7477"
     inkscape:connector-curvature="0" />
  <path
     style="fill:#c2c1c1;fill-opacity:1;stroke:none"
     d="m 310.02127,112.81215 0,-19.795559 19.79556,0 19.79557,0 0,19.795559 0,19.79557 -19.79557,0 -19.79556,0 0,-19.79557 z"
     id="path7479"
     inkscape:connector-curvature="0" />
  <path
     style="fill:#c2c1c1;fill-opacity:1;stroke:none"
     d="m 6.017971,308.64683 0,-19.08857 19.795564,0 19.795565,0 0,19.08857 0,19.08858 -19.795565,0 -19.795564,0 0,-19.08858 z"
     id="path7481"
     inkscape:connector-curvature="0" />
  <path
     style="fill:#c2c1c1;fill-opacity:1;stroke:none"
     d="m 11.320354,371.95239 -5.302383,-0.55465 0,-19.71021 0,-19.71021 19.795564,0 19.795565,0 0,20.50255 0,20.50255 -14.493182,-0.23769 c -7.971249,-0.13074 -16.879253,-0.48729 -19.795564,-0.79234 z"
     id="path7483"
     inkscape:connector-curvature="0" />
  <path
     style="fill:#c2c1c1;fill-opacity:1;stroke:none"
     d="m 6.017971,397.01989 0,-19.79557 19.795564,0 19.795565,0 0,19.79557 0,19.79556 -19.795565,0 -19.795564,0 0,-19.79556 z"
     id="path7485"
     inkscape:connector-curvature="0" />
  <path
     style="fill:#c2c1c1;fill-opacity:1;stroke:none"
     d="m 49.851004,397.01989 0,-19.79557 19.795564,0 19.795564,0 0,19.79557 0,19.79556 -19.795564,0 -19.795564,0 0,-19.79556 z"
     id="path7487"
     inkscape:connector-curvature="0" />
  <path
     style="fill:#c2c1c1;fill-opacity:1;stroke:none"
     d="m 93.68404,397.01989 0,-19.79557 19.79556,0 19.79557,0 0,19.79557 0,19.79556 -19.79557,0 -19.79556,0 0,-19.79556 z"
     id="path7489"
     inkscape:connector-curvature="0" />
  <path
     style="fill:#c2c1c1;fill-opacity:1;stroke:none"
     d="m 241.09029,371.92777 -14.49318,-0.45825 -0.0101,-10.20181 c -0.006,-5.611 -0.41568,-14.49674 -0.91145,-19.7461 l -0.9014,-9.54429 20.00003,0 20.00003,0 0,20.50255 0,20.50255 -4.59539,-0.2982 c -2.52748,-0.16402 -11.11733,-0.50442 -19.08858,-0.75645 z"
     id="path7491"
     inkscape:connector-curvature="0" />
  <path
     style="fill:#c2c1c1;fill-opacity:1;stroke:none"
     d="m 269.01617,352.6813 0,-20.70398 19.79557,0 19.79556,0 0,19.79557 0,19.79556 -11.10433,0 c -6.10738,0 -15.01539,0.40878 -19.79557,0.90841 l -8.69123,0.90842 0,-20.70398 z"
     id="path7493"
     inkscape:connector-curvature="0" />
  <path
     style="fill:#c2c1c1;fill-opacity:1;stroke:none"
     d="m 312.84921,351.77289 0,-19.79557 20.50255,0 20.50255,0 0,11.10434 c 0,6.10738 -0.40879,15.01538 -0.90842,19.79556 l -0.90841,8.69123 -19.59414,0 -19.59413,0 0,-19.79556 z"
     id="path7495"
     inkscape:connector-curvature="0" />
  <path
     style="fill:#c2c1c1;fill-opacity:1;stroke:none"
     d="m 226.59711,308.64683 0,-19.08857 19.08858,0 19.08858,0 0,19.08857 0,19.08858 -19.08858,0 -19.08858,0 0,-19.08858 z"
     id="path7497"
     inkscape:connector-curvature="0" />
  <path
     style="fill:#c2c1c1;fill-opacity:1;stroke:none"
     d="m 269.01617,308.64683 0,-19.08857 19.79557,0 19.79556,0 0,19.08857 0,19.08858 -19.79556,0 -19.79557,0 0,-19.08858 z"
     id="path7499"
     inkscape:connector-curvature="0" />
  <path
     style="fill:#c2c1c1;fill-opacity:1;stroke:none"
     d="m 312.84921,308.64683 0,-19.08857 19.79556,0 19.79557,0 0,19.08857 0,19.08858 -19.79557,0 -19.79556,0 0,-19.08858 z"
     id="path7501"
     inkscape:connector-curvature="0" />
  <path
     style="fill:#c2c1c1;fill-opacity:1;stroke:none"
     d="m 356.68224,351.77289 0,-19.79557 20.50255,0 20.50255,0 0,11.10434 c 0,6.10738 -0.40879,15.01538 -0.90841,19.79556 l -0.90842,8.69123 -19.59413,0 -19.59414,0 0,-19.79556 z"
     id="path7503"
     inkscape:connector-curvature="0" />
</svg>
