<?xml version="1.0" encoding="UTF-8" standalone="no"?>
<svg
   xmlns:dc="http://purl.org/dc/elements/1.1/"
   xmlns:cc="http://creativecommons.org/ns#"
   xmlns:rdf="http://www.w3.org/1999/02/22-rdf-syntax-ns#"
   xmlns:svg="http://www.w3.org/2000/svg"
   xmlns="http://www.w3.org/2000/svg"
   xmlns:sodipodi="http://sodipodi.sourceforge.net/DTD/sodipodi-0.dtd"
   xmlns:inkscape="http://www.inkscape.org/namespaces/inkscape"
   version="1.0"
   width="500.80804"
   height="274.9267"
   viewBox="0 0 400.64644 219.94136"
   preserveAspectRatio="xMidYMid meet"
   id="svg2"
   inkscape:version="0.48.4 r9939"
   sodipodi:docname="8797f3fb10b9415d39fdad206bafe2172faa1883.svg">
  <defs
     id="defs114" />
  <sodipodi:namedview
     pagecolor="#ffffff"
     bordercolor="#666666"
     borderopacity="1"
     objecttolerance="10"
     gridtolerance="10"
     guidetolerance="10"
     inkscape:pageopacity="0"
     inkscape:pageshadow="2"
     inkscape:window-width="1600"
     inkscape:window-height="824"
     id="namedview112"
     showgrid="false"
     fit-margin-top="0"
     fit-margin-left="0"
     fit-margin-right="0"
     fit-margin-bottom="0"
     inkscape:zoom="0.37684631"
     inkscape:cx="553.00782"
     inkscape:cy="300.625"
     inkscape:window-x="0"
     inkscape:window-y="24"
     inkscape:window-maximized="1"
     inkscape:current-layer="svg2" />
  <metadata
     id="metadata4">
Created by potrace 1.10, written by Peter Selinger 2001-2011
<rdf:RDF>
  <cc:Work
     rdf:about="">
    <dc:format>image/svg+xml</dc:format>
    <dc:type
       rdf:resource="http://purl.org/dc/dcmitype/StillImage" />
  </cc:Work>
</rdf:RDF>
</metadata>
  <g
     transform="matrix(0.04603827,0,0,-0.04603827,-3.4960275,224.54517)"
     id="g6"
     style="fill:#000000;stroke:none">
    <path
       d="m 2340,4850 c -74,-27 -111,-45 -180,-88 -48,-30 -103,-29 -144,3 -77,59 -135,61 -230,11 l -43,-23 -134,18 c -140,19 -134,20 -484,-11 -60,-5 -180,-19 -265,-31 -85,-11 -219,-22 -297,-23 -137,-3 -143,-4 -177,-30 -23,-17 -36,-35 -36,-50 0,-34 46,-96 107,-144 l 54,-44 -8,-96 c -12,-146 -8,-467 6,-552 13,-77 45,-186 68,-230 7,-14 13,-30 13,-37 0,-25 57,-119 103,-169 l 48,-53 -16,-35 c -9,-20 -18,-65 -19,-101 -2,-49 -7,-70 -23,-87 -41,-46 -70,-115 -148,-346 -27,-78 -50,-173 -65,-262 -5,-30 -15,-82 -23,-115 l -14,-60 -175,4 c -175,3 -175,3 -181,-20 -4,-16 3,-33 26,-60 18,-21 68,-80 112,-132 44,-53 91,-100 105,-107 17,-8 98,-11 265,-9 160,1 257,-2 290,-10 111,-27 282,-51 359,-51 74,0 86,-3 119,-27 71,-54 156,-188 157,-245 0,-66 78,-208 114,-208 6,0 24,-7 41,-16 62,-32 197,-29 450,10 193,30 311,46 405,57 52,5 111,14 130,19 19,4 69,11 110,15 41,4 91,11 110,16 19,5 80,13 135,19 196,19 437,49 555,69 30,6 105,17 165,26 213,30 240,34 262,41 16,4 25,1 29,-10 6,-14 0,-35 -56,-191 -28,-81 -79,-188 -93,-197 -7,-4 -454,-8 -994,-8 -707,0 -989,-3 -1010,-11 -116,-46 -182,-88 -258,-164 -103,-103 -160,-178 -220,-290 -26,-49 -54,-97 -61,-106 -8,-8 -14,-21 -14,-28 0,-6 -11,-33 -25,-60 -19,-39 -22,-52 -12,-65 11,-15 258,-16 3141,-16 2724,-1 3132,1 3144,14 13,13 13,22 -1,73 -17,65 -62,195 -80,233 -28,58 -104,169 -156,228 -50,57 -131,123 -214,175 -27,17 -87,18 -1076,17 -870,0 -1050,2 -1060,13 -14,18 -40,89 -56,157 -7,30 -21,80 -30,110 -25,80 -28,107 -16,115 11,6 58,0 211,-26 30,-5 89,-13 130,-19 41,-6 120,-17 175,-25 123,-19 317,-43 450,-55 55,-5 123,-14 150,-19 28,-6 127,-20 220,-31 253,-30 326,-40 550,-75 250,-39 389,-42 452,-10 15,8 33,15 39,15 10,0 35,26 85,88 6,7 15,40 20,75 14,91 57,172 130,250 l 64,67 87,0 c 80,0 246,23 363,51 33,7 142,11 316,10 179,-2 274,2 290,9 25,11 30,18 58,76 8,16 39,66 68,111 78,121 72,137 -51,126 l -77,-6 3,397 3,397 -41,39 c -56,52 -102,63 -254,58 l -127,-3 -45,-35 c -75,-57 -75,-53 -68,-330 3,-135 3,-254 0,-265 -4,-11 -2,-66 3,-123 12,-132 11,-134 -97,-130 l -81,3 -1,120 c -1,143 0,140 -18,126 -8,-7 -12,-20 -9,-30 5,-20 -21,-46 -37,-36 -6,4 -15,17 -20,29 -8,19 -9,18 -16,-12 -8,-37 -29,-52 -73,-52 -17,0 -40,-5 -51,-12 -15,-10 -22,-9 -37,4 -15,14 -31,16 -76,11 -51,-5 -60,-3 -78,16 -11,11 -28,21 -38,21 -27,0 -43,24 -39,62 3,32 4,33 47,31 24,-1 60,-10 80,-19 19,-9 52,-18 73,-20 21,-1 42,-5 47,-9 6,-3 21,1 33,9 13,8 52,23 87,32 53,13 68,14 87,3 13,-7 27,-9 31,-5 5,4 9,120 9,258 l 1,250 -29,34 c -52,59 -99,74 -229,74 -139,0 -180,-11 -233,-60 l -41,-38 0,-394 0,-393 -87,-3 c -66,-2 -88,0 -89,10 0,7 0,184 1,393 l 1,381 -35,36 c -57,58 -103,71 -253,66 -144,-4 -181,-17 -209,-70 -17,-32 -18,-129 -9,-656 1,-102 -2,-155 -9,-160 -6,-4 -47,-5 -91,-2 l -80,5 1,45 c 1,25 3,199 4,387 l 2,342 -28,35 c -49,61 -87,71 -264,71 -172,0 -188,-5 -245,-73 l -28,-33 3,-352 c 1,-194 3,-368 4,-387 l 1,-35 -85,0 c -82,0 -85,-1 -88,-24 -3,-16 8,-36 35,-65 22,-22 57,-63 78,-90 22,-27 61,-71 87,-98 l 48,-49 373,2 c 204,0 379,-2 387,-5 28,-10 305,-55 336,-54 48,2 55,-7 38,-50 -23,-59 -45,-95 -77,-129 -44,-47 -85,-47 -402,6 -66,11 -194,29 -285,40 -91,12 -255,32 -365,46 -110,14 -238,29 -285,34 -305,34 -540,61 -605,71 -33,6 -115,17 -183,25 -67,8 -127,17 -134,21 -17,11 -2,400 21,559 17,120 56,301 83,385 6,19 34,85 63,145 45,95 61,118 115,168 35,31 89,70 119,85 52,25 65,27 169,26 61,-1 112,1 112,5 0,4 34,58 75,121 48,72 73,120 70,131 -3,9 -38,34 -78,55 -40,20 -74,41 -77,45 -8,12 -303,159 -318,159 -8,0 -28,7 -45,14 -237,109 -643,162 -928,121 -174,-25 -269,-46 -374,-82 -55,-19 -132,-45 -171,-59 -39,-13 -125,-52 -190,-85 -65,-33 -141,-72 -169,-86 -89,-45 -165,-96 -165,-109 0,-7 28,-49 63,-93 34,-43 76,-98 92,-121 33,-45 36,-46 135,-20 95,25 221,-8 327,-86 57,-42 81,-69 121,-134 81,-131 144,-350 162,-560 5,-52 14,-133 20,-180 6,-47 9,-157 8,-245 l -3,-160 -65,-6 c -87,-9 -231,-27 -305,-39 -64,-10 -279,-35 -380,-45 -33,-3 -91,-10 -130,-15 -38,-6 -126,-17 -195,-25 -262,-30 -687,-86 -830,-111 -169,-28 -204,-32 -277,-33 l -71,-1 -35,40 c -36,42 -81,145 -71,161 3,5 19,9 36,9 34,0 314,47 338,56 8,4 185,6 392,5 316,-2 381,0 398,12 24,16 106,137 116,170 4,12 20,38 35,58 16,20 29,44 29,52 0,37 -21,39 -341,36 -255,-2 -314,0 -317,11 -3,7 5,32 16,54 29,58 62,141 78,200 8,28 19,65 23,81 51,175 62,232 91,445 12,82 12,331 0,430 -22,195 -34,263 -75,405 -7,28 -21,77 -31,110 -18,64 -56,170 -79,220 -8,17 -26,65 -41,107 -23,69 -24,82 -14,115 7,21 16,43 20,48 4,6 11,32 14,58 11,71 28,105 70,133 68,47 73,123 9,149 -44,18 -41,19 -133,-15 z m 105,-59 c 0,-18 -8,-27 -30,-34 -46,-15 -53,-24 -60,-80 -7,-58 -15,-84 -56,-175 -31,-69 -32,-65 20,-171 17,-36 31,-69 31,-74 0,-5 6,-23 14,-40 18,-41 40,-108 60,-177 106,-379 111,-413 111,-740 0,-278 -7,-337 -57,-515 -11,-38 -26,-92 -33,-120 -7,-27 -19,-70 -26,-95 -6,-25 -15,-49 -19,-55 -4,-5 -11,-26 -14,-45 -4,-19 -11,-44 -16,-55 -5,-11 -14,-39 -20,-62 -6,-23 -15,-45 -20,-48 -11,-7 -1821,-7 -1828,0 -3,3 0,25 7,48 7,23 19,71 26,107 12,61 29,134 55,240 6,25 17,59 25,77 8,17 15,35 15,41 0,9 22,62 71,169 10,23 19,46 19,51 0,5 7,15 15,22 12,10 24,5 66,-26 122,-90 277,-144 410,-144 83,0 90,1 105,25 31,47 15,56 -86,48 -70,-5 -105,-2 -157,12 -108,28 -266,112 -297,157 -20,28 -21,78 -2,103 13,18 16,18 56,-19 58,-53 207,-121 317,-146 103,-24 133,-18 133,25 0,27 -6,29 -98,40 -81,9 -212,57 -278,101 -104,70 -210,200 -258,316 -10,24 -25,59 -33,78 -15,34 -21,66 -43,210 -12,84 -12,353 0,502 5,64 7,123 5,130 -3,7 -27,26 -54,41 -75,42 -121,104 -90,122 6,4 63,6 126,6 64,-1 148,3 187,8 39,6 118,15 176,21 58,6 164,17 235,25 163,18 417,18 515,1 73,-13 111,-9 124,13 4,6 30,17 57,25 58,17 90,9 152,-38 47,-36 112,-36 170,1 76,49 232,123 252,120 14,-1 20,-9 20,-26 z m 2231,-866 c 106,-13 294,-58 379,-89 22,-8 46,-15 53,-16 7,0 54,-20 105,-44 51,-24 111,-52 135,-62 23,-10 42,-21 42,-25 0,-4 13,-10 29,-14 16,-3 35,-13 42,-21 6,-8 15,-14 20,-14 17,0 88,-55 89,-69 0,-8 -6,-22 -14,-30 -8,-9 -26,-40 -41,-69 -15,-29 -33,-56 -41,-59 -8,-3 -34,8 -57,23 -56,38 -97,62 -202,118 -73,39 -205,95 -260,111 -33,9 -82,24 -110,32 -27,9 -68,20 -90,24 -22,4 -59,12 -83,18 -24,6 -86,13 -139,16 -102,4 -117,11 -106,52 8,36 -5,73 -27,73 -22,0 -34,-31 -25,-67 12,-48 -1,-63 -54,-63 -27,0 -70,-4 -97,-10 -111,-22 -361,-85 -389,-99 -277,-127 -330,-154 -416,-216 -27,-19 -53,-35 -59,-35 -5,0 -21,17 -36,38 -15,20 -43,53 -62,73 -19,21 -32,45 -30,55 3,15 56,52 123,84 11,6 27,14 35,20 42,27 335,153 405,174 130,39 299,79 385,91 130,18 364,18 496,0 z m -309,-237 c 11,-16 1,-305 -15,-433 -7,-49 -16,-191 -22,-315 -6,-124 -15,-299 -20,-390 -35,-586 -31,-540 -54,-545 -11,-3 -43,-6 -71,-7 l -50,-3 -1,170 c -2,147 -27,446 -40,467 -2,4 -9,43 -15,88 -25,205 -89,368 -194,498 -89,110 -184,162 -313,170 l -83,5 22,23 c 13,13 26,24 30,24 5,0 46,18 91,41 204,100 506,197 624,200 21,1 50,5 64,9 36,11 37,11 47,-2 z m 248,-7 c 126,-12 283,-55 412,-112 23,-11 45,-19 49,-19 3,0 63,-28 133,-61 166,-81 175,-94 76,-101 -47,-4 -80,-14 -122,-38 -56,-31 -143,-106 -143,-123 0,-7 -8,-19 -36,-51 -42,-47 -87,-158 -154,-381 -36,-123 -73,-415 -76,-615 -2,-102 -3,-189 -4,-193 0,-5 -10,-5 -22,-1 -13,4 -54,10 -93,13 l -70,6 -12,170 c -7,94 -17,251 -22,350 -6,99 -15,218 -20,265 -6,47 -13,119 -16,160 -3,41 -12,131 -20,200 -33,297 -50,524 -40,541 5,8 22,9 54,5 25,-4 82,-11 126,-15 z m -191,-543 c 3,-24 10,-122 16,-218 6,-96 15,-229 20,-295 5,-66 17,-226 25,-355 19,-281 23,-301 55,-316 14,-7 86,-20 160,-29 74,-9 160,-21 190,-27 30,-5 114,-16 185,-23 172,-18 348,-39 520,-64 77,-11 203,-27 280,-36 77,-8 190,-22 250,-30 61,-8 187,-23 280,-35 211,-25 367,-47 468,-66 128,-23 166,-20 230,22 54,37 97,97 97,140 1,10 7,30 15,44 23,40 19,86 -10,108 l -25,20 183,4 c 100,3 185,3 190,1 4,-3 -15,-21 -41,-41 -111,-84 -154,-133 -190,-219 -12,-28 -22,-65 -22,-81 0,-15 -7,-49 -15,-74 -14,-38 -24,-50 -68,-74 -43,-23 -67,-29 -137,-32 -85,-4 -116,-1 -370,37 -74,11 -166,22 -205,26 -38,3 -95,11 -125,16 -30,5 -98,14 -150,18 -52,5 -160,19 -240,30 -80,12 -194,28 -255,36 -60,8 -141,20 -180,26 -38,5 -110,15 -160,20 -49,5 -97,12 -105,15 -8,3 -71,12 -140,19 -298,33 -393,45 -520,64 -169,26 -251,26 -415,0 -71,-11 -177,-24 -235,-29 -58,-6 -130,-15 -160,-20 -30,-6 -98,-15 -150,-20 -91,-10 -200,-24 -375,-49 -74,-10 -188,-26 -390,-53 -44,-5 -105,-15 -135,-20 -57,-10 -191,-28 -365,-48 -55,-6 -165,-20 -245,-32 -80,-11 -176,-25 -215,-30 -38,-5 -108,-8 -155,-6 -132,7 -195,47 -206,134 -19,146 -72,229 -212,336 -29,23 -50,43 -48,45 2,3 88,6 190,6 l 185,2 -29,-23 c -35,-28 -37,-43 -10,-132 26,-86 54,-127 115,-167 58,-38 101,-42 218,-19 69,14 117,20 467,66 85,11 202,27 260,35 58,8 168,21 245,30 77,9 169,20 205,25 138,20 288,39 350,45 36,3 88,10 115,16 28,5 97,14 155,19 58,5 152,16 210,25 58,8 148,21 200,28 129,18 137,23 144,94 9,92 25,431 37,783 6,179 13,335 16,348 8,35 21,26 27,-20 z m 1908,-29 c 137,-29 157,-94 40,-133 -61,-21 -217,-21 -289,0 -84,24 -98,78 -30,112 62,30 189,40 279,21 z m 744,-18 c 78,-35 61,-94 -34,-120 -56,-16 -192,-13 -244,5 -161,54 -51,151 156,138 46,-3 98,-13 122,-23 z m 642,18 c 45,-8 73,-20 95,-38 29,-27 30,-28 12,-54 -23,-36 -97,-57 -198,-57 -92,0 -148,14 -182,46 -32,29 -23,60 24,81 72,32 152,39 249,22 z m 767,-18 c 58,-26 72,-51 42,-79 -39,-37 -91,-52 -180,-52 -138,0 -231,42 -211,94 8,21 53,45 107,56 63,14 191,4 242,-19 z M 6055,2820 c 3,-5 17,-10 30,-10 13,0 26,-4 29,-9 3,-5 15,-7 27,-4 13,4 29,-3 48,-21 l 28,-27 17,26 c 13,19 25,26 44,24 15,-1 34,1 42,5 9,3 31,8 50,10 19,2 42,6 51,10 24,10 49,-20 49,-58 0,-30 -4,-35 -42,-49 -58,-22 -127,-36 -162,-34 -16,1 -31,-4 -33,-10 -4,-10 7,-11 41,-7 53,8 62,-4 52,-61 l -7,-34 -87,2 -87,2 -3,33 c -2,21 3,41 13,52 22,25 13,38 -23,32 -18,-2 -35,2 -45,12 -8,9 -25,16 -35,16 -42,0 -52,11 -52,54 0,24 3,46 7,49 10,10 41,8 48,-3 z m 1079,-12 c 29,-41 21,-65 -31,-88 -26,-11 -58,-23 -72,-26 -53,-12 -58,-14 -38,-25 17,-10 21,-37 11,-76 -6,-21 -12,-23 -75,-23 l -68,0 -7,37 c -6,30 -3,39 15,54 30,25 27,29 -24,29 -27,0 -47,5 -52,14 -4,8 -24,18 -43,23 -33,9 -35,12 -35,49 l 0,39 50,-3 c 27,-2 55,-8 62,-14 7,-6 20,-7 29,-4 9,4 23,1 31,-5 10,-9 20,-9 38,-1 14,6 54,14 90,18 36,4 68,11 71,15 9,16 33,9 48,-13 z m 356,6 c 25,-9 52,-17 60,-18 8,-1 27,-6 43,-10 17,-5 32,-4 41,3 8,7 25,9 39,6 14,-4 28,-2 31,4 4,6 22,11 41,11 19,0 46,5 60,12 31,14 44,4 51,-43 6,-34 5,-35 -54,-63 -34,-16 -81,-30 -108,-31 -77,-5 -83,-8 -29,-14 55,-7 65,-23 46,-74 -10,-25 -15,-27 -68,-27 -68,0 -79,6 -88,42 -5,20 -2,31 14,44 26,23 18,34 -23,34 -19,0 -39,7 -46,15 -7,8 -25,15 -40,15 -16,0 -30,7 -34,16 -12,31 -4,94 13,94 3,0 26,-8 51,-16 z m 699,5 c 20,-6 44,-16 54,-21 10,-5 22,-6 28,-2 6,3 19,-2 30,-12 18,-16 20,-16 39,1 13,12 27,15 44,11 14,-3 28,-1 32,5 4,7 22,9 46,6 28,-4 41,-1 45,9 15,40 70,-16 59,-61 -4,-14 -14,-25 -23,-25 -9,0 -24,-6 -32,-14 -22,-19 -100,-35 -138,-29 -21,3 -33,1 -33,-6 0,-6 17,-11 40,-11 47,0 55,-12 42,-61 l -8,-34 -70,0 -69,0 -3,43 c -2,31 1,44 12,48 29,11 16,24 -23,24 -22,0 -44,6 -51,15 -7,8 -27,15 -46,15 -30,0 -34,3 -39,34 -8,39 1,76 17,76 7,0 28,-5 47,-11 z M 6112,2554 c 15,-8 36,-14 47,-14 11,0 22,-4 26,-10 8,-14 84,-6 130,14 68,29 124,40 149,28 19,-8 22,-16 18,-44 -6,-43 -20,-60 -43,-53 -12,4 -30,-2 -45,-14 -15,-12 -41,-21 -60,-21 -19,0 -43,-5 -54,-12 -16,-10 -23,-9 -43,10 -20,19 -28,21 -51,12 -44,-17 -104,-12 -125,9 -11,11 -30,21 -43,23 -20,3 -23,9 -26,52 l -3,48 48,-7 c 26,-4 60,-13 75,-21 z m 1032,20 c 11,-4 16,-19 16,-50 0,-39 -3,-44 -23,-44 -12,0 -39,-9 -60,-20 -20,-11 -48,-20 -61,-20 -14,0 -36,-5 -50,-11 -20,-10 -29,-9 -42,2 -10,8 -40,14 -73,14 -44,0 -63,5 -86,23 -34,27 -68,79 -60,93 9,14 83,11 108,-5 12,-8 48,-18 80,-21 31,-4 60,-12 64,-18 3,-6 13,-1 22,11 9,12 40,28 71,36 64,17 73,18 94,10 z m 1091,-20 c 11,-8 29,-14 40,-14 12,0 25,-4 31,-9 11,-11 57,-2 162,31 86,26 105,20 109,-36 2,-32 -2,-38 -25,-47 -21,-8 -29,-7 -39,7 -7,10 -13,23 -14,28 -1,6 -7,-7 -14,-29 -11,-36 -15,-40 -46,-40 -19,0 -45,-7 -57,-14 -21,-11 -27,-10 -46,8 -15,14 -26,17 -36,11 -28,-18 -99,-12 -117,10 -10,11 -27,20 -39,20 -17,0 -24,9 -32,39 -7,28 -6,43 2,51 13,13 93,3 121,-16 z m -8,-308 c 310,-1 445,-4 453,-12 8,-8 5,-21 -12,-46 -14,-19 -37,-60 -52,-90 l -28,-55 -451,-7 c -249,-3 -823,-4 -1277,-1 l -825,5 -20,28 c -10,15 -45,54 -77,88 -32,33 -58,66 -58,71 0,20 157,24 820,21 360,-2 734,-1 830,3 96,3 193,3 215,0 22,-2 239,-5 482,-5 z m -5271,-19 c 3,-2 -11,-27 -30,-55 -18,-28 -42,-68 -52,-90 l -19,-39 -610,-6 c -335,-4 -902,-5 -1259,-3 -635,4 -649,4 -665,24 -58,72 -100,120 -124,140 -15,13 -25,27 -23,30 4,8 2775,7 2782,-1 z m 1585,-511 c 46,-8 119,-18 161,-22 43,-4 83,-12 88,-19 6,-7 15,-38 20,-68 5,-31 16,-76 24,-102 9,-25 16,-54 16,-64 0,-10 3,-21 7,-25 10,-10 43,-98 43,-116 0,-13 -58,-15 -471,-13 -259,1 -474,4 -477,8 -3,3 11,42 33,88 54,116 76,182 90,269 l 6,36 70,7 c 39,4 103,13 142,20 97,18 149,18 248,1 z m 2551,-518 c 92,-47 215,-175 291,-303 45,-76 107,-235 107,-275 0,-20 -9,-20 -3070,-20 -2011,0 -3070,3 -3070,10 0,17 103,205 155,281 87,131 247,277 320,295 17,4 35,10 40,14 6,5 21,10 35,13 14,2 1178,5 2587,6 l 2562,1 43,-22 z"
       id="path8"
       inkscape:connector-curvature="0" />
    <path
       d="m 1245,3978 c -39,-37 -44,-62 -15,-78 16,-8 20,-23 22,-83 3,-67 5,-72 27,-75 13,-2 27,2 31,9 7,10 7,91 0,247 0,21 -28,13 -65,-20 z"
       id="path10"
       inkscape:connector-curvature="0" />
    <path
       d="m 1478,3992 c -10,-14 -12,-47 -8,-133 5,-109 6,-114 28,-117 20,-3 22,1 22,37 0,30 4,41 15,41 8,0 15,-9 15,-20 0,-26 37,-63 56,-56 17,6 12,35 -12,73 -19,31 -18,51 6,65 24,15 26,34 5,42 -9,3 -25,-6 -40,-21 -13,-15 -28,-24 -32,-20 -4,4 -7,33 -7,65 -1,44 -5,57 -18,60 -9,2 -22,-6 -30,-16 z"
       id="path12"
       inkscape:connector-curvature="0" />
    <path
       d="m 1660,3902 c -30,-33 -27,-102 4,-131 34,-32 46,-20 39,39 -3,27 -2,57 1,67 7,17 8,17 22,-1 16,-23 19,-67 4,-82 -8,-8 -7,-19 1,-38 11,-23 10,-29 -2,-37 -21,-13 -45,-11 -59,6 -7,8 -16,15 -21,15 -16,0 -10,-26 11,-48 26,-27 79,-29 110,-4 21,17 23,26 22,118 0,54 -1,104 -1,110 -1,6 -24,10 -56,10 -45,-1 -60,-5 -75,-24 z"
       id="path14"
       inkscape:connector-curvature="0" />
    <path
       d="m 1510,3544 c -6,-14 -10,-30 -10,-35 0,-5 -9,-9 -19,-9 -10,0 -22,-7 -25,-16 -12,-31 -6,-120 10,-142 17,-25 52,-29 60,-7 6,14 8,14 18,-1 7,-9 22,-14 36,-12 24,3 25,5 21,83 -3,91 -5,95 -32,95 -17,0 -19,-7 -19,-58 0,-57 -11,-82 -37,-82 -9,0 -13,19 -13,70 0,60 3,70 18,70 26,1 65,37 58,55 -9,26 -55,18 -66,-11 z"
       id="path16"
       inkscape:connector-curvature="0" />
    <path
       d="m 1114,3486 c -16,-13 -24,-28 -20,-34 10,-17 33,-15 40,3 3,8 15,15 26,15 11,0 20,-7 20,-15 0,-8 -9,-15 -19,-15 -11,0 -32,-11 -46,-24 -34,-32 -31,-76 5,-92 32,-14 125,-4 124,14 -1,6 -2,36 -3,65 -2,62 -22,92 -68,100 -25,5 -39,1 -59,-17 z m 74,-100 c 5,-23 -12,-40 -32,-33 -13,5 -14,11 -4,32 13,28 31,28 36,1 z"
       id="path18"
       inkscape:connector-curvature="0" />
    <path
       d="m 2035,3501 -30,-6 -3,-87 c -3,-80 -1,-87 18,-93 36,-11 47,8 42,74 -4,59 -4,59 29,76 31,17 32,18 14,31 -20,15 -23,15 -70,5 z"
       id="path20"
       inkscape:connector-curvature="0" />
    <path
       d="m 1298,3475 c -28,-38 -24,-104 9,-139 22,-24 24,-32 15,-47 -18,-29 -15,-59 7,-59 21,0 30,10 59,61 11,20 26,46 33,57 19,30 3,40 -32,19 -17,-9 -35,-17 -40,-17 -12,0 -12,107 0,114 5,3 14,-1 21,-9 15,-18 60,-20 60,-2 0,47 -102,64 -132,22 z"
       id="path22"
       inkscape:connector-curvature="0" />
    <path
       d="m 1658,3475 c -25,-33 -23,-100 3,-136 25,-36 78,-40 109,-9 39,39 10,71 -31,34 -26,-24 -39,-9 -39,46 0,53 11,68 30,45 13,-15 51,-20 63,-8 4,3 -3,17 -15,30 -31,33 -96,32 -120,-2 z"
       id="path24"
       inkscape:connector-curvature="0" />
    <path
       d="m 1832,3479 c -10,-16 -11,-24 -2,-33 8,-8 14,-7 21,7 12,21 49,23 49,2 0,-9 -9,-15 -22,-15 -22,0 -68,-52 -68,-77 0,-25 38,-43 93,-43 l 57,0 0,65 c 0,88 -17,115 -74,115 -31,0 -44,-5 -54,-21 z m 76,-93 c 5,-23 -12,-40 -32,-33 -13,5 -14,11 -4,32 13,28 31,28 36,1 z"
       id="path26"
       inkscape:connector-curvature="0" />
    <path
       d="m 4387,1942 c -24,-27 -21,-74 6,-100 23,-21 23,-21 55,-2 38,23 42,55 11,94 -24,30 -49,33 -72,8 z"
       id="path28"
       inkscape:connector-curvature="0" />
    <path
       d="m 6915,2680 c -4,-6 5,-10 20,-10 15,0 24,4 20,10 -3,6 -12,10 -20,10 -8,0 -17,-4 -20,-10 z"
       id="path30"
       inkscape:connector-curvature="0" />
    <path
       d="m 528,407 c -42,-37 -49,-72 -18,-80 16,-4 19,-15 22,-78 3,-69 5,-74 27,-77 13,-2 27,2 31,9 9,14 5,233 -5,249 -10,16 -17,13 -57,-23 z"
       id="path32"
       inkscape:connector-curvature="0" />
    <path
       d="m 758,421 c -10,-13 -12,-48 -8,-132 5,-108 6,-114 27,-117 19,-3 22,2 25,35 3,39 20,52 26,20 4,-21 37,-57 51,-57 21,0 21,21 1,62 -25,52 -25,65 0,78 24,13 26,35 5,44 -9,3 -27,-8 -45,-27 -33,-35 -34,-33 -30,40 3,66 -24,95 -52,54 z"
       id="path34"
       inkscape:connector-curvature="0" />
    <path
       d="m 1310,420 c -6,-12 -8,-30 -5,-40 4,-11 3,-30 -1,-42 -6,-19 -7,-19 -16,-5 -13,24 -55,21 -68,-3 -6,-11 -10,-45 -8,-76 3,-49 6,-57 31,-72 27,-16 29,-16 39,1 9,17 11,17 29,2 36,-34 46,-15 52,112 5,102 4,120 -10,131 -23,17 -31,15 -43,-8 z m -12,-122 c 7,-7 12,-25 12,-40 0,-23 -4,-28 -25,-28 -22,0 -25,4 -25,40 0,41 14,52 38,28 z"
       id="path36"
       inkscape:connector-curvature="0" />
    <path
       d="m 2119,422 c -26,-22 -21,-52 9,-52 25,0 56,35 49,55 -8,20 -30,19 -58,-3 z"
       id="path38"
       inkscape:connector-curvature="0" />
    <path
       d="m 3394,419 c -18,-20 -18,-21 1,-35 25,-19 44,-18 52,2 6,18 -6,45 -23,51 -6,2 -19,-6 -30,-18 z"
       id="path40"
       inkscape:connector-curvature="0" />
    <path
       d="m 3861,427 c -6,-9 -9,-57 -7,-133 2,-65 4,-120 5,-121 4,-10 41,-1 41,10 9,216 8,237 -10,247 -12,7 -21,6 -29,-3 z"
       id="path42"
       inkscape:connector-curvature="0" />
    <path
       d="m 4583,428 c -17,-27 -33,-61 -33,-70 0,-11 -42,-72 -52,-76 -5,-2 -8,-14 -8,-27 0,-20 6,-24 37,-27 30,-2 38,-8 43,-28 7,-31 47,-40 56,-13 3,10 11,28 16,40 8,17 8,26 -3,39 -9,11 -13,38 -10,84 2,60 0,70 -18,79 -15,8 -22,8 -28,-1 z m -3,-138 c 0,-22 -18,-36 -30,-24 -11,12 7,57 20,49 5,-3 10,-15 10,-25 z"
       id="path44"
       inkscape:connector-curvature="0" />
    <path
       d="m 4792,423 c -7,-14 -9,-208 -3,-245 0,-5 12,-8 26,-8 14,0 25,3 26,8 0,4 2,60 4,125 3,106 2,118 -15,127 -25,13 -28,13 -38,-7 z"
       id="path46"
       inkscape:connector-curvature="0" />
    <path
       d="m 5706,424 c -9,-8 -16,-29 -16,-45 0,-25 -4,-29 -28,-29 -43,0 -62,-28 -62,-88 0,-67 28,-101 69,-85 18,6 34,6 49,0 12,-6 24,-8 26,-6 8,8 10,244 2,257 -10,16 -21,15 -40,-4 z m -11,-134 c 8,-37 -2,-70 -21,-70 -10,0 -14,12 -14,43 0,63 23,81 35,27 z"
       id="path48"
       inkscape:connector-curvature="0" />
    <path
       d="m 7246,425 c -9,-9 -16,-30 -16,-46 0,-26 -3,-29 -33,-29 -45,0 -67,-28 -67,-88 0,-38 5,-53 23,-70 25,-24 63,-29 69,-11 3,8 10,8 25,-2 12,-7 25,-10 29,-6 4,4 8,61 10,126 2,90 -1,123 -11,131 -9,8 -17,7 -29,-5 z m -18,-130 c 16,-36 15,-49 -6,-68 -24,-22 -32,-13 -32,38 0,60 18,74 38,30 z"
       id="path50"
       inkscape:connector-curvature="0" />
    <path
       d="m 7617,370 c -16,-23 -23,-41 -17,-45 5,-3 10,-30 10,-59 0,-42 5,-57 23,-74 22,-21 67,-31 67,-14 0,4 -7,16 -15,26 -19,26 -19,95 0,116 14,15 14,18 0,30 -8,7 -15,23 -15,36 0,35 -21,29 -53,-16 z"
       id="path52"
       inkscape:connector-curvature="0" />
    <path
       d="m 8396,374 c -32,-33 -35,-40 -22,-50 11,-8 16,-28 16,-63 0,-54 23,-91 56,-91 13,0 15,5 8,28 -5,15 -8,50 -7,77 5,144 1,153 -51,99 z"
       id="path54"
       inkscape:connector-curvature="0" />
    <path
       d="m 5085,380 c -3,-11 -11,-20 -16,-20 -12,0 -12,-37 1,-45 6,-3 10,-30 10,-59 0,-56 19,-86 53,-86 18,0 23,20 8,36 -17,18 -20,94 -4,109 13,14 13,19 -1,50 -19,39 -41,45 -51,15 z"
       id="path56"
       inkscape:connector-curvature="0" />
    <path
       d="m 1000,353 c -59,-6 -80,-29 -80,-88 0,-32 6,-51 21,-66 33,-33 49,-18 42,40 -3,27 -2,58 1,68 7,17 8,17 22,-1 17,-24 18,-68 2,-84 -9,-9 -8,-18 2,-37 12,-23 12,-28 0,-35 -24,-15 -57,-11 -64,7 -5,11 -10,13 -17,6 -8,-8 -6,-19 6,-37 14,-20 25,-26 55,-26 21,0 47,8 60,18 20,16 22,27 23,118 1,94 -5,126 -21,122 -4,-1 -27,-3 -52,-5 z"
       id="path58"
       inkscape:connector-curvature="0" />
    <path
       d="m 1465,353 c -42,-6 -65,-39 -65,-94 0,-35 5,-51 23,-67 31,-29 86,-29 116,-1 21,20 21,23 7,37 -14,15 -18,14 -46,-6 -26,-20 -31,-21 -36,-7 -12,31 4,48 40,42 58,-9 76,34 31,78 -13,14 -28,24 -32,24 -4,-1 -21,-4 -38,-6 z m 31,-44 c 7,-12 -15,-31 -28,-23 -4,3 -8,12 -8,20 0,17 26,19 36,3 z"
       id="path60"
       inkscape:connector-curvature="0" />
    <path
       d="m 1723,352 c -17,-2 -23,-10 -23,-28 0,-23 3,-24 40,-18 27,4 40,3 40,-5 0,-6 -11,-11 -25,-11 -32,0 -65,-33 -65,-64 0,-35 41,-58 98,-54 l 47,3 2,70 c 2,44 -2,76 -10,86 -13,17 -67,28 -104,21 z m 65,-123 c -4,-28 -31,-32 -36,-6 -5,23 18,51 30,39 6,-6 8,-20 6,-33 z"
       id="path62"
       inkscape:connector-curvature="0" />
    <path
       d="m 1902,335 c -16,-18 -22,-38 -22,-73 1,-39 6,-52 31,-77 l 30,-29 -23,-18 c -18,-13 -20,-20 -11,-29 20,-20 58,-2 79,38 10,21 25,42 32,46 6,4 12,15 12,22 0,17 -45,21 -55,5 -3,-5 -13,-10 -21,-10 -10,0 -14,13 -14,49 0,57 11,69 42,47 46,-32 67,-5 28,34 -29,29 -81,26 -108,-5 z"
       id="path64"
       inkscape:connector-curvature="0" />
    <path
       d="m 2262,335 c -32,-36 -31,-113 1,-143 41,-39 127,-21 127,26 0,15 -46,16 -55,2 -3,-5 -13,-10 -21,-10 -10,0 -14,13 -14,49 0,56 13,71 39,47 24,-22 51,-20 51,2 0,53 -90,71 -128,27 z"
       id="path66"
       inkscape:connector-curvature="0" />
    <path
       d="m 2612,351 c -9,-5 -12,-31 -10,-92 3,-83 3,-84 31,-87 l 27,-3 0,71 c 0,54 4,72 15,75 53,17 52,15 31,31 -22,15 -73,19 -94,5 z"
       id="path68"
       inkscape:connector-curvature="0" />
    <path
       d="m 2870,353 c -41,-8 -60,-37 -60,-91 0,-60 28,-92 81,-92 37,0 84,33 74,51 -9,14 -41,11 -55,-6 -16,-19 -26,-19 -34,0 -11,28 5,44 47,47 36,3 42,6 45,28 5,47 -37,74 -98,63 z m 44,-42 c 9,-15 -23,-36 -36,-23 -5,5 -7,15 -4,21 9,13 33,14 40,2 z"
       id="path70"
       inkscape:connector-curvature="0" />
    <path
       d="m 3050,353 c -28,-10 -40,-37 -40,-88 0,-42 5,-56 26,-76 25,-23 26,-23 39,-5 20,26 38,10 31,-28 -8,-43 5,-60 39,-52 27,7 27,9 21,59 -3,29 -6,82 -6,120 0,65 -1,67 -25,67 -14,0 -28,-7 -31,-15 -5,-12 -9,-12 -23,4 -9,11 -23,17 -31,14 z m 48,-55 c 17,-17 15,-65 -4,-72 -25,-10 -34,2 -34,45 0,40 14,51 38,27 z"
       id="path72"
       inkscape:connector-curvature="0" />
    <path
       d="m 3411,351 c -9,-6 -14,-32 -15,-81 -2,-78 10,-107 39,-97 15,6 16,16 10,90 -8,88 -12,101 -34,88 z"
       id="path74"
       inkscape:connector-curvature="0" />
    <path
       d="m 3581,319 c -12,-24 -21,-51 -21,-61 0,-39 -18,-15 -26,35 -8,47 -12,52 -36,55 -24,3 -28,0 -28,-21 0,-14 7,-30 15,-37 9,-7 13,-20 10,-28 -3,-8 1,-22 9,-31 8,-9 16,-25 18,-36 2,-14 12,-21 36,-23 28,-3 32,0 32,21 0,14 7,30 15,37 8,7 15,21 15,30 0,28 11,50 25,50 8,0 11,8 8,20 -3,11 -9,20 -13,20 -5,0 -15,3 -24,6 -10,4 -21,-7 -35,-37 z"
       id="path76"
       inkscape:connector-curvature="0" />
    <path
       d="m 4011,353 c -46,-6 -60,-27 -61,-90 0,-65 23,-93 75,-93 34,0 75,27 75,50 0,17 -57,12 -64,-6 -8,-22 -26,-7 -26,22 0,22 4,24 45,24 43,0 45,1 45,28 0,25 -37,76 -51,70 -2,0 -20,-3 -38,-5 z m 29,-47 c 0,-8 -5,-18 -11,-22 -14,-8 -33,11 -25,25 10,16 36,13 36,-3 z"
       id="path78"
       inkscape:connector-curvature="0" />
    <path
       d="m 4275,353 c -19,-5 -45,-29 -45,-44 0,-3 21,-5 48,-3 27,2 39,1 27,-4 -31,-11 -75,-54 -75,-72 0,-9 11,-27 24,-39 19,-18 33,-22 77,-19 l 54,3 2,70 c 2,44 -2,76 -10,86 -13,17 -70,29 -102,22 z m 58,-124 c -7,-26 -43,-25 -43,1 0,22 31,44 41,28 4,-6 4,-19 2,-29 z"
       id="path80"
       inkscape:connector-curvature="0" />
    <path
       d="m 5396,353 c -16,-3 -37,-14 -48,-26 l -18,-22 -19,23 c -15,17 -30,22 -70,22 -45,0 -51,-2 -51,-21 0,-15 5,-19 19,-14 21,6 51,-3 51,-16 0,-5 -10,-9 -22,-9 -23,0 -68,-43 -68,-65 0,-6 10,-21 23,-33 32,-31 99,-30 127,1 l 21,22 19,-22 c 37,-46 136,-16 128,38 -2,17 -15,30 -45,44 -23,11 -42,26 -43,33 0,17 26,15 45,-4 22,-23 48,-10 39,18 -3,13 -7,24 -8,25 -4,6 -56,10 -80,6 z m -36,-78 c 7,-8 18,-15 26,-15 20,0 46,-42 33,-55 -7,-7 -14,-5 -24,8 -8,12 -23,17 -41,15 -26,-3 -29,0 -32,30 -4,35 16,44 38,17 z m -95,-41 c 0,-19 -5,-29 -15,-29 -16,0 -25,28 -16,51 10,25 31,10 31,-22 z"
       id="path82"
       inkscape:connector-curvature="0" />
    <path
       d="m 6256,339 c -11,-16 -15,-17 -19,-5 -5,11 -24,15 -81,15 l -76,0 0,-90 0,-90 28,3 c 25,3 27,7 30,53 3,74 10,95 27,89 10,-4 15,-26 17,-72 3,-61 5,-67 26,-70 21,-3 22,0 22,55 0,59 11,83 38,83 11,0 13,-11 10,-51 -7,-70 -1,-91 26,-87 19,3 21,10 24,70 2,37 -2,76 -7,87 -15,28 -49,33 -65,10 z"
       id="path84"
       inkscape:connector-curvature="0" />
    <path
       d="m 6745,353 c -16,-3 -34,-12 -41,-21 -11,-16 -14,-15 -31,1 -29,26 -100,23 -124,-5 l -19,-23 -19,23 c -15,17 -30,22 -70,22 -52,0 -65,-8 -55,-34 4,-12 11,-13 24,-6 20,11 50,4 50,-11 0,-5 -10,-9 -22,-9 -23,0 -68,-43 -68,-65 0,-6 10,-21 23,-33 32,-31 99,-30 127,1 l 21,22 19,-22 c 21,-27 81,-31 100,-8 7,8 18,15 25,15 7,0 18,-7 25,-15 30,-36 120,-4 120,43 0,18 -38,52 -74,66 -14,5 -16,10 -8,18 8,8 18,7 37,-6 25,-16 45,-14 45,5 0,12 -38,49 -47,48 -5,-1 -21,-4 -38,-6 z m -68,-60 c 21,-16 48,-33 58,-39 25,-14 41,-41 31,-51 -4,-4 -13,0 -20,10 -7,9 -21,17 -31,17 -9,0 -34,14 -55,30 -21,17 -43,30 -49,30 -6,0 -11,7 -11,15 0,23 33,18 77,-12 z m -117,-18 c 7,-8 17,-15 23,-15 16,0 47,-31 47,-47 0,-18 -29,-17 -37,2 -4,11 -16,15 -37,13 -28,-3 -31,0 -34,30 -4,35 16,44 38,17 z m -95,-41 c 0,-19 -5,-29 -15,-29 -16,0 -25,28 -16,51 10,25 31,10 31,-22 z"
       id="path86"
       inkscape:connector-curvature="0" />
    <path
       d="m 6893,352 c -28,-4 -33,-44 -5,-41 33,3 52,-1 52,-11 0,-5 -10,-10 -23,-10 -28,0 -57,-32 -57,-64 0,-39 31,-58 91,-54 l 54,3 3,62 c 5,95 -28,127 -115,115 z m 55,-123 c -4,-28 -31,-32 -36,-6 -5,23 18,51 30,39 6,-6 8,-20 6,-33 z"
       id="path88"
       inkscape:connector-curvature="0" />
    <path
       d="m 7770,352 c -37,-5 -50,-29 -50,-92 0,-67 18,-90 72,-90 49,0 67,24 69,93 3,77 -20,99 -91,89 z m 40,-47 c 18,-22 3,-95 -20,-95 -12,0 -20,10 -24,35 -12,62 13,97 44,60 z"
       id="path90"
       inkscape:connector-curvature="0" />
    <path
       d="m 7914,351 c -2,-2 -4,-44 -4,-93 0,-87 1,-89 23,-86 19,3 23,10 27,65 5,62 24,102 34,72 3,-8 7,-41 8,-74 3,-57 4,-60 28,-60 23,0 25,4 28,50 4,79 10,99 27,85 9,-7 15,-36 17,-73 3,-56 5,-62 26,-65 21,-3 22,-1 22,77 0,71 -3,82 -22,95 -12,8 -27,12 -34,8 -7,-4 -49,-5 -94,-2 -45,3 -84,3 -86,1 z"
       id="path92"
       inkscape:connector-curvature="0" />
    <path
       d="m 8546,353 c -41,-6 -65,-40 -66,-92 0,-31 6,-50 23,-67 29,-31 84,-32 116,-3 21,20 21,23 7,37 -14,15 -18,14 -46,-6 -26,-20 -31,-21 -36,-7 -12,31 4,48 40,42 58,-9 76,34 31,78 -13,14 -28,24 -32,24 -4,-1 -21,-4 -37,-6 z m 30,-44 c 7,-12 -15,-31 -28,-23 -4,3 -8,12 -8,20 0,17 26,19 36,3 z"
       id="path94"
       inkscape:connector-curvature="0" />
    <path
       d="m 2057,344 c -4,-4 -7,-33 -7,-64 0,-43 5,-64 21,-84 23,-30 44,-34 53,-10 6,15 8,15 26,-1 35,-32 50,-13 52,65 0,38 1,76 2,83 1,6 -11,13 -26,15 -28,3 -28,3 -28,-56 0,-51 -3,-60 -20,-65 -27,-7 -32,5 -28,66 3,46 1,52 -17,55 -12,2 -24,0 -28,-4 z"
       id="path96"
       inkscape:connector-curvature="0" />
    <path
       d="m 2430,325 c 0,-22 3,-24 19,-15 21,10 51,4 51,-11 0,-5 -10,-9 -23,-9 -32,0 -71,-42 -63,-68 12,-38 41,-53 92,-50 l 49,3 3,65 c 4,92 -8,110 -75,110 -50,0 -53,-1 -53,-25 z m 78,-84 c 5,-29 -13,-50 -29,-34 -15,15 -3,66 14,60 7,-2 14,-14 15,-26 z"
       id="path98"
       inkscape:connector-curvature="0" />
    <path
       d="m 3200,287 c 0,-54 4,-69 25,-93 22,-25 27,-27 45,-16 15,9 26,10 40,2 36,-20 40,-13 40,81 l 0,90 -27,-3 c -26,-3 -27,-5 -25,-50 4,-48 -12,-93 -29,-83 -5,4 -9,35 -9,71 l 0,64 -30,0 -30,0 0,-63 z"
       id="path100"
       inkscape:connector-curvature="0" />
    <path
       d="m 3680,335 c 0,-8 9,-15 19,-15 33,0 31,-15 -5,-43 -64,-51 -36,-107 53,-107 45,0 51,3 56,23 8,38 0,126 -13,142 -17,21 -110,21 -110,0 z m 80,-94 c 0,-22 -25,-45 -40,-36 -11,7 -14,38 -3,48 14,15 43,7 43,-12 z"
       id="path102"
       inkscape:connector-curvature="0" />
    <path
       d="m 4900,329 c -7,-11 -8,-24 -4,-27 4,-4 9,-1 11,6 6,14 39,16 48,2 3,-6 -2,-13 -12,-17 -27,-10 -63,-46 -63,-64 0,-8 11,-26 24,-38 19,-18 33,-22 72,-19 l 49,3 3,69 c 4,85 -11,106 -74,106 -34,0 -46,-5 -54,-21 z m 80,-86 c 0,-26 -16,-47 -29,-39 -6,4 -11,18 -11,32 0,17 5,24 20,24 12,0 20,-7 20,-17 z"
       id="path104"
       inkscape:connector-curvature="0" />
    <path
       d="m 5810,331 c -18,-34 -12,-126 8,-144 35,-32 132,-11 132,27 0,20 -38,27 -54,10 -23,-23 -46,-17 -46,12 0,23 4,25 33,24 62,-4 67,-2 67,28 -1,46 -21,62 -78,62 -40,0 -53,-4 -62,-19 z m 80,-25 c 0,-19 -26,-27 -39,-12 -13,15 -4,26 21,26 10,0 18,-6 18,-14 z"
       id="path106"
       inkscape:connector-curvature="0" />
    <path
       d="m 7350,335 c -7,-8 -14,-39 -15,-68 -3,-42 1,-56 18,-74 29,-32 86,-31 117,2 26,27 25,29 -7,39 -16,5 -26,1 -37,-16 -18,-25 -40,-13 -34,18 2,15 14,20 51,22 42,3 47,6 47,27 0,42 -29,65 -81,65 -29,0 -51,-6 -59,-15 z m 75,-34 c 0,-8 -4,-16 -10,-18 -16,-5 -38,14 -30,26 9,16 40,9 40,-8 z"
       id="path108"
       inkscape:connector-curvature="0" />
    <path
       d="m 8210,336 c 0,-15 21,-26 51,-26 10,0 19,-4 19,-10 0,-5 -6,-7 -13,-4 -20,7 -67,-41 -67,-69 0,-36 30,-57 83,-57 25,0 49,5 53,11 10,17 5,128 -7,150 -8,15 -21,19 -64,19 -40,0 -55,-4 -55,-14 z m 85,-105 c -8,-27 -45,-28 -45,-1 0,22 31,43 43,30 5,-4 6,-17 2,-29 z"
       id="path110"
       inkscape:connector-curvature="0" />
  </g>
</svg>
