<?xml version="1.0" encoding="UTF-8"?>
<svg xmlns="http://www.w3.org/2000/svg" xmlns:xlink="http://www.w3.org/1999/xlink" width="480pt" height="346pt" viewBox="0 0 480 346" version="1.1">
<g id="surface1">
<path style="fill-rule:nonzero;fill:rgb(100%,100%,100%);fill-opacity:1;stroke-width:3.2;stroke-linecap:butt;stroke-linejoin:miter;stroke:rgb(0%,0%,0%);stroke-opacity:1;stroke-miterlimit:4;" d="M 946.530015 432.508118 C 934.14019 442.182166 916.36398 439.833323 906.826776 427.258767 C 897.289571 414.678524 899.601276 396.638501 911.985407 386.953079 C 924.369538 377.267657 942.145748 379.605125 951.688646 392.173993 C 961.237238 404.742862 958.936921 422.788572 946.558484 432.485369 " transform="matrix(0.686047,0,0,0.686841,-233.274069,-100.224405)"/>
<path style=" stroke:none;fill-rule:nonzero;fill:rgb(0%,0%,0%);fill-opacity:1;" d="M 2.773438 5.445312 C 1.867188 6.355469 1.867188 339.113281 2.773438 340.019531 C 3.253906 340.5 56.640625 340.660156 239.785156 340.660156 C 454.828125 340.660156 476.160156 340.605469 476.480469 339.804688 C 476.640625 339.324219 476.800781 264.09375 476.800781 172.519531 C 476.800781 43.785156 476.640625 5.925781 476.160156 5.445312 C 475.253906 4.539062 3.679688 4.539062 2.773438 5.445312 Z M 473.972656 7.636719 C 474.1875 7.902344 474.1875 337.5625 473.972656 337.832031 C 473.707031 338.042969 5.226562 338.042969 4.960938 337.832031 C 4.691406 337.5625 4.746094 7.957031 5.011719 7.582031 C 5.226562 7.207031 473.601562 7.316406 473.972656 7.636719 Z M 473.972656 7.636719 "/>
<path style=" stroke:none;fill-rule:nonzero;fill:rgb(0%,0%,0%);fill-opacity:1;" d="M 253.867188 25.308594 C 253.800781 26.550781 255.375 39.007812 259.199219 26.058594 C 261.28125 25.308594 259.71875 26.578125 256.515625 26.578125 C 254.117188 26.578125 253.894531 24.777344 253.867188 25.308594 Z M 253.867188 25.308594 "/>
<path style=" stroke:none;fill-rule:nonzero;fill:rgb(0%,0%,0%);fill-opacity:1;" d="M 267.734375 25.09375 C 267.308594 25.363281 266.292969 25.683594 265.492188 25.898438 C 263.625 26.269531 263.574219 27.550781 265.332031 27.980469 C 266.078125 28.191406 266.667969 28.566406 266.667969 28.832031 C 266.667969 29.152344 266.988281 29.367188 267.414062 29.367188 C 268.535156 29.367188 269.867188 30.863281 269.867188 32.089844 C 269.867188 33.160156 269.652344 33.320312 267.09375 33.851562 C 264.960938 34.332031 265.121094 36.042969 267.253906 36.789062 C 269.652344 37.644531 269.601562 37.644531 271.464844 34.921875 C 273.011719 32.570312 273.066406 32.355469 272.265625 31.183594 C 271.464844 29.953125 271.519531 29.847656 272.746094 29.3125 C 273.867188 28.78125 273.972656 28.511719 273.546875 27.339844 C 272.585938 24.882812 269.867188 23.8125 267.734375 25.09375 Z M 267.734375 25.09375 "/>
<path style=" stroke:none;fill-rule:nonzero;fill:rgb(0%,0%,0%);fill-opacity:1;" d="M 239.839844 25.898438 C 238.71875 26.964844 238.71875 27.445312 239.785156 28.511719 C 240.800781 29.582031 241.546875 29.582031 242.878906 28.566406 C 243.625 27.980469 244.691406 27.871094 246.773438 28.085938 C 249.386719 28.40625 249.601562 28.351562 249.601562 27.339844 C 249.601562 26.058594 248.375 25.578125 245.332031 25.683594 C 244.320312 25.738281 242.828125 25.578125 242.078125 25.363281 C 241.121094 25.09375 240.425781 25.257812 239.839844 25.898438 Z M 239.839844 25.898438 "/>
<path style=" stroke:none;fill-rule:nonzero;fill:rgb(0%,0%,0%);fill-opacity:1;" d="M 248.535156 29.632812 C 248.535156 30.488281 249.386719 30.703125 249.8125 29.953125 C 249.972656 29.6875 249.761719 29.367188 249.332031 29.152344 C 248.851562 28.992188 248.535156 29.152344 248.535156 29.632812 Z M 248.535156 29.632812 "/>
<path style=" stroke:none;fill-rule:nonzero;fill:rgb(0%,0%,0%);fill-opacity:1;" d="M 252.105469 31.609375 C 260.382812 47.230469 255.332031 44.011719 251.199219 34.441406 C 244.679688 19.34375 254.132812 39.566406 254.453125 35.242188 C 257.644531 44.613281 254.132812 30.957031 252.105469 31.609375 Z M 252.105469 31.609375 "/>
<path style=" stroke:none;fill-rule:nonzero;fill:rgb(0%,0%,0%);fill-opacity:1;" d="M 257.757812 33.910156 C 257.546875 34.070312 255.820312 40.363281 255.820312 42.070312 C 255.820312 45.382812 258.054688 36.625 259.601562 35.34375 C 260.722656 34.382812 262.1875 31.714844 261.011719 31.289062 C 259.945312 30.863281 258.183594 33.429688 257.757812 33.910156 Z M 257.757812 33.910156 "/>
<path style=" stroke:none;fill-rule:nonzero;fill:rgb(0%,0%,0%);fill-opacity:1;" d="M 240.375 32.195312 C 240.054688 33.050781 244.320312 36.84375 245.601562 36.84375 C 247.734375 36.84375 248.160156 33.320312 246.078125 32.570312 C 243.308594 31.503906 240.691406 31.34375 240.375 32.195312 Z M 240.375 32.195312 "/>
<path style=" stroke:none;fill-rule:nonzero;fill:rgb(0%,0%,0%);fill-opacity:1;" d="M 245.867188 39.941406 C 245.867188 40.527344 245.492188 41.273438 245.066406 41.648438 C 244.054688 42.503906 244.054688 43.785156 245.011719 43.785156 C 246.453125 43.785156 247.308594 45.277344 247.625 48.484375 C 247.839844 50.246094 248.214844 52.273438 248.425781 52.914062 C 250.292969 57.828125 250.773438 60.015625 250.453125 62.472656 C 250.1875 64.339844 250.292969 65.25 250.878906 65.78125 C 251.308594 66.210938 251.734375 67.117188 251.839844 67.757812 C 252 69.039062 254.988281 70.480469 257.492188 70.480469 C 259.464844 70.480469 261.972656 68.988281 261.652344 67.917969 C 261.441406 67.332031 261.8125 66.742188 262.828125 66.15625 C 264.214844 65.355469 264.265625 65.140625 264.375 60.976562 C 264.425781 58.574219 264.265625 56.492188 264.054688 56.386719 C 263.839844 56.226562 261.972656 56.332031 259.945312 56.652344 C 257.921875 56.917969 255.464844 57.027344 254.558594 56.867188 C 253.066406 56.597656 252.800781 56.332031 252.800781 55.105469 C 252.800781 54.25 252.535156 53.339844 252.214844 53.019531 C 251.734375 52.539062 251.785156 52.058594 252.480469 51.046875 C 253.652344 49.175781 253.546875 48.589844 252 48.589844 C 250.71875 48.589844 249.601562 47.308594 249.601562 45.757812 C 249.601562 45.171875 250.828125 45.066406 256.691406 45.226562 C 260.535156 45.386719 263.945312 45.652344 264.160156 45.867188 C 264.585938 46.292969 264.105469 48.054688 263.519531 48.054688 C 263.308594 48.054688 262.71875 48.375 262.1875 48.75 C 261.332031 49.390625 261.386719 49.550781 262.878906 51.152344 C 264.585938 52.914062 266.988281 53.714844 265.601562 52.058594 C 265.066406 51.367188 265.066406 51.046875 265.707031 50.296875 C 266.1875 49.816406 266.398438 49.070312 266.292969 48.695312 C 266.132812 48.324219 266.453125 47.46875 266.988281 46.828125 C 267.574219 46.1875 268.320312 45.066406 268.746094 44.371094 C 269.386719 43.195312 269.332031 42.984375 268.375 42.183594 C 267.785156 41.703125 267.308594 40.847656 267.359375 40.261719 C 267.464844 39.457031 267.09375 39.246094 265.867188 39.246094 C 264.375 39.246094 264.265625 39.351562 264.320312 41.222656 C 261.84375 55.4375 258.175781 73.304688 261.28125 52.320312 C 261.382812 51.632812 259.886719 50.132812 261.011719 42.449219 C 261.242188 40.878906 258.308594 51.542969 257.988281 52.824219 C 257.617188 54.265625 256.320312 56.804688 254.988281 42.609375 C 253.972656 41.59375 256.609375 58.386719 255.382812 59.027344 C 253.835938 59.828125 249.761719 42.289062 249.492188 40.421875 C 249.28125 38.765625 245.867188 38.335938 245.867188 39.941406 Z M 245.867188 39.941406 "/>
<path style=" stroke:none;fill-rule:nonzero;fill:rgb(0%,0%,0%);fill-opacity:1;" d="M 437.972656 48.695312 C 437.972656 52.058594 432.574219 62.507812 431.773438 64.109375 C 430.546875 66.515625 436.054688 60.230469 438.292969 57.773438 C 439.464844 56.546875 440.535156 55.53125 440.691406 55.53125 C 441.332031 55.53125 441.066406 61.351562 440.425781 61.726562 C 440.054688 61.992188 440.640625 62.367188 441.921875 62.738281 C 443.414062 63.113281 444.054688 63.648438 444.160156 64.449219 C 444.265625 65.089844 444.691406 65.890625 445.121094 66.210938 C 445.546875 66.582031 439.824219 70.339844 439.824219 70.765625 C 439.824219 71.140625 446.292969 69.039062 446.878906 69.839844 C 447.414062 70.640625 448.214844 71.921875 448.691406 72.722656 C 449.171875 73.472656 450.132812 74.21875 450.773438 74.324219 C 451.519531 74.433594 452.054688 74.964844 452.265625 75.769531 C 452.425781 76.460938 453.066406 77.210938 453.652344 77.476562 C 454.558594 77.796875 460.789062 87.847656 461.269531 86.777344 C 461.644531 86.03125 455.945312 75.074219 455.894531 75.019531 C 455.785156 74.964844 454.933594 74.484375 453.972656 74.003906 C 451.839844 72.882812 449.066406 68.667969 449.066406 66.421875 C 449.066406 65.195312 449.601562 64.179688 451.199219 62.527344 C 452.375 61.351562 453.332031 59.855469 453.332031 59.269531 C 453.332031 58.46875 453.707031 58.199219 454.667969 58.199219 C 455.414062 58.199219 456.105469 58.519531 456.214844 58.839844 C 456.746094 60.65625 457.441406 74.003906 457.011719 74.539062 C 456.265625 75.445312 457.601562 79.132812 459.039062 80.253906 C 460.265625 81.214844 460.375 81.640625 460.105469 84.042969 C 460 85.539062 460.105469 87.355469 460.375 88.101562 C 460.746094 89.117188 455.519531 89.542969 454.828125 90.078125 C 453.921875 90.71875 453.011719 92.160156 452 94.347656 C 451.09375 96.378906 450.347656 95.738281 450.347656 92.90625 L 450.347656 90.238281 L 448.265625 90.238281 C 445.386719 90.238281 445.011719 91.144531 447.199219 92.90625 C 448.800781 94.296875 448.90625 94.507812 448.320312 95.789062 C 447.839844 96.910156 452.425781 97.179688 450.933594 97.179688 C 449.28125 97.179688 449.066406 97.339844 449.066406 98.515625 C 449.066406 99.421875 449.492188 100.0625 450.347656 100.488281 C 453.171875 101.71875 452.585938 103.851562 449.546875 103.425781 C 448.425781 103.265625 447.414062 103.265625 447.253906 103.425781 C 446.828125 103.90625 448.214844 106.46875 449.546875 107.644531 C 450.453125 108.390625 450.71875 109.03125 450.453125 109.726562 C 450.132812 110.582031 449.921875 110.472656 448.800781 108.925781 C 447.199219 106.738281 446.507812 106.257812 444.960938 106.257812 C 443.199219 106.257812 442.988281 107.164062 444.480469 108.5 C 445.171875 109.191406 446.558594 110.421875 447.464844 111.273438 C 450.078125 113.679688 450.933594 115.171875 450.132812 116.132812 C 449.066406 117.414062 447.464844 117.148438 447.625 115.761719 C 447.679688 114.851562 447.414062 114.480469 446.453125 114.371094 C 445.386719 114.210938 445.28125 114.320312 445.601562 115.171875 C 445.8125 115.707031 446.132812 116.773438 446.292969 117.574219 C 446.667969 119.871094 445.226562 119.445312 443.253906 116.667969 C 442.238281 115.28125 441.28125 114.425781 440.851562 114.585938 C 439.945312 114.960938 439.414062 118.054688 440.105469 118.910156 C 440.375 119.230469 440.800781 120.191406 441.011719 121.046875 C 441.332031 122.222656 441.761719 122.59375 443.253906 122.808594 C 444.851562 123.023438 445.121094 123.289062 445.332031 124.945312 L 445.601562 126.8125 L 449.546875 126.972656 C 453.867188 127.132812 449.761719 126.546875 449.8125 123.769531 C 449.8125 122.808594 450.1875 122.222656 450.878906 122.007812 C 452.105469 121.632812 452.105469 121.632812 451.945312 116.292969 L 451.839844 112.238281 L 453.546875 111.328125 C 455.199219 110.472656 455.253906 110.207031 454.238281 107.539062 C 454.132812 107.21875 454.613281 106.257812 455.308594 105.402344 C 456 104.546875 452.480469 102.785156 452.691406 101.449219 C 453.121094 98.726562 453.8125 97.714844 455.199219 97.714844 C 456.960938 97.714844 458.347656 95.628906 458.347656 92.855469 C 458.347656 91.464844 458.132812 90.132812 457.8125 89.96875 C 457.011719 89.488281 462.292969 87.40625 463.199219 86.179688 C 463.625 85.644531 464 84.523438 464 83.722656 C 464 82.65625 463.625 82.226562 462.398438 81.746094 C 460.851562 81.214844 460.800781 81.105469 460.800781 78.0625 C 460.800781 76.300781 460.480469 74.164062 460.160156 73.3125 C 459.679688 72.191406 459.574219 69.789062 459.734375 65.355469 C 459.894531 61.886719 459.785156 58.46875 459.519531 57.773438 C 458.988281 56.546875 462.027344 56.066406 459.734375 56.226562 C 458.558594 56.332031 458.398438 56.117188 458.398438 54.570312 C 458.398438 52.699219 457.28125 51.578125 456 52.167969 C 453.652344 53.128906 452.160156 52.914062 447.894531 50.832031 C 443.894531 48.855469 439.253906 47.042969 438.292969 46.988281 C 438.078125 46.988281 437.972656 47.789062 437.972656 48.695312 Z M 448.960938 53.394531 C 450.1875 53.394531 451.199219 53.609375 451.199219 53.929688 C 451.199219 54.195312 450.398438 55.050781 449.386719 55.90625 C 448.375 56.707031 447.679688 57.558594 447.785156 57.773438 C 448.265625 58.519531 450.558594 58.253906 450.878906 57.398438 C 451.199219 56.546875 453.332031 56.277344 453.332031 57.132812 C 453.332031 57.398438 452.746094 57.773438 452 57.988281 C 451.039062 58.199219 450.667969 58.679688 450.667969 59.589844 C 450.667969 60.230469 450.347656 61.03125 450.027344 61.242188 C 449.652344 61.457031 449.066406 62.152344 448.746094 62.738281 C 448 64.074219 446.132812 64.394531 445.707031 63.328125 C 445.492188 62.847656 445.652344 61.777344 445.921875 60.871094 C 446.667969 58.789062 446.238281 57.667969 444.640625 57.667969 C 443.09375 57.667969 442.132812 56.757812 442.132812 55.265625 C 442.132812 54.625 441.867188 53.875 441.546875 53.554688 C 440.320312 52.328125 441.601562 51.847656 444.160156 52.59375 C 445.546875 53.019531 447.679688 53.394531 448.960938 53.394531 Z M 448.640625 105.082031 C 448.746094 105.457031 448.480469 105.722656 448 105.722656 C 447.519531 105.722656 447.148438 105.347656 447.148438 104.867188 C 447.148438 103.960938 448.320312 104.121094 448.640625 105.082031 Z M 448.640625 105.082031 "/>
<path style=" stroke:none;fill-rule:nonzero;fill:rgb(0%,0%,0%);fill-opacity:1;" d="M 431.625 63.007812 C 429.546875 64.289062 429.386719 65.515625 431.199219 66.210938 C 431.945312 66.476562 432.535156 67.0625 432.535156 67.492188 C 432.535156 68.398438 437.761719 73.898438 439.09375 74.378906 C 439.574219 74.59375 440 75.125 440 75.660156 C 440 77.101562 446.667969 82.226562 448.535156 82.226562 C 449.921875 82.226562 451.734375 83.671875 451.199219 84.3125 C 451.039062 84.472656 451.734375 84.898438 452.746094 85.21875 C 453.761719 85.539062 455.039062 86.394531 455.574219 87.085938 C 456.425781 88.101562 456.691406 88.15625 457.121094 87.515625 C 457.972656 86.234375 458.238281 84.417969 457.921875 82.976562 C 457.601562 81.746094 457.332031 81.585938 456.054688 81.855469 C 454.773438 82.121094 453.8125 81.640625 450.613281 79.238281 C 448.425781 77.636719 446.507812 75.875 446.347656 75.339844 C 446.132812 74.859375 445.066406 74.113281 443.945312 73.792969 C 441.867188 73.152344 438.398438 69.359375 438.398438 67.8125 C 438.398438 67.4375 438.027344 66.636719 437.546875 66.101562 C 436.800781 65.355469 436.800781 65.035156 437.332031 64.339844 C 437.867188 63.699219 437.867188 63.539062 437.171875 63.539062 C 436.746094 63.539062 436.265625 63.808594 436.160156 64.179688 C 435.839844 65.089844 434.667969 64.179688 434.667969 62.953125 C 434.667969 61.671875 433.8125 61.671875 431.625 63.007812 Z M 431.625 63.007812 "/>
<path style=" stroke:none;fill-rule:nonzero;fill:rgb(0%,0%,0%);fill-opacity:1;" d="M 299.148438 89.277344 C 298.933594 92.480469 299.414062 106.683594 299.734375 107.324219 C 300.375 108.550781 311.359375 108.5 312 107.324219 C 312.320312 106.683594 312.851562 92 312.585938 89.277344 C 312.535156 88.796875 310.828125 88.636719 305.867188 88.636719 C 300.90625 88.636719 299.199219 88.796875 299.148438 89.277344 Z M 299.148438 89.277344 "/>
<path style=" stroke:none;fill-rule:nonzero;fill:rgb(0%,0%,0%);fill-opacity:1;" d="M 215.464844 89.863281 C 214.71875 90.238281 214.078125 90.933594 213.972656 91.464844 C 213.707031 92.695312 208.851562 97.230469 206.878906 98.085938 C 206.027344 98.460938 205.332031 99.101562 205.332031 99.527344 C 205.332031 99.957031 204.640625 100.808594 203.839844 101.34375 C 203.039062 101.929688 202.027344 103.050781 201.601562 103.851562 C 201.171875 104.65625 200.160156 105.617188 199.359375 106.042969 C 198.558594 106.46875 197.867188 107.164062 197.867188 107.589844 C 197.867188 108.605469 192.746094 113.359375 191.308594 113.730469 C 190.667969 113.890625 189.867188 114.585938 189.546875 115.28125 C 189.226562 115.921875 188.160156 117.203125 187.253906 118.109375 C 186.347656 119.019531 185.601562 119.925781 185.601562 120.191406 C 185.601562 120.460938 184.320312 121.472656 182.773438 122.488281 C 181.171875 123.449219 178.878906 125.53125 177.601562 127.027344 C 176.320312 128.523438 174.292969 130.335938 173.066406 131.03125 C 171.625 131.886719 170.398438 133.273438 169.441406 134.984375 C 168.640625 136.425781 167.359375 138.078125 166.558594 138.613281 C 165.707031 139.148438 164.214844 140.429688 163.199219 141.496094 C 162.1875 142.566406 160.320312 144.113281 159.039062 144.96875 C 157.386719 146.089844 156.800781 146.78125 156.90625 147.582031 C 157.066406 148.597656 157.386719 148.707031 159.734375 148.546875 C 163.148438 148.332031 165.921875 146.515625 168 143.257812 C 169.492188 140.855469 176.90625 133.433594 180.746094 130.390625 C 181.707031 129.644531 183.519531 127.667969 184.640625 126.117188 C 185.8125 124.515625 187.519531 122.808594 188.375 122.328125 C 190.773438 121.046875 195.945312 116.507812 196.375 115.28125 C 196.585938 114.691406 197.386719 114 198.078125 113.730469 C 198.828125 113.464844 199.839844 112.558594 200.375 111.757812 C 202.027344 109.085938 204.90625 105.722656 205.546875 105.722656 C 206.238281 105.722656 211.519531 100.703125 212.265625 99.316406 C 212.535156 98.78125 213.8125 97.820312 215.09375 97.179688 L 217.386719 96.003906 L 219.519531 97.445312 C 220.640625 98.195312 221.707031 99.15625 221.867188 99.527344 C 222.238281 100.488281 227.785156 105.457031 228.960938 105.882812 C 229.441406 106.097656 230.078125 106.683594 230.292969 107.164062 C 230.71875 108.285156 233.921875 111.863281 236.800781 114.640625 C 237.066406 114.851562 238.078125 116.027344 239.039062 117.148438 C 241.707031 120.300781 242.828125 121.367188 245.121094 122.703125 C 246.238281 123.394531 247.894531 124.945312 248.800781 126.171875 C 249.652344 127.402344 252.640625 130.550781 255.464844 133.21875 C 258.238281 135.835938 261.921875 139.359375 263.625 141.070312 C 266.1875 143.632812 267.039062 144.167969 268.585938 144.167969 C 271.199219 144.167969 270.933594 143.097656 267.464844 140.160156 C 265.867188 138.773438 264.425781 137.226562 264.265625 136.691406 C 264.105469 136.15625 259.519531 131.566406 254.132812 126.546875 C 248.105469 120.941406 244.160156 116.828125 243.785156 115.867188 C 243.519531 114.960938 242.988281 114.265625 242.667969 114.265625 C 241.921875 114.265625 235.734375 108.125 235.734375 107.378906 C 235.734375 107.058594 235.253906 106.523438 234.667969 106.148438 C 234.078125 105.777344 232.960938 104.546875 232.214844 103.480469 C 231.414062 102.359375 230.347656 101.34375 229.8125 101.183594 C 229.226562 100.96875 228.800781 100.382812 228.800781 99.796875 C 228.800781 99.15625 228.214844 98.460938 227.308594 98.085938 C 225.28125 97.230469 220.265625 92.695312 220.265625 91.679688 C 220.265625 89.96875 217.441406 88.902344 215.464844 89.863281 Z M 215.464844 89.863281 "/>
<path style=" stroke:none;fill-rule:nonzero;fill:rgb(0%,0%,0%);fill-opacity:1;" d="M 213.921875 103.640625 C 212.90625 104.867188 211.414062 106.097656 210.613281 106.363281 C 209.652344 106.683594 209.066406 107.269531 209.066406 107.910156 C 209.066406 108.445312 208.535156 109.191406 207.894531 109.511719 C 206.292969 110.3125 201.652344 114.90625 201.601562 115.601562 C 201.601562 116.667969 195.734375 122.273438 194.292969 122.59375 C 193.441406 122.808594 191.308594 124.570312 189.332031 126.652344 C 185.652344 130.605469 179.148438 137.171875 173.171875 142.886719 C 171.199219 144.808594 169.332031 146.941406 169.066406 147.636719 C 168.585938 148.867188 168.214844 207.011719 168.640625 207.492188 C 168.851562 207.652344 223.464844 207.761719 314.667969 207.707031 L 344.800781 207.707031 L 344.800781 177.804688 C 344.800781 144.648438 345.011719 146.460938 341.332031 147.261719 C 340.320312 147.476562 322.613281 147.636719 301.972656 147.636719 L 264.480469 147.582031 L 260.640625 143.738281 C 258.507812 141.605469 256.054688 139.359375 255.09375 138.667969 C 254.132812 138.027344 251.519531 135.355469 249.226562 132.6875 C 244.585938 127.292969 239.464844 122.328125 238.667969 122.273438 C 237.867188 122.273438 232.535156 116.773438 232.535156 115.972656 C 232.535156 115.28125 227.519531 110.207031 226.027344 109.40625 C 225.492188 109.140625 225.066406 108.445312 225.066406 107.859375 C 225.066406 107.21875 224.425781 106.683594 223.199219 106.257812 C 221.972656 105.828125 220.800781 104.867188 219.894531 103.53125 C 218.027344 100.703125 216.375 100.703125 213.921875 103.640625 Z M 219.519531 113.144531 C 220.375 113.410156 221.707031 113.785156 222.558594 113.945312 C 223.574219 114.210938 224 114.640625 224 115.386719 C 224 115.972656 224.585938 117.363281 225.332031 118.429688 L 226.667969 120.40625 L 226.667969 133.59375 C 226.667969 145.820312 226.613281 146.835938 225.761719 146.835938 C 216.320312 146.941406 207.414062 146.890625 207.09375 146.675781 C 206.828125 146.515625 206.667969 140.214844 206.71875 132.738281 C 206.828125 121.742188 206.988281 118.804688 207.625 117.84375 C 208.054688 117.203125 208.535156 116.132812 208.746094 115.492188 C 208.960938 114.746094 209.707031 114.160156 210.558594 113.945312 C 211.359375 113.785156 212.480469 113.464844 213.066406 113.199219 C 214.507812 112.558594 217.652344 112.558594 219.519531 113.144531 Z M 199.519531 127.132812 C 199.839844 127.773438 200.160156 131.617188 200.265625 135.785156 C 200.375 139.949219 200.585938 144.113281 200.800781 144.96875 C 201.332031 147.371094 199.679688 148.707031 196.960938 148.117188 C 195.839844 147.90625 194.558594 147.742188 194.132812 147.796875 C 193.707031 147.851562 191.253906 147.90625 188.691406 147.957031 C 186.132812 147.957031 183.894531 148.171875 183.734375 148.4375 C 183.574219 148.757812 182.773438 148.972656 182.027344 148.972656 C 181.121094 148.972656 180.054688 149.667969 178.71875 151.109375 C 175.894531 154.203125 174.988281 153.9375 175.359375 150.09375 C 175.519531 148.707031 176.105469 147.582031 177.226562 146.410156 C 185.867188 137.917969 188.480469 135.195312 189.066406 133.96875 C 189.972656 132.257812 193.386719 129.214844 194.398438 129.214844 C 194.828125 129.214844 195.839844 128.46875 196.640625 127.613281 C 198.292969 125.691406 198.71875 125.636719 199.519531 127.132812 Z M 236.265625 126.8125 C 236.640625 127.242188 237.226562 127.613281 237.546875 127.613281 C 237.867188 127.613281 238.988281 128.683594 240 130.015625 C 241.011719 131.296875 242.238281 132.527344 242.667969 132.6875 C 243.148438 132.847656 244.480469 134.234375 245.601562 135.785156 C 246.773438 137.277344 248.691406 139.414062 249.867188 140.535156 C 255.414062 145.609375 259.09375 148.652344 260.800781 149.558594 C 265.171875 151.910156 266.933594 153.511719 267.09375 155.328125 C 267.199219 156.289062 267.039062 157.355469 266.773438 157.675781 C 266.507812 158.050781 266.398438 160.34375 266.507812 162.855469 C 266.933594 172.839844 266.988281 188.269531 266.558594 189.125 C 266.292969 189.660156 266.398438 191.046875 266.773438 192.4375 C 267.308594 194.519531 267.308594 195 266.507812 195.851562 C 266.027344 196.386719 265.601562 197.722656 265.601562 198.789062 C 265.601562 199.859375 265.28125 200.871094 264.960938 201.140625 C 264.425781 201.460938 250.078125 201.886719 243.199219 201.832031 C 242.773438 201.832031 230.507812 201.832031 216 201.832031 C 201.492188 201.886719 189.226562 201.886719 188.800781 201.832031 C 188.375 201.832031 186.238281 201.832031 184.054688 201.832031 C 180 201.832031 176.375 201.03125 175.464844 199.964844 C 175.148438 199.589844 174.773438 197.027344 174.558594 194.304688 C 174.292969 190.140625 174.398438 189.125 175.09375 188.589844 C 175.734375 188.003906 176.160156 188.164062 177.546875 189.550781 C 178.453125 190.460938 180.640625 191.796875 182.347656 192.488281 C 185.386719 193.71875 186.027344 193.769531 194.238281 193.609375 C 203.894531 193.398438 206.1875 193.078125 207.734375 191.6875 C 208.320312 191.15625 209.332031 190.460938 209.972656 190.140625 C 212.214844 189.019531 212.90625 184.746094 213.011719 170.863281 C 213.066406 163.816406 212.851562 157.410156 212.585938 156.289062 C 211.945312 153.882812 212.320312 153.511719 215.945312 152.976562 C 218.132812 152.65625 218.507812 152.761719 219.574219 154.042969 C 220.585938 155.21875 220.746094 155.808594 220.425781 157.410156 C 220.214844 158.53125 220.105469 159.863281 220.105469 160.453125 C 220.160156 161.039062 220.214844 166.804688 220.214844 173.265625 L 220.265625 185.015625 L 221.921875 187.683594 C 225.066406 192.917969 227.359375 193.609375 240.851562 193.558594 L 249.492188 193.558594 L 252.375 191.527344 C 253.972656 190.460938 255.519531 189.550781 255.785156 189.550781 C 257.066406 189.550781 257.761719 182.664062 257.761719 170.0625 C 257.8125 159.171875 257.707031 156.980469 256.960938 155.648438 C 256.480469 154.738281 255.679688 153.296875 255.199219 152.390625 C 254.613281 151.269531 253.386719 150.308594 251.308594 149.347656 C 248.585938 148.117188 247.574219 147.957031 241.867188 147.957031 C 238.347656 147.90625 234.773438 147.691406 233.921875 147.476562 L 232.375 147.050781 L 232.585938 141.765625 C 232.691406 138.828125 232.746094 134.714844 232.691406 132.578125 C 232.640625 129.214844 232.746094 128.683594 233.652344 128.414062 C 234.1875 128.203125 234.667969 127.613281 234.667969 127.027344 C 234.667969 125.796875 235.359375 125.691406 236.265625 126.8125 Z M 306.398438 152.921875 C 307.09375 153.992188 307.148438 154.632812 306.71875 156.289062 C 306.078125 158.691406 306.347656 173.746094 307.09375 175.667969 C 307.359375 176.417969 308.105469 177.433594 308.691406 177.964844 C 309.28125 178.5 309.921875 179.515625 310.078125 180.261719 C 310.347656 181.167969 310.773438 181.542969 311.785156 181.542969 C 312.480469 181.542969 313.921875 181.863281 314.878906 182.289062 C 317.492188 183.359375 332.320312 183.089844 335.148438 181.863281 C 338.613281 180.421875 338.667969 180.476562 338.667969 190.085938 L 338.667969 198.738281 L 335.574219 201.832031 L 319.625 201.671875 C 301.761719 201.460938 301.011719 201.351562 301.601562 198.257812 C 301.761719 197.347656 301.601562 195.425781 301.28125 194.089844 C 300.746094 191.957031 300.800781 191.316406 301.492188 190.140625 C 302.1875 188.910156 302.1875 188.589844 301.546875 187.738281 C 300.691406 186.507812 300.535156 183.359375 301.332031 182.878906 C 301.652344 182.71875 301.867188 181.96875 301.867188 181.277344 C 301.867188 180.582031 301.652344 179.835938 301.332031 179.675781 C 300.585938 179.195312 300.640625 175.882812 301.441406 174.601562 C 301.972656 173.800781 301.972656 173.214844 301.441406 171.773438 C 300.640625 169.582031 300.640625 167.820312 301.332031 167.394531 C 302.078125 166.964844 302.027344 164.832031 301.226562 163.121094 C 300.746094 162.054688 300.746094 161.304688 301.28125 159.863281 C 301.867188 158.210938 301.8125 157.730469 300.800781 155.539062 C 300.214844 154.203125 299.734375 153.03125 299.839844 152.976562 C 300.105469 152.710938 303.679688 151.75 304.640625 151.695312 C 305.171875 151.640625 305.972656 152.230469 306.398438 152.921875 Z M 198.878906 154.203125 L 207.09375 154.042969 L 207.09375 187.683594 L 200.214844 187.738281 C 196.425781 187.789062 190.773438 187.898438 187.625 188.003906 C 184.480469 188.058594 181.707031 188.003906 181.546875 187.789062 C 180.960938 187.203125 181.226562 154.152344 181.8125 153.832031 C 182.132812 153.617188 184.265625 153.671875 186.507812 153.882812 C 188.800781 154.152344 194.347656 154.257812 198.878906 154.203125 Z M 251.148438 153.722656 C 251.734375 154.097656 251.839844 157.355469 251.839844 170.863281 C 251.839844 184.480469 251.734375 187.628906 251.148438 187.949219 C 250.71875 188.109375 248.265625 188.164062 245.652344 188.003906 C 243.039062 187.84375 237.867188 187.789062 234.1875 187.949219 C 230.507812 188.109375 227.148438 188.109375 226.71875 187.898438 C 226.132812 187.628906 226.027344 184.535156 226.027344 170.8125 L 226.027344 154.042969 L 234.238281 154.203125 C 238.71875 154.257812 243.945312 154.097656 245.867188 153.882812 C 247.785156 153.617188 249.601562 153.351562 249.867188 153.296875 C 250.1875 153.296875 250.71875 153.457031 251.148438 153.722656 Z M 295.253906 155.167969 C 295.414062 155.859375 295.414062 156.660156 295.199219 156.929688 C 295.039062 157.25 294.933594 161.785156 294.988281 167.019531 C 295.09375 178.019531 295.09375 176.363281 294.933594 191.582031 C 294.878906 202.101562 294.773438 203.488281 293.972656 203.863281 C 293.492188 204.074219 288.535156 204.128906 282.933594 203.96875 L 272.800781 203.703125 L 272.746094 179.140625 C 272.691406 165.632812 272.746094 154.472656 272.851562 154.3125 C 272.90625 154.152344 277.921875 153.992188 283.945312 153.992188 C 294.933594 153.992188 294.988281 153.992188 295.253906 155.167969 Z M 335.464844 154.3125 C 335.734375 156.5 335.519531 176.308594 335.308594 176.578125 C 335.09375 176.738281 329.867188 176.898438 323.625 176.898438 L 312.265625 176.953125 L 312.105469 166.003906 C 312.054688 160.023438 312.105469 154.84375 312.214844 154.578125 C 312.425781 154.042969 335.464844 153.777344 335.464844 154.3125 Z M 335.464844 154.3125 "/>
<path style=" stroke:none;fill-rule:nonzero;fill:rgb(0%,0%,0%);fill-opacity:1;" d="M 288.375 176.097656 C 286.507812 178.179688 287.839844 180.902344 290.398438 180.261719 C 291.894531 179.886719 292.746094 177.644531 291.894531 176.257812 C 291.09375 175.027344 289.386719 174.921875 288.375 176.097656 Z M 288.375 176.097656 "/>
<path style=" stroke:none;fill-rule:nonzero;fill:rgb(0%,0%,0%);fill-opacity:1;" d="M 244.640625 110.902344 C 243.785156 111.703125 244.375 112.71875 246.238281 113.570312 C 247.359375 114.105469 248.535156 115.066406 248.851562 115.761719 C 249.921875 117.894531 252.960938 120.726562 255.199219 121.742188 C 256.425781 122.273438 258.078125 123.554688 258.933594 124.625 C 259.839844 125.746094 261.921875 128.042969 263.625 129.804688 C 265.28125 131.511719 266.667969 133.167969 266.667969 133.488281 C 266.667969 133.753906 267.679688 134.875 268.90625 135.996094 C 270.132812 137.117188 272.320312 139.148438 273.8125 140.535156 C 275.253906 141.976562 276.746094 143.097656 277.011719 143.152344 C 277.332031 143.152344 292.265625 143.207031 310.132812 143.3125 C 338.667969 143.417969 343.039062 143.527344 345.867188 144.328125 C 350.1875 145.5 351.464844 145.5 351.464844 144.21875 C 351.464844 143.3125 347.039062 138.828125 346.132812 138.828125 C 345.921875 138.828125 344.851562 137.492188 343.785156 135.890625 C 342.558594 134.023438 340.800781 132.257812 338.988281 131.085938 C 336.90625 129.75 335.785156 128.574219 334.933594 126.8125 C 334.027344 124.945312 333.066406 123.984375 331.148438 122.914062 C 329.761719 122.113281 328.214844 120.832031 327.734375 120.03125 C 327.308594 119.230469 326.1875 118.054688 325.332031 117.46875 C 324.425781 116.828125 323.734375 115.972656 323.734375 115.601562 C 323.734375 115.171875 323.199219 114.53125 322.558594 114.210938 C 321.867188 113.890625 320.800781 113.089844 320.105469 112.503906 C 318.933594 111.433594 318.347656 111.382812 287.839844 111.222656 C 270.773438 111.167969 254.132812 110.953125 250.878906 110.792969 C 247.625 110.632812 244.800781 110.6875 244.640625 110.902344 Z M 313.121094 116.933594 C 313.867188 116.933594 315.414062 117.523438 316.480469 118.269531 C 317.546875 119.019531 318.558594 119.605469 318.71875 119.605469 C 318.878906 119.605469 320.320312 120.941406 321.921875 122.542969 C 323.839844 124.515625 324.800781 125.957031 324.800781 126.867188 C 324.800781 127.988281 324.960938 128.148438 326.132812 127.828125 C 327.574219 127.453125 329.171875 128.894531 331.679688 132.6875 C 332.425781 133.863281 333.601562 135.355469 334.292969 135.996094 C 335.308594 137.011719 335.414062 137.386719 334.933594 138.292969 C 334.453125 139.199219 333.867188 139.414062 331.574219 139.359375 C 330.027344 139.308594 318.558594 139.308594 305.972656 139.359375 C 279.625 139.46875 280 139.519531 275.199219 134.929688 C 269.546875 129.535156 262.933594 121.792969 262.933594 120.511719 C 262.933594 120.03125 262.453125 119.5 261.867188 119.339844 C 260.535156 118.910156 260.480469 118.214844 261.761719 117.574219 C 262.238281 117.308594 271.039062 117.042969 281.332031 116.988281 C 291.574219 116.882812 300.105469 116.773438 300.214844 116.613281 C 300.320312 116.507812 302.988281 116.507812 306.078125 116.667969 C 309.171875 116.828125 312.375 116.933594 313.121094 116.933594 Z M 313.121094 116.933594 "/>
<path style=" stroke:none;fill-rule:nonzero;fill:rgb(0%,0%,0%);fill-opacity:1;" d="M 91.464844 120.671875 C 91.039062 121.527344 90.667969 122.59375 90.667969 123.074219 C 90.667969 123.503906 90.398438 123.875 90.132812 123.875 C 89.761719 123.875 89.707031 124.835938 89.921875 126.492188 C 90.347656 129.855469 90.027344 130.015625 82.71875 130.550781 C 79.679688 130.765625 74.027344 131.40625 70.1875 131.992188 C 66.347656 132.578125 62.292969 133.113281 61.171875 133.167969 C 59.199219 133.21875 59.148438 133.167969 57.867188 130.015625 C 56.265625 126.171875 56.265625 126.28125 57.601562 124.945312 C 58.347656 124.195312 59.359375 123.875 61.011719 123.875 C 63.679688 123.875 64.320312 123.34375 63.464844 121.742188 C 62.988281 120.832031 62.558594 120.671875 60.90625 120.992188 C 59.839844 121.207031 56.425781 121.421875 53.332031 121.421875 C 48.054688 121.472656 47.734375 121.527344 47.574219 122.59375 C 47.464844 123.503906 48 123.984375 50.507812 125.050781 C 52.214844 125.796875 54.027344 126.546875 54.558594 126.707031 C 55.679688 127.132812 55.679688 128.042969 54.667969 129.429688 C 53.546875 130.871094 53.652344 131.191406 55.359375 131.992188 C 56.585938 132.578125 56.800781 133.058594 56.960938 135.144531 C 57.121094 137.4375 57.011719 137.652344 54.933594 139.09375 C 53.761719 139.894531 52.800781 140.804688 52.800781 141.015625 C 52.800781 141.925781 51.148438 141.496094 48.640625 140.054688 C 46.398438 138.71875 45.546875 138.558594 40.160156 138.347656 C 31.839844 138.078125 29.652344 138.878906 24.90625 143.847656 C 22.933594 145.929688 20.640625 148.972656 19.839844 150.574219 C 18.558594 153.136719 18.398438 154.152344 18.398438 158.582031 C 18.398438 164.671875 19.039062 166.113281 24.320312 172.144531 C 28.960938 177.484375 31.464844 178.554688 39.464844 178.5 C 44.375 178.5 45.441406 178.339844 48 177.058594 C 51.625 175.347656 56 171.773438 57.8125 169.15625 C 58.558594 167.980469 59.199219 166.21875 59.308594 164.882812 C 59.464844 162.855469 59.625 162.589844 60.800781 162.589844 C 61.921875 162.589844 62.1875 162.910156 62.398438 164.457031 C 62.667969 166.164062 62.828125 166.324219 64.691406 166.484375 C 65.921875 166.59375 67.253906 166.324219 68 165.84375 C 68.746094 165.363281 69.761719 164.992188 70.292969 164.992188 C 72.375 164.992188 73.121094 163.28125 72.960938 159.0625 L 72.800781 155.113281 L 70.132812 154.953125 C 67.09375 154.738281 66.132812 154.152344 66.292969 152.601562 C 66.347656 151.960938 66.078125 151.375 65.761719 151.269531 C 65.332031 151.109375 65.066406 151.480469 65.066406 152.28125 C 65.066406 153.082031 64.265625 154.363281 62.988281 155.59375 L 60.90625 157.621094 L 60.535156 155.859375 C 60.320312 154.84375 59.785156 153.5625 59.414062 152.976562 C 58.988281 152.390625 58.667969 151.375 58.667969 150.679688 C 58.667969 149.132812 57.921875 147.691406 55.625 144.914062 C 54.667969 143.6875 53.867188 142.566406 53.867188 142.40625 C 53.867188 142.246094 54.71875 141.285156 55.785156 140.214844 C 57.652344 138.347656 58.667969 138.132812 58.667969 139.679688 C 58.667969 140.109375 59.199219 141.816406 59.785156 143.527344 C 60.425781 145.179688 61.332031 147.742188 61.867188 149.238281 L 62.828125 151.910156 L 63.464844 150.46875 C 64.054688 149.238281 63.945312 148.4375 62.71875 144.648438 C 61.921875 142.191406 61.066406 139.949219 60.800781 139.628906 C 60.480469 139.199219 60.535156 138.667969 60.960938 138.078125 C 61.492188 137.332031 62.878906 137.011719 66.988281 136.636719 C 69.867188 136.371094 73.226562 135.785156 74.398438 135.355469 C 75.574219 134.929688 78.773438 134.503906 81.441406 134.289062 C 84.160156 134.128906 86.988281 133.753906 87.734375 133.488281 C 88.535156 133.167969 89.652344 132.953125 90.238281 132.953125 C 90.828125 132.953125 91.625 132.578125 92 132.046875 C 93.171875 130.445312 94.027344 131.777344 93.707031 134.875 C 93.546875 136.476562 93.652344 137.867188 93.921875 138.027344 C 95.039062 138.773438 94.398438 140.75 92.851562 141.335938 C 90.773438 142.085938 86.453125 147.742188 84.640625 152.070312 C 83.359375 155.167969 83.199219 156.128906 83.464844 159.011719 C 83.894531 164.03125 86.878906 169.851562 91.039062 173.800781 C 91.679688 174.441406 93.601562 175.617188 95.308594 176.523438 C 98.1875 177.964844 98.773438 178.074219 104.535156 178.074219 C 110.558594 178.019531 110.71875 178.019531 114.507812 176.042969 C 119.625 173.425781 122.078125 170.757812 124.214844 165.578125 C 126.613281 159.703125 126.613281 155.273438 124.214844 150.148438 C 121.972656 145.449219 120.800781 143.898438 117.8125 141.765625 C 113.386719 138.558594 108.480469 137.652344 99.734375 138.453125 C 98.453125 138.558594 98.398438 138.398438 98.398438 135.835938 C 98.453125 133.703125 98.773438 132.527344 100 130.765625 C 100.960938 129.269531 101.546875 127.722656 101.546875 126.546875 C 101.546875 124.515625 102.027344 123.875 103.839844 123.875 C 105.226562 123.875 105.707031 123.234375 105.28125 122.0625 C 105.066406 121.527344 104.320312 121.207031 103.148438 121.207031 C 102.1875 121.207031 100.585938 120.726562 99.625 120.140625 C 98.453125 119.445312 96.90625 119.070312 95.09375 119.070312 C 92.535156 119.070312 92.214844 119.230469 91.464844 120.671875 Z M 98.613281 123.609375 L 100.214844 124.996094 L 99.199219 127.402344 C 98.613281 128.683594 97.761719 130.230469 97.226562 130.765625 C 96.320312 131.726562 96.214844 131.726562 95.199219 130.925781 C 94.558594 130.390625 93.761719 129.214844 93.332031 128.203125 C 92.960938 127.242188 92.105469 125.957031 91.519531 125.371094 C 90.398438 124.355469 90.398438 124.355469 91.464844 123.714844 C 92.425781 123.128906 94.558594 122.542969 96.375 122.328125 C 96.691406 122.328125 97.707031 122.863281 98.613281 123.609375 Z M 97.066406 140.375 C 97.066406 140.855469 97.28125 141.496094 97.546875 141.765625 C 98.238281 142.511719 98.347656 144.113281 97.921875 146.300781 C 97.386719 148.867188 98.878906 152.601562 100 151.640625 C 101.171875 150.679688 100.960938 148.707031 99.625 147.796875 C 98.453125 146.996094 98.453125 146.996094 99.519531 145.449219 C 100.054688 144.59375 100.800781 143.417969 101.121094 142.832031 C 101.601562 141.925781 102.238281 141.765625 104.851562 141.816406 C 108.585938 141.925781 110.132812 142.191406 112.265625 143.152344 C 114.558594 144.21875 119.039062 147.316406 119.785156 148.332031 C 120.90625 149.933594 122.238281 156.769531 122.027344 159.4375 C 121.601562 163.976562 119.414062 169.101562 117.652344 169.796875 C 116.90625 170.0625 115.414062 170.863281 114.292969 171.558594 C 111.519531 173.265625 107.199219 174.601562 104.425781 174.601562 C 101.601562 174.601562 96.800781 173.105469 94.667969 171.613281 C 93.761719 170.972656 92.535156 170.332031 91.894531 170.117188 C 90.667969 169.742188 88.214844 164.082031 87.414062 159.917969 C 87.039062 157.835938 87.679688 152.976562 88.535156 151.910156 C 88.746094 151.589844 89.121094 150.628906 89.332031 149.667969 C 89.546875 148.652344 90.398438 147.371094 91.519531 146.460938 C 95.785156 143.046875 96.105469 142.671875 95.464844 141.445312 C 94.988281 140.644531 95.039062 140.160156 95.464844 139.574219 C 96.265625 138.667969 97.066406 139.09375 97.066406 140.375 Z M 41.546875 142.246094 C 43.253906 141.871094 47.148438 143.632812 47.679688 144.96875 C 48.265625 146.515625 48.054688 147.15625 46.398438 149.027344 C 44.640625 151 44.265625 152.175781 45.761719 151.054688 C 47.199219 149.933594 48.214844 148.8125 49.226562 147.210938 C 50.398438 145.394531 51.199219 145.394531 53.332031 147.15625 C 55.359375 148.917969 56.535156 151.109375 56.535156 153.242188 C 56.535156 154.152344 57.121094 156.019531 57.8125 157.460938 C 59.09375 159.972656 59.09375 160.023438 58.078125 160.878906 C 57.546875 161.359375 57.066406 162.375 57.066406 163.070312 C 57.066406 163.816406 56.535156 165.042969 55.894531 165.792969 C 54.828125 166.964844 54.132812 167.179688 50.773438 167.394531 C 48.640625 167.5 46.453125 167.765625 45.921875 167.925781 C 45.28125 168.085938 44.320312 167.714844 43.308594 166.859375 C 41.226562 165.152344 40.691406 165.152344 40.265625 167.125 C 39.679688 169.851562 40.640625 170.4375 44.746094 170.0625 C 46.667969 169.851562 48.585938 169.367188 48.960938 169.046875 C 49.707031 168.355469 52.800781 168.566406 52.800781 169.261719 C 52.800781 169.851562 50.1875 171.933594 49.492188 171.933594 C 49.171875 171.933594 48.320312 172.359375 47.574219 172.894531 C 43.519531 175.667969 34.027344 175.457031 30.238281 172.464844 C 29.492188 171.878906 28.640625 171.398438 28.320312 171.398438 C 26.828125 171.398438 23.945312 166.859375 22.132812 161.679688 C 21.066406 158.53125 21.121094 156.980469 22.558594 154.257812 C 23.253906 152.976562 24 151.269531 24.160156 150.46875 C 24.746094 148.171875 27.519531 145.394531 30.828125 143.847656 C 34.613281 142.03125 36.640625 141.550781 38.558594 142.085938 C 39.414062 142.351562 40.746094 142.40625 41.546875 142.246094 Z M 41.546875 142.246094 "/>
<path style=" stroke:none;fill-rule:nonzero;fill:rgb(0%,0%,0%);fill-opacity:1;" d="M 101.867188 151.320312 C 101.867188 152.015625 102.238281 152.871094 102.667969 153.242188 C 103.09375 153.617188 103.464844 154.523438 103.464844 155.21875 C 103.464844 156.394531 103.308594 156.5 101.867188 156.179688 C 100.480469 155.859375 100.265625 155.96875 100.265625 156.980469 C 100.265625 157.570312 100.800781 159.011719 101.441406 160.183594 C 102.507812 162.054688 102.828125 162.214844 104.265625 161.945312 C 105.121094 161.785156 106.667969 160.933594 107.625 160.078125 C 108.585938 159.277344 109.707031 158.582031 110.132812 158.582031 C 110.558594 158.582031 110.933594 158.316406 110.933594 157.996094 C 110.933594 157.675781 110.558594 157.515625 110.132812 157.730469 C 109.332031 157.996094 108.214844 157.140625 106.828125 155.058594 C 106.347656 154.3125 105.492188 153.777344 104.746094 153.777344 C 103.839844 153.777344 103.464844 153.457031 103.464844 152.761719 C 103.464844 151.375 102.933594 150.039062 102.347656 150.039062 C 102.078125 150.039062 101.867188 150.628906 101.867188 151.320312 Z M 101.867188 151.320312 "/>
<path style=" stroke:none;fill-rule:nonzero;fill:rgb(0%,0%,0%);fill-opacity:1;" d="M 112 155.648438 C 112 156.074219 112.265625 156.449219 112.535156 156.449219 C 112.851562 156.449219 113.066406 156.074219 113.066406 155.648438 C 113.066406 155.21875 112.851562 154.84375 112.535156 154.84375 C 112.265625 154.84375 112 155.21875 112 155.648438 Z M 112 155.648438 "/>
<path style=" stroke:none;fill-rule:nonzero;fill:rgb(0%,0%,0%);fill-opacity:1;" d="M 94.238281 156.289062 C 93.601562 156.875 93.8125 157.515625 94.667969 157.515625 C 95.09375 157.515625 95.464844 157.140625 95.464844 156.714844 C 95.464844 155.859375 94.828125 155.648438 94.238281 156.289062 Z M 94.238281 156.289062 "/>
<path style=" stroke:none;fill-rule:nonzero;fill:rgb(0%,0%,0%);fill-opacity:1;" d="M 106.667969 166.859375 C 106.667969 167.285156 106.933594 167.660156 107.199219 167.660156 C 107.519531 167.660156 107.734375 167.285156 107.734375 166.859375 C 107.734375 166.433594 107.519531 166.058594 107.199219 166.058594 C 106.933594 166.058594 106.667969 166.433594 106.667969 166.859375 Z M 106.667969 166.859375 "/>
<path style=" stroke:none;fill-rule:nonzero;fill:rgb(0%,0%,0%);fill-opacity:1;" d="M 40.054688 150.308594 C 40.054688 151.960938 40.160156 152.230469 40.535156 151.535156 C 40.851562 151 40.90625 150.199219 40.585938 149.398438 C 40.105469 148.332031 40.054688 148.4375 40.054688 150.308594 Z M 40.054688 150.308594 "/>
<path style=" stroke:none;fill-rule:nonzero;fill:rgb(0%,0%,0%);fill-opacity:1;" d="M 32.640625 151.109375 C 33.332031 152.175781 34.132812 152.550781 34.132812 151.75 C 34.132812 151.214844 32.960938 150.039062 32.425781 150.039062 C 32.160156 150.039062 32.265625 150.519531 32.640625 151.109375 Z M 32.640625 151.109375 "/>
<path style=" stroke:none;fill-rule:nonzero;fill:rgb(0%,0%,0%);fill-opacity:1;" d="M 29.332031 154.578125 C 28.800781 155.21875 28.960938 155.433594 30.1875 155.914062 C 32.160156 156.660156 33.28125 155.699219 31.785156 154.523438 C 30.453125 153.5625 30.132812 153.5625 29.332031 154.578125 Z M 29.332031 154.578125 "/>
<path style=" stroke:none;fill-rule:nonzero;fill:rgb(0%,0%,0%);fill-opacity:1;" d="M 39.464844 154.203125 C 37.867188 154.683594 34.71875 158.261719 34.398438 159.863281 C 34.1875 160.773438 33.921875 161.945312 33.8125 162.429688 C 33.601562 163.175781 33.867188 163.390625 34.878906 163.390625 C 35.894531 163.390625 36.265625 163.65625 36.265625 164.402344 C 36.265625 165.898438 37.171875 166.273438 37.601562 164.9375 C 37.867188 164.136719 38.238281 163.921875 39.148438 164.136719 C 41.28125 164.671875 43.945312 159.4375 42.132812 158.316406 C 41.28125 157.78125 42.078125 156.980469 43.09375 157.355469 C 43.574219 157.515625 44.90625 158.371094 45.972656 159.171875 C 47.519531 160.398438 48.480469 160.71875 50.613281 160.71875 C 52.054688 160.71875 53.441406 160.453125 53.601562 160.183594 C 53.921875 159.652344 53.546875 159.4375 51.148438 158.902344 C 49.386719 158.53125 48.800781 157.140625 49.867188 155.914062 C 50.828125 154.84375 50.453125 154.3125 48.746094 154.3125 C 46.828125 154.3125 45.867188 154.898438 45.867188 155.96875 C 45.867188 157.515625 44.800781 157.195312 44.214844 155.433594 C 43.785156 154.152344 43.359375 153.882812 41.972656 153.882812 C 41.011719 153.882812 39.894531 154.042969 39.464844 154.203125 Z M 41.066406 160.71875 C 41.066406 161.304688 40.851562 161.785156 40.535156 161.785156 C 40.265625 161.785156 40 161.304688 40 160.71875 C 40 160.132812 40.265625 159.652344 40.535156 159.652344 C 40.851562 159.652344 41.066406 160.132812 41.066406 160.71875 Z M 37.441406 162.429688 C 36.640625 163.230469 36.054688 162.640625 36.480469 161.464844 C 36.746094 160.773438 36.960938 160.664062 37.441406 161.144531 C 37.921875 161.625 37.921875 161.945312 37.441406 162.429688 Z M 37.441406 162.429688 "/>
<path style=" stroke:none;fill-rule:nonzero;fill:rgb(0%,0%,0%);fill-opacity:1;" d="M 87.734375 139.46875 C 86.878906 140.109375 85.28125 141.390625 84.265625 142.351562 C 83.253906 143.3125 80.851562 145.179688 78.933594 146.460938 C 77.066406 147.691406 75.09375 149.453125 74.613281 150.308594 C 71.734375 155.433594 73.761719 155.753906 78.613281 150.949219 C 80.480469 149.132812 83.414062 146.300781 85.171875 144.699219 C 87.945312 142.085938 90.667969 138.238281 89.707031 138.292969 C 89.492188 138.292969 88.640625 138.828125 87.734375 139.46875 Z M 87.734375 139.46875 "/>
<path style=" stroke:none;fill-rule:nonzero;fill:rgb(0%,0%,0%);fill-opacity:1;" d="M 398.316406 165.152344 C 394.117188 166.957031 391.800781 172.195312 394.117188 174.769531 C 395.917969 176.746094 397.203125 176.828125 400.71875 175.027344 C 404.148438 173.222656 404.75 172.367188 404.75 169.015625 C 404.75 164.894531 402.433594 163.523438 398.316406 165.152344 Z M 398.316406 165.152344 "/>
<path style=" stroke:none;fill-rule:nonzero;fill:rgb(0%,0%,0%);fill-opacity:1;" d="M 67.785156 168.515625 C 66.988281 170.332031 67.625 170.863281 70.828125 170.863281 C 72.640625 170.863281 73.066406 170.703125 73.066406 169.851562 C 73.066406 168.566406 72.054688 167.765625 70.078125 167.339844 C 68.691406 167.074219 68.375 167.234375 67.785156 168.515625 Z M 67.785156 168.515625 "/>
<path style=" stroke:none;fill-rule:nonzero;fill:rgb(0%,0%,0%);fill-opacity:1;" d="M 410.925781 176.914062 C 409.378906 177.945312 409.039062 179.0625 409.039062 182.496094 C 409.039062 186.015625 409.464844 187.132812 411.265625 188.851562 C 414.269531 191.683594 415.296875 191.511719 418.042969 188.25 C 420.015625 185.929688 420.269531 184.902344 419.929688 181.808594 C 419.757812 179.75 419.070312 177.515625 418.46875 176.828125 C 417.097656 175.199219 413.324219 175.199219 410.925781 176.914062 Z M 410.925781 176.914062 "/>
<path style=" stroke:none;fill-rule:nonzero;fill:rgb(0%,0%,0%);fill-opacity:1;" d="M 392.058594 185.5 C 389.226562 187.476562 389.65625 190.652344 393.171875 194.171875 C 395.574219 196.578125 396.6875 197.09375 398.917969 196.835938 C 401.492188 196.578125 401.746094 196.320312 401.40625 194 C 401.0625 190.910156 400.03125 188.679688 397.632812 186.015625 C 395.574219 183.785156 394.628906 183.699219 392.058594 185.5 Z M 392.058594 185.5 "/>
<path style=" stroke:none;fill-rule:nonzero;fill:rgb(0%,0%,0%);fill-opacity:1;" d="M 411.179688 193.484375 C 410.667969 193.914062 409.039062 194.429688 407.40625 194.601562 C 403.71875 194.945312 403.035156 196.664062 405.949219 197.949219 C 409.378906 199.582031 413.667969 197.949219 414.011719 195.03125 C 414.269531 192.628906 412.808594 191.855469 411.179688 193.484375 Z M 411.179688 193.484375 "/>
<path style=" stroke:none;fill-rule:nonzero;fill:rgb(0%,0%,0%);fill-opacity:1;" d="M 260.265625 244.390625 C 259.839844 244.550781 258.878906 245.136719 258.132812 245.617188 C 257.386719 246.097656 255.894531 246.84375 254.773438 247.164062 C 253.707031 247.539062 252.535156 248.285156 252.265625 248.820312 C 251.199219 250.851562 252.054688 258.433594 253.652344 261.261719 C 253.921875 261.6875 255.464844 263.078125 257.066406 264.359375 C 259.414062 266.226562 260.320312 266.601562 261.972656 266.496094 C 263.039062 266.441406 264.425781 266.707031 264.960938 267.027344 C 265.867188 267.617188 266.398438 267.347656 269.011719 265.105469 C 270.667969 263.664062 272 262.328125 272 262.167969 C 272 262.007812 272.425781 261.367188 272.960938 260.78125 C 275.199219 258.378906 275.734375 257.097656 275.679688 254.425781 C 275.625 250.582031 275.148438 249.410156 273.332031 248.394531 C 272.425781 247.914062 270.398438 246.738281 268.746094 245.777344 C 265.8125 244.070312 262.558594 243.535156 260.265625 244.390625 Z M 265.28125 252.292969 C 266.292969 253.574219 266.613281 254.535156 266.398438 255.28125 C 266.1875 255.867188 266.347656 256.722656 266.71875 257.152344 C 267.679688 258.273438 266.292969 259.5 263.679688 259.875 C 261.761719 260.140625 261.441406 259.980469 259.945312 258.058594 C 257.492188 255.015625 256.851562 253.625 257.546875 252.933594 C 257.972656 252.503906 258.292969 252.613281 258.828125 253.304688 C 259.253906 253.894531 259.839844 254.105469 260.425781 253.839844 C 261.441406 253.464844 261.652344 252.238281 260.691406 251.917969 C 259.574219 251.542969 260.800781 250.421875 262.347656 250.421875 C 263.464844 250.421875 264.265625 250.957031 265.28125 252.292969 Z M 265.28125 252.292969 "/>
<path style=" stroke:none;fill-rule:nonzero;fill:rgb(0%,0%,0%);fill-opacity:1;" d="M 257.066406 272.316406 C 256.640625 272.582031 255.625 272.847656 254.828125 272.847656 C 252.375 272.847656 250.71875 274.824219 250.027344 278.617188 C 249.332031 282.40625 249.8125 284.648438 252.160156 287.640625 C 253.386719 289.292969 253.441406 289.5625 252.90625 292.710938 C 252.375 296.234375 251.625 298.746094 250.347656 301.363281 C 249.652344 302.695312 249.652344 303.070312 250.398438 304.136719 C 251.039062 305.152344 251.679688 305.417969 253.332031 305.417969 C 257.066406 305.417969 257.921875 306.167969 257.921875 309.425781 C 257.972656 312.09375 257.921875 312.253906 256.535156 312.574219 C 254.933594 312.894531 254.078125 314.765625 255.039062 315.9375 C 255.359375 316.3125 256.640625 316.632812 257.921875 316.632812 L 260.265625 316.632812 L 260.375 314.335938 C 260.375 313.109375 260.480469 311.773438 260.480469 311.453125 C 260.535156 311.078125 261.066406 310.386719 261.761719 309.957031 C 262.71875 309.265625 262.828125 308.890625 262.398438 308.035156 C 261.707031 306.808594 261.921875 306.703125 266.078125 306.273438 C 270.347656 305.847656 270.667969 306.273438 269.546875 311.667969 C 269.332031 312.734375 268.960938 312.894531 266.933594 312.894531 C 264.640625 312.894531 264.535156 312.949219 264.535156 314.496094 C 264.535156 315.992188 266.078125 318.234375 267.148438 318.234375 C 268.691406 318.234375 269.332031 317.488281 269.332031 315.617188 C 269.332031 313.75 269.492188 313.589844 271.359375 313.109375 C 273.28125 312.628906 273.332031 312.574219 273.226562 310.492188 C 273.121094 309.316406 273.011719 306.914062 272.90625 305.152344 C 272.800781 303.390625 272.375 300.5625 272 298.851562 C 271.359375 295.96875 271.359375 295.648438 272.425781 293.460938 C 273.066406 292.179688 273.601562 290.894531 273.601562 290.628906 C 273.601562 290.363281 274.078125 289.667969 274.667969 289.132812 C 276.105469 287.800781 276.160156 281.445312 274.71875 278.082031 C 273.121094 274.34375 269.441406 271.941406 267.359375 273.277344 C 266.878906 273.542969 267.359375 274.398438 268.800781 276.160156 C 270.988281 278.667969 270.933594 279.148438 268.691406 279.949219 C 267.894531 280.21875 267.839844 281.230469 268 289.507812 C 268.160156 298.691406 267.839844 302.855469 266.773438 303.925781 C 266.453125 304.246094 264.320312 304.511719 261.972656 304.511719 C 254.453125 304.511719 253.226562 302.054688 256.960938 294.367188 C 257.652344 292.980469 257.652344 292.550781 257.121094 291.855469 C 256.640625 291.324219 256.535156 290.363281 256.746094 289.292969 C 256.960938 288.171875 256.746094 286.890625 256.054688 285.449219 C 254.667969 282.460938 254.1875 277.707031 255.199219 277.28125 C 255.625 277.121094 256 276.53125 256 276 C 256 274.769531 256.800781 274.664062 257.28125 275.785156 C 257.761719 277.011719 260.640625 276.800781 260.960938 275.519531 C 261.171875 274.769531 261.707031 274.449219 262.828125 274.449219 C 264.691406 274.449219 266.078125 273.117188 265.171875 272.207031 C 264.691406 271.726562 264.265625 271.835938 263.464844 272.582031 C 262.453125 273.488281 262.347656 273.488281 261.441406 272.6875 C 260.320312 271.675781 258.292969 271.515625 257.066406 272.316406 Z M 257.066406 272.316406 "/>
<path style=" stroke:none;fill-rule:nonzero;fill:rgb(0%,0%,0%);fill-opacity:1;" d="M 260.265625 324.375 C 259.894531 324.800781 259.574219 325.976562 259.519531 326.882812 C 259.464844 328.378906 259.253906 328.648438 258.132812 328.648438 C 257.121094 328.648438 256.800781 328.378906 256.851562 327.417969 C 256.851562 326.511719 256.585938 326.242188 255.574219 326.242188 C 254.558594 326.242188 254.347656 326.457031 254.558594 327.3125 C 254.71875 327.898438 254.613281 328.539062 254.347656 328.699219 C 253.652344 329.128906 253.761719 331.796875 254.507812 332.542969 C 255.734375 333.773438 261.867188 332.917969 261.867188 331.476562 C 261.867188 331.210938 262.453125 330.78125 263.199219 330.515625 C 264.375 330.035156 264.535156 329.714844 264.535156 327.097656 C 264.535156 324.960938 264.320312 324.160156 263.679688 323.894531 C 262.292969 323.359375 260.960938 323.519531 260.265625 324.375 Z M 260.265625 324.375 "/>
<path style=" stroke:none;fill-rule:nonzero;fill:rgb(0%,0%,0%);fill-opacity:1;" d="M 268.585938 325.015625 C 268.425781 325.175781 268.265625 326.296875 268.265625 327.417969 C 268.265625 329.234375 268.054688 329.554688 266.71875 330.035156 C 265.28125 330.570312 264.265625 332.277344 264.851562 333.292969 C 265.011719 333.503906 266.1875 333.71875 267.464844 333.71875 C 269.332031 333.71875 270.1875 333.34375 272.105469 331.796875 C 273.332031 330.730469 274.398438 329.609375 274.347656 329.394531 C 274.292969 329.128906 274.238281 328.328125 274.238281 327.578125 C 274.132812 326.242188 273.386719 325.761719 270.347656 325.015625 C 269.601562 324.800781 268.800781 324.800781 268.585938 325.015625 Z M 268.585938 325.015625 "/>
<path style="fill-rule:nonzero;fill:rgb(100%,100%,100%);fill-opacity:1;stroke-width:3.883095;stroke-linecap:butt;stroke-linejoin:miter;stroke:rgb(0%,0%,0%);stroke-opacity:1;stroke-miterlimit:4;" d="M 667.034912 324.737062 C 662.026978 324.298117 656.176758 323.008716 654.025269 321.874774 C 649.21875 319.332551 628.427124 298.126016 622.109985 289.310536 C 619.555664 285.744107 616.296387 281.53755 614.868164 279.973808 C 613.439941 278.400921 612.597656 276.791456 613.009644 276.38909 C 614.099121 275.291727 684.695435 273.572525 711.932373 273.974892 C 733.43811 274.294956 736.038208 274.569296 740.45105 276.937771 C 748.031616 281.007158 756.37207 288.999616 759.265137 294.971098 C 761.21521 298.994762 762.606812 300.421333 764.593506 300.421333 C 766.07666 300.421333 768.200684 301.107185 769.308472 301.939352 C 771.697998 303.740855 784.744263 321.051752 784.744263 322.4326 C 784.744263 325.486926 777.639771 325.898438 728.091431 325.724688 C 699.517822 325.624097 672.042847 325.176007 667.034912 324.737062 Z M 667.034912 324.737062 " transform="matrix(0.426667,0,0,0.42716,0,-0.000000000000056843)"/>
<path style="fill-rule:nonzero;fill:rgb(100%,100%,100%);fill-opacity:1;stroke-width:3.883095;stroke-linecap:butt;stroke-linejoin:miter;stroke:rgb(0%,0%,0%);stroke-opacity:1;stroke-miterlimit:4;" d="M 684.631348 322.277141 C 669.277954 321.810761 659.024048 320.978595 656.726074 320.000113 C 652.478027 318.198609 631.375122 297.056087 623.062134 286.274499 L 617.321777 278.830722 L 626.705933 278.062568 C 631.869507 277.632767 658.209229 277.166388 685.235596 277.020073 L 734.381104 276.754877 L 739.846802 280.019531 C 746.786499 284.152931 750.732422 287.920543 756.866455 296.214776 C 759.860229 300.265873 762.670898 302.844676 764.108276 302.844676 C 765.490723 302.844676 768.942261 305.844134 772.540283 310.160427 C 782.794189 322.478324 783.078003 321.774183 767.39502 322.679507 C 752.380371 323.548252 721.774292 323.401937 684.631348 322.277141 Z M 684.631348 322.277141 " transform="matrix(0.426667,0,0,0.42716,0,-0.000000000000056843)"/>
<path style="fill-rule:nonzero;fill:rgb(100%,100%,100%);fill-opacity:1;stroke-width:3.883095;stroke-linecap:butt;stroke-linejoin:miter;stroke:rgb(0%,0%,0%);stroke-opacity:1;stroke-miterlimit:4;" d="M 693.127441 319.826364 C 675.65918 319.341695 662.200928 318.427226 659.509277 317.531047 C 656.295776 316.470263 650.527954 311.39496 639.18457 299.653179 C 630.477905 290.627371 623.355103 282.826951 623.355103 282.305704 C 623.355103 280.568213 643.093872 279.809203 688.659668 279.800059 L 733.950806 279.790914 L 739.224243 282.881819 C 742.126465 284.582731 747.683716 289.639744 751.556396 294.111497 C 755.438232 298.583251 759.439087 302.734939 760.455322 303.329344 C 761.462402 303.932894 765.57312 307.755374 769.573975 311.824761 L 776.852417 319.231959 L 761.077881 320.000113 C 742.181396 320.923727 731.414795 320.896292 693.127441 319.826364 Z M 693.127441 319.826364 " transform="matrix(0.426667,0,0,0.42716,0,-0.000000000000056843)"/>
<path style="fill-rule:nonzero;fill:rgb(100%,100%,100%);fill-opacity:1;stroke-width:3.883095;stroke-linecap:butt;stroke-linejoin:miter;stroke:rgb(0%,0%,0%);stroke-opacity:1;stroke-miterlimit:4;" d="M 697.833252 317.375587 C 681.069946 316.826906 664.984131 315.738688 662.091064 314.961389 C 657.751465 313.790869 654.318237 310.974305 642.398071 298.793578 L 627.96936 284.043195 L 639.312744 283.265896 C 645.547485 282.836096 669.277954 282.424585 692.028809 282.351427 L 733.410645 282.214257 L 738.143921 285.725817 C 740.744019 287.664492 749.14856 295.574648 756.811523 303.329344 L 770.74585 317.412166 L 757.415771 317.421311 C 750.091553 317.421311 740.542603 317.640783 736.203003 317.905979 C 731.863403 318.171175 714.596558 317.933413 697.833252 317.375587 Z M 697.833252 317.375587 " transform="matrix(0.426667,0,0,0.42716,0,-0.000000000000056843)"/>
<path style="fill-rule:nonzero;fill:rgb(100%,100%,100%);fill-opacity:1;stroke-width:3.883095;stroke-linecap:butt;stroke-linejoin:miter;stroke:rgb(0%,0%,0%);stroke-opacity:1;stroke-miterlimit:4;" d="M 676.593018 313.708567 C 669.13147 313.16903 662.237549 311.99851 660.214233 310.928581 C 658.291626 309.913521 651.635742 303.951183 645.410156 297.668782 L 634.103394 286.247065 L 662.402344 285.451477 C 677.966309 285.012532 700.131226 284.646744 711.66687 284.646744 L 732.632446 284.646744 L 745.64209 296.635432 C 752.801514 303.228753 759.979248 310.050691 761.590576 311.797327 L 764.538574 314.979678 L 727.011108 314.805929 C 706.375122 314.705338 683.688354 314.211525 676.593018 313.699422 Z M 676.593018 313.708567 " transform="matrix(0.426667,0,0,0.42716,0,-0.000000000000056843)"/>
<path style="fill-rule:nonzero;fill:rgb(100%,100%,100%);fill-opacity:1;stroke-width:3.883095;stroke-linecap:butt;stroke-linejoin:miter;stroke:rgb(0%,0%,0%);stroke-opacity:1;stroke-miterlimit:4;" d="M 690.087891 311.312658 C 677.078247 310.855424 665.002441 309.895231 663.262939 309.181945 C 661.523438 308.477804 655.545044 303.567106 649.978638 298.29062 L 639.862061 288.688697 L 670.13855 287.883964 C 686.782837 287.435874 707.400513 287.079231 715.951538 287.079231 L 731.506348 287.070087 L 741.439819 296.370236 C 746.905518 301.482117 753.00293 307.215837 754.989624 309.108788 L 758.605957 312.556336 L 736.175537 312.346008 C 723.843384 312.236272 703.106689 311.769893 690.087891 311.303513 Z M 690.087891 311.312658 " transform="matrix(0.426667,0,0,0.42716,0,-0.000000000000056843)"/>
<path style="fill-rule:nonzero;fill:rgb(100%,100%,100%);fill-opacity:1;stroke-width:3.883095;stroke-linecap:butt;stroke-linejoin:miter;stroke:rgb(0%,0%,0%);stroke-opacity:1;stroke-miterlimit:4;" d="M 697.219849 308.861881 C 682.113647 308.377213 667.913818 307.362152 665.661621 306.593998 C 663.418579 305.825844 658.071899 302.030798 653.787231 298.15345 L 645.996094 291.112039 L 678.057861 290.307307 C 695.690918 289.868362 714.752197 289.520863 720.428467 289.539153 L 730.74646 289.566587 L 751.876831 310.123848 L 738.272095 309.93181 C 730.792236 309.822074 712.316895 309.34655 697.219849 308.861881 Z M 697.219849 308.861881 " transform="matrix(0.426667,0,0,0.42716,0,-0.000000000000056843)"/>
<path style="fill-rule:nonzero;fill:rgb(100%,100%,100%);fill-opacity:1;stroke-width:3.883095;stroke-linecap:butt;stroke-linejoin:miter;stroke:rgb(0%,0%,0%);stroke-opacity:1;stroke-miterlimit:4;" d="M 703.372192 306.456828 C 669.360352 305.240584 667.236328 304.874797 659.051514 298.821012 L 652.194214 293.74571 L 690.737915 292.730649 L 729.290771 291.706444 L 737.283325 299.708047 L 745.285034 307.700506 L 736.193848 307.508467 C 731.195068 307.398731 716.418457 306.932352 703.372192 306.456828 Z M 703.372192 306.456828 " transform="matrix(0.426667,0,0,0.42716,0,-0.000000000000056843)"/>
<path style="fill-rule:nonzero;fill:rgb(100%,100%,100%);fill-opacity:1;stroke-width:3.883095;stroke-linecap:butt;stroke-linejoin:miter;stroke:rgb(0%,0%,0%);stroke-opacity:1;stroke-miterlimit:4;" d="M 702.941895 303.923749 C 676.922607 302.862965 668.31665 301.619287 663.043213 298.162595 C 659.729004 295.986159 660.232544 295.940435 693.933105 295.108269 L 728.192139 294.257813 L 733.694458 299.762915 L 739.205933 305.277163 L 733.154297 305.085125 C 729.821777 304.984533 716.235352 304.463286 702.941895 303.923749 Z M 702.941895 303.923749 " transform="matrix(0.426667,0,0,0.42716,0,-0.000000000000056843)"/>
<path style="fill-rule:nonzero;fill:rgb(100%,100%,100%);fill-opacity:1;stroke-width:0.686441;stroke-linecap:butt;stroke-linejoin:miter;stroke:rgb(0%,0%,0%);stroke-opacity:1;stroke-miterlimit:4;" d="M 719.302368 302.533756 C 688.485718 301.290079 681.344604 300.851133 674.468994 299.726337 C 672.280884 299.369694 668.353271 298.436936 667.849731 298.162595 C 667.318726 297.86082 676.803589 297.549901 711.538696 296.717734 L 727.258301 296.342802 L 730.627441 299.708047 L 733.996582 303.082438 L 732.714844 303.055004 C 732.000732 303.036714 725.967407 302.808097 719.302368 302.533756 Z M 719.302368 302.533756 " transform="matrix(0.426667,0,0,0.42716,0,-0.000000000000056843)"/>
<path style="fill-rule:nonzero;fill:rgb(100%,100%,100%);fill-opacity:1;stroke-width:0.686441;stroke-linecap:butt;stroke-linejoin:miter;stroke:rgb(0%,0%,0%);stroke-opacity:1;stroke-miterlimit:4;" d="M 727.029419 302.405731 C 724.731445 302.314284 718.112183 302.039943 712.335205 301.793036 C 686.700439 300.723108 678.52478 300.110414 672.32666 298.811868 L 670.504761 298.427791 L 672.436523 298.281476 C 674.185181 298.144305 705.496216 297.284705 720.913696 296.946351 L 727.139282 296.818326 L 732.925415 302.652637 L 732.064819 302.616059 C 731.5979 302.597769 729.327393 302.506322 727.029419 302.405731 Z M 727.029419 302.405731 " transform="matrix(0.426667,0,0,0.42716,0,-0.000000000000056843)"/>
<path style="fill-rule:nonzero;fill:rgb(100%,100%,100%);fill-opacity:1;stroke-width:0.686441;stroke-linecap:butt;stroke-linejoin:miter;stroke:rgb(0%,0%,0%);stroke-opacity:1;stroke-miterlimit:4;" d="M 722.094727 301.783892 C 717.315674 301.564419 709.927368 301.244355 705.688477 301.052317 C 690.756226 300.384754 680.227661 299.644035 675.650024 298.939893 C 673.681641 298.628974 675.842285 298.555816 709.204102 297.696216 L 726.873779 297.238981 L 729.364014 299.735481 C 731.433105 301.802181 731.762695 302.213692 731.314087 302.195403 C 731.021118 302.177113 726.873779 301.99422 722.094727 301.783892 Z M 722.094727 301.783892 " transform="matrix(0.426667,0,0,0.42716,0,-0.000000000000056843)"/>
<path style="fill-rule:nonzero;fill:rgb(100%,100%,100%);fill-opacity:1;stroke-width:0.121347;stroke-linecap:butt;stroke-linejoin:miter;stroke:rgb(0%,0%,0%);stroke-opacity:1;stroke-miterlimit:4;" d="M 727.349854 301.655866 C 725.848389 301.582709 720.373535 301.344947 715.182495 301.107185 C 701.669312 300.51278 698.464966 300.35732 693.429565 300.06469 C 687.606812 299.726337 682.122803 299.32397 679.266357 299.013051 L 678.469849 298.921604 L 678.982544 298.89417 C 680.831909 298.802723 690.847778 298.528382 718.267822 297.824241 L 726.73645 297.604769 L 728.704834 299.589166 C 729.785156 300.686529 730.700684 301.628432 730.74646 301.6833 L 730.828857 301.793036 L 730.453491 301.793036 C 730.252075 301.783892 728.851318 301.729024 727.349854 301.655866 Z M 727.349854 301.655866 " transform="matrix(0.426667,0,0,0.42716,0,-0.000000000000056843)"/>
<path style="fill-rule:nonzero;fill:rgb(100%,100%,100%);fill-opacity:1;stroke-width:0.121347;stroke-linecap:butt;stroke-linejoin:miter;stroke:rgb(0%,0%,0%);stroke-opacity:1;stroke-miterlimit:4;" d="M 729.098511 301.655866 C 728.466797 301.628432 725.088501 301.472972 721.591187 301.317513 C 697.045898 300.22015 694.271851 300.08298 687.286377 299.589166 C 684.182739 299.378839 679.641724 299.003906 679.678345 298.967327 C 679.724121 298.921604 690.765381 298.619829 723.522949 297.769373 L 726.708984 297.687071 L 728.475952 299.488575 C 729.455566 300.476201 730.343628 301.381525 730.444336 301.500406 L 730.636597 301.719879 L 730.435181 301.710734 C 730.325317 301.710734 729.721069 301.6833 729.098511 301.655866 Z M 729.098511 301.655866 " transform="matrix(0.426667,0,0,0.42716,0,-0.000000000000056843)"/>
<path style="fill-rule:nonzero;fill:rgb(100%,100%,100%);fill-opacity:1;stroke-width:0.121347;stroke-linecap:butt;stroke-linejoin:miter;stroke:rgb(0%,0%,0%);stroke-opacity:1;stroke-miterlimit:4;" d="M 727.404785 301.500406 C 725.875854 301.436394 720.831299 301.207776 716.19873 300.997449 C 699.911499 300.256729 694.573975 299.991533 689.666748 299.671469 C 687.524414 299.525154 682.571411 299.159366 681.390381 299.04963 L 680.859375 299.003906 L 681.52771 298.976472 C 682.717896 298.921604 688.55896 298.766144 706.155396 298.30891 C 715.686035 298.052859 724.200439 297.833386 725.079346 297.805952 L 726.672363 297.760229 L 728.137207 299.259958 C 728.952026 300.08298 729.803467 300.951725 730.032349 301.198632 C 730.444336 301.637577 730.453491 301.637577 730.325317 301.637577 C 730.252075 301.637577 728.942871 301.573564 727.404785 301.500406 Z M 727.404785 301.500406 " transform="matrix(0.426667,0,0,0.42716,0,-0.000000000000056843)"/>
<path style="fill-rule:nonzero;fill:rgb(100%,100%,100%);fill-opacity:1;stroke-width:0.121347;stroke-linecap:butt;stroke-linejoin:miter;stroke:rgb(0%,0%,0%);stroke-opacity:1;stroke-miterlimit:4;" d="M 719.082642 301.052317 C 696.917725 300.037256 693.164062 299.845218 687.075806 299.406273 C 684.063721 299.1868 682.232666 299.040485 682.461548 299.03134 C 682.553101 299.03134 683.761597 298.994762 685.153198 298.949038 C 686.5448 298.903315 692.834473 298.73871 699.133301 298.574106 C 705.432129 298.400357 714.202881 298.17174 718.606567 298.052859 L 726.626587 297.842531 L 727.835083 299.067919 C 729.89502 301.162053 730.270386 301.564419 730.169678 301.564419 C 730.123901 301.555275 725.134277 301.326657 719.082642 301.052317 Z M 719.082642 301.052317 " transform="matrix(0.426667,0,0,0.42716,0,-0.000000000000056843)"/>
<path style="fill-rule:nonzero;fill:rgb(100%,100%,100%);fill-opacity:1;stroke-width:0.121347;stroke-linecap:butt;stroke-linejoin:miter;stroke:rgb(0%,0%,0%);stroke-opacity:1;stroke-miterlimit:4;" d="M 725.646973 301.280934 C 723.266602 301.171198 717.965698 300.924291 713.873291 300.732253 C 696.606445 299.936665 691.369629 299.653179 685.217285 299.177655 L 683.853149 299.077064 L 684.576416 299.04963 C 685.464478 299.013051 693.878174 298.784434 710.778809 298.345489 C 717.892456 298.15345 724.301147 297.988846 725.033569 297.961412 C 725.756836 297.943122 726.40686 297.924833 726.480103 297.924833 C 726.599121 297.924833 726.71814 298.043714 728.237915 299.607456 C 729.812622 301.226066 730.06897 301.491262 729.995728 301.482117 C 729.977417 301.482117 728.018188 301.39067 725.646973 301.280934 Z M 725.646973 301.280934 " transform="matrix(0.426667,0,0,0.42716,0,-0.000000000000056843)"/>
<path style="fill-rule:nonzero;fill:rgb(100%,100%,100%);fill-opacity:1;stroke-width:0.121347;stroke-linecap:butt;stroke-linejoin:miter;stroke:rgb(0%,0%,0%);stroke-opacity:1;stroke-miterlimit:4;" d="M 728.833008 301.354091 C 728.723145 301.344947 725.326538 301.180342 721.279907 300.997449 C 702.822876 300.137848 697.25647 299.863507 692.330933 299.570877 C 689.694214 299.415417 685.327148 299.113643 685.528564 299.104498 C 685.629272 299.104498 710.275269 298.436936 720.126343 298.17174 C 725.55542 298.025424 726.489258 298.01628 726.553345 298.052859 C 726.654053 298.116871 729.602051 301.116329 729.721069 301.271789 L 729.803467 301.372381 L 729.40979 301.372381 C 729.199219 301.363236 728.933716 301.354091 728.833008 301.344947 Z M 728.833008 301.354091 " transform="matrix(0.426667,0,0,0.42716,0,-0.000000000000056843)"/>
<path style="fill-rule:nonzero;fill:rgb(100%,100%,100%);fill-opacity:1;stroke-width:0.121347;stroke-linecap:butt;stroke-linejoin:miter;stroke:rgb(0%,0%,0%);stroke-opacity:1;stroke-miterlimit:4;" d="M 728.833008 301.354091 C 728.723145 301.344947 725.326538 301.180342 721.279907 300.997449 C 702.822876 300.137848 697.25647 299.863507 692.330933 299.570877 C 689.694214 299.415417 685.327148 299.113643 685.528564 299.104498 C 685.629272 299.104498 710.275269 298.436936 720.126343 298.17174 C 725.55542 298.025424 726.489258 298.01628 726.553345 298.052859 C 726.654053 298.116871 729.602051 301.116329 729.721069 301.271789 L 729.803467 301.372381 L 729.40979 301.372381 C 729.199219 301.363236 728.933716 301.354091 728.833008 301.344947 Z M 728.833008 301.354091 " transform="matrix(0.426667,0,0,0.42716,0,-0.000000000000056843)"/>
<path style="fill-rule:nonzero;fill:rgb(100%,100%,100%);fill-opacity:1;stroke-width:0.121347;stroke-linecap:butt;stroke-linejoin:miter;stroke:rgb(0%,0%,0%);stroke-opacity:1;stroke-miterlimit:4;" d="M 728.833008 301.354091 C 728.723145 301.344947 725.326538 301.180342 721.279907 300.997449 C 702.822876 300.137848 697.25647 299.863507 692.330933 299.570877 C 689.694214 299.415417 685.327148 299.113643 685.528564 299.104498 C 685.629272 299.104498 710.275269 298.436936 720.126343 298.17174 C 725.55542 298.025424 726.489258 298.01628 726.553345 298.052859 C 726.654053 298.116871 729.602051 301.116329 729.721069 301.271789 L 729.803467 301.372381 L 729.40979 301.372381 C 729.199219 301.363236 728.933716 301.354091 728.833008 301.344947 Z M 728.833008 301.354091 " transform="matrix(0.426667,0,0,0.42716,0,-0.000000000000056843)"/>
<path style="fill-rule:nonzero;fill:rgb(100%,100%,100%);fill-opacity:1;stroke-width:0.121347;stroke-linecap:butt;stroke-linejoin:miter;stroke:rgb(0%,0%,0%);stroke-opacity:1;stroke-miterlimit:4;" d="M 728.924561 301.271789 C 728.787231 301.262645 727.029419 301.180342 725.015259 301.088895 C 700.396729 299.945809 695.196533 299.680613 689.767456 299.32397 C 688.494873 299.241668 687.39624 299.177655 687.332153 299.177655 C 687.258911 299.177655 687.203979 299.168511 687.213135 299.159366 C 687.240601 299.131932 725.015259 298.116871 726.022339 298.116871 L 726.480103 298.116871 L 727.844238 299.488575 C 728.594971 300.247584 729.299927 300.96087 729.418945 301.079751 L 729.620361 301.299223 L 729.400635 301.290079 C 729.272461 301.290079 729.06189 301.280934 728.924561 301.271789 Z M 728.924561 301.271789 " transform="matrix(0.426667,0,0,0.42716,0,-0.000000000000056843)"/>
<path style="fill-rule:nonzero;fill:rgb(100%,100%,100%);fill-opacity:1;stroke-width:0.121347;stroke-linecap:butt;stroke-linejoin:miter;stroke:rgb(0%,0%,0%);stroke-opacity:1;stroke-miterlimit:4;" d="M 720.144653 300.787121 C 707.684326 300.201861 701.220703 299.881796 697.44873 299.689758 C 693.869019 299.497719 688.824463 299.205089 689.035034 299.1868 C 689.501953 299.159366 715.164185 298.46437 723.156738 298.263186 L 726.434326 298.180884 L 726.672363 298.427791 C 726.809692 298.555816 727.487183 299.241668 728.173828 299.945809 C 729.272461 301.070606 729.40979 301.226066 729.318237 301.216921 C 729.25415 301.216921 725.134277 301.024883 720.144653 300.787121 Z M 720.144653 300.787121 " transform="matrix(0.426667,0,0,0.42716,0,-0.000000000000056843)"/>
<path style="fill-rule:nonzero;fill:rgb(100%,100%,100%);fill-opacity:1;stroke-width:0.121347;stroke-linecap:butt;stroke-linejoin:miter;stroke:rgb(0%,0%,0%);stroke-opacity:1;stroke-miterlimit:4;" d="M 727.670288 301.070606 C 726.89209 301.024883 721.582031 300.777976 715.878296 300.503635 C 703.839111 299.92752 698.226929 299.653179 694.473267 299.442851 C 692.990112 299.360549 691.5802 299.278247 691.333008 299.269102 C 691.085815 299.250813 690.893555 299.232523 690.90271 299.223379 C 690.921021 299.205089 701.705933 298.912459 713.827515 298.592395 C 719.787598 298.436936 725.05188 298.299765 725.527954 298.281476 L 726.40686 298.254042 L 727.651978 299.543443 C 729.208374 301.143764 729.217529 301.152908 729.153442 301.143764 C 729.116821 301.143764 728.457642 301.107185 727.670288 301.070606 Z M 727.670288 301.070606 " transform="matrix(0.426667,0,0,0.42716,0,-0.000000000000056843)"/>
<path style="fill:none;stroke-width:1;stroke-linecap:butt;stroke-linejoin:miter;stroke:rgb(0%,0%,0%);stroke-opacity:1;stroke-miterlimit:4;" d="M 609.649658 620.366578 L 606.216431 638.39076 " transform="matrix(0.426667,0,0,0.42716,0,0)"/>
<path style="fill:none;stroke-width:1;stroke-linecap:butt;stroke-linejoin:miter;stroke:rgb(0%,0%,0%);stroke-opacity:1;stroke-miterlimit:4;" d="M 621.661377 619.516122 L 622.943115 637.53116 " transform="matrix(0.426667,0,0,0.42716,0,0)"/>
</g>
</svg>
