<?xml version="1.0" encoding="UTF-8" standalone="no"?>
<svg
   xmlns:dc="http://purl.org/dc/elements/1.1/"
   xmlns:cc="http://creativecommons.org/ns#"
   xmlns:rdf="http://www.w3.org/1999/02/22-rdf-syntax-ns#"
   xmlns:svg="http://www.w3.org/2000/svg"
   xmlns="http://www.w3.org/2000/svg"
   xmlns:sodipodi="http://sodipodi.sourceforge.net/DTD/sodipodi-0.dtd"
   xmlns:inkscape="http://www.inkscape.org/namespaces/inkscape"
   version="1.0"
   width="500"
   height="75.358925"
   viewBox="0 0 400 60.28714"
   preserveAspectRatio="xMidYMid meet"
   id="svg3307"
   inkscape:version="0.48.4 r9939"
   sodipodi:docname="9636b9c33fbf63d804fe464dde60f90c9c427ce7.svg">
  <defs
     id="defs3363" />
  <sodipodi:namedview
     pagecolor="#ffffff"
     bordercolor="#666666"
     borderopacity="1"
     objecttolerance="10"
     gridtolerance="10"
     guidetolerance="10"
     inkscape:pageopacity="0"
     inkscape:pageshadow="2"
     inkscape:window-width="1600"
     inkscape:window-height="824"
     id="namedview3361"
     showgrid="false"
     inkscape:zoom="0.57699913"
     inkscape:cx="543.73085"
     inkscape:cy="8.0415446"
     inkscape:window-x="0"
     inkscape:window-y="24"
     inkscape:window-maximized="1"
     inkscape:current-layer="g3311"
     fit-margin-top="0"
     fit-margin-left="0"
     fit-margin-right="0"
     fit-margin-bottom="0" />
  <metadata
     id="metadata3309">
Created by potrace 1.10, written by Peter Selinger 2001-2011
<rdf:RDF>
  <cc:Work
     rdf:about="">
    <dc:format>image/svg+xml</dc:format>
    <dc:type
       rdf:resource="http://purl.org/dc/dcmitype/StillImage" />
  </cc:Work>
</rdf:RDF>
</metadata>
  <g
     transform="matrix(0.1,0,0,-0.1,0,71.561165)"
     id="g3311"
     style="fill:#000000;stroke:none">
    <path
       d="m 1028.4444,707.0779 c -38.66662,-24.88889 -25.3333,-80 18.6667,-80 21.3333,0 34.2222,9.33333 32,23.55555 -1.7778,12.88889 -8.8889,13.77778 -21.3333,3.11111 -13.3334,-11.55555 -16.8889,-11.11111 -22.6667,3.11112 -3.1111,8.44444 -3.1111,15.55555 0,22.22222 4.8889,10.66666 15.5556,13.77778 20.4445,5.77778 1.3333,-2.22223 7.5555,-4.44445 13.7777,-4.44445 16,0 13.7778,15.11111 -4.4444,26.22222 -18.2222,11.55556 -19.1111,11.55556 -36.4445,0.44445 z"
       id="path3313"
       inkscape:connector-curvature="0" />
    <path
       d="m 1353.7778,710.18901 c -6.2222,-4.44445 -7.1111,-11.55556 -6.2222,-43.11111 l 1.3333,-37.77778 19.5555,-1.33333 c 31.1112,-2.22223 38.2223,1.33333 46.6667,22.66666 6.6667,17.33334 6.6667,20.88889 0.8889,35.11111 -10.2222,24 -44.4444,37.77778 -62.2222,24.44445 z m 39.1111,-30.22222 c 6.2222,-18.22223 0,-36 -12,-34.22223 -10.6667,1.33334 -15.1111,17.77778 -9.7778,37.77778 3.5556,14.22222 16,12 21.7778,-3.55555 z"
       id="path3315"
       inkscape:connector-curvature="0" />
    <path
       d="m 1702.2222,711.96679 -15.5555,-2.66667 0,-40 0,-40 31.1111,0 c 25.7778,0 31.1111,1.33333 32.4444,7.55556 1.3334,6.22222 -2.6666,7.55555 -19.5555,8.88888 -26.2223,1.77778 -31.5556,11.11112 -7.5556,13.33334 14.6667,1.33333 16.8889,2.66666 16.8889,12.44444 0,8.88889 -2.2222,11.11111 -10.6667,11.11111 -16.8889,0 -16.4444,10.22223 0.4445,12 11.1111,0.88889 14.6666,3.55556 14.6666,10.22223 0,9.77777 -14.2222,12.44444 -42.2222,7.11111 z"
       id="path3317"
       inkscape:connector-curvature="0" />
    <path
       d="m 2059.1111,712.85568 c -10.6667,-2.22223 -10.6667,-1.33334 -12,-71.11112 -0.4444,-11.11111 1.3333,-12.44444 12.8889,-12.44444 12,0 13.3333,1.33333 13.3333,13.33333 0,12 1.7778,13.33334 14.6667,14.66667 12.8889,1.33333 14.6667,2.66667 13.3333,13.33333 -0.8889,9.33334 -3.5555,11.55556 -11.1111,11.11111 -4.8889,-0.44444 -10.6666,1.77778 -12,5.33334 -1.7778,5.33333 1.3334,6.66666 13.3334,6.66666 16.4444,0 25.7777,11.11112 14.6666,18.22223 -6.2222,4 -29.3333,4.44444 -47.1111,0.88889 z"
       id="path3319"
       inkscape:connector-curvature="0" />
    <path
       d="m 2397.3333,708.85568 c -8.4444,-4 -16.8889,-13.77778 -21.7777,-24.44445 C 2368,667.52234 2368,666.63345 2376,651.0779 c 11.1111,-20.44445 17.3333,-23.55556 48,-23.55556 22.2222,0.44445 25.3333,1.33334 27.5556,11.11111 1.3333,5.77778 0.8888,16 -1.7778,22.66667 -3.5556,10.22222 -6.2222,12.44444 -18.2222,11.55556 -18.6667,-0.88889 -21.3334,-4 -11.5556,-14.66667 7.5556,-8.44445 7.5556,-8.88889 0,-11.55556 -11.1111,-4.44444 -21.7778,3.55556 -23.5556,17.77778 -2.2222,19.55556 5.7778,25.33333 30.6667,22.22222 24.4445,-3.11111 29.3333,3.55556 11.5556,16.44445 -16,11.55555 -26.6667,12.88889 -41.3334,5.77778 z"
       id="path3321"
       inkscape:connector-curvature="0" />
    <path
       d="m 3060,711.52234 c -3.5556,-5.33333 -5.7778,-70.22222 -3.1111,-78.66666 0.8889,-3.11112 6.6667,-5.77778 12.4444,-5.77778 11.1111,0 11.1111,0 9.7778,43.11111 -1.3333,36.44444 -2.6667,43.55555 -8.8889,44.88889 -4,0.88889 -8.4444,-0.88889 -10.2222,-3.55556 z"
       id="path3323"
       inkscape:connector-curvature="0" />
    <path
       d="m 3408.8889,709.30012 c -4,-4.44444 -4.8889,-15.55556 -3.1111,-33.33333 2.2222,-27.11111 -1.7778,-33.77778 -12.4445,-19.55556 -3.5555,4.88889 -8.4444,6.22222 -14.6666,4.44445 -11.5556,-4 -12,-8.44445 -2.6667,-22.66667 5.7778,-8.88889 11.1111,-11.11111 24.4444,-11.11111 22.2223,0 28.8889,10.22222 32.4445,49.77778 2.6667,26.66666 1.7778,30.22222 -5.7778,34.66666 -11.1111,5.77778 -11.5555,5.77778 -18.2222,-2.22222 z"
       id="path3325"
       inkscape:connector-curvature="0" />
    <path
       d="m 3765.7778,712.41123 c -9.7778,-1.33333 -10.2222,-3.55555 -10.2222,-41.33333 0,-43.55556 -2.6667,-40 32.8888,-45.33334 16.8889,-2.66666 33.7778,3.55556 33.7778,12.44445 0,6.66667 -4,8 -26.6666,8.44444 -10.6667,0.44445 -11.1112,1.33334 -9.7778,29.77778 0.8889,32 -2.6667,39.11111 -20,36 z"
       id="path3327"
       inkscape:connector-curvature="0" />
    <path
       d="m 352.44444,698.18901 c -1.33333,-7.55556 -4.44444,-14.66667 -6.22222,-16 -2.22222,-1.33333 -4,-5.77778 -4,-9.77778 0,-4 -3.11111,-13.33333 -6.66666,-20.44444 -3.55556,-6.66667 -6.66667,-15.55556 -6.66667,-18.66667 0,-9.33333 19.11111,-7.55556 28,2.66667 4,4.88889 9.33333,8.88889 12,8.88889 2.66667,0 8,-4 12,-8.88889 4.44444,-4.88889 11.55555,-8.88889 16,-8.88889 8.88889,0 15.55555,12.88889 8.44444,17.33333 -2.66666,1.33333 -6.22222,8.88889 -8,16 -1.77777,7.55556 -4.44444,15.55556 -6.22222,17.77778 -1.77778,2.66667 -4.88889,11.11111 -6.66667,19.11111 -2.66666,12 -4.88888,14.22222 -16,14.22222 -11.11111,0 -13.33333,-2.22222 -16,-13.33333 z"
       id="path3329"
       inkscape:connector-curvature="0" />
    <path
       d="m 673.77778,701.74456 c -1.33334,-5.77777 -1.77778,-24 -1.33334,-41.33333 l 0.88889,-31.11111 27.11111,-1.33333 c 25.33334,-1.33334 28.44445,-0.44445 36.88889,10.66666 8.44445,10.66667 8.44445,12.44445 2.66667,24.44445 -5.33333,10.22222 -5.77778,14.66666 -1.33333,21.33333 8.44444,13.77778 -10.22223,26.66667 -39.55556,27.11111 -20.88889,0 -23.55555,-1.33333 -25.33333,-9.77778 z m 37.33333,-15.11111 c 0,-4 -2.22222,-6.22222 -5.33333,-5.33333 -8,2.66667 -9.33334,12.44444 -1.77778,12.44444 4,0 7.11111,-3.11111 7.11111,-7.11111 z m 4,-28 c 7.55556,-4.88889 2.22222,-13.77777 -8.44444,-13.77777 -10.66667,0 -16,8.88888 -8.44445,13.77777 3.55556,2.22223 7.11111,4 8.44445,4 1.33333,0 4.88889,-1.77777 8.44444,-4 z"
       id="path3331"
       inkscape:connector-curvature="0" />
    <path
       d="m 2719.5556,708.41123 c 0,-2.22222 -0.8889,-20 -1.3334,-40 -0.4444,-27.55555 0.8889,-37.33333 5.3334,-39.11111 13.3333,-4.88889 18.6666,-2.22222 18.6666,10.66667 0,7.11111 2.6667,14.66666 5.7778,17.33333 8.4444,7.11111 18.6667,-1.33333 18.6667,-15.55556 0,-10.22222 1.7777,-12.44444 11.1111,-12.44444 11.1111,0 11.1111,0.44444 11.1111,40 0,38.22222 -0.4445,40 -9.7778,41.33333 -7.5555,1.33334 -10.2222,-0.88889 -10.2222,-7.11111 0,-14.66666 -4.8889,-23.11111 -13.3333,-23.11111 -8.4445,0 -13.3334,8.44445 -13.3334,22.66667 0,6.22222 -3.1111,8.44444 -11.1111,8.44444 -6.2222,0 -11.1111,-1.33333 -11.5555,-3.11111 z"
       id="path3333"
       inkscape:connector-curvature="0" />
    <path
       d="m 326.66667,485.30012 c -1.33334,-2.66667 -2.22223,-56.88889 -1.77778,-120.88889 l 0.44444,-116 -162.66666,0.88889 L 0,249.74456 0,238.18901 6.9324196,229.3887 C 4.910372,228.2014 3693.5363,232.42475 3694.6667,227.96679 L 4000,226.18901 l 0,11.55555 0,12 -107.1111,-0.88888 -107.1111,-0.88889 -0.8889,119.55555 c -0.4445,116.44445 -0.8889,119.55556 -9.3333,119.55556 -8.4445,0 -8.8889,-3.11111 -9.3334,-118.66667 l -0.4444,-119.11111 -157.3334,-0.88889 -157.3333,-1.33333 0,120 c 0,116.88889 0,120 -8.8889,120 -8.4444,0 -8.8889,-3.11111 -9.3333,-120 l -0.8889,-120 -165.3333,0.44444 -165.3334,0.44445 0.4445,106.22222 c 0.4444,58.22222 1.7778,110.22222 3.1111,115.11111 3.1111,13.77778 -4.4445,21.77778 -17.7778,18.22222 l -11.5555,-2.66666 0,-85.77778 c 0.4444,-46.66667 2.2222,-99.11111 4.4444,-116.44445 2.2222,-20 2.2222,-32 -0.4444,-33.77777 -2.6667,-1.33334 -75.5556,-2.22223 -162.6667,-1.33334 l -158.2222,0.88889 -0.4445,119.55556 c -0.4444,116 -0.8889,119.11111 -9.3333,119.11111 -8.4445,0 -8.8889,-3.11111 -9.3333,-120 l 0,-120 -164,0.44444 -164,0.44445 0,119.55555 c -0.4445,116.44445 -0.8889,119.55556 -9.3334,119.55556 -8.4444,0 -8.8889,-3.11111 -9.3333,-120 l 0,-120 -163.5556,0 -163.5555,0.44444 -0.8889,119.55556 c -0.4445,116.88889 -0.8889,120 -9.3333,120 -8.8889,0 -8.8889,-3.11111 -8.8889,-120 l 0,-120 -164,1.33333 -163.5556,1.33333 -0.8889,118.66667 c -0.4444,115.55556 -0.8889,118.66667 -9.3333,118.66667 -8.4445,0 -8.8889,-3.11111 -9.3333,-118.66667 l -0.8889,-119.11111 -156.8889,-0.88889 -157.3334,-1.33333 -0.4444,120 c 0,117.33333 -0.4444,120 -8.8889,121.33333 -5.3333,0.88889 -11.1111,-1.33333 -13.3333,-4.44444 -2.6667,-3.55556 -3.1111,-51.55556 -1.3334,-119.11111 1.3334,-62.22223 1.7778,-114.66667 1.3334,-116 1.9426,2.42716 -152.2613,-2.80127 -326.2222,0.44444 -1.3334,0 -2.2223,53.33333 -2.2223,118.66667 l 0,119.11111 -11.1111,0 -11.1111,0 -0.4444,-120 -0.8889,-120 -159.11113,0 c -146.20231,-5.48157 -159.11111,-21.93447 -159.11111,120 -0.44445,116.88889 -0.88889,120 -9.33334,120 -8.44444,0 -8.88889,-3.11111 -9.33333,-120 C 688.83111,218.18838 642.6588,247.32434 509.33333,248.41123 l -164,1.33333 -0.44444,118.66667 c -0.44445,106.66667 -1.33333,118.66667 -8,120 -4,0.88889 -8.44445,-0.88889 -10.22222,-3.11111 z"
       id="path3335"
       inkscape:connector-curvature="0"
       sodipodi:nodetypes="ccccccccccccccsccccssccccccccccccccscccccscccccssccccsccccccccccscccccccscccccc" />
    <path
       d="m 147.11111,135.0779 c -6.66667,-4.88889 -6.66667,-5.77778 0,-12.44445 6.22222,-6.22222 24.44445,-7.11111 152.88889,-7.55555 145.33333,0 146.22222,0 149.77778,9.33333 2.22222,6.66667 1.33333,10.22222 -2.66667,12 -3.11111,1.33333 -70.66667,2.66667 -149.33333,3.11111 -105.33334,0.44445 -145.33334,-0.44444 -150.66667,-4.44444 z"
       id="path3355"
       inkscape:connector-curvature="0" />
    <path
       d="m 1523.1111,139.0779 c -8,-1.77778 -10.2222,-16.44445 -3.1111,-20.88889 5.7778,-3.55556 291.5556,-3.55556 297.7778,0 6.2222,4 5.7778,20 -0.8889,20 -65.3333,1.33333 -288.4445,1.77778 -293.7778,0.88889 z"
       id="path3357"
       inkscape:connector-curvature="0" />
    <path
       d="m 3594.2222,137.30012 c -3.1111,-1.77778 -3.5555,-5.77778 -0.4444,-12.44444 4,-9.77778 5.3333,-9.77778 149.3333,-10.22223 l 145.3333,-0.88889 4.4445,10.22223 c 3.5555,7.55555 3.5555,10.66666 -0.8889,12.44444 -9.3333,3.55556 -292,4.44445 -297.7778,0.88889 z"
       id="path3359"
       inkscape:connector-curvature="0" />
  </g>
  <text
     xml:space="preserve"
     style="font-size:11.24317551px;font-style:normal;font-variant:normal;font-weight:bold;font-stretch:normal;text-align:center;line-height:125%;letter-spacing:0px;word-spacing:0px;text-anchor:middle;fill:#000000;fill-opacity:1;stroke:none;font-family:Arial;-inkscape-font-specification:Arial Bold"
     x="66.779633"
     y="59.715446"
     id="text3445"
     sodipodi:linespacing="125%"><tspan
       sodipodi:role="line"
       id="tspan3447"
       x="66.779633"
       y="59.715446">707</tspan></text>
  <text
     xml:space="preserve"
     style="font-size:11.24317551px;font-style:normal;font-variant:normal;font-weight:bold;font-stretch:normal;text-align:center;line-height:125%;letter-spacing:0px;word-spacing:0px;text-anchor:middle;fill:#000000;fill-opacity:1;stroke:none;font-family:Arial;-inkscape-font-specification:Arial Bold"
     x="101.36826"
     y="60.074471"
     id="text3449"
     sodipodi:linespacing="125%"><tspan
       sodipodi:role="line"
       id="tspan3451"
       x="101.36826"
       y="60.074471">711</tspan></text>
  <text
     xml:space="preserve"
     style="font-size:11.24317551px;font-style:normal;font-variant:normal;font-weight:bold;font-stretch:normal;text-align:center;line-height:125%;letter-spacing:0px;word-spacing:0px;text-anchor:middle;fill:#000000;fill-opacity:1;stroke:none;font-family:Arial;-inkscape-font-specification:Arial Bold"
     x="136.55817"
     y="60.149895"
     id="text3453"
     sodipodi:linespacing="125%"><tspan
       sodipodi:role="line"
       id="tspan3455"
       x="136.55817"
       y="60.149895">715</tspan></text>
  <text
     xml:space="preserve"
     style="font-size:11.08857536px;font-style:normal;font-variant:normal;font-weight:bold;font-stretch:normal;text-align:center;line-height:125%;letter-spacing:0px;word-spacing:0px;text-anchor:middle;fill:#000000;fill-opacity:1;stroke:none;font-family:Arial;-inkscape-font-specification:Arial Bold"
     x="203.36124"
     y="59.844643"
     id="text3457"
     sodipodi:linespacing="125%"><tspan
       sodipodi:role="line"
       id="tspan3459"
       x="203.36124"
       y="59.844643">723</tspan></text>
  <text
     xml:space="preserve"
     style="font-size:11.08857536px;font-style:normal;font-variant:normal;font-weight:bold;font-stretch:normal;text-align:center;line-height:125%;letter-spacing:0px;word-spacing:0px;text-anchor:middle;fill:#000000;fill-opacity:1;stroke:none;font-family:Arial;-inkscape-font-specification:Arial Bold"
     x="240.82892"
     y="59.760765"
     id="text3461"
     sodipodi:linespacing="125%"><tspan
       sodipodi:role="line"
       id="tspan3463"
       x="240.82892"
       y="59.760765">727</tspan></text>
  <text
     xml:space="preserve"
     style="font-size:11.08857536px;font-style:normal;font-variant:normal;font-weight:bold;font-stretch:normal;text-align:center;line-height:125%;letter-spacing:0px;word-spacing:0px;text-anchor:middle;fill:#000000;fill-opacity:1;stroke:none;font-family:Arial;-inkscape-font-specification:Arial Bold"
     x="274.0567"
     y="59.528603"
     id="text3465"
     sodipodi:linespacing="125%"><tspan
       sodipodi:role="line"
       id="tspan3467"
       x="274.0567"
       y="59.528603">731</tspan></text>
  <text
     xml:space="preserve"
     style="font-size:11.08857536px;font-style:normal;font-variant:normal;font-weight:bold;font-stretch:normal;text-align:center;line-height:125%;letter-spacing:0px;word-spacing:0px;text-anchor:middle;fill:#000000;fill-opacity:1;stroke:none;font-family:Arial;-inkscape-font-specification:Arial Bold"
     x="308.8717"
     y="59.408821"
     id="text3469"
     sodipodi:linespacing="125%"><tspan
       sodipodi:role="line"
       id="tspan3471"
       x="308.8717"
       y="59.408821">735</tspan></text>
  <text
     xml:space="preserve"
     style="font-size:11.08857536px;font-style:normal;font-variant:normal;font-weight:bold;font-stretch:normal;text-align:center;line-height:125%;letter-spacing:0px;word-spacing:0px;text-anchor:middle;fill:#000000;fill-opacity:1;stroke:none;font-family:Arial;-inkscape-font-specification:Arial Bold"
     x="344.35471"
     y="59.231697"
     id="text3473"
     sodipodi:linespacing="125%"><tspan
       sodipodi:role="line"
       id="tspan3475"
       x="344.35471"
       y="59.231697">739</tspan></text>
</svg>
