<?xml version="1.0" encoding="UTF-8" standalone="no"?>
<svg
   xmlns:dc="http://purl.org/dc/elements/1.1/"
   xmlns:cc="http://creativecommons.org/ns#"
   xmlns:rdf="http://www.w3.org/1999/02/22-rdf-syntax-ns#"
   xmlns:svg="http://www.w3.org/2000/svg"
   xmlns="http://www.w3.org/2000/svg"
   xmlns:sodipodi="http://sodipodi.sourceforge.net/DTD/sodipodi-0.dtd"
   xmlns:inkscape="http://www.inkscape.org/namespaces/inkscape"
   version="1.0"
   width="500.211"
   height="281.49435"
   viewBox="0 0 400.1688 225.19548"
   preserveAspectRatio="xMidYMid meet"
   id="svg3265"
   inkscape:version="0.48.4 r9939"
   sodipodi:docname="9bc3ea2bfca480232c39e8d510fa089c467c5244.svg">
  <defs
     id="defs3289" />
  <sodipodi:namedview
     pagecolor="#ffffff"
     bordercolor="#666666"
     borderopacity="1"
     objecttolerance="10"
     gridtolerance="10"
     guidetolerance="10"
     inkscape:pageopacity="0"
     inkscape:pageshadow="2"
     inkscape:window-width="1600"
     inkscape:window-height="824"
     id="namedview3287"
     showgrid="false"
     inkscape:zoom="0.41677705"
     inkscape:cx="294.57942"
     inkscape:cy="-43.122043"
     inkscape:window-x="0"
     inkscape:window-y="24"
     inkscape:window-maximized="1"
     inkscape:current-layer="g3269"
     fit-margin-top="0"
     fit-margin-left="0"
     fit-margin-right="0"
     fit-margin-bottom="0" />
  <metadata
     id="metadata3267">
Created by potrace 1.10, written by Peter Selinger 2001-2011
<rdf:RDF>
  <cc:Work
     rdf:about="">
    <dc:format>image/svg+xml</dc:format>
    <dc:type
       rdf:resource="http://purl.org/dc/dcmitype/StillImage" />
  </cc:Work>
</rdf:RDF>
</metadata>
  <g
     transform="matrix(0.1,0,0,-0.1,-14.102361,234.76735)"
     id="g3269"
     style="fill:#000000;stroke:none">
    <path
       d="m 255.15261,2344.7263 c -1.59267,-3.1854 -1.59267,-9.0252 0,-13.8032 1.59267,-4.778 0.53089,-8.4942 -2.12357,-8.4942 -6.37069,0 -43.53304,-37.6933 -43.53304,-44.064 0,-2.6544 -4.77802,-10.6178 -10.61782,-18.0503 -13.27227,-16.9885 -13.27227,-40.3477 0,-69.5467 8.49425,-19.112 12.21049,-22.2974 22.8283,-19.6429 8.49426,2.1235 15.39584,0 22.29742,-7.9634 10.08693,-11.1487 10.08693,-12.2105 1.06178,-18.5812 -10.61782,-7.4324 -12.21049,-36.1005 -2.12356,-44.0639 8.49425,-6.9016 51.49641,-22.2974 63.7069,-22.2974 11.6796,0 12.21049,22.2974 1.06178,31.8534 -11.6796,9.5561 -10.08692,30.2608 2.12356,33.4462 6.90159,1.5926 16.98851,-3.1854 27.60633,-12.7414 9.55603,-8.4943 27.07543,-18.0503 39.28592,-21.2357 11.6796,-3.1853 25.48276,-7.9633 30.26078,-10.6178 12.21049,-6.3707 45.12572,-6.3707 49.37285,0 4.24712,6.9016 46.71839,13.2723 60.52155,8.4943 5.8398,-1.5927 19.11207,-17.5194 29.199,-35.5697 14.86494,-26.5446 18.58118,-30.2608 22.82831,-22.8283 8.49425,14.8649 23.89008,6.9016 37.16236,-19.643 11.67959,-23.3592 22.8283,-32.9152 22.8283,-20.1738 0,3.1853 6.37069,7.9633 14.33406,11.1487 12.21048,4.2471 15.92672,3.1853 27.60632,-8.4943 12.21049,-12.2105 13.80316,-17.5194 13.80316,-52.5582 0,-26.0136 2.65446,-41.9403 7.43247,-47.7801 10.61782,-12.7414 0,-53.62 -19.11207,-73.263 -20.17385,-21.2356 -42.47127,-18.5812 -52.55819,5.8398 -7.96336,18.0503 -8.49425,18.5812 -15.92673,9.0252 -4.24712,-5.8398 -7.43247,-13.8032 -7.43247,-17.5194 0,-10.087 -2.65445,-9.0252 -33.97701,11.1487 -15.39584,9.556 -32.91523,19.6429 -39.28592,21.2356 -10.08693,3.1853 -11.6796,2.1236 -11.6796,-11.6796 0,-15.9267 10.08692,-23.8901 39.81681,-30.2608 9.02514,-2.1235 19.64296,-6.3707 23.89009,-10.0869 4.24712,-3.7162 18.05029,-11.1487 30.79167,-16.4576 19.11207,-7.9634 26.01365,-9.0252 38.75503,-4.2471 12.74138,4.778 16.45761,4.778 18.58118,-1.0618 5.30891,-13.2723 -3.71624,-19.643 -22.29742,-15.9267 -10.61781,1.5926 -18.05029,1.0617 -18.05029,-2.1236 0,-12.7414 18.58118,-42.4713 29.199,-47.2493 29.199,-13.2723 103.52371,12.2105 103.52371,35.5697 0,16.4576 -18.58117,28.6681 -38.22414,25.4827 -9.55603,-1.5926 -22.29741,-3.7162 -28.13721,-4.778 -7.43247,-1.0618 -11.14871,1.5927 -12.21049,9.0252 -1.59267,12.7414 32.91523,50.4346 46.71839,50.4346 7.96337,0 8.49426,3.1854 4.77802,24.9519 -3.18534,15.9267 -9.55603,29.199 -17.5194,36.1006 -7.96336,6.9015 -13.80316,18.5811 -15.92672,33.4461 -3.18535,22.8283 4.24713,64.7687 11.6796,64.7687 6.37069,0 30.26078,-61.0525 37.69325,-95.5604 6.90158,-30.7917 18.05029,-65.8305 23.35919,-72.732 3.18535,-4.7781 3.18535,-6.9016 -0.53089,-6.9016 -3.18534,0 -7.43247,2.6544 -9.02514,5.3089 -1.59267,3.1853 -6.90158,5.3089 -11.14871,5.3089 -5.8398,0 -3.71623,-6.3707 7.96336,-23.3592 13.80317,-20.1739 19.11207,-23.3592 38.75504,-25.4828 12.74138,-1.5926 24.95187,-1.0617 27.07543,1.0618 2.12356,2.1236 3.71623,18.0503 2.65445,35.0388 -1.59267,28.6681 -2.65445,31.3226 -13.27227,30.2608 -8.49425,-1.0618 -13.80316,3.7162 -21.76652,21.2356 -13.27227,28.6681 -29.199,80.1645 -41.94038,136.439 -3.71624,16.4576 -21.76652,31.3225 -37.69325,31.8534 -10.08693,0 -11.14871,-1.5926 -6.37069,-10.0869 7.96336,-15.3958 6.37069,-21.7665 -5.30891,-21.7665 -7.96336,0 -10.61781,3.7162 -10.61781,15.3958 0,13.8032 -2.65446,15.9267 -29.199,24.421 -15.92673,4.778 -29.199,11.1487 -29.199,13.8032 0,2.6544 -4.77802,4.778 -10.61781,4.778 -5.8398,0 -18.05029,8.4942 -27.07544,18.5811 -9.55603,10.087 -19.11207,18.5812 -21.76652,18.5812 -2.65446,0 -11.6796,5.3089 -20.17385,11.6796 -8.49426,5.8398 -23.89009,11.6796 -33.97702,11.6796 -10.08692,0.5309 -20.17385,2.6545 -22.29741,4.778 -2.12357,2.1236 -9.02515,3.7163 -14.86495,3.7163 -6.37069,0 -21.76652,10.6178 -35.03879,23.8901 -13.27227,12.7413 -27.60633,23.3592 -31.85345,23.8901 -4.77802,0 -10.61782,2.1235 -13.80317,5.3089 -7.96336,7.9633 -59.45977,17.5194 -94.49857,18.0503 -49.37284,0.5308 -54.15086,24.9518 -13.27227,66.3613 21.23564,21.2356 23.3592,21.7665 53.08909,20.7048 33.44612,-1.0618 39.81681,1.5926 35.03879,14.334 -2.12356,4.778 -10.08692,7.9634 -21.76652,7.9634 -14.86495,0 -18.58118,2.1235 -20.17385,12.2105 -1.59268,10.0869 -4.77802,11.6796 -25.48276,11.6796 -21.76653,0 -23.89009,-1.0618 -23.89009,-13.2723 0,-9.5561 -3.18535,-13.2723 -10.61782,-13.2723 -7.43247,0 -10.61782,3.7162 -10.61782,11.6796 0,13.2723 -5.3089,20.7048 -10.08692,13.2723 z m 190.58981,-220.8506 c -9.55603,-14.3341 -15.92672,-16.9885 -20.70474,-9.0252 -3.18535,4.7781 23.89009,28.1373 27.60632,24.421 1.06178,-1.0618 -2.12356,-7.9633 -6.90158,-15.3958 z"
       id="path3271"
       inkscape:connector-curvature="0" />
    <path
       d="m 180.82789,2125.4684 c -6.37069,-20.1739 -7.43247,-41.9404 -2.65445,-59.4598 2.65445,-10.6178 6.90158,-28.6681 10.08692,-39.2859 2.65446,-11.1487 3.71624,-24.421 2.12356,-29.199 -2.65445,-8.4943 -4.24712,-9.0252 -21.76652,-1.5927 -11.14871,4.778 -21.23563,6.3707 -23.89009,3.7162 -7.43247,-7.4324 -2.65445,-104.5855 5.30891,-102.9928 3.18535,0.5309 9.02515,1.5927 12.74138,2.6545 3.18535,0.5309 7.43247,-3.7163 8.49425,-9.5561 1.06179,-5.8398 5.30891,-17.5194 9.02515,-26.5445 3.71623,-8.4943 8.49425,-24.9519 10.08692,-36.6315 4.77802,-36.6315 13.80317,-40.8786 69.01581,-37.1623 50.96553,3.7162 61.58334,9.0251 61.58334,31.3225 0,19.1121 -12.74138,30.7917 -37.69325,33.977 -19.11207,2.6545 -25.48276,6.9016 -37.69325,24.421 -19.11207,27.6063 -24.42098,53.0891 -12.21049,57.8671 5.8398,2.1236 13.27227,0 18.58118,-4.778 4.77802,-4.2471 13.27227,-7.9634 19.11207,-7.9634 5.30891,-0.5309 15.92673,-3.7162 23.3592,-7.9633 7.43247,-4.2472 14.86494,-7.4325 16.98851,-7.9634 1.59267,0 10.61781,13.2723 19.64296,29.199 15.39583,27.6063 27.60632,35.5697 35.03879,23.8901 1.59268,-2.6545 6.37069,-5.3089 9.55604,-5.3089 3.71624,0 2.12356,3.7162 -2.65445,7.4325 -5.30891,3.7162 -9.55604,10.6178 -9.55604,15.3958 0,14.334 -10.08693,15.3958 -16.45762,1.5927 -7.96336,-16.9885 -31.32256,-26.5446 -54.15086,-22.2975 -9.55604,1.5927 -29.72989,1.0618 -44.59483,-1.5926 -49.90374,-9.5561 -57.33621,-0.5309 -40.34771,47.7802 7.96337,22.2974 8.49426,28.6681 2.65446,48.311 -4.24713,12.7414 -10.08693,33.977 -13.27227,47.7802 -6.90159,27.0754 -12.74138,36.1006 -16.45762,24.9519 z"
       id="path3273"
       inkscape:connector-curvature="0" />
    <path
       d="m 510.5111,2064.4159 c -2.12356,-2.1235 -3.71623,-9.0251 -3.71623,-15.3958 0,-15.9267 -5.8398,-20.1739 -13.27227,-9.5561 -6.37069,8.4943 -7.96337,8.4943 -28.13722,-0.5308 -21.23563,-9.5561 -46.1875,-9.5561 -81.75719,-0.5309 -12.74138,3.1853 -14.86494,2.1235 -14.86494,-6.9016 0,-15.9267 11.14871,-38.2242 19.11207,-38.2242 3.71623,0 13.27227,2.6545 20.70474,6.3707 10.08693,4.7781 14.86495,4.7781 19.64296,0 10.08693,-10.0869 34.50791,-7.4324 46.18751,4.7781 7.43247,8.4942 14.86494,10.6178 26.54454,9.0251 15.39583,-2.1236 16.98851,-1.0618 22.29741,18.5812 4.24713,16.4576 4.24713,22.8283 -1.59267,28.6681 -4.24713,3.7162 -9.02514,5.3089 -11.14871,3.7162 z"
       id="path3275"
       inkscape:connector-curvature="0" />
    <path
       d="m 578.99602,1990.0912 c -10.61781,-10.6178 -10.61781,-22.8283 0,-27.0754 6.37069,-2.1236 7.43247,-7.4325 4.77802,-22.2975 -2.65445,-15.9267 -1.06178,-22.2974 9.55604,-33.4461 7.43247,-7.9633 14.33405,-16.9885 15.39583,-20.1738 1.06178,-4.2472 5.8398,-4.2472 16.45762,-0.5309 11.67959,4.778 14.33405,9.0251 14.33405,22.8283 0,27.6063 -5.8398,41.4095 -15.92673,41.4095 -19.64296,0 -26.54454,5.8398 -20.70474,16.4576 3.71624,6.9016 3.18535,13.2723 -0.53089,20.7047 -6.90158,12.7414 -12.21049,13.2723 -23.3592,2.1236 z"
       id="path3277"
       inkscape:connector-curvature="0" />
    <path
       d="m 636.33223,1974.6954 c -5.3089,-13.2723 2.12357,-23.8901 16.45762,-23.8901 11.14871,0 13.27227,2.6544 13.27227,15.9267 0,13.2723 -2.12356,15.9267 -13.27227,15.9267 -7.43247,0 -14.86494,-3.7162 -16.45762,-7.9633 z"
       id="path3279"
       inkscape:connector-curvature="0" />
    <path
       d="m 395.30779,1948.1508 c 0,-15.3958 7.96336,-17.5194 15.39584,-3.1853 5.83979,10.6178 2.65445,16.4576 -8.49426,16.4576 -3.71623,0 -6.90158,-5.8398 -6.90158,-13.2723 z"
       id="path3281"
       inkscape:connector-curvature="0" />
    <path
       d="m 482.37389,1955.5833 c -3.71624,-4.2471 -7.96336,-24.9519 -10.08693,-45.6566 -3.71623,-40.8786 -7.43247,-44.5949 -30.79167,-32.9153 -6.37069,3.1854 -20.17385,15.3959 -30.26077,26.5446 l -18.58118,21.2356 -20.17386,-10.6178 c -10.61781,-5.3089 -24.42097,-9.0251 -29.72988,-7.4325 -5.30891,1.5927 -11.6796,0 -13.80316,-3.7162 -5.8398,-9.556 7.96336,-21.2356 24.95186,-21.2356 10.61782,0 20.17386,-5.3089 29.72989,-15.3959 38.22414,-41.4095 52.0273,-67.954 58.92889,-113.0797 6.37069,-40.8786 7.96336,-41.9404 87.59699,-40.3477 76.97917,1.5926 76.97917,1.5926 70.07759,38.2241 -4.24713,21.7665 -36.10058,38.2242 -57.86711,30.2608 -11.1487,-4.2471 -14.86494,-3.1853 -20.70474,5.8398 l -7.43247,11.6796 -11.6796,-11.6796 c -17.5194,-17.5194 -30.79167,-14.8649 -43.00216,7.9634 -7.96336,15.3958 -7.43247,29.199 2.65446,54.6817 7.43247,19.1121 10.61781,21.2356 26.54454,21.2356 17.5194,0 18.05029,0.5309 18.05029,20.7048 0,11.1487 -3.18535,23.3592 -7.43247,27.0754 -4.24713,3.1854 -8.49426,14.865 -9.55604,24.9519 -1.06178,15.3958 -2.65445,18.0503 -7.43247,11.6796 z"
       id="path3283"
       inkscape:connector-curvature="0" />
    <path
       d="m 822.14403,1948.1508 c -6.90158,-17.5194 3.18534,-19.6429 89.18966,-18.0503 l 84.41165,1.5927 0.53089,-116.796 0.53089,-116.2651 -115.73421,-0.5309 c -90.25144,0 -115.7342,1.5927 -117.85776,6.9016 -4.77802,12.2105 -16.98851,7.4325 -20.70475,-7.4325 -2.12356,-8.4942 -4.77801,-16.9885 -5.8398,-19.112 -3.71623,-6.9016 -3.18534,-262.2601 0.53089,-268.6308 2.12357,-3.1853 3.71624,-296.768 3.71624,-652.99573 -0.53089,-560.08984 0.53089,-647.68683 7.43247,-653.52663 5.8398,-4.778021 380.6487,-5.839802 1696.1962,-3.716239 929.059,1.592669 1690.3565,4.247129 1692.4801,6.370689 2.1235,2.12356 4.2471,415.68753 5.3089,919.50291 1.0618,677.9476 0,917.3794 -4.778,923.2192 -9.0252,11.1487 -3311.16624,10.6178 -3315.41337,-0.5309 z m 444.88657,-132.7227 0,-115.2033 -123.1667,0 -123.1667,0 0,116.2651 c 0.5309,63.7069 0.5309,115.7342 1.0618,115.7342 0,0 55.2126,-0.5309 122.6358,-1.0618 l 122.1049,-0.5309 0.5309,-115.2033 z m 254.8276,0 0,-115.2033 -115.2034,0 -115.2033,0 0,115.7342 c 0.5309,64.2378 0.5309,116.2651 1.0618,116.2651 0,0 51.4964,-0.5309 114.6724,-1.0618 l 114.1416,-0.5309 0.5309,-115.2033 z m 254.8276,0 0,-115.2033 -115.2033,0 -115.2034,0 0,115.7342 c 0.5309,64.2378 0.5309,116.2651 1.0618,116.2651 0,0 51.4964,-0.5309 114.6724,-1.0618 l 114.1416,-0.5309 0.5309,-115.2033 z m 254.8276,0 0,-115.2033 -115.2033,0 -115.2034,0 0,115.7342 c 0.5309,64.2378 0.5309,116.2651 1.0618,116.2651 0,0 51.4964,-0.5309 114.6725,-1.0618 l 114.1415,-0.5309 0.5309,-115.2033 z m 270.7543,0 0,-115.2033 -123.1667,0 -123.1666,0 0,116.2651 c 0.5308,63.7069 0.5308,115.7342 1.0617,115.7342 0,0 55.2127,-0.5309 122.6358,-1.0618 l 122.1049,-0.5309 0.5309,-115.2033 z m 254.8276,0 0,-115.2033 -115.2033,0 -115.2033,0 0,115.7342 c 0.5309,64.2378 0.5309,116.2651 1.0618,116.2651 0,0 51.4964,-0.5309 114.6724,-1.0618 l 114.1415,-0.5309 0.5309,-115.2033 z m 270.7543,0 0,-115.2033 -123.1666,0 -123.1667,0 0,116.2651 c 0.5309,63.7069 0.5309,115.7342 1.0618,115.7342 0,0 55.2126,-0.5309 122.6358,-1.0618 l 122.1048,-0.5309 0.5309,-115.2033 z m 254.8276,0 0,-115.2033 -115.2033,0 -115.2033,0 0,115.7342 c 0.5309,64.2378 0.5309,116.2651 1.0618,116.2651 0,0 51.4964,-0.5309 114.6724,-1.0618 l 114.1416,-0.5309 0.5308,-115.2033 z m 254.8276,0 0,-115.2033 -115.2033,0 -115.2033,0 0,115.7342 c 0.5309,64.2378 0.5309,116.2651 1.0618,116.2651 0,0 51.4964,-0.5309 114.6724,-1.0618 l 114.1416,-0.5309 0.5308,-115.2033 z m 254.8277,0 0,-115.2033 -115.2034,0 -115.2033,0 0,115.7342 c 0.5309,64.2378 0.5309,116.2651 1.0618,116.2651 0,0 51.4964,-0.5309 114.6724,-1.0618 l 114.1416,-0.5309 0.5309,-115.2033 z m 270.7543,0 0,-115.2033 -123.1667,0 -123.1667,0 0,116.2651 c 0.5309,63.7069 0.5309,115.7342 1.0618,115.7342 0,0 55.2127,-0.5309 122.6358,-1.0618 l 122.1049,-0.5309 0.5309,-115.2033 z m 252.1731,112.5489 c 1.0618,-1.0618 2.1236,-52.5582 2.1236,-114.6725 l 0.5309,-112.5488 -115.2033,-0.5309 -115.2033,0 0,115.7342 c 0.5309,64.2378 0.5309,116.2651 1.0617,116.2651 67.4232,0 225.0978,-3.1853 226.6904,-4.2471 z M 853.99748,1675.2729 c 2.12356,-2.6544 -5.30891,-10.0869 -15.92673,-16.9885 -24.95186,-15.3958 -43.00215,-32.3843 -45.12572,-41.9404 -2.65445,-12.7413 5.8398,-31.3225 16.98851,-37.1623 9.02514,-5.3089 10.08693,-3.7163 10.08693,17.5194 0,22.2974 1.59267,24.9519 29.19899,45.6566 15.92673,11.6796 32.38434,21.7665 36.63147,21.7665 9.02515,0 50.96552,-27.0754 61.05245,-39.2859 3.71623,-4.2471 5.8398,-13.2723 4.77802,-20.1739 -1.59268,-11.1487 -3.71624,-12.2104 -29.199,-10.6178 -30.79167,2.1236 -39.81681,-6.3707 -33.44612,-30.7916 2.65445,-12.2105 5.8398,-13.2723 31.32256,-13.2723 29.19899,0 41.94037,-10.0869 35.56968,-27.0754 -3.71623,-9.5561 -66.89224,-10.6179 -76.44828,-1.0618 -3.71624,3.7162 -6.37069,20.7047 -6.37069,40.3477 0,33.4461 0,33.4461 -14.33405,31.8534 -14.33405,-1.5926 -14.86495,-2.1235 -14.86495,-37.1623 0,-19.1121 -1.59267,-37.1624 -3.71623,-39.286 -2.65446,-2.1235 -10.61782,-1.0617 -18.05029,2.6545 -12.74138,5.8398 -13.80316,7.9634 -10.61782,27.6063 l 3.18535,21.2357 -17.5194,-1.5927 c -9.55604,-0.5309 -20.17385,0.5309 -23.3592,2.6544 -7.96336,4.7781 -2.65445,100.3384 5.8398,105.6473 8.49426,5.8398 71.13938,5.3089 74.32472,-0.5309 z m 144.9332,-52.0273 c 1.06178,-50.4346 0,-54.6817 -10.08693,-57.8671 -17.51939,-5.3089 -23.89008,5.8398 -13.27227,23.8901 12.74138,21.7665 11.6796,27.6063 -9.55603,47.7802 -29.199,27.6063 -24.95187,44.5948 10.61782,41.9404 l 21.23563,-1.5927 1.06178,-54.1509 z m 268.09992,-70.6085 0,-123.1666 -106.7091,0 c -71.6703,0 -112.5489,2.6544 -124.7594,6.9015 l -18.5811,6.9016 2.6544,34.5079 c 1.0618,19.1121 3.1854,46.1875 4.778,59.9907 1.0618,13.8032 0,26.5445 -3.1853,28.1372 -4.778,3.1854 -7.4325,104.5855 -2.6545,109.3635 1.0618,1.0618 57.8671,1.5927 125.2903,1.5927 l 123.1667,-1.0618 0,-123.1667 z m 254.8276,0 0,-123.1666 -115.2034,0 -115.2033,0 0.5309,122.6358 c 0,67.4231 0,123.1666 0.5309,124.2284 0,0.5309 51.4964,0.5309 114.6724,0.5309 l 114.6725,-1.0618 0,-123.1667 z m 254.8276,0 0,-123.1666 -115.2033,0 -115.2034,0 0.5309,122.6358 c 0,67.4231 0,123.1666 0.5309,124.2284 0,0.5309 51.4964,0.5309 114.6724,0.5309 l 114.6725,-1.0618 0,-123.1667 z m 254.8276,0 0,-123.1666 -115.2033,0 -115.2034,0 0.5309,122.6358 c 0,67.4231 0,123.1666 0.5309,124.2284 0,0.5309 51.4964,0.5309 114.6725,0.5309 l 114.6724,-1.0618 0,-123.1667 z m 270.7543,0 0,-123.1666 -123.1667,0 -123.1666,0 0.5308,122.6358 c 0,67.4231 0,123.1666 0.5309,124.2284 0,0.5309 55.2127,0.5309 122.6358,0 l 122.6358,-0.5309 0,-123.1667 z m 254.8276,0 0,-123.1666 -115.2033,0 -115.2033,0 0.5309,122.6358 c 0,67.4231 0,123.1666 0.5309,124.2284 0,0.5309 51.4964,0.5309 114.6724,0.5309 l 114.6724,-1.0618 0,-123.1667 z m 270.7543,0 0,-123.1666 -123.1666,0 -123.1667,0 0.5309,122.6358 c 0,67.4231 0,123.1666 0.5309,124.2284 0,0.5309 55.2126,0.5309 122.6358,0 l 122.6357,-0.5309 0,-123.1667 z m 254.8276,0 0,-123.1666 -115.2033,0 -115.2033,0 0.5309,123.6975 c 0,68.485 0,124.2285 0.5309,124.2285 0,0 51.4964,-0.5309 114.6724,-0.5309 l 114.6724,-1.0618 0,-123.1667 z m 254.8276,0 0,-123.1666 -115.2033,0 -115.2033,0 0.5309,123.6975 c 0,68.485 0,124.2285 0.5309,124.2285 0,0 51.4964,-0.5309 114.6724,-0.5309 l 114.6724,-1.0618 0,-123.1667 z m 254.8277,0 0,-123.1666 -115.2034,0 -115.2033,0 0.5309,123.6975 c 0,68.485 0,124.2285 0.5309,124.2285 0,0 51.4964,-0.5309 114.6724,-0.5309 l 114.6725,-1.0618 0,-123.1667 z m 270.7543,0 0,-123.1666 -123.1667,0 -123.1667,0 0.5309,124.2284 c 0,67.9541 0,123.6976 0.5309,123.6976 0,0 55.2127,-0.5309 122.6358,-1.0618 l 122.6358,-0.5309 0,-123.1667 z m 254.8276,0 0,-122.6357 -115.2033,-0.5309 -115.2033,0 0.5309,122.6358 c 0,67.4231 0,123.1666 0.5308,124.2284 0,0.5309 51.4965,0.5309 114.6725,0 l 114.6724,-1.0618 0,-122.6358 z M 825.32937,1502.2025 c 4.24713,-4.778 15.39584,-7.9634 29.72989,-7.9634 12.74138,0 26.01365,-3.1853 30.79167,-7.9633 4.24713,-4.2471 15.92673,-7.9634 25.48276,-8.4943 24.42098,-0.5309 74.85561,-17.5194 77.51006,-26.5445 1.06179,-4.2471 6.37069,-10.6178 11.14871,-14.3341 7.43244,-5.8398 5.30894,-6.3707 -12.74138,-2.6544 -11.6796,2.1235 -35.03879,4.2471 -51.49641,3.7162 -19.64296,0 -30.79167,2.1236 -30.79167,5.8398 0,9.5561 -35.56969,23.8901 -57.8671,23.8901 -11.14871,0 -23.3592,3.1854 -26.54454,7.4325 -7.96337,9.556 -27.60633,4.778 -23.3592,-5.3089 1.59267,-4.778 -0.53089,-7.4325 -5.8398,-7.4325 -7.43247,0 -8.49425,3.7162 -5.30891,20.1739 2.12357,10.6178 4.77802,21.2356 5.8398,23.89 3.71624,6.9016 26.54454,4.2472 33.44612,-4.2471 z m 47.78018,-66.3613 c 0,-3.1854 -17.5194,-5.309 -41.94038,-5.309 -23.35919,0 -44.06394,2.6545 -45.65661,5.309 -2.12356,3.1853 13.27227,5.3089 41.94038,5.3089 27.07543,0 45.65661,-2.1236 45.65661,-5.3089 z m 121.04311,-30.7917 c 4.77802,-3.7162 6.37074,-30.7917 5.30891,-117.8578 l -1.59267,-113.6106 -115.73421,1.0618 -115.7342,0.5309 -0.53089,113.0797 -0.53089,113.0798 100.33837,2.6544 c 55.21265,1.5927 105.11639,3.7162 110.95619,4.2471 5.83979,0.5309 13.80316,-1.0617 17.51939,-3.1853 z m 273.40874,-108.3017 0.5309,-107.7709 -108.3017,-1.5927 c -59.4598,-0.5309 -110.4253,1.0618 -113.0797,3.7163 -4.2472,4.2471 -6.3707,204.393 -1.5927,211.8254 1.0618,2.1236 51.4964,3.1854 112.018,2.6545 l 109.8944,-0.5309 0.5308,-108.3017 z m 254.8277,0.5308 0.5308,-108.3017 -116.2651,0 -116.265,0 1.0617,108.8326 c 0.5309,59.9907 0.5309,108.8327 1.0618,108.8327 0,0 51.4964,-0.5309 114.6724,-0.5309 l 114.6725,-1.0618 0.5309,-107.7709 z m 254.2967,-7.4324 0,-115.2033 -106.1782,0 c -94.4986,-0.5309 -107.24,0.5309 -115.7342,9.0251 -8.4943,7.9634 -9.556,20.7047 -8.4943,116.2651 0.5309,58.398 1.0618,106.7091 1.0618,106.7091 0,0 51.4964,-0.5309 114.6724,-0.5309 l 114.6725,-1.0618 0,-115.2033 z m 254.8276,0 0,-115.2033 -115.2033,0 -115.2034,0 0,114.6724 c 0.5309,63.176 0.5309,115.2033 0.5309,116.2651 0.5309,0.5309 52.0273,0.5309 115.2034,0.5309 l 114.6724,-1.0618 0,-115.2033 z m 270.7543,0 0,-115.2033 -123.1667,0 -123.1666,0 0,114.6724 c 0.5308,63.176 0.5308,115.2033 0.5308,116.2651 0.5309,0.5309 55.7436,0.5309 123.1667,0 l 122.6358,-0.5309 0,-115.2033 z m 254.8276,0 0,-115.2033 -115.2033,0 -115.2033,0 0,114.6724 c 0.5309,63.176 0.5309,115.2033 0.5309,116.2651 0.5309,0.5309 52.0273,0.5309 115.2033,0 l 114.6724,-1.0618 0,-114.6724 z m 270.7543,0 0,-115.2033 -123.1666,0 -123.1667,0 0,114.6724 c 0.5309,63.176 0.5309,115.2033 0.5309,116.2651 0.5309,0.5309 55.7435,0.5309 123.1667,0 l 122.6357,-1.0618 0,-114.6724 z m 254.8276,0 0,-115.2033 -115.2033,0 -115.2033,0 0,114.6724 c 0.5309,63.176 0.5309,115.2033 0.5309,116.2651 0.5309,0.5309 52.0273,0.5309 115.2033,0 l 114.6724,-1.0618 0,-114.6724 z m 254.8276,0 0,-115.2033 -115.2033,0 -115.2033,0 0,114.6724 c 0.5309,63.176 0.5309,115.2033 0.5309,116.2651 0.5309,0.5309 52.0273,0.5309 115.2033,0 l 114.6724,-1.0618 0,-114.6724 z m 254.8277,0 0,-115.2033 -115.2034,0 -115.2033,0 0,114.6724 c 0.5309,63.176 0.5309,115.2033 0.5309,116.2651 0.5309,0.5309 52.0273,0.5309 115.2033,0 l 114.6725,-1.0618 0,-114.6724 z m 270.7543,0 0,-115.2033 -123.1667,0 -123.1667,0 0,114.6724 c 0.5309,63.176 0.5309,115.2033 0.5309,116.2651 0.5309,0.5309 55.7436,0.5309 123.1667,0.5309 l 122.6358,-1.0618 0,-115.2033 z m 254.8276,0 0,-114.6724 -115.2033,-0.5309 -115.2033,0 0,114.6724 c 0.5309,63.176 0.5309,115.2033 0.5309,116.2651 0.5308,0.5309 52.0273,0.5309 115.2033,0 l 114.6724,-0.5309 0,-115.2033 z m -3121.63817,-262.791 0,-123.16667 -115.20332,0 -115.20331,0.53089 0.53089,122.10488 c 0,67.4232 0,123.1667 0.53089,124.2285 0,0.5309 51.49641,1.0618 115.20331,0.5309 l 114.67243,-0.5309 -0.53089,-123.6976 z m 780.94047,13.8032 c 0,-59.9907 -1.0618,-110.42533 -2.6545,-112.018 -1.5927,-1.59267 -50.4346,-3.18535 -108.3017,-3.18535 l -105.6473,-0.53089 -1.5927,113.61064 -1.0618,113.0798 109.3636,-1.0618 109.3635,-1.0618 0.5309,-108.8326 z m 254.8276,1.0617 c 0,-59.45973 -1.0618,-110.95614 -2.6545,-113.61059 -2.1236,-2.65446 -48.8419,-3.71624 -116.2651,-2.12356 l -113.0797,2.65445 1.0617,111.4871 c 0.5309,61.5833 1.0618,111.4871 1.0618,111.4871 0,0 51.4964,-0.5309 114.6725,-0.5309 l 114.6724,-1.0618 0.5309,-108.3018 z m 270.7543,0 c 0,-59.45973 -1.0618,-110.95614 -2.6545,-113.61059 -2.1235,-2.65446 -52.0273,-3.71624 -124.2284,-2.12356 l -121.0431,2.65445 1.0618,111.4871 c 0.5308,61.5833 1.0617,111.4871 1.0617,111.4871 0,0 55.2127,-0.5309 122.6358,-0.5309 l 122.6358,-1.0618 0.5309,-108.3018 z m 254.8276,0 c 0,-59.45973 -1.0618,-110.95614 -2.6545,-113.61059 -2.1235,-2.65446 -48.8419,-3.71624 -116.265,-2.12356 l -113.0798,2.65445 1.0618,111.4871 c 0.5309,61.5833 1.0618,111.4871 1.0618,111.4871 0,0 51.4964,-0.5309 114.6724,-0.5309 l 114.6724,-1.0618 0.5309,-108.3018 z m 270.2234,-2.6544 0.5309,-110.4253 -123.6975,0 -124.2285,0 1.0618,111.4871 c 0.5309,61.5833 1.0618,111.4871 1.0618,111.4871 0,0 55.2126,-0.5309 122.6358,-1.0618 l 122.6357,-0.5309 0,-110.9562 z m 254.8276,-12.2105 0,-123.16667 -115.7342,-0.53089 -115.7342,-0.53089 1.0618,124.75935 c 0.5309,67.954 1.0618,124.2285 1.0618,124.2285 0,0 51.4964,-0.5309 114.6724,-1.0618 l 114.6724,-1.0618 0,-122.6358 z m 254.8276,0 0,-123.16667 -115.2033,0 -115.2033,0 0.5309,122.63577 c 0,67.4232 0,123.1667 0.5309,124.2285 0,0.5309 51.4964,0.5309 114.6724,0 l 114.6724,-1.0618 0,-122.6358 z m 254.8277,0 0,-123.16667 -115.2034,0 -115.2033,0 0.5309,122.63577 c 0,67.4232 0,123.1667 0.5309,124.2285 0,0.5309 51.4964,0.5309 114.6724,0 l 114.6725,-1.0618 0,-122.6358 z m 270.7543,0 0,-123.16667 -123.1667,0 -123.1667,0 0.5309,122.63577 c 0,67.4232 0,123.1667 0.5309,124.2285 0,0.5309 55.2127,0.5309 122.6358,0.5309 l 122.6358,-1.0618 0,-123.1667 z m 254.8276,0 0,-122.63578 -115.2033,-0.53089 -115.2033,0 0.5309,122.63577 c 0,67.4232 0,123.1667 0.5308,124.2285 0,0.5309 51.4965,0.5309 114.6725,0 l 114.6724,-0.5309 0,-123.1667 z m -2610.3903,-2.6544 0,-121.04316 -107.7708,0.53089 -108.3018,0 0,116.26507 c -0.5309,64.2378 0.5309,118.9196 2.1236,121.574 2.1236,2.6545 49.3728,4.2472 108.8326,4.2472 l 105.1164,-1.0618 0,-120.5122 z m -240.4935,-1.5927 0,-118.91957 -123.1667,0 -123.1667,0 0,116.26507 c 0.5309,63.7069 0.5309,117.3269 0.5309,119.9814 0.5309,2.1235 55.7435,3.1853 123.6976,2.6544 l 122.6357,-1.5927 -0.5308,-118.3886 z m -270.75437,-258.54386 0,-115.20332 -115.20332,0 -115.20331,0.5309 0.53089,114.14153 c 0,63.17601 0,115.20331 0.53089,116.26509 0,0.53089 51.49641,0.53089 114.67242,0.53089 l 114.14154,-1.06178 0.53089,-115.20331 z m 270.75437,0 0,-115.20332 -123.1667,0 -123.1667,0 0,114.67243 c 0.5309,63.17601 0.5309,115.20331 0.5309,116.26509 0.5309,0.53089 55.7435,0.53089 123.1667,0 l 122.6358,-0.53089 0,-115.20331 z m 255.3585,0.53089 -0.5309,-115.73421 -115.2034,0 -115.2033,0 0,115.73421 c 0.5309,64.23779 0.5309,116.26509 1.0618,116.26509 0,0 52.0273,0 115.2033,-0.53089 l 114.6725,0 0,-115.7342 z m 254.8276,1.59267 -1.0618,-117.32688 -114.6724,0 -114.6725,0 -1.0617,117.32688 -1.0618,117.32688 116.796,0 116.7959,0 -1.0617,-117.32688 z m 254.8276,0 -1.0618,-117.32688 -114.6724,0 -114.6725,0 -1.0617,117.32688 -1.0618,117.32688 116.796,0 116.7959,0 -1.0617,-117.32688 z m 270.7543,0 -1.0618,-117.32688 -122.6358,0 -122.6358,0 -1.0617,117.32688 -1.0618,117.32688 124.7593,0 124.7594,0 -1.0618,-117.32688 z m 254.8276,0 -1.0618,-117.32688 -114.6724,0 -114.6724,0 -1.0618,117.32688 -1.0618,117.32688 116.796,0 116.796,0 -1.0618,-117.32688 z m 255.8894,-0.53089 -0.5309,-117.32688 -115.7342,0 -115.2033,0.53089 -1.0618,117.32688 -1.0618,117.32688 116.796,0 117.3269,0 -0.5309,-117.85777 z m 269.6925,5.30891 0.5309,-107.77084 -116.796,0 -116.2651,0 -0.5308,106.17817 c -0.5309,58.39799 0,107.23995 0.5308,108.83262 1.0618,1.59267 53.62,2.12356 116.796,1.59267 l 115.2033,-1.06178 0.5309,-107.77084 z m 254.2967,-6.90158 0,-115.20332 -115.7342,-0.53089 -115.7342,0 1.0618,116.2651 c 0.5309,63.7069 0.5309,116.26509 1.0618,116.26509 0,0 51.4964,-0.53089 114.6724,-0.53089 l 114.6724,-1.06178 0,-115.20331 z m 254.8277,0 0,-115.20332 -115.2034,0 -115.2033,0 0,114.67243 c 0.5309,63.17601 0.5309,115.20331 0.5309,116.26509 0.5309,0.53089 52.0273,0.53089 115.2033,0.53089 l 114.6725,-1.06178 0,-115.20331 z m 270.7543,0 0,-115.20332 -123.1667,0 -123.1667,0 0,114.67243 c 0.5309,63.17601 0.5309,115.20331 0.5309,116.26509 0.5309,0.53089 55.7436,0.53089 123.1667,0 l 122.1049,-0.53089 0.5309,-115.20331 z m 254.8276,0 0,-114.67242 -115.2033,-0.5309 -115.2033,0 0,114.67243 c 0.5309,63.17601 0.5309,115.20331 0.5309,116.26509 0.5308,0.53089 52.0273,0.53089 115.2033,0 l 114.6724,-1.06178 0,-114.67242 z M 996.27623,509.43663 l 0,-115.20331 -115.20332,0 -115.20331,0.53089 0.53089,114.14153 c 0,63.17601 0,115.20332 0.53089,116.2651 0,0.53089 51.49641,0.53089 114.67242,0.53089 l 114.14154,-1.06178 0.53089,-115.20332 z m 270.75437,0 0,-115.20331 -123.1667,0 -123.1667,0 0,114.67242 c 0.5309,63.17601 0.5309,115.20332 0.5309,116.2651 0.5309,0.53089 55.7435,0.53089 123.1667,0 l 122.6358,-0.53089 0,-115.20332 z m 254.8276,0 0,-115.20331 -115.2034,0 -115.2033,0 0,115.7342 c 0.5309,64.2378 0.5309,116.2651 1.0618,116.2651 0,0 51.4964,-0.53089 114.6724,-0.53089 l 114.6725,-1.06178 0,-115.20332 z m 254.8276,0 0,-115.20331 -115.2033,0 -115.2034,0 0,115.7342 c 0.5309,64.2378 0.5309,116.2651 1.0618,116.2651 0,0 51.4964,-0.53089 114.6724,-0.53089 l 114.6725,-1.06178 0,-115.20332 z m 254.8276,0 0,-115.20331 -115.2033,0 -115.2034,0 0,115.7342 c 0.5309,64.2378 0.5309,116.2651 1.0618,116.2651 0,0 51.4964,-0.53089 114.6725,-0.53089 l 114.6724,-1.06178 0,-115.20332 z m 270.7543,0 0,-115.20331 -123.1667,0 -123.1666,0 0,116.26509 c 0.5308,63.70691 0.5308,115.73421 1.0617,115.73421 0,0 55.2127,-0.53089 122.6358,-1.06178 l 122.6358,-0.53089 0,-115.20332 z m 254.8276,0 0,-115.20331 -115.2033,0 -115.2033,0 0,114.67242 c 0.5309,63.17601 0.5309,115.20332 0.5309,116.2651 0.5309,0.53089 52.0273,0.53089 115.2033,0.53089 l 114.6724,-1.06178 0,-115.20332 z m 267.569,112.54886 c 2.1236,-2.12356 3.7162,-54.15086 3.7162,-115.7342 l -0.5309,-112.01797 -123.1666,0 -123.1667,0 0,114.67242 c 0.5309,63.17601 0.5309,115.20332 0.5309,116.2651 1.0618,3.18534 239.4317,0 242.6171,-3.18535 z m 238.9009,0 c 3.1853,-2.65445 3.1853,-222.44326 0,-225.09772 -1.5927,-1.59267 -49.9038,-3.18534 -107.24,-2.65445 l -104.0546,0 0,110.4253 c 0,61.05244 0.5309,113.61064 0.5309,116.26509 0.5309,4.77802 205.9857,5.8398 210.7637,1.06178 z m 274.4705,-109.36351 c 0,-61.58334 -1.0617,-113.07975 -2.6544,-114.67242 -1.5927,-1.59268 -53.62,-3.18535 -116.2651,-3.18535 l -113.6106,-0.53089 -1.5927,110.4253 c -0.5309,61.05244 -0.5309,113.07974 1.0618,116.26509 1.0617,3.18535 42.4712,4.77802 117.3268,4.24713 l 115.2033,-0.53089 0.5309,-112.01797 z m 254.2968,-3.18535 0,-115.20331 -115.7342,-0.53089 -115.2034,0 0.5309,116.26509 c 0.5309,63.7069 0.5309,116.2651 1.0618,116.2651 0,0 51.4964,-0.53089 114.6724,-0.53089 l 114.6725,-1.06178 0,-115.20332 z m 270.7543,0 0,-115.20331 -123.1667,0 -123.1667,0 0,114.67242 c 0.5309,63.17601 0.5309,115.20332 0.5309,116.2651 0.5309,0.53089 55.7436,0.53089 123.1667,0 l 122.1049,-0.53089 0.5309,-115.20332 z m 254.8276,0 0,-114.67242 -115.2033,-0.53089 -115.2033,0 0,114.67242 c 0.5309,63.17601 0.5309,115.20332 0.5309,116.2651 0.5308,0.53089 52.0273,0.53089 115.2033,0 l 114.6724,-1.06178 0,-114.67243 z M 996.27623,246.64566 l 0,-123.16667 -113.07975,0.53089 c -61.58334,0 -113.61064,1.06178 -114.67243,2.65445 -1.59267,1.59268 -3.18534,226.69039 -1.59267,242.08623 0,1.59267 51.49641,2.12356 114.67242,2.12356 l 114.67243,-1.06178 0,-123.16668 z m 270.75437,0 -0.5309,-123.16667 -122.6358,0 -122.6358,0 0,121.574 c 0,66.36136 0,122.1049 0,123.69757 0.5309,1.59267 55.7435,2.12356 123.1667,1.59267 l 122.6358,-0.53089 0,-123.16668 z m 254.8276,0 -0.5309,-123.16667 -114.6725,0 -115.2033,0 0.5309,122.63578 c 0,67.42314 0,123.16668 0.5309,124.22846 0,0.53089 51.4964,0.53089 114.6724,0.53089 l 114.6725,-1.06178 0,-123.16668 z m 254.8276,0 -0.5309,-123.16667 -114.6724,0 -115.2034,0 0.5309,122.63578 c 0,67.42314 0,123.16668 0.5309,124.22846 0,0.53089 51.4964,0.53089 114.6724,0.53089 l 114.6725,-1.06178 0,-123.16668 z m 254.8276,0 -0.5309,-123.16667 -114.6724,0 -115.2034,0 0.5309,122.63578 c 0,67.42314 0,123.16668 0.5309,124.22846 0,0.53089 51.4964,0.53089 114.6725,0.53089 l 114.6724,-1.06178 0,-123.16668 z m 270.7543,0 -0.5309,-123.16667 -122.6358,0 -123.1666,0 0.5308,122.63578 c 0,67.42314 0,123.16668 0.5309,124.22846 0,0.53089 55.2127,0.53089 122.6358,0 l 122.6358,-0.53089 0,-123.16668 z m 254.8276,0 -0.5309,-123.16667 -114.6724,0 -114.6724,0 0,121.574 c 0,66.36136 0,122.1049 0,123.69757 0.5309,1.59267 52.0273,2.12356 115.2033,2.12356 l 114.6724,-1.06178 0,-123.16668 z m 270.7543,0 -0.5309,-123.16667 -122.6357,0 -122.6358,0 0,121.574 c 0,66.36136 0,122.1049 0,123.69757 0.5309,1.59267 55.7435,2.12356 123.1667,1.59267 l 122.6357,-0.53089 0,-123.16668 z m 244.2098,112.54886 c 10.6178,-10.61781 11.1487,-15.92672 10.6178,-123.16667 l -0.5308,-112.54886 -114.6725,0 -114.6724,0 0,121.574 c 0,66.36136 0,122.1049 0,123.69757 0.5309,1.59267 47.2493,2.65445 104.5855,2.12356 97.6839,-0.53089 104.5855,-1.06178 114.6724,-11.6796 z m 520.8039,-102.99282 0,-113.07975 -113.6106,0 -113.6106,0 -2.6545,110.4253 c -1.5927,60.52155 -1.0618,112.01796 1.0618,114.14153 2.1236,2.12356 54.1509,3.18534 115.7342,2.65445 l 112.5489,-0.53089 0.5308,-113.61064 z m 272.347,-0.53089 c 1.5927,-63.17601 0.5309,-115.20331 -1.5926,-116.2651 -2.1236,-1.06178 -58.9289,-0.53089 -125.8212,1.06179 l -121.574,2.65445 0.5309,114.14153 c 0.5309,62.64512 0.5309,114.14153 1.0618,114.14153 0,0 55.2127,-0.53089 122.6358,-1.06178 l 122.1049,-0.53089 2.6544,-114.14153 z m 255.3585,59.99066 c 2.6545,-63.17601 -1.0617,-92.375 -10.0869,-86.5352 -3.7162,1.59267 -21.7665,3.71623 -40.8786,3.71623 -23.3592,0.53089 -35.0388,2.65446 -36.6314,7.43247 -1.5927,5.8398 4.778,6.90159 28.6681,6.37069 43.0021,-1.59267 44.0639,-1.06178 26.5445,13.27228 -13.2723,10.61781 -14.334,13.80316 -9.0251,20.70474 5.3089,6.37069 4.778,9.02514 -4.7781,13.80316 -6.9015,3.71624 -10.0869,9.02515 -8.4942,14.86494 4.2471,12.21049 -30.2608,40.34771 -43.5331,35.56969 -4.778,-1.59267 -15.9267,-8.49425 -24.4209,-15.92672 -13.2723,-10.61782 -14.3341,-13.80317 -9.0252,-20.70475 5.3089,-6.37069 4.778,-9.02514 -4.2471,-13.80316 -8.4943,-4.24713 -10.6178,-9.02514 -7.9634,-18.05029 2.1236,-9.55603 0.5309,-13.27227 -9.0251,-15.39583 -9.5561,-2.65446 -10.6178,-4.77802 -5.3089,-10.61782 4.2471,-5.8398 12.7414,-6.90158 27.6063,-5.30891 19.1121,2.65446 21.7665,2.12357 19.643,-6.90158 -1.0618,-6.90158 -5.8398,-9.55603 -14.865,-9.02514 -7.4325,0.53089 -32.9152,1.59267 -57.3362,2.12356 -33.977,1.06178 -45.1257,3.18535 -48.3111,9.55604 -2.6544,6.37069 -3.7162,115.20331 -1.0617,127.94469 0.5308,1.59267 52.5581,2.65445 115.7342,2.65445 l 115.2033,0 1.5926,-55.74354 z m -797.398,-76.97917 0,-115.7342 -107.7708,0.53089 -107.7709,0.53089 -0.5309,110.95619 c -0.5309,61.05244 1.0618,113.07975 2.6545,115.7342 1.5927,2.65445 49.9037,4.24713 108.3017,4.24713 l 105.1164,-1.06178 0,-115.20332 z m 609.9936,-27.07543 c 9.0251,-3.71624 11.6796,-18.05029 3.7162,-18.05029 -12.2105,0 -32.9152,11.14871 -29.7299,15.92673 3.7163,5.83979 13.8032,6.90158 26.0137,2.12356 z m 182.0955,-29.72989 c -1.0617,-6.90158 -2.1235,-2.65445 -2.1235,9.02515 -0.5309,11.67959 0.5309,16.9885 2.1235,12.21049 1.0618,-5.30891 1.0618,-14.86495 0,-21.23564 z m -70.0776,12.21049 c 1.5927,-2.65445 10.087,-6.37069 18.5812,-8.49425 22.8283,-4.77802 20.7048,-21.23564 -6.3707,-46.18751 l -22.2974,-20.70474 -42.4712,1.59267 c -45.6567,1.59268 -59.9907,11.14871 -26.0137,17.5194 33.4461,5.8398 58.398,38.75503 36.1006,47.24929 -4.2471,1.59267 -7.9634,5.30891 -7.9634,8.49425 0,6.37069 46.1875,6.90158 50.4346,0.53089 z"
       id="path3285"
       inkscape:connector-curvature="0" />
    <path
       style="fill:none;stroke:#f00404;stroke-width:42.4712677;stroke-linecap:butt;stroke-linejoin:miter;stroke-miterlimit:4;stroke-opacity:0.89855077;stroke-dasharray:none"
       d="m 1013.7056,1439.2109 0,-284.6253 515.2078,0 0,-263.00822 1307.8354,0 0,-255.80249 263.0082,0 0,-263.00821 248.5968,0 0,-255.80249 540.4278,0 0,14.4114"
       id="path4696"
       inkscape:connector-curvature="0" />
  </g>
</svg>
