<?xml version="1.0" encoding="UTF-8"?>
<svg xmlns="http://www.w3.org/2000/svg" xmlns:xlink="http://www.w3.org/1999/xlink" width="399pt" height="272pt" viewBox="0 0 399 272" version="1.1">
<g id="surface1">
<path style=" stroke:none;fill-rule:nonzero;fill:rgb(0%,0%,0%);fill-opacity:1;" d="M 9.519531 6.164062 C 9.238281 6.632812 9.285156 266.207031 9.5625 266.722656 C 9.703125 266.910156 92.003906 267.050781 200.058594 267.003906 L 390.273438 266.910156 L 390.367188 136.746094 C 390.414062 63.515625 390.273438 6.445312 390.042969 6.304688 C 389.480469 5.929688 9.75 5.792969 9.519531 6.164062 Z M 38.351562 19.242188 L 38.351562 29.421875 L 36.71875 31.617188 C 35.832031 32.878906 34.851562 34.328125 34.570312 34.933594 C 34.246094 35.542969 33.777344 35.867188 33.5 35.679688 C 33.21875 35.496094 28.320312 35.308594 22.675781 35.308594 L 12.363281 35.214844 L 12.222656 22.652344 C 12.175781 15.738281 12.222656 9.808594 12.363281 9.433594 C 12.503906 8.96875 15.351562 8.875 25.472656 8.96875 L 38.398438 9.105469 Z M 67.789062 21.625 L 67.882812 34.839844 L 56.59375 34.839844 C 45.347656 34.839844 45.304688 34.839844 44.742188 33.765625 C 43.949219 32.273438 42.363281 30.03125 41.382812 29.84375 C 40.542969 29.65625 40.496094 29.003906 40.496094 19.617188 C 40.542969 14.105469 40.542969 9.433594 40.542969 9.199219 C 40.589844 9.015625 46.703125 8.921875 54.167969 8.96875 L 67.699219 9.105469 Z M 97.136719 21.484375 L 97.136719 34.605469 L 83.421875 34.746094 L 69.75 34.839844 L 69.84375 21.625 C 69.890625 14.710938 69.9375 9.058594 69.9375 8.96875 C 69.984375 8.921875 76.09375 8.921875 83.558594 8.96875 L 97.136719 9.105469 Z M 126.484375 21.484375 L 126.484375 34.605469 L 112.8125 34.746094 L 99.144531 34.839844 L 99.238281 21.625 C 99.285156 14.710938 99.332031 9.058594 99.332031 8.96875 C 99.375 8.921875 105.488281 8.921875 112.953125 8.96875 L 126.484375 9.105469 Z M 155.875 21.484375 L 155.921875 34.605469 L 142.207031 34.746094 L 128.535156 34.839844 L 128.628906 21.625 C 128.675781 14.710938 128.722656 9.058594 128.722656 8.96875 C 128.769531 8.921875 134.882812 8.921875 142.300781 8.96875 L 155.875 9.105469 Z M 185.457031 9.433594 C 185.644531 9.574219 185.503906 10.226562 185.128906 10.835938 C 184.242188 12.375 184.242188 31.339844 185.175781 32.925781 C 185.691406 33.859375 185.691406 34.09375 185.175781 34.421875 C 184.804688 34.652344 178.539062 35.25 171.226562 34.839844 L 157.929688 34.839844 L 158.023438 21.625 C 158.070312 14.710938 158.117188 9.058594 158.117188 8.96875 C 158.210938 8.6875 185.175781 9.105469 185.457031 9.433594 Z M 213.355469 22.089844 L 213.261719 35.074219 L 200.199219 35.167969 C 191.707031 35.214844 187.089844 35.820312 187.089844 35.542969 C 187.042969 34.699219 187.042969 9.574219 187.089844 9.199219 C 187.089844 9.015625 193.015625 8.921875 200.246094 8.96875 L 213.402344 9.105469 Z M 242.003906 9.386719 C 242.375 9.761719 242.421875 10.273438 242.097656 11.117188 C 241.863281 11.769531 241.675781 17.234375 241.675781 23.304688 C 241.675781 29.375 241.722656 34.515625 241.675781 34.792969 C 241.675781 35.074219 237.058594 35.214844 228.566406 35.167969 L 215.457031 35.074219 L 215.410156 22.183594 C 215.363281 15.085938 215.410156 9.152344 215.503906 9.058594 C 215.597656 8.96875 221.523438 8.875 228.613281 8.875 C 237.523438 8.875 241.628906 9.015625 242.003906 9.386719 Z M 271.164062 9.199219 C 271.257812 9.433594 271.210938 15.320312 271.070312 22.371094 L 270.835938 35.121094 L 244.710938 35.121094 L 244.476562 22.371094 C 244.335938 15.320312 244.289062 9.433594 244.382812 9.199219 C 244.476562 9.015625 250.496094 8.875 257.773438 8.875 C 265.050781 8.875 271.070312 9.015625 271.164062 9.199219 Z M 300.554688 9.199219 C 300.648438 9.433594 300.601562 15.320312 300.464844 22.371094 L 300.230469 35.167969 L 287.257812 35.167969 C 280.121094 35.121094 274.195312 35.027344 274.054688 34.886719 C 273.914062 34.746094 273.824219 29.609375 273.871094 23.445312 C 273.871094 17.328125 273.683594 11.769531 273.449219 11.117188 C 273.121094 10.273438 273.167969 9.761719 273.542969 9.386719 C 274.148438 8.78125 300.324219 8.640625 300.554688 9.199219 Z M 329.761719 21.996094 L 329.621094 35.167969 L 303.121094 35.167969 L 303.214844 24.707031 C 303.261719 18.402344 303.121094 13.308594 302.796875 11.957031 C 302.421875 10.132812 302.421875 9.574219 302.890625 9.246094 C 303.214844 9.058594 309.421875 8.875 316.699219 8.875 L 329.855469 8.875 Z M 359.015625 22.136719 L 358.96875 35.167969 L 332.421875 35.167969 L 332.1875 22.371094 C 332.050781 14.105469 332.140625 9.433594 332.421875 9.246094 C 332.703125 9.015625 338.765625 8.921875 345.953125 9.015625 L 359.015625 9.105469 Z M 388.222656 21.71875 C 388.222656 28.628906 388.175781 34.515625 388.175781 34.792969 C 388.175781 35.074219 383.605469 35.214844 375.207031 35.167969 C 368.113281 35.121094 362.09375 35.074219 361.816406 35.074219 C 361.535156 35.027344 361.394531 30.496094 361.441406 22.277344 C 361.441406 15.320312 361.488281 9.433594 361.535156 9.199219 C 361.582031 9.015625 367.601562 8.921875 374.925781 8.96875 L 388.316406 9.105469 Z M 203.140625 37.269531 L 213.308594 37.175781 L 213.449219 49.273438 C 213.496094 55.949219 213.636719 61.835938 213.730469 62.347656 C 213.917969 63.28125 213.683594 63.28125 200.433594 63.28125 L 186.996094 63.28125 L 187.042969 50.253906 C 187.089844 43.058594 187.230469 37.78125 187.324219 37.644531 C 187.417969 37.457031 188.722656 36.753906 190.214844 36.988281 C 191.707031 37.222656 197.492188 37.316406 203.140625 37.269531 Z M 34.945312 40.398438 C 35.226562 41.003906 36.019531 41.707031 36.671875 41.941406 C 37.511719 42.265625 37.792969 42.640625 37.605469 43.152344 C 37.417969 43.574219 37.558594 44.179688 37.792969 44.554688 C 38.117188 44.929688 38.351562 46.5625 38.351562 53.101562 L 38.398438 63.28125 L 12.039062 63.28125 L 12.128906 50.484375 C 12.128906 43.433594 12.269531 37.550781 12.316406 37.410156 C 12.410156 37.269531 17.449219 37.128906 23.46875 37.128906 L 34.480469 37.128906 Z M 241.488281 37.503906 C 241.628906 37.644531 241.722656 42.78125 241.675781 48.945312 C 241.675781 55.855469 241.816406 60.621094 242.144531 61.414062 C 242.515625 62.441406 242.515625 62.816406 242.050781 63.144531 C 241.722656 63.328125 235.472656 63.46875 228.148438 63.375 C 215.128906 63.28125 214.851562 63.28125 215.035156 62.347656 C 215.128906 61.835938 215.269531 55.949219 215.363281 49.273438 C 215.457031 42.59375 215.503906 37.128906 215.503906 37.128906 C 229.21875 37.128906 241.304688 37.316406 241.488281 37.503906 Z M 271.070312 50.019531 C 271.210938 57.070312 271.164062 62.957031 271.023438 63.191406 C 270.882812 63.375 264.816406 63.46875 257.585938 63.421875 L 244.382812 63.28125 L 244.429688 50.484375 C 244.476562 43.433594 244.617188 37.550781 244.710938 37.410156 C 244.804688 37.269531 250.679688 37.175781 257.867188 37.175781 L 270.835938 37.222656 Z M 300.464844 50.019531 C 300.601562 57.070312 300.648438 62.957031 300.554688 63.144531 C 300.371094 63.65625 274.242188 63.609375 273.496094 63.144531 C 273.03125 62.816406 273.03125 62.441406 273.402344 61.414062 C 273.730469 60.621094 273.871094 55.855469 273.871094 48.992188 C 273.824219 42.875 273.914062 37.691406 274.007812 37.503906 C 274.148438 37.269531 280.074219 37.128906 287.257812 37.175781 L 300.230469 37.222656 Z M 329.855469 50.019531 C 329.996094 57.070312 329.949219 62.957031 329.808594 63.191406 C 329.667969 63.375 323.464844 63.46875 316.046875 63.421875 L 302.5625 63.28125 L 302.75 62.117188 C 302.84375 61.460938 302.984375 55.578125 303.074219 49.039062 C 303.167969 42.5 303.214844 37.128906 303.261719 37.128906 C 303.261719 37.128906 309.1875 37.175781 316.417969 37.175781 L 329.621094 37.222656 Z M 359.0625 50.394531 L 359.109375 63.515625 L 345.765625 63.515625 C 338.441406 63.515625 332.140625 63.328125 331.816406 63.144531 C 331.347656 62.816406 331.347656 62.441406 331.722656 61.460938 C 332.003906 60.714844 332.1875 55.578125 332.1875 48.851562 C 332.1875 42.640625 332.28125 37.410156 332.375 37.316406 C 332.46875 37.222656 338.535156 37.175781 345.765625 37.175781 L 358.96875 37.222656 Z M 388.175781 37.597656 C 388.175781 37.828125 388.222656 43.714844 388.222656 50.671875 L 388.316406 63.28125 L 360.882812 63.28125 L 361.117188 61.414062 C 361.253906 60.386719 361.347656 54.597656 361.347656 48.570312 C 361.347656 42.546875 361.488281 37.503906 361.675781 37.363281 C 362.28125 36.894531 388.175781 37.128906 388.175781 37.597656 Z M 67.789062 50.765625 L 67.699219 63.28125 L 40.449219 63.28125 L 40.496094 53.007812 L 40.496094 44.976562 L 41.617188 44.742188 C 42.457031 44.507812 42.644531 44.179688 42.550781 43.199219 C 42.410156 42.21875 42.597656 41.941406 43.296875 41.941406 C 43.808594 41.941406 44.464844 42.359375 44.789062 41.984375 C 45.257812 41.378906 47.191406 41.914062 56.640625 41.285156 L 67.882812 41.285156 Z M 97.183594 50.765625 L 97.089844 63.28125 L 69.890625 63.28125 L 69.84375 50.765625 L 69.75 41.285156 L 97.277344 41.285156 Z M 126.484375 50.90625 L 126.484375 63.28125 L 99.285156 63.28125 L 99.238281 50.765625 L 99.144531 41.285156 L 112.8125 41.378906 L 126.484375 41.519531 Z M 155.875 50.90625 L 155.875 63.28125 L 142.207031 63.421875 L 128.535156 63.515625 L 128.535156 41.285156 L 142.207031 41.378906 L 155.921875 41.519531 Z M 180.699219 50.90625 L 180.699219 63.28125 L 170.433594 63.421875 L 157.929688 63.515625 L 157.929688 41.285156 L 170.433594 41.378906 L 180.699219 41.519531 Z M 38.351562 79.582031 L 38.257812 92.613281 L 12.363281 92.613281 L 12.128906 79.816406 C 11.992188 72.765625 11.945312 66.878906 12.039062 66.644531 C 12.128906 66.457031 18.101562 66.367188 25.289062 66.410156 L 38.398438 66.550781 Z M 67.699219 79.300781 C 67.699219 86.308594 67.652344 92.191406 67.652344 92.378906 C 67.652344 92.566406 61.539062 92.707031 54.121094 92.707031 C 45.394531 92.707031 40.589844 92.519531 40.589844 92.238281 C 40.589844 91.957031 40.589844 86.214844 40.542969 79.394531 C 40.542969 72.578125 40.542969 66.878906 40.542969 66.644531 C 40.589844 66.457031 46.703125 66.367188 54.167969 66.410156 L 67.746094 66.550781 Z M 97.136719 66.644531 C 97.230469 66.878906 97.230469 72.808594 97.136719 79.863281 L 96.996094 92.707031 L 83.46875 92.660156 L 69.984375 92.566406 L 69.9375 79.816406 C 69.9375 72.765625 69.9375 66.878906 69.9375 66.644531 C 69.984375 66.457031 76.050781 66.320312 83.46875 66.320312 C 90.933594 66.320312 97.042969 66.457031 97.136719 66.644531 Z M 126.53125 66.644531 C 126.625 66.878906 126.625 72.808594 126.53125 79.863281 L 126.390625 92.707031 L 112.859375 92.660156 L 99.332031 92.566406 L 99.332031 79.816406 C 99.332031 72.765625 99.332031 66.878906 99.332031 66.644531 C 99.375 66.457031 105.441406 66.320312 112.859375 66.320312 C 120.324219 66.320312 126.4375 66.457031 126.53125 66.644531 Z M 155.921875 66.644531 C 156.015625 66.878906 155.96875 72.765625 155.832031 79.816406 L 155.597656 92.613281 L 128.722656 92.613281 L 128.628906 79.441406 L 128.535156 66.320312 L 142.160156 66.320312 C 149.625 66.320312 155.832031 66.457031 155.921875 66.644531 Z M 181.492188 66.644531 C 181.585938 66.878906 181.585938 72.808594 181.492188 79.863281 L 181.351562 92.707031 L 170.480469 92.660156 L 158.117188 92.566406 L 158.023438 79.441406 L 157.929688 66.320312 L 170.386719 66.320312 C 177.246094 66.320312 181.398438 66.457031 181.492188 66.644531 Z M 213.730469 67.484375 C 213.636719 68 213.496094 73.839844 213.449219 80.46875 L 213.308594 92.519531 L 200.246094 92.613281 L 187.136719 92.707031 L 186.996094 79.863281 C 186.902344 72.808594 186.902344 66.878906 186.996094 66.644531 C 187.089844 66.457031 193.15625 66.367188 200.527344 66.410156 C 213.636719 66.550781 213.917969 66.550781 213.730469 67.484375 Z M 242.050781 66.691406 C 242.46875 66.972656 242.515625 67.441406 242.144531 68.515625 C 241.816406 69.402344 241.675781 74.070312 241.769531 81.21875 C 241.863281 88.503906 241.722656 92.472656 241.445312 92.519531 C 241.210938 92.519531 235.191406 92.519531 228.148438 92.519531 L 215.316406 92.519531 L 215.457031 82.570312 C 215.503906 77.105469 215.363281 71.363281 215.128906 69.820312 C 214.894531 68.28125 214.804688 66.878906 214.941406 66.644531 C 215.222656 66.179688 241.304688 66.226562 242.050781 66.691406 Z M 271.164062 66.644531 C 271.257812 66.878906 271.210938 72.765625 271.070312 79.816406 L 270.835938 92.566406 L 244.710938 92.566406 L 244.476562 79.816406 C 244.335938 72.765625 244.289062 66.878906 244.382812 66.644531 C 244.476562 66.457031 250.496094 66.320312 257.773438 66.320312 C 265.050781 66.320312 271.070312 66.457031 271.164062 66.644531 Z M 300.554688 66.644531 C 300.648438 66.878906 300.601562 72.765625 300.464844 79.816406 L 300.230469 92.613281 L 287.257812 92.566406 C 280.121094 92.566406 274.148438 92.472656 274.054688 92.332031 C 273.914062 92.191406 273.824219 87.054688 273.871094 80.890625 C 273.871094 73.976562 273.730469 69.214844 273.402344 68.421875 C 273.03125 67.394531 273.03125 67.019531 273.496094 66.691406 C 274.242188 66.226562 300.371094 66.179688 300.554688 66.644531 Z M 329.949219 66.644531 C 330.042969 66.878906 329.996094 72.765625 329.855469 79.816406 L 329.621094 92.566406 L 303.121094 92.566406 L 303.214844 82.152344 C 303.261719 75.894531 303.121094 70.800781 302.796875 69.449219 C 302.5625 68.1875 302.421875 66.972656 302.5625 66.738281 C 302.890625 66.226562 329.714844 66.132812 329.949219 66.644531 Z M 359.0625 79.441406 L 358.96875 92.613281 L 345.765625 92.566406 C 338.535156 92.566406 332.515625 92.472656 332.375 92.332031 C 332.234375 92.191406 332.140625 87.054688 332.1875 80.890625 C 332.1875 73.976562 332.050781 69.214844 331.722656 68.421875 C 331.347656 67.394531 331.347656 67.019531 331.816406 66.691406 C 332.140625 66.503906 338.441406 66.320312 345.765625 66.320312 L 359.109375 66.320312 Z M 388.269531 79.582031 L 388.222656 92.566406 L 375.113281 92.566406 C 367.925781 92.519531 361.910156 92.519531 361.722656 92.519531 C 361.488281 92.472656 361.394531 87.894531 361.488281 82.292969 C 361.582031 76.6875 361.441406 70.988281 361.207031 69.589844 C 360.929688 68.1875 360.835938 66.878906 360.976562 66.644531 C 361.070312 66.457031 367.273438 66.367188 374.738281 66.410156 L 388.316406 66.550781 Z M 38.304688 107.605469 L 38.351562 120.542969 L 12.363281 120.542969 L 12.222656 108.023438 C 12.175781 101.160156 12.175781 95.320312 12.316406 95.042969 C 12.410156 94.761719 17.03125 94.574219 25.378906 94.621094 L 38.304688 94.667969 Z M 67.652344 94.808594 C 67.652344 94.949219 67.652344 100.785156 67.699219 107.792969 L 67.746094 120.542969 L 40.496094 120.542969 L 40.542969 107.792969 C 40.589844 100.785156 40.589844 94.949219 40.589844 94.808594 C 40.589844 94.667969 46.703125 94.574219 54.121094 94.574219 C 61.585938 94.574219 67.652344 94.667969 67.652344 94.808594 Z M 97.136719 106.808594 C 97.183594 113.582031 97.230469 119.421875 97.230469 119.839844 C 97.277344 120.449219 95.691406 120.542969 83.605469 120.542969 L 69.890625 120.542969 L 69.9375 107.558594 C 69.9375 100.410156 69.984375 94.574219 69.984375 94.574219 C 69.984375 94.574219 76.09375 94.574219 83.515625 94.574219 L 97.042969 94.574219 Z M 126.53125 107.324219 C 126.625 114.375 126.53125 120.214844 126.296875 120.355469 C 126.109375 120.449219 119.953125 120.542969 112.628906 120.542969 L 99.285156 120.542969 L 99.332031 107.558594 C 99.332031 100.410156 99.375 94.574219 99.375 94.574219 C 99.375 94.574219 105.441406 94.574219 112.90625 94.574219 L 126.390625 94.574219 Z M 155.738281 107.605469 C 155.832031 117.738281 155.738281 120.496094 155.269531 120.496094 C 154.945312 120.496094 148.832031 120.496094 141.648438 120.542969 L 128.628906 120.589844 L 128.675781 107.558594 C 128.722656 100.410156 128.769531 94.574219 128.769531 94.574219 C 128.769531 94.574219 134.789062 94.621094 142.160156 94.621094 L 155.597656 94.667969 Z M 181.492188 105.921875 C 181.585938 112.179688 181.539062 117.503906 181.398438 117.691406 C 181.257812 117.878906 180.652344 118.160156 179.996094 118.207031 C 179.203125 118.347656 178.785156 118.71875 178.691406 119.421875 C 178.597656 120.027344 178.273438 120.496094 177.992188 120.542969 C 177.664062 120.542969 174.210938 120.542969 168.472656 120.542969 L 158.023438 120.542969 L 158.070312 107.558594 C 158.070312 100.410156 158.117188 94.574219 158.164062 94.574219 C 158.164062 94.574219 163.714844 94.574219 170.527344 94.574219 L 181.351562 94.574219 Z M 213.355469 107.371094 L 213.449219 119.980469 L 202.019531 120.121094 C 191.753906 120.261719 190.496094 120.167969 189.890625 119.46875 C 189.515625 119.046875 188.582031 118.441406 187.835938 118.160156 C 186.761719 117.785156 186.578125 117.457031 186.808594 116.617188 C 186.949219 116.058594 187.089844 110.875 187.089844 105.082031 L 187.089844 94.574219 L 213.308594 94.761719 Z M 241.445312 94.761719 C 241.722656 94.808594 241.863281 98.636719 241.769531 105.597656 C 241.675781 111.808594 241.816406 116.945312 242.097656 117.691406 C 242.9375 120.167969 242.375 120.261719 228.148438 120.121094 L 215.316406 119.980469 L 215.410156 107.277344 C 215.457031 100.273438 215.503906 94.574219 215.550781 94.574219 C 217.648438 94.574219 241.117188 94.761719 241.445312 94.761719 Z M 271.070312 106.996094 C 271.210938 113.769531 271.164062 119.515625 271.023438 119.699219 C 270.695312 120.121094 244.988281 120.214844 244.570312 119.839844 C 244.335938 119.558594 244.429688 95.273438 244.710938 94.808594 C 244.804688 94.667969 250.679688 94.621094 257.867188 94.621094 L 270.835938 94.714844 Z M 300.464844 106.765625 C 300.601562 113.441406 300.554688 119.140625 300.417969 119.46875 C 300.089844 120.261719 274.617188 120.355469 273.636719 119.558594 C 273.167969 119.140625 273.121094 118.71875 273.449219 117.832031 C 273.683594 117.132812 273.871094 111.902344 273.871094 105.96875 C 273.824219 100.085938 273.914062 95.132812 274.007812 94.949219 C 274.148438 94.714844 280.074219 94.621094 287.257812 94.621094 L 300.230469 94.714844 Z M 329.761719 105.78125 C 329.855469 113.582031 329.714844 117.085938 329.34375 117.503906 C 329.0625 117.878906 328.175781 118.160156 327.429688 118.160156 C 326.496094 118.160156 325.984375 118.441406 325.703125 119.1875 C 325.378906 120.167969 325.238281 120.167969 314.226562 120.121094 C 308.113281 120.074219 302.9375 119.886719 302.703125 119.652344 C 302.46875 119.421875 302.515625 118.253906 302.796875 116.945312 C 303.121094 115.589844 303.308594 110.640625 303.261719 104.847656 C 303.214844 99.429688 303.214844 94.949219 303.214844 94.808594 C 303.261719 94.667969 309.1875 94.621094 316.417969 94.621094 L 329.621094 94.714844 Z M 359.015625 107.605469 L 359.015625 120.542969 L 347.820312 120.589844 L 336.621094 120.632812 L 336.480469 119.605469 C 336.386719 119.046875 335.96875 118.484375 335.546875 118.347656 C 335.128906 118.207031 334.148438 117.785156 333.355469 117.410156 L 331.957031 116.757812 L 332.09375 105.96875 C 332.140625 100.039062 332.28125 95.042969 332.375 94.855469 C 332.46875 94.714844 338.535156 94.621094 345.8125 94.621094 L 359.015625 94.667969 Z M 388.316406 107.605469 C 388.363281 114.703125 388.316406 120.496094 388.175781 120.496094 C 387.570312 120.496094 362.65625 120.542969 362.046875 120.496094 C 361.441406 120.496094 361.347656 118.765625 361.347656 107.792969 C 361.347656 100.785156 361.488281 94.949219 361.675781 94.808594 C 361.816406 94.667969 367.878906 94.621094 375.113281 94.621094 L 388.222656 94.714844 Z M 38.304688 136.421875 L 38.304688 150.011719 L 12.363281 150.011719 L 12.222656 136.792969 C 12.175781 129.507812 12.175781 123.34375 12.316406 123.0625 C 12.410156 122.78125 17.03125 122.644531 25.378906 122.691406 L 38.304688 122.78125 Z M 67.699219 136.234375 C 67.652344 143.613281 67.652344 149.777344 67.652344 149.917969 C 67.652344 150.058594 61.539062 150.105469 54.121094 150.105469 L 40.542969 150.058594 L 40.542969 136.558594 C 40.542969 129.132812 40.542969 122.96875 40.589844 122.828125 C 40.589844 122.691406 46.703125 122.644531 54.167969 122.691406 L 67.746094 122.78125 Z M 97.230469 123.484375 C 97.230469 123.902344 97.183594 130.070312 97.136719 137.167969 L 97.042969 150.152344 L 83.46875 150.058594 L 69.9375 150.011719 L 69.9375 136.421875 C 69.9375 128.949219 69.984375 122.78125 69.984375 122.691406 C 69.984375 122.644531 76.140625 122.644531 83.605469 122.691406 C 95.691406 122.78125 97.277344 122.875 97.230469 123.484375 Z M 126.296875 122.96875 C 126.53125 123.109375 126.625 129.273438 126.53125 136.699219 L 126.390625 150.152344 L 112.859375 150.058594 L 99.332031 150.011719 L 99.332031 136.515625 C 99.332031 129.132812 99.332031 122.96875 99.375 122.828125 C 99.375 122.550781 125.832031 122.691406 126.296875 122.96875 Z M 155.269531 122.828125 C 155.738281 122.828125 155.832031 125.726562 155.738281 136.421875 L 155.597656 150.011719 L 128.722656 150.011719 L 128.722656 136.558594 C 128.722656 129.132812 128.722656 122.96875 128.722656 122.828125 C 128.769531 122.691406 134.601562 122.644531 141.695312 122.691406 C 148.832031 122.78125 154.945312 122.828125 155.269531 122.828125 Z M 178.40625 122.785156 C 178.6875 122.832031 179.71875 125.773438 179.859375 126.566406 C 180.371094 128.855469 181.816406 130.023438 184.617188 130.441406 L 186.996094 130.769531 L 188.816406 128.339844 C 190.402344 126.191406 190.730469 125.957031 191.941406 126.191406 C 192.6875 126.332031 197.820312 126.472656 203.371094 126.472656 L 213.449219 126.472656 L 213.355469 137.121094 L 213.308594 149.964844 L 200.292969 150.011719 L 187.324219 150.011719 L 187.089844 139.828125 C 186.855469 129.554688 186.621094 128.386719 185.175781 130.117188 C 184.335938 131.097656 183.964844 145.105469 184.664062 147.722656 C 184.945312 148.703125 184.988281 149.542969 184.757812 149.683594 C 184.523438 149.824219 178.410156 149.964844 171.179688 150.011719 L 158.070312 150.058594 L 158.070312 136.558594 C 158.070312 129.132812 158.117188 122.96875 158.117188 122.828125 C 158.164062 122.644531 175.515625 122.644531 178.40625 122.785156 Z M 358.96875 136.375 L 358.96875 149.964844 L 346.464844 150.058594 L 333.960938 150.105469 L 333.914062 139.363281 C 333.867188 128.902344 333.914062 128.527344 334.894531 127.265625 C 335.453125 126.519531 336.0625 125.398438 336.203125 124.746094 C 336.339844 124.089844 336.527344 123.296875 336.621094 123.0625 C 336.667969 122.78125 340.773438 122.644531 347.867188 122.691406 L 359.015625 122.78125 Z M 388.175781 122.828125 C 388.316406 122.828125 388.363281 128.949219 388.316406 136.421875 L 388.222656 150.011719 L 375.160156 149.964844 C 367.925781 149.964844 361.910156 149.964844 361.722656 149.917969 C 361.488281 149.917969 361.347656 143.847656 361.347656 136.375 C 361.347656 125.070312 361.441406 122.828125 362.003906 122.734375 C 362.46875 122.644531 382.296875 122.691406 388.175781 122.828125 Z M 241.445312 126.472656 C 241.722656 126.472656 241.910156 128.855469 241.910156 137.074219 C 241.910156 145.292969 241.722656 149.917969 241.445312 149.964844 C 241.210938 149.964844 235.238281 149.964844 228.238281 149.964844 L 215.457031 149.964844 L 215.410156 137.074219 C 215.363281 130.023438 215.457031 126.425781 215.691406 126.332031 C 215.921875 126.285156 238.175781 126.378906 241.445312 126.472656 Z M 271.023438 126.800781 C 271.164062 126.984375 271.210938 130.582031 271.070312 137.496094 L 270.835938 150.011719 L 257.773438 150.011719 L 244.710938 149.964844 L 244.476562 137.449219 C 244.335938 130.582031 244.382812 126.941406 244.570312 126.707031 C 244.941406 126.144531 270.601562 126.238281 271.023438 126.800781 Z M 300.417969 127.03125 C 300.554688 127.359375 300.601562 130.957031 300.464844 137.726562 L 300.230469 150.011719 L 287.304688 150.011719 C 280.167969 149.964844 274.195312 149.964844 274.007812 149.917969 C 273.542969 149.917969 273.496094 126.800781 273.960938 126.472656 C 274.101562 126.332031 280.074219 126.285156 287.210938 126.332031 C 297.335938 126.425781 300.230469 126.566406 300.417969 127.03125 Z M 325.796875 127.21875 C 326.03125 127.6875 326.777344 128.667969 327.382812 129.367188 L 328.550781 130.582031 L 328.550781 139.222656 L 328.503906 150.105469 L 316 150.011719 C 309.140625 149.964844 303.402344 149.917969 303.261719 149.917969 C 303.121094 149.917969 303.121094 145.433594 303.167969 140.015625 C 303.308594 133.382812 303.167969 131.46875 302.796875 129.789062 C 302.328125 127.640625 302.328125 127.171875 302.890625 126.753906 C 303.355469 126.425781 307.414062 126.238281 314.460938 126.285156 C 324.628906 126.332031 325.332031 126.378906 325.796875 127.21875 Z M 38.304688 165.097656 L 38.351562 178.03125 L 25.335938 178.03125 L 12.363281 177.984375 L 12.222656 165.46875 C 12.175781 158.605469 12.175781 152.765625 12.316406 152.484375 C 12.410156 152.207031 17.03125 152.019531 25.378906 152.066406 L 38.304688 152.113281 Z M 67.652344 152.253906 C 67.652344 152.394531 67.652344 158.230469 67.699219 165.234375 L 67.746094 178.03125 L 40.496094 178.03125 L 40.542969 165.003906 C 40.542969 157.855469 40.589844 152.019531 40.589844 152.019531 C 40.589844 152.019531 46.703125 152.019531 54.121094 152.019531 C 61.585938 152.019531 67.652344 152.113281 67.652344 152.253906 Z M 97.136719 164.488281 C 97.136719 171.402344 97.183594 177.238281 97.230469 177.519531 C 97.277344 177.894531 93.21875 178.03125 83.605469 177.984375 L 69.9375 177.984375 L 69.9375 165.144531 C 69.9375 158.042969 69.9375 152.207031 69.984375 152.113281 C 69.984375 152.066406 76.09375 152.019531 83.515625 152.019531 L 97.042969 152.019531 Z M 126.53125 164.769531 C 126.625 171.820312 126.484375 177.660156 126.296875 177.800781 C 126.109375 177.941406 119.953125 178.03125 112.628906 177.984375 L 99.285156 177.984375 L 99.332031 165.003906 C 99.332031 157.855469 99.375 152.019531 99.375 152.019531 C 99.375 152.019531 105.441406 152.019531 112.90625 152.019531 L 126.390625 152.019531 Z M 155.738281 165.050781 C 155.785156 173.550781 155.691406 177.941406 155.363281 177.941406 C 155.128906 177.984375 148.972656 177.984375 141.785156 177.984375 L 128.628906 177.984375 L 128.675781 165.003906 C 128.722656 157.855469 128.769531 152.019531 128.769531 152.019531 C 128.769531 152.019531 134.789062 152.066406 142.160156 152.066406 L 155.597656 152.160156 Z M 184.570312 152.441406 C 185.035156 152.625 185.082031 153.046875 184.710938 154.214844 C 184.148438 156.316406 184.195312 173.550781 184.804688 175.746094 C 185.082031 176.773438 185.175781 177.660156 185.082031 177.753906 C 184.988281 177.894531 178.832031 177.984375 171.460938 177.984375 L 158.023438 178.03125 L 158.070312 165.003906 C 158.070312 157.855469 158.117188 152.019531 158.117188 152.019531 C 168.753906 152.019531 184.105469 152.253906 184.570312 152.441406 Z M 213.355469 165.050781 C 213.402344 172.148438 213.355469 177.941406 213.214844 177.941406 C 212.609375 177.941406 187.742188 177.984375 187.324219 177.941406 C 186.902344 177.941406 186.855469 153.699219 187.277344 152.484375 C 187.371094 152.207031 192.082031 152.066406 200.386719 152.113281 L 213.308594 152.160156 Z M 241.445312 152.207031 C 242.003906 152.253906 242.097656 177.941406 241.582031 177.941406 C 241.351562 177.941406 235.425781 177.984375 228.285156 177.984375 L 215.410156 177.984375 L 215.457031 165.003906 C 215.457031 157.855469 215.503906 152.019531 215.550781 152.019531 C 217.324219 152.019531 241.117188 152.207031 241.445312 152.207031 Z M 271.070312 164.957031 C 271.210938 171.960938 271.257812 177.753906 271.257812 177.847656 C 271.164062 177.941406 247.601562 178.03125 244.710938 177.941406 C 244.289062 177.941406 244.242188 153.699219 244.664062 152.484375 C 244.757812 152.207031 249.515625 152.066406 257.820312 152.113281 L 270.835938 152.160156 Z M 300.230469 165.097656 L 300.230469 177.984375 L 287.304688 177.984375 C 280.167969 177.984375 274.195312 177.984375 274.007812 177.941406 C 273.542969 177.941406 273.496094 152.578125 273.960938 152.253906 C 274.101562 152.113281 280.074219 152.066406 287.257812 152.113281 L 300.230469 152.160156 Z M 328.550781 165.097656 L 328.550781 178.125 L 315.859375 178.03125 C 308.859375 177.984375 302.984375 177.847656 302.796875 177.707031 C 302.5625 177.566406 302.609375 176.726562 302.890625 175.792969 C 303.121094 174.808594 303.261719 169.53125 303.167969 163.179688 C 303.074219 157.15625 303.167969 152.207031 303.402344 152.113281 C 303.589844 152.066406 309.328125 152.019531 316.140625 152.019531 L 328.503906 152.066406 Z M 359.015625 165.050781 L 359.015625 177.984375 L 346.464844 178.03125 L 333.914062 178.125 L 333.960938 165.050781 C 334.007812 157.902344 334.007812 152.019531 334.054688 152.019531 C 334.054688 152.019531 339.652344 152.066406 346.511719 152.113281 L 359.015625 152.160156 Z M 388.222656 165.097656 L 388.222656 178.03125 L 375.253906 177.984375 C 368.113281 177.984375 362.09375 177.941406 361.816406 177.941406 C 361.300781 177.941406 361.117188 152.625 361.675781 152.253906 C 361.816406 152.113281 367.878906 152.066406 375.113281 152.113281 L 388.222656 152.160156 Z M 38.304688 193.820312 L 38.304688 207.503906 L 25.335938 207.457031 L 12.363281 207.457031 L 12.222656 194.238281 C 12.175781 186.953125 12.175781 180.789062 12.316406 180.507812 C 12.410156 180.226562 17.03125 180.089844 25.378906 180.132812 L 38.304688 180.179688 Z M 67.699219 193.820312 L 67.699219 207.457031 L 40.542969 207.457031 L 40.542969 194.003906 C 40.542969 186.578125 40.542969 180.414062 40.589844 180.273438 C 40.589844 180.132812 46.703125 180.089844 54.167969 180.132812 L 67.699219 180.179688 Z M 97.230469 180.695312 C 97.183594 180.976562 97.136719 187.140625 97.136719 194.378906 L 97.042969 207.597656 L 83.46875 207.550781 L 69.9375 207.457031 L 69.9375 193.867188 C 69.9375 186.394531 69.984375 180.226562 69.984375 180.132812 C 69.984375 180.089844 76.140625 180.089844 83.605469 180.132812 C 93.03125 180.179688 97.277344 180.367188 97.230469 180.695312 Z M 126.296875 180.414062 C 126.484375 180.554688 126.578125 186.671875 126.4375 194.050781 L 126.203125 207.457031 L 99.332031 207.457031 L 99.332031 194.003906 C 99.332031 186.578125 99.332031 180.414062 99.375 180.273438 C 99.375 179.996094 125.832031 180.132812 126.296875 180.414062 Z M 155.503906 180.273438 C 155.691406 180.273438 155.785156 186.394531 155.738281 193.867188 L 155.597656 207.457031 L 128.675781 207.457031 L 128.722656 193.957031 C 128.722656 186.578125 128.722656 180.414062 128.722656 180.273438 C 128.769531 180.089844 151.539062 180.089844 155.503906 180.273438 Z M 185.082031 180.414062 C 185.175781 180.554688 185.035156 181.535156 184.804688 182.65625 C 184.195312 185.226562 184.148438 203.347656 184.710938 205.355469 C 184.988281 206.242188 184.988281 206.988281 184.757812 207.128906 C 184.523438 207.269531 178.410156 207.410156 171.179688 207.457031 L 158.070312 207.457031 L 158.070312 194.003906 C 158.070312 186.578125 158.117188 180.414062 158.117188 180.273438 C 158.164062 179.996094 184.804688 180.132812 185.082031 180.414062 Z M 213.355469 193.820312 L 213.308594 207.410156 L 200.386719 207.410156 C 193.292969 207.410156 187.371094 207.316406 187.277344 207.222656 C 186.902344 206.847656 186.855469 180.273438 187.183594 180.132812 C 187.417969 180.089844 193.339844 180.089844 200.480469 180.132812 L 213.355469 180.226562 Z M 241.445312 180.273438 C 241.722656 180.273438 241.910156 185.132812 241.910156 193.820312 C 241.910156 202.503906 241.722656 207.363281 241.445312 207.363281 C 241.210938 207.410156 235.238281 207.410156 228.191406 207.410156 L 215.457031 207.410156 L 215.457031 193.957031 C 215.457031 186.578125 215.503906 180.414062 215.503906 180.273438 C 215.550781 180.089844 237.105469 180.089844 241.445312 180.273438 Z M 271.257812 180.367188 C 271.257812 180.460938 271.210938 186.578125 271.070312 193.957031 L 270.835938 207.457031 L 244.710938 207.457031 L 244.476562 193.957031 C 244.335938 186.578125 244.382812 180.414062 244.570312 180.273438 C 244.847656 180.042969 271.117188 180.132812 271.257812 180.367188 Z M 300.230469 193.820312 L 300.230469 207.457031 L 287.304688 207.410156 C 280.167969 207.410156 274.195312 207.410156 274.007812 207.363281 C 273.542969 207.363281 273.496094 180.601562 273.960938 180.273438 C 274.101562 180.132812 280.074219 180.089844 287.257812 180.132812 L 300.230469 180.226562 Z M 328.550781 191.0625 L 328.597656 201.992188 L 327.289062 202.226562 C 326.171875 202.410156 325.890625 202.832031 325.191406 204.980469 L 324.398438 207.550781 L 313.945312 207.457031 C 308.207031 207.410156 303.402344 207.410156 303.261719 207.363281 C 303.121094 207.363281 303.121094 202.132812 303.167969 195.734375 C 303.261719 188.867188 303.167969 183.449219 302.890625 182.46875 C 302.515625 181.117188 302.5625 180.648438 303.027344 180.414062 C 303.402344 180.179688 309.28125 180.042969 316.09375 180.089844 L 328.550781 180.089844 Z M 359.015625 193.867188 L 359.015625 207.457031 L 347.910156 207.503906 C 340.820312 207.550781 336.855469 207.410156 336.808594 207.128906 C 336.761719 206.847656 336.808594 206.195312 336.855469 205.632812 C 336.949219 204.234375 336.0625 202.738281 334.847656 202.273438 C 333.820312 201.851562 333.820312 201.804688 333.914062 190.96875 C 333.960938 184.945312 334.007812 180.042969 334.007812 180.042969 C 334.054688 180.042969 339.652344 180.089844 346.511719 180.132812 L 359.015625 180.273438 Z M 388.222656 193.820312 L 388.222656 207.410156 L 375.253906 207.410156 C 368.113281 207.410156 362.09375 207.410156 361.816406 207.410156 C 361.535156 207.363281 361.347656 202.503906 361.347656 193.820312 C 361.347656 182.421875 361.441406 180.273438 362.003906 180.179688 C 362.375 180.089844 368.441406 180.089844 375.4375 180.132812 L 388.222656 180.179688 Z M 38.304688 222.542969 L 38.304688 235.476562 L 25.335938 235.476562 L 12.363281 235.429688 L 12.222656 222.914062 C 12.175781 216.050781 12.175781 210.210938 12.316406 209.929688 C 12.410156 209.652344 17.03125 209.464844 25.378906 209.511719 L 38.304688 209.605469 Z M 67.699219 222.542969 L 67.746094 235.476562 L 54.121094 235.476562 L 40.496094 235.429688 L 40.542969 222.449219 C 40.542969 215.300781 40.589844 209.464844 40.589844 209.464844 C 40.589844 209.464844 46.703125 209.511719 54.121094 209.511719 L 67.699219 209.605469 Z M 97.136719 221.933594 C 97.136719 228.847656 97.183594 234.683594 97.230469 234.964844 C 97.277344 235.339844 93.3125 235.476562 83.605469 235.476562 L 69.9375 235.429688 L 69.9375 222.589844 C 69.9375 215.488281 69.9375 209.652344 69.984375 209.558594 C 69.984375 209.511719 76.09375 209.464844 83.515625 209.464844 L 97.042969 209.464844 Z M 126.203125 222.542969 L 126.203125 235.476562 L 99.285156 235.476562 L 99.332031 222.449219 C 99.332031 215.300781 99.375 209.464844 99.375 209.464844 C 99.375 209.464844 105.394531 209.511719 112.765625 209.511719 L 126.203125 209.605469 Z M 155.738281 222.496094 C 155.785156 229.59375 155.691406 235.382812 155.503906 235.382812 C 155.269531 235.382812 149.160156 235.429688 141.878906 235.429688 L 128.628906 235.476562 L 128.675781 222.449219 C 128.722656 215.300781 128.722656 209.464844 128.769531 209.464844 C 128.769531 209.464844 134.789062 209.511719 142.160156 209.558594 L 155.597656 209.605469 Z M 184.570312 209.882812 C 184.988281 210.023438 185.035156 210.585938 184.710938 211.894531 C 184.195312 214.226562 184.195312 230.902344 184.757812 233.28125 C 184.988281 234.308594 185.128906 235.199219 185.035156 235.246094 C 184.945312 235.339844 178.832031 235.429688 171.460938 235.429688 L 158.023438 235.476562 L 158.070312 222.496094 C 158.070312 215.300781 158.117188 209.464844 158.117188 209.464844 C 167.960938 209.464844 184.148438 209.699219 184.570312 209.882812 Z M 213.355469 222.542969 L 213.355469 235.429688 L 200.433594 235.429688 C 193.339844 235.429688 187.417969 235.382812 187.230469 235.382812 C 186.855469 235.382812 186.902344 210.351562 187.277344 209.792969 C 187.371094 209.605469 193.292969 209.511719 200.386719 209.558594 L 213.355469 209.652344 Z M 241.445312 209.699219 C 241.722656 209.699219 241.910156 214.320312 241.910156 222.542969 C 241.910156 230.761719 241.722656 235.382812 241.445312 235.382812 C 241.210938 235.429688 235.238281 235.429688 228.191406 235.429688 L 215.410156 235.429688 L 215.457031 222.542969 C 215.457031 215.488281 215.503906 209.652344 215.503906 209.558594 C 215.550781 209.511719 239.296875 209.558594 241.445312 209.699219 Z M 271.070312 222.308594 C 271.210938 229.3125 271.164062 235.105469 270.929688 235.246094 C 270.464844 235.523438 244.894531 235.523438 244.617188 235.246094 C 244.382812 234.964844 244.429688 210.164062 244.664062 209.746094 C 244.757812 209.605469 250.679688 209.511719 257.867188 209.558594 L 270.835938 209.605469 Z M 300.230469 222.542969 L 300.230469 235.429688 L 287.304688 235.429688 C 280.167969 235.429688 274.195312 235.429688 274.007812 235.382812 C 273.542969 235.382812 273.496094 210.023438 273.960938 209.699219 C 274.101562 209.558594 280.074219 209.511719 287.257812 209.558594 L 300.230469 209.605469 Z M 326.777344 210.726562 C 327.289062 211.378906 328.269531 212.03125 328.875 212.125 L 329.949219 212.265625 L 329.902344 223.707031 C 329.855469 229.96875 329.714844 235.199219 329.667969 235.292969 C 329.53125 235.382812 305.828125 235.523438 303.402344 235.382812 C 302.9375 235.382812 302.890625 210.023438 303.355469 209.699219 C 303.496094 209.558594 308.628906 209.464844 314.691406 209.464844 L 325.75 209.464844 Z M 359.015625 222.542969 L 359.015625 235.476562 L 345.953125 235.429688 C 338.765625 235.429688 332.703125 235.382812 332.421875 235.382812 C 332.140625 235.382812 331.957031 231.507812 331.910156 224.78125 C 331.910156 218.898438 331.816406 213.714844 331.675781 213.199219 C 331.535156 212.40625 331.769531 212.265625 333.261719 212.125 C 334.429688 212.03125 335.128906 211.707031 335.316406 211.191406 C 335.921875 209.511719 336.246094 209.464844 347.679688 209.558594 L 359.015625 209.605469 Z M 388.222656 222.542969 L 388.222656 235.429688 L 375.390625 235.429688 C 368.300781 235.429688 362.234375 235.429688 361.957031 235.382812 C 361.488281 235.382812 361.347656 232.535156 361.347656 222.679688 C 361.347656 215.675781 361.488281 209.839844 361.675781 209.699219 C 361.816406 209.558594 367.878906 209.511719 375.113281 209.558594 L 388.222656 209.652344 Z M 38.445312 238.375 C 38.445312 238.792969 38.398438 244.910156 38.351562 251.964844 L 38.257812 264.808594 L 12.128906 264.808594 L 12.128906 251.355469 C 12.128906 243.929688 12.222656 237.765625 12.316406 237.671875 C 12.410156 237.578125 18.382812 237.53125 25.519531 237.578125 C 37.042969 237.625 38.492188 237.71875 38.445312 238.375 Z M 67.835938 238.375 C 67.835938 238.792969 67.789062 244.910156 67.746094 251.964844 L 67.652344 264.808594 L 40.636719 264.808594 L 40.496094 251.355469 C 40.402344 243.976562 40.402344 237.859375 40.449219 237.71875 C 40.449219 237.578125 46.65625 237.53125 54.214844 237.578125 C 66.34375 237.625 67.882812 237.71875 67.835938 238.375 Z M 97.230469 238.140625 C 97.183594 238.421875 97.136719 244.539062 97.136719 251.730469 L 97.042969 264.808594 L 70.03125 264.808594 L 69.890625 251.355469 C 69.796875 243.976562 69.796875 237.859375 69.84375 237.71875 C 69.84375 237.578125 76.050781 237.53125 83.605469 237.53125 C 93.265625 237.625 97.277344 237.765625 97.230469 238.140625 Z M 126.34375 251.21875 L 126.4375 264.808594 L 112.859375 264.714844 L 99.332031 264.574219 L 99.332031 251.265625 C 99.332031 243.929688 99.332031 237.859375 99.375 237.71875 C 99.375 237.578125 105.394531 237.53125 112.765625 237.578125 L 126.203125 237.625 Z M 155.503906 237.71875 C 155.691406 237.71875 155.832031 243.839844 155.832031 251.265625 L 155.832031 264.808594 L 142.253906 264.714844 L 128.675781 264.574219 L 128.675781 251.03125 C 128.722656 243.558594 128.722656 237.484375 128.722656 237.484375 C 129.515625 237.484375 155.222656 237.71875 155.503906 237.71875 Z M 185.035156 237.859375 C 185.128906 237.90625 184.945312 238.933594 184.710938 240.054688 C 184.382812 241.316406 184.289062 246.6875 184.382812 253.457031 L 184.570312 264.808594 L 157.929688 264.808594 L 158.023438 251.171875 C 158.070312 243.652344 158.117188 237.484375 158.117188 237.484375 C 165.441406 237.484375 184.945312 237.71875 185.035156 237.859375 Z M 213.402344 251.265625 L 213.449219 264.808594 L 187.136719 264.808594 L 186.996094 251.355469 C 186.902344 243.976562 186.996094 237.859375 187.183594 237.71875 C 187.324219 237.578125 193.292969 237.53125 200.386719 237.578125 L 213.355469 237.671875 Z M 241.816406 237.8125 C 241.863281 237.90625 241.863281 243.976562 241.769531 251.355469 L 241.628906 264.808594 L 215.316406 264.808594 L 215.410156 251.171875 C 215.457031 243.652344 215.503906 237.484375 215.503906 237.484375 C 224.460938 237.484375 241.769531 237.671875 241.816406 237.8125 Z M 270.929688 237.859375 C 271.164062 238 271.257812 244.117188 271.164062 251.449219 L 271.023438 264.808594 L 244.523438 264.808594 L 244.382812 251.355469 C 244.289062 243.976562 244.382812 237.859375 244.570312 237.71875 C 244.941406 237.441406 270.464844 237.578125 270.929688 237.859375 Z M 300.371094 251.21875 L 300.464844 264.808594 L 273.914062 264.808594 L 273.777344 251.355469 C 273.683594 243.976562 273.777344 237.859375 273.960938 237.71875 C 274.101562 237.578125 280.074219 237.53125 287.257812 237.578125 L 300.230469 237.671875 Z M 329.714844 251.21875 L 329.808594 264.808594 L 303.027344 264.808594 L 303.027344 251.402344 C 303.027344 243.976562 303.167969 237.859375 303.355469 237.71875 C 303.496094 237.578125 309.46875 237.53125 316.652344 237.578125 L 329.621094 237.671875 Z M 359.015625 251.21875 L 359.0625 264.808594 L 332.234375 264.808594 L 332.1875 252.339844 C 332.1875 245.472656 332.050781 239.402344 331.910156 238.839844 C 331.722656 238.09375 331.863281 237.765625 332.46875 237.625 C 332.933594 237.578125 339.09375 237.53125 346.140625 237.578125 L 359.015625 237.671875 Z M 388.363281 238.375 C 388.363281 238.792969 388.316406 244.910156 388.269531 251.964844 L 388.175781 264.808594 L 361.347656 264.808594 L 361.347656 251.265625 C 361.347656 239.867188 361.441406 237.71875 362.003906 237.625 C 362.375 237.53125 368.488281 237.53125 375.53125 237.578125 C 386.917969 237.625 388.410156 237.71875 388.363281 238.375 Z M 388.363281 238.375 "/>
<path style=" stroke:none;fill-rule:nonzero;fill:rgb(0%,0%,0%);fill-opacity:1;" d="M 24.308594 19.429688 C 23.65625 20.503906 23.328125 21.855469 23.328125 23.398438 C 23.328125 25.078125 23.046875 26.105469 22.394531 26.949219 C 21.882812 27.601562 21.460938 28.394531 21.460938 28.722656 C 21.460938 29.050781 21.136719 29.421875 20.761719 29.609375 C 19.921875 29.890625 19.828125 31.339844 20.621094 32.132812 C 21.414062 32.925781 22.816406 31.992188 23.609375 30.078125 C 24.261719 28.535156 24.355469 28.488281 26.875 28.488281 C 29.347656 28.488281 29.488281 28.535156 30.09375 30.078125 C 30.652344 31.382812 31.585938 32.226562 32.425781 32.226562 C 32.566406 32.226562 32.84375 31.804688 33.125 31.339844 C 33.453125 30.683594 33.40625 30.265625 32.984375 29.796875 C 32.003906 28.675781 30.328125 25.3125 30.328125 24.378906 C 30.328125 23.492188 29.019531 20.503906 28.460938 20.082031 C 28.273438 19.941406 27.898438 19.382812 27.574219 18.773438 C 26.78125 17.234375 25.425781 17.515625 24.308594 19.429688 Z M 27.339844 23.210938 C 27.480469 23.957031 27.808594 24.984375 28.039062 25.59375 C 28.648438 27.132812 28.648438 27.179688 26.734375 26.996094 C 25.195312 26.855469 24.960938 26.714844 24.820312 25.5 C 24.585938 23.398438 25.101562 21.949219 26.128906 21.949219 C 26.734375 21.949219 27.152344 22.371094 27.339844 23.210938 Z M 27.339844 23.210938 "/>
<path style=" stroke:none;fill-rule:nonzero;fill:rgb(0%,0%,0%);fill-opacity:1;" d="M 196.328125 100.738281 C 195.347656 100.972656 195.394531 100.550781 195.488281 107.882812 C 195.535156 111.761719 195.722656 113.816406 196.09375 114.097656 C 196.421875 114.28125 198.285156 114.375 200.339844 114.328125 C 203.886719 114.191406 204.027344 114.144531 205.332031 112.554688 C 207.058594 110.546875 207.011719 109.753906 205.285156 107.882812 C 204.539062 107.042969 203.886719 106.296875 203.886719 106.203125 C 203.886719 106.109375 204.304688 105.597656 204.820312 105.082031 C 205.796875 104.101562 205.984375 102.933594 205.332031 101.859375 C 204.679688 100.832031 198.753906 100.085938 196.328125 100.738281 Z M 201.738281 102.421875 C 202.90625 103.355469 203 103.632812 202.53125 104.523438 C 202.113281 105.316406 201.554688 105.550781 200.152344 105.550781 C 197.960938 105.550781 197.585938 105.082031 198.285156 102.980469 C 198.941406 101.066406 199.828125 100.925781 201.738281 102.421875 Z M 202.859375 108.632812 C 203.417969 109.003906 203.886719 109.613281 203.886719 109.941406 C 203.886719 111.527344 199.828125 113.160156 198.519531 112.089844 C 197.773438 111.480469 197.632812 109.894531 198.101562 108.632812 C 198.472656 107.652344 201.460938 107.652344 202.859375 108.632812 Z M 202.859375 108.632812 "/>
<path style=" stroke:none;fill-rule:nonzero;fill:rgb(0%,0%,0%);fill-opacity:1;" d="M 344.925781 99.804688 C 344.320312 99.898438 343.851562 100.226562 343.851562 100.457031 C 343.851562 100.691406 343.292969 100.878906 342.640625 100.878906 C 340.914062 100.878906 339.792969 101.625 339.46875 102.980469 C 339.28125 103.632812 338.953125 104.148438 338.722656 104.148438 C 338.441406 104.148438 338.253906 105.457031 338.253906 107.042969 C 338.253906 109.519531 338.441406 110.125 339.792969 111.902344 C 341.519531 114.191406 342.078125 114.421875 346.046875 114.421875 C 348.9375 114.421875 348.984375 114.421875 350.199219 112.554688 C 352.296875 109.378906 350.710938 108.070312 348.191406 110.921875 C 346.511719 112.835938 345.71875 112.882812 343.152344 111.433594 C 341.332031 110.40625 341.285156 110.265625 341.148438 107.652344 C 341.007812 104.941406 341.054688 104.847656 342.917969 103.121094 C 345.4375 100.785156 347.210938 100.691406 347.820312 102.839844 C 348.191406 104.054688 348.566406 104.429688 349.589844 104.523438 C 351.363281 104.753906 351.738281 103.496094 350.382812 102 C 349.777344 101.394531 349.03125 100.878906 348.707031 100.878906 C 348.378906 100.878906 348.050781 100.691406 347.957031 100.457031 C 347.773438 99.898438 346.1875 99.570312 344.925781 99.804688 Z M 344.925781 99.804688 "/>
<path style=" stroke:none;fill-rule:nonzero;fill:rgb(0%,0%,0%);fill-opacity:1;" d="M 312.035156 215.347656 C 311.289062 215.769531 311.195312 216.609375 311.195312 222.261719 C 311.195312 229.734375 310.914062 229.3125 316 229.3125 C 320.386719 229.3125 321.039062 229.078125 322.296875 227.257812 C 323.136719 225.996094 323.324219 225.109375 323.324219 222.027344 C 323.324219 217.21875 323.042969 216.28125 321.503906 215.957031 C 320.851562 215.816406 319.917969 215.535156 319.5 215.253906 C 318.425781 214.695312 313.058594 214.742188 312.035156 215.347656 Z M 319.21875 217.449219 C 320.898438 218.617188 320.992188 218.851562 320.992188 221.09375 C 320.992188 222.402344 321.132812 223.894531 321.273438 224.410156 C 321.597656 225.71875 318.519531 227.070312 315.765625 226.882812 L 313.761719 226.746094 L 313.851562 222.121094 C 313.898438 219.597656 314.039062 217.265625 314.179688 216.890625 C 314.601562 215.816406 317.304688 216.144531 319.21875 217.449219 Z M 319.21875 217.449219 "/>
</g>
</svg>
