<?xml version="1.0" encoding="UTF-8"?>
<svg xmlns="http://www.w3.org/2000/svg" xmlns:xlink="http://www.w3.org/1999/xlink" width="400pt" height="287pt" viewBox="0 0 400 287" version="1.1">
<g id="surface1">
<path style=" stroke:none;fill-rule:nonzero;fill:rgb(0%,0%,0%);fill-opacity:1;" d="M 67.5625 17.480469 C 67.046875 18.109375 65.960938 20.058594 65.21875 21.777344 C 64.472656 23.496094 63.445312 25.445312 62.871094 26.074219 C 62.355469 26.707031 61.269531 28.480469 60.527344 30.085938 C 59.726562 31.632812 58.523438 33.871094 57.835938 34.957031 C 57.152344 36.046875 55.949219 38.398438 55.089844 40.117188 C 54.289062 41.835938 53.433594 43.382812 53.203125 43.554688 C 52.632812 43.957031 47.484375 53.296875 45.59375 57.421875 C 44.738281 59.199219 43.765625 60.863281 43.421875 61.035156 C 43.136719 61.261719 42.21875 62.753906 41.417969 64.355469 C 40.617188 66.019531 39.53125 68.082031 38.902344 69.054688 C 38.273438 69.972656 37.128906 72.207031 36.328125 73.925781 C 35.527344 75.648438 34.496094 77.421875 34.097656 77.9375 C 33.066406 79.027344 30.148438 84.359375 27.289062 90.261719 C 26.085938 92.78125 24.597656 95.359375 24.085938 95.992188 C 23.511719 96.621094 22.710938 98.054688 22.253906 99.144531 C 21.855469 100.230469 20.765625 102.238281 19.910156 103.554688 C 18.992188 104.875 17.734375 107.050781 17.105469 108.425781 C 16.476562 109.800781 15.332031 111.921875 14.53125 113.183594 C 13.789062 114.445312 13.15625 115.933594 13.15625 116.449219 C 13.15625 117.425781 17.335938 117.480469 92.847656 117.480469 L 172.597656 117.480469 L 173.628906 115.304688 C 175.058594 112.382812 175.285156 111.921875 177.574219 108.140625 C 178.71875 106.308594 179.632812 104.414062 179.632812 104.015625 C 179.632812 103.613281 180.035156 102.867188 180.492188 102.410156 C 180.949219 101.953125 181.75 100.460938 182.265625 99.085938 C 182.835938 97.710938 184.382812 94.84375 185.753906 92.78125 C 187.070312 90.660156 188.214844 88.597656 188.214844 88.140625 C 188.214844 87.683594 189.246094 85.90625 190.503906 84.1875 C 191.820312 82.523438 192.964844 80.460938 193.191406 79.660156 C 193.363281 78.855469 194.050781 77.59375 194.792969 76.792969 C 195.480469 75.992188 197.539062 72.265625 199.371094 68.484375 C 201.257812 64.699219 203.375 60.804688 204.0625 59.828125 C 204.804688 58.855469 205.378906 57.765625 205.378906 57.480469 C 205.378906 57.136719 205.777344 56.5625 206.234375 56.164062 C 206.695312 55.761719 207.09375 54.957031 207.09375 54.328125 C 207.09375 53.753906 207.835938 52.265625 208.753906 51.117188 C 209.667969 49.972656 210.8125 48.082031 211.382812 46.992188 C 211.957031 45.902344 212.644531 44.585938 212.929688 44.128906 C 213.15625 43.667969 213.902344 42.121094 214.53125 40.6875 C 215.160156 39.257812 215.902344 37.707031 216.191406 37.25 C 218.820312 33.125 220.824219 29.628906 220.824219 29.226562 C 220.824219 28.941406 221.566406 27.621094 222.425781 26.246094 C 225 22.40625 227.34375 17.59375 227.175781 16.734375 C 227.117188 16.675781 191.417969 16.503906 147.824219 16.449219 C 69.222656 16.332031 68.59375 16.332031 67.5625 17.480469 Z M 220.195312 23.324219 C 219.277344 25.101562 218.191406 26.933594 217.734375 27.449219 C 217.277344 27.964844 215.101562 31.863281 212.929688 36.105469 C 207.496094 46.648438 204.691406 51.808594 204.234375 52.152344 C 203.488281 52.78125 200.230469 58.511719 200.230469 59.257812 C 200.230469 59.65625 199.769531 60.632812 199.199219 61.378906 C 198.628906 62.121094 197.824219 63.667969 197.367188 64.757812 C 196.96875 65.847656 195.765625 68.082031 194.738281 69.628906 C 193.707031 71.234375 192.503906 73.296875 192.105469 74.214844 C 191.703125 75.1875 190.617188 77.023438 189.757812 78.398438 C 188.902344 79.714844 187.585938 81.949219 186.898438 83.269531 C 186.210938 84.585938 184.726562 87.164062 183.523438 88.941406 C 182.324219 90.71875 181.351562 92.726562 181.351562 93.355469 C 181.351562 93.984375 181.0625 94.671875 180.722656 94.84375 C 180.433594 95.074219 179.460938 96.679688 178.660156 98.457031 C 177.859375 100.230469 176.542969 102.753906 175.6875 104.015625 C 173.683594 107.167969 172.769531 108.886719 172.769531 109.6875 C 172.769531 110.03125 172.140625 111.007812 171.339844 111.867188 L 169.964844 113.46875 L 94.277344 113.46875 C 49.3125 113.527344 18.535156 113.296875 18.421875 113.011719 C 18.363281 112.726562 18.878906 111.75 19.621094 110.835938 C 21.394531 108.597656 23.457031 104.988281 23.457031 104.015625 C 23.457031 103.554688 24.140625 102.351562 25.058594 101.320312 C 25.914062 100.289062 27.859375 96.851562 29.40625 93.699219 C 32.722656 86.878906 32.378906 87.511719 35.070312 83.5 C 36.210938 81.722656 37.183594 79.886719 37.183594 79.429688 C 37.183594 78.972656 37.816406 77.882812 38.558594 76.964844 C 39.359375 76.046875 40.675781 73.753906 41.53125 71.863281 C 42.390625 70.03125 43.648438 67.679688 44.335938 66.765625 C 45.023438 65.789062 46.222656 63.726562 46.96875 62.179688 C 47.710938 60.574219 48.914062 58.339844 49.597656 57.195312 C 50.34375 55.988281 50.914062 54.671875 50.914062 54.214844 C 50.914062 53.699219 51.660156 52.496094 52.515625 51.460938 C 54.75 48.828125 56.0625 46.648438 56.0625 45.503906 C 56.0625 44.988281 56.75 43.785156 57.550781 42.808594 C 58.980469 41.089844 61.785156 35.589844 61.785156 34.5 C 61.785156 34.214844 62.300781 33.523438 62.984375 32.894531 C 63.617188 32.320312 65.21875 29.628906 66.476562 26.933594 C 67.734375 24.242188 69.164062 21.605469 69.679688 21.03125 C 70.480469 20.113281 74.886719 20.058594 146.222656 20.058594 L 221.855469 20.058594 Z M 220.195312 23.324219 "/>
<path style=" stroke:none;fill-rule:nonzero;fill:rgb(0%,0%,0%);fill-opacity:1;" d="M 107.953125 50.773438 C 107.496094 51.234375 108.351562 52.839844 110.753906 55.988281 C 111.84375 57.421875 112.699219 58.914062 112.699219 59.3125 C 112.699219 59.773438 113.214844 60.402344 113.84375 60.746094 C 115.503906 61.605469 115.273438 62.808594 112.984375 65.5625 C 111.898438 66.9375 110.984375 68.367188 110.984375 68.828125 C 110.984375 69.285156 110.011719 70.433594 108.867188 71.40625 C 106.292969 73.582031 106.523438 75.074219 109.496094 75.074219 C 111.097656 75.074219 111.957031 74.558594 113.789062 72.609375 C 115.046875 71.292969 116.132812 69.628906 116.132812 68.941406 C 116.132812 68.253906 116.363281 67.566406 116.648438 67.394531 C 117.503906 66.820312 119.050781 67.679688 119.621094 69 C 120.539062 71.0625 122.539062 74.214844 123.226562 74.617188 C 124.140625 75.246094 127.460938 75.1875 127.859375 74.558594 C 128.144531 74.101562 124.085938 67.625 122.082031 65.273438 C 120.421875 63.441406 121.683594 59.3125 124.886719 55.816406 C 126.773438 53.8125 127.003906 51.003906 125.34375 51.003906 C 123.628906 51.003906 121.28125 52.035156 121.28125 52.839844 C 121.28125 53.183594 120.710938 54.386719 120.023438 55.417969 C 118.304688 57.9375 116.875 57.710938 115.332031 54.613281 C 114.644531 53.238281 113.5 51.980469 112.699219 51.636719 C 110.527344 50.773438 108.351562 50.429688 107.953125 50.773438 Z M 107.953125 50.773438 "/>
<path style=" stroke:none;fill-rule:nonzero;fill:rgb(0%,0%,0%);fill-opacity:1;" d="M 306.351562 17.191406 C 302.917969 17.765625 301.488281 18.222656 297.195312 20.058594 C 295.9375 20.632812 293.765625 21.546875 292.335938 22.121094 C 290.960938 22.75 289.128906 23.839844 288.328125 24.640625 C 287.527344 25.445312 285.925781 26.535156 284.839844 27.164062 C 283.695312 27.738281 282.207031 29.113281 281.523438 30.144531 C 280.777344 31.175781 279.691406 32.207031 279.117188 32.378906 C 278.488281 32.609375 277.632812 33.523438 277.175781 34.441406 C 276.660156 35.359375 275.570312 36.90625 274.714844 37.9375 C 272.65625 40.34375 270.59375 43.957031 270.59375 45.101562 C 270.59375 45.617188 270.25 46.476562 269.851562 46.933594 C 268.707031 48.253906 267.164062 52.78125 267.164062 54.671875 C 267.164062 55.53125 266.761719 57.824219 266.246094 59.773438 C 264.589844 66.25 266.074219 78.683594 269.449219 86.25 C 272.425781 92.898438 273.511719 95.132812 274.257812 95.53125 C 274.65625 95.761719 275.457031 96.738281 276.085938 97.710938 C 277.402344 99.832031 283.46875 106.019531 284.152344 106.019531 C 284.4375 106.019531 285.984375 107.109375 287.585938 108.484375 C 289.1875 109.859375 291.363281 111.351562 292.390625 111.75 C 296.167969 113.183594 298.339844 114.15625 299.769531 114.902344 C 304.976562 117.597656 324.484375 117.824219 329.40625 115.246094 C 332.609375 113.527344 335.410156 112.324219 336.15625 112.324219 C 337.644531 112.324219 346.222656 106.363281 347.425781 104.414062 C 347.710938 104.015625 348.226562 103.441406 348.570312 103.15625 C 348.96875 102.867188 350.113281 101.953125 351.144531 101.09375 C 352.117188 100.289062 352.976562 99.199219 352.976562 98.683594 C 352.976562 98.113281 353.890625 96.964844 354.976562 96.105469 C 356.0625 95.246094 356.980469 94.15625 356.980469 93.757812 C 356.980469 93.355469 357.953125 91.175781 359.210938 88.941406 C 362.070312 83.671875 362.644531 82.066406 363.617188 75.933594 C 364.875 67.910156 364.472656 59.085938 362.585938 52.722656 C 361.554688 49.113281 356.179688 38.742188 354.632812 37.25 C 353.777344 36.449219 352.917969 35.246094 352.6875 34.5 C 352.515625 33.8125 351.316406 32.550781 350.058594 31.75 C 348.855469 31.003906 347.824219 30.144531 347.824219 29.859375 C 347.824219 28.652344 337.070312 21.203125 335.355469 21.203125 C 334.839844 21.203125 333.867188 20.859375 333.238281 20.402344 C 332.609375 20 330.492188 19.082031 328.488281 18.394531 C 324.3125 16.964844 312.070312 16.332031 306.351562 17.191406 Z M 323.796875 21.203125 C 326.144531 21.605469 328.316406 22.121094 328.660156 22.40625 C 328.949219 22.695312 329.632812 22.921875 330.207031 22.921875 C 330.777344 22.921875 333.296875 24.070312 335.8125 25.503906 C 338.328125 26.933594 340.5625 28.082031 340.847656 28.082031 C 341.132812 28.082031 342.164062 28.941406 343.136719 29.914062 C 344.109375 30.945312 346.28125 33.179688 347.996094 34.902344 C 349.714844 36.5625 351.488281 38.625 351.886719 39.484375 C 352.289062 40.289062 353.375 41.890625 354.234375 43.039062 C 355.089844 44.183594 355.835938 45.332031 355.835938 45.558594 C 355.835938 45.789062 356.234375 46.761719 356.636719 47.738281 C 359.496094 53.925781 360.527344 58.28125 360.8125 64.816406 C 360.984375 68.710938 360.871094 72.722656 360.46875 74.558594 C 359.4375 79.601562 355.777344 89 354.003906 91.003906 C 353.144531 92.039062 352.402344 93.183594 352.402344 93.585938 C 352.402344 94.5 341.875 105.449219 341.019531 105.449219 C 340.675781 105.449219 338.957031 106.363281 337.183594 107.511719 C 329.234375 112.609375 314.875 114.902344 305.835938 112.554688 C 298.855469 110.777344 296.050781 109.859375 295.195312 109.171875 C 294.738281 108.828125 293.078125 107.796875 291.476562 106.9375 C 288.214844 105.101562 285.8125 102.984375 279.347656 96.21875 C 276.371094 93.125 272.023438 84.585938 270.710938 79.488281 C 269.449219 74.214844 269.109375 59.484375 270.25 56.621094 C 270.765625 55.417969 271.167969 53.640625 271.167969 52.722656 C 271.167969 51.808594 271.394531 50.945312 271.683594 50.773438 C 271.96875 50.601562 272.367188 49.742188 272.539062 48.941406 C 272.769531 48.140625 273.96875 45.847656 275.171875 43.898438 C 276.429688 41.890625 277.460938 40.058594 277.460938 39.773438 C 277.460938 39.484375 278.203125 38.511719 279.175781 37.535156 C 287.527344 29.113281 287.644531 28.996094 297.082031 23.667969 C 297.769531 23.265625 298.855469 22.921875 299.542969 22.921875 C 300.171875 22.921875 300.914062 22.75 301.144531 22.464844 C 301.371094 22.234375 303.832031 21.664062 306.523438 21.089844 C 311.898438 20.058594 317.046875 20.113281 323.796875 21.203125 Z M 323.796875 21.203125 "/>
<path style=" stroke:none;fill-rule:nonzero;fill:rgb(0%,0%,0%);fill-opacity:1;" d="M 304.917969 56.21875 C 304.917969 56.5625 306.0625 58.570312 307.496094 60.691406 C 308.925781 62.808594 310.070312 64.757812 310.070312 65.101562 C 310.070312 65.390625 310.871094 66.363281 311.84375 67.335938 C 313.5 69 313.558594 69.171875 313.386719 73.640625 L 313.214844 78.226562 L 317.792969 78.226562 L 317.5625 73.582031 C 317.390625 69.285156 317.503906 68.710938 318.878906 66.707031 C 319.679688 65.503906 320.367188 64.183594 320.367188 63.839844 C 320.367188 63.441406 321.050781 62.523438 321.96875 61.777344 C 323.457031 60.402344 325.515625 57.195312 325.515625 56.105469 C 325.515625 55.816406 324.371094 55.589844 322.996094 55.589844 C 320.308594 55.589844 318.648438 56.964844 318.648438 59.140625 C 318.648438 60.574219 314.988281 64.472656 314.1875 63.957031 C 313.789062 63.726562 313.5 63.097656 313.5 62.523438 C 313.5 61.949219 313.101562 61.148438 312.644531 60.746094 C 312.183594 60.34375 311.785156 59.601562 311.785156 59.085938 C 311.726562 57.136719 309.726562 55.589844 307.265625 55.589844 C 305.949219 55.589844 304.917969 55.875 304.917969 56.21875 Z M 304.917969 56.21875 "/>
<path style=" stroke:none;fill-rule:nonzero;fill:rgb(0%,0%,0%);fill-opacity:1;" d="M 306.464844 172.324219 C 306.351562 172.613281 305.890625 173.929688 305.492188 175.363281 C 305.089844 176.796875 304.40625 178.34375 304.003906 178.800781 C 302.574219 180.578125 299.769531 185.792969 299.769531 186.652344 C 299.769531 187.167969 299.257812 188.144531 298.683594 188.773438 C 297.195312 190.378906 294.621094 195.363281 294.621094 196.566406 C 294.621094 197.082031 294.109375 198 293.476562 198.574219 C 292.847656 199.144531 290.503906 203.328125 288.273438 207.972656 C 286.042969 212.554688 283.867188 216.738281 283.410156 217.199219 C 283.007812 217.65625 282.265625 219.203125 281.695312 220.636719 C 281.121094 222.070312 279.917969 224.304688 279.0625 225.621094 C 278.144531 226.941406 276.886719 229.234375 276.203125 230.78125 C 275.570312 232.269531 274.429688 234.277344 273.742188 235.25 C 273.054688 236.167969 271.910156 238.34375 271.109375 239.949219 C 270.367188 241.613281 269.566406 242.988281 269.335938 242.988281 C 269.050781 242.988281 268.878906 243.445312 268.878906 244.019531 C 268.878906 244.59375 268.476562 245.566406 268.019531 246.195312 C 267.5625 246.769531 267.164062 247.6875 267.164062 248.203125 C 267.164062 248.71875 266.246094 250.324219 265.160156 251.753906 C 264.074219 253.1875 263.15625 254.734375 263.15625 255.136719 C 263.15625 255.539062 262.242188 257.429688 261.15625 259.320312 C 260.070312 261.210938 258.808594 263.675781 258.296875 264.765625 C 257.722656 265.851562 256.464844 268.089844 255.378906 269.75 C 254.289062 271.355469 253.433594 272.960938 253.433594 273.304688 C 253.433594 273.761719 269.109375 273.933594 307.4375 273.933594 L 361.441406 273.933594 L 361.785156 272.558594 C 362.300781 270.4375 361.269531 268.203125 359.839844 268.375 C 358.867188 268.433594 358.46875 267.972656 357.835938 266.253906 C 357.378906 264.992188 356.578125 263.332031 355.949219 262.53125 C 355.378906 261.726562 354.003906 259.207031 352.976562 257.027344 C 351.886719 254.792969 350.457031 252.214844 349.769531 251.296875 C 349.085938 250.324219 348.113281 248.546875 347.539062 247.285156 C 345.652344 242.816406 341.363281 234.675781 340.332031 233.472656 C 339.703125 232.84375 339.246094 231.925781 339.246094 231.46875 C 339.246094 230.320312 336.042969 224.417969 334.953125 223.503906 C 334.496094 223.101562 334.097656 222.414062 334.097656 221.898438 C 334.097656 221.4375 333.179688 219.433594 332.09375 217.542969 C 329.117188 212.441406 329.175781 212.554688 327.859375 209.75 C 327.230469 208.316406 326.429688 206.769531 326.144531 206.308594 C 324.769531 203.902344 323.796875 201.78125 323.796875 201.210938 C 323.796875 200.808594 323.167969 199.890625 322.484375 199.089844 C 321.738281 198.285156 320.539062 196.167969 319.792969 194.390625 C 319.050781 192.613281 317.734375 190.207031 316.820312 189.058594 C 315.960938 187.914062 315.21875 186.539062 315.21875 186.078125 C 315.21875 185.105469 311.382812 178.402344 310.582031 177.886719 C 310.296875 177.714844 310.070312 177.082031 310.070312 176.453125 C 310.070312 173.816406 307.324219 170.722656 306.464844 172.324219 Z M 311.5 186.425781 C 313.328125 190.261719 315.21875 193.816406 315.617188 194.332031 C 316.074219 194.847656 317.335938 197.140625 318.421875 199.488281 C 319.566406 201.839844 321.109375 204.535156 321.855469 205.507812 C 322.597656 206.539062 323.628906 208.429688 324.140625 209.804688 C 324.65625 211.179688 325.457031 212.726562 325.914062 213.246094 C 326.316406 213.703125 326.660156 214.390625 326.660156 214.675781 C 326.660156 215.421875 330.035156 221.78125 331.292969 223.445312 C 331.921875 224.191406 332.378906 225.164062 332.378906 225.621094 C 332.378906 226.023438 333.351562 227.972656 334.554688 229.976562 C 335.699219 231.925781 337.183594 234.675781 337.816406 236.109375 C 338.386719 237.542969 339.757812 239.835938 340.789062 241.210938 C 341.820312 242.585938 342.675781 244.074219 342.675781 244.476562 C 342.675781 245.453125 348.683594 257.199219 349.828125 258.460938 C 350.285156 258.976562 350.6875 259.664062 350.6875 259.949219 C 350.6875 260.695312 353.488281 265.910156 354.75 267.574219 C 355.378906 268.316406 355.835938 269.175781 355.835938 269.40625 C 355.835938 269.691406 334.324219 269.921875 307.4375 269.921875 L 259.097656 269.921875 L 260.410156 268.089844 C 261.785156 266.082031 264.246094 261.382812 264.300781 260.582031 C 264.300781 260.292969 264.929688 259.261719 265.675781 258.289062 C 267.105469 256.28125 272.3125 245.910156 272.3125 244.9375 C 272.3125 244.59375 272.996094 243.445312 273.796875 242.355469 C 274.65625 241.269531 275.972656 238.976562 276.773438 237.257812 C 277.515625 235.539062 278.546875 233.703125 278.949219 233.246094 C 279.976562 231.984375 282.609375 226.882812 282.609375 226.082031 C 282.609375 225.738281 283.296875 224.535156 284.097656 223.445312 C 285.527344 221.554688 286.042969 220.523438 290.332031 211.410156 C 291.417969 209.003906 292.792969 206.425781 293.421875 205.679688 C 293.992188 204.933594 295.136719 202.871094 295.9375 201.152344 C 296.796875 199.433594 298.742188 195.652344 300.34375 192.84375 C 301.886719 189.976562 304.117188 185.792969 305.261719 183.5 C 306.40625 181.265625 307.496094 179.375 307.722656 179.375 C 307.894531 179.433594 309.609375 182.585938 311.5 186.425781 Z M 311.5 186.425781 "/>
<path style=" stroke:none;fill-rule:nonzero;fill:rgb(0%,0%,0%);fill-opacity:1;" d="M 296.453125 233.933594 C 296.167969 234.332031 295.882812 237.3125 295.882812 240.582031 C 295.882812 245.164062 296.050781 246.597656 296.683594 246.828125 C 297.882812 247.285156 299.257812 245.851562 298.914062 244.648438 C 298.511719 243.332031 299.542969 241.269531 300.570312 241.269531 C 301.03125 241.269531 302.175781 242.585938 303.144531 244.191406 C 304.40625 246.140625 305.261719 247 305.949219 246.882812 C 307.378906 246.597656 307.4375 244.59375 306.007812 242.988281 C 305.320312 242.183594 304.40625 240.980469 303.890625 240.238281 C 303.089844 238.976562 303.144531 238.804688 304.804688 237.257812 C 306.523438 235.710938 307.324219 233.246094 306.121094 233.246094 C 304.632812 233.246094 302.804688 234.449219 302.058594 235.882812 C 301.203125 237.542969 299.828125 238.917969 299.027344 238.976562 C 298.796875 238.976562 298.628906 238 298.683594 236.796875 C 298.914062 233.644531 297.824219 232.328125 296.453125 233.933594 Z M 296.453125 233.933594 "/>
<path style=" stroke:none;fill-rule:nonzero;fill:rgb(0%,0%,0%);fill-opacity:1;" d="M 53.71875 173.128906 C 53.144531 173.472656 52.976562 272.5 53.546875 273.417969 C 53.71875 273.703125 85.753906 273.933594 133.066406 273.933594 L 212.242188 273.933594 L 212.128906 223.503906 L 211.957031 173.070312 L 133.125 172.898438 C 89.703125 172.84375 54.003906 172.957031 53.71875 173.128906 Z M 208.808594 223.214844 L 208.808594 269.921875 L 56.636719 269.921875 L 56.636719 176.507812 L 208.808594 176.507812 Z M 208.808594 223.214844 "/>
<path style=" stroke:none;fill-rule:nonzero;fill:rgb(0%,0%,0%);fill-opacity:1;" d="M 129.578125 212.671875 C 129.347656 212.957031 129.347656 213.933594 129.578125 214.734375 L 129.917969 216.222656 L 134.953125 215.824219 C 137.871094 215.59375 140.160156 215.652344 140.390625 215.9375 C 140.847656 216.683594 139.128906 218.917969 138.101562 218.917969 C 137.644531 218.917969 137.070312 219.433594 136.84375 220.007812 C 136.441406 221.039062 134.269531 223.847656 130.089844 228.660156 C 128.089844 230.953125 127.402344 232.613281 127.917969 234.046875 C 128.203125 234.847656 129.460938 234.964844 137.300781 234.964844 C 145.9375 234.964844 146.394531 234.90625 146.738281 233.816406 C 147.539062 231.355469 146.167969 230.835938 140.046875 231.296875 C 133.296875 231.753906 133.066406 231.410156 137.242188 226.828125 C 142.675781 220.921875 145.308594 216.855469 145.308594 214.332031 L 145.308594 212.039062 L 137.644531 212.039062 C 132.835938 212.039062 129.804688 212.269531 129.578125 212.671875 Z M 129.578125 212.671875 "/>
</g>
</svg>
