<?xml version="1.0" encoding="UTF-8" standalone="no"?>
<svg
   xmlns:dc="http://purl.org/dc/elements/1.1/"
   xmlns:cc="http://creativecommons.org/ns#"
   xmlns:rdf="http://www.w3.org/1999/02/22-rdf-syntax-ns#"
   xmlns:svg="http://www.w3.org/2000/svg"
   xmlns="http://www.w3.org/2000/svg"
   xmlns:sodipodi="http://sodipodi.sourceforge.net/DTD/sodipodi-0.dtd"
   xmlns:inkscape="http://www.inkscape.org/namespaces/inkscape"
   version="1.0"
   width="500.82401"
   height="181.77167"
   viewBox="0 0 400.6592 145.41733"
   preserveAspectRatio="xMidYMid meet"
   id="svg3227"
   inkscape:version="0.48.4 r9939"
   sodipodi:docname="a5b7b22c6432868ed76aa7344dc3574765fd9d33.svg">
  <defs
     id="defs3325" />
  <sodipodi:namedview
     pagecolor="#ffffff"
     bordercolor="#666666"
     borderopacity="1"
     objecttolerance="10"
     gridtolerance="10"
     guidetolerance="10"
     inkscape:pageopacity="0"
     inkscape:pageshadow="2"
     inkscape:window-width="1600"
     inkscape:window-height="824"
     id="namedview3323"
     showgrid="false"
     inkscape:zoom="0.816"
     inkscape:cx="450.33684"
     inkscape:cy="182.32007"
     inkscape:window-x="0"
     inkscape:window-y="24"
     inkscape:window-maximized="1"
     inkscape:current-layer="g3231"
     fit-margin-top="0"
     fit-margin-left="0"
     fit-margin-right="0"
     fit-margin-bottom="0" />
  <metadata
     id="metadata3229">
Created by potrace 1.10, written by Peter Selinger 2001-2011
<rdf:RDF>
  <cc:Work
     rdf:about="">
    <dc:format>image/svg+xml</dc:format>
    <dc:type
       rdf:resource="http://purl.org/dc/dcmitype/StillImage" />
  </cc:Work>
</rdf:RDF>
</metadata>
  <g
     transform="matrix(0.1,0,0,-0.1,-120.5422,150.56637)"
     id="g3231"
     style="fill:#000000;stroke:none">
    <path
       d="m 1726.7965,1503.8386 c -22.7454,-4.1355 -22.7454,-4.1355 -22.7454,-180.929 0,-127.1673 1.5508,-171.1072 6.7202,-177.8274 5.6864,-7.7541 27.3979,-8.788 233.657,-9.8219 l 227.4536,-1.5508 -0.5169,-277.59687 c -0.517,-246.58044 0,-277.59685 7.2371,-280.69849 4.6525,-1.55082 11.3727,0.51694 15.5082,4.65247 7.2372,6.72022 7.2372,21.71148 1.0339,120.44704 -6.7202,116.31153 -5.6863,417.17065 2.0678,429.57725 2.5847,4.6525 51.1771,6.2033 207.293,6.2033 112.176,0 204.7083,2.0677 206.2591,4.1355 4.6524,7.7541 4.1355,353.587 -0.517,358.2395 -4.6524,4.6525 -860.7053,9.8219 -883.4506,5.1694 z m 858.6375,-181.446 0,-152.4973 -416.1368,-1.5508 c -229.0045,-0.517 -421.3062,0 -427.5095,1.5508 l -11.8896,2.5847 0,149.3957 c 0,81.6765 1.5508,150.4296 3.6186,151.9804 1.5508,2.0677 194.3695,3.1016 427.5095,2.5847 l 424.4078,-1.5508 0,-152.4974 z"
       id="path3233"
       inkscape:connector-curvature="0" />
    <path
       d="m 1955.284,1413.891 c -8.271,-6.2033 -8.788,-14.4743 -6.2033,-93.5661 1.5508,-63.0667 4.1355,-88.3968 8.788,-91.4984 9.3049,-5.6864 71.8547,-5.1694 83.2274,1.0338 5.1694,2.5847 9.3049,10.8558 9.3049,17.576 0,13.4404 -6.7202,16.5421 -41.3552,19.1268 l -18.0929,1.5508 -0.517,71.3377 c 0,38.7706 -1.5508,71.8547 -2.5847,72.8886 -7.2371,6.2033 -24.8131,7.2372 -32.5672,1.5508 z"
       id="path3235"
       inkscape:connector-curvature="0" />
    <path
       d="m 2219.9573,1408.2047 c -11.3726,-12.4066 -11.8896,-17.576 -13.4404,-92.5323 -1.5508,-67.2022 -0.5169,-80.1257 6.2033,-85.8121 4.6524,-3.6185 11.8896,-5.6863 16.0251,-3.6185 7.2372,2.5847 8.2711,13.9573 7.2372,78.0579 -1.0339,72.3716 -0.517,75.9902 10.3388,83.7443 14.4743,9.8219 12.9235,29.4656 -3.1017,31.5334 -6.7202,1.0338 -15.5082,-3.6186 -23.2623,-11.3727 z"
       id="path3237"
       inkscape:connector-curvature="0" />
    <path
       d="m 2090.7223,1362.197 c -22.2284,-12.9235 -27.3978,-22.2284 -19.1268,-32.5672 8.788,-10.3388 22.7454,-8.788 31.0164,3.1016 4.1356,6.2033 13.9574,11.3727 22.7454,11.8896 12.4066,1.0339 16.0251,-1.0338 17.059,-10.3388 1.5508,-10.3388 -0.5169,-11.8896 -16.5421,-11.8896 -11.3726,0 -20.1606,-3.6186 -24.8131,-9.3049 -3.6186,-5.6863 -11.8896,-12.4066 -18.0929,-16.0251 -14.4743,-7.2372 -15.5082,-22.7454 -2.0677,-35.152 5.1694,-5.1694 11.3726,-14.4743 12.9235,-20.6776 2.0677,-6.7202 6.7202,-11.8896 9.8218,-12.4065 42.906,-2.5847 66.6853,-2.0678 69.27,1.5508 1.5508,2.5847 2.5847,29.9825 3.1016,60.482 0,49.6262 -1.0338,56.8634 -10.8557,66.6852 -16.5421,16.5421 -51.1771,19.1268 -74.4394,4.6525 z m 57.8973,-75.9902 c 0,-19.1268 -11.3727,-28.4317 -25.3301,-20.6776 -13.9573,7.2372 -13.9573,19.6437 0.517,34.635 13.4404,14.4743 24.8131,7.7541 24.8131,-13.9574 z"
       id="path3239"
       inkscape:connector-curvature="0" />
    <path
       d="m 2264.9311,1353.409 c -4.1355,-8.271 -7.7541,-19.1268 -7.7541,-24.2962 0.517,-13.4404 18.0929,-32.5672 30.4995,-32.5672 14.4743,0 30.4995,-23.7792 21.7115,-32.5672 -4.6525,-4.6525 -9.8219,-4.1355 -22.2284,3.1016 -20.1607,11.3727 -26.364,6.2033 -20.6776,-19.6437 l 4.1355,-19.6437 27.9147,-1.0339 c 31.0165,-1.5508 46.5247,4.1355 46.5247,16.0251 0,4.1356 3.6185,14.9913 8.271,23.2623 7.2372,14.9913 7.2372,16.5421 -1.5508,26.364 -5.1694,5.6863 -21.7115,16.0251 -37.2197,22.7454 -20.6776,9.3049 -26.8809,14.4743 -24.2962,20.6776 1.5508,4.1355 3.1016,9.3049 3.1016,10.3388 0,1.0338 3.6186,2.0677 7.7541,2.0677 4.6525,0 10.8558,-5.6863 13.9574,-12.9235 4.6525,-10.8557 9.3049,-12.9235 21.7115,-11.8896 12.4066,1.0339 16.5421,4.6525 17.576,13.4404 3.1016,22.2285 -12.4066,32.0503 -48.5924,32.0503 -31.0164,0 -33.0842,-1.0338 -40.8383,-15.5082 z"
       id="path3241"
       inkscape:connector-curvature="0" />
    <path
       d="m 1211.9241,1090.2865 c -5.6863,-8.271 -7.2372,-41.8721 -6.2033,-171.62411 0.517,-88.39677 3.1017,-162.83614 5.6864,-165.42084 2.5847,-2.5847 107.0066,-5.16941 231.5891,-5.68635 l 227.4537,-1.55082 0.5169,-69.78691 c 0,-38.25357 0.517,-72.88856 1.0339,-75.9902 1.5508,-10.85574 26.8809,-8.27104 27.3978,2.5847 0,4.65246 0.517,39.28745 1.0339,75.9902 l 1.0339,67.20221 206.7761,2.5847 206.776,2.58471 1.0339,165.42083 c 1.0339,98.73558 -0.517,168.52248 -3.6186,173.17498 -4.1355,6.7202 -60.9989,7.7541 -449.221,9.3049 -436.2974,1.0339 -444.5685,1.0339 -451.2887,-8.788 z m 873.6288,-27.3978 c 3.1017,-4.1355 5.1694,-59.9651 5.6864,-144.74325 l 1.0338,-138.53996 -29.9825,-0.51694 c -155.599,-2.06776 -818.8331,0.51694 -823.4856,3.10164 -4.6525,3.10164 -5.6863,39.28745 -4.1355,139.57384 1.5508,74.43937 4.1355,138.02297 6.2033,141.64157 5.6863,8.788 837.443,8.2711 844.6801,-0.5169 z"
       id="path3243"
       inkscape:connector-curvature="0" />
    <path
       d="m 1312.2105,990.51706 c -3.1017,-3.10164 -6.2033,-10.3388 -6.2033,-14.99126 0,-4.65246 -3.6186,-11.37268 -7.7541,-14.99126 -4.6525,-3.61859 -7.7541,-14.99127 -7.7541,-28.43171 0,-13.44044 -3.1016,-24.81313 -7.7541,-28.43171 -4.1355,-3.61858 -7.7541,-12.9235 -7.7541,-20.6776 0,-8.27105 -4.1355,-21.19455 -8.788,-29.98253 -10.8557,-18.60984 -6.2033,-32.05029 11.3727,-32.05029 10.3388,0 13.9574,3.10164 16.5421,15.50821 2.5847,15.5082 3.1016,15.5082 38.2536,15.5082 34.6349,0 35.6688,-0.51694 35.6688,-12.9235 0,-12.92351 16.5421,-26.36395 25.847,-20.67761 6.7203,4.13552 6.7203,37.21969 0,41.35521 -2.5847,1.55082 -5.1694,10.85574 -5.1694,20.16067 0,9.82186 -3.1016,20.16066 -7.2371,23.2623 -3.6186,3.10164 -8.2711,18.09291 -9.305,33.08417 -3.6185,40.83827 -13.4404,57.38035 -35.1519,59.44811 -9.8218,1.03388 -21.1945,-1.55082 -24.8131,-5.1694 z m 26.8809,-43.42297 c 1.5508,-4.65246 3.1016,-14.47432 3.1016,-22.74536 0,-7.75411 3.6186,-17.05903 7.7541,-20.67761 4.6525,-3.61858 7.7541,-11.88962 6.7202,-17.57596 -1.0338,-8.27104 -5.6863,-11.37269 -18.6098,-12.40657 -9.3049,-1.03388 -20.6776,1.03388 -24.2962,4.13553 -6.2033,5.1694 -6.2033,8.27104 0,21.19454 4.1355,7.7541 7.7541,22.22843 7.7541,32.05029 0,23.77924 10.8558,33.60111 17.576,16.02514 z"
       id="path3245"
       inkscape:connector-curvature="0" />
    <path
       d="m 1613.5866,991.55094 c -2.0678,-3.10164 -2.0678,-16.54208 0,-30.49946 2.5847,-19.12679 1.5508,-25.84701 -4.6525,-31.01641 -10.3388,-8.78798 -10.3388,-18.09291 -0.5169,-26.36395 10.3388,-8.78798 9.8218,-41.35521 -0.517,-49.10931 -7.7541,-5.1694 -7.2371,-7.23716 4.6525,-20.16066 7.7541,-8.27105 17.576,-13.44045 22.7454,-12.40657 8.271,1.55082 9.3049,9.30492 10.8557,88.39676 l 1.0339,86.329 -14.9913,0 c -8.271,0 -17.059,-2.5847 -18.6098,-5.1694 z"
       id="path3247"
       inkscape:connector-curvature="0" />
    <path
       d="m 1798.1342,984.83072 c -10.3388,-10.85574 -10.3388,-12.9235 -3.1016,-19.64372 6.7202,-7.23717 5.6863,-9.82187 -15.5082,-26.88089 l -23.2623,-19.12678 0.5169,-34.63499 c 0,-26.88089 2.5847,-37.73663 10.8557,-49.10931 9.305,-12.92351 13.9574,-14.47433 39.8044,-14.47433 25.847,0 29.9826,1.55082 40.3214,14.99127 9.3049,12.9235 9.8218,15.5082 3.1016,18.0929 -4.6525,1.55082 -12.9235,-0.51694 -19.1268,-4.65246 -22.2284,-15.5082 -52.2109,-4.13552 -38.2536,14.47432 4.1356,5.68634 16.0252,8.78798 34.635,9.82186 l 28.4317,1.55082 1.5509,21.19455 c 1.5508,18.60984 -1.0339,23.26231 -17.576,39.28745 l -18.6098,18.60984 11.3726,15.50821 c 6.2033,8.78798 9.8219,18.0929 8.2711,21.19454 -6.2033,9.8219 -31.5334,6.20328 -43.423,-6.20328 z m 23.7793,-61.51587 c 14.4743,-14.47433 0.5169,-38.77051 -19.6438,-32.56723 -17.059,5.68634 -10.8557,38.77051 7.7541,38.77051 3.1017,0 8.2711,-2.5847 11.8897,-6.20328 z"
       id="path3249"
       inkscape:connector-curvature="0" />
    <path
       d="m 1883.4293,993.10176 c -6.2033,-6.20328 -3.6186,-23.77924 4.6525,-33.08416 5.6863,-6.20329 6.7202,-11.37269 3.1016,-18.60985 -2.5847,-5.1694 -6.2033,-33.08417 -7.2371,-62.54975 -2.5847,-52.21096 -2.5847,-52.7279 9.3049,-55.82954 25.3301,-6.20328 27.9148,-1.03388 27.9148,54.27872 0,28.4317 -2.5847,57.89729 -6.2033,65.13445 -5.1694,10.85574 -4.6525,13.95738 3.6186,20.16067 6.7202,4.65246 8.271,10.3388 5.6863,20.16066 -2.5847,11.88962 -6.2033,13.95738 -20.6776,13.95738 -9.3049,0 -18.6099,-1.55082 -20.1607,-3.61858 z"
       id="path3251"
       inkscape:connector-curvature="0" />
    <path
       d="m 1429.5559,943.47551 c -5.1694,-5.1694 -7.2372,-22.74536 -7.2372,-63.58363 l 0,-56.34648 15.5082,0 15.5082,0 -1.5508,36.18581 c -1.0339,30.49947 0.517,38.25357 9.3049,48.59237 15.5082,18.09291 21.1946,7.23716 20.1607,-38.25357 -1.0339,-52.21095 -2.0678,-50.14319 20.1607,-48.07543 l 19.1268,1.55082 -2.0678,49.10931 c -2.0678,52.7279 -5.1694,63.58364 -21.7115,72.88856 -8.271,4.13552 -12.4065,3.61858 -19.6437,-2.5847 -11.3727,-10.3388 -20.6776,-10.3388 -32.0503,-0.51694 -7.2372,7.23716 -9.8219,7.23716 -15.5082,1.03388 z"
       id="path3253"
       inkscape:connector-curvature="0" />
    <path
       d="m 1695.2631,946.57715 c -9.3049,-1.03388 -17.059,-5.1694 -17.5759,-8.27104 0,-3.61858 -0.517,-30.49947 -1.0339,-60.48199 l -1.0339,-54.27872 18.0929,0 18.0929,0 0,38.77051 c 0.5169,53.76177 1.0339,55.3126 17.059,63.0667 31.0164,14.99126 11.3727,26.88088 -33.6011,21.19454 z"
       id="path3255"
       inkscape:connector-curvature="0" />
    <path
       d="m 1960.4534,933.13671 c -7.7541,-9.82186 -13.4404,-19.12679 -13.4404,-20.67761 0,-7.23716 19.6437,-3.10164 22.7453,4.13552 3.1017,8.27105 27.3979,10.33881 38.7705,3.10165 9.305,-6.20329 2.5847,-16.02515 -10.8557,-16.02515 -13.4405,0 -45.4907,-32.05029 -45.4907,-46.00767 0,-6.20328 3.6185,-17.05902 8.271,-23.77924 7.2372,-11.37269 11.8896,-12.92351 40.8383,-12.92351 50.1432,0 49.1093,-1.03388 49.1093,54.27871 0,47.5585 0,48.59238 -16.0252,61.51588 -11.8896,9.82186 -21.7114,13.44044 -38.2535,13.44044 -19.6438,0 -24.2962,-2.5847 -35.6689,-17.05902 z m 57.8973,-67.20222 c 1.5508,-16.54208 0,-19.12678 -11.3727,-22.22842 -25.3301,-6.20328 -32.0503,11.88962 -12.4065,32.56723 14.9912,16.02514 21.7114,12.9235 23.7792,-10.33881 z"
       id="path3257"
       inkscape:connector-curvature="0" />
    <path
       d="m 1562.9264,935.72141 c -6.7202,-7.23716 -8.7879,-19.64373 -8.7879,-49.62625 0,-44.97379 8.7879,-65.13446 28.4317,-65.13446 14.9912,0 20.1606,12.40657 9.3049,21.71149 -6.7202,5.68634 -7.7541,14.47432 -5.1694,54.27871 3.1016,43.93991 2.5847,48.07543 -6.2033,48.07543 -5.1694,0 -12.9235,-4.13552 -17.576,-9.30492 z"
       id="path3259"
       inkscape:connector-curvature="0" />
    <path
       d="m 2643.3313,1084.6002 c -416.6537,-2.5847 -428.5434,-3.1017 -435.7805,-12.4066 -5.6864,-8.271 -7.2372,-40.3213 -7.2372,-172.14106 l 0,-161.80226 13.4405,-5.1694 c 7.7541,-3.10164 92.0153,-5.1694 203.1574,-5.1694 l 189.7171,0 -2.0678,-72.88856 c -2.0678,-58.41423 -1.0339,-73.92243 4.6525,-77.54102 10.3388,-6.20328 12.9235,-5.68634 22.7453,3.61859 8.2711,8.27104 8.2711,21.71148 -0.5169,117.3454 l -2.5847,29.46559 238.3094,0 c 221.7673,0 238.3094,0.51694 241.928,9.30492 2.0677,4.65246 3.6185,81.67654 3.6185,170.59024 l 0,162.31916 -12.4065,9.8219 c -6.7202,5.1694 -16.0252,9.3049 -20.6776,8.788 -4.6525,-1.0339 -201.0897,-2.5847 -436.2975,-4.1355 z m 443.0177,-39.2875 c 3.6186,-9.3049 3.6186,-273.46131 0,-282.76623 -1.5508,-4.65246 -108.5574,-6.20328 -425.9587,-5.68634 -233.14,0 -425.4417,1.55082 -426.9925,3.10164 -3.6186,4.13552 -3.6186,282.24933 0.5169,288.45263 2.0678,3.1016 158.7006,5.1694 426.4756,5.1694 384.0865,0 422.857,-0.517 425.9587,-8.2711 z"
       id="path3261"
       inkscape:connector-curvature="0" />
    <path
       d="m 2383.8274,991.55094 c -2.0678,-3.10164 -3.6186,-41.87215 -4.1356,-86.329 0,-87.87982 1.5509,-93.56616 29.9826,-86.329 12.4065,3.10164 12.9235,5.1694 12.9235,38.77051 0,29.98253 1.5508,36.18581 10.3388,40.83827 14.9912,7.7541 20.6776,2.5847 20.1606,-19.64372 -0.5169,-44.97379 15.5082,-70.30386 38.7705,-61.51588 12.4066,4.65246 10.8558,33.08417 -2.5847,39.80439 -8.271,4.65246 -9.8218,9.30492 -7.2371,20.16067 2.0677,10.3388 0,16.54208 -7.7541,23.77924 -11.8896,10.85574 -13.9574,40.32133 -3.6186,49.10931 3.1016,2.5847 11.3727,9.30492 17.576,14.47433 6.2032,4.65246 11.8896,13.44044 12.9235,19.12678 1.0339,8.27104 -1.5508,10.85574 -14.9913,11.88962 -13.4404,1.55082 -18.6098,-1.55082 -29.9825,-16.54208 -7.2372,-9.82186 -15.5082,-24.29619 -17.576,-32.05029 -7.2371,-26.88088 -15.5082,-20.16066 -17.059,14.47433 -1.5508,32.56722 -1.5508,32.56722 -18.0929,34.11804 -8.788,1.03388 -17.576,-1.03388 -19.6437,-4.13552 z"
       id="path3263"
       inkscape:connector-curvature="0" />
    <path
       d="m 2571.4766,985.8646 c -5.1694,-5.1694 -9.3049,-15.5082 -9.3049,-21.71148 0,-12.40657 -14.4743,-29.46559 -24.8131,-29.46559 -6.7202,0 -13.4405,-18.60985 -8.788,-25.84701 5.6863,-8.78798 19.1268,-5.68634 21.7115,5.1694 4.1355,14.47433 26.8809,19.64373 35.6689,7.75411 8.271,-11.37269 5.1694,-18.09291 -8.788,-18.09291 -10.8558,0 -51.1771,-38.77051 -51.1771,-49.10931 0,-2.5847 6.7202,-11.37268 14.9913,-19.64372 13.4404,-12.40657 19.1267,-13.95739 49.1093,-13.95739 18.0929,0 34.635,1.55082 35.6688,4.13552 1.5509,2.06776 1.0339,25.84701 -1.0338,52.7279 -3.1017,48.59237 -3.1017,48.59237 -21.1946,60.99893 -9.8218,6.72022 -18.6098,13.44044 -19.6437,15.5082 -0.5169,2.06776 5.6863,8.27105 14.4743,12.92351 8.788,5.1694 15.5082,13.95738 15.5082,19.64372 0,13.44042 -29.9825,12.9235 -42.3891,-1.03388 z m 20.6776,-124.06563 c -1.0338,-14.99126 -3.6185,-17.57596 -15.5082,-19.12678 -12.4065,-1.55082 -14.4743,0 -14.4743,11.88962 0,14.99126 20.1607,35.66887 27.3978,28.94865 2.5847,-2.5847 3.6186,-12.40657 2.5847,-21.71149 z"
       id="path3265"
       inkscape:connector-curvature="0" />
    <path
       d="m 2720.8723,993.10176 c -7.7541,-7.23716 -3.1016,-27.39782 7.2372,-33.08416 22.7454,-11.88963 47.0415,12.9235 29.4656,30.49946 -6.7202,6.72022 -31.0164,8.27104 -36.7028,2.5847 z"
       id="path3267"
       inkscape:connector-curvature="0" />
    <path
       d="m 2657.8056,958.46677 c -11.8896,-15.5082 -12.9235,-19.64372 -7.2371,-29.98252 3.6185,-6.72022 6.7202,-26.88089 7.2371,-45.49073 0,-18.60985 3.6186,-39.80439 7.2372,-47.04155 6.7202,-13.44045 8.271,-13.95739 48.5924,-12.92351 l 41.8721,0.51694 0.517,53.24484 c 1.0338,58.93117 -4.6525,75.47325 -21.7115,65.13445 -7.7541,-4.65246 -9.8219,-13.95738 -10.8558,-49.10931 -1.5508,-47.55849 -6.7202,-58.93117 -22.2284,-50.66013 -8.271,4.13552 -9.8219,10.85574 -9.8219,38.25357 0,18.0929 2.0678,38.77051 5.1694,46.52461 6.2033,16.02514 -5.6863,49.10931 -17.5759,49.10931 -4.1355,0 -13.9574,-7.7541 -21.1946,-17.57597 z"
       id="path3269"
       inkscape:connector-curvature="0" />
    <path
       d="m 2795.8286,934.68753 c -19.6437,-26.36395 -11.8896,-41.87215 9.8219,-20.16067 11.3727,11.37269 35.6689,11.88963 39.2875,1.03388 1.5508,-3.10164 -5.6864,-9.82186 -14.9913,-14.99126 -26.8809,-13.44044 -51.694,-41.87215 -46.0077,-52.72789 11.8896,-22.74537 23.7793,-27.39783 63.0667,-25.84701 l 38.2536,1.55082 1.5508,36.18581 c 2.5847,52.72789 -1.5508,68.2361 -21.1945,80.12572 -9.305,5.68634 -25.847,10.3388 -37.7367,10.3388 -17.059,0 -22.7453,-2.5847 -32.0503,-15.5082 z m 54.7957,-70.8208 c -1.5508,-17.05902 -3.1016,-19.64372 -14.4743,-19.64372 -16.0252,0 -20.1607,14.99126 -7.2372,28.94864 14.9913,16.54209 23.7793,12.40657 21.7115,-9.30492 z"
       id="path3271"
       inkscape:connector-curvature="0" />
    <path
       d="m 3606.9077,1086.151 c -384.6035,-1.5508 -417.1707,-2.0678 -422.857,-10.3388 -9.8219,-12.9235 -9.3049,-333.94334 0,-342.21438 5.1694,-3.61858 68.753,-6.20328 202.1236,-6.72022 l 195.4033,-1.55082 0.517,-64.61752 1.0338,-64.61751 15.5083,0 15.5082,0 -1.5509,66.16833 c -1.0338,50.1432 0.517,65.6514 5.1694,65.6514 3.6186,0 108.0405,0 232.1062,0 124.0656,0 229.0044,1.03388 233.6569,3.10164 7.7541,3.10164 8.788,19.64373 8.788,172.658 0,129.23508 -1.5509,170.59028 -6.2033,174.72578 -10.8558,8.271 -41.3552,8.788 -479.2035,7.7541 z m 453.3565,-179.89518 -1.5508,-147.84487 -423.374,0 c -232.6231,0 -423.8909,1.03388 -425.4417,2.5847 -3.1017,3.10164 -2.0678,282.76625 1.5508,288.45255 1.5508,2.0678 193.3356,4.1356 426.4756,4.1356 l 423.374,0 -1.0339,-147.32798 z"
       id="path3273"
       inkscape:connector-curvature="0" />
    <path
       d="m 3672.5591,1013.7794 c -13.4405,-3.6186 -16.0252,-18.09294 -5.1694,-32.56726 8.271,-10.85574 9.3049,-15.5082 4.6524,-23.77925 -3.1016,-5.1694 -6.2032,-28.94864 -6.7202,-51.69401 -1.0339,-49.10931 -3.6186,-56.34647 -18.0929,-48.59237 -8.271,4.65246 -9.8218,11.37268 -9.8218,38.77051 0,18.0929 2.5847,38.77051 5.6863,45.49073 4.6525,9.82186 3.6186,16.02514 -2.5847,28.94865 -9.8219,18.0929 -17.576,20.16066 -29.4656,7.23716 -4.6524,-5.1694 -12.9235,-11.88962 -18.0929,-14.99126 -9.3049,-5.68635 -9.3049,-6.72023 2.5847,-22.74537 10.3388,-14.47432 11.8896,-21.19454 9.3049,-47.04155 -3.6185,-41.87215 3.6186,-51.17707 41.8722,-51.17707 16.0251,-0.51694 34.635,-0.51694 41.3552,-1.03388 6.7202,0 12.9235,1.03388 13.9574,2.06776 1.0339,0.51694 0,30.49946 -2.5847,66.16833 -3.1017,51.69402 -2.5847,66.16834 3.1016,72.37162 6.7202,8.27104 4.6525,31.01636 -3.1016,31.01636 -2.5847,0 -7.2372,1.0339 -11.3727,2.0678 -3.6186,1.0339 -10.3388,1.0339 -15.5082,-0.5169 z"
       id="path3275"
       inkscape:connector-curvature="0" />
    <path
       d="m 3334.9972,1006.0253 c -1.0339,-3.6186 -1.5508,-42.90606 -1.0339,-86.84597 l 1.0339,-80.12572 41.8721,-1.55082 c 36.1858,-1.03388 43.423,0 55.8296,9.82186 13.9574,10.85574 14.4743,12.40656 11.3727,48.07543 -3.6186,44.97379 -3.6186,42.38909 0,68.75304 2.5847,18.60984 1.0338,24.29618 -8.788,35.15192 -11.3727,11.37266 -16.5421,12.92346 -55.3126,12.92346 -29.4656,0 -43.423,-2.0677 -44.9738,-6.2032 z m 73.9224,-20.67764 c 8.2711,-8.27104 7.7541,-33.60111 0,-38.25357 -5.6863,-3.61858 -17.059,-4.65246 -35.1519,-2.5847 -5.6863,0.51694 -7.2372,38.25357 -1.5508,43.42297 5.6863,5.68634 29.9825,4.13552 36.7027,-2.5847 z m 2.0678,-63.06669 c 2.5847,-4.65246 4.1355,-20.67761 3.1016,-35.66887 l -1.5508,-26.88089 -20.6776,0 -20.6776,0 -1.5508,25.33007 c -2.5847,40.32133 1.5508,49.62625 20.1606,47.55849 9.305,-0.51694 18.6099,-5.1694 21.1946,-10.3388 z"
       id="path3277"
       inkscape:connector-curvature="0" />
    <path
       d="m 3488.5284,950.19573 c -9.3049,-12.40656 -11.3727,-22.22842 -11.3727,-56.34647 0,-36.70275 1.0339,-42.38909 11.3727,-49.10931 18.0929,-12.92351 57.3804,-10.85574 74.4394,3.61858 8.271,7.23716 12.4065,14.99126 10.3388,18.0929 -5.1694,8.78798 -26.364,7.7541 -34.1181,-1.55082 -10.8557,-12.9235 -27.9147,-7.7541 -29.9825,9.30492 -1.5508,13.95739 -1.0339,13.95739 26.8809,13.95739 23.7792,0 29.4656,2.06776 34.118,10.85574 7.2372,13.44044 3.1017,32.05029 -11.3726,51.69401 -9.8219,12.92351 -14.9913,14.99127 -35.152,14.99127 -20.6776,0 -25.33,-2.06776 -35.1519,-15.50821 z m 49.6263,-28.94864 c 1.0338,-11.88963 -1.0339,-17.05903 -7.7541,-18.60985 -15.5082,-4.13552 -22.2285,1.03388 -22.2285,16.02515 0,17.57596 4.1356,22.22842 18.0929,20.16066 7.2372,-1.03388 10.8558,-6.20328 11.8897,-17.57596 z"
       id="path3279"
       inkscape:connector-curvature="0" />
    <path
       d="m 3741.8291,959.50065 c -3.1017,-3.61858 -6.2033,-30.49946 -6.7203,-59.96505 -1.5508,-58.93117 2.0678,-68.75304 23.2623,-58.93117 11.3727,5.1694 12.4066,7.23716 9.8219,38.25357 -1.5508,18.0929 0,39.28745 3.1017,47.04155 5.1694,12.9235 6.7202,13.44044 16.542,8.27104 10.3388,-5.1694 10.8558,-8.27104 8.2711,-49.10931 -2.5847,-39.28745 -2.0678,-42.90603 6.7202,-46.00767 22.2284,-7.23717 27.3978,3.10164 26.3639,52.21095 -1.0338,64.10057 -10.8557,75.9902 -54.7956,68.75304 -2.5847,-0.51695 -9.8219,0.51694 -16.0252,2.5847 -6.7202,2.06776 -12.9235,0.51694 -16.542,-3.10165 z"
       id="path3281"
       inkscape:connector-curvature="0" />
    <path
       d="m 3870.5472,955.36513 c -17.0591,-14.47432 -11.3727,-25.847 11.8896,-22.22842 25.33,4.13552 24.2962,-5.1694 -4.6525,-31.53335 -39.2874,-36.18581 -28.9486,-56.34647 32.0503,-62.03281 53.7618,-4.65246 53.2448,-5.1694 53.2448,48.59237 0,41.87215 -1.0338,47.04155 -13.4404,61.51587 -11.8896,13.95739 -16.5421,16.02515 -39.8044,16.02515 -19.1268,-0.51694 -30.4995,-3.61858 -39.2874,-10.33881 z m 53.7617,-75.47325 c 0,-18.09291 -1.5508,-20.16067 -12.9235,-20.16067 -16.5421,0 -20.6776,19.64373 -7.2371,34.11805 12.9235,14.47432 20.1606,9.30492 20.1606,-13.95738 z"
       id="path3283"
       inkscape:connector-curvature="0" />
    <path
       d="m 5071.916,649.33658 c -2.0678,-6.20328 -3.1016,-73.4055 -2.0678,-148.87875 l 2.0678,-136.98914 -49.1093,1.55082 c -33.6011,1.55082 -51.694,4.65247 -57.3804,9.30493 -7.2371,6.72022 -8.7879,6.72022 -11.3726,-0.51694 -2.5847,-6.20329 -13.4405,-7.75411 -56.8635,-7.75411 -34.118,0 -55.3126,2.06776 -59.4481,6.20329 -4.6524,4.65246 -8.788,4.65246 -18.0929,-0.51694 -7.2371,-3.61859 -26.8809,-5.68635 -50.1432,-4.65247 l -38.7705,1.55082 1.0339,18.09291 c 8.271,153.53122 8.271,157.66674 0,164.38696 -6.2033,5.1694 -10.8557,5.68634 -19.1268,1.03388 -10.3388,-5.68634 -10.8557,-8.27104 -7.2371,-71.33774 2.0677,-36.18581 6.7202,-73.4055 10.8557,-83.22736 10.8557,-27.39782 2.0678,-33.08417 -53.7618,-32.56723 -24.8131,0 -48.0754,0 -51.177,0.51694 -4.1356,0.51694 -5.1695,26.88089 -3.1017,93.04923 2.5847,91.4984 2.5847,92.53228 -8.788,96.15086 -23.7792,7.23716 -26.8809,-3.10164 -23.2623,-77.02408 1.5508,-37.21969 5.1694,-74.43938 7.7541,-82.71042 3.1017,-9.82186 2.5847,-17.05902 -1.0339,-21.71148 -6.2032,-7.23717 -75.9902,-14.99127 -95.1169,-10.33881 l -12.9235,3.10164 0,93.56617 c 0,79.60878 -1.0339,93.04922 -8.2711,96.15086 -17.5759,6.72022 -20.1606,-6.72022 -18.0929,-98.73556 1.0339,-71.85468 0.517,-89.94759 -5.1694,-92.01535 -4.1355,-1.55082 -27.9148,-1.55082 -53.2448,0 l -45.4908,2.5847 3.6186,83.7443 c 3.6186,86.84595 2.0678,105.97273 -10.3388,105.97273 -12.4065,0 -14.4743,-23.26231 -10.8557,-109.59131 l 3.6186,-81.67654 -44.4569,0 c -24.8131,0 -49.6262,2.5847 -55.3126,5.68635 -7.7541,4.13552 -13.4404,4.13552 -21.7115,0 -6.7202,-3.61859 -27.9147,-5.68635 -52.2109,-4.65247 l -41.3552,1.55082 1.0339,18.09291 c 9.3049,136.47219 9.3049,156.11592 1.0338,163.35308 -23.2623,20.6776 -26.8809,5.1694 -24.8131,-100.80333 l 2.0678,-85.81206 -51.694,1.55082 c -28.4318,0.51694 -53.7618,3.61858 -56.3465,6.20329 -3.1017,3.10164 -8.2711,2.5847 -14.4743,-0.51694 -12.9235,-6.72023 -93.0493,-10.33881 -102.3542,-4.65247 -6.2033,3.61859 -7.2371,25.84701 -5.6863,126.13339 l 1.5508,121.99787 -16.5421,0 -16.0251,0 1.0338,-121.48093 c 0.517,-66.68527 -0.5169,-123.03174 -2.5847,-125.09951 -5.6863,-6.20328 -87.8798,-1.03388 -92.0153,5.16941 -2.0678,3.61858 -2.5847,19.12678 -1.5508,34.63498 10.3388,131.81974 7.2371,158.18368 -17.059,145.26018 -10.8558,-5.68634 -11.3727,-9.82186 -11.3727,-69.26998 0.5169,-38.77051 3.1016,-70.30385 7.2371,-82.19348 11.3727,-32.05028 4.1356,-36.70275 -51.177,-33.60111 -54.2787,3.10165 -42.3891,3.10165 -114.2438,0 l -57.3804,-2.06776 0.517,94.60005 c 0.5169,91.4984 0,94.60004 -9.8219,94.60004 -9.8218,0 -10.3388,-3.10164 -9.8218,-93.04922 0.5169,-51.17708 -1.5509,-94.60005 -3.6186,-96.15087 -6.7202,-4.13552 -81.6766,-2.06776 -85.8121,2.5847 -2.0677,2.06777 -3.1016,43.93992 -2.0677,93.56617 1.5508,94.0831 -1.0339,105.45578 -20.1607,87.87982 -5.6863,-5.1694 -8.788,-10.85574 -7.7541,-12.92351 1.5508,-2.06776 3.6186,-31.53334 5.6863,-64.61751 1.5509,-33.60111 5.1694,-66.68528 7.7541,-73.92244 8.788,-22.22842 1.5509,-32.05029 -23.2623,-32.05029 -12.4065,0 -36.1858,-1.55082 -53.2448,-3.10164 -27.3978,-3.10164 -32.0503,-2.06776 -36.1858,6.20329 -3.1017,6.20328 -3.6186,40.83826 -1.0339,92.01534 4.6525,86.329 3.1017,96.15086 -16.5421,96.15086 -13.9574,0 -16.0251,-14.47432 -13.9574,-109.07437 l 1.5509,-84.77818 -47.0416,-1.55082 c -33.6011,-1.03388 -48.5924,0.51694 -52.2109,5.1694 -3.6186,4.65247 -4.1356,34.63499 -2.0678,89.43065 4.1355,84.77818 1.5508,102.87108 -13.9574,99.76944 -7.7541,-1.55082 -8.788,-11.37268 -8.271,-96.15086 0.5169,-110.62519 7.2371,-101.83721 -72.8886,-94.60005 -28.4317,2.5847 -53.7618,3.61859 -55.8295,2.06776 -2.5847,-1.55082 -25.847,-2.06776 -51.694,-1.55082 -69.27,1.03388 -69.27,1.03388 -121.9979,-1.03388 -51.694,-1.55082 -67.2022,3.61858 -59.4481,21.19455 2.0677,4.65246 5.1694,43.93991 6.2033,87.36288 l 2.0677,79.09184 -17.5759,-1.55082 -17.0591,-1.55082 1.5509,-69.78692 c 1.0338,-38.25357 4.1355,-76.50714 7.2371,-84.26124 4.6525,-11.88962 4.1355,-16.02514 -3.1016,-23.2623 -11.3727,-11.37269 -75.9902,-15.50821 -84.2613,-5.68635 -3.6185,5.16941 -4.1355,31.01641 -2.0677,79.60878 4.1355,77.54102 1.0339,92.01535 -16.5421,89.43064 -11.3727,-1.55082 -11.3727,-3.10164 -11.3727,-82.71042 0,-44.45685 -2.0677,-82.71041 -3.6186,-84.77818 -3.1016,-2.5847 -63.5836,-4.13552 -98.7355,-2.06776 -2.5847,0 -3.1017,40.32133 -1.5508,89.43065 3.6185,97.18474 1.5508,107.52354 -19.1268,98.21862 -12.4066,-5.68634 -12.4066,-6.72022 -10.3388,-56.86341 1.0338,-27.91477 4.1355,-65.6514 6.7202,-83.7443 3.1016,-23.26231 3.1016,-35.66887 -1.0339,-40.32133 -7.2372,-8.78799 -97.7017,-9.30493 -106.4897,-0.51694 -4.6524,4.65246 -8.7879,4.65246 -18.0929,-0.51694 -16.0251,-8.78799 -109.5913,-10.33881 -117.8623,-2.06776 -4.6525,4.65246 -4.6525,11.37268 0,29.46558 8.788,35.15193 7.7541,145.26018 -1.5508,152.49734 -15.5082,12.9235 -18.6099,-9.82186 -13.9574,-96.15086 3.1016,-47.5585 3.1016,-83.7443 0,-86.329 -2.0678,-2.58471 -26.8809,-4.13553 -54.7957,-3.61859 -60.482,2.06776 -60.482,2.06776 -113.2099,-2.5847 -33.0841,-2.5847 -42.906,-1.55082 -46.5246,3.61858 -2.5847,4.13553 -4.6524,48.07544 -4.6524,97.70169 l 0,90.46452 -12.9235,0 -12.9235,0 0,-95.63392 0,-95.63393 -108.0405,0 c -92.5323,0 -110.1083,1.03388 -118.8962,8.27105 -9.305,7.7541 -9.8219,10.3388 -4.1356,22.74536 3.6186,8.27104 8.2711,45.49073 9.8219,82.71042 3.1016,67.20222 2.5847,68.75304 -8.271,74.95632 -9.305,4.65246 -13.4405,4.65246 -19.6438,-1.03388 -6.7202,-5.68634 -7.7541,-17.57597 -5.1694,-81.67654 1.0339,-41.35521 3.6186,-78.5749 5.6864,-82.71042 7.2371,-18.09291 -5.1694,-23.26231 -56.8634,-23.26231 -39.2875,0 -50.1432,1.55082 -53.2449,7.75411 -2.0677,4.13552 -2.0677,42.90603 0.517,85.29512 4.1355,82.71042 3.1016,100.80332 -8.2711,100.80332 -17.5759,0 -19.1268,-12.40656 -13.9574,-99.2525 2.5847,-49.62626 3.1017,-86.329 0,-88.9137 -6.7202,-7.23717 -99.2525,-5.68635 -112.6929,2.06776 -8.788,4.65246 -13.4405,4.65246 -18.6099,0 -9.3049,-7.75411 -77.541,-9.82187 -84.7781,-2.58471 -3.6186,3.61859 -4.1356,33.08417 -1.0339,87.87983 2.0677,45.49073 2.0677,86.84594 -0.517,92.01534 -5.6863,10.85574 -22.7453,11.37268 -26.8808,0.51694 -1.5509,-4.65246 -1.5509,-44.97379 0.5169,-89.94758 2.5847,-71.33774 2.0678,-83.7443 -5.1694,-95.11699 -10.3388,-15.5082 -11.3727,-32.05028 -2.0678,-37.73663 4.6525,-3.10164 2722.7237,-4.13552 3593.2508,-1.03388 107.5236,0 197.4712,-1.55082 199.5389,-4.13552 2.0678,-2.06776 5.1694,-8.78798 6.2033,-13.95738 3.6186,-21.19454 17.059,-21.19454 41.8721,-1.03388 12.9235,10.3388 24.8132,22.74537 26.364,26.88089 4.1355,10.85574 -4.1355,27.91476 -23.2623,49.62625 -9.8219,10.3388 -20.6776,22.22842 -24.2962,27.39782 -11.3727,13.44045 -19.1268,6.20329 -21.7115,-21.19454 -2.5847,-24.81313 -3.1016,-25.33007 -21.1945,-26.88089 -10.8558,-1.03388 -20.6776,1.03388 -23.2623,5.1694 -3.6186,4.13553 -4.1356,49.62626 -2.0678,121.48093 3.6186,133.8875 1.0339,168.52248 -11.3727,171.10718 -5.1694,1.03388 -9.8218,-3.10164 -11.8896,-10.3388 z"
       id="path3291"
       inkscape:connector-curvature="0" />
    <path
       d="m 1464.1909,553.70266 c -4.1355,-4.13552 -4.1355,-143.19242 0,-153.53122 1.5508,-4.65246 5.1694,-8.27104 7.2371,-8.27104 9.305,0 15.5083,36.18581 16.5421,95.11698 1.5509,58.41424 1.0339,61.51588 -9.8218,65.13446 -5.6864,2.5847 -12.4066,3.10164 -13.9574,1.55082 z"
       id="path3293"
       inkscape:connector-curvature="0" />
    <path
       d="m 3968.2488,546.98244 c -8.7879,-8.78798 -9.8218,-14.99127 -7.7541,-41.35521 1.5509,-17.05903 3.6186,-44.97379 5.1694,-62.03282 3.1017,-36.18581 10.8558,-55.82953 19.6438,-47.04155 5.1694,5.1694 13.9573,135.95525 9.8218,148.87876 -3.6186,10.85574 -16.5421,11.88962 -26.8809,1.55082 z"
       id="path3295"
       inkscape:connector-curvature="0" />
    <path
       d="m 4208.1091,549.56714 c -4.6525,-10.85574 0,-150.94652 4.6524,-155.59898 2.0678,-2.06776 7.7541,0 12.9235,4.65246 7.2372,7.7541 9.3049,21.19455 10.3388,77.02408 1.5508,60.48199 1.0339,69.26998 -7.2371,74.95632 -11.8897,8.78798 -17.0591,8.27104 -20.6776,-1.03388 z"
       id="path3297"
       inkscape:connector-curvature="0" />
    <path
       d="m 4949.9181,551.11796 c -0.5169,-3.61858 -0.5169,-39.28745 0.517,-79.09184 1.0339,-75.47326 5.6863,-98.73556 14.4743,-74.95632 7.2372,19.12679 11.3727,140.60771 5.6863,151.46346 -5.6863,10.3388 -19.6437,11.88962 -20.6776,2.5847 z"
       id="path3299"
       inkscape:connector-curvature="0" />
    <path
       d="m 1852.4129,548.53326 c -4.6524,-4.13552 -3.6186,-112.17601 1.0339,-133.37055 1.5508,-8.27105 6.7202,-16.02515 11.3727,-17.05903 11.8896,-2.06776 14.9912,18.60985 14.9912,92.53228 0,60.99894 0,61.51588 -11.8896,61.51588 -6.7202,0 -13.9574,-1.55082 -15.5082,-3.61858 z"
       id="path3301"
       inkscape:connector-curvature="0" />
    <path
       d="m 2093.307,545.94856 c -6.7202,-9.30493 0,-136.98914 7.7541,-144.74324 3.1017,-3.10164 7.7541,-4.65246 9.3049,-2.5847 6.7203,6.20328 12.4066,139.57384 6.2033,146.811 -6.7202,8.27104 -17.059,8.78798 -23.2623,0.51694 z"
       id="path3303"
       inkscape:connector-curvature="0" />
    <path
       d="m 2346.0907,477.19552 c 1.0339,-52.72789 3.6186,-76.50714 8.2711,-81.1596 5.6863,-5.68634 8.271,-5.1694 14.4743,3.10164 5.1694,7.7541 7.2372,27.91477 7.2372,81.67654 l 0,71.33774 -16.0252,0 -16.0251,0 2.0677,-74.95632 z"
       id="path3305"
       inkscape:connector-curvature="0" />
    <path
       d="m 2842.8702,543.8808 c -4.6525,-12.92351 2.0678,-124.06563 8.271,-135.95526 14.9913,-27.39782 21.1946,-3.10164 21.1946,82.71042 l 0,61.51588 -12.9235,0 c -7.2372,0 -14.4743,-3.61858 -16.5421,-8.27104 z"
       id="path3307"
       inkscape:connector-curvature="0" />
    <path
       d="m 2966.9358,544.39774 c -5.1694,-14.47433 1.0339,-131.30279 7.7541,-138.02302 13.4405,-13.44044 19.1268,5.16941 22.2284,69.78692 1.5509,34.63499 1.5509,66.16834 0.517,69.78692 -3.1017,8.78798 -26.364,7.7541 -30.4995,-1.55082 z"
       id="path3309"
       inkscape:connector-curvature="0" />
    <path
       d="m 3603.2891,545.94856 c -7.2371,-9.82187 -1.0339,-136.4722 7.2372,-144.74324 13.9574,-13.95738 18.0929,4.13552 18.6098,77.02408 0.517,68.75304 0,71.33774 -10.3388,72.88856 -5.6863,1.03388 -12.9235,-1.55082 -15.5082,-5.1694 z"
       id="path3311"
       inkscape:connector-curvature="0" />
    <path
       d="m 4812.929,544.39774 c -4.6525,-11.88963 2.5847,-131.81973 8.788,-143.19242 2.5847,-5.1694 7.2371,-9.30492 9.8218,-9.30492 8.788,0 12.4066,27.39783 12.9235,93.04922 l 0,64.61752 -14.4743,1.55082 c -9.3049,1.03388 -14.9912,-1.03388 -17.059,-6.72022 z"
       id="path3313"
       inkscape:connector-curvature="0" />
    <path
       d="m 5038.3149,255.42821 c -21.7115,-23.77925 -1.0339,-42.90603 25.847,-23.77925 19.1268,13.95739 25.847,9.82186 25.847,-14.99126 0,-18.09291 -1.5508,-20.16067 -15.5082,-22.74537 -19.6437,-4.13552 -20.6776,-18.0929 -1.0339,-20.16066 13.4405,-1.55082 13.9574,-3.10164 15.5082,-31.01641 1.5508,-26.88088 0.517,-29.98253 -8.271,-29.98253 -5.6864,0 -12.9235,3.61859 -16.5421,7.75411 -6.2033,7.7541 -36.1858,11.37268 -36.1858,4.13552 0,-1.55082 4.1355,-12.40657 8.788,-23.26231 l 8.788,-19.643723 31.5333,0 c 31.5333,0 32.0503,0 45.4907,21.194543 16.0252,24.29619 17.576,46.00767 5.6864,66.68528 -8.2711,13.44044 -8.2711,14.99126 0,26.36394 12.4065,18.09291 10.3388,33.08417 -7.7541,53.76178 -14.4744,16.54208 -18.6099,18.0929 -42.9061,18.0929 -22.2284,0 -29.4655,-2.5847 -39.2874,-12.40656 z"
       id="path3315"
       inkscape:connector-curvature="0" />
    <path
       d="m 1318.9307,239.40306 c -12.4066,-12.9235 -12.9235,-15.5082 -12.9235,-79.60877 0,-59.44812 1.0339,-67.719161 10.8558,-80.125724 8.7879,-11.372682 14.4743,-13.440443 37.7366,-13.440443 21.7115,0 29.4656,2.584701 38.2535,11.889623 10.3389,11.372683 11.3727,17.575964 11.3727,80.642664 0,67.20221 0,68.23609 -13.4404,80.64265 -19.6437,18.09291 -53.2448,18.09291 -71.8547,0 z m 50.6601,-44.45685 c 8.2711,-63.06669 -6.2032,-123.548686 -22.7453,-97.184739 -6.2033,10.338799 -5.6864,111.659069 1.0339,124.065629 9.3049,17.57596 17.5759,7.7541 21.7114,-26.88089 z"
       id="path3317"
       inkscape:connector-curvature="0" />
    <path
       d="m 3809.0313,241.98776 c -20.6776,-12.9235 -25.847,-24.29618 -14.9913,-34.63498 10.3388,-10.33881 32.5672,-5.1694 37.2197,8.78798 4.1355,12.40656 15.5082,13.44044 20.1607,2.06776 6.7202,-18.09291 2.5847,-38.25357 -11.8897,-54.79565 -7.7541,-9.30493 -16.0251,-22.22843 -18.0929,-28.94865 -2.0677,-6.20328 -10.8557,-14.99126 -19.1267,-19.12679 -16.5421,-8.78798 -19.6438,-24.813121 -8.2711,-40.321325 5.1694,-7.754101 13.9574,-8.787982 55.3126,-7.754101 43.423,1.55082 49.1093,2.5847 50.6601,11.372682 3.1017,14.474324 -8.7879,19.126785 -38.2535,15.508204 -21.7115,-2.584701 -26.8809,-1.55082 -29.4656,5.169401 -2.5847,6.203279 0.5169,9.821859 8.788,13.440439 7.2371,2.5847 13.9574,9.30493 16.0251,14.99127 1.5508,5.68634 7.7541,11.88962 13.4405,13.44044 5.1694,2.06776 9.8218,7.23716 9.8218,12.40656 0,5.16941 4.6525,13.44045 10.3388,18.60985 20.1607,18.60984 10.8558,58.41423 -17.059,71.33774 -23.7792,11.37268 -43.9399,10.85574 -64.6175,-1.55083 z"
       id="path3319"
       inkscape:connector-curvature="0" />
    <path
       d="m 2610.2471,228.03038 c -1.5508,-5.1694 -10.8557,-16.54208 -20.6776,-25.33006 -17.5759,-16.54209 -21.1945,-29.46559 -11.8896,-43.42297 4.6525,-6.72023 6.2033,-6.72023 12.4066,1.55082 3.6186,4.65246 9.8218,8.78798 13.4404,8.78798 5.1694,0 6.2033,-11.37268 3.6186,-52.72789 -2.0678,-29.465592 -1.5508,-56.346478 1.0339,-59.965059 2.5847,-4.135521 10.8557,-6.203281 19.1268,-5.169401 l 14.9912,1.55082 0,90.46452 0,90.46452 -14.4743,1.55082 c -9.8219,1.03388 -14.9913,-1.03388 -17.576,-7.7541 z"
       id="path3321"
       inkscape:connector-curvature="0" />
  </g>
</svg>
