<?xml version="1.0" encoding="UTF-8" standalone="no"?>
<svg
   xmlns:dc="http://purl.org/dc/elements/1.1/"
   xmlns:cc="http://creativecommons.org/ns#"
   xmlns:rdf="http://www.w3.org/1999/02/22-rdf-syntax-ns#"
   xmlns:svg="http://www.w3.org/2000/svg"
   xmlns="http://www.w3.org/2000/svg"
   xmlns:sodipodi="http://sodipodi.sourceforge.net/DTD/sodipodi-0.dtd"
   xmlns:inkscape="http://www.inkscape.org/namespaces/inkscape"
   version="1.0"
   width="500.73203"
   height="57.366814"
   viewBox="0 0 400.58562 45.893451"
   preserveAspectRatio="xMidYMid meet"
   id="svg3247"
   inkscape:version="0.48.4 r9939"
   sodipodi:docname="a617695399f2718589e6d353c0efeec2c1070f72.svg">
  <defs
     id="defs3305" />
  <sodipodi:namedview
     pagecolor="#ffffff"
     bordercolor="#666666"
     borderopacity="1"
     objecttolerance="10"
     gridtolerance="10"
     guidetolerance="10"
     inkscape:pageopacity="0"
     inkscape:pageshadow="2"
     inkscape:window-width="1600"
     inkscape:window-height="824"
     id="namedview3303"
     showgrid="false"
     inkscape:zoom="0.816"
     inkscape:cx="411.92073"
     inkscape:cy="81.530528"
     inkscape:window-x="0"
     inkscape:window-y="24"
     inkscape:window-maximized="1"
     inkscape:current-layer="svg3247"
     fit-margin-top="0"
     fit-margin-left="0"
     fit-margin-right="0"
     fit-margin-bottom="0" />
  <metadata
     id="metadata3249">
Created by potrace 1.10, written by Peter Selinger 2001-2011
<rdf:RDF>
  <cc:Work
     rdf:about="">
    <dc:format>image/svg+xml</dc:format>
    <dc:type
       rdf:resource="http://purl.org/dc/dcmitype/StillImage" />
  </cc:Work>
</rdf:RDF>
</metadata>
  <g
     transform="matrix(0.04459942,0,0,-0.04459942,-0.80915943,52.168115)"
     id="g3251"
     style="fill:#000000;stroke:none">
    <path
       d="m 3250,1161 -45,-6 -3,-88 c -2,-57 1,-94 9,-103 8,-9 33,-14 76,-14 64,0 64,0 61,28 -3,24 -7,27 -38,27 -39,0 -63,11 -55,26 4,5 21,9 40,9 37,0 56,17 34,31 -8,5 -26,9 -41,9 -49,0 -28,33 21,34 22,1 52,29 41,39 -11,10 -58,13 -100,8 z"
       id="path3253"
       style="fill:#000000"
       inkscape:connector-curvature="0" />
    <path
       d="m 3970,1163 c -24,-3 -48,-10 -52,-16 -4,-7 -8,-52 -8,-100 0,-72 3,-89 16,-94 22,-8 46,25 38,50 -7,23 10,37 49,37 20,0 27,5 27,20 0,16 -7,20 -36,20 -24,0 -34,4 -31,13 2,6 15,12 28,12 32,0 49,12 49,35 0,14 -26,36 -33,28 -1,-1 -22,-3 -47,-5 z"
       id="path3255"
       style="fill:#000000"
       inkscape:connector-curvature="0" />
    <path
       d="m 7748,1135 c -26,-40 -42,-40 -46,-1 -3,21 -8,27 -25,24 -21,-3 -22,-9 -25,-94 -2,-73 0,-94 13,-104 20,-16 32,-5 37,34 5,43 21,42 47,-4 16,-30 29,-40 47,-40 32,0 30,18 -6,60 -31,37 -38,74 -16,87 7,4 19,19 26,32 10,19 10,25 -1,32 -22,14 -28,11 -51,-26 z"
       id="path3257"
       style="fill:#000000"
       inkscape:connector-curvature="0" />
    <path
       d="m 349,1133 c -6,-16 -15,-35 -19,-43 -4,-9 -11,-30 -14,-48 -4,-17 -12,-34 -17,-37 -5,-4 -9,-17 -9,-31 0,-32 24,-31 54,1 13,14 29,25 36,25 7,0 23,-11 36,-25 29,-32 54,-33 54,-2 0,13 -4,27 -8,33 -4,5 -19,42 -32,82 -21,62 -28,72 -47,72 -16,0 -27,-9 -34,-27 z"
       id="path3259"
       style="fill:#000000"
       inkscape:connector-curvature="0" />
    <path
       d="m 1036,1144 c -11,-29 -7,-169 6,-182 18,-18 82,-15 117,6 32,18 42,57 21,78 -8,8 -7,19 2,39 11,25 10,29 -17,51 -37,29 -119,34 -129,8 z m 88,-40 c 7,-19 -1,-34 -19,-34 -18,0 -28,17 -21,35 7,20 32,19 40,-1 z m 16,-78 c 0,-16 -34,-31 -50,-21 -22,14 -10,35 20,35 19,0 30,-5 30,-14 z"
       id="path3261"
       style="fill:#000000"
       inkscape:connector-curvature="0" />
    <path
       d="m 1777,1135 c -24,-23 -32,-50 -28,-95 4,-42 13,-57 46,-74 34,-18 36,-19 75,-1 39,17 58,45 45,65 -9,15 -41,12 -55,-5 -7,-9 -23,-15 -34,-13 -16,2 -22,11 -24,41 -4,45 11,54 64,37 30,-10 38,-10 45,1 14,22 11,28 -23,49 -44,27 -78,25 -111,-5 z"
       id="path3263"
       style="fill:#000000"
       inkscape:connector-curvature="0" />
    <path
       d="m 2476,1144 c -11,-29 -7,-169 6,-182 17,-17 74,-15 106,5 42,26 52,43 52,91 0,36 -5,49 -31,73 -25,24 -40,29 -79,29 -34,0 -50,-4 -54,-16 z m 98,-53 c 32,-35 3,-94 -38,-78 -29,11 -16,97 14,97 4,0 15,-9 24,-19 z"
       id="path3265"
       style="fill:#000000"
       inkscape:connector-curvature="0" />
    <path
       d="m 4636,1125 c -27,-26 -36,-43 -36,-67 1,-58 76,-121 119,-99 11,6 32,9 46,5 24,-6 25,-4 25,39 0,47 -19,79 -43,73 -47,-14 -50,-17 -39,-28 18,-18 14,-38 -6,-38 -28,0 -55,35 -47,59 10,32 37,42 74,28 24,-9 33,-9 43,2 11,10 7,17 -17,37 -42,34 -76,31 -119,-11 z"
       id="path3267"
       style="fill:#000000"
       inkscape:connector-curvature="0" />
    <path
       d="m 5416,1143 c -6,-24 -7,-153 0,-175 3,-10 12,-18 19,-18 19,0 37,36 30,60 -5,15 0,21 20,26 33,8 43,-1 47,-46 2,-27 7,-35 23,-35 19,0 20,7 20,100 0,93 -1,100 -20,100 -15,0 -21,-8 -25,-35 -4,-27 -10,-36 -28,-38 -22,-3 -25,1 -36,51 -7,31 -42,38 -50,10 z"
       id="path3269"
       style="fill:#000000"
       inkscape:connector-curvature="0" />
    <path
       d="m 6216,1145 c -3,-9 -6,-49 -6,-89 0,-79 15,-114 44,-103 14,6 16,20 14,104 -3,91 -4,98 -24,101 -13,2 -24,-4 -28,-13 z"
       id="path3271"
       style="fill:#000000"
       inkscape:connector-curvature="0" />
    <path
       d="m 6961,1147 c -8,-10 -9,-33 -5,-71 7,-61 -3,-71 -37,-40 -23,21 -39,10 -39,-26 0,-23 7,-32 34,-45 33,-16 37,-16 65,1 35,21 44,51 39,134 -3,47 -6,55 -24,58 -11,2 -26,-3 -33,-11 z"
       id="path3273"
       style="fill:#000000"
       inkscape:connector-curvature="0" />
    <path
       d="m 1040,864 c -9,-9 -11,-49 -9,-124 l 4,-111 -340,0 -340,0 0,85 c 0,46 -3,87 -7,91 -4,4 -19,4 -34,1 l -27,-7 6,-85 c 4,-62 3,-84 -6,-85 -7,-1 -43,0 -80,1 -74,2 -106,-12 -86,-36 8,-10 37,-14 95,-14 l 83,0 -2,-82 -2,-83 27,-3 c 32,-4 32,-3 28,100 l -2,67 337,3 c 217,2 339,-1 343,-7 4,-5 7,-32 7,-60 0,-43 3,-50 20,-50 17,0 20,8 23,58 l 3,57 339,0 340,0 0,-85 0,-85 30,0 30,0 0,85 0,85 345,0 345,0 0,-85 0,-85 30,0 30,0 0,85 0,85 340,0 339,0 3,-87 c 3,-80 5,-88 23,-88 18,0 20,7 20,80 0,44 3,85 7,90 4,6 126,9 343,7 l 338,-3 -5,-72 c -7,-89 -4,-97 34,-97 l 31,0 -7,85 -6,85 351,0 352,0 -6,-73 c -6,-83 0,-100 34,-95 23,3 24,5 22,86 l -2,82 346,0 346,0 -6,-74 c -6,-87 7,-121 38,-96 15,12 17,26 11,92 l -6,78 346,0 346,0 -4,-57 c -3,-52 -1,-58 18,-61 32,-5 44,18 34,63 -5,21 -7,43 -4,47 3,4 163,8 355,8 l 351,0 -4,-57 c -3,-52 -1,-58 18,-61 32,-5 44,18 34,63 -5,21 -7,43 -4,47 7,10 681,10 688,0 3,-4 1,-26 -4,-48 -8,-32 -6,-41 8,-52 34,-26 47,-11 44,51 l -4,57 570,0 c 566,0 570,0 575,-20 5,-20 7,-20 39,-6 67,29 88,41 88,51 0,10 -90,55 -109,55 -6,0 -14,-7 -18,-15 -8,-13 -82,-15 -573,-15 l -565,-1 3,114 c 3,89 0,116 -11,125 -11,10 -19,9 -35,-5 -19,-17 -20,-25 -12,-123 4,-58 7,-106 5,-108 -1,-2 -157,-3 -345,-3 -188,0 -344,1 -345,3 -2,2 1,50 5,108 8,98 7,106 -12,123 -16,14 -24,15 -35,5 -11,-9 -14,-36 -11,-125 l 3,-114 -349,0 c -192,1 -350,2 -352,3 -1,2 2,50 6,108 8,98 7,106 -12,123 -16,14 -24,15 -35,5 -11,-9 -14,-36 -11,-125 l 3,-114 -340,0 -340,0 4,84 c 3,89 -3,103 -39,92 -17,-6 -18,-13 -13,-90 l 6,-84 -334,-3 c -184,-2 -339,-1 -346,0 -9,3 -10,27 -6,87 l 6,84 -27,7 c -15,3 -30,3 -34,-1 -4,-4 -7,-45 -7,-91 l 0,-85 -337,0 c -186,1 -342,1 -348,1 -5,0 -7,34 -3,84 l 6,85 -27,7 c -15,3 -30,3 -34,-1 -4,-4 -7,-45 -7,-91 l 0,-84 -340,-1 -340,0 0,88 c 0,81 -2,88 -20,88 -18,0 -20,-8 -25,-88 l -5,-88 -333,0 c -183,0 -336,2 -340,5 -4,2 -5,37 -1,78 6,76 -1,98 -31,98 -30,0 -37,-22 -31,-98 4,-41 3,-76 -1,-78 -10,-6 -676,-6 -686,0 -4,2 -5,37 -1,78 6,76 -1,98 -31,98 -30,0 -37,-22 -31,-98 4,-41 3,-76 -1,-78 -4,-3 -157,-5 -340,-5 l -333,0 -3,120 c -2,91 -6,120 -17,124 -7,3 -19,-1 -25,-9 z"
       id="path3275"
       style="fill:#000000"
       inkscape:connector-curvature="0" />
  </g>
  <text
     xml:space="preserve"
     style="font-size:11.23808861px;font-style:normal;font-variant:normal;font-weight:bold;font-stretch:normal;text-align:center;line-height:125%;letter-spacing:0px;word-spacing:0px;text-anchor:middle;fill:#000000;fill-opacity:1;stroke:none;font-family:Arial;-inkscape-font-specification:Arial Bold"
     x="11.314912"
     y="45.422005"
     id="text3488"
     sodipodi:linespacing="125%"><tspan
       sodipodi:role="line"
       id="tspan3490"
       x="11.314911"
       y="45.422005">1190</tspan></text>
  <text
     xml:space="preserve"
     style="font-size:11.23808861px;font-style:normal;font-variant:normal;font-weight:bold;font-stretch:normal;text-align:center;line-height:125%;letter-spacing:0px;word-spacing:0px;text-anchor:middle;fill:#000000;fill-opacity:1;stroke:none;font-family:Arial;-inkscape-font-specification:Arial Bold"
     x="45.98465"
     y="45.750778"
     id="text3492"
     sodipodi:linespacing="125%"><tspan
       sodipodi:role="line"
       id="tspan3494"
       x="45.98465"
       y="45.750778">1191</tspan></text>
  <text
     xml:space="preserve"
     style="font-size:11.23808861px;font-style:normal;font-variant:normal;font-weight:bold;font-stretch:normal;text-align:center;line-height:125%;letter-spacing:0px;word-spacing:0px;text-anchor:middle;fill:#000000;fill-opacity:1;stroke:none;font-family:Arial;-inkscape-font-specification:Arial Bold"
     x="343.29611"
     y="44.992416"
     id="text3496"
     sodipodi:linespacing="125%"><tspan
       sodipodi:role="line"
       id="tspan3498"
       x="343.29611"
       y="44.992416">1200</tspan></text>
  <text
     xml:space="preserve"
     style="font-size:11.23808956px;font-style:normal;font-variant:normal;font-weight:bold;font-stretch:normal;text-align:center;line-height:125%;letter-spacing:0px;word-spacing:0px;text-anchor:middle;fill:#000000;fill-opacity:1;stroke:none;font-family:Arial;-inkscape-font-specification:Arial Bold"
     x="80.343018"
     y="45.687813"
     id="text3500"
     sodipodi:linespacing="125%"><tspan
       sodipodi:role="line"
       id="tspan3502"
       x="80.343018"
       y="45.687813">1192</tspan></text>
</svg>
