<?xml version="1.0" encoding="UTF-8" standalone="no"?>
<svg
   xmlns:dc="http://purl.org/dc/elements/1.1/"
   xmlns:cc="http://creativecommons.org/ns#"
   xmlns:rdf="http://www.w3.org/1999/02/22-rdf-syntax-ns#"
   xmlns:svg="http://www.w3.org/2000/svg"
   xmlns="http://www.w3.org/2000/svg"
   xmlns:sodipodi="http://sodipodi.sourceforge.net/DTD/sodipodi-0.dtd"
   xmlns:inkscape="http://www.inkscape.org/namespaces/inkscape"
   version="1.0"
   width="200.50003"
   height="173.19458"
   viewBox="0 0 160.40002 138.55566"
   preserveAspectRatio="xMidYMid meet"
   id="svg3069"
   inkscape:version="0.48.4 r9939"
   sodipodi:docname="a8116e23699ecd8825716166dfe09af52a6f1be7.svg">
  <defs
     id="defs3465" />
  <sodipodi:namedview
     pagecolor="#ffffff"
     bordercolor="#666666"
     borderopacity="1"
     objecttolerance="10"
     gridtolerance="10"
     guidetolerance="10"
     inkscape:pageopacity="0"
     inkscape:pageshadow="2"
     inkscape:window-width="1152"
     inkscape:window-height="788"
     id="namedview3463"
     showgrid="false"
     inkscape:zoom="0.60135928"
     inkscape:cx="169.86706"
     inkscape:cy="202.92472"
     inkscape:window-x="0"
     inkscape:window-y="24"
     inkscape:window-maximized="1"
     inkscape:current-layer="svg3069"
     fit-margin-top="0"
     fit-margin-left="0"
     fit-margin-right="0"
     fit-margin-bottom="0" />
  <metadata
     id="metadata3071">
Created by potrace 1.10, written by Peter Selinger 2001-2011
<rdf:RDF>
  <cc:Work
     rdf:about="">
    <dc:format>image/svg+xml</dc:format>
    <dc:type
       rdf:resource="http://purl.org/dc/dcmitype/StillImage" />
  </cc:Work>
</rdf:RDF>
</metadata>
  <g
     transform="matrix(0.03120623,0,0,-0.03120623,-1.5603115,138.55566)"
     id="g3073"
     style="fill:#000000;stroke:none">
    <path
       d="M 50,2220 50,0 2594,0 c 2252,0 2545,2 2550,15 3,8 15,15 26,15 l 20,0 0,2179 c 0,2170 0,2179 -20,2184 -12,3 -20,14 -20,26 0,28 -28,27 -32,-1 -2,-13 -9,-23 -15,-22 -7,1 -161,2 -343,3 -323,1 -330,1 -330,21 0,11 -7,20 -15,20 -8,0 -15,-9 -15,-20 0,-20 -7,-20 -345,-20 -338,0 -345,0 -345,20 0,11 -7,20 -15,20 -8,0 -15,-9 -15,-20 0,-20 -7,-20 -360,-20 -353,0 -360,0 -360,20 0,11 -7,20 -15,20 -8,0 -15,-9 -15,-20 0,-20 -7,-20 -345,-20 -338,0 -345,0 -345,20 0,11 -7,20 -15,20 -8,0 -15,-9 -15,-20 0,-20 -7,-20 -345,-20 -338,0 -345,0 -345,20 0,11 -7,20 -15,20 -8,0 -15,-9 -15,-20 0,-20 -7,-20 -345,-20 -338,0 -345,0 -345,20 0,11 -7,20 -15,20 -8,0 -15,-9 -15,-20 0,-20 -7,-20 -345,-20 -338,0 -345,0 -345,20 0,11 -7,20 -15,20 -13,0 -15,-253 -15,-2220 z m 5040,-24 c 0,-1160 -2,-2111 -4,-2113 -2,-3 -148,-4 -323,-4 -268,1 -320,4 -329,16 -14,19 -30,19 -38,0 -8,-23 -674,-23 -682,0 -8,19 -30,19 -38,0 -8,-23 -704,-23 -712,0 -8,19 -30,19 -38,0 -8,-23 -674,-23 -682,0 -8,19 -30,19 -38,0 -8,-23 -674,-23 -682,0 -8,19 -30,19 -38,0 -8,-23 -674,-23 -682,0 -8,19 -24,19 -38,0 -9,-12 -57,-15 -306,-15 -162,0 -301,0 -307,0 -10,0 -13,75 -13,340 0,294 2,341 15,346 19,8 19,30 0,38 -23,8 -23,674 0,682 19,8 19,30 0,38 -23,8 -23,674 0,682 19,8 19,30 0,38 -23,8 -23,674 0,682 19,8 19,30 0,38 -23,8 -23,674 0,682 8,4 15,12 15,19 0,7 -7,15 -15,19 -13,5 -15,49 -15,316 l 0,310 2475,-2 2475,-3 0,-2109 z"
       id="path3075"
       inkscape:connector-curvature="0" />
    <path
       d="m 771,4246 c -7,-8 -11,-32 -9,-53 2,-30 7,-38 23,-38 16,0 21,8 23,41 3,47 -17,74 -37,50 z"
       id="path3077"
       inkscape:connector-curvature="0" />
    <path
       d="m 1491,4246 c -7,-8 -11,-32 -9,-53 2,-30 7,-38 23,-38 16,0 21,8 23,41 3,47 -17,74 -37,50 z"
       id="path3079"
       inkscape:connector-curvature="0" />
    <path
       d="m 2211,4246 c -7,-8 -11,-32 -9,-53 2,-30 7,-38 23,-38 16,0 21,8 23,41 3,47 -17,74 -37,50 z"
       id="path3081"
       inkscape:connector-curvature="0" />
    <path
       d="m 2931,4246 c -7,-8 -11,-32 -9,-53 2,-30 7,-38 23,-38 16,0 21,8 23,41 3,47 -17,74 -37,50 z"
       id="path3083"
       inkscape:connector-curvature="0" />
    <path
       d="m 3681,4246 c -7,-8 -11,-32 -9,-53 2,-30 7,-38 23,-38 16,0 21,8 23,41 3,47 -17,74 -37,50 z"
       id="path3085"
       inkscape:connector-curvature="0" />
    <path
       d="m 4401,4246 c -7,-8 -11,-32 -9,-53 2,-30 7,-38 23,-38 16,0 21,8 23,41 3,47 -17,74 -37,50 z"
       id="path3087"
       inkscape:connector-curvature="0" />
    <path
       d="m 764,4067 c -3,-8 -4,-32 -2,-53 2,-31 7,-39 23,-39 17,0 20,7 20,50 0,39 -4,50 -18,53 -9,2 -20,-3 -23,-11 z"
       id="path3089"
       inkscape:connector-curvature="0" />
    <path
       d="m 1484,4067 c -3,-8 -4,-32 -2,-53 2,-31 7,-39 23,-39 17,0 20,7 20,50 0,39 -4,50 -18,53 -9,2 -20,-3 -23,-11 z"
       id="path3091"
       inkscape:connector-curvature="0" />
    <path
       d="m 2204,4067 c -3,-8 -4,-32 -2,-53 2,-31 7,-39 23,-39 17,0 20,7 20,50 0,39 -4,50 -18,53 -9,2 -20,-3 -23,-11 z"
       id="path3093"
       inkscape:connector-curvature="0" />
    <path
       d="m 2924,4067 c -3,-8 -4,-32 -2,-53 2,-31 7,-39 23,-39 17,0 20,7 20,50 0,39 -4,50 -18,53 -9,2 -20,-3 -23,-11 z"
       id="path3095"
       inkscape:connector-curvature="0" />
    <path
       d="m 3674,4067 c -3,-8 -4,-32 -2,-53 2,-31 7,-39 23,-39 17,0 20,7 20,50 0,39 -4,50 -18,53 -9,2 -20,-3 -23,-11 z"
       id="path3097"
       inkscape:connector-curvature="0" />
    <path
       d="m 4394,4067 c -3,-8 -4,-32 -2,-53 2,-31 7,-39 23,-39 17,0 20,7 20,50 0,39 -4,50 -18,53 -9,2 -20,-3 -23,-11 z"
       id="path3099"
       inkscape:connector-curvature="0" />
    <path
       d="m 764,3887 c -3,-8 -4,-32 -2,-53 2,-31 7,-39 23,-39 17,0 20,7 20,50 0,39 -4,50 -18,53 -9,2 -20,-3 -23,-11 z"
       id="path3101"
       inkscape:connector-curvature="0" />
    <path
       d="m 1484,3887 c -3,-8 -4,-32 -2,-53 2,-31 7,-39 23,-39 17,0 20,7 20,50 0,39 -4,50 -18,53 -9,2 -20,-3 -23,-11 z"
       id="path3103"
       inkscape:connector-curvature="0" />
    <path
       d="m 2204,3887 c -3,-8 -4,-32 -2,-53 2,-31 7,-39 23,-39 17,0 20,7 20,50 0,39 -4,50 -18,53 -9,2 -20,-3 -23,-11 z"
       id="path3105"
       inkscape:connector-curvature="0" />
    <path
       d="m 2924,3887 c -3,-8 -4,-32 -2,-53 2,-31 7,-39 23,-39 17,0 20,7 20,50 0,39 -4,50 -18,53 -9,2 -20,-3 -23,-11 z"
       id="path3107"
       inkscape:connector-curvature="0" />
    <path
       d="m 3674,3887 c -3,-8 -4,-32 -2,-53 2,-31 7,-39 23,-39 17,0 20,7 20,50 0,39 -4,50 -18,53 -9,2 -20,-3 -23,-11 z"
       id="path3109"
       inkscape:connector-curvature="0" />
    <path
       d="m 4394,3887 c -3,-8 -4,-32 -2,-53 2,-31 7,-39 23,-39 17,0 20,7 20,50 0,39 -4,50 -18,53 -9,2 -20,-3 -23,-11 z"
       id="path3111"
       inkscape:connector-curvature="0" />
    <path
       d="m 1520,3730 c 0,-5 -165,-174 -366,-375 -270,-270 -372,-365 -389,-365 -13,0 -25,-6 -28,-12 -2,-9 -25,-13 -63,-13 -52,0 -59,-2 -59,-20 0,-18 7,-20 59,-20 38,0 61,-4 63,-12 4,-10 163,-13 754,-13 685,0 749,1 749,16 0,14 7,15 39,10 27,-4 42,-2 50,8 14,17 -1,30 -34,31 -11,0 -21,8 -23,18 -2,10 -165,181 -363,379 -197,198 -359,365 -359,369 0,5 -7,9 -15,9 -8,0 -15,-4 -15,-10 z m 96,-212 c 133,-119 456,-443 471,-472 11,-21 12,-31 3,-40 -8,-8 -89,-11 -265,-11 -225,0 -256,2 -271,17 -16,16 -14,19 23,62 46,52 53,80 53,206 0,105 -12,150 -52,195 -42,48 -82,48 -129,-1 l -34,-35 -3,-122 c -5,-149 6,-193 58,-249 22,-24 40,-46 40,-50 0,-21 -97,-29 -302,-26 -241,3 -252,6 -221,59 9,15 84,94 167,176 82,81 191,189 240,238 87,87 118,112 142,114 7,1 43,-27 80,-61 z m -61,-243 0,-170 -35,0 -35,0 -3,160 c -1,87 0,165 3,173 3,8 17,12 37,10 l 33,-3 0,-170 z"
       id="path3113"
       inkscape:connector-curvature="0" />
    <path
       d="m 767,3713 c -4,-3 -7,-26 -7,-50 0,-48 22,-68 43,-40 7,9 30,17 52,19 32,2 40,7 40,23 0,16 -8,21 -43,23 -26,2 -45,9 -49,18 -5,15 -25,19 -36,7 z"
       id="path3115"
       inkscape:connector-curvature="0" />
    <path
       d="m 2207,3713 c -4,-3 -7,-26 -7,-50 0,-48 22,-68 43,-40 7,9 30,17 52,19 32,2 40,7 40,23 0,16 -8,21 -43,23 -26,2 -45,9 -49,18 -5,15 -25,19 -36,7 z"
       id="path3117"
       inkscape:connector-curvature="0" />
    <path
       d="m 2927,3713 c -4,-3 -7,-26 -7,-50 0,-48 22,-68 43,-40 7,9 30,17 52,19 32,2 40,7 40,23 0,16 -8,21 -43,23 -26,2 -45,9 -49,18 -5,15 -25,19 -36,7 z"
       id="path3119"
       inkscape:connector-curvature="0" />
    <path
       d="m 3677,3713 c -4,-3 -7,-26 -7,-50 0,-48 22,-68 43,-40 7,9 23,17 37,19 37,5 34,42 -3,46 -16,2 -31,10 -34,18 -5,15 -25,19 -36,7 z"
       id="path3121"
       inkscape:connector-curvature="0" />
    <path
       d="m 4397,3713 c -4,-3 -7,-26 -7,-50 0,-48 22,-68 43,-40 7,9 23,17 37,19 37,5 34,42 -3,46 -16,2 -31,10 -34,18 -5,15 -25,19 -36,7 z"
       id="path3123"
       inkscape:connector-curvature="0" />
    <path
       d="m 254,3675 c -10,-25 9,-37 57,-33 36,2 44,7 44,23 0,17 -8,20 -48,23 -36,2 -49,-1 -53,-13 z"
       id="path3125"
       inkscape:connector-curvature="0" />
    <path
       d="m 434,3675 c -10,-25 9,-37 57,-33 36,2 44,7 44,23 0,17 -8,20 -48,23 -36,2 -49,-1 -53,-13 z"
       id="path3127"
       inkscape:connector-curvature="0" />
    <path
       d="m 614,3675 c -10,-25 9,-37 57,-33 36,2 44,7 44,23 0,17 -8,20 -48,23 -36,2 -49,-1 -53,-13 z"
       id="path3129"
       inkscape:connector-curvature="0" />
    <path
       d="m 974,3675 c -10,-25 9,-37 57,-33 36,2 44,7 44,23 0,17 -8,20 -48,23 -36,2 -49,-1 -53,-13 z"
       id="path3131"
       inkscape:connector-curvature="0" />
    <path
       d="m 1154,3675 c -10,-25 9,-37 57,-33 36,2 44,7 44,23 0,17 -8,20 -48,23 -36,2 -49,-1 -53,-13 z"
       id="path3133"
       inkscape:connector-curvature="0" />
    <path
       d="m 1334,3675 c -10,-26 7,-38 48,-32 46,6 53,11 45,32 -8,20 -85,21 -93,0 z"
       id="path3135"
       inkscape:connector-curvature="0" />
    <path
       d="m 1694,3675 c -10,-25 9,-37 57,-33 36,2 44,7 44,23 0,17 -8,20 -48,23 -36,2 -49,-1 -53,-13 z"
       id="path3137"
       inkscape:connector-curvature="0" />
    <path
       d="m 1874,3675 c -10,-25 9,-37 57,-33 36,2 44,7 44,23 0,17 -8,20 -48,23 -36,2 -49,-1 -53,-13 z"
       id="path3139"
       inkscape:connector-curvature="0" />
    <path
       d="m 2054,3675 c -10,-25 9,-37 57,-33 36,2 44,7 44,23 0,17 -8,20 -48,23 -36,2 -49,-1 -53,-13 z"
       id="path3141"
       inkscape:connector-curvature="0" />
    <path
       d="m 2414,3675 c -10,-25 9,-37 57,-33 36,2 44,7 44,23 0,17 -8,20 -48,23 -36,2 -49,-1 -53,-13 z"
       id="path3143"
       inkscape:connector-curvature="0" />
    <path
       d="m 2594,3675 c -10,-25 9,-37 57,-33 36,2 44,7 44,23 0,17 -8,20 -48,23 -36,2 -49,-1 -53,-13 z"
       id="path3145"
       inkscape:connector-curvature="0" />
    <path
       d="m 2774,3675 c -10,-25 9,-37 57,-33 36,2 44,7 44,23 0,17 -8,20 -48,23 -36,2 -49,-1 -53,-13 z"
       id="path3147"
       inkscape:connector-curvature="0" />
    <path
       d="m 3134,3675 c -10,-25 9,-37 57,-33 36,2 44,7 44,23 0,17 -8,20 -48,23 -36,2 -49,-1 -53,-13 z"
       id="path3149"
       inkscape:connector-curvature="0" />
    <path
       d="m 3314,3675 c -10,-25 9,-37 57,-33 36,2 44,7 44,23 0,17 -8,20 -48,23 -36,2 -49,-1 -53,-13 z"
       id="path3151"
       inkscape:connector-curvature="0" />
    <path
       d="m 3494,3675 c -10,-25 9,-37 57,-33 36,2 44,7 44,23 0,17 -8,20 -48,23 -36,2 -49,-1 -53,-13 z"
       id="path3153"
       inkscape:connector-curvature="0" />
    <path
       d="m 3854,3675 c -10,-25 9,-37 57,-33 36,2 44,7 44,23 0,17 -8,20 -48,23 -36,2 -49,-1 -53,-13 z"
       id="path3155"
       inkscape:connector-curvature="0" />
    <path
       d="m 4034,3675 c -10,-25 9,-37 57,-33 36,2 44,7 44,23 0,17 -8,20 -48,23 -36,2 -49,-1 -53,-13 z"
       id="path3157"
       inkscape:connector-curvature="0" />
    <path
       d="m 4214,3675 c -10,-25 9,-37 57,-33 36,2 44,7 44,23 0,17 -8,20 -48,23 -36,2 -49,-1 -53,-13 z"
       id="path3159"
       inkscape:connector-curvature="0" />
    <path
       d="m 4574,3675 c -10,-25 9,-37 57,-33 36,2 44,7 44,23 0,17 -8,20 -48,23 -36,2 -49,-1 -53,-13 z"
       id="path3161"
       inkscape:connector-curvature="0" />
    <path
       d="m 4754,3675 c -10,-25 9,-37 57,-33 36,2 44,7 44,23 0,17 -8,20 -48,23 -36,2 -49,-1 -53,-13 z"
       id="path3163"
       inkscape:connector-curvature="0" />
    <path
       d="m 4934,3675 c -9,-24 5,-35 45,-35 44,0 66,17 50,37 -16,18 -88,17 -95,-2 z"
       id="path3165"
       inkscape:connector-curvature="0" />
    <path
       d="m 764,3527 c -3,-8 -4,-32 -2,-53 2,-31 7,-39 23,-39 17,0 20,7 20,50 0,39 -4,50 -18,53 -9,2 -20,-3 -23,-11 z"
       id="path3167"
       inkscape:connector-curvature="0" />
    <path
       d="m 2204,3527 c -3,-8 -4,-32 -2,-53 2,-31 7,-39 23,-39 17,0 20,7 20,50 0,39 -4,50 -18,53 -9,2 -20,-3 -23,-11 z"
       id="path3169"
       inkscape:connector-curvature="0" />
    <path
       d="m 2924,3527 c -3,-8 -4,-32 -2,-53 2,-31 7,-39 23,-39 17,0 20,7 20,50 0,39 -4,50 -18,53 -9,2 -20,-3 -23,-11 z"
       id="path3171"
       inkscape:connector-curvature="0" />
    <path
       d="m 3674,3527 c -3,-8 -4,-32 -2,-53 2,-31 7,-39 23,-39 17,0 20,7 20,50 0,39 -4,50 -18,53 -9,2 -20,-3 -23,-11 z"
       id="path3173"
       inkscape:connector-curvature="0" />
    <path
       d="m 4394,3527 c -3,-8 -4,-32 -2,-53 2,-31 7,-39 23,-39 17,0 20,7 20,50 0,39 -4,50 -18,53 -9,2 -20,-3 -23,-11 z"
       id="path3175"
       inkscape:connector-curvature="0" />
    <path
       d="m 764,3347 c -3,-8 -4,-32 -2,-53 2,-31 7,-39 23,-39 17,0 20,7 20,50 0,39 -4,50 -18,53 -9,2 -20,-3 -23,-11 z"
       id="path3177"
       inkscape:connector-curvature="0" />
    <path
       d="m 2204,3347 c -3,-8 -4,-32 -2,-53 2,-31 7,-39 23,-39 17,0 20,7 20,50 0,39 -4,50 -18,53 -9,2 -20,-3 -23,-11 z"
       id="path3179"
       inkscape:connector-curvature="0" />
    <path
       d="m 2924,3347 c -3,-8 -4,-32 -2,-53 2,-31 7,-39 23,-39 17,0 20,7 20,50 0,39 -4,50 -18,53 -9,2 -20,-3 -23,-11 z"
       id="path3181"
       inkscape:connector-curvature="0" />
    <path
       d="m 3674,3347 c -3,-8 -4,-32 -2,-53 2,-31 7,-39 23,-39 17,0 20,7 20,50 0,39 -4,50 -18,53 -9,2 -20,-3 -23,-11 z"
       id="path3183"
       inkscape:connector-curvature="0" />
    <path
       d="m 4394,3347 c -3,-8 -4,-32 -2,-53 2,-31 7,-39 23,-39 17,0 20,7 20,50 0,39 -4,50 -18,53 -9,2 -20,-3 -23,-11 z"
       id="path3185"
       inkscape:connector-curvature="0" />
    <path
       d="m 764,3167 c -3,-8 -4,-32 -2,-53 2,-31 7,-39 23,-39 17,0 20,7 20,50 0,39 -4,50 -18,53 -9,2 -20,-3 -23,-11 z"
       id="path3187"
       inkscape:connector-curvature="0" />
    <path
       d="m 2204,3166 c -3,-9 -3,-32 0,-52 5,-26 12,-34 24,-32 25,5 24,91 -1,96 -9,2 -20,-4 -23,-12 z"
       id="path3189"
       inkscape:connector-curvature="0" />
    <path
       d="m 2924,3167 c -3,-8 -4,-32 -2,-53 2,-31 7,-39 23,-39 17,0 20,7 20,50 0,39 -4,50 -18,53 -9,2 -20,-3 -23,-11 z"
       id="path3191"
       inkscape:connector-curvature="0" />
    <path
       d="m 3674,3167 c -3,-8 -4,-32 -2,-53 2,-31 7,-39 23,-39 17,0 20,7 20,50 0,39 -4,50 -18,53 -9,2 -20,-3 -23,-11 z"
       id="path3193"
       inkscape:connector-curvature="0" />
    <path
       d="m 4394,3167 c -3,-8 -4,-32 -2,-53 2,-31 7,-39 23,-39 17,0 20,7 20,50 0,39 -4,50 -18,53 -9,2 -20,-3 -23,-11 z"
       id="path3195"
       inkscape:connector-curvature="0" />
    <path
       d="m 2927,2993 c -4,-3 -7,-26 -7,-50 0,-48 22,-68 43,-40 7,9 30,17 52,19 32,2 40,7 40,23 0,16 -8,21 -43,23 -26,2 -45,9 -49,18 -5,15 -25,19 -36,7 z"
       id="path3197"
       inkscape:connector-curvature="0" />
    <path
       d="m 3677,2993 c -4,-3 -7,-26 -7,-50 0,-48 22,-68 43,-40 7,9 23,17 37,19 37,5 34,42 -3,46 -16,2 -31,10 -34,18 -5,15 -25,19 -36,7 z"
       id="path3199"
       inkscape:connector-curvature="0" />
    <path
       d="m 4397,2993 c -4,-3 -7,-26 -7,-50 0,-48 22,-68 43,-40 7,9 23,17 37,19 37,5 34,42 -3,46 -16,2 -31,10 -34,18 -5,15 -25,19 -36,7 z"
       id="path3201"
       inkscape:connector-curvature="0" />
    <path
       d="m 254,2955 c -10,-25 9,-37 57,-33 36,2 44,7 44,23 0,17 -8,20 -48,23 -36,2 -49,-1 -53,-13 z"
       id="path3203"
       inkscape:connector-curvature="0" />
    <path
       d="m 434,2955 c -10,-25 9,-37 57,-33 36,2 44,7 44,23 0,17 -8,20 -48,23 -36,2 -49,-1 -53,-13 z"
       id="path3205"
       inkscape:connector-curvature="0" />
    <path
       d="m 2414,2955 c -10,-25 9,-37 57,-33 36,2 44,7 44,23 0,17 -8,20 -48,23 -36,2 -49,-1 -53,-13 z"
       id="path3207"
       inkscape:connector-curvature="0" />
    <path
       d="m 2594,2955 c -10,-25 9,-37 57,-33 36,2 44,7 44,23 0,17 -8,20 -48,23 -36,2 -49,-1 -53,-13 z"
       id="path3209"
       inkscape:connector-curvature="0" />
    <path
       d="m 2774,2955 c -10,-25 9,-37 57,-33 36,2 44,7 44,23 0,17 -8,20 -48,23 -36,2 -49,-1 -53,-13 z"
       id="path3211"
       inkscape:connector-curvature="0" />
    <path
       d="m 3134,2955 c -10,-25 9,-37 57,-33 36,2 44,7 44,23 0,17 -8,20 -48,23 -36,2 -49,-1 -53,-13 z"
       id="path3213"
       inkscape:connector-curvature="0" />
    <path
       d="m 3314,2955 c -10,-25 9,-37 57,-33 36,2 44,7 44,23 0,17 -8,20 -48,23 -36,2 -49,-1 -53,-13 z"
       id="path3215"
       inkscape:connector-curvature="0" />
    <path
       d="m 3494,2955 c -10,-25 9,-37 57,-33 36,2 44,7 44,23 0,17 -8,20 -48,23 -36,2 -49,-1 -53,-13 z"
       id="path3217"
       inkscape:connector-curvature="0" />
    <path
       d="m 3854,2955 c -10,-25 9,-37 57,-33 36,2 44,7 44,23 0,17 -8,20 -48,23 -36,2 -49,-1 -53,-13 z"
       id="path3219"
       inkscape:connector-curvature="0" />
    <path
       d="m 4034,2955 c -10,-25 9,-37 57,-33 36,2 44,7 44,23 0,17 -8,20 -48,23 -36,2 -49,-1 -53,-13 z"
       id="path3221"
       inkscape:connector-curvature="0" />
    <path
       d="m 4214,2955 c -10,-25 9,-37 57,-33 36,2 44,7 44,23 0,17 -8,20 -48,23 -36,2 -49,-1 -53,-13 z"
       id="path3223"
       inkscape:connector-curvature="0" />
    <path
       d="m 4574,2955 c -10,-25 9,-37 57,-33 36,2 44,7 44,23 0,17 -8,20 -48,23 -36,2 -49,-1 -53,-13 z"
       id="path3225"
       inkscape:connector-curvature="0" />
    <path
       d="m 4754,2955 c -10,-25 9,-37 57,-33 36,2 44,7 44,23 0,17 -8,20 -48,23 -36,2 -49,-1 -53,-13 z"
       id="path3227"
       inkscape:connector-curvature="0" />
    <path
       d="m 4934,2955 c -9,-24 5,-35 45,-35 44,0 66,17 50,37 -16,18 -88,17 -95,-2 z"
       id="path3229"
       inkscape:connector-curvature="0" />
    <path
       d="m 764,2807 c -3,-8 -4,-32 -2,-53 2,-31 7,-39 23,-39 17,0 20,7 20,50 0,39 -4,50 -18,53 -9,2 -20,-3 -23,-11 z"
       id="path3231"
       inkscape:connector-curvature="0" />
    <path
       d="m 1484,2807 c -3,-8 -4,-32 -2,-53 2,-31 7,-39 23,-39 17,0 20,7 20,50 0,39 -4,50 -18,53 -9,2 -20,-3 -23,-11 z"
       id="path3233"
       inkscape:connector-curvature="0" />
    <path
       d="m 2204,2807 c -3,-8 -4,-32 -2,-53 2,-31 7,-39 23,-39 17,0 20,7 20,50 0,39 -4,50 -18,53 -9,2 -20,-3 -23,-11 z"
       id="path3235"
       inkscape:connector-curvature="0" />
    <path
       d="m 2924,2807 c -3,-8 -4,-32 -2,-53 2,-31 7,-39 23,-39 17,0 20,7 20,50 0,39 -4,50 -18,53 -9,2 -20,-3 -23,-11 z"
       id="path3237"
       inkscape:connector-curvature="0" />
    <path
       d="m 3674,2807 c -3,-8 -4,-32 -2,-53 2,-31 7,-39 23,-39 17,0 20,7 20,50 0,39 -4,50 -18,53 -9,2 -20,-3 -23,-11 z"
       id="path3239"
       inkscape:connector-curvature="0" />
    <path
       d="m 4394,2807 c -3,-8 -4,-32 -2,-53 2,-31 7,-39 23,-39 17,0 20,7 20,50 0,39 -4,50 -18,53 -9,2 -20,-3 -23,-11 z"
       id="path3241"
       inkscape:connector-curvature="0" />
    <path
       d="m 764,2627 c -3,-8 -4,-32 -2,-53 2,-31 7,-39 23,-39 17,0 20,7 20,50 0,39 -4,50 -18,53 -9,2 -20,-3 -23,-11 z"
       id="path3243"
       inkscape:connector-curvature="0" />
    <path
       d="m 1484,2627 c -3,-8 -4,-32 -2,-53 2,-31 7,-39 23,-39 17,0 20,7 20,50 0,39 -4,50 -18,53 -9,2 -20,-3 -23,-11 z"
       id="path3245"
       inkscape:connector-curvature="0" />
    <path
       d="m 2204,2627 c -3,-8 -4,-32 -2,-53 2,-31 7,-39 23,-39 17,0 20,7 20,50 0,39 -4,50 -18,53 -9,2 -20,-3 -23,-11 z"
       id="path3247"
       inkscape:connector-curvature="0" />
    <path
       d="m 2924,2627 c -3,-8 -4,-32 -2,-53 2,-31 7,-39 23,-39 17,0 20,7 20,50 0,39 -4,50 -18,53 -9,2 -20,-3 -23,-11 z"
       id="path3249"
       inkscape:connector-curvature="0" />
    <path
       d="m 3674,2627 c -3,-8 -4,-32 -2,-53 2,-31 7,-39 23,-39 17,0 20,7 20,50 0,39 -4,50 -18,53 -9,2 -20,-3 -23,-11 z"
       id="path3251"
       inkscape:connector-curvature="0" />
    <path
       d="m 4394,2627 c -3,-8 -4,-32 -2,-53 2,-31 7,-39 23,-39 17,0 20,7 20,50 0,39 -4,50 -18,53 -9,2 -20,-3 -23,-11 z"
       id="path3253"
       inkscape:connector-curvature="0" />
    <path
       d="m 764,2447 c -3,-8 -4,-32 -2,-53 2,-31 7,-39 23,-39 17,0 20,7 20,50 0,39 -4,50 -18,53 -9,2 -20,-3 -23,-11 z"
       id="path3255"
       inkscape:connector-curvature="0" />
    <path
       d="m 1484,2447 c -3,-8 -4,-32 -2,-53 2,-31 7,-39 23,-39 17,0 20,7 20,50 0,39 -4,50 -18,53 -9,2 -20,-3 -23,-11 z"
       id="path3257"
       inkscape:connector-curvature="0" />
    <path
       d="m 2204,2447 c -3,-8 -4,-32 -2,-53 2,-31 7,-39 23,-39 17,0 20,7 20,50 0,39 -4,50 -18,53 -9,2 -20,-3 -23,-11 z"
       id="path3259"
       inkscape:connector-curvature="0" />
    <path
       d="m 2924,2447 c -3,-8 -4,-32 -2,-53 2,-31 7,-39 23,-39 17,0 20,7 20,50 0,39 -4,50 -18,53 -9,2 -20,-3 -23,-11 z"
       id="path3261"
       inkscape:connector-curvature="0" />
    <path
       d="m 3674,2447 c -3,-8 -4,-32 -2,-53 2,-31 7,-39 23,-39 17,0 20,7 20,50 0,39 -4,50 -18,53 -9,2 -20,-3 -23,-11 z"
       id="path3263"
       inkscape:connector-curvature="0" />
    <path
       d="m 4394,2447 c -3,-8 -4,-32 -2,-53 2,-31 7,-39 23,-39 17,0 20,7 20,50 0,39 -4,50 -18,53 -9,2 -20,-3 -23,-11 z"
       id="path3265"
       inkscape:connector-curvature="0" />
    <path
       d="m 2918,2275 c -10,-13 -15,-30 -12,-39 4,-10 -8,-27 -33,-48 -21,-18 -343,-338 -716,-710 -373,-373 -683,-678 -688,-678 -15,0 -10,-19 11,-40 20,-20 33,-20 1495,-20 1393,0 1475,-1 1484,-17 8,-14 14,-16 27,-7 39,24 39,40 -1,75 -73,64 -1465,1461 -1465,1470 0,5 -11,9 -25,9 -14,0 -28,7 -31,15 -9,22 -26,18 -46,-10 z m 695,-743 c 328,-328 608,-613 622,-631 14,-19 21,-39 17,-43 -25,-25 -195,-28 -1322,-26 -920,2 -1191,6 -1213,15 l -28,13 18,31 c 18,31 1212,1232 1241,1248 9,5 26,5 42,0 14,-5 294,-278 623,-607 z"
       id="path3267"
       inkscape:connector-curvature="0" />
    <path
       d="m 2825,1559 c -62,-55 -66,-72 -66,-251 l 1,-160 43,-39 c 55,-50 71,-55 110,-30 27,16 44,19 83,15 48,-6 51,-5 81,30 42,47 53,91 53,216 0,123 -9,163 -47,203 -43,45 -58,49 -100,32 -33,-14 -41,-14 -75,0 -48,19 -41,20 -83,-16 z m 79,-234 0,-200 -34,0 -35,0 -3,190 c -1,104 0,195 3,203 3,8 17,12 37,10 l 32,-3 0,-200 z m 151,15 0,-185 -35,0 -34,0 -1,183 c 0,101 2,186 5,188 2,3 18,4 35,2 l 30,-3 0,-185 z"
       id="path3269"
       inkscape:connector-curvature="0" />
    <path
       d="m 767,2273 c -4,-3 -7,-26 -7,-50 0,-48 22,-68 43,-40 7,9 30,17 52,19 32,2 40,7 40,23 0,16 -8,21 -43,23 -26,2 -45,9 -49,18 -5,15 -25,19 -36,7 z"
       id="path3271"
       inkscape:connector-curvature="0" />
    <path
       d="m 1487,2273 c -4,-3 -7,-26 -7,-50 0,-48 22,-68 43,-40 7,9 30,17 52,19 32,2 40,7 40,23 0,16 -8,21 -43,23 -26,2 -45,9 -49,18 -5,15 -25,19 -36,7 z"
       id="path3273"
       inkscape:connector-curvature="0" />
    <path
       d="m 2207,2273 c -4,-3 -7,-26 -7,-50 0,-48 22,-68 43,-40 7,9 30,17 52,19 32,2 40,7 40,23 0,16 -8,21 -43,23 -26,2 -45,9 -49,18 -5,15 -25,19 -36,7 z"
       id="path3275"
       inkscape:connector-curvature="0" />
    <path
       d="m 3677,2273 c -4,-3 -7,-26 -7,-50 0,-48 22,-68 43,-40 7,9 23,17 37,19 37,5 34,42 -3,46 -16,2 -31,10 -34,18 -5,15 -25,19 -36,7 z"
       id="path3277"
       inkscape:connector-curvature="0" />
    <path
       d="m 4397,2273 c -4,-3 -7,-26 -7,-50 0,-48 22,-68 43,-40 7,9 23,17 37,19 37,5 34,42 -3,46 -16,2 -31,10 -34,18 -5,15 -25,19 -36,7 z"
       id="path3279"
       inkscape:connector-curvature="0" />
    <path
       d="m 254,2235 c -10,-25 9,-37 57,-33 36,2 44,7 44,23 0,17 -8,20 -48,23 -36,2 -49,-1 -53,-13 z"
       id="path3281"
       inkscape:connector-curvature="0" />
    <path
       d="m 434,2235 c -10,-25 9,-37 57,-33 36,2 44,7 44,23 0,17 -8,20 -48,23 -36,2 -49,-1 -53,-13 z"
       id="path3283"
       inkscape:connector-curvature="0" />
    <path
       d="m 614,2235 c -10,-25 9,-37 57,-33 36,2 44,7 44,23 0,17 -8,20 -48,23 -36,2 -49,-1 -53,-13 z"
       id="path3285"
       inkscape:connector-curvature="0" />
    <path
       d="m 974,2235 c -10,-25 9,-37 57,-33 36,2 44,7 44,23 0,17 -8,20 -48,23 -36,2 -49,-1 -53,-13 z"
       id="path3287"
       inkscape:connector-curvature="0" />
    <path
       d="m 1154,2235 c -10,-25 9,-37 57,-33 36,2 44,7 44,23 0,17 -8,20 -48,23 -36,2 -49,-1 -53,-13 z"
       id="path3289"
       inkscape:connector-curvature="0" />
    <path
       d="m 1334,2235 c -10,-25 9,-37 57,-33 36,2 44,7 44,23 0,17 -8,20 -48,23 -36,2 -49,-1 -53,-13 z"
       id="path3291"
       inkscape:connector-curvature="0" />
    <path
       d="m 1694,2235 c -10,-25 9,-37 57,-33 36,2 44,7 44,23 0,17 -8,20 -48,23 -36,2 -49,-1 -53,-13 z"
       id="path3293"
       inkscape:connector-curvature="0" />
    <path
       d="m 1874,2235 c -10,-25 9,-37 57,-33 36,2 44,7 44,23 0,17 -8,20 -48,23 -36,2 -49,-1 -53,-13 z"
       id="path3295"
       inkscape:connector-curvature="0" />
    <path
       d="m 2054,2235 c -10,-25 9,-37 57,-33 36,2 44,7 44,23 0,17 -8,20 -48,23 -36,2 -49,-1 -53,-13 z"
       id="path3297"
       inkscape:connector-curvature="0" />
    <path
       d="m 2414,2235 c -10,-25 9,-37 57,-33 36,2 44,7 44,23 0,17 -8,20 -48,23 -36,2 -49,-1 -53,-13 z"
       id="path3299"
       inkscape:connector-curvature="0" />
    <path
       d="m 2594,2235 c -10,-25 9,-37 57,-33 36,2 44,7 44,23 0,17 -8,20 -48,23 -36,2 -49,-1 -53,-13 z"
       id="path3301"
       inkscape:connector-curvature="0" />
    <path
       d="m 2774,2235 c -10,-26 7,-38 48,-32 46,6 53,11 45,32 -8,20 -85,21 -93,0 z"
       id="path3303"
       inkscape:connector-curvature="0" />
    <path
       d="m 3134,2235 c -10,-25 9,-37 57,-33 36,2 44,7 44,23 0,17 -8,20 -48,23 -36,2 -49,-1 -53,-13 z"
       id="path3305"
       inkscape:connector-curvature="0" />
    <path
       d="m 3314,2235 c -10,-25 9,-37 57,-33 36,2 44,7 44,23 0,17 -8,20 -48,23 -36,2 -49,-1 -53,-13 z"
       id="path3307"
       inkscape:connector-curvature="0" />
    <path
       d="m 3494,2235 c -10,-25 9,-37 57,-33 36,2 44,7 44,23 0,17 -8,20 -48,23 -36,2 -49,-1 -53,-13 z"
       id="path3309"
       inkscape:connector-curvature="0" />
    <path
       d="m 3854,2235 c -10,-25 9,-37 57,-33 36,2 44,7 44,23 0,17 -8,20 -48,23 -36,2 -49,-1 -53,-13 z"
       id="path3311"
       inkscape:connector-curvature="0" />
    <path
       d="m 4034,2235 c -10,-25 9,-37 57,-33 36,2 44,7 44,23 0,17 -8,20 -48,23 -36,2 -49,-1 -53,-13 z"
       id="path3313"
       inkscape:connector-curvature="0" />
    <path
       d="m 4214,2235 c -10,-25 9,-37 57,-33 36,2 44,7 44,23 0,17 -8,20 -48,23 -36,2 -49,-1 -53,-13 z"
       id="path3315"
       inkscape:connector-curvature="0" />
    <path
       d="m 4574,2235 c -10,-25 9,-37 57,-33 36,2 44,7 44,23 0,17 -8,20 -48,23 -36,2 -49,-1 -53,-13 z"
       id="path3317"
       inkscape:connector-curvature="0" />
    <path
       d="m 4754,2235 c -10,-25 9,-37 57,-33 36,2 44,7 44,23 0,17 -8,20 -48,23 -36,2 -49,-1 -53,-13 z"
       id="path3319"
       inkscape:connector-curvature="0" />
    <path
       d="m 4934,2235 c -9,-24 5,-35 45,-35 44,0 66,17 50,37 -16,18 -88,17 -95,-2 z"
       id="path3321"
       inkscape:connector-curvature="0" />
    <path
       d="m 764,2087 c -3,-8 -4,-32 -2,-53 2,-31 7,-39 23,-39 17,0 20,7 20,50 0,39 -4,50 -18,53 -9,2 -20,-3 -23,-11 z"
       id="path3323"
       inkscape:connector-curvature="0" />
    <path
       d="m 1484,2087 c -3,-8 -4,-32 -2,-53 2,-31 7,-39 23,-39 17,0 20,7 20,50 0,39 -4,50 -18,53 -9,2 -20,-3 -23,-11 z"
       id="path3325"
       inkscape:connector-curvature="0" />
    <path
       d="m 2204,2087 c -3,-8 -4,-32 -2,-53 2,-31 7,-39 23,-39 17,0 20,7 20,50 0,39 -4,50 -18,53 -9,2 -20,-3 -23,-11 z"
       id="path3327"
       inkscape:connector-curvature="0" />
    <path
       d="m 3674,2087 c -3,-8 -4,-32 -2,-53 2,-31 7,-39 23,-39 17,0 20,7 20,50 0,39 -4,50 -18,53 -9,2 -20,-3 -23,-11 z"
       id="path3329"
       inkscape:connector-curvature="0" />
    <path
       d="m 4394,2087 c -3,-8 -4,-32 -2,-53 2,-31 7,-39 23,-39 17,0 20,7 20,50 0,39 -4,50 -18,53 -9,2 -20,-3 -23,-11 z"
       id="path3331"
       inkscape:connector-curvature="0" />
    <path
       d="m 764,1907 c -3,-8 -4,-32 -2,-53 2,-31 7,-39 23,-39 17,0 20,7 20,50 0,39 -4,50 -18,53 -9,2 -20,-3 -23,-11 z"
       id="path3333"
       inkscape:connector-curvature="0" />
    <path
       d="m 1484,1907 c -3,-8 -4,-32 -2,-53 2,-31 7,-39 23,-39 17,0 20,7 20,50 0,39 -4,50 -18,53 -9,2 -20,-3 -23,-11 z"
       id="path3335"
       inkscape:connector-curvature="0" />
    <path
       d="m 2204,1907 c -3,-8 -4,-32 -2,-53 2,-31 7,-39 23,-39 17,0 20,7 20,50 0,39 -4,50 -18,53 -9,2 -20,-3 -23,-11 z"
       id="path3337"
       inkscape:connector-curvature="0" />
    <path
       d="m 3674,1907 c -3,-8 -4,-32 -2,-53 2,-31 7,-39 23,-39 17,0 20,7 20,50 0,39 -4,50 -18,53 -9,2 -20,-3 -23,-11 z"
       id="path3339"
       inkscape:connector-curvature="0" />
    <path
       d="m 4394,1907 c -3,-8 -4,-32 -2,-53 2,-31 7,-39 23,-39 17,0 20,7 20,50 0,39 -4,50 -18,53 -9,2 -20,-3 -23,-11 z"
       id="path3341"
       inkscape:connector-curvature="0" />
    <path
       d="m 764,1727 c -3,-8 -4,-32 -2,-53 2,-31 7,-39 23,-39 17,0 20,7 20,50 0,39 -4,50 -18,53 -9,2 -20,-3 -23,-11 z"
       id="path3343"
       inkscape:connector-curvature="0" />
    <path
       d="m 1484,1727 c -3,-8 -4,-32 -2,-53 2,-31 7,-39 23,-39 17,0 20,7 20,50 0,39 -4,50 -18,53 -9,2 -20,-3 -23,-11 z"
       id="path3345"
       inkscape:connector-curvature="0" />
    <path
       d="m 2204,1727 c -3,-8 -4,-32 -2,-53 2,-31 7,-39 23,-39 17,0 20,7 20,50 0,39 -4,50 -18,53 -9,2 -20,-3 -23,-11 z"
       id="path3347"
       inkscape:connector-curvature="0" />
    <path
       d="m 3677,1734 c -13,-14 -7,-81 8,-94 24,-20 37,1 33,51 -3,42 -22,62 -41,43 z"
       id="path3349"
       inkscape:connector-curvature="0" />
    <path
       d="m 4394,1727 c -3,-8 -4,-32 -2,-53 2,-31 7,-39 23,-39 17,0 20,7 20,50 0,39 -4,50 -18,53 -9,2 -20,-3 -23,-11 z"
       id="path3351"
       inkscape:connector-curvature="0" />
    <path
       d="m 767,1553 c -4,-3 -7,-26 -7,-50 0,-48 22,-68 43,-40 7,9 30,17 52,19 32,2 40,7 40,23 0,16 -8,21 -43,23 -26,2 -45,9 -49,18 -5,15 -25,19 -36,7 z"
       id="path3353"
       inkscape:connector-curvature="0" />
    <path
       d="m 1487,1553 c -4,-3 -7,-26 -7,-50 0,-48 22,-68 43,-40 7,9 30,17 52,19 32,2 40,7 40,23 0,16 -8,21 -43,23 -26,2 -45,9 -49,18 -5,15 -25,19 -36,7 z"
       id="path3355"
       inkscape:connector-curvature="0" />
    <path
       d="m 4397,1553 c -4,-3 -7,-26 -7,-50 0,-48 22,-68 43,-40 7,9 23,17 37,19 37,5 34,42 -3,46 -16,2 -31,10 -34,18 -5,15 -25,19 -36,7 z"
       id="path3357"
       inkscape:connector-curvature="0" />
    <path
       d="m 254,1515 c -10,-25 9,-37 57,-33 36,2 44,7 44,23 0,17 -8,20 -48,23 -36,2 -49,-1 -53,-13 z"
       id="path3359"
       inkscape:connector-curvature="0" />
    <path
       d="m 434,1515 c -10,-25 9,-37 57,-33 36,2 44,7 44,23 0,17 -8,20 -48,23 -36,2 -49,-1 -53,-13 z"
       id="path3361"
       inkscape:connector-curvature="0" />
    <path
       d="m 614,1515 c -10,-25 9,-37 57,-33 36,2 44,7 44,23 0,17 -8,20 -48,23 -36,2 -49,-1 -53,-13 z"
       id="path3363"
       inkscape:connector-curvature="0" />
    <path
       d="m 974,1515 c -10,-25 9,-37 57,-33 36,2 44,7 44,23 0,17 -8,20 -48,23 -36,2 -49,-1 -53,-13 z"
       id="path3365"
       inkscape:connector-curvature="0" />
    <path
       d="m 1154,1515 c -10,-25 9,-37 57,-33 36,2 44,7 44,23 0,17 -8,20 -48,23 -36,2 -49,-1 -53,-13 z"
       id="path3367"
       inkscape:connector-curvature="0" />
    <path
       d="m 1334,1515 c -10,-25 9,-37 57,-33 36,2 44,7 44,23 0,17 -8,20 -48,23 -36,2 -49,-1 -53,-13 z"
       id="path3369"
       inkscape:connector-curvature="0" />
    <path
       d="m 1694,1515 c -10,-25 9,-37 57,-33 36,2 44,7 44,23 0,17 -8,20 -48,23 -36,2 -49,-1 -53,-13 z"
       id="path3371"
       inkscape:connector-curvature="0" />
    <path
       d="m 1874,1515 c -10,-25 9,-37 57,-33 36,2 44,7 44,23 0,17 -8,20 -48,23 -36,2 -49,-1 -53,-13 z"
       id="path3373"
       inkscape:connector-curvature="0" />
    <path
       d="m 2054,1515 c -10,-26 7,-38 48,-32 46,6 53,11 45,32 -8,20 -85,21 -93,0 z"
       id="path3375"
       inkscape:connector-curvature="0" />
    <path
       d="m 3854,1515 c -10,-25 9,-37 57,-33 36,2 44,7 44,23 0,17 -8,20 -48,23 -36,2 -49,-1 -53,-13 z"
       id="path3377"
       inkscape:connector-curvature="0" />
    <path
       d="m 4034,1515 c -10,-25 9,-37 57,-33 36,2 44,7 44,23 0,17 -8,20 -48,23 -36,2 -49,-1 -53,-13 z"
       id="path3379"
       inkscape:connector-curvature="0" />
    <path
       d="m 4214,1515 c -10,-25 9,-37 57,-33 36,2 44,7 44,23 0,17 -8,20 -48,23 -36,2 -49,-1 -53,-13 z"
       id="path3381"
       inkscape:connector-curvature="0" />
    <path
       d="m 4574,1515 c -10,-25 9,-37 57,-33 36,2 44,7 44,23 0,17 -8,20 -48,23 -36,2 -49,-1 -53,-13 z"
       id="path3383"
       inkscape:connector-curvature="0" />
    <path
       d="m 4754,1515 c -10,-25 9,-37 57,-33 36,2 44,7 44,23 0,17 -8,20 -48,23 -36,2 -49,-1 -53,-13 z"
       id="path3385"
       inkscape:connector-curvature="0" />
    <path
       d="m 4934,1515 c -9,-24 5,-35 45,-35 44,0 66,17 50,37 -16,18 -88,17 -95,-2 z"
       id="path3387"
       inkscape:connector-curvature="0" />
    <path
       d="m 764,1367 c -3,-8 -4,-32 -2,-53 2,-31 7,-39 23,-39 17,0 20,7 20,50 0,39 -4,50 -18,53 -9,2 -20,-3 -23,-11 z"
       id="path3389"
       inkscape:connector-curvature="0" />
    <path
       d="m 1484,1367 c -3,-8 -4,-32 -2,-53 2,-31 7,-39 23,-39 17,0 20,7 20,50 0,39 -4,50 -18,53 -9,2 -20,-3 -23,-11 z"
       id="path3391"
       inkscape:connector-curvature="0" />
    <path
       d="m 4394,1367 c -3,-8 -4,-32 -2,-53 2,-31 7,-39 23,-39 17,0 20,7 20,50 0,39 -4,50 -18,53 -9,2 -20,-3 -23,-11 z"
       id="path3393"
       inkscape:connector-curvature="0" />
    <path
       d="m 764,1187 c -3,-8 -4,-32 -2,-53 2,-31 7,-39 23,-39 17,0 20,7 20,50 0,39 -4,50 -18,53 -9,2 -20,-3 -23,-11 z"
       id="path3395"
       inkscape:connector-curvature="0" />
    <path
       d="m 1484,1187 c -3,-8 -4,-32 -2,-53 2,-31 7,-39 23,-39 17,0 20,7 20,50 0,39 -4,50 -18,53 -9,2 -20,-3 -23,-11 z"
       id="path3397"
       inkscape:connector-curvature="0" />
    <path
       d="m 4394,1187 c -3,-8 -4,-32 -2,-53 2,-31 7,-39 23,-39 17,0 20,7 20,50 0,39 -4,50 -18,53 -9,2 -20,-3 -23,-11 z"
       id="path3399"
       inkscape:connector-curvature="0" />
    <path
       d="m 764,1007 c -3,-8 -4,-32 -2,-53 2,-31 7,-39 23,-39 17,0 20,7 20,50 0,39 -4,50 -18,53 -9,2 -20,-3 -23,-11 z"
       id="path3401"
       inkscape:connector-curvature="0" />
    <path
       d="m 1484,1007 c -3,-8 -4,-32 -2,-53 2,-31 7,-39 23,-39 17,0 20,7 20,50 0,39 -4,50 -18,53 -9,2 -20,-3 -23,-11 z"
       id="path3403"
       inkscape:connector-curvature="0" />
    <path
       d="m 4397,1014 c -13,-14 -7,-81 8,-94 24,-20 37,1 33,51 -3,42 -22,62 -41,43 z"
       id="path3405"
       inkscape:connector-curvature="0" />
    <path
       d="m 767,833 c -4,-3 -7,-26 -7,-50 0,-48 22,-68 43,-40 7,9 30,17 52,19 32,2 40,7 40,23 0,16 -8,21 -43,23 -26,2 -45,9 -49,18 -5,15 -25,19 -36,7 z"
       id="path3407"
       inkscape:connector-curvature="0" />
    <path
       d="m 254,795 c -10,-25 9,-37 57,-33 36,2 44,7 44,23 0,17 -8,20 -48,23 -36,2 -49,-1 -53,-13 z"
       id="path3409"
       inkscape:connector-curvature="0" />
    <path
       d="m 434,795 c -10,-25 9,-37 57,-33 36,2 44,7 44,23 0,17 -8,20 -48,23 -36,2 -49,-1 -53,-13 z"
       id="path3411"
       inkscape:connector-curvature="0" />
    <path
       d="m 614,795 c -10,-25 9,-37 57,-33 36,2 44,7 44,23 0,17 -8,20 -48,23 -36,2 -49,-1 -53,-13 z"
       id="path3413"
       inkscape:connector-curvature="0" />
    <path
       d="m 974,795 c -10,-25 9,-37 57,-33 36,2 44,7 44,23 0,17 -8,20 -48,23 -36,2 -49,-1 -53,-13 z"
       id="path3415"
       inkscape:connector-curvature="0" />
    <path
       d="m 1154,795 c -10,-25 9,-37 57,-33 36,2 44,7 44,23 0,17 -8,20 -48,23 -36,2 -49,-1 -53,-13 z"
       id="path3417"
       inkscape:connector-curvature="0" />
    <path
       d="m 1334,795 c -10,-24 6,-35 51,-35 42,0 57,11 48,38 -7,18 -92,16 -99,-3 z"
       id="path3419"
       inkscape:connector-curvature="0" />
    <path
       d="m 4574,795 c -10,-25 9,-37 57,-33 36,2 44,7 44,23 0,17 -8,20 -48,23 -36,2 -49,-1 -53,-13 z"
       id="path3421"
       inkscape:connector-curvature="0" />
    <path
       d="m 4754,795 c -10,-25 9,-37 57,-33 36,2 44,7 44,23 0,17 -8,20 -48,23 -36,2 -49,-1 -53,-13 z"
       id="path3423"
       inkscape:connector-curvature="0" />
    <path
       d="m 4934,795 c -9,-24 5,-35 45,-35 44,0 66,17 50,37 -16,18 -88,17 -95,-2 z"
       id="path3425"
       inkscape:connector-curvature="0" />
    <path
       d="m 764,647 c -3,-8 -4,-32 -2,-53 2,-31 7,-39 23,-39 17,0 20,7 20,50 0,39 -4,50 -18,53 -9,2 -20,-3 -23,-11 z"
       id="path3427"
       inkscape:connector-curvature="0" />
    <path
       d="m 1484,647 c -3,-8 -4,-32 -2,-53 2,-31 7,-39 23,-39 17,0 20,7 20,50 0,39 -4,50 -18,53 -9,2 -20,-3 -23,-11 z"
       id="path3429"
       inkscape:connector-curvature="0" />
    <path
       d="m 2204,647 c -3,-8 -4,-32 -2,-53 2,-31 7,-39 23,-39 17,0 20,7 20,50 0,39 -4,50 -18,53 -9,2 -20,-3 -23,-11 z"
       id="path3431"
       inkscape:connector-curvature="0" />
    <path
       d="m 2924,647 c -3,-8 -4,-32 -2,-53 2,-31 7,-39 23,-39 17,0 20,7 20,50 0,39 -4,50 -18,53 -9,2 -20,-3 -23,-11 z"
       id="path3433"
       inkscape:connector-curvature="0" />
    <path
       d="m 3674,647 c -3,-8 -4,-32 -2,-53 2,-31 7,-39 23,-39 17,0 20,7 20,50 0,39 -4,50 -18,53 -9,2 -20,-3 -23,-11 z"
       id="path3435"
       inkscape:connector-curvature="0" />
    <path
       d="m 4394,647 c -3,-8 -4,-32 -2,-53 2,-31 7,-39 23,-39 17,0 20,7 20,50 0,39 -4,50 -18,53 -9,2 -20,-3 -23,-11 z"
       id="path3437"
       inkscape:connector-curvature="0" />
    <path
       d="m 764,467 c -3,-8 -4,-32 -2,-53 2,-31 7,-39 23,-39 17,0 20,7 20,50 0,39 -4,50 -18,53 -9,2 -20,-3 -23,-11 z"
       id="path3439"
       inkscape:connector-curvature="0" />
    <path
       d="m 1484,467 c -3,-8 -4,-32 -2,-53 2,-31 7,-39 23,-39 17,0 20,7 20,50 0,39 -4,50 -18,53 -9,2 -20,-3 -23,-11 z"
       id="path3441"
       inkscape:connector-curvature="0" />
    <path
       d="m 2204,467 c -3,-8 -4,-32 -2,-53 2,-31 7,-39 23,-39 17,0 20,7 20,50 0,39 -4,50 -18,53 -9,2 -20,-3 -23,-11 z"
       id="path3443"
       inkscape:connector-curvature="0" />
    <path
       d="m 2924,467 c -3,-8 -4,-32 -2,-53 2,-31 7,-39 23,-39 17,0 20,7 20,50 0,39 -4,50 -18,53 -9,2 -20,-3 -23,-11 z"
       id="path3445"
       inkscape:connector-curvature="0" />
    <path
       d="m 3674,467 c -3,-8 -4,-32 -2,-53 2,-31 7,-39 23,-39 17,0 20,7 20,50 0,39 -4,50 -18,53 -9,2 -20,-3 -23,-11 z"
       id="path3447"
       inkscape:connector-curvature="0" />
    <path
       d="m 4394,467 c -3,-8 -4,-32 -2,-53 2,-31 7,-39 23,-39 17,0 20,7 20,50 0,39 -4,50 -18,53 -9,2 -20,-3 -23,-11 z"
       id="path3449"
       inkscape:connector-curvature="0" />
    <path
       d="m 764,287 c -3,-8 -4,-32 -2,-53 2,-31 7,-39 23,-39 17,0 20,7 20,50 0,39 -4,50 -18,53 -9,2 -20,-3 -23,-11 z"
       id="path3451"
       inkscape:connector-curvature="0" />
    <path
       d="m 1484,287 c -3,-8 -4,-32 -2,-53 2,-31 7,-39 23,-39 17,0 20,7 20,50 0,39 -4,50 -18,53 -9,2 -20,-3 -23,-11 z"
       id="path3453"
       inkscape:connector-curvature="0" />
    <path
       d="m 2204,287 c -3,-8 -4,-32 -2,-53 2,-31 7,-39 23,-39 17,0 20,7 20,50 0,39 -4,50 -18,53 -9,2 -20,-3 -23,-11 z"
       id="path3455"
       inkscape:connector-curvature="0" />
    <path
       d="m 2924,287 c -3,-8 -4,-32 -2,-53 2,-31 7,-39 23,-39 17,0 20,7 20,50 0,39 -4,50 -18,53 -9,2 -20,-3 -23,-11 z"
       id="path3457"
       inkscape:connector-curvature="0" />
    <path
       d="m 3674,287 c -3,-8 -4,-32 -2,-53 2,-31 7,-39 23,-39 17,0 20,7 20,50 0,39 -4,50 -18,53 -9,2 -20,-3 -23,-11 z"
       id="path3459"
       inkscape:connector-curvature="0" />
    <path
       d="m 4394,287 c -3,-8 -4,-32 -2,-53 2,-31 7,-39 23,-39 17,0 20,7 20,50 0,39 -4,50 -18,53 -9,2 -20,-3 -23,-11 z"
       id="path3461"
       inkscape:connector-curvature="0" />
  </g>
  <path
     style="fill:#000000;fill-opacity:1;fill-rule:nonzero;stroke:none"
     d="m 46.188809,26.916251 c -1.980382,0.63033 -3.144542,2.61427 -4.721964,3.8614 -4.0759,4.08733 -8.364968,8.00556 -12.123741,12.38105 -0.613462,0.49852 -0.742706,1.78649 0.291898,1.82274 4.911528,0.46191 9.895771,0.5239 14.808912,0.0454 0.684448,0.0836 1.430386,-0.51273 0.823797,-1.14813 -1.209978,-1.56669 -2.598715,-3.1734 -2.497342,-5.28657 -0.110592,-2.41771 -0.03645,-4.83921 -0.05838,-7.25851 1.043803,-0.86591 2.095808,-2.673 3.697364,-1.97193 2.202013,1.05287 2.767727,3.78391 2.640046,6.01308 -0.03862,2.51655 0.389085,5.51275 -1.667056,7.4077 -0.620677,0.50034 -1.199128,1.82966 -0.08433,2.10166 4.239496,0.39862 8.542365,0.16375 12.804501,0.15753 1.18516,-0.16056 2.554819,0.18033 3.652007,-0.30024 0.555194,-1.22863 -1.053754,-2.15151 -1.657123,-3.01765 -4.865627,-5.04477 -9.78594,-10.08847 -15.136687,-14.61942 -0.219994,-0.17362 -0.49511,-0.24338 -0.771907,-0.18811 z"
     id="path3729"
     inkscape:connector-curvature="0" />
  <path
     style="fill:#000000;fill-opacity:1;fill-rule:nonzero;stroke:none"
     d="m 90.959335,71.641371 c -2.013655,1.13265 -3.492683,3.05982 -5.234687,4.56657 -11.414563,11.23861 -22.693584,22.63537 -33.773405,34.201079 -0.550805,0.35653 -1.280506,1.57743 -0.196929,1.74118 6.949719,0.6401 13.948677,0.2924 20.919284,0.41575 19.031518,-0.006 38.065752,0.0584 57.095082,-0.24061 0.69322,0.028 1.87781,-0.46924 1.29083,-1.3103 -3.93082,-4.38892 -8.25943,-8.45762 -12.36791,-12.701269 -8.68407,-8.65934 -17.25062,-17.45588 -26.110615,-25.92644 -0.476903,-0.32652 -1.012954,-0.74874 -1.62165,-0.74596 z m -2.964377,17.59815 c 1.160442,0.16451 2.335784,0.9589 3.509253,0.30487 1.742061,-0.87678 3.299304,1.00623 3.943849,2.41302 0.57141,2.67865 0.44519,5.49355 0.27244,8.218519 -0.16618,1.54385 -0.91354,3.23041 -2.302744,3.99575 -1.615606,0.18829 -3.310681,0.0123 -4.78711,0.84326 -1.676578,0.37532 -2.719437,-1.4975 -3.885474,-2.34815 0.139714,-3.480639 -0.311069,-7.030729 0.337302,-10.469379 0.460491,-1.2503 1.548016,-2.41719 2.769779,-2.94492 0.04814,0.003 0.09485,-0.0144 0.142705,-0.013 z"
     id="path3731"
     inkscape:connector-curvature="0" />
  <path
     style="fill:#000000;fill-opacity:1;fill-rule:nonzero;stroke:none"
     d="m 90.258783,66.711551 c -1.025547,0.36169 -1.002442,1.5812 -1.478946,2.34815 -5.390171,5.95181 -11.339414,11.49544 -17.006057,17.23837 -8.960813,8.96807 -18.090079,17.783099 -26.97959,26.812149 -0.55608,0.41245 -1.037068,1.17545 -0.265952,1.66057 1.204423,1.28394 3.156373,0.45783 4.715745,0.69833 29.120325,0.12699 58.243237,0.0571 87.361567,0.3979 0.78112,-0.101 1.33989,0.94147 2.06923,0.28541 0.85154,-0.52757 1.26393,-1.3978 0.13666,-1.95468 -15.4469,-15.460739 -30.81666,-31.019059 -46.327753,-46.402929 -0.615627,-0.28641 -1.35113,-0.22302 -1.699489,-0.91462 -0.140408,-0.13311 -0.332533,-0.20422 -0.525415,-0.16865 z m -1.440025,30.42865 c 0,2.03247 0,4.064939 0,6.097409 -1.587411,0.36224 -2.142665,-0.29773 -1.778713,-1.86805 0.03458,-3.403299 0.06325,-6.806649 0.0922,-10.209999 1.574713,-0.48723 1.995948,0.26001 1.686517,1.77084 0,1.40327 0,2.80653 0,4.2098 z m 3.878986,-6.07146 c 1.662987,-0.39593 0.595088,1.93902 0.895152,2.906 0,2.81086 0,5.62172 0,8.432579 -1.584233,0.36476 -2.13681,-0.30215 -1.790301,-1.86814 0,-3.156809 0,-6.313619 0,-9.470439 0.298383,0 0.596765,0 0.895149,0 z"
     id="path3733"
     inkscape:connector-curvature="0" />
</svg>
