<?xml version="1.0" encoding="UTF-8"?>
<svg xmlns="http://www.w3.org/2000/svg" xmlns:xlink="http://www.w3.org/1999/xlink" width="350pt" height="328pt" viewBox="0 0 350 328" version="1.1">
<g id="surface1">
<path style=" stroke:none;fill-rule:nonzero;fill:rgb(0%,0%,0%);fill-opacity:1;" d="M 248.832031 5.277344 C 247.527344 6.398438 245.523438 7.703125 244.308594 8.125 C 243.097656 8.59375 242.023438 9.246094 241.882812 9.621094 C 241.746094 9.992188 241.230469 10.273438 240.765625 10.273438 C 240.25 10.273438 239.179688 10.785156 238.292969 11.394531 C 237.40625 12.046875 235.355469 13.355469 233.675781 14.289062 C 231.996094 15.269531 229.898438 16.578125 229.011719 17.230469 C 226.867188 18.820312 225.417969 19.613281 224.71875 19.613281 C 224.394531 19.613281 223.507812 20.21875 222.714844 20.96875 C 221.222656 22.414062 218.003906 24.28125 217.023438 24.28125 C 216.699219 24.28125 216.417969 24.46875 216.417969 24.703125 C 216.417969 24.9375 215.296875 25.589844 213.992188 26.148438 C 212.640625 26.710938 210.914062 27.738281 210.121094 28.4375 C 209.375 29.1875 207.976562 30.027344 207.136719 30.351562 C 206.25 30.726562 204.851562 31.566406 204.105469 32.269531 C 203.3125 32.921875 201.445312 34.042969 200 34.742188 C 198.554688 35.441406 196.875 36.515625 196.269531 37.125 C 195.664062 37.777344 194.960938 38.292969 194.636719 38.292969 C 194.308594 38.292969 193.285156 38.664062 192.398438 39.085938 C 190.71875 39.878906 190.71875 39.878906 191.042969 42.214844 C 191.183594 43.523438 191.652344 45.390625 191.976562 46.417969 C 192.351562 47.398438 192.628906 48.566406 192.628906 48.984375 C 192.628906 49.453125 193.191406 51.132812 193.84375 52.8125 C 195.289062 56.316406 195.753906 58.324219 196.363281 62.996094 C 196.59375 64.863281 197.109375 66.777344 197.527344 67.242188 C 197.902344 67.664062 198.226562 68.363281 198.226562 68.832031 C 198.226562 69.25 198.460938 70.09375 198.789062 70.652344 C 199.253906 71.539062 199.8125 73.875 201.027344 80.085938 C 201.210938 81.113281 201.820312 82.839844 202.378906 83.960938 C 203.359375 85.875 203.683594 87.136719 204.757812 92.925781 C 205.039062 94.328125 205.503906 96.007812 205.785156 96.664062 C 206.296875 97.878906 206.625 99.089844 207.695312 104.132812 C 208.023438 105.816406 208.535156 107.589844 208.816406 108.105469 C 209.515625 109.363281 210.496094 112.773438 211.707031 118.144531 C 213.292969 125.148438 213.292969 125.148438 216.136719 125.148438 C 217.445312 125.148438 219.542969 124.820312 220.800781 124.449219 C 222.0625 124.074219 223.789062 123.746094 224.625 123.746094 C 225.464844 123.746094 226.726562 123.46875 227.472656 123.09375 C 229.105469 122.253906 232.835938 121.273438 239.273438 120.058594 C 245.523438 118.84375 248.042969 118.191406 249.625 117.394531 C 250.28125 117.023438 251.867188 116.742188 253.171875 116.742188 C 254.429688 116.742188 256.390625 116.414062 257.460938 116.042969 C 258.535156 115.667969 260.214844 115.339844 261.148438 115.339844 C 262.082031 115.339844 263.246094 115.0625 263.757812 114.6875 C 264.273438 114.359375 265.859375 113.941406 267.257812 113.800781 C 272.15625 113.332031 279.292969 111.605469 280.644531 110.578125 C 280.921875 110.34375 282.601562 109.972656 284.375 109.738281 C 289.085938 109.132812 294.355469 108.105469 295.847656 107.449219 C 296.59375 107.167969 297.714844 106.9375 298.414062 106.9375 C 299.113281 106.9375 300.09375 106.609375 300.558594 106.234375 C 301.074219 105.863281 302.285156 105.535156 303.21875 105.535156 C 304.199219 105.535156 306.203125 105.207031 307.695312 104.835938 C 309.140625 104.460938 310.960938 104.132812 311.753906 104.132812 C 312.5 104.132812 314.273438 103.574219 315.71875 102.921875 C 317.164062 102.21875 319.683594 101.519531 321.363281 101.285156 C 327.472656 100.539062 330.875 99.886719 331.484375 99.417969 C 332.042969 98.90625 333.488281 98.671875 341.417969 97.550781 C 343.332031 97.269531 345.054688 96.894531 345.242188 96.757812 C 345.894531 96.101562 345.054688 94.46875 343.703125 93.675781 C 342.910156 93.207031 342.070312 92.320312 341.792969 91.714844 C 341.511719 91.058594 340.578125 90.125 339.738281 89.613281 C 338.898438 89.097656 337.734375 87.929688 337.21875 87.042969 C 336.660156 86.203125 335.960938 85.457031 335.632812 85.457031 C 335.308594 85.457031 333.816406 84.148438 332.371094 82.511719 C 329.246094 79.152344 329.382812 79.292969 326.539062 76.722656 C 325.375 75.648438 323.695312 74.109375 322.855469 73.222656 C 320.988281 71.351562 320.847656 71.214844 316.976562 67.523438 C 314.691406 65.328125 313.898438 64.300781 313.898438 63.367188 C 313.898438 62.621094 313.621094 62.105469 313.292969 62.105469 C 312.917969 62.105469 311.707031 61.125 310.542969 59.867188 C 309.375 58.652344 307.417969 56.738281 306.15625 55.570312 C 304.898438 54.402344 303.5 52.859375 303.03125 52.160156 C 302.613281 51.460938 301.957031 50.898438 301.679688 50.898438 C 301.398438 50.898438 299.207031 48.9375 296.875 46.558594 C 294.542969 44.222656 287.734375 37.542969 281.761719 31.753906 C 275.746094 25.964844 268.285156 18.726562 265.160156 15.644531 C 254.382812 5.042969 252.425781 3.269531 251.820312 3.269531 C 251.445312 3.269531 250.09375 4.203125 248.832031 5.277344 Z M 254.199219 9.804688 C 255.363281 10.832031 256.484375 11.859375 256.667969 12.09375 C 257.089844 12.5625 260.074219 15.550781 260.726562 16.203125 C 260.960938 16.390625 263.339844 18.726562 265.953125 21.339844 C 268.609375 23.957031 271.457031 26.757812 272.339844 27.644531 C 273.179688 28.484375 274.71875 30.027344 275.699219 31.054688 C 276.679688 32.082031 279.523438 34.835938 282.042969 37.21875 C 288.246094 43.054688 288.433594 43.242188 295.429688 50.292969 C 298.789062 53.703125 301.679688 56.503906 301.820312 56.503906 C 302.519531 56.503906 308.675781 63.179688 308.488281 63.695312 C 308.394531 63.976562 312.6875 68.410156 318.003906 73.546875 C 323.320312 78.683594 329.246094 84.523438 331.203125 86.484375 C 333.164062 88.492188 334.980469 90.125 335.214844 90.125 C 335.773438 90.125 338.152344 93.113281 338.152344 93.769531 C 338.152344 94 337.359375 94.375 336.425781 94.515625 C 334.5625 94.886719 332.277344 95.496094 329.992188 96.289062 C 329.246094 96.570312 327.238281 96.941406 325.558594 97.175781 C 320.335938 97.832031 316.511719 98.578125 315.207031 99.277344 C 314.550781 99.652344 313.199219 99.933594 312.171875 99.933594 C 311.195312 99.933594 309.234375 100.257812 307.835938 100.632812 C 306.4375 101.003906 304.710938 101.332031 304.058594 101.332031 C 303.359375 101.332031 301.585938 101.894531 300.140625 102.546875 C 298.648438 103.199219 296.128906 103.902344 294.589844 104.132812 C 287.78125 105.066406 284.703125 105.722656 283.816406 106.28125 C 283.300781 106.65625 282.183594 106.9375 281.25 106.9375 C 280.363281 106.984375 279.105469 107.261719 278.453125 107.636719 C 277.796875 108.011719 276.632812 108.289062 275.792969 108.335938 C 274.953125 108.335938 273.085938 108.664062 271.59375 109.039062 C 270.148438 109.410156 268.238281 109.738281 267.398438 109.738281 C 266.558594 109.738281 264.738281 110.296875 263.386719 110.953125 C 262.082031 111.605469 259.609375 112.351562 257.929688 112.539062 C 252.285156 113.242188 248.554688 113.941406 247.527344 114.5 C 246.96875 114.828125 245.335938 115.203125 243.9375 115.386719 C 239.039062 115.996094 234.839844 116.789062 233.675781 117.304688 C 233.023438 117.582031 231.667969 117.957031 230.644531 118.144531 C 229.617188 118.378906 228.171875 118.75 227.378906 118.984375 C 225.046875 119.824219 216.792969 121.414062 216.371094 121.132812 C 216.136719 120.992188 215.953125 120.386719 215.953125 119.777344 C 215.953125 118.144531 215.066406 114.40625 214.273438 112.867188 C 213.898438 112.121094 213.621094 111.1875 213.621094 110.71875 C 213.621094 110.296875 213.433594 109.738281 213.152344 109.457031 C 212.734375 109.039062 212.21875 107.078125 211.332031 101.941406 C 211.054688 100.632812 210.542969 98.90625 210.167969 98.109375 C 209.75 97.363281 209.421875 96.335938 209.421875 95.824219 C 209.421875 95.355469 209.1875 94.75 208.863281 94.421875 C 208.535156 94.09375 208.164062 92.742188 207.976562 91.433594 C 207.460938 88.070312 206.484375 83.960938 205.96875 83.121094 C 205.691406 82.746094 205.363281 81.625 205.175781 80.550781 C 204.335938 75.835938 203.265625 71.867188 202.238281 69.53125 C 201.585938 68.132812 200.839844 65.1875 200.511719 62.808594 C 200.234375 60.472656 199.582031 57.71875 199.113281 56.644531 C 198.601562 55.570312 198.226562 54.496094 198.226562 54.214844 C 198.226562 53.933594 197.949219 53.046875 197.574219 52.207031 C 197.203125 51.367188 196.457031 48.75 195.941406 46.464844 L 194.960938 42.261719 L 196.5 41 C 197.292969 40.300781 198.226562 39.691406 198.554688 39.691406 C 199.394531 39.691406 202.566406 37.964844 203.683594 36.9375 C 204.199219 36.421875 205.691406 35.488281 206.949219 34.835938 C 208.253906 34.183594 209.886719 33.15625 210.632812 32.546875 C 211.378906 31.941406 212.453125 31.285156 213.011719 31.101562 C 213.574219 30.914062 215.066406 30.074219 216.324219 29.230469 C 217.539062 28.34375 219.496094 27.175781 220.617188 26.617188 C 221.78125 26.058594 222.902344 25.261719 223.085938 24.9375 C 223.273438 24.5625 223.789062 24.28125 224.160156 24.28125 C 225.09375 24.28125 227.472656 23.023438 229.476562 21.480469 C 230.363281 20.78125 231.855469 19.847656 232.742188 19.332031 C 233.628906 18.867188 235.121094 17.886719 236.007812 17.230469 C 236.894531 16.578125 238.574219 15.597656 239.738281 15.082031 C 240.90625 14.523438 242.351562 13.542969 242.957031 12.886719 C 243.609375 12.234375 244.402344 11.675781 244.777344 11.675781 C 245.570312 11.675781 248.179688 10.273438 248.832031 9.480469 C 249.207031 9.011719 251.121094 8.078125 251.867188 7.984375 C 252.003906 7.9375 253.03125 8.777344 254.199219 9.804688 Z M 254.199219 9.804688 "/>
<path style=" stroke:none;fill-rule:nonzero;fill:rgb(0%,0%,0%);fill-opacity:1;" d="M 23.320312 64.769531 L 23.320312 103.902344 L 92.164062 103.808594 C 130.082031 103.714844 161.148438 103.621094 161.242188 103.527344 C 161.332031 103.386719 161.425781 85.921875 161.425781 64.628906 L 161.425781 25.917969 L 92.351562 25.777344 L 23.320312 25.683594 Z M 157.507812 30.027344 C 157.601562 30.121094 157.648438 45.855469 157.648438 64.957031 L 157.648438 99.699219 L 27.9375 99.699219 L 27.9375 64.769531 C 27.9375 45.578125 27.984375 29.839844 27.984375 29.746094 C 27.984375 29.558594 157.324219 29.839844 157.507812 30.027344 Z M 157.507812 30.027344 "/>
<path style=" stroke:none;fill-rule:nonzero;fill:rgb(0%,0%,0%);fill-opacity:1;" d="M 54.292969 111.230469 C 54.152344 111.464844 54.011719 114.59375 54.011719 118.238281 C 53.964844 123.886719 54.105469 124.960938 54.757812 125.382812 C 56.203125 126.269531 57.136719 125.101562 57.136719 122.300781 L 57.136719 119.777344 L 59.515625 119.917969 C 61.148438 120.011719 62.035156 119.871094 62.40625 119.40625 C 63.292969 118.332031 61.988281 117.582031 59.375 117.769531 L 57.136719 117.910156 L 57.136719 112.773438 L 59.933594 112.773438 C 62.40625 112.773438 62.734375 112.679688 62.734375 111.839844 C 62.734375 111 62.40625 110.90625 58.628906 110.859375 C 56.34375 110.859375 54.382812 111.046875 54.292969 111.230469 Z M 54.292969 111.230469 "/>
<path style=" stroke:none;fill-rule:nonzero;fill:rgb(0%,0%,0%);fill-opacity:1;" d="M 65.34375 111.324219 C 64.273438 112.585938 64.925781 113.707031 66.699219 113.707031 C 68.191406 113.707031 68.332031 113.613281 68.332031 112.304688 C 68.332031 111.140625 68.144531 110.859375 67.117188 110.765625 C 66.464844 110.671875 65.671875 110.953125 65.34375 111.324219 Z M 65.34375 111.324219 "/>
<path style=" stroke:none;fill-rule:nonzero;fill:rgb(0%,0%,0%);fill-opacity:1;" d="M 118.609375 112.773438 C 117.492188 113.941406 116.605469 115.25 116.605469 115.761719 C 116.605469 117.023438 117.863281 117.351562 118.46875 116.277344 C 119.589844 114.222656 119.960938 115.339844 119.777344 120.058594 C 119.636719 124.167969 119.730469 124.867188 120.476562 125.335938 C 121.035156 125.707031 121.5 125.707031 122.015625 125.382812 C 122.667969 124.960938 122.808594 123.886719 122.761719 118.238281 C 122.761719 114.59375 122.621094 111.417969 122.433594 111.140625 C 121.875 110.203125 120.523438 110.765625 118.609375 112.773438 Z M 118.609375 112.773438 "/>
<path style=" stroke:none;fill-rule:nonzero;fill:rgb(0%,0%,0%);fill-opacity:1;" d="M 72.109375 116.042969 C 71.035156 117.023438 70.894531 117.535156 70.894531 120.246094 C 70.894531 123.652344 71.828125 125.148438 73.925781 125.148438 C 75.1875 125.148438 75.558594 124.027344 74.394531 123.558594 C 73.320312 123.1875 73.414062 117.394531 74.488281 116.835938 C 75.375 116.324219 75 114.875 74.019531 114.875 C 73.648438 114.875 72.808594 115.386719 72.109375 116.042969 Z M 72.109375 116.042969 "/>
<path style=" stroke:none;fill-rule:nonzero;fill:rgb(0%,0%,0%);fill-opacity:1;" d="M 76.257812 116.089844 C 75.09375 117.164062 75.046875 117.304688 75.746094 118.097656 C 76.726562 119.171875 76.726562 122.160156 75.792969 122.53125 C 74.859375 122.859375 74.90625 123.746094 75.839844 123.746094 C 76.398438 123.746094 76.492188 124.167969 76.398438 125.707031 C 76.257812 127.53125 76.121094 127.714844 74.90625 127.855469 C 74.066406 127.949219 73.226562 127.667969 72.527344 127.015625 C 71.5 126.035156 70.429688 126.082031 70.429688 127.015625 C 70.429688 127.25 70.941406 127.996094 71.59375 128.648438 C 73.320312 130.332031 76.632812 130.332031 78.171875 128.605469 C 79.246094 127.484375 79.292969 127.109375 79.292969 121.460938 C 79.292969 116.414062 79.152344 115.386719 78.542969 115.15625 C 77.566406 114.78125 77.75 114.734375 76.257812 116.089844 Z M 76.257812 116.089844 "/>
<path style=" stroke:none;fill-rule:nonzero;fill:rgb(0%,0%,0%);fill-opacity:1;" d="M 82.417969 115.15625 C 82.230469 115.339844 82.089844 117.257812 82.089844 119.40625 C 82.089844 123.046875 82.183594 123.421875 83.300781 124.449219 C 84 125.101562 84.839844 125.613281 85.214844 125.613281 C 86.195312 125.613281 86.519531 124.261719 85.679688 123.605469 C 85.121094 123.1875 84.886719 122.066406 84.792969 119.078125 C 84.65625 115.480469 84.5625 115.109375 83.722656 114.96875 C 83.164062 114.875 82.601562 114.96875 82.417969 115.15625 Z M 82.417969 115.15625 "/>
<path style=" stroke:none;fill-rule:nonzero;fill:rgb(0%,0%,0%);fill-opacity:1;" d="M 88.011719 115.15625 C 87.828125 115.339844 87.6875 116.882812 87.6875 118.515625 C 87.6875 120.664062 87.453125 121.832031 86.941406 122.394531 C 86.242188 123.1875 86.289062 123.328125 87.453125 124.402344 C 88.898438 125.707031 89.039062 125.800781 89.925781 125.242188 C 90.34375 124.960938 90.484375 123.558594 90.390625 119.964844 C 90.25 115.480469 90.160156 115.109375 89.320312 114.96875 C 88.757812 114.875 88.199219 114.96875 88.011719 115.15625 Z M 88.011719 115.15625 "/>
<path style=" stroke:none;fill-rule:nonzero;fill:rgb(0%,0%,0%);fill-opacity:1;" d="M 93.75 115.25 C 93.46875 115.339844 93.285156 117.351562 93.285156 120.292969 C 93.285156 124.402344 93.421875 125.242188 94.03125 125.476562 C 95.707031 126.128906 96.269531 125.054688 96.269531 120.898438 C 96.316406 117.304688 96.410156 116.976562 97.25 116.976562 C 98.554688 116.976562 99.347656 116.367188 99.019531 115.527344 C 98.832031 115.015625 98.179688 114.875 96.5 114.96875 C 95.289062 115.0625 94.03125 115.15625 93.75 115.25 Z M 93.75 115.25 "/>
<path style=" stroke:none;fill-rule:nonzero;fill:rgb(0%,0%,0%);fill-opacity:1;" d="M 101.027344 116.277344 C 99.859375 117.488281 99.765625 117.675781 100.464844 117.957031 C 100.933594 118.144531 101.492188 117.957031 101.820312 117.441406 C 102.238281 116.929688 102.9375 116.695312 104.011719 116.835938 C 105.785156 116.976562 106.578125 118.144531 104.851562 118.144531 C 103.871094 118.144531 99.8125 121.460938 99.8125 122.300781 C 99.8125 122.488281 100.417969 123.328125 101.121094 124.121094 C 102.378906 125.523438 102.613281 125.613281 105.316406 125.476562 C 106.902344 125.382812 108.347656 125.148438 108.535156 124.960938 C 108.722656 124.773438 108.816406 122.953125 108.722656 120.898438 C 108.535156 116.183594 107.601562 114.875 104.429688 114.875 C 102.796875 114.921875 102.097656 115.15625 101.027344 116.277344 Z M 105.785156 121.503906 C 105.644531 123.28125 105.503906 123.511719 104.476562 123.511719 C 102.984375 123.511719 102.75 122.300781 103.871094 120.757812 C 105.175781 118.890625 105.96875 119.21875 105.785156 121.503906 Z M 105.785156 121.503906 "/>
<path style=" stroke:none;fill-rule:nonzero;fill:rgb(0%,0%,0%);fill-opacity:1;" d="M 65.207031 119.871094 C 65.066406 124.773438 65.34375 125.753906 66.882812 125.523438 C 67.816406 125.382812 67.863281 125.054688 68.003906 120.339844 L 68.144531 115.339844 L 65.34375 115.339844 Z M 65.207031 119.871094 "/>
<path style=" stroke:none;fill-rule:nonzero;fill:rgb(0%,0%,0%);fill-opacity:1;" d="M 258.816406 120.992188 C 258.535156 121.179688 258.300781 123.933594 258.300781 127.996094 C 258.253906 133.695312 258.394531 134.769531 259.046875 135.1875 C 260.496094 136.074219 261.425781 134.90625 261.425781 132.105469 L 261.425781 129.585938 L 263.804688 129.722656 C 265.4375 129.816406 266.324219 129.675781 266.699219 129.210938 C 267.582031 128.136719 266.277344 127.390625 263.667969 127.578125 L 261.425781 127.714844 L 261.425781 122.578125 L 264.226562 122.578125 C 266.699219 122.578125 267.023438 122.488281 267.023438 121.644531 C 267.023438 120.804688 266.699219 120.710938 263.152344 120.710938 C 261.007812 120.710938 259.046875 120.804688 258.816406 120.992188 Z M 258.816406 120.992188 "/>
<path style=" stroke:none;fill-rule:nonzero;fill:rgb(0%,0%,0%);fill-opacity:1;" d="M 269.636719 121.132812 C 268.5625 122.394531 269.214844 123.511719 270.988281 123.511719 C 272.480469 123.511719 272.621094 123.421875 272.621094 122.113281 C 272.621094 120.945312 272.433594 120.664062 271.410156 120.570312 C 270.753906 120.476562 269.960938 120.757812 269.636719 121.132812 Z M 269.636719 121.132812 "/>
<path style=" stroke:none;fill-rule:nonzero;fill:rgb(0%,0%,0%);fill-opacity:1;" d="M 320.753906 121.691406 C 319.960938 122.347656 319.496094 123.140625 319.683594 123.511719 C 320.054688 124.539062 322.15625 124.355469 322.761719 123.234375 C 323.085938 122.625 323.648438 122.347656 324.300781 122.441406 C 325.09375 122.53125 325.375 122.953125 325.464844 124.167969 C 325.605469 125.429688 325.375 125.988281 324.207031 127.0625 C 323.414062 127.761719 322.761719 128.742188 322.761719 129.257812 C 322.761719 129.722656 322.015625 130.75 321.128906 131.5 C 319.449219 132.898438 319.078125 134.019531 320.101562 134.859375 C 320.382812 135.140625 322.433594 135.28125 324.625 135.28125 C 328.265625 135.1875 328.589844 135.09375 328.589844 134.253906 C 328.589844 133.414062 328.265625 133.320312 325.980469 133.320312 C 324.488281 133.320312 323.179688 133.179688 323.042969 133.039062 C 322.902344 132.898438 323.695312 131.917969 324.859375 130.84375 C 326.027344 129.769531 326.957031 128.511719 326.957031 127.996094 C 326.957031 127.484375 327.378906 126.828125 327.84375 126.550781 C 329.246094 125.847656 328.964844 123.375 327.378906 121.785156 C 325.652344 120.011719 322.667969 119.964844 320.753906 121.691406 Z M 320.753906 121.691406 "/>
<path style=" stroke:none;fill-rule:nonzero;fill:rgb(0%,0%,0%);fill-opacity:1;" d="M 276.398438 125.847656 C 275.328125 126.828125 275.1875 127.34375 275.1875 130.050781 C 275.1875 133.460938 276.121094 134.953125 278.21875 134.953125 C 279.476562 134.953125 279.851562 133.832031 278.683594 133.367188 C 277.613281 132.992188 277.707031 127.203125 278.777344 126.640625 C 279.664062 126.128906 279.292969 124.679688 278.3125 124.679688 C 277.9375 124.679688 277.097656 125.195312 276.398438 125.847656 Z M 276.398438 125.847656 "/>
<path style=" stroke:none;fill-rule:nonzero;fill:rgb(0%,0%,0%);fill-opacity:1;" d="M 280.550781 125.894531 C 279.382812 126.96875 279.335938 127.109375 280.039062 127.902344 C 281.015625 128.976562 281.015625 131.964844 280.082031 132.339844 C 279.152344 132.667969 279.199219 133.554688 280.128906 133.554688 C 280.691406 133.554688 280.785156 133.972656 280.691406 135.515625 C 280.550781 137.335938 280.410156 137.523438 279.199219 137.664062 C 278.359375 137.757812 277.519531 137.476562 276.820312 136.824219 C 275.792969 135.839844 274.71875 135.886719 274.71875 136.824219 C 274.71875 137.054688 275.234375 137.804688 275.886719 138.457031 C 277.613281 140.136719 280.921875 140.136719 282.460938 138.410156 C 283.535156 137.289062 283.582031 136.914062 283.582031 131.265625 C 283.582031 126.222656 283.441406 125.195312 282.835938 124.960938 C 281.855469 124.585938 282.042969 124.539062 280.550781 125.894531 Z M 280.550781 125.894531 "/>
<path style=" stroke:none;fill-rule:nonzero;fill:rgb(0%,0%,0%);fill-opacity:1;" d="M 286.707031 124.960938 C 286.519531 125.148438 286.378906 127.0625 286.378906 129.210938 C 286.378906 132.851562 286.472656 133.226562 287.59375 134.253906 C 288.292969 134.90625 289.132812 135.421875 289.503906 135.421875 C 290.484375 135.421875 290.8125 134.066406 289.972656 133.414062 C 289.414062 132.992188 289.179688 131.871094 289.085938 128.882812 C 288.945312 125.289062 288.851562 124.914062 288.011719 124.773438 C 287.453125 124.679688 286.894531 124.773438 286.707031 124.960938 Z M 286.707031 124.960938 "/>
<path style=" stroke:none;fill-rule:nonzero;fill:rgb(0%,0%,0%);fill-opacity:1;" d="M 292.304688 124.960938 C 292.117188 125.148438 291.976562 126.6875 291.976562 128.324219 C 291.976562 130.472656 291.746094 131.640625 291.230469 132.199219 C 290.53125 132.992188 290.578125 133.132812 291.746094 134.207031 C 293.191406 135.515625 293.332031 135.609375 294.214844 135.046875 C 294.636719 134.769531 294.777344 133.367188 294.683594 129.769531 C 294.542969 125.289062 294.449219 124.914062 293.609375 124.773438 C 293.050781 124.679688 292.492188 124.773438 292.304688 124.960938 Z M 292.304688 124.960938 "/>
<path style=" stroke:none;fill-rule:nonzero;fill:rgb(0%,0%,0%);fill-opacity:1;" d="M 298.042969 125.054688 C 297.761719 125.148438 297.574219 127.15625 297.574219 130.097656 C 297.574219 134.207031 297.714844 135.046875 298.320312 135.28125 C 300 135.933594 300.558594 134.859375 300.558594 130.703125 C 300.605469 127.109375 300.699219 126.78125 301.539062 126.78125 C 302.84375 126.78125 303.636719 126.175781 303.3125 125.335938 C 303.125 124.820312 302.472656 124.679688 300.792969 124.773438 C 299.582031 124.867188 298.320312 124.960938 298.042969 125.054688 Z M 298.042969 125.054688 "/>
<path style=" stroke:none;fill-rule:nonzero;fill:rgb(0%,0%,0%);fill-opacity:1;" d="M 305.316406 126.082031 C 304.152344 127.296875 304.058594 127.484375 304.757812 127.761719 C 305.222656 127.949219 305.785156 127.761719 306.109375 127.25 C 306.53125 126.734375 307.230469 126.503906 308.300781 126.640625 C 310.074219 126.78125 310.867188 127.949219 309.140625 127.949219 C 308.164062 127.949219 304.105469 131.265625 304.105469 132.105469 C 304.105469 132.292969 304.710938 133.132812 305.457031 133.972656 C 306.714844 135.375 306.949219 135.46875 309.609375 135.28125 C 311.195312 135.1875 312.640625 135 312.828125 134.769531 C 313.011719 134.582031 313.105469 132.757812 313.011719 130.703125 C 312.828125 125.988281 311.894531 124.679688 308.722656 124.679688 C 307.089844 124.726562 306.390625 124.960938 305.316406 126.082031 Z M 310.074219 131.3125 C 309.933594 133.085938 309.792969 133.320312 308.769531 133.320312 C 307.277344 133.320312 307.042969 132.105469 308.164062 130.566406 C 309.46875 128.695312 310.261719 129.023438 310.074219 131.3125 Z M 310.074219 131.3125 "/>
<path style=" stroke:none;fill-rule:nonzero;fill:rgb(0%,0%,0%);fill-opacity:1;" d="M 269.496094 129.675781 C 269.355469 134.582031 269.636719 135.5625 271.175781 135.328125 C 272.109375 135.1875 272.15625 134.859375 272.292969 130.144531 L 272.433594 125.148438 L 269.636719 125.148438 Z M 269.496094 129.675781 "/>
<path style=" stroke:none;fill-rule:nonzero;fill:rgb(0%,0%,0%);fill-opacity:1;" d="M 293.609375 157.230469 C 293.097656 157.367188 292.492188 157.742188 292.304688 158.117188 C 292.117188 158.488281 291.699219 158.769531 291.417969 158.769531 C 291.183594 158.769531 290.160156 159.378906 289.179688 160.171875 C 288.199219 160.917969 287.265625 161.570312 287.082031 161.570312 C 286.941406 161.570312 285.914062 162.414062 284.886719 163.441406 C 283.816406 164.46875 282.789062 165.308594 282.601562 165.308594 C 282.417969 165.308594 281.667969 165.867188 280.921875 166.523438 C 280.222656 167.175781 278.171875 168.667969 276.351562 169.882812 C 274.582031 171.050781 271.96875 173.011719 270.617188 174.273438 C 269.214844 175.488281 267.863281 176.515625 267.539062 176.515625 C 267.210938 176.515625 266.277344 177.261719 265.390625 178.148438 C 264.503906 179.035156 263.574219 179.785156 263.246094 179.785156 C 262.964844 179.785156 262.453125 180.0625 262.171875 180.4375 C 261.289062 181.464844 254.476562 186.601562 252.84375 187.441406 C 252.050781 187.863281 250.933594 188.84375 250.375 189.589844 C 249.8125 190.382812 249.019531 190.992188 248.601562 190.992188 C 248.226562 190.992188 246.828125 191.878906 245.570312 193 C 244.261719 194.074219 242.628906 195.378906 241.835938 195.847656 C 241.089844 196.3125 239.972656 197.339844 239.367188 198.042969 C 238.757812 198.789062 238.011719 199.394531 237.6875 199.394531 C 237.40625 199.394531 236.425781 200.003906 235.542969 200.796875 C 234.65625 201.542969 233.675781 202.152344 233.394531 202.199219 C 233.117188 202.199219 231.4375 203.460938 229.710938 205 C 227.984375 206.539062 226.257812 207.800781 225.933594 207.800781 C 225.558594 207.800781 224.953125 208.363281 224.535156 209.015625 C 224.066406 209.667969 222.855469 210.605469 221.78125 211.117188 C 220.707031 211.632812 219.355469 212.660156 218.796875 213.40625 C 218.238281 214.199219 217.539062 214.804688 217.257812 214.804688 C 216.929688 214.804688 215.484375 215.742188 214.039062 216.90625 C 212.546875 218.074219 211.054688 219.007812 210.726562 219.007812 C 210.355469 219.007812 209.609375 219.617188 209.046875 220.410156 C 208.488281 221.15625 207.324219 222.136719 206.53125 222.558594 C 205.691406 222.976562 204.664062 223.820312 204.199219 224.425781 C 203.730469 224.988281 202.378906 225.96875 201.167969 226.574219 C 200 227.179688 198.695312 228.113281 198.320312 228.722656 C 197.902344 229.328125 197.109375 230.03125 196.5 230.261719 C 194.777344 230.917969 195.289062 232.457031 197.574219 233.671875 C 198.648438 234.1875 199.90625 235.167969 200.328125 235.820312 C 200.746094 236.472656 201.957031 237.359375 202.9375 237.828125 C 204.382812 238.527344 204.757812 238.949219 204.757812 239.976562 C 204.757812 241.238281 205.96875 242.824219 206.949219 242.824219 C 207.183594 242.824219 208.023438 243.433594 208.769531 244.226562 C 209.515625 244.972656 210.402344 245.625 210.726562 245.625 C 211.101562 245.625 212.6875 246.886719 214.273438 248.429688 C 215.90625 249.96875 217.398438 251.230469 217.675781 251.230469 C 218.097656 251.230469 218.984375 251.976562 224.019531 256.601562 C 224.953125 257.488281 225.886719 258.234375 226.027344 258.234375 C 226.445312 258.234375 229.664062 260.757812 233.253906 263.933594 C 234.980469 265.425781 236.613281 266.640625 236.894531 266.640625 C 237.21875 266.640625 238.011719 267.246094 238.710938 267.996094 C 241.136719 270.609375 245.941406 274.578125 249.113281 276.679688 C 250.933594 277.847656 252.519531 279.15625 252.660156 279.480469 C 252.796875 279.855469 253.636719 280.601562 254.570312 281.164062 C 255.550781 281.722656 256.761719 282.796875 257.371094 283.496094 C 257.976562 284.246094 259.1875 285.179688 260.074219 285.597656 C 260.960938 286.019531 262.035156 287 262.40625 287.699219 C 262.78125 288.449219 263.386719 289.054688 263.757812 289.054688 C 264.132812 289.054688 265.160156 289.707031 266 290.457031 C 266.882812 291.25 267.816406 291.855469 268.050781 291.855469 C 268.332031 291.855469 269.824219 293.117188 271.457031 294.660156 C 273.042969 296.199219 274.765625 297.554688 275.1875 297.695312 C 275.652344 297.832031 276.351562 298.488281 276.773438 299.09375 C 277.191406 299.75 278.359375 300.683594 279.382812 301.195312 C 280.410156 301.710938 281.25 302.316406 281.25 302.503906 C 281.25 303.0625 282.789062 304.511719 284.75 305.867188 C 289.457031 309.085938 297.386719 315.53125 300.140625 318.378906 C 300.933594 319.175781 301.773438 319.875 302.003906 319.875 C 302.566406 319.875 306.390625 322.722656 308.164062 324.449219 C 309.375 325.664062 310.027344 325.992188 311.195312 325.851562 L 312.734375 325.710938 L 312.875 322.535156 L 313.011719 319.359375 L 310.867188 319.640625 L 308.769531 319.96875 L 308.769531 318.566406 C 308.769531 317.773438 308.582031 317.027344 308.347656 316.886719 C 308.117188 316.746094 307.789062 315.8125 307.601562 314.878906 C 307.417969 313.898438 307.136719 313.011719 306.996094 312.871094 C 306.25 312.355469 304.570312 309.601562 304.570312 308.996094 C 304.570312 308.621094 304.058594 307.40625 303.453125 306.285156 C 301.027344 301.941406 300.746094 301.335938 299.8125 298.859375 C 299.300781 297.460938 298.554688 295.964844 298.226562 295.546875 C 297.855469 295.171875 297.574219 294.519531 297.574219 294.097656 C 297.574219 293.539062 295.523438 289.242188 293.84375 286.253906 C 293.609375 285.878906 293.097656 284.710938 292.675781 283.683594 C 292.257812 282.65625 291.746094 281.488281 291.511719 281.117188 C 291.277344 280.742188 289.925781 278.082031 288.527344 275.230469 C 287.125 272.335938 285.773438 269.863281 285.496094 269.675781 C 285.214844 269.535156 284.980469 268.929688 284.980469 268.367188 C 284.980469 267.761719 284.703125 266.921875 284.375 266.40625 C 284.046875 265.894531 283.070312 263.792969 282.183594 261.738281 C 281.34375 259.683594 280.039062 257.113281 279.292969 255.992188 C 278.589844 254.871094 277.984375 253.75 277.984375 253.519531 C 277.984375 253.050781 275.605469 248.054688 273.554688 244.226562 C 272.949219 243.058594 272.433594 241.5625 272.433594 240.863281 C 272.386719 240.210938 272.0625 239.042969 271.6875 238.296875 C 271.316406 237.59375 270.476562 235.820312 269.871094 234.417969 C 269.214844 233.019531 268.421875 231.476562 268.097656 231.058594 C 267.628906 230.402344 267.722656 229.84375 268.75 227.789062 C 269.402344 226.433594 270.289062 224.238281 270.664062 222.976562 C 271.035156 221.671875 271.875 219.429688 272.574219 217.886719 C 273.226562 216.394531 273.789062 214.667969 273.789062 214.058594 C 273.789062 213.5 274.066406 212.703125 274.394531 212.378906 C 275.464844 211.164062 276.492188 208.96875 277.425781 205.558594 C 277.984375 203.644531 278.917969 201.449219 279.523438 200.65625 C 280.128906 199.816406 280.785156 198.648438 280.921875 197.996094 C 281.667969 194.914062 282.460938 192.4375 282.929688 191.878906 C 283.207031 191.503906 283.582031 190.710938 283.722656 190.058594 C 284 188.5625 284.980469 185.808594 285.496094 184.921875 C 285.726562 184.546875 286.148438 183.707031 286.378906 183.050781 C 286.660156 182.398438 287.171875 181.230469 287.546875 180.484375 C 287.875 179.691406 288.527344 177.824219 288.992188 176.28125 C 289.414062 174.742188 290.160156 172.917969 290.625 172.265625 C 291.464844 171.050781 292.675781 168.0625 293.332031 165.539062 C 293.5625 164.746094 294.167969 163.394531 294.683594 162.503906 C 297.0625 158.675781 297.339844 157.835938 296.640625 157.367188 C 295.894531 156.902344 295.148438 156.855469 293.609375 157.230469 Z M 289.785156 164.699219 C 289.972656 164.839844 289.925781 165.214844 289.738281 165.496094 C 289.550781 165.773438 288.992188 167.175781 288.527344 168.578125 C 288.011719 169.976562 287.40625 171.472656 287.082031 171.84375 C 286.148438 173.105469 285.074219 175.769531 281.4375 186.085938 C 280.738281 188.140625 279.664062 190.570312 279.058594 191.457031 C 278.453125 192.34375 277.984375 193.417969 277.984375 193.839844 C 277.984375 194.257812 277.660156 195.242188 277.285156 195.941406 C 276.914062 196.6875 276.585938 197.714844 276.585938 198.230469 C 276.539062 198.742188 276.027344 200.003906 275.417969 201.03125 C 273.925781 203.460938 273.507812 204.347656 272.855469 206.867188 C 272.574219 208.035156 271.921875 209.808594 271.457031 210.835938 C 270.988281 211.863281 270.289062 213.824219 269.871094 215.179688 C 269.449219 216.582031 268.75 218.261719 268.285156 218.914062 C 267.769531 219.617188 266.929688 221.765625 266.324219 223.679688 C 265.71875 225.59375 264.878906 227.695312 264.414062 228.300781 C 263.339844 229.609375 263.246094 231.523438 264.179688 231.898438 C 264.550781 232.039062 265.4375 233.625 266.136719 235.398438 C 266.835938 237.175781 267.582031 238.621094 267.816406 238.621094 C 268.003906 238.621094 268.191406 239.183594 268.191406 239.835938 C 268.191406 240.488281 268.515625 241.609375 268.890625 242.265625 C 270.007812 244.414062 272.25 249.503906 273.085938 251.929688 C 273.507812 253.191406 274.019531 254.359375 274.253906 254.5 C 274.671875 254.777344 277.984375 261.222656 277.984375 261.832031 C 277.984375 262.015625 278.636719 263.136719 279.382812 264.304688 C 280.128906 265.472656 280.785156 266.6875 280.785156 267.011719 C 280.785156 267.574219 281.902344 270.09375 284.609375 275.839844 C 285.121094 276.960938 285.726562 277.941406 285.960938 278.128906 C 286.195312 278.269531 286.378906 278.734375 286.378906 279.203125 C 286.378906 279.667969 286.660156 280.324219 287.035156 280.601562 C 287.40625 280.929688 287.828125 281.722656 288.011719 282.378906 C 288.339844 283.777344 289.179688 285.550781 291.652344 290.082031 C 292.582031 291.808594 293.375 293.445312 293.375 293.769531 C 293.375 294.050781 294.03125 295.21875 294.777344 296.386719 C 295.570312 297.507812 296.175781 298.769531 296.175781 299.140625 C 296.175781 299.5625 296.457031 300.449219 296.828125 301.101562 C 297.15625 301.804688 298.414062 304.417969 299.625 306.894531 C 300.792969 309.367188 302.003906 311.5625 302.285156 311.75 C 303.078125 312.214844 304.664062 316.230469 304.199219 316.699219 C 303.824219 317.074219 299.671875 313.570312 296.6875 310.441406 C 295.476562 309.179688 293.84375 307.921875 290.34375 305.585938 C 289.320312 304.886719 288.105469 303.859375 287.6875 303.25 C 287.21875 302.691406 285.914062 301.664062 284.792969 301.007812 C 283.675781 300.355469 282.417969 299.28125 281.996094 298.628906 C 281.578125 297.972656 280.503906 297.085938 279.664062 296.714844 C 278.871094 296.292969 277.75 295.359375 277.238281 294.613281 C 276.773438 293.863281 275.839844 293.070312 275.1875 292.835938 C 274.535156 292.648438 273.273438 291.808594 272.386719 291.015625 C 266.371094 285.832031 265.207031 284.851562 264.878906 284.851562 C 264.691406 284.851562 263.574219 283.917969 262.3125 282.75 C 261.101562 281.582031 259.933594 280.648438 259.75 280.648438 C 259.5625 280.648438 258.117188 279.386719 256.484375 277.847656 C 254.898438 276.304688 253.3125 275.046875 253.03125 275.046875 C 252.75 275.046875 251.867188 274.4375 251.027344 273.691406 C 250.234375 272.945312 248.226562 271.308594 246.640625 270.09375 C 243.238281 267.480469 241.511719 266.03125 239.550781 264.023438 C 238.757812 263.230469 237.3125 262.109375 236.378906 261.550781 C 235.402344 260.988281 234.609375 260.335938 234.609375 260.101562 C 234.609375 259.867188 234.1875 259.589844 233.722656 259.402344 C 233.207031 259.261719 231.625 258 230.128906 256.601562 C 228.683594 255.199219 227.238281 254.03125 226.957031 254.03125 C 226.679688 254.03125 225.558594 253.050781 224.441406 251.929688 C 223.320312 250.761719 222.109375 249.828125 221.78125 249.828125 C 221.410156 249.828125 220.664062 249.175781 220.054688 248.429688 C 219.496094 247.632812 218.421875 246.699219 217.722656 246.375 C 215.53125 245.253906 210.355469 240.769531 210.355469 239.929688 C 210.355469 239.507812 209.792969 238.761719 209.140625 238.296875 C 208.441406 237.828125 207.042969 236.660156 205.96875 235.632812 C 204.898438 234.652344 203.359375 233.53125 202.566406 233.203125 C 200.605469 232.363281 200.511719 230.964844 202.378906 230.308594 C 203.125 230.03125 204.105469 229.28125 204.523438 228.675781 C 204.945312 228.023438 205.785156 227.367188 206.390625 227.226562 C 206.996094 227.085938 208.070312 226.292969 208.816406 225.5 C 209.515625 224.707031 210.773438 223.773438 211.519531 223.351562 C 212.3125 222.933594 213.898438 221.765625 215.066406 220.691406 C 216.230469 219.664062 217.863281 218.355469 218.75 217.839844 C 222.714844 215.460938 223.695312 214.757812 224.582031 213.730469 C 225.09375 213.125 226.492188 212.003906 227.75 211.304688 C 228.964844 210.605469 230.175781 209.621094 230.457031 209.15625 C 230.691406 208.6875 231.714844 207.847656 232.742188 207.335938 C 233.769531 206.820312 235.027344 205.746094 235.632812 205 C 236.195312 204.207031 236.941406 203.597656 237.3125 203.597656 C 237.964844 203.597656 244.078125 199.164062 246.457031 196.921875 C 247.203125 196.222656 248.085938 195.660156 248.460938 195.660156 C 248.832031 195.660156 249.8125 194.914062 250.605469 194.027344 C 251.398438 193.140625 252.285156 192.390625 252.613281 192.390625 C 252.9375 192.390625 254.570312 191.132812 256.25 189.589844 C 257.976562 188.050781 259.5625 186.789062 259.839844 186.789062 C 260.121094 186.789062 261.101562 186.132812 261.988281 185.386719 C 262.828125 184.59375 263.851562 183.988281 264.226562 183.988281 C 264.597656 183.988281 265.34375 183.378906 265.953125 182.585938 C 266.511719 181.839844 267.351562 181.089844 267.816406 180.90625 C 268.285156 180.765625 269.960938 179.503906 271.59375 178.101562 C 273.179688 176.703125 274.671875 175.582031 274.90625 175.582031 C 275.140625 175.582031 276.210938 174.785156 277.285156 173.804688 C 278.359375 172.871094 280.175781 171.425781 281.296875 170.675781 C 282.371094 169.882812 284.515625 168.15625 286.007812 166.800781 C 288.667969 164.375 289.226562 164.09375 289.785156 164.699219 Z M 289.785156 164.699219 "/>
<path style=" stroke:none;fill-rule:nonzero;fill:rgb(0%,0%,0%);fill-opacity:1;" d="M 81.714844 182.585938 C 81.109375 183.378906 80.410156 183.988281 80.082031 183.988281 C 79.757812 183.988281 78.871094 184.59375 78.125 185.386719 C 77.378906 186.132812 76.539062 186.789062 76.210938 186.789062 C 75.933594 186.789062 74.488281 187.957031 72.996094 189.355469 C 71.546875 190.757812 69.871094 192.066406 69.308594 192.203125 C 68.75 192.34375 67.910156 193.046875 67.492188 193.746094 C 67.070312 194.445312 65.90625 195.425781 64.925781 195.847656 C 63.898438 196.3125 62.828125 197.15625 62.546875 197.714844 C 62.035156 198.648438 57.371094 202.105469 54.804688 203.503906 C 54.199219 203.832031 53.3125 204.578125 52.84375 205.140625 C 52.378906 205.746094 51.167969 206.585938 50.140625 207.054688 C 49.113281 207.523438 47.480469 208.640625 46.457031 209.53125 C 45.476562 210.417969 43.984375 211.445312 43.144531 211.816406 C 42.304688 212.144531 41.183594 212.984375 40.671875 213.640625 C 40.160156 214.292969 39.503906 214.804688 39.226562 214.804688 C 38.527344 214.804688 36.242188 216.253906 35.773438 217 C 35.585938 217.328125 35.074219 217.609375 34.703125 217.609375 C 33.816406 217.609375 30.832031 219.523438 29.617188 220.878906 C 29.105469 221.4375 27.984375 222.183594 27.050781 222.558594 C 26.167969 222.933594 25.234375 223.492188 24.953125 223.820312 C 24.71875 224.144531 23.925781 224.753906 23.226562 225.21875 C 22.25 225.828125 21.921875 226.433594 21.921875 227.507812 C 21.921875 229.003906 23.460938 232.785156 24.300781 233.296875 C 24.535156 233.4375 24.71875 234.09375 24.71875 234.792969 C 24.765625 235.492188 25.046875 236.566406 25.417969 237.222656 C 25.792969 237.875 26.074219 239.183594 26.121094 240.164062 C 26.121094 241.332031 26.539062 242.496094 27.238281 243.433594 C 27.84375 244.273438 28.824219 246.605469 29.382812 248.613281 C 29.945312 250.667969 30.691406 252.957031 31.015625 253.75 C 31.34375 254.546875 31.996094 256.460938 32.460938 258 C 32.882812 259.542969 33.535156 261.222656 33.863281 261.738281 C 34.234375 262.25 34.515625 263.089844 34.515625 263.652344 C 34.515625 264.210938 34.792969 264.914062 35.167969 265.191406 C 35.542969 265.519531 35.914062 266.734375 36.054688 267.949219 C 36.425781 271.402344 37.59375 275.605469 38.621094 277.378906 C 39.503906 278.875 39.878906 280.414062 41.042969 286.71875 C 41.277344 287.886719 42.023438 290.175781 42.722656 291.855469 C 43.421875 293.539062 44.125 296.058594 44.261719 297.460938 L 44.542969 300.027344 L 52.003906 300.167969 C 56.484375 300.261719 62.359375 300.027344 66.792969 299.5625 C 76.027344 298.628906 90.066406 298.628906 99.113281 299.5625 C 102.984375 299.933594 109.515625 300.261719 113.710938 300.261719 L 121.269531 300.261719 L 121.269531 299.140625 C 121.269531 298.535156 121.59375 297.414062 121.96875 296.714844 C 122.339844 295.964844 122.667969 294.9375 122.667969 294.425781 C 122.667969 293.910156 122.996094 293.117188 123.367188 292.605469 C 123.695312 292.136719 124.160156 290.59375 124.347656 289.242188 C 124.488281 287.839844 124.8125 286.578125 125.046875 286.441406 C 125.28125 286.300781 125.464844 285.273438 125.464844 284.199219 C 125.464844 282.9375 125.746094 281.957031 126.167969 281.582031 C 126.539062 281.257812 126.867188 280.601562 126.867188 280.136719 C 126.867188 279.667969 127.285156 278.175781 127.84375 276.820312 C 128.359375 275.511719 128.964844 273.316406 129.199219 272.058594 C 129.429688 270.75 129.945312 268.601562 130.363281 267.339844 C 130.738281 266.03125 131.53125 263.464844 132.042969 261.597656 C 132.601562 259.777344 133.207031 258.09375 133.441406 257.953125 C 133.675781 257.8125 133.863281 257.253906 133.863281 256.648438 C 133.863281 256.085938 134.09375 255.386719 134.421875 255.058594 C 134.980469 254.5 135.960938 251.464844 136.519531 248.707031 C 136.660156 247.960938 137.359375 246.46875 138.058594 245.441406 C 138.804688 244.367188 139.503906 242.683594 139.691406 241.65625 C 140.390625 237.035156 141.558594 233.578125 143.003906 231.617188 C 143.285156 231.242188 143.84375 229.9375 144.214844 228.722656 L 144.917969 226.527344 L 143.609375 225.59375 C 142.863281 225.03125 142.070312 224.613281 141.835938 224.613281 C 141.558594 224.613281 141.183594 224.332031 141 223.960938 C 140.8125 223.585938 139.785156 222.886719 138.710938 222.324219 C 137.6875 221.765625 136.332031 220.785156 135.726562 220.175781 C 135.121094 219.523438 134.375 219.007812 134.09375 219.007812 C 133.816406 219.007812 132.230469 218.074219 130.597656 216.90625 C 128.964844 215.742188 127.238281 214.804688 126.820312 214.804688 C 126.398438 214.804688 125.699219 214.246094 125.234375 213.59375 C 124.8125 212.9375 123.878906 212.144531 123.132812 211.816406 C 121.78125 211.257812 118.191406 208.828125 114.597656 206.074219 C 113.527344 205.234375 110.960938 203.414062 108.910156 202.011719 C 106.855469 200.609375 104.246094 198.460938 103.125 197.296875 C 102.003906 196.128906 100.746094 195.195312 100.328125 195.195312 C 99.859375 195.195312 99.066406 194.585938 98.507812 193.839844 C 97.949219 193.09375 96.6875 192.019531 95.664062 191.457031 C 94.683594 190.851562 93.5625 189.917969 93.285156 189.308594 C 92.957031 188.75 92.257812 188.140625 91.699219 188.003906 C 91.183594 187.863281 89.785156 186.882812 88.621094 185.855469 C 87.453125 184.828125 86.289062 183.988281 85.960938 183.988281 C 85.632812 183.988281 85.214844 183.707031 85.027344 183.378906 C 84.839844 183.097656 84.234375 182.445312 83.675781 182.023438 C 82.742188 181.230469 82.695312 181.230469 81.714844 182.585938 Z M 87.875 189.871094 C 89.320312 191.269531 90.71875 192.390625 90.953125 192.390625 C 91.183594 192.390625 92.398438 193.324219 93.609375 194.492188 C 94.777344 195.660156 95.988281 196.59375 96.269531 196.59375 C 96.546875 196.59375 97.386719 197.339844 98.085938 198.230469 C 98.789062 199.117188 99.625 199.863281 99.90625 199.863281 C 100.511719 199.863281 104.804688 203.085938 107.230469 205.375 C 108.164062 206.214844 109.65625 207.289062 110.542969 207.800781 C 111.425781 208.269531 112.59375 209.109375 113.105469 209.667969 C 113.621094 210.230469 114.785156 211.117188 115.671875 211.585938 C 117.910156 212.796875 118.890625 213.453125 120.195312 214.667969 C 120.847656 215.226562 121.828125 215.832031 122.339844 216.019531 C 122.855469 216.207031 124.113281 216.90625 125.140625 217.65625 C 126.167969 218.402344 127.191406 219.007812 127.472656 219.007812 C 127.707031 219.007812 128.730469 219.757812 129.757812 220.691406 C 130.785156 221.625 132.277344 222.652344 133.117188 222.976562 C 133.910156 223.304688 135.167969 224.238281 135.914062 225.03125 C 136.707031 225.828125 137.640625 226.480469 138.011719 226.480469 C 138.945312 226.527344 140.390625 227.601562 140.390625 228.253906 C 140.390625 229.140625 138.480469 233.25 137.640625 234.1875 C 137.171875 234.699219 136.660156 235.726562 136.519531 236.519531 C 136.332031 237.269531 135.960938 239.277344 135.679688 240.957031 C 135.355469 242.589844 134.609375 244.691406 134 245.53125 C 133.441406 246.421875 132.695312 248.007812 132.417969 249.082031 C 131.714844 251.789062 131.015625 254.03125 130.316406 255.898438 C 128.730469 259.960938 125.839844 268.929688 125.464844 270.84375 C 124.90625 273.503906 124.394531 275.464844 122.433594 281.816406 C 121.546875 284.617188 120.617188 288.121094 120.335938 289.523438 C 120.007812 290.921875 119.496094 293.070312 119.125 294.285156 L 118.421875 296.433594 L 109 296.199219 C 103.824219 296.105469 96.546875 295.6875 92.863281 295.3125 C 84.46875 294.472656 81.761719 294.472656 73.273438 295.3125 C 69.542969 295.6875 62.3125 296.105469 57.230469 296.199219 C 46.6875 296.433594 47.902344 296.945312 46.5 291.855469 C 46.082031 290.457031 45.429688 288.121094 45.054688 286.671875 C 44.636719 285.226562 44.308594 283.542969 44.308594 282.9375 C 44.308594 282.332031 43.984375 281.394531 43.609375 280.929688 C 43.238281 280.414062 42.910156 279.433594 42.910156 278.78125 C 42.910156 278.128906 42.675781 277.332031 42.398438 277.054688 C 41.976562 276.632812 40.859375 272.289062 40.25 268.742188 C 40.113281 267.949219 39.085938 265.003906 37.964844 262.109375 C 36.847656 259.214844 35.914062 256.460938 35.914062 255.992188 C 35.914062 255.480469 35.585938 254.824219 35.214844 254.5 C 34.839844 254.171875 34.515625 253.472656 34.515625 252.910156 C 34.515625 252.398438 34.1875 251.511719 33.816406 251.042969 C 33.441406 250.53125 33.117188 249.640625 33.117188 249.035156 C 33.117188 248.007812 32.277344 245.8125 30.96875 243.199219 C 30.597656 242.542969 30.316406 241.332031 30.316406 240.535156 C 30.316406 238.527344 28.589844 233.578125 27.332031 231.851562 C 25.1875 229.050781 25.511719 227.132812 28.21875 226.292969 C 28.730469 226.152344 29.851562 225.359375 30.738281 224.613281 C 31.578125 223.820312 33.023438 222.792969 33.957031 222.324219 C 34.933594 221.8125 36.195312 220.878906 36.800781 220.222656 C 37.453125 219.570312 38.292969 219.007812 38.710938 219.007812 C 39.085938 219.007812 40.160156 218.402344 41.042969 217.609375 C 41.929688 216.859375 42.957031 216.253906 43.238281 216.207031 C 44.214844 216.207031 46.546875 214.574219 47.574219 213.265625 C 48.132812 212.566406 48.832031 212.003906 49.207031 212.003906 C 49.535156 212.003906 51.027344 211.117188 52.519531 209.996094 C 54.058594 208.921875 55.921875 207.613281 56.667969 207.148438 C 57.460938 206.679688 58.722656 205.699219 59.46875 204.953125 C 61.847656 202.664062 64.085938 200.9375 65.625 200.191406 C 66.417969 199.769531 67.539062 198.789062 68.097656 197.996094 C 68.65625 197.25 69.355469 196.59375 69.683594 196.59375 C 70.007812 196.59375 71.546875 195.425781 73.042969 194.027344 C 74.582031 192.578125 76.210938 191.316406 76.726562 191.175781 C 77.238281 191.039062 78.078125 190.382812 78.542969 189.683594 C 79.011719 188.984375 80.175781 187.957031 81.0625 187.394531 C 83.300781 186.132812 84.515625 186.554688 87.875 189.871094 Z M 87.875 189.871094 "/>
<path style=" stroke:none;fill-rule:nonzero;fill:rgb(0%,0%,0%);fill-opacity:1;" d="M 192.816406 305.914062 C 192.675781 306.144531 192.539062 309.320312 192.539062 312.964844 C 192.492188 318.613281 192.628906 319.6875 193.285156 320.109375 C 194.730469 320.996094 195.664062 319.828125 195.664062 317.027344 L 195.664062 314.503906 L 198.042969 314.644531 C 199.671875 314.738281 200.558594 314.597656 200.933594 314.132812 C 201.820312 313.058594 200.511719 312.308594 197.902344 312.496094 L 195.664062 312.636719 L 195.664062 307.5 L 198.460938 307.5 C 200.933594 307.5 201.257812 307.40625 201.257812 306.566406 C 201.257812 305.726562 200.933594 305.632812 197.203125 305.539062 C 194.960938 305.492188 193.003906 305.679688 192.816406 305.914062 Z M 192.816406 305.914062 "/>
<path style=" stroke:none;fill-rule:nonzero;fill:rgb(0%,0%,0%);fill-opacity:1;" d="M 203.871094 306.050781 C 202.796875 307.3125 203.453125 308.433594 205.222656 308.433594 C 206.714844 308.433594 206.855469 308.339844 206.855469 307.03125 C 206.855469 305.867188 206.667969 305.585938 205.644531 305.492188 C 204.992188 305.398438 204.199219 305.679688 203.871094 306.050781 Z M 203.871094 306.050781 "/>
<path style=" stroke:none;fill-rule:nonzero;fill:rgb(0%,0%,0%);fill-opacity:1;" d="M 258.535156 305.960938 C 258.347656 306.285156 258.253906 306.941406 258.300781 307.40625 C 258.394531 307.828125 258.117188 308.339844 257.742188 308.480469 C 257.324219 308.621094 256.996094 309.273438 256.996094 309.882812 C 256.996094 310.488281 256.578125 311.1875 256.0625 311.46875 C 255.410156 311.84375 255.175781 312.261719 255.363281 312.871094 C 255.550781 313.476562 255.316406 313.898438 254.664062 314.269531 C 253.636719 314.832031 253.40625 316.324219 254.335938 316.933594 C 254.617188 317.121094 255.644531 317.304688 256.53125 317.304688 C 257.976562 317.304688 258.164062 317.445312 258.394531 318.707031 C 258.535156 319.546875 258.957031 320.15625 259.46875 320.25 C 260.585938 320.480469 261.660156 319.5 261.332031 318.613281 C 261.148438 318.148438 261.472656 317.585938 262.125 317.074219 L 263.199219 316.230469 L 262.171875 315.671875 C 261.148438 315.160156 261.101562 314.878906 261.242188 310.863281 C 261.425781 306.285156 261.195312 305.398438 259.792969 305.398438 C 259.328125 305.398438 258.769531 305.679688 258.535156 305.960938 Z M 258.394531 313.335938 C 258.394531 315.34375 257.695312 316.046875 256.203125 315.4375 C 255.410156 315.160156 255.410156 315.113281 256.203125 314.550781 C 256.625 314.222656 256.996094 313.382812 256.996094 312.683594 C 256.996094 311.9375 257.230469 311.46875 257.695312 311.46875 C 258.207031 311.46875 258.394531 311.984375 258.394531 313.335938 Z M 258.394531 313.335938 "/>
<path style=" stroke:none;fill-rule:nonzero;fill:rgb(0%,0%,0%);fill-opacity:1;" d="M 47.292969 307.359375 C 47.15625 307.59375 47.015625 310.722656 47.015625 314.363281 C 46.96875 320.015625 47.109375 321.089844 47.761719 321.507812 C 49.207031 322.394531 50.140625 321.230469 50.140625 318.425781 L 50.140625 315.90625 L 52.519531 316.046875 C 54.152344 316.140625 55.039062 316 55.410156 315.53125 C 56.296875 314.457031 54.992188 313.710938 52.378906 313.898438 L 50.140625 314.039062 L 50.140625 308.902344 L 52.9375 308.902344 C 55.410156 308.902344 55.738281 308.808594 55.738281 307.96875 C 55.738281 307.125 55.410156 307.03125 51.632812 306.988281 C 49.347656 306.988281 47.386719 307.171875 47.292969 307.359375 Z M 47.292969 307.359375 "/>
<path style=" stroke:none;fill-rule:nonzero;fill:rgb(0%,0%,0%);fill-opacity:1;" d="M 58.347656 307.453125 C 57.277344 308.714844 57.929688 309.835938 59.703125 309.835938 C 61.195312 309.835938 61.332031 309.742188 61.332031 308.433594 C 61.332031 307.265625 61.148438 306.988281 60.121094 306.894531 C 59.46875 306.800781 58.675781 307.078125 58.347656 307.453125 Z M 58.347656 307.453125 "/>
<path style=" stroke:none;fill-rule:nonzero;fill:rgb(0%,0%,0%);fill-opacity:1;" d="M 109.46875 308.011719 C 108.675781 308.667969 108.207031 309.460938 108.394531 309.835938 C 108.769531 310.863281 110.867188 310.675781 111.472656 309.554688 C 111.800781 308.949219 112.359375 308.667969 113.011719 308.761719 C 113.851562 308.855469 114.039062 309.226562 114.039062 310.769531 C 114.039062 312.308594 113.898438 312.636719 113.105469 312.636719 C 112.59375 312.683594 111.894531 312.824219 111.566406 313.058594 C 110.679688 313.570312 111.753906 314.738281 113.011719 314.597656 C 113.945312 314.503906 114.039062 314.738281 114.039062 317.074219 C 114.039062 319.359375 113.945312 319.640625 113.011719 319.78125 C 112.359375 319.875 111.800781 319.59375 111.472656 318.988281 C 110.867188 317.867188 108.769531 317.679688 108.394531 318.707031 C 108.207031 319.082031 108.675781 319.875 109.46875 320.527344 C 111.378906 322.257812 114.414062 322.210938 116.089844 320.433594 C 117.117188 319.359375 117.257812 318.847656 117.117188 316.839844 C 117.023438 315.4375 116.699219 314.316406 116.230469 313.992188 C 115.578125 313.523438 115.578125 313.429688 116.230469 313.058594 C 116.605469 312.824219 117.070312 311.890625 117.164062 311.003906 C 117.675781 307.3125 112.5 305.304688 109.46875 308.011719 Z M 109.46875 308.011719 "/>
<path style=" stroke:none;fill-rule:nonzero;fill:rgb(0%,0%,0%);fill-opacity:1;" d="M 210.632812 310.769531 C 209.5625 311.75 209.421875 312.261719 209.421875 314.972656 C 209.421875 318.378906 210.355469 319.875 212.453125 319.875 C 213.710938 319.875 214.085938 318.753906 212.917969 318.285156 C 211.847656 317.914062 211.941406 312.121094 213.011719 311.5625 C 213.898438 311.050781 213.527344 309.601562 212.546875 309.601562 C 212.171875 309.601562 211.332031 310.113281 210.632812 310.769531 Z M 210.632812 310.769531 "/>
<path style=" stroke:none;fill-rule:nonzero;fill:rgb(0%,0%,0%);fill-opacity:1;" d="M 214.785156 310.816406 C 213.621094 311.890625 213.574219 312.03125 214.273438 312.824219 C 215.25 313.898438 215.25 316.886719 214.320312 317.257812 C 213.386719 317.585938 213.433594 318.472656 214.367188 318.472656 C 214.925781 318.472656 215.019531 318.894531 214.925781 320.433594 C 214.785156 322.257812 214.644531 322.441406 213.433594 322.582031 C 212.59375 322.675781 211.753906 322.394531 211.054688 321.742188 C 210.027344 320.761719 208.957031 320.808594 208.957031 321.742188 C 208.957031 321.976562 209.46875 322.722656 210.121094 323.378906 C 211.847656 325.058594 215.160156 325.058594 216.699219 323.332031 C 217.769531 322.210938 217.816406 321.835938 217.816406 316.1875 C 217.816406 311.140625 217.675781 310.113281 217.070312 309.882812 C 216.089844 309.507812 216.277344 309.460938 214.785156 310.816406 Z M 214.785156 310.816406 "/>
<path style=" stroke:none;fill-rule:nonzero;fill:rgb(0%,0%,0%);fill-opacity:1;" d="M 220.941406 309.882812 C 220.753906 310.066406 220.617188 311.984375 220.617188 314.132812 C 220.617188 317.773438 220.707031 318.148438 221.828125 319.175781 C 222.527344 319.828125 223.367188 320.339844 223.742188 320.339844 C 224.71875 320.339844 225.046875 318.988281 224.207031 318.332031 C 223.648438 317.914062 223.414062 316.792969 223.320312 313.804688 C 223.179688 310.207031 223.085938 309.835938 222.25 309.695312 C 221.6875 309.601562 221.128906 309.695312 220.941406 309.882812 Z M 220.941406 309.882812 "/>
<path style=" stroke:none;fill-rule:nonzero;fill:rgb(0%,0%,0%);fill-opacity:1;" d="M 226.539062 309.882812 C 226.351562 310.066406 226.210938 311.609375 226.210938 313.242188 C 226.210938 315.390625 225.980469 316.558594 225.464844 317.121094 C 224.765625 317.914062 224.8125 318.054688 225.980469 319.128906 C 227.425781 320.433594 227.566406 320.527344 228.453125 319.96875 C 228.871094 319.6875 229.011719 318.285156 228.917969 314.691406 C 228.777344 310.207031 228.683594 309.835938 227.84375 309.695312 C 227.285156 309.601562 226.726562 309.695312 226.539062 309.882812 Z M 226.539062 309.882812 "/>
<path style=" stroke:none;fill-rule:nonzero;fill:rgb(0%,0%,0%);fill-opacity:1;" d="M 232.277344 309.976562 C 231.996094 310.066406 231.808594 312.078125 231.808594 315.019531 C 231.808594 319.128906 231.949219 319.96875 232.554688 320.203125 C 234.234375 320.855469 234.792969 319.78125 234.792969 315.625 C 234.839844 312.03125 234.933594 311.703125 235.773438 311.703125 C 237.082031 311.703125 237.875 311.09375 237.546875 310.253906 C 237.359375 309.742188 236.707031 309.601562 235.027344 309.695312 C 233.816406 309.789062 232.554688 309.882812 232.277344 309.976562 Z M 232.277344 309.976562 "/>
<path style=" stroke:none;fill-rule:nonzero;fill:rgb(0%,0%,0%);fill-opacity:1;" d="M 239.550781 311.003906 C 238.386719 312.214844 238.292969 312.402344 238.992188 312.683594 C 239.457031 312.871094 240.019531 312.683594 240.34375 312.167969 C 240.765625 311.65625 241.464844 311.421875 242.539062 311.5625 C 244.308594 311.703125 245.101562 312.871094 243.375 312.871094 C 242.398438 312.871094 238.339844 316.1875 238.339844 317.027344 C 238.339844 317.214844 238.945312 318.054688 239.644531 318.847656 C 240.90625 320.25 241.136719 320.339844 243.84375 320.203125 C 245.429688 320.109375 246.875 319.875 247.0625 319.6875 C 247.25 319.5 247.339844 317.679688 247.25 315.625 C 247.0625 310.910156 246.128906 309.601562 242.957031 309.601562 C 241.324219 309.648438 240.625 309.882812 239.550781 311.003906 Z M 244.308594 316.230469 C 244.167969 318.007812 244.03125 318.242188 243.003906 318.242188 C 241.511719 318.242188 241.277344 317.027344 242.398438 315.484375 C 243.703125 313.617188 244.496094 313.945312 244.308594 316.230469 Z M 244.308594 316.230469 "/>
<path style=" stroke:none;fill-rule:nonzero;fill:rgb(0%,0%,0%);fill-opacity:1;" d="M 203.730469 314.597656 C 203.589844 319.5 203.871094 320.480469 205.410156 320.25 C 206.34375 320.109375 206.390625 319.78125 206.53125 315.066406 L 206.667969 310.066406 L 203.871094 310.066406 Z M 203.730469 314.597656 "/>
<path style=" stroke:none;fill-rule:nonzero;fill:rgb(0%,0%,0%);fill-opacity:1;" d="M 65.113281 312.167969 C 64.039062 313.148438 63.898438 313.664062 63.898438 316.371094 C 63.898438 319.78125 64.832031 321.277344 66.929688 321.277344 C 68.191406 321.277344 68.5625 320.15625 67.398438 319.6875 C 66.324219 319.3125 66.417969 313.523438 67.492188 312.964844 C 68.375 312.449219 68.003906 311.003906 67.023438 311.003906 C 66.652344 311.003906 65.8125 311.515625 65.113281 312.167969 Z M 65.113281 312.167969 "/>
<path style=" stroke:none;fill-rule:nonzero;fill:rgb(0%,0%,0%);fill-opacity:1;" d="M 69.261719 312.214844 C 68.097656 313.289062 68.050781 313.429688 68.75 314.222656 C 69.730469 315.296875 69.730469 318.285156 68.796875 318.660156 C 67.863281 318.988281 67.910156 319.875 68.84375 319.875 C 69.402344 319.875 69.496094 320.296875 69.402344 321.835938 C 69.261719 323.65625 69.125 323.84375 67.910156 323.984375 C 67.070312 324.078125 66.230469 323.796875 65.53125 323.144531 C 64.503906 322.164062 63.433594 322.210938 63.433594 323.144531 C 63.433594 323.378906 63.945312 324.125 64.597656 324.777344 C 66.324219 326.460938 69.636719 326.460938 71.175781 324.730469 C 72.25 323.609375 72.292969 323.238281 72.292969 317.585938 C 72.292969 312.542969 72.15625 311.515625 71.546875 311.28125 C 70.570312 310.910156 70.753906 310.863281 69.261719 312.214844 Z M 69.261719 312.214844 "/>
<path style=" stroke:none;fill-rule:nonzero;fill:rgb(0%,0%,0%);fill-opacity:1;" d="M 75.417969 311.28125 C 75.234375 311.46875 75.09375 313.382812 75.09375 315.53125 C 75.09375 319.175781 75.1875 319.546875 76.304688 320.574219 C 77.003906 321.230469 77.84375 321.742188 78.21875 321.742188 C 79.199219 321.742188 79.523438 320.386719 78.683594 319.734375 C 78.125 319.3125 77.890625 318.195312 77.796875 315.203125 C 77.660156 311.609375 77.566406 311.234375 76.726562 311.09375 C 76.167969 311.003906 75.605469 311.09375 75.417969 311.28125 Z M 75.417969 311.28125 "/>
<path style=" stroke:none;fill-rule:nonzero;fill:rgb(0%,0%,0%);fill-opacity:1;" d="M 81.015625 311.28125 C 80.832031 311.46875 80.691406 313.011719 80.691406 314.644531 C 80.691406 316.792969 80.457031 317.960938 79.945312 318.519531 C 79.246094 319.3125 79.292969 319.453125 80.457031 320.527344 C 81.902344 321.835938 82.042969 321.929688 82.929688 321.367188 C 83.347656 321.089844 83.488281 319.6875 83.394531 316.09375 C 83.253906 311.609375 83.164062 311.234375 82.324219 311.09375 C 81.761719 311.003906 81.203125 311.09375 81.015625 311.28125 Z M 81.015625 311.28125 "/>
<path style=" stroke:none;fill-rule:nonzero;fill:rgb(0%,0%,0%);fill-opacity:1;" d="M 86.753906 311.375 C 86.472656 311.46875 86.289062 313.476562 86.289062 316.417969 C 86.289062 320.527344 86.425781 321.367188 87.035156 321.601562 C 88.710938 322.257812 89.273438 321.183594 89.273438 317.027344 C 89.320312 313.429688 89.414062 313.105469 90.25 313.105469 C 91.558594 313.105469 92.351562 312.496094 92.023438 311.65625 C 91.835938 311.140625 91.183594 311.003906 89.503906 311.09375 C 88.292969 311.1875 87.035156 311.28125 86.753906 311.375 Z M 86.753906 311.375 "/>
<path style=" stroke:none;fill-rule:nonzero;fill:rgb(0%,0%,0%);fill-opacity:1;" d="M 94.03125 312.402344 C 92.863281 313.617188 92.769531 313.804688 93.46875 314.085938 C 93.9375 314.269531 94.496094 314.085938 94.824219 313.570312 C 95.242188 313.058594 95.941406 312.824219 97.015625 312.964844 C 98.789062 313.105469 99.582031 314.269531 97.855469 314.269531 C 96.875 314.269531 92.816406 317.585938 92.816406 318.425781 C 92.816406 318.613281 93.421875 319.453125 94.125 320.25 C 95.382812 321.648438 95.617188 321.742188 98.320312 321.601562 C 99.90625 321.507812 101.351562 321.277344 101.539062 321.089844 C 101.726562 320.902344 101.820312 319.082031 101.726562 317.027344 C 101.539062 312.308594 100.605469 311.003906 97.433594 311.003906 C 95.800781 311.050781 95.101562 311.28125 94.03125 312.402344 Z M 98.789062 317.632812 C 98.648438 319.40625 98.507812 319.640625 97.480469 319.640625 C 95.988281 319.640625 95.753906 318.425781 96.875 316.886719 C 98.179688 315.019531 98.972656 315.34375 98.789062 317.632812 Z M 98.789062 317.632812 "/>
<path style=" stroke:none;fill-rule:nonzero;fill:rgb(0%,0%,0%);fill-opacity:1;" d="M 58.207031 316 C 58.070312 320.902344 58.347656 321.882812 59.886719 321.648438 C 60.820312 321.507812 60.867188 321.183594 61.007812 316.464844 L 61.148438 311.46875 L 58.347656 311.46875 Z M 58.207031 316 "/>
</g>
</svg>
