<?xml version="1.0" encoding="UTF-8"?>
<svg xmlns="http://www.w3.org/2000/svg" xmlns:xlink="http://www.w3.org/1999/xlink" width="400pt" height="171pt" viewBox="0 0 400 171" version="1.1">
<g id="surface1">
<path style=" stroke:none;fill-rule:nonzero;fill:rgb(0%,0%,0%);fill-opacity:1;" d="M 3.023438 6.101562 C 2.710938 6.457031 2.800781 6.945312 3.199219 7.527344 C 3.867188 8.460938 3.910156 8.460938 153.6875 8.503906 L 303.554688 8.59375 L 303.554688 39.277344 L 302.578125 38.921875 C 302 38.699219 234.84375 38.429688 153.332031 38.296875 L 5.109375 38.074219 L 5.289062 33.84375 C 5.464844 28.8125 4.578125 22.398438 3.820312 23.15625 C 3.15625 23.824219 3.246094 42.75 3.910156 43.90625 C 4.355469 44.621094 4.398438 44.441406 4.445312 42.882812 C 4.445312 41.859375 4.621094 40.925781 4.84375 40.789062 C 5.066406 40.65625 72.3125 40.523438 154.265625 40.523438 L 303.332031 40.523438 L 303.464844 55.308594 L 303.554688 70.136719 L 154.621094 70.046875 C 72.667969 70.003906 5.554688 69.824219 5.378906 69.648438 C 5.246094 69.511719 5.109375 66.839844 5.066406 63.769531 C 5.023438 57.933594 4.445312 54.996094 3.734375 56.777344 C 3.511719 57.265625 3.332031 61.050781 3.332031 65.238281 L 3.332031 72.808594 L 303.554688 72.808594 L 303.554688 101.84375 L 155.6875 101.886719 C 74.3125 101.933594 7.023438 101.84375 6.132812 101.710938 C 4.535156 101.488281 4.488281 101.398438 4.800781 100.0625 C 5.246094 98.101562 5.199219 92 4.753906 89.285156 C 4.398438 87.414062 4.3125 87.191406 3.867188 87.949219 C 3.199219 89.195312 2.933594 97.390625 3.511719 99.484375 C 3.867188 100.953125 3.867188 101.398438 3.332031 101.976562 C 2.753906 102.644531 2.800781 102.824219 3.6875 103.667969 L 4.710938 104.648438 L 154.132812 104.558594 L 303.554688 104.425781 L 303.421875 135.285156 L 303.332031 166.101562 L 154.578125 166.101562 C 72.753906 166.101562 5.511719 165.96875 5.15625 165.835938 C 4.667969 165.65625 4.578125 165.210938 4.800781 164.1875 C 5.199219 162.316406 5.15625 156.082031 4.753906 153.898438 C 4.445312 152.5625 4.265625 152.296875 3.867188 152.699219 C 3.511719 153.054688 3.332031 155.371094 3.289062 159.777344 C 3.289062 163.386719 3.109375 166.8125 2.933594 167.394531 C 2.667969 168.105469 2.753906 168.550781 3.15625 168.816406 C 3.910156 169.308594 393.777344 169.351562 394.535156 168.863281 C 395.246094 168.417969 395.246094 6.234375 394.488281 5.96875 C 394.222656 5.878906 306.132812 5.746094 198.753906 5.65625 C 46.667969 5.609375 3.378906 5.699219 3.023438 6.101562 Z M 392.578125 11.890625 C 392.753906 13.625 392.753906 16.34375 392.535156 17.902344 L 392.089844 20.707031 L 392.042969 18.167969 C 392 15.941406 391.867188 15.542969 390.710938 14.738281 C 389.289062 13.714844 388.222656 13.539062 387.777344 14.25 C 387.644531 14.472656 387.023438 14.695312 386.445312 14.695312 C 385.867188 14.695312 385.246094 14.472656 385.109375 14.25 C 384.753906 13.671875 382.976562 13.671875 382.355469 14.292969 C 382 14.652344 381.601562 14.652344 380.933594 14.292969 C 379.601562 13.539062 379.109375 14.828125 379.109375 19.328125 C 379.109375 23.644531 379.332031 24.492188 380.488281 24.492188 C 381.511719 24.492188 382 22.84375 381.644531 20.304688 C 381.199219 17.324219 382.667969 15.230469 384.179688 16.699219 C 384.753906 17.277344 384.84375 18.035156 384.621094 20.394531 C 384.355469 23.78125 384.84375 25.027344 386.089844 24.226562 C 386.710938 23.824219 386.890625 23.066406 386.976562 20.484375 C 387.066406 16.699219 387.6875 15.585938 389.332031 16.476562 C 390.265625 16.964844 390.3125 17.234375 390.089844 20.039062 C 389.777344 23.558594 390.445312 25.160156 391.734375 24.089844 C 392.355469 23.558594 392.445312 23.601562 392.445312 24.3125 C 392.535156 27.03125 392.398438 38.074219 392.265625 38.164062 C 392.179688 38.253906 372.84375 38.296875 349.289062 38.339844 L 306.445312 38.339844 L 306.3125 23.957031 C 306.265625 16.03125 306.3125 9.308594 306.445312 9.039062 C 306.578125 8.550781 315.289062 8.460938 349.421875 8.550781 L 392.222656 8.683594 Z M 392.445312 40.835938 C 392.445312 41.058594 392.535156 42.570312 392.621094 44.308594 C 392.710938 46 392.667969 48.804688 392.488281 50.542969 L 392.222656 53.660156 L 392 51.03125 C 391.820312 48.851562 391.601562 48.273438 390.621094 47.515625 C 389.601562 46.757812 389.199219 46.714844 387.910156 47.160156 C 386.890625 47.515625 385.957031 47.515625 385.246094 47.246094 C 384.667969 47.023438 383.066406 46.980469 381.734375 47.113281 L 379.332031 47.425781 L 379.332031 56.777344 L 380.445312 56.777344 C 381.511719 56.777344 381.554688 56.6875 381.554688 53.882812 C 381.554688 50.097656 382 48.984375 383.378906 48.984375 C 384.621094 48.984375 384.621094 48.984375 384.621094 53.4375 C 384.667969 56.957031 385.199219 57.667969 386.753906 56.464844 C 387.332031 55.976562 387.421875 55.441406 387.109375 53.4375 C 386.710938 50.5 387.246094 48.984375 388.710938 48.984375 C 390.042969 48.984375 390.445312 50.410156 390.042969 53.660156 C 389.777344 56.199219 390.089844 56.777344 391.734375 56.777344 C 392.578125 56.777344 392.621094 57.089844 392.488281 63.234375 C 392.445312 66.796875 392.3125 69.734375 392.222656 69.824219 C 392.132812 69.914062 372.800781 69.957031 349.246094 69.957031 L 306.445312 69.957031 L 306.3125 55.21875 L 306.222656 40.523438 L 349.332031 40.523438 C 373.023438 40.523438 392.445312 40.65625 392.445312 40.835938 Z M 392.3125 73.210938 C 392.710938 73.609375 392.84375 80.066406 392.488281 82.605469 L 392.132812 85.277344 L 392.042969 82.738281 C 391.957031 79.042969 391.777344 78.953125 385.023438 79 L 379.332031 79.042969 L 379.199219 83.453125 C 379.066406 88.261719 379.464844 89.375 380.976562 88.574219 C 381.6875 88.171875 381.820312 87.683594 381.734375 85.367188 C 381.601562 82.027344 382 80.601562 383.109375 80.601562 C 384.398438 80.601562 384.667969 81.402344 384.667969 85.054688 C 384.667969 88.304688 384.710938 88.394531 385.777344 88.394531 C 386.84375 88.394531 386.890625 88.261719 386.933594 85.722656 C 386.933594 82.070312 387.378906 80.601562 388.398438 80.601562 C 389.910156 80.601562 390.355469 81.757812 390.089844 84.742188 C 389.777344 87.90625 390.132812 88.839844 391.464844 88.527344 C 392 88.394531 392.445312 88.484375 392.535156 88.796875 C 392.621094 89.0625 392.578125 92.089844 392.445312 95.519531 L 392.222656 101.753906 L 349.246094 101.84375 L 306.222656 101.976562 L 306.222656 87.59375 C 306.222656 79.667969 306.3125 73.074219 306.398438 72.988281 C 306.667969 72.765625 392.089844 72.941406 392.3125 73.210938 Z M 392.753906 108.96875 C 392.84375 111.417969 392.710938 113.152344 392.445312 113.332031 C 392.222656 113.464844 392 113.242188 392 112.84375 C 392 110.839844 388.578125 109.144531 387.246094 110.480469 C 386.84375 110.882812 386.398438 110.882812 385.464844 110.527344 C 384.800781 110.257812 383.199219 110.082031 381.910156 110.082031 C 379.15625 110.171875 379.109375 110.257812 379.109375 115.78125 C 379.109375 120.054688 379.511719 121.167969 380.753906 120.414062 C 381.378906 120.011719 381.554688 119.253906 381.601562 116.714844 C 381.644531 113.109375 382.445312 111.59375 383.910156 112.484375 C 384.535156 112.886719 384.667969 113.644531 384.667969 116.492188 C 384.667969 119.96875 384.667969 120.011719 385.777344 120.011719 C 386.84375 120.011719 386.890625 119.878906 387.023438 117.117188 C 387.15625 113.152344 387.421875 112.21875 388.398438 112.21875 C 389.910156 112.21875 390.355469 113.375 390.089844 116.359375 C 389.777344 119.65625 390.222656 120.722656 391.511719 119.921875 C 392.667969 119.210938 392.710938 119.566406 392.445312 127.492188 L 392.222656 134.128906 L 351.332031 134.082031 C 327.199219 134.039062 309.734375 134.21875 308.667969 134.441406 C 307.378906 134.75 306.800781 134.75 306.578125 134.351562 C 306.398438 134.039062 306.222656 127.269531 306.222656 119.210938 L 306.222656 104.648438 L 349.421875 104.738281 L 392.621094 104.871094 Z M 392.445312 137.023438 C 392.445312 137.246094 392.535156 139.070312 392.621094 141.164062 C 392.710938 143.257812 392.667969 145.839844 392.445312 146.953125 L 392.132812 148.957031 L 392.042969 146.910156 C 392 144.191406 391.199219 143.167969 389.15625 143.300781 C 386.976562 143.433594 386.445312 143.433594 383.066406 143.347656 C 381.464844 143.257812 379.957031 143.390625 379.644531 143.570312 C 378.976562 143.96875 378.890625 152.5625 379.554688 152.964844 C 379.820312 153.097656 380.445312 153.097656 380.933594 152.964844 C 381.777344 152.699219 381.867188 152.386719 381.6875 149.890625 C 381.511719 148.066406 381.644531 146.773438 382.089844 145.929688 C 382.800781 144.546875 383.199219 144.460938 384.222656 145.4375 C 384.800781 146.019531 384.84375 146.730469 384.621094 149.359375 C 384.3125 152.875 384.621094 153.410156 386.535156 152.699219 C 387.332031 152.386719 387.511719 152.074219 387.332031 150.960938 C 387.199219 150.25 387.023438 149 386.890625 148.246094 C 386.621094 146.507812 387.734375 144.726562 388.890625 145.039062 C 390.042969 145.351562 390.3125 146.464844 390.132812 149.757812 C 390 152.476562 390 152.519531 391.332031 152.742188 L 392.621094 152.964844 L 392.488281 159.421875 C 392.445312 162.984375 392.3125 165.921875 392.265625 165.96875 C 392.222656 166.058594 372.890625 166.101562 349.289062 166.101562 L 306.445312 166.144531 L 306.3125 151.40625 L 306.222656 136.710938 L 349.332031 136.710938 C 373.023438 136.710938 392.445312 136.84375 392.445312 137.023438 Z M 392.445312 137.023438 "/>
<path style=" stroke:none;fill-rule:nonzero;fill:rgb(0%,0%,0%);fill-opacity:1;" d="M 333.464844 11.132812 C 332.222656 11.621094 330.976562 13.539062 331.199219 14.5625 C 331.464844 15.898438 332.753906 15.765625 333.601562 14.292969 C 334.488281 12.78125 336.132812 12.425781 336.800781 13.625 C 337.464844 14.785156 336.933594 15.941406 335.511719 16.433594 C 333.777344 17.054688 333.910156 17.632812 336 18.703125 C 337.957031 19.726562 337.957031 19.726562 337.332031 20.972656 C 336.667969 22.175781 334.621094 22.085938 333.378906 20.75 C 332.800781 20.128906 332.089844 19.773438 331.734375 19.90625 C 330.710938 20.304688 331.023438 22.132812 332.3125 23.378906 C 335.777344 26.585938 341.554688 22.578125 339.378906 18.523438 C 338.710938 17.277344 338.710938 16.964844 339.246094 15.898438 C 339.601562 15.230469 339.777344 14.25 339.6875 13.671875 C 339.289062 11.667969 335.6875 10.152344 333.464844 11.132812 Z M 333.464844 11.132812 "/>
<path style=" stroke:none;fill-rule:nonzero;fill:rgb(0%,0%,0%);fill-opacity:1;" d="M 347.6875 11.398438 C 345.957031 12.246094 344.976562 14.382812 345.777344 15.363281 C 346.578125 16.34375 346.976562 16.210938 348.089844 14.472656 C 349.199219 12.824219 350.621094 12.425781 351.554688 13.582031 C 352.535156 14.785156 351.6875 16.386719 349.109375 17.992188 C 346.265625 19.859375 345.023438 21.863281 345.734375 23.421875 C 346.179688 24.402344 346.445312 24.492188 349.957031 24.492188 C 353.867188 24.492188 354.488281 24.226562 354 22.710938 C 353.777344 21.953125 353.332031 21.820312 351.332031 21.820312 C 348.535156 21.820312 347.957031 21.285156 349.601562 20.171875 C 350.265625 19.726562 351.6875 18.570312 352.800781 17.546875 C 354.445312 16.03125 354.753906 15.542969 354.488281 14.652344 C 353.644531 11.535156 350.445312 9.976562 347.6875 11.398438 Z M 347.6875 11.398438 "/>
<path style=" stroke:none;fill-rule:nonzero;fill:rgb(0%,0%,0%);fill-opacity:1;" d="M 357.554688 11.089844 C 355.957031 11.757812 355.378906 12.914062 355.378906 15.40625 C 355.332031 18.4375 356.089844 19.28125 358.84375 19.238281 C 361.15625 19.238281 361.378906 19.414062 360.84375 20.796875 C 360.398438 22 358.222656 22.222656 357.332031 21.152344 C 356.488281 20.128906 355.554688 20.351562 355.554688 21.507812 C 355.554688 23.957031 359.199219 25.339844 361.109375 23.691406 C 364.089844 21.152344 364.398438 13.9375 361.601562 11.621094 C 360.753906 10.910156 358.621094 10.644531 357.554688 11.089844 Z M 360.890625 14.070312 C 361.464844 15.585938 361.023438 17.277344 359.957031 17.589844 C 358.753906 17.992188 356.890625 16.699219 356.890625 15.496094 C 356.890625 13.09375 360.089844 11.933594 360.890625 14.070312 Z M 360.890625 14.070312 "/>
<path style=" stroke:none;fill-rule:nonzero;fill:rgb(0%,0%,0%);fill-opacity:1;" d="M 367.289062 11.089844 C 365.820312 11.710938 364.890625 14.25 364.890625 17.589844 C 364.890625 21.910156 366.488281 24.492188 369.199219 24.492188 C 370.398438 24.492188 370.890625 24.179688 372 22.621094 C 373.15625 21.019531 373.332031 20.441406 373.332031 17.769531 C 373.332031 13.269531 372.265625 11.222656 369.734375 10.910156 C 368.890625 10.777344 367.820312 10.867188 367.289062 11.089844 Z M 370.398438 13.894531 C 370.84375 14.515625 371.109375 15.851562 371.109375 17.367188 C 371.109375 20.128906 370.265625 21.820312 368.84375 21.820312 C 367.734375 21.820312 367.109375 20.21875 367.109375 17.367188 C 367.109375 13.269531 368.753906 11.535156 370.398438 13.894531 Z M 370.398438 13.894531 "/>
<path style=" stroke:none;fill-rule:nonzero;fill:rgb(0%,0%,0%);fill-opacity:1;" d="M 325.511719 11.621094 C 325.378906 11.890625 324.535156 12.378906 323.734375 12.734375 C 321.820312 13.539062 321.644531 15.007812 323.464844 15.230469 L 324.667969 15.363281 L 324.890625 19.816406 C 325.109375 24.226562 325.109375 24.269531 326.265625 24.402344 C 327.820312 24.582031 327.867188 24.179688 327.644531 17.011719 C 327.464844 11.710938 327.378906 11.132812 326.621094 11.132812 C 326.179688 11.132812 325.6875 11.355469 325.511719 11.621094 Z M 325.511719 11.621094 "/>
<path style=" stroke:none;fill-rule:nonzero;fill:rgb(0%,0%,0%);fill-opacity:1;" d="M 341.867188 21.777344 C 340.890625 22.398438 341.421875 24.269531 342.578125 24.402344 C 343.511719 24.535156 343.601562 24.402344 343.464844 23.113281 C 343.332031 21.554688 342.800781 21.152344 341.867188 21.777344 Z M 341.867188 21.777344 "/>
<path style=" stroke:none;fill-rule:nonzero;fill:rgb(0%,0%,0%);fill-opacity:1;" d="M 332.488281 44.753906 C 330.933594 46.535156 330.800781 47.292969 331.777344 49.164062 C 332.398438 50.320312 332.398438 50.542969 331.777344 51.210938 C 331.421875 51.613281 331.109375 52.636719 331.109375 53.4375 C 331.109375 56.910156 336.042969 58.335938 338.710938 55.707031 C 340.132812 54.285156 340.398438 52.546875 339.332031 51.476562 C 338.488281 50.675781 338.488281 50.363281 339.332031 48.671875 C 340.179688 46.9375 339.6875 45.464844 337.867188 44.128906 C 335.820312 42.707031 334.132812 42.882812 332.488281 44.753906 Z M 336.890625 46.757812 C 337.867188 48.539062 335.734375 50.320312 334.3125 48.894531 C 333.734375 48.316406 333.601562 46.667969 334.089844 46.179688 C 334.710938 45.554688 336.445312 45.910156 336.890625 46.757812 Z M 337.066406 52.058594 C 337.734375 52.769531 337.734375 53.035156 337.246094 53.839844 C 336.222656 55.484375 333.332031 54.816406 333.332031 52.902344 C 333.332031 51.300781 335.867188 50.722656 337.066406 52.058594 Z M 337.066406 52.058594 "/>
<path style=" stroke:none;fill-rule:nonzero;fill:rgb(0%,0%,0%);fill-opacity:1;" d="M 347.066406 44.488281 C 345.6875 45.867188 345.464844 47.113281 346.265625 49.339844 C 346.621094 50.410156 346.578125 50.898438 346 51.789062 C 345.109375 53.214844 345.511719 54.953125 346.976562 56.109375 C 350.445312 58.824219 356.3125 54.730469 353.464844 51.566406 C 352.84375 50.855469 352.800781 50.5 353.246094 49.25 C 354.042969 47.023438 353.910156 45.910156 352.488281 44.488281 C 351.601562 43.597656 350.753906 43.195312 349.777344 43.195312 C 348.800781 43.195312 347.957031 43.597656 347.066406 44.488281 Z M 351.378906 46.535156 C 351.910156 47.828125 351.15625 49.429688 350.042969 49.429688 C 348.667969 49.429688 347.601562 47.558594 348.445312 46.535156 C 349.15625 45.6875 351.066406 45.644531 351.378906 46.535156 Z M 351.289062 51.921875 C 352.667969 53.257812 351.820312 54.773438 349.6875 54.773438 C 347.6875 54.773438 346.933594 52.011719 348.800781 51.523438 C 350.179688 51.167969 350.621094 51.210938 351.289062 51.921875 Z M 351.289062 51.921875 "/>
<path style=" stroke:none;fill-rule:nonzero;fill:rgb(0%,0%,0%);fill-opacity:1;" d="M 356.753906 44.441406 C 355.511719 45.734375 355.15625 47.78125 356.089844 48.359375 C 356.355469 48.539062 357.066406 48.09375 357.734375 47.246094 C 359.199219 45.511719 360.753906 45.378906 361.15625 47.023438 C 361.464844 48.226562 361.109375 48.761719 359.511719 49.609375 C 358.265625 50.230469 358.488281 50.898438 360.179688 51.433594 C 361.644531 51.921875 362.179688 53.082031 361.332031 54.105469 C 360.488281 55.128906 358.710938 54.90625 357.601562 53.570312 C 356.488281 52.28125 355.554688 52.503906 355.554688 54.0625 C 355.554688 56.957031 360.089844 58.113281 362.488281 55.84375 C 363.421875 55.039062 363.734375 54.285156 363.734375 53.125 C 363.734375 52.234375 363.511719 51.433594 363.199219 51.300781 C 362.535156 51.078125 362.488281 49.164062 363.109375 48.761719 C 364 48.183594 363.554688 45.957031 362.265625 44.574219 C 360.535156 42.75 358.445312 42.660156 356.753906 44.441406 Z M 356.753906 44.441406 "/>
<path style=" stroke:none;fill-rule:nonzero;fill:rgb(0%,0%,0%);fill-opacity:1;" d="M 366.976562 44.265625 C 364.132812 46.9375 364.179688 54.996094 367.066406 56.554688 C 369.734375 57.980469 373.332031 56.019531 373.332031 53.125 C 373.332031 50.855469 371.6875 49.429688 369.109375 49.429688 C 366.933594 49.429688 366.753906 49.117188 367.554688 47.023438 C 367.867188 46.179688 368.3125 45.867188 369.109375 45.867188 C 369.734375 45.867188 370.222656 46.046875 370.222656 46.3125 C 370.222656 46.535156 370.753906 47.070312 371.378906 47.46875 C 372.355469 48.136719 372.578125 48.136719 372.933594 47.605469 C 373.511719 46.667969 373.464844 46.492188 371.957031 44.753906 C 370.3125 42.882812 368.667969 42.707031 366.976562 44.265625 Z M 370.84375 52.191406 C 371.464844 53.214844 370.710938 54.507812 369.378906 54.683594 C 367.511719 54.953125 366.398438 52.992188 367.644531 51.746094 C 368.398438 50.988281 370.222656 51.253906 370.84375 52.191406 Z M 370.84375 52.191406 "/>
<path style=" stroke:none;fill-rule:nonzero;fill:rgb(0%,0%,0%);fill-opacity:1;" d="M 341.6875 54.816406 C 340.535156 55.484375 340.710938 56.511719 342.042969 56.820312 C 343.421875 57.179688 344.179688 56.511719 343.777344 55.261719 C 343.464844 54.238281 342.84375 54.105469 341.6875 54.816406 Z M 341.6875 54.816406 "/>
<path style=" stroke:none;fill-rule:nonzero;fill:rgb(0%,0%,0%);fill-opacity:1;" d="M 335.867188 76.328125 C 335.246094 76.949219 334.222656 78.332031 333.511719 79.355469 C 332.800781 80.421875 332 81.535156 331.6875 81.847656 C 329.910156 83.71875 330.976562 85.722656 333.554688 85.234375 C 335.109375 84.964844 335.820312 85.542969 336.089844 87.28125 C 336.179688 88.128906 336.488281 88.394531 337.332031 88.394531 C 338.265625 88.394531 338.488281 88.171875 338.578125 86.96875 C 338.667969 86.210938 339.023438 85.320312 339.378906 85.054688 C 340.265625 84.253906 340.132812 83.40625 339.066406 83.140625 C 338.179688 82.917969 338.132812 82.648438 338.265625 79.175781 C 338.445312 75.96875 338.355469 75.480469 337.6875 75.347656 C 337.246094 75.257812 336.445312 75.703125 335.867188 76.328125 Z M 336.355469 81.582031 C 336.265625 82.785156 336.042969 83.050781 335.15625 83.050781 C 333.734375 83.050781 333.511719 82.203125 334.621094 81.089844 C 335.957031 79.753906 336.535156 79.933594 336.355469 81.582031 Z M 336.355469 81.582031 "/>
<path style=" stroke:none;fill-rule:nonzero;fill:rgb(0%,0%,0%);fill-opacity:1;" d="M 349.777344 76.816406 C 349.246094 77.664062 348.578125 78.640625 348.3125 78.953125 C 347.246094 80.023438 345.332031 83.273438 345.332031 83.898438 C 345.332031 84.832031 346.179688 85.234375 348.222656 85.277344 C 349.957031 85.277344 350 85.320312 350.132812 86.925781 C 350.265625 88.484375 350.398438 88.617188 351.601562 88.617188 C 352.753906 88.617188 352.890625 88.484375 352.890625 87.191406 C 352.890625 86.433594 353.246094 85.410156 353.644531 84.921875 C 354.398438 84.121094 354.398438 84.074219 353.554688 83.453125 C 352.800781 82.871094 352.667969 82.25 352.667969 79.132812 C 352.667969 75.746094 352.578125 75.480469 351.734375 75.347656 C 351.023438 75.257812 350.488281 75.660156 349.777344 76.816406 Z M 350.578125 82.382812 C 350.398438 83.183594 348.976562 83.539062 348.355469 82.917969 C 348.089844 82.648438 348.179688 82.070312 348.710938 81.269531 C 349.464844 80.113281 349.511719 80.113281 350.089844 80.867188 C 350.445312 81.3125 350.621094 81.980469 350.578125 82.382812 Z M 350.578125 82.382812 "/>
<path style=" stroke:none;fill-rule:nonzero;fill:rgb(0%,0%,0%);fill-opacity:1;" d="M 356.578125 75.792969 C 356.3125 76.105469 356 77.527344 355.820312 79 C 355.464844 82.203125 355.910156 82.960938 357.820312 82.292969 C 360.355469 81.402344 362.488281 83.050781 361.644531 85.277344 C 361.15625 86.433594 359.15625 86.613281 357.777344 85.542969 C 356.089844 84.296875 355.554688 84.34375 355.554688 85.765625 C 355.554688 87.636719 358.265625 89.328125 360.488281 88.839844 C 361.957031 88.527344 364 85.722656 364 84.03125 C 364 82.25 361.867188 80.066406 360 79.976562 C 358.578125 79.933594 358.445312 79.800781 358.445312 78.597656 C 358.445312 77.304688 358.535156 77.261719 360.890625 77.039062 C 362.753906 76.859375 363.378906 76.636719 363.464844 76.015625 C 363.601562 75.347656 363.246094 75.257812 360.3125 75.257812 C 358.179688 75.257812 356.84375 75.480469 356.578125 75.792969 Z M 356.578125 75.792969 "/>
<path style=" stroke:none;fill-rule:nonzero;fill:rgb(0%,0%,0%);fill-opacity:1;" d="M 369.464844 76.238281 C 367.734375 78.152344 364.398438 83.453125 364.535156 84.164062 C 364.621094 84.609375 365.332031 84.875 366.800781 84.964844 C 368.976562 85.097656 370.042969 86.078125 369.511719 87.460938 C 369.378906 87.816406 369.601562 88.304688 370.132812 88.574219 C 371.199219 89.152344 372 88.4375 372 86.792969 C 372 86.125 372.3125 85.367188 372.667969 85.054688 C 373.601562 84.253906 373.511719 83.40625 372.398438 83.140625 C 371.511719 82.917969 371.464844 82.648438 371.601562 79.175781 C 371.734375 76.148438 371.644531 75.480469 371.109375 75.347656 C 370.710938 75.300781 370 75.703125 369.464844 76.238281 Z M 369.6875 81.582031 C 369.601562 82.785156 369.378906 83.050781 368.488281 83.050781 C 367.066406 83.050781 366.84375 82.203125 367.957031 81.089844 C 369.289062 79.753906 369.867188 79.933594 369.6875 81.582031 Z M 369.6875 81.582031 "/>
<path style=" stroke:none;fill-rule:nonzero;fill:rgb(0%,0%,0%);fill-opacity:1;" d="M 341.421875 86.480469 C 340.488281 87.414062 340.800781 88.574219 342.042969 88.882812 C 343.421875 89.242188 344.132812 88.617188 343.910156 87.238281 C 343.777344 86.035156 342.3125 85.589844 341.421875 86.480469 Z M 341.421875 86.480469 "/>
<path style=" stroke:none;fill-rule:nonzero;fill:rgb(0%,0%,0%);fill-opacity:1;" d="M 346.667969 107.765625 C 345.378906 109.058594 345.066406 110.839844 345.867188 112.21875 C 346.488281 113.332031 346.488281 113.511719 345.734375 114.488281 C 344.445312 116.183594 344.667969 117.742188 346.445312 119.300781 C 348.445312 121.035156 350.488281 121.125 352.132812 119.609375 C 353.777344 118.097656 354.042969 116.539062 352.976562 114.757812 C 352.222656 113.464844 352.222656 113.152344 352.710938 112.441406 C 353.6875 111.148438 353.464844 109.191406 352.222656 107.988281 C 350.84375 106.5625 347.957031 106.472656 346.667969 107.765625 Z M 351.109375 110.839844 C 351.109375 112.21875 350.222656 112.84375 348.890625 112.441406 C 347.332031 111.953125 347.289062 109.324219 348.800781 108.96875 C 350.089844 108.699219 351.109375 109.503906 351.109375 110.839844 Z M 351.109375 115.113281 C 351.421875 115.515625 351.554688 116.226562 351.378906 116.894531 C 351.109375 117.917969 350.890625 118.050781 349.421875 117.917969 C 348.089844 117.828125 347.734375 117.605469 347.644531 116.761719 C 347.332031 114.757812 349.820312 113.554688 351.109375 115.113281 Z M 351.109375 115.113281 "/>
<path style=" stroke:none;fill-rule:nonzero;fill:rgb(0%,0%,0%);fill-opacity:1;" d="M 360.179688 107.230469 C 359.15625 107.898438 355.109375 114.578125 355.109375 115.601562 C 355.109375 116.628906 356.3125 117.296875 357.820312 117.117188 C 359.15625 116.894531 359.511719 117.160156 359.644531 118.542969 C 359.734375 119.789062 359.957031 120.011719 360.890625 120.011719 C 361.820312 120.011719 362.042969 119.789062 362.132812 118.542969 C 362.222656 117.742188 362.578125 116.9375 362.933594 116.804688 C 363.820312 116.492188 363.6875 115.648438 362.710938 115.023438 C 361.957031 114.535156 361.867188 114.132812 362.089844 111.0625 C 362.3125 108.433594 362.222656 107.585938 361.734375 107.277344 C 360.976562 106.785156 360.800781 106.785156 360.179688 107.230469 Z M 360 113.820312 C 360 115.070312 359.378906 115.515625 358 115.15625 L 356.933594 114.890625 L 357.867188 113.332031 C 358.578125 112.085938 358.890625 111.863281 359.378906 112.261719 C 359.734375 112.53125 360 113.242188 360 113.820312 Z M 360 113.820312 "/>
<path style=" stroke:none;fill-rule:nonzero;fill:rgb(0%,0%,0%);fill-opacity:1;" d="M 366 108.03125 C 364.753906 109.367188 364.578125 111.105469 365.554688 112.398438 C 366.132812 113.152344 366.132812 113.375 365.554688 114.265625 C 364.398438 116.046875 364.710938 118.230469 366.265625 119.523438 C 368.089844 121.082031 369.820312 121.035156 371.777344 119.300781 C 373.554688 117.695312 373.820312 116.046875 372.488281 114.402344 C 371.6875 113.421875 371.6875 113.289062 372.3125 112.53125 C 374.265625 110.347656 372.132812 106.875 368.84375 106.875 C 367.511719 106.875 366.800781 107.140625 366 108.03125 Z M 369.957031 109.367188 C 371.246094 110.660156 370.535156 112.664062 368.800781 112.664062 C 368.089844 112.664062 367.109375 111.460938 367.109375 110.480469 C 367.109375 109.949219 368.355469 108.65625 368.890625 108.65625 C 369.109375 108.65625 369.601562 108.96875 369.957031 109.367188 Z M 370.84375 115.425781 C 371.601562 116.671875 370.667969 117.785156 368.890625 117.785156 C 366.933594 117.785156 366.179688 116.628906 367.332031 115.335938 C 368.3125 114.222656 370.132812 114.3125 370.84375 115.425781 Z M 370.84375 115.425781 "/>
<path style=" stroke:none;fill-rule:nonzero;fill:rgb(0%,0%,0%);fill-opacity:1;" d="M 332.488281 140.675781 C 331.511719 141.609375 331.109375 142.367188 331.109375 143.390625 C 331.109375 144.59375 331.246094 144.769531 332.089844 144.636719 C 332.621094 144.546875 333.378906 143.878906 333.777344 143.167969 C 334.667969 141.519531 336 141.253906 337.109375 142.5 C 337.820312 143.300781 337.867188 143.523438 337.289062 144.546875 C 336.976562 145.214844 336.265625 145.882812 335.777344 146.0625 C 334.265625 146.640625 331.199219 149.804688 330.933594 151.050781 C 330.710938 151.984375 330.890625 152.386719 331.511719 152.742188 C 332.667969 153.320312 338.042969 153.320312 339.15625 152.699219 C 340.710938 151.894531 339.378906 150.960938 336.621094 150.960938 C 334.488281 150.960938 334.222656 150.871094 334.222656 150.070312 C 334.222656 149.535156 334.667969 149 335.289062 148.734375 C 335.867188 148.511719 337.066406 147.710938 337.957031 146.953125 C 339.332031 145.707031 339.554688 145.261719 339.554688 143.570312 C 339.554688 139.648438 335.378906 137.957031 332.488281 140.675781 Z M 332.488281 140.675781 "/>
<path style=" stroke:none;fill-rule:nonzero;fill:rgb(0%,0%,0%);fill-opacity:1;" d="M 342.84375 140.363281 C 341.511719 141.921875 340.976562 143.347656 340.753906 146.0625 C 340.488281 149.089844 340.976562 150.738281 342.488281 152.164062 C 345.554688 155.011719 350.84375 151.050781 348.890625 147.355469 C 348.132812 146.019531 346.089844 145.171875 344.265625 145.484375 C 342.933594 145.707031 342.667969 145.617188 342.667969 144.949219 C 342.667969 144.101562 344.3125 141.609375 344.84375 141.609375 C 345.066406 141.609375 345.734375 142.097656 346.398438 142.722656 C 347.066406 143.347656 347.867188 143.835938 348.179688 143.835938 C 349.023438 143.835938 349.421875 142.589844 348.890625 141.609375 C 347.644531 139.292969 344.355469 138.671875 342.84375 140.363281 Z M 346.488281 148.066406 C 347.023438 149.359375 346.265625 150.960938 345.15625 150.960938 C 343.644531 150.960938 342.445312 149.492188 343.109375 148.332031 C 343.6875 147.21875 346.089844 147.042969 346.488281 148.066406 Z M 346.488281 148.066406 "/>
<path style=" stroke:none;fill-rule:nonzero;fill:rgb(0%,0%,0%);fill-opacity:1;" d="M 356.976562 140.984375 C 355.957031 142.234375 355.601562 143.210938 355.332031 145.4375 C 354.84375 150.203125 356.535156 153.1875 359.820312 153.1875 C 362.179688 153.1875 364.3125 150.382812 363.734375 148.023438 C 363.378906 146.597656 360.84375 145.039062 359.421875 145.394531 C 358.132812 145.75 357.601562 144.816406 358.222656 143.210938 C 358.84375 141.566406 359.957031 141.429688 361.421875 142.8125 C 363.601562 144.90625 364.355469 142.632812 362.179688 140.363281 C 360.753906 138.757812 358.578125 139.027344 356.976562 140.984375 Z M 361.066406 147.664062 C 361.910156 147.976562 362 149.667969 361.246094 150.425781 C 359.820312 151.851562 357.378906 150.25 358 148.289062 C 358.265625 147.398438 359.644531 147.132812 361.066406 147.664062 Z M 361.066406 147.664062 "/>
<path style=" stroke:none;fill-rule:nonzero;fill:rgb(0%,0%,0%);fill-opacity:1;" d="M 366.578125 140.140625 C 365.246094 141.699219 364.890625 142.945312 364.890625 146.019531 C 364.890625 149.445312 365.289062 150.917969 366.667969 152.296875 C 368.089844 153.722656 370.042969 153.453125 371.867188 151.628906 L 373.421875 150.070312 L 373.246094 146.105469 C 373.109375 142.410156 373.023438 142.011719 371.820312 140.761719 C 370.265625 139.160156 367.6875 138.847656 366.578125 140.140625 Z M 370.398438 142.722656 C 372.089844 145.304688 370.800781 151.316406 368.667969 150.917969 C 366.890625 150.558594 366.535156 143.433594 368.222656 142.234375 C 369.332031 141.386719 369.554688 141.429688 370.398438 142.722656 Z M 370.398438 142.722656 "/>
<path style=" stroke:none;fill-rule:nonzero;fill:rgb(0%,0%,0%);fill-opacity:1;" d="M 351.15625 151.316406 C 350.621094 152.296875 351.289062 153.1875 352.535156 153.1875 C 353.601562 153.1875 354.042969 152.03125 353.332031 151.183594 C 352.578125 150.292969 351.6875 150.335938 351.15625 151.316406 Z M 351.15625 151.316406 "/>
<path style=" stroke:none;fill-rule:nonzero;fill:rgb(0%,0%,0%);fill-opacity:1;" d="M 7.246094 11 C 6.265625 11.175781 6.222656 11.355469 6.132812 16.609375 C 6.042969 23.246094 6.089844 23.691406 6.800781 24.136719 C 7.066406 24.3125 9.734375 24.492188 12.667969 24.449219 L 18 24.402344 L 19.066406 22.800781 C 20.089844 21.242188 20.179688 21.242188 20.710938 22.042969 C 22.179688 24.3125 22.578125 24.625 23.289062 24.359375 C 24.179688 24.003906 24.222656 22.53125 23.289062 21.777344 C 22.933594 21.464844 22.3125 20.664062 21.957031 19.996094 C 21.378906 18.835938 21.421875 18.660156 22.445312 17.457031 C 23.6875 15.988281 23.910156 14.25 22.890625 14.25 C 22.535156 14.25 21.910156 14.738281 21.511719 15.363281 C 20.578125 16.832031 19.957031 16.789062 18.890625 15.140625 C 17.867188 13.582031 17.066406 13.449219 16.667969 14.695312 C 16.488281 15.320312 16.753906 16.03125 17.511719 16.964844 C 18.976562 18.703125 18.933594 19.414062 17.378906 21.507812 C 16.265625 22.976562 16.042969 23.066406 15.554688 22.488281 C 15.109375 21.953125 14.222656 21.820312 12.222656 21.863281 C 10.710938 21.910156 9.246094 21.820312 8.976562 21.640625 C 8.265625 21.195312 8.3125 18.257812 9.023438 18.214844 C 9.289062 18.167969 10.578125 18.167969 11.777344 18.214844 C 13.109375 18.300781 14.355469 18.078125 14.84375 17.679688 C 15.6875 17.054688 15.6875 17.011719 14.667969 16.476562 C 14.042969 16.164062 12.800781 16.03125 11.601562 16.164062 C 8.84375 16.433594 8.445312 16.210938 8.445312 14.429688 C 8.445312 12.78125 8.488281 12.734375 11.644531 12.914062 C 12.800781 12.957031 14.132812 12.871094 14.621094 12.691406 C 15.734375 12.335938 15.867188 11.355469 14.84375 10.953125 C 14.089844 10.644531 8.84375 10.6875 7.246094 11 Z M 7.246094 11 "/>
<path style=" stroke:none;fill-rule:nonzero;fill:rgb(0%,0%,0%);fill-opacity:1;" d="M 60.578125 11.175781 C 59.199219 11.710938 59.734375 12.824219 61.464844 13.003906 L 62.84375 13.136719 L 60.976562 14.382812 C 59.957031 15.050781 59.109375 15.898438 59.109375 16.253906 C 59.109375 17.101562 60.398438 17.679688 60.84375 17.054688 C 61.332031 16.296875 63.023438 16.121094 63.867188 16.699219 C 64.578125 17.234375 64.488281 17.367188 62.667969 18.214844 C 61.554688 18.703125 60.445312 19.148438 60.179688 19.148438 C 59.910156 19.148438 59.332031 19.550781 58.890625 20.039062 C 57.910156 21.152344 57.464844 21.152344 57.15625 20.128906 C 56.976562 19.726562 55.777344 18.882812 54.445312 18.300781 C 53.109375 17.722656 52.132812 17.101562 52.265625 16.878906 C 52.578125 16.34375 54.976562 16.386719 55.332031 16.921875 C 55.867188 17.769531 56.890625 17.367188 56.890625 16.296875 C 56.890625 15.007812 55.199219 13.804688 53.421875 13.804688 C 51.644531 13.804688 50.132812 15.542969 50.3125 17.367188 C 50.445312 18.613281 50.710938 18.882812 52.890625 19.726562 C 55.378906 20.75 55.734375 21.242188 54.578125 22 C 54.132812 22.265625 53.421875 22.175781 52.445312 21.640625 C 50.488281 20.707031 50.222656 20.75 50.222656 21.953125 C 50.222656 23.46875 51.554688 24.492188 53.554688 24.492188 C 54.890625 24.492188 55.511719 24.179688 56.535156 23.066406 L 57.820312 21.640625 L 59.15625 23.066406 C 60.578125 24.582031 62.445312 24.980469 63.464844 23.957031 C 63.910156 23.511719 64.222656 23.511719 64.890625 23.957031 C 65.378906 24.226562 66.089844 24.492188 66.488281 24.492188 C 67.066406 24.492188 67.15625 24.226562 66.890625 23.246094 C 66.710938 22.578125 66.488281 20.617188 66.355469 18.925781 C 66.222656 16.433594 65.957031 15.675781 65.199219 15.050781 C 64.398438 14.429688 64.3125 14.207031 64.800781 13.136719 C 65.601562 11.398438 65.464844 11.089844 63.867188 11.222656 C 63.066406 11.265625 62.222656 11.175781 62 11.042969 C 61.734375 10.910156 61.109375 10.953125 60.578125 11.175781 Z M 63.734375 19.414062 C 65.289062 20.039062 64.222656 22.265625 62.355469 22.265625 C 60.84375 22.265625 60.535156 20.972656 61.820312 19.996094 C 63.066406 19.015625 62.890625 19.105469 63.734375 19.414062 Z M 63.734375 19.414062 "/>
<path style=" stroke:none;fill-rule:nonzero;fill:rgb(0%,0%,0%);fill-opacity:1;" d="M 112.042969 11.089844 C 111.6875 11.3125 111.554688 13.402344 111.644531 17.855469 L 111.777344 24.269531 L 114 24.269531 L 114.132812 17.769531 C 114.222656 11.667969 114.179688 11.222656 113.378906 11 C 112.933594 10.910156 112.3125 10.953125 112.042969 11.089844 Z M 112.042969 11.089844 "/>
<path style=" stroke:none;fill-rule:nonzero;fill:rgb(0%,0%,0%);fill-opacity:1;" d="M 26.042969 13.136719 C 25.554688 14.292969 25.464844 15.050781 25.777344 15.851562 C 26.042969 16.476562 26.222656 18.347656 26.222656 19.996094 C 26.222656 23.15625 26.933594 24.492188 28.578125 24.492188 C 29.6875 24.492188 29.867188 23.734375 29.109375 22.308594 C 28.3125 20.707031 28.222656 17.410156 28.976562 15.808594 C 29.378906 14.875 29.332031 14.382812 28.753906 13.136719 C 27.820312 11.132812 26.84375 11.175781 26.042969 13.136719 Z M 26.042969 13.136719 "/>
<path style=" stroke:none;fill-rule:nonzero;fill:rgb(0%,0%,0%);fill-opacity:1;" d="M 83.023438 12.957031 C 82.132812 14.472656 82 15.851562 82.667969 16.253906 C 82.933594 16.386719 83.109375 18.078125 83.109375 19.996094 C 83.109375 23.644531 83.511719 24.492188 85.199219 24.492188 C 86 24.492188 86.222656 24.226562 86.222656 23.421875 C 86.222656 22.800781 86.042969 22.175781 85.777344 22.042969 C 85.199219 21.6875 85.199219 16.65625 85.777344 15.628906 C 86.222656 14.738281 85.066406 11.578125 84.222656 11.578125 C 84 11.578125 83.421875 12.203125 83.023438 12.957031 Z M 83.023438 12.957031 "/>
<path style=" stroke:none;fill-rule:nonzero;fill:rgb(0%,0%,0%);fill-opacity:1;" d="M 97.910156 11.933594 C 96.976562 12.511719 96.445312 14.605469 96.890625 15.851562 C 97.15625 16.476562 97.332031 18.347656 97.332031 19.996094 C 97.332031 23.15625 98.042969 24.492188 99.6875 24.492188 C 100.800781 24.492188 100.976562 23.734375 100.222656 22.308594 C 99.464844 20.839844 99.332031 16.699219 100 16.253906 C 100.667969 15.851562 100.535156 14.382812 99.777344 12.914062 C 99.066406 11.535156 98.800781 11.355469 97.910156 11.933594 Z M 97.910156 11.933594 "/>
<path style=" stroke:none;fill-rule:nonzero;fill:rgb(0%,0%,0%);fill-opacity:1;" d="M 32.042969 15.453125 C 29.777344 18.214844 29.777344 20.929688 32.132812 23.46875 C 33.289062 24.757812 35.820312 24.804688 37.246094 23.644531 C 38.890625 22.222656 38.488281 21.6875 36.089844 22 C 34.578125 22.175781 33.6875 22.085938 33.109375 21.640625 C 32.265625 21.019531 32.265625 20.972656 33.464844 20.707031 C 34.132812 20.527344 35.421875 20.484375 36.222656 20.617188 C 37.867188 20.886719 39.246094 20.082031 38.890625 19.015625 C 38.800781 18.703125 38.621094 17.945312 38.488281 17.277344 C 38.132812 15.628906 36.042969 13.804688 34.578125 13.804688 C 33.777344 13.804688 32.976562 14.292969 32.042969 15.453125 Z M 36.445312 17.144531 C 37.378906 18.300781 36.621094 19.148438 34.710938 19.148438 C 32.710938 19.148438 32.179688 18.660156 32.890625 17.367188 C 33.464844 16.296875 35.644531 16.164062 36.445312 17.144531 Z M 36.445312 17.144531 "/>
<path style=" stroke:none;fill-rule:nonzero;fill:rgb(0%,0%,0%);fill-opacity:1;" d="M 43.332031 14.25 C 43.15625 14.515625 42.667969 14.605469 42.265625 14.472656 C 40.933594 14.070312 40.578125 15.140625 40.535156 19.726562 C 40.488281 23.335938 40.621094 24.136719 41.199219 24.359375 C 42.445312 24.847656 43.023438 23.378906 42.800781 20.351562 C 42.621094 18.035156 42.710938 17.457031 43.378906 16.878906 C 44 16.34375 44.488281 16.253906 45.246094 16.519531 C 46.222656 16.878906 46.265625 17.101562 46.132812 20.441406 C 46 24.226562 46.265625 24.980469 47.464844 24.226562 C 48 23.867188 48.265625 22.976562 48.355469 21.109375 C 48.535156 17.589844 48.179688 15.765625 47.023438 14.695312 C 46 13.761719 43.777344 13.492188 43.332031 14.25 Z M 43.332031 14.25 "/>
<path style=" stroke:none;fill-rule:nonzero;fill:rgb(0%,0%,0%);fill-opacity:1;" d="M 69.910156 14.785156 C 69.421875 15.363281 68.753906 16.253906 68.488281 16.789062 C 66.890625 19.859375 69.246094 24.492188 72.398438 24.492188 C 73.601562 24.492188 74.265625 24.136719 75.421875 22.890625 C 76.667969 21.507812 76.890625 20.929688 76.890625 19.105469 C 76.890625 17.234375 76.667969 16.742188 75.332031 15.363281 C 73.421875 13.449219 71.332031 13.226562 69.910156 14.785156 Z M 73.957031 17.1875 C 74.089844 17.589844 74.222656 18.4375 74.222656 19.148438 C 74.222656 19.859375 74.089844 20.707031 73.957031 21.109375 C 73.644531 21.953125 71.511719 22.042969 70.753906 21.285156 C 70 20.527344 70.089844 17.992188 70.933594 17.1875 C 71.820312 16.253906 73.601562 16.253906 73.957031 17.1875 Z M 73.957031 17.1875 "/>
<path style=" stroke:none;fill-rule:nonzero;fill:rgb(0%,0%,0%);fill-opacity:1;" d="M 88.800781 15.097656 C 87.464844 16.253906 87.378906 16.609375 87.332031 19.058594 C 87.332031 21.464844 87.464844 21.910156 88.621094 23.113281 C 90.445312 25.027344 92.265625 24.980469 94.132812 23.023438 C 95.378906 21.730469 95.554688 21.242188 95.554688 19.238281 C 95.554688 17.144531 95.378906 16.699219 94.042969 15.363281 C 92.222656 13.449219 90.753906 13.359375 88.800781 15.097656 Z M 93.332031 17.902344 C 93.910156 19.015625 93.910156 19.28125 93.332031 20.351562 C 92 22.753906 89.199219 21.953125 89.199219 19.148438 C 89.199219 16.34375 92 15.542969 93.332031 17.902344 Z M 93.332031 17.902344 "/>
<path style=" stroke:none;fill-rule:nonzero;fill:rgb(0%,0%,0%);fill-opacity:1;" d="M 103.378906 14.738281 C 101.554688 16.164062 102 18.523438 103.820312 17.144531 C 104.800781 16.433594 106.933594 16.253906 107.332031 16.921875 C 107.644531 17.410156 105.6875 18.480469 103.6875 18.925781 C 102.488281 19.148438 102.222656 19.460938 101.957031 20.75 C 101.734375 22 101.867188 22.53125 102.710938 23.421875 C 103.734375 24.535156 105.6875 24.847656 106.488281 24.046875 C 106.84375 23.691406 107.332031 23.691406 108.179688 24.046875 C 110.089844 24.757812 110.355469 24.625 110.042969 23.023438 C 109.867188 22.265625 109.601562 20.21875 109.421875 18.523438 C 109.15625 16.121094 108.890625 15.320312 108.042969 14.652344 C 106.710938 13.539062 104.84375 13.582031 103.378906 14.738281 Z M 107.023438 20.886719 C 106.890625 22.222656 105.289062 22.710938 104.179688 21.777344 C 103.601562 21.285156 103.6875 21.109375 104.753906 20.21875 C 106.265625 19.015625 107.199219 19.28125 107.023438 20.886719 Z M 107.023438 20.886719 "/>
<path style=" stroke:none;fill-rule:nonzero;fill:rgb(0%,0%,0%);fill-opacity:1;" d="M 6.800781 43.507812 C 6.488281 43.730469 6.265625 46 6.179688 50.007812 C 6.042969 54.996094 6.179688 56.242188 6.667969 56.597656 C 7.023438 56.820312 9.777344 56.957031 12.753906 56.910156 C 18.132812 56.820312 18.179688 56.820312 19.109375 55.574219 C 20.222656 54.0625 20.535156 54.015625 21.109375 55.308594 C 21.777344 56.777344 22.976562 57.355469 23.777344 56.554688 C 24.355469 55.976562 24.222656 55.664062 22.890625 53.925781 C 21.246094 51.878906 21.289062 51.300781 23.199219 49.25 C 24.179688 48.183594 24.042969 47.46875 22.753906 47.292969 C 22.089844 47.203125 21.644531 47.46875 21.246094 48.273438 C 20.621094 49.742188 20.398438 49.742188 18.976562 48.09375 C 16.800781 45.6875 15.6875 46.9375 17.511719 49.652344 C 18.890625 51.65625 18.890625 51.921875 17.820312 53.75 L 16.933594 55.128906 L 13.246094 54.90625 C 8.398438 54.640625 8.355469 54.59375 8.535156 52.902344 L 8.667969 51.433594 L 11.910156 51.300781 C 14.753906 51.167969 15.109375 51.078125 15.109375 50.320312 C 15.109375 49.25 13.511719 48.761719 11.246094 49.117188 C 9.378906 49.429688 8.445312 48.894531 8.445312 47.46875 C 8.445312 45.910156 9.289062 45.421875 11.378906 45.734375 C 14.132812 46.089844 15.644531 45.644531 15.464844 44.398438 C 15.332031 43.460938 15.066406 43.417969 11.332031 43.285156 C 9.109375 43.238281 7.109375 43.328125 6.800781 43.507812 Z M 6.800781 43.507812 "/>
<path style=" stroke:none;fill-rule:nonzero;fill:rgb(0%,0%,0%);fill-opacity:1;" d="M 60.222656 43.90625 C 59.023438 45.15625 59.6875 45.644531 62.488281 45.644531 C 64.933594 45.644531 65.109375 45.554688 65.246094 44.574219 C 65.378906 43.597656 65.289062 43.550781 64.042969 43.773438 C 63.289062 43.953125 62.578125 43.863281 62.445312 43.640625 C 62.042969 42.972656 61.023438 43.105469 60.222656 43.90625 Z M 60.222656 43.90625 "/>
<path style=" stroke:none;fill-rule:nonzero;fill:rgb(0%,0%,0%);fill-opacity:1;" d="M 100.753906 43.953125 C 100.621094 44.398438 100.667969 47.425781 100.84375 50.722656 L 101.109375 56.6875 L 103.777344 56.820312 C 107.109375 57 107.644531 56.867188 108.535156 55.351562 C 109.820312 53.125 109.734375 49.917969 108.3125 48.273438 C 107.421875 47.292969 106.890625 47.070312 105.066406 47.023438 C 102.933594 46.980469 102.890625 46.9375 103.023438 45.734375 C 103.246094 43.683594 101.246094 42.125 100.753906 43.953125 Z M 106.753906 49.742188 C 108.445312 51.253906 107.289062 54.773438 105.066406 54.773438 C 103.957031 54.773438 102.667969 53.257812 102.667969 51.96875 C 102.667969 50.722656 104 48.984375 105.023438 48.984375 C 105.511719 48.984375 106.3125 49.296875 106.753906 49.742188 Z M 106.753906 49.742188 "/>
<path style=" stroke:none;fill-rule:nonzero;fill:rgb(0%,0%,0%);fill-opacity:1;" d="M 26.535156 44.398438 C 26.355469 44.53125 26.222656 45.15625 26.222656 45.6875 C 26.222656 46.269531 25.867188 46.890625 25.464844 47.160156 C 24.710938 47.558594 24.710938 47.605469 25.464844 48.40625 C 26.042969 49.074219 26.222656 50.097656 26.222656 52.679688 C 26.222656 55.664062 26.355469 56.152344 27.109375 56.554688 C 28.132812 57.089844 29.777344 56.777344 29.777344 56.066406 C 29.777344 55.796875 29.464844 55.308594 29.109375 54.953125 C 28.667969 54.507812 28.445312 53.394531 28.445312 51.613281 C 28.445312 49.652344 28.621094 48.894531 29.109375 48.71875 C 29.957031 48.359375 29.957031 47.46875 29.15625 46.757812 C 28.800781 46.492188 28.621094 45.957031 28.710938 45.644531 C 28.84375 45.332031 28.535156 44.84375 28.042969 44.574219 C 27.023438 43.996094 26.890625 43.996094 26.535156 44.398438 Z M 26.535156 44.398438 "/>
<path style=" stroke:none;fill-rule:nonzero;fill:rgb(0%,0%,0%);fill-opacity:1;" d="M 33.332031 47.070312 C 32.445312 47.425781 31.644531 48.449219 30.84375 50.277344 C 29.421875 53.4375 31.464844 57 34.667969 57 C 35.820312 57 36.753906 56.6875 37.289062 56.152344 C 38.222656 55.21875 38.933594 51.390625 38.445312 49.875 C 37.777344 47.78125 35.109375 46.3125 33.332031 47.070312 Z M 36.222656 49.875 C 37.15625 50.898438 36.753906 51.523438 35.109375 51.65625 C 33.246094 51.835938 32.890625 51.699219 32.890625 50.855469 C 32.890625 48.984375 34.890625 48.40625 36.222656 49.875 Z M 36.3125 54.148438 C 36.535156 54.773438 34.976562 55.21875 33.820312 54.90625 C 33.289062 54.773438 33.066406 54.417969 33.199219 54.015625 C 33.511719 53.257812 36.042969 53.394531 36.3125 54.148438 Z M 36.3125 54.148438 "/>
<path style=" stroke:none;fill-rule:nonzero;fill:rgb(0%,0%,0%);fill-opacity:1;" d="M 42.445312 47.160156 L 40.667969 47.425781 L 40.578125 52.011719 C 40.488281 55.664062 40.621094 56.644531 41.15625 56.867188 C 42.488281 57.355469 43.023438 56.199219 42.800781 53.480469 C 42.535156 50.410156 43.109375 48.984375 44.667969 48.984375 C 46 48.984375 46.445312 50.363281 46.089844 53.480469 C 45.6875 56.6875 46.265625 57.667969 47.957031 56.597656 C 48.800781 56.066406 48.621094 50.230469 47.777344 48.539062 C 46.84375 46.757812 46.222656 46.578125 42.445312 47.160156 Z M 42.445312 47.160156 "/>
<path style=" stroke:none;fill-rule:nonzero;fill:rgb(0%,0%,0%);fill-opacity:1;" d="M 52 47.070312 C 49.289062 48.136719 49.957031 52.546875 52.753906 52.546875 C 54.3125 52.546875 55.109375 53.035156 55.109375 53.972656 C 55.109375 54.730469 54.890625 54.816406 53.6875 54.640625 C 52.890625 54.507812 51.777344 54.285156 51.246094 54.105469 C 50.398438 53.839844 50.222656 53.925781 50.222656 54.683594 C 50.222656 57.222656 54.265625 57.890625 56.445312 55.707031 L 57.734375 54.460938 L 59.066406 55.707031 C 60.355469 56.867188 60.621094 56.957031 63.820312 56.777344 C 65.6875 56.6875 67.332031 56.511719 67.464844 56.375 C 67.601562 56.242188 67.378906 55.753906 66.976562 55.308594 C 66.445312 54.730469 66.222656 53.660156 66.222656 51.566406 C 66.222656 49.25 66.042969 48.539062 65.332031 47.871094 C 63.644531 46.355469 59.109375 47.335938 59.109375 49.207031 C 59.109375 50.097656 60.3125 50.363281 60.890625 49.609375 C 61.644531 48.71875 63.820312 48.804688 64.179688 49.742188 C 64.578125 50.765625 63.867188 51.34375 61.957031 51.523438 C 60.890625 51.566406 59.820312 52.058594 58.976562 52.859375 C 58 53.792969 57.601562 53.925781 57.421875 53.480469 C 57.023438 52.367188 55.554688 51.210938 54.488281 51.210938 C 53.332031 51.210938 52.222656 50.140625 52.667969 49.429688 C 53.066406 48.804688 54.265625 48.894531 55.289062 49.652344 C 56.976562 50.945312 57.554688 48.984375 55.910156 47.605469 C 54.976562 46.757812 53.332031 46.578125 52 47.070312 Z M 64.398438 52.8125 C 64.488281 52.902344 64.3125 53.480469 64 54.105469 C 63.554688 54.953125 63.066406 55.21875 62.265625 55.128906 C 60.890625 54.953125 60.578125 53.839844 61.601562 52.8125 C 62.222656 52.144531 63.6875 52.191406 64.398438 52.8125 Z M 64.398438 52.8125 "/>
<path style=" stroke:none;fill-rule:nonzero;fill:rgb(0%,0%,0%);fill-opacity:1;" d="M 70.667969 47.070312 C 69.644531 47.515625 68.488281 49.117188 68.179688 50.632812 C 67.15625 55.796875 72.042969 59.09375 75.464844 55.53125 C 76.667969 54.328125 76.890625 53.703125 76.890625 52.011719 C 76.890625 50.277344 76.667969 49.695312 75.332031 48.359375 C 73.820312 46.800781 72.398438 46.402344 70.667969 47.070312 Z M 73.6875 49.519531 C 74.265625 50.097656 74.398438 52.859375 73.957031 54.0625 C 73.601562 54.996094 71.820312 54.996094 70.933594 54.0625 C 70.535156 53.703125 70.222656 52.769531 70.222656 52.011719 C 70.222656 49.652344 72.3125 48.136719 73.6875 49.519531 Z M 73.6875 49.519531 "/>
<path style=" stroke:none;fill-rule:nonzero;fill:rgb(0%,0%,0%);fill-opacity:1;" d="M 84.445312 47.070312 C 83.511719 47.46875 82.265625 49.074219 82.265625 49.875 C 82.265625 51.078125 83.867188 52.546875 85.199219 52.546875 C 86.578125 52.546875 87.554688 53.257812 87.554688 54.195312 C 87.554688 54.863281 85.023438 54.996094 84.800781 54.328125 C 84.753906 54.105469 84.179688 53.839844 83.554688 53.792969 C 82.132812 53.617188 81.910156 54.730469 83.109375 56.019531 C 84.445312 57.445312 87.644531 57.402344 89.109375 55.886719 C 89.734375 55.308594 90.222656 54.417969 90.222656 53.972656 C 90.222656 52.8125 88.488281 51.300781 86.890625 51.121094 C 85.910156 51.03125 85.511719 50.722656 85.421875 49.964844 C 85.246094 48.851562 86.132812 48.671875 87.511719 49.519531 C 88.3125 50.007812 89.777344 49.785156 89.777344 49.117188 C 89.6875 47.605469 86.3125 46.269531 84.445312 47.070312 Z M 84.445312 47.070312 "/>
<path style=" stroke:none;fill-rule:nonzero;fill:rgb(0%,0%,0%);fill-opacity:1;" d="M 92.667969 47.914062 C 91.601562 48.894531 91.332031 49.5625 91.199219 51.613281 C 91.023438 53.839844 91.15625 54.328125 92.222656 55.574219 C 93.15625 56.6875 93.734375 57 95.066406 57 C 98.621094 57 100.710938 52.949219 98.890625 49.429688 C 97.421875 46.625 94.753906 45.957031 92.667969 47.914062 Z M 96.890625 50.320312 C 97.6875 52.191406 96.976562 54.507812 95.601562 54.683594 C 93.332031 55.039062 92.089844 52.101562 93.601562 49.964844 C 94.621094 48.496094 96.222656 48.671875 96.890625 50.320312 Z M 96.890625 50.320312 "/>
<path style=" stroke:none;fill-rule:nonzero;fill:rgb(0%,0%,0%);fill-opacity:1;" d="M 117.820312 47.914062 C 116.355469 49.117188 115.332031 52.011719 115.734375 53.617188 C 115.867188 54.105469 116.488281 55.085938 117.109375 55.753906 C 118 56.734375 118.667969 57 120.132812 57 C 122.578125 57 123.246094 56.421875 124.222656 53.617188 C 124.976562 51.476562 124.976562 51.167969 124.3125 49.832031 C 123.554688 48.226562 121.554688 46.757812 120.089844 46.757812 C 119.601562 46.757812 118.578125 47.292969 117.820312 47.914062 Z M 121.511719 49.832031 C 122.578125 50.988281 122.089844 51.65625 120.179688 51.65625 C 118.488281 51.65625 117.777344 50.722656 118.667969 49.652344 C 119.421875 48.71875 120.621094 48.804688 121.511719 49.832031 Z M 121.554688 53.925781 C 122 54.59375 121.554688 54.863281 120.222656 54.863281 C 119.601562 54.863281 118.976562 54.773438 118.84375 54.640625 C 118.355469 54.148438 119.15625 53.4375 120.222656 53.4375 C 120.800781 53.4375 121.421875 53.660156 121.554688 53.925781 Z M 121.554688 53.925781 "/>
<path style=" stroke:none;fill-rule:nonzero;fill:rgb(0%,0%,0%);fill-opacity:1;" d="M 131.867188 47.648438 C 129.601562 49.429688 129.246094 53.347656 131.109375 55.621094 C 131.734375 56.332031 132.621094 56.734375 134.042969 56.910156 C 135.777344 57.089844 136.222656 56.957031 137.289062 55.929688 C 140.488281 52.859375 138.578125 46.757812 134.445312 46.757812 C 133.644531 46.757812 132.488281 47.160156 131.867188 47.648438 Z M 135.644531 49.742188 C 136.578125 50.585938 136.753906 53.394531 135.910156 54.238281 C 134.976562 55.175781 133.511719 54.863281 132.976562 53.660156 C 132.265625 52.101562 132.3125 51.167969 133.15625 49.964844 C 133.957031 48.804688 134.535156 48.71875 135.644531 49.742188 Z M 135.644531 49.742188 "/>
<path style=" stroke:none;fill-rule:nonzero;fill:rgb(0%,0%,0%);fill-opacity:1;" d="M 146.976562 47.160156 L 144.84375 47.425781 L 144.710938 52.011719 C 144.621094 54.507812 144.753906 56.6875 144.976562 56.820312 C 145.199219 56.957031 145.867188 56.957031 146.488281 56.820312 C 147.554688 56.554688 147.601562 56.421875 147.464844 53.214844 C 147.378906 49.695312 147.734375 48.804688 149.15625 49.074219 C 149.910156 49.207031 150 49.695312 150.042969 52.679688 C 150.042969 56.375 150.488281 57.265625 151.957031 56.777344 C 152.84375 56.511719 152.933594 56.199219 152.84375 53.171875 C 152.753906 49.695312 153.109375 48.804688 154.488281 49.074219 C 155.246094 49.207031 155.332031 49.695312 155.378906 52.902344 C 155.378906 54.90625 155.511719 56.6875 155.6875 56.820312 C 155.820312 56.957031 156.355469 56.957031 156.84375 56.777344 C 157.6875 56.511719 157.777344 56.152344 157.777344 52.992188 C 157.777344 51.03125 157.554688 48.984375 157.289062 48.359375 C 156.667969 47.070312 154.710938 46.492188 153.332031 47.203125 C 152.621094 47.558594 152 47.605469 151.023438 47.246094 C 150.265625 46.980469 149.511719 46.800781 149.378906 46.847656 C 149.246094 46.847656 148.132812 47.023438 146.976562 47.160156 Z M 146.976562 47.160156 "/>
<path style=" stroke:none;fill-rule:nonzero;fill:rgb(0%,0%,0%);fill-opacity:1;" d="M 161.464844 47.203125 C 160.132812 47.738281 159.378906 49.207031 160.179688 49.832031 C 160.578125 50.1875 160.976562 50.140625 161.601562 49.652344 C 162.753906 48.804688 164.265625 48.804688 164.621094 49.695312 C 165.023438 50.765625 164.042969 51.746094 162.800781 51.433594 C 161.15625 51.03125 159.554688 52.367188 159.554688 54.105469 C 159.554688 56.464844 160.398438 56.957031 164.3125 56.820312 C 166.3125 56.734375 167.777344 56.511719 167.910156 56.199219 C 168 55.929688 167.734375 55.21875 167.332031 54.59375 C 166.800781 53.792969 166.667969 52.992188 166.84375 51.96875 C 167.554688 48.226562 164.84375 45.824219 161.464844 47.203125 Z M 164.398438 52.726562 C 164.800781 53.214844 164.84375 53.617188 164.445312 54.285156 C 163.957031 55.261719 163.289062 55.441406 162.042969 54.953125 C 161.109375 54.59375 161.15625 54.238281 162.222656 53.082031 C 163.289062 51.921875 163.6875 51.878906 164.398438 52.726562 Z M 164.398438 52.726562 "/>
<path style=" stroke:none;fill-rule:nonzero;fill:rgb(0%,0%,0%);fill-opacity:1;" d="M 171.109375 47.160156 L 169.109375 47.425781 L 169.066406 51.96875 C 169.023438 56.199219 169.066406 56.511719 169.910156 56.734375 C 171.511719 57.132812 171.910156 56.332031 171.644531 53.214844 L 171.421875 50.363281 L 173.066406 49.386719 C 174.753906 48.40625 175.109375 47.46875 173.957031 47.023438 C 173.554688 46.890625 173.246094 46.800781 173.199219 46.847656 C 173.15625 46.847656 172.222656 47.023438 171.109375 47.160156 Z M 171.109375 47.160156 "/>
<path style=" stroke:none;fill-rule:nonzero;fill:rgb(0%,0%,0%);fill-opacity:1;" d="M 111.023438 51.523438 C 110.890625 56.066406 111.289062 57.355469 112.667969 56.867188 C 113.246094 56.597656 113.332031 56.109375 113.066406 53.660156 L 112.753906 50.765625 L 114.398438 49.296875 C 115.289062 48.449219 115.867188 47.648438 115.6875 47.515625 C 115.554688 47.335938 114.445312 47.203125 113.289062 47.203125 L 111.15625 47.203125 Z M 111.023438 51.523438 "/>
<path style=" stroke:none;fill-rule:nonzero;fill:rgb(0%,0%,0%);fill-opacity:1;" d="M 6.132812 80.914062 C 5.957031 89.0625 5.644531 88.4375 9.6875 88.75 C 11.601562 88.882812 14.265625 88.882812 15.6875 88.75 C 17.910156 88.527344 18.355469 88.304688 18.976562 87.238281 C 19.957031 85.589844 20.621094 85.589844 21.332031 87.28125 C 21.734375 88.214844 22.179688 88.617188 22.933594 88.617188 C 24.355469 88.617188 24.355469 87.324219 22.890625 85.589844 C 21.554688 83.984375 21.464844 82.871094 22.667969 81.582031 C 23.6875 80.46875 23.867188 78.820312 22.933594 78.820312 C 22.222656 78.820312 21.066406 79.800781 20.753906 80.691406 C 20.621094 81.089844 20.042969 80.78125 19.023438 79.800781 C 17.867188 78.6875 17.378906 78.507812 16.976562 78.910156 C 16.265625 79.621094 16.3125 80.558594 17.066406 80.867188 C 17.421875 81.003906 17.910156 81.671875 18.222656 82.382812 C 18.800781 83.71875 18.445312 84.832031 16.890625 86.523438 C 16.222656 87.238281 15.910156 87.28125 15.066406 86.835938 C 14.445312 86.480469 13.246094 86.390625 11.867188 86.570312 C 9.246094 86.835938 8.445312 86.390625 8.445312 84.566406 C 8.445312 82.917969 9.066406 82.605469 11.820312 82.738281 C 13.464844 82.871094 14.222656 82.695312 14.667969 82.160156 C 15.554688 81.089844 14.753906 80.644531 11.554688 80.511719 L 8.667969 80.378906 L 8.667969 77.261719 L 12 77.039062 C 14.710938 76.859375 15.332031 76.683594 15.464844 76.015625 C 15.601562 75.347656 15.15625 75.257812 10.933594 75.257812 L 6.265625 75.257812 Z M 6.132812 80.914062 "/>
<path style=" stroke:none;fill-rule:nonzero;fill:rgb(0%,0%,0%);fill-opacity:1;" d="M 60.265625 75.570312 C 60.132812 75.703125 60 76.238281 60 76.683594 C 60 77.351562 60.222656 77.484375 60.84375 77.261719 C 61.332031 77.128906 61.820312 77.21875 62 77.484375 C 62.578125 78.417969 64.621094 77.972656 65.199219 76.816406 C 65.464844 76.191406 65.554688 75.703125 65.421875 75.660156 C 63.378906 75.390625 60.535156 75.347656 60.265625 75.570312 Z M 60.265625 75.570312 "/>
<path style=" stroke:none;fill-rule:nonzero;fill:rgb(0%,0%,0%);fill-opacity:1;" d="M 26.3125 76.90625 C 25.601562 78.332031 25.332031 80.113281 25.777344 80.378906 C 26 80.511719 26.222656 82.25 26.222656 84.164062 C 26.222656 87.191406 26.355469 87.769531 27.15625 88.304688 C 28.132812 89.019531 29.777344 88.839844 29.777344 87.992188 C 29.777344 87.726562 29.464844 87.101562 29.109375 86.65625 C 28.3125 85.632812 28.222656 81.226562 28.933594 80.78125 C 29.464844 80.46875 29.066406 77.574219 28.355469 76.683594 C 27.6875 75.925781 26.753906 76.015625 26.3125 76.90625 Z M 26.3125 76.90625 "/>
<path style=" stroke:none;fill-rule:nonzero;fill:rgb(0%,0%,0%);fill-opacity:1;" d="M 112.222656 76.503906 C 111.421875 77.039062 110.710938 80.023438 111.246094 80.558594 C 111.464844 80.78125 111.644531 82.292969 111.601562 83.898438 C 111.464844 87.636719 112 88.617188 114 88.617188 C 115.6875 88.617188 115.957031 88.171875 114.890625 87.28125 C 114.089844 86.613281 113.957031 81.046875 114.667969 80.335938 C 114.976562 80.023438 114.933594 79.308594 114.535156 78.109375 C 113.910156 76.414062 113.109375 75.835938 112.222656 76.503906 Z M 112.222656 76.503906 "/>
<path style=" stroke:none;fill-rule:nonzero;fill:rgb(0%,0%,0%);fill-opacity:1;" d="M 42.890625 78.777344 L 40.667969 79.042969 L 40.488281 88.660156 L 41.6875 88.527344 C 42.890625 88.394531 42.890625 88.351562 42.753906 85.457031 C 42.578125 82.203125 43.109375 80.601562 44.398438 80.601562 C 45.910156 80.601562 46.3125 81.714844 46.179688 85.144531 C 46 88.351562 46 88.394531 47.109375 88.394531 C 48.179688 88.394531 48.222656 88.304688 48.355469 84.964844 C 48.488281 81.582031 47.734375 78.820312 46.710938 78.820312 C 46.488281 78.820312 46.042969 78.730469 45.6875 78.6875 C 45.378906 78.597656 44.132812 78.640625 42.890625 78.777344 Z M 42.890625 78.777344 "/>
<path style=" stroke:none;fill-rule:nonzero;fill:rgb(0%,0%,0%);fill-opacity:1;" d="M 52.265625 78.863281 C 50.710938 79.308594 50.222656 79.933594 50.222656 81.535156 C 50.222656 82.871094 51.644531 84.03125 53.777344 84.476562 C 55.464844 84.789062 55.867188 85.410156 54.933594 86.300781 C 54.3125 86.96875 54.089844 86.925781 52.667969 86.257812 C 50.578125 85.277344 50.222656 85.320312 50.222656 86.570312 C 50.222656 87.90625 50.890625 88.4375 52.976562 88.839844 C 54.488281 89.152344 54.800781 89.019531 56.222656 87.59375 L 57.820312 85.988281 L 59.066406 87.371094 C 60.355469 88.839844 62.535156 89.195312 63.777344 88.171875 C 64.179688 87.816406 64.445312 87.816406 64.667969 88.171875 C 64.976562 88.660156 67.554688 88.796875 67.554688 88.261719 C 67.554688 88.082031 67.246094 87.546875 66.890625 87.101562 C 66.445312 86.523438 66.222656 85.1875 66.222656 83.230469 C 66.222656 79.976562 65.910156 79.445312 63.644531 79 C 61.734375 78.597656 60.132812 79.085938 59.511719 80.199219 C 58.800781 81.625 59.644531 82.203125 61.066406 81.269531 C 61.820312 80.78125 62.621094 80.601562 63.332031 80.78125 C 64.445312 81.046875 64.445312 81.089844 63.6875 82.160156 C 63.066406 82.960938 62.488281 83.230469 61.246094 83.273438 C 60.3125 83.273438 59.554688 83.453125 59.554688 83.71875 C 59.554688 83.941406 59.109375 84.34375 58.578125 84.652344 C 57.777344 85.097656 57.511719 85.011719 56.933594 84.253906 C 56.535156 83.71875 55.734375 83.183594 55.109375 83.050781 C 53.554688 82.648438 52.3125 81.625 52.667969 81.089844 C 53.066406 80.378906 54.265625 80.511719 55.15625 81.3125 C 56.042969 82.117188 56.890625 81.804688 56.890625 80.644531 C 56.890625 79.085938 54.535156 78.195312 52.265625 78.863281 Z M 64.179688 84.742188 C 64.753906 85.632812 63.378906 86.878906 62 86.703125 C 60.710938 86.570312 60.621094 84.875 61.867188 84.253906 C 63.109375 83.675781 63.554688 83.761719 64.179688 84.742188 Z M 64.179688 84.742188 "/>
<path style=" stroke:none;fill-rule:nonzero;fill:rgb(0%,0%,0%);fill-opacity:1;" d="M 70.578125 78.863281 C 69.199219 79.398438 68 81.671875 68 83.808594 C 68 86.792969 70.753906 89.464844 73.15625 88.882812 C 73.6875 88.75 74.710938 87.992188 75.511719 87.191406 C 79.109375 83.496094 75.332031 77.039062 70.578125 78.863281 Z M 74.042969 82.117188 C 74.753906 85.054688 73.464844 86.96875 71.378906 86.035156 C 70.445312 85.632812 70.222656 85.234375 70.222656 83.808594 C 70.222656 81.804688 70.84375 81.046875 72.535156 81.046875 C 73.464844 81.046875 73.820312 81.3125 74.042969 82.117188 Z M 74.042969 82.117188 "/>
<path style=" stroke:none;fill-rule:nonzero;fill:rgb(0%,0%,0%);fill-opacity:1;" d="M 85.421875 78.6875 C 84 78.953125 82.222656 81.9375 82.222656 84.074219 C 82.222656 85.277344 82.578125 86.210938 83.511719 87.28125 C 84.578125 88.574219 85.066406 88.839844 86.621094 88.839844 C 88 88.839844 88.710938 88.527344 89.644531 87.636719 C 90.753906 86.523438 90.753906 86.390625 90 86.125 C 89.554688 85.945312 88.621094 86.035156 87.867188 86.300781 C 86.933594 86.65625 86.265625 86.65625 85.6875 86.347656 C 84.179688 85.542969 85.066406 84.832031 87.6875 84.789062 C 90.890625 84.789062 91.332031 84.386719 90.710938 82.070312 C 90 79.398438 88.132812 78.195312 85.421875 78.6875 Z M 88 81.402344 C 89.378906 82.515625 88.800781 83.273438 86.621094 83.273438 C 85.199219 83.273438 84.890625 83.140625 84.890625 82.382812 C 84.890625 81.625 85.910156 80.644531 86.710938 80.601562 C 86.890625 80.601562 87.464844 80.957031 88 81.402344 Z M 88 81.402344 "/>
<path style=" stroke:none;fill-rule:nonzero;fill:rgb(0%,0%,0%);fill-opacity:1;" d="M 101.378906 78.777344 C 101.023438 79 98.976562 79.085938 96.800781 79 C 94.667969 78.910156 92.890625 78.953125 92.890625 79.132812 C 92.84375 79.355469 92.800781 81.492188 92.753906 83.941406 C 92.667969 88.261719 92.710938 88.394531 93.6875 88.527344 C 94.621094 88.660156 94.667969 88.527344 94.667969 85.410156 C 94.667969 81.625 95.289062 80.335938 96.800781 80.78125 C 97.6875 81.089844 97.777344 81.402344 97.777344 84.875 C 97.777344 88.574219 97.777344 88.617188 98.890625 88.617188 C 100 88.617188 100 88.574219 100 85.097656 C 100 81.269531 100.667969 79.976562 102.132812 80.914062 C 102.710938 81.269531 102.933594 82.160156 103.023438 84.875 C 103.15625 88.304688 103.554688 89.195312 104.753906 88.75 C 105.15625 88.574219 105.332031 87.460938 105.332031 84.429688 C 105.332031 80.113281 105.199219 79.667969 103.6875 78.863281 C 102.535156 78.285156 102.222656 78.242188 101.378906 78.777344 Z M 101.378906 78.777344 "/>
<path style=" stroke:none;fill-rule:nonzero;fill:rgb(0%,0%,0%);fill-opacity:1;" d="M 119.15625 78.820312 C 117.066406 79.308594 115.15625 83.496094 116 85.679688 C 117.109375 88.617188 120.800781 89.6875 122.933594 87.683594 C 124.398438 86.300781 123.6875 85.542969 121.554688 86.347656 C 120.398438 86.746094 119.777344 86.746094 119.109375 86.390625 C 117.601562 85.589844 118.355469 84.832031 120.710938 84.742188 C 121.910156 84.699219 123.246094 84.652344 123.6875 84.652344 C 124.800781 84.609375 124.667969 82.425781 123.464844 80.601562 C 122.355469 79 120.890625 78.375 119.15625 78.820312 Z M 121.554688 81.226562 C 122.890625 82.203125 122.089844 83.273438 120.042969 83.273438 C 117.910156 83.273438 117.464844 82.695312 118.667969 81.492188 C 119.6875 80.46875 120.398438 80.378906 121.554688 81.226562 Z M 121.554688 81.226562 "/>
<path style=" stroke:none;fill-rule:nonzero;fill:rgb(0%,0%,0%);fill-opacity:1;" d="M 139.246094 78.820312 C 138.222656 79.222656 137.511719 80.734375 138 81.492188 C 138.398438 82.160156 139.421875 82.027344 139.734375 81.269531 C 140 80.511719 141.554688 80.378906 142 81.046875 C 142.132812 81.269531 142 81.894531 141.6875 82.382812 C 141.246094 83.09375 140.800781 83.273438 139.957031 83.09375 C 138.535156 82.828125 136.890625 84.34375 136.890625 85.988281 C 136.890625 87.371094 138.488281 88.75 139.957031 88.707031 C 140.578125 88.660156 142.265625 88.660156 143.6875 88.617188 C 145.066406 88.617188 146.222656 88.4375 146.222656 88.214844 C 146.222656 87.992188 145.910156 87.238281 145.554688 86.570312 C 145.199219 85.855469 144.890625 84.386719 144.933594 83.273438 C 145.066406 80.734375 144.621094 79.355469 143.644531 79.085938 C 141.734375 78.554688 140.132812 78.464844 139.246094 78.820312 Z M 142.445312 84.609375 C 142.933594 85.367188 141.777344 86.835938 140.710938 86.835938 C 139.554688 86.835938 138.890625 85.457031 139.6875 84.652344 C 140.3125 84.03125 142.089844 84.03125 142.445312 84.609375 Z M 142.445312 84.609375 "/>
<path style=" stroke:none;fill-rule:nonzero;fill:rgb(0%,0%,0%);fill-opacity:1;" d="M 32 79.800781 C 30.84375 81.046875 30 83.761719 30.398438 85.144531 C 30.535156 85.679688 31.199219 86.746094 31.867188 87.503906 C 32.800781 88.527344 33.378906 88.796875 34.710938 88.796875 C 36.621094 88.707031 38.488281 87.28125 38.042969 86.167969 C 37.820312 85.542969 37.6875 85.542969 36.398438 86.210938 C 34.800781 87.015625 32.890625 86.523438 32.890625 85.277344 C 32.890625 84.699219 33.378906 84.566406 35.554688 84.699219 C 36.976562 84.742188 38.398438 84.609375 38.621094 84.386719 C 39.246094 83.761719 38.398438 80.78125 37.289062 79.667969 C 36.089844 78.464844 33.199219 78.507812 32 79.800781 Z M 36 81.402344 C 37.378906 82.515625 36.800781 83.273438 34.667969 83.273438 C 32.535156 83.273438 31.957031 82.515625 33.332031 81.402344 C 33.867188 80.957031 34.488281 80.601562 34.667969 80.601562 C 34.84375 80.601562 35.464844 80.957031 36 81.402344 Z M 36 81.402344 "/>
<path style=" stroke:none;fill-rule:nonzero;fill:rgb(0%,0%,0%);fill-opacity:1;" d="M 126.222656 79.175781 C 126.179688 79.355469 126.132812 81.492188 126.089844 83.941406 L 126 88.394531 L 127.109375 88.394531 C 128.179688 88.394531 128.222656 88.304688 128.132812 85.5 C 128.042969 83.71875 128.222656 82.339844 128.578125 81.894531 C 129.066406 81.226562 130.753906 80.15625 131.289062 80.15625 C 131.421875 80.15625 131.554688 82.070312 131.554688 84.386719 L 131.554688 88.617188 L 134.222656 88.617188 L 134.222656 85.277344 C 134.222656 81.980469 134.3125 81.714844 136.179688 80.421875 C 138.042969 79.132812 134.976562 78.242188 132.179688 79.265625 C 131.464844 79.53125 130.800781 79.578125 130.488281 79.308594 C 129.910156 78.863281 126.222656 78.730469 126.222656 79.175781 Z M 126.222656 79.175781 "/>
<path style=" stroke:none;fill-rule:nonzero;fill:rgb(0%,0%,0%);fill-opacity:1;" d="M 6.488281 107.230469 C 6.398438 107.410156 6.222656 110.257812 6.179688 113.511719 C 6 120.859375 5.957031 120.769531 11.777344 120.589844 C 15.734375 120.457031 15.777344 120.457031 15.777344 119.34375 C 15.777344 118.273438 15.644531 118.230469 12.222656 118.007812 L 8.667969 117.785156 L 8.535156 116.269531 C 8.355469 114.355469 8.976562 113.957031 11.601562 114.265625 C 14.089844 114.578125 15.910156 113.867188 15.066406 112.84375 C 14.710938 112.398438 13.601562 112.21875 11.511719 112.21875 L 8.445312 112.21875 L 8.445312 110.703125 C 8.445312 108.878906 8.933594 108.65625 12.089844 108.921875 C 14.667969 109.144531 15.820312 108.699219 15.421875 107.585938 C 15.199219 107.007812 14.398438 106.875 10.933594 106.875 C 8.621094 106.875 6.621094 107.007812 6.488281 107.230469 Z M 6.488281 107.230469 "/>
<path style=" stroke:none;fill-rule:nonzero;fill:rgb(0%,0%,0%);fill-opacity:1;" d="M 60.3125 107.410156 C 59.246094 107.988281 59.777344 108.65625 61.332031 108.65625 C 62.933594 108.65625 63.464844 109.367188 62.132812 109.769531 C 61.554688 109.949219 60.667969 110.527344 60.132812 111.015625 C 58.3125 112.664062 59.109375 114.132812 61.109375 112.84375 C 61.820312 112.398438 62.621094 112.21875 63.332031 112.398438 C 64.710938 112.753906 64.753906 113.421875 63.464844 114 C 60.488281 115.246094 59.246094 115.824219 58.535156 116.316406 C 57.867188 116.804688 57.644531 116.761719 57.332031 116.183594 C 57.109375 115.78125 55.777344 114.980469 54.445312 114.445312 C 52.445312 113.644531 52.089844 113.332031 52.488281 112.84375 C 53.109375 112.039062 53.6875 112.085938 55.199219 112.84375 C 56.488281 113.511719 56.890625 113.375 56.890625 112.21875 C 56.890625 110.035156 52.890625 109.191406 51.199219 111.015625 C 50.222656 112.039062 49.957031 113.777344 50.578125 114.757812 C 50.753906 115.023438 51.511719 115.425781 52.222656 115.601562 C 54 116.046875 55.601562 117.117188 55.289062 117.652344 C 55.023438 118.097656 53.109375 117.964844 51.246094 117.339844 C 50.355469 117.074219 50.222656 117.160156 50.222656 118.140625 C 50.222656 119.476562 51.867188 120.679688 53.644531 120.679688 C 54.933594 120.636719 56.398438 119.65625 57.15625 118.320312 C 57.554688 117.605469 57.777344 117.695312 59.246094 119.121094 C 61.023438 120.859375 61.957031 121.035156 63.199219 119.921875 C 63.820312 119.34375 64.132812 119.300781 64.535156 119.699219 C 64.84375 120.011719 65.554688 120.234375 66.132812 120.234375 C 67.109375 120.234375 67.199219 120.101562 66.890625 118.988281 C 66.710938 118.320312 66.488281 116.492188 66.355469 114.890625 C 66.222656 112.796875 65.910156 111.730469 65.199219 111.015625 C 64.398438 110.125 64.355469 109.859375 64.890625 108.878906 C 65.199219 108.253906 65.378906 107.675781 65.246094 107.5 C 64.753906 107.054688 61.066406 106.964844 60.3125 107.410156 Z M 63.957031 115.738281 C 64.667969 116.226562 64.222656 117.828125 63.246094 118.1875 C 62.355469 118.542969 60.890625 118.097656 60.890625 117.472656 C 60.890625 116.804688 62.222656 115.335938 62.84375 115.335938 C 63.109375 115.335938 63.601562 115.515625 63.957031 115.738281 Z M 63.957031 115.738281 "/>
<path style=" stroke:none;fill-rule:nonzero;fill:rgb(0%,0%,0%);fill-opacity:1;" d="M 88.753906 107.1875 C 88.578125 107.320312 88.445312 108.121094 88.445312 108.921875 C 88.445312 110.347656 88.398438 110.394531 87.066406 110.125 C 84.488281 109.636719 81.777344 112.308594 81.777344 115.378906 C 81.777344 118.453125 85.066406 121.347656 87.332031 120.324219 C 87.957031 120.054688 88.667969 119.921875 88.976562 120.011719 C 90.3125 120.5 90.578125 119.476562 90.710938 113.777344 C 90.800781 110.570312 90.710938 107.722656 90.535156 107.410156 C 90.132812 106.832031 89.199219 106.695312 88.753906 107.1875 Z M 87.554688 112.664062 C 88.753906 113.289062 89.109375 115.558594 88.265625 116.894531 C 87.246094 118.453125 85.554688 118.363281 84.667969 116.671875 C 83.777344 114.980469 83.820312 114.800781 85.109375 113.375 C 86.3125 112.085938 86.398438 112.039062 87.554688 112.664062 Z M 87.554688 112.664062 "/>
<path style=" stroke:none;fill-rule:nonzero;fill:rgb(0%,0%,0%);fill-opacity:1;" d="M 212.132812 107.1875 C 211.820312 107.277344 211.554688 107.855469 211.554688 108.433594 C 211.554688 109.058594 211.023438 109.949219 210.222656 110.570312 C 209.511719 111.195312 208.890625 112.128906 208.890625 112.621094 C 208.890625 113.777344 209.289062 113.777344 211.066406 112.753906 C 212.132812 112.175781 212.621094 112.128906 213.199219 112.484375 C 214.445312 113.289062 214.042969 113.734375 211.289062 114.667969 C 209.246094 115.378906 208.578125 115.824219 208.265625 116.761719 C 207.910156 117.828125 208 118.1875 209.109375 119.34375 C 210.488281 120.769531 212 121.082031 212.890625 120.054688 C 213.246094 119.566406 213.6875 119.523438 214.488281 119.832031 C 215.109375 120.054688 215.910156 120.234375 216.265625 120.234375 C 217.023438 120.234375 217.109375 118.855469 216.355469 118.097656 C 216.089844 117.828125 215.820312 116.539062 215.777344 115.246094 C 215.6875 113.957031 215.644531 112.53125 215.601562 112.128906 C 215.601562 111.730469 214.976562 111.015625 214.222656 110.570312 C 212.800781 109.726562 212.445312 108.65625 213.601562 108.65625 C 214 108.65625 214.222656 108.34375 214.132812 107.898438 C 214 107.097656 213.066406 106.742188 212.132812 107.1875 Z M 213.6875 116.761719 C 213.867188 118.140625 212.578125 118.765625 211.066406 118.007812 L 210.132812 117.472656 L 211.15625 116.40625 C 212.445312 115.023438 213.511719 115.203125 213.6875 116.761719 Z M 213.6875 116.761719 "/>
<path style=" stroke:none;fill-rule:nonzero;fill:rgb(0%,0%,0%);fill-opacity:1;" d="M 217.910156 107.410156 C 217.601562 107.808594 217.601562 109.011719 217.867188 111.105469 C 218.089844 112.796875 218.132812 115.335938 218 116.671875 C 217.734375 119.386719 218.222656 120.722656 219.199219 119.921875 C 219.644531 119.566406 219.777344 117.828125 219.777344 113.242188 C 219.777344 107.988281 219.6875 107.097656 219.066406 106.964844 C 218.667969 106.917969 218.179688 107.097656 217.910156 107.410156 Z M 217.910156 107.410156 "/>
<path style=" stroke:none;fill-rule:nonzero;fill:rgb(0%,0%,0%);fill-opacity:1;" d="M 221.957031 107.542969 C 221.777344 107.945312 221.867188 108.476562 222.132812 108.746094 C 222.800781 109.414062 224.089844 108.789062 223.910156 107.898438 C 223.734375 106.875 222.3125 106.609375 221.957031 107.542969 Z M 221.957031 107.542969 "/>
<path style=" stroke:none;fill-rule:nonzero;fill:rgb(0%,0%,0%);fill-opacity:1;" d="M 25.910156 109.414062 C 25.601562 110.480469 25.554688 111.371094 25.820312 111.863281 C 26.042969 112.261719 26.222656 114.089844 26.222656 115.914062 C 26.222656 118.632812 26.355469 119.34375 27.109375 120.011719 C 27.554688 120.414062 28.265625 120.679688 28.667969 120.546875 C 29.421875 120.234375 29.601562 118.230469 28.890625 117.785156 C 28.3125 117.429688 28.3125 113.597656 28.933594 111.863281 C 29.289062 110.792969 29.246094 110.214844 28.667969 109.144531 C 27.6875 107.230469 26.578125 107.363281 25.910156 109.414062 Z M 25.910156 109.414062 "/>
<path style=" stroke:none;fill-rule:nonzero;fill:rgb(0%,0%,0%);fill-opacity:1;" d="M 124.753906 109.191406 C 124.355469 110.125 124.265625 110.925781 124.488281 111.417969 C 124.710938 111.816406 124.890625 113.644531 124.890625 115.46875 C 124.890625 119.34375 125.777344 121.035156 127.464844 120.5 C 128.578125 120.144531 128.710938 119.078125 127.777344 117.828125 C 126.933594 116.714844 126.933594 113.464844 127.734375 111.863281 C 128.265625 110.839844 128.222656 110.480469 127.554688 109.324219 C 126.488281 107.453125 125.511719 107.410156 124.753906 109.191406 Z M 124.753906 109.191406 "/>
<path style=" stroke:none;fill-rule:nonzero;fill:rgb(0%,0%,0%);fill-opacity:1;" d="M 144.890625 109.28125 C 144.578125 110.304688 144.535156 111.105469 144.890625 111.996094 C 145.15625 112.664062 145.289062 114.488281 145.246094 116.046875 C 145.109375 118.453125 145.246094 119.03125 146.089844 119.832031 C 146.621094 120.414062 147.332031 120.679688 147.734375 120.546875 C 148.535156 120.234375 148.710938 118.675781 148 118.230469 C 147.378906 117.828125 147.421875 112.085938 148.042969 111.460938 C 148.445312 111.0625 148.398438 110.527344 147.820312 109.367188 C 146.84375 107.277344 145.554688 107.230469 144.890625 109.28125 Z M 144.890625 109.28125 "/>
<path style=" stroke:none;fill-rule:nonzero;fill:rgb(0%,0%,0%);fill-opacity:1;" d="M 203.734375 109.144531 C 203.199219 110.257812 203.109375 110.792969 203.511719 111.640625 C 203.777344 112.21875 204 114.042969 204 115.691406 C 204 118.808594 204.753906 120.679688 206 120.679688 C 207.023438 120.679688 207.644531 119.078125 206.890625 118.453125 C 206.089844 117.785156 206 113.242188 206.753906 111.550781 C 207.15625 110.703125 207.15625 110.304688 206.753906 109.902344 C 206.445312 109.589844 206.222656 109.011719 206.222656 108.566406 C 206.222656 107.1875 204.535156 107.632812 203.734375 109.144531 Z M 203.734375 109.144531 "/>
<path style=" stroke:none;fill-rule:nonzero;fill:rgb(0%,0%,0%);fill-opacity:1;" d="M 16.753906 110.304688 C 16.179688 110.839844 16.445312 111.640625 17.554688 112.929688 C 18.179688 113.644531 18.667969 114.488281 18.667969 114.800781 C 18.667969 115.648438 17.734375 117.296875 17.066406 117.695312 C 16.3125 118.140625 16.265625 120.054688 16.933594 120.5 C 17.246094 120.679688 18.042969 120.101562 18.84375 119.121094 L 20.265625 117.472656 L 21.511719 119.078125 C 22.488281 120.414062 22.890625 120.636719 23.378906 120.191406 C 24.3125 119.433594 24.132812 118.765625 22.667969 116.894531 C 21.957031 115.960938 21.332031 115.070312 21.332031 114.933594 C 21.332031 114.800781 21.820312 114.132812 22.445312 113.464844 C 23.554688 112.261719 23.910156 110.703125 23.15625 110.257812 C 22.933594 110.082031 22.222656 110.617188 21.554688 111.417969 L 20.3125 112.886719 L 19.109375 111.417969 C 17.957031 109.992188 17.332031 109.726562 16.753906 110.304688 Z M 16.753906 110.304688 "/>
<path style=" stroke:none;fill-rule:nonzero;fill:rgb(0%,0%,0%);fill-opacity:1;" d="M 32.3125 110.972656 C 29.867188 113.597656 29.777344 117.027344 32.042969 119.34375 C 33.6875 120.945312 35.289062 121.082031 37.066406 119.65625 C 38.84375 118.230469 38.3125 117.652344 35.289062 117.917969 C 33.289062 118.097656 32.800781 118.007812 32.976562 117.519531 C 33.15625 117.074219 34 116.894531 35.820312 116.894531 L 38.445312 116.894531 L 38.445312 114.625 C 38.398438 112.796875 38.179688 112.085938 37.332031 111.148438 C 35.957031 109.726562 33.511719 109.636719 32.3125 110.972656 Z M 36.535156 113.289062 C 37.332031 114.445312 36.667969 115.113281 34.710938 115.113281 C 32.445312 115.113281 32 114.445312 33.332031 113.109375 C 34.3125 112.128906 35.867188 112.21875 36.535156 113.289062 Z M 36.535156 113.289062 "/>
<path style=" stroke:none;fill-rule:nonzero;fill:rgb(0%,0%,0%);fill-opacity:1;" d="M 42.222656 110.394531 L 40.667969 110.660156 L 40.578125 115.246094 C 40.488281 118.988281 40.621094 119.878906 41.15625 120.101562 C 42.355469 120.546875 42.890625 119.433594 42.753906 116.671875 C 42.578125 113.734375 43.15625 112.21875 44.398438 112.21875 C 45.910156 112.21875 46.355469 113.375 46.089844 116.316406 C 45.777344 119.609375 46.265625 120.902344 47.554688 120.234375 C 48.3125 119.832031 48.445312 119.300781 48.445312 116.539062 C 48.445312 112.175781 47.511719 110.257812 45.332031 110.171875 C 44.488281 110.125 43.066406 110.214844 42.222656 110.394531 Z M 42.222656 110.394531 "/>
<path style=" stroke:none;fill-rule:nonzero;fill:rgb(0%,0%,0%);fill-opacity:1;" d="M 69.957031 110.792969 C 67.601562 112.796875 67.511719 117.117188 69.777344 119.433594 C 71.554688 121.214844 73.332031 121.125 75.246094 119.121094 C 77.601562 116.671875 77.644531 114.355469 75.421875 111.550781 C 74.398438 110.257812 73.910156 109.992188 72.535156 109.992188 C 71.644531 110.035156 70.445312 110.394531 69.957031 110.792969 Z M 74.132812 114.800781 C 74.265625 116.894531 73.6875 118.007812 72.398438 118.007812 C 71.199219 118.007812 70.222656 116.761719 70.222656 115.15625 C 70.222656 113.332031 70.976562 112.574219 72.667969 112.753906 C 73.910156 112.886719 74 113.019531 74.132812 114.800781 Z M 74.132812 114.800781 "/>
<path style=" stroke:none;fill-rule:nonzero;fill:rgb(0%,0%,0%);fill-opacity:1;" d="M 93.867188 111.015625 C 92.089844 112.886719 92.890625 114.042969 95.066406 112.796875 C 96.042969 112.21875 96.621094 112.128906 97.15625 112.441406 C 98.398438 113.242188 98.042969 113.644531 95.464844 114.578125 C 93.644531 115.246094 92.890625 115.738281 92.710938 116.492188 C 92.042969 119.03125 94.535156 121.390625 96.667969 120.234375 C 97.511719 119.789062 98 119.746094 98.890625 120.144531 C 100.753906 120.992188 101.023438 120.8125 100.710938 118.988281 C 100.535156 118.097656 100.3125 116.046875 100.265625 114.488281 C 100.132812 112.128906 99.910156 111.460938 99.109375 110.792969 C 97.6875 109.636719 95.066406 109.726562 93.867188 111.015625 Z M 97.6875 116.761719 C 97.820312 118.050781 96.753906 118.71875 95.378906 118.1875 C 94.355469 117.785156 94.488281 116.851562 95.644531 116.046875 C 96.933594 115.113281 97.511719 115.335938 97.6875 116.761719 Z M 97.6875 116.761719 "/>
<path style=" stroke:none;fill-rule:nonzero;fill:rgb(0%,0%,0%);fill-opacity:1;" d="M 107.820312 111.105469 C 106.398438 112.398438 105.777344 113.957031 105.777344 116.09375 C 105.777344 117.339844 106.132812 118.007812 107.378906 119.164062 C 108.355469 120.101562 109.378906 120.679688 110.132812 120.679688 C 111.378906 120.679688 113.867188 119.300781 113.820312 118.632812 C 113.820312 118.410156 112.667969 118.140625 111.332031 118.007812 C 108.222656 117.742188 108.132812 116.894531 111.246094 116.894531 C 114.355469 116.894531 114.84375 116.539062 114.535156 114.355469 C 114 110.527344 110.355469 108.746094 107.820312 111.105469 Z M 112 113.109375 C 113.066406 114.179688 113.109375 114.710938 112.179688 115.070312 C 109.554688 116.09375 107.421875 114.578125 109.289062 113.019531 C 110.578125 111.996094 110.890625 111.996094 112 113.109375 Z M 112 113.109375 "/>
<path style=" stroke:none;fill-rule:nonzero;fill:rgb(0%,0%,0%);fill-opacity:1;" d="M 117.246094 110.75 C 115.820312 112.441406 115.601562 113.289062 116.398438 114.265625 C 116.800781 114.800781 117.644531 115.378906 118.265625 115.558594 C 119.777344 116.003906 121.332031 117.074219 121.332031 117.605469 C 121.332031 118.097656 119.910156 118.007812 117.246094 117.339844 C 116.179688 117.074219 116 117.160156 116 117.917969 C 116 119.121094 118 120.679688 119.601562 120.679688 C 121.332031 120.679688 123.554688 118.675781 123.554688 117.117188 C 123.554688 116.046875 123.199219 115.738281 120.890625 114.710938 C 119.421875 114.042969 118.222656 113.289062 118.222656 113.066406 C 118.222656 112.308594 119.554688 112.085938 120.933594 112.664062 C 122.890625 113.511719 123.644531 112.621094 122.222656 111.105469 C 120.933594 109.769531 118.265625 109.546875 117.246094 110.75 Z M 117.246094 110.75 "/>
<path style=" stroke:none;fill-rule:nonzero;fill:rgb(0%,0%,0%);fill-opacity:1;" d="M 130.488281 110.527344 C 129.957031 112.21875 129.867188 119.300781 130.398438 120.011719 C 131.378906 121.347656 132.179688 119.699219 132.042969 116.671875 C 131.957031 114.535156 132.132812 113.867188 132.890625 113.109375 C 134.355469 111.640625 134.890625 112.21875 135.109375 115.738281 C 135.289062 118.496094 135.464844 119.078125 136.445312 119.789062 C 137.644531 120.722656 139.109375 120.945312 139.820312 120.277344 C 140.042969 120.054688 140.933594 119.789062 141.777344 119.699219 L 143.289062 119.566406 L 143.332031 115.113281 L 143.332031 110.660156 L 142.132812 110.527344 L 140.890625 110.394531 L 140.890625 113.511719 C 140.890625 117.160156 140.621094 118.007812 139.554688 118.007812 C 137.601562 118.007812 137.332031 117.605469 137.332031 114.265625 C 137.332031 112.53125 137.15625 110.882812 136.976562 110.570312 C 136.621094 109.992188 133.734375 109.902344 132.890625 110.4375 C 132.535156 110.660156 131.910156 110.617188 131.464844 110.394531 C 130.890625 110.082031 130.621094 110.125 130.488281 110.527344 Z M 130.488281 110.527344 "/>
<path style=" stroke:none;fill-rule:nonzero;fill:rgb(0%,0%,0%);fill-opacity:1;" d="M 150.222656 110.839844 C 149.601562 112.039062 149.6875 117.117188 150.355469 118.453125 C 151.199219 120.101562 153.023438 120.992188 154.3125 120.324219 C 154.890625 120.054688 155.957031 119.746094 156.667969 119.699219 L 158 119.566406 L 158.132812 115.292969 C 158.222656 111.90625 158.132812 110.882812 157.554688 110.4375 C 156.179688 109.28125 155.554688 110.214844 155.554688 113.511719 C 155.554688 117.296875 155.289062 118.007812 154 118.007812 C 152.355469 118.007812 151.867188 116.9375 152.132812 114.132812 C 152.488281 110.703125 151.378906 108.746094 150.222656 110.839844 Z M 150.222656 110.839844 "/>
<path style=" stroke:none;fill-rule:nonzero;fill:rgb(0%,0%,0%);fill-opacity:1;" d="M 161.109375 110.394531 L 159.777344 110.660156 L 159.644531 115.246094 C 159.554688 119.03125 159.644531 119.832031 160.222656 120.054688 C 161.601562 120.589844 162.222656 119.433594 161.910156 116.671875 C 161.6875 114.265625 161.734375 114 162.84375 112.976562 C 164.179688 111.730469 164.398438 109.949219 163.246094 110.035156 C 162.800781 110.082031 161.867188 110.214844 161.109375 110.394531 Z M 161.109375 110.394531 "/>
<path style=" stroke:none;fill-rule:nonzero;fill:rgb(0%,0%,0%);fill-opacity:1;" d="M 166.535156 110.792969 C 165.734375 111.683594 165.511719 113.554688 166.179688 113.554688 C 166.398438 113.554688 167.199219 113.199219 167.957031 112.796875 C 169.199219 112.039062 169.332031 112.039062 170.042969 112.753906 C 170.753906 113.464844 170.753906 113.554688 169.511719 114 C 165.820312 115.46875 165.109375 116.003906 164.976562 117.382812 C 164.890625 118.496094 165.109375 119.03125 166.042969 119.746094 C 167.289062 120.722656 169.109375 120.992188 169.554688 120.234375 C 169.734375 119.921875 170.621094 119.878906 171.867188 120.054688 L 173.910156 120.367188 L 173.554688 119.078125 C 173.378906 118.363281 173.15625 116.40625 173.023438 114.710938 C 172.84375 112.261719 172.621094 111.460938 171.867188 110.839844 C 170.535156 109.726562 167.464844 109.726562 166.535156 110.792969 Z M 170.222656 116.894531 C 170.222656 118.140625 169.15625 118.632812 167.910156 117.964844 C 167.023438 117.472656 167.023438 117.472656 168 116.449219 C 169.15625 115.203125 170.222656 115.425781 170.222656 116.894531 Z M 170.222656 116.894531 "/>
<path style=" stroke:none;fill-rule:nonzero;fill:rgb(0%,0%,0%);fill-opacity:1;" d="M 179.554688 110.617188 C 179.289062 110.882812 179.109375 112.976562 179.109375 115.335938 C 179.109375 119.921875 179.511719 120.992188 180.976562 120.191406 C 181.644531 119.832031 181.777344 119.210938 181.777344 116.539062 C 181.777344 112.976562 182.132812 112.039062 183.378906 112.308594 C 184.089844 112.441406 184.222656 112.929688 184.355469 115.558594 C 184.488281 119.523438 184.753906 120.679688 185.511719 120.679688 C 186.398438 120.679688 186.667969 119.65625 186.667969 116.226562 C 186.667969 112.886719 187.421875 111.640625 188.800781 112.53125 C 189.378906 112.886719 189.554688 113.734375 189.601562 116.183594 C 189.601562 119.476562 190.089844 120.546875 191.289062 120.101562 C 191.867188 119.878906 192 119.03125 192 115.871094 C 192 112.308594 191.910156 111.816406 190.976562 110.972656 C 189.820312 109.859375 188.398438 109.726562 187.109375 110.527344 C 186.488281 110.925781 186.042969 110.925781 185.246094 110.527344 C 184.089844 109.949219 180.179688 109.992188 179.554688 110.617188 Z M 179.554688 110.617188 "/>
<path style=" stroke:none;fill-rule:nonzero;fill:rgb(0%,0%,0%);fill-opacity:1;" d="M 195.332031 111.328125 C 194.179688 112.574219 194 113.019531 194 115.601562 C 194 118.230469 194.089844 118.542969 195.332031 119.566406 C 196.933594 120.859375 198.265625 120.945312 200.042969 119.921875 C 202.179688 118.675781 201.6875 118.007812 198.667969 118.007812 C 196.488281 118.007812 196 117.875 196 117.296875 C 196 116.671875 196.355469 116.582031 198.621094 116.804688 C 201.777344 117.160156 202.488281 116.628906 202.042969 114.222656 C 201.289062 110.257812 197.820312 108.746094 195.332031 111.328125 Z M 199.109375 113.109375 C 199.601562 113.597656 200 114.179688 200 114.445312 C 200 115.46875 196 115.601562 195.6875 114.578125 C 195.464844 114 197.066406 112.21875 197.777344 112.21875 C 198.042969 112.21875 198.621094 112.621094 199.109375 113.109375 Z M 199.109375 113.109375 "/>
<path style=" stroke:none;fill-rule:nonzero;fill:rgb(0%,0%,0%);fill-opacity:1;" d="M 222.265625 110.792969 C 221.511719 112.21875 221.644531 119.566406 222.398438 120.191406 C 223.464844 121.082031 223.867188 119.523438 223.734375 114.933594 C 223.601562 110.570312 223.109375 109.191406 222.265625 110.792969 Z M 222.265625 110.792969 "/>
<path style=" stroke:none;fill-rule:nonzero;fill:rgb(0%,0%,0%);fill-opacity:1;" d="M 226.753906 111.105469 C 226.265625 111.683594 225.644531 112.796875 225.332031 113.554688 C 224.179688 116.316406 226.621094 120.679688 229.289062 120.679688 C 230.621094 120.679688 233.332031 118.453125 233.332031 117.339844 C 233.332031 116.183594 232.042969 116.046875 230.933594 117.074219 C 228.976562 118.941406 227.421875 117.875 227.644531 114.800781 C 227.777344 113.199219 227.957031 112.84375 228.800781 112.753906 C 229.378906 112.664062 230.3125 112.929688 230.890625 113.289062 C 232.355469 114.265625 232.890625 114.179688 232.890625 112.976562 C 232.890625 110.257812 228.488281 108.921875 226.753906 111.105469 Z M 226.753906 111.105469 "/>
<path style=" stroke:none;fill-rule:nonzero;fill:rgb(0%,0%,0%);fill-opacity:1;" d="M 235.199219 111.015625 C 233.421875 112.886719 234.222656 114.042969 236.445312 112.886719 C 237.867188 112.128906 239.734375 112.351562 239.421875 113.242188 C 239.332031 113.511719 238.3125 114.089844 237.109375 114.535156 C 235.910156 114.980469 234.667969 115.601562 234.3125 115.960938 C 233.421875 116.851562 234 119.121094 235.421875 120.011719 C 236.398438 120.679688 236.800781 120.722656 238.265625 120.234375 C 239.644531 119.746094 240.089844 119.746094 240.667969 120.234375 C 241.777344 121.125 242.800781 120.414062 242.445312 118.988281 C 242.3125 118.320312 242 116.449219 241.820312 114.757812 C 241.378906 111.015625 240.578125 109.992188 238 109.992188 C 236.667969 109.992188 235.910156 110.257812 235.199219 111.015625 Z M 239.289062 116.046875 C 239.421875 116.40625 239.332031 117.160156 239.066406 117.652344 C 238.710938 118.320312 238.3125 118.453125 237.421875 118.230469 C 235.734375 117.828125 235.734375 117.695312 236.890625 116.449219 C 238.089844 115.15625 238.890625 115.023438 239.289062 116.046875 Z M 239.289062 116.046875 "/>
<path style=" stroke:none;fill-rule:nonzero;fill:rgb(0%,0%,0%);fill-opacity:1;" d="M 3.734375 119.566406 C 3.199219 120.769531 3.378906 139.292969 3.910156 140.71875 C 4.265625 141.699219 4.355469 141.519531 4.621094 139.25 L 4.933594 136.710938 L 153.554688 136.710938 C 260.84375 136.710938 302.265625 136.578125 302.488281 136.222656 C 302.621094 135.953125 302.445312 135.417969 302.042969 135.019531 C 301.378906 134.304688 290.222656 134.261719 153.246094 134.039062 L 5.199219 133.816406 L 5.066406 127.582031 C 4.976562 120.992188 4.445312 117.917969 3.734375 119.566406 Z M 3.734375 119.566406 "/>
<path style=" stroke:none;fill-rule:nonzero;fill:rgb(0%,0%,0%);fill-opacity:1;" d="M 6.089844 139.648438 C 5.910156 139.828125 5.777344 142.765625 5.777344 146.152344 L 5.777344 152.296875 L 6.933594 152.742188 C 8.355469 153.277344 13.332031 153.320312 14.179688 152.785156 C 14.535156 152.5625 14.667969 152.074219 14.535156 151.671875 C 14.3125 151.140625 13.601562 150.960938 11.332031 150.960938 C 8.890625 150.960938 8.445312 150.828125 8.398438 150.160156 C 8.398438 149.757812 8.355469 147.175781 8.3125 144.503906 C 8.222656 139.960938 8.179688 139.605469 7.332031 139.472656 C 6.800781 139.382812 6.265625 139.472656 6.089844 139.648438 Z M 6.089844 139.648438 "/>
<path style=" stroke:none;fill-rule:nonzero;fill:rgb(0%,0%,0%);fill-opacity:1;" d="M 99.109375 146.019531 C 99.109375 151.808594 99.199219 152.699219 99.867188 152.921875 C 101.289062 153.5 101.554688 152.253906 101.421875 145.707031 L 101.289062 139.382812 L 99.109375 139.382812 Z M 99.109375 146.019531 "/>
<path style=" stroke:none;fill-rule:nonzero;fill:rgb(0%,0%,0%);fill-opacity:1;" d="M 70.800781 140.585938 C 70.488281 140.675781 70.222656 141.253906 70.222656 141.832031 C 70.222656 142.367188 69.910156 143.078125 69.554688 143.390625 C 68.933594 143.925781 68.933594 144.058594 69.554688 144.726562 C 70 145.261719 70.222656 146.417969 70.222656 148.644531 C 70.222656 151.539062 70.3125 151.894531 71.332031 152.5625 C 72.488281 153.320312 74.222656 153.054688 74.222656 152.074219 C 74.222656 151.761719 73.910156 151.40625 73.554688 151.226562 C 72.578125 150.871094 72.621094 145.75 73.644531 144.636719 C 74.3125 143.878906 74.3125 143.792969 73.644531 143.257812 C 73.289062 142.988281 72.890625 142.234375 72.800781 141.609375 C 72.667969 140.539062 71.867188 140.09375 70.800781 140.585938 Z M 70.800781 140.585938 "/>
<path style=" stroke:none;fill-rule:nonzero;fill:rgb(0%,0%,0%);fill-opacity:1;" d="M 85.199219 140.585938 C 85.023438 140.71875 84.890625 141.253906 84.890625 141.699219 C 84.890625 142.144531 84.667969 142.902344 84.355469 143.347656 C 83.957031 144.015625 84 144.324219 84.578125 144.949219 C 85.199219 145.527344 85.289062 146.195312 85.066406 148.691406 C 84.84375 151.140625 84.890625 151.808594 85.511719 152.429688 C 86.445312 153.367188 87.109375 153.367188 88.265625 152.5625 C 89.023438 151.941406 89.066406 151.851562 88.398438 151.316406 C 87.910156 150.960938 87.554688 149.757812 87.421875 147.933594 C 87.246094 145.660156 87.332031 145.082031 87.910156 144.769531 C 88.535156 144.414062 88.578125 144.191406 88.132812 143.433594 C 87.820312 142.902344 87.554688 142.144531 87.554688 141.652344 C 87.554688 140.585938 85.910156 139.828125 85.199219 140.585938 Z M 85.199219 140.585938 "/>
<path style=" stroke:none;fill-rule:nonzero;fill:rgb(0%,0%,0%);fill-opacity:1;" d="M 16.667969 143.925781 C 15.820312 144.683594 15.511719 145.261719 15.6875 145.75 C 16.042969 146.6875 17.066406 146.730469 17.957031 145.839844 C 18.667969 145.128906 20.890625 144.90625 20.890625 145.574219 C 20.890625 146.910156 20.265625 147.398438 18.578125 147.398438 C 15.332031 147.398438 13.957031 150.425781 16.3125 152.296875 C 17.246094 153.007812 17.867188 153.1875 19.023438 152.964844 C 19.820312 152.832031 22.089844 152.699219 24 152.652344 L 27.554688 152.652344 L 27.554688 149.847656 C 27.554688 146.417969 27.820312 145.660156 29.15625 145.128906 C 30.179688 144.769531 30.578125 143.65625 29.910156 143.257812 C 29.6875 143.167969 28.578125 143.210938 27.332031 143.347656 L 25.109375 143.613281 L 25.246094 147.175781 C 25.289062 149.136719 25.15625 151.050781 24.890625 151.40625 C 24.042969 152.652344 23.109375 150.648438 23.109375 147.621094 C 23.109375 144.191406 22.535156 143.347656 19.957031 143.078125 C 18.265625 142.902344 17.734375 143.035156 16.667969 143.925781 Z M 20.179688 148.554688 C 21.734375 149.136719 20.3125 151.71875 18.753906 151.226562 C 17.601562 150.828125 17.464844 149.402344 18.578125 148.777344 C 19.511719 148.199219 19.332031 148.246094 20.179688 148.554688 Z M 20.179688 148.554688 "/>
<path style=" stroke:none;fill-rule:nonzero;fill:rgb(0%,0%,0%);fill-opacity:1;" d="M 32.535156 143.613281 C 31.246094 144.546875 30.222656 146.550781 30.222656 148.199219 C 30.222656 148.914062 30.753906 150.203125 31.464844 151.09375 C 32.578125 152.609375 32.84375 152.742188 34.667969 152.652344 C 36.222656 152.5625 36.710938 152.699219 36.800781 153.277344 C 37.023438 154.34375 35.289062 154.703125 33.246094 154.035156 C 30.890625 153.277344 30.042969 154.035156 31.554688 155.636719 C 33.023438 157.238281 36.265625 157.238281 37.777344 155.636719 C 38.667969 154.703125 38.890625 153.8125 39.246094 149.625 C 39.777344 144.148438 40.445312 143.078125 40.445312 147.800781 C 40.445312 152.429688 41.15625 153.007812 46.355469 152.832031 L 48.445312 152.742188 L 48.445312 148.109375 C 48.445312 144.238281 48.3125 143.433594 47.734375 143.210938 C 46.355469 142.679688 45.867188 143.703125 46.089844 146.464844 C 46.355469 149.535156 45.777344 150.960938 44.222656 150.960938 C 42.710938 150.960938 42.3125 149.9375 42.578125 146.507812 L 42.800781 143.480469 L 40.398438 143.480469 C 39.066406 143.480469 37.023438 143.390625 35.777344 143.210938 C 34.089844 142.988281 33.332031 143.078125 32.535156 143.613281 Z M 36.355469 145.707031 C 36.933594 146.285156 37.066406 149.046875 36.621094 150.25 C 36.3125 151.09375 34.179688 151.183594 33.421875 150.425781 C 32.710938 149.714844 32.710938 146.417969 33.421875 145.707031 C 33.734375 145.394531 34.355469 145.171875 34.890625 145.171875 C 35.421875 145.171875 36.042969 145.394531 36.355469 145.707031 Z M 36.355469 145.707031 "/>
<path style=" stroke:none;fill-rule:nonzero;fill:rgb(0%,0%,0%);fill-opacity:1;" d="M 51.910156 143.300781 L 50.222656 143.433594 L 50.222656 152.742188 L 52.890625 152.742188 L 52.621094 149.714844 C 52.355469 146.773438 52.355469 146.640625 53.644531 145.574219 C 54.355469 144.992188 54.976562 144.324219 55.066406 144.058594 C 55.246094 143.480469 53.820312 143.125 51.910156 143.300781 Z M 51.910156 143.300781 "/>
<path style=" stroke:none;fill-rule:nonzero;fill:rgb(0%,0%,0%);fill-opacity:1;" d="M 56.890625 143.925781 C 55.6875 145.214844 55.777344 146.0625 57.109375 146.0625 C 57.734375 146.0625 58.222656 145.839844 58.222656 145.617188 C 58.222656 145.351562 58.84375 145.171875 59.554688 145.171875 C 60.933594 145.171875 61.109375 145.4375 60.621094 146.6875 C 60.445312 147.175781 59.777344 147.398438 58.667969 147.398438 C 55.820312 147.398438 54.265625 150.160156 56.132812 152.03125 C 57.109375 153.007812 57.511719 153.097656 60.621094 152.964844 C 62.488281 152.921875 64.179688 152.742188 64.3125 152.5625 C 64.488281 152.386719 64.398438 151.851562 64.089844 151.40625 C 63.777344 150.917969 63.554688 149.3125 63.554688 147.84375 C 63.554688 145.574219 63.378906 144.949219 62.445312 144.058594 C 61.023438 142.589844 58.222656 142.5 56.890625 143.925781 Z M 60.667969 148.734375 C 61.066406 149.402344 60.535156 150.828125 59.777344 151.140625 C 58.890625 151.449219 57.777344 151.003906 57.777344 150.292969 C 57.777344 148.914062 60.042969 147.710938 60.667969 148.734375 Z M 60.667969 148.734375 "/>
<path style=" stroke:none;fill-rule:nonzero;fill:rgb(0%,0%,0%);fill-opacity:1;" d="M 76.222656 144.101562 C 73.421875 147.132812 74.753906 152.429688 78.398438 153.054688 C 80.535156 153.410156 81.957031 152.386719 82.890625 149.890625 C 83.601562 148.023438 83.601562 147.84375 82.710938 145.882812 C 81.378906 142.8125 78.222656 141.921875 76.222656 144.101562 Z M 80.355469 145.707031 C 81.023438 146.375 81.066406 148.914062 80.445312 150.113281 C 79.867188 151.140625 78.535156 151.226562 77.601562 150.25 C 76.800781 149.445312 76.667969 147.308594 77.332031 146.019531 C 77.867188 145.082031 79.554688 144.90625 80.355469 145.707031 Z M 80.355469 145.707031 "/>
<path style=" stroke:none;fill-rule:nonzero;fill:rgb(0%,0%,0%);fill-opacity:1;" d="M 91.554688 143.210938 C 90.398438 143.570312 89.644531 145.128906 90.265625 145.882812 C 90.710938 146.464844 90.890625 146.464844 91.554688 145.839844 C 92.355469 145.128906 94.667969 144.90625 94.667969 145.574219 C 94.667969 146.863281 94.042969 147.398438 92.535156 147.398438 C 91.332031 147.398438 90.667969 147.710938 89.910156 148.601562 C 89.332031 149.222656 88.890625 150.027344 88.890625 150.382812 C 88.890625 151.496094 90.753906 152.921875 92.179688 152.875 C 92.933594 152.832031 94.535156 152.785156 95.6875 152.785156 C 98.488281 152.742188 98.976562 152.429688 97.820312 151.363281 C 97.066406 150.648438 96.890625 149.9375 96.890625 147.710938 C 96.890625 146.105469 96.621094 144.546875 96.3125 144.101562 C 95.734375 143.347656 92.890625 142.8125 91.554688 143.210938 Z M 94.621094 148.914062 C 95.421875 149.847656 93.820312 151.628906 92.535156 151.226562 C 91.378906 150.828125 91.246094 149.402344 92.355469 148.777344 C 93.421875 148.15625 94.042969 148.199219 94.621094 148.914062 Z M 94.621094 148.914062 "/>
</g>
</svg>
