<?xml version="1.0" encoding="UTF-8" standalone="no"?>
<svg
   xmlns:dc="http://purl.org/dc/elements/1.1/"
   xmlns:cc="http://creativecommons.org/ns#"
   xmlns:rdf="http://www.w3.org/1999/02/22-rdf-syntax-ns#"
   xmlns:svg="http://www.w3.org/2000/svg"
   xmlns="http://www.w3.org/2000/svg"
   xmlns:sodipodi="http://sodipodi.sourceforge.net/DTD/sodipodi-0.dtd"
   xmlns:inkscape="http://www.inkscape.org/namespaces/inkscape"
   version="1.0"
   width="500.71799"
   height="104.8185"
   viewBox="0 0 400.57439 83.854803"
   preserveAspectRatio="xMidYMid meet"
   id="svg3912"
   inkscape:version="0.48.4 r9939"
   sodipodi:docname="b0e46f274803ed267a6e533b3876e6fb8aa41fab.svg">
  <defs
     id="defs3952" />
  <sodipodi:namedview
     pagecolor="#ffffff"
     bordercolor="#666666"
     borderopacity="1"
     objecttolerance="10"
     gridtolerance="10"
     guidetolerance="10"
     inkscape:pageopacity="0"
     inkscape:pageshadow="2"
     inkscape:window-width="1600"
     inkscape:window-height="824"
     id="namedview3950"
     showgrid="false"
     fit-margin-top="0"
     fit-margin-left="0"
     fit-margin-right="0"
     fit-margin-bottom="0"
     inkscape:zoom="0.42933333"
     inkscape:cx="552.5"
     inkscape:cy="119.70847"
     inkscape:window-x="0"
     inkscape:window-y="24"
     inkscape:window-maximized="1"
     inkscape:current-layer="svg3912" />
  <metadata
     id="metadata3914">
Created by potrace 1.10, written by Peter Selinger 2001-2011
<rdf:RDF>
  <cc:Work
     rdf:about="">
    <dc:format>image/svg+xml</dc:format>
    <dc:type
       rdf:resource="http://purl.org/dc/dcmitype/StillImage" />
  </cc:Work>
</rdf:RDF>
</metadata>
  <g
     transform="matrix(0.04532541,0,0,-0.04532541,-3.6260328,88.039799)"
     id="g3916"
     style="fill:#000000;stroke:none">
    <path
       d="m 4883,1940 c -2874,-4 -3915,-8 -3923,-16 -17,-17 5,-90 32,-109 21,-14 24,-13 48,10 l 26,25 3795,1 c 2087,0 3811,3 3831,6 54,7 119,-33 147,-90 28,-58 27,-71 -3,-63 -14,3 -36,2 -50,-4 -16,-6 -1397,-11 -3748,-15 -2048,-3 -3766,-5 -3818,-6 -132,0 -164,4 -184,24 -16,15 -20,16 -47,1 -23,-11 -29,-20 -23,-32 4,-9 8,-32 8,-51 1,-31 -5,-39 -42,-58 -2,-1 1,-11 8,-22 l 11,-21 3942,0 3943,0 28,29 c 31,33 46,83 53,181 7,108 -36,198 -102,211 -11,2 -1780,2 -3932,-1 z"
       id="path3918"
       inkscape:connector-curvature="0" />
    <path
       d="m 765,1895 c -22,-8 -52,-15 -67,-15 -15,0 -33,-6 -40,-13 -7,-7 -22,-18 -33,-25 -18,-10 -16,-11 15,-12 72,-1 261,47 268,68 5,17 -92,15 -143,-3 z"
       id="path3920"
       inkscape:connector-curvature="0" />
    <path
       d="m 440,1810 c 0,-5 9,-10 19,-10 11,0 23,5 26,10 4,6 -5,10 -19,10 -14,0 -26,-4 -26,-10 z"
       id="path3922"
       inkscape:connector-curvature="0" />
    <path
       d="m 155,1753 c -35,-7 -75,-25 -75,-35 0,-12 14,-16 85,-27 33,-5 96,-17 140,-26 44,-9 100,-18 125,-19 45,-3 100,-15 194,-42 26,-8 58,-14 70,-14 11,0 43,-7 70,-15 43,-13 156,-21 156,-11 0,20 -25,66 -36,66 -8,0 -19,9 -26,20 -10,15 -24,20 -59,20 -32,0 -63,9 -104,31 -73,39 -108,40 -136,6 -28,-36 -49,-35 -49,2 0,17 -4,32 -9,35 -10,7 -316,14 -346,9 z"
       id="path3924"
       inkscape:connector-curvature="0" />
    <path
       d="m 8095,1373 c -765,-19 -858,-24 -904,-44 -25,-11 -54,-29 -65,-40 -21,-24 -86,-118 -86,-127 0,-3 -14,-35 -32,-71 -30,-60 -33,-75 -34,-169 -1,-56 3,-139 8,-185 4,-45 11,-109 14,-142 24,-288 27,-302 86,-367 18,-20 56,-48 83,-63 l 50,-27 185,6 c 102,3 268,8 370,11 102,3 239,7 305,10 66,3 197,7 290,10 94,3 182,8 197,11 105,21 231,132 293,257 34,69 39,87 43,175 4,94 -9,241 -44,485 -19,134 -43,180 -121,233 l -55,39 -247,0 c -135,0 -286,-1 -336,-2 z m 289,-88 c 110,-3 204,-9 210,-14 6,-4 23,-11 37,-14 14,-4 38,-18 53,-32 15,-14 30,-25 34,-25 13,0 42,-61 42,-88 0,-15 5,-43 11,-62 9,-32 13,-55 23,-130 1,-14 6,-38 9,-55 3,-16 9,-74 12,-128 3,-53 8,-103 11,-111 3,-8 -2,-28 -10,-45 -9,-16 -16,-42 -16,-56 0,-14 -6,-28 -14,-31 -8,-3 -16,-14 -19,-25 -9,-32 -119,-73 -141,-52 -7,8 -178,5 -212,-3 -15,-4 -23,0 -27,15 -4,18 -8,19 -35,9 -24,-9 -29,-15 -20,-25 16,-20 1,-28 -25,-15 -12,7 -84,14 -160,17 -109,3 -149,1 -185,-11 -37,-13 -53,-14 -84,-4 -22,6 -48,8 -58,5 -11,-3 -29,-1 -40,5 -17,9 -26,8 -45,-4 -18,-12 -30,-13 -50,-6 -18,7 -40,6 -68,-1 -53,-14 -307,-15 -316,-2 -3,6 -21,18 -38,27 -71,36 -89,104 -96,367 -1,42 -7,82 -13,90 -6,8 -12,40 -12,72 -1,48 1,58 13,53 23,-8 18,10 -11,41 -21,23 -24,33 -19,63 8,44 33,85 79,129 42,41 22,39 525,46 205,2 376,7 379,10 3,2 21,3 41,0 20,-2 126,-7 235,-10 z M 7101,955 c 20,-306 37,-458 57,-513 9,-27 31,-56 58,-79 l 43,-35 352,1 c 194,1 355,4 359,6 8,5 393,17 595,19 108,1 130,-1 133,-14 1,-9 -12,-24 -30,-35 -28,-17 -55,-20 -178,-22 -80,-2 -291,-8 -470,-14 -562,-19 -767,-20 -781,-3 -6,8 -17,14 -25,14 -12,0 -60,42 -96,86 -25,29 -37,93 -54,294 -32,384 -32,404 9,398 21,-3 22,-10 28,-103 z"
       id="path3926"
       inkscape:connector-curvature="0" />
    <path
       d="m 8050,1201 c 0,-6 5,-13 10,-16 6,-3 7,-18 4,-32 -7,-24 -5,-25 22,-18 41,11 314,15 314,5 0,-5 -10,-10 -22,-12 -12,-2 -23,-8 -25,-15 -6,-17 76,-21 110,-5 33,15 43,11 52,-25 3,-15 11,-31 17,-34 16,-10 38,1 38,17 0,24 18,15 40,-21 12,-19 25,-35 29,-35 4,0 13,-11 19,-24 9,-20 8,-25 -9,-29 -25,-7 -24,-24 1,-31 11,-3 29,-9 40,-12 15,-4 20,-1 20,13 0,26 -28,133 -42,163 -15,31 -58,69 -78,70 -9,0 -20,4 -26,10 -11,11 -113,20 -284,25 -69,2 -149,7 -177,10 -31,3 -53,1 -53,-4 z"
       id="path3928"
       inkscape:connector-curvature="0" />
    <path
       d="m 8000,1190 c 0,-13 11,-13 30,0 12,8 11,10 -7,10 -13,0 -23,-4 -23,-10 z"
       id="path3930"
       inkscape:connector-curvature="0" />
    <path
       d="m 7877,1183 c -12,-11 -8,-23 8,-23 8,0 15,7 15,15 0,16 -12,20 -23,8 z"
       id="path3932"
       inkscape:connector-curvature="0" />
    <path
       d="m 8160,1090 c 0,-5 10,-10 23,-10 18,0 19,2 7,10 -19,13 -30,13 -30,0 z"
       id="path3934"
       inkscape:connector-curvature="0" />
    <path
       d="m 7240,1025 c 0,-17 2,-18 24,-9 18,7 12,24 -10,24 -8,0 -14,-7 -14,-15 z"
       id="path3936"
       inkscape:connector-curvature="0" />
    <path
       d="m 7340,936 c 0,-9 7,-16 16,-16 9,0 14,5 12,12 -6,18 -28,21 -28,4 z"
       id="path3938"
       inkscape:connector-curvature="0" />
    <path
       d="m 7892,714 c 1,-9 9,-19 16,-22 9,-3 13,2 10,14 -1,9 -9,19 -16,22 -9,3 -13,-2 -10,-14 z"
       id="path3940"
       inkscape:connector-curvature="0" />
    <path
       d="m 7811,561 c -17,-11 -5,-51 15,-51 8,0 17,7 21,16 8,21 -18,46 -36,35 z"
       id="path3942"
       inkscape:connector-curvature="0" />
    <path
       d="m 7967,524 c -8,-8 1,-24 14,-24 5,0 9,7 9,15 0,15 -12,20 -23,9 z"
       id="path3944"
       inkscape:connector-curvature="0" />
    <path
       d="m 8410,495 c 0,-8 9,-15 20,-15 11,0 20,7 20,15 0,8 -9,15 -20,15 -11,0 -20,-7 -20,-15 z"
       id="path3946"
       inkscape:connector-curvature="0" />
    <path
       d="m 6980,151 c 0,-15 49,-65 56,-58 4,3 -4,19 -17,36 -24,30 -39,39 -39,22 z"
       id="path3948"
       inkscape:connector-curvature="0" />
  </g>
</svg>
