<?xml version="1.0" encoding="UTF-8" standalone="no"?>
<svg
   xmlns:dc="http://purl.org/dc/elements/1.1/"
   xmlns:cc="http://creativecommons.org/ns#"
   xmlns:rdf="http://www.w3.org/1999/02/22-rdf-syntax-ns#"
   xmlns:svg="http://www.w3.org/2000/svg"
   xmlns="http://www.w3.org/2000/svg"
   xmlns:sodipodi="http://sodipodi.sourceforge.net/DTD/sodipodi-0.dtd"
   xmlns:inkscape="http://www.inkscape.org/namespaces/inkscape"
   width="500.23502"
   height="199.88274"
   viewBox="0 0 400.18801 159.90619"
   version="1.1"
   id="svg3954"
   inkscape:version="0.48.4 r9939"
   sodipodi:docname="b0fd4980ac8e0c091d7be6000515ead6d808da33.svg">
  <metadata
     id="metadata4023">
    <rdf:RDF>
      <cc:Work
         rdf:about="">
        <dc:format>image/svg+xml</dc:format>
        <dc:type
           rdf:resource="http://purl.org/dc/dcmitype/StillImage" />
      </cc:Work>
    </rdf:RDF>
  </metadata>
  <defs
     id="defs4021" />
  <sodipodi:namedview
     pagecolor="#ffffff"
     bordercolor="#666666"
     borderopacity="1"
     objecttolerance="10"
     gridtolerance="10"
     guidetolerance="10"
     inkscape:pageopacity="0"
     inkscape:pageshadow="2"
     inkscape:window-width="1600"
     inkscape:window-height="824"
     id="namedview4019"
     showgrid="false"
     fit-margin-top="0"
     fit-margin-left="0"
     fit-margin-right="0"
     fit-margin-bottom="0"
     inkscape:zoom="0.7728"
     inkscape:cx="309.02832"
     inkscape:cy="124.72168"
     inkscape:window-x="0"
     inkscape:window-y="24"
     inkscape:window-maximized="1"
     inkscape:current-layer="svg3954" />
  <g
     id="surface1"
     transform="matrix(0.81044508,0,0,0.81044508,-2.2508848,-2.8128187)">
    <path
       style="fill:#000000;fill-opacity:1;fill-rule:nonzero;stroke:none"
       d="m 3.777344,3.949219 c -0.945313,0.5 -1,5.785156 -1,97.773441 0,77.08593 0.167968,97.38671 0.722656,98.10937 0.609375,0.94531 14.832031,0.94531 246.5,0.94531 135.16797,0 246,-0.22265 246.22266,-0.44531 0.22265,-0.22266 0.38671,-44.60547 0.33203,-98.60937 L 496.39062,3.613281 250.55469,3.503906 C 84.277344,3.394531 4.390625,3.558594 3.777344,3.949219 z m 490.113276,98.386721 0,96.21484 -243.66796,0 C 116.16797,198.60547 6.445312,198.49609 6.332031,198.38672 5.832031,197.88281 6.109375,6.453125 6.609375,6.171875 6.890625,6.007812 116.66797,5.894531 250.5,5.949219 l 243.39062,0.167969 z m 0,0"
       id="path3957"
       inkscape:connector-curvature="0" />
    <path
       style="fill:#000000;fill-opacity:1;fill-rule:nonzero;stroke:none"
       d="m 335.55469,21.746094 c -0.38672,0.722656 -0.77735,3.726562 -0.83203,6.785156 -0.11329,4.726562 -0.27735,5.617188 -1.16797,6.117188 -0.60938,0.390624 -5.88672,0.558593 -13.94532,0.5 -11.33203,-0.05469 -13.05468,0.05859 -13.83203,0.890624 -0.77734,0.777344 -2.22265,0.890626 -10.16797,0.777344 -8.83203,-0.164062 -11.16406,0.167969 -10.38671,1.449219 0.44531,0.777344 17.77734,0.777344 20.72265,0 1.16406,-0.28125 8.10938,-0.558594 15.44531,-0.613281 l 13.33204,-0.05469 0,4.617188 0.0547,4.613281 -2.05468,1.726563 c -3.72266,3.222656 -5.16797,4.335937 -7.89063,6.117187 -2.16406,1.390625 -2.60937,1.945313 -2.5,3.113281 0.16797,1.445313 0.16797,1.445313 5.55859,1.445313 3.27735,0 5.60938,0.222656 6,0.613281 0.66407,0.667969 0.88672,20.910156 0.21875,21.96875 -0.33203,0.613281 -3.4414,0.167969 -4.38671,-0.667969 -0.33204,-0.222656 -3.89063,-0.613281 -7.83204,-0.832031 -5.5,-0.28125 -7.39062,-0.222656 -7.72265,0.277344 -0.72266,1.222656 0.72265,1.945312 4.05469,2.113281 1.72265,0.05469 4.44531,0.277344 5.94531,0.445313 1.55469,0.164062 4.4414,0.445312 6.55469,0.609374 l 3.72265,0.335938 0,2.613281 c 0,3.949219 -0.39062,4.28125 -4.27734,3.449219 -1.77737,-0.44531 -5.66799,-0.835936 -8.66799,-1.003904 -5.77734,-0.277344 -7.05469,0.113281 -7.05469,2.113281 0,1.003906 0.66406,1.058594 12.44531,1.058594 6.88672,0 12.60938,-0.167969 12.71875,-0.445313 0.5,-0.835937 -0.71875,-2.890625 -1.77734,-2.890625 -0.83203,0 -1.10937,-0.558593 -1.38672,-2.949219 -0.39062,-3.058593 0,-5.0625 0.83203,-4.503906 0.27735,0.164063 0.5,1.390625 0.5,2.78125 0,2.667969 0.22266,2.890625 1.72266,1.554688 1.39062,-1.222656 3.55469,-0.109375 2.72266,1.445312 -1.11329,2.117188 1.44531,5.5625 4.16796,5.5625 0.60938,0 1.71875,-0.386718 2.38672,-0.890625 1.11328,-0.777343 1.61328,-0.777343 5.27735,0.05859 5.33593,1.167969 16.77734,1 16.77734,-0.277344 0,-0.667969 -1.22266,-0.835937 -7.05469,-1.003906 -6.44531,-0.109375 -7.22265,-0.277344 -8.38672,-1.390625 -1.61328,-1.5 -1.28125,-3.835938 0.94141,-6.785156 2,-2.613282 3.5,-2.613282 3.22266,0 -0.10938,1.058594 -0.55469,2.226562 -1,2.558594 -0.44532,0.335937 -0.77735,0.945312 -0.77735,1.335937 0,0.390625 -0.38672,0.832031 -0.83203,1.054687 -0.44531,0.167969 -0.83594,0.558594 -0.83594,0.890626 0,0.722656 1.5,0.722656 1.78125,-0.05469 0.33204,-1.058594 4.55469,-1.222656 6.44141,-0.277344 1.27734,0.667969 3.61328,0.945313 8.27734,1.113282 6.39063,0.164062 6.5586,0.164062 6.72266,1.445312 0.11328,0.722656 0.55859,1.667969 1,2.058594 0.44531,0.441406 0.77734,1.167968 0.77734,1.554687 0,0.890625 3.28125,1.949219 5.89063,1.949219 0.94531,0 2.39062,-0.503906 3.16797,-1.113281 0.77734,-0.613281 1.88672,-1.113281 2.5,-1.113281 1.10937,0 2.88672,-1.613282 2.88672,-2.667969 0,-0.390625 -0.5,-0.667969 -1.10938,-0.667969 -0.66797,0 -1.11328,-0.390625 -1.11328,-1.003906 0,-1.332032 1.33594,-5.003906 2.11328,-5.78125 0.38672,-0.390625 0.66406,-1.113282 0.66406,-1.667969 0,-0.558594 0.39063,-1.003906 0.83594,-1.003906 1.22266,0 1.16406,6.507812 -0.11328,7.898437 C 396,90.042969 396,90.15625 397,90.988281 c 0.72266,0.613281 0.83203,0.945313 0.39062,1.113281 -0.39062,0.167969 -0.72265,0.722657 -0.72265,1.167969 0,0.445313 0.33203,0.722657 0.72265,0.554688 1.33204,-0.5 21.83204,0.667969 24.55469,1.445312 1.77735,0.503907 4.77735,0.667969 8.5,0.558594 3.10938,-0.113281 5.66406,-0.05469 5.66406,0.167969 0,0.222656 -0.38671,0.832031 -0.88671,1.390625 -0.77735,0.886719 -0.77735,1.054687 0.55468,1.890625 1.61328,1.054686 5.27735,0.722656 5.39063,-0.445313 0.16406,-1.390625 -0.16797,-2.335937 -0.94531,-2.78125 -1.22266,-0.722656 -0.94532,-2.058593 0.5,-2.058593 0.66796,0 1.55468,-0.222657 1.94531,-0.5 0.60937,-0.390626 0.55469,-0.554688 -0.16797,-0.835938 -0.5,-0.164062 -1.39063,-0.332031 -2,-0.332031 -1.72266,0 -1.22266,-1.28125 1.44531,-3.894531 2.05469,-2 2.5,-2.835938 2.5,-4.449219 0,-1.835938 -0.77734,-3.890625 -1.27734,-3.335938 -0.16797,0.167969 -0.77735,1.390625 -1.5,2.726563 -1.5586,3.167968 -2.39063,2.390625 -1.89063,-1.890625 0.33203,-2.839844 0.5,-3.117188 1.11328,-2.226563 0.44141,0.554688 0.94141,0.835938 1.16407,0.613282 0.22265,-0.222657 0.5,-3.449219 0.55468,-7.230469 0.22266,-6.675781 0.16797,-6.898438 -1,-7.175781 -1.88671,-0.5 -2.16406,-0.05469 -2.16406,3.835937 0,2.839844 -0.33594,4.171875 -1.5,6.398437 C 437,77.417969 436.60937,78.640625 437,78.863281 c 0.66797,0.5 0.66797,5.675781 0,6.785157 -0.33203,0.445312 -0.55469,1.449218 -0.55469,2.226562 -0.0547,2.167969 -2.22265,1.945312 -2.44531,-0.277344 -0.10938,-0.945312 -0.44531,-1.949218 -0.72266,-2.28125 -0.27734,-0.335937 -0.22265,-0.835937 0.16797,-1.222656 0.33203,-0.335938 0.38672,-1.003906 0.16406,-1.613281 C 433.33203,81.921875 433.22266,70.96875 433.27734,58.121094 433.44531,35.816406 433.5,34.703125 434.5,33.925781 c 0.89062,-0.722656 2.16797,-0.777343 7.89062,-0.390625 3.71875,0.28125 10.38672,0.28125 14.83204,0.113282 4.44531,-0.222657 10.38671,-0.445313 13.27734,-0.554688 5.22266,-0.167969 6.55469,-0.667969 6,-2.113281 -0.27734,-0.667969 -3.27734,-0.78125 -20.5,-0.558594 -11.10938,0.167969 -20.39063,0.5 -20.66797,0.777344 -1.44141,1.335937 -2,0.445312 -2,-3.335938 0,-3.226562 -0.16406,-3.949219 -0.94141,-4.171875 -0.55859,-0.164062 -7.72265,-0.277344 -15.94531,-0.277344 -10.94531,0.05469 -15.05469,-0.109374 -15.33594,-0.609374 -0.27734,-0.503907 -5.9414,-0.667969 -21.71875,-0.78125 -11.72265,-0.05469 -21.66796,-0.277344 -22.05859,-0.5 -0.38672,-0.277344 -5.27734,-0.613282 -10.88672,-0.777344 L 336.22266,20.410156 z M 370,24.082031 c 13.77734,0.109375 25.33203,0.554688 32.5,1.167969 7.05469,0.613281 13.39062,0.835938 17.39062,0.667969 3.44141,-0.222657 7.27735,-0.167969 8.44141,0 l 2.22266,0.390625 0,11.011718 c 0,8.507813 -0.16407,11.066407 -0.66407,11.066407 -0.39062,0 -3.61328,-0.277344 -7.11328,-0.554688 -3.5,-0.28125 -17.72265,-0.667969 -31.55468,-0.78125 -13.83204,-0.164062 -25.39063,-0.445312 -25.66797,-0.609375 -0.44532,-0.28125 -12.94532,-0.78125 -24.44532,-1.058594 l -3.05468,-0.05469 -0.16407,-9.734375 c -0.0586,-5.339844 0,-10.34375 0.16407,-11.011719 0.33593,-1.335937 0.44531,-1.335937 5.44531,-1.054687 2.83203,0.164062 14.72266,0.386718 26.5,0.554687 z m -22.77734,24.304688 c 0.77734,0.277343 12.38671,0.667969 25.83203,0.835937 32.72265,0.5 55.39062,1.445313 55.72265,2.335938 0.11328,0.386718 -0.16797,0.722656 -0.66797,0.722656 -0.5,0 -1.88671,0.664062 -3.05468,1.5 -1.16407,0.890625 -2.72266,1.945312 -3.38672,2.390625 -0.66797,0.445313 -2,1.503906 -3,2.335937 -1.61328,1.445313 -2.0586,1.558594 -7,1.558594 -2.94531,0 -5.5586,-0.222656 -5.83594,-0.5 C 405.5,59.230469 397.77734,58.84375 388.60937,58.675781 379.44531,58.507812 368.83203,58.230469 365,58.0625 c -3.83203,-0.109375 -13.66797,-0.332031 -21.94531,-0.5 -8.22266,-0.167969 -15.33203,-0.386719 -15.72266,-0.554688 -0.66406,-0.277343 8.83594,-8.734374 10.39063,-9.234374 1.10937,-0.386719 7.94531,0.05859 9.5,0.613281 z m 83.55468,24.636719 0.0547,20.414062 -3.60937,0 c -2.05469,0 -3.94532,-0.28125 -4.33204,-0.667969 -0.33593,-0.335937 -2.5,-0.667969 -4.83593,-0.722656 -2.27735,-0.05859 -4.33203,-0.277344 -4.5,-0.445313 -0.77735,-0.78125 -1.16407,-4.503906 -0.66407,-6.339843 0.27735,-1.058594 0.44141,-6.5625 0.33204,-12.179688 l -0.16797,-10.234375 2.05468,0 c 1.11329,0 2.39063,-0.335937 2.78125,-0.722656 0.38672,-0.335938 1.71875,-1.335938 2.94141,-2.113281 2.16797,-1.390625 6.22266,-4.785157 8,-6.730469 0.5,-0.5 1.11328,-0.835938 1.39063,-0.777344 0.33203,0.05469 0.55468,8.230469 0.55468,20.519532 z M 357.94531,60.457031 c 0.33203,0.222657 7.66406,0.5 16.22266,0.609375 8.60937,0.113282 15.77734,0.390625 16.10937,0.722656 0.27735,0.277344 4.05469,0.5 8.39063,0.5 4.33203,0 8.22265,0.113282 8.66406,0.28125 0.55859,0.222657 0.72266,2.613282 0.61328,11.566407 -0.16797,11.511719 0,13.738281 0.94531,13.738281 0.33204,0 0.55469,-2.113281 0.55469,-5.007812 0,-2.777344 0.22266,-5.003907 0.5,-5.003907 0.5,0 1.22266,9.957031 0.77735,11.570313 -0.22266,1 -0.77735,1.054687 -5.61329,1 l -5.38671,-0.05469 -0.16797,-5.839844 c -0.16407,-6.84375 0.0547,-8.121093 1.55468,-8.621093 1.5586,-0.5 1.39063,-1.835938 -0.27734,-2.28125 -0.77734,-0.167969 -1.38672,-0.777344 -1.38672,-1.28125 0,-0.5 -0.44531,-1.445313 -1,-2.113281 -0.77734,-1 -1.72265,-1.277344 -5.66797,-1.609376 l -4.72265,-0.335937 -2.33203,2.503906 c -1.27735,1.390625 -2.83204,2.667969 -3.44532,2.890625 -1.05468,0.335938 -1.16797,0.78125 -1.16797,5.5625 0,6.117188 0.22266,6.953125 1.78125,6.507813 0.71875,-0.167969 1.33204,0.05469 1.66407,0.667969 0.33593,0.609374 1.27734,0.886718 3.22265,0.886718 2.89063,0 3.39063,0.445313 1.89063,1.726563 -0.5,0.390625 -1.11328,1.335937 -1.39063,2.058593 -0.72265,1.890626 -2.60937,1.390626 -4.66797,-1.335937 -1.27734,-1.722656 -2.05468,-2.226563 -3.33203,-2.28125 -4.77734,-0.05469 -14.22265,-0.945313 -14.5,-1.390625 -0.16797,-0.222656 -1.10937,-0.445312 -2.05468,-0.445312 -2.55469,0 -3,-0.5 -3.22266,-3.335938 -0.16797,-3.226562 0.5,-5.003906 3.27734,-8.0625 0.33203,-0.390625 0.66797,-1.003906 0.66797,-1.335938 0,-1 -3.05469,-0.722656 -4.11328,0.332032 -1.33203,1.445312 -3.10937,3.617187 -4.05469,5.007812 -1.27734,1.890625 -1.83203,1.054688 -1.83203,-2.671875 0,-3.058593 0.16406,-3.503906 1.77735,-5.003906 2.10937,-1.890625 2.66796,-2.003906 3.05468,-0.5 0.5,1.835937 1.55469,0.945313 1.72266,-1.390625 0.22266,-2.503906 -0.83203,-3.617188 -3.33203,-3.617188 -1.33594,0 -1.5586,0.222657 -1.5586,1.558594 0,2.335938 -2.10937,4.058594 -5.16406,4.171875 -5.27734,0.222657 -4,-2.058593 2.83203,-5.117187 1.55469,-0.667969 0.89063,-1.445313 -1.33203,-1.613282 -2.22265,-0.167968 -2.5,0 -6.05469,3.558594 l -3.72265,3.726563 0.16406,5.617187 c 0.11328,3.117188 0,5.953125 -0.22266,6.285156 -0.71875,1.167969 -2.38671,0.835938 -3,-0.554687 -0.55468,-1.222656 -0.5,-21.636719 0.0586,-22.527344 0.33203,-0.554687 17.38672,-0.277343 18.27734,0.28125 z m 37.27735,10.675781 c 0.60937,1.003907 -2.33204,3.394532 -4.22266,3.394532 -1.39063,0 -1.60938,0.164062 -1.10938,0.667968 1.33204,1.332032 0.66407,1.890626 -2.33593,2 -1.66407,0.05469 -3.33203,0.167969 -3.72266,0.222657 -0.44141,0.113281 -0.77734,-0.222657 -0.77734,-0.667969 0,-0.554688 0.72265,-0.890625 2.22265,-1 2.77735,-0.222656 3.55469,-0.945312 1.94532,-1.78125 L 386,73.304688 387.27734,71.96875 c 1.05469,-1.113281 1.77735,-1.335938 4.44532,-1.335938 1.77734,0 3.33203,0.222657 3.5,0.5 z m -43.5,1.222657 c 0.60937,0.28125 0.94531,0.726562 0.83203,1.003906 -0.38672,0.554687 -8.10938,0.722656 -8.10938,0.164063 0,-1.667969 4.88672,-2.445313 7.27735,-1.167969 z m 46.05468,2.671875 c 0,1 -0.66797,2.222656 -2,3.613281 l -2,2.058594 -1.27734,-1.277344 -1.33203,-1.28125 1.22265,-0.277344 c 0.71875,-0.222656 1.38672,-0.945312 1.66407,-2.003906 0.44531,-1.554687 2.33593,-3.058594 3.33593,-2.613281 0.21875,0.167968 0.38672,0.945312 0.38672,1.78125 z m -45.94531,1.945312 c 0.22266,0.335938 0.33594,1.390625 0.27734,2.335938 -0.0547,1.003906 0.22266,2.171875 0.61329,2.671875 0.60937,0.722656 0.5,1.167969 -0.55469,2.667969 -2.44531,3.558593 -3.61328,4.449218 -5.61328,4.226562 -1.77735,-0.167969 -1.83203,-0.222656 -2.16407,-3.226562 -0.16796,-1.667969 -0.11328,-3.503907 0.16407,-4.058594 0.5,-0.945313 0.61328,-0.945313 1.5,-0.167969 1.05468,0.945313 4.22265,1.222656 4.77734,0.335937 0.16797,-0.277343 -0.66406,-0.78125 -1.88672,-1.113281 -2.61328,-0.667969 -3.05469,-1.222656 -2.61328,-3.058593 0.5,-1.890626 4.33594,-2.335938 5.5,-0.613282 z m 38.61328,3.449219 C 392,81.480469 392,82.480469 390.33203,84.203125 c -0.83203,0.945313 -1.88672,1.445313 -3,1.445313 -2.05469,0 -2.88672,-1.222657 -2.88672,-4.113282 0,-2.003906 0,-2.003906 2.38672,-2.003906 1.27734,0 2.94531,0.390625 3.61328,0.890625 z m 44.16406,10.84375 c 0.33594,1.28125 1.5,0.945313 1.5,-0.386719 0,-1.167968 1.33594,-0.667968 1.5586,0.554688 0.33203,1.503906 -0.94531,2.558594 -3,2.558594 -2.22266,0 -2.61328,-0.554688 -1.89063,-2.445313 0.66797,-1.726563 1.44532,-1.835937 1.83203,-0.28125 z m 0,0"
       id="path3959"
       inkscape:connector-curvature="0" />
    <path
       style="fill:#000000;fill-opacity:1;fill-rule:nonzero;stroke:none"
       d="m 358,26.363281 c -0.16797,0.386719 -0.22266,2.222657 -0.10938,4.003907 0.16407,2.835937 0.33204,3.28125 1.27735,3.28125 0.66406,0 1.16406,-0.5 1.38672,-1.390626 0.22265,-1.058593 0.77734,-1.445312 2.16797,-1.667968 2.16796,-0.335938 3,-1.835938 2.10937,-3.78125 -0.5,-1.058594 -1,-1.226563 -3.55469,-1.226563 -2,0 -3.05468,0.222657 -3.27734,0.78125 z m 4.77734,1.722657 c 0,0.890624 -1.94531,1.167968 -2.44531,0.335937 -0.44141,-0.667969 0.22266,-1.167969 1.44531,-1.167969 0.55469,0 1,0.386719 1,0.832032 z m 0,0"
       id="path3961"
       inkscape:connector-curvature="0" />
    <path
       style="fill:#000000;fill-opacity:1;fill-rule:nonzero;stroke:none"
       d="m 368.94531,27.03125 c -0.66797,0.832031 -1.16797,2.113281 -1.16797,2.890625 0,1.667969 2.61328,5.671875 3.66797,5.671875 1.22266,0 4.66406,-3.949219 4.66406,-5.394531 0,-0.667969 -0.16406,-1.277344 -0.38671,-1.277344 -0.27735,0 -0.89063,-0.78125 -1.39063,-1.667969 -1.27734,-2.226562 -3.77734,-2.28125 -5.38672,-0.222656 z m 4.94531,3.503906 c 0,0.5 -0.5,1.222656 -1.16796,1.609375 -2.27735,1.449219 -3.72266,-1.722656 -1.77735,-3.945312 0.94531,-1.003907 1,-1.003907 1.94531,0.164062 0.55469,0.667969 1,1.667969 1,2.171875 z m 0,0"
       id="path3963"
       inkscape:connector-curvature="0" />
    <path
       style="fill:#000000;fill-opacity:1;fill-rule:nonzero;stroke:none"
       d="m 378.44531,26.472656 c -1.83594,1.28125 -1.61328,3.503906 0.44531,4.285156 1.60938,0.609376 2.71875,2.335938 1.94141,3.058594 -0.16406,0.164063 -0.83203,0.05469 -1.38672,-0.335937 -1.5,-0.945313 -2.27734,-0.832031 -1.83594,0.222656 0.22266,0.558594 -0.33203,1.390625 -1.4414,2.335937 -1.5,1.28125 -1.77735,1.890626 -1.83594,4.117188 0,2.058594 0.27734,2.945312 1.27734,4.058594 1.5,1.558594 3.16797,1.835937 3.61329,0.554687 0.22265,-0.441406 0.66796,-0.832031 1.10937,-0.832031 0.44531,0 0.83594,-0.445312 0.89063,-1 0.27734,-3.394531 0.10937,-4.953125 -0.5,-5.730469 -0.66797,-0.777343 -0.55469,-1.113281 0.94531,-2.335937 2.16406,-1.835938 2.10937,-3.113282 -0.27735,-5.003906 -1.11328,-0.890626 -1.78125,-1.835938 -1.61328,-2.171876 0.27735,-0.386718 0.61328,-0.277343 1.05469,0.28125 0.77734,1.054688 2.5,1.277344 2.5,0.332032 0,-0.722656 -2.22266,-2.667969 -3.05469,-2.726563 -0.33203,0 -1.16797,0.390625 -1.83203,0.890625 z M 379.22266,37.875 c 0.55468,0.890625 0.38671,3.894531 -0.22266,4.503906 -1.05469,1.058594 -2.33203,-0.222656 -2.33203,-2.277344 0,-1.167968 0.16406,-2.28125 0.38672,-2.449218 0.55468,-0.613282 1.72265,-0.445313 2.16797,0.222656 z m 0,0"
       id="path3965"
       inkscape:connector-curvature="0" />
    <path
       style="fill:#000000;fill-opacity:1;fill-rule:nonzero;stroke:none"
       d="m 386.66797,27.476562 c 0,0.777344 0.27734,1.554688 0.55469,1.722657 0.33203,0.167969 0.55468,1.722656 0.55468,3.390625 0,2.894531 0.11328,3.058594 1.27735,2.894531 1.11328,-0.167969 1.22265,-0.445313 1.16797,-3.058594 -0.0547,-2.449219 0.10937,-2.949219 1,-3.28125 0.72265,-0.222656 1,-0.722656 0.88671,-1.503906 C 391.94531,26.585938 391.5,26.417969 389.33203,26.25 c -2.5,-0.164062 -2.66406,-0.109375 -2.66406,1.226562 z m 0,0"
       id="path3967"
       inkscape:connector-curvature="0" />
    <path
       style="fill:#000000;fill-opacity:1;fill-rule:nonzero;stroke:none"
       d="m 394.66797,28.644531 c -1.0586,1.609375 -0.61328,6.839844 0.66406,7.339844 0.5,0.167969 0.61328,0.777344 0.39063,1.890625 -0.16797,0.835938 -0.11329,2.949219 0.10937,4.671875 0.66797,5.507813 2.5,3.058594 2.5,-3.449219 0,-1.777344 0.33594,-2.667968 1.61328,-3.890625 3.10938,-3.171875 1.60938,-7.953125 -2.55469,-7.953125 -1.33593,0 -2.05859,0.386719 -2.72265,1.390625 z m 3.9414,1.167969 c 0.5,0.5 0.83594,1.554688 0.72266,2.390625 -0.10937,1.109375 -0.44141,1.445313 -1.55469,1.445313 -1.5,0 -2,-1.113282 -1.44531,-3.394532 0.39063,-1.554687 1,-1.667968 2.27734,-0.441406 z m 0,0"
       id="path3969"
       inkscape:connector-curvature="0" />
    <path
       style="fill:#000000;fill-opacity:1;fill-rule:nonzero;stroke:none"
       d="m 345.22266,36.152344 c -1.66797,2.5 -1.55469,4.78125 0.33203,6.671875 2.11328,2.113281 5.22265,0.945312 5.66797,-2.167969 0.22265,-1.722656 -1.33204,-2.78125 -2.55469,-1.722656 -0.83594,0.664062 -0.83594,0.777344 0,1.722656 1.10937,1.277344 0.72265,1.835938 -0.83594,1.335938 -1.22266,-0.390626 -2.05469,-2.503907 -1.5,-3.894532 0.16797,-0.554687 1.05859,-0.835937 2.5,-0.835937 2.72266,0 3.22266,-0.664063 1.61328,-2.167969 -1.89062,-1.835938 -3.55469,-1.5 -5.22265,1.058594 z m 0,0"
       id="path3971"
       inkscape:connector-curvature="0" />
    <path
       style="fill:#000000;fill-opacity:1;fill-rule:nonzero;stroke:none"
       d="m 355.60937,37.039062 c -0.66406,1.058594 -1.16406,2.226563 -1.16406,2.503907 0,0.335937 -0.39062,1.28125 -0.83594,2.167969 -0.9414,1.78125 -0.60937,2.003906 1.61329,1.113281 1.05468,-0.386719 1.83203,-0.277344 3.05468,0.445312 2.33203,1.335938 3.33203,0.335938 2.05469,-2.167969 -0.5,-1 -0.88672,-2.503906 -0.88672,-3.335937 0,-1.003906 -0.39062,-1.78125 -1.05469,-2.171875 -1.5,-0.777344 -1.5,-0.777344 -2.78125,1.445312 z m 1.66797,2.617188 c -0.0547,0.664062 -0.83203,0.5 -1.05468,-0.222656 -0.16797,-0.335938 0.0547,-0.558594 0.44531,-0.445313 0.33203,0.164063 0.60937,0.445313 0.60937,0.667969 z m 0,0"
       id="path3973"
       inkscape:connector-curvature="0" />
    <path
       style="fill:#000000;fill-opacity:1;fill-rule:nonzero;stroke:none"
       d="m 365.5,35.429688 c -2.27734,0.554687 -1.27734,4.890624 1.16797,5.28125 1.60937,0.222656 1.16406,1.28125 -0.5586,1.28125 -1.60937,0.05469 -2.21875,1.777343 -0.88671,2.277343 1.66796,0.667969 4.83203,-0.332031 5.27734,-1.613281 0.60937,-1.667969 -0.77734,-3.722656 -2.5,-3.722656 -0.83203,0 -1.33203,-0.335938 -1.33203,-0.890625 0,-0.5 0.4414,-0.78125 1,-0.722657 1.72265,0.164063 2.33203,-0.05859 2.33203,-0.835937 0,-1.113281 -2.33203,-1.667969 -4.5,-1.054687 z m 0,0"
       id="path3975"
       inkscape:connector-curvature="0" />
    <path
       style="fill:#000000;fill-opacity:1;fill-rule:nonzero;stroke:none"
       d="m 403.89062,37.820312 c -0.33593,0.609376 -0.55859,2.445313 -0.44531,4.058594 0.10938,2.167969 0.38672,2.949219 1.10938,3.058594 0.66797,0.113281 1.05468,-0.277344 1.33593,-1.222656 0.44141,-1.890625 1.77735,-1.835938 2,0.05469 0.10938,1.222657 0.44141,1.558594 1.55469,1.558594 1.33203,0 1.38672,-0.167969 1.55469,-4.058594 0.10937,-3.285156 0,-4.007812 -0.72266,-4.007812 -0.5,0 -0.83203,0.503906 -0.83203,1.335937 0,1.722656 -0.55469,3.113282 -1.16797,3.113282 -0.27734,0 -0.5,-0.386719 -0.5,-0.832032 0,-1.445312 -1.60937,-4.171875 -2.5,-4.171875 -0.44531,0 -1.05468,0.5 -1.38672,1.113281 z m 0,0"
       id="path3977"
       inkscape:connector-curvature="0" />
    <path
       style="fill:#000000;fill-opacity:1;fill-rule:nonzero;stroke:none"
       d="m 417.10937,37.929688 c -0.9414,1.503906 -2.38671,6.453124 -2,6.898437 0.16797,0.109375 1,0 1.83594,-0.335937 1.22266,-0.445313 1.83203,-0.386719 2.88672,0.335937 2.11328,1.332031 2.55859,0.332031 1.61328,-3.394531 -1.27734,-4.78125 -2.72265,-6.003906 -4.33594,-3.503906 z m 2.0586,3.78125 c -0.27735,0.445312 -0.61328,0.445312 -0.94531,0.113281 -0.33204,-0.335938 -0.39063,-0.890625 -0.16797,-1.222657 0.27734,-0.445312 0.61328,-0.445312 0.94531,-0.113281 0.33203,0.335938 0.39062,0.890625 0.16797,1.222657 z m 0,0"
       id="path3979"
       inkscape:connector-curvature="0" />
    <path
       style="fill:#000000;fill-opacity:1;fill-rule:nonzero;stroke:none"
       d="m 384.77734,38.152344 c -0.72265,1.835937 -0.33203,5.617187 0.66797,6.507812 0.83203,0.722656 2.88672,1.167969 5,1 1.44531,-0.109375 0.38672,-2 -1.27734,-2.277344 -1.5,-0.28125 -1.66797,-0.503906 -1.5,-2.058593 0.27734,-3.058594 -2,-5.5625 -2.89063,-3.171875 z m 0,0"
       id="path3981"
       inkscape:connector-curvature="0" />
    <path
       style="fill:#000000;fill-opacity:1;fill-rule:nonzero;stroke:none"
       d="m 303.77734,40.320312 c -0.10937,0.167969 -5.38672,0.28125 -11.72265,0.335938 -6.33203,0 -11.60938,0.277344 -11.77735,0.554688 -0.16797,0.277343 -0.0547,1.003906 0.27735,1.667968 0.55468,0.945313 1,1.058594 2.66797,0.78125 4.5,-0.722656 7.5,-0.945312 17.27734,-1.003906 8.10937,-0.109375 10.27734,-0.277344 10.5,-0.886719 0.10937,-0.390625 -0.10938,-0.945312 -0.5,-1.226562 -0.83203,-0.5 -6.22266,-0.664063 -6.72266,-0.222657 z m 0,0"
       id="path3983"
       inkscape:connector-curvature="0" />
    <path
       style="fill:#000000;fill-opacity:1;fill-rule:nonzero;stroke:none"
       d="m 480,57.117188 c -2.55469,0.113281 -4.94531,0.445312 -5.33203,0.78125 -0.39063,0.277343 -4.11328,0.609374 -8.27735,0.722656 -7,0.109375 -7.72265,0.222656 -8.61328,1.277344 -0.77734,1 -0.88672,2.78125 -0.88672,14.851562 l 0.0547,13.679688 -1.5,0.613281 c -0.89062,0.332031 -1.55469,0.832031 -1.55469,1.113281 0,0.277344 -0.5,0.5 -1.05859,0.5 -0.94141,0 -1.05469,-0.390625 -0.94141,-2.894531 0.10938,-1.613281 -0.0586,-3.558594 -0.28125,-4.335938 -0.27734,-0.78125 -0.60937,-2.835937 -0.77734,-4.5625 -0.27734,-2.558593 -0.55469,-3.222656 -1.5,-3.558593 -1.60937,-0.5 -2.22266,0.722656 -1.88672,3.949218 0.16406,1.890625 -0.0547,3.171875 -0.55469,3.894532 -0.44531,0.554687 -0.78125,1.554687 -0.78125,2.222656 0,0.667968 -0.27734,1.445312 -0.66406,1.835937 C 445,87.652344 445,88.042969 445.5,88.652344 c 1.10937,1.335937 -0.22266,6.007812 -2,7.175781 -1.10938,0.722656 -0.83203,2.058594 0.5,2.558594 1.66797,0.609375 3.05469,0.167969 4.05469,-1.222657 0.44531,-0.667968 0.83593,-0.945312 0.83593,-0.667968 0,0.667968 3.10938,2.5 3.55469,2.113281 0.16406,-0.167969 -0.11328,-0.613281 -0.61328,-1.003906 -1.05469,-0.777344 -0.5,-2.054688 0.83594,-1.832031 1.33203,0.222656 4.77734,-2.449219 3.88672,-3.003907 -1.10938,-0.667969 -2.10938,-0.5 -2.10938,0.386719 0,0.613281 -0.61328,0.835938 -2.05469,0.835938 -2.89062,0 -4.05859,-0.777344 -2.5,-1.613282 0.60938,-0.332031 1.77735,-0.609375 2.55469,-0.609375 0.77735,0 1.44531,-0.28125 1.44531,-0.558593 0,-0.332032 1,-0.554688 2.21875,-0.554688 3,0 9.72266,-1.003906 12.78125,-1.949219 1.38672,-0.386719 3.55469,-0.886719 4.83204,-1.109375 1.33203,-0.222656 2.5,-0.558594 2.66796,-0.835937 0.16407,-0.277344 2,-0.667969 4.05469,-0.832031 2.05469,-0.222657 4,-0.613282 4.27735,-0.835938 0.33203,-0.222656 1.38671,-0.613281 2.38671,-0.835938 1.72266,-0.332031 2.39063,-1.5 1.22266,-2.222656 C 488,81.8125 487.89062,81.144531 488.10937,80.476562 488.55469,79.03125 488.77734,58.5625 488.33203,57.839844 487.89062,57.0625 485.44531,56.894531 480,57.117188 z m -0.39063,3.339843 c 0.72266,0.441407 0.39063,2.390625 -0.38671,2.390625 -1.05469,0 -3.11329,2.613282 -3.11329,3.949219 0,0.667969 -0.27734,0.890625 -0.83203,0.722656 -0.88672,-0.335937 -1.16797,-4.285156 -0.5,-6.785156 0.33203,-1.113281 0.61328,-1.222656 2.39063,-0.890625 1.10937,0.222656 2.16406,0.5 2.4414,0.613281 z m 6.33594,-0.05859 c 0.16406,0.445312 0,1.449218 -0.39062,2.113281 -0.44532,0.890625 -0.5,1.671875 -0.10938,2.335937 0.27735,0.613282 0.55469,4.617188 0.60938,8.957032 l 0.11328,7.953124 -1.83594,0.722657 c -2.88672,1.222656 -2.77734,1.5 -1.83203,-6.730469 0.22266,-1.890625 0.60937,-3.449219 0.89062,-3.449219 1,0 1.10938,-2.335937 0.16407,-3.058593 -0.88672,-0.609376 -0.88672,-0.945313 -0.33203,-2.167969 0.55468,-1.222657 0.5,-1.722657 -0.16797,-2.78125 -1.27735,-1.890625 -0.55469,-4.78125 1.22265,-4.78125 0.72266,0 1.44532,0.386719 1.66797,0.886719 z m -21.83594,0.558593 c 1.44532,0.554688 1.11329,6.339844 -0.38671,6.339844 -0.33204,0 -1.05469,0.390625 -1.61329,0.945313 -1.21875,1.113281 -1.5,7.675781 -0.27734,7.230468 0.33594,-0.113281 0.66797,-1.222656 0.72266,-2.449218 0.0547,-2.613282 0.5,-3.503907 1.72265,-3.503907 0.72266,0 0.77735,1.058594 0.44532,8.457031 -0.22266,5.503907 -0.61329,8.617188 -1,8.898438 -0.39063,0.222656 -1.5,0.441406 -2.5,0.441406 l -1.83204,0 L 459.5,76.027344 c 0.0547,-6.171875 0.22266,-12.179688 0.33203,-13.347656 0.27734,-1.835938 0.5,-2.058594 1.83594,-2.058594 0.88672,0 1.9414,0.167968 2.4414,0.335937 z m 8.5,10.789063 c 0.16797,11.066406 0.28125,12.234375 1.28125,12.234375 0.33204,0 0.55469,-1.890625 0.55469,-4.949219 0,-6.675781 0.38672,-8.507812 1.72266,-8.121094 1.27734,0.445313 2,-1.054687 1.10937,-2.167968 -0.44531,-0.554688 -0.5,-0.890626 -0.0547,-1.167969 0.27734,-0.167969 0.55468,-0.890625 0.55468,-1.613281 0,-0.777344 0.5,-1.5 1.27735,-1.835938 l 1.27734,-0.609375 -0.16406,7.617187 c -0.11328,4.171876 -0.39063,8.675782 -0.61328,10.066407 -0.38672,2.449219 -0.44532,2.503906 -2.60938,2.671875 -1.22265,0.109375 -2.44531,0.386718 -2.77734,0.667968 -0.27735,0.222657 -1.44531,0.609376 -2.5,0.832032 -1.0586,0.222656 -2.33594,0.667968 -2.83594,1 -2.16406,1.335937 -3.88672,-1.832032 -1.88672,-3.503906 0.44531,-0.386719 0.83203,-1.277344 0.83203,-1.945313 0,-0.667969 0.39063,-1.558594 0.83203,-1.945313 0.44532,-0.390624 0.83594,-0.5 0.83594,-0.277343 0,0.222656 0.33203,0.109375 0.77735,-0.28125 1.10937,-0.832031 1.10937,-6.117188 0.0547,-6.117188 -0.5,0 -0.77734,0.722657 -0.72265,2.171875 0,1.222656 -0.16407,2.445313 -0.38672,2.777344 -1,1.671875 -1.39063,-0.722656 -1.39063,-8.339844 l 0,-8.34375 2.39063,0.167969 2.33203,0.164063 z m -23.27734,14.183594 c -0.10937,1.167968 -0.44141,2.222656 -0.77734,2.335937 -0.88672,0.277344 -1.33203,-2.558594 -0.72266,-4.230469 0.77734,-1.945312 1.72266,-0.722656 1.5,1.894532 z m 0,0"
       id="path3985"
       inkscape:connector-curvature="0" />
    <path
       style="fill:#000000;fill-opacity:1;fill-rule:nonzero;stroke:none"
       d="m 476.10937,80.367188 c 0,0.890624 0.33594,1.390624 0.83594,1.390624 0.5,0 0.83203,-0.5 0.83203,-1.390624 0,-0.890626 -0.33203,-1.390626 -0.83203,-1.390626 -0.5,0 -0.83594,0.5 -0.83594,1.390626 z m 0,0"
       id="path3987"
       inkscape:connector-curvature="0" />
    <path
       style="fill:#000000;fill-opacity:1;fill-rule:nonzero;stroke:none"
       d="m 180.39062,79.421875 c -0.5,1.167969 -0.94531,2.558594 -0.94531,3.003906 0,0.5 -0.39062,1.167969 -0.83594,1.554688 -0.4414,0.390625 -0.83203,1 -0.77734,1.335937 0.16797,1.054688 -0.72266,4.226563 -1.22266,4.558594 -0.27734,0.167969 -0.5,0.78125 -0.5,1.390625 0,2.226563 3.11329,0.78125 4.0586,-1.890625 0.60937,-1.722656 3.4414,-1.222656 5.16406,1.003906 1.83594,2.445313 4.72266,2.722656 3.61328,0.332032 -1.66797,-3.449219 -2.27734,-5.0625 -2.61328,-7.007813 -0.22266,-1.222656 -0.66406,-2.613281 -1.05469,-3.058594 -0.38672,-0.445312 -0.83203,-1.335937 -0.94531,-1.945312 -0.10937,-0.722657 -0.66406,-1.167969 -1.55469,-1.28125 -1.16797,-0.109375 -1.60937,0.222656 -2.38672,2.003906 z m 3.77735,5.449219 c 0,0.277344 -0.66797,0.554687 -1.5,0.667968 -1.22266,0.167969 -1.5586,-0.05469 -1.5586,-0.890624 0,-0.554688 0.16797,-1.222657 0.39063,-1.390626 0.44531,-0.445312 2.66797,0.890626 2.66797,1.613282 z m 0,0"
       id="path3989"
       inkscape:connector-curvature="0" />
    <path
       style="fill:#000000;fill-opacity:1;fill-rule:nonzero;stroke:none"
       d="m 299.94531,79.644531 c -0.33594,3.503907 -0.16797,12.011719 0.22266,12.511719 0.33203,0.5 2,0.722656 4.77734,0.722656 3.72266,0 4.38672,-0.164062 5.5,-1.332031 1.38672,-1.503906 1.60938,-3.785156 0.38672,-4.785156 -0.94141,-0.777344 -1.10937,-2.558594 -0.27734,-3.058594 0.83593,-0.554687 0.61328,-2.113281 -0.5,-3.503906 C 309.10937,79.144531 308.5,78.976562 304.5,78.976562 c -3.22266,0 -4.5,0.222657 -4.55469,0.667969 z m 7.55469,3.78125 c 0,1.222657 -0.27734,1.390625 -2.10938,1.554688 -2.16796,0.167969 -3.05859,-0.722657 -2.39062,-2.445313 0.22266,-0.613281 0.94531,-0.777344 2.39062,-0.667968 1.83204,0.167968 2.10938,0.335937 2.10938,1.558593 z m 0.72266,4.558594 c 1.22265,1.226563 0.66796,2.003906 -1.66797,2.226563 -3.10938,0.332031 -3.77735,0.05469 -3.77735,-1.558594 0,-1.222656 0.22266,-1.335938 2.39063,-1.335938 1.33203,0 2.66406,0.28125 3.05469,0.667969 z m 0,0"
       id="path3991"
       inkscape:connector-curvature="0" />
    <path
       style="fill:#000000;fill-opacity:1;fill-rule:nonzero;stroke:none"
       d="m 457.89062,94.9375 c 0.27735,1.390625 1.55469,1.558594 1.55469,0.222656 0,-0.667968 -0.33594,-1.167968 -0.89062,-1.167968 -0.5,0 -0.77735,0.390624 -0.66407,0.945312 z m 0,0"
       id="path3993"
       inkscape:connector-curvature="0" />
    <path
       style="fill:#000000;fill-opacity:1;fill-rule:nonzero;stroke:none"
       d="m 167.94531,96.496094 c -0.66797,0.445312 -1.89062,1.554687 -2.77734,2.445312 l -1.5586,1.558594 -19.4414,-0.22266 C 133.44531,100.16406 123.83203,99.832031 122.77734,99.554688 121.72266,99.277344 109.60938,98.886719 95.832031,98.71875 82.109375,98.554688 65.609375,98.273438 59.167969,98.109375 c -10,-0.28125 -14.667969,-0.335937 -22.890625,-0.28125 -0.886719,0 -6.445313,-0.164063 -12.386719,-0.386719 -5.945313,-0.222656 -11.28125,-0.277344 -11.78125,-0.167968 -0.664063,0.113281 -1,0.722656 -1,1.722656 0,1.058596 0.335937,1.671876 1,1.835936 0.5,0.11328 9.445313,0.27735 19.835937,0.33594 10.386719,0.10937 19.109376,0.38672 19.386719,0.66797 0.722657,0.60937 24.777344,0.60937 28.113281,-0.0586 1.445313,-0.27734 2.777344,-0.27734 3.109376,0.0586 0.335937,0.27734 14.945312,0.66406 32.500002,0.83203 17.55468,0.22266 32.22265,0.55859 32.66797,0.77734 0.44531,0.22266 1.38671,0.16797 2.05468,-0.10937 1.5,-0.66797 6.27735,0.5 6.72266,1.61328 0.16797,0.44531 1.39062,0.72266 3.27734,0.72266 2.94532,0 3,0 3,1.61328 0,0.94531 0.27735,1.83593 0.55469,2 1,0.61328 0.61328,1.39062 -0.72266,1.39062 -0.71875,0 -1.77734,0.39063 -2.38671,0.83594 -0.61329,0.44531 -2.27735,0.83594 -3.89063,0.83594 -2.66406,0 -2.88672,-0.11328 -3.55469,-1.67188 -0.66797,-1.66797 -2.60937,-2.61328 -4.10937,-2.05469 -1.66797,0.66407 -1.5,7.0625 0.22265,7.0625 0.27735,0 1.83204,1.22266 3.44141,2.78125 2.22266,2.11329 3.16797,2.66797 4.05859,2.39063 3.16407,-1.05859 5.83204,0.72266 5.83204,3.89453 0,1 0.27734,2.11328 0.55468,2.39063 0.55469,0.55468 9.94532,0.5 11.55469,-0.0547 C 174.66797,126.97266 175,126.35938 175,125.75 c 0,-1.39062 1.05469,-1.72656 5.10937,-1.72656 3.0586,0 3.61329,0.22265 5.78125,1.94922 2.21875,1.83593 2.66407,2 6.16407,2 3.89062,0.0586 9.83593,-0.44532 11.22265,-0.94532 1.55469,-0.5 -0.16797,-1.05468 -4.27734,-1.33203 -2.66797,-0.16797 -4.27734,-0.55859 -4.44531,-1.0039 -0.16407,-0.5 1.39062,-0.66797 6.44531,-0.66797 6.22266,0 6.72266,-0.0547 7.05469,-1.10938 0.22265,-0.72265 -0.0547,-1.66797 -0.77735,-2.55859 -0.88672,-1.11328 -1.05468,-1.94922 -0.83203,-3.78125 0.38672,-2.55859 0.38672,-2.55859 -3.72265,-5.89844 -4.16797,-3.39062 -6.16797,-5.5039 -5.77735,-6.0625 0.22266,-0.38672 4.05469,-0.4414 11.27735,-0.21875 20,0.66406 40.72265,1.16797 58.44531,1.5 9.60937,0.16797 17.55469,0.27735 17.66406,0.33203 0.0586,0 0.11328,0.33594 0.11328,0.78125 0,1.39063 -3.66797,3.66797 -5.94531,3.66797 -1.16797,0 -2.55469,0.39063 -3.16797,0.83594 -0.55469,0.44531 -1.66406,0.66797 -2.5,0.5 -2.27734,-0.44531 -3.66406,0.94531 -3.66406,3.67187 0,1.94532 0.33203,2.61329 1.83203,3.94922 0.94531,0.88672 1.77734,1.72266 1.77734,1.94532 0,0.16796 0.89063,1.16796 2,2.22656 1.61328,1.5 2.5,1.89062 4.22266,1.89062 2.72266,0 4.33203,0.83203 4.33203,2.22266 0,0.61328 0.55859,1.22265 1.27734,1.44531 0.66797,0.22266 1.5586,0.83594 1.94532,1.39063 0.77734,1.11328 2.61328,1.39062 3.16797,0.5 0.16796,-0.33204 0.88671,-0.55469 1.60937,-0.55469 0.66797,0 1.44531,-0.22266 1.77734,-0.5 0.28125,-0.27735 1.39063,-0.61328 2.44532,-0.72266 2.39062,-0.22265 2.72265,-1.72656 0.44531,-2.0039 -0.94531,-0.10938 -1.55469,-0.5 -1.55469,-1 0,-0.77735 1.05469,-0.83594 7.94531,-0.5 8.77735,0.38672 10.38672,0.94531 8.44141,3.05859 -0.55469,0.61328 -0.88672,1.27734 -0.72266,1.44531 0.22266,0.16797 1.78125,0.66797 3.61329,1.16797 1.77734,0.44531 3.66796,1.22266 4.16796,1.66797 0.88672,0.78125 1.16407,0.72266 3,-0.94531 1.77735,-1.5 2.38672,-1.72266 4.16407,-1.5 1.44531,0.16406 2.33593,0 2.77734,-0.5 0.72266,-0.89063 0.16797,-1.22657 -2.83203,-1.44922 -1.55469,-0.10938 -2,-0.44141 -2.10938,-1.44531 -0.16796,-1.11328 0.0547,-1.22266 2.33204,-1.22266 1.38671,0 3.16796,0.27734 3.94531,0.66797 1.72265,0.77734 2.38672,0.27734 1.16406,-0.94531 -0.5,-0.5 -0.88672,-1.5586 -0.88672,-2.33594 0,-1.89063 -3.27734,-6.67578 -6.61328,-9.67969 -4.22266,-3.78125 -5.44141,-4.78125 -6.38672,-5.11328 -0.55469,-0.22266 -0.72265,-0.72656 -0.5,-1.28125 0.27735,-0.77734 0.88672,-0.83203 4,-0.55469 2,0.16407 23.27735,0.44532 47.27735,0.66797 29.22265,0.16406 44.10937,0.5 45.16796,0.88672 1.10938,0.44531 1.71875,0.44531 2.16407,0 0.39062,-0.38672 0.94531,-0.44531 1.5,-0.10937 1.39062,0.72265 31.05468,0.89062 31.77734,0.16796 0.33594,-0.33593 0.44531,-1.11328 0.22266,-1.78125 -0.33203,-1.11328 -0.72266,-1.16796 -10.44532,-1.27734 -5.55468,0 -12.33203,-0.11328 -15.10937,-0.22266 -2.72266,-0.0586 -11,-0.16796 -18.33203,-0.22265 -7.33594,0 -20.94531,-0.28125 -30.27735,-0.61328 -9.33593,-0.27735 -27.16796,-0.61328 -39.66796,-0.77735 -18.22266,-0.22265 -22.94532,-0.44531 -23.61329,-1.05859 -0.60937,-0.5 -3.21875,-0.89063 -7.9414,-1.16797 -7.5,-0.39062 -9.33594,-0.16797 -9.33594,1.16797 0,0.72266 1.05859,0.83594 6.27734,0.83594 10.22266,-0.11328 9.83594,-0.27735 18.94532,9.28515 1.22265,1.33594 3.33593,3.33985 4.66797,4.39453 2.66796,2.22657 3.10937,4.0625 1,4.0625 -0.77735,0 -2.27735,-0.83593 -3.5,-1.94921 -1.61329,-1.44532 -2.61329,-1.94532 -4.05469,-1.94532 -2.16797,0.0547 -4.83594,2.0586 -5.94531,4.5586 -0.72266,1.61328 -2.44532,2.33593 -4.66797,2.0039 -1.22266,-0.16797 -1.33203,-0.44531 -1.5,-4.33984 l -0.16407,-4.22656 5.33204,0.22265 c 6.38671,0.28125 7.05468,-0.0547 5.27734,-2.89062 -0.66797,-1.11328 -1.44531,-2.00391 -1.72266,-2.00391 -0.27734,0 -0.5,-0.27734 -0.5,-0.55469 0,-0.33203 -0.44531,-1.05859 -0.94531,-1.61328 -0.55469,-0.61328 -1.33203,-1.5 -1.72266,-2 -0.55468,-0.61328 -1.5,-0.83593 -3.33203,-0.72656 l -2.60937,0.16797 0.22265,4.5625 c 0.10938,3.78125 0,4.61328 -0.66796,4.61328 -0.83204,0 -1.5,2.61719 -1.5,6.23047 0,1.83594 -0.16797,2.11328 -1.33204,2.11328 -0.72265,0 -2.05859,0.16797 -2.94531,0.33594 -1.89062,0.38672 -3.5,-0.83594 -3.5,-2.67188 0,-1.61328 -2.22265,-3.78125 -3.94531,-3.78125 -3.05469,0 -3.5,-2.16797 -1.05469,-5.0039 0.88672,-1.0586 1.60938,-2.33594 1.66406,-2.83985 0,-0.5 0.39063,-1.05468 0.83594,-1.27734 0.94531,-0.33594 1.10938,-2.83594 0.27735,-3.39453 -0.27735,-0.16406 -0.55469,-0.94531 -0.55469,-1.72266 0,-1 -0.27735,-1.33594 -1.27735,-1.33594 -0.66796,0 -1.78125,0.39063 -2.44531,0.83594 -0.94531,0.66797 -2.33594,0.77735 -6.39062,0.55469 C 268,102.5 261.72266,102.33594 236.10937,102 221,101.83594 208.39062,101.5 208.05469,101.33203 c -0.27735,-0.22265 -3.72266,-0.27734 -7.55469,-0.16406 l -6.94531,0.16406 -2.22266,-2.277342 -2.16406,-2.335938 -4.72266,0.164062 c -3.94531,0.167969 -4.72265,0.335938 -4.89062,1.113282 -0.16407,0.890625 0.33593,1 4.27734,1 l 4.5,0 4.61328,4.785156 c 10.66406,11.06641 10.94531,11.40234 10.94531,13.29297 0,2.55859 -1.39062,3.61328 -4.33593,3.22656 -1.77735,-0.22265 -2.72266,-0.78125 -3.72266,-2.05859 -3,-3.72656 -3.72266,-4.22656 -6.44141,-4.22656 -2.22265,0 -2.72265,0.22265 -4.11328,1.89062 -0.88672,1.05469 -1.83203,1.83594 -2.05468,1.66797 -0.22266,-0.16797 -0.44532,-3.22656 -0.44532,-6.83984 0,-8.1211 -0.22265,-8.39844 -5.88672,-8.39844 -2.22265,0 -4.16796,0.27734 -4.55859,0.66797 -0.5,0.5 -0.72266,0.38672 -0.94141,-0.44532 C 171.16797,102 170.66797,100.83203 170.22266,100 c -1.27735,-2.335938 -1,-2.78125 1.33203,-2.449219 2.22265,0.390625 3.83593,-0.277343 3.22265,-1.277343 -0.55468,-0.890626 -5.44531,-0.722657 -6.83203,0.222656 z m 0.44531,4.726566 c 1.27735,0.72265 1.38672,2.39062 0.21875,3.33593 -0.4414,0.39063 -0.83203,1.00391 -0.83203,1.39063 0,0.39062 -0.60937,1.11328 -1.33203,1.55859 -1.22265,0.83203 -1.33594,0.77735 -2.44531,-0.72265 l -1.16797,-1.5586 1.77734,-2.28125 c 1.94532,-2.44531 2.16797,-2.55859 3.78125,-1.72265 z m 11.5,3.44922 c 0.88672,1.16796 1.21875,2.89062 0.71875,3.72656 -0.5,0.77734 -6.27734,1.22265 -7.33203,0.55469 -0.88672,-0.5 0,-4.28125 1.11328,-4.5586 1.94141,-0.55859 4.94141,-0.33594 5.5,0.27735 z m 111.10938,2 c 0.10937,0.83593 -0.39063,1.89062 -1.5,3.0039 -0.94531,1 -1.72266,2.00391 -1.72266,2.28125 0,0.22266 -0.66797,0.39063 -1.5,0.27735 -1.22265,-0.10938 -1.60937,-0.5 -1.72265,-1.61329 -0.10938,-1.11328 0.39062,-1.94531 2.11328,-3.5039 2.5,-2.28125 4.05469,-2.44531 4.33203,-0.44531 z m -119.89063,0.0586 c 0,0.55469 -0.38671,1.33203 -0.83203,1.72266 -0.44531,0.39062 -0.83203,1.05468 -0.83203,1.55859 0,0.66406 0.72266,0.77734 4.16406,0.55469 2.94532,-0.22266 4.33594,-0.0547 4.72266,0.39062 0.44531,0.55469 0.16797,0.88672 -1.10937,1.33203 -1.39063,0.44532 -1.72266,0.83594 -1.55469,1.83594 0.10937,1 0.55469,1.33594 2,1.44531 1.66406,0.16797 1.77734,0.0586 1.77734,-1.5 0,-1.16797 0.27735,-1.72265 0.83203,-1.72265 0.66797,0 0.83203,0.88672 0.83203,4.72656 l 0,4.72656 -8.21875,0 0.27735,-2.39062 c 0.22265,-2.00391 0.0547,-2.5586 -1.27735,-4.00391 -1.33593,-1.44922 -1.94531,-1.67187 -4.22265,-1.61328 -2.39063,0 -2.94531,0.27734 -4.94531,2.33594 -2.27735,2.44531 -4.05469,2.94531 -4.61329,1.44531 -0.60937,-1.55859 -0.33203,-3.55859 0.44532,-3.55859 0.39062,0 1.05468,-0.39063 1.44531,-0.78125 0.33203,-0.44532 1.77734,-0.88672 3.22266,-1 2.38671,-0.16797 2.66796,-0.33204 3.72265,-2.39063 1.94531,-3.83984 4.16406,-5.44922 4.16406,-3.11328 z m 139.16797,2.61328 c 1.05469,1.10938 1.94532,2.44531 1.94532,3.05859 0,0.89063 -0.39063,1.05469 -2.72266,1.05469 -2.94531,0 -3.39063,-0.44531 -3.39063,-3.28125 0,-1.44531 0.89063,-2.83594 1.78125,-2.83594 0.27735,0 1.33204,0.89063 2.38672,2.00391 z M 284.5,113.625 c 0.89062,1.16797 0.83203,1.33594 -0.10938,2.50391 -0.83593,1.05468 -1.55859,1.27734 -4.61328,1.33203 -3.5,0.0586 -3.66797,0.11328 -3.66797,1.39062 0,1.16797 -0.21875,1.33594 -1.5,1.16797 -1.21875,-0.10937 -1.55468,-0.44531 -1.55468,-1.55469 0,-1.0039 0.33593,-1.44531 1.27734,-1.55859 1.33594,-0.22266 1.55859,-0.66797 0.66797,-1.55859 -0.33203,-0.33203 -0.27734,-0.94532 0.22266,-1.66797 0.60937,-0.89063 1.5,-1.11328 4.60937,-1.16797 3.33594,-0.10938 3.89063,0 4.66797,1.11328 z m -131.27734,0.5 c 1.05468,1.05859 0.77734,1.55859 -0.72266,1.55859 -1.33203,0 -1.89063,-1 -1,-1.83593 0.5,-0.55469 0.94531,-0.5 1.72266,0.27734 z m 17,2.44922 c 1.22265,1.16797 1.22265,5.94922 0,6.94922 -0.5,0.39062 -1.77735,0.72265 -2.83204,0.72265 -2.33593,0 -4,-1.83203 -4.05859,-4.5039 0,-3.16797 4.72266,-5.39453 6.89063,-3.16797 z m 22.66796,1.10937 c 2.21875,2.0586 1.66407,5.11719 -1.22265,6.6211 -1.94531,1 -4,0.33203 -5.89063,-1.89063 -1.16797,-1.39062 -1.16797,-1.44922 -0.16797,-3.33984 1.78125,-3.39063 4.5,-3.89063 7.28125,-1.39063 z m 90.16407,3.11719 c -0.38672,1.89063 -1.72266,3.39063 -2.77735,3.0586 -0.27734,-0.11329 -0.60937,-1.22266 -0.72265,-2.50391 l -0.16407,-2.33594 2,0 c 2,0 2,0.0547 1.66407,1.78125 z M 291.5,120.24219 c 1.83203,1.66797 1.72266,4.44922 -0.16797,5.95312 -3.22266,2.5586 -6.88672,0.55469 -6.88672,-3.61718 0,-2.72266 0.83203,-3.50391 3.83203,-3.5586 1.22266,0 2.39063,0.44531 3.22266,1.22266 z m 28.22266,0.22265 c 1.16796,0.78125 1.38671,1.33594 1.38671,3.61719 0,2.61328 -0.10937,2.78125 -2,3.66797 -1.88671,0.94531 -2.05468,0.94531 -4,-0.10937 -1.4414,-0.77735 -2.16406,-1.61329 -2.38671,-2.78125 -0.77735,-4.11719 3.38671,-6.73047 7,-4.39454 z m 0,0"
       id="path3995"
       inkscape:connector-curvature="0" />
    <path
       style="fill:#000000;fill-opacity:1;fill-rule:nonzero;stroke:none"
       d="m 185.72266,103.00391 c -1.11329,0.55468 -1.27735,1.05468 -1.27735,4.11328 0,4.28125 0.16406,4.39453 6.83203,4.83984 4.66797,0.27735 4.83203,0.22266 4.83203,-0.94531 0,-0.66797 -0.66406,-1.83594 -1.55468,-2.55859 -0.83203,-0.77735 -1.94532,-2.11329 -2.5,-2.94922 -0.83203,-1.27735 -4.10938,-3.33594 -4.94532,-3.11328 -0.10937,0 -0.71875,0.27734 -1.38671,0.61328 z m 4.44531,2.66797 c 0.83203,0 2.05469,2.55859 2.05469,4.22656 0,1.11328 -0.22266,1.22265 -2.05469,1 -3.22266,-0.44531 -3.39063,-0.55469 -3.77735,-2.5 -0.33593,-1.44922 -0.16796,-1.94922 0.60938,-2.5586 0.55469,-0.39062 1.39062,-0.61328 1.77734,-0.44531 0.44532,0.16797 1.05469,0.27735 1.39063,0.27735 z m 0,0"
       id="path3997"
       inkscape:connector-curvature="0" />
    <path
       style="fill:#000000;fill-opacity:1;fill-rule:nonzero;stroke:none"
       d="m 152.05469,106.0625 c -0.88672,0.88672 -0.22266,1.33203 1.66797,1.16797 2.66796,-0.22266 3.16796,-1.55859 0.60937,-1.55859 -1.05469,0 -2.10937,0.16796 -2.27734,0.39062 z m 0,0"
       id="path3999"
       inkscape:connector-curvature="0" />
    <path
       style="fill:#000000;fill-opacity:1;fill-rule:nonzero;stroke:none"
       d="m 294.27734,107.5625 c -0.83203,1.05859 -1.5,2.33594 -1.5,2.89063 0,0.55859 -0.38672,1.39062 -0.88672,1.94921 -0.78125,0.89063 -0.78125,1 0.33204,1.61329 1.5,0.77734 5.16796,0.22265 4.83203,-0.72266 -0.10938,-0.39063 -0.72266,-0.72656 -1.38672,-0.83594 -1.39063,-0.22265 -1.72266,-2.16797 -0.39063,-2.66797 0.44532,-0.16797 0.94532,-0.83593 1.11328,-1.39062 0.27735,-0.89063 0.77735,-1.0586 2.38672,-0.94531 1.77735,0.16406 2.05469,0.38671 2.39063,2 0.27734,1.44531 0.16406,2.0039 -0.66797,2.5039 -1.27734,0.77735 -1.39063,1.83594 -0.16797,2.28125 2,0.77735 2.33594,0.38672 2.33594,-2.89453 0.0547,-1.72266 0.10937,-3.66797 0.22265,-4.28125 0.16407,-1 -0.16796,-1.11328 -3.5,-1.28125 -3.61328,-0.16406 -3.66796,-0.10937 -5.11328,1.78125 z m 0,0"
       id="path4001"
       inkscape:connector-curvature="0" />
    <path
       style="fill:#000000;fill-opacity:1;fill-rule:nonzero;stroke:none"
       d="m 331.10937,111.78906 c 0,0.27735 0.39063,0.5586 0.83594,0.5586 0.44531,0 0.83203,-0.28125 0.83203,-0.5586 0,-0.33203 -0.38672,-0.55468 -0.83203,-0.55468 -0.44531,0 -0.83594,0.22265 -0.83594,0.55468 z m 0,0"
       id="path4003"
       inkscape:connector-curvature="0" />
    <path
       style="fill:#000000;fill-opacity:1;fill-rule:nonzero;stroke:none"
       d="m 99.054688,112.95703 c -0.332032,0.33594 -2.054688,0.72266 -3.832032,0.89063 -3.277344,0.27734 -6.5,1.61328 -6.5,2.66797 -0.05469,0.61328 0.886719,0.94531 7.222656,2.39453 4.054688,0.88672 4.722658,0.94531 6.054688,0.22265 1.22266,-0.66797 2.94531,-0.72656 7.55469,-0.5039 5.55469,0.28125 6.05469,0.22265 6.61328,-0.77735 0.55469,-1.05468 0.22266,-3.22656 -0.5,-3.33593 -2.33594,-0.39063 -7.55859,-0.27735 -9.5,0.10937 -2.22266,0.5 -2.55859,0.44531 -3.94531,-0.89062 -1.61328,-1.55469 -2.22266,-1.72266 -3.167972,-0.77735 z m 0,0"
       id="path4005"
       inkscape:connector-curvature="0" />
    <path
       style="fill:#000000;fill-opacity:1;fill-rule:nonzero;stroke:none"
       d="m 296.33203,115.96094 c -0.44141,1.11328 0.11328,2.44531 1.16797,2.89062 1.33203,0.50391 3.60937,-0.77734 3.60937,-2 0,-1.66797 -4.21875,-2.44922 -4.77734,-0.89062 z m 0,0"
       id="path4007"
       inkscape:connector-curvature="0" />
    <path
       style="fill:#000000;fill-opacity:1;fill-rule:nonzero;stroke:none"
       d="m 92.777344,134.59375 c -1.109375,0.94531 -2.109375,1.33203 -3.332032,1.22266 -0.167968,0 -12.554687,-0.22266 -27.5,-0.44532 -15,-0.16797 -32.335937,-0.61328 -38.554687,-0.83593 -8,-0.38672 -11.558594,-0.33204 -11.945313,0.11328 -0.777343,0.77734 1.164063,2.28125 2.445313,1.89062 0.554687,-0.16797 1.554687,0 2.277344,0.39063 1.054687,0.55468 7.222656,0.77734 24.664062,0.88672 12.777344,0.11328 23.667969,0.39062 24.113281,0.61328 0.5,0.22265 5.554688,0.44531 11.332032,0.39062 9.554687,-0.0547 10.390625,0 10.390625,0.89063 0,0.55468 -0.222657,1 -0.5,1 -0.777344,0 -6.222657,3.78125 -8.613281,5.94922 -2.109376,2.0039 -2.109376,2.0039 -1.777344,5.17187 l 0.390625,3.22656 -2,1.16797 c -1.277344,0.72266 -1.945313,1.50391 -1.835938,2.0586 0.222657,1.27734 4.613281,2.5039 7.445313,2.11328 2,-0.27735 2.390625,-0.16797 3.167968,1.11328 1.445313,2.16797 1.164063,2.5039 -2.113281,2.66797 -2.941406,0.16797 -4,0.89062 -2.386719,1.61328 2.554688,1.28125 4,1.55859 8.054688,1.78125 3.332031,0.16406 4.609375,0 4.832031,-0.5 0.167969,-0.39063 0.945313,-0.78125 1.835938,-0.89063 1.386719,-0.16797 1.554687,-0.39062 1.554687,-2.22656 0,-1.10937 0.167969,-2.16797 0.332032,-2.39062 0.222656,-0.16797 2.667968,-0.39063 5.500002,-0.5 3.83594,-0.11329 5.16797,0.0547 5.39062,0.61328 0.16407,0.38672 0.66407,0.72265 1.10938,0.72265 0.5,0 0.72265,0.44532 0.61328,1.22266 -0.11328,1.05469 -0.44531,1.22266 -1.66797,1.11328 -2.05469,-0.22266 -2.05469,1.05469 -0.0547,2.94531 1.60938,1.44532 3.16407,1.78125 3.77735,0.83594 0.16797,-0.33594 1.66797,-0.55859 3.22265,-0.61328 3.88672,0 7.38672,-0.66797 7.16407,-1.33594 -0.0547,-0.33203 -0.88672,-0.83203 -1.77735,-1.10937 l -1.66406,-0.5586 1.72266,-2.11328 c 1.33203,-1.61328 2.05468,-2.05859 3.55468,-2.05859 1.33203,0 2.38672,-0.5 3.72266,-1.72266 1,-0.94531 2.83203,-2.33594 4,-3.11328 3.38672,-2.16797 4.9414,-4.0625 4.10937,-5.0625 -0.88672,-1.05469 -2,-2.94531 -2.44531,-4.17187 -0.16406,-0.5 -0.60937,-0.94532 -1,-0.94532 -0.33203,0 -1.33203,-0.38672 -2.22266,-0.83203 -0.88671,-0.5 -3.10937,-1.0039 -4.9414,-1.22656 -1.94531,-0.21875 -3.94531,-0.83203 -5,-1.5 -1,-0.66797 -2.22266,-1.39063 -2.83594,-1.61328 -0.83203,-0.33203 -0.88672,-0.55469 -0.33203,-1.27735 0.44531,-0.44531 1.10938,-0.66796 1.60938,-0.5 0.5,0.21875 18.66796,0.5 40.33593,0.60938 21.72266,0.16797 41.55469,0.39062 44.16406,0.5 18.0586,1.00391 28.5586,1.22656 53.0586,1.33594 15.27734,0.0547 27.88672,0.27734 28.05469,0.55468 0.16796,0.28125 23.44531,0.66797 52.5,0.89063 28.72265,0.22266 53.38671,0.55859 54.88671,0.83594 1.44532,0.22265 2.78125,0.16406 2.94532,-0.0547 0.39062,-0.72656 6,-0.61328 6.66797,0.0547 0.38671,0.38672 8.94531,0.66797 23.33203,0.89062 12.5,0.10938 23.11328,0.38672 23.55468,0.5 1.22266,0.38672 2.33594,-0.55859 2.11329,-1.72656 -0.16797,-1 -0.94532,-1.05469 -11.83204,-1.27734 -6.44531,-0.11329 -16.89062,-0.39063 -23.33593,-0.66797 -6.38672,-0.27735 -20.77735,-0.61328 -31.94532,-0.72266 -11.16406,-0.16797 -26.16406,-0.39062 -33.33203,-0.61328 -18.27734,-0.44531 -38.27734,-0.5 -38.72265,-0.0547 -0.16407,0.16797 -0.60938,0.0547 -1,-0.22265 -0.38672,-0.33204 -16.27735,-0.66797 -41.16407,-0.89063 -22.28125,-0.22266 -40.78125,-0.55469 -41.05859,-0.83203 -0.33203,-0.22266 -18.10937,-0.61328 -39.44141,-0.83594 -37.83593,-0.33203 -51.66796,-0.55469 -51.66796,-0.77734 0,-0.0547 -4.89063,-0.11328 -10.83203,-0.22266 -8,-0.0547 -11.22266,-0.27734 -12.22266,-0.83594 -0.83594,-0.5 -3.61328,-0.83203 -7.22266,-0.94531 -3.22265,-0.10937 -6.835935,-0.33203 -8.113279,-0.5 -1.777343,-0.22265 -2.5,-0.0547 -3.554687,0.83594 z m 10.777346,1.94531 c 0.61328,0.44531 1.94531,0.83594 2.94531,0.83594 2.27734,0 2.5,1.44531 0.33203,2.27734 -0.88672,0.33594 -1.9414,0.78125 -2.38672,1.00391 -1.05468,0.44531 -13.667966,0.27734 -14.499998,-0.22266 -0.777343,-0.5 0.886719,-2.33593 3.054688,-3.33984 3.167969,-1.44531 9,-1.72266 10.55469,-0.55469 z m 11,5.67188 c 0.22265,0.83593 -0.16406,1.66797 -1.05469,2.5039 -1.27734,1.16797 -1.44531,1.22266 -2.05469,0.33203 -0.39062,-0.55468 -1.39062,-1.22265 -2.16797,-1.5 -0.83203,-0.33203 -1.5,-0.94531 -1.5,-1.44531 0,-0.94531 1.66797,-2.78125 2.83204,-3.17187 1.05859,-0.38672 3.66796,1.78125 3.94531,3.28125 z m -26.777346,0.72265 c 0,0.89063 -0.386719,1.11328 -1.667969,1.11328 -1.109375,0 -1.664063,0.27735 -1.664063,0.83594 0,0.5 0.5,0.83203 1.332032,0.83203 0.722656,0 1.445312,-0.38672 1.667968,-0.83203 0.164063,-0.44531 0.722657,-0.83594 1.164063,-0.83594 0.667969,0 0.835937,0.44532 0.722656,1.50391 -0.164062,1.33203 -0.441406,1.60938 -2.109375,1.72266 -1.332031,0.16797 -2.113281,-0.11328 -2.667968,-0.83594 -0.722657,-0.94531 -0.777344,-0.94531 -1.554688,0.11328 -1.609375,2.16797 -0.832031,2.78125 3.667969,2.72266 l 4.164062,-0.0547 L 91,146.10547 c 0.167969,-3.11328 1.167969,-4.72656 2.390625,-4.00391 0.441406,0.27735 0.5,1.39063 0.277344,3.39063 -0.222657,1.94922 -0.113281,3.05859 0.332031,3.33984 0.332031,0.22266 3.554688,0.5 7.22266,0.66406 l 6.55468,0.22266 0,-1.66797 c 0,-0.94531 -0.33203,-1.77734 -0.83203,-2 -0.44531,-0.16797 -0.83593,-0.66797 -0.83593,-1.11328 0,-0.44531 -0.33204,-0.89063 -0.66407,-1.05859 -1.16797,-0.38672 -0.22265,-0.94532 1.10938,-0.55469 0.66797,0.16797 1.22265,0.66797 1.22265,1.05859 0,0.44141 0.39063,0.94531 0.83204,1.10938 0.44531,0.16797 1.28125,1.16797 1.94531,2.28125 0.83594,1.39062 1.39062,1.83593 2.16797,1.55859 0.55468,-0.16797 1.33203,0.0547 1.72265,0.55469 0.44532,0.5 1.60938,0.83594 3.10938,0.83594 2.55469,0 3.55469,0.94531 3.55469,3.39062 0,0.66797 0.33593,1.50391 0.78125,1.83594 0.55468,0.44531 0.66406,1 0.27734,1.83594 -0.77734,2 -2.5,1.55859 -4.11328,-1 -3,-4.67188 -7.77735,-4.78516 -11,-0.16797 l -1.72266,2.44531 -4.10937,0 c -2.22266,0 -4.500004,-0.22266 -5.054691,-0.55469 -1.113281,-0.55469 -4.058594,-5.78515 -3.613281,-6.28515 0.167968,-0.16797 0.05469,-0.44532 -0.277344,-0.61329 -0.277344,-0.21875 -0.832032,0.16797 -1.167969,0.78125 -0.441406,0.83204 -1.164063,1.11329 -2.777344,1.11329 -1.5,0 -2.5,0.38671 -3.277343,1.16796 -0.832032,0.88672 -1.832032,1.16797 -4.054688,1.27735 l -2.945312,0.0547 L 78.109375,153 c 0.113281,-3.50391 0.78125,-4.94922 3,-6.44922 0.945313,-0.61328 1.667969,-1.44531 1.667969,-1.83594 0,-0.33203 0.277344,-0.66797 0.554687,-0.66797 0.335938,0 1.058594,-0.5 1.667969,-1.11328 0.609375,-0.60937 1.5,-1.10937 1.945312,-1.10937 0.445313,0 0.832032,0.5 0.832032,1.10937 z m 16.832036,2.22657 c 0.55859,0.66796 0.83593,1.39062 0.66796,1.66796 -0.44531,0.72266 -8.999996,0.72266 -9.445309,0 -0.164062,-0.33203 -0.164062,-1.05859 0,-1.66796 0.335938,-0.94532 0.835938,-1.11329 4.058594,-1.11329 3.109375,0 3.941405,0.22266 4.718755,1.11329 z M 122.5,145.55078 c 3.16797,0.33203 3.77734,0.72266 3.27734,2 -0.5,1.33594 -3.94531,2.89063 -4.83203,2.22656 -0.33593,-0.33593 -1.77734,-0.72265 -3.16797,-0.89062 -1.44531,-0.16797 -2.77734,-0.72266 -3.16796,-1.33594 -0.66407,-0.83203 -0.55469,-1.11328 0.5,-2 0.89062,-0.66797 1.78125,-0.89062 2.94531,-0.66797 0.94531,0.22266 2.94531,0.5 4.44531,0.66797 z m 5.72266,4.67188 c 0.94531,1.5 0.38671,3.11328 -1.55469,4.11328 -1.27734,0.66797 -1.66797,0.66797 -2.16797,0.11328 -0.66797,-0.89063 -0.22266,-3.0586 0.94531,-4.44922 1.10938,-1.28125 1.88672,-1.22656 2.77735,0.22266 z m -35.832035,6.5625 c 0.332031,0.33203 0.664063,1.66796 0.664063,2.89062 0,1.72266 -0.332032,2.55859 -1.332032,3.33594 -1.554687,1.28125 -4.113281,1.39062 -5.054687,0.22265 -0.390625,-0.44531 -1.058594,-0.83203 -1.445313,-0.83203 -1.332031,0 -0.945312,-3.89453 0.5,-5.45312 1,-1.10938 1.609375,-1.27735 3.609375,-1.05469 1.335938,0.16797 2.722657,0.55469 3.058594,0.89063 z m 23.664065,0.55468 c 1.39062,1.94532 1.39062,2.16797 0.27734,4.44922 -0.9414,1.89063 -3.05469,3.0586 -4.66406,2.5586 -2.16797,-0.66797 -3.72266,-2.72657 -3.61328,-4.61719 0.11328,-1 0.27734,-1.94531 0.39062,-2 3.38672,-2.61719 5.94532,-2.72656 7.60938,-0.39063 z m 0,0"
       id="path4009"
       inkscape:connector-curvature="0" />
    <path
       style="fill:#000000;fill-opacity:1;fill-rule:nonzero;stroke:none"
       d="m 95.445312,152.22266 c -2.554687,0.66796 0.164063,3.33593 2.722657,2.67187 1,-0.22266 1.277343,-0.61328 1.164062,-1.55859 -0.164062,-1.22266 -1.777343,-1.72657 -3.886719,-1.11328 z m 0,0"
       id="path4011"
       inkscape:connector-curvature="0" />
    <path
       style="fill:#000000;fill-opacity:1;fill-rule:nonzero;stroke:none"
       d="m 177.27734,152.27734 c -1.10937,0.78125 -2.66797,0.94532 -7.77734,0.94532 l -6.44531,0 -0.16407,1.5039 c -0.28125,2.39063 1.5,2.94531 7.5,2.28125 4.44141,-0.5039 5.05469,-0.5039 6.94141,0.55469 1.72266,0.94531 2.33594,1 3.5,0.5 0.77734,-0.39063 2.16797,-0.66797 3.05859,-0.66797 0.88672,0 1.77735,-0.27734 1.94141,-0.55469 0.16797,-0.33593 1.05859,-0.55859 1.89063,-0.55859 1.72265,0 3.33203,-1.38672 2.5,-2.16797 -0.27735,-0.27734 -1.5,-0.60937 -2.72266,-0.83203 -4.72266,-0.66797 -6.39063,-1.05859 -6.72266,-1.50391 -0.44531,-0.77734 -2,-0.55468 -3.5,0.5 z m 0,0"
       id="path4013"
       inkscape:connector-curvature="0" />
    <path
       style="fill:#000000;fill-opacity:1;fill-rule:nonzero;stroke:none"
       d="m 99.667969,165.96094 c -0.335938,0.77734 0.109375,1.55859 2.109371,3.55859 0.5,0.5 1.05469,1.55859 1.27735,2.33594 l 0.33594,1.39062 -5.558599,-0.33203 C 94.722656,172.69141 87.167969,172.46875 81,172.41016 c -6.222656,-0.0547 -24.390625,-0.22266 -40.390625,-0.38672 -30.554687,-0.27735 -30.777344,-0.27735 -29.5,2.05859 0.445313,0.83203 3.113281,0.94531 25.667969,1.05469 13.832031,0.0547 25.667968,0.22265 26.277344,0.39062 0.613281,0.10938 10.5,0.33203 21.945312,0.44532 11.445312,0.10937 21.27734,0.38671 21.83203,0.60937 0.5,0.22266 0.94531,0.78125 0.94531,1.22656 0,0.44141 0.66797,1.89063 1.55469,3.16797 0.83594,1.22266 1.83594,2.94922 2.27735,3.78125 0.44531,0.89063 1,1.5586 1.22265,1.5586 0.27735,0 0.89063,0.77734 1.39063,1.72265 l 0.88672,1.72656 4.44531,-0.22265 c 3.39062,-0.22266 4.5,-0.11328 4.72265,0.5 0.44532,1.11328 4.94532,0.94531 5.39063,-0.16797 0.83203,-2.16797 0.5,-2.33594 -6.44531,-2.72656 C 116.77734,186.76172 115,186.26172 115,184.75781 c 0,-0.44531 -0.94531,-1.72265 -2.89062,-3.94922 -2.44141,-2.78125 -3.21875,-4.16797 -2.5,-4.55859 0.39062,-0.27734 4.72265,-0.22266 9.61328,0.0547 9.77734,0.55468 51.05468,1.5039 90.77734,2.0039 14.22266,0.22266 26.83203,0.44532 28.05469,0.5 1.22265,0.0547 24.83593,0.27735 52.5,0.5 27.66797,0.27735 50.55468,0.66797 50.83593,0.89063 0.33204,0.22265 19.94141,0.60937 43.60938,0.77734 23.66797,0.22266 46.94531,0.61328 51.66797,0.83594 5.22265,0.27734 8.88672,0.22266 9.33203,-0.11328 0.89062,-0.66797 0.89062,-2.5586 0,-2.89063 -0.39063,-0.16797 -9.60938,-0.39062 -20.44531,-0.5 -10.83203,-0.16797 -35.60938,-0.5 -55,-0.78125 -19.38672,-0.33203 -45.44532,-0.72265 -57.94532,-0.88672 -12.4414,-0.16796 -23.21875,-0.44531 -23.88671,-0.61328 -1.11329,-0.27734 -34.27735,-0.66797 -67.5,-0.77734 -7.72266,0 -14.44532,-0.22266 -15,-0.50391 -0.83204,-0.5 -45.33204,-1.10937 -84.27735,-1.27734 -14.39062,-0.0547 -15.05468,-0.11328 -16.22265,-1.22266 -0.72266,-0.61328 -1.27735,-1.61328 -1.27735,-2.17187 0,-0.55469 -0.22265,-1 -0.5,-1 -0.27734,0 -0.66797,-0.44531 -0.89062,-1 -0.16406,-0.5 -0.94531,-1.39063 -1.66406,-1.94531 -1.22266,-0.89063 -1.445318,-0.89063 -1.722661,-0.16797 z m 0,0"
       id="path4015"
       inkscape:connector-curvature="0" />
    <path
       style="fill:#000000;fill-opacity:1;fill-rule:nonzero;stroke:none"
       d="m 136.77734,184.03516 c -2.05468,1.33593 -2.88672,3.05859 -2.88672,6.17578 0,3 0.83204,4.94922 2.44141,5.55859 0.72266,0.28125 1.5,0.78125 1.72266,1.05859 0.89062,1.5 6.39062,0.0547 7.11328,-1.89062 0.83203,-2.11328 -1.5,-3.44922 -2.94531,-1.66797 -1,1.22266 -4.27735,1.05469 -5,-0.22266 -0.94532,-1.78125 -0.66797,-4.73046 0.55468,-6.0625 1.33203,-1.44531 3.66797,-1.16796 4.89063,0.5 0.55469,0.83204 0.9414,0.89063 2.05469,0.39063 1.72265,-0.78125 1.72265,-1.11328 0,-3.00391 -1.89063,-2.0039 -5.44532,-2.39062 -7.94532,-0.83593 z m 0,0"
       id="path4017"
       inkscape:connector-curvature="0" />
  </g>
</svg>
