<?xml version="1.0" encoding="UTF-8"?>
<svg xmlns="http://www.w3.org/2000/svg" xmlns:xlink="http://www.w3.org/1999/xlink" width="500pt" height="202pt" viewBox="0 0 500 202" version="1.1">
<g id="surface1">
<path style=" stroke:none;fill-rule:nonzero;fill:rgb(0%,0%,0%);fill-opacity:1;" d="M 3.777344 3.949219 C 2.832031 4.449219 2.777344 9.734375 2.777344 101.722656 C 2.777344 178.808594 2.945312 199.109375 3.5 199.832031 C 4.109375 200.777344 18.332031 200.777344 250 200.777344 C 385.167969 200.777344 496 200.554688 496.222656 200.332031 C 496.445312 200.109375 496.609375 155.726562 496.554688 101.722656 L 496.390625 3.613281 L 250.554688 3.503906 C 84.277344 3.394531 4.390625 3.558594 3.777344 3.949219 Z M 493.890625 102.335938 L 493.890625 198.550781 L 250.222656 198.550781 C 116.167969 198.605469 6.445312 198.496094 6.332031 198.386719 C 5.832031 197.882812 6.109375 6.453125 6.609375 6.171875 C 6.890625 6.007812 116.667969 5.894531 250.5 5.949219 L 493.890625 6.117188 Z M 493.890625 102.335938 "/>
<path style=" stroke:none;fill-rule:nonzero;fill:rgb(0%,0%,0%);fill-opacity:1;" d="M 335.554688 21.746094 C 335.167969 22.46875 334.777344 25.472656 334.722656 28.53125 C 334.609375 33.257812 334.445312 34.148438 333.554688 34.648438 C 332.945312 35.039062 327.667969 35.207031 319.609375 35.148438 C 308.277344 35.09375 306.554688 35.207031 305.777344 36.039062 C 305 36.816406 303.554688 36.929688 295.609375 36.816406 C 286.777344 36.652344 284.445312 36.984375 285.222656 38.265625 C 285.667969 39.042969 303 39.042969 305.945312 38.265625 C 307.109375 37.984375 314.054688 37.707031 321.390625 37.652344 L 334.722656 37.597656 L 334.722656 42.214844 L 334.777344 46.828125 L 332.722656 48.554688 C 329 51.777344 327.554688 52.890625 324.832031 54.671875 C 322.667969 56.0625 322.222656 56.617188 322.332031 57.785156 C 322.5 59.230469 322.5 59.230469 327.890625 59.230469 C 331.167969 59.230469 333.5 59.453125 333.890625 59.84375 C 334.554688 60.511719 334.777344 80.753906 334.109375 81.8125 C 333.777344 82.425781 330.667969 81.980469 329.722656 81.144531 C 329.390625 80.921875 325.832031 80.53125 321.890625 80.3125 C 316.390625 80.03125 314.5 80.089844 314.167969 80.589844 C 313.445312 81.8125 314.890625 82.535156 318.222656 82.703125 C 319.945312 82.757812 322.667969 82.980469 324.167969 83.148438 C 325.722656 83.3125 328.609375 83.59375 330.722656 83.757812 L 334.445312 84.09375 L 334.445312 86.707031 C 334.445312 90.65625 334.054688 90.988281 330.167969 90.15625 C 328.390625 89.710938 324.5 89.320312 321.5 89.152344 C 315.722656 88.875 314.445312 89.265625 314.445312 91.265625 C 314.445312 92.269531 315.109375 92.324219 326.890625 92.324219 C 333.777344 92.324219 339.5 92.15625 339.609375 91.878906 C 340.109375 91.042969 338.890625 88.988281 337.832031 88.988281 C 337 88.988281 336.722656 88.429688 336.445312 86.039062 C 336.054688 82.980469 336.445312 80.976562 337.277344 81.535156 C 337.554688 81.699219 337.777344 82.925781 337.777344 84.316406 C 337.777344 86.984375 338 87.207031 339.5 85.871094 C 340.890625 84.648438 343.054688 85.761719 342.222656 87.316406 C 341.109375 89.433594 343.667969 92.878906 346.390625 92.878906 C 347 92.878906 348.109375 92.492188 348.777344 91.988281 C 349.890625 91.210938 350.390625 91.210938 354.054688 92.046875 C 359.390625 93.214844 370.832031 93.046875 370.832031 91.769531 C 370.832031 91.101562 369.609375 90.933594 363.777344 90.765625 C 357.332031 90.65625 356.554688 90.488281 355.390625 89.375 C 353.777344 87.875 354.109375 85.539062 356.332031 82.589844 C 358.332031 79.976562 359.832031 79.976562 359.554688 82.589844 C 359.445312 83.648438 359 84.816406 358.554688 85.148438 C 358.109375 85.484375 357.777344 86.09375 357.777344 86.484375 C 357.777344 86.875 357.390625 87.316406 356.945312 87.539062 C 356.5 87.707031 356.109375 88.097656 356.109375 88.429688 C 356.109375 89.152344 357.609375 89.152344 357.890625 88.375 C 358.222656 87.316406 362.445312 87.152344 364.332031 88.097656 C 365.609375 88.765625 367.945312 89.042969 372.609375 89.210938 C 379 89.375 379.167969 89.375 379.332031 90.65625 C 379.445312 91.378906 379.890625 92.324219 380.332031 92.714844 C 380.777344 93.15625 381.109375 93.882812 381.109375 94.269531 C 381.109375 95.160156 384.390625 96.21875 387 96.21875 C 387.945312 96.21875 389.390625 95.714844 390.167969 95.105469 C 390.945312 94.492188 392.054688 93.992188 392.667969 93.992188 C 393.777344 93.992188 395.554688 92.378906 395.554688 91.324219 C 395.554688 90.933594 395.054688 90.65625 394.445312 90.65625 C 393.777344 90.65625 393.332031 90.265625 393.332031 89.652344 C 393.332031 88.320312 394.667969 84.648438 395.445312 83.871094 C 395.832031 83.480469 396.109375 82.757812 396.109375 82.203125 C 396.109375 81.644531 396.5 81.199219 396.945312 81.199219 C 398.167969 81.199219 398.109375 87.707031 396.832031 89.097656 C 396 90.042969 396 90.15625 397 90.988281 C 397.722656 91.601562 397.832031 91.933594 397.390625 92.101562 C 397 92.269531 396.667969 92.824219 396.667969 93.269531 C 396.667969 93.714844 397 93.992188 397.390625 93.824219 C 398.722656 93.324219 419.222656 94.492188 421.945312 95.269531 C 423.722656 95.773438 426.722656 95.9375 430.445312 95.828125 C 433.554688 95.714844 436.109375 95.773438 436.109375 95.996094 C 436.109375 96.21875 435.722656 96.828125 435.222656 97.386719 C 434.445312 98.273438 434.445312 98.441406 435.777344 99.277344 C 437.390625 100.332031 441.054688 100 441.167969 98.832031 C 441.332031 97.441406 441 96.496094 440.222656 96.050781 C 439 95.328125 439.277344 93.992188 440.722656 93.992188 C 441.390625 93.992188 442.277344 93.769531 442.667969 93.492188 C 443.277344 93.101562 443.222656 92.9375 442.5 92.65625 C 442 92.492188 441.109375 92.324219 440.5 92.324219 C 438.777344 92.324219 439.277344 91.042969 441.945312 88.429688 C 444 86.429688 444.445312 85.59375 444.445312 83.980469 C 444.445312 82.144531 443.667969 80.089844 443.167969 80.644531 C 443 80.8125 442.390625 82.035156 441.667969 83.371094 C 440.109375 86.539062 439.277344 85.761719 439.777344 81.480469 C 440.109375 78.640625 440.277344 78.363281 440.890625 79.253906 C 441.332031 79.808594 441.832031 80.089844 442.054688 79.867188 C 442.277344 79.644531 442.554688 76.417969 442.609375 72.636719 C 442.832031 65.960938 442.777344 65.738281 441.609375 65.460938 C 439.722656 64.960938 439.445312 65.40625 439.445312 69.296875 C 439.445312 72.136719 439.109375 73.46875 437.945312 75.695312 C 437 77.417969 436.609375 78.640625 437 78.863281 C 437.667969 79.363281 437.667969 84.539062 437 85.648438 C 436.667969 86.09375 436.445312 87.097656 436.445312 87.875 C 436.390625 90.042969 434.222656 89.820312 434 87.597656 C 433.890625 86.652344 433.554688 85.648438 433.277344 85.316406 C 433 84.980469 433.054688 84.480469 433.445312 84.09375 C 433.777344 83.757812 433.832031 83.089844 433.609375 82.480469 C 433.332031 81.921875 433.222656 70.96875 433.277344 58.121094 C 433.445312 35.816406 433.5 34.703125 434.5 33.925781 C 435.390625 33.203125 436.667969 33.148438 442.390625 33.535156 C 446.109375 33.816406 452.777344 33.816406 457.222656 33.648438 C 461.667969 33.425781 467.609375 33.203125 470.5 33.09375 C 475.722656 32.925781 477.054688 32.425781 476.5 30.980469 C 476.222656 30.3125 473.222656 30.199219 456 30.421875 C 444.890625 30.589844 435.609375 30.921875 435.332031 31.199219 C 433.890625 32.535156 433.332031 31.644531 433.332031 27.863281 C 433.332031 24.636719 433.167969 23.914062 432.390625 23.691406 C 431.832031 23.527344 424.667969 23.414062 416.445312 23.414062 C 405.5 23.46875 401.390625 23.304688 401.109375 22.804688 C 400.832031 22.300781 395.167969 22.136719 379.390625 22.023438 C 367.667969 21.96875 357.722656 21.746094 357.332031 21.523438 C 356.945312 21.246094 352.054688 20.910156 346.445312 20.746094 L 336.222656 20.410156 Z M 370 24.082031 C 383.777344 24.191406 395.332031 24.636719 402.5 25.25 C 409.554688 25.863281 415.890625 26.085938 419.890625 25.917969 C 423.332031 25.695312 427.167969 25.75 428.332031 25.917969 L 430.554688 26.308594 L 430.554688 37.320312 C 430.554688 45.828125 430.390625 48.386719 429.890625 48.386719 C 429.5 48.386719 426.277344 48.109375 422.777344 47.832031 C 419.277344 47.550781 405.054688 47.164062 391.222656 47.050781 C 377.390625 46.886719 365.832031 46.605469 365.554688 46.441406 C 365.109375 46.160156 352.609375 45.660156 341.109375 45.382812 L 338.054688 45.328125 L 337.890625 35.59375 C 337.832031 30.253906 337.890625 25.25 338.054688 24.582031 C 338.390625 23.246094 338.5 23.246094 343.5 23.527344 C 346.332031 23.691406 358.222656 23.914062 370 24.082031 Z M 347.222656 48.386719 C 348 48.664062 359.609375 49.054688 373.054688 49.222656 C 405.777344 49.722656 428.445312 50.667969 428.777344 51.558594 C 428.890625 51.945312 428.609375 52.28125 428.109375 52.28125 C 427.609375 52.28125 426.222656 52.945312 425.054688 53.78125 C 423.890625 54.671875 422.332031 55.726562 421.667969 56.171875 C 421 56.617188 419.667969 57.675781 418.667969 58.507812 C 417.054688 59.953125 416.609375 60.066406 411.667969 60.066406 C 408.722656 60.066406 406.109375 59.84375 405.832031 59.566406 C 405.5 59.230469 397.777344 58.84375 388.609375 58.675781 C 379.445312 58.507812 368.832031 58.230469 365 58.0625 C 361.167969 57.953125 351.332031 57.730469 343.054688 57.5625 C 334.832031 57.394531 327.722656 57.175781 327.332031 57.007812 C 326.667969 56.730469 336.167969 48.273438 337.722656 47.773438 C 338.832031 47.386719 345.667969 47.832031 347.222656 48.386719 Z M 430.777344 73.023438 L 430.832031 93.4375 L 427.222656 93.4375 C 425.167969 93.4375 423.277344 93.15625 422.890625 92.769531 C 422.554688 92.433594 420.390625 92.101562 418.054688 92.046875 C 415.777344 91.988281 413.722656 91.769531 413.554688 91.601562 C 412.777344 90.820312 412.390625 87.097656 412.890625 85.261719 C 413.167969 84.203125 413.332031 78.699219 413.222656 73.082031 L 413.054688 62.847656 L 415.109375 62.847656 C 416.222656 62.847656 417.5 62.511719 417.890625 62.125 C 418.277344 61.789062 419.609375 60.789062 420.832031 60.011719 C 423 58.621094 427.054688 55.226562 428.832031 53.28125 C 429.332031 52.78125 429.945312 52.445312 430.222656 52.503906 C 430.554688 52.558594 430.777344 60.734375 430.777344 73.023438 Z M 357.945312 60.457031 C 358.277344 60.679688 365.609375 60.957031 374.167969 61.066406 C 382.777344 61.179688 389.945312 61.457031 390.277344 61.789062 C 390.554688 62.066406 394.332031 62.289062 398.667969 62.289062 C 403 62.289062 406.890625 62.402344 407.332031 62.570312 C 407.890625 62.792969 408.054688 65.183594 407.945312 74.136719 C 407.777344 85.648438 407.945312 87.875 408.890625 87.875 C 409.222656 87.875 409.445312 85.761719 409.445312 82.867188 C 409.445312 80.089844 409.667969 77.863281 409.945312 77.863281 C 410.445312 77.863281 411.167969 87.820312 410.722656 89.433594 C 410.5 90.433594 409.945312 90.488281 405.109375 90.433594 L 399.722656 90.378906 L 399.554688 84.539062 C 399.390625 77.695312 399.609375 76.417969 401.109375 75.917969 C 402.667969 75.417969 402.5 74.082031 400.832031 73.636719 C 400.054688 73.46875 399.445312 72.859375 399.445312 72.355469 C 399.445312 71.855469 399 70.910156 398.445312 70.242188 C 397.667969 69.242188 396.722656 68.964844 392.777344 68.632812 L 388.054688 68.296875 L 385.722656 70.800781 C 384.445312 72.191406 382.890625 73.46875 382.277344 73.691406 C 381.222656 74.027344 381.109375 74.472656 381.109375 79.253906 C 381.109375 85.371094 381.332031 86.207031 382.890625 85.761719 C 383.609375 85.59375 384.222656 85.816406 384.554688 86.429688 C 384.890625 87.039062 385.832031 87.316406 387.777344 87.316406 C 390.667969 87.316406 391.167969 87.761719 389.667969 89.042969 C 389.167969 89.433594 388.554688 90.378906 388.277344 91.101562 C 387.554688 92.992188 385.667969 92.492188 383.609375 89.765625 C 382.332031 88.042969 381.554688 87.539062 380.277344 87.484375 C 375.5 87.429688 366.054688 86.539062 365.777344 86.09375 C 365.609375 85.871094 364.667969 85.648438 363.722656 85.648438 C 361.167969 85.648438 360.722656 85.148438 360.5 82.3125 C 360.332031 79.085938 361 77.308594 363.777344 74.25 C 364.109375 73.859375 364.445312 73.246094 364.445312 72.914062 C 364.445312 71.914062 361.390625 72.191406 360.332031 73.246094 C 359 74.691406 357.222656 76.863281 356.277344 78.253906 C 355 80.144531 354.445312 79.308594 354.445312 75.582031 C 354.445312 72.523438 354.609375 72.078125 356.222656 70.578125 C 358.332031 68.6875 358.890625 68.574219 359.277344 70.078125 C 359.777344 71.914062 360.832031 71.023438 361 68.6875 C 361.222656 66.183594 360.167969 65.070312 357.667969 65.070312 C 356.332031 65.070312 356.109375 65.292969 356.109375 66.628906 C 356.109375 68.964844 354 70.6875 350.945312 70.800781 C 345.667969 71.023438 346.945312 68.742188 353.777344 65.683594 C 355.332031 65.015625 354.667969 64.238281 352.445312 64.070312 C 350.222656 63.902344 349.945312 64.070312 346.390625 67.628906 L 342.667969 71.355469 L 342.832031 76.972656 C 342.945312 80.089844 342.832031 82.925781 342.609375 83.257812 C 341.890625 84.425781 340.222656 84.09375 339.609375 82.703125 C 339.054688 81.480469 339.109375 61.066406 339.667969 60.175781 C 340 59.621094 357.054688 59.898438 357.945312 60.457031 Z M 395.222656 71.132812 C 395.832031 72.136719 392.890625 74.527344 391 74.527344 C 389.609375 74.527344 389.390625 74.691406 389.890625 75.195312 C 391.222656 76.527344 390.554688 77.085938 387.554688 77.195312 C 385.890625 77.25 384.222656 77.363281 383.832031 77.417969 C 383.390625 77.53125 383.054688 77.195312 383.054688 76.75 C 383.054688 76.195312 383.777344 75.859375 385.277344 75.75 C 388.054688 75.527344 388.832031 74.804688 387.222656 73.96875 L 386 73.304688 L 387.277344 71.96875 C 388.332031 70.855469 389.054688 70.632812 391.722656 70.632812 C 393.5 70.632812 395.054688 70.855469 395.222656 71.132812 Z M 351.722656 72.355469 C 352.332031 72.636719 352.667969 73.082031 352.554688 73.359375 C 352.167969 73.914062 344.445312 74.082031 344.445312 73.523438 C 344.445312 71.855469 349.332031 71.078125 351.722656 72.355469 Z M 397.777344 75.027344 C 397.777344 76.027344 397.109375 77.25 395.777344 78.640625 L 393.777344 80.699219 L 392.5 79.421875 L 391.167969 78.140625 L 392.390625 77.863281 C 393.109375 77.640625 393.777344 76.917969 394.054688 75.859375 C 394.5 74.304688 396.390625 72.800781 397.390625 73.246094 C 397.609375 73.414062 397.777344 74.191406 397.777344 75.027344 Z M 351.832031 76.972656 C 352.054688 77.308594 352.167969 78.363281 352.109375 79.308594 C 352.054688 80.3125 352.332031 81.480469 352.722656 81.980469 C 353.332031 82.703125 353.222656 83.148438 352.167969 84.648438 C 349.722656 88.207031 348.554688 89.097656 346.554688 88.875 C 344.777344 88.707031 344.722656 88.652344 344.390625 85.648438 C 344.222656 83.980469 344.277344 82.144531 344.554688 81.589844 C 345.054688 80.644531 345.167969 80.644531 346.054688 81.421875 C 347.109375 82.367188 350.277344 82.644531 350.832031 81.757812 C 351 81.480469 350.167969 80.976562 348.945312 80.644531 C 346.332031 79.976562 345.890625 79.421875 346.332031 77.585938 C 346.832031 75.695312 350.667969 75.25 351.832031 76.972656 Z M 390.445312 80.421875 C 392 81.480469 392 82.480469 390.332031 84.203125 C 389.5 85.148438 388.445312 85.648438 387.332031 85.648438 C 385.277344 85.648438 384.445312 84.425781 384.445312 81.535156 C 384.445312 79.53125 384.445312 79.53125 386.832031 79.53125 C 388.109375 79.53125 389.777344 79.921875 390.445312 80.421875 Z M 434.609375 91.265625 C 434.945312 92.546875 436.109375 92.210938 436.109375 90.878906 C 436.109375 89.710938 437.445312 90.210938 437.667969 91.433594 C 438 92.9375 436.722656 93.992188 434.667969 93.992188 C 432.445312 93.992188 432.054688 93.4375 432.777344 91.546875 C 433.445312 89.820312 434.222656 89.710938 434.609375 91.265625 Z M 434.609375 91.265625 "/>
<path style=" stroke:none;fill-rule:nonzero;fill:rgb(0%,0%,0%);fill-opacity:1;" d="M 358 26.363281 C 357.832031 26.75 357.777344 28.585938 357.890625 30.367188 C 358.054688 33.203125 358.222656 33.648438 359.167969 33.648438 C 359.832031 33.648438 360.332031 33.148438 360.554688 32.257812 C 360.777344 31.199219 361.332031 30.8125 362.722656 30.589844 C 364.890625 30.253906 365.722656 28.753906 364.832031 26.808594 C 364.332031 25.75 363.832031 25.582031 361.277344 25.582031 C 359.277344 25.582031 358.222656 25.804688 358 26.363281 Z M 362.777344 28.085938 C 362.777344 28.976562 360.832031 29.253906 360.332031 28.421875 C 359.890625 27.753906 360.554688 27.253906 361.777344 27.253906 C 362.332031 27.253906 362.777344 27.640625 362.777344 28.085938 Z M 362.777344 28.085938 "/>
<path style=" stroke:none;fill-rule:nonzero;fill:rgb(0%,0%,0%);fill-opacity:1;" d="M 368.945312 27.03125 C 368.277344 27.863281 367.777344 29.144531 367.777344 29.921875 C 367.777344 31.589844 370.390625 35.59375 371.445312 35.59375 C 372.667969 35.59375 376.109375 31.644531 376.109375 30.199219 C 376.109375 29.53125 375.945312 28.921875 375.722656 28.921875 C 375.445312 28.921875 374.832031 28.140625 374.332031 27.253906 C 373.054688 25.027344 370.554688 24.972656 368.945312 27.03125 Z M 373.890625 30.535156 C 373.890625 31.035156 373.390625 31.757812 372.722656 32.144531 C 370.445312 33.59375 369 30.421875 370.945312 28.199219 C 371.890625 27.195312 371.945312 27.195312 372.890625 28.363281 C 373.445312 29.03125 373.890625 30.03125 373.890625 30.535156 Z M 373.890625 30.535156 "/>
<path style=" stroke:none;fill-rule:nonzero;fill:rgb(0%,0%,0%);fill-opacity:1;" d="M 378.445312 26.472656 C 376.609375 27.753906 376.832031 29.976562 378.890625 30.757812 C 380.5 31.367188 381.609375 33.09375 380.832031 33.816406 C 380.667969 33.980469 380 33.871094 379.445312 33.480469 C 377.945312 32.535156 377.167969 32.648438 377.609375 33.703125 C 377.832031 34.261719 377.277344 35.09375 376.167969 36.039062 C 374.667969 37.320312 374.390625 37.929688 374.332031 40.15625 C 374.332031 42.214844 374.609375 43.101562 375.609375 44.214844 C 377.109375 45.773438 378.777344 46.050781 379.222656 44.769531 C 379.445312 44.328125 379.890625 43.9375 380.332031 43.9375 C 380.777344 43.9375 381.167969 43.492188 381.222656 42.9375 C 381.5 39.542969 381.332031 37.984375 380.722656 37.207031 C 380.054688 36.429688 380.167969 36.09375 381.667969 34.871094 C 383.832031 33.035156 383.777344 31.757812 381.390625 29.867188 C 380.277344 28.976562 379.609375 28.03125 379.777344 27.695312 C 380.054688 27.308594 380.390625 27.417969 380.832031 27.976562 C 381.609375 29.03125 383.332031 29.253906 383.332031 28.308594 C 383.332031 27.585938 381.109375 25.640625 380.277344 25.582031 C 379.945312 25.582031 379.109375 25.972656 378.445312 26.472656 Z M 379.222656 37.875 C 379.777344 38.765625 379.609375 41.769531 379 42.378906 C 377.945312 43.4375 376.667969 42.15625 376.667969 40.101562 C 376.667969 38.933594 376.832031 37.820312 377.054688 37.652344 C 377.609375 37.039062 378.777344 37.207031 379.222656 37.875 Z M 379.222656 37.875 "/>
<path style=" stroke:none;fill-rule:nonzero;fill:rgb(0%,0%,0%);fill-opacity:1;" d="M 386.667969 27.476562 C 386.667969 28.253906 386.945312 29.03125 387.222656 29.199219 C 387.554688 29.367188 387.777344 30.921875 387.777344 32.589844 C 387.777344 35.484375 387.890625 35.648438 389.054688 35.484375 C 390.167969 35.316406 390.277344 35.039062 390.222656 32.425781 C 390.167969 29.976562 390.332031 29.476562 391.222656 29.144531 C 391.945312 28.921875 392.222656 28.421875 392.109375 27.640625 C 391.945312 26.585938 391.5 26.417969 389.332031 26.25 C 386.832031 26.085938 386.667969 26.140625 386.667969 27.476562 Z M 386.667969 27.476562 "/>
<path style=" stroke:none;fill-rule:nonzero;fill:rgb(0%,0%,0%);fill-opacity:1;" d="M 394.667969 28.644531 C 393.609375 30.253906 394.054688 35.484375 395.332031 35.984375 C 395.832031 36.152344 395.945312 36.761719 395.722656 37.875 C 395.554688 38.710938 395.609375 40.824219 395.832031 42.546875 C 396.5 48.054688 398.332031 45.605469 398.332031 39.097656 C 398.332031 37.320312 398.667969 36.429688 399.945312 35.207031 C 403.054688 32.035156 401.554688 27.253906 397.390625 27.253906 C 396.054688 27.253906 395.332031 27.640625 394.667969 28.644531 Z M 398.609375 29.8125 C 399.109375 30.3125 399.445312 31.367188 399.332031 32.203125 C 399.222656 33.3125 398.890625 33.648438 397.777344 33.648438 C 396.277344 33.648438 395.777344 32.535156 396.332031 30.253906 C 396.722656 28.699219 397.332031 28.585938 398.609375 29.8125 Z M 398.609375 29.8125 "/>
<path style=" stroke:none;fill-rule:nonzero;fill:rgb(0%,0%,0%);fill-opacity:1;" d="M 345.222656 36.152344 C 343.554688 38.652344 343.667969 40.933594 345.554688 42.824219 C 347.667969 44.9375 350.777344 43.769531 351.222656 40.65625 C 351.445312 38.933594 349.890625 37.875 348.667969 38.933594 C 347.832031 39.597656 347.832031 39.710938 348.667969 40.65625 C 349.777344 41.933594 349.390625 42.492188 347.832031 41.992188 C 346.609375 41.601562 345.777344 39.488281 346.332031 38.097656 C 346.5 37.542969 347.390625 37.261719 348.832031 37.261719 C 351.554688 37.261719 352.054688 36.597656 350.445312 35.09375 C 348.554688 33.257812 346.890625 33.59375 345.222656 36.152344 Z M 345.222656 36.152344 "/>
<path style=" stroke:none;fill-rule:nonzero;fill:rgb(0%,0%,0%);fill-opacity:1;" d="M 355.609375 37.039062 C 354.945312 38.097656 354.445312 39.265625 354.445312 39.542969 C 354.445312 39.878906 354.054688 40.824219 353.609375 41.710938 C 352.667969 43.492188 353 43.714844 355.222656 42.824219 C 356.277344 42.4375 357.054688 42.546875 358.277344 43.269531 C 360.609375 44.605469 361.609375 43.605469 360.332031 41.101562 C 359.832031 40.101562 359.445312 38.597656 359.445312 37.765625 C 359.445312 36.761719 359.054688 35.984375 358.390625 35.59375 C 356.890625 34.816406 356.890625 34.816406 355.609375 37.039062 Z M 357.277344 39.65625 C 357.222656 40.320312 356.445312 40.15625 356.222656 39.433594 C 356.054688 39.097656 356.277344 38.875 356.667969 38.988281 C 357 39.152344 357.277344 39.433594 357.277344 39.65625 Z M 357.277344 39.65625 "/>
<path style=" stroke:none;fill-rule:nonzero;fill:rgb(0%,0%,0%);fill-opacity:1;" d="M 365.5 35.429688 C 363.222656 35.984375 364.222656 40.320312 366.667969 40.710938 C 368.277344 40.933594 367.832031 41.992188 366.109375 41.992188 C 364.5 42.046875 363.890625 43.769531 365.222656 44.269531 C 366.890625 44.9375 370.054688 43.9375 370.5 42.65625 C 371.109375 40.988281 369.722656 38.933594 368 38.933594 C 367.167969 38.933594 366.667969 38.597656 366.667969 38.042969 C 366.667969 37.542969 367.109375 37.261719 367.667969 37.320312 C 369.390625 37.484375 370 37.261719 370 36.484375 C 370 35.371094 367.667969 34.816406 365.5 35.429688 Z M 365.5 35.429688 "/>
<path style=" stroke:none;fill-rule:nonzero;fill:rgb(0%,0%,0%);fill-opacity:1;" d="M 403.890625 37.820312 C 403.554688 38.429688 403.332031 40.265625 403.445312 41.878906 C 403.554688 44.046875 403.832031 44.828125 404.554688 44.9375 C 405.222656 45.050781 405.609375 44.660156 405.890625 43.714844 C 406.332031 41.824219 407.667969 41.878906 407.890625 43.769531 C 408 44.992188 408.332031 45.328125 409.445312 45.328125 C 410.777344 45.328125 410.832031 45.160156 411 41.269531 C 411.109375 37.984375 411 37.261719 410.277344 37.261719 C 409.777344 37.261719 409.445312 37.765625 409.445312 38.597656 C 409.445312 40.320312 408.890625 41.710938 408.277344 41.710938 C 408 41.710938 407.777344 41.324219 407.777344 40.878906 C 407.777344 39.433594 406.167969 36.707031 405.277344 36.707031 C 404.832031 36.707031 404.222656 37.207031 403.890625 37.820312 Z M 403.890625 37.820312 "/>
<path style=" stroke:none;fill-rule:nonzero;fill:rgb(0%,0%,0%);fill-opacity:1;" d="M 417.109375 37.929688 C 416.167969 39.433594 414.722656 44.382812 415.109375 44.828125 C 415.277344 44.9375 416.109375 44.828125 416.945312 44.492188 C 418.167969 44.046875 418.777344 44.105469 419.832031 44.828125 C 421.945312 46.160156 422.390625 45.160156 421.445312 41.433594 C 420.167969 36.652344 418.722656 35.429688 417.109375 37.929688 Z M 419.167969 41.710938 C 418.890625 42.15625 418.554688 42.15625 418.222656 41.824219 C 417.890625 41.488281 417.832031 40.933594 418.054688 40.601562 C 418.332031 40.15625 418.667969 40.15625 419 40.488281 C 419.332031 40.824219 419.390625 41.378906 419.167969 41.710938 Z M 419.167969 41.710938 "/>
<path style=" stroke:none;fill-rule:nonzero;fill:rgb(0%,0%,0%);fill-opacity:1;" d="M 384.777344 38.152344 C 384.054688 39.988281 384.445312 43.769531 385.445312 44.660156 C 386.277344 45.382812 388.332031 45.828125 390.445312 45.660156 C 391.890625 45.550781 390.832031 43.660156 389.167969 43.382812 C 387.667969 43.101562 387.5 42.878906 387.667969 41.324219 C 387.945312 38.265625 385.667969 35.761719 384.777344 38.152344 Z M 384.777344 38.152344 "/>
<path style=" stroke:none;fill-rule:nonzero;fill:rgb(0%,0%,0%);fill-opacity:1;" d="M 303.777344 40.320312 C 303.667969 40.488281 298.390625 40.601562 292.054688 40.65625 C 285.722656 40.65625 280.445312 40.933594 280.277344 41.210938 C 280.109375 41.488281 280.222656 42.214844 280.554688 42.878906 C 281.109375 43.824219 281.554688 43.9375 283.222656 43.660156 C 287.722656 42.9375 290.722656 42.714844 300.5 42.65625 C 308.609375 42.546875 310.777344 42.378906 311 41.769531 C 311.109375 41.378906 310.890625 40.824219 310.5 40.542969 C 309.667969 40.042969 304.277344 39.878906 303.777344 40.320312 Z M 303.777344 40.320312 "/>
<path style=" stroke:none;fill-rule:nonzero;fill:rgb(0%,0%,0%);fill-opacity:1;" d="M 480 57.117188 C 477.445312 57.230469 475.054688 57.5625 474.667969 57.898438 C 474.277344 58.175781 470.554688 58.507812 466.390625 58.621094 C 459.390625 58.730469 458.667969 58.84375 457.777344 59.898438 C 457 60.898438 456.890625 62.679688 456.890625 74.75 L 456.945312 88.429688 L 455.445312 89.042969 C 454.554688 89.375 453.890625 89.875 453.890625 90.15625 C 453.890625 90.433594 453.390625 90.65625 452.832031 90.65625 C 451.890625 90.65625 451.777344 90.265625 451.890625 87.761719 C 452 86.148438 451.832031 84.203125 451.609375 83.425781 C 451.332031 82.644531 451 80.589844 450.832031 78.863281 C 450.554688 76.304688 450.277344 75.640625 449.332031 75.304688 C 447.722656 74.804688 447.109375 76.027344 447.445312 79.253906 C 447.609375 81.144531 447.390625 82.425781 446.890625 83.148438 C 446.445312 83.703125 446.109375 84.703125 446.109375 85.371094 C 446.109375 86.039062 445.832031 86.816406 445.445312 87.207031 C 445 87.652344 445 88.042969 445.5 88.652344 C 446.609375 89.988281 445.277344 94.660156 443.5 95.828125 C 442.390625 96.550781 442.667969 97.886719 444 98.386719 C 445.667969 98.996094 447.054688 98.554688 448.054688 97.164062 C 448.5 96.496094 448.890625 96.21875 448.890625 96.496094 C 448.890625 97.164062 452 98.996094 452.445312 98.609375 C 452.609375 98.441406 452.332031 97.996094 451.832031 97.605469 C 450.777344 96.828125 451.332031 95.550781 452.667969 95.773438 C 454 95.996094 457.445312 93.324219 456.554688 92.769531 C 455.445312 92.101562 454.445312 92.269531 454.445312 93.15625 C 454.445312 93.769531 453.832031 93.992188 452.390625 93.992188 C 449.5 93.992188 448.332031 93.214844 449.890625 92.378906 C 450.5 92.046875 451.667969 91.769531 452.445312 91.769531 C 453.222656 91.769531 453.890625 91.488281 453.890625 91.210938 C 453.890625 90.878906 454.890625 90.65625 456.109375 90.65625 C 459.109375 90.65625 465.832031 89.652344 468.890625 88.707031 C 470.277344 88.320312 472.445312 87.820312 473.722656 87.597656 C 475.054688 87.375 476.222656 87.039062 476.390625 86.761719 C 476.554688 86.484375 478.390625 86.09375 480.445312 85.929688 C 482.5 85.707031 484.445312 85.316406 484.722656 85.09375 C 485.054688 84.871094 486.109375 84.480469 487.109375 84.257812 C 488.832031 83.925781 489.5 82.757812 488.332031 82.035156 C 488 81.8125 487.890625 81.144531 488.109375 80.476562 C 488.554688 79.03125 488.777344 58.5625 488.332031 57.839844 C 487.890625 57.0625 485.445312 56.894531 480 57.117188 Z M 479.609375 60.457031 C 480.332031 60.898438 480 62.847656 479.222656 62.847656 C 478.167969 62.847656 476.109375 65.460938 476.109375 66.796875 C 476.109375 67.464844 475.832031 67.6875 475.277344 67.519531 C 474.390625 67.183594 474.109375 63.234375 474.777344 60.734375 C 475.109375 59.621094 475.390625 59.511719 477.167969 59.84375 C 478.277344 60.066406 479.332031 60.34375 479.609375 60.457031 Z M 485.945312 60.398438 C 486.109375 60.84375 485.945312 61.847656 485.554688 62.511719 C 485.109375 63.402344 485.054688 64.183594 485.445312 64.847656 C 485.722656 65.460938 486 69.464844 486.054688 73.804688 L 486.167969 81.757812 L 484.332031 82.480469 C 481.445312 83.703125 481.554688 83.980469 482.5 75.75 C 482.722656 73.859375 483.109375 72.300781 483.390625 72.300781 C 484.390625 72.300781 484.5 69.964844 483.554688 69.242188 C 482.667969 68.632812 482.667969 68.296875 483.222656 67.074219 C 483.777344 65.851562 483.722656 65.351562 483.054688 64.292969 C 481.777344 62.402344 482.5 59.511719 484.277344 59.511719 C 485 59.511719 485.722656 59.898438 485.945312 60.398438 Z M 464.109375 60.957031 C 465.554688 61.511719 465.222656 67.296875 463.722656 67.296875 C 463.390625 67.296875 462.667969 67.6875 462.109375 68.242188 C 460.890625 69.355469 460.609375 75.917969 461.832031 75.472656 C 462.167969 75.359375 462.5 74.25 462.554688 73.023438 C 462.609375 70.410156 463.054688 69.519531 464.277344 69.519531 C 465 69.519531 465.054688 70.578125 464.722656 77.976562 C 464.5 83.480469 464.109375 86.59375 463.722656 86.875 C 463.332031 87.097656 462.222656 87.316406 461.222656 87.316406 L 459.390625 87.316406 L 459.5 76.027344 C 459.554688 69.855469 459.722656 63.847656 459.832031 62.679688 C 460.109375 60.84375 460.332031 60.621094 461.667969 60.621094 C 462.554688 60.621094 463.609375 60.789062 464.109375 60.957031 Z M 472.609375 71.746094 C 472.777344 82.8125 472.890625 83.980469 473.890625 83.980469 C 474.222656 83.980469 474.445312 82.089844 474.445312 79.03125 C 474.445312 72.355469 474.832031 70.523438 476.167969 70.910156 C 477.445312 71.355469 478.167969 69.855469 477.277344 68.742188 C 476.832031 68.1875 476.777344 67.851562 477.222656 67.574219 C 477.5 67.40625 477.777344 66.683594 477.777344 65.960938 C 477.777344 65.183594 478.277344 64.460938 479.054688 64.125 L 480.332031 63.515625 L 480.167969 71.132812 C 480.054688 75.304688 479.777344 79.808594 479.554688 81.199219 C 479.167969 83.648438 479.109375 83.703125 476.945312 83.871094 C 475.722656 83.980469 474.5 84.257812 474.167969 84.539062 C 473.890625 84.761719 472.722656 85.148438 471.667969 85.371094 C 470.609375 85.59375 469.332031 86.039062 468.832031 86.371094 C 466.667969 87.707031 464.945312 84.539062 466.945312 82.867188 C 467.390625 82.480469 467.777344 81.589844 467.777344 80.921875 C 467.777344 80.253906 468.167969 79.363281 468.609375 78.976562 C 469.054688 78.585938 469.445312 78.476562 469.445312 78.699219 C 469.445312 78.921875 469.777344 78.808594 470.222656 78.417969 C 471.332031 77.585938 471.332031 72.300781 470.277344 72.300781 C 469.777344 72.300781 469.5 73.023438 469.554688 74.472656 C 469.554688 75.695312 469.390625 76.917969 469.167969 77.25 C 468.167969 78.921875 467.777344 76.527344 467.777344 68.910156 L 467.777344 60.566406 L 470.167969 60.734375 L 472.5 60.898438 Z M 449.332031 85.929688 C 449.222656 87.097656 448.890625 88.152344 448.554688 88.265625 C 447.667969 88.542969 447.222656 85.707031 447.832031 84.035156 C 448.609375 82.089844 449.554688 83.3125 449.332031 85.929688 Z M 449.332031 85.929688 "/>
<path style=" stroke:none;fill-rule:nonzero;fill:rgb(0%,0%,0%);fill-opacity:1;" d="M 476.109375 80.367188 C 476.109375 81.257812 476.445312 81.757812 476.945312 81.757812 C 477.445312 81.757812 477.777344 81.257812 477.777344 80.367188 C 477.777344 79.476562 477.445312 78.976562 476.945312 78.976562 C 476.445312 78.976562 476.109375 79.476562 476.109375 80.367188 Z M 476.109375 80.367188 "/>
<path style=" stroke:none;fill-rule:nonzero;fill:rgb(0%,0%,0%);fill-opacity:1;" d="M 180.390625 79.421875 C 179.890625 80.589844 179.445312 81.980469 179.445312 82.425781 C 179.445312 82.925781 179.054688 83.59375 178.609375 83.980469 C 178.167969 84.371094 177.777344 84.980469 177.832031 85.316406 C 178 86.371094 177.109375 89.542969 176.609375 89.875 C 176.332031 90.042969 176.109375 90.65625 176.109375 91.265625 C 176.109375 93.492188 179.222656 92.046875 180.167969 89.375 C 180.777344 87.652344 183.609375 88.152344 185.332031 90.378906 C 187.167969 92.824219 190.054688 93.101562 188.945312 90.710938 C 187.277344 87.261719 186.667969 85.648438 186.332031 83.703125 C 186.109375 82.480469 185.667969 81.089844 185.277344 80.644531 C 184.890625 80.199219 184.445312 79.308594 184.332031 78.699219 C 184.222656 77.976562 183.667969 77.53125 182.777344 77.417969 C 181.609375 77.308594 181.167969 77.640625 180.390625 79.421875 Z M 184.167969 84.871094 C 184.167969 85.148438 183.5 85.425781 182.667969 85.539062 C 181.445312 85.707031 181.109375 85.484375 181.109375 84.648438 C 181.109375 84.09375 181.277344 83.425781 181.5 83.257812 C 181.945312 82.8125 184.167969 84.148438 184.167969 84.871094 Z M 184.167969 84.871094 "/>
<path style=" stroke:none;fill-rule:nonzero;fill:rgb(0%,0%,0%);fill-opacity:1;" d="M 299.945312 79.644531 C 299.609375 83.148438 299.777344 91.65625 300.167969 92.15625 C 300.5 92.65625 302.167969 92.878906 304.945312 92.878906 C 308.667969 92.878906 309.332031 92.714844 310.445312 91.546875 C 311.832031 90.042969 312.054688 87.761719 310.832031 86.761719 C 309.890625 85.984375 309.722656 84.203125 310.554688 83.703125 C 311.390625 83.148438 311.167969 81.589844 310.054688 80.199219 C 309.109375 79.144531 308.5 78.976562 304.5 78.976562 C 301.277344 78.976562 300 79.199219 299.945312 79.644531 Z M 307.5 83.425781 C 307.5 84.648438 307.222656 84.816406 305.390625 84.980469 C 303.222656 85.148438 302.332031 84.257812 303 82.535156 C 303.222656 81.921875 303.945312 81.757812 305.390625 81.867188 C 307.222656 82.035156 307.5 82.203125 307.5 83.425781 Z M 308.222656 87.984375 C 309.445312 89.210938 308.890625 89.988281 306.554688 90.210938 C 303.445312 90.542969 302.777344 90.265625 302.777344 88.652344 C 302.777344 87.429688 303 87.316406 305.167969 87.316406 C 306.5 87.316406 307.832031 87.597656 308.222656 87.984375 Z M 308.222656 87.984375 "/>
<path style=" stroke:none;fill-rule:nonzero;fill:rgb(0%,0%,0%);fill-opacity:1;" d="M 457.890625 94.9375 C 458.167969 96.328125 459.445312 96.496094 459.445312 95.160156 C 459.445312 94.492188 459.109375 93.992188 458.554688 93.992188 C 458.054688 93.992188 457.777344 94.382812 457.890625 94.9375 Z M 457.890625 94.9375 "/>
<path style=" stroke:none;fill-rule:nonzero;fill:rgb(0%,0%,0%);fill-opacity:1;" d="M 167.945312 96.496094 C 167.277344 96.941406 166.054688 98.050781 165.167969 98.941406 L 163.609375 100.5 L 144.167969 100.277344 C 133.445312 100.164062 123.832031 99.832031 122.777344 99.554688 C 121.722656 99.277344 109.609375 98.886719 95.832031 98.71875 C 82.109375 98.554688 65.609375 98.273438 59.167969 98.109375 C 49.167969 97.828125 44.5 97.773438 36.277344 97.828125 C 35.390625 97.828125 29.832031 97.664062 23.890625 97.441406 C 17.945312 97.21875 12.609375 97.164062 12.109375 97.273438 C 11.445312 97.386719 11.109375 97.996094 11.109375 98.996094 C 11.109375 100.054688 11.445312 100.667969 12.109375 100.832031 C 12.609375 100.945312 21.554688 101.109375 31.945312 101.167969 C 42.332031 101.277344 51.054688 101.554688 51.332031 101.835938 C 52.054688 102.445312 76.109375 102.445312 79.445312 101.777344 C 80.890625 101.5 82.222656 101.5 82.554688 101.835938 C 82.890625 102.113281 97.5 102.5 115.054688 102.667969 C 132.609375 102.890625 147.277344 103.226562 147.722656 103.445312 C 148.167969 103.667969 149.109375 103.613281 149.777344 103.335938 C 151.277344 102.667969 156.054688 103.835938 156.5 104.949219 C 156.667969 105.394531 157.890625 105.671875 159.777344 105.671875 C 162.722656 105.671875 162.777344 105.671875 162.777344 107.285156 C 162.777344 108.230469 163.054688 109.121094 163.332031 109.285156 C 164.332031 109.898438 163.945312 110.675781 162.609375 110.675781 C 161.890625 110.675781 160.832031 111.066406 160.222656 111.511719 C 159.609375 111.957031 157.945312 112.347656 156.332031 112.347656 C 153.667969 112.347656 153.445312 112.234375 152.777344 110.675781 C 152.109375 109.007812 150.167969 108.0625 148.667969 108.621094 C 147 109.285156 147.167969 115.683594 148.890625 115.683594 C 149.167969 115.683594 150.722656 116.90625 152.332031 118.464844 C 154.554688 120.578125 155.5 121.132812 156.390625 120.855469 C 159.554688 119.796875 162.222656 121.578125 162.222656 124.75 C 162.222656 125.75 162.5 126.863281 162.777344 127.140625 C 163.332031 127.695312 172.722656 127.640625 174.332031 127.085938 C 174.667969 126.972656 175 126.359375 175 125.75 C 175 124.359375 176.054688 124.023438 180.109375 124.023438 C 183.167969 124.023438 183.722656 124.246094 185.890625 125.972656 C 188.109375 127.808594 188.554688 127.972656 192.054688 127.972656 C 195.945312 128.03125 201.890625 127.527344 203.277344 127.027344 C 204.832031 126.527344 203.109375 125.972656 199 125.695312 C 196.332031 125.527344 194.722656 125.136719 194.554688 124.691406 C 194.390625 124.191406 195.945312 124.023438 201 124.023438 C 207.222656 124.023438 207.722656 123.96875 208.054688 122.914062 C 208.277344 122.191406 208 121.246094 207.277344 120.355469 C 206.390625 119.242188 206.222656 118.40625 206.445312 116.574219 C 206.832031 114.015625 206.832031 114.015625 202.722656 110.675781 C 198.554688 107.285156 196.554688 105.171875 196.945312 104.613281 C 197.167969 104.226562 201 104.171875 208.222656 104.394531 C 228.222656 105.058594 248.945312 105.5625 266.667969 105.894531 C 276.277344 106.0625 284.222656 106.171875 284.332031 106.226562 C 284.390625 106.226562 284.445312 106.5625 284.445312 107.007812 C 284.445312 108.398438 280.777344 110.675781 278.5 110.675781 C 277.332031 110.675781 275.945312 111.066406 275.332031 111.511719 C 274.777344 111.957031 273.667969 112.179688 272.832031 112.011719 C 270.554688 111.566406 269.167969 112.957031 269.167969 115.683594 C 269.167969 117.628906 269.5 118.296875 271 119.632812 C 271.945312 120.519531 272.777344 121.355469 272.777344 121.578125 C 272.777344 121.746094 273.667969 122.746094 274.777344 123.804688 C 276.390625 125.304688 277.277344 125.695312 279 125.695312 C 281.722656 125.695312 283.332031 126.527344 283.332031 127.917969 C 283.332031 128.53125 283.890625 129.140625 284.609375 129.363281 C 285.277344 129.585938 286.167969 130.199219 286.554688 130.753906 C 287.332031 131.867188 289.167969 132.144531 289.722656 131.253906 C 289.890625 130.921875 290.609375 130.699219 291.332031 130.699219 C 292 130.699219 292.777344 130.476562 293.109375 130.199219 C 293.390625 129.921875 294.5 129.585938 295.554688 129.476562 C 297.945312 129.253906 298.277344 127.75 296 127.472656 C 295.054688 127.363281 294.445312 126.972656 294.445312 126.472656 C 294.445312 125.695312 295.5 125.636719 302.390625 125.972656 C 311.167969 126.359375 312.777344 126.917969 310.832031 129.03125 C 310.277344 129.644531 309.945312 130.308594 310.109375 130.476562 C 310.332031 130.644531 311.890625 131.144531 313.722656 131.644531 C 315.5 132.089844 317.390625 132.867188 317.890625 133.3125 C 318.777344 134.09375 319.054688 134.035156 320.890625 132.367188 C 322.667969 130.867188 323.277344 130.644531 325.054688 130.867188 C 326.5 131.03125 327.390625 130.867188 327.832031 130.367188 C 328.554688 129.476562 328 129.140625 325 128.917969 C 323.445312 128.808594 323 128.476562 322.890625 127.472656 C 322.722656 126.359375 322.945312 126.25 325.222656 126.25 C 326.609375 126.25 328.390625 126.527344 329.167969 126.917969 C 330.890625 127.695312 331.554688 127.195312 330.332031 125.972656 C 329.832031 125.472656 329.445312 124.414062 329.445312 123.636719 C 329.445312 121.746094 326.167969 116.960938 322.832031 113.957031 C 318.609375 110.175781 317.390625 109.175781 316.445312 108.84375 C 315.890625 108.621094 315.722656 108.117188 315.945312 107.5625 C 316.222656 106.785156 316.832031 106.730469 319.945312 107.007812 C 321.945312 107.171875 343.222656 107.453125 367.222656 107.675781 C 396.445312 107.839844 411.332031 108.175781 412.390625 108.5625 C 413.5 109.007812 414.109375 109.007812 414.554688 108.5625 C 414.945312 108.175781 415.5 108.117188 416.054688 108.453125 C 417.445312 109.175781 447.109375 109.34375 447.832031 108.621094 C 448.167969 108.285156 448.277344 107.507812 448.054688 106.839844 C 447.722656 105.726562 447.332031 105.671875 437.609375 105.5625 C 432.054688 105.5625 425.277344 105.449219 422.5 105.339844 C 419.777344 105.28125 411.5 105.171875 404.167969 105.117188 C 396.832031 105.117188 383.222656 104.835938 373.890625 104.503906 C 364.554688 104.226562 346.722656 103.890625 334.222656 103.726562 C 316 103.503906 311.277344 103.28125 310.609375 102.667969 C 310 102.167969 307.390625 101.777344 302.667969 101.5 C 295.167969 101.109375 293.332031 101.332031 293.332031 102.667969 C 293.332031 103.390625 294.390625 103.503906 299.609375 103.503906 C 309.832031 103.390625 309.445312 103.226562 318.554688 112.789062 C 319.777344 114.125 321.890625 116.128906 323.222656 117.183594 C 325.890625 119.410156 326.332031 121.246094 324.222656 121.246094 C 323.445312 121.246094 321.945312 120.410156 320.722656 119.296875 C 319.109375 117.851562 318.109375 117.351562 316.667969 117.351562 C 314.5 117.40625 311.832031 119.410156 310.722656 121.910156 C 310 123.523438 308.277344 124.246094 306.054688 123.914062 C 304.832031 123.746094 304.722656 123.46875 304.554688 119.574219 L 304.390625 115.347656 L 309.722656 115.570312 C 316.109375 115.851562 316.777344 115.515625 315 112.679688 C 314.332031 111.566406 313.554688 110.675781 313.277344 110.675781 C 313 110.675781 312.777344 110.398438 312.777344 110.121094 C 312.777344 109.789062 312.332031 109.0625 311.832031 108.507812 C 311.277344 107.894531 310.5 107.007812 310.109375 106.507812 C 309.554688 105.894531 308.609375 105.671875 306.777344 105.78125 L 304.167969 105.949219 L 304.390625 110.511719 C 304.5 114.292969 304.390625 115.125 303.722656 115.125 C 302.890625 115.125 302.222656 117.742188 302.222656 121.355469 C 302.222656 123.191406 302.054688 123.46875 300.890625 123.46875 C 300.167969 123.46875 298.832031 123.636719 297.945312 123.804688 C 296.054688 124.191406 294.445312 122.96875 294.445312 121.132812 C 294.445312 119.519531 292.222656 117.351562 290.5 117.351562 C 287.445312 117.351562 287 115.183594 289.445312 112.347656 C 290.332031 111.289062 291.054688 110.011719 291.109375 109.507812 C 291.109375 109.007812 291.5 108.453125 291.945312 108.230469 C 292.890625 107.894531 293.054688 105.394531 292.222656 104.835938 C 291.945312 104.671875 291.667969 103.890625 291.667969 103.113281 C 291.667969 102.113281 291.390625 101.777344 290.390625 101.777344 C 289.722656 101.777344 288.609375 102.167969 287.945312 102.613281 C 287 103.28125 285.609375 103.390625 281.554688 103.167969 C 268 102.5 261.722656 102.335938 236.109375 102 C 221 101.835938 208.390625 101.5 208.054688 101.332031 C 207.777344 101.109375 204.332031 101.054688 200.5 101.167969 L 193.554688 101.332031 L 191.332031 99.054688 L 189.167969 96.71875 L 184.445312 96.882812 C 180.5 97.050781 179.722656 97.21875 179.554688 97.996094 C 179.390625 98.886719 179.890625 98.996094 183.832031 98.996094 L 188.332031 98.996094 L 192.945312 103.78125 C 203.609375 114.847656 203.890625 115.183594 203.890625 117.074219 C 203.890625 119.632812 202.5 120.6875 199.554688 120.300781 C 197.777344 120.078125 196.832031 119.519531 195.832031 118.242188 C 192.832031 114.515625 192.109375 114.015625 189.390625 114.015625 C 187.167969 114.015625 186.667969 114.238281 185.277344 115.90625 C 184.390625 116.960938 183.445312 117.742188 183.222656 117.574219 C 183 117.40625 182.777344 114.347656 182.777344 110.734375 C 182.777344 102.613281 182.554688 102.335938 176.890625 102.335938 C 174.667969 102.335938 172.722656 102.613281 172.332031 103.003906 C 171.832031 103.503906 171.609375 103.390625 171.390625 102.558594 C 171.167969 102 170.667969 100.832031 170.222656 100 C 168.945312 97.664062 169.222656 97.21875 171.554688 97.550781 C 173.777344 97.941406 175.390625 97.273438 174.777344 96.273438 C 174.222656 95.382812 169.332031 95.550781 167.945312 96.496094 Z M 168.390625 101.222656 C 169.667969 101.945312 169.777344 103.613281 168.609375 104.558594 C 168.167969 104.949219 167.777344 105.5625 167.777344 105.949219 C 167.777344 106.339844 167.167969 107.0625 166.445312 107.507812 C 165.222656 108.339844 165.109375 108.285156 164 106.785156 L 162.832031 105.226562 L 164.609375 102.945312 C 166.554688 100.5 166.777344 100.386719 168.390625 101.222656 Z M 179.890625 104.671875 C 180.777344 105.839844 181.109375 107.5625 180.609375 108.398438 C 180.109375 109.175781 174.332031 109.621094 173.277344 108.953125 C 172.390625 108.453125 173.277344 104.671875 174.390625 104.394531 C 176.332031 103.835938 179.332031 104.058594 179.890625 104.671875 Z M 291 106.671875 C 291.109375 107.507812 290.609375 108.5625 289.5 109.675781 C 288.554688 110.675781 287.777344 111.679688 287.777344 111.957031 C 287.777344 112.179688 287.109375 112.347656 286.277344 112.234375 C 285.054688 112.125 284.667969 111.734375 284.554688 110.621094 C 284.445312 109.507812 284.945312 108.675781 286.667969 107.117188 C 289.167969 104.835938 290.722656 104.671875 291 106.671875 Z M 171.109375 106.730469 C 171.109375 107.285156 170.722656 108.0625 170.277344 108.453125 C 169.832031 108.84375 169.445312 109.507812 169.445312 110.011719 C 169.445312 110.675781 170.167969 110.789062 173.609375 110.566406 C 176.554688 110.34375 177.945312 110.511719 178.332031 110.957031 C 178.777344 111.511719 178.5 111.84375 177.222656 112.289062 C 175.832031 112.734375 175.5 113.125 175.667969 114.125 C 175.777344 115.125 176.222656 115.460938 177.667969 115.570312 C 179.332031 115.738281 179.445312 115.628906 179.445312 114.070312 C 179.445312 112.902344 179.722656 112.347656 180.277344 112.347656 C 180.945312 112.347656 181.109375 113.234375 181.109375 117.074219 L 181.109375 121.800781 L 172.890625 121.800781 L 173.167969 119.410156 C 173.390625 117.40625 173.222656 116.851562 171.890625 115.40625 C 170.554688 113.957031 169.945312 113.734375 167.667969 113.792969 C 165.277344 113.792969 164.722656 114.070312 162.722656 116.128906 C 160.445312 118.574219 158.667969 119.074219 158.109375 117.574219 C 157.5 116.015625 157.777344 114.015625 158.554688 114.015625 C 158.945312 114.015625 159.609375 113.625 160 113.234375 C 160.332031 112.789062 161.777344 112.347656 163.222656 112.234375 C 165.609375 112.066406 165.890625 111.902344 166.945312 109.84375 C 168.890625 106.003906 171.109375 104.394531 171.109375 106.730469 Z M 310.277344 109.34375 C 311.332031 110.453125 312.222656 111.789062 312.222656 112.402344 C 312.222656 113.292969 311.832031 113.457031 309.5 113.457031 C 306.554688 113.457031 306.109375 113.011719 306.109375 110.175781 C 306.109375 108.730469 307 107.339844 307.890625 107.339844 C 308.167969 107.339844 309.222656 108.230469 310.277344 109.34375 Z M 284.5 113.625 C 285.390625 114.792969 285.332031 114.960938 284.390625 116.128906 C 283.554688 117.183594 282.832031 117.40625 279.777344 117.460938 C 276.277344 117.519531 276.109375 117.574219 276.109375 118.851562 C 276.109375 120.019531 275.890625 120.1875 274.609375 120.019531 C 273.390625 119.910156 273.054688 119.574219 273.054688 118.464844 C 273.054688 117.460938 273.390625 117.019531 274.332031 116.90625 C 275.667969 116.683594 275.890625 116.238281 275 115.347656 C 274.667969 115.015625 274.722656 114.402344 275.222656 113.679688 C 275.832031 112.789062 276.722656 112.566406 279.832031 112.511719 C 283.167969 112.402344 283.722656 112.511719 284.5 113.625 Z M 153.222656 114.125 C 154.277344 115.183594 154 115.683594 152.5 115.683594 C 151.167969 115.683594 150.609375 114.683594 151.5 113.847656 C 152 113.292969 152.445312 113.347656 153.222656 114.125 Z M 170.222656 116.574219 C 171.445312 117.742188 171.445312 122.523438 170.222656 123.523438 C 169.722656 123.914062 168.445312 124.246094 167.390625 124.246094 C 165.054688 124.246094 163.390625 122.414062 163.332031 119.742188 C 163.332031 116.574219 168.054688 114.347656 170.222656 116.574219 Z M 192.890625 117.683594 C 195.109375 119.742188 194.554688 122.800781 191.667969 124.304688 C 189.722656 125.304688 187.667969 124.636719 185.777344 122.414062 C 184.609375 121.023438 184.609375 120.964844 185.609375 119.074219 C 187.390625 115.683594 190.109375 115.183594 192.890625 117.683594 Z M 283.054688 120.800781 C 282.667969 122.691406 281.332031 124.191406 280.277344 123.859375 C 280 123.746094 279.667969 122.636719 279.554688 121.355469 L 279.390625 119.019531 L 281.390625 119.019531 C 283.390625 119.019531 283.390625 119.074219 283.054688 120.800781 Z M 291.5 120.242188 C 293.332031 121.910156 293.222656 124.691406 291.332031 126.195312 C 288.109375 128.753906 284.445312 126.75 284.445312 122.578125 C 284.445312 119.855469 285.277344 119.074219 288.277344 119.019531 C 289.5 119.019531 290.667969 119.464844 291.5 120.242188 Z M 319.722656 120.464844 C 320.890625 121.246094 321.109375 121.800781 321.109375 124.082031 C 321.109375 126.695312 321 126.863281 319.109375 127.75 C 317.222656 128.695312 317.054688 128.695312 315.109375 127.640625 C 313.667969 126.863281 312.945312 126.027344 312.722656 124.859375 C 311.945312 120.742188 316.109375 118.128906 319.722656 120.464844 Z M 319.722656 120.464844 "/>
<path style=" stroke:none;fill-rule:nonzero;fill:rgb(0%,0%,0%);fill-opacity:1;" d="M 185.722656 103.003906 C 184.609375 103.558594 184.445312 104.058594 184.445312 107.117188 C 184.445312 111.398438 184.609375 111.511719 191.277344 111.957031 C 195.945312 112.234375 196.109375 112.179688 196.109375 111.011719 C 196.109375 110.34375 195.445312 109.175781 194.554688 108.453125 C 193.722656 107.675781 192.609375 106.339844 192.054688 105.503906 C 191.222656 104.226562 187.945312 102.167969 187.109375 102.390625 C 187 102.390625 186.390625 102.667969 185.722656 103.003906 Z M 190.167969 105.671875 C 191 105.671875 192.222656 108.230469 192.222656 109.898438 C 192.222656 111.011719 192 111.121094 190.167969 110.898438 C 186.945312 110.453125 186.777344 110.34375 186.390625 108.398438 C 186.054688 106.949219 186.222656 106.449219 187 105.839844 C 187.554688 105.449219 188.390625 105.226562 188.777344 105.394531 C 189.222656 105.5625 189.832031 105.671875 190.167969 105.671875 Z M 190.167969 105.671875 "/>
<path style=" stroke:none;fill-rule:nonzero;fill:rgb(0%,0%,0%);fill-opacity:1;" d="M 152.054688 106.0625 C 151.167969 106.949219 151.832031 107.394531 153.722656 107.230469 C 156.390625 107.007812 156.890625 105.671875 154.332031 105.671875 C 153.277344 105.671875 152.222656 105.839844 152.054688 106.0625 Z M 152.054688 106.0625 "/>
<path style=" stroke:none;fill-rule:nonzero;fill:rgb(0%,0%,0%);fill-opacity:1;" d="M 294.277344 107.5625 C 293.445312 108.621094 292.777344 109.898438 292.777344 110.453125 C 292.777344 111.011719 292.390625 111.84375 291.890625 112.402344 C 291.109375 113.292969 291.109375 113.402344 292.222656 114.015625 C 293.722656 114.792969 297.390625 114.238281 297.054688 113.292969 C 296.945312 112.902344 296.332031 112.566406 295.667969 112.457031 C 294.277344 112.234375 293.945312 110.289062 295.277344 109.789062 C 295.722656 109.621094 296.222656 108.953125 296.390625 108.398438 C 296.667969 107.507812 297.167969 107.339844 298.777344 107.453125 C 300.554688 107.617188 300.832031 107.839844 301.167969 109.453125 C 301.445312 110.898438 301.332031 111.457031 300.5 111.957031 C 299.222656 112.734375 299.109375 113.792969 300.332031 114.238281 C 302.332031 115.015625 302.667969 114.625 302.667969 111.34375 C 302.722656 109.621094 302.777344 107.675781 302.890625 107.0625 C 303.054688 106.0625 302.722656 105.949219 299.390625 105.78125 C 295.777344 105.617188 295.722656 105.671875 294.277344 107.5625 Z M 294.277344 107.5625 "/>
<path style=" stroke:none;fill-rule:nonzero;fill:rgb(0%,0%,0%);fill-opacity:1;" d="M 331.109375 111.789062 C 331.109375 112.066406 331.5 112.347656 331.945312 112.347656 C 332.390625 112.347656 332.777344 112.066406 332.777344 111.789062 C 332.777344 111.457031 332.390625 111.234375 331.945312 111.234375 C 331.5 111.234375 331.109375 111.457031 331.109375 111.789062 Z M 331.109375 111.789062 "/>
<path style=" stroke:none;fill-rule:nonzero;fill:rgb(0%,0%,0%);fill-opacity:1;" d="M 99.054688 112.957031 C 98.722656 113.292969 97 113.679688 95.222656 113.847656 C 91.945312 114.125 88.722656 115.460938 88.722656 116.515625 C 88.667969 117.128906 89.609375 117.460938 95.945312 118.910156 C 100 119.796875 100.667969 119.855469 102 119.132812 C 103.222656 118.464844 104.945312 118.40625 109.554688 118.628906 C 115.109375 118.910156 115.609375 118.851562 116.167969 117.851562 C 116.722656 116.796875 116.390625 114.625 115.667969 114.515625 C 113.332031 114.125 108.109375 114.238281 106.167969 114.625 C 103.945312 115.125 103.609375 115.070312 102.222656 113.734375 C 100.609375 112.179688 100 112.011719 99.054688 112.957031 Z M 99.054688 112.957031 "/>
<path style=" stroke:none;fill-rule:nonzero;fill:rgb(0%,0%,0%);fill-opacity:1;" d="M 296.332031 115.960938 C 295.890625 117.074219 296.445312 118.40625 297.5 118.851562 C 298.832031 119.355469 301.109375 118.074219 301.109375 116.851562 C 301.109375 115.183594 296.890625 114.402344 296.332031 115.960938 Z M 296.332031 115.960938 "/>
<path style=" stroke:none;fill-rule:nonzero;fill:rgb(0%,0%,0%);fill-opacity:1;" d="M 92.777344 134.59375 C 91.667969 135.539062 90.667969 135.925781 89.445312 135.816406 C 89.277344 135.816406 76.890625 135.59375 61.945312 135.371094 C 46.945312 135.203125 29.609375 134.757812 23.390625 134.535156 C 15.390625 134.148438 11.832031 134.203125 11.445312 134.648438 C 10.667969 135.425781 12.609375 136.929688 13.890625 136.539062 C 14.445312 136.371094 15.445312 136.539062 16.167969 136.929688 C 17.222656 137.484375 23.390625 137.707031 40.832031 137.816406 C 53.609375 137.929688 64.5 138.207031 64.945312 138.429688 C 65.445312 138.652344 70.5 138.875 76.277344 138.820312 C 85.832031 138.765625 86.667969 138.820312 86.667969 139.710938 C 86.667969 140.265625 86.445312 140.710938 86.167969 140.710938 C 85.390625 140.710938 79.945312 144.492188 77.554688 146.660156 C 75.445312 148.664062 75.445312 148.664062 75.777344 151.832031 L 76.167969 155.058594 L 74.167969 156.226562 C 72.890625 156.949219 72.222656 157.730469 72.332031 158.285156 C 72.554688 159.5625 76.945312 160.789062 79.777344 160.398438 C 81.777344 160.121094 82.167969 160.230469 82.945312 161.511719 C 84.390625 163.679688 84.109375 164.015625 80.832031 164.179688 C 77.890625 164.347656 76.832031 165.070312 78.445312 165.792969 C 81 167.074219 82.445312 167.351562 86.5 167.574219 C 89.832031 167.738281 91.109375 167.574219 91.332031 167.074219 C 91.5 166.683594 92.277344 166.292969 93.167969 166.183594 C 94.554688 166.015625 94.722656 165.792969 94.722656 163.957031 C 94.722656 162.847656 94.890625 161.789062 95.054688 161.566406 C 95.277344 161.398438 97.722656 161.175781 100.554688 161.066406 C 104.390625 160.953125 105.722656 161.121094 105.945312 161.679688 C 106.109375 162.066406 106.609375 162.402344 107.054688 162.402344 C 107.554688 162.402344 107.777344 162.847656 107.667969 163.625 C 107.554688 164.679688 107.222656 164.847656 106 164.738281 C 103.945312 164.515625 103.945312 165.792969 105.945312 167.683594 C 107.554688 169.128906 109.109375 169.464844 109.722656 168.519531 C 109.890625 168.183594 111.390625 167.960938 112.945312 167.90625 C 116.832031 167.90625 120.332031 167.238281 120.109375 166.570312 C 120.054688 166.238281 119.222656 165.738281 118.332031 165.460938 L 116.667969 164.902344 L 118.390625 162.789062 C 119.722656 161.175781 120.445312 160.730469 121.945312 160.730469 C 123.277344 160.730469 124.332031 160.230469 125.667969 159.007812 C 126.667969 158.0625 128.5 156.671875 129.667969 155.894531 C 133.054688 153.726562 134.609375 151.832031 133.777344 150.832031 C 132.890625 149.777344 131.777344 147.886719 131.332031 146.660156 C 131.167969 146.160156 130.722656 145.714844 130.332031 145.714844 C 130 145.714844 129 145.328125 128.109375 144.882812 C 127.222656 144.382812 125 143.878906 123.167969 143.65625 C 121.222656 143.4375 119.222656 142.824219 118.167969 142.15625 C 117.167969 141.488281 115.945312 140.765625 115.332031 140.542969 C 114.5 140.210938 114.445312 139.988281 115 139.265625 C 115.445312 138.820312 116.109375 138.597656 116.609375 138.765625 C 117.109375 138.984375 135.277344 139.265625 156.945312 139.375 C 178.667969 139.542969 198.5 139.765625 201.109375 139.875 C 219.167969 140.878906 229.667969 141.101562 254.167969 141.210938 C 269.445312 141.265625 282.054688 141.488281 282.222656 141.765625 C 282.390625 142.046875 305.667969 142.433594 334.722656 142.65625 C 363.445312 142.878906 388.109375 143.214844 389.609375 143.492188 C 391.054688 143.714844 392.390625 143.65625 392.554688 143.4375 C 392.945312 142.710938 398.554688 142.824219 399.222656 143.492188 C 399.609375 143.878906 408.167969 144.160156 422.554688 144.382812 C 435.054688 144.492188 445.667969 144.769531 446.109375 144.882812 C 447.332031 145.269531 448.445312 144.324219 448.222656 143.15625 C 448.054688 142.15625 447.277344 142.101562 436.390625 141.878906 C 429.945312 141.765625 419.5 141.488281 413.054688 141.210938 C 406.667969 140.933594 392.277344 140.597656 381.109375 140.488281 C 369.945312 140.320312 354.945312 140.097656 347.777344 139.875 C 329.5 139.429688 309.5 139.375 309.054688 139.820312 C 308.890625 139.988281 308.445312 139.875 308.054688 139.597656 C 307.667969 139.265625 291.777344 138.929688 266.890625 138.707031 C 244.609375 138.484375 226.109375 138.152344 225.832031 137.875 C 225.5 137.652344 207.722656 137.261719 186.390625 137.039062 C 148.554688 136.707031 134.722656 136.484375 134.722656 136.261719 C 134.722656 136.207031 129.832031 136.148438 123.890625 136.039062 C 115.890625 135.984375 112.667969 135.761719 111.667969 135.203125 C 110.832031 134.703125 108.054688 134.371094 104.445312 134.257812 C 101.222656 134.148438 97.609375 133.925781 96.332031 133.757812 C 94.554688 133.535156 93.832031 133.703125 92.777344 134.59375 Z M 103.554688 136.539062 C 104.167969 136.984375 105.5 137.375 106.5 137.375 C 108.777344 137.375 109 138.820312 106.832031 139.652344 C 105.945312 139.988281 104.890625 140.433594 104.445312 140.65625 C 103.390625 141.101562 90.777344 140.933594 89.945312 140.433594 C 89.167969 139.933594 90.832031 138.097656 93 137.09375 C 96.167969 135.648438 102 135.371094 103.554688 136.539062 Z M 114.554688 142.210938 C 114.777344 143.046875 114.390625 143.878906 113.5 144.714844 C 112.222656 145.882812 112.054688 145.9375 111.445312 145.046875 C 111.054688 144.492188 110.054688 143.824219 109.277344 143.546875 C 108.445312 143.214844 107.777344 142.601562 107.777344 142.101562 C 107.777344 141.15625 109.445312 139.320312 110.609375 138.929688 C 111.667969 138.542969 114.277344 140.710938 114.554688 142.210938 Z M 87.777344 142.933594 C 87.777344 143.824219 87.390625 144.046875 86.109375 144.046875 C 85 144.046875 84.445312 144.324219 84.445312 144.882812 C 84.445312 145.382812 84.945312 145.714844 85.777344 145.714844 C 86.5 145.714844 87.222656 145.328125 87.445312 144.882812 C 87.609375 144.4375 88.167969 144.046875 88.609375 144.046875 C 89.277344 144.046875 89.445312 144.492188 89.332031 145.550781 C 89.167969 146.882812 88.890625 147.160156 87.222656 147.273438 C 85.890625 147.441406 85.109375 147.160156 84.554688 146.4375 C 83.832031 145.492188 83.777344 145.492188 83 146.550781 C 81.390625 148.71875 82.167969 149.332031 86.667969 149.273438 L 90.832031 149.21875 L 91 146.105469 C 91.167969 142.992188 92.167969 141.378906 93.390625 142.101562 C 93.832031 142.378906 93.890625 143.492188 93.667969 145.492188 C 93.445312 147.441406 93.554688 148.550781 94 148.832031 C 94.332031 149.054688 97.554688 149.332031 101.222656 149.496094 L 107.777344 149.71875 L 107.777344 148.050781 C 107.777344 147.105469 107.445312 146.273438 106.945312 146.050781 C 106.5 145.882812 106.109375 145.382812 106.109375 144.9375 C 106.109375 144.492188 105.777344 144.046875 105.445312 143.878906 C 104.277344 143.492188 105.222656 142.933594 106.554688 143.324219 C 107.222656 143.492188 107.777344 143.992188 107.777344 144.382812 C 107.777344 144.824219 108.167969 145.328125 108.609375 145.492188 C 109.054688 145.660156 109.890625 146.660156 110.554688 147.773438 C 111.390625 149.164062 111.945312 149.609375 112.722656 149.332031 C 113.277344 149.164062 114.054688 149.386719 114.445312 149.886719 C 114.890625 150.386719 116.054688 150.722656 117.554688 150.722656 C 120.109375 150.722656 121.109375 151.667969 121.109375 154.113281 C 121.109375 154.78125 121.445312 155.617188 121.890625 155.949219 C 122.445312 156.394531 122.554688 156.949219 122.167969 157.785156 C 121.390625 159.785156 119.667969 159.34375 118.054688 156.785156 C 115.054688 152.113281 110.277344 152 107.054688 156.617188 L 105.332031 159.0625 L 101.222656 159.0625 C 99 159.0625 96.722656 158.839844 96.167969 158.507812 C 95.054688 157.953125 92.109375 152.722656 92.554688 152.222656 C 92.722656 152.054688 92.609375 151.777344 92.277344 151.609375 C 92 151.390625 91.445312 151.777344 91.109375 152.390625 C 90.667969 153.222656 89.945312 153.503906 88.332031 153.503906 C 86.832031 153.503906 85.832031 153.890625 85.054688 154.671875 C 84.222656 155.558594 83.222656 155.839844 81 155.949219 L 78.054688 156.003906 L 78.109375 153 C 78.222656 149.496094 78.890625 148.050781 81.109375 146.550781 C 82.054688 145.9375 82.777344 145.105469 82.777344 144.714844 C 82.777344 144.382812 83.054688 144.046875 83.332031 144.046875 C 83.667969 144.046875 84.390625 143.546875 85 142.933594 C 85.609375 142.324219 86.5 141.824219 86.945312 141.824219 C 87.390625 141.824219 87.777344 142.324219 87.777344 142.933594 Z M 104.609375 145.160156 C 105.167969 145.828125 105.445312 146.550781 105.277344 146.828125 C 104.832031 147.550781 96.277344 147.550781 95.832031 146.828125 C 95.667969 146.496094 95.667969 145.769531 95.832031 145.160156 C 96.167969 144.214844 96.667969 144.046875 99.890625 144.046875 C 103 144.046875 103.832031 144.269531 104.609375 145.160156 Z M 122.5 145.550781 C 125.667969 145.882812 126.277344 146.273438 125.777344 147.550781 C 125.277344 148.886719 121.832031 150.441406 120.945312 149.777344 C 120.609375 149.441406 119.167969 149.054688 117.777344 148.886719 C 116.332031 148.71875 115 148.164062 114.609375 147.550781 C 113.945312 146.71875 114.054688 146.4375 115.109375 145.550781 C 116 144.882812 116.890625 144.660156 118.054688 144.882812 C 119 145.105469 121 145.382812 122.5 145.550781 Z M 128.222656 150.222656 C 129.167969 151.722656 128.609375 153.335938 126.667969 154.335938 C 125.390625 155.003906 125 155.003906 124.5 154.449219 C 123.832031 153.558594 124.277344 151.390625 125.445312 150 C 126.554688 148.71875 127.332031 148.773438 128.222656 150.222656 Z M 92.390625 156.785156 C 92.722656 157.117188 93.054688 158.453125 93.054688 159.675781 C 93.054688 161.398438 92.722656 162.234375 91.722656 163.011719 C 90.167969 164.292969 87.609375 164.402344 86.667969 163.234375 C 86.277344 162.789062 85.609375 162.402344 85.222656 162.402344 C 83.890625 162.402344 84.277344 158.507812 85.722656 156.949219 C 86.722656 155.839844 87.332031 155.671875 89.332031 155.894531 C 90.667969 156.0625 92.054688 156.449219 92.390625 156.785156 Z M 116.054688 157.339844 C 117.445312 159.285156 117.445312 159.507812 116.332031 161.789062 C 115.390625 163.679688 113.277344 164.847656 111.667969 164.347656 C 109.5 163.679688 107.945312 161.621094 108.054688 159.730469 C 108.167969 158.730469 108.332031 157.785156 108.445312 157.730469 C 111.832031 155.113281 114.390625 155.003906 116.054688 157.339844 Z M 116.054688 157.339844 "/>
<path style=" stroke:none;fill-rule:nonzero;fill:rgb(0%,0%,0%);fill-opacity:1;" d="M 95.445312 152.222656 C 92.890625 152.890625 95.609375 155.558594 98.167969 154.894531 C 99.167969 154.671875 99.445312 154.28125 99.332031 153.335938 C 99.167969 152.113281 97.554688 151.609375 95.445312 152.222656 Z M 95.445312 152.222656 "/>
<path style=" stroke:none;fill-rule:nonzero;fill:rgb(0%,0%,0%);fill-opacity:1;" d="M 177.277344 152.277344 C 176.167969 153.058594 174.609375 153.222656 169.5 153.222656 L 163.054688 153.222656 L 162.890625 154.726562 C 162.609375 157.117188 164.390625 157.671875 170.390625 157.007812 C 174.832031 156.503906 175.445312 156.503906 177.332031 157.5625 C 179.054688 158.507812 179.667969 158.5625 180.832031 158.0625 C 181.609375 157.671875 183 157.394531 183.890625 157.394531 C 184.777344 157.394531 185.667969 157.117188 185.832031 156.839844 C 186 156.503906 186.890625 156.28125 187.722656 156.28125 C 189.445312 156.28125 191.054688 154.894531 190.222656 154.113281 C 189.945312 153.835938 188.722656 153.503906 187.5 153.28125 C 182.777344 152.613281 181.109375 152.222656 180.777344 151.777344 C 180.332031 151 178.777344 151.222656 177.277344 152.277344 Z M 177.277344 152.277344 "/>
<path style=" stroke:none;fill-rule:nonzero;fill:rgb(0%,0%,0%);fill-opacity:1;" d="M 99.667969 165.960938 C 99.332031 166.738281 99.777344 167.519531 101.777344 169.519531 C 102.277344 170.019531 102.832031 171.078125 103.054688 171.855469 L 103.390625 173.246094 L 97.832031 172.914062 C 94.722656 172.691406 87.167969 172.46875 81 172.410156 C 74.777344 172.355469 56.609375 172.1875 40.609375 172.023438 C 10.054688 171.746094 9.832031 171.746094 11.109375 174.082031 C 11.554688 174.914062 14.222656 175.027344 36.777344 175.136719 C 50.609375 175.191406 62.445312 175.359375 63.054688 175.527344 C 63.667969 175.636719 73.554688 175.859375 85 175.972656 C 96.445312 176.082031 106.277344 176.359375 106.832031 176.582031 C 107.332031 176.804688 107.777344 177.363281 107.777344 177.808594 C 107.777344 178.25 108.445312 179.699219 109.332031 180.976562 C 110.167969 182.199219 111.167969 183.925781 111.609375 184.757812 C 112.054688 185.648438 112.609375 186.316406 112.832031 186.316406 C 113.109375 186.316406 113.722656 187.09375 114.222656 188.039062 L 115.109375 189.765625 L 119.554688 189.542969 C 122.945312 189.320312 124.054688 189.429688 124.277344 190.042969 C 124.722656 191.15625 129.222656 190.988281 129.667969 189.875 C 130.5 187.707031 130.167969 187.539062 123.222656 187.148438 C 116.777344 186.761719 115 186.261719 115 184.757812 C 115 184.3125 114.054688 183.035156 112.109375 180.808594 C 109.667969 178.027344 108.890625 176.640625 109.609375 176.25 C 110 175.972656 114.332031 176.027344 119.222656 176.304688 C 129 176.859375 170.277344 177.808594 210 178.308594 C 224.222656 178.53125 236.832031 178.753906 238.054688 178.808594 C 239.277344 178.863281 262.890625 179.085938 290.554688 179.308594 C 318.222656 179.585938 341.109375 179.976562 341.390625 180.199219 C 341.722656 180.421875 361.332031 180.808594 385 180.976562 C 408.667969 181.199219 431.945312 181.589844 436.667969 181.8125 C 441.890625 182.089844 445.554688 182.035156 446 181.699219 C 446.890625 181.03125 446.890625 179.140625 446 178.808594 C 445.609375 178.640625 436.390625 178.417969 425.554688 178.308594 C 414.722656 178.140625 389.945312 177.808594 370.554688 177.527344 C 351.167969 177.195312 325.109375 176.804688 312.609375 176.640625 C 300.167969 176.472656 289.390625 176.195312 288.722656 176.027344 C 287.609375 175.75 254.445312 175.359375 221.222656 175.25 C 213.5 175.25 206.777344 175.027344 206.222656 174.746094 C 205.390625 174.246094 160.890625 173.636719 121.945312 173.46875 C 107.554688 173.414062 106.890625 173.355469 105.722656 172.246094 C 105 171.632812 104.445312 170.632812 104.445312 170.074219 C 104.445312 169.519531 104.222656 169.074219 103.945312 169.074219 C 103.667969 169.074219 103.277344 168.628906 103.054688 168.074219 C 102.890625 167.574219 102.109375 166.683594 101.390625 166.128906 C 100.167969 165.238281 99.945312 165.238281 99.667969 165.960938 Z M 99.667969 165.960938 "/>
<path style=" stroke:none;fill-rule:nonzero;fill:rgb(0%,0%,0%);fill-opacity:1;" d="M 136.777344 184.035156 C 134.722656 185.371094 133.890625 187.09375 133.890625 190.210938 C 133.890625 193.210938 134.722656 195.160156 136.332031 195.769531 C 137.054688 196.050781 137.832031 196.550781 138.054688 196.828125 C 138.945312 198.328125 144.445312 196.882812 145.167969 194.9375 C 146 192.824219 143.667969 191.488281 142.222656 193.269531 C 141.222656 194.492188 137.945312 194.324219 137.222656 193.046875 C 136.277344 191.265625 136.554688 188.316406 137.777344 186.984375 C 139.109375 185.539062 141.445312 185.816406 142.667969 187.484375 C 143.222656 188.316406 143.609375 188.375 144.722656 187.875 C 146.445312 187.09375 146.445312 186.761719 144.722656 184.871094 C 142.832031 182.867188 139.277344 182.480469 136.777344 184.035156 Z M 136.777344 184.035156 "/>
</g>
</svg>
