<?xml version="1.0" encoding="UTF-8"?>
<svg xmlns="http://www.w3.org/2000/svg" xmlns:xlink="http://www.w3.org/1999/xlink" width="399pt" height="229pt" viewBox="0 0 399 229" version="1.1">
<g id="surface1">
<path style=" stroke:none;fill-rule:nonzero;fill:rgb(0%,0%,0%);fill-opacity:1;" d="M 254.464844 5.84375 C 252.144531 5.992188 252.09375 6.042969 237.90625 19.957031 C 230.097656 27.632812 222.335938 35.359375 220.707031 37.144531 C 219.074219 38.925781 216.453125 41.648438 214.871094 43.285156 C 213.339844 44.867188 211.859375 46.75 211.660156 47.492188 C 211.460938 48.1875 211.3125 75.277344 211.3125 107.714844 C 211.3125 165.707031 211.3125 166.699219 212.300781 168.53125 L 213.289062 170.414062 L 251.847656 170.363281 C 273.050781 170.3125 301.871094 170.164062 315.859375 170.117188 L 341.265625 169.917969 L 343.09375 168.035156 C 344.035156 166.996094 353.226562 157.933594 363.460938 147.878906 L 382.09375 129.605469 L 382.09375 68.589844 C 382.09375 16.738281 381.996094 7.476562 381.402344 6.636719 C 380.710938 5.695312 379.476562 5.695312 318.726562 5.695312 C 284.667969 5.695312 255.75 5.746094 254.464844 5.84375 Z M 375.027344 9.460938 C 375.816406 10.25 374.976562 11.933594 373.050781 13.222656 C 372.160156 13.816406 364.449219 21.296875 355.898438 29.765625 L 340.328125 45.214844 L 281.75 45.316406 C 243.046875 45.414062 222.535156 45.613281 221.296875 45.957031 C 220.308594 46.207031 219.320312 46.253906 219.222656 46.007812 C 218.777344 45.316406 220.308594 42.789062 222.039062 41.351562 C 222.929688 40.609375 230.148438 33.625 238.007812 25.800781 C 245.914062 18.027344 252.835938 11.242188 253.429688 10.746094 C 254.417969 9.90625 257.136719 9.855469 309.730469 9.855469 C 340.179688 9.855469 366.625 9.65625 368.5 9.460938 C 373.691406 8.863281 374.433594 8.863281 375.027344 9.460938 Z M 378.78125 28.328125 C 378.734375 36.300781 378.683594 46.949219 378.683594 52 C 378.734375 57.050781 378.683594 70.523438 378.585938 81.960938 C 378.4375 104.695312 378.4375 105.289062 378.832031 116.183594 C 378.929688 120.34375 378.882812 124.503906 378.636719 125.496094 C 378.140625 127.625 377.894531 127.921875 368.5 137.132812 C 357.183594 148.226562 344.035156 161.597656 343.488281 162.589844 C 343.195312 163.082031 342.847656 163.378906 342.648438 163.230469 C 342.453125 163.132812 342.351562 156.941406 342.402344 149.464844 C 342.453125 136.390625 342.5 122.125 342.453125 120.097656 C 342.453125 119.550781 342.453125 111.875 342.453125 103.011719 C 342.5 94.144531 342.5 78.398438 342.5 67.996094 L 342.453125 49.078125 L 351.792969 39.917969 C 356.886719 34.863281 361.484375 30.359375 362.027344 29.863281 C 362.519531 29.367188 366.375 25.457031 370.578125 21.148438 C 374.777344 16.839844 378.339844 13.46875 378.535156 13.570312 C 378.78125 13.71875 378.882812 20.355469 378.78125 28.328125 Z M 256.296875 49.96875 C 292.675781 49.921875 285.113281 49.921875 310.125 49.96875 C 321.492188 50.019531 332.515625 49.871094 334.640625 49.722656 C 337.113281 49.523438 338.546875 49.574219 338.792969 49.921875 C 339.289062 50.761719 339.191406 165.558594 338.644531 165.855469 C 338.398438 166.003906 310.421875 166.054688 276.460938 165.90625 L 214.773438 165.660156 L 214.625 108.210938 C 214.578125 76.613281 214.625 50.464844 214.773438 50.070312 C 214.972656 49.523438 216.058594 49.425781 220.359375 49.722656 C 223.277344 49.921875 239.441406 50.019531 256.296875 49.96875 Z M 256.296875 49.96875 "/>
<path style=" stroke:none;fill-rule:nonzero;fill:rgb(0%,0%,0%);fill-opacity:1;" d="M 360.839844 47.59375 C 360.492188 48.136719 360.394531 48.730469 360.542969 48.878906 C 360.9375 49.324219 362.867188 47.492188 362.519531 47 C 362.074219 46.253906 361.382812 46.503906 360.839844 47.59375 Z M 360.839844 47.59375 "/>
<path style=" stroke:none;fill-rule:nonzero;fill:rgb(0%,0%,0%);fill-opacity:1;" d="M 361.433594 50.117188 C 360.640625 50.910156 360.691406 52.84375 361.53125 53.140625 C 362.472656 53.535156 362.816406 53.089844 362.816406 51.457031 C 362.816406 49.871094 362.222656 49.324219 361.433594 50.117188 Z M 361.433594 50.117188 "/>
<path style=" stroke:none;fill-rule:nonzero;fill:rgb(0%,0%,0%);fill-opacity:1;" d="M 362.867188 68.195312 C 362.324219 69.234375 363.0625 71.019531 363.855469 70.570312 C 364.449219 70.175781 364.449219 67.996094 363.855469 67.601562 C 363.558594 67.453125 363.164062 67.75 362.867188 68.195312 Z M 362.867188 68.195312 "/>
<path style=" stroke:none;fill-rule:nonzero;fill:rgb(0%,0%,0%);fill-opacity:1;" d="M 354.761719 69.136719 C 354.265625 69.679688 354.910156 70.324219 355.945312 70.324219 C 356.441406 70.324219 356.886719 69.976562 356.886719 69.582031 C 356.886719 68.839844 355.351562 68.542969 354.761719 69.136719 Z M 354.761719 69.136719 "/>
<path style=" stroke:none;fill-rule:nonzero;fill:rgb(0%,0%,0%);fill-opacity:1;" d="M 359.503906 69.878906 C 360.199219 70.273438 360.59375 70.273438 360.988281 69.878906 C 361.382812 69.484375 361.136719 69.332031 360.097656 69.332031 C 358.8125 69.382812 358.714844 69.433594 359.503906 69.878906 Z M 359.503906 69.878906 "/>
<path style=" stroke:none;fill-rule:nonzero;fill:rgb(0%,0%,0%);fill-opacity:1;" d="M 360.097656 73.246094 C 359.703125 74.582031 360.640625 75.921875 361.136719 74.632812 C 361.285156 74.1875 361.1875 73.445312 360.9375 73 C 360.492188 72.207031 360.445312 72.253906 360.097656 73.246094 Z M 360.097656 73.246094 "/>
<path style=" stroke:none;fill-rule:nonzero;fill:rgb(0%,0%,0%);fill-opacity:1;" d="M 364.597656 76.070312 C 364.203125 77.058594 364.597656 77.652344 365.289062 76.960938 C 365.535156 76.714844 365.535156 76.21875 365.339844 75.871094 C 365.042969 75.328125 364.84375 75.375 364.597656 76.070312 Z M 364.597656 76.070312 "/>
<path style=" stroke:none;fill-rule:nonzero;fill:rgb(0%,0%,0%);fill-opacity:1;" d="M 360.097656 76.265625 C 359.753906 76.8125 360.199219 77.753906 360.742188 77.753906 C 360.9375 77.753906 361.433594 77.503906 361.828125 77.257812 C 362.472656 76.8125 362.472656 76.714844 361.828125 76.265625 C 360.890625 75.671875 360.492188 75.671875 360.097656 76.265625 Z M 360.097656 76.265625 "/>
<path style=" stroke:none;fill-rule:nonzero;fill:rgb(0%,0%,0%);fill-opacity:1;" d="M 362.914062 93.699219 C 363.015625 94.34375 363.3125 94.839844 363.558594 94.839844 C 363.855469 94.839844 364.101562 94.34375 364.203125 93.699219 C 364.300781 92.957031 364.101562 92.609375 363.558594 92.609375 C 363.015625 92.609375 362.816406 92.957031 362.914062 93.699219 Z M 362.914062 93.699219 "/>
<path style=" stroke:none;fill-rule:nonzero;fill:rgb(0%,0%,0%);fill-opacity:1;" d="M 359.503906 97.414062 C 358.566406 97.761719 358.714844 99.394531 359.703125 99.742188 C 360.59375 100.089844 361.335938 99.296875 361.335938 97.910156 C 361.335938 97.066406 360.691406 96.917969 359.503906 97.414062 Z M 359.503906 97.414062 "/>
<path style=" stroke:none;fill-rule:nonzero;fill:rgb(0%,0%,0%);fill-opacity:1;" d="M 363.0625 97.5625 C 362.667969 98.15625 364.054688 98.75 364.792969 98.304688 C 365.089844 98.15625 365.191406 97.761719 365.042969 97.511719 C 364.644531 96.917969 363.460938 96.917969 363.0625 97.5625 Z M 363.0625 97.5625 "/>
<path style=" stroke:none;fill-rule:nonzero;fill:rgb(0%,0%,0%);fill-opacity:1;" d="M 360.34375 103.554688 C 360.34375 104.398438 360.542969 104.941406 360.839844 104.742188 C 361.136719 104.59375 361.335938 103.902344 361.335938 103.207031 C 361.335938 102.566406 361.136719 102.019531 360.839844 102.019531 C 360.59375 102.019531 360.34375 102.714844 360.34375 103.554688 Z M 360.34375 103.554688 "/>
<path style=" stroke:none;fill-rule:nonzero;fill:rgb(0%,0%,0%);fill-opacity:1;" d="M 360.492188 106.277344 C 360.199219 107.121094 361.234375 108.113281 361.925781 107.664062 C 362.570312 107.21875 362.371094 106.082031 361.582031 105.785156 C 361.136719 105.636719 360.691406 105.832031 360.492188 106.277344 Z M 360.492188 106.277344 "/>
<path style=" stroke:none;fill-rule:nonzero;fill:rgb(0%,0%,0%);fill-opacity:1;" d="M 361.582031 109.894531 C 361.1875 111.230469 362.125 112.570312 362.621094 111.28125 C 362.769531 110.835938 362.667969 110.09375 362.421875 109.648438 C 361.976562 108.855469 361.925781 108.902344 361.582031 109.894531 Z M 361.582031 109.894531 "/>
<path style=" stroke:none;fill-rule:nonzero;fill:rgb(0%,0%,0%);fill-opacity:1;" d="M 365.78125 110.6875 C 365.78125 111.082031 366.03125 111.429688 366.277344 111.429688 C 366.574219 111.429688 366.773438 111.082031 366.773438 110.6875 C 366.773438 110.289062 366.574219 109.945312 366.277344 109.945312 C 366.03125 109.945312 365.78125 110.289062 365.78125 110.6875 Z M 365.78125 110.6875 "/>
<path style=" stroke:none;fill-rule:nonzero;fill:rgb(0%,0%,0%);fill-opacity:1;" d="M 346.503906 126.734375 C 346.503906 127.277344 346.753906 127.871094 347 128.019531 C 347.296875 128.21875 347.492188 127.773438 347.492188 127.078125 C 347.492188 126.386719 347.296875 125.792969 347 125.792969 C 346.753906 125.792969 346.503906 126.238281 346.503906 126.734375 Z M 346.503906 126.734375 "/>
<path style=" stroke:none;fill-rule:nonzero;fill:rgb(0%,0%,0%);fill-opacity:1;" d="M 359.257812 127.625 C 358.8125 128.167969 358.914062 128.566406 359.703125 129.355469 L 360.742188 130.347656 L 361.335938 129.257812 C 361.730469 128.464844 362.222656 128.269531 362.964844 128.464844 C 364.203125 128.761719 365.734375 128.019531 365.089844 127.425781 C 364.398438 126.734375 359.902344 126.882812 359.257812 127.625 Z M 359.257812 127.625 "/>
<path style=" stroke:none;fill-rule:nonzero;fill:rgb(0%,0%,0%);fill-opacity:1;" d="M 355.402344 128.761719 C 355.402344 129.011719 355.75 129.257812 356.144531 129.257812 C 356.539062 129.257812 356.886719 129.011719 356.886719 128.761719 C 356.886719 128.464844 356.539062 128.269531 356.144531 128.269531 C 355.75 128.269531 355.402344 128.464844 355.402344 128.761719 Z M 355.402344 128.761719 "/>
<path style=" stroke:none;fill-rule:nonzero;fill:rgb(0%,0%,0%);fill-opacity:1;" d="M 360.148438 131.488281 C 360 131.882812 360 132.578125 360.199219 132.972656 C 360.445312 133.664062 360.59375 133.664062 361.382812 132.921875 C 362.074219 132.277344 362.175781 131.933594 361.777344 131.386719 C 361.039062 130.546875 360.542969 130.546875 360.148438 131.488281 Z M 360.148438 131.488281 "/>
<path style=" stroke:none;fill-rule:nonzero;fill:rgb(0%,0%,0%);fill-opacity:1;" d="M 70.585938 23.574219 C 70.386719 23.722656 66.1875 24.070312 61.195312 24.265625 C 56.203125 24.515625 50.171875 25.058594 47.699219 25.503906 C 45.277344 25.902344 41.125 26.59375 38.554688 26.992188 C 35.984375 27.335938 33.070312 27.933594 32.128906 28.277344 C 17.152344 33.578125 13.890625 35.410156 10.777344 40.261719 L 9.144531 42.839844 L 9.144531 170.164062 L 10.875 173.039062 C 13.9375 178.136719 21.007812 181.902344 36.132812 186.359375 C 37.617188 186.804688 40.78125 187.398438 43.101562 187.648438 C 45.425781 187.84375 47.601562 188.242188 47.945312 188.441406 C 48.292969 188.636719 50.664062 188.886719 53.285156 188.984375 C 55.855469 189.082031 58.820312 189.378906 59.761719 189.679688 C 62.085938 190.320312 82.648438 190.273438 85.464844 189.628906 C 86.699219 189.378906 89.46875 189.082031 91.644531 189.082031 C 93.867188 189.035156 96.191406 188.738281 96.882812 188.441406 C 97.574219 188.09375 99.800781 187.695312 101.824219 187.5 C 107.3125 187.054688 118.929688 183.636719 124.070312 181.011719 C 130.742188 177.59375 132.671875 175.910156 134.945312 171.402344 L 136.03125 169.222656 L 136.03125 108.507812 C 136.03125 46.703125 135.980469 44.621094 134.152344 40.808594 C 133.164062 38.777344 129.804688 35.65625 126.34375 33.726562 C 122.585938 31.546875 112.550781 28.082031 107.757812 27.238281 C 106.273438 26.992188 102.371094 26.296875 99.105469 25.753906 C 95.84375 25.160156 89.714844 24.464844 85.515625 24.21875 C 81.3125 23.96875 76.269531 23.671875 74.390625 23.523438 C 72.464844 23.375 70.734375 23.375 70.585938 23.574219 Z M 88.726562 29.316406 C 91.199219 29.566406 94.957031 29.960938 97.128906 30.210938 C 99.304688 30.40625 101.53125 30.753906 102.074219 30.855469 C 102.617188 31.003906 105.1875 31.644531 107.757812 32.242188 C 122.339844 35.558594 132.621094 41.253906 132.621094 46.007812 C 132.621094 46.703125 132.125 48.089844 131.484375 49.078125 C 130.347656 50.8125 124.859375 54.675781 121.894531 55.765625 C 114.875 58.4375 104.691406 61.410156 102.566406 61.410156 C 101.824219 61.410156 100.789062 61.65625 100.195312 62.003906 C 99.601562 62.300781 98.019531 62.597656 96.636719 62.648438 C 95.300781 62.699219 90.605469 62.996094 86.253906 63.292969 C 72.613281 64.234375 65.394531 64.085938 48.292969 62.597656 C 46.167969 62.402344 44.339844 62.054688 44.191406 61.855469 C 44.042969 61.609375 43.203125 61.410156 42.261719 61.410156 C 41.324219 61.410156 39.988281 61.164062 39.199219 60.867188 C 38.457031 60.566406 36.628906 60.121094 35.195312 59.875 C 28.519531 58.636719 18.140625 54.179688 14.78125 51.160156 C 11.121094 47.839844 11.367188 44.867188 15.570312 41.402344 C 19.722656 38.035156 25.210938 35.707031 36.726562 32.4375 C 40.929688 31.25 44.238281 30.65625 48.6875 30.308594 C 50.863281 30.109375 52.890625 29.8125 53.1875 29.617188 C 53.484375 29.417969 57.585938 29.121094 62.332031 28.972656 C 67.027344 28.773438 70.980469 28.574219 71.128906 28.476562 C 71.425781 28.179688 83.734375 28.722656 88.726562 29.316406 Z M 14.679688 55.960938 C 18.980469 59.726562 24.960938 62.402344 34.503906 64.828125 C 41.816406 66.710938 47.847656 67.5 60.304688 68.292969 C 69.101562 68.839844 92.433594 68.441406 93.324219 67.699219 C 93.671875 67.402344 95.351562 67.15625 97.03125 67.15625 C 98.710938 67.105469 100.394531 66.90625 100.789062 66.660156 C 101.132812 66.410156 102.816406 66.066406 104.496094 65.867188 C 107.707031 65.472656 113.886719 64.035156 115.269531 63.339844 C 115.765625 63.09375 116.507812 62.894531 116.902344 62.894531 C 118.78125 62.894531 127.480469 58.488281 130.199219 56.109375 C 131.730469 54.824219 132.273438 54.574219 132.671875 55.070312 C 133.066406 55.515625 133.117188 73.097656 132.96875 112.269531 L 132.71875 168.777344 L 131.1875 170.710938 C 128.417969 174.128906 123.378906 177.050781 115.320312 179.675781 C 111.316406 181.0625 106.324219 182.398438 104.296875 182.695312 C 102.269531 183.042969 99.15625 183.585938 97.378906 183.984375 C 95.597656 184.378906 91.296875 184.972656 87.789062 185.269531 C 79.484375 186.011719 56.945312 185.519531 50.171875 184.476562 C 40.632812 182.941406 39.792969 182.84375 37.121094 182.296875 C 33.859375 181.65625 24.863281 178.585938 21.503906 177 C 17.84375 175.265625 14.234375 172.34375 13 170.066406 L 11.914062 168.085938 L 11.863281 111.378906 C 11.863281 80.230469 11.8125 54.574219 11.863281 54.328125 C 11.863281 53.632812 12.457031 53.980469 14.679688 55.960938 Z M 14.679688 55.960938 "/>
<path style=" stroke:none;fill-rule:nonzero;fill:rgb(0%,0%,0%);fill-opacity:1;" d="M 196.730469 127.523438 C 195.992188 128.464844 196.878906 129.753906 198.265625 129.753906 C 199.550781 129.753906 199.746094 129.109375 198.90625 127.871094 C 198.015625 126.582031 197.570312 126.535156 196.730469 127.523438 Z M 196.730469 127.523438 "/>
<path style=" stroke:none;fill-rule:nonzero;fill:rgb(0%,0%,0%);fill-opacity:1;" d="M 257.828125 202.703125 C 255.949219 204.734375 255.898438 204.832031 255.898438 208.496094 C 255.898438 212.210938 255.949219 212.261719 257.925781 214.339844 C 259.855469 216.320312 260.050781 216.421875 262.820312 216.421875 C 265.292969 216.421875 265.933594 216.222656 266.921875 215.230469 C 268.160156 213.84375 267.960938 212.457031 266.578125 212.457031 C 266.082031 212.457031 265.292969 212.90625 264.796875 213.449219 C 263.808594 214.636719 261.683594 214.488281 260.101562 213.152344 C 259.164062 212.359375 259.015625 211.714844 259.015625 208.496094 C 259.015625 205.226562 259.164062 204.632812 260.101562 203.792969 C 261.535156 202.554688 263.757812 202.503906 264.746094 203.644531 C 265.738281 204.734375 267.8125 204.832031 268.207031 203.792969 C 268.40625 203.394531 267.910156 202.554688 267.070312 201.859375 C 265.933594 200.820312 265.191406 200.621094 262.722656 200.621094 C 259.855469 200.621094 259.65625 200.722656 257.828125 202.703125 Z M 257.828125 202.703125 "/>
<path style=" stroke:none;fill-rule:nonzero;fill:rgb(0%,0%,0%);fill-opacity:1;" d="M 280.960938 201.265625 C 280.316406 202.902344 280.960938 203.792969 282.742188 203.792969 C 284.320312 203.792969 284.46875 203.691406 284.46875 202.304688 C 284.46875 200.96875 284.273438 200.820312 282.839844 200.671875 C 281.75 200.574219 281.160156 200.769531 280.960938 201.265625 Z M 280.960938 201.265625 "/>
<path style=" stroke:none;fill-rule:nonzero;fill:rgb(0%,0%,0%);fill-opacity:1;" d="M 316.203125 201.859375 C 315.363281 202.554688 314.871094 203.394531 315.066406 203.792969 C 315.464844 204.882812 317.6875 204.683594 318.328125 203.496094 C 318.675781 202.851562 319.269531 202.554688 319.960938 202.652344 C 320.800781 202.753906 321.097656 203.199219 321.195312 204.484375 C 321.34375 205.824219 321.097656 206.417969 319.863281 207.554688 C 319.023438 208.300781 318.328125 209.339844 318.328125 209.882812 C 318.328125 210.378906 317.539062 211.46875 316.601562 212.261719 C 314.820312 213.746094 314.425781 214.933594 315.511719 215.828125 C 315.808594 216.125 317.984375 216.273438 320.308594 216.273438 C 324.164062 216.171875 324.507812 216.074219 324.507812 215.183594 C 324.507812 214.292969 324.164062 214.191406 321.742188 214.191406 C 320.160156 214.191406 318.773438 214.042969 318.625 213.894531 C 318.476562 213.746094 319.320312 212.707031 320.554688 211.566406 C 321.789062 210.429688 322.777344 209.089844 322.777344 208.546875 C 322.777344 208 323.222656 207.308594 323.71875 207.011719 C 325.199219 206.269531 324.902344 203.644531 323.222656 201.960938 C 321.394531 200.078125 318.230469 200.027344 316.203125 201.859375 Z M 316.203125 201.859375 "/>
<path style=" stroke:none;fill-rule:nonzero;fill:rgb(0%,0%,0%);fill-opacity:1;" d="M 39.839844 204.1875 C 37.960938 206.21875 37.914062 206.316406 37.914062 209.984375 C 37.914062 213.695312 37.960938 213.746094 39.941406 215.828125 C 41.867188 217.808594 42.066406 217.90625 44.832031 217.90625 C 47.304688 217.90625 47.945312 217.707031 48.9375 216.71875 C 50.171875 215.332031 49.972656 213.945312 48.589844 213.945312 C 48.09375 213.945312 47.304688 214.390625 46.808594 214.933594 C 45.820312 216.125 43.695312 215.976562 42.113281 214.636719 C 41.175781 213.84375 41.027344 213.203125 41.027344 209.984375 C 41.027344 206.714844 41.175781 206.121094 42.113281 205.277344 C 43.546875 204.039062 45.773438 203.992188 46.761719 205.128906 C 47.75 206.21875 49.824219 206.316406 50.222656 205.277344 C 50.417969 204.882812 49.925781 204.039062 49.085938 203.347656 C 47.945312 202.304688 47.207031 202.109375 44.734375 202.109375 C 41.867188 202.109375 41.667969 202.207031 39.839844 204.1875 Z M 39.839844 204.1875 "/>
<path style=" stroke:none;fill-rule:nonzero;fill:rgb(0%,0%,0%);fill-opacity:1;" d="M 62.972656 202.753906 C 62.332031 204.386719 62.972656 205.277344 64.753906 205.277344 C 66.335938 205.277344 66.484375 205.179688 66.484375 203.792969 C 66.484375 202.453125 66.285156 202.304688 64.851562 202.15625 C 63.765625 202.058594 63.171875 202.257812 62.972656 202.753906 Z M 62.972656 202.753906 "/>
<path style=" stroke:none;fill-rule:nonzero;fill:rgb(0%,0%,0%);fill-opacity:1;" d="M 100.492188 204.289062 C 99.304688 205.527344 98.367188 206.914062 98.367188 207.457031 C 98.367188 208.792969 99.699219 209.140625 100.34375 208 C 101.53125 205.824219 101.925781 207.011719 101.726562 212.011719 C 101.578125 216.371094 101.679688 217.113281 102.46875 217.609375 C 103.0625 218.003906 103.554688 218.003906 104.101562 217.660156 C 104.792969 217.214844 104.941406 216.074219 104.890625 210.082031 C 104.890625 206.21875 104.742188 202.851562 104.542969 202.554688 C 103.953125 201.5625 102.519531 202.15625 100.492188 204.289062 Z M 100.492188 204.289062 "/>
<path style=" stroke:none;fill-rule:nonzero;fill:rgb(0%,0%,0%);fill-opacity:1;" d="M 270.285156 206.269531 C 268.75 207.605469 268.554688 208.25 269.640625 208.695312 C 270.085938 208.84375 270.582031 208.546875 270.925781 207.953125 C 271.320312 207.160156 271.816406 207.011719 273.199219 207.109375 C 275.226562 207.257812 276.117188 208.496094 274.238281 208.496094 C 272.753906 208.496094 269.394531 211.617188 269.394531 212.953125 C 269.394531 213.546875 269.988281 214.539062 270.777344 215.230469 C 271.914062 216.320312 272.410156 216.46875 274.289062 216.222656 C 275.472656 216.074219 276.859375 215.925781 277.351562 215.925781 C 278.191406 215.925781 278.292969 215.480469 278.292969 211.714844 C 278.292969 207.753906 278.191406 207.359375 277.007812 206.269531 C 275.175781 204.585938 272.164062 204.585938 270.285156 206.269531 Z M 275.226562 212.0625 C 275.078125 213.945312 274.929688 214.191406 273.84375 214.191406 C 272.261719 214.191406 272.015625 212.90625 273.199219 211.269531 C 274.585938 209.289062 275.425781 209.636719 275.226562 212.0625 Z M 275.226562 212.0625 "/>
<path style=" stroke:none;fill-rule:nonzero;fill:rgb(0%,0%,0%);fill-opacity:1;" d="M 287.535156 205.328125 C 286.644531 206.21875 287.238281 208.300781 288.671875 209.238281 C 290.5 210.476562 290.550781 210.972656 288.722656 212.210938 C 286.992188 213.351562 286.546875 214.539062 287.386719 215.726562 C 288.324219 216.964844 289.859375 216.421875 290.15625 214.6875 C 290.351562 213.5 290.648438 213.203125 291.636719 213.203125 C 292.625 213.203125 292.921875 213.5 293.121094 214.6875 C 293.417969 216.371094 295.046875 216.964844 296.035156 215.726562 C 296.878906 214.6875 296.382812 213.398438 294.605469 212.210938 C 293.8125 211.667969 293.121094 210.972656 293.121094 210.726562 C 293.121094 210.429688 293.8125 209.785156 294.605469 209.238281 C 296.382812 208.050781 296.878906 206.761719 296.035156 205.722656 C 295.046875 204.484375 293.417969 205.078125 293.121094 206.761719 C 292.921875 207.953125 292.625 208.25 291.636719 208.25 C 290.648438 208.25 290.351562 207.953125 290.15625 206.761719 C 289.90625 205.328125 288.375 204.484375 287.535156 205.328125 Z M 287.535156 205.328125 "/>
<path style=" stroke:none;fill-rule:nonzero;fill:rgb(0%,0%,0%);fill-opacity:1;" d="M 299.792969 206.515625 C 298.558594 207.804688 298.507812 208 299.25 208.300781 C 299.746094 208.496094 300.335938 208.300781 300.683594 207.753906 C 301.128906 207.210938 301.871094 206.960938 303.007812 207.109375 C 304.933594 207.257812 305.675781 208.496094 303.894531 208.496094 C 302.464844 208.546875 299.050781 211.667969 299.050781 212.953125 C 299.050781 213.449219 299.597656 214.488281 300.238281 215.183594 C 301.324219 216.320312 301.722656 216.421875 304.441406 216.273438 C 306.070312 216.171875 307.605469 215.976562 307.800781 215.726562 C 308 215.53125 308.097656 213.597656 308 211.417969 C 307.800781 206.417969 306.8125 205.03125 303.402344 205.03125 C 301.621094 205.03125 300.929688 205.277344 299.792969 206.515625 Z M 304.886719 212.0625 C 304.738281 213.945312 304.589844 214.191406 303.5 214.191406 C 301.917969 214.191406 301.671875 212.90625 302.859375 211.269531 C 304.242188 209.289062 305.082031 209.636719 304.886719 212.0625 Z M 304.886719 212.0625 "/>
<path style=" stroke:none;fill-rule:nonzero;fill:rgb(0%,0%,0%);fill-opacity:1;" d="M 281.355469 210.824219 C 281.503906 216.171875 281.503906 216.171875 282.742188 216.171875 C 283.976562 216.171875 283.976562 216.171875 284.125 210.824219 L 284.273438 205.527344 L 281.207031 205.527344 Z M 281.355469 210.824219 "/>
<path style=" stroke:none;fill-rule:nonzero;fill:rgb(0%,0%,0%);fill-opacity:1;" d="M 52.296875 207.753906 C 50.765625 209.089844 50.566406 209.734375 51.65625 210.179688 C 52.097656 210.328125 52.59375 210.03125 52.941406 209.4375 C 53.335938 208.644531 53.828125 208.496094 55.214844 208.597656 C 57.238281 208.746094 58.128906 209.984375 56.25 209.984375 C 54.769531 209.984375 51.40625 213.101562 51.40625 214.441406 C 51.40625 215.035156 52 216.023438 52.792969 216.71875 C 53.929688 217.808594 54.421875 217.957031 56.300781 217.707031 C 57.488281 217.558594 58.871094 217.410156 59.367188 217.410156 C 60.207031 217.410156 60.304688 216.964844 60.304688 213.203125 C 60.304688 209.238281 60.207031 208.84375 59.019531 207.753906 C 57.191406 206.070312 54.175781 206.070312 52.296875 207.753906 Z M 57.238281 213.546875 C 57.09375 215.429688 56.945312 215.679688 55.855469 215.679688 C 54.273438 215.679688 54.027344 214.390625 55.214844 212.757812 C 56.597656 210.773438 57.4375 211.121094 57.238281 213.546875 Z M 57.238281 213.546875 "/>
<path style=" stroke:none;fill-rule:nonzero;fill:rgb(0%,0%,0%);fill-opacity:1;" d="M 69.546875 206.8125 C 68.660156 207.703125 69.25 209.785156 70.683594 210.726562 C 72.515625 211.964844 72.5625 212.457031 70.734375 213.695312 C 69.003906 214.835938 68.558594 216.023438 69.398438 217.214844 C 70.339844 218.453125 71.871094 217.90625 72.167969 216.171875 C 72.367188 214.984375 72.664062 214.6875 73.652344 214.6875 C 74.640625 214.6875 74.9375 214.984375 75.132812 216.171875 C 75.429688 217.855469 77.0625 218.453125 78.050781 217.214844 C 78.890625 216.171875 78.394531 214.886719 76.617188 213.695312 C 75.824219 213.152344 75.132812 212.457031 75.132812 212.210938 C 75.132812 211.914062 75.824219 211.269531 76.617188 210.726562 C 78.394531 209.535156 78.890625 208.25 78.050781 207.210938 C 77.0625 205.972656 75.429688 206.566406 75.132812 208.25 C 74.9375 209.4375 74.640625 209.734375 73.652344 209.734375 C 72.664062 209.734375 72.367188 209.4375 72.167969 208.25 C 71.921875 206.8125 70.386719 205.972656 69.546875 206.8125 Z M 69.546875 206.8125 "/>
<path style=" stroke:none;fill-rule:nonzero;fill:rgb(0%,0%,0%);fill-opacity:1;" d="M 81.808594 208 C 80.570312 209.289062 80.523438 209.488281 81.261719 209.785156 C 81.757812 209.984375 82.351562 209.785156 82.695312 209.238281 C 83.140625 208.695312 83.882812 208.449219 85.019531 208.597656 C 86.949219 208.746094 87.6875 209.984375 85.910156 209.984375 C 84.476562 210.03125 81.066406 213.152344 81.066406 214.441406 C 81.066406 214.933594 81.609375 215.976562 82.25 216.667969 C 83.339844 217.808594 83.734375 217.90625 86.453125 217.757812 C 88.085938 217.660156 89.617188 217.460938 89.816406 217.214844 C 90.011719 217.015625 90.109375 215.082031 90.011719 212.90625 C 89.816406 207.902344 88.824219 206.515625 85.414062 206.515625 C 83.636719 206.515625 82.945312 206.761719 81.808594 208 Z M 86.898438 213.546875 C 86.75 215.429688 86.601562 215.679688 85.515625 215.679688 C 83.933594 215.679688 83.683594 214.390625 84.871094 212.757812 C 86.253906 210.773438 87.097656 211.121094 86.898438 213.546875 Z M 86.898438 213.546875 "/>
<path style=" stroke:none;fill-rule:nonzero;fill:rgb(0%,0%,0%);fill-opacity:1;" d="M 63.371094 212.308594 C 63.519531 217.660156 63.519531 217.660156 64.753906 217.660156 C 65.988281 217.660156 65.988281 217.660156 66.136719 212.308594 L 66.285156 207.011719 L 63.222656 207.011719 Z M 63.371094 212.308594 "/>
</g>
</svg>
