<?xml version="1.0" encoding="UTF-8" standalone="no"?>
<svg
   xmlns:dc="http://purl.org/dc/elements/1.1/"
   xmlns:cc="http://creativecommons.org/ns#"
   xmlns:rdf="http://www.w3.org/1999/02/22-rdf-syntax-ns#"
   xmlns:svg="http://www.w3.org/2000/svg"
   xmlns="http://www.w3.org/2000/svg"
   xmlns:sodipodi="http://sodipodi.sourceforge.net/DTD/sodipodi-0.dtd"
   xmlns:inkscape="http://www.inkscape.org/namespaces/inkscape"
   version="1.0"
   width="500.759"
   height="480.61902"
   viewBox="0 0 400.6072 384.49521"
   preserveAspectRatio="xMidYMid meet"
   id="svg4471"
   inkscape:version="0.48.4 r9939"
   sodipodi:docname="b3551213d8f44ed30d9db89fb57a97be95299a95.svg">
  <defs
     id="defs4489" />
  <sodipodi:namedview
     pagecolor="#ffffff"
     bordercolor="#666666"
     borderopacity="1"
     objecttolerance="10"
     gridtolerance="10"
     guidetolerance="10"
     inkscape:pageopacity="0"
     inkscape:pageshadow="2"
     inkscape:window-width="1600"
     inkscape:window-height="824"
     id="namedview4487"
     showgrid="false"
     fit-margin-top="0"
     fit-margin-left="0"
     fit-margin-right="0"
     fit-margin-bottom="0"
     inkscape:zoom="0.27846608"
     inkscape:cx="418.875"
     inkscape:cy="408.84531"
     inkscape:window-x="0"
     inkscape:window-y="24"
     inkscape:window-maximized="1"
     inkscape:current-layer="svg4471" />
  <metadata
     id="metadata4473">
Created by potrace 1.10, written by Peter Selinger 2001-2011
<rdf:RDF>
  <cc:Work
     rdf:about="">
    <dc:format>image/svg+xml</dc:format>
    <dc:type
       rdf:resource="http://purl.org/dc/dcmitype/StillImage" />
  </cc:Work>
</rdf:RDF>
</metadata>
  <g
     transform="matrix(0.05851633,0,0,-0.05851633,-16.326056,391.47256)"
     id="g4475"
     style="fill:#000000;stroke:none">
    <path
       d="m 5544,6682 c -5,-4 -23,-24 -38,-45 -16,-20 -48,-46 -72,-57 -36,-15 -44,-24 -44,-45 0,-14 7,-28 15,-31 27,-11 65,6 75,32 7,16 16,24 27,22 16,-3 17,-16 13,-123 -2,-66 -4,-145 -4,-175 l -1,-55 35,0 35,0 1,230 c 2,242 -4,274 -42,247 z"
       id="path4477"
       inkscape:connector-curvature="0" />
    <path
       d="m 5860,6563 c -8,-3 -26,-15 -40,-25 -24,-19 -24,-19 -32,1 -5,13 -16,21 -31,21 l -24,0 -5,-167 c -3,-93 -3,-174 0,-180 5,-16 58,-17 67,-2 4,6 6,61 6,123 -2,100 0,115 19,139 14,17 31,27 48,27 54,0 57,-8 57,-157 l 0,-138 35,0 35,0 1,110 c 1,141 0,137 24,163 29,31 75,29 96,-3 14,-21 16,-46 13,-148 l -4,-122 38,-3 37,-3 0,140 0,141 -29,31 c -17,17 -32,36 -34,42 -2,7 -24,12 -49,12 -38,0 -50,-5 -68,-27 -27,-34 -45,-35 -73,-3 -23,25 -62,38 -87,28 z"
       id="path4479"
       inkscape:connector-curvature="0" />
    <path
       d="m 1240,6072 c -5,-2 -10,-12 -10,-22 0,-10 -5,-22 -11,-26 -6,-3 -203,-6 -437,-5 -265,1 -433,-2 -442,-8 -13,-9 -15,-125 -15,-941 l 0,-930 -23,-8 -22,-7 -1,-1055 0,-1055 21,-11 21,-11 2,-926 c 1,-626 5,-929 12,-936 15,-15 5824,-16 5839,-1 8,8 11,295 11,940 l 0,929 33,3 33,3 0,1060 0,1060 -33,3 -33,3 3,903 c 1,497 -1,921 -6,942 l -8,39 -437,0 -438,0 -7,28 -7,27 -2018,3 c -1109,1 -2021,1 -2027,-1 z m -8,-570 c 0,-250 -2,-456 -5,-458 -6,-6 -829,-5 -834,0 -10,9 -7,906 2,910 6,2 196,3 424,2 l 413,-1 0,-453 z m 4898,448 c 2,-307 0,-903 -2,-906 -2,-2 -190,-4 -418,-4 l -415,-2 -3,449 c -1,246 0,453 2,458 4,10 836,15 836,5 z m -3880,-50 c 3,0 5,-193 5,-430 l 0,-429 -415,-3 c -228,-2 -419,0 -424,4 -6,4 -13,826 -7,858 1,3 693,4 841,0 z m 1000,-17 c 3,-10 4,-204 2,-430 l -2,-413 -470,0 c -441,0 -470,1 -470,18 0,9 0,200 -1,424 -1,224 1,410 4,415 3,4 213,7 468,6 438,-2 463,-3 469,-20 z m 957,13 c 4,-3 6,-645 3,-849 0,-4 -201,-6 -447,-5 l -448,3 3,340 c 2,187 -1,372 -6,412 -14,120 -61,108 448,106 243,-1 444,-4 447,-7 z m 902,-12 c 3,-11 5,-204 3,-431 -2,-314 -5,-412 -15,-415 -6,-1 -194,-1 -417,2 l -405,5 3,360 c 2,223 -1,380 -7,413 -19,94 -50,87 420,86 393,-2 413,-3 418,-20 z m 688,-902 332,3 3,-425 c 2,-234 3,-426 2,-428 -2,-5 -836,-4 -841,1 -9,10 -2,841 7,852 7,8 32,9 87,3 43,-5 227,-8 410,-6 z M 1234,4579 c 1,-222 5,-412 9,-421 6,-12 3,-19 -10,-25 -10,-4 -205,-7 -433,-5 l -415,3 2,419 c 1,231 4,423 6,427 3,5 193,8 423,7 l 417,0 1,-405 z m 1019,-50 0,-452 -423,-1 -422,0 0,450 c 1,247 1,451 1,454 1,3 191,4 423,4 l 422,-2 -1,-453 z m 992,1 0,-453 -468,-1 -467,-1 0,455 0,455 468,-1 467,-1 0,-453 z m 965,443 c 0,-17 0,-881 0,-890 0,-5 -201,-7 -446,-7 l -447,1 1,454 c 1,250 1,454 2,454 0,0 200,0 445,0 349,0 445,-3 445,-12 z m 898,-439 c 2,-376 0,-451 -12,-459 -9,-7 -48,-8 -112,-2 -55,4 -235,6 -402,5 l -303,-3 0,450 c 0,248 0,452 0,455 1,3 187,5 414,4 l 412,0 3,-450 z m -2854,-975 -1,-450 -452,0 -453,0 0,418 -1,418 29,5 c 22,4 30,11 32,32 2,15 10,28 19,30 9,2 199,2 422,0 l 406,-2 -1,-451 z m 2836,451 c 8,-5 15,-20 15,-32 0,-18 7,-24 33,-28 l 34,-5 -1,-414 c 0,-228 -3,-416 -5,-418 -2,-3 -203,-5 -446,-5 l -442,0 -1,451 -2,451 395,3 c 217,1 397,3 400,4 3,2 12,-2 20,-7 z m -1842,-451 -3,-451 -468,-1 c -257,-1 -467,1 -467,6 0,9 0,885 0,892 0,3 212,5 470,5 l 470,0 -2,-451 z m 963,2 c 0,-244 -2,-446 -5,-448 -2,-2 -203,-5 -446,-5 l -442,0 -2,451 -1,451 448,-2 448,-3 0,-444 z m -2919,381 c 4,-4 2,-54 -3,-112 -6,-58 -9,-244 -7,-414 l 3,-309 -360,2 c -198,1 -383,-2 -410,-7 -28,-5 -56,-7 -63,-4 -16,5 -18,848 -2,854 20,6 835,-3 842,-10 z m 4776,10 c 9,-7 12,-99 10,-427 l -3,-418 -420,1 c -231,1 -422,2 -425,2 -3,0 -5,189 -5,420 l 0,420 400,3 c 220,1 407,3 415,4 8,2 21,-1 28,-5 z m -5173,-917 390,-2 -3,-314 c -2,-173 1,-357 6,-409 6,-52 7,-101 3,-108 -6,-10 -94,-13 -429,-15 l -422,-2 0,426 c 0,234 3,429 7,433 4,4 19,4 33,0 14,-4 201,-8 415,-9 z m 924,-1 435,-1 0,-451 c 1,-249 -1,-452 -4,-452 -3,0 -192,-1 -420,-1 l -415,-1 -3,23 c -5,31 -17,43 -43,44 l -22,0 1,420 c 1,231 1,424 1,429 1,4 9,4 19,0 9,-5 212,-9 451,-10 z m 2029,-2 c 251,3 362,1 362,-6 3,-104 -1,-890 -4,-893 -2,-2 -203,-4 -446,-4 l -442,0 0,449 c -1,247 2,454 5,459 4,6 36,6 84,0 43,-4 241,-7 441,-5 z m 2220,10 c 10,-7 12,-100 10,-431 l -3,-424 -420,2 c -231,0 -422,1 -425,1 -3,0 -4,190 -3,422 l 1,423 339,-3 c 186,-1 365,2 398,7 82,12 88,12 103,3 z M 3248,2581 c 2,-357 0,-451 -10,-451 -7,0 -218,-1 -468,-1 l -455,0 -3,453 -2,453 467,-1 468,-2 3,-451 z m 1924,44 c 2,-225 1,-416 -1,-422 -2,-7 -13,-13 -26,-13 -25,0 -41,-15 -46,-43 -4,-18 -23,-19 -409,-18 -223,0 -407,1 -410,1 -4,0 -4,905 0,905 0,0 200,0 445,0 l 444,0 3,-410 z M 2247,2066 c 8,-4 10,-80 6,-298 -2,-161 -1,-348 4,-416 5,-68 6,-128 2,-133 -3,-6 -165,-10 -429,-10 l -423,-1 0,425 c 1,234 3,429 6,434 5,8 811,7 834,-1 z m 1003,-399 c 0,-216 3,-401 5,-412 12,-46 16,-46 -475,-46 -254,0 -464,2 -467,5 -4,3 -5,469 -3,848 0,10 900,15 923,5 16,-7 17,-36 17,-400 z m 957,399 c 5,-5 6,-847 0,-852 -2,-3 -204,-5 -447,-5 -356,0 -445,2 -450,13 -4,7 -3,47 2,88 5,41 7,226 6,410 -2,184 0,340 4,345 5,9 876,10 885,1 z m 894,-3 c 9,-9 15,-841 6,-850 -10,-9 -830,-4 -839,5 -6,6 -5,36 2,73 8,42 11,182 9,414 -1,193 0,355 3,360 8,12 807,10 819,-2 z m -3865,-66 c 7,-4 8,-28 2,-69 -4,-35 -7,-222 -6,-417 l 3,-354 -419,1 c -231,1 -421,3 -423,6 -3,3 -7,816 -4,836 1,7 835,5 847,-3 z m 4895,-403 c 0,-225 -1,-416 -1,-424 0,-13 -45,-15 -361,-12 -218,2 -379,-1 -407,-7 -35,-7 -50,-7 -59,2 -9,9 -13,114 -13,424 -1,227 1,416 3,420 3,5 193,7 422,7 l 418,-1 -2,-409 z M 1230,1070 c 3,-14 16,-30 29,-37 35,-17 37,-23 30,-115 -4,-45 -6,-229 -5,-408 l 1,-325 -439,-3 c -242,-1 -444,2 -448,6 -5,5 -9,209 -9,453 l -1,444 384,5 c 502,7 451,10 458,-20 z m 4900,7 c 3,-6 4,-211 2,-454 l -2,-443 -450,0 c -248,0 -450,3 -450,8 -1,4 -1,194 -2,422 l -1,415 29,5 c 21,4 30,13 36,35 l 7,30 413,-3 c 318,-1 413,-5 418,-15 z m -3876,-469 0,-423 -452,-3 c -249,-1 -452,1 -452,5 -1,21 -2,839 -1,843 1,3 205,4 453,3 l 453,-2 -1,-423 z m 996,408 c 3,-8 3,-199 0,-423 l -5,-408 -467,-3 -467,-2 -3,417 c -2,230 -2,423 0,428 1,7 165,9 469,8 412,-1 468,-3 473,-17 z m 961,9 c 3,-58 -3,-830 -7,-836 -3,-5 -203,-9 -445,-9 -344,0 -439,3 -440,13 -1,6 -1,165 0,352 1,187 -2,365 -7,396 -15,103 -58,94 452,94 290,0 446,-3 447,-10 z m 961,-5 c 2,-8 1,-199 -2,-425 l -5,-410 -442,-3 c -351,-2 -443,0 -444,10 0,7 0,168 1,358 0,203 -3,367 -9,398 -19,94 -54,87 453,87 387,0 445,-2 448,-15 z"
       id="path4481"
       inkscape:connector-curvature="0" />
    <path
       d="m 6449,5751 c -12,-17 -42,-40 -66,-51 -37,-17 -43,-24 -43,-50 0,-40 22,-47 59,-21 16,12 34,21 39,21 7,0 10,-58 9,-167 l -2,-168 32,-3 c 23,-2 34,2 40,15 4,10 6,115 3,233 -5,211 -5,215 -27,218 -15,2 -29,-6 -44,-27 z"
       id="path4483"
       inkscape:connector-curvature="0" />
    <path
       d="m 6767,5650 c -31,-24 -35,-25 -59,-3 -37,33 -46,3 -50,-164 -3,-133 -1,-154 14,-169 14,-14 20,-15 32,-4 13,10 16,35 16,116 0,85 3,109 20,137 22,38 58,51 97,36 22,-8 23,-12 23,-148 0,-148 3,-157 48,-140 23,9 24,12 21,117 -3,87 0,113 14,140 15,28 23,32 56,32 21,0 44,-6 50,-14 8,-10 11,-55 10,-139 -1,-68 1,-129 5,-136 10,-16 31,-14 49,7 13,14 14,38 10,152 l -6,135 -34,32 c -42,41 -83,43 -125,8 -16,-14 -36,-25 -43,-25 -7,0 -27,11 -43,25 -36,30 -71,32 -105,5 z"
       id="path4485"
       inkscape:connector-curvature="0" />
  </g>
</svg>
