<?xml version="1.0" encoding="UTF-8"?>
<svg xmlns="http://www.w3.org/2000/svg" xmlns:xlink="http://www.w3.org/1999/xlink" width="399pt" height="131pt" viewBox="0 0 399 131" version="1.1">
<g id="surface1">
<path style=" stroke:none;fill-rule:nonzero;fill:rgb(0%,0%,0%);fill-opacity:1;" d="M 2.902344 4.175781 C 3.089844 4.785156 3.746094 4.925781 3.792969 4.363281 C 3.792969 4.175781 3.558594 3.941406 3.277344 3.800781 C 2.949219 3.707031 2.761719 3.894531 2.902344 4.175781 Z M 2.902344 4.175781 "/>
<path style=" stroke:none;fill-rule:nonzero;fill:rgb(0%,0%,0%);fill-opacity:1;" d="M 391.507812 6.523438 L 390.992188 7.507812 L 321.824219 7.601562 L 252.652344 7.742188 L 252.511719 34.203125 C 252.464844 53.347656 252.558594 60.808594 252.933594 61.042969 C 253.214844 61.183594 253.871094 61.230469 254.339844 61.136719 C 255.183594 60.902344 255.230469 60.011719 255.230469 35.613281 L 255.230469 10.324219 L 321.917969 10.324219 C 382.09375 10.324219 388.605469 10.226562 388.882812 9.570312 C 389.023438 9.148438 389.585938 8.914062 390.195312 9.007812 L 391.273438 9.148438 L 391.414062 36.457031 L 391.507812 63.8125 L 322.105469 63.90625 L 252.652344 64.046875 L 252.511719 77.839844 C 252.417969 92.292969 252.417969 92.574219 254.386719 92.054688 C 255.324219 91.820312 255.371094 91.585938 255.042969 84.175781 C 254.855469 79.953125 254.855469 74.273438 255.042969 71.550781 L 255.371094 66.625 L 321.964844 66.625 C 380.78125 66.625 388.648438 66.53125 388.882812 65.921875 C 389.023438 65.546875 389.679688 65.21875 390.335938 65.21875 L 391.507812 65.21875 L 391.507812 94.777344 L 322.105469 94.871094 L 252.652344 95.011719 L 252.511719 109.511719 C 252.464844 117.863281 252.605469 124.242188 252.839844 124.476562 C 253.074219 124.710938 253.730469 124.757812 254.292969 124.570312 C 255.371094 124.242188 255.371094 124.195312 255.042969 117.019531 C 254.855469 113.078125 254.855469 107.070312 255.042969 103.691406 L 255.371094 97.59375 L 321.964844 97.59375 C 380.78125 97.59375 388.648438 97.5 388.882812 96.890625 C 389.023438 96.515625 389.679688 96.183594 390.335938 96.183594 L 391.507812 96.183594 L 391.414062 111.527344 L 391.273438 126.917969 L 196.925781 126.917969 C 72.402344 126.917969 2.480469 127.058594 2.246094 127.386719 C 2.0625 127.621094 2.105469 128.042969 2.339844 128.324219 C 2.808594 128.886719 373.101562 129.3125 386.730469 128.746094 L 394.316406 128.464844 L 394.222656 67.140625 L 394.082031 5.863281 L 393.050781 5.722656 C 392.398438 5.628906 391.835938 5.910156 391.507812 6.523438 Z M 391.507812 6.523438 "/>
<path style=" stroke:none;fill-rule:nonzero;fill:rgb(0%,0%,0%);fill-opacity:1;" d="M 6.554688 19.566406 C 6.554688 26.226562 6.507812 38.191406 6.507812 46.167969 C 6.507812 55.082031 6.648438 60.808594 6.929688 61.089844 C 8.429688 62.589844 8.523438 60.949219 8.382812 35.707031 L 8.242188 10.558594 L 58.539062 10.417969 C 103.496094 10.324219 108.835938 10.226562 109.304688 9.570312 C 109.632812 9.195312 110.054688 8.867188 110.285156 8.914062 C 111.316406 9.148438 111.925781 8.867188 111.925781 8.210938 C 111.925781 7.601562 105.746094 7.507812 59.242188 7.507812 L 6.554688 7.507812 Z M 6.554688 19.566406 "/>
<path style=" stroke:none;fill-rule:nonzero;fill:rgb(0%,0%,0%);fill-opacity:1;" d="M 113.660156 7.835938 C 113.472656 7.976562 113.332031 19.988281 113.332031 34.53125 C 113.332031 62.214844 113.285156 61.605469 115.34375 61.089844 C 116.09375 60.902344 116.140625 59.304688 116.140625 35.613281 L 116.140625 10.324219 L 182.125 10.324219 C 241.226562 10.324219 248.109375 10.226562 248.390625 9.617188 C 248.53125 9.195312 248.90625 8.914062 249.234375 8.960938 C 250.5 9.101562 251.015625 8.867188 251.015625 8.210938 C 251.015625 7.601562 243.101562 7.507812 182.5 7.507812 C 144.800781 7.507812 113.800781 7.648438 113.660156 7.835938 Z M 113.660156 7.835938 "/>
<path style=" stroke:none;fill-rule:nonzero;fill:rgb(0%,0%,0%);fill-opacity:1;" d="M 168.730469 14.40625 C 167.703125 14.78125 168.078125 15.90625 169.246094 16.234375 C 170.699219 16.5625 171.402344 16.1875 171.402344 14.96875 C 171.402344 14.074219 170.136719 13.792969 168.730469 14.40625 Z M 168.730469 14.40625 "/>
<path style=" stroke:none;fill-rule:nonzero;fill:rgb(0%,0%,0%);fill-opacity:1;" d="M 308.335938 14.78125 C 307.914062 15.859375 308.757812 16.515625 310.300781 16.328125 C 311.285156 16.234375 311.660156 15.953125 311.660156 15.25 C 311.660156 14.027344 308.757812 13.605469 308.335938 14.78125 Z M 308.335938 14.78125 "/>
<path style=" stroke:none;fill-rule:nonzero;fill:rgb(0%,0%,0%);fill-opacity:1;" d="M 125.835938 15.8125 C 125.179688 16.46875 125.554688 17.40625 126.679688 17.828125 C 127.800781 18.25 127.847656 18.390625 127.847656 23.179688 C 127.847656 28.011719 127.847656 28.058594 126.632812 28.339844 C 125.835938 28.574219 125.507812 28.902344 125.601562 29.464844 C 125.742188 30.167969 126.539062 30.261719 133.234375 30.261719 C 137.355469 30.308594 141.570312 30.121094 142.554688 29.886719 C 143.816406 29.605469 144.707031 29.652344 145.457031 30.027344 C 146.957031 30.828125 148.546875 30.308594 149.53125 28.667969 C 149.953125 27.917969 150.328125 27.167969 150.328125 27.027344 C 150.328125 26.460938 148.03125 24.398438 147.378906 24.398438 C 146.582031 24.398438 145.175781 23.179688 145.175781 22.472656 C 145.175781 22.238281 145.691406 21.910156 146.394531 21.769531 C 147.238281 21.535156 147.75 21.722656 148.171875 22.285156 C 148.921875 23.320312 149.859375 22.851562 149.859375 21.394531 C 149.859375 20.410156 149.578125 20.269531 147.425781 19.988281 C 145.082031 19.660156 144.894531 19.707031 143.910156 20.972656 C 143.304688 21.675781 142.835938 22.523438 142.835938 22.757812 C 142.835938 23.742188 144.378906 25.382812 146.019531 26.179688 C 146.910156 26.601562 147.75 27.214844 147.84375 27.542969 C 148.125 28.386719 146.113281 28.808594 144.894531 28.152344 C 144.003906 27.683594 143.675781 27.683594 143.117188 28.105469 C 141.898438 29.136719 141.429688 28.199219 141.429688 24.914062 C 141.429688 22.378906 141.242188 21.535156 140.492188 20.738281 C 139.507812 19.660156 138.761719 19.519531 137.496094 19.988281 C 136.417969 20.410156 136.558594 21.300781 137.824219 21.816406 C 138.761719 22.238281 138.855469 22.617188 138.855469 25.335938 L 138.855469 28.386719 L 137.449219 28.386719 C 136.089844 28.386719 136.042969 28.292969 135.902344 25.945312 C 135.808594 24.585938 135.949219 23.132812 136.230469 22.664062 C 136.511719 22.050781 136.464844 21.535156 136.042969 20.972656 C 135.246094 19.894531 134.3125 19.988281 133.046875 21.253906 C 132.15625 22.238281 132.109375 22.425781 132.765625 22.992188 C 133.234375 23.367188 133.46875 24.398438 133.46875 25.851562 C 133.46875 27.917969 133.328125 28.152344 132.25 28.433594 C 131.59375 28.621094 130.847656 28.527344 130.613281 28.292969 C 130.378906 28.058594 130.238281 25.664062 130.285156 22.945312 C 130.425781 18.0625 130.425781 18.0625 131.78125 17.40625 C 133.09375 16.796875 133.09375 16.75 132.296875 16.140625 C 131.40625 15.484375 126.398438 15.203125 125.835938 15.8125 Z M 125.835938 15.8125 "/>
<path style=" stroke:none;fill-rule:nonzero;fill:rgb(0%,0%,0%);fill-opacity:1;" d="M 184.1875 15.8125 C 183.53125 16.046875 183.34375 17.921875 183.90625 18.441406 C 184.046875 18.628906 184.46875 18.535156 184.84375 18.203125 C 185.308594 17.828125 185.730469 17.828125 186.574219 18.25 C 188.074219 19.050781 189.664062 18.722656 190.460938 17.5 C 191.117188 16.515625 191.117188 16.421875 190.320312 16.09375 C 189.851562 15.90625 189.429688 16 189.289062 16.328125 C 189.058594 17.125 188.027344 17.03125 187.324219 16.1875 C 186.761719 15.484375 185.308594 15.34375 184.1875 15.8125 Z M 184.1875 15.8125 "/>
<path style=" stroke:none;fill-rule:nonzero;fill:rgb(0%,0%,0%);fill-opacity:1;" d="M 234.15625 16.421875 C 233.78125 17.171875 233.78125 17.59375 234.15625 18.0625 C 234.578125 18.582031 234.902344 18.582031 236.074219 17.921875 C 237.714844 16.984375 237.667969 15.765625 235.933594 15.578125 C 235.042969 15.484375 234.53125 15.71875 234.15625 16.421875 Z M 234.15625 16.421875 "/>
<path style=" stroke:none;fill-rule:nonzero;fill:rgb(0%,0%,0%);fill-opacity:1;" d="M 265.15625 16.046875 C 264.453125 16.75 265.296875 17.828125 266.515625 17.828125 C 267.3125 17.828125 267.40625 18.25 267.40625 22.898438 L 267.40625 27.964844 L 265.953125 28.480469 C 264.734375 28.949219 264.546875 29.183594 265.015625 29.746094 C 265.484375 30.261719 267.125 30.402344 273.914062 30.308594 C 278.503906 30.214844 282.484375 30.027344 282.765625 29.839844 C 283.046875 29.652344 284.171875 29.746094 285.199219 30.027344 C 287.683594 30.683594 288.480469 30.402344 289.835938 28.339844 C 290.867188 26.839844 291.007812 26.792969 291.429688 27.542969 C 292.882812 30.261719 295.503906 31.296875 297.890625 30.027344 C 299.53125 29.089844 298.96875 28.152344 296.769531 28.152344 C 293.628906 28.152344 292.179688 25.710938 293.628906 22.945312 C 294.144531 22.003906 296.160156 21.722656 296.675781 22.523438 C 297.050781 23.132812 298.640625 23.132812 299.015625 22.472656 C 299.578125 21.582031 297.328125 19.707031 295.738281 19.707031 C 293.628906 19.707031 291.335938 21.769531 291.007812 24.023438 C 290.773438 25.335938 290.492188 25.804688 289.835938 25.804688 C 289.367188 25.804688 288.855469 25.570312 288.714844 25.335938 C 288.527344 25.054688 287.683594 24.539062 286.792969 24.164062 C 285.105469 23.460938 284.6875 22.332031 285.902344 21.863281 C 286.324219 21.722656 287.027344 21.816406 287.496094 22.144531 C 288.480469 22.757812 289.882812 22.378906 289.882812 21.441406 C 289.882812 20.785156 287.355469 19.707031 285.808594 19.707031 C 284.640625 19.707031 283.328125 21.582031 283.328125 23.179688 C 283.328125 24.351562 285.246094 26.273438 286.417969 26.273438 C 286.746094 26.273438 287.261719 26.699219 287.542969 27.214844 C 287.964844 28.011719 287.871094 28.152344 286.839844 28.433594 C 286.042969 28.621094 285.339844 28.480469 284.730469 27.917969 C 283.9375 27.167969 283.84375 27.167969 283.328125 28.152344 C 282.390625 29.886719 281.453125 28.480469 281.453125 25.289062 C 281.453125 20.691406 280.050781 19.003906 277.191406 20.175781 C 276.441406 20.503906 275.507812 20.644531 275.132812 20.457031 C 274.242188 20.128906 272.089844 21.441406 272.089844 22.285156 C 272.089844 22.617188 272.414062 22.992188 272.789062 23.179688 C 273.304688 23.367188 273.492188 24.117188 273.492188 25.804688 C 273.492188 28.386719 272.976562 28.949219 270.917969 28.433594 C 269.746094 28.152344 269.746094 28.058594 269.746094 23.085938 L 269.746094 18.015625 L 271.199219 17.5 C 272.460938 16.984375 272.601562 16.796875 272.089844 16.1875 C 271.386719 15.34375 266 15.203125 265.15625 16.046875 Z M 278.363281 21.863281 C 278.925781 22.097656 279.113281 22.851562 279.113281 25.148438 C 279.113281 27.871094 279.019531 28.246094 278.082031 28.574219 C 275.695312 29.464844 274.382812 25.429688 276.117188 22.757812 C 276.910156 21.535156 277.191406 21.394531 278.363281 21.863281 Z M 278.363281 21.863281 "/>
<path style=" stroke:none;fill-rule:nonzero;fill:rgb(0%,0%,0%);fill-opacity:1;" d="M 323.882812 16.515625 C 322.804688 18.015625 322.945312 18.25 324.726562 17.96875 C 325.617188 17.828125 326.410156 17.921875 326.597656 18.25 C 327.113281 19.050781 329.457031 18.863281 330.300781 17.921875 C 331.28125 16.84375 331.328125 15.953125 330.394531 15.953125 C 330.019531 15.953125 329.691406 16.140625 329.691406 16.421875 C 329.691406 17.125 328.003906 16.984375 327.347656 16.1875 C 326.503906 15.15625 324.679688 15.34375 323.882812 16.515625 Z M 323.882812 16.515625 "/>
<path style=" stroke:none;fill-rule:nonzero;fill:rgb(0%,0%,0%);fill-opacity:1;" d="M 374.414062 16.1875 C 374.273438 16.5625 374.085938 17.21875 373.945312 17.59375 C 373.664062 18.535156 375.304688 18.535156 376.800781 17.546875 C 377.691406 16.9375 377.832031 16.609375 377.410156 16.140625 C 376.707031 15.25 374.695312 15.296875 374.414062 16.1875 Z M 374.414062 16.1875 "/>
<path style=" stroke:none;fill-rule:nonzero;fill:rgb(0%,0%,0%);fill-opacity:1;" d="M 364.953125 19.097656 C 363.597656 20.738281 363.550781 20.925781 364.203125 21.675781 C 364.765625 22.332031 364.90625 23.179688 364.71875 25.523438 C 364.484375 28.246094 364.578125 28.667969 365.515625 29.558594 C 366.265625 30.261719 366.921875 30.496094 367.578125 30.261719 C 368.699219 29.933594 368.886719 28.527344 367.855469 27.683594 C 367.390625 27.308594 367.15625 26.273438 367.15625 24.632812 C 367.15625 22.425781 367.296875 22.144531 368.417969 21.628906 L 369.730469 21.019531 L 368.652344 20.175781 C 368.089844 19.707031 367.625 18.863281 367.625 18.34375 C 367.625 16.84375 366.59375 17.171875 364.953125 19.097656 Z M 364.953125 19.097656 "/>
<path style=" stroke:none;fill-rule:nonzero;fill:rgb(0%,0%,0%);fill-opacity:1;" d="M 225.351562 19.238281 C 224.132812 20.878906 224.085938 21.394531 225.023438 21.769531 C 225.585938 21.957031 225.726562 22.757812 225.632812 25.757812 C 225.492188 29.746094 225.492188 29.746094 226.894531 30.214844 C 228.066406 30.542969 228.769531 30.074219 229.191406 28.761719 C 229.472656 27.917969 229.378906 27.824219 228.582031 28.011719 C 227.785156 28.199219 227.691406 27.964844 227.503906 25.335938 C 227.363281 22.332031 227.691406 21.582031 229.097656 21.582031 C 230.410156 21.582031 230.082031 20.222656 228.722656 19.894531 C 227.832031 19.660156 227.597656 19.332031 227.738281 18.722656 C 228.113281 17.3125 226.519531 17.640625 225.351562 19.238281 Z M 225.351562 19.238281 "/>
<path style=" stroke:none;fill-rule:nonzero;fill:rgb(0%,0%,0%);fill-opacity:1;" d="M 152.902344 21.394531 C 150.703125 23.695312 150.609375 26.226562 152.714844 28.761719 C 153.980469 30.261719 154.402344 30.496094 156.179688 30.496094 C 157.820312 30.496094 158.335938 30.261719 158.992188 29.277344 C 159.507812 28.480469 159.601562 27.871094 159.320312 27.589844 C 159.039062 27.308594 158.757812 27.308594 158.570312 27.636719 C 158.382812 27.917969 157.398438 28.152344 156.414062 28.152344 C 154.683594 28.152344 154.542969 28.058594 154.027344 26.273438 C 153.277344 23.835938 153.980469 22.050781 155.714844 22.050781 C 156.367188 22.050781 156.882812 22.238281 156.882812 22.523438 C 156.882812 22.757812 157.820312 22.992188 158.945312 22.992188 C 160.113281 22.992188 161.191406 23.226562 161.378906 23.554688 C 162.082031 24.679688 161.519531 27.871094 160.535156 28.574219 C 159.601562 29.230469 159.601562 29.277344 160.394531 29.886719 C 161.660156 30.78125 164.796875 30.683594 165.171875 29.746094 C 165.359375 29.277344 165.125 28.714844 164.65625 28.386719 C 164.003906 27.917969 163.910156 27.167969 164.003906 24.820312 C 164.144531 21.816406 164.144531 21.816406 165.5 21.910156 C 166.25 21.957031 167.328125 22.472656 167.890625 22.992188 C 168.777344 23.835938 168.917969 24.351562 168.683594 25.945312 C 168.589844 27.027344 168.171875 28.105469 167.84375 28.292969 C 166.953125 28.808594 167 29.839844 167.9375 30.214844 C 168.355469 30.355469 169.386719 30.496094 170.277344 30.496094 C 172.152344 30.496094 172.992188 29.277344 171.683594 28.527344 C 170.980469 28.152344 170.886719 27.496094 170.980469 24.257812 L 171.121094 20.410156 L 169.058594 20.269531 C 164.703125 20.035156 162.269531 20.222656 161.519531 20.878906 C 160.488281 21.816406 159.507812 21.769531 158.523438 20.644531 C 157.117188 19.097656 154.824219 19.425781 152.902344 21.394531 Z M 152.902344 21.394531 "/>
<path style=" stroke:none;fill-rule:nonzero;fill:rgb(0%,0%,0%);fill-opacity:1;" d="M 175.195312 21.300781 C 173.835938 22.710938 173.601562 23.320312 173.601562 25.101562 C 173.601562 26.839844 173.835938 27.542969 175.007812 28.761719 C 176.925781 30.828125 177.207031 31.765625 176.085938 32.46875 C 174.867188 33.21875 174.914062 34.109375 176.085938 34.484375 C 178.238281 35.191406 180.347656 33.265625 179.363281 31.484375 C 178.988281 30.734375 179.082031 30.496094 179.832031 30.261719 C 180.347656 30.121094 181 29.558594 181.234375 29.042969 C 181.890625 27.871094 182.453125 27.917969 184.140625 29.324219 C 186.011719 30.921875 187.980469 30.875 189.570312 29.136719 C 192.382812 26.132812 192.476562 25.757812 191.257812 23.320312 C 189.992188 20.878906 188.964844 20.175781 186.761719 20.222656 C 185.074219 20.222656 184.5625 20.503906 183.4375 21.863281 C 182.5 22.945312 182.078125 24.023438 182.03125 25.195312 C 181.984375 27.308594 180.953125 28.621094 179.457031 28.621094 C 176.738281 28.621094 175.054688 25.992188 176.132812 23.460938 C 176.832031 21.957031 177.863281 21.675781 179.316406 22.617188 C 180.160156 23.132812 181.703125 22.898438 181.703125 22.191406 C 181.65625 21.160156 180.160156 20.082031 178.566406 19.847656 C 176.972656 19.660156 176.601562 19.800781 175.195312 21.300781 Z M 188.214844 22.804688 C 189.945312 25.007812 189.429688 28.152344 187.324219 28.152344 C 185.542969 28.152344 184.84375 27.074219 184.84375 24.585938 C 184.84375 21.441406 186.480469 20.597656 188.214844 22.804688 Z M 188.214844 22.804688 "/>
<path style=" stroke:none;fill-rule:nonzero;fill:rgb(0%,0%,0%);fill-opacity:1;" d="M 194.675781 20.644531 C 192.429688 22.425781 192.148438 27.027344 194.160156 29.136719 C 196.035156 31.109375 198.46875 31.0625 199.96875 28.996094 L 201.046875 27.542969 L 199.921875 27.871094 C 197.253906 28.714844 194.628906 27.542969 194.910156 25.617188 C 195.050781 24.773438 195.472656 24.585938 197.859375 24.398438 C 201.234375 24.117188 201.699219 23.226562 199.59375 21.113281 C 197.90625 19.472656 196.363281 19.332031 194.675781 20.644531 Z M 197.671875 22.285156 C 197.671875 22.523438 197.347656 22.851562 196.925781 22.898438 C 195.847656 23.132812 194.722656 22.617188 195.050781 22.003906 C 195.425781 21.394531 197.671875 21.628906 197.671875 22.285156 Z M 197.671875 22.285156 "/>
<path style=" stroke:none;fill-rule:nonzero;fill:rgb(0%,0%,0%);fill-opacity:1;" d="M 202.917969 21.066406 C 202.308594 21.816406 201.839844 22.757812 201.839844 23.085938 C 201.886719 24.023438 203.433594 25.664062 204.699219 26.039062 C 206.007812 26.460938 206.992188 27.167969 206.992188 27.730469 C 206.992188 28.292969 204.324219 28.246094 203.292969 27.730469 C 202.074219 27.074219 201.140625 27.824219 201.792969 28.996094 C 202.167969 29.652344 202.964844 30.027344 204.699219 30.261719 C 206.757812 30.542969 207.179688 30.449219 208.210938 29.511719 C 210.269531 27.589844 209.148438 24.867188 205.960938 24.164062 C 204.933594 23.929688 203.808594 22.664062 204.277344 22.285156 C 204.980469 21.675781 206.476562 21.675781 206.992188 22.285156 C 207.695312 23.132812 208.726562 23.226562 209.007812 22.378906 C 209.335938 21.394531 208.773438 20.175781 207.976562 20.175781 C 207.554688 20.175781 206.476562 20.035156 205.589844 19.894531 C 204.136719 19.660156 203.808594 19.800781 202.917969 21.066406 Z M 202.917969 21.066406 "/>
<path style=" stroke:none;fill-rule:nonzero;fill:rgb(0%,0%,0%);fill-opacity:1;" d="M 216.453125 20.785156 C 214.53125 22.851562 215.609375 23.929688 218.09375 22.472656 C 219.402344 21.628906 219.589844 21.628906 220.292969 22.285156 C 220.714844 22.710938 221.042969 23.179688 221.042969 23.367188 C 220.996094 23.882812 218.699219 25.429688 217.390625 25.757812 C 215.84375 26.179688 215.1875 27.214844 215.609375 28.761719 C 215.984375 30.261719 217.484375 30.78125 219.355469 30.074219 C 220.152344 29.746094 220.949219 29.699219 221.464844 29.980469 C 223.054688 30.828125 223.382812 29.980469 223.054688 25.664062 C 222.726562 20.832031 221.980469 19.707031 219.214844 19.707031 C 218 19.707031 217.15625 20.035156 216.453125 20.785156 Z M 220.433594 26.179688 C 221.136719 26.652344 220.667969 28.621094 219.871094 28.621094 C 219.496094 28.621094 218.933594 28.480469 218.511719 28.339844 C 217.859375 28.105469 217.859375 27.964844 218.558594 26.933594 C 219.355469 25.710938 219.542969 25.617188 220.433594 26.179688 Z M 220.433594 26.179688 "/>
<path style=" stroke:none;fill-rule:nonzero;fill:rgb(0%,0%,0%);fill-opacity:1;" d="M 232.9375 20.082031 C 232.65625 20.269531 231.90625 21.160156 231.203125 22.097656 C 229.378906 24.539062 229.472656 27.027344 231.484375 28.996094 C 233.5 30.96875 235.933594 31.0625 237.621094 29.230469 C 238.746094 28.011719 238.839844 27.214844 237.808594 27.214844 C 237.527344 27.214844 237.058594 27.496094 236.777344 27.871094 C 235.558594 29.464844 231.71875 26.980469 232.46875 25.054688 C 232.703125 24.445312 233.265625 24.304688 235.324219 24.492188 C 238.136719 24.726562 239.117188 24.164062 238.652344 22.664062 C 238.089844 21.019531 234.15625 19.238281 232.9375 20.082031 Z M 235.089844 22.285156 C 235.089844 22.992188 233.078125 22.851562 232.84375 22.144531 C 232.703125 21.675781 233.03125 21.535156 233.875 21.675781 C 234.578125 21.769531 235.089844 22.003906 235.089844 22.285156 Z M 235.089844 22.285156 "/>
<path style=" stroke:none;fill-rule:nonzero;fill:rgb(0%,0%,0%);fill-opacity:1;" d="M 303.230469 20.035156 C 302.480469 20.128906 301.3125 20.597656 300.65625 21.113281 C 299.578125 21.957031 299.53125 22.003906 300.328125 22.898438 C 301.402344 24.070312 301.402344 27.589844 300.328125 28.386719 C 298.921875 29.417969 299.90625 30.496094 302.292969 30.496094 C 304.636719 30.496094 305.710938 29.371094 304.261719 28.527344 C 303.652344 28.199219 303.464844 27.402344 303.464844 25.101562 C 303.464844 22.191406 303.464844 22.097656 304.871094 21.816406 C 307.023438 21.347656 308.617188 23.039062 308.617188 25.757812 C 308.617188 27.121094 308.382812 28.011719 307.820312 28.386719 C 307.398438 28.714844 307.164062 29.277344 307.351562 29.746094 C 307.726562 30.683594 310.863281 30.78125 312.128906 29.839844 C 312.972656 29.230469 312.972656 29.183594 311.894531 28.621094 C 310.863281 28.058594 310.863281 27.871094 311.097656 24.117188 C 311.285156 20.457031 311.238281 20.175781 310.441406 20.175781 C 309.925781 20.175781 309.132812 20.457031 308.570312 20.738281 C 307.773438 21.253906 307.539062 21.207031 307.164062 20.503906 C 306.695312 19.707031 306.132812 19.660156 303.230469 20.035156 Z M 303.230469 20.035156 "/>
<path style=" stroke:none;fill-rule:nonzero;fill:rgb(0%,0%,0%);fill-opacity:1;" d="M 314.796875 21.300781 C 314 22.191406 313.253906 23.367188 313.066406 23.882812 C 312.644531 25.335938 313.582031 27.777344 315.171875 29.324219 C 316.71875 30.78125 317 32.140625 315.875 32.5625 C 314.9375 32.890625 314.984375 34.203125 315.921875 34.578125 C 316.296875 34.71875 317.1875 34.578125 317.84375 34.296875 C 318.871094 33.828125 319.011719 33.546875 318.777344 32.1875 C 318.542969 30.875 318.683594 30.542969 319.667969 30.074219 C 320.324219 29.792969 320.792969 29.183594 320.792969 28.621094 C 320.792969 27.824219 320.652344 27.730469 319.902344 28.152344 C 318.542969 28.855469 317.609375 28.714844 316.578125 27.683594 C 315.640625 26.746094 315.3125 24.351562 315.921875 22.804688 C 316.25 21.957031 318.214844 21.769531 318.683594 22.523438 C 319.105469 23.226562 321.261719 23.085938 321.261719 22.378906 C 321.261719 21.160156 319.386719 19.707031 317.796875 19.707031 C 316.578125 19.707031 315.875 20.082031 314.796875 21.300781 Z M 314.796875 21.300781 "/>
<path style=" stroke:none;fill-rule:nonzero;fill:rgb(0%,0%,0%);fill-opacity:1;" d="M 335.214844 20.269531 C 333.765625 21.488281 332.5 23.882812 332.5 25.429688 C 332.5 27.824219 334.886719 30.496094 336.996094 30.496094 C 338.027344 30.496094 338.867188 30.167969 339.382812 29.558594 C 339.851562 29.042969 340.460938 28.621094 340.789062 28.621094 C 341.539062 28.621094 341.585938 27.871094 340.882812 27.449219 C 340.648438 27.261719 340.039062 27.449219 339.570312 27.917969 C 338.355469 28.996094 336.386719 28.386719 335.261719 26.601562 C 334.1875 24.773438 334.652344 24.398438 338.261719 24.398438 C 341.820312 24.398438 342.242188 23.507812 339.851562 21.253906 C 338.074219 19.660156 336.480469 19.285156 335.214844 20.269531 Z M 337.652344 22.285156 C 337.652344 22.992188 335.636719 22.851562 335.402344 22.144531 C 335.261719 21.675781 335.589844 21.535156 336.433594 21.675781 C 337.136719 21.769531 337.652344 22.003906 337.652344 22.285156 Z M 337.652344 22.285156 "/>
<path style=" stroke:none;fill-rule:nonzero;fill:rgb(0%,0%,0%);fill-opacity:1;" d="M 343.082031 20.410156 C 341.164062 22.378906 341.773438 24.820312 344.535156 26.179688 C 346.597656 27.121094 346.972656 27.964844 345.613281 28.386719 C 344.957031 28.574219 344.300781 28.433594 343.691406 27.871094 C 342.988281 27.214844 342.664062 27.167969 342.195312 27.636719 C 341.351562 28.480469 342.382812 29.699219 344.347656 30.214844 C 346.363281 30.734375 348.234375 29.746094 348.703125 27.871094 C 349.078125 26.414062 347.53125 24.585938 345.613281 24.164062 C 344.113281 23.835938 343.363281 22.570312 344.300781 21.957031 C 345.238281 21.394531 345.988281 21.535156 346.457031 22.378906 C 347.019531 23.367188 348.421875 22.851562 348.421875 21.628906 C 348.421875 20.503906 348.234375 20.363281 345.800781 19.988281 C 344.300781 19.707031 343.691406 19.847656 343.082031 20.410156 Z M 343.082031 20.410156 "/>
<path style=" stroke:none;fill-rule:nonzero;fill:rgb(0%,0%,0%);fill-opacity:1;" d="M 356.289062 20.644531 C 354.558594 22.003906 354.605469 22.992188 356.382812 22.992188 C 357.179688 22.992188 357.789062 22.757812 357.789062 22.523438 C 357.789062 21.816406 359.988281 21.957031 360.222656 22.617188 C 360.550781 23.507812 360.128906 24.398438 359.382812 24.398438 C 358.492188 24.398438 358.539062 25.617188 359.429688 25.992188 C 359.894531 26.132812 360.128906 26.886719 360.128906 28.152344 C 360.128906 29.933594 360.222656 30.027344 361.488281 30.027344 C 363.035156 30.027344 363.734375 29.324219 363.035156 28.480469 C 362.800781 28.152344 362.472656 26.367188 362.378906 24.539062 C 362.285156 22.664062 361.957031 20.878906 361.675781 20.597656 C 361.394531 20.316406 360.363281 19.988281 359.382812 19.847656 C 357.976562 19.660156 357.273438 19.847656 356.289062 20.644531 Z M 356.289062 20.644531 "/>
<path style=" stroke:none;fill-rule:nonzero;fill:rgb(0%,0%,0%);fill-opacity:1;" d="M 373.242188 20.035156 C 371.933594 20.550781 370.574219 22.285156 370.199219 23.789062 C 369.121094 28.855469 374.132812 32.609375 377.644531 29.324219 C 378.300781 28.714844 378.863281 27.964844 378.863281 27.683594 C 378.863281 27.074219 377.597656 27.074219 377.222656 27.683594 C 377.082031 27.917969 376.238281 28.152344 375.445312 28.152344 C 373.757812 28.152344 372.304688 26.839844 372.304688 25.335938 C 372.304688 24.492188 372.632812 24.398438 375.585938 24.398438 C 378.441406 24.398438 378.863281 24.304688 378.863281 23.554688 C 378.863281 21.675781 375.070312 19.332031 373.242188 20.035156 Z M 375.117188 22.285156 C 375.117188 22.992188 373.101562 22.851562 372.867188 22.144531 C 372.726562 21.675781 373.054688 21.535156 373.898438 21.675781 C 374.601562 21.769531 375.117188 22.003906 375.117188 22.285156 Z M 375.117188 22.285156 "/>
<path style=" stroke:none;fill-rule:nonzero;fill:rgb(0%,0%,0%);fill-opacity:1;" d="M 323.648438 21.394531 C 322.804688 22.238281 322.429688 23.273438 322.289062 25.054688 C 322.105469 27.402344 322.195312 27.589844 323.789062 28.996094 C 325.992188 30.921875 327.769531 30.96875 329.785156 29.136719 C 331.1875 27.871094 331.328125 27.496094 331.28125 25.148438 C 331.28125 21.628906 329.972656 20.175781 326.925781 20.175781 C 325.242188 20.175781 324.539062 20.457031 323.648438 21.394531 Z M 328.613281 22.945312 C 329.222656 23.742188 329.410156 26.179688 328.941406 27.402344 C 328.519531 28.480469 326.316406 28.339844 325.335938 27.214844 C 323.601562 25.195312 324.914062 21.207031 327.066406 21.863281 C 327.628906 22.050781 328.285156 22.523438 328.613281 22.945312 Z M 328.613281 22.945312 "/>
<path style=" stroke:none;fill-rule:nonzero;fill:rgb(0%,0%,0%);fill-opacity:1;" d="M 85.371094 26.085938 C 85.046875 26.980469 85.980469 27.683594 87.480469 27.683594 C 88.277344 27.683594 88.511719 27.402344 88.511719 26.507812 C 88.511719 25.523438 88.277344 25.335938 87.105469 25.335938 C 86.214844 25.335938 85.558594 25.617188 85.371094 26.085938 Z M 85.371094 26.085938 "/>
<path style=" stroke:none;fill-rule:nonzero;fill:rgb(0%,0%,0%);fill-opacity:1;" d="M 355.445312 26.699219 C 354.417969 27.542969 354.371094 27.683594 354.980469 28.808594 C 355.679688 30.167969 357.179688 30.734375 358.679688 30.261719 C 359.941406 29.886719 359.941406 28.808594 358.726562 28.480469 C 357.929688 28.292969 357.835938 27.964844 358.070312 27.027344 C 358.304688 26.039062 358.210938 25.804688 357.507812 25.804688 C 356.992188 25.804688 356.101562 26.226562 355.445312 26.699219 Z M 355.445312 26.699219 "/>
<path style=" stroke:none;fill-rule:nonzero;fill:rgb(0%,0%,0%);fill-opacity:1;" d="M 22.152344 28.105469 C 19.480469 30.027344 18.59375 31.90625 18.824219 34.957031 C 19.152344 38.898438 22.199219 41.757812 26.039062 41.757812 C 27.722656 41.757812 28.425781 41.476562 29.972656 40.070312 C 31.84375 38.378906 32.40625 37.066406 31.234375 37.066406 C 30.863281 37.066406 30.113281 37.582031 29.503906 38.238281 C 28.097656 39.695312 25.148438 39.835938 23.507812 38.472656 C 21.261719 36.597656 21.261719 31.90625 23.460938 30.027344 C 25.101562 28.714844 27.722656 28.808594 29.316406 30.261719 C 30.019531 30.921875 30.863281 31.4375 31.1875 31.4375 C 31.984375 31.4375 32.40625 29.933594 32.078125 28.480469 C 31.796875 27.542969 31.46875 27.261719 30.300781 27.261719 C 29.457031 27.261719 27.769531 27.121094 26.460938 26.980469 C 24.351562 26.699219 23.929688 26.839844 22.152344 28.105469 Z M 22.152344 28.105469 "/>
<path style=" stroke:none;fill-rule:nonzero;fill:rgb(0%,0%,0%);fill-opacity:1;" d="M 42.710938 30.496094 C 41.492188 32.140625 41.445312 32.65625 42.382812 33.03125 C 42.992188 33.265625 43.085938 34.015625 42.992188 37.066406 C 42.898438 40.023438 42.992188 40.960938 43.554688 41.289062 C 44.910156 42.132812 46.035156 41.664062 46.550781 40.023438 C 46.832031 39.179688 46.738281 39.039062 45.894531 39.273438 C 44.957031 39.507812 44.910156 39.367188 45.050781 36.316406 C 45.191406 33.359375 45.285156 33.078125 46.269531 32.9375 C 47.675781 32.703125 47.582031 31.53125 46.082031 31.15625 C 45.191406 30.921875 44.957031 30.589844 45.097656 29.980469 C 45.472656 28.574219 43.878906 28.902344 42.710938 30.496094 Z M 42.710938 30.496094 "/>
<path style=" stroke:none;fill-rule:nonzero;fill:rgb(0%,0%,0%);fill-opacity:1;" d="M 34 31.953125 C 31.703125 33.78125 32.875 35.238281 35.449219 33.734375 C 36.761719 32.890625 36.949219 32.890625 37.652344 33.546875 C 38.074219 33.96875 38.402344 34.4375 38.402344 34.625 C 38.402344 35.144531 35.355469 37.066406 34.515625 37.066406 C 33.484375 37.066406 32.640625 38.753906 32.96875 40.117188 C 33.296875 41.382812 35.03125 41.945312 36.761719 41.289062 C 37.511719 41.007812 38.308594 40.960938 38.824219 41.242188 C 40.414062 42.085938 40.742188 41.242188 40.414062 36.925781 C 40.226562 33.875 39.898438 32.65625 39.246094 31.90625 C 38.074219 30.683594 35.589844 30.683594 34 31.953125 Z M 37.792969 37.441406 C 38.121094 37.628906 38.261719 38.238281 38.074219 38.847656 C 37.839844 39.929688 36.761719 40.164062 35.636719 39.460938 C 35.171875 39.132812 35.171875 38.898438 35.871094 38.050781 C 36.808594 36.972656 36.949219 36.925781 37.792969 37.441406 Z M 37.792969 37.441406 "/>
<path style=" stroke:none;fill-rule:nonzero;fill:rgb(0%,0%,0%);fill-opacity:1;" d="M 50.015625 31.53125 C 48.46875 32.84375 47.300781 35.144531 47.300781 36.925781 C 47.300781 39.273438 49.59375 41.757812 51.84375 41.757812 C 53.246094 41.757812 55.730469 39.976562 55.730469 38.945312 C 55.730469 38.238281 54.746094 38.378906 54.136719 39.226562 C 52.964844 40.820312 49.078125 38.238281 49.828125 36.363281 C 50.015625 35.847656 50.8125 35.660156 52.917969 35.660156 C 55.589844 35.660156 55.730469 35.613281 55.730469 34.53125 C 55.730469 33.171875 53.292969 30.96875 51.796875 30.96875 C 51.234375 30.96875 50.4375 31.25 50.015625 31.53125 Z M 52.449219 33.546875 C 52.449219 34.25 50.4375 34.109375 50.203125 33.40625 C 50.0625 32.9375 50.390625 32.796875 51.234375 32.9375 C 51.9375 33.03125 52.449219 33.265625 52.449219 33.546875 Z M 52.449219 33.546875 "/>
<path style=" stroke:none;fill-rule:nonzero;fill:rgb(0%,0%,0%);fill-opacity:1;" d="M 59.617188 31.296875 C 59.289062 31.390625 58.632812 32.1875 58.070312 33.078125 C 57.132812 34.578125 57.132812 34.671875 57.929688 36.082031 C 58.632812 37.253906 58.679688 37.675781 58.210938 38.425781 C 57.835938 39.039062 57.742188 39.742188 58.023438 40.445312 C 58.351562 41.335938 58.726562 41.476562 61.535156 41.523438 C 63.222656 41.570312 64.765625 41.757812 64.953125 41.898438 C 65.09375 42.085938 64.859375 42.648438 64.394531 43.167969 C 63.738281 43.917969 63.222656 44.011719 61.394531 43.777344 C 60.085938 43.589844 59.007812 43.167969 58.632812 42.601562 C 58.117188 41.898438 57.835938 41.851562 57.320312 42.273438 C 56.335938 43.074219 56.523438 43.917969 57.882812 44.996094 C 60.226562 46.824219 63.363281 46.214844 66.40625 43.308594 C 68 41.757812 66.125 39.976562 62.613281 39.789062 C 59.664062 39.648438 58.773438 38.800781 61.347656 38.566406 C 63.644531 38.332031 65.703125 36.316406 65.375 34.625 C 65.1875 33.640625 65.375 33.21875 66.125 32.796875 C 67.0625 32.28125 67.0625 32.1875 66.3125 31.671875 C 65.5625 31.109375 60.785156 30.828125 59.617188 31.296875 Z M 62.097656 33.21875 C 63.832031 34.34375 62.847656 37.441406 60.972656 36.878906 C 59.289062 36.316406 59.617188 33.125 61.347656 32.890625 C 61.488281 32.890625 61.816406 33.03125 62.097656 33.21875 Z M 62.097656 33.21875 "/>
<path style=" stroke:none;fill-rule:nonzero;fill:rgb(0%,0%,0%);fill-opacity:1;" d="M 69.964844 31.34375 C 69.730469 31.53125 68.933594 32.421875 68.234375 33.359375 C 66.40625 35.800781 66.5 37.910156 68.605469 40.070312 C 71.417969 42.976562 74.601562 41.992188 76.289062 37.675781 C 77.035156 35.847656 76.664062 34.671875 74.835938 32.5625 C 73.429688 30.96875 71.277344 30.402344 69.964844 31.34375 Z M 73.523438 34.203125 C 74.085938 35.332031 74.132812 38.003906 73.570312 38.847656 C 73.335938 39.226562 72.589844 39.414062 71.839844 39.320312 C 70.761719 39.226562 70.386719 38.847656 69.964844 37.535156 C 69.167969 35.144531 69.917969 33.3125 71.699219 33.3125 C 72.542969 33.3125 73.195312 33.640625 73.523438 34.203125 Z M 73.523438 34.203125 "/>
<path style=" stroke:none;fill-rule:nonzero;fill:rgb(0%,0%,0%);fill-opacity:1;" d="M 80.597656 31.296875 C 77.738281 31.671875 75.679688 33.734375 77.503906 34.4375 C 78.535156 34.816406 78.488281 39.226562 77.410156 39.789062 C 76.941406 40.070312 76.757812 40.539062 76.941406 41.007812 C 77.269531 41.851562 80.738281 42.085938 81.953125 41.289062 C 82.515625 40.960938 82.46875 40.726562 81.71875 39.882812 C 80.691406 38.753906 80.363281 34.71875 81.203125 33.546875 C 81.90625 32.609375 83.828125 32.984375 85.046875 34.296875 C 86.074219 35.425781 85.980469 38.992188 84.953125 39.554688 C 84.0625 40.070312 84.109375 41.101562 85.046875 41.476562 C 86.261719 41.945312 88.746094 41.804688 89.355469 41.195312 C 90.148438 40.398438 90.054688 40.023438 88.933594 39.742188 C 88.042969 39.507812 87.949219 39.226562 88.089844 35.566406 C 88.277344 31.25 87.808594 30.636719 85.558594 32.140625 C 84.484375 32.84375 84.390625 32.796875 84.15625 31.90625 C 83.921875 30.96875 83.734375 30.921875 80.597656 31.296875 Z M 80.597656 31.296875 "/>
<path style=" stroke:none;fill-rule:nonzero;fill:rgb(0%,0%,0%);fill-opacity:1;" d="M 91.320312 31.90625 C 90.804688 32.421875 90.382812 33.171875 90.382812 33.546875 C 90.382812 34.34375 92.023438 34.53125 92.492188 33.78125 C 92.632812 33.5 93.289062 33.3125 93.941406 33.3125 C 95.535156 33.3125 95.441406 34.863281 93.707031 36.082031 C 92.960938 36.644531 92.117188 37.066406 91.835938 37.066406 C 91.554688 37.066406 90.992188 37.582031 90.617188 38.191406 C 90.007812 39.085938 89.960938 39.554688 90.382812 40.304688 C 90.992188 41.476562 92.820312 42.039062 93.941406 41.382812 C 94.457031 41.101562 95.207031 41.054688 95.863281 41.335938 C 97.128906 41.804688 98.34375 41.429688 98.34375 40.585938 C 98.34375 40.257812 98.625 39.835938 98.953125 39.695312 C 99.375 39.554688 99.28125 39.273438 98.71875 38.800781 C 98.109375 38.332031 97.875 37.441406 97.875 35.894531 C 97.875 32.703125 96.519531 30.96875 94.082031 30.96875 C 92.867188 30.96875 91.929688 31.296875 91.320312 31.90625 Z M 94.832031 38.707031 C 94.832031 39.835938 94.644531 40.070312 93.894531 39.976562 C 92.445312 39.742188 92.117188 39.132812 92.820312 38.050781 C 93.707031 36.644531 94.832031 37.019531 94.832031 38.707031 Z M 94.832031 38.707031 "/>
<path style=" stroke:none;fill-rule:nonzero;fill:rgb(0%,0%,0%);fill-opacity:1;" d="M 183.671875 38.660156 C 183.4375 38.945312 183.109375 39.789062 182.96875 40.585938 C 182.875 41.335938 182.40625 43.167969 181.9375 44.574219 C 181.515625 45.980469 181.046875 48 180.90625 48.984375 C 180.769531 50.015625 180.347656 51.140625 179.972656 51.519531 C 179.269531 52.269531 179.316406 53.957031 180.066406 54.050781 C 180.722656 54.097656 181.46875 52.363281 182.875 47.625 C 183.34375 46.074219 184.1875 43.496094 184.796875 41.898438 C 185.402344 40.304688 185.917969 38.945312 185.917969 38.800781 C 185.917969 38.285156 184.046875 38.144531 183.671875 38.660156 Z M 183.671875 38.660156 "/>
<path style=" stroke:none;fill-rule:nonzero;fill:rgb(0%,0%,0%);fill-opacity:1;" d="M 323.507812 38.472656 C 323.039062 38.753906 322.570312 39.835938 322.382812 41.054688 C 322.242188 42.226562 321.917969 43.308594 321.683594 43.402344 C 321.496094 43.542969 321.167969 44.621094 320.980469 45.746094 C 320.839844 46.917969 320.511719 48 320.277344 48.140625 C 320.042969 48.28125 319.855469 49.21875 319.855469 50.203125 C 319.855469 51.472656 319.574219 52.175781 319.058594 52.503906 C 318.355469 52.878906 318.308594 53.066406 318.824219 53.582031 C 319.714844 54.472656 320.980469 53.441406 321.308594 51.472656 C 321.449219 50.53125 321.824219 49.5 322.105469 49.171875 C 322.382812 48.796875 322.757812 47.625 322.945312 46.542969 C 323.132812 45.464844 323.460938 44.433594 323.648438 44.292969 C 323.882812 44.152344 324.070312 43.683594 324.070312 43.261719 C 324.070312 42.789062 324.492188 41.664062 324.960938 40.773438 C 325.664062 39.507812 325.757812 38.945312 325.335938 38.519531 C 324.726562 37.910156 324.539062 37.910156 323.507812 38.472656 Z M 323.507812 38.472656 "/>
<path style=" stroke:none;fill-rule:nonzero;fill:rgb(0%,0%,0%);fill-opacity:1;" d="M 160.253906 40.492188 C 158.992188 41.851562 158.945312 42.695312 160.160156 42.695312 C 160.675781 42.695312 161.097656 42.460938 161.097656 42.226562 C 161.097656 41.382812 163.863281 41.710938 164.328125 42.648438 C 164.890625 43.636719 164.144531 44.480469 161.800781 45.464844 C 160.441406 46.027344 160.441406 46.074219 161.332031 46.730469 C 161.800781 47.109375 162.597656 47.390625 163.066406 47.390625 C 163.535156 47.390625 164.234375 47.90625 164.65625 48.5625 C 165.3125 49.59375 165.359375 49.96875 164.84375 50.90625 C 164.328125 51.847656 163.816406 52.082031 161.613281 52.175781 C 159.367188 52.316406 158.992188 52.457031 158.992188 53.253906 C 158.992188 54.003906 159.367188 54.238281 160.816406 54.332031 C 163.300781 54.566406 164.375 54.191406 165.921875 52.785156 C 167.609375 51.191406 167.75 47.859375 166.15625 46.683594 C 165.265625 46.074219 165.171875 45.839844 165.6875 45.136719 C 167.375 42.789062 167.421875 42.273438 166.015625 40.820312 C 164.28125 39.039062 161.753906 38.898438 160.253906 40.492188 Z M 160.253906 40.492188 "/>
<path style=" stroke:none;fill-rule:nonzero;fill:rgb(0%,0%,0%);fill-opacity:1;" d="M 172.105469 40.539062 C 168.824219 43.355469 168.777344 49.875 172.011719 53.347656 C 174.117188 55.648438 177.253906 54.050781 178.613281 50.015625 C 179.035156 48.75 179.363281 47.25 179.363281 46.730469 C 179.363281 44.902344 178.378906 42.273438 177.207031 40.820312 C 175.710938 39.085938 173.929688 38.992188 172.105469 40.539062 Z M 175.992188 42.929688 C 176.691406 44.433594 176.691406 48 176.039062 50.296875 C 175.664062 51.707031 175.335938 52.082031 174.492188 52.082031 C 173.085938 52.082031 172.339844 50.390625 172.339844 47.203125 C 172.339844 43.730469 173.085938 41.757812 174.398438 41.757812 C 175.101562 41.757812 175.664062 42.179688 175.992188 42.929688 Z M 175.992188 42.929688 "/>
<path style=" stroke:none;fill-rule:nonzero;fill:rgb(0%,0%,0%);fill-opacity:1;" d="M 188.027344 40.679688 C 186.292969 42.507812 185.917969 43.683594 185.917969 47.578125 C 185.917969 50.390625 186.105469 51.238281 186.949219 52.363281 C 188.308594 54.144531 188.730469 54.425781 190.179688 54.425781 C 191.492188 54.425781 192.757812 53.488281 194.019531 51.519531 C 195.144531 49.734375 195.144531 44.105469 194.019531 42.320312 C 191.820312 38.945312 190.132812 38.472656 188.027344 40.679688 Z M 192.054688 43.027344 C 192.992188 45.558594 193.039062 46.964844 192.242188 49.5 C 191.585938 51.613281 191.257812 52.082031 190.414062 52.082031 C 189.757812 52.082031 189.105469 51.613281 188.777344 50.953125 C 187.980469 49.5 187.933594 44.386719 188.730469 42.929688 C 189.617188 41.289062 191.398438 41.335938 192.054688 43.027344 Z M 192.054688 43.027344 "/>
<path style=" stroke:none;fill-rule:nonzero;fill:rgb(0%,0%,0%);fill-opacity:1;" d="M 197.484375 40.726562 C 196.503906 41.757812 196.222656 42.507812 196.222656 44.152344 C 196.269531 47.058594 197.578125 48.5625 200.015625 48.46875 C 201.28125 48.421875 201.839844 48.5625 201.839844 48.984375 C 201.839844 49.828125 198.84375 52.082031 197.71875 52.082031 C 196.644531 52.082031 195.566406 53.253906 195.988281 53.957031 C 196.972656 55.554688 201.328125 53.535156 203.527344 50.390625 C 204.886719 48.46875 205.121094 47.765625 205.121094 45.371094 C 205.121094 42.835938 204.980469 42.460938 203.527344 41.007812 C 201.46875 38.945312 199.3125 38.800781 197.484375 40.726562 Z M 202.261719 42.835938 C 202.589844 43.449219 202.777344 44.574219 202.683594 45.324219 C 202.589844 46.402344 202.261719 46.730469 201.28125 46.824219 C 199.03125 47.109375 197.160156 43.824219 198.65625 42.320312 C 199.640625 41.335938 201.605469 41.664062 202.261719 42.835938 Z M 202.261719 42.835938 "/>
<path style=" stroke:none;fill-rule:nonzero;fill:rgb(0%,0%,0%);fill-opacity:1;" d="M 299.8125 41.007812 C 298.171875 42.882812 297.9375 43.871094 299.015625 44.246094 C 299.390625 44.433594 300.140625 43.964844 300.84375 43.167969 C 302.292969 41.429688 303.558594 41.382812 304.636719 42.976562 C 305.386719 44.152344 305.386719 44.292969 304.542969 45.886719 C 303.230469 48.5625 300.09375 52.222656 298.828125 52.644531 C 298.40625 52.738281 298.265625 53.160156 298.453125 53.628906 C 298.6875 54.285156 299.4375 54.425781 302.949219 54.425781 C 307.164062 54.425781 307.210938 54.425781 307.914062 53.066406 C 308.570312 51.800781 308.148438 50.484375 307.445312 51.613281 C 307.070312 52.222656 301.589844 52.222656 301.589844 51.613281 C 301.589844 51.332031 301.871094 51.140625 302.199219 51.140625 C 303.089844 51.140625 305.570312 48.421875 306.742188 46.074219 C 308.476562 42.789062 306.929688 39.929688 303.277344 39.554688 C 301.496094 39.320312 301.171875 39.460938 299.8125 41.007812 Z M 299.8125 41.007812 "/>
<path style=" stroke:none;fill-rule:nonzero;fill:rgb(0%,0%,0%);fill-opacity:1;" d="M 310.863281 40.820312 C 309.738281 41.992188 309.507812 42.507812 309.785156 43.542969 C 309.925781 44.246094 310.394531 45.136719 310.769531 45.558594 C 311.613281 46.496094 311.613281 48.328125 310.769531 48.328125 C 310.019531 48.328125 309.554688 49.3125 309.554688 50.90625 C 309.554688 52.410156 312.035156 54.425781 313.90625 54.425781 C 314.703125 54.425781 316.0625 53.957031 316.90625 53.347656 C 318.167969 52.503906 318.449219 52.035156 318.449219 50.578125 C 318.449219 49.265625 318.121094 48.609375 317.046875 47.71875 C 316.296875 47.058594 315.640625 46.355469 315.640625 46.214844 C 315.640625 46.074219 316.296875 45.371094 317.046875 44.714844 C 318.824219 43.214844 318.824219 42.132812 317 40.632812 C 314.984375 38.898438 312.738281 38.992188 310.863281 40.820312 Z M 314.75 41.757812 C 315.6875 42.273438 316.015625 44.761719 315.171875 45.277344 C 314.46875 45.699219 313.113281 45.183594 312.503906 44.152344 C 312.082031 43.449219 312.082031 43.074219 312.644531 42.273438 C 313.441406 41.148438 313.535156 41.101562 314.75 41.757812 Z M 314.609375 48.1875 C 317 50.25 315.359375 53.535156 312.878906 51.753906 C 311.800781 51 311.566406 48.84375 312.457031 47.953125 C 313.207031 47.203125 313.488281 47.25 314.609375 48.1875 Z M 314.609375 48.1875 "/>
<path style=" stroke:none;fill-rule:nonzero;fill:rgb(0%,0%,0%);fill-opacity:1;" d="M 328.519531 40.679688 C 326.832031 41.804688 326.785156 41.945312 327.582031 42.507812 C 328.050781 42.882812 328.613281 43.167969 328.847656 43.167969 C 329.035156 43.167969 329.222656 45.136719 329.222656 47.578125 C 329.222656 51.613281 329.128906 52.035156 328.285156 52.316406 C 327.160156 52.691406 327.066406 53.722656 328.097656 54.144531 C 329.410156 54.660156 332.3125 54.425781 333.203125 53.769531 C 334.09375 53.113281 334.09375 53.066406 332.828125 52.503906 L 331.515625 51.894531 L 331.609375 46.074219 C 331.75 39.226562 331.421875 38.707031 328.519531 40.679688 Z M 328.519531 40.679688 "/>
<path style=" stroke:none;fill-rule:nonzero;fill:rgb(0%,0%,0%);fill-opacity:1;" d="M 338.214844 40.585938 C 334.886719 43.402344 335.214844 51.519531 338.820312 54.050781 C 339.898438 54.847656 341.867188 54.378906 343.269531 53.019531 C 345.097656 51.191406 345.613281 49.828125 345.613281 46.449219 C 345.613281 44.058594 345.425781 43.449219 344.066406 41.664062 C 342.148438 39.132812 340.320312 38.800781 338.214844 40.585938 Z M 342.242188 43.027344 C 343.269531 45.605469 343.316406 46.824219 342.570312 49.453125 C 341.914062 51.660156 341.632812 52.082031 340.695312 52.082031 C 339.851562 52.082031 339.429688 51.660156 338.820312 49.96875 C 337.558594 46.777344 338.773438 41.757812 340.742188 41.757812 C 341.398438 41.757812 341.914062 42.179688 342.242188 43.027344 Z M 342.242188 43.027344 "/>
<path style=" stroke:none;fill-rule:nonzero;fill:rgb(0%,0%,0%);fill-opacity:1;" d="M 6.460938 77.511719 C 6.367188 87.363281 6.460938 91.351562 6.882812 91.914062 C 7.164062 92.339844 7.585938 92.527344 7.773438 92.339844 C 7.914062 92.152344 8.101562 86.332031 8.148438 79.433594 L 8.195312 66.859375 L 58.539062 66.71875 C 102.605469 66.625 108.882812 66.53125 109.257812 65.921875 C 109.445312 65.546875 110.144531 65.21875 110.753906 65.21875 C 111.503906 65.21875 111.925781 64.9375 111.925781 64.515625 C 111.925781 63.90625 105.746094 63.8125 59.242188 63.8125 L 6.601562 63.8125 Z M 6.460938 77.511719 "/>
<path style=" stroke:none;fill-rule:nonzero;fill:rgb(0%,0%,0%);fill-opacity:1;" d="M 113.660156 64.140625 C 113.472656 64.28125 113.332031 70.613281 113.332031 78.214844 L 113.332031 91.960938 L 116.1875 91.960938 L 116.09375 88.539062 L 116 85.160156 L 119.042969 85.160156 C 120.777344 85.160156 122.324219 84.972656 122.558594 84.785156 C 122.742188 84.550781 122.371094 83.941406 121.621094 83.421875 C 120.589844 82.671875 120.355469 82.15625 120.355469 80.46875 C 120.355469 76.761719 121.433594 77.277344 124.617188 82.484375 C 126.445312 85.441406 126.445312 85.441406 128.457031 85.300781 C 130.894531 85.113281 131.40625 83.890625 129.347656 83.140625 C 127.847656 82.625 124.570312 78.917969 124.570312 77.746094 C 124.570312 77.371094 125.179688 76.808594 125.976562 76.574219 C 126.863281 76.246094 127.472656 75.632812 127.660156 74.789062 C 128.082031 73.195312 127.519531 72.351562 125.507812 71.269531 C 124.148438 70.519531 123.257812 70.425781 120.074219 70.660156 C 117.78125 70.847656 116.140625 70.800781 116 70.519531 C 115.8125 70.285156 115.8125 69.300781 116 68.363281 L 116.28125 66.625 L 182.171875 66.625 C 240.335938 66.625 248.15625 66.53125 248.390625 65.921875 C 248.53125 65.546875 249.1875 65.21875 249.84375 65.21875 C 250.59375 65.21875 251.015625 64.9375 251.015625 64.515625 C 251.015625 63.90625 243.101562 63.8125 182.5 63.8125 C 144.800781 63.8125 113.800781 63.953125 113.660156 64.140625 Z M 117.734375 72.539062 C 118.34375 72.773438 118.480469 73.710938 118.480469 77.886719 C 118.480469 82.578125 118.390625 83 117.546875 83.28125 C 117.03125 83.421875 116.421875 83.421875 116.140625 83.28125 C 115.859375 83.09375 115.671875 80.75 115.671875 77.605469 C 115.671875 72.023438 115.765625 71.789062 117.734375 72.539062 Z M 124.148438 73.148438 C 125.179688 73.945312 125.179688 74.132812 124.570312 75.257812 C 124.007812 76.339844 123.632812 76.480469 122.277344 76.386719 C 120.824219 76.246094 120.589844 76.058594 120.449219 74.929688 C 120.355469 74.179688 120.402344 73.289062 120.542969 72.914062 C 120.917969 71.976562 122.882812 72.117188 124.148438 73.148438 Z M 124.148438 73.148438 "/>
<path style=" stroke:none;fill-rule:nonzero;fill:rgb(0%,0%,0%);fill-opacity:1;" d="M 42.804688 69.347656 C 41.820312 70.050781 40.273438 72.445312 40.273438 73.289062 C 40.273438 73.804688 39.804688 74.601562 39.246094 75.070312 L 38.214844 75.871094 L 39.246094 76.433594 C 40.132812 76.902344 40.273438 77.371094 40.273438 79.808594 C 40.273438 82.203125 40.085938 82.8125 39.246094 83.5625 C 38.308594 84.316406 38.261719 84.503906 38.871094 84.878906 C 39.246094 85.160156 40.695312 85.253906 42.148438 85.160156 C 45.425781 84.878906 45.332031 84.878906 47.300781 85.160156 C 48.1875 85.253906 49.3125 85.253906 49.78125 85.113281 C 50.765625 84.785156 50.8125 83.703125 49.875 83.328125 C 49.3125 83.140625 49.171875 82.203125 49.171875 79.058594 C 49.171875 75.585938 49.078125 75.070312 48.375 75.070312 C 47.90625 75.070312 47.019531 75.492188 46.363281 76.011719 L 45.191406 76.902344 L 46.175781 77.980469 C 46.925781 78.824219 47.113281 79.480469 46.925781 81.078125 C 46.691406 83.421875 45.707031 84.222656 43.972656 83.375 C 42.992188 82.859375 42.851562 82.4375 42.710938 79.90625 C 42.570312 77.089844 42.617188 76.949219 43.785156 76.667969 C 45.332031 76.292969 45.285156 75.257812 43.738281 74.882812 C 42.757812 74.601562 42.570312 74.367188 42.804688 73.523438 C 42.945312 72.960938 43.085938 72.210938 43.085938 71.882812 C 43.085938 71.175781 44.253906 71.128906 45.378906 71.882812 C 46.128906 72.351562 46.597656 72.257812 47.953125 71.550781 C 49.453125 70.707031 50.203125 69.535156 49.3125 69.394531 C 47.394531 69.113281 43.179688 69.113281 42.804688 69.347656 Z M 42.804688 69.347656 "/>
<path style=" stroke:none;fill-rule:nonzero;fill:rgb(0%,0%,0%);fill-opacity:1;" d="M 68.09375 69.675781 C 67.671875 70.753906 68.515625 71.410156 70.058594 71.222656 C 71.042969 71.128906 71.417969 70.847656 71.417969 70.144531 C 71.417969 68.925781 68.515625 68.503906 68.09375 69.675781 Z M 68.09375 69.675781 "/>
<path style=" stroke:none;fill-rule:nonzero;fill:rgb(0%,0%,0%);fill-opacity:1;" d="M 104.105469 70.238281 C 102.886719 71.082031 102.699219 72.023438 103.730469 72.445312 C 104.292969 72.632812 104.433594 73.710938 104.433594 77.839844 C 104.433594 81.921875 104.292969 83 103.730469 83.234375 C 102.792969 83.5625 102.839844 84.738281 103.777344 85.113281 C 105.089844 85.628906 107.570312 85.394531 108.132812 84.738281 C 108.601562 84.222656 108.507812 83.941406 107.710938 83.375 C 106.773438 82.71875 106.726562 82.34375 106.820312 76.199219 C 106.914062 70.097656 106.867188 69.675781 106.023438 69.582031 C 105.558594 69.535156 104.667969 69.816406 104.105469 70.238281 Z M 104.105469 70.238281 "/>
<path style=" stroke:none;fill-rule:nonzero;fill:rgb(0%,0%,0%);fill-opacity:1;" d="M 133.09375 71.035156 C 130.566406 72.960938 130.425781 74.835938 132.671875 76.902344 C 133.46875 77.699219 134.3125 78.355469 134.453125 78.355469 C 134.640625 78.355469 134.734375 79.339844 134.640625 80.5625 C 134.59375 82.15625 134.359375 82.859375 133.84375 82.953125 C 133.421875 83.046875 133 82.671875 132.859375 82.109375 C 132.71875 81.59375 132.296875 81.171875 131.875 81.171875 C 130.660156 81.171875 130.984375 83.28125 132.34375 84.269531 C 133 84.738281 133.84375 85.441406 134.171875 85.722656 C 134.875 86.378906 135.808594 86.519531 135.808594 85.957031 C 135.808594 85.769531 136.558594 85.207031 137.496094 84.691406 C 140.726562 82.953125 141.195312 80.65625 138.714844 78.636719 C 135.902344 76.292969 135.339844 75.539062 135.339844 74.132812 C 135.339844 72.351562 136.371094 72.257812 137.871094 73.898438 C 139.273438 75.445312 140.023438 75.398438 140.023438 73.757812 C 140.023438 72.726562 139.554688 72.210938 137.496094 71.035156 L 135.015625 69.582031 Z M 134.640625 73.898438 C 134.640625 74.367188 134.359375 74.835938 134.078125 74.929688 C 133.703125 75.070312 133.46875 74.695312 133.46875 73.898438 C 133.46875 73.101562 133.703125 72.726562 134.078125 72.820312 C 134.359375 72.960938 134.640625 73.429688 134.640625 73.898438 Z M 137.683594 81.171875 C 137.683594 81.921875 136.371094 83.140625 135.855469 82.859375 C 135.386719 82.53125 135.574219 80.65625 136.183594 79.574219 C 136.417969 79.199219 137.683594 80.515625 137.683594 81.171875 Z M 137.683594 81.171875 "/>
<path style=" stroke:none;fill-rule:nonzero;fill:rgb(0%,0%,0%);fill-opacity:1;" d="M 273.304688 70.472656 C 271.902344 71.269531 270.214844 73.242188 270.214844 74.039062 C 270.214844 74.929688 274.851562 79.527344 276.210938 79.953125 C 277.472656 80.375 277.566406 81.921875 276.351562 82.578125 C 274.664062 83.46875 272.742188 83.140625 272.183594 81.875 C 271.480469 80.328125 270.777344 80.375 270.589844 81.96875 C 270.355469 83.988281 268.527344 83.515625 266.09375 80.84375 C 263.894531 78.355469 263.660156 76.808594 265.4375 76.574219 C 266.796875 76.386719 267.640625 74.367188 267.03125 72.914062 C 266.046875 70.800781 263.285156 70.285156 256.539062 70.800781 C 255.742188 70.894531 256.210938 72.210938 257.101562 72.492188 C 257.945312 72.773438 258.039062 73.195312 258.039062 77.652344 C 258.039062 82.390625 257.992188 82.53125 256.773438 83.421875 C 255.605469 84.269531 255.558594 84.363281 256.445312 84.832031 C 257.898438 85.582031 261.972656 85.300781 262.160156 84.410156 C 262.207031 83.988281 261.785156 83.46875 261.082031 83.140625 C 260.097656 82.671875 259.910156 82.296875 259.910156 80.46875 C 259.910156 77.277344 261.175781 77.605469 263.425781 81.265625 C 264.40625 82.90625 265.53125 84.503906 265.90625 84.785156 C 266.9375 85.628906 269.511719 85.535156 270.402344 84.691406 C 271.152344 83.890625 272.089844 83.75 272.089844 84.410156 C 272.089844 85.207031 274.664062 85.910156 275.976562 85.441406 C 278.269531 84.550781 279.582031 83 279.582031 81.21875 C 279.535156 79.808594 279.253906 79.292969 277.566406 77.980469 C 272.976562 74.460938 272.789062 74.273438 273.445312 73.476562 C 274.476562 72.257812 276.535156 72.539062 277.660156 73.992188 C 278.457031 75.117188 278.691406 75.210938 279.113281 74.601562 C 279.863281 73.429688 279.675781 72.914062 277.988281 71.648438 C 276.070312 70.144531 274.476562 69.769531 273.304688 70.472656 Z M 263.707031 73.148438 C 264.734375 73.945312 264.734375 74.132812 264.125 75.257812 C 263.566406 76.339844 263.191406 76.480469 261.832031 76.386719 C 260.285156 76.246094 260.144531 76.105469 260.003906 74.648438 C 259.769531 72.210938 261.644531 71.457031 263.707031 73.148438 Z M 263.707031 73.148438 "/>
<path style=" stroke:none;fill-rule:nonzero;fill:rgb(0%,0%,0%);fill-opacity:1;" d="M 9.507812 71.175781 C 9.320312 71.695312 9.554688 72.210938 10.210938 72.632812 C 11.144531 73.242188 11.238281 73.710938 11.238281 77.886719 C 11.238281 82.296875 11.191406 82.484375 10.023438 83.28125 C 9.039062 83.890625 8.945312 84.175781 9.414062 84.738281 C 10.257812 85.769531 15.171875 85.441406 15.359375 84.363281 C 15.453125 83.941406 15.125 83.46875 14.609375 83.328125 C 14.050781 83.140625 13.582031 82.484375 13.488281 81.59375 C 13.253906 80.046875 14.097656 79.011719 15.21875 79.480469 C 16.109375 79.808594 17.75 79.152344 18.964844 78.027344 C 19.808594 77.183594 19.996094 77.183594 20.980469 77.792969 C 22.433594 78.730469 22.480469 82.296875 20.980469 83.46875 C 19.574219 84.644531 20.277344 85.394531 22.714844 85.394531 C 26.039062 85.394531 27.160156 84.550781 25.476562 83.28125 C 24.585938 82.671875 24.304688 79.339844 24.914062 77.464844 C 25.195312 76.714844 25.570312 76.433594 26.179688 76.621094 C 27.394531 76.902344 28.285156 76.246094 27.957031 75.304688 C 27.675781 74.695312 27.253906 74.601562 25.429688 74.882812 C 24.164062 75.070312 22.761719 75.492188 22.246094 75.824219 C 20.933594 76.761719 20.605469 76.621094 20.605469 75.164062 C 20.558594 73.664062 19.714844 72.445312 17.9375 71.222656 C 16.109375 70.050781 9.929688 70.003906 9.507812 71.175781 Z M 17.234375 73.523438 C 17.515625 73.945312 17.796875 74.695312 17.796875 75.164062 C 17.796875 76.386719 16.015625 77.980469 14.84375 77.792969 C 14.003906 77.699219 13.769531 77.277344 13.582031 75.398438 C 13.394531 74.132812 13.535156 72.960938 13.816406 72.679688 C 14.425781 72.070312 16.484375 72.585938 17.234375 73.523438 Z M 17.234375 73.523438 "/>
<path style=" stroke:none;fill-rule:nonzero;fill:rgb(0%,0%,0%);fill-opacity:1;" d="M 151.453125 71.222656 C 148.125 73.148438 146.582031 75.824219 146.582031 79.621094 C 146.582031 82.625 146.675781 82.859375 148.640625 84.363281 C 150.5625 85.863281 152.199219 85.675781 153.980469 83.84375 C 155.292969 82.484375 155.480469 81.96875 155.480469 79.761719 C 155.480469 77.652344 155.246094 76.996094 154.355469 76.105469 C 153.746094 75.539062 152.714844 75.070312 152.058594 75.070312 C 149.296875 75.070312 150.796875 73.382812 154.214844 72.539062 C 155.152344 72.304688 155.480469 71.976562 155.386719 71.410156 C 155.199219 70.332031 153.230469 70.238281 151.453125 71.222656 Z M 152.011719 76.855469 C 152.292969 77.042969 152.808594 77.980469 153.136719 78.917969 C 153.699219 80.375 153.699219 80.84375 153.136719 81.875 C 152.433594 83.234375 151.03125 83.375 149.765625 82.25 C 148.78125 81.359375 148.546875 77.183594 149.53125 76.808594 C 150.375 76.433594 151.453125 76.433594 152.011719 76.855469 Z M 152.011719 76.855469 "/>
<path style=" stroke:none;fill-rule:nonzero;fill:rgb(0%,0%,0%);fill-opacity:1;" d="M 159.226562 71.316406 C 158.664062 71.835938 157.867188 72.820312 157.539062 73.476562 C 156.742188 75.023438 156.695312 80.84375 157.492188 82.25 C 158.617188 84.316406 159.882812 85.394531 161.050781 85.394531 C 162.503906 85.394531 162.832031 85.160156 164.515625 83.140625 C 165.6875 81.6875 165.78125 81.21875 165.78125 77.605469 C 165.78125 73.757812 165.734375 73.664062 164.1875 72.023438 C 162.363281 70.144531 160.816406 69.910156 159.226562 71.316406 Z M 162.785156 73.523438 C 163.582031 74.601562 163.628906 80.09375 162.878906 81.78125 C 161.988281 83.65625 160.535156 83.421875 159.554688 81.265625 C 158.570312 79.011719 158.570312 77.277344 159.507812 74.742188 C 160.347656 72.539062 161.660156 72.070312 162.785156 73.523438 Z M 162.785156 73.523438 "/>
<path style=" stroke:none;fill-rule:nonzero;fill:rgb(0%,0%,0%);fill-opacity:1;" d="M 173.976562 72.023438 C 171.261719 74.882812 171.074219 80.28125 173.601562 83.421875 C 175.523438 85.816406 177.394531 86.003906 179.222656 83.988281 C 180.8125 82.15625 181.140625 81.21875 181.1875 77.792969 C 181.234375 74.695312 180.859375 73.429688 179.222656 71.648438 C 177.535156 69.863281 175.992188 70.003906 173.976562 72.023438 Z M 178.238281 73.523438 C 179.035156 74.601562 179.082031 80.09375 178.332031 81.78125 C 177.441406 83.65625 175.992188 83.421875 175.007812 81.265625 C 174.023438 79.011719 174.023438 77.277344 174.960938 74.742188 C 175.804688 72.539062 177.113281 72.070312 178.238281 73.523438 Z M 178.238281 73.523438 "/>
<path style=" stroke:none;fill-rule:nonzero;fill:rgb(0%,0%,0%);fill-opacity:1;" d="M 184.890625 71.789062 L 183.34375 73.195312 L 183.34375 77.886719 C 183.34375 82.390625 183.390625 82.578125 184.703125 83.941406 C 185.589844 84.832031 186.574219 85.394531 187.324219 85.394531 C 188.636719 85.394531 191.070312 83.65625 191.070312 82.71875 C 191.070312 82.4375 191.304688 82.109375 191.632812 82.015625 C 192.242188 81.78125 192.757812 76.667969 192.335938 74.976562 C 192.148438 74.367188 191.351562 73.101562 190.507812 72.117188 C 188.542969 69.957031 187.042969 69.863281 184.890625 71.789062 Z M 189.429688 75.304688 C 190.132812 77.652344 190.132812 78.027344 189.382812 80.46875 C 188.730469 82.53125 188.355469 83.046875 187.558594 83.046875 C 186.105469 83.046875 185.214844 81.03125 185.261719 77.792969 C 185.308594 74.460938 186.152344 72.726562 187.605469 72.726562 C 188.542969 72.726562 188.824219 73.148438 189.429688 75.304688 Z M 189.429688 75.304688 "/>
<path style=" stroke:none;fill-rule:nonzero;fill:rgb(0%,0%,0%);fill-opacity:1;" d="M 286.605469 71.410156 C 286.089844 71.976562 285.667969 72.679688 285.667969 73.007812 C 285.667969 73.898438 286.933594 74.132812 287.542969 73.382812 C 287.917969 72.960938 288.992188 72.726562 290.398438 72.726562 C 292.882812 72.726562 292.929688 72.773438 292.226562 74.039062 C 291.335938 75.632812 289.882812 79.246094 289.882812 79.859375 C 289.882812 80.234375 289.460938 81.3125 288.945312 82.34375 C 288.011719 84.222656 288.292969 85.394531 289.695312 85.394531 C 290.398438 85.394531 292.226562 81.734375 292.226562 80.28125 C 292.226562 79.761719 292.414062 79.246094 292.648438 79.105469 C 292.882812 78.917969 293.207031 77.980469 293.394531 76.949219 C 293.582031 75.917969 293.863281 74.976562 294.097656 74.835938 C 294.285156 74.695312 294.613281 73.851562 294.800781 72.914062 C 295.175781 70.707031 294.707031 70.378906 290.726562 70.378906 C 288.105469 70.378906 287.402344 70.566406 286.605469 71.410156 Z M 286.605469 71.410156 "/>
<path style=" stroke:none;fill-rule:nonzero;fill:rgb(0%,0%,0%);fill-opacity:1;" d="M 299.015625 71.648438 C 297.28125 73.476562 296.910156 74.648438 296.910156 78.542969 C 296.910156 81.359375 297.097656 82.203125 297.9375 83.328125 C 299.296875 85.113281 299.71875 85.394531 301.171875 85.394531 C 304.917969 85.394531 307.914062 77.230469 305.433594 73.664062 C 302.949219 70.003906 301.125 69.441406 299.015625 71.648438 Z M 302.902344 73.992188 C 303.886719 76.621094 303.933594 77.933594 303.230469 80.46875 C 302.621094 82.53125 302.246094 83.046875 301.496094 83.046875 C 300.984375 83.046875 300.234375 82.671875 299.90625 82.203125 C 299.109375 81.171875 299.0625 74.929688 299.8125 73.664062 C 300.703125 72.257812 302.292969 72.445312 302.902344 73.992188 Z M 302.902344 73.992188 "/>
<path style=" stroke:none;fill-rule:nonzero;fill:rgb(0%,0%,0%);fill-opacity:1;" d="M 314.140625 71.742188 C 312.972656 72.773438 312.597656 73.570312 312.410156 75.351562 C 311.941406 79.386719 312.503906 82.390625 314 83.988281 C 316.25 86.332031 318.730469 85.675781 320.511719 82.25 C 321.542969 80.1875 321.542969 74.976562 320.464844 73.289062 C 318.402344 70.050781 316.53125 69.582031 314.140625 71.742188 Z M 318.496094 73.992188 C 319.433594 76.527344 319.480469 77.933594 318.683594 80.46875 C 318.074219 82.484375 317.703125 83.046875 316.953125 83.046875 C 316.390625 83.046875 315.6875 82.671875 315.359375 82.203125 C 314.5625 81.171875 314.515625 74.929688 315.265625 73.664062 C 316.15625 72.257812 317.890625 72.445312 318.496094 73.992188 Z M 318.496094 73.992188 "/>
<path style=" stroke:none;fill-rule:nonzero;fill:rgb(0%,0%,0%);fill-opacity:1;" d="M 324.914062 71.410156 C 324.304688 72.023438 323.554688 73.101562 323.226562 73.804688 C 322.476562 75.539062 322.523438 80.890625 323.273438 82.25 C 325.289062 85.863281 327.394531 86.378906 329.972656 83.796875 C 331.5625 82.203125 331.5625 82.15625 331.5625 77.933594 C 331.5625 73.710938 331.5625 73.664062 329.972656 72.023438 C 328.097656 70.097656 326.597656 69.910156 324.914062 71.410156 Z M 328.566406 73.523438 C 329.363281 74.601562 329.410156 80.09375 328.660156 81.78125 C 327.769531 83.65625 326.316406 83.421875 325.335938 81.265625 C 324.351562 79.011719 324.351562 77.277344 325.289062 74.742188 C 326.132812 72.539062 327.441406 72.070312 328.566406 73.523438 Z M 328.566406 73.523438 "/>
<path style=" stroke:none;fill-rule:nonzero;fill:rgb(0%,0%,0%);fill-opacity:1;" d="M 30.066406 76.011719 C 27.535156 78.496094 27.535156 82.109375 30.066406 84.222656 C 32.078125 85.957031 34.09375 85.816406 36.058594 83.75 C 37.324219 82.4375 37.605469 81.78125 37.652344 80.046875 C 37.699219 78.261719 37.464844 77.699219 36.105469 76.292969 C 34 74.085938 32.03125 73.992188 30.066406 76.011719 Z M 34.890625 78.542969 C 35.636719 79.90625 35.683594 80.328125 35.125 81.59375 C 34.65625 82.71875 34.234375 83.046875 33.25 83.046875 C 31.796875 83.046875 31.144531 82.4375 30.675781 80.703125 C 29.785156 77.183594 33.203125 75.445312 34.890625 78.542969 Z M 34.890625 78.542969 "/>
<path style=" stroke:none;fill-rule:nonzero;fill:rgb(0%,0%,0%);fill-opacity:1;" d="M 52.261719 75.777344 C 51.140625 77.464844 51.328125 79.058594 52.730469 80.1875 C 53.433594 80.75 54.277344 81.171875 54.605469 81.171875 C 54.933594 81.171875 55.449219 81.59375 55.730469 82.109375 C 56.148438 82.90625 56.058594 83.046875 55.027344 83.328125 C 54.230469 83.515625 53.527344 83.375 52.964844 82.859375 C 52.074219 82.015625 51.515625 82.296875 51.515625 83.5625 C 51.515625 84.597656 51.75 84.738281 54.089844 85.113281 C 55.730469 85.394531 56.195312 85.253906 57.273438 84.269531 C 59.429688 82.25 58.773438 80.609375 55.167969 79.152344 C 53.339844 78.402344 52.824219 77.277344 54.089844 76.761719 C 54.511719 76.621094 55.214844 76.714844 55.683594 77.042969 C 56.664062 77.652344 58.070312 77.277344 58.070312 76.339844 C 58.070312 75.679688 55.542969 74.601562 53.996094 74.601562 C 53.480469 74.601562 52.683594 75.117188 52.261719 75.777344 Z M 52.261719 75.777344 "/>
<path style=" stroke:none;fill-rule:nonzero;fill:rgb(0%,0%,0%);fill-opacity:1;" d="M 60.457031 75.492188 C 59.898438 76.058594 59.476562 77.089844 59.476562 77.792969 C 59.476562 79.246094 60.316406 80.1875 62.519531 81.21875 C 63.316406 81.59375 63.925781 82.203125 63.925781 82.578125 C 63.925781 83.5625 62.378906 83.75 61.394531 82.859375 C 60.457031 82.015625 59.945312 82.296875 59.945312 83.609375 C 59.945312 84.503906 61.582031 85.394531 63.222656 85.394531 C 64.625 85.394531 66.078125 83.515625 65.9375 81.96875 C 65.84375 80.9375 65.328125 80.375 63.925781 79.574219 C 61.160156 78.121094 60.644531 77.230469 62.332031 76.714844 C 62.941406 76.527344 63.597656 76.667969 64.113281 77.136719 C 65.234375 78.167969 65.5625 78.074219 65.5625 76.761719 C 65.5625 75.398438 65.375 75.257812 63.128906 74.835938 C 61.769531 74.554688 61.253906 74.695312 60.457031 75.492188 Z M 60.457031 75.492188 "/>
<path style=" stroke:none;fill-rule:nonzero;fill:rgb(0%,0%,0%);fill-opacity:1;" d="M 75.257812 75.585938 C 72.636719 77.605469 72.636719 82.390625 75.257812 84.457031 C 77.175781 85.957031 79.238281 85.675781 80.972656 83.75 C 82.1875 82.34375 82.421875 81.6875 82.421875 79.761719 C 82.421875 77.699219 82.234375 77.230469 80.925781 76.011719 C 79.050781 74.367188 76.988281 74.179688 75.257812 75.585938 Z M 79.847656 78.355469 C 80.972656 80.5625 80.503906 82.4375 78.628906 83.140625 C 76.664062 83.890625 74.648438 80.140625 75.820312 77.933594 C 76.664062 76.386719 78.957031 76.621094 79.847656 78.355469 Z M 79.847656 78.355469 "/>
<path style=" stroke:none;fill-rule:nonzero;fill:rgb(0%,0%,0%);fill-opacity:1;" d="M 88.183594 74.929688 C 87.246094 75.304688 87.480469 76.199219 88.652344 76.714844 C 89.585938 77.136719 89.679688 77.511719 89.679688 80.234375 L 89.679688 83.28125 L 88.277344 83.28125 C 86.917969 83.28125 86.871094 83.1875 86.730469 80.84375 C 86.636719 79.480469 86.777344 78.027344 87.058594 77.558594 C 87.339844 76.949219 87.292969 76.433594 86.871094 75.871094 C 86.121094 74.835938 85.09375 74.835938 84.0625 76.011719 C 83.265625 76.902344 83.359375 78.355469 84.296875 78.355469 C 85.1875 78.355469 84.8125 82.0625 83.828125 83.046875 C 82.75 84.128906 82.65625 84.738281 83.5 85.066406 C 84.25 85.347656 93.101562 85.066406 93.613281 84.691406 C 93.847656 84.550781 94.597656 84.691406 95.207031 84.972656 C 96.050781 85.347656 96.613281 85.347656 97.410156 84.925781 L 98.484375 84.363281 L 97.410156 83.515625 C 96.660156 82.953125 96.425781 82.4375 96.707031 81.734375 C 96.941406 80.9375 96.800781 80.703125 96.097656 80.703125 C 95.113281 80.703125 93.660156 82.0625 93.660156 83 C 93.660156 83.328125 93.382812 83.515625 93.101562 83.421875 C 92.726562 83.28125 92.398438 81.921875 92.257812 79.859375 C 91.929688 75.445312 90.664062 73.898438 88.183594 74.929688 Z M 88.183594 74.929688 "/>
<path style=" stroke:none;fill-rule:nonzero;fill:rgb(0%,0%,0%);fill-opacity:1;" d="M 95.066406 75.539062 C 93.753906 76.855469 93.847656 77.886719 95.300781 77.886719 C 95.957031 77.886719 96.472656 77.652344 96.472656 77.417969 C 96.472656 76.667969 98.671875 76.902344 99 77.699219 C 99.375 78.636719 98.953125 79.292969 98.0625 79.292969 C 97.6875 79.292969 97.410156 79.621094 97.410156 80 C 97.410156 80.375 97.734375 80.703125 98.109375 80.703125 C 98.484375 80.703125 98.8125 80.984375 98.859375 81.265625 C 98.859375 81.59375 98.953125 82.484375 98.953125 83.28125 C 99.046875 84.503906 99.234375 84.691406 100.59375 84.832031 C 101.855469 84.972656 102.089844 84.832031 102.089844 84.035156 C 102.089844 83.46875 101.902344 83.046875 101.625 83.046875 C 101.34375 83.046875 101.15625 81.640625 101.15625 79.761719 C 101.15625 75.871094 100.3125 74.601562 97.644531 74.601562 C 96.613281 74.601562 95.628906 74.976562 95.066406 75.539062 Z M 95.066406 75.539062 "/>
<path style=" stroke:none;fill-rule:nonzero;fill:rgb(0%,0%,0%);fill-opacity:1;" d="M 68.046875 75.871094 C 66.828125 76.714844 66.640625 77.652344 67.671875 78.074219 C 68.699219 78.449219 68.652344 82.859375 67.578125 83.421875 C 67.109375 83.703125 66.921875 84.175781 67.15625 84.691406 C 67.390625 85.347656 67.859375 85.488281 69.777344 85.300781 C 72.730469 85.019531 73.101562 84.644531 71.699219 83.5625 C 70.621094 82.71875 70.574219 82.53125 70.902344 78.871094 C 71.183594 75.117188 71.183594 75.070312 70.152344 75.117188 C 69.542969 75.117188 68.605469 75.445312 68.046875 75.871094 Z M 68.046875 75.871094 "/>
<path style=" stroke:none;fill-rule:nonzero;fill:rgb(0%,0%,0%);fill-opacity:1;" d="M 167.28125 83.609375 C 166.390625 84.503906 166.625 84.878906 168.265625 85.300781 L 169.761719 85.722656 L 168.496094 86.238281 C 167 86.847656 166.8125 87.503906 167.984375 87.925781 C 169.011719 88.351562 170.933594 86.472656 170.933594 85.113281 C 170.933594 83.421875 168.449219 82.4375 167.28125 83.609375 Z M 167.28125 83.609375 "/>
<path style=" stroke:none;fill-rule:nonzero;fill:rgb(0%,0%,0%);fill-opacity:1;" d="M 307.164062 83.796875 C 306.695312 84.410156 306.695312 84.597656 307.257812 84.972656 C 307.632812 85.207031 308.195312 85.394531 308.523438 85.394531 C 308.804688 85.394531 309.085938 85.582031 309.085938 85.863281 C 309.085938 86.097656 308.664062 86.332031 308.148438 86.332031 C 307.632812 86.332031 307.210938 86.660156 307.210938 87.035156 C 307.210938 88.117188 309.507812 87.878906 310.441406 86.707031 C 311.191406 85.816406 311.191406 85.582031 310.628906 84.363281 C 309.878906 82.859375 308.195312 82.578125 307.164062 83.796875 Z M 307.164062 83.796875 "/>
<path style=" stroke:none;fill-rule:nonzero;fill:rgb(0%,0%,0%);fill-opacity:1;" d="M 6.648438 109.652344 C 6.789062 121.945312 6.882812 124.570312 7.445312 124.570312 C 7.960938 124.570312 8.101562 122.226562 8.148438 111.199219 L 8.195312 97.828125 L 58.539062 97.6875 C 102.605469 97.59375 108.882812 97.5 109.257812 96.890625 C 109.445312 96.515625 110.144531 96.183594 110.753906 96.183594 C 111.503906 96.183594 111.925781 95.902344 111.925781 95.480469 C 111.925781 94.871094 105.746094 94.777344 59.242188 94.777344 L 6.554688 94.777344 Z M 6.648438 109.652344 "/>
<path style=" stroke:none;fill-rule:nonzero;fill:rgb(0%,0%,0%);fill-opacity:1;" d="M 113.660156 95.105469 C 113.472656 95.246094 113.332031 101.910156 113.332031 109.839844 C 113.332031 122.179688 113.425781 124.289062 114.035156 124.523438 C 115.765625 125.183594 116.234375 124.335938 116.046875 120.867188 L 115.90625 117.535156 L 119.042969 117.535156 C 120.730469 117.535156 122.324219 117.347656 122.558594 117.160156 C 122.742188 116.925781 122.371094 116.3125 121.621094 115.796875 C 120.589844 115.046875 120.355469 114.53125 120.355469 112.84375 C 120.355469 109.136719 121.433594 109.652344 124.617188 114.859375 C 126.445312 117.816406 126.445312 117.816406 128.457031 117.675781 C 130.894531 117.488281 131.40625 116.265625 129.347656 115.515625 C 127.847656 115 124.570312 111.292969 124.570312 110.121094 C 124.570312 109.699219 125.085938 109.230469 125.742188 109.042969 C 126.398438 108.902344 127.144531 108.382812 127.378906 107.914062 C 128.269531 106.226562 127.894531 105.148438 126.023438 103.925781 C 124.335938 102.800781 123.960938 102.707031 120.214844 102.988281 C 118.015625 103.128906 116.140625 103.082031 116.046875 102.894531 C 115.90625 102.707031 115.90625 101.394531 116.046875 100.03125 L 116.234375 97.59375 L 182.171875 97.59375 C 240.335938 97.59375 248.15625 97.5 248.390625 96.890625 C 248.53125 96.515625 249.1875 96.183594 249.84375 96.183594 C 250.59375 96.183594 251.015625 95.902344 251.015625 95.480469 C 251.015625 94.871094 243.101562 94.777344 182.5 94.777344 C 144.800781 94.777344 113.800781 94.917969 113.660156 95.105469 Z M 117.734375 104.914062 C 118.34375 105.148438 118.480469 106.085938 118.480469 110.261719 C 118.480469 114.953125 118.390625 115.375 117.546875 115.65625 C 117.03125 115.796875 116.421875 115.796875 116.140625 115.65625 C 115.625 115.328125 115.484375 105.476562 116 104.960938 C 116.375 104.539062 116.796875 104.539062 117.734375 104.914062 Z M 124.148438 105.523438 C 125.179688 106.320312 125.179688 106.507812 124.570312 107.632812 C 124.007812 108.714844 123.632812 108.855469 122.277344 108.761719 C 120.824219 108.621094 120.589844 108.429688 120.449219 107.304688 C 120.355469 106.554688 120.402344 105.664062 120.542969 105.289062 C 120.917969 104.347656 122.882812 104.492188 124.148438 105.523438 Z M 124.148438 105.523438 "/>
<path style=" stroke:none;fill-rule:nonzero;fill:rgb(0%,0%,0%);fill-opacity:1;" d="M 51.980469 102.800781 L 50.8125 103.738281 L 51.890625 104.492188 C 52.449219 104.867188 52.917969 105.710938 52.917969 106.320312 C 52.917969 107.257812 52.730469 107.398438 51.140625 107.304688 C 48.46875 107.210938 47.160156 108.761719 46.925781 112.277344 C 46.738281 114.765625 46.832031 115.140625 48.046875 116.40625 C 49.3125 117.722656 49.546875 117.816406 51.980469 117.488281 C 53.386719 117.347656 54.933594 116.878906 55.355469 116.5 C 56.058594 115.84375 56.289062 115.890625 57.414062 116.785156 C 58.914062 117.957031 59.289062 118.003906 61.019531 117.113281 C 61.722656 116.738281 62.285156 116.59375 62.285156 116.878906 C 62.285156 117.113281 62.800781 117.300781 63.457031 117.300781 C 64.113281 117.300781 64.625 117.066406 64.625 116.785156 C 64.625 116.40625 64.859375 116.40625 65.328125 116.832031 C 66.078125 117.441406 75.539062 117.769531 76.148438 117.160156 C 76.335938 116.972656 76.148438 116.453125 75.726562 115.984375 C 75.164062 115.375 74.929688 114.296875 74.929688 112.464844 C 74.929688 108.101562 73.242188 106.085938 70.761719 107.398438 C 70.246094 107.679688 69.308594 107.820312 68.746094 107.679688 C 68.09375 107.539062 67.203125 107.773438 66.5 108.335938 C 65.421875 109.230469 65.375 109.277344 66.171875 110.167969 C 66.6875 110.730469 66.96875 111.808594 66.96875 113.21875 C 66.96875 114.953125 66.78125 115.421875 65.984375 115.65625 C 64.625 116.125 64.4375 115.75 64.253906 112.136719 C 64.019531 108.335938 63.082031 106.976562 60.691406 106.976562 C 59.148438 106.976562 57.132812 108.527344 57.132812 109.699219 C 57.132812 110.449219 58.585938 110.402344 59.617188 109.558594 C 61.441406 108.195312 62.988281 110.261719 61.253906 111.714844 C 60.316406 112.464844 60.269531 112.65625 60.878906 113.078125 C 61.253906 113.3125 61.722656 113.59375 61.910156 113.640625 C 62.097656 113.734375 62.144531 114.25 62.003906 114.8125 C 61.675781 115.9375 60.644531 116.171875 59.523438 115.46875 C 58.960938 115.09375 58.914062 114.90625 59.476562 114.296875 C 60.457031 113.078125 59.570312 112.796875 57.835938 113.734375 C 55.308594 115.140625 55.074219 114.671875 55.449219 107.867188 L 55.777344 101.816406 L 54.464844 101.816406 C 53.761719 101.816406 52.636719 102.285156 51.980469 102.800781 Z M 52.636719 109.605469 C 52.777344 110.027344 52.917969 111.246094 52.917969 112.371094 C 52.917969 116.03125 52.167969 116.691406 49.921875 114.90625 C 48.375 113.6875 48.234375 111.199219 49.640625 109.792969 C 50.765625 108.667969 52.261719 108.574219 52.636719 109.605469 Z M 71.839844 109.136719 C 72.402344 109.371094 72.589844 110.121094 72.589844 112.417969 C 72.589844 115.140625 72.496094 115.515625 71.558594 115.84375 C 69.964844 116.453125 68.839844 115.234375 68.839844 112.984375 C 68.839844 111.949219 69.214844 110.636719 69.683594 110.027344 C 70.574219 108.808594 70.714844 108.714844 71.839844 109.136719 Z M 71.839844 109.136719 "/>
<path style=" stroke:none;fill-rule:nonzero;fill:rgb(0%,0%,0%);fill-opacity:1;" d="M 134.40625 102.144531 C 134.40625 102.332031 133.65625 103.035156 132.765625 103.644531 C 130.519531 105.148438 130.472656 107.257812 132.671875 109.277344 C 133.46875 110.074219 134.265625 110.730469 134.40625 110.730469 C 134.546875 110.730469 134.640625 111.714844 134.640625 112.9375 C 134.59375 114.578125 134.359375 115.234375 133.84375 115.328125 C 133.421875 115.421875 133 115.046875 132.859375 114.484375 C 132.71875 113.96875 132.296875 113.546875 131.875 113.546875 C 130.660156 113.546875 130.984375 115.65625 132.34375 116.640625 C 133 117.113281 133.84375 117.816406 134.171875 118.144531 C 134.921875 118.800781 135.808594 118.894531 135.808594 118.285156 C 135.808594 118.050781 136.230469 117.722656 136.699219 117.535156 C 138.152344 117.066406 140.492188 114.671875 140.492188 113.640625 C 140.492188 113.078125 139.835938 112.089844 139.042969 111.339844 C 138.246094 110.636719 137.121094 109.558594 136.464844 108.996094 C 135.761719 108.335938 135.339844 107.445312 135.339844 106.507812 C 135.339844 104.726562 136.371094 104.632812 137.871094 106.273438 C 139.273438 107.820312 140.023438 107.773438 140.023438 106.132812 C 140.023438 105.101562 139.601562 104.632812 137.589844 103.457031 C 134.5 101.675781 134.40625 101.675781 134.40625 102.144531 Z M 134.640625 106.273438 C 134.640625 106.742188 134.359375 107.210938 134.078125 107.304688 C 133.703125 107.445312 133.46875 107.070312 133.46875 106.273438 C 133.46875 105.476562 133.703125 105.101562 134.078125 105.195312 C 134.359375 105.335938 134.640625 105.804688 134.640625 106.273438 Z M 137.683594 113.546875 C 137.683594 114.296875 136.371094 115.515625 135.855469 115.234375 C 135.386719 114.90625 135.574219 113.03125 136.183594 111.949219 C 136.417969 111.574219 137.683594 112.890625 137.683594 113.546875 Z M 137.683594 113.546875 "/>
<path style=" stroke:none;fill-rule:nonzero;fill:rgb(0%,0%,0%);fill-opacity:1;" d="M 273.304688 102.847656 C 271.902344 103.644531 270.214844 105.617188 270.214844 106.414062 C 270.214844 107.351562 274.898438 111.996094 276.070312 112.230469 C 277.285156 112.417969 277.566406 114.015625 276.488281 114.8125 C 276.023438 115.140625 274.992188 115.421875 274.195312 115.421875 C 273.070312 115.421875 272.554688 115.140625 272.183594 114.25 C 271.433594 112.65625 270.683594 112.796875 270.683594 114.53125 C 270.683594 115.890625 270.589844 115.984375 269.417969 115.703125 C 267.734375 115.328125 264.03125 111.292969 264.21875 110.027344 C 264.3125 109.464844 264.78125 109.042969 265.4375 108.949219 C 266.46875 108.808594 267.40625 107.304688 267.40625 105.757812 C 267.40625 105.429688 266.609375 104.585938 265.625 103.925781 C 263.847656 102.753906 262.535156 102.660156 256.539062 103.175781 C 255.742188 103.269531 256.210938 104.585938 257.101562 104.867188 C 257.945312 105.148438 258.039062 105.570312 258.039062 110.074219 C 258.039062 114.4375 257.945312 115 257.101562 115.515625 C 255.042969 116.832031 256.257812 117.769531 259.910156 117.628906 C 262.347656 117.535156 263.003906 116.40625 261.082031 115.515625 C 260.097656 115.046875 259.910156 114.671875 259.910156 112.84375 C 259.910156 109.652344 261.175781 109.980469 263.425781 113.640625 C 264.40625 115.28125 265.53125 116.878906 265.90625 117.160156 C 266.9375 118.003906 269.511719 117.910156 270.402344 117.066406 C 271.152344 116.265625 272.089844 116.125 272.089844 116.785156 C 272.089844 117.628906 274.898438 118.378906 276.070312 117.863281 C 279.910156 116.125 280.796875 112.84375 277.988281 110.730469 C 274.054688 107.726562 272.929688 106.507812 273.492188 105.804688 C 274.476562 104.632812 276.582031 104.960938 277.660156 106.367188 C 278.457031 107.492188 278.691406 107.585938 279.113281 106.976562 C 279.910156 105.757812 279.582031 104.914062 277.894531 103.832031 C 275.742188 102.425781 274.429688 102.144531 273.304688 102.847656 Z M 263.707031 105.523438 C 264.734375 106.320312 264.734375 106.507812 264.171875 107.632812 C 263.519531 108.855469 262.253906 109.183594 260.660156 108.574219 C 259.769531 108.242188 259.632812 105.289062 260.519531 104.960938 C 261.644531 104.492188 262.628906 104.632812 263.707031 105.523438 Z M 263.707031 105.523438 "/>
<path style=" stroke:none;fill-rule:nonzero;fill:rgb(0%,0%,0%);fill-opacity:1;" d="M 9.414062 103.363281 C 8.804688 103.972656 9.601562 105.101562 10.582031 105.101562 C 11.097656 105.101562 11.238281 106.179688 11.238281 110.261719 C 11.238281 114.34375 11.097656 115.421875 10.582031 115.421875 C 10.257812 115.421875 9.695312 115.75 9.320312 116.171875 C 8.335938 117.394531 9.507812 117.675781 15.125 117.628906 C 19.199219 117.535156 20.324219 117.394531 20.605469 116.832031 C 20.792969 116.453125 21.167969 115.609375 21.496094 115 C 22.339844 113.40625 21.496094 112.890625 20.089844 114.203125 C 18.917969 115.28125 15.125 116.078125 14.050781 115.421875 C 13.722656 115.234375 13.582031 114.203125 13.675781 112.796875 C 13.816406 110.683594 13.910156 110.496094 15.125 110.355469 C 15.875 110.261719 16.953125 110.542969 17.5625 110.917969 C 19.105469 111.949219 19.199219 111.902344 19.199219 109.886719 C 19.199219 107.632812 18.917969 107.304688 17.5625 108.195312 C 16.953125 108.621094 15.875 108.855469 15.125 108.761719 C 13.957031 108.621094 13.816406 108.429688 13.816406 106.742188 L 13.816406 104.867188 L 16.390625 105.054688 C 17.796875 105.101562 19.246094 105.429688 19.574219 105.710938 C 20.042969 106.085938 20.324219 106.039062 20.652344 105.523438 C 21.214844 104.585938 21.167969 103.878906 20.417969 103.269531 C 19.621094 102.613281 10.117188 102.660156 9.414062 103.363281 Z M 9.414062 103.363281 "/>
<path style=" stroke:none;fill-rule:nonzero;fill:rgb(0%,0%,0%);fill-opacity:1;" d="M 147.609375 103.832031 C 146.347656 105.195312 146.300781 106.039062 147.519531 106.039062 C 148.03125 106.039062 148.453125 105.804688 148.453125 105.570312 C 148.453125 104.726562 151.21875 105.054688 151.6875 105.992188 C 152.246094 106.976562 151.359375 108.054688 149.53125 108.574219 C 147.984375 109.042969 148.21875 110.214844 149.90625 110.589844 C 151.917969 110.964844 152.996094 112.75 152.199219 114.25 C 151.6875 115.1875 151.171875 115.421875 148.96875 115.515625 C 146.722656 115.65625 146.347656 115.796875 146.347656 116.59375 C 146.347656 117.394531 146.722656 117.535156 148.921875 117.675781 C 151.265625 117.769531 151.640625 117.628906 153.042969 116.359375 C 154.308594 115.140625 154.542969 114.578125 154.542969 112.84375 C 154.542969 111.246094 154.308594 110.636719 153.605469 110.261719 C 153.089844 109.980469 152.667969 109.558594 152.667969 109.277344 C 152.667969 108.996094 153.089844 108.242188 153.605469 107.585938 C 154.777344 106.039062 154.777344 105.945312 153.324219 104.207031 C 151.777344 102.332031 149.15625 102.191406 147.609375 103.832031 Z M 147.609375 103.832031 "/>
<path style=" stroke:none;fill-rule:nonzero;fill:rgb(0%,0%,0%);fill-opacity:1;" d="M 158.945312 103.832031 C 158.429688 104.398438 157.632812 105.664062 157.164062 106.648438 C 155.292969 110.730469 157.726562 117.769531 161.003906 117.769531 C 162.503906 117.769531 162.832031 117.535156 164.515625 115.515625 C 165.6875 114.0625 165.78125 113.59375 165.78125 109.980469 C 165.78125 106.132812 165.734375 106.039062 164.1875 104.398438 C 162.269531 102.425781 160.394531 102.238281 158.945312 103.832031 Z M 162.785156 105.898438 C 163.582031 106.976562 163.628906 112.464844 162.878906 114.15625 C 161.988281 116.03125 160.535156 115.796875 159.554688 113.640625 C 158.570312 111.386719 158.570312 109.652344 159.507812 107.117188 C 160.347656 104.914062 161.660156 104.445312 162.785156 105.898438 Z M 162.785156 105.898438 "/>
<path style=" stroke:none;fill-rule:nonzero;fill:rgb(0%,0%,0%);fill-opacity:1;" d="M 173.835938 104.492188 C 171.261719 107.539062 171.121094 112.703125 173.601562 115.796875 C 175.523438 118.191406 177.394531 118.378906 179.222656 116.359375 C 180.859375 114.53125 181.140625 113.59375 181.1875 109.746094 C 181.234375 107.164062 181.046875 106.460938 180.066406 105.101562 C 177.863281 102.097656 176.085938 101.910156 173.835938 104.492188 Z M 178.238281 105.898438 C 179.035156 106.976562 179.082031 112.464844 178.332031 114.15625 C 177.441406 116.03125 175.992188 115.796875 175.007812 113.640625 C 174.023438 111.386719 174.023438 109.652344 174.960938 107.117188 C 175.804688 104.914062 177.113281 104.445312 178.238281 105.898438 Z M 178.238281 105.898438 "/>
<path style=" stroke:none;fill-rule:nonzero;fill:rgb(0%,0%,0%);fill-opacity:1;" d="M 184.9375 104.160156 L 183.34375 105.570312 L 183.34375 110.261719 C 183.34375 114.765625 183.390625 114.953125 184.703125 116.3125 C 185.589844 117.207031 186.574219 117.769531 187.324219 117.769531 C 188.636719 117.769531 191.070312 116.03125 191.070312 115.09375 C 191.070312 114.8125 191.304688 114.484375 191.632812 114.390625 C 192.007812 114.25 192.289062 112.890625 192.382812 110.683594 C 192.570312 107.304688 192.523438 107.117188 190.976562 105.101562 C 188.917969 102.332031 187.183594 102.097656 184.9375 104.160156 Z M 189.429688 107.679688 C 190.132812 110.027344 190.132812 110.402344 189.382812 112.84375 C 188.730469 114.90625 188.355469 115.421875 187.558594 115.421875 C 186.105469 115.421875 185.214844 113.40625 185.261719 110.167969 C 185.308594 106.835938 186.152344 105.101562 187.605469 105.101562 C 188.542969 105.101562 188.824219 105.523438 189.429688 107.679688 Z M 189.429688 107.679688 "/>
<path style=" stroke:none;fill-rule:nonzero;fill:rgb(0%,0%,0%);fill-opacity:1;" d="M 286.933594 104.066406 C 286.230469 104.820312 285.808594 105.523438 285.996094 105.710938 C 286.464844 106.226562 288.011719 106.085938 288.011719 105.523438 C 288.011719 105.242188 288.667969 105.101562 289.554688 105.195312 C 290.820312 105.289062 291.054688 105.523438 291.054688 106.507812 C 291.054688 107.398438 290.679688 107.867188 289.554688 108.335938 C 287.636719 109.183594 287.589844 110.214844 289.460938 110.589844 C 291.148438 110.917969 292.039062 112.417969 291.570312 114.203125 C 291.289062 115.28125 291.007812 115.375 288.574219 115.515625 C 286.277344 115.65625 285.902344 115.796875 285.902344 116.59375 C 285.902344 117.394531 286.277344 117.535156 288.527344 117.675781 C 290.914062 117.816406 291.195312 117.722656 292.835938 116.125 C 294.988281 114.015625 295.222656 111.761719 293.394531 110.355469 C 292.039062 109.277344 291.945312 108.714844 292.929688 107.914062 C 293.957031 107.023438 293.769531 104.960938 292.554688 103.785156 C 290.960938 102.285156 288.527344 102.425781 286.933594 104.066406 Z M 286.933594 104.066406 "/>
<path style=" stroke:none;fill-rule:nonzero;fill:rgb(0%,0%,0%);fill-opacity:1;" d="M 299.296875 103.972656 C 298.734375 104.679688 298.3125 105.523438 298.3125 105.898438 C 298.3125 106.273438 297.984375 106.882812 297.609375 107.304688 C 296.628906 108.242188 297.46875 109.324219 299.203125 109.324219 C 300.75 109.324219 302.996094 111.386719 302.996094 112.796875 C 302.996094 114.53125 301.496094 115.515625 299.15625 115.328125 C 297.28125 115.1875 297.144531 115.28125 297.144531 116.359375 C 297.144531 117.441406 297.328125 117.535156 299.25 117.675781 C 300.890625 117.769531 301.683594 117.582031 302.480469 116.832031 C 303.089844 116.3125 303.746094 115.890625 303.933594 115.890625 C 304.121094 115.890625 304.636719 115.1875 305.105469 114.296875 C 305.898438 112.796875 305.898438 112.609375 305.199219 111.058594 C 304.683594 110.027344 303.605469 108.949219 302.246094 108.148438 C 299.484375 106.507812 299.578125 105.429688 302.621094 105.101562 C 305.105469 104.773438 305.570312 104.492188 305.199219 103.457031 C 304.964844 102.941406 304.261719 102.753906 302.574219 102.753906 C 300.609375 102.753906 300.09375 102.941406 299.296875 103.972656 Z M 299.296875 103.972656 "/>
<path style=" stroke:none;fill-rule:nonzero;fill:rgb(0%,0%,0%);fill-opacity:1;" d="M 314.1875 104.066406 C 311.472656 106.507812 311.378906 113.59375 314 116.359375 C 317.328125 119.832031 321.261719 116.40625 321.261719 110.027344 C 321.261719 107.023438 320.839844 105.851562 318.917969 103.597656 C 317.890625 102.332031 315.875 102.566406 314.1875 104.066406 Z M 318.496094 106.367188 C 319.433594 108.902344 319.480469 110.308594 318.683594 112.84375 C 318.074219 114.859375 317.703125 115.421875 316.953125 115.421875 C 316.390625 115.421875 315.6875 115.046875 315.359375 114.578125 C 314.5625 113.59375 314.515625 107.914062 315.265625 106.273438 C 316.015625 104.632812 317.84375 104.679688 318.496094 106.367188 Z M 318.496094 106.367188 "/>
<path style=" stroke:none;fill-rule:nonzero;fill:rgb(0%,0%,0%);fill-opacity:1;" d="M 324.773438 103.785156 C 323.226562 105.570312 322.664062 107.398438 322.664062 110.542969 C 322.664062 112.183594 322.945312 114.015625 323.273438 114.625 C 325.289062 118.238281 327.394531 118.753906 329.972656 116.171875 C 331.5625 114.578125 331.5625 114.53125 331.5625 110.261719 C 331.5625 105.992188 331.5625 105.945312 329.972656 104.347656 C 328.050781 102.425781 326.132812 102.238281 324.773438 103.785156 Z M 328.566406 105.898438 C 329.363281 106.976562 329.410156 112.464844 328.660156 114.15625 C 327.769531 116.03125 326.316406 115.796875 325.335938 113.640625 C 324.351562 111.386719 324.351562 109.652344 325.289062 107.117188 C 326.132812 104.914062 327.441406 104.445312 328.566406 105.898438 Z M 328.566406 105.898438 "/>
<path style=" stroke:none;fill-rule:nonzero;fill:rgb(0%,0%,0%);fill-opacity:1;" d="M 78.207031 105.054688 C 78.207031 105.289062 77.691406 106.132812 77.035156 106.882812 L 75.820312 108.335938 L 76.804688 108.996094 C 77.644531 109.605469 77.738281 110.074219 77.644531 112.984375 C 77.503906 116.738281 78.207031 118.144531 80.035156 117.535156 C 81.203125 117.207031 81.296875 116.265625 80.316406 115.421875 C 79.847656 115.046875 79.613281 113.96875 79.613281 112.089844 C 79.613281 109.558594 79.707031 109.277344 80.785156 108.855469 C 81.4375 108.621094 81.953125 108.195312 81.953125 107.960938 C 81.953125 107.726562 81.4375 107.398438 80.785156 107.257812 C 79.941406 107.023438 79.613281 106.648438 79.613281 105.804688 C 79.613281 105.054688 79.332031 104.632812 78.910156 104.632812 C 78.535156 104.632812 78.207031 104.820312 78.207031 105.054688 Z M 78.207031 105.054688 "/>
<path style=" stroke:none;fill-rule:nonzero;fill:rgb(0%,0%,0%);fill-opacity:1;" d="M 31.234375 106.695312 C 30.066406 108.195312 30.066406 108.382812 30.769531 108.808594 C 31.421875 109.183594 31.5625 109.839844 31.46875 112.75 C 31.328125 115.46875 31.46875 116.40625 32.078125 117.019531 C 33.390625 118.285156 34.75 117.863281 35.355469 115.984375 C 35.636719 115 35.542969 114.90625 34.703125 115.1875 C 33.71875 115.46875 33.671875 115.375 33.8125 112.277344 C 33.953125 109.324219 34.046875 109.089844 35.078125 108.949219 C 36.761719 108.714844 37.183594 109.511719 37.042969 112.796875 C 36.949219 115.328125 37.089844 115.984375 37.886719 116.785156 C 39.011719 117.910156 40.179688 118.050781 41.445312 117.113281 C 42.101562 116.640625 42.523438 116.59375 43.179688 116.972656 C 43.832031 117.394531 44.207031 117.253906 45.191406 116.359375 L 46.410156 115.1875 L 45.425781 114.390625 C 44.535156 113.6875 44.488281 113.3125 44.769531 110.683594 C 45.097656 107.585938 44.816406 106.976562 42.710938 106.976562 C 41.398438 106.976562 40.835938 108.242188 41.820312 108.996094 C 43.132812 110.027344 42.804688 115.890625 41.445312 115.890625 C 39.570312 115.890625 39.339844 115.375 39.339844 111.621094 C 39.339844 107.398438 38.964844 106.976562 35.542969 106.976562 C 33.859375 106.976562 33.625 106.882812 33.859375 106.039062 C 34.234375 104.492188 32.6875 104.914062 31.234375 106.695312 Z M 31.234375 106.695312 "/>
<path style=" stroke:none;fill-rule:nonzero;fill:rgb(0%,0%,0%);fill-opacity:1;" d="M 23.226562 108.054688 C 22.574219 108.667969 22.011719 109.558594 22.011719 109.980469 C 22.011719 111.292969 23.367188 112.984375 24.726562 113.3125 C 26.085938 113.640625 27.160156 114.390625 27.160156 114.953125 C 27.160156 115.703125 25.570312 115.890625 24.070312 115.328125 C 23.226562 115.046875 22.386719 114.90625 22.199219 115.046875 C 21.683594 115.609375 22.527344 117.253906 23.320312 117.253906 C 23.742188 117.253906 24.773438 117.394531 25.570312 117.582031 C 26.789062 117.816406 27.253906 117.628906 28.285156 116.546875 C 28.941406 115.796875 29.503906 114.953125 29.503906 114.671875 C 29.503906 113.734375 27.582031 111.667969 26.695312 111.667969 C 25.804688 111.667969 24.351562 110.496094 24.351562 109.792969 C 24.351562 109.605469 24.914062 109.277344 25.570312 109.136719 C 26.460938 108.902344 26.976562 109.042969 27.394531 109.605469 C 28.050781 110.542969 29.035156 110.121094 29.035156 108.855469 C 29.035156 107.773438 28.800781 107.632812 26.414062 107.210938 C 24.726562 106.976562 24.304688 107.070312 23.226562 108.054688 Z M 23.226562 108.054688 "/>
<path style=" stroke:none;fill-rule:nonzero;fill:rgb(0%,0%,0%);fill-opacity:1;" d="M 85.324219 107.351562 C 83.875 108.289062 82.421875 110.964844 82.421875 112.703125 C 82.421875 115.328125 84.71875 117.769531 87.152344 117.769531 C 88.464844 117.769531 89.074219 117.535156 89.445312 116.832031 C 89.726562 116.3125 90.242188 115.890625 90.617188 115.890625 C 91.554688 115.890625 91.507812 115 90.617188 114.625 C 90.195312 114.484375 89.632812 114.71875 89.308594 115.140625 C 88.511719 116.21875 86.355469 115.703125 85.371094 114.203125 C 84.203125 112.371094 84.859375 111.714844 88.089844 111.574219 C 89.914062 111.480469 91.085938 111.199219 91.226562 110.824219 C 91.320312 110.496094 90.664062 109.511719 89.773438 108.621094 C 88.183594 107.023438 86.589844 106.554688 85.324219 107.351562 Z M 87.574219 109.558594 C 87.574219 110.261719 85.558594 110.121094 85.324219 109.417969 C 85.1875 108.949219 85.511719 108.808594 86.355469 108.949219 C 87.058594 109.042969 87.574219 109.277344 87.574219 109.558594 Z M 87.574219 109.558594 "/>
<path style=" stroke:none;fill-rule:nonzero;fill:rgb(0%,0%,0%);fill-opacity:1;" d="M 93.007812 107.679688 C 92.023438 108.714844 91.554688 110.683594 92.117188 111.621094 C 92.351562 112.042969 93.289062 112.75 94.128906 113.171875 C 96.238281 114.25 96.800781 115.28125 95.488281 115.65625 C 94.878906 115.84375 94.222656 115.703125 93.613281 115.140625 C 92.914062 114.484375 92.585938 114.4375 92.117188 114.90625 C 91.273438 115.75 92.304688 116.972656 94.316406 117.488281 C 97.597656 118.332031 100.03125 115.140625 97.875 112.84375 C 97.269531 112.230469 96.238281 111.574219 95.535156 111.433594 C 94.035156 111.105469 93.289062 109.839844 94.222656 109.230469 C 95.160156 108.667969 95.910156 108.808594 96.378906 109.652344 C 96.941406 110.636719 98.34375 110.121094 98.34375 108.902344 C 98.34375 107.773438 98.15625 107.632812 95.722656 107.257812 C 94.222656 106.976562 93.613281 107.117188 93.007812 107.679688 Z M 93.007812 107.679688 "/>
<path style=" stroke:none;fill-rule:nonzero;fill:rgb(0%,0%,0%);fill-opacity:1;" d="M 167.28125 115.984375 C 166.390625 116.878906 166.625 117.253906 168.265625 117.675781 L 169.761719 118.097656 L 168.496094 118.613281 C 167 119.222656 166.8125 119.878906 167.984375 120.300781 C 169.011719 120.722656 170.933594 118.847656 170.933594 117.488281 C 170.933594 115.796875 168.449219 114.8125 167.28125 115.984375 Z M 167.28125 115.984375 "/>
<path style=" stroke:none;fill-rule:nonzero;fill:rgb(0%,0%,0%);fill-opacity:1;" d="M 306.882812 116.171875 C 306.554688 117.019531 307.070312 117.582031 308.382812 117.910156 C 309.273438 118.144531 309.273438 118.144531 308.289062 118.472656 C 306.929688 118.894531 306.882812 119.925781 308.148438 120.253906 C 308.804688 120.441406 309.460938 120.113281 310.207031 119.316406 C 311.238281 118.238281 311.238281 118.050781 310.628906 116.785156 C 310.113281 115.75 309.644531 115.421875 308.570312 115.421875 C 307.726562 115.421875 307.070312 115.703125 306.882812 116.171875 Z M 306.882812 116.171875 "/>
</g>
</svg>
