<?xml version="1.0" encoding="UTF-8"?>
<svg xmlns="http://www.w3.org/2000/svg" xmlns:xlink="http://www.w3.org/1999/xlink" width="376pt" height="300pt" viewBox="0 0 376 300" version="1.1">
<g id="surface1">
<path style=" stroke:none;fill-rule:nonzero;fill:rgb(0%,0%,0%);fill-opacity:1;" d="M 174.632812 6.363281 C 172 6.488281 167.652344 6.738281 165.023438 6.863281 C 158.671875 7.15625 146.054688 8.203125 139.539062 8.957031 C 136.65625 9.292969 132.4375 9.792969 130.136719 10.042969 C 127.839844 10.296875 125.039062 10.671875 123.871094 10.921875 C 122.742188 11.132812 120.109375 11.507812 118.023438 11.71875 C 114.386719 12.09375 110.835938 12.640625 106.949219 13.394531 C 105.90625 13.601562 102.4375 14.144531 99.222656 14.648438 C 96.003906 15.152344 92.078125 15.777344 90.449219 16.113281 C 88.863281 16.449219 85.9375 16.992188 83.972656 17.367188 C 82.011719 17.746094 79.796875 18.246094 79.085938 18.457031 C 78.332031 18.707031 76.453125 19.042969 74.90625 19.253906 C 73.320312 19.460938 71.316406 19.796875 70.394531 20.046875 C 67.722656 20.71875 61.621094 21.761719 60.328125 21.761719 C 59.660156 21.761719 58.738281 22.054688 58.320312 22.390625 C 57.863281 22.726562 56.941406 23.019531 56.234375 23.019531 C 55.5625 23.019531 54.058594 23.269531 52.890625 23.605469 C 50.507812 24.316406 46.539062 25.195312 42.820312 25.949219 C 41.445312 26.242188 39.4375 26.703125 38.394531 27.035156 C 37.347656 27.328125 35.679688 27.707031 34.632812 27.875 C 31.542969 28.335938 26.238281 29.839844 23.101562 31.222656 C 22.394531 31.558594 21.722656 31.808594 21.597656 31.808594 C 21.472656 31.808594 20.179688 32.519531 18.714844 33.355469 C 15.332031 35.324219 11.488281 39.007812 10.195312 41.519531 C 9.652344 42.605469 9.023438 43.570312 8.816406 43.695312 C 8.605469 43.820312 8.3125 44.65625 8.148438 45.492188 C 7.980469 46.371094 7.769531 66.753906 7.6875 90.820312 C 7.605469 114.886719 7.476562 136.230469 7.394531 138.28125 C 7.3125 140.792969 7.4375 142.132812 7.769531 142.507812 C 8.148438 142.886719 13.828125 143.050781 29.953125 143.261719 C 41.863281 143.429688 57.070312 143.636719 63.710938 143.765625 C 70.394531 143.890625 81.757812 144.097656 88.988281 144.183594 C 96.214844 144.308594 105.613281 144.476562 109.875 144.601562 C 114.136719 144.683594 149.105469 144.9375 187.582031 145.101562 C 226.058594 145.269531 259.898438 145.4375 262.78125 145.523438 C 265.664062 145.605469 274.019531 145.730469 281.375 145.855469 C 326.703125 146.402344 342.117188 146.609375 346.753906 146.695312 C 364.46875 147.027344 366.476562 146.988281 366.933594 146.527344 C 367.644531 145.816406 367.644531 144.726562 367.851562 95.464844 L 368.019531 50.933594 L 366.183594 48.507812 C 365.136719 47.210938 364.300781 45.914062 364.300781 45.703125 C 364.300781 45.035156 355.238281 36.832031 354.484375 36.832031 C 354.316406 36.832031 353.230469 36.246094 352.101562 35.574219 C 351.015625 34.863281 349.761719 34.320312 349.347656 34.320312 C 348.929688 34.320312 348.425781 34.152344 348.175781 33.902344 C 347.714844 33.441406 341.40625 31.097656 339.109375 30.511719 C 338.234375 30.300781 337.230469 29.964844 336.8125 29.714844 C 336.4375 29.507812 334.722656 28.921875 333.011719 28.417969 C 331.339844 27.914062 329.460938 27.246094 328.832031 26.953125 C 328.246094 26.617188 327.453125 26.367188 327.121094 26.367188 C 326.785156 26.367188 325.199219 25.90625 323.570312 25.320312 C 321.980469 24.777344 320.351562 24.273438 319.976562 24.273438 C 319.058594 24.273438 313.625 22.558594 313.167969 22.140625 C 312.914062 21.929688 312.121094 21.761719 311.328125 21.761719 C 310.574219 21.761719 309.574219 21.554688 309.113281 21.34375 C 308.695312 21.09375 307.527344 20.757812 306.566406 20.550781 C 305.5625 20.339844 303.265625 19.753906 301.425781 19.253906 C 294.367188 17.367188 292.945312 16.992188 284.714844 15.234375 C 283.128906 14.898438 280.957031 14.4375 279.910156 14.273438 C 278.867188 14.0625 275.984375 13.519531 273.4375 13.015625 C 266.875 11.71875 260.484375 10.671875 248.578125 9 C 245.945312 8.621094 240.222656 8.035156 235.835938 7.660156 C 231.492188 7.324219 227.230469 6.988281 226.4375 6.90625 C 216.242188 6.070312 185.035156 5.734375 174.632812 6.363281 Z M 185.535156 9.25 C 185.871094 9.917969 185.871094 10.589844 185.535156 11.675781 C 185.242188 12.679688 185.117188 19.253906 185.117188 30.550781 C 185.117188 40.09375 185.117188 48.171875 185.074219 48.464844 C 185.074219 48.882812 183.78125 48.96875 178.726562 48.800781 C 170.496094 48.507812 131.765625 47.964844 128.464844 48.089844 C 126.085938 48.171875 125.75 48.046875 123.035156 46.289062 C 121.449219 45.199219 119.984375 44.363281 119.820312 44.363281 C 119.652344 44.363281 117.605469 43.234375 115.265625 41.851562 C 112.96875 40.472656 111.003906 39.339844 110.921875 39.339844 C 110.878906 39.339844 109.25 38.460938 107.328125 37.417969 C 105.40625 36.328125 102.523438 34.78125 100.894531 33.902344 C 99.304688 33.0625 96.003906 31.265625 93.582031 29.925781 C 86.4375 25.992188 85.894531 25.699219 84.601562 24.984375 C 83.929688 24.609375 82.46875 23.941406 81.382812 23.480469 C 79.460938 22.640625 78.792969 21.554688 79.921875 21.136719 C 80.171875 21.011719 81.84375 20.757812 83.554688 20.550781 C 85.269531 20.339844 88.402344 19.878906 90.449219 19.503906 C 92.539062 19.167969 96.003906 18.539062 98.179688 18.207031 C 100.351562 17.828125 103.734375 17.285156 105.699219 16.949219 C 107.660156 16.617188 110.960938 16.03125 113.007812 15.695312 C 115.097656 15.359375 117.226562 14.984375 117.8125 14.898438 C 118.398438 14.773438 120.445312 14.480469 122.410156 14.230469 C 124.371094 13.980469 127.171875 13.601562 128.675781 13.394531 C 130.179688 13.140625 132.4375 12.890625 133.6875 12.808594 C 134.941406 12.679688 136.445312 12.472656 137.03125 12.347656 C 137.617188 12.222656 140.039062 11.96875 142.460938 11.761719 C 144.886719 11.550781 151.195312 10.964844 156.457031 10.503906 C 161.761719 10.042969 169.992188 9.457031 174.796875 9.25 C 179.601562 9 183.613281 8.707031 183.738281 8.578125 C 184.238281 8.121094 185.074219 8.414062 185.535156 9.25 Z M 213.566406 9.125 C 219 9.375 223.679688 9.667969 223.929688 9.835938 C 224.179688 10.003906 225.515625 10.128906 226.851562 10.085938 C 228.191406 10.085938 232.074219 10.335938 235.5 10.714844 C 238.886719 11.050781 243.648438 11.507812 246.070312 11.71875 C 248.496094 11.929688 251.585938 12.304688 252.964844 12.515625 C 254.34375 12.765625 257.265625 13.226562 259.441406 13.601562 C 261.613281 13.9375 264.453125 14.4375 265.707031 14.691406 C 270.34375 15.527344 274.730469 16.363281 276.777344 16.699219 C 277.949219 16.910156 280.664062 17.496094 282.835938 17.996094 C 286.886719 18.960938 289.394531 19.460938 295.996094 20.71875 C 299.882812 21.429688 300.382812 21.597656 300.382812 22.140625 C 300.382812 22.347656 297.125 24.148438 293.195312 26.15625 C 289.226562 28.167969 284.839844 30.425781 283.460938 31.179688 C 282.082031 31.890625 279.453125 33.316406 277.613281 34.277344 C 275.773438 35.238281 272.683594 36.914062 270.71875 37.917969 C 268.757812 38.964844 265.957031 40.511719 264.453125 41.390625 C 262.949219 42.269531 260.902344 43.402344 259.859375 43.902344 C 258.8125 44.40625 257.308594 45.242188 256.515625 45.703125 C 255.722656 46.164062 254.21875 47 253.214844 47.542969 C 252.210938 48.089844 251.125 48.757812 250.832031 48.96875 C 250.5 49.300781 241.476562 49.34375 221.339844 49.09375 L 192.386719 48.757812 L 192.46875 29.128906 C 192.511719 18.289062 192.636719 9.25 192.761719 8.957031 C 192.972656 8.414062 195.894531 8.414062 213.566406 9.125 Z M 73.363281 23.394531 C 73.570312 23.605469 75.242188 24.527344 77.078125 25.488281 C 78.917969 26.449219 81.007812 27.621094 81.675781 28.042969 C 82.386719 28.460938 84.347656 29.546875 86.0625 30.386719 C 87.773438 31.222656 89.488281 32.183594 89.820312 32.4375 C 90.15625 32.730469 91.871094 33.691406 93.582031 34.570312 C 95.296875 35.449219 97.132812 36.496094 97.675781 36.871094 C 98.511719 37.5 100.558594 38.589844 102.773438 39.507812 C 103.109375 39.632812 103.984375 40.136719 104.652344 40.554688 C 105.738281 41.265625 108.121094 42.480469 115.640625 46.164062 C 116.601562 46.625 117.394531 47.25 117.394531 47.542969 C 117.394531 48.214844 116.308594 48.589844 115.179688 48.339844 C 113.886719 48.089844 69.976562 47.335938 38.226562 47.042969 C 23.519531 46.917969 11.445312 46.75 11.320312 46.664062 C 10.945312 46.289062 12.28125 43.988281 14.328125 41.476562 C 16.542969 38.714844 21.308594 35.074219 23.605469 34.359375 C 24.316406 34.152344 25.820312 33.609375 26.988281 33.148438 C 29.078125 32.351562 33.503906 31.265625 40.316406 29.925781 C 44.910156 29.003906 48.710938 28.125 51.179688 27.414062 C 53.808594 26.703125 63.042969 24.777344 65.800781 24.398438 C 66.96875 24.273438 68.472656 23.898438 69.140625 23.605469 C 70.605469 22.976562 72.777344 22.851562 73.363281 23.394531 Z M 308.445312 24.105469 C 309.65625 24.441406 310.910156 24.902344 311.246094 25.070312 C 311.621094 25.277344 312.539062 25.570312 313.332031 25.699219 C 314.128906 25.863281 315.253906 26.15625 315.839844 26.324219 C 316.425781 26.535156 318.011719 26.996094 319.390625 27.414062 C 322.191406 28.25 328.875 30.386719 332.96875 31.765625 C 337.523438 33.316406 340.574219 34.320312 343.414062 35.238281 C 346.796875 36.328125 352.519531 39.300781 355.527344 41.558594 C 357.617188 43.109375 362.089844 47.585938 363.339844 49.386719 C 363.757812 49.972656 363.757812 50.222656 363.339844 50.515625 C 363.050781 50.765625 358.328125 50.765625 351.558594 50.601562 C 345.375 50.390625 336.144531 50.265625 331.089844 50.265625 C 326.035156 50.265625 314.671875 50.140625 305.8125 50.015625 C 296.957031 49.886719 284.382812 49.722656 277.820312 49.636719 C 271.261719 49.554688 264.285156 49.59375 262.28125 49.761719 C 260.277344 49.886719 258.4375 49.972656 258.1875 49.886719 C 257.183594 49.554688 257.9375 48.464844 259.773438 47.671875 C 262.78125 46.332031 265.957031 44.742188 270.09375 42.480469 C 272.183594 41.390625 275.191406 39.761719 276.777344 38.921875 C 280.328125 37.039062 287.972656 32.980469 291.398438 31.136719 C 292.777344 30.386719 295.410156 29.003906 297.25 28.082031 C 299.085938 27.121094 301.71875 25.699219 303.097656 24.945312 C 304.476562 24.148438 305.773438 23.480469 305.9375 23.480469 C 306.148438 23.4375 307.277344 23.730469 308.445312 24.105469 Z M 65.382812 50.265625 C 66.761719 50.472656 74.742188 50.601562 83.136719 50.601562 C 91.535156 50.558594 98.972656 50.558594 99.640625 50.558594 C 100.351562 50.558594 101.5625 50.726562 102.355469 50.976562 L 103.816406 51.394531 L 102.355469 51.4375 C 95.546875 51.730469 59.660156 51.351562 58.15625 50.976562 C 56.777344 50.640625 56.109375 50.640625 55.3125 51.058594 C 54.476562 51.519531 54.144531 51.519531 53.308594 51.058594 C 51.804688 50.265625 13.746094 50.222656 12.785156 51.019531 C 12.199219 51.519531 12.117188 55.957031 12.117188 95.003906 C 12.117188 135.183594 12.15625 138.449219 12.824219 138.699219 C 14.789062 139.496094 30.078125 139.789062 68.722656 139.828125 C 104.445312 139.828125 111.589844 139.957031 112.257812 140.457031 C 112.675781 140.75 113.761719 141.042969 114.679688 141.085938 C 116.226562 141.167969 116.183594 141.167969 114.054688 141.460938 C 111.796875 141.796875 98.34375 141.714844 76.664062 141.253906 C 70.6875 141.128906 56.609375 141.042969 45.328125 141.042969 C 22.140625 141.042969 11.863281 140.75 11.15625 139.996094 C 10.777344 139.621094 10.652344 128.488281 10.695312 94.546875 C 10.738281 69.808594 10.777344 49.511719 10.820312 49.429688 C 10.902344 49.136719 63.042969 49.886719 65.382812 50.265625 Z M 106.324219 51.058594 C 106.492188 51.3125 106.117188 51.480469 105.488281 51.480469 C 104.863281 51.480469 104.484375 51.3125 104.652344 51.058594 C 104.777344 50.808594 105.15625 50.640625 105.488281 50.640625 C 105.824219 50.640625 106.199219 50.808594 106.324219 51.058594 Z M 215.238281 51.605469 C 215.40625 51.855469 215.40625 52.230469 215.238281 52.359375 C 215.070312 52.523438 210.726562 52.441406 205.546875 52.230469 C 196.898438 51.898438 194.015625 52.023438 189.210938 52.902344 C 188.835938 52.984375 186.957031 52.777344 185.035156 52.484375 C 183.113281 52.148438 180.394531 51.898438 179.019531 51.898438 C 177.640625 51.9375 169.367188 51.9375 160.636719 51.9375 C 151.902344 51.980469 144.46875 51.980469 144.132812 51.980469 C 137.074219 52.066406 114.847656 51.773438 114.179688 51.605469 C 110.503906 50.765625 118.023438 50.640625 164.3125 50.851562 C 202.707031 51.058594 214.988281 51.226562 215.238281 51.605469 Z M 289.644531 52.316406 C 294.699219 52.316406 298.25 52.484375 298.125 52.691406 C 297.960938 52.902344 283.335938 53.027344 262.90625 52.945312 C 215.488281 52.816406 216.410156 52.816406 216.410156 52.273438 C 216.410156 51.9375 225.601562 51.898438 248.703125 52.066406 C 266.417969 52.191406 284.882812 52.273438 289.644531 52.316406 Z M 39.4375 52.984375 C 46.289062 53.070312 52.011719 53.238281 52.136719 53.363281 C 52.515625 53.738281 52.304688 79.605469 51.929688 79.9375 C 51.636719 80.191406 14.164062 79.605469 13.871094 79.3125 C 13.621094 79.058594 13.828125 53.027344 14.078125 52.609375 C 14.246094 52.359375 16.542969 52.316406 20.636719 52.484375 C 24.105469 52.652344 32.585938 52.859375 39.4375 52.984375 Z M 313.75 53.152344 C 314.292969 53.488281 314.253906 53.570312 313.710938 53.78125 C 312.539062 54.242188 308.195312 53.824219 307.984375 53.238281 C 307.777344 52.609375 312.75 52.523438 313.75 53.152344 Z M 321.941406 53.695312 C 322.105469 53.863281 320.894531 53.988281 319.265625 53.988281 C 317.59375 53.988281 316.257812 53.824219 316.257812 53.613281 C 316.257812 53.402344 316.464844 53.152344 316.71875 53.070312 C 317.386719 52.859375 321.605469 53.363281 321.941406 53.695312 Z M 98.179688 66.335938 C 98.304688 73.453125 98.261719 79.5625 98.136719 79.855469 C 97.925781 80.316406 94.125 80.441406 77.078125 80.355469 C 63.878906 80.355469 56.066406 80.148438 55.730469 79.898438 C 55.355469 79.605469 55.230469 76.128906 55.1875 66.671875 C 55.1875 59.640625 55.273438 53.695312 55.398438 53.53125 C 55.523438 53.320312 65.089844 53.195312 76.789062 53.238281 L 97.96875 53.363281 Z M 101.855469 53.863281 C 102.1875 54.535156 102.1875 130.832031 101.855469 136.441406 C 101.730469 137.988281 101.605469 138.324219 100.894531 138.324219 C 100.058594 138.324219 100.058594 138.070312 100.183594 123.675781 C 100.476562 91.40625 100.476562 74.203125 100.226562 64.242188 C 100.097656 58.46875 100.058594 53.65625 100.140625 53.445312 C 100.476562 52.902344 101.476562 53.152344 101.855469 53.863281 Z M 142.210938 53.988281 C 142.421875 54.199219 142.585938 58.636719 142.546875 63.867188 C 142.503906 69.097656 142.671875 74.75 142.878906 76.464844 C 143.507812 81.363281 143.671875 81.234375 136.070312 80.984375 C 132.5625 80.859375 123.996094 80.691406 116.976562 80.566406 C 109.960938 80.484375 104.195312 80.398438 104.152344 80.398438 C 103.777344 80.316406 104.070312 53.613281 104.445312 53.488281 C 105.40625 53.195312 141.878906 53.65625 142.210938 53.988281 Z M 348.21875 53.570312 C 348.71875 53.78125 344.207031 53.90625 337.355469 53.863281 L 325.65625 53.824219 L 335.683594 53.570312 C 341.199219 53.445312 346.085938 53.320312 346.546875 53.277344 C 347.007812 53.238281 347.757812 53.363281 348.21875 53.570312 Z M 365.097656 53.90625 C 365.347656 54.367188 365.472656 71.273438 365.429688 98.898438 C 365.347656 140.039062 365.304688 143.136719 364.636719 143.804688 C 364.011719 144.476562 362.964844 144.515625 355.277344 144.433594 C 350.558594 144.390625 346.378906 144.222656 346.085938 144.097656 C 344.25 143.386719 346.378906 143.136719 353.816406 143.136719 C 361.878906 143.136719 362.214844 143.09375 363.214844 142.171875 L 364.300781 141.253906 L 364.34375 98.394531 C 364.34375 60.183594 364.300781 55.453125 363.71875 54.910156 C 363.214844 54.367188 361.671875 54.199219 356.699219 54.03125 L 350.308594 53.78125 L 354.691406 53.53125 C 363.882812 53.070312 364.636719 53.070312 365.097656 53.90625 Z M 185.703125 54.449219 C 186.035156 54.828125 186.203125 81.570312 185.871094 81.695312 C 185.660156 81.78125 179.269531 81.65625 171.625 81.445312 C 163.976562 81.234375 154.996094 81.070312 151.652344 81.027344 L 145.59375 80.984375 L 145.34375 67.800781 C 145.21875 60.5625 145.21875 54.492188 145.261719 54.324219 C 145.429688 53.988281 185.367188 54.117188 185.703125 54.449219 Z M 188.878906 54.492188 C 189.253906 57.757812 189.296875 68.972656 189.042969 126.4375 C 189.003906 133.257812 188.835938 139.035156 188.667969 139.328125 C 187.582031 141.085938 187.5 138.40625 187.792969 112.625 C 187.957031 97.976562 188.042969 85.671875 188 85.253906 C 187.917969 84.457031 187.917969 79.226562 188 77.71875 C 188.042969 77.21875 187.917969 71.902344 187.792969 65.960938 C 187.664062 60.015625 187.625 54.867188 187.75 54.574219 C 188.042969 53.863281 188.835938 53.824219 188.878906 54.492188 Z M 226.5625 54.535156 L 229.863281 54.617188 L 230.027344 68.261719 L 230.152344 81.90625 L 210.851562 81.78125 L 191.550781 81.613281 L 191.34375 68.34375 C 191.21875 61.019531 191.257812 54.828125 191.425781 54.617188 C 191.632812 54.242188 215.574219 54.199219 226.5625 54.535156 Z M 273.308594 55.160156 C 273.769531 55.621094 273.851562 81.78125 273.394531 82.535156 C 273.226562 82.785156 272.601562 82.828125 271.804688 82.617188 C 271.097656 82.449219 261.863281 82.199219 251.292969 82.074219 L 232.074219 81.820312 L 232.242188 80.777344 C 232.578125 78.683594 232.578125 71.609375 232.285156 63.40625 C 232.117188 58.804688 232.035156 54.953125 232.117188 54.828125 C 232.328125 54.410156 272.890625 54.742188 273.308594 55.160156 Z M 276.570312 97.476562 C 276.570312 120.785156 276.445312 140.039062 276.316406 140.25 C 276.191406 140.457031 275.941406 140.625 275.691406 140.625 C 275.273438 140.625 275.148438 55.121094 275.609375 54.703125 C 275.773438 54.535156 276.027344 54.535156 276.234375 54.742188 C 276.445312 54.953125 276.570312 74.164062 276.570312 97.476562 Z M 318.679688 55.875 C 318.765625 55.957031 318.847656 62.066406 318.890625 69.476562 L 318.972656 82.953125 L 305.1875 82.867188 C 287.683594 82.785156 279.492188 82.574219 279.160156 82.242188 C 278.992188 82.074219 278.824219 78.347656 278.78125 73.953125 C 278.742188 69.515625 278.53125 63.742188 278.324219 61.105469 C 278.113281 57.964844 278.113281 56.082031 278.40625 55.746094 C 278.742188 55.289062 282.375 55.246094 298.667969 55.496094 C 309.613281 55.621094 318.597656 55.832031 318.679688 55.875 Z M 362.171875 56.460938 C 362.339844 56.835938 362.421875 63.070312 362.421875 70.3125 L 362.339844 83.496094 L 360.917969 83.414062 C 359.914062 83.328125 326.492188 82.867188 321.648438 82.867188 C 321.480469 82.867188 321.4375 79.226562 321.5625 74.789062 C 321.6875 70.394531 321.605469 64.410156 321.355469 61.523438 C 321.144531 58.636719 321.0625 56.125 321.144531 55.957031 C 321.269531 55.746094 330.460938 55.664062 341.574219 55.707031 C 359.625 55.789062 361.878906 55.875 362.171875 56.460938 Z M 41.734375 82.660156 C 47.335938 82.742188 52.011719 82.910156 52.136719 83.035156 C 52.222656 83.160156 52.347656 89.144531 52.347656 96.304688 L 52.390625 109.359375 L 33.589844 109.277344 C 19.761719 109.195312 14.707031 109.066406 14.328125 108.691406 C 13.953125 108.316406 13.828125 104.839844 13.785156 95.425781 C 13.785156 88.394531 13.746094 82.492188 13.785156 82.28125 C 13.785156 82.113281 17.796875 82.074219 22.683594 82.199219 C 27.53125 82.367188 36.136719 82.574219 41.734375 82.660156 Z M 78.292969 83.121094 L 98.179688 83.414062 L 98.179688 85.335938 C 98.21875 104.546875 98.21875 109.359375 98.050781 109.527344 C 97.84375 109.695312 76.117188 109.695312 61.414062 109.527344 L 55.355469 109.445312 L 55.398438 105.679688 C 55.5625 92.914062 55.523438 84.878906 55.3125 84.332031 C 54.894531 83.285156 55.980469 82.367188 57.277344 82.617188 C 57.902344 82.742188 67.386719 82.953125 78.292969 83.121094 Z M 142.878906 84.835938 C 143.046875 85.464844 143.003906 87.972656 142.796875 90.402344 C 142.628906 92.828125 142.546875 98.269531 142.585938 102.539062 L 142.671875 110.28125 L 140.792969 110.238281 C 139.746094 110.238281 131.222656 110.113281 121.78125 109.945312 C 112.382812 109.78125 104.527344 109.652344 104.359375 109.652344 C 104.152344 109.652344 104.027344 103.710938 104.027344 96.429688 L 104.027344 83.203125 L 123.328125 83.414062 L 142.671875 83.621094 Z M 167.652344 83.707031 L 186.371094 83.707031 L 186.160156 97.183594 L 185.953125 110.699219 L 182.902344 110.660156 C 168.238281 110.53125 145.636719 110.074219 145.46875 109.90625 C 145.179688 109.613281 145.386719 84.039062 145.679688 83.578125 C 145.804688 83.371094 146.597656 83.285156 147.433594 83.453125 C 148.269531 83.578125 157.375 83.707031 167.652344 83.707031 Z M 207.21875 84.207031 C 214.695312 84.25 222.925781 84.375 225.515625 84.457031 L 230.195312 84.625 L 230.113281 97.851562 L 229.988281 111.117188 L 228.734375 111.078125 C 228.066406 111.035156 219.417969 110.910156 209.515625 110.785156 L 191.550781 110.574219 L 191.425781 97.640625 C 191.382812 90.570312 191.425781 84.5 191.550781 84.207031 C 191.675781 83.832031 192.136719 83.707031 192.722656 83.832031 C 193.222656 83.957031 199.738281 84.125 207.21875 84.207031 Z M 273.644531 85.171875 C 273.769531 89.144531 273.601562 111.496094 273.476562 111.664062 C 273.269531 111.832031 260.902344 111.746094 257.558594 111.496094 C 256.640625 111.453125 250.625 111.285156 244.191406 111.160156 C 237.757812 110.992188 232.367188 110.742188 232.199219 110.574219 C 232.074219 110.40625 232.117188 109.445312 232.328125 108.398438 C 232.535156 107.351562 232.660156 102.164062 232.660156 96.890625 C 232.660156 91.574219 232.660156 86.636719 232.660156 85.839844 L 232.703125 84.457031 L 253.171875 84.585938 C 266.417969 84.710938 273.644531 84.917969 273.644531 85.171875 Z M 300.171875 85.210938 L 318.972656 85.335938 L 318.972656 98.773438 C 318.972656 106.136719 318.847656 112.207031 318.679688 112.25 C 318.515625 112.332031 315.589844 112.25 312.207031 112.082031 C 308.78125 111.914062 299.839844 111.789062 292.320312 111.832031 C 284.800781 111.832031 278.492188 111.703125 278.367188 111.578125 C 278.199219 111.410156 278.238281 110.785156 278.492188 110.15625 C 278.699219 109.527344 278.867188 103.792969 278.867188 97.097656 C 278.867188 89.648438 279.035156 85.042969 279.285156 84.835938 C 279.535156 84.667969 280.078125 84.625 280.539062 84.792969 C 280.996094 84.917969 289.855469 85.128906 300.171875 85.210938 Z M 343.203125 85.796875 C 360.375 85.964844 362.839844 86.089844 362.714844 86.636719 C 362.632812 86.96875 362.503906 92.996094 362.464844 100.027344 L 362.378906 112.792969 L 350.054688 112.625 C 323.988281 112.25 321.523438 112.164062 321.269531 111.871094 C 321.105469 111.664062 321.144531 109.570312 321.355469 107.144531 C 321.523438 104.714844 321.648438 98.980469 321.605469 94.378906 C 321.523438 89.773438 321.648438 85.757812 321.855469 85.464844 C 322.066406 85.128906 322.441406 85.042969 322.902344 85.253906 C 323.277344 85.421875 332.425781 85.671875 343.203125 85.796875 Z M 29.453125 111.746094 C 33.839844 111.789062 40.648438 111.871094 44.617188 111.957031 C 48.585938 111.996094 51.972656 112.207031 52.179688 112.417969 C 52.347656 112.625 52.390625 118.441406 52.265625 125.347656 L 52.011719 137.90625 L 48.671875 137.820312 C 46.832031 137.777344 38.269531 137.613281 29.664062 137.484375 C 21.054688 137.320312 13.910156 137.066406 13.785156 136.941406 C 13.660156 136.773438 13.621094 130.957031 13.703125 124.007812 C 13.828125 109.570312 13.328125 110.953125 18.382812 111.371094 C 20.09375 111.539062 25.109375 111.703125 29.453125 111.746094 Z M 79.167969 112.332031 C 89.53125 112.457031 98.050781 112.542969 98.136719 112.542969 C 98.261719 112.582031 97.886719 125.933594 97.71875 127.652344 C 97.675781 127.984375 97.71875 130.414062 97.761719 133.007812 C 97.800781 135.601562 97.761719 137.863281 97.632812 137.988281 C 97.46875 138.113281 92.328125 138.15625 86.1875 138.113281 C 80.046875 138.070312 70.5625 137.988281 65.171875 137.945312 L 55.355469 137.90625 L 55.273438 125.140625 C 55.230469 115.722656 55.3125 112.289062 55.691406 112.082031 C 55.980469 111.914062 57.152344 111.871094 58.28125 111.957031 C 59.449219 112.082031 68.851562 112.25 79.167969 112.332031 Z M 142.546875 125.515625 C 142.503906 132.503906 142.378906 138.363281 142.210938 138.492188 C 142.085938 138.617188 135.277344 138.65625 127.089844 138.53125 C 118.898438 138.449219 110.375 138.363281 108.203125 138.324219 L 104.234375 138.324219 L 104.109375 125.433594 L 104.027344 112.582031 L 123.328125 112.667969 L 142.585938 112.792969 Z M 172.710938 113.210938 C 179.8125 113.335938 185.703125 113.503906 185.785156 113.589844 C 186.078125 113.839844 185.996094 138.910156 185.703125 139.371094 C 185.535156 139.664062 184.742188 139.746094 183.570312 139.535156 C 182.570312 139.410156 173.542969 139.160156 163.519531 138.992188 L 145.304688 138.742188 L 145.34375 125.765625 C 145.34375 118.609375 145.34375 112.75 145.386719 112.667969 C 145.386719 112.625 148.644531 112.667969 152.613281 112.792969 C 156.542969 112.917969 165.605469 113.085938 172.710938 113.210938 Z M 225.765625 113.546875 L 229.863281 113.628906 L 229.863281 139.578125 L 210.769531 139.578125 C 200.28125 139.578125 191.59375 139.410156 191.46875 139.242188 C 191.21875 138.824219 191.257812 113.921875 191.507812 113.503906 C 191.675781 113.253906 214.90625 113.253906 225.765625 113.546875 Z M 272.933594 113.839844 C 273.644531 113.839844 273.6875 114.257812 273.476562 120.621094 C 273.351562 124.386719 273.269531 127.734375 273.269531 128.070312 C 273.269531 128.402344 273.269531 131.207031 273.269531 134.304688 C 273.269531 137.402344 273.101562 140.082031 272.890625 140.289062 C 272.640625 140.542969 271.515625 140.582031 270.21875 140.457031 C 269.007812 140.289062 260.691406 140.082031 251.710938 139.957031 C 242.769531 139.871094 234.707031 139.746094 233.789062 139.664062 L 232.199219 139.578125 L 232.242188 126.605469 C 232.242188 119.449219 232.285156 113.589844 232.285156 113.503906 C 232.285156 113.421875 241.265625 113.460938 252.253906 113.628906 C 263.199219 113.753906 272.515625 113.882812 272.933594 113.839844 Z M 317.425781 114.761719 L 318.847656 114.886719 L 318.847656 140.835938 L 298.667969 140.667969 C 287.554688 140.582031 278.40625 140.457031 278.324219 140.414062 C 278.238281 140.332031 278.199219 134.554688 278.199219 127.566406 C 278.238281 117.5625 278.367188 114.800781 278.824219 114.46875 C 279.285156 114.089844 312.75 114.339844 317.425781 114.761719 Z M 361.796875 115.09375 C 362.339844 115.09375 362.421875 116.683594 362.339844 127.902344 C 362.296875 134.976562 362.171875 140.835938 362.046875 140.917969 C 361.753906 141.253906 321.523438 141.042969 321.230469 140.707031 C 321.105469 140.542969 321.105469 138.785156 321.230469 136.816406 C 321.355469 134.808594 321.394531 129.15625 321.269531 124.261719 C 321.144531 119.320312 321.105469 115.179688 321.1875 115.011719 C 321.230469 114.84375 330.253906 114.800781 341.242188 114.925781 C 352.1875 115.054688 361.460938 115.136719 361.796875 115.09375 Z M 191.089844 141.292969 C 215.199219 141.421875 235.042969 141.585938 235.207031 141.671875 C 235.753906 142.007812 259.648438 142.339844 291.316406 142.464844 C 310.324219 142.507812 322.523438 142.71875 322.523438 142.96875 C 322.523438 143.511719 232.703125 143.261719 225.808594 142.675781 C 222.214844 142.382812 202.707031 142.214844 169.199219 142.171875 C 135.902344 142.132812 117.8125 141.964844 117.394531 141.671875 C 116.726562 141.253906 139.746094 140.625 144.761719 140.917969 C 146.136719 141 166.984375 141.167969 191.089844 141.292969 Z M 326.871094 142.96875 C 327.789062 143.304688 327.289062 143.972656 326.074219 143.972656 C 325.03125 143.972656 324.445312 143.472656 324.90625 142.96875 C 325.238281 142.632812 326.035156 142.632812 326.871094 142.96875 Z M 344.25 143.554688 C 344.25 143.765625 343.414062 143.972656 342.410156 143.972656 C 341.367188 143.972656 340.40625 143.765625 340.28125 143.554688 C 340.113281 143.304688 340.824219 143.136719 342.117188 143.136719 C 343.289062 143.136719 344.25 143.304688 344.25 143.554688 Z M 344.25 143.554688 "/>
<path style=" stroke:none;fill-rule:nonzero;fill:rgb(0%,0%,0%);fill-opacity:1;" d="M 160.050781 63.15625 C 159.339844 63.617188 159.757812 64.871094 160.59375 64.871094 C 161.511719 64.871094 161.847656 64.035156 161.21875 63.363281 C 160.84375 63.03125 160.425781 62.945312 160.050781 63.15625 Z M 160.050781 63.15625 "/>
<path style=" stroke:none;fill-rule:nonzero;fill:rgb(0%,0%,0%);fill-opacity:1;" d="M 250 65.917969 C 249.832031 66.292969 249.914062 66.796875 250.164062 67.046875 C 250.832031 67.71875 252.128906 67.257812 252.128906 66.335938 C 252.128906 65.25 250.375 64.914062 250 65.917969 Z M 250 65.917969 "/>
<path style=" stroke:none;fill-rule:nonzero;fill:rgb(0%,0%,0%);fill-opacity:1;" d="M 290.648438 71.441406 C 290.480469 71.566406 290.355469 72.070312 290.355469 72.488281 C 290.355469 73.324219 292.195312 73.578125 292.652344 72.824219 C 293.238281 71.902344 291.398438 70.648438 290.648438 71.441406 Z M 290.648438 71.441406 "/>
<path style=" stroke:none;fill-rule:nonzero;fill:rgb(0%,0%,0%);fill-opacity:1;" d="M 139.621094 86.507812 C 139.789062 87.347656 140.375 87.597656 141.167969 87.09375 C 141.917969 86.59375 141.375 85.796875 140.332031 85.796875 C 139.746094 85.796875 139.539062 86.050781 139.621094 86.507812 Z M 139.621094 86.507812 "/>
<path style=" stroke:none;fill-rule:nonzero;fill:rgb(0%,0%,0%);fill-opacity:1;" d="M 119.691406 175.113281 C 117.855469 176.074219 114.679688 177.832031 112.589844 178.960938 C 110.542969 180.132812 107.996094 181.472656 106.949219 182.015625 C 105.90625 182.519531 103.566406 183.773438 101.730469 184.820312 C 99.890625 185.867188 97.257812 187.25 95.878906 187.917969 C 94.5 188.628906 92.996094 189.425781 92.539062 189.71875 C 90.867188 190.765625 88.316406 192.3125 87.105469 192.984375 C 78.25 197.835938 76.453125 198.800781 76.117188 198.800781 C 75.492188 198.800781 74.28125 200.390625 74.449219 200.976562 C 74.613281 201.394531 76.410156 201.480469 82.761719 201.394531 C 87.230469 201.3125 99.597656 201.5625 110.292969 201.898438 C 126.253906 202.441406 152.113281 202.652344 187.917969 202.566406 C 193.179688 202.566406 193.472656 202.359375 191.632812 199.886719 C 191.089844 199.175781 190.296875 197.878906 189.878906 197 C 189.210938 195.535156 183.949219 189.84375 181.941406 188.335938 C 178.890625 186.117188 177.097656 184.988281 175.257812 184.195312 C 174.128906 183.691406 172.792969 183.105469 172.332031 182.894531 C 170.914062 182.226562 164.355469 180.21875 160.21875 179.171875 C 159.296875 178.960938 157.503906 178.460938 156.25 178.082031 C 153.699219 177.371094 150.941406 176.871094 144.96875 175.992188 C 142.796875 175.65625 139.871094 175.238281 138.492188 174.984375 C 124.039062 172.726562 124.121094 172.726562 119.691406 175.113281 Z M 131.390625 176.617188 C 133.019531 176.871094 136.113281 177.328125 138.285156 177.664062 C 140.457031 178.042969 143.671875 178.5 145.386719 178.710938 C 147.097656 178.921875 148.894531 179.214844 149.355469 179.378906 C 149.816406 179.507812 151.152344 179.757812 152.28125 179.964844 C 156.125 180.550781 167.027344 183.691406 171.457031 185.492188 C 177.472656 187.875 184.53125 193.316406 187.582031 197.796875 C 188.585938 199.300781 188.667969 199.679688 188.167969 200.097656 C 187.875 200.347656 187.246094 200.433594 186.871094 200.265625 C 186.453125 200.097656 175.59375 199.886719 162.722656 199.804688 C 149.855469 199.722656 129.929688 199.429688 118.441406 199.175781 C 106.949219 198.925781 94.335938 198.800781 90.367188 198.882812 C 82.136719 199.007812 80.964844 198.675781 84.476562 197.167969 C 86.941406 196.078125 87.191406 195.953125 90.574219 194.15625 C 91.871094 193.441406 93.246094 192.605469 93.582031 192.3125 C 93.917969 192.019531 94.667969 191.644531 95.253906 191.476562 C 95.839844 191.308594 96.507812 191.015625 96.714844 190.847656 C 96.964844 190.679688 99.222656 189.425781 101.730469 188.128906 C 104.277344 186.789062 106.535156 185.574219 106.742188 185.40625 C 107.203125 185.074219 113.007812 181.933594 118.105469 179.296875 C 119.984375 178.335938 121.949219 177.246094 122.492188 176.871094 C 123.578125 176.117188 126.878906 176.03125 131.390625 176.617188 Z M 131.390625 176.617188 "/>
<path style=" stroke:none;fill-rule:nonzero;fill:rgb(0%,0%,0%);fill-opacity:1;" d="M 250.792969 175.445312 C 250.332031 176.074219 250.414062 192.605469 250.832031 193.316406 C 251.167969 193.820312 253.132812 193.945312 253.214844 193.441406 C 253.464844 191.433594 253.296875 175.863281 253.046875 175.445312 C 252.839844 175.195312 252.335938 174.945312 251.921875 174.945312 C 251.503906 174.945312 251 175.195312 250.792969 175.445312 Z M 250.792969 175.445312 "/>
<path style=" stroke:none;fill-rule:nonzero;fill:rgb(0%,0%,0%);fill-opacity:1;" d="M 212.648438 176.324219 C 212.0625 176.617188 211.5625 177.203125 211.480469 177.664062 C 211.394531 178.125 211.0625 179.046875 210.769531 179.757812 C 209.683594 182.351562 208.929688 184.402344 208.679688 185.40625 C 208.347656 186.664062 207.386719 188.964844 206.550781 190.511719 C 206.257812 191.097656 205.964844 192.105469 205.964844 192.691406 C 205.964844 193.609375 206.132812 193.777344 207.175781 193.777344 C 208.636719 193.777344 209.015625 193.316406 209.722656 190.722656 C 210.015625 189.632812 210.351562 188.753906 210.519531 188.753906 C 211.019531 188.714844 215.78125 188.671875 216.492188 188.714844 C 216.910156 188.753906 217.285156 189.257812 217.453125 190.09375 C 217.953125 192.3125 218.875 193.777344 219.792969 193.777344 C 220.253906 193.777344 220.710938 193.484375 220.878906 193.109375 C 221.128906 192.4375 220.292969 189.339844 219.625 188.460938 C 219.417969 188.167969 219.082031 187.332031 218.914062 186.578125 C 218.164062 183.441406 215.53125 176.785156 214.863281 176.285156 C 213.984375 175.65625 213.945312 175.65625 212.648438 176.324219 Z M 214.277344 180.550781 C 214.570312 180.886719 214.90625 181.808594 215.03125 182.644531 C 215.15625 183.480469 215.449219 184.277344 215.613281 184.402344 C 215.824219 184.527344 215.992188 184.988281 215.992188 185.449219 C 215.992188 186.117188 215.699219 186.246094 213.652344 186.246094 C 211.3125 186.246094 211.3125 186.246094 211.519531 185.074219 C 211.605469 184.445312 211.9375 183.273438 212.230469 182.476562 C 212.523438 181.683594 212.816406 180.761719 212.898438 180.46875 C 213.066406 179.800781 213.691406 179.839844 214.277344 180.550781 Z M 214.277344 180.550781 "/>
<path style=" stroke:none;fill-rule:nonzero;fill:rgb(0%,0%,0%);fill-opacity:1;" d="M 222.425781 180.550781 C 222.300781 180.886719 222.257812 181.515625 222.339844 181.933594 C 222.464844 182.5625 222.925781 182.6875 225.601562 182.6875 C 227.5625 182.6875 228.734375 182.855469 228.734375 183.148438 C 228.734375 183.523438 227.5625 185.15625 225.808594 187.207031 C 223.425781 190.011719 222.632812 191.351562 222.757812 192.398438 L 222.882812 193.570312 L 232.910156 193.570312 L 233.035156 192.398438 C 233.203125 191.097656 233.246094 191.140625 229.191406 191.097656 C 227.605469 191.058594 226.226562 190.847656 226.183594 190.640625 C 226.101562 190.386719 226.980469 189.175781 228.105469 187.917969 C 229.234375 186.664062 230.195312 185.492188 230.195312 185.367188 C 230.195312 185.199219 230.78125 184.445312 231.449219 183.691406 C 232.285156 182.769531 232.660156 181.890625 232.617188 181.222656 C 232.492188 180.175781 232.492188 180.175781 227.5625 180.050781 C 223.554688 179.964844 222.632812 180.050781 222.425781 180.550781 Z M 222.425781 180.550781 "/>
<path style=" stroke:none;fill-rule:nonzero;fill:rgb(0%,0%,0%);fill-opacity:1;" d="M 235.792969 180.46875 C 235.335938 181.222656 235.5 189.925781 236.003906 191.183594 C 236.503906 192.4375 238.84375 194.195312 239.929688 194.195312 C 240.304688 194.195312 241.265625 193.863281 242.101562 193.484375 C 243.355469 192.898438 243.691406 192.855469 244.609375 193.359375 C 245.277344 193.695312 245.820312 193.777344 246.070312 193.527344 C 246.363281 193.234375 246.613281 186.035156 246.53125 180.886719 C 246.488281 180.132812 246.238281 179.964844 245.277344 179.964844 C 244.609375 179.964844 243.980469 180.21875 243.816406 180.59375 C 243.691406 180.929688 243.730469 183.0625 243.855469 185.324219 C 244.066406 189.175781 244.023438 189.550781 243.1875 190.386719 C 242.605469 190.972656 241.808594 191.265625 240.640625 191.265625 C 238.300781 191.265625 237.964844 190.429688 238.21875 185.238281 C 238.34375 182.894531 238.34375 180.761719 238.257812 180.46875 C 238.007812 179.839844 236.210938 179.800781 235.792969 180.46875 Z M 235.792969 180.46875 "/>
<path style=" stroke:none;fill-rule:nonzero;fill:rgb(0%,0%,0%);fill-opacity:1;" d="M 77.207031 212.484375 L 75.617188 212.652344 L 75.617188 231.988281 C 75.617188 242.621094 75.785156 251.535156 75.953125 251.828125 C 76.117188 252.078125 76.703125 252.414062 77.289062 252.539062 C 78.207031 252.707031 126.085938 253.417969 138.285156 253.417969 C 142.296875 253.417969 142.878906 253.335938 144.96875 252.203125 C 150.816406 249.148438 153.867188 247.433594 158.335938 244.710938 C 160.96875 243.121094 163.433594 241.699219 163.769531 241.53125 C 164.5625 241.195312 169.160156 238.644531 173.710938 235.964844 C 175.59375 234.878906 177.261719 233.957031 177.347656 233.957031 C 177.429688 233.957031 179.269531 232.910156 181.398438 231.613281 C 186.203125 228.683594 190.507812 226.421875 191.257812 226.421875 C 191.632812 226.421875 191.761719 226.046875 191.675781 225.25 C 191.550781 224.203125 191.382812 224.078125 189.253906 223.871094 C 188 223.703125 185.367188 223.160156 183.40625 222.65625 C 180.019531 221.820312 178.515625 221.484375 170.453125 219.9375 C 159.171875 217.757812 142.210938 215.289062 134.355469 214.703125 C 131.558594 214.496094 128.257812 214.160156 127.003906 213.949219 C 125.75 213.742188 122.199219 213.53125 119.109375 213.492188 C 116.015625 213.449219 113.300781 213.28125 113.050781 213.113281 C 112.800781 212.988281 111.671875 212.820312 110.503906 212.777344 C 105.445312 212.527344 78.585938 212.277344 77.207031 212.484375 Z M 108.832031 215.582031 C 114.347656 215.835938 120.652344 216.167969 122.828125 216.378906 C 138.199219 217.632812 143.671875 218.179688 144.96875 218.472656 C 147.226562 219.015625 159.96875 221.109375 162.308594 221.316406 C 163.476562 221.402344 164.644531 221.695312 164.980469 221.988281 C 165.316406 222.238281 167.277344 222.574219 169.367188 222.699219 C 171.457031 222.824219 173.542969 223.160156 174.003906 223.410156 C 174.882812 223.910156 178.515625 224.664062 181.734375 225.042969 C 182.777344 225.167969 183.78125 225.417969 183.949219 225.585938 C 184.492188 226.089844 183.488281 227.679688 182.652344 227.71875 C 181.816406 227.761719 178.015625 229.8125 171.75 233.621094 C 169.242188 235.210938 167.027344 236.46875 166.902344 236.46875 C 166.734375 236.46875 164.480469 237.808594 161.804688 239.4375 C 159.171875 241.070312 156.582031 242.578125 156.082031 242.789062 C 155.621094 242.996094 154.703125 243.5 154.078125 243.917969 C 152.863281 244.710938 145.929688 248.730469 143.925781 249.820312 C 142.796875 250.40625 139.496094 250.445312 110.921875 250.363281 C 93.457031 250.277344 78.835938 250.113281 78.375 249.984375 C 77.625 249.777344 77.625 249.398438 77.914062 242.578125 C 78.082031 238.644531 78.25 230.984375 78.292969 225.585938 C 78.332031 220.1875 78.457031 215.542969 78.625 215.332031 C 78.960938 214.789062 94.542969 214.914062 108.832031 215.582031 Z M 108.832031 215.582031 "/>
<path style=" stroke:none;fill-rule:nonzero;fill:rgb(0%,0%,0%);fill-opacity:1;" d="M 280.539062 220.144531 C 280.289062 220.523438 280.203125 228.976562 280.328125 237.847656 C 280.328125 238.058594 280.914062 238.140625 281.664062 238.058594 L 283.003906 237.933594 L 283.042969 228.933594 L 283.042969 219.9375 L 281.917969 219.808594 C 281.332031 219.726562 280.703125 219.894531 280.539062 220.144531 Z M 280.539062 220.144531 "/>
<path style=" stroke:none;fill-rule:nonzero;fill:rgb(0%,0%,0%);fill-opacity:1;" d="M 208.511719 221.652344 C 208.011719 222.28125 207.636719 222.992188 207.636719 223.285156 C 207.636719 224.121094 203.5 235.171875 202.957031 235.839844 C 202.789062 236.050781 202.621094 236.636719 202.621094 237.179688 C 202.621094 238.015625 202.832031 238.140625 204.085938 238.140625 C 205.421875 238.140625 205.546875 238.015625 206.007812 236.34375 C 206.800781 233.328125 206.800781 233.328125 210.226562 233.203125 L 213.359375 233.078125 L 214.070312 235.085938 C 214.488281 236.175781 214.863281 237.347656 214.988281 237.597656 C 215.070312 237.890625 215.699219 238.140625 216.410156 238.140625 C 218.121094 238.140625 218.039062 237.054688 215.992188 232.492188 C 215.78125 232.03125 214.863281 229.394531 213.902344 226.632812 C 212.984375 223.871094 211.898438 221.359375 211.519531 221.066406 C 210.433594 220.269531 209.433594 220.480469 208.511719 221.652344 Z M 211.1875 225.878906 C 211.355469 226.546875 211.730469 227.679688 212.0625 228.433594 C 213.023438 230.648438 212.859375 230.941406 210.519531 231.109375 C 207.71875 231.277344 207.386719 231.027344 208.21875 229.351562 C 208.597656 228.597656 208.890625 227.71875 208.890625 227.425781 C 208.890625 226.296875 209.722656 224.75 210.351562 224.75 C 210.683594 224.75 211.0625 225.25 211.1875 225.878906 Z M 211.1875 225.878906 "/>
<path style=" stroke:none;fill-rule:nonzero;fill:rgb(0%,0%,0%);fill-opacity:1;" d="M 224.429688 224.957031 C 223.425781 225.375 222.757812 225.460938 221.964844 225.125 C 219.792969 224.332031 219.710938 224.582031 219.835938 231.527344 L 219.960938 237.933594 L 222.464844 237.933594 L 222.59375 233.035156 L 222.71875 228.097656 L 223.929688 227.46875 C 225.558594 226.632812 226.5625 226.675781 227.480469 227.679688 C 228.105469 228.390625 228.191406 229.144531 228.066406 233.203125 L 227.898438 237.933594 L 230.820312 237.933594 L 230.65625 233.246094 L 230.53125 228.558594 L 231.910156 227.71875 C 233.789062 226.546875 235.042969 226.632812 235.878906 227.886719 C 236.421875 228.726562 236.546875 229.769531 236.421875 233.453125 L 236.253906 237.933594 L 237.632812 238.058594 C 238.507812 238.140625 238.96875 238.015625 239.011719 237.640625 C 239.011719 237.347656 239.011719 234.835938 238.96875 232.074219 C 238.925781 227.261719 238.886719 227.007812 237.839844 225.921875 C 236.042969 224.039062 232.996094 223.996094 231.199219 225.796875 C 230.40625 226.589844 229.988281 226.589844 229.277344 225.878906 C 228.523438 225.082031 227.019531 224.332031 226.351562 224.332031 C 226.058594 224.371094 225.183594 224.625 224.429688 224.957031 Z M 224.429688 224.957031 "/>
<path style=" stroke:none;fill-rule:nonzero;fill:rgb(0%,0%,0%);fill-opacity:1;" d="M 244.191406 224.707031 C 243.148438 224.917969 242.894531 225.167969 242.8125 226.382812 C 242.6875 227.71875 242.730469 227.761719 243.855469 227.46875 C 247.617188 226.507812 250.457031 226.925781 250.164062 228.433594 C 250.082031 228.933594 249.203125 229.269531 246.90625 229.644531 C 243.523438 230.191406 242.1875 231.152344 241.644531 233.414062 C 241.226562 235.003906 242.605469 237.347656 244.441406 238.265625 C 245.863281 238.9375 246.113281 238.9375 247.574219 238.351562 C 248.496094 238.015625 250.039062 237.765625 251.085938 237.847656 L 252.964844 237.933594 L 252.796875 232.492188 C 252.671875 226.507812 252.464844 225.960938 249.957031 224.917969 C 248.578125 224.332031 246.363281 224.246094 244.191406 224.707031 Z M 250.25 233.121094 C 250.25 234.417969 250.039062 234.917969 249.246094 235.421875 C 247.824219 236.34375 245.277344 236.089844 244.523438 234.960938 C 244.023438 234.207031 244.066406 233.957031 244.816406 232.992188 C 245.695312 231.90625 246.488281 231.613281 248.910156 231.488281 C 250.207031 231.445312 250.25 231.488281 250.25 233.121094 Z M 250.25 233.121094 "/>
<path style=" stroke:none;fill-rule:nonzero;fill:rgb(0%,0%,0%);fill-opacity:1;" d="M 269.71875 224.75 C 266.207031 225.796875 264.160156 231.363281 265.957031 234.917969 C 267.042969 237.054688 267.753906 237.640625 270.136719 238.394531 C 272.265625 239.0625 272.515625 239.0625 274.6875 238.351562 C 276.777344 237.722656 276.988281 237.515625 276.988281 236.46875 C 276.988281 234.878906 276.445312 234.625 274.941406 235.421875 C 273.4375 236.175781 270.761719 236.214844 269.84375 235.503906 C 268.796875 234.710938 267.710938 232.785156 268.003906 232.28125 C 268.128906 232.03125 269.925781 231.863281 272.183594 231.863281 C 276.902344 231.863281 277.40625 231.695312 277.40625 230.191406 C 277.40625 227.511719 276.109375 225.667969 273.6875 224.832031 C 272.058594 224.246094 271.429688 224.246094 269.71875 224.75 Z M 274.230469 228.222656 C 275.355469 229.769531 274.730469 230.191406 271.222656 230.191406 C 268.046875 230.191406 267.378906 229.394531 269.257812 227.804688 C 270.84375 226.421875 273.019531 226.589844 274.230469 228.222656 Z M 274.230469 228.222656 "/>
<path style=" stroke:none;fill-rule:nonzero;fill:rgb(0%,0%,0%);fill-opacity:1;" d="M 290.480469 224.664062 C 288.894531 225.167969 286.636719 227.59375 286.34375 229.183594 C 286.21875 229.980469 286.179688 231.695312 286.261719 232.953125 C 286.46875 235.628906 287.515625 237.011719 290.3125 238.226562 C 292.027344 239.019531 292.195312 239.019531 293.949219 238.351562 C 297.707031 236.929688 299.378906 233.285156 298.210938 229.101562 C 297.75 227.386719 297.289062 226.839844 295.621094 225.667969 C 293.65625 224.371094 292.402344 224.121094 290.480469 224.664062 Z M 294.117188 227.679688 C 295.410156 228.597656 296.039062 230.941406 295.578125 233.121094 C 294.699219 237.136719 289.476562 237.011719 288.894531 232.953125 C 288.183594 228.265625 290.980469 225.460938 294.117188 227.679688 Z M 294.117188 227.679688 "/>
<path style=" stroke:none;fill-rule:nonzero;fill:rgb(0%,0%,0%);fill-opacity:1;" d="M 257.015625 225.082031 C 256.640625 225.375 256.515625 226.96875 256.597656 231.695312 L 256.722656 237.933594 L 259.230469 237.933594 L 259.355469 233.453125 L 259.480469 228.933594 L 260.691406 228.304688 C 261.363281 227.972656 262.449219 227.679688 263.117188 227.679688 C 264.496094 227.679688 265.039062 226.632812 264.371094 225.417969 C 263.867188 224.539062 262.613281 224.582031 261.070312 225.460938 C 259.984375 226.128906 259.859375 226.128906 259.105469 225.460938 C 258.226562 224.664062 257.8125 224.582031 257.015625 225.082031 Z M 257.015625 225.082031 "/>
<path style=" stroke:none;fill-rule:nonzero;fill:rgb(0%,0%,0%);fill-opacity:1;" d="M 205.171875 239.144531 C 204.375 240.109375 204.753906 241.699219 205.753906 241.699219 C 206.339844 241.699219 206.632812 241.363281 206.714844 240.609375 C 206.882812 239.230469 205.882812 238.265625 205.171875 239.144531 Z M 205.171875 239.144531 "/>
<path style=" stroke:none;fill-rule:nonzero;fill:rgb(0%,0%,0%);fill-opacity:1;" d="M 75.867188 260.953125 C 75.703125 261.539062 75.617188 268.316406 75.617188 276.019531 C 75.660156 286.230469 75.828125 290.082031 76.160156 290.375 C 76.453125 290.582031 85.980469 290.875 98.179688 291.042969 C 115.265625 291.253906 119.859375 291.210938 120.445312 290.792969 C 121.113281 290.289062 121.15625 289.078125 121.070312 275.390625 L 120.945312 260.53125 L 118.648438 260.238281 C 117.394531 260.113281 107.285156 259.988281 96.257812 259.945312 L 76.117188 259.90625 Z M 101.855469 262.457031 C 109.125 262.5 115.851562 262.625 116.769531 262.792969 L 118.441406 263.042969 L 118.441406 288.574219 L 100.894531 288.492188 C 82.59375 288.363281 78.710938 288.28125 78.457031 287.945312 C 78.375 287.820312 78.375 281.917969 78.457031 274.804688 L 78.585938 261.871094 L 83.597656 262.164062 C 86.355469 262.332031 94.542969 262.457031 101.855469 262.457031 Z M 101.855469 262.457031 "/>
<path style=" stroke:none;fill-rule:nonzero;fill:rgb(0%,0%,0%);fill-opacity:1;" d="M 150.109375 267.355469 C 148.730469 268.777344 150.109375 269.65625 153.40625 269.488281 L 156.039062 269.320312 L 156.125 276.4375 C 156.164062 280.328125 156.207031 283.804688 156.207031 284.097656 C 156.25 284.472656 156.707031 284.597656 157.628906 284.515625 L 158.964844 284.390625 L 158.921875 276.9375 L 158.882812 269.53125 L 161.890625 269.53125 C 165.105469 269.53125 165.898438 269.027344 165.0625 267.523438 C 164.730469 266.976562 163.644531 266.851562 157.667969 266.851562 C 152.40625 266.8125 150.523438 266.9375 150.109375 267.355469 Z M 150.109375 267.355469 "/>
<path style=" stroke:none;fill-rule:nonzero;fill:rgb(0%,0%,0%);fill-opacity:1;" d="M 284.839844 267.3125 C 284.296875 267.4375 284.089844 267.898438 284.089844 269.113281 C 284.089844 269.992188 283.839844 270.914062 283.460938 271.207031 C 283.128906 271.5 282.835938 271.957031 282.835938 272.25 C 282.835938 272.542969 283.128906 273.003906 283.460938 273.296875 C 283.921875 273.714844 284.089844 274.804688 284.089844 277.984375 C 284.089844 281.542969 284.214844 282.296875 284.964844 283.34375 C 286.34375 285.140625 290.3125 285.519531 290.941406 283.886719 C 291.316406 282.925781 290.355469 282.003906 289.226562 282.296875 C 288.601562 282.421875 288.015625 282.253906 287.429688 281.667969 C 286.722656 280.957031 286.59375 280.289062 286.59375 277.566406 C 286.59375 273.714844 286.886719 273.089844 288.601562 273.421875 C 290.105469 273.714844 291.441406 272.878906 291.066406 271.875 C 290.855469 271.414062 290.273438 271.207031 288.894531 271.207031 L 287.011719 271.207031 L 287.011719 269.53125 C 287.011719 267.773438 286.21875 267.019531 284.839844 267.3125 Z M 284.839844 267.3125 "/>
<path style=" stroke:none;fill-rule:nonzero;fill:rgb(0%,0%,0%);fill-opacity:1;" d="M 179.058594 270.828125 C 176.636719 271.207031 176.136719 271.625 176.511719 272.878906 C 176.761719 273.675781 177.011719 273.757812 178.140625 273.507812 C 181.734375 272.753906 182.445312 272.753906 183.363281 273.675781 C 184.574219 274.886719 184.238281 275.222656 181.816406 275.515625 C 178.390625 275.933594 176.511719 276.898438 175.675781 278.738281 C 175.007812 280.246094 175.007812 280.496094 175.59375 281.792969 C 176.886719 284.515625 178.933594 285.394531 181.773438 284.429688 C 182.945312 284.011719 183.820312 283.929688 184.492188 284.179688 C 186.539062 284.976562 186.746094 284.515625 186.746094 278.988281 C 186.746094 273.464844 186.453125 272.542969 184.324219 271.457031 C 182.609375 270.621094 181.316406 270.453125 179.058594 270.828125 Z M 184.15625 279.242188 C 184.28125 280.621094 184.113281 280.914062 182.902344 281.667969 C 181.230469 282.671875 180.144531 282.714844 178.890625 281.835938 C 177.054688 280.539062 178.265625 278.445312 181.230469 277.859375 C 183.695312 277.398438 184.03125 277.523438 184.15625 279.242188 Z M 184.15625 279.242188 "/>
<path style=" stroke:none;fill-rule:nonzero;fill:rgb(0%,0%,0%);fill-opacity:1;" d="M 195.394531 271.039062 C 194.558594 271.5 193.683594 271.582031 192.59375 271.414062 C 191.632812 271.246094 190.882812 271.332031 190.757812 271.582031 C 190.589844 271.832031 190.421875 274.679688 190.382812 277.945312 C 190.296875 284.347656 190.464844 284.890625 192.429688 284.429688 L 193.515625 284.136719 L 193.222656 279.660156 C 192.929688 275.308594 192.972656 275.140625 193.933594 274.261719 C 195.101562 273.214844 195.769531 273.003906 197.273438 273.421875 C 198.777344 273.800781 199.03125 274.929688 198.777344 279.742188 C 198.652344 281.835938 198.652344 283.804688 198.738281 284.054688 C 198.988281 284.765625 200.785156 284.765625 201.242188 284.054688 C 201.410156 283.804688 201.496094 281.292969 201.410156 278.53125 C 201.285156 273.171875 200.992188 272.335938 198.777344 271.039062 C 197.441406 270.199219 196.898438 270.199219 195.394531 271.039062 Z M 195.394531 271.039062 "/>
<path style=" stroke:none;fill-rule:nonzero;fill:rgb(0%,0%,0%);fill-opacity:1;" d="M 206.96875 271.164062 C 204.085938 272.503906 203.039062 275.015625 204.628906 276.855469 C 205.503906 277.902344 208.179688 279.15625 209.472656 279.15625 C 211.605469 279.15625 212.023438 281.542969 210.015625 282.253906 C 209.179688 282.546875 208.347656 282.464844 206.800781 281.917969 C 204.585938 281.125 203.875 281.25 203.875 282.503906 C 203.875 284.640625 209.765625 285.644531 212.105469 283.929688 C 214.863281 281.878906 214.90625 278.863281 212.230469 277.484375 C 211.3125 277.023438 210.226562 276.644531 209.765625 276.644531 C 208.636719 276.644531 206.882812 275.808594 206.632812 275.140625 C 206.425781 274.59375 208.179688 272.878906 208.929688 272.878906 C 209.140625 272.878906 210.183594 273.257812 211.355469 273.675781 C 213.609375 274.59375 213.902344 274.511719 213.902344 272.878906 C 213.902344 271.917969 213.609375 271.625 212.105469 271.039062 C 209.851562 270.199219 209.097656 270.199219 206.96875 271.164062 Z M 206.96875 271.164062 "/>
<path style=" stroke:none;fill-rule:nonzero;fill:rgb(0%,0%,0%);fill-opacity:1;" d="M 222.175781 270.996094 C 221.503906 271.371094 220.253906 271.582031 219.25 271.539062 L 217.453125 271.414062 L 217.246094 279.785156 C 217.078125 284.890625 217.160156 288.363281 217.410156 288.699219 C 217.621094 288.992188 218.289062 289.203125 218.875 289.117188 C 219.875 288.992188 219.960938 288.867188 219.960938 286.691406 L 219.960938 284.390625 L 222.464844 284.515625 C 225.476562 284.683594 226.894531 283.804688 228.148438 281.082031 C 230.65625 275.601562 226.476562 268.609375 222.175781 270.996094 Z M 225.601562 274.804688 C 227.523438 277.859375 225.558594 282.503906 222.300781 282.503906 C 220.378906 282.503906 219.792969 281.417969 219.792969 277.984375 C 219.792969 274.386719 220.585938 273.296875 223.136719 273.296875 C 224.472656 273.296875 224.847656 273.507812 225.601562 274.804688 Z M 225.601562 274.804688 "/>
<path style=" stroke:none;fill-rule:nonzero;fill:rgb(0%,0%,0%);fill-opacity:1;" d="M 233.328125 270.953125 C 231.617188 271.457031 231.15625 272.210938 231.824219 273.257812 C 232.160156 273.800781 232.535156 273.800781 234.582031 273.296875 C 236.671875 272.796875 237.128906 272.796875 238.089844 273.339844 C 238.675781 273.675781 239.21875 274.261719 239.304688 274.679688 C 239.429688 275.222656 239.136719 275.390625 238.050781 275.433594 C 237.296875 275.433594 235.625 275.765625 234.375 276.144531 C 232.410156 276.773438 231.949219 277.105469 231.28125 278.488281 C 230.570312 279.996094 230.53125 280.246094 231.113281 281.835938 C 231.949219 284.222656 233.957031 285.226562 236.503906 284.554688 C 238.425781 284.097656 239.429688 284.011719 240.847656 284.261719 C 241.644531 284.390625 241.683594 284.136719 241.808594 278.988281 C 241.933594 272.671875 241.683594 272.042969 238.71875 271.039062 C 236.421875 270.242188 235.625 270.242188 233.328125 270.953125 Z M 239.34375 278.070312 C 240.136719 279.03125 239.429688 281.167969 238.007812 281.878906 C 236.421875 282.671875 235.207031 282.671875 234.039062 281.835938 C 231.742188 280.246094 234.039062 277.984375 238.382812 277.523438 C 238.632812 277.523438 239.09375 277.734375 239.34375 278.070312 Z M 239.34375 278.070312 "/>
<path style=" stroke:none;fill-rule:nonzero;fill:rgb(0%,0%,0%);fill-opacity:1;" d="M 259.273438 270.785156 C 255.179688 272.042969 253.007812 278.613281 255.554688 282.046875 C 257.183594 284.179688 258.355469 284.722656 261.402344 284.722656 C 264.578125 284.722656 265.914062 284.222656 266.332031 282.882812 C 266.835938 281.332031 265.957031 281 263.449219 281.835938 C 261.488281 282.503906 261.027344 282.546875 259.691406 282.046875 C 258.101562 281.460938 256.558594 279.242188 257.140625 278.363281 C 257.308594 278.070312 259.230469 277.902344 261.988281 277.902344 L 266.542969 277.902344 L 266.542969 276.269531 C 266.542969 272.671875 262.699219 269.742188 259.273438 270.785156 Z M 263.074219 273.800781 C 263.367188 274.050781 263.617188 274.679688 263.617188 275.222656 C 263.617188 276.1875 263.492188 276.226562 260.484375 276.226562 C 257.726562 276.226562 257.351562 276.144531 257.351562 275.472656 C 257.351562 273.382812 261.238281 272.25 263.074219 273.800781 Z M 263.074219 273.800781 "/>
<path style=" stroke:none;fill-rule:nonzero;fill:rgb(0%,0%,0%);fill-opacity:1;" d="M 274.394531 271.039062 C 273.726562 271.371094 272.476562 271.582031 271.472656 271.539062 L 269.675781 271.414062 L 269.425781 277.484375 C 269.132812 284.222656 269.300781 284.933594 271.347656 284.429688 L 272.476562 284.136719 L 272.183594 279.742188 C 271.890625 275.515625 271.929688 275.265625 272.851562 274.300781 C 273.519531 273.589844 274.230469 273.296875 275.355469 273.296875 C 277.570312 273.296875 277.949219 274.136719 277.820312 279.324219 C 277.738281 281.625 277.738281 283.804688 277.78125 284.054688 C 277.820312 284.765625 279.703125 284.765625 280.203125 284.054688 C 280.453125 283.761719 280.539062 281.460938 280.414062 278.488281 C 280.246094 273.800781 280.160156 273.296875 279.199219 272.25 C 278.28125 271.289062 276.609375 270.328125 275.816406 270.367188 C 275.648438 270.410156 275.023438 270.660156 274.394531 271.039062 Z M 274.394531 271.039062 "/>
<path style=" stroke:none;fill-rule:nonzero;fill:rgb(0%,0%,0%);fill-opacity:1;" d="M 296.246094 271.039062 C 291.734375 273.003906 290.5625 279.910156 294.15625 283.21875 C 296.457031 285.269531 302.261719 285.308594 303.347656 283.257812 C 304.308594 281.417969 302.890625 280.707031 300.632812 281.878906 C 299.128906 282.671875 298.542969 282.671875 297.039062 281.878906 C 295.703125 281.167969 294.324219 278.988281 294.785156 278.277344 C 294.949219 278.027344 296.496094 277.859375 298.667969 277.902344 C 304.308594 278.027344 303.851562 278.195312 303.640625 275.808594 C 303.390625 273.421875 302.261719 271.875 300.089844 270.953125 C 298.460938 270.242188 298.085938 270.242188 296.246094 271.039062 Z M 299.882812 273.550781 C 300.507812 273.96875 300.800781 274.554688 300.714844 275.097656 C 300.589844 275.933594 300.296875 276.019531 297.75 276.144531 C 294.992188 276.269531 294.910156 276.226562 295.035156 275.308594 C 295.117188 274.679688 295.703125 274.09375 296.621094 273.632812 C 298.417969 272.710938 298.710938 272.710938 299.882812 273.550781 Z M 299.882812 273.550781 "/>
<path style=" stroke:none;fill-rule:nonzero;fill:rgb(0%,0%,0%);fill-opacity:1;" d="M 171.539062 271.539062 C 170.246094 272.042969 169.785156 272.042969 168.992188 271.625 C 167.027344 270.578125 166.820312 271.078125 166.609375 277.566406 C 166.484375 281 166.566406 283.761719 166.820312 284.054688 C 167.320312 284.765625 169.074219 284.765625 169.492188 284.054688 C 169.660156 283.804688 169.742188 281.753906 169.660156 279.535156 C 169.535156 275.726562 169.574219 275.472656 170.496094 274.804688 C 171.039062 274.429688 172.167969 274.136719 173.042969 274.136719 C 174.796875 274.136719 175.214844 273.675781 174.882812 272.292969 C 174.546875 270.996094 173.460938 270.746094 171.539062 271.539062 Z M 171.539062 271.539062 "/>
<path style=" stroke:none;fill-rule:nonzero;fill:rgb(0%,0%,0%);fill-opacity:1;" d="M 251.292969 271.121094 C 250.832031 271.246094 250.082031 271.582031 249.664062 271.875 C 248.953125 272.378906 248.746094 272.335938 248.117188 271.792969 C 247.699219 271.414062 247.03125 271.207031 246.613281 271.289062 C 245.945312 271.414062 245.863281 272 245.738281 277.777344 L 245.652344 284.179688 L 246.738281 284.429688 C 248.621094 284.890625 248.953125 284.054688 248.621094 279.828125 C 248.367188 276.5625 248.453125 275.976562 249.121094 275.140625 C 249.707031 274.34375 250.289062 274.136719 251.753906 274.136719 C 253.339844 274.136719 253.589844 274.007812 253.839844 273.128906 C 253.96875 272.542969 253.96875 271.917969 253.839844 271.707031 C 253.507812 271.164062 252.335938 270.914062 251.292969 271.121094 Z M 251.292969 271.121094 "/>
</g>
</svg>
