<?xml version="1.0" encoding="UTF-8" standalone="no"?>
<svg
   xmlns:dc="http://purl.org/dc/elements/1.1/"
   xmlns:cc="http://creativecommons.org/ns#"
   xmlns:rdf="http://www.w3.org/1999/02/22-rdf-syntax-ns#"
   xmlns:svg="http://www.w3.org/2000/svg"
   xmlns="http://www.w3.org/2000/svg"
   xmlns:sodipodi="http://sodipodi.sourceforge.net/DTD/sodipodi-0.dtd"
   xmlns:inkscape="http://www.inkscape.org/namespaces/inkscape"
   version="1.0"
   width="500.10699"
   height="147.70058"
   viewBox="0 0 400.0856 118.16046"
   preserveAspectRatio="xMidYMid meet"
   id="svg3123"
   inkscape:version="0.48.4 r9939"
   sodipodi:docname="b566072977beb4f5efffb7f91ec33dab376b57f5.svg">
  <defs
     id="defs3161" />
  <sodipodi:namedview
     pagecolor="#ffffff"
     bordercolor="#666666"
     borderopacity="1"
     objecttolerance="10"
     gridtolerance="10"
     guidetolerance="10"
     inkscape:pageopacity="0"
     inkscape:pageshadow="2"
     inkscape:window-width="1600"
     inkscape:window-height="824"
     id="namedview3159"
     showgrid="false"
     inkscape:zoom="0.816"
     inkscape:cx="505.42099"
     inkscape:cy="55.96799"
     inkscape:window-x="0"
     inkscape:window-y="24"
     inkscape:window-maximized="1"
     inkscape:current-layer="svg3123"
     fit-margin-top="0"
     fit-margin-left="0"
     fit-margin-right="0"
     fit-margin-bottom="0" />
  <metadata
     id="metadata3125">
Created by potrace 1.10, written by Peter Selinger 2001-2011
<rdf:RDF>
  <cc:Work
     rdf:about="">
    <dc:format>image/svg+xml</dc:format>
    <dc:type
       rdf:resource="http://purl.org/dc/dcmitype/StillImage" />
  </cc:Work>
</rdf:RDF>
</metadata>
  <g
     transform="matrix(0.04480814,0,0,-0.04480814,-3.187658,119.11228)"
     id="g3127"
     style="fill:#000000;stroke:none">
    <path
       d="M 89,2641 C 70,2625 70,2610 72,1325 L 75,25 4513,22 c 4214,-2 4439,-1 4462,15 l 24,18 1,1285 0,1285 -38,17 c -35,16 -313,17 -4445,16 -4058,0 -4409,-2 -4428,-17 z m 825,-51 c 2,-8 4,-73 5,-143 0,-133 5,-157 25,-137 7,7 12,62 13,147 2,75 4,138 6,139 5,5 358,6 363,1 3,-3 7,-65 8,-139 2,-135 15,-197 31,-147 5,13 9,83 11,154 1,72 3,132 3,135 1,7 360,2 372,-5 5,-4 9,-63 9,-133 0,-126 8,-169 26,-141 5,8 10,73 10,144 l 2,130 184,5 c 100,3 185,4 188,2 2,-2 4,-47 2,-100 -1,-53 2,-125 6,-160 6,-44 5,-65 -3,-72 -16,-13 -795,-13 -811,1 -8,7 -14,7 -19,-1 -9,-14 -391,-14 -401,1 -4,8 -9,8 -17,0 -7,-7 -77,-11 -198,-11 -153,0 -189,3 -199,15 -7,8 -9,22 -6,31 4,10 7,76 7,148 0,72 4,135 9,141 5,6 79,10 189,10 153,0 182,-2 185,-15 z m 1677,5 c 5,-4 9,-68 9,-143 0,-75 4,-143 9,-150 17,-27 25,22 27,158 l 2,135 181,5 c 109,3 186,1 192,-5 5,-5 9,-69 9,-141 0,-123 7,-160 28,-139 4,3 8,69 10,145 l 4,139 182,3 c 112,2 184,-1 188,-7 4,-5 8,-65 8,-132 0,-121 4,-153 21,-153 13,0 21,59 22,177 l 2,108 188,3 187,2 0,-122 c 0,-124 10,-169 30,-138 14,22 22,108 18,186 l -3,69 194,0 193,0 2,-125 c 1,-84 6,-133 15,-149 23,-41 31,-5 31,141 0,80 4,138 10,140 5,2 90,1 187,-2 l 178,-5 -2,-55 c -3,-82 7,-214 18,-231 20,-30 29,18 29,153 0,80 4,138 10,140 5,2 92,1 192,-2 l 181,-5 2,-130 c 0,-72 4,-136 9,-143 18,-30 26,8 26,132 0,72 4,136 9,141 6,6 85,9 189,7 l 180,-3 4,-137 c 2,-75 7,-143 12,-150 19,-31 27,12 28,140 0,75 3,139 7,144 8,12 364,12 372,0 4,-5 5,-43 2,-85 -3,-42 0,-110 5,-151 6,-49 6,-79 0,-87 -8,-10 -145,-12 -622,-9 -336,2 -719,4 -851,4 -916,-1 -1904,1 -2086,3 l -216,4 3,160 c 1,88 3,162 3,165 1,7 360,2 372,-5 z m 3778,2 34,-2 0,-159 1,-160 -161,-2 c -167,-1 -240,-16 -151,-29 26,-4 106,-8 179,-9 l 133,-1 1,-130 c 1,-74 6,-139 13,-150 17,-31 21,-5 24,145 l 3,135 115,-3 c 63,-1 148,1 188,6 49,5 75,5 81,-2 5,-6 11,-80 13,-164 4,-120 2,-154 -9,-163 -10,-9 -11,-15 -1,-26 16,-20 16,-706 -1,-726 -9,-11 -8,-17 1,-25 10,-8 12,-52 10,-174 -1,-89 -2,-170 -2,-178 2,-61 -3,-336 -6,-339 -5,-6 -376,-1 -386,5 -4,3 -8,45 -8,94 0,146 -27,121 -33,-30 l -2,-65 -120,-6 c -66,-4 -132,-7 -147,-8 -52,-2 -28,-18 45,-30 39,-6 106,-12 147,-14 l 75,-2 0,-162 c 0,-90 -2,-163 -5,-164 -3,0 -88,-1 -189,-1 l -184,-2 -3,140 c -2,76 -4,148 -6,159 -2,16 3,21 32,23 44,4 63,20 32,28 -26,7 -30,34 -5,34 9,0 23,7 32,15 9,8 61,48 116,89 55,40 113,88 128,105 16,17 37,31 47,31 11,0 23,7 28,16 5,9 7,107 4,220 -3,148 -1,208 7,218 9,10 9,16 1,21 -16,10 -12,711 4,724 6,5 37,5 76,-1 70,-10 252,-3 278,11 13,7 11,10 -9,17 -29,9 -365,8 -397,-2 -20,-6 -38,8 -131,105 -59,61 -112,111 -118,111 -17,0 -106,103 -119,137 -8,22 -8,49 -2,85 5,29 8,96 7,148 -1,52 -1,100 0,105 1,9 220,10 340,2 z m 452,-4 c 4,-4 9,-78 10,-163 l 2,-155 -194,1 -194,1 -3,153 c -1,85 2,157 7,164 11,13 359,12 372,-1 z m 1687,2 c 3,-3 5,-54 4,-113 -3,-117 6,-165 30,-170 22,-4 30,51 26,176 -2,69 1,105 9,110 6,4 94,5 194,2 l 184,-5 2,-157 c 2,-119 -1,-158 -10,-159 -295,-15 -2037,-22 -2072,-9 -21,8 -25,14 -19,28 4,9 9,81 12,160 l 4,142 187,-2 186,-3 5,-133 c 3,-72 9,-133 14,-135 18,-4 27,58 24,163 l -3,105 193,3 192,2 0,-112 c 0,-154 13,-194 40,-128 8,19 11,64 8,130 -3,95 -3,101 17,106 11,2 96,3 189,2 l 169,-3 1,-115 c 1,-76 6,-123 15,-139 24,-44 36,-8 39,127 2,70 7,129 12,132 11,7 341,2 348,-5 z M 496,2455 c 1,-77 4,-149 6,-160 3,-19 -2,-20 -192,-19 l -195,1 -3,148 c -1,82 0,155 2,162 4,11 45,13 192,11 l 187,-3 3,-140 z m 4,-231 c 14,-35 13,-311 0,-319 -8,-5 -8,-11 -1,-19 14,-17 14,-723 0,-732 -7,-4 -7,-10 1,-19 10,-12 9,-336 -2,-884 L 495,57 310,58 c -102,0 -188,1 -192,1 -11,1 -10,313 1,330 7,10 26,12 90,6 86,-8 228,1 252,15 29,19 -9,25 -174,30 l -172,5 0,155 0,155 162,5 c 106,3 166,9 174,17 18,18 -16,23 -186,26 l -150,2 0,159 0,159 165,1 c 164,2 202,8 181,29 -7,7 -73,11 -178,12 l -168,1 -3,145 c -1,79 -1,153 2,164 5,19 13,20 149,20 109,0 148,3 161,14 33,28 0,36 -151,38 -80,1 -150,6 -155,11 -5,5 -7,78 -6,162 l 3,153 165,1 c 165,2 202,8 181,29 -7,7 -72,11 -179,12 l -167,1 0,159 0,160 120,-3 c 99,-2 165,3 248,17 4,0 12,-11 17,-25 z m 1940,11 175,0 0,-165 0,-165 -30,2 c -84,7 -322,6 -334,-1 -9,-6 -10,-11 -1,-20 10,-10 235,-13 335,-4 l 30,3 0,-365 0,-365 -30,3 c -75,6 -322,5 -334,-2 -9,-6 -10,-11 -2,-19 10,-10 239,-13 336,-5 l 30,3 2,-339 c 2,-234 -1,-343 -8,-352 -7,-9 -12,-82 -13,-200 l -1,-186 -190,-1 -190,-1 -3,549 c -1,303 -2,712 -2,910 1,198 1,369 1,380 -2,170 1,340 5,347 3,5 15,5 27,1 12,-4 101,-7 197,-8 z m 2288,-894 c 1,-650 -1,-898 -9,-907 -17,-21 7,-47 31,-34 12,6 242,10 608,10 324,0 597,2 606,6 26,10 36,-34 25,-117 -6,-41 -9,-112 -7,-158 l 3,-83 -190,-1 -190,-1 -2,139 c -1,76 -5,150 -8,164 -14,55 -29,-14 -35,-158 l -5,-145 -185,1 -185,0 -2,134 c -2,74 -6,145 -9,159 -5,24 -6,24 -17,5 -7,-12 -12,-76 -12,-159 l -1,-138 -190,-1 -189,0 -5,156 c -5,142 -10,180 -25,165 -12,-12 -23,-167 -18,-240 5,-68 4,-78 -11,-79 -9,0 -94,-1 -188,-1 l -173,-1 -6,169 c -6,178 -2,202 32,183 24,-12 229,-17 282,-6 20,4 37,12 37,17 0,16 -63,22 -213,19 -142,-4 -150,-3 -158,16 -9,25 -10,251 0,285 l 7,25 149,-3 c 99,-3 160,0 180,8 54,21 7,29 -167,30 -122,1 -172,-2 -189,-12 -19,-10 -148,-14 -643,-16 l -619,-2 7,47 c 5,39 7,916 2,1043 l -1,35 190,-3 c 105,-2 386,-5 625,-7 239,-2 514,-5 610,-7 96,-1 188,1 205,5 28,8 29,9 10,20 -13,7 -80,11 -191,10 l -172,-1 -6,30 c -8,39 -8,226 0,265 l 6,30 201,-1 202,-1 3,-894 z m 4220,890 c 9,-1 12,-39 12,-155 0,-152 0,-154 -22,-158 -13,-2 -106,-4 -208,-3 l -185,0 -3,150 c -1,82 0,155 2,161 4,9 54,11 198,9 106,-2 199,-4 206,-4 z M 5190,2123 c 11,-45 13,-47 22,-23 5,13 16,33 25,42 14,16 18,16 32,4 11,-9 45,-15 103,-17 71,-3 90,0 106,14 18,17 20,17 36,-8 22,-34 32,-32 47,10 15,41 24,43 40,13 26,-48 10,-188 -21,-188 -5,0 -14,18 -20,40 -13,48 -24,50 -45,9 -16,-29 -17,-30 -35,-14 -15,14 -40,18 -110,19 -78,1 -91,-1 -96,-16 -8,-27 -31,-22 -50,11 -22,37 -30,33 -38,-18 -6,-39 -26,-65 -33,-44 -2,6 -10,19 -18,29 -13,18 -15,17 -30,-19 -9,-22 -14,-44 -12,-50 2,-7 -2,-25 -10,-40 -11,-22 -17,-26 -28,-17 -7,6 -15,7 -18,3 -3,-5 -7,-76 -8,-158 -3,-142 -2,-150 17,-153 10,-2 23,-8 27,-12 15,-14 -3,-49 -26,-52 -21,-3 -22,-7 -24,-141 -1,-78 -7,-144 -13,-151 -13,-16 -3,-26 26,-26 32,0 54,-10 54,-25 0,-15 -22,-25 -54,-25 -29,0 -39,-10 -25,-26 11,-13 15,-246 5,-263 -9,-13 22,-30 45,-24 22,6 39,-24 37,-69 0,-18 6,-46 14,-62 l 15,-29 12,36 c 7,20 17,37 22,37 5,0 16,-27 26,-60 l 16,-60 18,40 c 20,44 25,47 48,26 11,-10 44,-15 104,-17 71,-1 91,1 106,15 19,17 20,17 36,-13 19,-37 29,-34 45,15 15,45 31,39 47,-17 10,-32 11,-58 3,-98 -5,-30 -10,-56 -10,-58 0,-2 -7,-3 -15,-3 -9,0 -18,12 -21,30 -4,16 -13,35 -20,41 -11,9 -16,5 -25,-15 -13,-28 -33,-34 -46,-14 -5,9 -37,13 -98,13 -77,0 -92,-3 -106,-19 -15,-19 -17,-18 -42,19 -18,26 -28,34 -31,24 -2,-8 -9,-27 -14,-44 -12,-39 -24,-38 -38,5 -15,45 -29,48 -49,10 -14,-27 -18,-30 -32,-18 -9,7 -47,13 -92,15 -101,2 -114,16 -110,120 3,66 1,74 -19,89 -30,21 -28,41 7,59 28,14 29,17 20,45 -16,45 -8,239 11,250 16,10 18,8 -42,27 -37,11 -35,25 5,39 20,7 30,17 27,25 -3,8 -6,76 -7,152 -1,128 -3,140 -22,154 -27,18 -27,37 2,52 22,11 22,15 19,159 -3,132 -6,149 -24,169 l -21,22 24,11 c 23,10 24,16 24,99 0,116 5,121 107,121 61,0 80,3 84,15 10,25 22,17 45,-27 l 22,-43 9,30 c 27,89 39,92 58,18 z m 2520,17 c 15,-37 23,-37 45,-3 17,26 18,26 34,7 14,-17 28,-19 117,-18 56,1 110,7 121,13 17,9 23,7 36,-12 14,-22 14,-22 21,10 11,48 25,50 44,4 9,-22 20,-41 24,-41 4,0 15,14 23,31 15,29 18,30 34,15 12,-11 37,-16 75,-16 103,0 147,-44 89,-90 -22,-17 -39,-21 -86,-19 -46,2 -62,-1 -72,-14 -17,-23 -22,-22 -40,13 -9,17 -19,30 -24,30 -4,0 -15,-18 -24,-41 -18,-45 -32,-45 -42,3 l -7,31 -19,-24 c -17,-21 -21,-22 -32,-9 -10,13 -30,15 -100,12 -60,-3 -92,0 -102,8 -9,7 -16,11 -18,9 -1,-2 -7,-13 -13,-24 -15,-26 -27,-25 -39,3 -13,29 -33,28 -41,-3 -3,-13 -12,-29 -20,-36 -11,-9 -16,-6 -24,16 -21,54 -6,196 19,181 4,-3 14,-19 21,-36 z M 965,2126 c 3,-7 7,-7 10,-1 3,6 70,9 175,8 164,-2 170,-1 185,20 16,22 16,22 30,3 8,-11 15,-22 15,-25 0,-11 265,0 287,11 16,8 26,7 44,-6 31,-21 34,-21 48,11 l 13,28 20,-28 c 24,-32 43,-35 58,-6 11,19 13,19 29,5 12,-11 37,-16 78,-16 94,0 108,-16 108,-124 0,-81 1,-86 21,-86 12,0 25,-7 28,-16 8,-22 -12,-57 -30,-50 -12,4 -14,-16 -14,-122 0,-70 -3,-137 -6,-149 -5,-20 -2,-23 20,-23 19,0 27,-6 32,-25 7,-28 -10,-55 -35,-55 -14,0 -16,-15 -12,-125 2,-101 0,-130 -12,-149 -18,-27 -13,-36 19,-36 32,0 54,-10 54,-25 0,-15 -22,-25 -54,-25 -32,0 -37,-9 -20,-35 12,-18 14,-46 11,-127 -2,-57 -7,-113 -11,-125 -7,-19 -4,-22 26,-25 26,-2 34,-8 36,-26 4,-26 -14,-53 -31,-47 -7,3 -18,1 -26,-4 -12,-8 -13,-14 -3,-36 19,-41 15,-99 -9,-129 -16,-21 -29,-26 -63,-26 -58,0 -77,22 -76,91 0,30 1,65 2,78 2,19 -3,26 -22,31 -16,4 -26,14 -28,28 -3,16 5,25 34,37 29,12 35,18 26,27 -15,15 -17,254 -2,263 17,11 0,25 -29,25 -15,0 -36,6 -46,14 -17,12 -17,16 -6,30 11,13 11,22 3,41 -12,25 -36,33 -47,15 -12,-19 -25,-10 -40,26 l -15,36 -26,-17 c -20,-13 -31,-15 -48,-6 -11,5 -80,11 -153,13 -131,3 -132,3 -143,-21 l -11,-24 -22,20 c -20,18 -38,20 -164,22 -85,1 -150,-2 -162,-8 -13,-7 -22,-8 -26,-1 -11,18 -22,11 -35,-21 -10,-24 -17,-29 -35,-25 -15,4 -28,-1 -41,-15 -18,-20 -18,-21 1,-35 17,-13 18,-16 5,-24 -8,-6 -26,-13 -40,-16 -50,-12 -54,-14 -42,-26 16,-16 16,-250 1,-265 -8,-8 -3,-16 20,-27 37,-19 39,-38 9,-63 -21,-16 -23,-25 -20,-90 5,-102 -4,-115 -80,-111 -52,3 -64,7 -79,28 -15,21 -17,35 -10,90 7,61 6,66 -16,83 -29,23 -29,44 0,58 21,10 22,13 19,145 -3,95 0,139 8,149 10,12 9,16 -1,20 -59,20 -69,26 -64,35 3,5 10,10 15,10 5,0 21,5 36,10 25,10 26,11 10,29 -15,16 -17,39 -15,150 2,110 0,134 -14,149 -22,25 -21,37 4,54 20,13 21,21 19,133 -4,168 -4,174 -26,190 -19,15 -18,15 4,35 21,17 23,25 17,60 -10,59 3,134 25,148 11,6 67,13 130,14 93,2 113,5 128,21 15,17 17,17 29,1 7,-9 15,-22 18,-28 z m 2101,17 c 15,-19 26,-24 40,-19 24,10 297,12 312,2 6,-3 16,3 22,14 15,28 47,25 63,-7 l 14,-27 12,23 c 9,15 16,19 24,13 19,-16 240,-19 245,-4 7,22 30,13 37,-15 l 7,-28 16,33 c 20,42 48,42 65,0 l 13,-33 13,35 c 12,35 12,35 29,14 15,-18 26,-20 78,-16 98,7 141,-33 92,-85 -17,-18 -32,-23 -74,-23 -29,0 -56,5 -59,10 -10,16 -19,12 -30,-12 -14,-31 -28,-26 -39,13 l -10,32 -11,-34 c -17,-48 -53,-48 -71,1 l -12,35 -7,-33 c -10,-43 -22,-49 -37,-18 -12,27 -23,33 -33,16 -3,-6 -50,-10 -106,-10 -59,0 -99,-4 -99,-10 0,-21 -21,-9 -31,18 l -11,27 -9,-24 c -16,-41 -29,-52 -49,-41 -10,6 -22,20 -26,32 -5,18 -8,19 -18,7 -9,-11 -44,-14 -171,-14 l -159,0 -24,-35 c -28,-43 -38,-47 -47,-21 -10,32 -23,25 -30,-16 -7,-41 -9,-46 -30,-83 -11,-18 -15,-59 -15,-146 0,-99 -3,-123 -15,-128 -21,-8 -19,-20 8,-31 14,-7 22,-19 22,-35 0,-16 -8,-28 -22,-35 -27,-11 -29,-23 -8,-31 12,-5 15,-27 15,-110 0,-88 -2,-103 -15,-98 -9,4 -15,0 -15,-10 0,-9 5,-16 10,-16 18,0 10,-18 -10,-25 -26,-8 -16,-25 14,-25 12,0 31,-6 41,-14 19,-14 19,-15 -5,-24 -14,-6 -38,-13 -53,-17 l -28,-6 30,-27 c 31,-26 31,-27 31,-133 0,-100 -1,-107 -21,-112 -12,-3 -18,-10 -14,-17 4,-6 13,-9 21,-6 20,8 55,-26 56,-54 1,-44 9,-80 19,-80 5,0 9,6 9,13 0,7 5,18 11,24 9,9 19,2 40,-26 l 27,-39 160,1 c 87,0 164,-3 170,-7 6,-3 16,3 22,14 15,28 47,25 63,-7 l 14,-27 12,23 c 8,13 17,19 24,14 7,-4 62,-10 122,-13 102,-5 111,-4 127,15 16,19 16,19 30,-15 l 14,-34 13,32 c 37,88 96,-22 61,-113 -15,-38 -50,-30 -65,15 l -12,34 -11,-32 c -13,-37 -28,-41 -37,-11 -5,15 -11,18 -23,13 -10,-5 -59,-9 -110,-10 -54,-1 -98,-7 -106,-13 -12,-10 -17,-8 -27,10 l -12,23 -14,-27 c -16,-32 -48,-35 -63,-7 -6,11 -16,18 -22,14 -14,-9 -295,-7 -309,2 -6,3 -24,-7 -41,-22 -29,-28 -30,-28 -44,-10 -8,11 -14,26 -14,33 0,19 -10,16 -37,-9 -20,-19 -27,-20 -43,-10 -11,7 -46,12 -79,12 -62,0 -90,15 -92,48 0,9 -1,46 -2,82 -2,60 -4,65 -27,70 -35,8 -42,60 -8,60 36,0 51,14 43,39 -11,35 -8,241 4,255 14,16 4,26 -25,26 -32,0 -54,10 -54,25 0,15 22,25 57,25 18,0 24,4 19,15 -3,8 -6,78 -7,155 -1,141 -4,154 -39,155 -9,0 -15,10 -15,25 0,17 7,26 25,30 l 25,6 0,154 c 0,148 -1,155 -20,155 -43,0 -47,40 -5,48 l 30,6 -1,86 c -1,111 9,125 93,125 32,0 67,5 78,12 16,10 23,9 43,-10 30,-29 34,-28 42,8 8,37 23,38 51,3 z m 4231,0 c 23,-28 23,-28 38,-8 13,16 19,18 35,7 31,-19 219,-16 241,4 16,14 18,13 29,-21 12,-36 7,-98 -10,-125 -8,-13 -11,-13 -22,2 -18,24 -217,31 -235,8 -10,-12 -15,-13 -32,-3 -22,14 -40,2 -61,-38 -14,-25 -27,-24 -36,4 -7,21 -8,21 -20,-8 -7,-16 -13,-42 -14,-56 0,-19 -8,-29 -32,-40 l -33,-14 -5,-143 -5,-143 35,-17 c 36,-17 44,-33 56,-107 l 7,-40 9,33 c 5,17 13,32 18,32 5,0 19,-18 31,-40 25,-44 33,-48 48,-23 8,14 13,15 33,6 39,-19 203,-23 228,-6 15,11 25,12 32,5 17,-17 21,-97 8,-136 -11,-35 -13,-36 -29,-22 -22,20 -210,23 -242,4 -17,-11 -22,-10 -30,5 -13,22 -32,10 -55,-35 -18,-35 -32,-36 -40,-1 -7,27 -7,27 -21,-12 -7,-21 -11,-47 -7,-57 6,-20 -17,-33 -80,-43 -38,-6 -38,-7 -16,-22 21,-15 21,-21 18,-149 l -3,-134 33,-6 c 37,-7 52,-28 52,-76 0,-46 15,-68 24,-34 9,36 21,33 47,-14 25,-44 31,-47 49,-25 8,10 18,12 29,6 9,-5 63,-9 121,-9 82,-1 108,2 122,15 16,14 18,14 25,-3 12,-30 9,-122 -4,-135 -10,-10 -16,-9 -30,2 -24,20 -221,18 -235,-3 -7,-10 -12,-8 -27,10 l -19,22 -25,-31 c -28,-36 -42,-33 -52,13 l -7,32 -15,-27 c -14,-28 -27,-34 -38,-17 -3,6 -43,10 -89,10 -110,0 -119,9 -115,116 4,76 3,78 -21,84 -17,4 -26,14 -28,32 -3,21 2,26 25,31 l 28,5 -3,137 c -3,96 0,140 8,150 13,16 11,18 -42,29 -16,4 -28,13 -28,21 0,8 12,17 28,21 52,11 55,13 43,28 -8,9 -12,58 -11,143 1,70 1,134 1,141 -1,6 -10,12 -20,12 -17,0 -31,18 -31,40 0,5 12,15 27,22 15,7 26,16 25,21 -1,4 -2,70 -2,147 l 0,140 -25,10 c -32,12 -32,26 1,42 25,12 26,17 27,101 2,111 9,117 118,117 43,0 81,5 84,10 11,17 24,11 39,-17 8,-16 15,-23 16,-16 0,20 19,63 27,63 4,0 18,-12 30,-27 z m -1312,-47 c 17,-8 91,-75 166,-148 l 137,-133 5,-94 c 2,-52 1,-108 -4,-124 -10,-35 -7,-40 24,-42 18,-1 22,-8 22,-36 0,-29 -3,-34 -24,-34 l -24,0 2,-142 c 2,-92 -1,-143 -9,-148 -17,-11 -1,-25 29,-25 15,0 32,-5 39,-12 18,-18 -5,-38 -43,-38 -40,0 -48,-8 -29,-28 13,-12 15,-39 12,-148 -2,-84 1,-135 7,-136 6,0 16,-2 24,-2 30,-2 20,-24 -16,-39 -21,-8 -45,-26 -52,-40 -16,-30 -142,-134 -183,-151 -19,-8 -37,-27 -48,-52 l -17,-39 -11,25 c -6,14 -13,33 -16,43 -8,26 -24,21 -42,-15 -16,-31 -17,-32 -33,-12 -14,16 -28,19 -109,18 -55,-1 -98,-6 -104,-12 -9,-9 -18,-6 -35,10 -28,26 -30,77 -5,108 15,19 22,21 40,11 11,-6 62,-11 112,-11 71,0 92,3 96,15 8,21 31,19 39,-4 3,-11 12,-24 20,-31 11,-9 16,-1 29,44 17,57 34,71 43,36 7,-27 17,-25 33,7 25,51 39,137 39,243 1,105 1,105 30,125 34,22 31,35 -8,35 -59,0 -59,43 -1,52 17,2 23,8 20,18 -3,8 -5,77 -5,153 0,125 -2,137 -18,137 -23,0 -42,47 -26,66 6,8 20,14 31,14 14,0 18,5 14,16 -3,9 -6,20 -6,25 0,5 -7,9 -17,9 -14,0 -15,13 -10,119 5,111 4,121 -17,162 -13,25 -48,63 -79,88 l -57,44 -19,-24 -19,-24 -12,25 c -11,25 -13,25 -108,22 -53,-2 -103,-9 -110,-15 -19,-16 -51,28 -52,71 0,38 35,81 53,63 6,-6 51,-11 108,-11 75,0 99,3 109,16 12,13 16,12 34,-10 12,-13 35,-31 51,-40 z M 2097,1973 c -2,-16 -4,-3 -4,27 0,30 2,43 4,28 2,-16 2,-40 0,-55 z m 3485,-84 c 174,0 335,3 358,7 27,4 44,3 49,-4 5,-9 6,-282 1,-747 0,-5 2,-92 5,-192 l 4,-183 -199,0 c -122,0 -201,4 -205,10 -4,7 -12,7 -25,0 -11,-6 -104,-10 -219,-10 l -200,0 6,178 c 3,97 8,180 12,184 4,4 47,3 96,-3 50,-6 137,-9 193,-7 l 104,3 1,-140 c 1,-86 7,-148 14,-160 11,-19 12,-19 17,5 3,14 7,85 9,159 l 2,135 165,1 c 164,1 202,7 181,28 -6,6 -76,11 -178,12 l -168,1 -2,160 c -1,92 3,164 8,171 8,8 18,9 40,1 42,-15 243,-6 264,12 33,27 -2,35 -158,36 l -152,1 -5,149 c -5,146 -16,185 -32,114 -4,-19 -7,-83 -6,-142 1,-59 -1,-111 -5,-115 -4,-3 -74,-7 -156,-7 -155,-1 -191,-10 -162,-38 8,-9 56,-13 167,-13 84,0 154,-2 154,-5 1,-3 1,-77 2,-165 l 0,-160 -108,3 c -60,2 -147,-1 -194,-7 -46,-6 -87,-8 -91,-3 -4,4 -9,173 -11,376 l -3,368 56,-6 c 30,-4 198,-7 371,-7 z m 2478,-4 c 360,-2 790,-10 888,-14 9,-1 12,-40 12,-161 0,-159 0,-160 -22,-161 -13,0 -82,0 -154,1 -141,1 -184,-5 -184,-26 0,-23 79,-36 205,-34 66,2 127,2 136,1 14,-1 16,-22 17,-160 1,-156 0,-159 -21,-163 -12,-2 -105,-3 -207,-3 l -185,0 -3,153 c -2,126 0,159 14,188 21,44 14,51 -29,31 -30,-15 -105,-17 -645,-17 l -611,0 0,188 0,188 167,-3 c 92,-2 372,-6 622,-8 z M 2097,1643 c -2,-32 -3,-6 -3,57 0,63 1,89 3,58 2,-32 2,-84 0,-115 z m 0,-360 c -2,-32 -3,-6 -3,57 0,63 1,89 3,58 2,-32 2,-84 0,-115 z m 5609,135 c 23,-46 22,-46 49,-13 l 23,30 13,-28 c 10,-22 17,-27 33,-21 12,4 62,10 111,13 50,4 95,9 102,12 6,2 18,-5 26,-15 14,-19 15,-18 22,12 10,50 24,48 47,-8 l 21,-51 19,43 c 19,42 20,43 36,23 14,-16 29,-20 86,-20 59,0 71,-3 87,-24 49,-60 4,-108 -97,-103 -50,2 -65,-1 -72,-14 -11,-20 -30,-11 -42,22 -13,34 -25,30 -43,-17 -18,-46 -32,-45 -42,3 -7,30 -8,31 -22,12 -8,-10 -20,-17 -26,-15 -7,3 -61,8 -122,11 -101,5 -111,4 -124,-14 -14,-19 -15,-18 -37,9 l -23,29 -22,-38 c -31,-54 -44,-33 -44,72 0,80 7,122 19,122 3,0 13,-15 22,-32 z M 1337,1137 c 9,-9 10,-29 2,-82 -6,-38 -9,-110 -7,-160 l 3,-90 -167,-5 c -91,-3 -170,-8 -174,-12 -18,-19 59,-29 193,-26 109,2 143,0 144,-9 0,-7 1,-79 1,-160 l 1,-148 -171,-5 c -157,-5 -195,-10 -179,-26 16,-16 167,-26 250,-17 54,5 91,5 94,0 4,-7 7,-301 4,-337 -1,-6 -360,-5 -365,1 -7,7 -18,369 -21,644 -2,143 -6,301 -9,351 -3,50 -4,93 -1,95 2,2 90,3 197,1 130,-2 197,-7 205,-15 z m 440,15 c 10,-6 10,-22 3,-67 -6,-33 -10,-109 -10,-170 1,-109 -3,-307 -11,-669 l -4,-189 -190,0 -190,-1 1,172 c 0,95 2,174 5,176 2,2 27,0 54,-4 94,-16 271,-8 292,14 16,16 -21,21 -180,26 l -171,5 -1,153 c 0,84 1,156 5,160 3,4 78,7 167,7 152,0 187,5 169,23 -4,4 -83,9 -174,12 l -167,5 3,70 c 1,39 -2,111 -7,160 -6,60 -6,94 1,102 7,9 63,13 192,16 99,1 186,3 191,5 6,1 16,-2 22,-6 z m 6031,-3 c 262,-1 533,-5 602,-10 69,-5 215,-11 325,-13 110,-3 206,-5 213,-5 10,-1 12,-36 10,-158 l -3,-158 -208,-2 c -157,-1 -212,-4 -224,-15 -13,-10 -134,-14 -634,-16 l -618,-2 1,187 c 0,103 2,192 5,196 3,5 16,6 29,3 14,-4 239,-7 502,-7 z M 2097,908 c -2,-29 -3,-6 -3,52 0,58 1,81 3,53 2,-29 2,-77 0,-105 z M 8948,755 c 10,-4 12,-40 10,-157 l -3,-153 -200,-5 c -134,-4 -202,-2 -207,5 -9,12 -10,270 -2,301 5,20 10,20 197,17 106,-3 198,-6 205,-8 z M 7710,660 c 15,-37 23,-37 45,-3 18,26 18,26 34,7 15,-18 25,-19 126,-14 61,3 116,9 123,13 7,5 14,2 18,-7 9,-24 21,-19 33,15 13,36 25,31 41,-16 14,-43 25,-44 45,-4 15,29 18,30 34,15 12,-11 37,-16 82,-16 37,0 72,-5 81,-12 25,-20 31,-54 13,-71 -18,-18 -93,-32 -132,-24 -19,3 -31,-1 -44,-16 l -17,-22 -18,38 c -10,20 -20,37 -24,37 -3,0 -12,-19 -20,-42 -18,-52 -31,-54 -46,-9 -11,34 -11,35 -23,12 -11,-20 -14,-21 -29,-8 -13,12 -34,14 -98,10 -56,-4 -88,-2 -104,7 -15,8 -25,9 -27,3 -2,-6 -10,-19 -17,-29 -14,-18 -15,-18 -27,9 -17,37 -36,34 -54,-10 -24,-56 -40,-29 -40,65 0,113 17,140 45,72 z M 2097,618 c -2,-13 -4,-3 -4,22 0,25 2,35 4,23 2,-13 2,-33 0,-45 z m 1911,26 c 5,3 35,6 66,7 87,3 124,-44 74,-91 -19,-18 -32,-21 -73,-17 -27,2 -58,8 -67,12 -13,5 -18,3 -18,-8 0,-8 -7,-20 -15,-27 -12,-10 -16,-8 -25,15 -13,35 -13,101 1,128 l 12,21 18,-23 c 10,-12 22,-20 27,-17 z M 921,398 c 0,-7 -1,-44 -2,-83 -1,-38 -3,-112 -3,-164 l -1,-94 -190,0 -190,0 -5,169 c -3,93 -4,172 -2,177 2,4 91,7 198,7 148,0 194,-3 195,-12 z m 1254,-165 -3,-177 -183,2 c -101,0 -187,1 -191,1 -3,1 -4,45 -1,99 3,57 1,127 -6,166 -6,36 -9,71 -6,76 4,6 86,10 200,10 l 193,0 -3,-177 z m 2134,168 c 13,-8 13,-15 0,-53 -9,-28 -14,-85 -14,-165 0,-103 -2,-123 -15,-124 -16,0 -346,0 -368,1 -10,0 -11,17 -6,74 10,111 -9,226 -33,202 -4,-4 -10,-69 -13,-143 l -5,-136 -172,1 c -95,0 -180,1 -188,1 -13,1 -15,23 -15,134 0,99 -4,138 -14,153 -14,18 -15,18 -20,-6 -3,-14 -7,-83 -9,-154 l -2,-130 -180,1 c -99,1 -183,2 -187,2 -5,1 -8,54 -8,119 0,111 -14,202 -28,187 -4,-4 -9,-74 -12,-157 l -5,-151 -185,1 c -102,0 -188,1 -191,1 -3,1 -4,45 -1,99 2,53 0,128 -6,167 -9,53 -9,71 1,77 17,11 1659,10 1676,-1 z m 2516,-171 0,-174 -190,1 -190,0 -3,158 c -1,88 2,163 7,168 5,5 78,9 162,8 85,0 163,4 174,9 11,5 25,7 30,6 6,-2 10,-69 10,-176 z m 1710,171 c 11,-5 25,-5 31,0 7,6 44,5 90,-2 47,-6 119,-8 177,-4 71,5 102,3 112,-5 12,-10 15,-45 15,-171 0,-145 -2,-159 -17,-159 -30,-1 -357,-1 -369,-1 -7,1 -9,34 -6,105 6,131 -3,198 -25,194 -25,-5 -34,-53 -32,-175 2,-62 0,-116 -4,-119 -3,-4 -84,-7 -179,-7 l -173,0 -5,136 c -5,140 -15,173 -41,141 -10,-13 -14,-50 -14,-146 0,-78 -4,-128 -10,-129 -48,-4 -358,0 -362,5 -4,3 -5,55 -4,114 2,69 -2,118 -10,135 -28,61 -41,15 -38,-135 1,-60 -1,-112 -4,-115 -8,-8 -366,-7 -374,1 -4,3 -6,55 -5,114 3,107 -6,167 -24,167 -5,0 -11,-65 -14,-144 l -5,-144 -185,0 -185,0 -6,149 c -3,83 -8,155 -12,161 -4,6 0,19 9,27 14,14 100,16 832,15 449,0 826,-4 837,-8 z"
       id="path3129"
       inkscape:connector-curvature="0" />
    <path
       d="m 6522,1539 c -31,-12 -23,-32 14,-40 39,-9 173,-9 204,0 38,10 37,37 -1,45 -47,9 -190,6 -217,-5 z"
       id="path3131"
       inkscape:connector-curvature="0" />
    <path
       d="m 6545,1164 c -22,-3 -51,-7 -65,-10 -24,-5 -24,-6 -5,-17 11,-6 75,-11 155,-11 137,0 197,9 169,24 -17,10 -198,19 -254,14 z"
       id="path3133"
       inkscape:connector-curvature="0" />
    <path
       d="m 6491,791 c -26,-17 36,-26 166,-26 121,0 141,4 128,24 -8,14 -274,15 -294,2 z"
       id="path3135"
       inkscape:connector-curvature="0" />
    <path
       d="m 2302,1542 c -30,-9 -31,-24 -1,-39 29,-16 160,-17 212,-2 42,11 45,30 6,40 -31,9 -187,9 -217,1 z"
       id="path3137"
       inkscape:connector-curvature="0" />
    <path
       d="m 2260,790 c -27,-17 20,-25 150,-25 130,0 177,8 150,25 -19,13 -281,13 -300,0 z"
       id="path3139"
       inkscape:connector-curvature="0" />
    <path
       d="m 2260,430 c -13,-9 -13,-11 -1,-19 23,-15 144,-23 225,-16 76,7 101,19 75,36 -19,12 -280,11 -299,-1 z"
       id="path3141"
       inkscape:connector-curvature="0" />
    <path
       d="m 4308,1828 c -9,-15 -13,-63 -14,-146 0,-67 -3,-125 -6,-128 -8,-7 -365,-7 -377,0 -6,4 -7,42 -4,94 5,87 -8,172 -27,172 -15,0 -20,-36 -23,-159 l -2,-113 -172,0 c -95,1 -180,1 -189,1 -14,1 -16,12 -12,79 5,70 -6,199 -17,211 -14,14 -20,-24 -25,-151 l -5,-141 -147,-1 c -152,-1 -188,-10 -159,-38 8,-9 55,-13 159,-14 l 147,0 0,-164 0,-165 -160,0 c -158,-1 -222,-11 -179,-30 11,-4 91,-9 179,-9 l 160,-1 5,-142 c 3,-78 8,-144 12,-148 22,-22 42,140 28,228 -6,39 -4,49 9,55 12,6 315,8 366,3 6,-1 9,-47 7,-123 -3,-123 7,-170 27,-138 17,25 24,141 13,199 -5,31 -8,58 -6,60 5,6 403,6 409,0 2,-3 0,-21 -5,-40 -18,-61 -8,-224 15,-247 17,-18 25,35 23,156 -2,72 -1,132 2,133 3,0 77,2 166,3 158,3 219,13 178,31 -11,4 -92,9 -182,10 -89,1 -163,4 -165,6 -1,2 0,76 3,163 l 5,159 147,1 c 103,1 151,5 160,14 28,28 -8,37 -160,38 l -147,1 -5,146 c -3,80 -8,148 -12,152 -3,4 -12,-4 -20,-17 z m -448,-494 c 3,-88 4,-161 3,-163 -5,-7 -358,-7 -374,0 -13,7 -14,18 -8,71 5,35 6,103 2,151 -4,58 -2,91 5,95 5,4 90,6 189,6 l 178,-2 5,-158 z m 424,153 c 10,-4 12,-31 8,-125 -3,-77 -1,-132 7,-153 6,-18 9,-34 6,-37 -6,-6 -404,-7 -410,0 -2,2 0,22 7,44 6,24 8,83 5,151 -4,89 -2,115 8,120 15,9 347,8 369,0 z"
       id="path3143"
       inkscape:connector-curvature="0" />
    <path
       d="m 1371,2000 -19,-25 -20,21 c -17,18 -33,21 -149,23 -74,1 -141,-3 -157,-9 -21,-8 -32,-7 -42,1 -16,13 -16,14 -32,-23 -9,-21 -18,-28 -41,-28 -34,0 -54,-20 -45,-45 5,-11 -2,-25 -18,-40 -28,-26 -34,-63 -38,-222 -1,-75 1,-93 13,-93 23,0 45,-32 49,-70 3,-32 5,-35 34,-33 27,2 34,-2 44,-27 13,-31 24,-37 35,-20 4,7 13,6 26,-1 12,-6 77,-9 162,-8 126,2 144,4 164,22 l 22,20 11,-24 c 11,-24 12,-24 143,-21 73,2 142,8 153,13 15,8 27,8 42,0 31,-17 39,-14 51,19 11,34 13,35 42,18 17,-11 22,-10 33,5 7,9 11,28 9,41 -7,35 13,66 42,66 l 25,0 0,138 c 0,133 -7,171 -28,158 -13,-8 -43,39 -36,58 3,8 0,24 -6,36 -9,17 -17,20 -41,15 -27,-6 -31,-4 -42,24 -13,34 -18,36 -49,20 -15,-8 -27,-8 -42,0 -11,5 -78,11 -148,13 -126,3 -128,3 -147,-22 z m -27,-121 c 6,-5 14,-5 20,0 15,13 403,18 415,6 6,-6 5,-33 -1,-70 -8,-50 -6,-184 5,-270 2,-19 -4,-20 -208,-20 l -210,0 2,30 c 7,101 4,274 -5,291 -10,17 -11,16 -19,-11 -7,-26 -7,-193 0,-280 l 2,-30 -205,-3 -205,-2 2,187 c 1,104 2,188 2,188 11,6 399,-10 405,-16 z"
       id="path3145"
       inkscape:connector-curvature="0" />
    <path
       d="m 8524,1828 c -12,-19 -17,-170 -7,-208 12,-46 38,-51 47,-9 8,40 8,143 0,192 -7,37 -26,49 -40,25 z"
       id="path3147"
       inkscape:connector-curvature="0" />
    <path
       d="m 8109,1809 c -20,-37 -17,-185 4,-206 9,-9 20,-13 24,-9 5,4 8,54 8,111 0,112 -12,147 -36,104 z"
       id="path3149"
       inkscape:connector-curvature="0" />
    <path
       d="m 7674,1785 c -8,-42 -1,-171 9,-181 16,-17 32,20 35,86 6,102 -28,176 -44,95 z"
       id="path3151"
       inkscape:connector-curvature="0" />
    <path
       d="m 8522,1073 c -13,-31 -8,-221 6,-235 22,-22 36,9 40,88 5,97 -5,164 -24,164 -8,0 -18,-8 -22,-17 z"
       id="path3153"
       inkscape:connector-curvature="0" />
    <path
       d="m 8109,1063 c -18,-21 -18,-169 0,-202 21,-37 35,-10 39,74 4,80 -4,145 -17,145 -5,0 -15,-7 -22,-17 z"
       id="path3155"
       inkscape:connector-curvature="0" />
    <path
       d="m 7676,1048 c -14,-53 -4,-198 14,-198 15,0 30,54 30,110 0,88 -28,145 -44,88 z"
       id="path3157"
       inkscape:connector-curvature="0" />
  </g>
  <path
     style="fill:#000000;fill-opacity:1;stroke:none"
     d="m 26.416479,93.169942 c -0.591415,-0.84436 -0.788626,-2.1325 -0.572816,-3.74149 0.244534,-1.82313 0.04336,-2.76955 -0.782721,-3.68236 -1.012351,-1.11864 -1.024767,-1.32587 -0.138743,-2.31578 0.722439,-0.80714 1.027296,-2.80964 1.183488,-7.77391 0.186667,-5.93283 0.08781,-6.72553 -0.876814,-7.03101 -1.46927,-0.4653 -1.371847,-1.28374 0.201795,-1.69525 1.07627,-0.28146 1.178797,-0.54299 0.621258,-1.58476 -0.367257,-0.68623 -0.67202,-3.85205 -0.677252,-7.03516 -0.0052,-3.18311 -0.26045,-6.18393 -0.567151,-6.66848 -0.361826,-0.57165 -0.220004,-1.3963 0.403882,-2.34847 0.786975,-1.20108 0.881126,-2.5627 0.518649,-7.50076 -0.243579,-3.31831 -0.693959,-6.33584 -1.000845,-6.70561 -0.315583,-0.38025 -0.323861,-0.92228 -0.01906,-1.24773 0.296404,-0.31648 0.657349,-2.32686 0.802102,-4.46752 0.144752,-2.14066 0.526366,-4.15529 0.848031,-4.47695 0.321664,-0.32167 2.9594,-0.77457 5.861636,-1.00645 2.902233,-0.23188 5.5936,-0.67059 5.98081,-0.9749 0.441852,-0.34727 0.825248,-0.23739 1.02957,0.29506 0.260414,0.67863 1.984054,0.7911 8.614845,0.56216 4.55911,-0.15741 8.616182,-0.54755 9.015717,-0.86696 0.48358,-0.38661 0.92793,-0.22069 1.329199,0.49634 0.547043,0.97752 1.245229,1.02378 7.551003,0.5004 3.821525,-0.31719 7.361619,-0.34496 7.866876,-0.0617 0.538507,0.3019 1.270672,0.22287 1.76933,-0.19098 0.639337,-0.5306 1.167607,-0.50807 2.126368,0.0907 0.890879,0.55637 1.472446,0.59993 1.927947,0.14443 0.669689,-0.66969 6.995128,0.18228 8.469004,1.14068 0.386802,0.25152 0.898296,2.27837 1.136654,4.50411 0.308294,2.87881 0.688066,4.04682 1.31581,4.04682 1.130291,0 1.138762,1.21242 0.01473,2.10591 -0.605218,0.48108 -0.953711,2.641 -1.151924,7.13949 -0.2596,5.89157 -0.184509,6.47581 0.86773,6.75098 1.380513,0.36101 1.534119,2.36175 0.220036,2.86601 -0.717962,0.27551 -0.931887,1.4683 -0.931887,5.19594 0,2.66109 -0.26425,5.75974 -0.587223,6.88589 -0.462657,1.61319 -0.396768,2.10653 0.310627,2.32562 3.004587,0.93054 3.082686,1.0551 1.019694,1.62635 -1.778493,0.49248 -1.985879,0.75148 -1.553143,1.93976 0.274677,0.75427 0.416884,3.95738 0.316008,7.11803 -0.173447,5.43459 -0.114415,5.74663 1.087203,5.74663 0.856434,0 1.270609,0.40501 1.270609,1.24251 0,0.85341 -0.414175,1.24252 -1.322554,1.24252 -1.219391,0 -1.291879,0.23122 -0.929314,2.96438 0.492696,3.71418 -0.688055,5.73322 -3.352835,5.73322 -2.257685,0 -3.092919,-1.43844 -3.092919,-5.32667 0,-2.04802 -0.32553,-3.17636 -1.0872,-3.76839 -1.029096,-0.79989 -1.022181,-0.89528 0.129431,-1.78476 1.073452,-0.82911 1.22004,-1.7421 1.245623,-7.758 l 0.029,-6.81831 -1.758497,-0.61301 c -1.284123,-0.44765 -1.665866,-0.91061 -1.41512,-1.71618 0.49494,-1.59008 -0.53245,-2.88969 -1.984273,-2.51003 -0.895195,0.2341 -1.435922,-0.10406 -1.941806,-1.21435 -0.502274,-1.10237 -1.005376,-1.42037 -1.773882,-1.12122 -0.590019,0.22967 -1.212544,0.45158 -1.383389,0.49312 -0.170848,0.0416 -3.19762,-0.14287 -6.726167,-0.40982 -5.539272,-0.41907 -6.570315,-0.34529 -7.548727,0.54016 -0.745891,0.67502 -1.272971,0.79936 -1.542164,0.3638 -0.256414,-0.41489 -3.515697,-0.66173 -8.737426,-0.66173 -7.592176,0 -8.385191,0.10601 -8.970209,1.19912 -0.352963,0.65953 -1.27139,1.28855 -2.040947,1.39784 -1.007136,0.14302 -1.402968,0.62064 -1.412668,1.70456 -0.0094,1.04404 -0.485673,1.66324 -1.553143,2.019 -1.517704,0.50581 -1.538994,0.61006 -1.492567,7.30832 0.03247,4.68543 0.303986,7.10473 0.874494,7.79214 0.626698,0.75513 0.652948,1.1714 0.108214,1.71613 -0.395549,0.39555 -0.719178,2.28475 -0.719178,4.19822 0,1.91348 -0.335479,3.81453 -0.745509,4.22456 -1.235139,1.23514 -4.661607,0.9079 -5.677292,-0.54219 z m 29.988793,-37.20791 c 0.839335,-0.4492 1.331759,-0.44821 1.61077,0.003 0.256134,0.41442 3.535535,0.59579 9.043054,0.50013 7.421522,-0.12892 8.687369,-0.29562 8.968392,-1.18105 0.226697,-0.71426 0.800094,-0.94054 1.86666,-0.73665 1.310947,0.25062 1.539454,0.0605 1.539454,-1.28046 0,-2.3873 0.628583,-3.54015 1.930241,-3.54015 1.082292,0 1.176045,-0.54234 1.176045,-6.80297 0,-5.77955 -0.160244,-6.89264 -1.065207,-7.39908 -0.585865,-0.32787 -1.379421,-1.52991 -1.763455,-2.67121 -0.407876,-1.21215 -1.192087,-2.16636 -1.885767,-2.29455 -0.653134,-0.1207 -1.652786,-0.63157 -2.221444,-1.13528 -0.568662,-0.5037 -1.547143,-0.84244 -2.174403,-0.75276 -0.62726,0.0897 -3.874542,-0.0552 -7.216186,-0.32191 -4.965781,-0.39638 -6.336996,-0.31378 -7.505973,0.45216 -0.938203,0.61474 -1.733351,0.74158 -2.311264,0.3687 -0.484552,-0.31265 -4.449868,-0.54127 -8.811815,-0.50805 -7.127763,0.0543 -7.994937,0.18022 -8.564148,1.24381 -0.348338,0.65087 -1.191416,1.18341 -1.8735,1.18341 -0.682083,0 -1.393092,0.48924 -1.580017,1.0872 -0.186925,0.59796 -0.782192,1.90528 -1.322822,2.90516 -0.624981,1.15588 -1.089777,4.03618 -1.276258,7.90888 -0.248631,5.16331 -0.143393,6.14845 0.691013,6.46865 0.541372,0.20774 1.299081,1.33147 1.683797,2.49718 0.467324,1.416 1.08864,2.11946 1.871966,2.11946 0.64486,0 1.456397,0.53051 1.803409,1.17891 0.563812,1.05349 1.457992,1.18824 8.404745,1.26657 4.382727,0.0494 8.301156,-0.19458 8.982713,-0.55934 l 0,0 z"
     id="path5746"
     inkscape:connector-curvature="0" />
  <path
     style="fill:#000000;fill-opacity:1;stroke:none"
     d="m 132.35202,95.038792 c -0.29762,-0.93773 -0.69304,-1.15893 -1.44123,-0.80626 -1.08021,0.50918 -6.30723,0.46979 -8.55428,-0.0644 -1.10438,-0.26257 -1.36464,-0.90716 -1.6538,-4.09605 -0.23439,-2.58497 -0.68593,-4.03509 -1.42462,-4.57524 -1.17349,-0.85807 -0.74496,-2.22179 0.69817,-2.22179 0.71928,0 0.89522,-1.21098 0.89522,-6.16177 0,-3.38897 0.17005,-6.60491 0.37789,-7.14654 0.28035,-0.73057 -0.12058,-1.08447 -1.55314,-1.37098 -2.35055,-0.47011 -2.55463,-1.47341 -0.29972,-1.47341 l 1.63133,0 -0.27357,-7.14702 c -0.23498,-6.13882 -0.4432,-7.27813 -1.47601,-8.07636 -1.13887,-0.88019 -1.14496,-0.97399 -0.11524,-1.77438 1.61549,-1.25569 1.61549,-13.83311 0,-15.07362 -1.01506,-0.77947 -0.99446,-0.86095 0.31063,-1.22815 1.25888,-0.3542 1.39783,-0.77994 1.39783,-4.28295 0,-2.5108 0.29783,-4.13682 0.84015,-4.58691 1.23407,-1.02418 8.20444,-1.64378 8.74019,-0.77692 0.6788,1.09832 1.42463,0.82605 1.8138,-0.66215 0.33164,-1.26818 0.43386,-1.2929 1.47029,-0.3556 0.92794,0.83919 2.41011,0.97613 8.87959,0.82041 4.27114,-0.10281 8.29539,-0.40756 8.94276,-0.67723 0.8358,-0.34816 1.42827,-0.14672 2.04362,0.69482 0.6714,0.9182 0.97908,1.00308 1.36611,0.37686 0.37554,-0.60765 1.64161,-0.70802 5.10084,-0.40439 2.75258,0.2416 5.27449,0.14196 6.27677,-0.24799 1.46198,-0.56881 1.72876,-0.48394 2.09376,0.66609 0.41629,1.3116 0.42394,1.31072 1.58615,-0.18324 l 1.16784,-1.50119 1.16784,1.50119 1.16784,1.5012 0.44702,-1.40842 c 0.32527,-1.02482 0.63325,-1.22218 1.13081,-0.72462 0.37609,0.37608 1.95582,0.68807 3.51052,0.69331 3.61537,0.0122 4.95188,0.78249 3.99482,2.30251 -0.51912,0.82449 -1.51189,1.10752 -3.91193,1.11527 -2.03831,0.007 -3.40828,0.32107 -3.74053,0.85866 -0.40546,0.65604 -0.61954,0.5481 -0.94468,-0.47633 -0.52859,-1.66545 -1.3353,-1.70309 -1.7592,-0.0821 -0.45409,1.73644 -1.48358,1.54777 -2.54238,-0.46595 l -0.89829,-1.70845 -0.45602,1.8065 c -0.38248,1.51518 -0.56761,1.65389 -1.14801,0.86016 -0.60055,-0.8213 -1.40885,-0.8502 -6.11705,-0.21873 -5.04664,0.67686 -5.44992,0.64936 -5.78113,-0.39421 -0.4176,-1.31575 -1.51484,-1.50843 -1.51484,-0.26602 0,0.4707 -0.39986,1.18766 -0.88856,1.59326 -0.71089,0.58998 -1.02667,0.47939 -1.57923,-0.55309 -0.55042,-1.02846 -0.9294,-1.16277 -1.86626,-0.66137 -0.64657,0.34604 -4.23704,0.62916 -7.97882,0.62916 -6.66213,0 -6.82544,0.0339 -7.87457,1.63508 -0.82359,1.25695 -1.19147,1.4407 -1.59081,0.79456 -0.71082,-1.15013 -1.21921,-0.49458 -2.55243,3.29122 -0.72216,2.05067 -1.14089,4.96991 -1.14089,7.95402 0,2.78576 -0.29897,5.01331 -0.73083,5.44517 -0.56027,0.56027 -0.4653,1.02424 0.40692,1.98802 1.10282,1.21861 1.10282,1.29579 0,2.5144 -0.87222,0.96378 -0.96719,1.42775 -0.40692,1.98802 0.84323,0.84322 1.0037,8.35158 0.18513,8.66222 -0.30014,0.11389 -0.7417,1.11567 -0.98125,2.22617 -0.37867,1.75544 -0.27164,2.01909 0.81967,2.01909 2.04766,0 2.11295,1.10796 0.0915,1.55195 -2.19413,0.48191 -2.31436,0.9589 -0.62668,2.48622 1.01303,0.91679 1.24251,1.91346 1.24251,5.39648 0,3.22424 -0.22856,4.35972 -0.93188,4.62961 -1.18433,0.45447 -1.21496,1.46718 -0.0444,1.46718 1.45097,0 2.84004,1.82692 2.84004,3.73526 0,2.03406 1.11013,3.05399 1.9378,1.78034 0.4488,-0.69063 0.76569,-0.59448 1.639,0.49729 0.99406,1.24272 1.72525,1.36777 8.93773,1.52861 5.62134,0.12536 8.12293,-0.0471 8.79695,-0.60649 0.78098,-0.64816 1.11356,-0.53786 1.94722,0.64578 0.81471,1.15675 1.10928,1.26089 1.5533,0.54921 0.40785,-0.65372 2.11071,-0.89195 6.661,-0.93188 5.40678,-0.0475 6.19402,0.0844 6.81361,1.14082 0.66401,1.1322 0.74713,1.10553 1.59445,-0.51166 0.77308,-1.47547 0.99875,-1.57982 1.66928,-0.77188 0.93983,1.13242 0.67661,5.48847 -0.35204,5.82612 -0.40513,0.13298 -1.13878,-0.52583 -1.63035,-1.46402 -0.88516,-1.68941 -0.89799,-1.69245 -1.33474,-0.31636 -0.32601,1.02715 -0.64427,1.22072 -1.22061,0.7424 -0.51776,-0.4297 -2.53474,-0.47027 -6.00502,-0.1208 -3.37411,0.33979 -5.5074,0.30467 -6.02138,-0.0991 -0.56768,-0.44597 -1.04686,-0.28706 -1.67062,0.55404 -0.74242,1.0011 -1.06691,1.062 -2.14656,0.40282 -1.93653,-1.18236 -15.52314,-1.05629 -17.25985,0.16014 -1.23169,0.86271 -1.36975,0.83463 -1.7475,-0.35556 l 0,0 z"
     id="path6256"
     inkscape:connector-curvature="0" />
  <path
     style="fill:#000000;fill-opacity:1;stroke:none"
     d="m 246.36212,95.544842 c -0.90279,-1.88719 -2.14821,-2.23092 -2.71657,-0.74979 -0.28477,0.7421 -0.64144,0.81228 -1.57877,0.31063 -1.61406,-0.86381 -8.31726,-0.82995 -9.19367,0.0465 -0.51183,0.51183 -0.91063,0.34843 -1.5162,-0.62126 -1.09261,-1.74954 -1.66154,-1.65894 -2.46596,0.3927 -0.64917,1.65569 -0.68572,1.66726 -1.1836,0.3742 -0.74356,-1.93113 -1.64151,-2.26624 -2.57739,-0.96187 -0.74569,1.03929 -1.19255,1.07962 -4.98705,0.45009 -2.29238,-0.38032 -4.36616,-0.88968 -4.60838,-1.1319 -0.24223,-0.24223 -0.56748,-2.04759 -0.72277,-4.01193 -0.15531,-1.96433 -0.56632,-3.92621 -0.91337,-4.35974 -0.44541,-0.55639 -0.31308,-1.13953 0.44993,-1.98264 0.84962,-0.93884 0.99833,-1.83373 0.6949,-4.18185 -0.21232,-1.64308 -0.13084,-4.52503 0.18106,-6.40433 0.56011,-3.37484 0.41722,-3.8184 -1.47478,-4.57804 -0.34169,-0.1372 -0.0882,-0.6593 0.56342,-1.16024 1.08785,-0.83637 1.14905,-1.46169 0.74888,-7.65141 -0.23969,-3.70733 -0.74696,-7.11554 -1.12728,-7.57379 -0.5093,-0.61367 -0.50201,-1.02269 0.0277,-1.55238 0.93049,-0.93049 0.9915,-14.51797 0.0678,-15.08887 -0.44198,-0.27316 -0.40701,-0.69712 0.10877,-1.3186 0.41812,-0.50379 0.92093,-2.77066 1.11737,-5.03748 l 0.35716,-4.1215 4.25447,-0.69424 c 4.12707,-0.67346 4.28267,-0.65118 5.19682,0.74399 1.26264,1.92703 1.7441,1.81496 2.49544,-0.58085 l 0.63321,-2.01909 0.79302,2.11395 0.79303,2.11395 1.12552,-1.54509 c 1.08657,-1.49162 1.25853,-1.52366 4.97,-0.92594 2.64592,0.42611 4.38888,0.41365 5.59066,-0.04 1.35655,-0.51204 1.90707,-0.46522 2.46731,0.20983 0.99839,1.20298 1.65866,1.08675 2.12215,-0.37359 0.97543,-3.0733 2.51055,0.3721 1.8158,4.07538 -0.44836,2.39 -1.22046,2.77043 -1.8158,0.89469 -0.45829,-1.44395 -1.88508,-1.65005 -2.386,-0.34466 -0.2704,0.70464 -0.78516,0.77149 -2.39209,0.31063 -2.9007,-0.83192 -7.56653,-0.72794 -8.49652,0.18934 -0.63081,0.62219 -0.94701,0.56044 -1.59057,-0.31063 -1.12412,-1.52152 -1.5648,-1.36828 -2.32344,0.80796 -0.62694,1.79844 -0.71944,1.84195 -1.81264,0.85262 -1.10106,-0.99644 -1.18714,-0.91107 -1.94732,1.93116 -0.49732,1.85941 -1.20275,3.08022 -1.88259,3.25801 -0.95482,0.24968 -1.08725,1.14197 -1.08725,7.32545 0,6.04614 0.15363,7.13221 1.0872,7.68564 1.01352,0.60083 0.99692,0.71871 -0.24488,1.73933 -1.1754,0.96604 -1.36467,1.88719 -1.60908,7.83098 -0.21688,5.27438 -0.0963,6.79105 0.55552,6.98915 2.9183,0.88685 3.00221,1.03421 0.91736,1.61085 -1.92266,0.53179 -2.0591,0.73013 -1.70846,2.48336 0.2096,1.04798 0.38108,4.22733 0.38108,7.06523 0,4.82068 0.0887,5.17288 1.34917,5.35835 1.30941,0.19268 1.77985,1.08382 2.6465,5.01327 0.45717,2.07281 1.18879,2.18402 2.0436,0.31063 0.59147,-1.29625 0.69314,-1.19581 1.399,1.38215 0.70953,2.59136 0.82023,2.69922 1.63151,1.58972 0.47869,-0.65465 0.87021,-1.3465 0.87006,-1.53746 -7.2e-4,-0.68359 12.07052,-0.16945 12.30166,0.52396 0.37739,1.13218 1.87702,0.76642 2.29818,-0.56054 1.05169,-3.31357 2.50846,1.14006 1.62569,4.97006 l -0.50117,2.17441 -0.8173,-1.70846 0,0 z"
     id="path6258"
     inkscape:connector-curvature="0" />
  <path
     style="fill:#000000;fill-opacity:1;stroke:none"
     d="m 321.82616,94.894782 c -0.39137,-1.55366 -0.54463,-1.64176 -1.45024,-0.83362 -1.31199,1.17079 -9.19531,0.47862 -10.05684,-0.88299 -0.31144,-0.49222 -0.57053,-2.26195 -0.57576,-3.93274 -0.007,-2.09974 -0.32659,-3.26964 -1.03632,-3.78861 -1.06968,-0.78217 -0.68637,-2.18182 0.59752,-2.18182 0.52948,0 0.73991,-2.03188 0.73991,-7.14447 0,-7.06066 -0.0182,-7.15088 -1.55314,-7.69166 l -1.55315,-0.54721 1.6019,-0.63942 1.6019,-0.63942 -0.29004,-7.03941 c -0.22638,-5.49453 -0.50796,-7.19876 -1.28302,-7.7655 -0.90498,-0.66173 -0.89736,-0.83175 0.086,-1.91832 1.6032,-1.77151 1.59642,-14.09919 -0.008,-15.00004 -0.98364,-0.55221 -0.99094,-0.64745 -0.0766,-0.99982 0.73584,-0.28359 1.12703,-1.57128 1.43892,-4.73648 0.24524,-2.48876 0.74275,-4.43364 1.16382,-4.54966 0.40452,-0.11146 2.47463,-0.45822 4.60025,-0.77057 3.00648,-0.44179 3.93343,-0.38895 4.17399,0.23793 0.46519,1.21227 1.45515,0.96921 1.91175,-0.46939 0.33657,-1.06044 0.56355,-1.14343 1.34759,-0.49273 0.86394,0.717 11.78568,1.03839 14.4841,0.42622 0.7216,-0.16371 0.93188,0.41943 0.93188,2.58425 0,2.7575 -0.0255,2.79164 -1.86377,2.50142 -1.74194,-0.275 -7.13166,-0.29631 -11.02132,-0.0436 -0.93635,0.0608 -2.1535,0.72087 -2.70478,1.46673 -0.67646,0.91523 -1.09919,1.10364 -1.30029,0.57953 -0.55567,-1.44821 -1.37893,-0.78565 -1.79775,1.44684 -0.28036,1.49447 -0.90063,2.44372 -1.89192,2.89539 -1.38454,0.63083 -1.47533,0.99858 -1.4833,6.00825 -0.005,2.93495 -0.15391,5.89541 -0.33166,6.57879 -0.23714,0.91172 0.16626,1.51719 1.51523,2.2742 1.47595,0.82827 1.92272,1.59383 2.26598,3.88286 0.46031,3.06958 1.16838,3.67604 1.73996,1.49029 0.3518,-1.34527 0.37102,-1.34164 1.67535,0.31655 0.73895,0.93942 1.62808,1.4867 2.0209,1.24393 0.38579,-0.23843 3.50852,-0.39385 6.9394,-0.34536 l 6.23797,0.0881 0,2.87418 0,2.87417 -6.3468,0 c -3.49073,0 -6.61347,-0.16481 -6.9394,-0.36625 -0.32593,-0.20144 -1.14446,0.33533 -1.81896,1.19282 -1.43604,1.82563 -1.97942,1.96369 -1.97942,0.50292 0,-1.62606 -1.06554,-0.18861 -1.69685,2.28914 -0.45218,1.77465 -0.95595,2.27858 -2.79477,2.79566 -2.11892,0.59583 -2.19096,0.6996 -1.30065,1.87329 0.74581,0.98318 0.87553,2.44193 0.62153,6.98915 -0.29245,5.23561 -0.2217,5.74663 0.79566,5.74663 1.4532,0 2.40944,1.19911 2.8959,3.63144 0.40157,2.00786 1.17335,2.56672 1.63442,1.18352 0.163,-0.48898 0.8344,-0.10718 1.81379,1.03144 0.87008,1.01152 1.86416,1.61672 2.25689,1.374 0.38604,-0.23858 3.50721,-0.49305 6.93592,-0.56549 l 6.23404,-0.13171 -2.4e-4,2.48503 -2.3e-4,2.48504 -6.45009,-0.0734 c -3.54755,-0.0404 -6.77041,-0.27137 -7.16192,-0.51333 -0.39754,-0.2457 -1.22962,0.19816 -1.88457,1.00529 l -1.17275,1.44522 -0.43762,-1.73726 z"
     id="path6260"
     inkscape:connector-curvature="0" />
  <path
     style="fill:#000000;fill-opacity:1;stroke:none"
     d="m 173.84038,94.702372 c -0.56261,-1.89451 -0.37925,-4.64428 0.37404,-5.60922 0.15503,-0.19859 0.38999,-0.0758 0.91006,0.47564 l 0.70107,0.74336 2.65826,-0.12247 c 2.41717,-0.11137 2.74681,-0.0796 3.63473,0.35022 0.53706,0.25999 1.11258,0.72703 1.27894,1.03788 0.26707,0.49901 0.25199,0.65863 -0.12879,1.3638 -0.88027,1.63012 -2.18073,2.05476 -4.82422,1.57525 -2.87896,-0.52223 -2.96525,-0.52435 -2.96525,-0.073 0,0.55108 -0.60079,1.39662 -0.99236,1.39662 -0.18173,0 -0.44739,-0.46768 -0.64648,-1.1381 z"
     id="path6262"
     inkscape:connector-curvature="0" />
  <path
     style="fill:#000000;fill-opacity:1;stroke:none"
     d="m 265.07824,94.912572 c -0.55243,-1.58471 -1.55414,-1.66742 -2.51084,-0.2073 -0.65851,1.00501 -0.78826,1.03965 -1.64541,0.43929 -1.06046,-0.74278 -6.25574,-0.89693 -8.5034,-0.25232 -1.09894,0.31518 -1.5276,0.24567 -2.03179,-0.32946 -0.99955,-1.14021 -1.21201,-2.38876 -0.60993,-3.58434 0.54914,-1.09047 0.58888,-1.09715 5.61103,-0.94455 4.33753,0.13179 5.14589,0.0477 5.67521,-0.59004 0.56756,-0.68386 0.71409,-0.62552 1.82058,0.7249 l 1.20335,1.46863 0.62088,-1.53753 c 0.34149,-0.84565 0.7427,-1.88348 0.8916,-2.30631 0.33097,-0.93989 1.17688,-1.01882 1.17688,-0.10982 0,1.31229 1.23871,0.6184 1.91547,-1.073 0.97553,-2.43807 1.59169,-6.65421 1.59557,-10.91777 0.003,-3.32364 0.10242,-3.74325 1.12999,-4.77082 1.33372,-1.33373 1.14241,-2.23016 -0.51772,-2.42591 -1.68544,-0.19873 -1.7457,-0.94968 -0.12529,-1.56132 l 1.37026,-0.51721 -0.16265,-6.66853 c -0.15437,-6.32935 -0.21269,-6.70177 -1.1466,-7.32186 -1.30516,-0.8666 -1.25116,-2.20044 0.11428,-2.82257 1.34593,-0.61325 1.39222,-1.38326 0.15738,-2.61811 -0.88412,-0.88411 -0.92372,-1.22303 -0.65666,-5.62001 0.26809,-4.41402 0.22168,-4.8046 -0.81902,-6.89302 -0.70456,-1.41385 -2.01073,-2.94917 -3.61458,-4.24871 -2.4962,-2.02256 -2.51682,-2.02972 -3.41493,-1.18599 -0.89401,0.83988 -0.90969,0.83907 -1.48196,-0.0773 -0.54317,-0.86974 -0.82328,-0.9086 -4.59952,-0.63803 -2.21162,0.15846 -4.46632,0.40715 -5.01045,0.55263 -0.82693,0.2211 -1.09968,4e-4 -1.66167,-1.34464 -0.56238,-1.34597 -0.57961,-1.80264 -0.10535,-2.79216 l 0.567,-1.183 4.89263,0.14492 c 2.73966,0.0812 5.2552,-0.0491 5.71657,-0.29603 0.67772,-0.36271 1.39834,0.018 4.06061,2.14513 1.78016,1.42235 5.53196,4.81512 8.33732,7.5395 l 5.10065,4.95341 0.0153,5.71084 c 0.0149,5.55517 0.0419,5.71467 0.98842,5.85122 0.75127,0.10838 0.97308,0.43382 0.97308,1.42771 0,1.08029 -0.17663,1.28733 -1.09824,1.28733 l -1.09824,0 -0.0659,6.58943 c -0.0362,3.62419 -0.0857,6.82844 -0.10982,7.12055 -0.0242,0.29211 0.60857,0.66456 1.40607,0.82766 0.7975,0.16311 1.5586,0.40516 1.69134,0.53791 0.4963,0.49629 -0.3788,1.17862 -1.51991,1.18511 -1.82249,0.0104 -2.46753,0.57994 -1.88644,1.66571 0.27023,0.50493 0.48731,3.10483 0.49065,5.87653 0.007,5.85353 0.19697,6.77914 1.46233,7.12747 0.88578,0.24384 0.84955,0.32424 -0.55368,1.2287 -0.82582,0.53229 -2.25606,1.78641 -3.17832,2.78694 -0.92226,1.00054 -2.91526,2.68983 -4.42889,3.75399 -1.51363,1.06416 -3.47714,2.66736 -4.36336,3.56267 l -1.61131,1.62783 -0.45261,-1.29836 z"
     id="path6264"
     inkscape:connector-curvature="0" />
  <path
     style="fill:#000000;fill-opacity:1;stroke:none"
     d="m 340.68371,29.586892 c -0.41488,-1.04214 -0.38843,-5.83253 0.0381,-6.90849 0.31645,-0.7982 0.41653,-0.75393 1.24157,0.54912 1.05001,1.65838 1.28615,1.71273 2.34722,0.54026 0.53802,-0.59451 0.95844,-0.74033 1.30508,-0.45264 0.83872,0.69607 5.07248,0.96249 8.36082,0.52612 2.55256,-0.33873 3.20615,-0.29314 3.84655,0.26827 0.86838,0.76131 0.82192,0.79045 1.59793,-1.00225 l 0.57049,-1.31788 0.84684,1.64735 c 0.99399,1.93356 1.4302,2.035 2.39817,0.5577 0.52666,-0.80376 0.9039,-0.9909 1.43784,-0.71325 0.39814,0.20703 2.05537,0.51513 3.6828,0.68466 1.72576,0.17978 3.34383,0.61992 3.8825,1.05611 0.91677,0.74235 0.91727,0.75566 0.0717,1.79987 -0.69292,0.85573 -1.44473,1.11534 -4.02973,1.39155 -1.7478,0.18675 -3.43255,0.55094 -3.74384,0.8093 -0.42417,0.35202 -0.74762,0.19258 -1.29066,-0.63618 -0.9429,-1.43907 -1.41099,-1.39482 -2.24187,0.21197 -0.86885,1.68011 -1.39052,1.66938 -1.76516,-0.0363 l -0.29745,-1.35418 -0.94552,0.86777 c -0.67019,0.61505 -1.20857,0.76687 -1.84864,0.52131 -0.49673,-0.19056 -2.91061,-0.41539 -5.36421,-0.49963 -3.998,-0.13726 -4.52527,-0.0654 -5.07938,0.6924 -0.60491,0.82727 -0.62938,0.82484 -1.13087,-0.1122 -0.71327,-1.33277 -1.65435,-1.19492 -2.45849,0.36012 -0.7874,1.52266 -1.01027,1.60813 -1.43187,0.54912 z"
     id="path6266"
     inkscape:connector-curvature="0" />
  <path
     style="fill:#000000;fill-opacity:1;stroke:none"
     d="m 340.89546,63.473802 c -0.47601,-0.476 -0.3825,-7.98622 0.10317,-8.28639 0.23132,-0.14296 0.72709,0.33278 1.1017,1.0572 0.74281,1.43643 1.68658,1.42114 2.46856,-0.04 0.43993,-0.82201 0.47281,-0.81912 1.22308,0.10742 0.76171,0.94068 0.83527,0.94541 6.11307,0.3933 4.42161,-0.46255 5.46349,-0.4581 6.0466,0.0258 0.58932,0.48909 0.76973,0.48157 1.10357,-0.046 0.21949,-0.34688 0.40213,-0.8778 0.40582,-1.17981 0.0143,-1.18206 0.83777,-0.45307 1.61055,1.42606 0.44675,1.08635 0.92251,1.97592 1.05722,1.97683 0.13471,10e-4 0.59939,-0.80173 1.03259,-1.78363 0.72851,-1.65117 0.84469,-1.73367 1.54685,-1.09825 0.42532,0.38492 1.54083,0.68705 2.53668,0.68705 3.15245,0 4.51591,0.46903 5.19803,1.78808 1.18824,2.29785 -0.34498,3.48346 -4.50483,3.48346 -1.6417,0 -2.72964,0.23433 -3.24239,0.69837 -0.71549,0.6475 -0.82282,0.5995 -1.47358,-0.65894 -0.90526,-1.75058 -1.40317,-1.71166 -2.30532,0.18022 -0.89788,1.88284 -1.29205,1.93463 -1.66884,0.21925 -0.27289,-1.24261 -0.34287,-1.28092 -1.21899,-0.66727 -0.75314,0.52752 -1.91023,0.59829 -6.09961,0.37302 -3.92831,-0.21122 -5.33526,-0.14097 -5.85751,0.29245 -0.57813,0.47982 -0.86495,0.4036 -1.80515,-0.47967 -0.94288,-0.8858 -1.17677,-0.94744 -1.49458,-0.39395 -0.84761,1.47617 -1.57729,2.2248 -1.87669,1.9254 z"
     id="path6268"
     inkscape:connector-curvature="0" />
  <path
     style="fill:#000000;fill-opacity:1;stroke:none"
     d="m 340.85385,96.018282 c -0.41373,-1.07816 -0.31904,-6.48785 0.12585,-7.19047 0.29927,-0.47264 0.55192,-0.29652 1.10279,0.76877 0.83606,1.61675 1.15623,1.68929 2.22816,0.50481 0.60929,-0.67325 0.93253,-0.76182 1.39119,-0.38117 0.40588,0.33685 2.42713,0.42979 6.3031,0.28983 3.13809,-0.11331 5.70563,-0.0406 5.70563,0.16153 0,0.86223 1.22237,0.26798 1.72892,-0.8405 l 0.55203,-1.20807 0.84684,1.64736 c 0.99467,1.93491 1.4301,2.03517 2.40132,0.55289 0.39442,-0.60195 0.91323,-0.97326 1.15293,-0.82511 0.23971,0.14814 1.91876,0.43565 3.7312,0.63891 3.60304,0.40406 4.63427,0.94581 4.43417,2.32947 -0.18346,1.26876 -1.91675,2.0122 -4.70905,2.01979 -1.522,0.004 -2.65178,0.25108 -3.1304,0.68421 -0.68671,0.62147 -0.83185,0.53943 -1.74845,-0.98842 l -0.99954,-1.66614 -0.82874,1.86701 c -0.94269,2.12377 -1.53387,2.35889 -1.93295,0.76876 -0.29064,-1.158 -0.6143,-1.33852 -1.30062,-0.72541 -0.22952,0.20505 -2.88835,0.229 -5.9085,0.0532 -5.20513,-0.30293 -5.52844,-0.27285 -6.20613,0.57749 l -0.71493,0.89706 -0.50859,-0.95031 c -0.7102,-1.32702 -1.66609,-1.18444 -2.62445,0.39145 -0.65956,1.08457 -0.86884,1.20399 -1.09178,0.62302 z"
     id="path6270"
     inkscape:connector-curvature="0" />
</svg>
