<?xml version="1.0" encoding="UTF-8"?>
<svg xmlns="http://www.w3.org/2000/svg" xmlns:xlink="http://www.w3.org/1999/xlink" width="400pt" height="196pt" viewBox="0 0 400 196" version="1.1">
<g id="surface1">
<path style=" stroke:none;fill-rule:nonzero;fill:rgb(0%,0%,0%);fill-opacity:1;" d="M 67.332031 8.003906 C 67.15625 8.539062 67.15625 9.871094 67.332031 10.9375 C 67.6875 13.339844 67.066406 14.496094 65.289062 14.894531 C 62.753906 15.472656 63.199219 17.609375 65.910156 17.875 L 67.332031 18.007812 L 67.464844 21.210938 C 67.601562 24.320312 67.511719 24.589844 65.199219 29.214844 C 63.910156 31.882812 62.089844 35.171875 61.199219 36.550781 C 60.3125 37.929688 59.554688 39.21875 59.554688 39.394531 C 59.554688 39.574219 58.355469 42.109375 56.890625 45 L 54.222656 50.289062 L 54.222656 76.035156 L 55.464844 76.523438 C 56.890625 77.101562 81.511719 76.921875 82.089844 76.347656 C 82.265625 76.125 82.488281 69.898438 82.578125 62.515625 L 82.710938 49.089844 L 79.644531 43.042969 C 77.957031 39.707031 76.042969 36.105469 75.378906 35.082031 C 74.710938 34.015625 72.976562 30.949219 71.511719 28.324219 C 69.066406 23.789062 68.890625 23.386719 69.332031 21.875 C 69.554688 20.941406 69.820312 19.742188 69.867188 19.121094 C 70 18.230469 70.3125 17.964844 71.554688 17.785156 C 72.84375 17.609375 73.15625 17.339844 73.246094 16.363281 C 73.378906 15.382812 73.15625 15.164062 72.042969 14.894531 C 70.3125 14.539062 70.132812 14.183594 69.554688 10.449219 C 69.199219 8.179688 68.890625 7.292969 68.355469 7.203125 C 67.910156 7.113281 67.511719 7.46875 67.332031 8.003906 Z M 69.332031 16.007812 C 69.332031 16.230469 69.109375 16.539062 68.84375 16.71875 C 68.222656 17.074219 67.378906 16.230469 67.734375 15.605469 C 68.042969 15.117188 69.332031 15.429688 69.332031 16.007812 Z M 70.445312 31.570312 C 71.109375 33.171875 72.089844 34.949219 72.621094 35.570312 C 73.199219 36.195312 74.445312 38.285156 75.378906 40.242188 C 76.3125 42.195312 77.554688 44.554688 78.089844 45.441406 C 80 48.554688 80.265625 48.464844 68.933594 48.464844 C 63.023438 48.464844 58.621094 48.289062 58.445312 48.066406 C 58.3125 47.800781 58.84375 46.464844 59.601562 45.042969 C 60.398438 43.621094 61.6875 41.175781 62.578125 39.574219 C 63.421875 37.972656 64.488281 36.195312 64.890625 35.570312 C 65.820312 34.238281 67.378906 30.546875 67.777344 28.722656 C 68 27.613281 68.132812 27.523438 68.667969 28.058594 C 68.976562 28.414062 69.777344 29.96875 70.445312 31.570312 Z M 80.667969 62.160156 C 80.710938 72.34375 80.621094 73.8125 80.042969 74.035156 C 79.644531 74.121094 74.398438 74.210938 68.355469 74.210938 C 60.488281 74.167969 57.332031 73.988281 57.289062 73.632812 C 57.246094 73.101562 57.246094 51.046875 57.289062 50.691406 C 57.332031 50.554688 62.578125 50.46875 68.976562 50.511719 L 80.578125 50.554688 Z M 80.667969 62.160156 "/>
<path style=" stroke:none;fill-rule:nonzero;fill:rgb(0%,0%,0%);fill-opacity:1;" d="M 302.578125 32.238281 C 301.066406 34.058594 299.910156 35.128906 299.511719 35.128906 C 299.246094 35.128906 298.445312 35.527344 297.734375 36.0625 C 296.445312 36.949219 296.445312 36.949219 295.246094 36.105469 C 294.535156 35.660156 293.289062 35.039062 292.445312 34.726562 C 291.023438 34.238281 290.84375 34.28125 290.222656 35.128906 C 289.867188 35.617188 289.246094 36.460938 288.84375 36.996094 L 288.179688 37.882812 L 286.132812 36.949219 C 284.976562 36.460938 283.554688 36.015625 282.976562 36.015625 C 282.355469 36.015625 281.15625 35.707031 280.222656 35.304688 C 277.15625 34.015625 273.289062 35.261719 276.3125 36.59375 C 276.976562 36.90625 278.398438 37.707031 279.464844 38.417969 C 281.777344 39.972656 281.464844 40.460938 278 40.953125 C 276.621094 41.128906 275.199219 41.53125 274.84375 41.839844 C 274.265625 42.285156 274.3125 42.464844 274.933594 43.175781 C 275.332031 43.664062 276.578125 44.507812 277.601562 45.132812 C 279.601562 46.289062 280.132812 47.132812 278.890625 47.132812 C 277.6875 47.132812 274.578125 48.910156 274.800781 49.488281 C 274.976562 50.023438 277.734375 50.15625 282 49.800781 C 284.398438 49.621094 284.445312 49.667969 283.734375 52.558594 C 283.464844 53.667969 283.554688 53.800781 284.578125 53.800781 C 285.15625 53.800781 285.910156 53.535156 286.179688 53.179688 C 286.890625 52.289062 289.6875 52.023438 290 52.824219 C 290.132812 53.136719 290.222656 58.515625 290.222656 64.742188 L 290.222656 76.035156 L 291.378906 76.480469 C 292.710938 77.011719 300.976562 76.96875 301.867188 76.433594 C 302.3125 76.125 302.445312 73.765625 302.445312 64.828125 C 302.445312 56.070312 302.578125 53.3125 303.066406 52.335938 C 303.777344 51 304.933594 50.777344 305.777344 51.800781 C 306.089844 52.15625 306.488281 52.46875 306.710938 52.46875 C 306.890625 52.46875 307.820312 52.957031 308.710938 53.578125 C 309.601562 54.203125 310.621094 54.691406 310.933594 54.691406 C 312 54.691406 312.089844 52.957031 311.15625 51.625 C 310.089844 50.113281 309.957031 49 310.84375 48.644531 C 311.199219 48.511719 312.710938 48.644531 314.222656 48.910156 C 316.578125 49.355469 317.109375 49.3125 317.6875 48.777344 C 318.042969 48.421875 318.179688 47.886719 318 47.621094 C 317.601562 46.910156 314.753906 45.796875 313.464844 45.796875 C 311.378906 45.796875 312.890625 44.242188 316.132812 43.128906 C 317.023438 42.820312 317.332031 42.417969 317.332031 41.574219 C 317.332031 40.507812 317.199219 40.460938 315.023438 40.460938 C 313.734375 40.460938 312.222656 40.328125 311.6875 40.195312 C 310.753906 39.929688 310.753906 39.882812 311.464844 38.417969 C 312.535156 36.148438 311.910156 35.839844 307.820312 36.503906 C 304 37.082031 303.109375 36.816406 304 35.171875 C 304.578125 34.015625 304.445312 31.925781 303.6875 31.703125 C 303.421875 31.613281 302.933594 31.835938 302.578125 32.238281 Z M 302.445312 37.660156 C 302.445312 39.039062 302.933594 39.351562 305.246094 39.351562 C 307.15625 39.351562 307.289062 39.441406 307.332031 40.460938 C 307.332031 41.484375 307.511719 41.574219 309.910156 41.796875 C 312.710938 42.019531 313.289062 42.730469 311.066406 43.175781 C 308.933594 43.621094 308.265625 45 309.777344 45.796875 C 311.15625 46.511719 310.84375 47.132812 309.109375 47.132812 C 307.6875 47.132812 307.554688 47.265625 307.554688 48.378906 C 307.554688 49.042969 307.820312 49.890625 308.132812 50.199219 C 308.753906 50.824219 305.378906 49.535156 304.710938 48.867188 C 303.378906 47.621094 301.332031 49 301.332031 51.132812 C 301.332031 52.46875 300.089844 52.78125 299.289062 51.625 C 298.890625 51.089844 298.089844 50.199219 297.464844 49.621094 C 295.957031 48.199219 294.710938 48.734375 293.511719 51.269531 C 292.445312 53.625 291.734375 53.800781 291.378906 51.847656 C 291.066406 50.15625 289.867188 49.179688 288.667969 49.621094 C 288.265625 49.800781 287.734375 49.578125 287.378906 49.132812 C 286.933594 48.511719 286.398438 48.378906 285.066406 48.554688 C 284.132812 48.6875 282.84375 48.6875 282.265625 48.511719 L 281.199219 48.199219 L 282.398438 47.445312 C 283.421875 46.730469 283.511719 46.511719 283.023438 45.933594 C 282.710938 45.53125 281.777344 44.953125 281.023438 44.597656 C 278.179688 43.441406 279.777344 41.308594 282.976562 41.929688 C 285.378906 42.375 286 41.441406 284.355469 39.707031 C 282.976562 38.238281 283.511719 38.105469 286.132812 39.351562 C 289.511719 40.90625 289.820312 40.90625 290.445312 39.171875 C 291.289062 36.59375 292.132812 36.460938 294.179688 38.417969 C 296.3125 40.460938 297.421875 40.375 299.289062 38.015625 C 300.753906 36.195312 302.445312 36.015625 302.445312 37.660156 Z M 297.867188 53 C 298.578125 53.800781 299.246094 54.871094 299.378906 55.359375 C 299.464844 55.847656 299.511719 60.25 299.464844 65.140625 L 299.332031 74.035156 L 293.109375 74.035156 L 292.976562 65.808594 C 292.890625 59.226562 292.976562 57.316406 293.511719 56.246094 C 293.867188 55.492188 294.488281 54.15625 294.890625 53.222656 C 295.332031 52.335938 295.867188 51.578125 296.132812 51.578125 C 296.398438 51.578125 297.15625 52.203125 297.867188 53 Z M 297.867188 53 "/>
<path style=" stroke:none;fill-rule:nonzero;fill:rgb(0%,0%,0%);fill-opacity:1;" d="M 99.601562 67.050781 C 99.109375 67.941406 100.042969 69.808594 100.933594 69.808594 C 101.378906 69.808594 105.554688 71.589844 107.511719 72.566406 C 109.777344 73.765625 108.222656 74.035156 98.667969 74.035156 C 89.199219 74.035156 89.109375 74.035156 88.976562 75.011719 C 88.710938 76.835938 90 77.011719 100.265625 76.65625 C 108.398438 76.390625 109.777344 76.433594 109.777344 77.011719 C 109.777344 77.414062 108.753906 77.902344 106.800781 78.4375 C 102.089844 79.636719 99.820312 80.925781 99.644531 82.394531 C 99.332031 84.882812 101.6875 84.261719 108.800781 79.949219 C 110.355469 79.011719 112.265625 78.125 113.023438 77.992188 C 117.332031 77.234375 118.132812 74.433594 114.265625 73.367188 C 113.332031 73.144531 111.6875 72.300781 110.621094 71.5 C 108.398438 69.898438 101.464844 66.253906 100.578125 66.253906 C 100.265625 66.253906 99.820312 66.609375 99.601562 67.050781 Z M 99.601562 67.050781 "/>
<path style=" stroke:none;fill-rule:nonzero;fill:rgb(0%,0%,0%);fill-opacity:1;" d="M 141.957031 67.410156 C 141.554688 68.921875 142 69.277344 146.3125 70.964844 C 149.601562 72.253906 151.246094 73.367188 150.621094 73.988281 C 150.535156 74.121094 146.535156 74.035156 141.777344 73.855469 C 137.023438 73.679688 132.667969 73.722656 132.089844 73.898438 C 131.289062 74.167969 131.066406 74.523438 131.199219 75.5 L 131.332031 76.703125 L 141.421875 76.703125 C 147.867188 76.703125 151.554688 76.878906 151.601562 77.144531 C 151.601562 77.367188 150.445312 77.945312 149.023438 78.390625 C 144.445312 79.859375 142.222656 81.015625 141.957031 82.082031 C 141.820312 82.660156 141.820312 83.328125 142 83.550781 C 142.445312 84.304688 144.132812 84.082031 145.332031 83.148438 C 145.957031 82.660156 146.667969 82.257812 146.890625 82.257812 C 147.15625 82.257812 148.355469 81.59375 149.601562 80.792969 C 152.222656 79.058594 155.15625 77.8125 156.621094 77.8125 C 157.734375 77.8125 159.109375 76.566406 159.109375 75.5 C 159.109375 74.566406 157.910156 73.679688 155.777344 72.964844 C 154.800781 72.65625 152.710938 71.542969 151.109375 70.476562 C 147.6875 68.207031 143.867188 66.253906 142.933594 66.253906 C 142.535156 66.253906 142.089844 66.785156 141.957031 67.410156 Z M 141.957031 67.410156 "/>
<path style=" stroke:none;fill-rule:nonzero;fill:rgb(0%,0%,0%);fill-opacity:1;" d="M 178.179688 66.964844 C 176.890625 68.519531 179.15625 70.433594 184.445312 72.253906 C 185.289062 72.566406 186.042969 73.101562 186.132812 73.5 C 186.265625 74.167969 185.601562 74.210938 178.800781 74.035156 C 174.710938 73.898438 170.488281 73.679688 169.464844 73.589844 C 167.554688 73.367188 166.222656 74.121094 166.222656 75.324219 C 166.222656 76.878906 167.378906 77.011719 177.554688 76.835938 C 184.042969 76.746094 187.511719 76.878906 187.511719 77.144531 C 187.464844 77.367188 185.867188 78.035156 183.910156 78.570312 C 182 79.058594 179.957031 79.8125 179.378906 80.167969 C 178.089844 81.015625 177.6875 82.4375 178.445312 83.414062 C 178.976562 84.128906 179.246094 84.082031 182.042969 82.394531 C 185.6875 80.304688 189.464844 78.480469 191.332031 78.078125 C 192.976562 77.679688 194.222656 76.613281 194.222656 75.589844 C 194.222656 74.566406 193.15625 73.722656 190 72.167969 C 187.109375 70.742188 182.265625 68.121094 181.554688 67.628906 C 181.332031 67.453125 180.578125 67.097656 179.910156 66.832031 C 178.976562 66.386719 178.621094 66.429688 178.179688 66.964844 Z M 178.179688 66.964844 "/>
<path style=" stroke:none;fill-rule:nonzero;fill:rgb(0%,0%,0%);fill-opacity:1;" d="M 201.15625 66.964844 C 200.976562 67.410156 201.066406 67.941406 201.289062 68.164062 C 201.601562 68.476562 201.867188 68.386719 202.042969 67.851562 C 202.222656 67.410156 202.132812 66.875 201.910156 66.652344 C 201.601562 66.339844 201.332031 66.429688 201.15625 66.964844 Z M 201.15625 66.964844 "/>
<path style=" stroke:none;fill-rule:nonzero;fill:rgb(0%,0%,0%);fill-opacity:1;" d="M 217.289062 66.964844 C 216.890625 67.453125 216.84375 67.851562 217.199219 68.386719 C 217.6875 69.230469 220.753906 71.097656 223.109375 72.03125 C 227.820312 73.855469 226.398438 74.257812 216.222656 73.855469 C 211.332031 73.679688 207.066406 73.632812 206.753906 73.722656 C 205.910156 74.035156 205.554688 76.035156 206.265625 76.566406 C 206.667969 76.789062 210.84375 76.878906 216.933594 76.703125 C 223.820312 76.480469 227.109375 76.523438 227.289062 76.878906 C 227.464844 77.144531 226.800781 77.546875 225.6875 77.8125 C 224.621094 78.078125 223.15625 78.480469 222.398438 78.65625 C 220.667969 79.148438 217.378906 81.238281 217.023438 82.082031 C 216.753906 82.835938 217.644531 84.039062 218.488281 84.039062 C 218.84375 84.039062 220.355469 83.191406 221.867188 82.125 C 223.421875 81.101562 225.378906 79.992188 226.222656 79.636719 C 227.066406 79.324219 228.445312 78.792969 229.246094 78.4375 C 230.042969 78.078125 231.15625 77.8125 231.734375 77.8125 C 234.132812 77.8125 235.109375 74.613281 233.023438 73.765625 C 229.910156 72.566406 223.109375 69.054688 221.289062 67.71875 C 218.976562 66.074219 218.179688 65.941406 217.289062 66.964844 Z M 217.289062 66.964844 "/>
<path style=" stroke:none;fill-rule:nonzero;fill:rgb(0%,0%,0%);fill-opacity:1;" d="M 251.867188 66.5625 C 251.332031 67.050781 251.511719 68.785156 252.132812 69.230469 C 252.398438 69.5 254.265625 70.34375 256.222656 71.097656 C 260.179688 72.742188 261.464844 73.632812 260.398438 74.035156 C 260.042969 74.167969 255.777344 74.078125 250.890625 73.898438 C 246 73.679688 241.6875 73.679688 241.289062 73.855469 C 240.222656 74.390625 239.910156 75.589844 240.535156 76.390625 C 241.023438 76.96875 242.488281 77.011719 251.421875 76.703125 C 260.132812 76.433594 261.777344 76.480469 261.777344 77.011719 C 261.777344 77.414062 260.621094 77.945312 258.578125 78.480469 C 254 79.636719 251.820312 80.882812 251.644531 82.347656 C 251.421875 84.171875 252.753906 84.261719 255.820312 82.703125 C 257.246094 81.949219 259.066406 80.925781 259.777344 80.480469 C 264.042969 77.769531 266.488281 77.234375 268.535156 78.613281 C 270 79.589844 276 86.128906 276 86.75 C 276 87.015625 276.488281 87.863281 277.109375 88.664062 C 277.734375 89.460938 278.222656 90.261719 278.222656 90.398438 C 278.222656 91.640625 270.445312 88.039062 270.089844 86.660156 C 269.910156 85.949219 269.554688 85.773438 268.578125 85.90625 C 267.421875 86.039062 267.332031 86.171875 267.332031 88.039062 C 267.332031 89.90625 267.421875 90.039062 268.890625 90.53125 C 272.800781 91.910156 278.265625 93.421875 280.84375 93.777344 C 284.578125 94.355469 287.554688 96.445312 289.511719 99.824219 C 289.957031 100.535156 291.777344 102.359375 293.601562 103.824219 C 296.84375 106.449219 297.199219 106.894531 296.535156 107.335938 C 296.042969 107.648438 291.109375 105.871094 289.734375 104.890625 C 288.355469 103.914062 286.535156 103.78125 285.867188 104.582031 C 285.332031 105.292969 285.957031 107.160156 286.753906 107.160156 C 287.066406 107.160156 287.910156 107.472656 288.578125 107.828125 C 289.289062 108.183594 291.199219 108.628906 292.800781 108.761719 C 294.445312 108.9375 296.84375 109.515625 298.179688 110.09375 C 300.710938 111.25 302.890625 111.472656 303.378906 110.671875 C 303.644531 110.183594 303.378906 109.160156 300.800781 101.289062 C 300.132812 99.15625 299.554688 97.066406 299.554688 96.710938 C 299.554688 96.308594 299.246094 95.421875 298.890625 94.710938 C 298.355469 93.6875 297.910156 93.375 296.890625 93.375 C 294.753906 93.375 294.890625 94.042969 298.933594 103.46875 C 299.378906 104.535156 299.378906 104.980469 299.023438 105.203125 C 298.445312 105.558594 290.710938 97.511719 289.511719 95.289062 C 289.023438 94.441406 287.957031 93.507812 286.621094 92.929688 C 284.445312 91.910156 284.222656 91.464844 283.378906 87.152344 C 282.890625 84.617188 282.222656 82.347656 281.554688 81.101562 C 281.199219 80.390625 280.890625 79.503906 280.890625 79.148438 C 280.890625 78.792969 280.445312 77.945312 279.867188 77.28125 C 279.15625 76.347656 278.621094 76.125 277.910156 76.300781 C 276.578125 76.65625 276.621094 77.191406 278.398438 81.015625 C 280.355469 85.238281 280.976562 87.285156 280.621094 88.21875 C 280.398438 88.796875 280.222656 88.839844 279.734375 88.441406 C 279.378906 88.171875 279.109375 87.59375 279.109375 87.152344 C 279.109375 86.75 278.667969 86.039062 278.179688 85.550781 C 277.644531 85.105469 276.621094 83.636719 275.867188 82.347656 C 275.066406 80.835938 273.644531 79.324219 272.132812 78.167969 C 270.800781 77.191406 269.15625 75.855469 268.535156 75.191406 C 267.867188 74.523438 266.222656 73.457031 264.890625 72.832031 C 263.554688 72.210938 262 71.277344 261.464844 70.742188 C 260.933594 70.253906 260.265625 69.808594 260 69.808594 C 259.734375 69.808594 258.132812 69.007812 256.488281 68.03125 C 253.601562 66.296875 252.445312 65.941406 251.867188 66.5625 Z M 251.867188 66.5625 "/>
<path style=" stroke:none;fill-rule:nonzero;fill:rgb(0%,0%,0%);fill-opacity:1;" d="M 82.800781 79.902344 C 81.644531 81.058594 79.511719 82.882812 78.042969 83.949219 C 76.621094 85.015625 75.332031 86.261719 75.246094 86.707031 C 75.109375 87.195312 74.535156 87.863281 73.910156 88.261719 C 72.621094 89.105469 72.621094 91.285156 73.867188 91.507812 C 74.800781 91.6875 79.109375 88.085938 79.109375 87.105469 C 79.109375 86.351562 81.601562 84.304688 81.957031 84.839844 C 82.667969 85.996094 80.265625 91.773438 78.179688 93.863281 C 77.15625 94.886719 77.109375 96.175781 78 96.933594 C 79.246094 98 80.667969 96.84375 81.644531 93.953125 C 83.199219 89.550781 83.554688 88.21875 83.554688 87.238281 C 83.554688 85.996094 85.289062 83.058594 85.820312 83.414062 C 86.089844 83.550781 86.132812 86.21875 85.957031 90.21875 C 85.6875 95.644531 85.777344 96.800781 86.3125 97.242188 C 86.800781 97.6875 87.15625 97.644531 87.957031 97.109375 C 88.933594 96.398438 88.933594 96.355469 88.667969 87.683594 C 88.488281 82.835938 88.3125 78.65625 88.222656 78.347656 C 88.089844 78.078125 87.332031 77.8125 86.488281 77.8125 C 85.289062 77.8125 84.535156 78.214844 82.800781 79.902344 Z M 82.800781 79.902344 "/>
<path style=" stroke:none;fill-rule:nonzero;fill:rgb(0%,0%,0%);fill-opacity:1;" d="M 70.890625 104.359375 C 66.355469 107.871094 66.621094 107.691406 63.957031 108.984375 C 61.332031 110.183594 60.578125 111.605469 61.734375 113.027344 L 62.578125 114.007812 L 65.6875 111.25 C 68.265625 108.9375 69.777344 108.003906 69.777344 108.628906 C 69.777344 109.25 66.535156 116.453125 65.820312 117.429688 C 64.933594 118.632812 64.890625 118.765625 65.601562 119.832031 C 66 120.453125 66.578125 120.945312 66.933594 120.945312 C 67.601562 120.945312 68.890625 118.71875 68.890625 117.519531 C 68.890625 117.074219 69.15625 116.230469 69.464844 115.609375 C 69.777344 114.984375 70.488281 113.25 71.066406 111.738281 C 72.179688 108.804688 72.976562 107.78125 73.820312 108.269531 C 74.132812 108.492188 74.222656 109.472656 74.042969 111.339844 C 73.601562 115.917969 73.601562 119.609375 74.132812 120.144531 C 74.398438 120.410156 75.109375 120.5 75.777344 120.320312 L 76.933594 120.011719 L 76.753906 111.117188 C 76.578125 102.359375 76.398438 101.421875 75.066406 101.378906 C 74.933594 101.378906 73.066406 102.714844 70.890625 104.359375 Z M 70.890625 104.359375 "/>
<path style=" stroke:none;fill-rule:nonzero;fill:rgb(0%,0%,0%);fill-opacity:1;" d="M 304.355469 112.363281 C 303.910156 112.449219 303.554688 112.71875 303.554688 112.941406 C 303.554688 113.164062 303.464844 113.605469 303.332031 113.960938 C 303.023438 114.675781 309.109375 120.765625 312.042969 122.679688 C 313.109375 123.390625 314.710938 124.546875 315.554688 125.300781 C 316.976562 126.5 317.023438 126.679688 316.265625 126.992188 C 315.777344 127.167969 314.578125 126.992188 313.378906 126.546875 C 307.867188 124.410156 306.84375 124.054688 305.910156 124.054688 C 304.710938 124.054688 304.265625 124.679688 304.621094 126.011719 C 304.800781 126.8125 305.289062 127.125 306.535156 127.390625 C 308.132812 127.65625 310.179688 128.234375 314.667969 129.703125 C 315.777344 130.058594 317.644531 130.816406 318.800781 131.4375 C 320 132.015625 321.246094 132.503906 321.554688 132.503906 C 322.84375 132.503906 322.84375 129.792969 321.554688 127.167969 C 320.890625 125.835938 319.289062 120.675781 318.621094 117.609375 C 318 115.03125 317.511719 114.273438 316.398438 114.273438 C 315.378906 114.273438 314.933594 115.742188 315.554688 116.988281 C 316 117.785156 317.777344 123.613281 317.777344 124.234375 C 317.777344 124.367188 317.332031 124.011719 316.753906 123.476562 C 316.179688 122.945312 315.066406 121.921875 314.222656 121.253906 C 313.421875 120.589844 311.15625 118.277344 309.199219 116.140625 C 305.289062 111.917969 305.464844 112.050781 304.355469 112.363281 Z M 304.355469 112.363281 "/>
<path style=" stroke:none;fill-rule:nonzero;fill:rgb(0%,0%,0%);fill-opacity:1;" d="M 59.554688 128.101562 C 57.734375 129.613281 55.246094 131.703125 54.042969 132.769531 C 52.84375 133.839844 51.421875 134.859375 50.890625 134.996094 C 50.3125 135.128906 49.6875 135.707031 49.421875 136.328125 C 48.976562 137.21875 49.066406 137.441406 49.820312 137.882812 C 50.890625 138.417969 51.421875 138.105469 55.109375 134.996094 C 56.398438 133.882812 57.644531 132.949219 57.867188 132.949219 C 58.710938 132.949219 58.089844 134.460938 56.265625 136.816406 C 53.957031 139.839844 52.890625 142.777344 53.777344 143.84375 C 54.753906 145 55.554688 144.554688 56.488281 142.375 C 56.976562 141.21875 57.554688 139.929688 57.777344 139.53125 C 58.042969 139.085938 58.222656 138.550781 58.222656 138.328125 C 58.222656 137.441406 61.464844 132.550781 61.867188 132.769531 C 62.132812 132.949219 62.265625 135.304688 62.132812 138.683594 L 62 144.289062 L 65.109375 144.289062 L 65.109375 135.394531 C 65.109375 130.503906 64.933594 126.234375 64.710938 125.921875 C 64.042969 124.945312 62.933594 125.390625 59.554688 128.101562 Z M 59.554688 128.101562 "/>
<path style=" stroke:none;fill-rule:nonzero;fill:rgb(0%,0%,0%);fill-opacity:1;" d="M 378.667969 126.324219 C 375.601562 126.769531 369.910156 127.480469 362.222656 128.28125 C 352.578125 129.304688 350.621094 129.613281 350.222656 130.28125 C 349.734375 131.039062 349.6875 169.320312 350.179688 169.589844 C 350.84375 170.03125 385.109375 170.386719 386.132812 169.988281 L 387.15625 169.589844 L 387.15625 148.15625 C 387.15625 136.328125 387.023438 126.5 386.890625 126.28125 C 386.578125 125.746094 382.179688 125.789062 378.667969 126.324219 Z M 384.355469 135.4375 L 384.222656 142.421875 L 368.535156 142.464844 C 353.023438 142.507812 352.84375 142.507812 352.621094 141.574219 C 352.3125 140.285156 352.667969 132.148438 353.066406 131.703125 C 353.246094 131.527344 355.644531 131.257812 358.355469 131.125 C 361.109375 130.949219 365.820312 130.503906 368.890625 130.058594 C 376.667969 128.992188 379.910156 128.636719 382.355469 128.589844 L 384.488281 128.503906 Z M 384.355469 156.203125 L 384.222656 167.410156 L 372.890625 167.632812 C 366.667969 167.765625 361.378906 167.71875 361.15625 167.542969 C 360.933594 167.363281 360.800781 163.941406 360.84375 159.894531 C 360.933594 152.914062 360.890625 152.511719 359.957031 151.578125 C 359.109375 150.734375 358.710938 150.644531 356.445312 150.914062 C 352.710938 151.359375 352.445312 151.136719 352.445312 147.84375 C 352.445312 146.289062 352.621094 144.953125 352.890625 144.867188 C 353.109375 144.777344 360.355469 144.777344 368.890625 144.867188 L 384.445312 145 Z M 357.957031 153.667969 C 358.488281 155.046875 358.265625 167.097656 357.6875 167.453125 C 356.84375 167.988281 353.332031 167.941406 352.890625 167.410156 C 352.488281 166.921875 352.3125 153.9375 352.710938 153.3125 C 352.84375 153.136719 354 152.957031 355.332031 152.957031 C 357.066406 152.957031 357.734375 153.136719 357.957031 153.667969 Z M 357.957031 153.667969 "/>
<path style=" stroke:none;fill-rule:nonzero;fill:rgb(0%,0%,0%);fill-opacity:1;" d="M 21.6875 135.039062 C 21.246094 135.128906 19.421875 138.375 17.15625 142.953125 C 15.023438 147.179688 13.023438 150.78125 12.667969 150.914062 C 12.089844 151.089844 12 152.601562 12 160.25 C 12 165.273438 12.132812 169.453125 12.355469 169.542969 C 12.890625 169.898438 48.355469 170.078125 48.710938 169.765625 C 49.066406 169.367188 49.066406 169.367188 48.890625 159.40625 C 48.753906 152.558594 48.667969 151.714844 47.777344 150.289062 C 47.246094 149.445312 46.667969 148.289062 46.488281 147.800781 C 46.222656 147 44.535156 143.753906 43.109375 141.398438 C 42.222656 139.929688 41.332031 137.664062 41.332031 136.90625 C 41.332031 136.460938 41.023438 135.792969 40.621094 135.4375 C 40.042969 134.816406 38.578125 134.726562 31.199219 134.773438 C 26.398438 134.816406 22.089844 134.90625 21.6875 135.039062 Z M 39.15625 137.441406 C 39.378906 137.796875 39.554688 138.417969 39.554688 138.863281 C 39.554688 139.261719 39.734375 139.972656 39.957031 140.417969 C 40.179688 140.820312 40.84375 142.285156 41.511719 143.621094 C 42.132812 144.953125 43.289062 147.132812 44.042969 148.378906 C 44.800781 149.667969 45.246094 150.734375 45.023438 150.734375 C 44.3125 150.78125 16.222656 150.78125 15.820312 150.78125 C 15.601562 150.734375 15.6875 150.378906 16.042969 149.933594 C 16.398438 149.535156 17.15625 148.15625 17.777344 146.957031 C 18.398438 145.710938 19.023438 144.644531 19.15625 144.511719 C 19.289062 144.375 20.265625 142.6875 21.289062 140.730469 C 22.3125 138.820312 23.332031 137.085938 23.601562 136.90625 C 23.867188 136.773438 27.378906 136.683594 31.421875 136.730469 C 37.023438 136.816406 38.890625 136.996094 39.15625 137.441406 Z M 46.265625 160.074219 C 46.179688 163.851562 46 167.097656 45.820312 167.277344 C 45.6875 167.410156 42.578125 167.632812 38.890625 167.71875 L 32.222656 167.855469 L 32.089844 164.207031 C 31.957031 159.9375 32.132812 160.074219 26.398438 159.894531 C 21.378906 159.761719 21.066406 159.984375 21.246094 164.03125 C 21.289062 166.164062 21.15625 167.230469 20.800781 167.5 C 19.957031 167.988281 15.867188 168.03125 15.246094 167.5 C 14.800781 167.1875 14.667969 165.140625 14.667969 160.117188 L 14.667969 153.179688 L 30.578125 153.179688 L 46.445312 153.226562 Z M 28.578125 162.164062 C 29.15625 162.296875 29.332031 162.828125 29.332031 164.695312 C 29.332031 165.941406 29.109375 167.230469 28.800781 167.542969 C 27.957031 168.386719 24.535156 168.210938 24.089844 167.277344 C 23.464844 166.074219 23.734375 162.742188 24.445312 162.296875 C 25.109375 161.851562 27.15625 161.808594 28.578125 162.164062 Z M 28.578125 162.164062 "/>
<path style=" stroke:none;fill-rule:nonzero;fill:rgb(0%,0%,0%);fill-opacity:1;" d="M 325.023438 135.4375 C 324.84375 135.929688 325.777344 137.085938 327.957031 139.21875 C 329.6875 140.910156 331.109375 142.507812 331.109375 142.777344 C 331.109375 143.308594 335.109375 147.265625 336.800781 148.378906 C 337.332031 148.734375 337.777344 149.222656 337.777344 149.445312 C 337.777344 150.113281 334.800781 149.890625 334.222656 149.179688 C 333.910156 148.824219 333.378906 148.511719 333.023438 148.511719 C 332.710938 148.511719 331.421875 148.023438 330.179688 147.398438 C 328.445312 146.511719 327.777344 146.378906 327.109375 146.734375 C 325.910156 147.398438 326 147.800781 327.601562 149.089844 C 329.15625 150.289062 329.023438 151.179688 327.289062 151.179688 C 326.667969 151.179688 325.023438 151.800781 323.644531 152.601562 C 322.265625 153.359375 320.535156 154.292969 319.777344 154.601562 C 317.332031 155.757812 317.109375 155.9375 316.710938 157.09375 C 316.179688 158.605469 316.710938 159.226562 319.910156 160.871094 C 321.332031 161.585938 323.644531 162.785156 325.109375 163.585938 C 326.578125 164.339844 328.042969 164.964844 328.355469 164.964844 C 328.667969 164.964844 329.378906 165.273438 329.910156 165.628906 C 330.84375 166.207031 332.890625 166.121094 332.890625 165.453125 C 332.890625 165.320312 332.535156 164.742188 332.089844 164.207031 C 331.378906 163.273438 325.820312 160.515625 324.710938 160.515625 C 324.398438 160.515625 323.777344 160.117188 323.332031 159.628906 C 322 158.160156 322.933594 157.804688 326.710938 158.25 C 331.109375 158.78125 342.3125 159.050781 343.023438 158.605469 C 343.6875 158.160156 343.734375 156.691406 343.066406 156.25 C 342.667969 156.027344 335.777344 156.027344 326 156.25 C 325.023438 156.292969 324.132812 156.070312 324.042969 155.847656 C 323.957031 155.582031 325.734375 154.46875 328.042969 153.269531 C 331.644531 151.445312 332.578125 151.179688 334.890625 151.179688 C 336.398438 151.179688 337.820312 151.402344 338.132812 151.714844 C 338.621094 152.203125 341.199219 153.269531 342.933594 153.714844 C 343.464844 153.847656 344.089844 153.625 344.445312 153.179688 C 344.933594 152.558594 344.84375 152.023438 343.644531 149.488281 C 342.355469 146.6875 339.554688 138.195312 339.554688 137.128906 C 339.554688 136.863281 339.066406 136.417969 338.488281 136.152344 C 337.6875 135.792969 337.246094 135.839844 336.488281 136.328125 L 335.601562 136.996094 L 336.933594 139.972656 C 337.6875 141.621094 338.621094 143.53125 338.933594 144.199219 C 339.644531 145.621094 339.777344 147.621094 339.199219 147.621094 C 338.976562 147.621094 337.910156 146.601562 336.84375 145.308594 C 335.777344 144.019531 334.132812 142.152344 333.246094 141.128906 C 332.3125 140.109375 331.554688 139.085938 331.554688 138.820312 C 331.554688 138.550781 330.710938 137.527344 329.6875 136.507812 C 327.6875 134.59375 325.554688 134.105469 325.023438 135.4375 Z M 325.023438 135.4375 "/>
<path style=" stroke:none;fill-rule:nonzero;fill:rgb(0%,0%,0%);fill-opacity:1;" d="M 127.910156 148.644531 C 127.601562 148.957031 125.734375 149.980469 123.777344 150.914062 C 121.820312 151.847656 119.910156 152.871094 119.554688 153.179688 C 119.199219 153.492188 117.777344 154.160156 116.445312 154.648438 C 114.3125 155.402344 114 155.671875 114 156.738281 C 114 158.070312 114.042969 158.117188 118 159.894531 C 119.464844 160.515625 121.6875 161.808594 122.890625 162.695312 C 125.378906 164.519531 129.023438 166.074219 130 165.675781 C 130.933594 165.320312 130.84375 163.230469 129.910156 162.917969 C 129.464844 162.785156 127.246094 161.71875 124.976562 160.605469 C 122.132812 159.183594 120.890625 158.339844 121.023438 157.847656 C 121.109375 157.492188 121.464844 157.269531 121.820312 157.316406 C 122.976562 157.628906 139.289062 158.207031 139.867188 157.984375 C 140.710938 157.628906 141.023438 156.117188 140.355469 155.316406 C 139.867188 154.691406 138.753906 154.648438 131.246094 154.871094 C 126.535156 155.046875 122.667969 155.003906 122.667969 154.78125 C 122.667969 153.757812 126.578125 151.625 128.488281 151.625 C 130.132812 151.625 131.511719 149.757812 130.667969 148.734375 C 130 147.933594 128.710938 147.890625 127.910156 148.644531 Z M 127.910156 148.644531 "/>
<path style=" stroke:none;fill-rule:nonzero;fill:rgb(0%,0%,0%);fill-opacity:1;" d="M 199.109375 148.421875 C 198.753906 148.511719 198.179688 148.824219 197.867188 149.089844 C 197.511719 149.355469 196.222656 149.933594 195.023438 150.378906 C 193.777344 150.824219 192.445312 151.445312 192.042969 151.800781 C 191.601562 152.203125 189.734375 153.226562 187.867188 154.070312 C 182.710938 156.472656 182.710938 157.582031 187.910156 159.804688 C 189.644531 160.5625 191.554688 161.585938 192.132812 162.074219 C 192.667969 162.5625 194.132812 163.453125 195.378906 164.03125 C 196.578125 164.609375 197.910156 165.273438 198.3125 165.453125 C 199.644531 166.121094 200.800781 165.898438 201.109375 164.964844 C 201.421875 163.984375 200.710938 162.742188 199.867188 162.742188 C 198.800781 162.742188 191.109375 158.605469 191.109375 158.027344 C 191.109375 157.492188 192.222656 157.449219 197.464844 157.628906 C 200.933594 157.761719 205.066406 157.9375 206.667969 158.070312 C 208.265625 158.160156 209.777344 158.117188 210.042969 157.9375 C 210.753906 157.492188 211.109375 156.160156 210.800781 155.359375 C 210.578125 154.691406 209.554688 154.648438 201.820312 154.78125 C 193.15625 154.960938 191.734375 154.738281 193.910156 153.535156 C 196.089844 152.378906 197.957031 151.625 198.753906 151.625 C 200.132812 151.625 201.332031 150.78125 201.332031 149.847656 C 201.332031 148.867188 200.089844 148.066406 199.109375 148.421875 Z M 199.109375 148.421875 "/>
<path style=" stroke:none;fill-rule:nonzero;fill:rgb(0%,0%,0%);fill-opacity:1;" d="M 266.667969 148.957031 C 265.820312 149.402344 264.222656 150.203125 263.109375 150.734375 C 262 151.222656 260.535156 152.023438 259.777344 152.46875 C 259.066406 152.914062 257.289062 153.757812 255.867188 154.335938 C 253.246094 155.402344 252.265625 156.382812 252.667969 157.492188 C 252.890625 158.070312 257.601562 160.515625 258.488281 160.515625 C 258.710938 160.515625 259.378906 160.960938 260 161.449219 C 263.644531 164.386719 267.867188 166.207031 269.332031 165.410156 C 270.933594 164.5625 270.132812 163.585938 266.445312 161.894531 C 261.15625 159.449219 260 158.78125 260 158.027344 C 260 157.492188 260.890625 157.40625 266.132812 157.628906 C 269.464844 157.761719 273.777344 157.984375 275.6875 158.070312 C 278.933594 158.292969 279.15625 158.25 279.511719 157.316406 C 279.6875 156.78125 279.777344 155.9375 279.644531 155.449219 C 279.421875 154.648438 279.066406 154.601562 270.355469 154.914062 C 264.800781 155.09375 261.332031 155.046875 261.332031 154.78125 C 261.332031 153.890625 265.199219 152.070312 268.535156 151.402344 C 270.089844 151.089844 270.667969 149.488281 269.511719 148.644531 C 268.535156 147.933594 268.578125 147.933594 266.667969 148.957031 Z M 266.667969 148.957031 "/>
<path style=" stroke:none;fill-rule:nonzero;fill:rgb(0%,0%,0%);fill-opacity:1;" d="M 63.554688 148.910156 C 63.554688 149.132812 62.890625 149.535156 62.132812 149.800781 C 59.15625 150.644531 57.511719 151.445312 54.667969 153.269531 C 53.066406 154.335938 51.421875 155.179688 50.976562 155.179688 C 50.3125 155.179688 50.179688 155.492188 50.3125 156.605469 C 50.398438 157.761719 50.753906 158.25 51.867188 158.78125 C 52.667969 159.183594 53.957031 160.027344 54.800781 160.652344 C 56.222656 161.71875 59.734375 163.628906 63.289062 165.230469 C 65.15625 166.074219 66.355469 165.71875 66.578125 164.253906 C 66.667969 163.585938 66 163.097656 63.246094 161.941406 C 57.644531 159.539062 55.777344 158.515625 55.777344 157.847656 C 55.777344 157.492188 56.042969 157.226562 56.355469 157.316406 C 57.601562 157.539062 74.933594 158.160156 75.421875 157.984375 C 76.265625 157.628906 76.578125 156.117188 75.910156 155.316406 C 75.421875 154.691406 74.3125 154.648438 66.621094 154.914062 C 61.867188 155.046875 57.820312 155.046875 57.644531 154.914062 C 57.199219 154.46875 59.332031 153.269531 62.222656 152.335938 C 66.621094 150.867188 66.753906 150.78125 66.578125 149.710938 C 66.488281 148.957031 66.089844 148.691406 65.023438 148.601562 C 64.222656 148.511719 63.554688 148.644531 63.554688 148.910156 Z M 63.554688 148.910156 "/>
<path style=" stroke:none;fill-rule:nonzero;fill:rgb(0%,0%,0%);fill-opacity:1;" d="M 93.332031 149.179688 C 92.710938 149.488281 91.332031 150.113281 90.222656 150.558594 C 84.753906 152.648438 79.554688 155.847656 79.554688 157.183594 C 79.554688 157.847656 80.890625 158.78125 84.667969 160.785156 C 86.132812 161.539062 88.488281 162.785156 89.910156 163.585938 C 91.289062 164.339844 92.800781 164.964844 93.246094 164.964844 C 93.6875 164.964844 94.265625 165.1875 94.578125 165.496094 C 95.199219 166.121094 96.445312 165.230469 96.445312 164.117188 C 96.445312 163.40625 94.621094 162.382812 88.222656 159.582031 C 86.089844 158.648438 85.332031 158.070312 85.332031 157.226562 C 85.332031 157.003906 86 157.003906 86.800781 157.136719 C 88.800781 157.582031 105.246094 158.292969 106 158.027344 C 106.933594 157.671875 107.289062 156.117188 106.578125 155.316406 C 106.089844 154.691406 104.933594 154.648438 97.023438 154.871094 C 92.089844 155.046875 87.957031 155.003906 87.820312 154.78125 C 87.554688 154.335938 93.378906 151.625 94.578125 151.625 C 95.6875 151.625 96.445312 150.78125 96.445312 149.535156 C 96.445312 148.332031 95.15625 148.199219 93.332031 149.179688 Z M 93.332031 149.179688 "/>
<path style=" stroke:none;fill-rule:nonzero;fill:rgb(0%,0%,0%);fill-opacity:1;" d="M 162.488281 148.910156 C 162.355469 149.089844 160.976562 149.710938 159.464844 150.289062 C 155.734375 151.578125 156.089844 151.445312 153.554688 152.957031 C 152.355469 153.667969 150.84375 154.515625 150.222656 154.824219 C 147.777344 156.027344 147.867188 157.40625 150.488281 159.140625 C 151.601562 159.894531 152.710938 160.515625 152.933594 160.515625 C 153.199219 160.515625 154.265625 161.09375 155.332031 161.851562 C 156.398438 162.5625 157.511719 163.183594 157.820312 163.183594 C 158.089844 163.183594 158.976562 163.539062 159.734375 164.03125 C 160.488281 164.472656 161.867188 165.097656 162.84375 165.410156 C 164.667969 165.988281 165.332031 165.628906 165.332031 164.074219 C 165.332031 163.496094 159.910156 160.515625 158.933594 160.515625 C 157.957031 160.515625 154.667969 158.605469 154.667969 158.070312 C 154.667969 157.492188 155.644531 157.449219 161.6875 157.628906 C 165.511719 157.761719 169.820312 157.984375 171.246094 158.070312 C 174.3125 158.339844 175.554688 157.804688 175.554688 156.292969 C 175.554688 154.691406 174.445312 154.558594 164.84375 154.914062 C 158.710938 155.136719 156.445312 155.09375 156.445312 154.738281 C 156.445312 154.113281 161.867188 151.625 163.246094 151.625 C 164.535156 151.625 165.332031 150.824219 165.332031 149.535156 C 165.332031 148.691406 165.109375 148.511719 164.042969 148.511719 C 163.289062 148.511719 162.621094 148.691406 162.488281 148.910156 Z M 162.488281 148.910156 "/>
<path style=" stroke:none;fill-rule:nonzero;fill:rgb(0%,0%,0%);fill-opacity:1;" d="M 230.222656 149.890625 C 228.890625 150.558594 227.511719 151.136719 227.199219 151.136719 C 226.890625 151.179688 224.84375 152.203125 222.667969 153.449219 C 217.910156 156.117188 217.601562 156.914062 220.398438 159.140625 C 221.332031 159.894531 222.398438 160.515625 222.753906 160.515625 C 223.109375 160.515625 224.265625 161.09375 225.246094 161.851562 C 226.265625 162.5625 227.378906 163.183594 227.6875 163.183594 C 228 163.183594 228.488281 163.40625 228.710938 163.628906 C 229.378906 164.296875 233.464844 165.71875 234.132812 165.496094 C 234.398438 165.410156 234.667969 164.832031 234.667969 164.253906 C 234.667969 163.140625 233.6875 162.5625 226.355469 159.40625 C 224.535156 158.648438 223.867188 157.671875 224.976562 157.316406 C 225.246094 157.226562 226.800781 157.269531 228.398438 157.449219 C 230 157.628906 234.3125 157.847656 237.910156 157.984375 C 244.445312 158.160156 244.535156 158.160156 244.976562 157.136719 C 245.246094 156.605469 245.332031 155.804688 245.15625 155.359375 C 244.890625 154.691406 244 154.648438 235.867188 154.78125 C 230.933594 154.871094 226.800781 154.824219 226.667969 154.601562 C 226.445312 154.246094 231.511719 151.847656 233.378906 151.445312 C 234.667969 151.179688 235.246094 150.246094 234.84375 149.179688 C 234.445312 148.246094 233.023438 148.46875 230.222656 149.890625 Z M 230.222656 149.890625 "/>
<path style=" stroke:none;fill-rule:nonzero;fill:rgb(0%,0%,0%);fill-opacity:1;" d="M 300.445312 149.132812 C 300.132812 149.535156 299.644531 149.847656 299.332031 149.847656 C 299.023438 149.847656 298.179688 150.15625 297.511719 150.511719 C 296.800781 150.867188 295.910156 151.179688 295.511719 151.179688 C 295.109375 151.179688 294.535156 151.492188 294.222656 151.847656 C 293.910156 152.203125 293.289062 152.511719 292.84375 152.511719 C 292.398438 152.511719 291.910156 152.734375 291.777344 153.003906 C 291.601562 153.226562 290.535156 153.890625 289.421875 154.425781 C 286.445312 155.847656 286.355469 157.136719 289.109375 159.09375 C 290.222656 159.851562 291.289062 160.515625 291.464844 160.515625 C 291.6875 160.515625 292.753906 161.09375 293.910156 161.851562 C 295.066406 162.5625 296.265625 163.183594 296.535156 163.183594 C 296.800781 163.183594 297.378906 163.453125 297.734375 163.808594 C 298.710938 164.695312 302.179688 165.851562 302.933594 165.542969 C 303.289062 165.410156 303.554688 164.875 303.554688 164.339844 C 303.554688 163.496094 302.753906 162.960938 299.109375 161.273438 C 296.621094 160.117188 294.488281 159.183594 294.265625 159.183594 C 294.042969 159.183594 293.644531 158.871094 293.332031 158.515625 C 292.3125 157.269531 293.378906 156.828125 296.042969 157.359375 C 297.378906 157.582031 301.644531 157.847656 305.511719 157.9375 C 312.398438 158.027344 312.578125 158.027344 313.246094 157.050781 C 313.777344 156.203125 313.777344 155.980469 313.289062 155.359375 C 312.753906 154.691406 311.734375 154.648438 304.132812 154.914062 C 298.621094 155.09375 295.511719 155.046875 295.332031 154.738281 C 295.023438 154.246094 300.179688 151.625 301.511719 151.625 C 302.890625 151.625 303.511719 151.046875 303.644531 149.847656 C 303.777344 148.910156 303.554688 148.734375 302.398438 148.601562 C 301.554688 148.511719 300.800781 148.734375 300.445312 149.132812 Z M 300.445312 149.132812 "/>
<path style=" stroke:none;fill-rule:nonzero;fill:rgb(0%,0%,0%);fill-opacity:1;" d="M 351.511719 172.390625 C 350.890625 172.523438 350.753906 173.457031 350.578125 177.769531 C 350.355469 183.417969 350.398438 183.90625 351.421875 184.261719 C 352.621094 184.75 352.890625 184.082031 352.890625 180.925781 C 352.890625 178.480469 353.023438 177.859375 353.554688 177.859375 C 354.042969 177.859375 354.222656 178.347656 354.222656 179.503906 C 354.222656 180.4375 354.535156 181.59375 354.890625 182.039062 C 355.246094 182.527344 355.554688 183.28125 355.554688 183.726562 C 355.554688 184.171875 355.867188 184.527344 356.222656 184.527344 C 356.578125 184.527344 356.890625 184.128906 356.890625 183.683594 C 356.890625 183.195312 357.15625 182.527344 357.511719 182.171875 C 357.867188 181.816406 358.222656 180.792969 358.3125 179.859375 C 358.398438 178.660156 358.710938 178.082031 359.378906 177.859375 C 360.222656 177.503906 360.265625 177.589844 359.957031 180.214844 C 359.554688 183.371094 359.777344 184.171875 361.023438 183.996094 C 361.910156 183.859375 361.957031 183.550781 361.957031 178.167969 L 362 172.523438 L 360.84375 172.523438 C 359.6875 172.523438 359.15625 173.410156 357.957031 177.28125 C 357.867188 177.589844 357.644531 177.859375 357.421875 177.859375 C 357.199219 177.859375 356.890625 178.703125 356.710938 179.726562 C 356.488281 181.148438 356.3125 181.460938 356 180.972656 C 355.777344 180.617188 355.554688 179.769531 355.554688 179.101562 C 355.554688 178.4375 355.378906 177.769531 355.109375 177.636719 C 354.890625 177.503906 354.488281 176.613281 354.222656 175.679688 C 353.6875 173.589844 352.488281 172.167969 351.511719 172.390625 Z M 351.511719 172.390625 "/>
<path style=" stroke:none;fill-rule:nonzero;fill:rgb(0%,0%,0%);fill-opacity:1;" d="M 363.867188 175.5 C 363.6875 175.636719 363.554688 177.28125 363.554688 179.148438 C 363.601562 183.460938 364.3125 184.527344 367.289062 184.527344 C 369.867188 184.527344 370.222656 183.90625 370.222656 179.238281 C 370.222656 175.636719 369.957031 174.96875 368.710938 175.457031 C 368.179688 175.679688 368 176.390625 368 178.527344 C 368 181.460938 367.332031 182.660156 366 182.128906 C 365.511719 181.949219 365.332031 181.191406 365.332031 179.238281 C 365.332031 175.769531 364.84375 174.523438 363.867188 175.5 Z M 363.867188 175.5 "/>
<path style=" stroke:none;fill-rule:nonzero;fill:rgb(0%,0%,0%);fill-opacity:1;" d="M 372.355469 176.300781 C 371.910156 176.878906 371.554688 177.679688 371.554688 178.035156 C 371.554688 179.015625 373.15625 180.527344 374.179688 180.527344 C 375.777344 180.527344 376.535156 181.015625 375.957031 181.683594 C 375.378906 182.394531 374.042969 182.484375 372.890625 181.859375 C 371.6875 181.191406 371.332031 182.082031 372.3125 183.417969 C 373.464844 184.972656 375.820312 184.929688 377.199219 183.328125 C 377.777344 182.707031 378.222656 181.949219 378.222656 181.683594 C 378.179688 180.617188 376.535156 179.238281 375.066406 179.101562 C 374 179.015625 373.511719 178.703125 373.421875 178.125 C 373.246094 177.371094 373.464844 177.324219 375.421875 177.589844 C 378.089844 177.949219 378.535156 177.589844 377.246094 176.214844 C 375.910156 174.789062 373.378906 174.835938 372.355469 176.300781 Z M 372.355469 176.300781 "/>
<path style=" stroke:none;fill-rule:nonzero;fill:rgb(0%,0%,0%);fill-opacity:1;" d="M 380.890625 175.8125 C 380.890625 176.167969 380.578125 176.523438 380.222656 176.703125 C 379.734375 176.878906 379.554688 177.636719 379.554688 179.679688 C 379.554688 181.90625 379.734375 182.617188 380.578125 183.460938 C 381.910156 184.882812 383.957031 184.882812 385.332031 183.417969 C 386.488281 182.171875 386.445312 182.171875 383.554688 182.128906 C 382.089844 182.082031 381.554688 181.90625 381.554688 181.414062 C 381.554688 180.925781 382.179688 180.703125 383.777344 180.527344 C 385.910156 180.304688 386 180.257812 386.132812 178.835938 C 386.355469 176.792969 384.800781 175.191406 382.578125 175.191406 C 381.421875 175.191406 380.890625 175.367188 380.890625 175.8125 Z M 384.042969 177.414062 C 384.710938 177.414062 384.488281 178.613281 383.734375 178.925781 C 382.535156 179.371094 381.777344 179.238281 381.464844 178.480469 C 381.15625 177.679688 382.132812 176.878906 383.023438 177.191406 C 383.378906 177.324219 383.820312 177.414062 384.042969 177.414062 Z M 384.042969 177.414062 "/>
<path style=" stroke:none;fill-rule:nonzero;fill:rgb(0%,0%,0%);fill-opacity:1;" d="M 387.554688 178.746094 C 387.554688 181.949219 387.6875 182.527344 388.578125 183.460938 C 389.332031 184.261719 390.042969 184.527344 391.6875 184.527344 C 393.554688 184.527344 393.867188 184.394531 394.265625 183.328125 C 394.488281 182.707031 394.621094 180.660156 394.578125 178.792969 C 394.445312 175.769531 394.355469 175.414062 393.554688 175.414062 C 392.753906 175.414062 392.667969 175.769531 392.535156 178.390625 C 392.445312 180.75 392.222656 181.503906 391.601562 181.859375 C 390.132812 182.617188 389.378906 181.503906 389.246094 178.304688 C 389.15625 175.992188 388.976562 175.414062 388.355469 175.28125 C 387.644531 175.144531 387.554688 175.546875 387.554688 178.746094 Z M 387.554688 178.746094 "/>
<path style=" stroke:none;fill-rule:nonzero;fill:rgb(0%,0%,0%);fill-opacity:1;" d="M 10.890625 176.65625 C 9.820312 177.234375 10.890625 178.304688 12.488281 178.304688 C 13.421875 178.304688 13.777344 178.527344 13.820312 179.058594 C 13.820312 179.503906 13.867188 181.859375 13.910156 184.304688 C 14 188.441406 14.042969 188.753906 14.890625 188.753906 C 15.734375 188.753906 15.777344 188.398438 15.910156 183.550781 L 16.042969 178.347656 L 17.6875 178.214844 C 18.976562 178.125 19.332031 177.902344 19.332031 177.191406 C 19.332031 176.390625 19.023438 176.300781 15.464844 176.257812 C 13.332031 176.257812 11.289062 176.4375 10.890625 176.65625 Z M 10.890625 176.65625 "/>
<path style=" stroke:none;fill-rule:nonzero;fill:rgb(0%,0%,0%);fill-opacity:1;" d="M 36 178.304688 C 36 178.527344 36.042969 178.792969 36.089844 178.835938 C 36.132812 178.925781 35.910156 179.414062 35.601562 179.992188 C 35.109375 180.882812 35.15625 181.191406 35.777344 181.859375 C 36.398438 182.527344 36.488281 183.195312 36.222656 185.328125 C 35.910156 188.21875 36.535156 189.285156 38.222656 188.753906 C 39.15625 188.441406 39.421875 187.460938 38.667969 186.972656 C 38.089844 186.617188 38.089844 181.992188 38.667969 181.636719 C 38.976562 181.460938 38.976562 181.105469 38.667969 180.527344 C 38.445312 180.082031 38.222656 179.28125 38.222656 178.792969 C 38.222656 178.082031 37.957031 177.859375 37.109375 177.859375 C 36.488281 177.859375 36 178.035156 36 178.304688 Z M 36 178.304688 "/>
<path style=" stroke:none;fill-rule:nonzero;fill:rgb(0%,0%,0%);fill-opacity:1;" d="M 20.667969 181.28125 C 19.066406 183.0625 19.066406 186.351562 20.710938 187.863281 C 22.3125 189.375 24.398438 189.332031 25.511719 187.773438 C 26.179688 186.882812 26.265625 186.441406 25.867188 185.816406 C 25.511719 185.238281 25.511719 184.972656 25.867188 184.882812 C 26.132812 184.792969 26.355469 184.082031 26.355469 183.371094 C 26.355469 180.214844 22.890625 178.925781 20.667969 181.28125 Z M 24.578125 182.128906 C 25.066406 182.617188 24.355469 183.640625 23.554688 183.640625 C 22.667969 183.640625 21.644531 182.617188 22.089844 182.171875 C 22.445312 181.769531 24.222656 181.769531 24.578125 182.128906 Z M 24.398438 185.371094 C 24.753906 185.59375 24.890625 186.085938 24.753906 186.484375 C 24.445312 187.242188 23.246094 187.417969 22.3125 186.796875 C 21.820312 186.527344 21.867188 186.308594 22.445312 185.683594 C 23.289062 184.882812 23.511719 184.839844 24.398438 185.371094 Z M 24.398438 185.371094 "/>
<path style=" stroke:none;fill-rule:nonzero;fill:rgb(0%,0%,0%);fill-opacity:1;" d="M 28.800781 181.191406 C 28.179688 182.570312 28.621094 183.105469 29.777344 182.394531 C 30.710938 181.816406 32.132812 181.683594 32.578125 182.128906 C 33.15625 182.707031 32.265625 183.640625 31.15625 183.640625 C 29.867188 183.640625 28 185.238281 28 186.351562 C 28 187.242188 29.867188 188.972656 30.800781 188.972656 C 31.246094 188.972656 31.6875 188.664062 31.867188 188.308594 C 32.089844 187.683594 32.179688 187.683594 32.890625 188.308594 C 34 189.285156 34.222656 188.753906 34.222656 185.238281 C 34.179688 181.371094 33.378906 180.082031 30.933594 180.082031 C 29.644531 180.082031 29.199219 180.304688 28.800781 181.191406 Z M 32.445312 184.75 C 32.445312 185.460938 31.332031 187.195312 30.84375 187.195312 C 29.820312 187.195312 29.734375 186.351562 30.667969 185.417969 C 31.464844 184.617188 32.445312 184.21875 32.445312 184.75 Z M 32.445312 184.75 "/>
<path style=" stroke:none;fill-rule:nonzero;fill:rgb(0%,0%,0%);fill-opacity:1;" d="M 40.710938 183.816406 C 40.398438 187.953125 40.621094 189.109375 41.734375 188.886719 C 42.265625 188.753906 42.445312 188.175781 42.445312 186.308594 C 42.445312 183.816406 43.289062 181.859375 44.3125 181.859375 C 45.023438 181.859375 45.066406 180.703125 44.445312 180.304688 C 44.179688 180.125 43.6875 180.214844 43.332031 180.527344 C 42.933594 180.835938 42.667969 180.882812 42.445312 180.527344 C 42.3125 180.304688 41.910156 180.082031 41.601562 180.082031 C 41.199219 180.082031 40.933594 181.191406 40.710938 183.816406 Z M 40.710938 183.816406 "/>
<path style=" stroke:none;fill-rule:nonzero;fill:rgb(0%,0%,0%);fill-opacity:1;" d="M 46.84375 180.4375 C 45.734375 181.191406 44.890625 183.0625 44.890625 184.75 C 44.890625 188.398438 48.710938 190.351562 51.023438 187.90625 C 52.445312 186.394531 52.445312 182.4375 50.976562 181.058594 C 49.957031 180.082031 47.820312 179.769531 46.84375 180.4375 Z M 49.820312 182.394531 C 49.910156 183.503906 49.6875 186.527344 49.511719 186.839844 C 49.421875 186.972656 48.933594 187.019531 48.445312 186.882812 C 47.734375 186.707031 47.554688 186.261719 47.554688 184.574219 C 47.554688 183.417969 47.6875 182.304688 47.867188 182.171875 C 48.355469 181.636719 49.777344 181.816406 49.820312 182.394531 Z M 49.820312 182.394531 "/>
</g>
</svg>
