<?xml version="1.0" encoding="UTF-8"?>
<svg xmlns="http://www.w3.org/2000/svg" xmlns:xlink="http://www.w3.org/1999/xlink" width="278pt" height="200pt" viewBox="0 0 278 200" version="1.1">
<g id="surface1">
<path style=" stroke:none;fill-rule:nonzero;fill:rgb(0%,0%,0%);fill-opacity:1;" d="M 219.035156 6.226562 C 218.519531 6.785156 217.40625 7.621094 216.613281 8.023438 C 215.777344 8.460938 214.824219 9.21875 214.503906 9.738281 C 214.148438 10.253906 213.230469 11.132812 212.515625 11.652344 C 211.71875 12.171875 211.125 12.890625 211.125 13.371094 C 211.125 14.089844 210.128906 15.046875 206.273438 17.957031 C 205.558594 18.515625 204.125 19.796875 203.09375 20.832031 C 202.058594 21.828125 200.867188 22.789062 200.46875 22.90625 C 200.070312 23.027344 199.433594 23.664062 199.078125 24.34375 C 198.679688 24.984375 198.125 25.539062 197.886719 25.539062 C 196.613281 25.539062 186.949219 34.441406 186.632812 35.917969 C 186.195312 37.792969 185.203125 40.90625 184.683594 42.105469 C 183.253906 45.296875 182.894531 46.253906 182.894531 46.773438 C 182.894531 47.332031 181.941406 50.285156 181.34375 51.683594 C 180.867188 52.757812 179.871094 56.152344 179.515625 57.867188 C 179.355469 58.625 178.757812 60.21875 178.242188 61.421875 C 177.6875 62.574219 176.8125 65.011719 176.335938 66.804688 C 175.855469 68.5625 174.984375 71.078125 174.386719 72.316406 C 173.828125 73.550781 173.355469 74.949219 173.355469 75.386719 C 173.355469 75.828125 173.195312 76.265625 172.996094 76.382812 C 172.796875 76.542969 172.515625 77.382812 172.355469 78.339844 C 172.199219 79.257812 171.921875 80.21875 171.679688 80.496094 C 171.484375 80.734375 171.164062 81.453125 170.96875 82.089844 C 170.769531 82.691406 170.25 84.207031 169.8125 85.40625 C 169.335938 86.601562 168.980469 87.957031 168.980469 88.398438 C 168.980469 88.835938 168.699219 89.714844 168.382812 90.351562 C 168.066406 90.992188 167.667969 92.1875 167.546875 93.066406 C 167.390625 93.90625 167.109375 94.703125 166.953125 94.820312 C 166.472656 95.101562 166.515625 96.777344 166.953125 97.695312 C 167.148438 98.054688 167.507812 98.8125 167.746094 99.371094 C 167.984375 99.929688 168.382812 100.6875 168.660156 101.046875 C 168.9375 101.40625 169.058594 101.84375 168.9375 101.964844 C 168.820312 102.085938 146.4375 102.167969 119.199219 102.167969 L 69.660156 102.167969 L 68.703125 103.441406 C 68.148438 104.160156 67.316406 105.679688 66.796875 106.753906 C 65.722656 109.148438 64.929688 110.148438 64.054688 110.148438 C 63.417969 110.148438 57.054688 104.519531 54.871094 102.046875 C 52.960938 99.851562 48.941406 95.980469 47.195312 94.582031 C 46.203125 93.824219 45.207031 92.785156 44.96875 92.265625 C 44.730469 91.789062 44.011719 91.070312 43.335938 90.632812 C 42.660156 90.234375 41.46875 89.15625 40.714844 88.234375 C 39.917969 87.359375 39.125 86.601562 38.882812 86.601562 C 38.488281 86.601562 37.574219 85.800781 33.398438 81.535156 C 31.96875 80.097656 30.574219 78.699219 30.257812 78.460938 C 29.980469 78.21875 28.863281 77.222656 27.792969 76.222656 C 26.757812 75.226562 24.492188 73.152344 22.78125 71.597656 C 21.074219 70 18.25 67.367188 16.5 65.6875 C 13.71875 63.054688 13.121094 62.65625 11.847656 62.65625 L 10.339844 62.65625 L 10.375 64.933594 C 10.375 66.207031 10.535156 67.964844 10.695312 68.839844 L 10.972656 70.4375 L 11.253906 68.960938 C 11.929688 65.570312 12.324219 67.164062 12.324219 73.308594 C 12.367188 76.785156 12.523438 82.132812 12.722656 85.203125 C 13.199219 91.988281 14.191406 109.46875 14.710938 120.121094 C 14.910156 124.394531 15.269531 130.140625 15.507812 132.894531 C 15.980469 138.800781 16.539062 147.023438 17.296875 160.628906 C 17.613281 166.097656 18.050781 173.839844 18.289062 177.792969 C 18.527344 181.742188 18.648438 186.011719 18.488281 187.25 L 18.25 189.566406 L 222.65625 189.566406 L 222.65625 188.527344 C 222.65625 187.808594 223.25 186.890625 224.5625 185.613281 C 225.59375 184.617188 227.148438 182.898438 228.023438 181.824219 C 228.898438 180.785156 230.566406 178.988281 231.679688 177.871094 C 232.832031 176.714844 233.945312 175.597656 234.183594 175.398438 C 235.21875 174.359375 237.804688 171.085938 238.242188 170.289062 C 238.835938 169.09375 239.792969 168.453125 240.785156 168.414062 C 241.261719 168.414062 241.898438 168.015625 242.257812 167.496094 C 242.574219 167.015625 244.722656 164.621094 247.066406 162.226562 C 249.371094 159.875 251.28125 157.71875 251.28125 157.519531 C 251.28125 157.320312 252.394531 156.003906 253.785156 154.605469 C 258.519531 149.777344 260.027344 148.136719 260.027344 147.777344 C 260.027344 147.582031 261.378906 146.023438 263.011719 144.308594 C 264.640625 142.589844 265.992188 140.996094 265.992188 140.71875 C 265.992188 140.199219 264.519531 138.28125 262.535156 136.285156 C 261.816406 135.566406 261.222656 134.808594 261.222656 134.609375 C 261.222656 134.410156 260.585938 133.535156 259.828125 132.65625 C 259.074219 131.816406 258.441406 130.980469 258.441406 130.859375 C 258.441406 130.738281 258 130.378906 257.441406 130.101562 C 256.886719 129.78125 256.132812 128.945312 255.773438 128.226562 C 255.457031 127.507812 254.660156 126.589844 254.023438 126.230469 C 253.390625 125.828125 252.871094 125.3125 252.871094 125.03125 C 252.871094 124.511719 251.003906 122.121094 247.785156 118.527344 C 246.707031 117.332031 245 115.414062 244.046875 114.335938 C 243.050781 113.21875 242.015625 111.941406 241.777344 111.421875 C 241.421875 110.785156 241.066406 110.585938 240.546875 110.746094 C 239.988281 110.90625 239.273438 110.304688 237.601562 108.269531 C 236.371094 106.792969 234.742188 104.839844 233.988281 103.960938 C 233.191406 103.082031 232.15625 101.808594 231.679688 101.128906 C 230.925781 100.050781 227.863281 96.136719 225.238281 93.027344 C 224.800781 92.46875 223.886719 91.46875 223.210938 90.789062 C 222.535156 90.113281 221.859375 89.195312 221.699219 88.753906 C 221.582031 88.277344 220.984375 87.679688 220.46875 87.398438 C 219.910156 87.121094 219.472656 86.761719 219.472656 86.601562 C 219.472656 86.441406 218.640625 85.40625 217.605469 84.285156 C 214.226562 80.613281 213.507812 79.777344 213.507812 79.375 C 213.507812 78.980469 212 77.222656 207.664062 72.671875 C 206.273438 71.238281 205.160156 69.878906 205.160156 69.640625 C 205.160156 69.4375 204.605469 68.722656 203.964844 68.085938 C 201.703125 65.96875 201.703125 65.730469 204.167969 63.054688 C 205.359375 61.738281 206.351562 60.5 206.351562 60.261719 C 206.351562 60.023438 206.789062 59.664062 207.308594 59.421875 C 207.824219 59.183594 208.660156 58.304688 209.175781 57.46875 C 209.691406 56.589844 210.527344 55.714844 211.042969 55.433594 C 211.523438 55.152344 212.316406 54.316406 212.753906 53.597656 C 213.230469 52.878906 214.703125 51.121094 216.015625 49.726562 C 220.347656 45.214844 221.859375 43.5 221.859375 43.101562 C 221.859375 42.105469 222.457031 42.460938 229.292969 47.53125 C 230.207031 48.207031 231.558594 49.046875 232.316406 49.445312 C 233.03125 49.804688 234.183594 50.523438 234.859375 51 C 235.539062 51.480469 236.25 51.878906 236.453125 51.878906 C 236.609375 51.921875 237.40625 52.441406 238.160156 53.078125 C 238.917969 53.757812 239.910156 54.273438 240.386719 54.273438 C 240.863281 54.273438 241.699219 54.632812 242.257812 55.074219 C 244.125 56.550781 245.714844 55.910156 245.714844 53.636719 C 245.714844 51.921875 246.828125 51.640625 248.339844 53.039062 C 248.976562 53.636719 250.644531 54.792969 252.074219 55.671875 C 253.507812 56.511719 254.738281 57.347656 254.859375 57.546875 C 254.976562 57.707031 255.933594 58.226562 256.96875 58.664062 C 258 59.144531 259.3125 59.941406 259.871094 60.460938 C 261.019531 61.539062 263.050781 62.65625 263.808594 62.65625 C 264.082031 62.65625 264.601562 63.015625 265 63.453125 C 265.394531 63.894531 265.914062 64.25 266.191406 64.25 C 267.027344 64.25 269.09375 65.449219 269.332031 66.089844 C 269.648438 66.886719 271.121094 66.6875 271.71875 65.769531 C 272.351562 64.691406 271.519531 62.816406 270.445312 62.933594 C 269.769531 63.015625 269.414062 62.65625 268.738281 61.140625 C 268.257812 60.101562 267.34375 58.664062 266.746094 57.945312 C 266.113281 57.226562 265.597656 56.46875 265.597656 56.230469 C 265.597656 56.03125 264.917969 54.835938 264.125 53.597656 C 263.289062 52.359375 262.136719 50.605469 261.539062 49.726562 C 260.941406 48.808594 260.230469 47.648438 259.949219 47.09375 C 259.472656 46.09375 257.246094 42.660156 256.808594 42.300781 C 256.6875 42.183594 256.171875 41.421875 255.652344 40.546875 C 255.179688 39.710938 254.34375 38.59375 253.90625 38.113281 C 253.429688 37.59375 252.632812 36.398438 252.15625 35.398438 C 251.121094 33.324219 241.660156 23.945312 240.625 23.945312 C 240.269531 23.945312 238.597656 22.546875 236.96875 20.871094 C 235.296875 19.15625 233.109375 16.960938 232.078125 16.003906 C 230.847656 14.886719 230.207031 13.925781 230.207031 13.328125 C 230.207031 12.808594 230.007812 12.371094 229.8125 12.371094 C 229.574219 12.371094 228.738281 11.613281 227.902344 10.734375 C 227.109375 9.816406 225.996094 8.699219 225.480469 8.21875 C 224.960938 7.742188 224.007812 6.902344 223.371094 6.265625 C 221.898438 4.871094 220.308594 4.871094 219.035156 6.226562 Z M 227.425781 13.96875 C 227.425781 14.6875 227.980469 15.285156 231.402344 18.359375 C 234.144531 20.792969 234.34375 21.03125 236.171875 23.144531 C 238.796875 26.21875 239.433594 26.738281 240.269531 26.738281 C 240.707031 26.738281 241.738281 27.375 242.574219 28.136719 C 243.449219 28.894531 244.242188 29.53125 244.441406 29.53125 C 244.601562 29.53125 245.039062 30.089844 245.398438 30.730469 C 245.792969 31.40625 246.628906 32.246094 247.265625 32.605469 C 247.902344 33.003906 248.738281 33.800781 249.09375 34.441406 C 249.890625 35.796875 249.730469 36.636719 247.503906 42.105469 C 246.789062 43.859375 245.914062 46.496094 245.554688 47.96875 C 244.800781 51.082031 243.847656 53.476562 243.410156 53.476562 C 243.210938 53.476562 242.652344 53.039062 242.136719 52.480469 C 241.621094 51.921875 240.785156 51.480469 240.269531 51.480469 C 239.792969 51.480469 238.160156 50.683594 236.691406 49.683594 C 235.21875 48.6875 233.828125 47.890625 233.585938 47.890625 C 233.347656 47.890625 232.714844 47.453125 232.199219 46.890625 C 231.679688 46.375 230.527344 45.535156 229.652344 45.054688 C 228.738281 44.578125 227.386719 43.617188 226.589844 42.902344 C 225.796875 42.183594 224.722656 41.464844 224.246094 41.304688 C 223.769531 41.144531 222.613281 40.546875 221.742188 39.988281 C 220.824219 39.390625 219.710938 38.671875 219.273438 38.390625 C 215.378906 35.917969 213.507812 34.601562 213.507812 34.320312 C 213.507812 34.160156 213.789062 33.484375 214.105469 32.886719 C 214.421875 32.246094 214.703125 31.246094 214.703125 30.648438 C 214.703125 30.050781 214.859375 29.492188 215.058594 29.371094 C 215.261719 29.253906 215.535156 28.332031 215.65625 27.339844 C 215.816406 26.378906 216.09375 25.460938 216.332031 25.339844 C 216.53125 25.179688 216.691406 24.820312 216.691406 24.464844 C 216.691406 24.144531 216.929688 23.308594 217.246094 22.625 C 218.164062 20.554688 219.515625 15.683594 219.550781 14.328125 C 219.59375 13.609375 219.832031 12.570312 220.148438 12.011719 C 220.429688 11.453125 220.664062 10.734375 220.664062 10.457031 C 220.664062 10.175781 220.945312 9.378906 221.304688 8.699219 L 221.9375 7.460938 L 224.683594 10.335938 C 226.191406 11.933594 227.425781 13.570312 227.425781 13.96875 Z M 218.519531 10.976562 C 218.164062 11.8125 217.882812 13.011719 217.882812 13.648438 C 217.882812 14.6875 216.929688 17.359375 215.894531 19.234375 C 215.535156 19.875 215.296875 20.753906 214.304688 24.820312 C 214.066406 25.78125 213.628906 27.097656 213.3125 27.816406 C 212.992188 28.496094 212.714844 29.371094 212.714844 29.730469 C 212.714844 30.132812 212.4375 31.246094 212.039062 32.285156 C 211.324219 34.320312 211.5625 36.316406 212.515625 36.316406 C 212.832031 36.316406 213.667969 36.953125 214.421875 37.714844 C 215.179688 38.472656 215.972656 39.113281 216.210938 39.113281 C 216.492188 39.113281 217.605469 39.667969 218.71875 40.347656 L 220.746094 41.625 L 219.792969 42.582031 C 219.273438 43.140625 218.242188 44.257812 217.445312 45.054688 C 216.691406 45.855469 214.386719 48.367188 212.316406 50.683594 C 202.457031 61.898438 198.003906 66.726562 197.207031 67.207031 C 196.890625 67.40625 195.894531 68.242188 195.019531 69.082031 C 193.074219 70.917969 188.101562 75.503906 184.046875 79.257812 C 182.378906 80.773438 180.785156 82.410156 180.511719 82.890625 C 180.230469 83.371094 179.316406 84.246094 178.480469 84.765625 C 177.644531 85.324219 175.777344 87 174.265625 88.515625 C 171.761719 91.03125 170.292969 92.1875 169.535156 92.1875 C 169.335938 92.1875 169.417969 91.988281 169.695312 91.710938 C 169.972656 91.429688 170.171875 90.871094 170.171875 90.472656 C 170.171875 90.035156 170.6875 88.59375 171.363281 87.242188 C 172.636719 84.605469 174.144531 80.136719 174.144531 78.980469 C 174.144531 78.578125 174.304688 78.179688 174.503906 78.058594 C 174.664062 77.941406 175.222656 76.703125 175.738281 75.347656 C 176.214844 73.949219 176.773438 72.472656 176.933594 72.035156 C 177.128906 71.597656 177.40625 70.597656 177.566406 69.839844 C 177.6875 69.082031 177.964844 68.242188 178.125 68.042969 C 178.285156 67.804688 178.601562 67.085938 178.839844 66.445312 C 179.078125 65.769531 179.636719 64.25 180.074219 63.054688 C 180.546875 61.859375 180.90625 60.578125 180.90625 60.261719 C 180.90625 59.941406 181.1875 59.144531 181.503906 58.542969 C 181.820312 57.945312 182.179688 56.75 182.335938 55.953125 C 182.496094 55.152344 182.734375 54.273438 182.894531 54.074219 C 183.054688 53.835938 183.292969 53.039062 183.449219 52.238281 C 183.570312 51.441406 184.125 49.925781 184.644531 48.847656 C 185.160156 47.769531 185.957031 45.453125 186.433594 43.699219 C 186.910156 41.941406 187.546875 39.949219 187.863281 39.308594 C 188.144531 38.628906 188.660156 37.472656 189.019531 36.714844 C 189.335938 35.917969 190.371094 34.558594 191.324219 33.644531 C 194.386719 30.769531 197.011719 28.453125 197.449219 28.296875 C 198.242188 28.015625 200.824219 25.820312 203.886719 22.828125 C 205.519531 21.273438 207.027344 19.953125 207.1875 19.953125 C 207.386719 19.953125 208.023438 19.4375 208.660156 18.835938 C 209.296875 18.199219 210.488281 17.28125 211.28125 16.800781 C 212.714844 15.882812 213.710938 14.644531 213.710938 13.648438 C 213.710938 12.929688 218.402344 8.78125 218.796875 9.179688 C 218.996094 9.339844 218.839844 10.136719 218.519531 10.976562 Z M 253.070312 40.386719 C 253.945312 41.542969 254.859375 42.980469 255.136719 43.582031 C 255.414062 44.21875 256.132812 45.375 256.808594 46.171875 C 257.441406 47.011719 258.359375 48.449219 258.835938 49.367188 C 259.3125 50.324219 259.828125 51.082031 259.988281 51.082031 C 260.148438 51.082031 260.585938 51.800781 260.984375 52.71875 C 261.378906 53.597656 262.175781 54.914062 262.773438 55.59375 C 263.371094 56.3125 264.601562 58.066406 265.515625 59.542969 C 266.949219 61.9375 267.066406 62.257812 266.390625 62.257812 C 265.953125 62.257812 265.597656 62.097656 265.597656 61.898438 C 265.597656 61.699219 265.277344 61.457031 264.917969 61.300781 C 264.519531 61.179688 263.050781 60.261719 261.617188 59.261719 C 260.1875 58.265625 258.714844 57.226562 258.28125 56.949219 C 257.878906 56.707031 257.167969 56.191406 256.6875 55.832031 C 256.25 55.511719 255.019531 54.835938 253.984375 54.355469 C 252.992188 53.875 252.039062 53.316406 251.878906 53.078125 C 251.480469 52.441406 248.578125 50.683594 247.941406 50.683594 C 246.988281 50.683594 246.789062 49.886719 247.425781 48.570312 C 248.777344 45.777344 249.292969 44.335938 249.292969 43.378906 C 249.292969 42.820312 249.492188 42.222656 249.691406 42.105469 C 249.929688 41.984375 250.089844 41.34375 250.089844 40.707031 C 250.089844 37.714844 251.003906 37.632812 253.070312 40.386719 Z M 17.890625 70.078125 C 18.25 70.597656 19.242188 71.515625 20.15625 72.195312 C 21.03125 72.832031 22.542969 74.269531 23.496094 75.386719 C 24.453125 76.503906 25.445312 77.421875 25.726562 77.421875 C 25.960938 77.421875 26.839844 78.21875 27.671875 79.21875 C 28.46875 80.21875 29.261719 81.015625 29.460938 81.015625 C 29.660156 81.015625 31.132812 82.332031 32.722656 83.886719 C 34.355469 85.484375 36.378906 87.4375 37.214844 88.234375 C 38.050781 88.996094 40.792969 91.507812 43.300781 93.824219 C 45.800781 96.101562 49.660156 99.851562 51.84375 102.125 C 54.074219 104.441406 56.300781 106.671875 56.816406 107.113281 C 58.964844 109.03125 60.710938 110.425781 61.746094 111.0625 C 63.175781 111.984375 63.140625 113.378906 61.707031 115.292969 C 61.070312 116.09375 60.15625 117.453125 59.640625 118.328125 C 59.125 119.207031 58.566406 120.003906 58.449219 120.121094 C 57.890625 120.5625 55.664062 124.554688 55.664062 125.113281 C 55.664062 125.390625 55.464844 125.792969 55.226562 125.949219 C 54.988281 126.070312 54.390625 127.109375 53.875 128.183594 C 53.359375 129.261719 52.484375 130.699219 51.886719 131.378906 C 51.289062 132.015625 50.457031 133.414062 50.019531 134.410156 C 49.539062 135.449219 48.984375 136.488281 48.707031 136.765625 C 48.425781 137.046875 47.554688 138.441406 46.757812 139.839844 C 45.960938 141.273438 45.125 142.554688 44.929688 142.671875 C 44.6875 142.792969 44.53125 143.191406 44.53125 143.550781 C 44.53125 143.871094 44.011719 144.949219 43.335938 145.945312 C 42.703125 146.902344 42.144531 147.859375 42.144531 148.101562 C 42.144531 148.296875 42.027344 148.460938 41.828125 148.460938 C 41.667969 148.460938 41.191406 149.136719 40.792969 149.9375 C 39.800781 152.011719 39.757812 152.089844 38.089844 154.285156 C 37.253906 155.363281 36.578125 156.519531 36.578125 156.878906 C 36.578125 157.238281 36.144531 158.039062 35.585938 158.675781 C 35.03125 159.3125 34.113281 160.710938 33.558594 161.828125 C 33 162.90625 32.324219 164.101562 32.046875 164.421875 C 31.808594 164.742188 31.332031 165.539062 31.050781 166.21875 C 30.417969 167.695312 30.335938 167.777344 28.585938 170.449219 C 27.792969 171.648438 26.996094 173.042969 26.839844 173.5625 C 26.679688 174.121094 26.121094 174.996094 25.566406 175.554688 C 25.050781 176.117188 23.976562 177.988281 23.179688 179.707031 C 21.707031 182.898438 20.953125 183.417969 20.792969 181.34375 C 20.398438 176.671875 18.6875 146.625 17.929688 130.898438 C 17.691406 126.390625 17.414062 121.71875 17.296875 120.523438 C 16.9375 116.851562 15.945312 101.765625 15.304688 90.394531 C 14.988281 84.445312 14.550781 76.863281 14.3125 73.511719 C 14.113281 70.121094 14.035156 67.207031 14.15625 67.003906 C 14.394531 66.566406 16.980469 68.683594 17.890625 70.078125 Z M 201.183594 67.964844 C 201.542969 68.242188 202.175781 69.082031 202.65625 69.839844 C 203.132812 70.597656 204.5625 72.351562 205.835938 73.75 C 210.128906 78.5 211.402344 80.015625 213.429688 82.730469 C 214.542969 84.207031 216.175781 86.082031 217.050781 86.882812 C 217.964844 87.636719 218.679688 88.515625 218.679688 88.753906 C 218.679688 88.996094 219.472656 89.992188 220.46875 90.910156 C 221.460938 91.828125 222.257812 92.867188 222.257812 93.1875 C 222.257812 93.464844 222.8125 94.0625 223.449219 94.460938 C 224.125 94.820312 224.640625 95.300781 224.640625 95.460938 C 224.640625 95.621094 225.160156 96.300781 225.796875 96.9375 C 226.429688 97.617188 227.066406 98.453125 227.1875 98.851562 C 227.304688 99.253906 227.824219 100.007812 228.339844 100.570312 C 228.816406 101.128906 230.25 102.804688 231.480469 104.359375 C 232.714844 105.875 234.621094 108.152344 235.734375 109.347656 C 236.847656 110.542969 237.761719 111.664062 237.761719 111.824219 C 237.761719 112.378906 239.949219 114.136719 240.625 114.136719 C 240.984375 114.136719 241.660156 114.777344 242.136719 115.535156 C 242.613281 116.292969 243.328125 117.171875 243.6875 117.453125 C 244.5625 118.050781 248.777344 122.957031 251.679688 126.707031 C 252.871094 128.226562 254.859375 130.542969 256.132812 131.816406 C 257.40625 133.09375 258.441406 134.25 258.441406 134.449219 C 258.441406 134.609375 258.914062 135.289062 259.511719 135.925781 C 260.90625 137.402344 263.210938 140.398438 263.210938 140.753906 C 263.210938 140.875 262.695312 141.554688 262.019531 142.234375 C 261.378906 142.914062 259.472656 145.066406 257.800781 147.0625 C 256.089844 149.015625 253.390625 152.011719 251.800781 153.648438 C 250.207031 155.285156 248.898438 156.839844 248.898438 157.078125 C 248.898438 157.355469 248.378906 157.957031 247.742188 158.394531 C 247.109375 158.875 246.191406 159.832031 245.753906 160.550781 C 245.320312 161.269531 244.523438 162.105469 244.046875 162.386719 C 243.53125 162.625 242.695312 163.503906 242.175781 164.265625 C 241.5 165.222656 240.984375 165.617188 240.503906 165.5 C 240.03125 165.378906 239.117188 166.097656 237.601562 167.8125 C 236.371094 169.210938 235.378906 170.488281 235.378906 170.648438 C 235.378906 170.847656 234.621094 171.726562 233.707031 172.640625 C 230.6875 175.597656 227.585938 178.949219 225.996094 180.984375 C 221.5 186.730469 221.144531 186.769531 218.875 182.140625 C 218.003906 180.347656 216.929688 178.507812 216.53125 178.03125 C 215.777344 177.191406 214.464844 174.835938 212.59375 171.007812 C 212.039062 169.890625 211.324219 168.734375 210.964844 168.453125 C 210.570312 168.132812 209.851562 166.976562 209.296875 165.859375 C 208.738281 164.742188 207.785156 163.226562 207.148438 162.464844 C 206.472656 161.746094 205.957031 160.832031 205.957031 160.472656 C 205.957031 160.070312 205.796875 159.632812 205.597656 159.394531 C 205.398438 159.191406 204.5625 157.796875 203.769531 156.28125 C 202.933594 154.765625 201.941406 153.128906 201.5 152.6875 C 201.0625 152.210938 200.191406 150.773438 199.554688 149.417969 C 198.917969 148.101562 197.964844 146.582031 197.40625 146.066406 C 196.851562 145.546875 196.414062 144.90625 196.414062 144.667969 C 196.414062 143.910156 195.300781 141.875 194.226562 140.71875 C 193.710938 140.15625 192.914062 138.882812 192.476562 137.882812 C 192.039062 136.882812 191.40625 135.808594 191.046875 135.449219 C 190.730469 135.128906 190.449219 134.570312 190.449219 134.25 C 190.449219 133.492188 188.820312 130.9375 187.707031 129.941406 C 187.265625 129.503906 186.871094 128.945312 186.871094 128.664062 C 186.871094 128.105469 184.644531 124.273438 183.847656 123.4375 C 183.609375 123.195312 183.171875 122.398438 182.855469 121.640625 C 182.574219 120.921875 181.742188 119.445312 181.027344 118.328125 C 180.308594 117.25 179.714844 116.132812 179.714844 115.894531 C 179.714844 115.652344 179.277344 114.976562 178.722656 114.378906 C 178.203125 113.816406 177.40625 112.542969 176.96875 111.542969 C 176.53125 110.585938 175.738281 109.269531 175.144531 108.671875 C 174.585938 108.070312 173.75 106.753906 173.355469 105.796875 C 172.914062 104.839844 172.039062 103.441406 171.363281 102.722656 C 170.726562 101.964844 170.171875 101.046875 170.171875 100.6875 C 170.171875 100.367188 169.855469 99.171875 169.496094 98.09375 L 168.777344 96.101562 L 170.171875 94.941406 C 170.925781 94.34375 172.355469 93.066406 173.355469 92.1875 C 174.347656 91.308594 175.933594 89.832031 176.933594 88.953125 C 177.925781 88.078125 180.074219 86.042969 181.78125 84.484375 C 183.449219 82.890625 185.238281 81.253906 185.757812 80.773438 C 186.234375 80.335938 186.949219 79.699219 187.265625 79.339844 C 189.296875 77.222656 198.835938 68.324219 199.675781 67.804688 C 200.351562 67.367188 200.46875 67.367188 201.183594 67.964844 Z M 171.285156 106.671875 C 174.863281 112.300781 175.777344 113.777344 176.613281 115.414062 C 177.089844 116.332031 177.882812 117.53125 178.320312 118.007812 C 178.757812 118.527344 179.476562 119.605469 179.871094 120.402344 C 180.269531 121.242188 180.75 122.199219 180.945312 122.519531 C 181.144531 122.835938 181.542969 123.554688 181.78125 124.117188 C 182.058594 124.671875 183.214844 126.589844 184.363281 128.382812 C 185.519531 130.140625 186.472656 131.777344 186.472656 131.976562 C 186.472656 132.214844 186.792969 132.65625 187.1875 133.054688 C 187.625 133.414062 188.460938 134.730469 189.054688 136.007812 C 190.570312 139.042969 192.914062 143.03125 193.308594 143.191406 C 193.46875 143.273438 193.628906 143.511719 193.628906 143.667969 C 193.628906 143.871094 194.1875 144.828125 194.824219 145.785156 C 195.5 146.785156 196.015625 147.820312 196.015625 148.136719 C 196.015625 148.460938 196.570312 149.21875 197.207031 149.855469 C 197.886719 150.492188 198.402344 151.210938 198.402344 151.492188 C 198.402344 152.25 199.992188 154.925781 201.0625 155.921875 C 201.582031 156.398438 201.980469 157 201.980469 157.199219 C 201.980469 157.957031 205.597656 164.460938 206.789062 165.820312 C 207.148438 166.257812 208.023438 167.695312 208.660156 169.011719 C 209.335938 170.328125 210.25 171.804688 210.683594 172.28125 C 211.164062 172.761719 211.523438 173.28125 211.523438 173.441406 C 211.523438 173.960938 213.269531 177.191406 213.550781 177.191406 C 213.667969 177.191406 214.183594 178.03125 214.621094 179.066406 C 215.101562 180.148438 215.855469 181.464844 216.371094 182.019531 C 217.324219 183.0625 219.078125 186.09375 219.078125 186.652344 C 219.078125 186.8125 174.625 186.96875 120.273438 186.96875 C 41.03125 186.96875 21.46875 186.890625 21.46875 186.453125 C 21.46875 186.171875 22.144531 184.933594 23.023438 183.660156 C 23.855469 182.421875 24.691406 180.984375 24.847656 180.464844 C 25.007812 179.945312 25.605469 179.027344 26.242188 178.390625 C 26.839844 177.75 27.792969 176.273438 28.347656 175.078125 C 28.945312 173.921875 29.660156 172.683594 30.019531 172.402344 C 30.335938 172.125 30.972656 171.125 31.410156 170.128906 C 31.808594 169.171875 32.445312 168.132812 32.800781 167.777344 C 33.121094 167.453125 33.398438 166.898438 33.398438 166.574219 C 33.398438 165.859375 34.355469 164.300781 35.863281 162.507812 C 36.460938 161.789062 36.976562 161.03125 36.976562 160.832031 C 36.976562 160.429688 39.320312 156.398438 39.757812 156.039062 C 39.917969 155.921875 40.355469 155.203125 40.792969 154.445312 C 41.191406 153.6875 42.144531 152.167969 42.863281 151.132812 C 43.617188 150.054688 44.53125 148.417969 44.96875 147.5 C 46.796875 143.710938 47.832031 141.832031 48.707031 140.875 C 49.183594 140.316406 50.136719 138.917969 50.730469 137.722656 C 52.125 135.167969 52.40625 134.652344 53.597656 133.015625 C 54.074219 132.335938 54.46875 131.578125 54.46875 131.378906 C 54.46875 131.140625 54.710938 130.699219 55.027344 130.378906 C 55.34375 130.101562 55.984375 128.945312 56.457031 127.867188 C 56.976562 126.789062 57.851562 125.273438 58.40625 124.511719 C 59.003906 123.757812 59.878906 122.316406 60.316406 121.320312 C 60.792969 120.324219 61.507812 119.164062 61.90625 118.726562 C 63.019531 117.53125 64.011719 115.8125 64.011719 115.175781 C 64.011719 114.855469 64.492188 114.058594 65.046875 113.378906 C 65.605469 112.703125 66.519531 111.304688 67.074219 110.265625 C 67.632812 109.226562 68.1875 108.269531 68.386719 108.152344 C 68.546875 108.03125 69.0625 107.195312 69.539062 106.234375 L 70.375 104.558594 L 169.972656 104.558594 Z M 171.285156 106.671875 "/>
<path style="fill-rule:nonzero;fill:rgb(30.196078%,30.196078%,30.196078%);fill-opacity:1;stroke-width:2.653602;stroke-linecap:butt;stroke-linejoin:miter;stroke:rgb(0%,0%,0%);stroke-opacity:1;stroke-miterlimit:4;" d="M 70.675991 582.182519 C 70.675991 581.289357 79.247988 566.656183 89.723509 549.661637 C 118.558822 502.911339 140.308115 466.89122 183.315468 394.72863 L 222.429809 329.038406 L 378.07664 329.099582 L 533.723472 329.148522 L 551.162204 357.631823 C 560.741227 373.292744 592.830951 426.698933 622.452236 476.324478 C 652.07352 525.950023 678.661447 570.424593 681.535154 575.171809 L 686.742212 583.785316 L 378.715242 583.785316 C 209.289356 583.785316 70.675991 583.063446 70.675991 582.182519 Z M 70.675991 582.182519 " transform="matrix(0.318078,0,0,0.319266,0,0)"/>
</g>
</svg>
