<?xml version="1.0" encoding="UTF-8"?>
<svg xmlns="http://www.w3.org/2000/svg" xmlns:xlink="http://www.w3.org/1999/xlink" width="399pt" height="186pt" viewBox="0 0 399 186" version="1.1">
<g id="surface1">
<path style=" stroke:none;fill-rule:nonzero;fill:rgb(0%,0%,0%);fill-opacity:1;" d="M 8.972656 8.804688 C 8.785156 9.238281 8.726562 48.546875 8.785156 96.101562 L 8.972656 182.589844 L 390.769531 182.589844 L 390.769531 8.371094 L 199.996094 8.183594 C 47.710938 8.058594 9.15625 8.183594 8.972656 8.804688 Z M 195.847656 95.480469 L 195.847656 177.011719 L 14.542969 177.011719 L 14.355469 96.101562 C 14.292969 51.585938 14.355469 14.816406 14.542969 14.382812 C 14.726562 13.765625 33.230469 13.640625 105.320312 13.765625 L 195.847656 13.949219 Z M 385.199219 95.480469 L 385.199219 177.011719 L 203.894531 177.011719 L 203.707031 96.101562 C 203.644531 51.585938 203.707031 14.816406 203.894531 14.382812 C 204.078125 13.765625 222.582031 13.640625 294.671875 13.765625 L 385.199219 13.949219 Z M 385.199219 95.480469 "/>
<path style=" stroke:none;fill-rule:nonzero;fill:rgb(0%,0%,0%);fill-opacity:1;" d="M 137.25 37.632812 C 136.382812 37.757812 134.339844 38.996094 132.792969 40.363281 C 126.480469 45.941406 126.792969 54.496094 133.472656 59.953125 C 136.136719 62.125 136.445312 62.246094 141.085938 62.246094 C 145.539062 62.246094 146.035156 62.125 148.386719 60.203125 C 152.347656 57.101562 153.460938 54.808594 153.460938 49.910156 C 153.460938 45.261719 152.535156 43.089844 149.191406 39.929688 C 146.53125 37.449219 142.941406 36.765625 137.25 37.632812 Z M 137.25 37.632812 "/>
<path style=" stroke:none;fill-rule:nonzero;fill:rgb(0%,0%,0%);fill-opacity:1;" d="M 59.09375 119.039062 C 57.734375 119.660156 55.445312 121.519531 54.019531 123.132812 C 51.359375 126.109375 51.359375 126.171875 51.359375 130.882812 C 51.359375 135.347656 51.484375 135.84375 53.402344 138.320312 C 58.910156 145.574219 68.191406 145.761719 73.761719 138.695312 C 75.679688 136.277344 75.800781 135.902344 75.742188 131.066406 C 75.742188 126.109375 75.679688 125.859375 73.390625 123.132812 C 69.550781 118.421875 63.796875 116.808594 59.09375 119.039062 Z M 59.09375 119.039062 "/>
<path style=" stroke:none;fill-rule:nonzero;fill:rgb(0%,0%,0%);fill-opacity:1;" d="M 309.460938 85.558594 C 305.003906 88.039062 301.972656 92.691406 301.972656 97.03125 C 301.972656 99.757812 303.953125 104.097656 306.242188 106.269531 C 310.882812 110.730469 318.742188 110.792969 323.570312 106.453125 C 326.910156 103.355469 328.332031 96.597656 326.414062 92.316406 C 325.175781 89.464844 324.433594 88.597656 321.21875 86.304688 C 318.925781 84.628906 318 84.320312 315.03125 84.382812 C 312.863281 84.382812 310.820312 84.816406 309.460938 85.558594 Z M 309.460938 85.558594 "/>
</g>
</svg>
