<?xml version="1.0" encoding="UTF-8" standalone="no"?>
<svg
   xmlns:dc="http://purl.org/dc/elements/1.1/"
   xmlns:cc="http://creativecommons.org/ns#"
   xmlns:rdf="http://www.w3.org/1999/02/22-rdf-syntax-ns#"
   xmlns:svg="http://www.w3.org/2000/svg"
   xmlns="http://www.w3.org/2000/svg"
   xmlns:sodipodi="http://sodipodi.sourceforge.net/DTD/sodipodi-0.dtd"
   xmlns:inkscape="http://www.inkscape.org/namespaces/inkscape"
   version="1.0"
   width="500.37503"
   height="75.554039"
   viewBox="0 0 400.30002 60.443231"
   preserveAspectRatio="xMidYMid meet"
   id="svg3043"
   inkscape:version="0.48.4 r9939"
   sodipodi:docname="bd79e1840dea65335d30f007bd10d6000bf5cfbb.svg">
  <defs
     id="defs3123" />
  <sodipodi:namedview
     pagecolor="#ffffff"
     bordercolor="#666666"
     borderopacity="1"
     objecttolerance="10"
     gridtolerance="10"
     guidetolerance="10"
     inkscape:pageopacity="0"
     inkscape:pageshadow="2"
     inkscape:window-width="1600"
     inkscape:window-height="824"
     id="namedview3121"
     showgrid="false"
     fit-margin-top="0"
     fit-margin-left="0"
     fit-margin-right="0"
     fit-margin-bottom="0"
     inkscape:zoom="0.42933333"
     inkscape:cx="558.75"
     inkscape:cy="83.68055"
     inkscape:window-x="0"
     inkscape:window-y="24"
     inkscape:window-maximized="1"
     inkscape:current-layer="svg3043" />
  <metadata
     id="metadata3045">
Created by potrace 1.10, written by Peter Selinger 2001-2011
<rdf:RDF>
  <cc:Work
     rdf:about="">
    <dc:format>image/svg+xml</dc:format>
    <dc:type
       rdf:resource="http://purl.org/dc/dcmitype/StillImage" />
  </cc:Work>
</rdf:RDF>
</metadata>
  <g
     transform="matrix(0.04559745,0,0,-0.04559745,-1.3679235,64.800321)"
     id="g3047"
     style="fill:#000000;stroke:none">
    <path
       d="m 5029,1416 c -2,-2 -681,-5 -1509,-7 -1274,-2 -1510,-5 -1540,-17 -19,-8 -48,-18 -65,-22 -16,-4 -57,-15 -90,-24 -33,-10 -112,-31 -175,-48 -63,-16 -137,-36 -165,-43 -27,-8 -113,-30 -190,-49 -77,-20 -162,-43 -190,-51 -27,-8 -133,-37 -235,-64 -102,-27 -198,-55 -215,-62 -21,-8 -85,-12 -205,-10 C 194,1021 113,995 56,891 33,848 30,831 30,749 30,641 49,588 108,540 c 68,-56 114,-65 347,-66 172,0 218,-4 255,-18 25,-9 85,-28 135,-41 49,-13 140,-38 200,-55 61,-17 148,-42 195,-55 47,-13 121,-33 165,-45 44,-12 105,-29 135,-37 30,-8 69,-19 85,-23 85,-21 226,-65 270,-84 58,-24 -379,-22 4252,-18 l 2542,2 11,21 c 13,23 34,96 55,184 7,33 23,85 34,115 19,51 20,78 20,335 0,256 -1,285 -20,335 -11,30 -26,80 -33,110 -19,79 -54,198 -61,210 -6,10 -3656,16 -3666,6 z m 3629,-123 c 35,-66 82,-378 82,-538 0,-166 -55,-516 -86,-544 -9,-8 -3556,-21 -5634,-21 -913,0 -1052,2 -1100,15 -30,9 -80,23 -110,31 -30,9 -75,22 -100,29 -38,10 -191,53 -305,84 -16,5 -66,19 -110,31 -44,12 -93,26 -110,30 -16,5 -86,24 -155,44 -69,20 -176,50 -239,66 -62,17 -117,33 -122,36 -15,9 -11,380 4,392 6,5 39,15 72,22 33,7 130,32 215,55 85,23 211,57 280,75 69,17 145,38 170,45 25,7 74,20 110,29 36,10 88,23 115,31 28,7 75,20 105,28 104,27 175,47 225,61 43,13 510,15 3367,15 3150,1 3318,0 3326,-16 z M 580,920 c 8,-14 8,-26 -1,-41 -11,-21 -15,-22 -181,-17 -138,4 -172,2 -184,-9 -17,-18 -17,-18 2,-37 8,-9 28,-16 43,-16 21,0 29,-7 38,-31 11,-28 14,-30 47,-23 34,6 37,4 51,-30 l 15,-36 83,2 82,3 0,-60 0,-60 -165,0 c -136,0 -173,3 -212,18 -66,26 -94,63 -103,135 -9,81 7,135 50,168 53,40 114,52 277,53 138,1 148,0 158,-19 z"
       id="path3049"
       inkscape:connector-curvature="0" />
    <path
       d="m 4197,1063 c -11,-10 -8,-107 5,-163 10,-44 9,-53 -5,-67 -13,-13 -23,-15 -49,-7 -22,7 -42,7 -60,0 -39,-14 -59,6 -56,55 2,21 -1,39 -7,41 -5,2 -11,-18 -13,-44 -3,-39 -7,-47 -27,-52 -13,-3 -35,-2 -50,4 -18,7 -33,7 -47,-1 -15,-8 -27,-8 -44,0 -22,9 -24,15 -18,51 5,33 4,40 -10,40 -13,0 -16,-9 -14,-41 3,-48 -19,-72 -49,-53 -15,10 -17,24 -14,93 l 3,81 -26,0 c -34,0 -42,-33 -25,-100 11,-44 11,-52 -3,-66 -13,-13 -22,-15 -47,-6 -21,8 -38,7 -60,-1 -41,-15 -63,4 -59,51 2,23 -2,37 -11,40 -11,4 -13,-4 -8,-37 5,-39 3,-43 -21,-52 -18,-7 -34,-7 -49,0 -15,7 -32,7 -52,0 -21,-7 -36,-7 -50,1 -18,9 -20,17 -15,52 6,32 4,40 -7,36 -9,-3 -13,-16 -11,-37 4,-36 -12,-61 -38,-61 -36,0 -42,23 -29,108 14,89 7,132 -19,132 -41,0 -53,-51 -31,-135 22,-84 22,-83 -1,-95 -15,-8 -30,-9 -51,-1 -21,7 -37,7 -54,-1 -19,-8 -29,-8 -47,4 -21,14 -26,14 -46,0 -18,-12 -28,-12 -47,-4 -18,8 -33,8 -55,0 -23,-8 -38,-7 -57,1 -22,10 -24,16 -19,45 4,20 2,37 -4,41 -6,4 -10,-8 -10,-32 0,-42 -14,-63 -41,-63 -33,0 -42,25 -29,80 14,59 7,103 -17,98 -32,-6 -38,-34 -21,-88 9,-29 14,-58 12,-65 -8,-19 -51,-27 -75,-14 -16,8 -27,8 -45,-1 -18,-10 -29,-10 -52,-1 -22,9 -35,9 -54,1 -19,-9 -31,-9 -47,-1 -17,9 -30,9 -55,0 -29,-11 -38,-10 -60,4 -15,10 -27,13 -31,7 -3,-6 -19,-10 -34,-10 -36,0 -40,14 -29,113 9,89 0,120 -35,115 -22,-3 -22,-5 -19,-168 1,-90 6,-168 10,-172 5,-5 680,-8 1502,-8 1101,0 1496,-3 1506,-11 11,-9 21,-8 43,1 22,9 34,9 50,0 15,-8 27,-8 41,0 14,8 211,10 635,9 337,0 619,3 626,7 7,4 422,9 923,10 956,3 938,2 915,46 -10,18 -20,22 -51,19 -27,-3 -30,14 -29,139 2,111 1,119 -18,125 -12,3 -25,3 -31,0 -6,-4 -10,-59 -10,-135 0,-136 -6,-155 -41,-124 -14,12 -18,28 -17,58 2,31 -1,41 -12,41 -11,0 -14,-10 -12,-41 2,-45 -14,-68 -45,-62 -14,2 -19,16 -23,58 -4,40 -9,55 -20,55 -11,0 -15,-12 -15,-48 0,-36 -5,-52 -19,-63 -17,-12 -22,-12 -37,2 -14,13 -17,26 -12,60 5,35 2,45 -11,50 -25,10 -31,-2 -31,-59 0,-42 -3,-52 -18,-55 -31,-6 -49,18 -42,57 6,40 -8,72 -24,56 -5,-6 -11,-32 -13,-59 -2,-33 -9,-52 -20,-60 -32,-20 -43,7 -43,111 0,80 -3,97 -17,107 -33,20 -42,-6 -39,-113 2,-106 -6,-126 -40,-95 -14,12 -18,28 -17,58 2,31 -1,41 -12,41 -11,0 -15,-12 -15,-44 0,-47 -19,-69 -49,-58 -12,5 -16,19 -16,56 0,52 -7,65 -29,52 -8,-5 -11,-24 -9,-51 2,-33 -1,-45 -17,-55 -17,-12 -23,-11 -42,4 -20,17 -21,22 -10,50 10,26 9,34 -6,48 -16,16 -19,16 -27,3 -6,-8 -8,-31 -5,-50 4,-23 1,-42 -9,-55 -14,-19 -15,-19 -35,-1 -16,14 -20,29 -19,60 2,31 -1,41 -14,44 -14,3 -17,-6 -20,-49 -2,-36 -8,-55 -20,-63 -35,-21 -43,6 -43,147 l 0,132 -26,3 c -35,4 -38,-12 -29,-145 8,-102 2,-143 -19,-143 -19,0 -36,36 -36,74 0,30 -4,41 -15,41 -11,0 -15,-11 -15,-42 0,-46 -23,-80 -49,-70 -12,5 -16,20 -16,61 0,58 -11,76 -35,56 -10,-9 -13,-24 -8,-55 4,-36 2,-45 -14,-53 -14,-8 -24,-6 -41,7 -21,15 -22,20 -11,43 15,34 6,58 -22,58 -19,0 -21,-4 -15,-44 5,-33 3,-48 -9,-60 -9,-9 -20,-16 -24,-16 -19,0 -33,32 -28,62 5,36 -8,72 -24,63 -5,-4 -9,-28 -9,-54 0,-56 -20,-82 -48,-64 -14,8 -17,28 -17,104 0,89 -1,94 -22,97 -34,5 -44,-25 -34,-104 12,-94 -6,-127 -44,-84 -14,16 -15,25 -7,49 8,23 7,32 -3,41 -25,20 -37,1 -30,-46 5,-39 4,-44 -21,-60 -25,-17 -27,-17 -41,2 -10,13 -13,32 -9,61 6,47 -7,65 -24,33 -6,-11 -8,-20 -4,-20 3,0 0,-7 -7,-16 -10,-12 -24,-15 -52,-11 -22,3 -50,1 -62,-5 -16,-7 -29,-7 -44,2 -19,10 -22,17 -16,51 6,33 4,39 -10,39 -15,0 -17,-6 -11,-40 6,-36 4,-41 -19,-52 -20,-9 -31,-8 -50,2 -20,11 -30,11 -48,1 -16,-9 -30,-9 -49,-2 -24,9 -26,14 -21,50 4,27 2,41 -6,41 -6,0 -11,-18 -11,-45 0,-39 -3,-45 -24,-51 -13,-3 -33,-1 -44,5 -14,7 -29,8 -50,0 -22,-8 -37,-7 -52,1 -17,9 -29,9 -50,0 -20,-8 -34,-9 -48,-1 -14,7 -28,7 -50,-1 -49,-19 -65,1 -56,71 13,96 4,122 -35,102 -26,-14 -28,-56 -6,-108 15,-34 14,-38 -4,-56 -16,-17 -24,-18 -51,-8 -23,7 -38,8 -52,0 -14,-8 -28,-7 -47,1 -21,8 -34,8 -54,-1 -20,-9 -33,-9 -55,0 -24,10 -34,10 -50,0 -16,-10 -26,-10 -45,-2 -19,9 -33,9 -56,0 -25,-9 -34,-9 -46,4 -12,12 -13,27 -5,89 13,100 12,113 -3,134 -11,15 -17,17 -35,7 -18,-10 -22,-21 -22,-61 0,-26 5,-71 12,-100 10,-44 9,-53 -5,-68 -14,-14 -22,-15 -48,-5 -23,9 -37,9 -51,2 -14,-8 -28,-7 -47,1 -21,8 -34,8 -54,-1 -22,-10 -32,-10 -52,1 -21,11 -29,11 -50,0 -19,-10 -31,-11 -49,-2 -18,8 -32,8 -54,0 -51,-20 -61,-2 -54,97 l 5,85 -26,0 c -35,0 -44,-35 -27,-106 12,-49 12,-57 -3,-72 -14,-14 -22,-14 -47,-5 -22,8 -38,8 -59,0 -41,-15 -63,4 -59,51 2,23 -2,37 -11,40 -10,3 -12,-4 -6,-37 6,-38 5,-42 -21,-51 -20,-8 -35,-8 -55,0 -20,9 -33,9 -47,1 -14,-7 -29,-8 -46,-2 -16,7 -35,6 -55,-2 -51,-19 -60,0 -52,108 9,114 5,135 -23,135 -13,0 -26,-3 -29,-7 z"
       id="path3051"
       inkscape:connector-curvature="0" />
    <path
       d="m 6230,1041 c -12,-23 2,-137 20,-155 21,-21 35,14 35,92 0,72 -2,77 -22,80 -14,2 -26,-4 -33,-17 z"
       id="path3053"
       inkscape:connector-curvature="0" />
    <path
       d="m 2386,911 c -8,-12 3,-41 15,-41 12,0 12,37 0,45 -5,3 -12,1 -15,-4 z"
       id="path3055"
       inkscape:connector-curvature="0" />
    <path
       d="m 2486,911 c -4,-6 -3,-18 2,-27 8,-15 10,-14 16,2 8,20 -8,42 -18,25 z"
       id="path3057"
       inkscape:connector-curvature="0" />
    <path
       d="m 2585,910 c -4,-6 -3,-16 3,-22 6,-6 12,-6 17,2 4,6 3,16 -3,22 -6,6 -12,6 -17,-2 z"
       id="path3059"
       inkscape:connector-curvature="0" />
    <path
       d="m 2897,914 c -8,-8 3,-34 14,-34 5,0 9,9 9,20 0,19 -11,26 -23,14 z"
       id="path3061"
       inkscape:connector-curvature="0" />
    <path
       d="m 2995,911 c -3,-6 -3,-21 1,-33 l 7,-23 9,24 c 9,26 -4,52 -17,32 z"
       id="path3063"
       inkscape:connector-curvature="0" />
    <path
       d="m 3090,894 c 0,-14 4,-23 10,-19 6,3 10,15 10,26 0,10 -4,19 -10,19 -5,0 -10,-12 -10,-26 z"
       id="path3065"
       inkscape:connector-curvature="0" />
    <path
       d="m 3900,905 c 0,-9 5,-15 11,-13 6,2 11,8 11,13 0,5 -5,11 -11,13 -6,2 -11,-4 -11,-13 z"
       id="path3067"
       inkscape:connector-curvature="0" />
    <path
       d="m 4320,895 c 0,-15 4,-24 10,-20 6,3 10,12 10,20 0,8 -4,17 -10,20 -6,4 -10,-5 -10,-20 z"
       id="path3069"
       inkscape:connector-curvature="0" />
    <path
       d="m 4410,900 c 0,-13 5,-20 13,-17 6,2 12,10 12,17 0,7 -6,15 -12,18 -8,2 -13,-5 -13,-18 z"
       id="path3071"
       inkscape:connector-curvature="0" />
    <path
       d="m 4830,895 c 1,-26 2,-28 11,-12 8,14 8,22 0,30 -8,8 -11,3 -11,-18 z"
       id="path3073"
       inkscape:connector-curvature="0" />
    <path
       d="m 4920,900 c 0,-23 25,-27 33,-6 7,16 -1,26 -20,26 -7,0 -13,-9 -13,-20 z"
       id="path3075"
       inkscape:connector-curvature="0" />
    <path
       d="m 5030,911 c 0,-5 3,-17 6,-26 5,-13 8,-14 15,-3 13,20 11,38 -6,38 -8,0 -15,-4 -15,-9 z"
       id="path3077"
       inkscape:connector-curvature="0" />
    <path
       d="m 5130,901 c 0,-12 5,-21 10,-21 6,0 10,6 10,14 0,8 -4,18 -10,21 -5,3 -10,-3 -10,-14 z"
       id="path3079"
       inkscape:connector-curvature="0" />
    <path
       d="m 5338,914 c -3,-3 -3,-14 -1,-25 5,-16 8,-18 14,-7 16,25 6,51 -13,32 z"
       id="path3081"
       inkscape:connector-curvature="0" />
    <path
       d="m 5430,901 c 0,-28 17,-35 29,-13 11,21 6,32 -16,32 -7,0 -13,-9 -13,-19 z"
       id="path3083"
       inkscape:connector-curvature="0" />
    <path
       d="m 5540,908 c 0,-7 4,-19 9,-26 7,-11 10,-10 15,3 3,9 4,21 0,26 -8,13 -24,11 -24,-3 z"
       id="path3085"
       inkscape:connector-curvature="0" />
    <path
       d="m 5640,894 c 0,-14 4,-23 10,-19 6,3 10,15 10,26 0,10 -4,19 -10,19 -5,0 -10,-12 -10,-26 z"
       id="path3087"
       inkscape:connector-curvature="0" />
    <path
       d="m 5846,911 c -4,-6 -3,-18 2,-27 8,-15 10,-14 16,2 8,20 -8,42 -18,25 z"
       id="path3089"
       inkscape:connector-curvature="0" />
    <path
       d="m 5940,894 c 0,-31 23,-28 28,4 2,15 -2,22 -12,22 -11,0 -16,-9 -16,-26 z"
       id="path3091"
       inkscape:connector-curvature="0" />
    <path
       d="m 6054,909 c -3,-6 -1,-16 5,-22 8,-8 11,-5 11,11 0,24 -5,28 -16,11 z"
       id="path3093"
       inkscape:connector-curvature="0" />
    <path
       d="m 6450,906 c 0,-8 4,-17 9,-20 11,-7 33,18 24,27 -12,12 -33,7 -33,-7 z"
       id="path3095"
       inkscape:connector-curvature="0" />
    <path
       d="m 2281,883 c 0,-25 1,-26 9,-8 12,27 12,35 0,35 -5,0 -10,-12 -9,-27 z"
       id="path3097"
       inkscape:connector-curvature="0" />
    <path
       d="m 8242,648 c -7,-7 -12,-20 -12,-29 0,-9 -7,-22 -15,-29 -9,-7 -13,-21 -10,-30 3,-10 -1,-25 -10,-33 -8,-9 -15,-27 -15,-41 0,-24 4,-26 40,-26 32,0 40,-4 40,-18 0,-10 5,-23 12,-30 16,-16 38,3 38,33 0,13 6,25 13,28 9,3 7,9 -5,24 -10,11 -18,32 -18,46 0,17 -5,27 -15,27 -10,0 -15,-10 -15,-29 0,-30 -13,-47 -29,-37 -11,7 3,76 17,85 5,3 12,15 16,27 8,27 -15,49 -32,32 z"
       id="path3099"
       inkscape:connector-curvature="0" />
    <path
       d="m 8336,634 c -21,-20 -20,-41 1,-52 14,-8 15,-21 10,-86 -5,-67 -3,-77 13,-86 30,-16 36,8 32,128 -3,101 -6,112 -22,112 -10,0 -26,-7 -34,-16 z"
       id="path3101"
       inkscape:connector-curvature="0" />
    <path
       d="m 2041,605 c -17,-19 -22,-32 -17,-51 8,-29 27,-28 41,4 10,23 31,35 46,26 14,-8 11,-35 -6,-54 -13,-15 -13,-20 1,-49 9,-17 13,-39 10,-47 -9,-23 -40,-12 -44,14 -3,17 -9,22 -25,20 -32,-5 -33,-36 0,-69 27,-27 73,-40 73,-19 0,5 9,18 20,28 18,17 20,25 11,61 -6,28 -5,51 2,70 9,25 7,33 -14,59 -30,38 -65,41 -98,7 z"
       id="path3103"
       inkscape:connector-curvature="0" />
    <path
       d="m 2184,622 c -9,-6 -11,-63 -5,-124 1,-5 12,-8 25,-8 13,0 27,-7 30,-16 11,-28 6,-54 -9,-54 -8,0 -15,5 -15,10 0,12 -27,13 -34,1 -8,-12 32,-61 49,-61 7,0 27,12 44,26 51,43 37,95 -37,133 -36,19 -26,56 16,58 41,2 49,8 32,28 -13,16 -76,20 -96,7 z"
       id="path3105"
       inkscape:connector-curvature="0" />
    <path
       d="m 3091,606 c -18,-19 -22,-32 -17,-51 8,-32 28,-28 36,6 3,13 12,24 20,24 12,0 15,-18 16,-83 2,-72 0,-83 -15,-80 -9,2 -17,13 -19,26 -2,14 -10,22 -23,22 -28,0 -25,-49 6,-79 28,-26 75,-23 75,4 0,10 10,15 30,15 20,0 30,-5 30,-15 0,-8 11,-17 24,-21 30,-7 76,36 76,71 0,34 -10,55 -26,55 -8,0 -14,7 -14,15 0,8 -8,15 -19,15 -29,0 -43,23 -27,45 16,22 46,14 46,-13 0,-26 11,-34 27,-21 20,18 16,41 -14,66 -32,28 -48,29 -70,3 -10,-11 -25,-20 -35,-20 -10,0 -27,9 -38,20 -26,26 -42,25 -69,-4 z m 107,-98 c -2,-13 -7,-23 -13,-23 -5,0 -11,10 -13,23 -2,15 2,22 13,22 11,0 15,-7 13,-22 z m 88,-42 c 7,-31 -1,-46 -27,-46 -22,0 -27,38 -7,58 18,18 27,15 34,-12 z"
       id="path3107"
       inkscape:connector-curvature="0" />
    <path
       d="m 4098,601 c -28,-25 -30,-31 -19,-45 20,-23 40,-20 51,10 6,14 14,22 20,19 13,-8 13,-48 -1,-62 -8,-8 -8,-17 0,-31 16,-30 14,-72 -3,-72 -8,0 -16,10 -18,23 -2,16 -10,22 -28,22 -38,0 -38,-36 0,-69 40,-33 53,-33 83,4 22,25 24,34 16,67 -4,21 -6,54 -3,73 4,27 0,42 -16,63 -27,34 -42,34 -82,-2 z"
       id="path3109"
       inkscape:connector-curvature="0" />
    <path
       d="m 4219,603 c -13,-35 3,-53 29,-30 35,32 64,13 38,-25 -9,-12 -16,-39 -16,-59 0,-21 -7,-42 -16,-49 -22,-19 -14,-65 11,-65 14,0 21,8 23,27 2,14 10,32 18,38 8,8 14,30 14,55 0,24 5,45 12,47 16,6 14,68 -3,79 -8,5 -33,9 -57,9 -37,0 -44,-3 -53,-27 z"
       id="path3111"
       inkscape:connector-curvature="0" />
    <path
       d="m 5166,606 c -23,-19 -27,-29 -22,-50 8,-33 24,-33 36,-2 11,30 23,38 44,30 20,-8 20,-28 1,-48 -17,-17 -20,-42 -5,-51 6,-3 10,-19 10,-36 0,-22 -5,-29 -19,-29 -13,0 -21,8 -23,23 -4,30 -42,30 -46,1 -6,-45 79,-98 94,-59 4,9 15,20 26,26 17,9 25,7 45,-15 29,-32 43,-33 70,-3 18,19 21,34 21,109 -1,78 -3,90 -24,109 -20,19 -27,21 -49,11 -14,-6 -25,-18 -25,-27 0,-8 -3,-15 -6,-15 -9,0 -48,23 -62,37 -19,18 -32,16 -66,-11 z m 192,-49 c 2,-19 -1,-27 -13,-27 -19,0 -30,24 -21,46 9,23 31,11 34,-19 z m -54,-53 c -14,-48 -13,-47 -35,-20 -21,26 -21,28 -3,46 17,16 20,16 31,3 6,-8 10,-21 7,-29 z m 54,-52 c 2,-23 -1,-32 -11,-32 -19,0 -27,22 -20,49 8,31 27,20 31,-17 z"
       id="path3113"
       inkscape:connector-curvature="0" />
    <path
       d="m 6096,606 c -23,-20 -27,-29 -22,-51 8,-30 26,-29 41,3 10,23 31,35 46,26 15,-9 10,-44 -6,-50 -19,-8 -19,-24 -1,-59 17,-32 11,-55 -14,-55 -12,0 -20,9 -22,23 -4,27 -41,31 -46,4 -4,-21 44,-77 66,-77 19,0 72,55 72,75 0,9 -7,29 -15,45 -13,25 -13,29 0,34 25,9 18,55 -12,81 -35,30 -50,30 -87,1 z"
       id="path3115"
       inkscape:connector-curvature="0" />
    <path
       d="m 6254,622 c -15,-10 -34,-47 -34,-67 0,-8 16,-31 35,-51 21,-21 35,-44 35,-59 0,-34 -26,-32 -34,2 -7,24 -9,25 -23,10 -14,-13 -14,-20 -3,-46 17,-43 46,-49 79,-17 25,24 27,31 26,107 -2,68 -5,86 -23,106 -21,24 -39,28 -58,15 z m 34,-65 c 2,-19 -1,-27 -12,-27 -11,0 -16,10 -16,31 0,38 24,35 28,-4 z"
       id="path3117"
       inkscape:connector-curvature="0" />
    <path
       d="m 7297,605 c -10,-14 -19,-46 -21,-72 -4,-46 -26,-75 -26,-34 0,11 -4,23 -10,26 -5,3 -10,17 -10,30 0,13 5,27 10,30 22,14 10,35 -20,35 -22,0 -30,-5 -30,-18 0,-10 -7,-28 -16,-40 -8,-12 -12,-26 -9,-32 3,-5 -1,-23 -10,-40 -20,-38 -6,-62 34,-58 22,3 27,-1 29,-24 5,-38 39,-39 44,-1 l 3,27 32,-32 c 17,-18 37,-32 43,-32 6,0 25,13 41,29 27,27 29,35 29,104 0,63 -3,78 -23,100 -29,34 -66,35 -90,2 z m 47,-21 c 13,-5 16,-22 16,-85 0,-78 0,-79 -25,-79 -24,0 -25,2 -25,69 0,61 6,101 15,101 2,0 10,-3 19,-6 z m -126,-95 c -2,-6 -8,-10 -13,-10 -5,0 -11,4 -13,10 -2,6 4,11 13,11 9,0 15,-5 13,-11 z"
       id="path3119"
       inkscape:connector-curvature="0" />
  </g>
</svg>
