<?xml version="1.0" encoding="UTF-8" standalone="no"?>
<svg
   xmlns:dc="http://purl.org/dc/elements/1.1/"
   xmlns:cc="http://creativecommons.org/ns#"
   xmlns:rdf="http://www.w3.org/1999/02/22-rdf-syntax-ns#"
   xmlns:svg="http://www.w3.org/2000/svg"
   xmlns="http://www.w3.org/2000/svg"
   xmlns:sodipodi="http://sodipodi.sourceforge.net/DTD/sodipodi-0.dtd"
   xmlns:inkscape="http://www.inkscape.org/namespaces/inkscape"
   version="1.0"
   width="500.41498"
   height="343.16898"
   viewBox="0 0 400.33198 274.53518"
   preserveAspectRatio="xMidYMid meet"
   id="svg2989"
   inkscape:version="0.48.4 r9939"
   sodipodi:docname="bf3fb0cd58a9b82c62c2c40c0a5707f3f0a0611f.svg">
  <defs
     id="defs3045" />
  <sodipodi:namedview
     pagecolor="#ffffff"
     bordercolor="#666666"
     borderopacity="1"
     objecttolerance="10"
     gridtolerance="10"
     guidetolerance="10"
     inkscape:pageopacity="0"
     inkscape:pageshadow="2"
     inkscape:window-width="1600"
     inkscape:window-height="824"
     id="namedview3043"
     showgrid="false"
     inkscape:zoom="0.42584294"
     inkscape:cx="1230.1066"
     inkscape:cy="155.21695"
     inkscape:window-x="0"
     inkscape:window-y="24"
     inkscape:window-maximized="1"
     inkscape:current-layer="svg2989"
     fit-margin-top="0"
     fit-margin-left="0"
     fit-margin-right="0"
     fit-margin-bottom="0" />
  <metadata
     id="metadata2991">
Created by potrace 1.10, written by Peter Selinger 2001-2011
<rdf:RDF>
  <cc:Work
     rdf:about="">
    <dc:format>image/svg+xml</dc:format>
    <dc:type
       rdf:resource="http://purl.org/dc/dcmitype/StillImage" />
  </cc:Work>
</rdf:RDF>
</metadata>
  <path
     style="fill:#999999;fill-opacity:1;stroke:none"
     d="m 157.70602,194.20754 c 0,8.01397 0,16.02794 0,24.0419 5.02201,1.49395 11.24239,-0.37352 16.7397,-0.15817 3.68874,-0.78429 8.45575,0.41682 11.62553,-1.52898 1.39322,-6.79356 -0.4435,-14.38718 2.18802,-20.79941 1.44079,-2.80857 -3.90396,-1.94861 -5.48324,-2.18802 -8.11829,-0.15975 -16.23892,-0.044 -24.35824,-0.0791 l -0.5965,0.5965 -0.11527,0.11527 z m 13.94536,5.77322 c 2.65717,-0.48889 4.36369,1.27699 3.69064,3.98062 0.20252,3.33739 1.0522,9.2651 -3.90154,8.91027 -1.74071,-0.29409 -3.38577,-2.58884 -2.84707,-3.9279 1.47894,1.61552 4.4041,1.20872 3.69065,-1.42353 0.6304,-2.57953 -0.70633,-4.86187 -3.26886,-4.69239 -1.74677,-1.90474 1.00562,-2.96522 2.63618,-2.84707 z"
     id="path9665"
     inkscape:connector-curvature="0" />
  <path
     style="fill:#999999;fill-opacity:1;stroke:none"
     d="m 188.07474,194.20754 c 0.41527,7.70136 -0.81279,16.08341 0.59649,23.37304 9.22251,0.26838 18.65164,0.0379 27.95327,0.11527 1.74469,-5.60595 -0.0403,-12.48883 1.239,-18.55866 0.16132,-1.78323 0.48912,-3.47782 2.42528,-3.05797 1.42842,-3.24836 -4.62878,-2.02664 -6.35318,-2.45164 -8.3806,-0.22993 -16.76633,-0.0936 -25.1491,-0.13181 l -0.59649,0.5965 -0.11527,0.11527 z"
     id="path9667"
     inkscape:connector-curvature="0" />
  <path
     style="fill:#999999;fill-opacity:1;stroke:none"
     d="m 227.56462,193.5485 c -2.56422,0.24535 -7.39138,-0.67242 -7.75036,2.71526 -1.87624,6.296 -0.0652,13.52711 -0.36476,20.10846 2.01471,3.02883 7.91135,0.65175 11.4367,1.66633 5.71717,0.0517 11.68937,1.18934 17.26693,0.94902 0.82446,-8.13815 0.18404,-16.54586 0.39543,-24.78003 -5.38842,-1.6966 -12.09474,-0.21152 -17.97871,-0.71177 -1.00174,0.0176 -2.00349,0.0351 -3.00523,0.0527 z"
     id="path9669"
     inkscape:connector-curvature="0" />
  <path
     style="fill:#999999;fill-opacity:1;stroke:none"
     d="m 157.70602,218.96121 c 0.40173,8.45389 -0.79911,17.57158 0.5965,25.61379 29.74926,0.26896 59.70543,0.0384 89.53427,0.11527 1.69244,-5.43409 0.21974,-12.17921 0.71177,-18.11052 0.19939,-3.94145 1.06433,-10.12093 -4.79784,-7.38128 -7.95682,1.01432 -16.5462,-0.37925 -24.12231,1.03329 -0.6271,6.49993 -0.30863,15.38575 -1.36948,20.79422 -1.53911,-6.98111 0.16535,-14.84735 -1.76624,-21.37936 -8.99041,0.52758 -18.36801,-1.0765 -27.15259,0.92266 -2.24691,3.65691 -0.72777,8.81356 -1.26536,12.99633 -0.0417,1.28964 0.0761,8.91507 -0.5536,5.77322 -1.13681,-6.14781 -0.23075,-12.83304 -1.71351,-18.76955 -7.87864,-2.1194 -16.48854,-0.23083 -24.55198,-1.92715 -1.20094,0.0887 -2.7526,-1.08972 -3.54963,0.31908 z"
     id="path9679"
     inkscape:connector-curvature="0" />
  <path
     style="fill:#999999;fill-opacity:1;stroke:none"
     d="m 172.24033,200.98713 c -0.93641,0.0496 -1.91903,0.39094 -2.5572,1.10815 -0.28082,0.30342 -0.50843,0.77706 -0.24172,1.15879 0.25315,0.3993 0.7907,0.35165 1.14457,0.61652 0.53754,0.30234 0.82739,0.87843 1.04388,1.42833 0.33587,0.51844 1.06603,0.40718 1.55881,0.16893 1.01321,-0.51538 1.42339,-1.80395 1.12309,-2.86133 -0.15106,-0.65133 -0.53031,-1.33626 -1.22445,-1.51571 -0.27368,-0.0838 -0.56166,-0.11126 -0.84698,-0.10368 z"
     id="path9681"
     inkscape:connector-curvature="0" />
  <path
     style="fill:#999999;fill-opacity:1;stroke:none"
     d="m 172.2415,206.77851 c -0.46036,0.0574 -0.73697,0.55722 -0.61631,0.98563 0.0479,0.3146 0.10908,0.67238 -0.0245,0.97513 -0.17458,0.32982 -0.56248,0.47565 -0.92038,0.42973 -0.39165,-0.005 -0.89813,-0.0208 -1.10804,0.38644 -0.24983,0.40698 0.007,0.84517 0.30533,1.14225 0.55254,0.5469 1.3592,0.72816 2.11104,0.80388 0.6662,0.0543 1.41681,-0.0853 1.85241,-0.64077 0.55864,-0.69608 0.54622,-1.66525 0.41592,-2.50366 -0.0954,-0.67312 -0.58185,-1.27557 -1.24659,-1.45397 -0.24829,-0.0733 -0.50684,-0.15589 -0.76892,-0.12466 z"
     id="path9683"
     inkscape:connector-curvature="0" />
  <path
     style="fill:#b3b3b3;fill-opacity:1;stroke:none"
     d="m 251.3429,29.288516 c 0,8.01397 0,16.02794 0,24.0419 5.18792,1.68402 11.68779,0.23619 17.37233,0.69759 4.15322,-0.48101 9.04618,0.72628 12.81186,-1.06665 -2.30959,-7.16232 -1.25758,-15.5837 -2.00349,-23.19833 -5.81077,-1.70301 -12.871,-0.48339 -19.16419,-1.03885 -2.82783,0.39545 -6.72147,-1.03547 -9.01651,0.56434 z"
     id="path9657"
     inkscape:connector-curvature="0" />
  <path
     style="fill:#b3b3b3;fill-opacity:1;stroke:none"
     d="m 251.3429,3.5067355 c 0,8.0579105 0,16.1158105 0,24.1737205 5.21382,1.59283 11.70044,-0.0573 17.39717,0.26581 3.36635,-0.74204 8.25068,1.01341 10.73081,-1.26756 0.36345,-7.55139 0.469,-15.11455 0.71176,-22.6710905 -5.29714,-1.80173 -11.96532,-0.45277 -17.79367,-1.03378 -3.50473,0.46121 -8.06911,-1.16333 -11.04607,0.5329 z m 13.15451,4.61331 c 4.35409,-0.22491 4.27506,5.3781705 2.08258,7.8294305 -1.89629,2.11417 1.04704,3.0737 0.73813,4.95601 -1.26011,0.77477 -5.09205,1.09427 -5.77323,-0.60632 0.40754,-3.33936 6.20439,-5.90451 4.1388,-9.35842 -1.36404,-1.5256205 -3.18333,0.63123 -3.84882,0.81722 -1.832,-1.69864 1.07839,-3.6177005 2.66254,-3.6379205 z"
     id="path9659"
     inkscape:connector-curvature="0" />
  <path
     style="fill:#b3b3b3;fill-opacity:1;stroke:none"
     d="m 280.86805,3.5594655 c -0.0391,7.9033305 0.68724,15.7858205 1.10719,23.6728405 5.59599,1.4725 12.23779,0.45487 18.24232,1.31808 3.04943,-0.41311 7.60698,2.0958 9.75384,-0.0264 -0.10873,-8.44711 0.89143,-17.52548 -0.43833,-25.5610605 -9.2225,-0.26838 -18.65163,-0.0379 -27.95326,-0.11527 l -0.59649,0.5965 -0.11527,0.11527 z"
     id="path9661"
     inkscape:connector-curvature="0" />
  <path
     style="fill:#b3b3b3;fill-opacity:1;stroke:none"
     d="m 296.39511,29.156706 c -4.62979,0.56685 -10.15757,-0.5632 -14.31442,1.39718 -1.38188,7.45934 -0.92849,15.18553 -1.42354,22.75017 5.02527,1.75816 11.45102,0.22033 17.00332,0.73813 4.02896,-0.19472 11.79466,1.46552 12.28457,-4.50786 0.0527,-6.75602 0.84324,-14.20272 -0.42271,-20.54138 -4.2716,-0.20508 -8.77012,0.15201 -13.12722,0.16376 z"
     id="path9663"
     inkscape:connector-curvature="0" />
  <path
     style="fill:#b3b3b3;fill-opacity:1;stroke:none"
     d="m 265.75979,16.431676 c -0.32425,0.083 -0.52708,0.37127 -0.76143,0.58782 -0.40222,0.41601 -0.80694,0.9183 -0.81894,1.52439 -0.0205,0.50397 0.34407,0.95873 0.7998,1.13999 0.52809,0.22516 1.11598,0.24268 1.68172,0.23024 0.30917,0.0181 0.64348,-0.12913 0.76603,-0.42851 0.13641,-0.27016 0.0491,-0.59216 -0.12789,-0.82217 -0.22116,-0.36128 -0.50058,-0.7003 -0.62007,-1.11216 -0.052,-0.26104 0.0181,-0.5504 -0.14161,-0.78429 -0.14908,-0.26494 -0.4832,-0.40196 -0.77761,-0.33531 z"
     id="path9685"
     inkscape:connector-curvature="0" />
  <path
     style="fill:#b3b3b3;fill-opacity:1;stroke:none"
     d="m 32.901849,30.692126 c 0.394143,7.9913 -0.790627,16.63661 0.596498,24.21661 9.503458,0.26896 19.213804,0.0384 28.796836,0.11527 1.684594,-5.17872 0.1868,-11.6251 1.080832,-17.2933 0.407371,-3.97111 2.793945,-9.7327 -3.848812,-7.75035 -8.637864,0 -17.275724,0 -25.913587,0 l -0.596498,0.5965 -0.115269,0.11527 z"
     id="path9617"
     inkscape:connector-curvature="0" />
  <path
     style="fill:#b3b3b3;fill-opacity:1;stroke:none"
     d="m 95.07053,57.653746 c 1.4544,7.72202 0.93199,15.62501 1.05447,23.43558 5.88939,1.91464 13.0837,0.90869 19.48058,1.46795 3.61411,-0.58766 11.55935,2.59398 9.78095,-3.91959 -0.41455,-7.13927 0.81679,-14.9603 -0.5965,-21.68589 -9.57411,-0.2681 -19.35477,-0.0375 -29.00773,-0.11527 l -0.55404,0.63613 -0.15773,0.18109 z m 17.00332,5.95775 c 1.53196,3.18672 1.0802,8.19393 0.42179,11.75734 -1.78117,-2.36282 1.16784,-8.75636 -3.00524,-9.41114 0.55227,-0.97965 1.52668,-1.9305 2.58345,-2.3462 z"
     id="path9637"
     inkscape:connector-curvature="0" />
  <path
     style="fill:#b3b3b3;fill-opacity:1;stroke:none"
     d="m 71.929502,29.322706 c -2.747425,0.10171 -5.547423,-0.17405 -8.264407,0.26362 -1.218083,0.62806 0.0886,2.01868 0.0066,3.01183 0.918165,7.23094 0.391504,14.61181 0.692561,21.86461 0.664526,1.05318 2.308157,0.29285 3.380328,0.52309 8.70157,0 17.403139,0 26.104709,0 1.333497,-0.48588 0.509665,-2.34389 0.787566,-3.43934 0.140811,-5.70211 0.294531,-11.40426 0.537111,-17.10304 0.76361,6.15437 0.54616,12.40226 0.17135,18.58502 -0.18977,1.3339 1.07951,2.19738 2.30006,2.02326 8.75123,0.11721 17.51317,0.20497 26.26097,-0.027 1.63575,0.31483 1.80099,-1.28153 1.6205,-2.49051 -0.003,-7.4574 0.18255,-14.9536 0.1186,-22.38706 -0.64604,-1.06379 -2.30301,-0.33653 -3.37112,-0.58642 -16.77913,-0.2845 -33.563768,-0.22465 -50.34482,-0.23806 z"
     id="path9619"
     inkscape:connector-curvature="0" />
  <path
     style="fill:#b3b3b3;fill-opacity:1;stroke:none"
     d="m 126.04355,29.658816 c -0.48877,1.4757 0.16318,3.13777 0.0318,4.69891 0.2081,6.68964 -0.0108,13.41999 0.18407,20.08617 0.67289,1.02301 2.3191,0.44001 3.39571,0.64934 8.44146,0.0567 16.88808,0.14045 25.32705,-0.0349 1.65203,0.15188 1.40368,-1.61809 1.38926,-2.72159 0.0819,-7.1388 0.31146,-14.28416 0.29789,-21.41917 -0.52098,-1.57468 -2.60361,-0.97341 -3.85526,-1.16432 -8.75496,-0.20966 -17.51302,-0.20218 -26.26961,-0.29216 -0.16696,0.0659 -0.33392,0.1318 -0.50088,0.19771 z"
     id="path9621"
     inkscape:connector-curvature="0" />
  <path
     style="fill:#b3b3b3;fill-opacity:1;stroke:none"
     d="m 181.72156,29.868476 c -7.99152,0.33076 -16.29123,-0.45131 -24.12099,0.86994 -1.01746,7.68797 0.34279,15.71739 0.36906,23.51467 5.32748,1.55386 11.86481,0.0299 17.66185,0.38919 3.79592,-0.99433 12.56831,2.5879 10.98869,-4.23719 0.43525,-5.429 -0.375,-12.5609 1.00642,-17.18867 1.30398,7.10811 -0.65024,15.01774 1.15991,21.66935 9.27934,0 18.55867,0 27.838,0 1.69743,-5.25627 0.21094,-11.83136 0.71176,-17.58328 1.87813,-6.75671 -2.15977,-8.81461 -8.30394,-7.46037 -9.10358,0.01 -18.20727,-0.024 -27.31076,0.0264 z"
     id="path9623"
     inkscape:connector-curvature="0" />
  <path
     style="fill:#b3b3b3;fill-opacity:1;stroke:none"
     d="m 187.5475,29.789386 c -9.75231,0.33791 -19.79887,-0.39867 -29.39333,0.8963 -2.72024,5.58107 -0.72522,12.59381 -0.66289,18.63439 -0.30354,3.2 1.38248,6.79865 5.1971,5.82931 7.67077,-0.24889 15.63879,0.3981 23.14561,-0.97539 2.37918,-5.33118 0.50526,-11.78213 1.63443,-17.47783 1.04935,5.8322 -0.19367,12.29684 1.31808,17.82053 9.1345,0.90487 18.43403,0.27926 27.6271,0.36907 1.78565,-5.48163 0.8232,-12.26764 1.26537,-18.26869 0.18183,-2.73932 -0.13437,-7.02984 -3.98063,-6.51134 -8.70037,-0.58929 -17.43749,-0.26402 -26.15084,-0.31635 z"
     id="path9625"
     inkscape:connector-curvature="0" />
  <path
     style="fill:#b3b3b3;fill-opacity:1;stroke:none"
     d="m 32.856836,56.467466 c 0,8.69938 0,17.39875 0,26.09812 5.150857,1.45558 11.508425,-0.42039 17.126491,-0.21378 3.858684,-1.40126 12.373051,1.99653 12.97861,-3.02871 -0.397931,-7.37463 0.795038,-15.40823 -0.596496,-22.3713 -9.491356,-0.20552 -19.199425,-0.0116 -28.717752,-1.19609 l -0.627026,0.56432 -0.163827,0.14744 z"
     id="path9627"
     inkscape:connector-curvature="0" />
  <path
     style="fill:#b3b3b3;fill-opacity:1;stroke:none"
     d="m 33.173177,82.301966 c -0.753273,8.17391 -0.09126,16.7087 -0.316341,25.017294 5.487187,1.69151 12.285028,0.21883 18.268683,0.71177 3.798707,-1.20759 12.940973,2.68529 12.993593,-2.48721 -1.481115,-6.776434 -0.430613,-14.150504 -1.737132,-20.658404 -9.548631,-2.21931 -19.878263,0.32173 -29.208803,-2.58345 z"
     id="path9629"
     inkscape:connector-curvature="0" />
  <path
     style="fill:#b3b3b3;fill-opacity:1;stroke:none"
     d="m 64.912707,84.542716 c 0.445015,7.65475 -1.075497,15.35911 -0.76449,22.934714 2.688756,2.46189 7.5854,0.58369 11.045395,1.2824 6.213721,-0.30534 13.074259,0.87441 18.865352,-0.48173 -0.125282,-7.93419 0.829156,-16.729424 -0.481229,-24.331884 -9.222501,-0.26838 -18.651635,-0.0379 -27.953263,-0.11527 l -0.596495,0.5965 -0.11527,0.11527 z"
     id="path9631"
     inkscape:connector-curvature="0" />
  <path
     style="fill:#b3b3b3;fill-opacity:1;stroke:none"
     d="m 64.912707,57.548296 c 0.394144,7.99131 -0.790628,16.63662 0.596499,24.21662 9.2225,0.26837 18.651631,0.0379 27.953259,0.11527 1.697425,-5.25627 0.210951,-11.83136 0.711769,-17.58328 1.878126,-6.75671 -2.159781,-8.81461 -8.303948,-7.46038 -6.861601,0.40607 -14.396687,-0.81382 -20.842309,0.5965 l -0.11527,0.11527 z"
     id="path9633"
     inkscape:connector-curvature="0" />
  <path
     style="fill:#b3b3b3;fill-opacity:1;stroke:none"
     d="m 96.125,84.542716 c 0.39414,7.9913 -0.79063,16.636614 0.5965,24.216624 9.2225,0.26837 18.65163,0.0379 27.95326,0.11526 1.63255,-5.17019 0.35745,-11.597164 0.51002,-17.265814 -0.38149,-3.38209 0.37671,-9.51419 -4.93879,-7.77784 -7.91897,0.39907 -16.49861,-0.79687 -24.00572,0.5965 l -0.11527,0.11527 z"
     id="path9635"
     inkscape:connector-curvature="0" />
  <path
     style="fill:#b3b3b3;fill-opacity:1;stroke:none"
     d="m 126.49372,57.548296 c 0.40155,8.00205 -0.80418,16.59588 0.60632,24.22644 9.2629,1.64145 18.69393,0.40725 27.99617,-0.15817 1.57215,-6.13074 0.19428,-13.4175 0.65904,-19.9822 2.08709,-7.36658 -6.61482,-4.15213 -10.83467,-4.79784 -5.98673,0.47395 -12.96492,-0.96193 -18.42686,0.71177 z"
     id="path9639"
     inkscape:connector-curvature="0" />
  <path
     style="fill:#b3b3b3;fill-opacity:1;stroke:none"
     d="m 157.70602,57.548296 c 0,8.15456 0,16.30913 0,24.46369 5.23197,1.64385 11.68716,0.29183 17.39874,0.36907 3.63338,-1.04407 10.2167,1.20114 11.86278,-2.31983 -0.40091,-7.61944 0.79819,-15.90162 -0.5965,-23.10943 -9.2225,-0.26837 -18.65163,-0.0379 -27.95325,-0.11527 l -0.5965,0.5965 -0.11527,0.11527 z"
     id="path9641"
     inkscape:connector-curvature="0" />
  <path
     style="fill:#b3b3b3;fill-opacity:1;stroke:none"
     d="m 206.34342,56.282936 c -5.97179,0.6802 -12.58233,-0.12514 -18.15341,1.15009 -0.26827,8.08021 -0.0378,16.367 -0.11527,24.52624 5.44345,1.7708 12.23506,0.45493 18.18873,1.06058 3.34378,-0.53678 7.66939,1.32449 10.5192,-0.29609 0.97908,-8.71192 0.38027,-17.52913 0.55359,-26.28265 -2.80814,-1.63795 -7.6558,0.18954 -10.99284,-0.15817 z"
     id="path9643"
     inkscape:connector-curvature="0" />
  <path
     style="fill:#b3b3b3;fill-opacity:1;stroke:none"
     d="m 213.88288,83.303716 c -8.18028,1.21692 -17.02487,-0.38999 -24.83276,1.15991 -0.65908,7.99079 -1.97129,16.632564 -0.81161,24.280094 9.35089,0.3051 18.94266,0.0433 28.38599,0.13088 1.69243,-5.43408 0.21974,-12.179204 0.71176,-18.110514 -0.72736,-2.80479 2.21586,-10.21396 -3.45338,-7.46037 z"
     id="path9645"
     inkscape:connector-curvature="0" />
  <path
     style="fill:#b3b3b3;fill-opacity:1;stroke:none"
     d="m 157.70602,84.542716 c 0.45829,7.51403 -0.70839,15.10335 -0.5536,22.539284 3.07272,2.98827 8.47283,0.93556 12.36365,1.68716 6.25509,-0.25742 12.90067,0.56919 18.92773,-0.94903 0.54372,-1.84327 -2.19241,-2.38626 -1.31054,-4.66299 -0.88834,-6.310884 1.25423,-13.900504 -2.51191,-19.326194 -8.73452,0 -17.46904,0 -26.20356,0 l -0.5965,0.5965 -0.11527,0.11527 z"
     id="path9647"
     inkscape:connector-curvature="0" />
  <path
     style="fill:#b3b3b3;fill-opacity:1;stroke:none"
     d="m 126.49372,84.542716 c 0.39414,7.9913 -0.79062,16.636614 0.5965,24.216624 8.31738,0.57396 17.18356,-0.63695 25.39617,0.87975 2.6196,2.57919 3.24789,-2.96128 3.08433,-4.66602 -0.0433,-6.930354 0.92426,-14.512664 -0.41197,-21.026854 -9.2225,-0.26838 -18.65163,-0.0379 -27.95326,-0.11527 l -0.5965,0.5965 -0.11527,0.11527 z"
     id="path9649"
     inkscape:connector-curvature="0" />
  <path
     style="fill:#b3b3b3;fill-opacity:1;stroke:none"
     d="m 64.912707,110.69356 c 0.381294,8.54117 -0.762841,17.68011 0.573131,25.84716 9.981508,0.87292 20.35252,0.72248 30.296462,-0.38172 0.46249,-2.19827 -1.195238,-5.21537 -0.9134,-7.90194 -0.882777,-5.98394 0.2404,-12.79984 -1.670049,-18.27527 -9.19146,0 -18.382919,0 -27.574379,0 l -0.596495,0.5965 -0.11527,0.11527 z"
     id="path9651"
     inkscape:connector-curvature="0" />
  <path
     style="fill:#b3b3b3;fill-opacity:1;stroke:none"
     d="m 111.23028,110.1136 c -4.68715,0.60312 -10.22178,-0.60316 -14.4726,1.21264 -0.98938,8.13421 -0.9365,16.38395 -1.37081,24.56914 5.43012,1.91117 12.24768,0.82709 18.21561,1.42144 3.71464,-0.95845 12.51712,3.08196 11.78405,-3.00314 0,-7.9261 0,-15.85219 0,-23.77829 -3.96402,-1.65257 -9.66873,-0.004 -14.15625,-0.42179 z"
     id="path9653"
     inkscape:connector-curvature="0" />
  <path
     style="fill:#b3b3b3;fill-opacity:1;stroke:none"
     d="m 144.86785,109.74454 c -5.99869,0.50013 -12.71683,-0.60972 -18.27386,0.92398 -0.23381,8.34574 -0.0334,16.86654 -0.10027,25.27959 5.48931,1.78082 12.32023,0.47962 18.32098,1.10768 2.93027,-0.77801 7.33678,1.81663 9.54338,-0.65953 0.95917,-8.54921 0.87273,-17.47366 -0.2109,-26.01904 -2.40224,-1.54476 -6.51437,-0.201 -9.27933,-0.63268 z"
     id="path9655"
     inkscape:connector-curvature="0" />
  <g
     transform="matrix(0.04490384,0,0,-0.04490384,-2.3181607,279.65422)"
     id="g2993"
     style="fill:#000000;stroke:none">
    <path
       d="m 55,6218 c -3,-7 -4,-1383 -3,-3058 l 3,-3045 3477,0 3477,-1 5,21 c 7,28 5,4276 -3,5278 l -6,808 -710,-1 c -390,-1 -714,0 -720,1 -5,1 -1249,4 -2763,6 -2206,2 -2754,1 -2757,-9 z m 5530,-621 0,-588 -315,-1 -315,0 -3,275 c -2,230 0,278 12,290 13,13 11,18 -13,41 -24,23 -32,25 -54,17 -39,-15 -1324,-12 -1335,3 -5,6 -5,53 0,106 5,52 7,171 6,263 l -3,168 314,0 c 214,0 317,-4 327,-11 9,-9 10,-18 3,-36 -13,-35 -12,-384 2,-423 12,-34 24,-40 33,-14 4,9 6,119 6,246 -1,126 0,231 2,233 8,7 631,5 639,-3 4,-4 4,-39 -1,-78 -18,-135 -6,-383 18,-407 27,-27 32,18 31,250 -1,128 1,236 4,238 3,3 126,5 273,5 148,-1 283,3 299,8 17,5 39,9 50,8 20,-2 20,-9 20,-590 z M 741,5922 c -1,-170 1,-242 9,-247 30,-18 35,17 37,253 1,203 3,237 17,242 8,3 158,3 332,0 l 316,-5 2,-240 c 1,-236 6,-279 30,-255 7,7 11,87 12,253 l 1,242 314,5 c 173,3 320,3 327,1 9,-2 12,-60 12,-245 0,-243 6,-291 30,-246 13,24 20,309 10,425 l -5,60 320,5 c 188,3 323,1 327,-4 3,-5 4,-86 1,-180 -3,-94 -1,-211 4,-259 6,-62 6,-91 -2,-97 -7,-6 -143,-8 -331,-5 -175,2 -326,4 -334,4 -26,-1 -674,-1 -695,0 -11,0 -166,-1 -345,-3 -180,-2 -336,1 -349,6 -52,19 -53,8 -52,-323 l 2,-304 -308,3 c -169,2 -312,7 -317,12 -9,9 -10,525 -1,541 4,5 122,9 283,9 274,0 327,6 283,29 -14,8 -107,12 -292,12 -211,0 -271,2 -275,13 -3,9 -9,336 -9,538 0,6 622,12 634,7 10,-5 13,-53 12,-247 z m 2698,245 84,-2 -2,-225 c 0,-124 3,-242 8,-262 6,-27 5,-40 -4,-48 -8,-7 -121,-9 -331,-8 l -319,3 2,267 c 1,147 4,271 6,275 5,7 322,7 556,0 z m 2849,-20 c 7,-8 8,-26 2,-52 -5,-22 -10,-140 -10,-262 l 0,-223 -269,0 c -264,0 -346,-8 -311,-30 8,-6 141,-10 298,-10 l 282,0 1,-227 c 1,-228 5,-275 24,-274 6,1 12,94 15,248 l 5,248 287,5 c 157,3 290,8 294,13 4,4 4,10 0,15 -4,4 -135,7 -292,7 -209,0 -285,3 -288,12 -4,9 -9,475 -7,531 1,9 71,12 316,12 l 315,0 0,-565 c 0,-440 -3,-565 -13,-565 -27,-1 -633,1 -952,3 l -340,2 2,25 c 1,14 2,267 3,563 l 0,537 314,0 c 243,0 316,-3 324,-13 z M 2835,5556 c 7,-3 8,-34 3,-97 -5,-52 -7,-173 -6,-269 l 3,-175 -316,-3 c -248,-2 -319,1 -327,11 -7,9 -8,36 0,92 18,142 -3,437 -30,411 -4,-4 -9,-121 -12,-259 l -5,-252 -324,0 -325,0 0,240 c -1,157 -5,246 -12,259 -23,38 -29,-11 -31,-252 0,-134 -3,-245 -5,-247 -2,-2 -150,-5 -328,-6 l -325,-2 -3,273 c -1,159 2,276 7,279 10,7 2019,3 2036,-3 z m 2053,4 c 8,0 6,-540 -2,-548 -9,-8 -620,-1 -630,8 -4,4 -8,111 -7,237 1,228 -4,272 -31,245 -10,-10 -13,-69 -13,-248 0,-227 -1,-235 -20,-240 -11,-2 -155,-3 -320,-2 l -300,3 -2,250 c -1,138 -3,259 -5,270 -3,20 4,20 647,25 358,3 656,4 663,3 8,-2 17,-3 20,-3 z m -1358,-20 c -3,-8 -6,-127 -7,-265 -1,-137 -2,-253 -3,-258 0,-4 -145,-6 -322,-5 l -323,3 3,210 c 1,116 -1,236 -6,268 -5,31 -6,59 -4,62 3,3 154,4 336,3 289,-3 330,-5 326,-18 z M 727,4380 c -2,-579 -2,-585 -22,-581 -11,2 -148,6 -305,8 -157,2 -289,8 -293,12 -11,11 -10,512 1,523 5,5 131,10 280,11 206,2 274,5 284,15 27,27 -19,32 -287,32 -148,0 -274,4 -280,8 -6,4 -10,109 -10,279 0,230 2,273 14,275 8,2 151,3 318,3 l 303,1 -3,-586 z m 723,581 c 3,-1 4,-126 3,-278 l -2,-278 -300,-5 c -165,-3 -303,-8 -307,-13 -4,-4 -2,-13 5,-20 9,-9 87,-13 298,-14 158,-1 290,-6 295,-11 5,-5 10,-110 11,-233 2,-221 7,-263 31,-239 7,7 11,84 12,241 1,126 4,232 6,235 7,7 626,6 638,-1 16,-10 13,-524 -2,-530 -7,-2 -154,-5 -326,-7 -270,-3 -313,-1 -317,12 -4,13 -51,15 -355,12 l -349,-3 0,568 -1,569 328,-2 c 180,-2 329,-3 332,-3 z m 696,-4 c 5,-3 7,-122 4,-279 l -5,-273 -324,0 -323,0 0,275 c 0,151 1,277 1,280 1,7 636,4 647,-3 z m 687,-273 c -1,-153 -2,-281 -2,-284 -2,-9 -625,1 -636,10 -8,7 -9,30 -2,82 9,72 2,402 -9,445 -4,15 -1,22 12,25 10,1 157,3 328,2 l 310,0 -1,-280 z m 688,0 0,-279 -317,-5 c -174,-3 -318,-2 -320,2 -4,6 -8,536 -5,558 1,3 145,5 322,4 l 321,0 -1,-280 z m 695,273 c 4,-4 2,-19 -5,-34 -9,-19 -12,-96 -10,-272 l 2,-246 -314,-5 c -173,-3 -316,-4 -318,-2 -5,3 -10,552 -5,562 3,8 643,5 650,-3 z m 674,-277 c -1,-157 -2,-294 -2,-305 0,-11 1,-141 2,-290 l 3,-270 -669,0 c -663,0 -669,0 -666,20 2,11 5,131 6,266 2,135 6,252 10,258 6,9 11,9 21,1 9,-8 103,-11 300,-9 192,1 290,-2 297,-9 7,-7 10,-80 9,-212 -2,-191 6,-270 29,-270 17,0 20,39 20,255 0,136 4,226 10,230 5,3 133,7 284,8 209,2 278,5 288,15 27,27 -19,32 -299,32 l -282,0 -3,278 c -2,152 0,279 4,282 3,3 149,5 323,5 l 317,0 -2,-285 z m 712,267 c 6,-12 6,-28 -2,-50 -6,-20 -10,-114 -10,-252 0,-121 1,-226 0,-232 0,-10 -63,-13 -277,-14 -153,0 -286,-4 -296,-8 -18,-7 -18,-8 -1,-21 14,-12 68,-15 287,-17 210,-1 272,-4 281,-15 8,-9 10,-92 8,-270 l -3,-258 -272,0 c -150,0 -286,-4 -303,-9 -67,-19 -63,-53 -63,587 l -1,577 321,0 c 297,-1 321,-2 331,-18 z m 687,-1 c 9,-11 9,-25 1,-55 -6,-24 -10,-128 -10,-253 0,-117 1,-219 0,-226 0,-10 -68,-12 -322,-10 l -323,3 3,180 c 2,99 -1,218 -7,264 -8,62 -8,88 0,98 17,20 641,19 658,-1 z m 684,-266 -2,-275 -318,-5 c -175,-3 -320,-4 -323,-2 -6,4 -17,531 -11,550 2,10 73,12 330,10 l 326,-3 -2,-275 z M 2834,4085 c 0,-147 -1,-270 -4,-273 -3,-4 -147,-5 -320,-2 l -315,5 0,263 c 0,145 4,266 8,269 4,2 137,4 295,4 169,-1 293,3 302,9 9,5 19,5 24,0 5,-5 9,-129 10,-275 z m 682,263 c 2,-3 5,-124 6,-271 3,-230 1,-268 -12,-272 -13,-4 -15,-46 -12,-315 l 3,-310 -313,2 -312,3 2,290 1,290 292,5 c 205,3 293,8 296,16 7,21 -46,25 -314,24 -145,-1 -267,0 -270,3 -4,4 -6,435 -3,532 0,9 626,12 636,3 z m 2762,-267 2,-271 -322,2 -322,3 1,261 c 0,144 2,265 6,270 3,5 142,8 319,7 l 313,-1 3,-271 z m 692,264 c 1,-18 1,-499 1,-517 -1,-16 -26,-18 -318,-20 -204,-2 -321,1 -325,7 -9,11 -11,506 -3,527 4,10 68,13 325,13 206,0 320,-4 320,-10 z M 742,3761 c 9,-14 17,-17 28,-11 9,5 160,10 336,11 l 319,1 2,-312 c 1,-285 3,-313 19,-331 12,-13 25,-18 39,-14 15,4 364,6 683,4 9,-1 163,0 340,1 178,1 327,-2 332,-6 4,-5 3,-45 -2,-89 -5,-44 -7,-160 -6,-258 l 3,-179 -317,0 c -175,1 -322,3 -326,6 -4,2 -4,47 1,98 16,168 -4,420 -31,393 -4,-4 -9,-117 -12,-252 l -5,-245 -317,1 c -175,0 -321,0 -325,1 -5,0 -8,108 -8,239 0,175 -3,243 -12,252 -27,27 -34,-41 -31,-268 3,-193 1,-223 -12,-223 -15,-1 -627,-1 -645,0 -6,0 -10,98 -10,272 0,171 4,276 10,280 6,4 135,8 287,8 267,0 308,3 308,20 0,24 -81,31 -325,29 -165,-1 -260,2 -267,9 -6,6 -10,95 -9,244 2,185 -1,237 -12,252 -32,44 -37,10 -37,-244 0,-159 -4,-251 -10,-255 -16,-10 -612,-7 -622,3 -7,7 -13,287 -13,564 0,1 135,5 300,8 165,3 308,7 317,8 10,1 23,-7 30,-17 z m 1396,4 c 9,-3 12,-65 12,-262 0,-254 7,-317 29,-260 15,39 24,315 14,420 -7,64 -6,91 3,98 7,6 133,8 324,7 l 312,-3 2,-292 3,-293 -322,0 c -236,0 -324,3 -333,12 -9,9 -15,9 -24,0 -9,-9 -97,-12 -335,-12 -301,0 -323,1 -323,18 -3,81 2,567 4,571 5,7 614,3 634,-4 z m 3437,0 c 19,-4 20,-11 18,-286 -2,-155 -5,-284 -7,-286 -2,-2 -147,-4 -322,-4 l -319,0 -5,250 c -3,137 -9,253 -13,258 -5,4 -15,-1 -23,-11 -16,-22 -18,-77 -14,-322 1,-109 -1,-164 -9,-168 -6,-4 -148,-8 -316,-9 -246,-2 -306,1 -310,11 -3,8 -5,116 -5,242 0,221 -3,260 -20,260 -23,0 -31,-80 -29,-280 1,-140 -2,-215 -9,-222 -7,-7 -94,-10 -262,-9 -243,2 -320,-5 -320,-30 0,-5 1,-10 3,-11 1,-1 134,-5 296,-8 l 295,-5 -3,-245 c -1,-152 1,-255 8,-272 6,-16 7,-30 1,-33 -5,-3 -152,-6 -326,-6 l -317,-1 -4,568 c -2,313 -1,579 2,592 5,20 10,23 31,18 13,-4 308,-6 655,-6 423,0 637,-4 651,-11 16,-8 24,-6 41,13 l 22,23 295,-3 c 162,-1 304,-4 315,-7 z m 707,-2 c 2,-5 1,-135 -2,-291 l -5,-283 -318,-2 c -174,-1 -317,1 -318,6 -1,9 -1,565 0,572 1,8 640,6 643,-2 z m 689,-278 c 0,-154 0,-284 -1,-290 0,-7 -105,-9 -301,-7 -211,2 -305,0 -314,-8 -29,-24 -35,25 -35,303 0,150 3,277 7,280 4,4 150,6 326,5 l 319,-3 -1,-280 z m -83,-348 84,-2 0,-278 1,-278 -324,0 -324,0 -3,263 c -1,145 0,272 2,283 5,19 12,20 243,17 131,-1 276,-3 321,-5 z M 742,2864 c 2,-152 -1,-278 -5,-281 -6,-4 -484,-6 -632,-3 -11,0 -10,533 0,551 4,5 134,9 320,9 l 314,0 3,-276 z m 4140,86 c -2,-102 1,-225 7,-275 5,-49 8,-91 6,-93 -5,-5 -636,-4 -641,1 -7,7 -5,538 2,549 3,4 146,7 317,6 l 312,-3 -3,-185 z m 710,-87 c 2,-153 2,-279 1,-281 -2,-5 -642,-4 -650,1 -4,3 -7,129 -5,281 l 3,276 324,0 324,0 3,-277 z m 690,0 c 2,-153 2,-279 1,-281 0,-2 -146,-4 -324,-4 l -322,0 1,276 c 0,152 1,278 1,281 1,3 145,5 321,5 l 319,0 3,-277 z m -2762,247 c 3,0 4,-120 3,-266 l -3,-266 -320,0 -321,0 -1,264 c 0,145 0,265 1,268 1,4 599,4 641,0 z M 743,2529 c 1,-2 1,-126 -1,-276 l -3,-272 -307,-3 c -169,-2 -313,0 -320,3 -11,5 -14,61 -15,277 -1,150 1,273 5,274 12,4 639,1 641,-3 z m 702,2 c 10,-1 12,-538 2,-547 -6,-6 -648,-6 -654,0 -3,2 -4,119 -4,259 2,189 -1,257 -10,263 -9,5 -8,10 3,18 10,8 116,10 334,9 175,-1 324,-2 329,-2 z m 702,-4 c 4,-3 7,-127 5,-275 -2,-202 -6,-271 -15,-274 -7,-1 -154,-2 -327,0 l -315,3 2,277 c 1,152 2,277 2,277 284,0 642,-4 648,-8 z m 686,-271 1,-277 -310,0 c -170,0 -314,1 -320,1 -8,0 -11,71 -10,233 1,127 -2,251 -7,274 -6,35 -4,42 10,45 9,2 156,3 326,2 l 310,0 0,-278 z m 688,43 c 0,-129 3,-251 8,-272 6,-25 5,-39 -2,-44 -15,-9 -647,-10 -647,0 -1,9 -1,546 0,550 0,1 145,2 321,1 l 322,-1 -2,-234 z m 696,228 c 2,-3 -1,-15 -7,-27 -17,-31 -10,-444 8,-462 27,-27 32,16 30,255 -2,130 -1,237 2,238 24,3 641,1 645,-2 2,-2 -1,-40 -7,-84 -11,-91 -3,-361 13,-402 10,-27 11,-28 25,-8 13,17 15,60 12,258 -2,130 -1,237 2,238 9,0 634,1 645,0 6,-1 10,-89 10,-243 0,-246 5,-292 28,-269 9,9 12,80 13,263 l 1,251 322,0 323,0 -1,-273 c 0,-150 -2,-275 -4,-277 -3,-3 -610,-5 -657,-2 -8,0 -476,0 -1039,0 -563,-1 -1025,0 -1026,1 -1,2 2,57 7,123 5,66 7,186 3,268 -3,81 -4,151 -1,155 5,8 644,7 653,-1 z m 2755,-268 c -1,-151 -1,-276 -2,-279 0,-3 -145,-4 -322,-3 l -323,2 -3,268 c -1,147 0,273 2,278 2,6 119,10 326,9 l 323,-1 -1,-274 z M 3497,1336 c 2,-588 2,-609 21,-622 17,-11 18,-19 11,-56 -5,-24 -8,-142 -8,-263 l 1,-220 -322,0 -321,0 -1,273 c 0,151 2,276 5,278 3,3 124,5 271,4 268,-1 320,3 313,24 -3,8 -92,13 -296,16 l -293,5 1,270 c 0,149 1,275 1,280 0,6 98,10 272,10 275,0 323,4 299,28 -9,9 -85,12 -292,12 -179,0 -279,4 -279,10 0,6 -1,132 -1,280 l -1,270 291,1 c 161,1 295,4 298,8 26,25 28,-25 30,-608 z m 2512,601 273,-2 -1,-275 c -1,-151 -4,-277 -7,-279 -3,-3 -107,-4 -233,-2 -248,3 -341,-4 -341,-24 0,-21 80,-27 334,-24 l 241,3 5,-275 c 3,-150 3,-277 0,-281 -3,-4 -144,-8 -315,-9 l -310,-2 -2,578 c -2,393 1,582 8,591 6,7 23,11 42,8 18,-3 155,-6 306,-7 z m -5273,-6 c 5,-3 7,-126 4,-280 l -5,-273 -309,0 c -170,1 -313,5 -317,9 -12,12 -16,542 -4,547 18,6 622,4 631,-3 z m 704,4 c 13,-4 15,-42 12,-277 -2,-150 -5,-274 -7,-276 -4,-5 -646,-4 -651,0 -9,9 -8,548 1,552 15,5 628,6 645,1 z m 705,-278 0,-279 -319,0 c -175,1 -320,3 -323,6 -4,4 -7,528 -4,550 1,2 146,3 324,2 l 322,-1 0,-278 z m 688,6 c -1,-150 -2,-276 -2,-280 -1,-9 -616,-7 -631,2 -6,4 -8,75 -4,198 3,106 2,226 -4,267 -6,47 -6,77 0,81 5,4 152,6 326,5 l 315,-1 0,-272 z m 4139,2 c -1,-148 -1,-274 -2,-280 0,-6 -113,-9 -323,-8 l -322,1 -3,268 c -1,148 -1,273 2,279 2,7 111,10 326,10 l 323,0 -1,-270 z m -2757,245 c 17,-1 332,0 700,1 l 670,2 2,-561 c 3,-551 2,-561 -17,-567 -11,-3 -24,-4 -29,0 -13,8 -1905,7 -1937,-1 -17,-5 -29,-2 -35,7 -8,13 -13,1112 -5,1120 4,3 557,2 651,-1 z M 736,1328 c 6,-7 5,-538 -1,-548 -6,-10 -600,-15 -627,-5 -10,4 -13,57 -11,271 1,150 6,271 12,278 7,8 96,10 316,9 169,-1 309,-3 311,-5 z m 710,-1 c 2,-2 5,-126 7,-275 2,-219 -1,-273 -11,-277 -18,-7 -626,-7 -644,0 -10,4 -13,57 -11,271 1,150 6,271 12,278 7,8 98,10 326,9 175,-1 319,-4 321,-6 z m 700,-12 c 2,-11 3,-137 2,-280 l -3,-260 -324,0 -324,0 1,272 c 0,150 2,276 5,280 3,4 147,8 321,8 309,0 317,-1 322,-20 z m 685,15 c 0,-3 1,-129 2,-280 l 1,-275 -313,-3 c -193,-1 -318,1 -325,7 -9,8 -10,32 -3,93 5,46 6,164 3,263 -4,110 -2,185 3,190 10,10 630,15 632,5 z m 4140,-7 c 0,-7 0,-133 1,-280 l 0,-268 -323,0 -324,0 -3,270 c -1,148 -1,274 2,280 6,16 646,14 647,-2 z m -979,-591 287,-3 3,-270 c 2,-149 0,-275 -3,-280 -3,-5 -138,-8 -323,-7 l -318,3 -2,240 c -1,236 -6,279 -30,255 -7,-7 -12,-87 -13,-246 -2,-130 -5,-240 -8,-245 -4,-5 -142,-9 -325,-9 l -319,0 -3,239 c -2,132 -7,243 -11,248 -33,32 -56,-172 -40,-361 6,-78 5,-110 -3,-117 -7,-5 -135,-8 -320,-7 l -309,3 -5,240 c -3,132 -7,241 -8,243 -1,1 -6,2 -12,2 -23,0 -32,-81 -28,-277 2,-157 0,-204 -10,-208 -19,-7 -611,-7 -622,0 -7,4 -8,58 -5,153 4,81 2,197 -3,257 -5,61 -6,113 -2,118 8,9 2020,10 2044,1 11,-4 25,3 42,21 18,20 29,25 42,18 9,-4 146,-9 304,-11 z m -3161,1 c 5,-48 2,-556 -3,-560 -15,-8 -622,-2 -633,7 -8,6 -8,35 -2,97 4,48 7,169 5,268 l -3,180 310,5 c 171,3 313,6 318,8 4,1 7,-1 8,-5 z m 4137,-8 c 3,-2 4,-127 4,-277 l -1,-273 -316,-5 c -193,-3 -320,-1 -326,4 -9,10 -13,523 -4,548 4,10 65,12 322,10 175,-2 319,-5 321,-7 z M 738,448 l 2,-278 -309,0 c -170,0 -315,2 -323,5 -10,4 -13,57 -11,267 1,144 5,268 7,275 5,11 65,13 318,11 l 313,-3 3,-277 z m 712,272 c 1,-5 1,-130 1,-277 l 0,-268 -313,-3 c -172,-1 -322,0 -333,2 -19,5 -20,13 -18,267 1,145 5,269 7,276 4,10 70,13 331,13 210,0 325,-4 325,-10 z m 695,-270 0,-275 -323,0 -324,0 0,270 c 0,149 1,273 1,278 1,4 146,6 324,5 l 322,-3 0,-275 z"
       id="path2995"
       inkscape:connector-curvature="0" />
    <path
       d="m 5006,5597 c -17,-13 -17,-14 -2,-20 9,-4 129,-7 267,-8 240,-1 289,4 265,28 -4,5 -121,9 -259,11 -202,2 -256,0 -271,-11 z"
       id="path2997"
       inkscape:connector-curvature="0" />
    <path
       d="m 5931,6053 c -46,-6 -73,-34 -69,-69 4,-35 29,-39 43,-6 7,16 18,22 42,22 30,0 33,-3 33,-29 0,-40 -27,-88 -77,-138 -24,-22 -43,-50 -43,-61 0,-18 8,-21 68,-24 83,-5 92,-2 92,28 0,21 -5,24 -35,24 -42,0 -46,17 -10,48 14,12 25,27 25,33 0,6 7,17 15,25 8,9 15,33 15,56 0,34 -6,46 -32,70 -17,15 -32,27 -32,26 -1,0 -16,-3 -35,-5 z"
       id="path2999"
       inkscape:connector-curvature="0" />
    <path
       d="m 2528,4813 c -9,-10 -24,-24 -32,-31 -26,-21 -20,-43 9,-36 l 24,6 3,-104 c 3,-95 4,-103 23,-103 19,0 20,7 20,140 0,116 -3,140 -15,143 -8,1 -23,-5 -32,-15 z"
       id="path3001"
       inkscape:connector-curvature="0" />
    <path
       d="m 4210,1835 c -7,-22 -11,-107 -9,-240 1,-113 0,-208 -3,-211 -3,-3 -131,-6 -284,-7 -182,-1 -285,-6 -298,-13 -18,-11 -18,-11 0,-20 11,-5 144,-10 298,-11 153,-1 281,-4 284,-7 3,-3 4,-95 3,-205 -2,-189 7,-281 28,-281 18,0 21,38 21,261 0,146 4,229 10,229 99,4 612,0 620,-5 7,-4 9,-54 5,-148 -8,-222 10,-365 42,-334 4,5 10,116 13,248 l 5,240 287,2 c 199,1 291,6 298,13 9,9 8,14 -2,20 -7,5 -141,10 -298,11 l -285,1 -5,240 c -3,132 -9,244 -13,249 -32,31 -54,-158 -42,-360 6,-81 4,-116 -4,-121 -6,-4 -150,-7 -319,-8 l -307,0 -5,243 c -3,134 -7,245 -8,247 -9,10 -22,-4 -32,-33 z"
       id="path3003"
       inkscape:connector-curvature="0" />
    <path
       d="m 3812,1765 c -15,-15 -22,-32 -20,-47 4,-29 38,-37 45,-10 6,24 62,39 75,20 19,-31 3,-68 -27,-65 -15,2 -21,-5 -23,-25 -3,-23 1,-27 25,-30 21,-2 29,-9 31,-28 4,-39 -11,-53 -47,-45 -21,4 -31,13 -31,25 0,19 -25,34 -41,24 -18,-11 -8,-46 20,-75 37,-37 79,-38 119,-4 l 30,25 -2,109 c -1,92 -4,112 -20,130 -27,30 -102,28 -134,-4 z"
       id="path3005"
       inkscape:connector-curvature="0" />
    <path
       d="m 7166.4961,1427.4696 c -19,-11 -24,-54 -8,-64 14,-9 13,-128 -1,-142 -19,-19 -2,-43 28,-43 47,0 58,13 43,49 -8,21 -11,55 -7,98 8,98 -9,129 -55,102 z"
       id="path3007"
       inkscape:connector-curvature="0" />
    <path
       d="m 7351.4961,1272.4696 c -10,-26 17,-35 94,-32 77,4 89,8 80,33 -9,23 -165,22 -174,-1 z"
       id="path3011"
       inkscape:connector-curvature="0" />
    <path
       d="m 7142.4961,1040.4696 c -16,-11 -32,-45.00004 -27,-59.00004 7,-18 33,-16 33,3 0,11 8,14 28,12 23,-3 27,-8 30,-39 3,-32 -2,-40 -43,-73 -33,-27 -45,-44 -43,-60 3,-18 10,-21 53,-22 80,-1 132,49 65,63 -33,6 -39,17 -15,27 8,3 15,13 15,23 0,10 7,27 15,37 21,27 19,39 -10,70.00004 -24,26 -75,35 -101,18 z"
       id="path3013"
       inkscape:connector-curvature="0" />
    <path
       d="m 7359.4961,919.46956 c -8,-5 -11,-16 -8,-25 5,-13 21,-16 76,-16 77,0 101,6 101,25 0,7 -7,16 -16,19 -24,9 -137,7 -153,-3 z"
       id="path3025"
       inkscape:connector-curvature="0" />
    <path
       d="m 7139.4961,667.46956 c -24,-26 -22,-45 5,-42 10,1 27,-3 38,-9 19,-10 18,-11 -9,-26 -28,-14 -28,-15 -9,-28 37,-26 44,-35 44,-59 0,-31 -38,-45 -56,-20 -16,21 -44,13 -44,-13 0,-47 61,-56 109,-16 47,39 53,56 36,97 -8,20 -12,49 -9,64 6,33 -15,57 -57,68 -20,5 -32,1 -48,-16 z"
       id="path3031"
       inkscape:connector-curvature="0" />
    <path
       d="m 7355.4961,552.46956 c -4,-4 -7,-18 -7,-31 0,-23 1,-24 88,-21 85,3 87,3 87,28 0,24 -2,25 -80,28 -45,1 -84,0 -88,-4 z"
       id="path3041"
       inkscape:connector-curvature="0" />
  </g>
  <text
     xml:space="preserve"
     style="font-size:14.82189083px;font-style:normal;font-variant:normal;font-weight:bold;font-stretch:normal;text-align:center;line-height:125%;letter-spacing:0px;word-spacing:0px;text-anchor:middle;fill:#000000;fill-opacity:1;stroke:none;font-family:Arial;-inkscape-font-specification:Arial Bold"
     x="355.3143"
     y="226.3399"
     id="text9687"
     sodipodi:linespacing="125%"><tspan
       sodipodi:role="line"
       x="355.3143"
       y="226.3399"
       id="tspan9691">Casa</tspan></text>
  <text
     xml:space="preserve"
     style="font-size:14.82189083px;font-style:normal;font-variant:normal;font-weight:bold;font-stretch:normal;text-align:center;line-height:125%;letter-spacing:0px;word-spacing:0px;text-anchor:middle;fill:#000000;fill-opacity:1;stroke:none;font-family:Arial;-inkscape-font-specification:Arial Bold"
     x="369.1539"
     y="244.60199"
     id="text9695"
     sodipodi:linespacing="125%"><tspan
       sodipodi:role="line"
       id="tspan9697"
       x="369.1539"
       y="244.60199">Garagem</tspan></text>
  <text
     xml:space="preserve"
     style="font-size:14.82189083px;font-style:normal;font-variant:normal;font-weight:bold;font-stretch:normal;text-align:center;line-height:125%;letter-spacing:0px;word-spacing:0px;text-anchor:middle;fill:#000000;fill-opacity:1;stroke:none;font-family:Arial;-inkscape-font-specification:Arial Bold"
     x="363.0282"
     y="261.56378"
     id="text9699"
     sodipodi:linespacing="125%"><tspan
       sodipodi:role="line"
       id="tspan9701"
       x="363.0282"
       y="261.56378">Piscina</tspan></text>
</svg>
