<?xml version="1.0" encoding="UTF-8" standalone="no"?>
<svg
   xmlns:dc="http://purl.org/dc/elements/1.1/"
   xmlns:cc="http://creativecommons.org/ns#"
   xmlns:rdf="http://www.w3.org/1999/02/22-rdf-syntax-ns#"
   xmlns:svg="http://www.w3.org/2000/svg"
   xmlns="http://www.w3.org/2000/svg"
   xmlns:sodipodi="http://sodipodi.sourceforge.net/DTD/sodipodi-0.dtd"
   xmlns:inkscape="http://www.inkscape.org/namespaces/inkscape"
   version="1.0"
   width="500.86798"
   height="367.05563"
   viewBox="0 0 400.69438 293.64451"
   preserveAspectRatio="xMidYMid meet"
   id="svg3249"
   inkscape:version="0.48.4 r9939"
   sodipodi:docname="bfd366b3c7bee5d2a554e6eaec5e1ddaa50f82e5.svg">
  <defs
     id="defs3263" />
  <sodipodi:namedview
     pagecolor="#ffffff"
     bordercolor="#666666"
     borderopacity="1"
     objecttolerance="10"
     gridtolerance="10"
     guidetolerance="10"
     inkscape:pageopacity="0"
     inkscape:pageshadow="2"
     inkscape:window-width="1600"
     inkscape:window-height="824"
     id="namedview3261"
     showgrid="false"
     inkscape:zoom="0.64493605"
     inkscape:cx="747.51427"
     inkscape:cy="108.14228"
     inkscape:window-x="0"
     inkscape:window-y="24"
     inkscape:window-maximized="1"
     inkscape:current-layer="svg3249"
     fit-margin-top="0"
     fit-margin-left="0"
     fit-margin-right="0"
     fit-margin-bottom="0" />
  <metadata
     id="metadata3251">
Created by potrace 1.10, written by Peter Selinger 2001-2011
<rdf:RDF>
  <cc:Work
     rdf:about="">
    <dc:format>image/svg+xml</dc:format>
    <dc:type
       rdf:resource="http://purl.org/dc/dcmitype/StillImage" />
  </cc:Work>
</rdf:RDF>
</metadata>
  <g
     transform="matrix(0.07432729,0,0,-0.07432729,-9.629424,298.82883)"
     id="g3253"
     style="fill:#000000;stroke:none">
    <path
       d="M 141,4007 C 124,3986 127,95 143,81 c 18,-15 5346,-15 5364,0 18,16 18,3912 0,3928 -21,17 -5352,14 -5366,-2 z m 471,-252 0,-217 -217,0 -217,0 1,212 c 0,116 3,214 5,218 2,4 99,6 216,6 l 212,-2 0,-217 z m 480,0 0,-217 -217,0 -217,0 1,216 c 0,119 0,217 1,219 0,1 97,1 216,0 l 216,-1 0,-217 z m 510,0 0,-217 -232,0 -232,0 1,216 c 0,119 0,217 1,219 0,1 104,1 231,0 l 231,-1 0,-217 z m 480,0 0,-217 -217,0 -217,0 1,216 c 0,119 0,217 1,219 0,1 97,1 216,0 l 216,-1 0,-217 z m 480,0 0,-217 -217,0 -217,0 1,216 c 0,119 0,217 1,219 0,1 97,1 216,0 l 216,-1 0,-217 z m 480,0 0,-217 -217,0 -217,0 1,216 c 0,119 0,217 1,219 0,1 97,1 216,0 l 216,-1 0,-217 z m 510,0 0,-217 -232,0 -232,0 1,216 c 0,119 0,217 1,219 0,1 104,1 231,0 l 231,-1 0,-217 z m 480,0 0,-217 -217,0 -217,0 1,216 c 0,119 0,217 1,219 0,1 97,1 216,0 l 216,-1 0,-217 z m 480,0 0,-217 -217,0 -217,0 1,216 c 0,119 0,217 1,219 0,1 97,1 216,0 l 216,-1 0,-217 z m 480,0 0,-217 -217,0 -217,0 1,216 c 0,119 0,217 1,219 0,1 97,1 216,0 l 216,-1 0,-217 z m 475,212 c 2,-2 4,-100 4,-216 l 1,-213 -217,0 -217,0 1,216 c 0,119 0,217 1,219 0,3 423,-2 427,-6 z m -4855,-707 0,-232 -217,0 -217,0 1,231 c 0,127 0,232 1,234 0,1 97,1 216,0 l 216,-1 0,-232 z m 480,0 0,-232 -217,0 -217,0 1,231 c 0,127 0,232 1,234 0,1 97,1 216,0 l 216,-1 0,-232 z m 510,0 0,-232 -232,0 -232,0 1,231 c 0,127 0,232 1,234 0,1 104,1 231,0 l 231,-1 0,-232 z m 480,0 0,-232 -217,0 -217,0 1,231 c 0,127 0,232 1,234 0,1 97,1 216,0 l 216,-1 0,-232 z m 480,0 0,-232 -217,0 -217,0 1,231 c 0,127 0,232 1,234 0,1 97,1 216,0 l 216,-1 0,-232 z m 480,0 0,-232 -217,0 -217,0 1,231 c 0,127 0,232 1,234 0,1 97,1 216,0 l 216,-1 0,-232 z m 510,0 0,-232 -232,0 -232,0 1,231 c 0,127 0,232 1,234 0,1 104,1 231,0 l 231,-1 0,-232 z m 480,0 0,-232 -217,0 -217,0 1,231 c 0,127 0,232 1,234 0,1 97,1 216,0 l 216,-1 0,-232 z m 480,0 0,-232 -217,0 -217,0 1,231 c 0,127 0,232 1,234 0,1 97,1 216,0 l 216,-1 0,-232 z m 480,0 0,-232 -217,0 -217,0 1,231 c 0,127 0,232 1,234 0,1 97,1 216,0 l 216,-1 0,-232 z m 480,0 0,-232 -217,0 -217,0 1,231 c 0,127 0,232 1,234 0,1 97,1 216,0 l 216,-1 0,-232 z m -4860,-495 0,-217 -217,0 -217,0 1,216 c 0,119 0,217 1,219 0,1 97,1 216,0 l 216,-1 0,-217 z m 480,0 0,-217 -217,0 -217,0 1,216 c 0,119 0,217 1,219 0,1 97,1 216,0 l 216,-1 0,-217 z m 510,0 0,-217 -232,0 -232,1 1,215 c 0,119 0,217 1,219 0,1 104,1 231,0 l 230,-1 1,-217 z m 481,-4 2,-221 -219,2 -218,3 0,220 c 1,121 1,220 2,220 0,0 97,-1 215,-2 l 216,-1 2,-221 z m 479,2 1,-218 -219,-3 -219,-2 2,222 c 2,123 3,223 3,223 0,0 97,-1 216,-2 l 215,-1 1,-219 z m 480,2 0,-216 -217,-1 -217,0 0,218 c 1,121 1,219 2,219 0,0 97,-1 216,-2 l 216,-1 0,-217 z m 510,0 0,-217 -232,0 -232,0 1,216 c 0,119 0,217 1,219 0,1 104,1 231,0 l 231,-1 0,-217 z m 480,0 0,-217 -217,0 -217,0 1,216 c 0,119 0,217 1,219 0,1 97,1 216,0 l 216,-1 0,-217 z m 480,0 0,-217 -217,0 -217,0 1,216 c 0,119 0,217 1,219 0,1 97,1 216,0 l 216,-1 0,-217 z m 480,0 0,-217 -217,0 -217,0 1,216 c 0,119 0,217 1,219 0,1 97,1 216,0 l 216,-1 0,-217 z m 480,0 0,-217 -217,0 -217,0 1,216 c 0,119 0,217 1,219 0,1 97,1 216,0 l 216,-1 0,-217 z m -4860,-480 0,-217 -217,0 -217,0 1,216 c 0,119 0,217 1,219 0,1 97,1 216,0 l 216,-1 0,-217 z m 480,0 0,-217 -217,0 -217,0 1,216 c 0,119 0,217 1,219 0,1 97,1 216,0 l 216,-1 0,-217 z m 516,-1 2,-219 -236,2 -236,2 1,216 c 0,118 0,216 1,218 0,1 105,1 233,1 l 232,-1 3,-219 z m 1434,1 0,-216 -221,-2 -221,-2 0,216 c 0,119 2,218 4,220 2,2 102,3 221,2 l 217,-2 0,-216 z m 510,0 0,-217 -232,0 -232,0 1,216 c 0,119 0,217 1,219 0,1 104,1 231,0 l 231,-1 0,-217 z m 480,0 0,-217 -217,0 -217,0 1,216 c 0,119 0,217 1,219 0,1 97,1 216,0 l 216,-1 0,-217 z m 480,0 0,-217 -217,0 -217,0 1,216 c 0,119 0,217 1,219 0,1 97,1 216,0 l 216,-1 0,-217 z m 480,0 0,-217 -217,0 -217,0 1,216 c 0,119 0,217 1,219 0,1 97,1 216,0 l 216,-1 0,-217 z m 480,0 0,-217 -217,0 -217,0 1,216 c 0,119 0,217 1,219 0,1 97,1 216,0 l 216,-1 0,-217 z m -3391,88 c 1,-71 2,-168 3,-218 l 1,-90 -215,4 c -118,2 -216,4 -217,5 -5,5 21,152 28,161 5,5 9,52 9,105 0,109 6,120 62,120 21,0 38,5 38,10 0,7 30,10 78,9 42,0 102,3 132,9 30,5 61,10 68,11 9,1 12,-31 13,-126 z m 162,112 c 31,-4 57,-11 57,-16 0,-12 87,-12 95,1 3,6 17,10 31,10 13,0 24,-4 24,-10 0,-5 10,-10 23,-10 40,0 47,-18 47,-122 0,-54 4,-98 9,-98 7,0 34,-161 28,-166 -8,-6 -427,-11 -431,-6 -2,4 -2,103 1,220 l 6,213 26,-5 c 14,-3 52,-8 84,-11 z m -1631,-695 0,-232 -217,0 -217,1 1,230 c 0,127 0,232 1,234 0,1 97,1 216,0 l 215,-1 1,-232 z m 481,-4 2,-236 -219,2 -219,3 1,235 c 1,129 2,235 2,235 0,0 97,-1 215,-2 l 216,-1 2,-236 z m 517,2 0,-238 -237,0 -238,0 2,237 c 2,131 3,238 3,238 0,0 106,0 235,0 l 235,0 0,-237 z m 475,2 0,-235 -214,2 c -117,1 -215,3 -216,5 -2,2 1,39 6,83 16,134 14,237 -7,347 l -5,27 133,4 c 73,2 171,3 218,2 l 85,0 0,-235 z m 384,231 93,-1 -6,-26 c -6,-23 -20,-213 -18,-254 0,-8 5,-51 10,-95 6,-44 10,-81 9,-81 -1,-1 -99,-3 -217,-5 l -215,-4 0,230 c -1,127 1,234 3,238 2,5 59,6 126,3 66,-3 163,-5 215,-5 z m 573,-231 0,-231 -221,-2 -221,-2 0,235 0,235 221,-2 221,-2 0,-231 z m 510,0 0,-232 -232,0 -232,1 1,230 c 0,127 0,232 1,234 0,1 104,1 231,0 l 230,-1 1,-232 z m 480,-2 0,-233 -217,0 -217,0 1,235 c 0,129 0,235 1,235 0,0 97,-1 216,-2 l 215,-1 1,-234 z m 480,2 0,-231 -217,-1 -217,0 1,233 c 0,129 0,234 1,234 0,0 97,-1 216,-2 l 216,-1 0,-232 z m 480,0 0,-232 -217,0 -217,0 1,231 c 0,127 0,232 1,234 0,1 97,1 216,0 l 216,-1 0,-232 z m 480,0 0,-232 -217,0 -217,0 1,231 c 0,127 0,232 1,234 0,1 97,1 216,0 l 216,-1 0,-232 z m -4854,-496 2,-219 -221,2 -221,2 1,216 c 0,118 0,216 1,218 0,1 98,2 218,1 l 217,-1 3,-219 z m 1467,1 0,-220 -220,0 -220,0 -1,215 c -1,118 0,218 3,223 2,4 102,6 221,5 l 217,-3 0,-220 z m 407,215 67,0 -6,-52 c -3,-29 -9,-57 -13,-63 -7,-10 3,-206 14,-277 l 6,-38 -160,-2 c -88,-1 -186,-2 -217,-3 l -58,0 -2,210 c -1,116 0,215 2,222 3,9 43,11 152,8 81,-3 178,-5 215,-5 z m 550,-215 0,-217 -221,-1 -221,-2 0,220 0,220 221,-2 220,-2 1,-216 z m 516,-4 2,-221 -236,2 -236,3 0,220 c 1,121 1,220 2,220 0,0 105,-1 233,-1 l 232,-2 3,-221 z m 954,4 0,-216 -219,-1 -218,-1 -3,209 c -1,115 -1,213 2,219 2,6 80,9 221,8 l 217,-2 0,-216 z m 480,0 0,-217 -217,0 -217,0 1,216 c 0,119 0,217 1,219 0,1 97,1 216,0 l 216,-1 0,-217 z m 480,0 0,-217 -217,0 -217,0 1,216 c 0,119 0,217 1,219 0,1 97,1 216,0 l 216,-1 0,-217 z m -4379,3 c 3,-117 3,-217 0,-221 -4,-7 -422,-2 -429,5 -1,2 2,35 8,73 5,39 9,96 8,128 0,33 4,57 10,57 6,0 10,23 10,54 0,31 5,58 13,63 14,12 96,24 192,30 39,2 90,7 115,12 25,5 50,9 56,10 8,1 13,-66 17,-211 z m 162,197 c 105,-8 198,-7 270,3 38,6 70,10 71,9 1,-1 3,-99 5,-217 l 4,-215 -232,-3 c -127,-1 -234,1 -237,6 -3,5 -2,104 1,221 l 6,212 26,-5 c 14,-3 53,-8 86,-11 z m 2768,-203 2,-210 -150,-7 c -82,-3 -177,-4 -210,-1 l -60,4 3,210 c 1,116 2,212 2,214 0,2 92,2 205,1 l 205,-2 3,-209 z M 618,816 l -3,-219 -218,1 -219,1 1,215 c 0,119 0,217 1,219 0,1 99,2 220,2 l 220,0 -2,-219 z m 474,4 c -2,-118 -4,-216 -6,-217 -1,-1 -27,2 -57,7 -29,6 -93,10 -141,10 -55,-1 -88,3 -88,9 0,6 -17,11 -39,11 -56,0 -69,25 -76,145 -5,90 -16,197 -22,222 -5,22 -5,22 158,26 90,2 189,3 219,2 l 55,0 -3,-215 z m 510,0 c -1,-117 -3,-215 -5,-216 -1,-2 -36,2 -77,7 -90,12 -203,12 -302,-1 -40,-5 -74,-8 -75,-6 -5,4 -14,416 -10,423 3,5 110,8 239,8 l 233,-1 -3,-214 z m 482,65 c -1,-82 -2,-181 -3,-218 l -1,-69 -31,7 c -48,11 -273,22 -284,15 -5,-4 -34,-10 -62,-13 l -53,-6 -1,72 c 0,40 -2,135 -4,212 -2,77 -1,143 1,147 3,5 103,7 222,6 l 217,-3 -1,-150 z m 408,146 68,-1 -6,-47 c -3,-27 -8,-55 -11,-63 -3,-8 -6,-55 -8,-105 -3,-95 -11,-142 -28,-162 -6,-8 -35,-13 -78,-13 -37,0 -70,-4 -74,-9 -3,-5 -29,-10 -58,-10 -28,0 -77,-4 -106,-10 -30,-6 -56,-9 -57,-8 -6,5 -13,425 -8,430 3,3 72,4 153,2 80,-2 176,-4 213,-4 z m 553,-216 0,-217 -220,0 -220,-1 -3,219 -2,219 222,-2 223,-1 0,-217 z m 901,219 80,-7 -3,-211 -3,-211 -210,-3 c -197,-3 -210,-2 -211,15 -5,51 -6,409 -2,416 5,9 237,9 349,1 z m 566,-219 0,-216 -219,-1 -218,0 -3,208 c -1,115 -1,213 2,219 2,6 80,9 221,8 l 217,-2 0,-216 z m 480,0 0,-217 -217,0 -217,0 1,216 c 0,119 0,217 1,219 0,1 97,1 216,0 l 216,-1 0,-217 z m 480,0 0,-217 -217,0 -217,0 1,216 c 0,119 0,217 1,219 0,1 97,1 216,0 l 216,-1 0,-217 z m -1922,0 0,-210 -226,2 -225,3 0,205 c 0,113 1,206 1,208 0,1 101,2 225,2 l 225,0 0,-210 z M 612,335 611,118 399,119 c -117,0 -214,2 -216,4 -2,3 -6,404 -4,427 1,3 98,4 217,4 l 216,-2 0,-217 z m 481,4 -2,-221 -216,0 -216,0 0,214 c 0,117 0,216 0,221 1,4 99,7 219,7 l 217,0 -2,-221 z m 510,0 -2,-221 -231,0 -231,0 -2,221 -2,221 235,0 235,0 -2,-221 z m 480,0 -2,-221 -216,0 -216,0 -2,221 -2,221 220,0 220,0 -2,-221 z m 479,-2 -1,-219 -216,0 -216,0 -2,221 -2,221 219,-2 219,-3 -1,-218 z m 480,-2 -1,-217 -216,0 -216,0 0,214 c 0,117 0,215 0,218 1,3 98,4 217,4 l 216,-2 0,-217 z m 510,2 -1,-219 -231,0 -231,0 0,214 c 0,117 0,216 0,221 1,4 105,6 232,5 l 232,-3 -1,-218 z m 480,0 -1,-219 -216,0 -216,0 0,214 c 0,117 0,216 0,221 1,4 98,6 217,5 l 216,-3 0,-218 z m 480,-2 0,-217 -217,0 -216,0 0,214 c 0,117 0,215 0,218 1,3 98,4 217,3 l 216,-2 0,-216 z m 480,0 0,-217 -217,0 -217,0 1,216 c 0,119 0,217 1,219 0,1 97,1 216,0 l 216,-1 0,-217 z m 479,4 c 0,-116 -2,-214 -4,-216 -2,-2 -100,-4 -216,-4 l -213,-1 1,216 c 0,119 0,217 1,219 0,1 97,1 216,0 l 216,-1 -1,-213 z"
       id="path3255"
       inkscape:connector-curvature="0" />
    <path
       d="m 1862,1431 c -13,-18 -33,-31 -49,-33 -22,-2 -28,-8 -28,-28 0,-23 4,-25 48,-28 l 47,-3 0,-120 0,-120 28,3 27,3 3,178 2,177 -28,0 c -20,0 -35,-9 -50,-29 z"
       id="path3257"
       inkscape:connector-curvature="0" />
    <path
       d="m 3710,972 c -51,-49 -54,-82 -7,-82 27,0 35,5 44,30 9,25 17,30 46,30 65,0 66,-82 1,-125 -16,-10 -51,-40 -77,-66 -39,-38 -48,-53 -45,-76 l 3,-28 123,-3 122,-3 0,31 0,30 -73,0 c -41,0 -77,3 -80,7 -8,7 31,53 45,53 32,0 108,90 108,128 0,26 -34,72 -69,93 -51,31 -94,25 -141,-19 z"
       id="path3259"
       inkscape:connector-curvature="0" />
  </g>
  <path
     style="fill:#e60101;fill-opacity:1;stroke:#000000;stroke-width:0.59461832px;stroke-linecap:butt;stroke-linejoin:miter;stroke-opacity:1"
     d="m 112.07199,110.28385 c 0,2.30495 0,74.68041 0,74.68041 l -74.680417,0 0,70.07051 145.211907,0 0,-142.90696 z"
     id="path5477"
     inkscape:connector-curvature="0" />
  <text
     xml:space="preserve"
     style="font-size:33.2183609px;font-style:normal;font-variant:normal;font-weight:bold;font-stretch:normal;text-align:center;line-height:125%;letter-spacing:0px;word-spacing:0px;text-anchor:middle;fill:#000000;fill-opacity:1;stroke:none;font-family:Arial;-inkscape-font-specification:Arial Bold"
     x="129.61218"
     y="213.08466"
     id="text5987"
     sodipodi:linespacing="125%"><tspan
       sodipodi:role="line"
       id="tspan5989"
       x="129.61218"
       y="213.08466">1</tspan></text>
  <path
     style="fill:#0000ff;stroke:#000000;stroke-width:0.59461832px;stroke-linecap:butt;stroke-linejoin:miter;stroke-opacity:1"
     d="m 256.8229,185.42524 0,35.49625 -39.64516,0 0,34.11328 74.21942,0 0,-71.45348 z"
     id="path5995"
     inkscape:connector-curvature="0" />
  <path
     style="fill:none;stroke:#000000;stroke-width:0.59461832px;stroke-linecap:butt;stroke-linejoin:miter;stroke-opacity:1"
     d="m 147.10724,108.43989 0,155.81468"
     id="path6007"
     inkscape:connector-curvature="0" />
  <path
     style="fill:none;stroke:#000000;stroke-width:0.59461838px;stroke-linecap:butt;stroke-linejoin:miter;stroke-opacity:1"
     d="m 32.320682,219.99951 167.339438,0"
     id="path6009"
     inkscape:connector-curvature="0" />
  <path
     style="fill:none;stroke:#000000;stroke-width:0.59461832px;stroke-linecap:butt;stroke-linejoin:miter;stroke-opacity:1"
     d="m 32.781671,183.1203 154.431709,0"
     id="path6011"
     inkscape:connector-curvature="0" />
  <path
     style="fill:none;stroke:#000000;stroke-width:0.59461832px;stroke-linecap:butt;stroke-linejoin:miter;stroke-opacity:1"
     d="m 109.30604,145.3191 80.21229,0"
     id="path6013"
     inkscape:connector-curvature="0" />
  <path
     style="fill:none;stroke:#000000;stroke-width:0.59461832px;stroke-linecap:butt;stroke-linejoin:miter;stroke-opacity:1"
     d="m 111.611,182.65931 0,79.7513"
     id="path6015"
     inkscape:connector-curvature="0" />
  <path
     style="fill:none;stroke:#000000;stroke-width:0.59461838px;stroke-linecap:butt;stroke-linejoin:miter;stroke-opacity:1"
     d="m 73.155074,183.1203 0,78.36832"
     id="path6017"
     inkscape:connector-curvature="0" />
  <path
     style="fill:none;stroke:#000000;stroke-width:0.59461832px;stroke-linecap:butt;stroke-linejoin:miter;stroke-opacity:1"
     d="m 217.17774,220.4605 85.28319,0"
     id="path6021"
     inkscape:connector-curvature="0" />
  <path
     style="fill:none;stroke:#000000;stroke-width:0.59461832px;stroke-linecap:butt;stroke-linejoin:miter;stroke-opacity:1"
     d="m 256.36191,213.54564 c 0.49187,1.83569 0,53.01388 0,53.01388"
     id="path6023"
     inkscape:connector-curvature="0" />
  <text
     xml:space="preserve"
     style="font-size:36.08665466px;font-style:normal;font-variant:normal;font-weight:bold;font-stretch:normal;text-align:center;line-height:125%;letter-spacing:0px;word-spacing:0px;text-anchor:middle;fill:#000000;fill-opacity:1;stroke:none;font-family:Arial;-inkscape-font-specification:Arial Bold"
     x="274.08936"
     y="250.83621"
     id="text5991"
     sodipodi:linespacing="125%"><tspan
       sodipodi:role="line"
       id="tspan5993"
       x="274.08936"
       y="250.83621">2</tspan></text>
</svg>
