<?xml version="1.0" encoding="UTF-8"?>
<svg xmlns="http://www.w3.org/2000/svg" xmlns:xlink="http://www.w3.org/1999/xlink" width="400pt" height="212pt" viewBox="0 0 400 212" version="1.1">
<g id="surface1">
<path style=" stroke:none;fill-rule:nonzero;fill:rgb(0%,0%,0%);fill-opacity:1;" d="M 143.734375 4.890625 C 143.421875 5.203125 119.421875 5.335938 75.023438 5.335938 C 37.464844 5.335938 6.445312 5.46875 6.042969 5.601562 C 5.109375 5.957031 5.109375 6.9375 6.042969 7.292969 C 6.445312 7.425781 37.464844 7.558594 74.933594 7.558594 L 143.15625 7.515625 L 143.15625 72.253906 L 75.023438 72.339844 C 37.554688 72.429688 6.621094 72.476562 6.3125 72.476562 C 5.910156 72.476562 5.777344 72.917969 5.867188 73.675781 L 6 74.921875 L 72.445312 75.054688 C 110.445312 75.097656 139.6875 74.964844 140.800781 74.742188 C 141.820312 74.519531 142.800781 74.519531 142.890625 74.742188 C 143.023438 74.921875 143.15625 82.257812 143.15625 91.015625 L 143.15625 106.933594 L 74.578125 107.023438 C 7.644531 107.113281 6 107.113281 5.867188 107.957031 C 5.777344 108.402344 6 108.980469 6.3125 109.203125 C 6.667969 109.421875 34.222656 109.511719 74.890625 109.378906 C 112.3125 109.246094 142.933594 109.203125 143.023438 109.203125 C 143.109375 109.246094 143.199219 134.324219 143.109375 140.679688 C 143.109375 141.347656 142.890625 141.4375 141.777344 141.214844 C 141.023438 141.082031 110.179688 140.949219 73.199219 140.949219 L 6 140.902344 L 6 143.214844 L 143.15625 143.394531 L 143.15625 174.785156 L 74.976562 174.738281 C 37.464844 174.738281 6.445312 174.828125 6.042969 175.007812 C 5.109375 175.363281 5.109375 176.339844 6.042969 176.695312 C 6.445312 176.875 37.464844 176.964844 74.976562 176.964844 L 143.15625 176.917969 L 143.15625 193.058594 C 143.15625 201.953125 143.109375 209.289062 143.109375 209.421875 C 143.109375 209.554688 112 209.597656 74 209.511719 C 11.777344 209.421875 4.84375 209.464844 4.578125 210.089844 C 4.445312 210.488281 4.445312 210.886719 4.535156 210.976562 C 4.800781 211.289062 396.089844 211.289062 396.355469 211.023438 C 396.445312 210.886719 396.445312 210.488281 396.265625 210.089844 C 396.042969 209.464844 389.554688 209.421875 332 209.421875 L 267.957031 209.464844 L 267.957031 176.917969 L 332.089844 176.828125 C 395.910156 176.742188 396.222656 176.742188 396.222656 175.851562 C 396.222656 174.960938 395.910156 174.960938 332.089844 174.875 L 267.910156 174.785156 L 267.957031 159.089844 L 267.957031 143.394531 L 331.820312 143.304688 C 371.289062 143.261719 395.867188 143.039062 396.132812 142.769531 C 396.355469 142.546875 396.398438 142.105469 396.132812 141.613281 C 395.734375 140.949219 390.84375 140.902344 332.890625 140.949219 C 298.355469 140.949219 269.601562 141.082031 269.023438 141.214844 C 268.222656 141.4375 268 141.304688 268 140.679688 C 267.910156 135.34375 268 109.246094 268.089844 109.203125 C 268.179688 109.203125 296.710938 109.246094 331.554688 109.378906 C 391.289062 109.601562 394.933594 109.558594 395.777344 108.84375 C 396.398438 108.269531 396.488281 107.910156 396.132812 107.554688 C 395.820312 107.246094 377.066406 107.066406 331.820312 107.023438 L 267.957031 106.933594 L 267.957031 90.75 C 267.957031 81.855469 268.042969 74.519531 268.089844 74.429688 C 268.179688 74.386719 269.023438 74.476562 270 74.699219 C 271.023438 74.964844 297.554688 75.144531 333.644531 75.144531 L 395.511719 75.144531 L 396.042969 74.164062 C 396.488281 73.363281 396.398438 73.097656 395.734375 72.609375 C 395.246094 72.253906 394.488281 72.074219 394 72.207031 C 392.976562 72.519531 268.398438 72.5625 268.132812 72.296875 C 268 72.164062 267.867188 44.550781 268 40.90625 C 268 40.773438 296.84375 40.683594 332.089844 40.683594 C 395.910156 40.683594 396.222656 40.683594 396.222656 39.792969 C 396.222656 38.90625 395.910156 38.90625 270.753906 38.816406 L 145.289062 38.683594 L 145.289062 23.121094 L 145.246094 7.558594 L 270.753906 7.425781 C 395.910156 7.335938 396.222656 7.335938 396.222656 6.445312 C 396.222656 5.558594 395.910156 5.558594 270.710938 5.46875 C 188.84375 5.378906 145.023438 5.203125 144.667969 4.890625 C 144.355469 4.625 144 4.625 143.734375 4.890625 Z M 265.777344 40.90625 C 265.910156 44.507812 265.777344 72.164062 265.644531 72.296875 C 265.421875 72.519531 145.6875 72.519531 145.464844 72.296875 C 145.332031 72.164062 145.199219 40.683594 145.332031 40.683594 C 145.332031 40.683594 172.445312 40.683594 205.554688 40.683594 C 238.667969 40.683594 265.777344 40.773438 265.777344 40.90625 Z M 204.621094 75.054688 C 241.734375 75.097656 262.890625 75.007812 263.910156 74.699219 C 264.800781 74.476562 265.554688 74.34375 265.644531 74.429688 C 265.734375 74.519531 265.820312 81.855469 265.820312 90.75 L 265.820312 106.933594 L 145.246094 106.933594 L 145.289062 91.148438 C 145.289062 82.480469 145.332031 75.097656 145.332031 74.742188 C 145.332031 74.34375 145.554688 74.253906 146.132812 74.519531 C 146.535156 74.742188 172.84375 74.964844 204.621094 75.054688 Z M 265.777344 109.601562 C 265.777344 110.492188 265.820312 139.882812 265.777344 140.503906 C 265.777344 141.082031 258.800781 141.171875 205.554688 141.171875 C 165.6875 141.171875 145.332031 141.035156 145.332031 140.726562 C 145.289062 139.925781 145.289062 110.046875 145.332031 109.601562 C 145.332031 108.980469 265.777344 108.980469 265.777344 109.601562 Z M 265.820312 159.089844 L 265.867188 174.738281 L 145.246094 174.738281 L 145.289062 159.089844 C 145.289062 150.464844 145.332031 143.347656 145.332031 143.261719 C 145.332031 143.214844 172.445312 143.214844 205.554688 143.261719 L 265.820312 143.394531 Z M 265.820312 193.058594 C 265.820312 201.953125 265.777344 209.289062 265.777344 209.421875 C 265.777344 209.554688 238.667969 209.597656 205.511719 209.554688 L 145.246094 209.421875 L 145.289062 193.191406 C 145.289062 184.253906 145.289062 176.917969 145.332031 176.828125 C 145.332031 176.785156 172.445312 176.785156 205.601562 176.828125 L 265.820312 176.964844 Z M 265.820312 193.058594 "/>
<path style=" stroke:none;fill-rule:nonzero;fill:rgb(0%,0%,0%);fill-opacity:1;" d="M 207.464844 47.042969 C 206.445312 47.265625 206.445312 48.285156 207.421875 48.644531 C 208.445312 49.042969 209.601562 47.886719 208.800781 47.265625 C 208.488281 47.042969 207.867188 46.910156 207.464844 47.042969 Z M 207.464844 47.042969 "/>
<path style=" stroke:none;fill-rule:nonzero;fill:rgb(0%,0%,0%);fill-opacity:1;" d="M 176.753906 47.441406 C 176.578125 47.574219 176.445312 50.289062 176.445312 53.445312 C 176.445312 59.136719 176.445312 59.179688 177.464844 59.046875 C 178.355469 58.914062 178.445312 58.691406 178.488281 56.023438 C 178.488281 54.421875 178.535156 52.867188 178.578125 52.554688 C 178.710938 51.578125 179.554688 52.421875 179.554688 53.535156 C 179.554688 54.113281 179.867188 54.824219 180.222656 55.132812 C 180.578125 55.445312 180.890625 56.378906 180.890625 57.222656 C 180.890625 58.15625 181.15625 58.824219 181.554688 58.957031 C 182.621094 59.359375 183.554688 58.292969 183.554688 56.644531 C 183.554688 55.488281 183.289062 55.046875 182.355469 54.601562 C 181.378906 54.113281 181.066406 53.621094 180.84375 51.976562 C 180.398438 49.042969 179.332031 47.132812 178.042969 47.132812 C 177.511719 47.132812 176.890625 47.265625 176.753906 47.441406 Z M 176.753906 47.441406 "/>
<path style=" stroke:none;fill-rule:nonzero;fill:rgb(0%,0%,0%);fill-opacity:1;" d="M 185.109375 47.574219 C 184.621094 48.332031 183.554688 52.242188 183.554688 53.222656 C 183.554688 54.378906 184.355469 54.601562 184.667969 53.578125 C 184.800781 53.222656 184.976562 52.601562 185.109375 52.199219 C 185.601562 50.6875 186 52.199219 186 55.488281 C 186 58.601562 186.089844 58.914062 186.890625 58.914062 C 187.734375 58.914062 187.777344 58.601562 187.820312 53.800781 C 187.867188 51 187.777344 48.332031 187.6875 47.886719 C 187.464844 47.085938 185.601562 46.820312 185.109375 47.574219 Z M 185.109375 47.574219 "/>
<path style=" stroke:none;fill-rule:nonzero;fill:rgb(0%,0%,0%);fill-opacity:1;" d="M 191.023438 50.910156 C 189.378906 52.421875 188.710938 54.867188 189.554688 56.46875 C 190.3125 57.980469 192.265625 59.582031 193.289062 59.582031 C 194.132812 59.582031 196.890625 57.445312 196.890625 56.867188 C 196.890625 56.203125 195.023438 56.421875 194.179688 57.179688 C 193.199219 58.070312 191.554688 57.3125 191.554688 55.980469 C 191.554688 55.132812 191.777344 55.046875 194.132812 55.222656 L 196.667969 55.355469 L 196.800781 53.976562 C 196.890625 52.910156 196.621094 52.242188 195.554688 51.175781 C 193.867188 49.488281 192.621094 49.441406 191.023438 50.910156 Z M 194.398438 52.242188 C 195.511719 53.089844 194.933594 53.800781 193.066406 53.800781 C 191.378906 53.800781 190.976562 52.820312 192.355469 52.066406 C 193.332031 51.488281 193.378906 51.488281 194.398438 52.242188 Z M 194.398438 52.242188 "/>
<path style=" stroke:none;fill-rule:nonzero;fill:rgb(0%,0%,0%);fill-opacity:1;" d="M 200.710938 50.109375 C 200.535156 50.289062 199.957031 50.464844 199.421875 50.464844 C 198.488281 50.464844 198.445312 50.6875 198.3125 54.777344 C 198.179688 59.136719 198.179688 59.136719 199.289062 59.136719 C 200.621094 59.136719 200.933594 58.378906 200.578125 55.667969 C 200.3125 53.355469 200.933594 51.578125 202 51.578125 C 203.023438 51.578125 203.554688 53.132812 203.554688 56.203125 C 203.554688 58.824219 203.644531 59.136719 204.398438 59.136719 C 205.554688 59.136719 205.777344 58.15625 205.378906 54.601562 C 205.199219 52.6875 204.753906 51.308594 204.222656 50.730469 C 203.421875 49.84375 201.378906 49.488281 200.710938 50.109375 Z M 200.710938 50.109375 "/>
<path style=" stroke:none;fill-rule:nonzero;fill:rgb(0%,0%,0%);fill-opacity:1;" d="M 212.710938 50.109375 C 212.535156 50.332031 211.910156 50.464844 211.421875 50.464844 C 210.488281 50.464844 210.445312 50.6875 210.3125 54.777344 C 210.179688 58.824219 210.265625 59.136719 211.066406 59.136719 C 212.179688 59.136719 212.445312 58.335938 212.132812 55.488281 C 211.957031 53.488281 212.042969 53 212.84375 52.289062 C 213.777344 51.445312 213.777344 51.445312 214.710938 52.289062 C 215.511719 53 215.601562 53.488281 215.421875 55.488281 C 215.109375 58.335938 215.378906 59.136719 216.488281 59.136719 C 217.246094 59.136719 217.332031 58.78125 217.332031 55.445312 C 217.332031 52.15625 217.199219 51.621094 216.3125 50.777344 C 215.289062 49.796875 213.378906 49.488281 212.710938 50.109375 Z M 212.710938 50.109375 "/>
<path style=" stroke:none;fill-rule:nonzero;fill:rgb(0%,0%,0%);fill-opacity:1;" d="M 220.535156 50.597656 C 219.820312 51.175781 219.511719 51.84375 219.554688 52.910156 C 219.554688 53.757812 219.421875 55.179688 219.289062 56.066406 C 219.066406 57.445312 219.199219 57.800781 220.265625 58.648438 C 221.199219 59.359375 221.820312 59.535156 222.667969 59.3125 C 223.289062 59.136719 224.265625 59.003906 224.890625 59.003906 C 226.488281 59.089844 226.710938 58.425781 226.355469 54.691406 C 226.132812 52.109375 225.867188 51.222656 225.15625 50.597656 C 223.957031 49.621094 221.820312 49.621094 220.535156 50.597656 Z M 223.6875 52.421875 C 224.042969 53.800781 223.421875 54.332031 222.089844 53.84375 C 220.710938 53.3125 220.578125 52.6875 221.6875 52.066406 C 222.84375 51.398438 223.421875 51.488281 223.6875 52.421875 Z M 224.3125 55.402344 C 224.667969 56.335938 222.976562 58.023438 222.042969 57.667969 C 220.890625 57.222656 220.621094 55.980469 221.554688 55.3125 C 222.667969 54.46875 223.957031 54.511719 224.3125 55.402344 Z M 224.3125 55.402344 "/>
<path style=" stroke:none;fill-rule:nonzero;fill:rgb(0%,0%,0%);fill-opacity:1;" d="M 228.535156 50.820312 C 226.667969 52.777344 227.421875 54.15625 230.890625 55.355469 C 232.398438 55.84375 232.890625 57.089844 231.734375 57.535156 C 231.332031 57.667969 230.398438 57.492188 229.644531 57.136719 C 227.644531 56.113281 226.933594 57.046875 228.578125 58.511719 C 230.132812 59.847656 231.867188 59.847656 233.464844 58.511719 C 235.734375 56.644531 234.578125 54.332031 230.976562 53.578125 C 229.957031 53.355469 229.820312 53.222656 230.222656 52.511719 C 230.578125 51.753906 230.84375 51.710938 231.910156 52.109375 C 232.621094 52.378906 233.554688 52.464844 234 52.289062 C 234.753906 52.023438 234.753906 51.886719 233.644531 50.910156 C 232.089844 49.441406 229.820312 49.441406 228.535156 50.820312 Z M 228.535156 50.820312 "/>
<path style=" stroke:none;fill-rule:nonzero;fill:rgb(0%,0%,0%);fill-opacity:1;" d="M 207.332031 50.820312 C 207.199219 51.132812 207.109375 53.089844 207.199219 55.179688 C 207.332031 58.335938 207.464844 58.914062 208.132812 59.046875 C 208.84375 59.179688 208.890625 58.824219 208.800781 54.867188 C 208.710938 51.886719 208.488281 50.464844 208.132812 50.332031 C 207.820312 50.242188 207.464844 50.464844 207.332031 50.820312 Z M 207.332031 50.820312 "/>
<path style=" stroke:none;fill-rule:nonzero;fill:rgb(0%,0%,0%);fill-opacity:1;" d="M 203.644531 81.5 C 201.644531 82.789062 200.933594 84.257812 200.890625 86.835938 C 200.890625 91.859375 204.667969 94.527344 207.957031 91.773438 C 209.066406 90.839844 209.332031 90.304688 209.332031 88.882812 C 209.332031 87.457031 209.066406 86.835938 207.910156 85.769531 C 206.398438 84.433594 205.15625 84.125 204.621094 84.96875 C 204.222656 85.636719 203.554688 84.570312 203.867188 83.722656 C 204.179688 82.921875 206 82.96875 206.84375 83.8125 C 208.179688 85.191406 209.777344 84.347656 208.890625 82.703125 C 208.535156 82.035156 205.601562 80.300781 205.15625 80.523438 C 205.15625 80.523438 204.445312 80.96875 203.644531 81.5 Z M 206.535156 87.191406 C 207.734375 89.191406 206.535156 91.59375 204.667969 90.882812 C 203.6875 90.480469 203.378906 88.660156 204 87.101562 C 204.667969 85.546875 205.554688 85.546875 206.535156 87.191406 Z M 206.535156 87.191406 "/>
<path style=" stroke:none;fill-rule:nonzero;fill:rgb(0%,0%,0%);fill-opacity:1;" d="M 201.023438 115.425781 C 200.621094 116.492188 201.777344 116.980469 203.910156 116.714844 C 205.910156 116.40625 206.3125 116.894531 205.15625 118.226562 C 204.3125 119.207031 203.109375 122.628906 203.023438 124.496094 C 202.890625 125.832031 203.023438 126.054688 203.910156 126.1875 C 204.445312 126.273438 204.976562 126.054688 205.066406 125.742188 C 205.15625 125.429688 205.601562 123.964844 206 122.496094 C 206.445312 121.027344 207.378906 118.9375 208.089844 117.871094 C 209.957031 115.070312 209.644531 114.714844 205.109375 114.714844 C 202.042969 114.714844 201.246094 114.847656 201.023438 115.425781 Z M 201.023438 115.425781 "/>
<path style=" stroke:none;fill-rule:nonzero;fill:rgb(0%,0%,0%);fill-opacity:1;" d="M 202.3125 150.152344 C 202.089844 150.597656 201.777344 151.886719 201.601562 153.042969 C 201.332031 154.820312 201.421875 155.132812 202.089844 155.265625 C 202.535156 155.355469 203.332031 155.265625 203.910156 155 C 206.222656 154.019531 208.222656 156.6875 206.398438 158.464844 C 205.511719 159.398438 204.933594 159.355469 203.777344 158.289062 C 203.199219 157.753906 202.535156 157.53125 201.867188 157.710938 C 199.464844 158.332031 202.089844 160.957031 205.109375 160.957031 C 207.777344 160.957031 209.332031 159.667969 209.332031 157.398438 C 209.332031 156.464844 209.199219 155.355469 209.066406 154.953125 C 208.710938 154.109375 206.621094 152.953125 205.378906 152.953125 C 204.265625 152.953125 203.6875 152.0625 204.488281 151.574219 C 204.84375 151.351562 205.957031 151.175781 207.023438 151.175781 C 208.621094 151.175781 208.933594 151.042969 208.800781 150.375 C 208.578125 149.21875 202.890625 148.996094 202.3125 150.152344 Z M 202.3125 150.152344 "/>
<path style=" stroke:none;fill-rule:nonzero;fill:rgb(0%,0%,0%);fill-opacity:1;" d="M 202.355469 183.675781 C 200.445312 184.878906 200.398438 186.300781 202.179688 186.300781 C 202.890625 186.300781 203.554688 186.035156 203.734375 185.632812 C 204.042969 184.742188 206.042969 184.789062 206.398438 185.722656 C 206.976562 187.144531 205.777344 189.144531 203.332031 190.96875 C 199.464844 193.816406 200.265625 195.191406 205.777344 195.191406 C 208.179688 195.191406 208.976562 195.015625 209.15625 194.527344 C 209.601562 193.414062 208.445312 192.4375 207.023438 192.703125 C 205.109375 193.101562 205.199219 192.347656 207.332031 190.035156 C 208.84375 188.480469 209.332031 187.589844 209.332031 186.523438 C 209.332031 183.5 205.15625 181.808594 202.355469 183.675781 Z M 202.355469 183.675781 "/>
<path style=" stroke:none;fill-rule:nonzero;fill:rgb(0%,0%,0%);fill-opacity:1;" d="M 211.289062 12.9375 C 211.15625 13.207031 210.933594 15.828125 210.84375 18.71875 C 210.753906 23.476562 210.800781 24.054688 211.554688 24.453125 C 212.890625 25.167969 213.332031 24.054688 213.023438 20.808594 C 212.890625 18.984375 212.933594 17.785156 213.246094 17.605469 C 213.511719 17.472656 214.445312 18.542969 215.378906 20.097656 C 217.554688 23.699219 218.222656 24.453125 219.199219 24.453125 C 220.089844 24.453125 220.132812 24.277344 220.042969 21.121094 C 220 19.875 220.132812 17.828125 220.355469 16.539062 C 220.710938 14.582031 220.621094 14.007812 220 13.25 C 218.753906 11.695312 218.222656 12.628906 218.222656 16.496094 C 218.222656 18.40625 218.042969 20.007812 217.820312 20.007812 C 217.601562 20.007812 216.753906 18.898438 216 17.5625 C 214.445312 14.804688 212.578125 12.449219 212 12.449219 C 211.777344 12.449219 211.464844 12.671875 211.289062 12.9375 Z M 211.289062 12.9375 "/>
<path style=" stroke:none;fill-rule:nonzero;fill:rgb(0%,0%,0%);fill-opacity:1;" d="M 224.710938 13.160156 C 224.179688 14.496094 224.445312 15.117188 225.464844 15.117188 C 226.488281 15.117188 227.820312 13.292969 227.246094 12.714844 C 226.667969 12.183594 224.976562 12.492188 224.710938 13.160156 Z M 224.710938 13.160156 "/>
<path style=" stroke:none;fill-rule:nonzero;fill:rgb(0%,0%,0%);fill-opacity:1;" d="M 275.867188 13.207031 C 275.6875 13.339844 275.554688 13.871094 275.554688 14.316406 C 275.554688 14.804688 275.246094 15.117188 274.667969 15.117188 C 273.644531 15.117188 271.644531 16.273438 270.800781 17.339844 C 270.488281 17.695312 270.222656 18.941406 270.222656 20.054688 C 270.222656 21.875 270.398438 22.277344 271.867188 23.519531 C 273.378906 24.808594 273.6875 24.898438 275.511719 24.632812 C 276.667969 24.453125 277.6875 24.277344 277.867188 24.144531 C 278.042969 24.054688 278.222656 21.476562 278.179688 18.40625 C 278.179688 12.984375 278.132812 12.894531 277.15625 12.894531 C 276.621094 12.894531 276 13.027344 275.867188 13.207031 Z M 275.554688 18.007812 C 276.179688 18.761719 275.910156 22.054688 275.199219 22.765625 C 274.933594 23.03125 274.445312 23.03125 273.820312 22.71875 C 273.066406 22.320312 272.890625 21.785156 272.890625 20.054688 C 272.890625 18.898438 273.023438 17.785156 273.199219 17.652344 C 273.6875 17.117188 274.976562 17.339844 275.554688 18.007812 Z M 275.554688 18.007812 "/>
<path style=" stroke:none;fill-rule:nonzero;fill:rgb(0%,0%,0%);fill-opacity:1;" d="M 308.976562 14.09375 C 308.445312 15.027344 308.800781 22.144531 309.421875 23.433594 C 310.042969 24.675781 310.933594 25.03125 312.089844 24.410156 L 312.976562 23.921875 L 312.042969 23.078125 C 310.976562 22.097656 310.800781 19.296875 311.554688 17.03125 C 312.179688 15.296875 311.464844 13.339844 310.265625 13.339844 C 309.777344 13.339844 309.199219 13.648438 308.976562 14.09375 Z M 308.976562 14.09375 "/>
<path style=" stroke:none;fill-rule:nonzero;fill:rgb(0%,0%,0%);fill-opacity:1;" d="M 232 15.785156 L 230.445312 16.363281 L 230.445312 20.273438 C 230.445312 24.1875 230.445312 24.230469 231.554688 24.230469 C 232.621094 24.230469 232.667969 24.144531 232.535156 21.566406 C 232.355469 18.40625 233.199219 16.808594 234.535156 17.605469 C 235.199219 18.007812 235.332031 18.675781 235.332031 21.164062 C 235.332031 24.011719 235.421875 24.230469 236.355469 24.367188 C 237.289062 24.5 237.332031 24.367188 237.332031 21.207031 C 237.332031 18.542969 237.464844 17.828125 238.042969 17.605469 C 239.464844 17.074219 240 18.183594 239.910156 21.296875 C 239.777344 24.1875 239.777344 24.230469 241.023438 24.367188 L 242.222656 24.5 L 242.222656 21.164062 C 242.222656 18.230469 242.089844 17.695312 241.066406 16.496094 C 239.957031 15.160156 238.222656 14.628906 238.222656 15.5625 C 238.222656 15.785156 237.644531 16.007812 236.933594 16.007812 C 236.179688 16.007812 235.464844 15.785156 235.332031 15.5625 C 234.976562 14.984375 234 15.074219 232 15.785156 Z M 232 15.785156 "/>
<path style=" stroke:none;fill-rule:nonzero;fill:rgb(0%,0%,0%);fill-opacity:1;" d="M 245.023438 16.273438 C 243.644531 17.339844 243.554688 17.605469 243.554688 20.007812 C 243.554688 22.363281 243.6875 22.71875 244.933594 23.742188 C 245.6875 24.367188 246.621094 24.898438 246.976562 24.898438 C 248.042969 24.898438 250.667969 23.121094 250.667969 22.410156 C 250.667969 21.566406 249.554688 21.609375 248.179688 22.5 C 247.15625 23.210938 247.023438 23.164062 246.222656 22.453125 C 244.578125 20.988281 245.066406 20.410156 248 20.496094 C 249.464844 20.542969 250.800781 20.453125 250.976562 20.273438 C 251.464844 19.832031 250.179688 16.808594 249.15625 15.917969 C 247.867188 14.851562 246.667969 14.941406 245.023438 16.273438 Z M 248.667969 18.230469 C 248.667969 18.941406 247.023438 19.339844 245.910156 18.941406 C 245.332031 18.71875 245.332031 18.542969 245.820312 17.964844 C 246.488281 17.117188 248.667969 17.296875 248.667969 18.230469 Z M 248.667969 18.230469 "/>
<path style=" stroke:none;fill-rule:nonzero;fill:rgb(0%,0%,0%);fill-opacity:1;" d="M 253.777344 15.519531 C 252.710938 15.828125 252.667969 15.960938 252.535156 20.1875 C 252.398438 24.5 252.398438 24.5 253.421875 24.367188 C 254.355469 24.230469 254.445312 23.964844 254.488281 21.566406 C 254.535156 20.097656 254.578125 18.628906 254.621094 18.320312 C 254.667969 18.007812 255.199219 17.5625 255.820312 17.339844 C 256.535156 17.03125 256.890625 16.628906 256.800781 16.09375 C 256.621094 15.25 255.464844 15.027344 253.777344 15.519531 Z M 253.777344 15.519531 "/>
<path style=" stroke:none;fill-rule:nonzero;fill:rgb(0%,0%,0%);fill-opacity:1;" d="M 259.246094 15.960938 C 258.710938 16.40625 258 17.472656 257.601562 18.363281 C 257.023438 19.785156 257.023438 20.140625 257.644531 21.699219 C 258.3125 23.476562 260.132812 24.898438 261.6875 24.898438 C 262.890625 24.898438 265.15625 22.71875 265.511719 21.207031 C 266 19.164062 265.066406 16.761719 263.511719 15.875 C 261.777344 14.894531 260.488281 14.941406 259.246094 15.960938 Z M 262.265625 17.785156 C 263.421875 18.453125 263.421875 21.34375 262.265625 22.410156 C 261.464844 23.164062 261.378906 23.164062 260.488281 22.277344 C 259.289062 21.074219 259.199219 18.453125 260.355469 17.828125 C 261.289062 17.25 261.246094 17.25 262.265625 17.785156 Z M 262.265625 17.785156 "/>
<path style=" stroke:none;fill-rule:nonzero;fill:rgb(0%,0%,0%);fill-opacity:1;" d="M 281.023438 16.230469 C 278.535156 18.230469 278.535156 22.1875 281.066406 23.921875 C 281.867188 24.453125 282.890625 24.898438 283.378906 24.898438 C 284.667969 24.855469 286.84375 22.898438 286.535156 22.054688 C 286.179688 21.121094 285.6875 21.164062 284.445312 22.230469 C 283.15625 23.34375 282.890625 23.34375 281.777344 22.230469 C 280.445312 20.898438 281.109375 20.320312 283.734375 20.542969 C 286.488281 20.808594 287.109375 20.632812 287.109375 19.5625 C 287.109375 18.097656 286.222656 16.671875 284.84375 15.875 C 283.066406 14.894531 282.710938 14.894531 281.023438 16.230469 Z M 284.398438 17.917969 C 285.066406 18.761719 284.578125 19.117188 282.800781 19.117188 C 281.820312 19.117188 281.332031 18.898438 281.332031 18.496094 C 281.332031 17.339844 283.554688 16.941406 284.398438 17.917969 Z M 284.398438 17.917969 "/>
<path style=" stroke:none;fill-rule:nonzero;fill:rgb(0%,0%,0%);fill-opacity:1;" d="M 291.867188 15.429688 C 291.421875 15.875 291.511719 17.785156 291.957031 17.785156 C 292.179688 17.785156 292.535156 18.40625 292.667969 19.207031 C 292.84375 20.007812 293.15625 20.941406 293.332031 21.34375 C 293.511719 21.699219 293.910156 22.542969 294.179688 23.210938 C 294.488281 24.097656 294.976562 24.453125 295.6875 24.453125 C 296.578125 24.453125 296.84375 24.054688 297.554688 21.652344 C 298 20.140625 298.621094 18.585938 298.933594 18.183594 C 299.734375 17.25 299.734375 16.050781 298.890625 15.738281 C 297.910156 15.339844 296.890625 16.363281 296.890625 17.742188 C 296.890625 18.363281 296.710938 19.164062 296.488281 19.519531 C 295.867188 20.496094 294.84375 19.429688 294.488281 17.5625 C 294.132812 15.875 292.621094 14.628906 291.867188 15.429688 Z M 291.867188 15.429688 "/>
<path style=" stroke:none;fill-rule:nonzero;fill:rgb(0%,0%,0%);fill-opacity:1;" d="M 301.957031 15.917969 C 300.710938 16.941406 299.554688 18.898438 299.554688 19.964844 C 299.554688 21.296875 300.710938 23.164062 302.089844 24.054688 C 303.6875 25.121094 304.3125 25.121094 306.089844 23.875 C 307.464844 22.941406 307.554688 22.765625 307.554688 20.140625 C 307.554688 17.519531 307.464844 17.339844 306.089844 16.273438 C 304.355469 14.941406 303.246094 14.851562 301.957031 15.917969 Z M 304.933594 17.785156 C 306 18.40625 306.089844 21.164062 305.023438 22.320312 C 304.132812 23.296875 303.820312 23.296875 302.933594 22.410156 C 302.089844 21.609375 302 18.628906 302.753906 17.875 C 303.421875 17.207031 303.820312 17.207031 304.933594 17.785156 Z M 304.933594 17.785156 "/>
<path style=" stroke:none;fill-rule:nonzero;fill:rgb(0%,0%,0%);fill-opacity:1;" d="M 314.445312 16.671875 C 313.199219 17.964844 312.890625 18.585938 312.890625 20.054688 C 312.890625 21.519531 313.15625 22.144531 314.445312 23.386719 C 316.3125 25.210938 316.976562 25.253906 319.199219 23.742188 C 320.800781 22.632812 320.890625 22.453125 320.890625 20.140625 C 320.890625 17.964844 320.710938 17.5625 319.511719 16.40625 C 317.6875 14.71875 316.398438 14.761719 314.445312 16.671875 Z M 318.3125 18.097656 C 319.246094 18.941406 319.332031 19.964844 318.621094 21.519531 C 317.511719 23.964844 315.332031 22.988281 315.332031 20.007812 C 315.332031 17.519531 316.710938 16.628906 318.3125 18.097656 Z M 318.3125 18.097656 "/>
<path style=" stroke:none;fill-rule:nonzero;fill:rgb(0%,0%,0%);fill-opacity:1;" d="M 323.199219 16.007812 C 322.445312 16.628906 322.179688 17.25 322.3125 18.320312 C 322.445312 19.609375 322.667969 19.832031 324.445312 20.453125 C 326.535156 21.164062 327.246094 22.363281 325.957031 22.855469 C 325.554688 23.03125 324.710938 22.808594 324.132812 22.453125 C 322.265625 21.207031 321.378906 22.898438 323.199219 24.1875 C 324.578125 25.167969 326.042969 25.078125 327.820312 23.964844 C 330.621094 22.277344 329.554688 20.054688 325.421875 18.898438 C 323.601562 18.363281 324.578125 17.5625 326.800781 17.695312 C 329.289062 17.875 329.601562 17.074219 327.601562 15.875 C 325.910156 14.894531 324.488281 14.941406 323.199219 16.007812 Z M 323.199219 16.007812 "/>
<path style=" stroke:none;fill-rule:nonzero;fill:rgb(0%,0%,0%);fill-opacity:1;" d="M 222.3125 16.09375 C 221.511719 16.894531 221.644531 21.609375 222.535156 23.164062 C 223.464844 24.765625 223.734375 24.855469 226.578125 24.542969 L 228.933594 24.320312 L 228.800781 20.054688 C 228.710938 16.628906 228.535156 15.785156 228 15.785156 C 227.511719 15.785156 227.289062 16.453125 227.199219 18.453125 C 227.066406 21.476562 226 23.34375 224.753906 22.898438 C 223.910156 22.542969 223.332031 20.1875 223.734375 18.363281 C 224.089844 16.761719 223.15625 15.25 222.3125 16.09375 Z M 222.3125 16.09375 "/>
<path style=" stroke:none;fill-rule:nonzero;fill:rgb(0%,0%,0%);fill-opacity:1;" d="M 30.222656 29.789062 C 29.246094 30.414062 30.265625 31.792969 31.734375 31.792969 C 33.554688 31.835938 33.867188 32.679688 33.554688 37.214844 C 33.289062 40.90625 33.378906 41.351562 34.089844 41.75 C 35.644531 42.550781 35.957031 41.75 36.089844 36.683594 L 36.222656 31.792969 L 37.777344 31.570312 C 38.800781 31.433594 39.378906 31.078125 39.464844 30.546875 C 39.601562 29.878906 39.199219 29.789062 36.132812 29.789062 C 34.222656 29.789062 32.265625 29.65625 31.777344 29.566406 C 31.289062 29.433594 30.578125 29.523438 30.222656 29.789062 Z M 30.222656 29.789062 "/>
<path style=" stroke:none;fill-rule:nonzero;fill:rgb(0%,0%,0%);fill-opacity:1;" d="M 40.710938 30.191406 C 40.578125 30.414062 40.710938 30.8125 41.066406 31.078125 C 41.511719 31.433594 41.777344 31.433594 42.179688 30.992188 C 42.445312 30.636719 42.535156 30.234375 42.355469 30.101562 C 41.957031 29.65625 40.976562 29.703125 40.710938 30.191406 Z M 40.710938 30.191406 "/>
<path style=" stroke:none;fill-rule:nonzero;fill:rgb(0%,0%,0%);fill-opacity:1;" d="M 70.753906 30.324219 C 70.488281 30.589844 70.222656 31.214844 70.222656 31.65625 C 70.222656 32.234375 69.867188 32.457031 69.023438 32.457031 C 67.464844 32.503906 66.179688 33.570312 65.199219 35.660156 C 64.265625 37.617188 64.667969 38.949219 66.710938 40.949219 C 67.957031 42.152344 68.265625 42.238281 70.132812 41.972656 C 71.289062 41.839844 72.398438 41.527344 72.578125 41.394531 C 72.753906 41.21875 72.84375 38.59375 72.800781 35.527344 C 72.710938 31.035156 72.535156 30.011719 72 29.878906 C 71.601562 29.835938 71.066406 30.011719 70.753906 30.324219 Z M 70.3125 35.4375 C 71.246094 36.28125 71.332031 37.171875 70.578125 38.816406 C 69.957031 40.148438 68.265625 40.460938 67.820312 39.304688 C 67.378906 38.148438 67.511719 35.792969 68.089844 35.214844 C 68.800781 34.503906 69.332031 34.546875 70.3125 35.4375 Z M 70.3125 35.4375 "/>
<path style=" stroke:none;fill-rule:nonzero;fill:rgb(0%,0%,0%);fill-opacity:1;" d="M 88.089844 31.035156 C 87.199219 32.058594 87.066406 32.546875 87.289062 34.191406 C 87.421875 35.257812 87.554688 37.4375 87.554688 38.992188 C 87.554688 41.839844 87.554688 41.839844 88.800781 41.707031 C 89.957031 41.574219 90 41.527344 89.867188 38.859375 C 89.820312 37.394531 90.042969 35.082031 90.355469 33.746094 C 90.890625 31.65625 91.15625 31.300781 92.222656 31.125 C 92.933594 30.992188 93.554688 30.636719 93.6875 30.324219 C 93.820312 29.921875 93.199219 29.789062 91.464844 29.835938 C 89.464844 29.835938 88.933594 30.011719 88.089844 31.035156 Z M 88.089844 31.035156 "/>
<path style=" stroke:none;fill-rule:nonzero;fill:rgb(0%,0%,0%);fill-opacity:1;" d="M 95.644531 30.546875 C 95.421875 30.992188 95.332031 33.703125 95.464844 36.59375 C 95.644531 41.082031 95.734375 41.839844 96.355469 41.707031 C 96.933594 41.574219 97.066406 40.726562 97.109375 36.238281 C 97.15625 33.304688 97.109375 30.636719 96.976562 30.324219 C 96.710938 29.566406 96.089844 29.65625 95.644531 30.546875 Z M 95.644531 30.546875 "/>
<path style=" stroke:none;fill-rule:nonzero;fill:rgb(0%,0%,0%);fill-opacity:1;" d="M 46.042969 32.769531 C 45.867188 32.992188 45.246094 33.125 44.753906 33.125 C 43.820312 33.125 43.777344 33.390625 43.511719 38.460938 C 43.378906 41.394531 43.332031 43.929688 43.421875 44.105469 C 43.511719 44.328125 44.089844 44.464844 44.667969 44.464844 C 45.464844 44.464844 45.734375 44.195312 45.867188 43.21875 C 45.957031 42.238281 46.222656 41.972656 47.378906 41.882812 C 48.3125 41.796875 49.289062 41.21875 50.179688 40.195312 C 51.644531 38.59375 52.445312 38.28125 52.445312 39.304688 C 52.445312 40.105469 54.976562 42.238281 55.910156 42.238281 C 57.378906 42.238281 59.867188 40.148438 60.179688 38.636719 C 60.800781 35.4375 58.710938 32.414062 55.867188 32.457031 C 54.667969 32.503906 53.109375 33.746094 52.710938 35.035156 C 52.265625 36.371094 52 36.28125 50.222656 34.238281 C 48.753906 32.503906 46.933594 31.878906 46.042969 32.769531 Z M 48.667969 37.304688 C 48.667969 39.128906 48.488281 39.792969 47.867188 40.195312 C 47.199219 40.59375 46.933594 40.507812 46.398438 39.792969 C 45.332031 38.328125 45.199219 36.992188 46 35.75 C 46.488281 34.992188 47.066406 34.679688 47.6875 34.769531 C 48.578125 34.902344 48.667969 35.171875 48.667969 37.304688 Z M 57.246094 35.214844 C 58.089844 36.058594 57.910156 38.859375 56.933594 39.75 C 56.132812 40.507812 56.042969 40.507812 55.15625 39.617188 C 53.957031 38.417969 53.867188 35.792969 55.023438 35.171875 C 56.042969 34.546875 56.621094 34.59375 57.246094 35.214844 Z M 57.246094 35.214844 "/>
<path style=" stroke:none;fill-rule:nonzero;fill:rgb(0%,0%,0%);fill-opacity:1;" d="M 75.644531 33.835938 C 74.445312 35.035156 74.222656 35.570312 74.222656 37.394531 C 74.222656 39.171875 74.445312 39.75 75.464844 40.683594 C 77.246094 42.375 78.445312 42.507812 80.222656 41.304688 C 81.910156 40.148438 82.179688 39.394531 81.023438 38.949219 C 80.621094 38.773438 79.910156 39.039062 79.332031 39.570312 C 78.089844 40.726562 77.601562 40.683594 76.710938 39.394531 C 75.777344 37.972656 76.3125 37.703125 79.464844 37.882812 C 81.957031 38.015625 82 38.015625 82.132812 36.726562 C 82.265625 35.75 81.957031 35.171875 80.667969 33.96875 C 78.621094 32.101562 77.464844 32.058594 75.644531 33.835938 Z M 79.464844 35.660156 C 79.601562 36.238281 79.332031 36.460938 78.535156 36.460938 C 76.667969 36.460938 75.910156 36.015625 76.488281 35.257812 C 77.199219 34.414062 79.289062 34.679688 79.464844 35.660156 Z M 79.464844 35.660156 "/>
<path style=" stroke:none;fill-rule:nonzero;fill:rgb(0%,0%,0%);fill-opacity:1;" d="M 100.890625 32.859375 L 99.332031 33.125 L 99.066406 36.90625 C 98.753906 41.21875 98.890625 41.796875 100.042969 41.796875 C 100.800781 41.796875 100.890625 41.441406 100.890625 38.726562 C 100.890625 35.527344 101.511719 34.324219 102.890625 34.859375 C 103.421875 35.035156 103.554688 35.882812 103.554688 38.460938 L 103.554688 41.839844 L 104.800781 41.707031 C 106 41.574219 106 41.527344 105.867188 38.773438 C 105.734375 35.394531 106.445312 33.882812 107.777344 34.859375 C 108.445312 35.347656 108.621094 36.058594 108.621094 38.503906 C 108.667969 41.261719 108.753906 41.574219 109.554688 41.574219 C 110.398438 41.574219 110.445312 41.351562 110.265625 37.839844 C 110.089844 33.035156 108.753906 31.433594 106.265625 32.992188 C 105.601562 33.390625 105.15625 33.390625 104.222656 32.992188 C 103.601562 32.679688 102.933594 32.503906 102.753906 32.503906 C 102.578125 32.546875 101.734375 32.679688 100.890625 32.859375 Z M 100.890625 32.859375 "/>
<path style=" stroke:none;fill-rule:nonzero;fill:rgb(0%,0%,0%);fill-opacity:1;" d="M 112.933594 33.835938 C 111.734375 34.992188 111.554688 35.527344 111.554688 37.527344 C 111.554688 39.75 111.644531 39.972656 113.246094 41.082031 C 115.332031 42.507812 115.820312 42.507812 117.957031 41.082031 C 119.464844 40.0625 119.601562 39.839844 118.976562 39.261719 C 118.265625 38.550781 117.777344 38.636719 116.132812 39.792969 C 115.246094 40.460938 115.109375 40.460938 114.265625 39.527344 C 112.933594 38.105469 113.511719 37.703125 116.621094 37.882812 L 119.332031 38.015625 L 119.464844 36.683594 C 119.554688 35.570312 119.289062 34.992188 118.042969 33.882812 C 116.042969 32.101562 114.667969 32.058594 112.933594 33.835938 Z M 116.800781 35.660156 C 116.933594 36.28125 116.667969 36.460938 115.601562 36.460938 C 114.222656 36.460938 113.511719 35.882812 114 35.082031 C 114.488281 34.371094 116.621094 34.816406 116.800781 35.660156 Z M 116.800781 35.660156 "/>
<path style=" stroke:none;fill-rule:nonzero;fill:rgb(0%,0%,0%);fill-opacity:1;" d="M 40.667969 33.480469 C 40.535156 33.792969 40.445312 35.75 40.535156 37.839844 C 40.667969 40.996094 40.800781 41.574219 41.464844 41.707031 C 42.179688 41.839844 42.222656 41.484375 42.132812 37.527344 C 42.042969 34.546875 41.820312 33.125 41.464844 32.992188 C 41.15625 32.902344 40.800781 33.125 40.667969 33.480469 Z M 40.667969 33.480469 "/>
<path style=" stroke:none;fill-rule:nonzero;fill:rgb(0%,0%,0%);fill-opacity:1;" d="M 91.734375 33.925781 C 91.601562 34.28125 91.554688 36.105469 91.644531 38.058594 C 91.777344 41.082031 91.910156 41.574219 92.621094 41.707031 C 93.066406 41.796875 93.601562 41.617188 93.777344 41.304688 C 94.265625 40.507812 93.734375 34.101562 93.15625 33.703125 C 92.445312 33.214844 92 33.257812 91.734375 33.925781 Z M 91.734375 33.925781 "/>
<path style=" stroke:none;fill-rule:nonzero;fill:rgb(0%,0%,0%);fill-opacity:1;" d="M 332.933594 47.308594 C 332.3125 48.066406 333.332031 49.042969 334.398438 48.644531 C 335.289062 48.285156 335.332031 47.308594 334.398438 46.953125 C 333.464844 46.597656 333.511719 46.597656 332.933594 47.308594 Z M 332.933594 47.308594 "/>
<path style=" stroke:none;fill-rule:nonzero;fill:rgb(0%,0%,0%);fill-opacity:1;" d="M 302.753906 47.664062 C 302.398438 48.019531 302.222656 50.019531 302.222656 53.667969 L 302.222656 59.136719 L 303.554688 59.136719 C 304.84375 59.136719 304.84375 59.136719 304.976562 56.113281 C 305.109375 53.265625 305.867188 52.109375 306.132812 54.332031 C 306.355469 56.246094 307.644531 59.136719 308.222656 59.136719 C 308.890625 59.136719 308.976562 58.867188 309.867188 55 C 310.179688 53.621094 310.621094 52.511719 310.890625 52.601562 C 311.109375 52.6875 311.421875 54.15625 311.554688 55.84375 C 311.777344 58.78125 311.820312 58.914062 312.890625 58.914062 L 314 58.914062 L 314.042969 53.578125 C 314.042969 50.644531 313.910156 47.976562 313.644531 47.664062 C 312.488281 46.195312 310.222656 48.199219 310.222656 50.730469 C 310.222656 51.976562 308.800781 55.132812 308.3125 55 C 307.867188 54.867188 306.222656 50.375 306.222656 49.308594 C 306.222656 47.574219 303.910156 46.507812 302.753906 47.664062 Z M 302.753906 47.664062 "/>
<path style=" stroke:none;fill-rule:nonzero;fill:rgb(0%,0%,0%);fill-opacity:1;" d="M 316.933594 50.953125 C 315.6875 51.976562 315.554688 52.332031 315.554688 54.691406 C 315.554688 57.046875 315.6875 57.402344 316.933594 58.425781 C 317.6875 59.046875 318.621094 59.582031 318.976562 59.582031 C 320 59.582031 322.667969 57.800781 322.667969 57.136719 C 322.667969 56.15625 321.644531 56.113281 320.355469 57.046875 C 319.15625 57.933594 319.109375 57.933594 318.222656 57.136719 C 316.621094 55.667969 317.066406 55.089844 319.6875 55.179688 C 323.109375 55.3125 323.820312 54.601562 322.578125 52.378906 C 321.023438 49.664062 319.066406 49.175781 316.933594 50.953125 Z M 320.222656 52.15625 C 321.332031 53 320.667969 53.800781 318.84375 53.800781 C 317.199219 53.800781 316.890625 53.132812 318.132812 52.199219 C 319.109375 51.445312 319.199219 51.445312 320.222656 52.15625 Z M 320.222656 52.15625 "/>
<path style=" stroke:none;fill-rule:nonzero;fill:rgb(0%,0%,0%);fill-opacity:1;" d="M 324.890625 50.421875 C 324.621094 50.6875 324.445312 52.734375 324.445312 55.046875 C 324.445312 59.089844 324.488281 59.179688 325.464844 59.046875 C 326.355469 58.914062 326.445312 58.691406 326.488281 55.890625 C 326.488281 53.710938 326.710938 52.6875 327.246094 52.15625 C 327.910156 51.445312 328.042969 51.488281 328.890625 52.242188 C 329.601562 52.910156 329.777344 53.578125 329.777344 56.113281 C 329.777344 58.824219 329.867188 59.136719 330.667969 59.136719 C 331.464844 59.136719 331.554688 58.824219 331.554688 55.625 C 331.554688 52.777344 331.378906 51.933594 330.621094 50.953125 C 329.820312 49.933594 329.421875 49.796875 327.511719 49.886719 C 326.265625 49.976562 325.109375 50.199219 324.890625 50.421875 Z M 324.890625 50.421875 "/>
<path style=" stroke:none;fill-rule:nonzero;fill:rgb(0%,0%,0%);fill-opacity:1;" d="M 339.378906 50.199219 C 339.246094 50.375 338.621094 50.464844 338.042969 50.375 C 336.621094 50.109375 336.355469 51.042969 336.535156 55.578125 C 336.667969 58.558594 336.753906 58.914062 337.554688 58.914062 C 338.355469 58.914062 338.445312 58.558594 338.578125 55.710938 C 338.710938 52.109375 339.332031 51.132812 340.84375 52.109375 C 341.644531 52.601562 341.777344 53.132812 341.777344 55.710938 C 341.777344 58.023438 341.957031 58.78125 342.445312 59.003906 C 343.554688 59.402344 343.6875 58.914062 343.601562 55.269531 C 343.511719 52.421875 343.332031 51.621094 342.578125 50.820312 C 341.644531 49.796875 339.820312 49.441406 339.378906 50.199219 Z M 339.378906 50.199219 "/>
<path style=" stroke:none;fill-rule:nonzero;fill:rgb(0%,0%,0%);fill-opacity:1;" d="M 346.042969 51.132812 C 344.890625 52.242188 344.710938 52.734375 344.753906 54.691406 C 344.800781 56.734375 344.976562 57.136719 346.265625 58.246094 C 348.265625 59.980469 349.246094 59.890625 351.246094 57.980469 C 352.578125 56.644531 352.890625 56.066406 352.890625 54.601562 C 352.890625 53.179688 352.578125 52.511719 351.378906 51.308594 C 349.464844 49.398438 347.820312 49.355469 346.042969 51.132812 Z M 349.511719 52.289062 C 350 52.464844 350.222656 53.132812 350.222656 54.246094 C 350.222656 56.558594 349.867188 57.355469 348.800781 57.355469 C 347.601562 57.355469 346.710938 56.113281 346.667969 54.421875 C 346.667969 52.421875 347.734375 51.621094 349.511719 52.289062 Z M 349.511719 52.289062 "/>
<path style=" stroke:none;fill-rule:nonzero;fill:rgb(0%,0%,0%);fill-opacity:1;" d="M 354.753906 50.6875 C 352.84375 52.511719 353.820312 54.554688 357.023438 55.3125 C 357.777344 55.488281 358.222656 55.890625 358.222656 56.421875 C 358.222656 57.578125 356.976562 57.933594 355.6875 57.136719 C 354.667969 56.421875 353.777344 56.558594 353.777344 57.402344 C 353.777344 58.246094 355.601562 59.582031 356.753906 59.582031 C 358.222656 59.582031 360.753906 57.890625 361.066406 56.691406 C 361.332031 55.667969 359.421875 53.84375 358 53.800781 C 356.667969 53.757812 355.820312 53.089844 356.132812 52.289062 C 356.445312 51.488281 357.15625 51.355469 357.554688 52.023438 C 357.957031 52.6875 360 52.554688 360 51.886719 C 360 49.933594 356.445312 49.132812 354.753906 50.6875 Z M 354.753906 50.6875 "/>
<path style=" stroke:none;fill-rule:nonzero;fill:rgb(0%,0%,0%);fill-opacity:1;" d="M 333.199219 50.554688 C 333.023438 50.6875 332.890625 52.734375 332.890625 55 C 332.890625 59.089844 332.933594 59.179688 333.910156 59.046875 C 334.84375 58.914062 334.890625 58.691406 334.890625 55.132812 C 334.933594 51 334.3125 49.398438 333.199219 50.554688 Z M 333.199219 50.554688 "/>
<path style=" stroke:none;fill-rule:nonzero;fill:rgb(0%,0%,0%);fill-opacity:1;" d="M 334.132812 81.144531 C 332.042969 81.988281 331.601562 83.011719 331.554688 86.96875 C 331.554688 90.171875 331.6875 90.703125 332.667969 91.773438 C 334.355469 93.59375 337.554688 93.285156 338.800781 91.148438 C 339.910156 89.28125 339.820312 84.347656 338.667969 82.703125 C 337.511719 81.101562 335.734375 80.476562 334.132812 81.144531 Z M 336.800781 86.746094 C 336.933594 90.261719 336.398438 91.460938 334.976562 90.882812 C 334.179688 90.570312 333.777344 89.328125 333.777344 86.792969 C 333.777344 84.300781 334.445312 83.058594 335.6875 83.234375 C 336.578125 83.367188 336.667969 83.679688 336.800781 86.746094 Z M 336.800781 86.746094 "/>
<path style=" stroke:none;fill-rule:nonzero;fill:rgb(0%,0%,0%);fill-opacity:1;" d="M 14.667969 81.8125 C 14.179688 82.300781 13.777344 83.011719 13.777344 83.367188 C 13.777344 83.722656 13.601562 84.390625 13.332031 84.835938 C 13.109375 85.234375 12.488281 86.570312 12 87.816406 C 11.511719 89.015625 10.890625 90.394531 10.667969 90.792969 C 10 91.949219 10.132812 92.394531 11.109375 92.707031 C 12.179688 93.0625 13.332031 92.261719 13.332031 91.195312 C 13.332031 90.792969 13.734375 89.992188 14.179688 89.414062 C 15.421875 87.816406 17.332031 88.4375 18.488281 90.839844 C 19.421875 92.792969 20.710938 93.507812 21.15625 92.304688 C 21.289062 91.949219 21.066406 90.972656 20.667969 90.171875 C 20.265625 89.371094 19.644531 87.816406 19.246094 86.703125 C 18.179688 83.546875 16.800781 80.921875 16.132812 80.921875 C 15.820312 80.921875 15.15625 81.324219 14.667969 81.8125 Z M 16.890625 86.125 C 16.890625 87.28125 16.355469 87.679688 15.378906 87.324219 C 14.488281 86.96875 14.488281 86.523438 15.421875 85.101562 C 16.222656 83.855469 16.890625 84.300781 16.890625 86.125 Z M 16.890625 86.125 "/>
<path style=" stroke:none;fill-rule:nonzero;fill:rgb(0%,0%,0%);fill-opacity:1;" d="M 47.378906 81.722656 C 47.066406 82.257812 47.066406 84.746094 47.378906 88.835938 C 47.644531 92.171875 48.355469 93.285156 49.957031 92.660156 C 50.84375 92.304688 50.890625 91.328125 50.042969 91.015625 C 49.15625 90.660156 48.753906 86.703125 49.554688 85.859375 C 50.089844 85.234375 50.089844 84.878906 49.601562 83.367188 C 49.023438 81.679688 47.910156 80.878906 47.378906 81.722656 Z M 47.378906 81.722656 "/>
<path style=" stroke:none;fill-rule:nonzero;fill:rgb(0%,0%,0%);fill-opacity:1;" d="M 326.179688 82.257812 C 324.222656 83.855469 323.554688 84.65625 323.6875 85.101562 C 323.867188 85.636719 324.488281 85.636719 326.132812 85.101562 C 327.109375 84.835938 327.109375 84.878906 326.890625 87.414062 C 326.710938 88.882812 326.535156 90.480469 326.398438 91.015625 C 326.179688 92.082031 327.464844 93.105469 328.578125 92.707031 C 329.15625 92.4375 329.199219 91.195312 328.890625 81.679688 C 328.890625 81.054688 327.246094 81.367188 326.179688 82.257812 Z M 326.179688 82.257812 "/>
<path style=" stroke:none;fill-rule:nonzero;fill:rgb(0%,0%,0%);fill-opacity:1;" d="M 31.777344 84.214844 C 29.289062 85.28125 28.621094 89.949219 30.710938 91.859375 C 32.488281 93.460938 36.890625 92.4375 36.890625 90.4375 C 36.890625 89.371094 35.957031 89.28125 34.933594 90.214844 C 33.6875 91.371094 32.621094 91.417969 32 90.261719 C 31.246094 88.835938 31.867188 88.394531 34.398438 88.570312 C 36.488281 88.703125 36.667969 88.613281 36.800781 87.636719 C 37.023438 86.082031 36.089844 84.613281 34.535156 84.035156 C 33.820312 83.8125 33.199219 83.589844 33.15625 83.589844 C 33.109375 83.636719 32.535156 83.902344 31.777344 84.214844 Z M 34.976562 86.570312 C 35.246094 87.324219 32.445312 87.816406 31.957031 87.101562 C 31.777344 86.792969 31.734375 86.347656 31.867188 86.125 C 32.179688 85.589844 34.800781 85.945312 34.976562 86.570312 Z M 34.976562 86.570312 "/>
<path style=" stroke:none;fill-rule:nonzero;fill:rgb(0%,0%,0%);fill-opacity:1;" d="M 67.246094 84.257812 C 65.734375 84.878906 65.246094 86.4375 66.222656 87.414062 C 66.535156 87.726562 66.398438 88.125 65.777344 88.703125 C 64.621094 89.726562 64.667969 90.304688 65.957031 91.726562 C 66.890625 92.707031 67.289062 92.839844 69.6875 92.707031 C 71.199219 92.617188 72.621094 92.394531 72.890625 92.261719 C 73.644531 91.816406 72.933594 85.769531 72.042969 84.835938 C 70.976562 83.769531 68.890625 83.5 67.246094 84.257812 Z M 70.132812 86.570312 C 70 87.101562 69.601562 87.324219 68.890625 87.238281 C 67.601562 87.101562 67.378906 86.925781 67.777344 86.304688 C 67.910156 86.035156 68.535156 85.8125 69.15625 85.8125 C 70 85.8125 70.265625 86.035156 70.132812 86.570312 Z M 70.179688 88.660156 C 70.976562 89.636719 70 91.238281 68.753906 91.058594 C 67.554688 90.882812 67.289062 89.726562 68.222656 88.75 C 69.109375 87.859375 69.511719 87.859375 70.179688 88.660156 Z M 70.179688 88.660156 "/>
<path style=" stroke:none;fill-rule:nonzero;fill:rgb(0%,0%,0%);fill-opacity:1;" d="M 21.777344 85.011719 C 21.777344 85.589844 22.179688 86.835938 22.621094 87.816406 C 23.066406 88.792969 23.554688 90.125 23.6875 90.792969 C 24.042969 92.128906 25.289062 93.0625 26.089844 92.570312 C 26.398438 92.394531 26.890625 91.238281 27.15625 90.039062 C 27.464844 88.792969 28 87.503906 28.3125 87.101562 C 29.066406 86.167969 29.066406 84.035156 28.265625 84.035156 C 27.378906 84.035156 26.710938 85.011719 26.3125 86.96875 C 26.132812 87.902344 25.777344 88.703125 25.601562 88.703125 C 25.378906 88.703125 24.800781 87.636719 24.3125 86.347656 C 23.6875 84.703125 23.199219 84.035156 22.621094 84.035156 C 22.042969 84.035156 21.777344 84.347656 21.777344 85.011719 Z M 21.777344 85.011719 "/>
<path style=" stroke:none;fill-rule:nonzero;fill:rgb(0%,0%,0%);fill-opacity:1;" d="M 38.535156 84.347656 C 38.355469 84.480469 38.222656 86.390625 38.222656 88.570312 L 38.222656 92.484375 L 40.84375 92.484375 L 40.976562 89.238281 C 41.109375 86.167969 41.15625 86.035156 42.222656 86.035156 C 43.289062 86.035156 43.332031 86.167969 43.464844 89.28125 C 43.601562 92.527344 43.601562 92.527344 44.800781 92.394531 C 46 92.261719 46 92.214844 45.820312 89.371094 C 45.734375 87.769531 45.378906 85.945312 45.066406 85.234375 C 44.445312 84.125 44.222656 84.035156 41.601562 84.035156 C 40.089844 84.035156 38.667969 84.167969 38.535156 84.347656 Z M 38.535156 84.347656 "/>
<path style=" stroke:none;fill-rule:nonzero;fill:rgb(0%,0%,0%);fill-opacity:1;" d="M 51.734375 84.613281 C 51.601562 84.96875 51.554688 86.613281 51.644531 88.257812 C 51.777344 90.882812 51.910156 91.371094 52.890625 92.082031 C 53.734375 92.707031 54.535156 92.792969 56.3125 92.617188 L 58.621094 92.394531 L 58.753906 88.75 C 58.933594 84.96875 58.445312 83.679688 57.15625 84.167969 C 56.578125 84.390625 56.488281 84.925781 56.710938 87.015625 C 57.023438 90.082031 56.179688 91.726562 54.800781 90.882812 C 54.179688 90.480469 54 89.769531 54 87.769531 C 53.957031 86.304688 53.820312 84.878906 53.601562 84.570312 C 53.15625 83.855469 52.042969 83.902344 51.734375 84.613281 Z M 51.734375 84.613281 "/>
<path style=" stroke:none;fill-rule:nonzero;fill:rgb(0%,0%,0%);fill-opacity:1;" d="M 60.753906 84.347656 C 60.578125 84.480469 60.445312 86.390625 60.445312 88.527344 C 60.445312 91.328125 60.621094 92.4375 61.023438 92.617188 C 62.3125 93.105469 62.800781 92.214844 62.535156 89.90625 C 62.179688 86.882812 62.535156 85.8125 63.820312 85.8125 C 64.578125 85.8125 64.890625 85.546875 64.890625 84.925781 C 64.890625 84.167969 64.578125 84.035156 62.976562 84.035156 C 61.910156 84.035156 60.890625 84.167969 60.753906 84.347656 Z M 60.753906 84.347656 "/>
<path style=" stroke:none;fill-rule:nonzero;fill:rgb(0%,0%,0%);fill-opacity:1;" d="M 13.777344 115.46875 C 11.644531 116.980469 11.15625 117.917969 11.109375 120.628906 C 11.109375 122.894531 11.246094 123.339844 12.578125 124.808594 C 13.957031 126.273438 14.265625 126.410156 16.621094 126.410156 C 18.667969 126.410156 19.332031 126.1875 20.222656 125.386719 C 22.265625 123.472656 21.023438 121.828125 18.84375 123.5625 C 18.179688 124.097656 17.109375 124.496094 16.398438 124.496094 C 15.378906 124.496094 14.976562 124.140625 14.179688 122.671875 C 13.289062 120.894531 13.289062 120.761719 14 118.894531 C 14.667969 117.117188 14.890625 116.9375 16.3125 116.9375 C 17.199219 116.9375 18.355469 117.339844 18.976562 117.828125 C 19.867188 118.492188 20.265625 118.582031 20.710938 118.226562 C 21.601562 117.472656 21.464844 116.847656 20.132812 115.738281 C 18.667969 114.449219 15.421875 114.359375 13.777344 115.46875 Z M 13.777344 115.46875 "/>
<path style=" stroke:none;fill-rule:nonzero;fill:rgb(0%,0%,0%);fill-opacity:1;" d="M 47.289062 115.382812 C 46.710938 116.847656 48.089844 117.382812 49.601562 116.269531 C 50.3125 115.691406 50.355469 115.558594 49.777344 115.160156 C 48.800781 114.535156 47.554688 114.625 47.289062 115.382812 Z M 47.289062 115.382812 "/>
<path style=" stroke:none;fill-rule:nonzero;fill:rgb(0%,0%,0%);fill-opacity:1;" d="M 58.3125 115.070312 C 58 115.292969 57.820312 115.914062 57.867188 116.539062 C 58 117.472656 57.820312 117.605469 56.222656 117.738281 C 54.753906 117.828125 54.265625 118.136719 53.378906 119.429688 L 52.3125 120.941406 L 51.511719 119.605469 C 50 117.160156 47.644531 116.761719 45.734375 118.671875 C 44.710938 119.738281 44.445312 120.363281 44.445312 121.960938 C 44.445312 124.761719 45.734375 126.273438 48.042969 126.273438 C 50.800781 126.273438 51.644531 125.609375 51.464844 123.742188 C 51.378906 122.71875 51.554688 122.050781 51.910156 121.917969 C 52.222656 121.828125 52.445312 122.140625 52.445312 122.628906 C 52.445312 123.117188 53.023438 124.140625 53.6875 124.898438 C 54.84375 126.230469 55.109375 126.320312 57.332031 126.1875 L 59.777344 126.054688 L 60.042969 120.71875 C 60.3125 114.980469 60 114.003906 58.3125 115.070312 Z M 49.6875 120.582031 C 49.820312 121.738281 49.734375 121.828125 48.265625 121.828125 C 46.890625 121.828125 46.667969 121.695312 46.667969 120.761719 C 46.667969 118.761719 49.464844 118.628906 49.6875 120.582031 Z M 57.6875 119.695312 C 58.265625 120.273438 58.398438 122.628906 57.957031 123.785156 C 57.644531 124.628906 55.957031 124.71875 55.199219 123.964844 C 54.445312 123.207031 54.535156 120.941406 55.421875 119.960938 C 56.265625 119.027344 56.933594 118.9375 57.6875 119.695312 Z M 50 123.605469 C 50 124.40625 47.6875 124.808594 47.023438 124.140625 C 46.265625 123.386719 47.109375 122.671875 48.578125 122.808594 C 49.464844 122.894531 50 123.164062 50 123.605469 Z M 50 123.605469 "/>
<path style=" stroke:none;fill-rule:nonzero;fill:rgb(0%,0%,0%);fill-opacity:1;" d="M 62.535156 115.027344 C 61.867188 115.691406 62.265625 116.492188 63.289062 116.492188 C 64.753906 116.492188 65.15625 115.78125 64.042969 115.203125 C 63.023438 114.625 62.890625 114.625 62.535156 115.027344 Z M 62.535156 115.027344 "/>
<path style=" stroke:none;fill-rule:nonzero;fill:rgb(0%,0%,0%);fill-opacity:1;" d="M 328.667969 115.25 C 327.644531 115.828125 327.109375 116.492188 327.109375 117.292969 C 327.109375 118.316406 328.488281 118.40625 329.777344 117.425781 C 331.109375 116.449219 332.179688 116.539062 332.621094 117.648438 C 333.066406 118.804688 332.089844 120.363281 329.554688 122.539062 C 326.265625 125.386719 326.445312 125.964844 330.667969 126.320312 C 334.132812 126.585938 335.554688 126.273438 335.554688 125.164062 C 335.554688 124.675781 335.023438 124.496094 333.644531 124.496094 C 332.578125 124.496094 331.554688 124.363281 331.421875 124.230469 C 331.246094 124.050781 331.777344 123.296875 332.578125 122.539062 C 334.3125 120.894531 335.554688 119.027344 335.554688 118.050781 C 335.554688 117.648438 334.976562 116.714844 334.265625 116.003906 C 332.84375 114.625 330.398438 114.269531 328.667969 115.25 Z M 328.667969 115.25 "/>
<path style=" stroke:none;fill-rule:nonzero;fill:rgb(0%,0%,0%);fill-opacity:1;" d="M 24.667969 117.78125 C 22.179688 118.851562 21.199219 121.917969 22.621094 124.230469 C 23.734375 125.964844 24.3125 126.273438 26.621094 126.273438 C 29.023438 126.273438 30.222656 124.851562 30.222656 122.007812 C 30.222656 120.226562 30 119.5625 29.199219 118.804688 C 28.042969 117.695312 25.957031 117.25 24.667969 117.78125 Z M 27.957031 120.582031 C 28.933594 122.273438 28.179688 124.230469 26.535156 124.40625 C 25.554688 124.542969 25.246094 124.320312 24.84375 123.339844 C 23.644531 120.09375 26.355469 117.695312 27.957031 120.582031 Z M 27.957031 120.582031 "/>
<path style=" stroke:none;fill-rule:nonzero;fill:rgb(0%,0%,0%);fill-opacity:1;" d="M 33.378906 117.828125 L 31.421875 118.050781 L 31.378906 122.050781 C 31.332031 125.785156 31.378906 126.054688 32.222656 126.054688 C 33.023438 126.054688 33.109375 125.695312 33.246094 123.074219 C 33.378906 120.007812 34.042969 118.804688 35.378906 119.339844 C 35.957031 119.5625 36.042969 120.140625 35.957031 122.40625 C 35.777344 125.476562 36.089844 126.273438 37.378906 126.273438 C 38.132812 126.273438 38.222656 125.964844 38.222656 122.941406 C 38.222656 120.363281 38.355469 119.515625 38.890625 119.339844 C 40.3125 118.761719 40.976562 120.050781 40.800781 123.117188 C 40.667969 125.785156 40.753906 126.054688 41.554688 126.054688 C 42.3125 126.054688 42.445312 125.695312 42.578125 123.386719 C 42.84375 118.183594 42 116.894531 38.84375 117.78125 C 38.132812 117.960938 37.066406 118.003906 36.445312 117.871094 C 35.820312 117.695312 34.445312 117.695312 33.378906 117.828125 Z M 33.378906 117.828125 "/>
<path style=" stroke:none;fill-rule:nonzero;fill:rgb(0%,0%,0%);fill-opacity:1;" d="M 67.289062 117.828125 C 66.089844 118.316406 65.601562 119.515625 66.265625 120.316406 C 66.976562 121.160156 67.421875 121.074219 67.6875 120.050781 C 67.910156 119.160156 69.6875 118.804688 70.355469 119.472656 C 70.84375 119.960938 69.734375 120.941406 68.667969 120.941406 C 68.089844 120.941406 67.023438 121.429688 66.3125 122.050781 C 65.554688 122.671875 64.890625 123.164062 64.753906 123.164062 C 64.578125 123.164062 64.445312 122.007812 64.355469 120.582031 C 64.222656 118.316406 64.132812 118.050781 63.199219 117.917969 C 62.222656 117.78125 62.179688 117.828125 62.3125 121.875 C 62.445312 126.320312 62.84375 126.988281 64.398438 125.339844 L 65.289062 124.363281 L 66.089844 125.339844 C 66.800781 126.230469 67.246094 126.320312 70 126.1875 L 73.109375 126.054688 L 72.976562 122.71875 C 72.84375 119.828125 72.667969 119.25 71.734375 118.359375 C 70.578125 117.339844 68.933594 117.160156 67.289062 117.828125 Z M 70.222656 122.050781 C 71.109375 123.117188 70.355469 124.496094 68.84375 124.496094 C 67.378906 124.496094 67.246094 124.050781 68.265625 122.496094 C 69.109375 121.207031 69.464844 121.117188 70.222656 122.050781 Z M 70.222656 122.050781 "/>
<path style=" stroke:none;fill-rule:nonzero;fill:rgb(0%,0%,0%);fill-opacity:1;" d="M 11.734375 149.886719 C 11.332031 150.550781 11.332031 159.800781 11.734375 160.46875 C 11.910156 160.734375 13.332031 160.957031 15.332031 160.957031 C 18.179688 160.957031 18.753906 160.824219 19.601562 159.933594 C 20.933594 158.554688 21.332031 157.265625 21.332031 154.507812 C 21.332031 152.417969 21.15625 151.886719 20 150.730469 C 18.800781 149.484375 18.488281 149.394531 15.378906 149.394531 C 13.378906 149.394531 11.910156 149.617188 11.734375 149.886719 Z M 18.179688 152.0625 C 18.933594 152.6875 19.199219 153.441406 19.246094 155.042969 C 19.332031 157.84375 18.132812 159.3125 15.957031 159.089844 L 14.445312 158.957031 L 14.3125 155.664062 C 14.222656 153.84375 14.265625 152.109375 14.398438 151.753906 C 14.753906 150.863281 17.066406 151.042969 18.179688 152.0625 Z M 18.179688 152.0625 "/>
<path style=" stroke:none;fill-rule:nonzero;fill:rgb(0%,0%,0%);fill-opacity:1;" d="M 57.199219 149.664062 C 56.710938 150.152344 56.84375 160.421875 57.332031 160.734375 C 57.601562 160.867188 58.179688 160.867188 58.667969 160.734375 C 59.464844 160.46875 59.554688 160.066406 59.511719 157.578125 C 59.421875 154.507812 59.820312 153.664062 61.15625 153.929688 C 61.867188 154.066406 62.042969 154.597656 62.222656 157.398438 C 62.445312 160.644531 62.535156 160.777344 64 160.554688 C 64.265625 160.554688 64.445312 160.023438 64.445312 159.398438 C 64.445312 158.6875 64.710938 158.289062 65.109375 158.289062 C 65.464844 158.289062 65.777344 158.464844 65.777344 158.734375 C 65.777344 159.800781 67.601562 160.957031 69.332031 160.957031 C 71.867188 160.957031 73.332031 159.398438 73.332031 156.554688 C 73.332031 154.820312 73.109375 154.242188 72.089844 153.265625 C 70.089844 151.351562 67.15625 151.664062 65.957031 153.886719 C 65.109375 155.53125 64.132812 155.53125 63.777344 153.84375 C 63.554688 152.863281 63.199219 152.507812 62.535156 152.464844 C 59.867188 152.332031 59.777344 152.285156 59.554688 150.953125 C 59.332031 149.664062 57.957031 148.90625 57.199219 149.664062 Z M 70.3125 154.597656 C 71.289062 155.488281 71.378906 157.53125 70.398438 158.464844 C 69.511719 159.355469 68.710938 159.355469 68 158.464844 C 66.84375 157.132812 67.601562 153.84375 69.023438 153.84375 C 69.289062 153.84375 69.867188 154.152344 70.3125 154.597656 Z M 70.3125 154.597656 "/>
<path style=" stroke:none;fill-rule:nonzero;fill:rgb(0%,0%,0%);fill-opacity:1;" d="M 96.445312 150.019531 C 96 150.597656 96.042969 150.773438 96.621094 150.996094 C 97.601562 151.351562 98.800781 150.863281 98.578125 150.152344 C 98.265625 149.351562 97.109375 149.261719 96.445312 150.019531 Z M 96.445312 150.019531 "/>
<path style=" stroke:none;fill-rule:nonzero;fill:rgb(0%,0%,0%);fill-opacity:1;" d="M 126.488281 149.929688 C 126.355469 150.242188 126.222656 150.90625 126.132812 151.398438 C 126.042969 152.0625 125.601562 152.285156 124.445312 152.375 C 123.332031 152.417969 122.621094 152.773438 121.910156 153.707031 C 119.554688 156.597656 121.644531 160.957031 125.332031 160.957031 C 128.753906 160.957031 128.890625 160.734375 128.753906 154.820312 C 128.667969 149.796875 128.621094 149.617188 127.644531 149.484375 C 127.109375 149.394531 126.578125 149.617188 126.488281 149.929688 Z M 126.265625 155.042969 C 127.246094 157.667969 125.15625 160.46875 123.6875 158.464844 C 122.976562 157.53125 122.976562 156.511719 123.554688 155 C 124.132812 153.441406 125.644531 153.488281 126.265625 155.042969 Z M 126.265625 155.042969 "/>
<path style=" stroke:none;fill-rule:nonzero;fill:rgb(0%,0%,0%);fill-opacity:1;" d="M 328.222656 150.863281 C 327.910156 151.664062 327.554688 152.910156 327.464844 153.664062 C 327.332031 154.953125 327.332031 154.953125 329.644531 154.953125 C 332.398438 154.953125 333.023438 155.441406 332.800781 157.445312 C 332.621094 159.3125 331.644531 159.578125 329.820312 158.242188 C 327.554688 156.597656 326.042969 158.15625 328.089844 160.066406 C 329.511719 161.355469 332.976562 161.3125 334.265625 159.933594 C 335.464844 158.6875 336.089844 157.042969 335.777344 156.066406 C 335.378906 154.820312 333.511719 153.308594 331.910156 152.996094 C 329.6875 152.554688 330 151.441406 332.445312 151.261719 C 336.578125 150.953125 335.734375 149.394531 331.421875 149.394531 C 328.933594 149.394531 328.84375 149.441406 328.222656 150.863281 Z M 328.222656 150.863281 "/>
<path style=" stroke:none;fill-rule:nonzero;fill:rgb(0%,0%,0%);fill-opacity:1;" d="M 24.800781 152.417969 C 23.601562 152.953125 22.222656 155 22.222656 156.289062 C 22.222656 157.800781 23.332031 159.933594 24.398438 160.511719 C 25.777344 161.222656 27.777344 161.046875 29.066406 160.023438 C 30.398438 159 30.535156 158.066406 29.511719 157.488281 C 28.84375 157.132812 28.84375 157.042969 29.511719 156.820312 C 30.488281 156.421875 30.398438 154.730469 29.332031 153.488281 C 28.445312 152.417969 26.089844 151.839844 24.800781 152.417969 Z M 27.734375 154.507812 C 27.867188 154.910156 27.601562 155.53125 27.109375 155.933594 C 25.957031 156.910156 26 157.398438 27.15625 157.398438 C 28.445312 157.398438 28.089844 158.910156 26.710938 159.089844 C 25.332031 159.3125 24.667969 158.601562 25.246094 157.578125 C 25.554688 157.042969 25.554688 156.464844 25.246094 155.933594 C 25.023438 155.488281 24.933594 154.820312 25.066406 154.464844 C 25.378906 153.621094 27.378906 153.664062 27.734375 154.507812 Z M 27.734375 154.507812 "/>
<path style=" stroke:none;fill-rule:nonzero;fill:rgb(0%,0%,0%);fill-opacity:1;" d="M 32.621094 152.507812 C 30.355469 153.398438 30.84375 156.109375 33.378906 156.953125 C 36.710938 158.066406 36.535156 159.621094 33.15625 159 C 32.089844 158.777344 31.601562 158.867188 31.421875 159.355469 C 31.023438 160.378906 32.042969 160.957031 34.222656 160.957031 C 35.820312 160.957031 36.535156 160.734375 37.289062 159.890625 C 38.800781 158.289062 38.355469 157.355469 35.421875 155.933594 C 32.578125 154.554688 32.445312 153.574219 35.109375 154.019531 C 36.3125 154.199219 36.84375 154.109375 37.023438 153.664062 C 37.554688 152.285156 34.933594 151.574219 32.621094 152.507812 Z M 32.621094 152.507812 "/>
<path style=" stroke:none;fill-rule:nonzero;fill:rgb(0%,0%,0%);fill-opacity:1;" d="M 40.578125 152.730469 C 38.355469 154.285156 38.355469 158.734375 40.578125 160.289062 C 41.820312 161.132812 44 161.132812 45.246094 160.246094 C 46.265625 159.535156 46.535156 158.109375 45.734375 157.621094 C 45.421875 157.398438 45.511719 157.042969 46 156.511719 C 46.535156 155.933594 46.578125 155.488281 46.265625 154.597656 C 45.378906 152.332031 42.535156 151.351562 40.578125 152.730469 Z M 43.957031 154.242188 C 44.667969 154.6875 44.179688 156.597656 43.378906 156.421875 C 43.109375 156.332031 42.753906 156.464844 42.667969 156.730469 C 42.535156 156.953125 42.890625 157.222656 43.464844 157.308594 C 45.023438 157.53125 44.535156 158.910156 42.84375 159.089844 L 41.421875 159.222656 L 41.421875 156.867188 C 41.421875 155.578125 41.511719 154.375 41.644531 154.152344 C 41.910156 153.707031 43.199219 153.753906 43.957031 154.242188 Z M 43.957031 154.242188 "/>
<path style=" stroke:none;fill-rule:nonzero;fill:rgb(0%,0%,0%);fill-opacity:1;" d="M 48.578125 152.554688 C 48 152.730469 47.820312 153.53125 47.734375 156.644531 C 47.644531 160.15625 47.734375 160.511719 48.535156 160.777344 C 49.867188 161.179688 50.179688 160.601562 50.3125 157.175781 C 50.445312 154.199219 50.488281 154.066406 51.554688 154.066406 C 52.621094 154.066406 52.667969 154.199219 52.800781 157.175781 C 52.933594 160.601562 53.246094 161.179688 54.621094 160.734375 C 55.378906 160.511719 55.554688 160.113281 55.554688 158.601562 C 55.554688 156.644531 54.933594 154.066406 54.222656 152.953125 C 53.820312 152.285156 50.089844 152.019531 48.578125 152.554688 Z M 48.578125 152.554688 "/>
<path style=" stroke:none;fill-rule:nonzero;fill:rgb(0%,0%,0%);fill-opacity:1;" d="M 79.378906 152.996094 C 77.957031 154.109375 77.910156 155 79.199219 155.308594 C 80.179688 155.578125 80.179688 155.578125 78.976562 156.6875 C 77.554688 158.023438 77.464844 158.867188 78.667969 160.066406 C 79.421875 160.824219 80 160.957031 82.398438 160.777344 C 83.957031 160.691406 85.464844 160.511719 85.6875 160.332031 C 86.222656 160.023438 85.910156 155.53125 85.246094 153.753906 C 84.535156 151.886719 81.332031 151.441406 79.378906 152.996094 Z M 83.332031 154.730469 C 83.332031 155.132812 82.84375 155.441406 82.132812 155.53125 C 80.933594 155.664062 80.445312 154.910156 81.199219 154.109375 C 81.734375 153.574219 83.332031 154.019531 83.332031 154.730469 Z M 83.464844 158.023438 C 83.378906 158.734375 83.023438 158.957031 82.042969 158.957031 C 80.398438 158.957031 80.179688 158.289062 81.378906 157.042969 C 82.132812 156.199219 82.445312 156.109375 82.933594 156.554688 C 83.289062 156.867188 83.554688 157.53125 83.464844 158.023438 Z M 83.464844 158.023438 "/>
<path style=" stroke:none;fill-rule:nonzero;fill:rgb(0%,0%,0%);fill-opacity:1;" d="M 87.6875 152.640625 C 87.332031 153.265625 87.378906 160.46875 87.734375 160.867188 C 87.910156 161 88.398438 160.910156 88.800781 160.691406 C 89.378906 160.289062 89.511719 159.667969 89.421875 157.800781 C 89.246094 154.953125 90 153.574219 91.464844 154.019531 C 92.3125 154.285156 92.398438 154.730469 92.535156 157.53125 C 92.667969 160.378906 92.753906 160.734375 93.554688 160.734375 C 94.355469 160.734375 94.445312 160.421875 94.445312 157.089844 C 94.398438 154.863281 94.222656 153.21875 93.867188 152.863281 C 93.246094 152.242188 88.042969 152.0625 87.6875 152.640625 Z M 87.6875 152.640625 "/>
<path style=" stroke:none;fill-rule:nonzero;fill:rgb(0%,0%,0%);fill-opacity:1;" d="M 101.6875 152.417969 L 99.554688 152.554688 L 99.554688 156.511719 C 99.554688 160.511719 99.777344 161.179688 101.109375 160.691406 C 101.6875 160.46875 101.777344 160.023438 101.511719 158.464844 C 101.199219 156.375 101.957031 153.84375 102.84375 153.84375 C 104.222656 153.886719 104.578125 154.644531 104.355469 157.355469 C 104.132812 160.246094 104.667969 161.3125 106 160.777344 C 106.578125 160.554688 106.667969 160.113281 106.445312 158.554688 C 106.265625 157.488281 106.265625 155.976562 106.445312 155.175781 C 106.667969 154.066406 106.933594 153.796875 107.6875 153.929688 C 108.578125 154.066406 108.667969 154.375 108.800781 157.308594 C 108.933594 160.734375 109.601562 161.757812 110.933594 160.421875 C 111.464844 159.933594 111.511719 159.132812 111.289062 156.820312 C 110.890625 152.640625 110.535156 152.285156 106.800781 152.285156 C 105.15625 152.285156 102.84375 152.332031 101.6875 152.417969 Z M 101.6875 152.417969 "/>
<path style=" stroke:none;fill-rule:nonzero;fill:rgb(0%,0%,0%);fill-opacity:1;" d="M 113.464844 153.21875 L 112.3125 154.375 L 113.246094 155.132812 L 114.222656 155.84375 L 113.289062 156.644531 C 112.578125 157.308594 112.398438 157.800781 112.621094 158.867188 C 112.753906 159.621094 113.15625 160.378906 113.464844 160.601562 C 113.867188 160.867188 116.800781 160.824219 119.644531 160.554688 C 119.820312 160.511719 119.867188 158.957031 119.734375 157.042969 C 119.511719 154.375 119.246094 153.441406 118.578125 152.820312 C 117.199219 151.664062 114.84375 151.839844 113.464844 153.21875 Z M 117.601562 154.332031 C 117.777344 154.644531 117.554688 155.042969 117.15625 155.265625 C 116.265625 155.753906 116.222656 156.511719 117.15625 156.511719 C 117.644531 156.511719 117.777344 156.867188 117.6875 157.710938 C 117.554688 159 116.265625 159.535156 114.800781 159 C 114.265625 158.777344 114.265625 158.511719 115.066406 157.222656 C 115.867188 155.933594 115.910156 155.664062 115.332031 155.441406 C 114.976562 155.308594 114.667969 154.910156 114.667969 154.507812 C 114.667969 153.707031 117.109375 153.574219 117.601562 154.332031 Z M 117.601562 154.332031 "/>
<path style=" stroke:none;fill-rule:nonzero;fill:rgb(0%,0%,0%);fill-opacity:1;" d="M 131.289062 153.085938 C 130.265625 153.976562 130.042969 154.507812 130.042969 156.421875 C 130 158.242188 130.222656 158.910156 131.109375 159.84375 C 132.089844 160.910156 132.488281 161 134.3125 160.824219 C 137.023438 160.601562 138.179688 159.3125 138.222656 156.597656 C 138.222656 152.730469 134.132812 150.683594 131.289062 153.085938 Z M 134.84375 154.554688 C 135.734375 155.398438 135.777344 158.023438 134.890625 158.734375 C 134 159.445312 132.488281 158.867188 132 157.578125 C 131.332031 155.933594 132.265625 154.066406 133.867188 153.886719 C 134.042969 153.84375 134.488281 154.152344 134.84375 154.554688 Z M 134.84375 154.554688 "/>
<path style=" stroke:none;fill-rule:nonzero;fill:rgb(0%,0%,0%);fill-opacity:1;" d="M 96.535156 156.597656 C 96.621094 159.933594 96.800781 160.734375 97.332031 160.734375 C 97.867188 160.734375 98.042969 159.933594 98.132812 156.597656 C 98.265625 152.730469 98.222656 152.507812 97.332031 152.507812 C 96.445312 152.507812 96.398438 152.730469 96.535156 156.597656 Z M 96.535156 156.597656 "/>
<path style=" stroke:none;fill-rule:nonzero;fill:rgb(0%,0%,0%);fill-opacity:1;" d="M 10.667969 183.410156 C 10.042969 184.167969 11.421875 185.011719 12.976562 184.832031 C 14 184.742188 14 184.832031 14.042969 188.96875 C 14.179688 195.238281 14.042969 194.835938 15.464844 194.660156 L 16.667969 194.527344 L 16.890625 189.636719 L 17.109375 184.742188 L 18.3125 184.742188 C 19.867188 184.699219 20.933594 183.765625 20.042969 183.230469 C 18.976562 182.566406 11.246094 182.742188 10.667969 183.410156 Z M 10.667969 183.410156 "/>
<path style=" stroke:none;fill-rule:nonzero;fill:rgb(0%,0%,0%);fill-opacity:1;" d="M 330.535156 185.054688 C 329.910156 186.121094 329.023438 187.367188 328.535156 187.902344 C 326.179688 190.390625 326.488281 192.082031 329.332031 192.082031 C 330.800781 192.082031 331.066406 192.257812 331.511719 193.414062 C 332.355469 195.859375 334.355469 194.660156 334.265625 191.769531 C 334.222656 190.835938 334.132812 188.566406 334.089844 186.746094 C 334 183.5 333.957031 183.410156 332.84375 183.277344 C 331.867188 183.144531 331.464844 183.453125 330.535156 185.054688 Z M 331.554688 188.96875 C 331.554688 189.992188 330.753906 190.570312 330.132812 189.945312 C 329.820312 189.636719 329.867188 189.191406 330.222656 188.566406 C 330.800781 187.5 331.554688 187.722656 331.554688 188.96875 Z M 331.554688 188.96875 "/>
<path style=" stroke:none;fill-rule:nonzero;fill:rgb(0%,0%,0%);fill-opacity:1;" d="M 22.398438 186.390625 C 20.578125 187.769531 20.445312 188.035156 20.445312 190.390625 C 20.445312 192.257812 20.621094 192.613281 22.089844 193.816406 C 24.976562 196.214844 27.246094 195.238281 28 191.28125 C 28.488281 188.613281 28.222656 187.769531 26.398438 186.34375 C 24.890625 185.144531 24 185.1875 22.398438 186.390625 Z M 25.554688 187.8125 C 26.710938 188.65625 26.132812 189.855469 24.488281 189.855469 C 22.800781 189.855469 22.355469 189.144531 23.378906 188.035156 C 24.265625 187.011719 24.488281 187.011719 25.554688 187.8125 Z M 26.445312 191.589844 C 26.84375 192.257812 25.023438 193.015625 23.777344 192.703125 C 21.957031 192.257812 22.398438 191.191406 24.398438 191.191406 C 25.378906 191.191406 26.265625 191.367188 26.445312 191.589844 Z M 26.445312 191.589844 "/>
<path style=" stroke:none;fill-rule:nonzero;fill:rgb(0%,0%,0%);fill-opacity:1;" d="M 31.6875 185.765625 L 29.777344 185.898438 L 29.777344 190.125 C 29.777344 193.59375 29.910156 194.394531 30.488281 194.613281 C 31.554688 195.015625 32.042969 193.859375 31.777344 191.589844 C 31.464844 188.835938 32.132812 187.101562 33.464844 187.277344 C 34.355469 187.410156 34.445312 187.679688 34.667969 190.96875 C 34.84375 193.992188 35.023438 194.527344 35.734375 194.660156 C 36.933594 194.925781 37.332031 193.949219 37.066406 191.367188 C 36.753906 188.746094 37.378906 187.191406 38.710938 187.191406 C 39.332031 187.191406 39.554688 186.921875 39.464844 186.433594 C 39.378906 185.855469 38.800781 185.679688 36.445312 185.679688 C 34.84375 185.632812 32.710938 185.679688 31.6875 185.765625 Z M 31.6875 185.765625 "/>
<path style=" stroke:none;fill-rule:nonzero;fill:rgb(0%,0%,0%);fill-opacity:1;" d="M 41.820312 186.34375 C 40.535156 187.367188 39.554688 189.144531 39.554688 190.390625 C 39.554688 192.523438 42 195.191406 43.957031 195.191406 C 45.246094 195.191406 48 192.390625 48 191.101562 C 48 188.65625 47.464844 187.367188 46.042969 186.390625 C 44.265625 185.1875 43.199219 185.1875 41.820312 186.34375 Z M 44.976562 187.945312 C 46.132812 188.96875 46.089844 191.902344 44.890625 192.523438 C 44.265625 192.882812 43.734375 192.882812 43.109375 192.523438 C 42 191.945312 41.867188 188.921875 42.933594 187.902344 C 43.777344 187.011719 43.957031 187.011719 44.976562 187.945312 Z M 44.976562 187.945312 "/>
<path style=" stroke:none;fill-rule:nonzero;fill:rgb(0%,0%,0%);fill-opacity:1;" d="M 50.398438 185.722656 C 49.066406 185.898438 48.976562 185.988281 48.800781 188.210938 C 48.535156 191.679688 48.890625 194.347656 49.6875 194.613281 C 50.753906 195.058594 51.511719 193.59375 51.246094 191.636719 C 50.890625 188.96875 51.332031 187.769531 52.890625 187.5 C 54.890625 187.101562 54.355469 185.1875 52.3125 185.5 C 52 185.5 51.15625 185.632812 50.398438 185.722656 Z M 50.398438 185.722656 "/>
</g>
</svg>
