<?xml version="1.0" encoding="UTF-8" standalone="no"?>
<svg
   xmlns:dc="http://purl.org/dc/elements/1.1/"
   xmlns:cc="http://creativecommons.org/ns#"
   xmlns:rdf="http://www.w3.org/1999/02/22-rdf-syntax-ns#"
   xmlns:svg="http://www.w3.org/2000/svg"
   xmlns="http://www.w3.org/2000/svg"
   xmlns:sodipodi="http://sodipodi.sourceforge.net/DTD/sodipodi-0.dtd"
   xmlns:inkscape="http://www.inkscape.org/namespaces/inkscape"
   version="1.0"
   width="500.14294"
   height="327.15881"
   viewBox="0 0 400.11436 261.72705"
   preserveAspectRatio="xMidYMid meet"
   id="svg3059"
   inkscape:version="0.48.4 r9939"
   sodipodi:docname="c416d223f9a50664f090e6c643df693d4a90efa4.svg">
  <defs
     id="defs3087" />
  <sodipodi:namedview
     pagecolor="#ffffff"
     bordercolor="#666666"
     borderopacity="1"
     objecttolerance="10"
     gridtolerance="10"
     guidetolerance="10"
     inkscape:pageopacity="0"
     inkscape:pageshadow="2"
     inkscape:window-width="1600"
     inkscape:window-height="824"
     id="namedview3085"
     showgrid="false"
     inkscape:zoom="0.45178261"
     inkscape:cx="185.22222"
     inkscape:cy="445.58822"
     inkscape:window-x="0"
     inkscape:window-y="24"
     inkscape:window-maximized="1"
     inkscape:current-layer="svg3059"
     fit-margin-top="0"
     fit-margin-left="0"
     fit-margin-right="0"
     fit-margin-bottom="0" />
  <metadata
     id="metadata3061">
Created by potrace 1.10, written by Peter Selinger 2001-2011
<rdf:RDF>
  <cc:Work
     rdf:about="">
    <dc:format>image/svg+xml</dc:format>
    <dc:type
       rdf:resource="http://purl.org/dc/dcmitype/StillImage" />
  </cc:Work>
</rdf:RDF>
</metadata>
  <g
     transform="matrix(0.04583661,0,0,-0.04583661,-2.2918305,264.01887)"
     id="g3063"
     style="fill:#000000;stroke:none">
    <path
       d="M 57,5753 C 53,5750 50,4465 50,2899 L 50,50 4405,51 c 3986,0 4356,1 4362,16 3,9 2,23 -4,32 -9,14 -46,15 -327,12 l -316,-3 2,287 3,287 285,-2 c 157,-1 298,-3 314,-4 32,-1 53,22 43,48 -6,15 -35,17 -322,15 -174,0 -318,1 -321,4 -3,2 -5,130 -5,283 l -1,279 314,-3 c 261,-3 316,-1 332,11 19,14 19,15 -5,28 -20,12 -80,13 -334,9 -263,-4 -312,-3 -322,9 -10,11 -13,83 -13,282 0,250 1,268 20,291 10,14 17,28 14,31 -8,8 -4,591 4,597 4,3 144,3 312,-1 300,-7 330,-4 330,25 -1,37 -10,38 -299,36 -160,0 -293,-5 -308,-11 -20,-7 -29,-6 -35,3 -4,7 -8,147 -7,310 1,256 -2,300 -15,320 -14,19 -16,63 -16,305 0,249 2,283 16,291 15,8 15,10 0,15 -14,6 -16,38 -16,285 0,263 1,281 20,304 14,19 18,33 12,54 -9,35 0,580 10,589 3,4 15,2 25,-3 10,-5 148,-11 307,-13 l 289,-4 10,22 c 7,16 6,27 -4,39 -12,15 -42,16 -299,11 -157,-4 -296,-8 -310,-9 l -25,-3 -5,275 c -3,151 -3,283 -1,293 4,18 20,19 322,16 331,-3 359,0 329,36 -11,13 -455,15 -4360,15 -2390,0 -4350,-3 -4353,-7 z m 648,-54 c 11,-16 7,-551 -4,-562 -15,-15 -583,-10 -593,5 -4,7 -8,124 -8,260 0,135 -3,253 -6,261 -3,8 2,22 11,31 14,14 52,16 305,16 196,0 291,-3 295,-11 z m 667,6 c 10,-4 13,-60 11,-286 -1,-155 -4,-284 -7,-286 -2,-2 -136,-4 -296,-4 -205,0 -295,3 -300,11 -4,6 -5,100 -2,208 2,108 0,227 -5,264 -5,38 -6,74 -1,82 8,14 47,16 298,16 158,0 294,-2 302,-5 z m 674,-6 c 10,-16 5,-552 -6,-562 -8,-9 -588,-12 -597,-4 -7,8 -6,554 1,566 10,16 592,16 602,0 z m 667,-279 c -1,-157 -2,-287 -2,-290 -1,-3 -134,-5 -296,-5 -251,0 -296,2 -300,15 -9,21 -8,547 0,560 4,7 100,9 303,8 l 297,-3 -2,-285 z m 671,275 c 12,-12 13,-22 5,-43 -6,-16 -10,-119 -8,-265 1,-148 -1,-241 -8,-248 -12,-12 -582,-14 -594,-2 -11,11 -15,546 -4,562 4,8 100,11 300,11 250,0 296,-2 309,-15 z m 674,-269 c 1,-154 -2,-284 -7,-289 -9,-9 -590,-12 -599,-2 -4,3 -5,104 -4,223 2,119 -1,241 -6,270 -15,86 -27,83 316,80 l 297,-3 3,-279 z m 655,272 c 14,-12 15,-23 6,-93 -7,-46 -9,-161 -6,-272 3,-116 1,-195 -4,-199 -17,-10 -599,-10 -599,1 -1,23 -2,561 -1,568 1,4 133,7 294,7 219,0 297,-3 310,-12 z m 675,-263 c 1,-148 0,-279 -2,-290 -5,-19 -13,-20 -297,-18 -161,1 -296,6 -301,11 -13,13 -16,561 -3,566 6,3 143,4 305,3 l 295,-2 3,-270 z m 654,270 c 10,-4 13,-59 11,-282 -1,-152 -6,-280 -11,-285 -9,-9 -580,-14 -588,-5 -4,4 -8,543 -5,570 1,8 571,10 593,2 z m 683,-288 0,-289 -299,1 c -164,0 -300,2 -303,5 -4,3 -7,540 -4,569 1,4 137,6 304,5 l 302,-3 0,-288 z m 659,280 c 15,-11 16,-18 6,-62 -7,-32 -10,-132 -8,-272 1,-122 0,-225 -4,-228 -11,-11 -598,-11 -598,0 -1,23 -2,561 -1,568 1,4 133,7 294,7 222,0 297,-3 311,-13 z m 672,2 c 10,-16 5,-552 -5,-562 -11,-11 -582,-10 -593,1 -10,10 -14,545 -4,561 10,15 592,15 602,0 z M 4438,5071 c 144,1 266,-1 269,-5 4,-4 8,-114 8,-244 0,-203 2,-241 17,-267 l 17,-30 16,39 c 14,33 16,74 14,263 -2,144 1,227 8,234 15,15 591,18 597,3 2,-6 6,-138 7,-294 3,-249 1,-283 -13,-291 -9,-5 -294,-8 -649,-6 l -634,2 3,30 c 2,17 5,148 7,293 2,145 6,270 9,278 4,11 11,12 33,3 18,-6 125,-10 291,-8 z m 2675,0 c 141,1 260,-1 264,-4 3,-4 6,-114 7,-244 1,-180 4,-244 14,-262 13,-22 15,-22 30,-7 15,15 17,48 18,257 1,149 6,245 12,251 11,11 574,14 592,3 6,-4 10,-95 10,-249 0,-158 4,-255 12,-276 10,-30 9,-35 -11,-51 -22,-18 -59,-19 -656,-19 -720,0 -646,-11 -633,95 4,33 7,159 6,280 -1,122 1,226 5,232 5,8 17,9 40,2 17,-5 147,-9 290,-8 z m -6409,-7 c 9,-24 10,-564 0,-574 -6,-6 -34,-6 -79,2 -43,6 -154,9 -287,6 -144,-3 -221,-1 -228,6 -13,13 -14,548 0,562 14,14 589,12 594,-2 z m 674,2 c 3,-3 5,-115 6,-248 1,-178 5,-251 14,-273 13,-29 14,-29 25,-10 8,14 13,99 14,273 1,140 4,256 7,259 8,9 588,5 597,-4 4,-4 9,-124 11,-265 3,-265 10,-309 40,-257 10,18 14,85 15,263 2,132 5,247 8,255 4,14 41,16 300,16 162,0 295,-2 296,-5 0,-3 2,-122 3,-265 2,-143 7,-269 10,-281 5,-14 2,-27 -9,-38 -15,-14 -51,-16 -311,-16 -178,0 -303,4 -314,10 -13,7 -21,7 -25,0 -4,-6 -121,-10 -320,-10 -199,0 -316,4 -320,10 -4,7 -12,7 -25,0 -11,-6 -135,-10 -313,-10 -274,0 -296,1 -318,19 -22,17 -22,20 -9,47 12,23 15,79 15,274 1,135 4,250 7,255 6,10 585,11 596,1 z m 1995,-5 c 6,-6 9,-95 8,-241 -2,-222 6,-300 29,-300 29,0 35,50 36,293 0,136 3,250 6,253 3,3 140,5 304,6 l 299,0 5,-273 c 3,-151 8,-279 13,-286 4,-6 4,-18 1,-27 -5,-14 -41,-16 -309,-16 -289,0 -303,1 -328,20 -24,19 -28,20 -50,6 -19,-13 -34,-14 -82,-6 -77,13 -382,13 -458,0 -32,-5 -63,-7 -70,-4 -14,5 -12,561 3,578 11,15 578,12 593,-3 z m 2674,5 c 3,-3 5,-113 4,-243 0,-131 3,-255 8,-275 14,-60 -1,-72 -74,-59 -70,13 -414,14 -468,2 -50,-12 -55,-18 -34,-39 16,-15 44,-17 255,-17 179,0 245,3 270,14 29,12 35,12 52,-4 19,-17 20,-32 20,-291 0,-203 -3,-275 -12,-280 -7,-4 -138,-9 -293,-10 -154,-1 -296,-3 -315,-5 l -35,-4 -3,284 c -2,278 -2,285 19,307 13,14 18,27 13,35 -8,14 -9,573 -1,586 6,9 585,8 594,-1 z m 683,-288 c 3,-161 4,-296 2,-300 -2,-5 -137,-8 -301,-8 -270,0 -301,2 -321,18 -19,16 -20,20 -8,47 9,22 13,98 14,276 1,136 4,251 7,255 3,5 139,8 304,7 l 298,-1 5,-294 z m -5992,-641 -3,-282 -35,3 c -19,2 -159,5 -310,8 -151,2 -277,7 -282,12 -8,8 -13,540 -5,549 3,2 126,5 274,6 235,2 272,4 294,19 23,16 25,16 47,-8 22,-25 22,-27 20,-307 z m 2112,302 c 60,-15 429,-10 474,6 46,16 73,7 81,-28 3,-12 4,-143 3,-292 l -3,-270 -35,3 c -129,11 -492,12 -544,2 -42,-8 -61,-9 -70,0 -7,7 -10,95 -7,288 2,237 5,280 19,295 9,10 22,15 31,11 9,-3 32,-10 51,-15 z m -260,-109 29,-21 5,-227 c 2,-125 5,-234 6,-242 1,-8 -1,-255 -4,-547 -6,-599 -3,-575 -78,-587 -23,-4 -278,-7 -566,-7 l -524,1 -42,-25 c -41,-24 -90,-76 -114,-122 -8,-15 -12,-161 -12,-510 0,-466 -4,-551 -30,-577 -7,-7 -72,-12 -181,-14 -196,-4 -202,-2 -214,74 -3,25 -6,561 -6,1192 0,1742 -2,1576 20,1603 19,24 22,24 258,29 131,3 505,4 831,3 580,-3 594,-3 622,-23 z m 5339,1 c 17,-12 31,-34 35,-53 12,-60 7,-803 -5,-855 -20,-83 -20,-83 -204,-83 -225,0 -208,-19 -215,246 -5,196 -6,211 -28,246 -25,40 -77,85 -130,112 -29,15 -70,17 -335,16 -766,-3 -795,-2 -817,20 -18,18 -20,33 -20,173 0,144 1,155 21,173 19,17 43,19 268,24 135,3 506,4 824,3 561,-2 579,-3 606,-22 z m -2669,-1 c 16,-11 30,-33 34,-52 3,-18 6,-631 6,-1362 1,-1416 0,-1422 -46,-1453 -31,-20 -332,-15 -357,5 -25,21 -28,87 -30,602 l -2,485 -31,49 c -42,64 -100,103 -170,112 -30,3 -164,4 -297,2 -287,-5 -302,-10 -365,-106 l -37,-57 -2,-495 c -1,-272 -4,-514 -8,-537 -3,-23 -13,-47 -22,-55 -19,-15 -349,-24 -371,-10 -7,5 -18,27 -23,48 -10,44 -13,2715 -3,2770 3,19 18,43 31,54 25,20 43,20 845,20 801,0 821,0 848,-20 z m 2162,-520 c -2,-19 -5,-158 -7,-308 -2,-151 -6,-277 -10,-280 -10,-10 -511,-14 -574,-5 l -55,8 -1,280 c 0,154 -4,287 -8,296 -20,41 3,44 339,44 l 319,-1 -3,-34 z M 735,2598 c 0,-813 -3,-1240 -10,-1245 -5,-5 -147,-6 -315,-3 l -305,5 -3,274 c -1,175 1,278 8,285 6,6 97,9 248,7 201,-2 245,0 277,13 30,13 36,19 27,28 -17,17 -187,26 -381,20 -132,-4 -165,-2 -172,9 -11,17 -12,539 -1,557 6,9 73,13 275,15 194,1 269,5 278,14 10,10 4,16 -26,29 -32,13 -76,15 -277,13 -157,-2 -242,1 -249,8 -13,13 -12,534 1,547 6,6 116,10 262,10 192,1 259,4 277,14 52,31 8,37 -266,39 -146,1 -270,6 -274,10 -5,5 -8,135 -7,289 l 3,279 282,5 c 155,3 285,9 289,13 5,4 20,7 34,5 l 25,-3 0,-1237 z m 2315,1225 c 152,-3 249,0 278,7 24,6 52,8 63,5 18,-6 19,-40 18,-1233 0,-685 -3,-1233 -8,-1241 -8,-12 -61,-14 -317,-12 -170,1 -310,4 -312,6 -9,9 -2,549 8,559 6,6 94,9 248,7 204,-2 244,0 278,14 l 39,16 -29,16 c -35,19 -335,29 -444,16 -50,-7 -77,-6 -87,1 -11,9 -14,68 -17,294 -3,312 -4,307 58,290 52,-14 490,-6 505,9 10,10 5,16 -24,28 -52,22 -407,22 -471,0 -48,-17 -72,-12 -81,14 -8,27 -9,1196 0,1210 5,9 16,10 34,6 14,-4 132,-10 261,-12 z m 2723,2 c 176,-2 282,-6 289,-13 7,-7 7,-21 -1,-45 -8,-24 -12,-115 -10,-277 1,-132 -1,-244 -5,-247 -3,-4 -118,-6 -254,-4 -237,2 -302,-4 -302,-28 0,-23 118,-33 333,-29 134,3 220,1 224,-5 3,-5 5,-116 4,-246 -1,-152 2,-247 9,-266 9,-24 8,-32 -8,-48 -17,-16 -24,-17 -58,-8 -50,14 -417,14 -466,0 -52,-14 -49,-36 5,-44 52,-8 452,-1 487,9 57,15 55,39 58,-604 1,-325 -2,-598 -6,-607 -8,-13 -50,-15 -320,-15 -171,0 -316,3 -322,7 -12,7 -14,2467 -2,2479 4,4 20,4 37,0 16,-4 155,-8 308,-9 z m 965,-610 3,-625 -304,0 c -280,0 -307,1 -327,18 -21,17 -21,21 -9,43 11,18 14,81 15,272 0,136 4,250 8,254 3,4 122,7 264,7 214,1 263,4 292,17 l 35,16 -44,12 c -29,8 -122,12 -292,10 -137,-1 -252,1 -256,5 -4,4 -6,104 -5,224 3,196 -2,260 -23,329 -6,18 -2,25 16,32 13,5 159,10 324,10 l 300,1 3,-625 z m 1322,-23 c 21,-17 22,-22 11,-53 -8,-23 -11,-110 -10,-272 0,-131 -2,-241 -6,-245 -3,-3 -115,-5 -248,-4 -192,3 -252,0 -290,-12 -59,-18 -72,-14 -86,26 -12,33 -16,534 -5,562 5,14 42,16 309,16 279,0 305,-1 325,-18 z m -784,-135 c 23,-27 24,-35 24,-165 -1,-194 8,-186 -200,-191 -88,-2 -171,0 -184,3 -39,10 -48,50 -44,206 4,191 -5,183 216,178 l 164,-3 24,-28 z m -2831,-462 310,0 0,-55 c -4,-473 -19,-1177 -25,-1184 -4,-4 -149,-8 -322,-8 l -313,0 -7,43 c -4,24 -7,166 -7,314 -1,149 -2,409 -4,578 -2,269 -1,310 13,317 8,5 22,6 30,2 8,-4 155,-7 325,-7 z m -2380,-25 c 6,-5 17,-5 25,0 24,15 603,13 623,-2 15,-12 16,-23 6,-108 -7,-56 -9,-172 -6,-282 6,-198 1,-220 -40,-203 -30,11 -396,16 -470,5 -53,-7 -71,-6 -81,4 -10,10 -14,71 -15,262 -2,190 -5,255 -16,273 -28,50 -36,-2 -39,-271 -2,-185 -7,-259 -15,-267 -8,-6 -39,-6 -92,1 -96,12 -398,4 -439,-11 -28,-11 -28,-13 -12,-29 15,-15 46,-17 282,-18 174,-1 268,-5 272,-12 4,-5 6,-134 4,-285 l -3,-275 -307,-4 c -169,-2 -311,0 -317,5 -6,5 -11,178 -12,475 -1,257 -4,531 -7,609 -3,84 -1,143 5,145 21,7 645,-5 654,-12 z m 5337,-8 c 10,-10 10,-19 -1,-45 -19,-45 -27,-363 -11,-434 13,-58 30,-68 48,-28 16,35 16,410 1,454 -8,24 -8,36 -1,43 12,12 595,14 613,2 5,-3 9,-114 9,-248 0,-158 4,-255 12,-276 10,-30 9,-35 -11,-51 -21,-18 -58,-19 -609,-19 -323,0 -607,-5 -632,-10 -74,-14 -72,-23 -70,311 0,199 4,297 12,306 16,19 621,15 640,-5 z m -796,-116 c 17,-13 19,-31 24,-223 l 5,-208 40,-64 c 23,-37 50,-67 65,-73 14,-5 33,-17 44,-26 16,-15 49,-17 290,-17 149,0 294,2 321,3 28,1 156,-1 286,-4 223,-5 238,-6 255,-26 17,-18 19,-38 19,-169 0,-129 -2,-151 -18,-166 -16,-16 -46,-19 -260,-25 -133,-4 -251,-7 -262,-7 -367,7 -631,6 -648,-2 -13,-8 -22,-8 -30,0 -7,7 -91,11 -251,11 -133,0 -247,4 -254,9 -7,4 -18,26 -23,47 -7,33 -13,287 -9,479 0,28 1,136 3,241 3,252 -14,234 212,234 132,0 176,-3 191,-14 z M 2450,1922 c 143,1 260,1 261,-2 0,-3 1,-131 2,-285 l 1,-280 -303,0 -303,0 1,279 c 0,184 4,283 11,291 9,10 18,11 41,3 18,-6 128,-9 289,-6 z M 1391,1309 c 14,-7 18,-16 14,-27 -21,-50 -25,-107 -23,-312 l 1,-225 -305,-3 -306,-2 5,167 c 7,193 -2,333 -23,360 -13,17 -15,17 -30,-2 -13,-17 -15,-57 -13,-270 l 2,-250 -307,0 -307,0 -2,278 c -1,179 2,277 8,278 6,0 154,2 330,5 176,2 358,8 405,13 110,12 525,5 551,-10 z m 2669,3 c 3,-4 4,-134 2,-289 l -3,-283 -307,0 -307,0 0,237 c 0,255 -4,293 -34,293 -28,0 -33,-43 -30,-298 l 2,-227 -307,0 -307,0 -2,278 c -1,152 0,277 3,278 3,0 151,2 330,5 179,2 363,7 410,12 100,8 543,4 550,-6 z m 1335,-2 c 13,-10 670,-3 795,9 52,5 195,10 316,10 247,1 251,0 234,-60 -6,-18 -10,-145 -10,-281 l 0,-248 -307,0 -308,0 0,255 c 0,228 -2,256 -17,272 -38,37 -43,8 -44,-265 l -2,-257 -293,-5 c -162,-3 -298,-2 -302,1 -5,4 -10,121 -10,261 -2,206 -5,258 -16,272 -14,17 -16,17 -28,0 -10,-14 -13,-80 -13,-275 0,-161 -4,-259 -10,-261 -5,-2 -143,-1 -307,2 l -297,5 3,220 c 2,146 -2,236 -9,268 -13,48 -32,61 -45,30 -12,-29 -18,-383 -7,-448 6,-33 7,-63 3,-68 -8,-8 -611,-15 -611,-7 -1,3 -2,131 -3,285 l -2,280 325,-1 c 179,-1 330,2 335,7 6,4 35,9 65,11 105,6 555,-3 565,-12 z m 2538,13 c 70,-3 134,-11 143,-17 14,-10 14,-14 -1,-41 -13,-25 -15,-70 -14,-275 l 1,-245 -307,0 -308,0 2,232 c 2,200 0,236 -15,264 -15,30 -17,32 -30,15 -7,-10 -16,-41 -19,-70 -9,-66 -1,-396 9,-418 5,-11 2,-18 -12,-22 -35,-11 -602,-12 -603,-1 -1,6 0,102 1,215 0,113 -3,236 -9,275 -7,49 -7,73 1,82 8,11 113,13 522,13 281,0 568,-3 639,-7 z m -5883,-22 c 3,-1 4,-126 3,-278 -2,-214 -5,-278 -15,-282 -7,-3 -145,-4 -307,-1 l -294,5 2,235 c 0,129 -3,253 -8,274 -6,22 -8,42 -6,45 2,5 595,6 625,2 z m 665,-279 c 0,-181 -4,-282 -10,-282 -100,-3 -589,0 -592,3 -7,8 -8,557 0,560 4,1 141,2 304,1 l 298,-1 0,-281 z M 1378,676 c 2,-3 5,-129 6,-281 1,-268 0,-276 -19,-281 -11,-2 -148,-3 -304,-2 l -284,3 0,279 c 0,249 1,280 16,285 19,7 578,4 585,-3 z m 660,6 c 9,-7 12,-71 10,-288 l -3,-279 -302,-3 c -167,-1 -303,1 -303,5 -1,5 -1,132 -1,283 l -1,275 283,5 c 156,3 289,6 294,8 6,1 16,-2 23,-6 z m 670,-6 c 4,-2 7,-129 6,-283 l -1,-278 -293,-3 c -162,-1 -298,2 -303,7 -12,12 -11,552 1,560 11,7 578,4 590,-3 z m 1335,4 c 16,0 17,-18 15,-282 l -3,-283 -285,-3 c -157,-1 -294,0 -305,2 -19,5 -20,13 -19,283 1,243 4,278 17,282 12,5 357,5 580,1 z m 665,-4 c 3,-4 6,-130 6,-282 1,-267 0,-275 -19,-280 -11,-2 -148,-3 -304,-2 l -283,3 0,278 c 1,152 1,280 1,285 1,8 590,6 599,-2 z m 680,-285 -3,-276 -294,-3 c -169,-1 -299,2 -304,7 -5,5 -9,130 -9,283 l 0,273 293,5 c 164,3 300,1 307,-4 9,-7 12,-71 10,-285 z m 591,286 73,-2 0,-272 c 0,-150 -3,-277 -7,-283 -7,-12 -595,-14 -595,-2 -4,57 -1,552 3,558 4,8 309,8 526,1 z m 739,3 c 10,0 12,-60 10,-282 l -3,-283 -304,0 -304,0 0,279 c 0,248 2,280 16,285 12,5 472,5 585,1 z m 660,-4 c 2,-3 5,-129 6,-280 1,-221 -2,-277 -12,-281 -22,-8 -592,-6 -592,3 -1,11 -1,546 -1,557 1,10 589,11 599,1 z M 711,668 c 2,-7 2,-134 -1,-283 l -5,-270 -280,-3 c -154,-1 -290,0 -302,3 l -23,5 0,274 c 0,150 3,276 7,279 3,4 140,7 304,7 229,0 298,-3 300,-12 z m 2669,2 c 4,-88 0,-542 -5,-550 -9,-14 -591,-14 -600,0 -8,13 -8,537 0,550 8,14 605,13 605,0 z m 4678,-272 -3,-283 -294,-3 c -162,-1 -299,2 -303,6 -10,10 -13,535 -3,551 4,7 105,11 306,11 l 299,0 -2,-282 z"
       id="path3065"
       inkscape:connector-curvature="0" />
    <path
       d="m 1463,3960 c -50,-11 -123,-70 -150,-120 -24,-45 -24,-45 -21,-325 l 3,-281 40,-51 c 22,-28 59,-61 83,-74 42,-24 47,-24 325,-24 l 282,0 50,31 c 27,16 65,52 85,80 l 35,49 3,269 4,269 -27,52 c -28,55 -93,107 -157,126 -39,11 -509,10 -555,-1 z m 621,-431 0,-322 -342,-1 c -222,-1 -342,3 -342,9 -3,149 0,627 3,632 3,5 157,7 343,7 l 338,-2 0,-323 z"
       id="path3067"
       inkscape:connector-curvature="0" />
    <path
       d="m 4128,3961 c -47,-10 -101,-51 -136,-104 l -27,-42 -3,-273 c -3,-267 -2,-275 20,-320 24,-50 64,-93 113,-120 26,-15 66,-17 310,-17 154,0 292,3 307,8 36,10 81,49 120,105 l 33,47 3,272 3,272 -28,49 c -15,27 -43,62 -61,77 -58,49 -101,55 -371,54 -135,-1 -263,-5 -283,-8 z m 625,-432 0,-323 -339,0 -339,-1 1,320 c 1,176 2,322 3,325 0,3 152,4 337,4 l 337,-1 0,-324 z"
       id="path3069"
       inkscape:connector-curvature="0" />
    <path
       d="m 2835,3226 -30,-14 30,-13 c 43,-20 449,-20 484,-1 51,30 8,37 -227,39 -175,2 -234,0 -257,-11 z"
       id="path3071"
       inkscape:connector-curvature="0" />
    <path
       d="m 5564,1980 c -84,-12 -99,-32 -36,-49 61,-18 405,-14 449,4 26,11 33,19 26,26 -25,25 -316,37 -439,19 z"
       id="path3073"
       inkscape:connector-curvature="0" />
    <path
       d="m 4212,1981 c -54,-9 -69,-23 -46,-42 14,-11 64,-14 245,-14 199,0 230,2 245,17 15,15 15,17 -7,28 -27,15 -369,23 -437,11 z"
       id="path3075"
       inkscape:connector-curvature="0" />
    <path
       d="m 8448,4501 c -282,-6 -308,-10 -295,-45 9,-22 85,-27 362,-24 246,3 250,3 253,24 3,21 -22,56 -36,52 -4,-1 -132,-4 -284,-7 z"
       id="path3077"
       inkscape:connector-curvature="0" />
    <path
       d="m 8160,3858 c -32,-9 -33,-11 -15,-21 24,-14 580,-27 608,-14 10,5 17,16 15,25 -3,15 -30,17 -288,19 -166,1 -299,-3 -320,-9 z"
       id="path3079"
       inkscape:connector-curvature="0" />
    <path
       d="m 8440,3241 c -276,-6 -329,-14 -279,-42 18,-11 92,-15 299,-19 253,-5 277,-4 295,13 15,14 17,21 9,35 -13,20 5,20 -324,13 z"
       id="path3081"
       inkscape:connector-curvature="0" />
    <path
       d="m 8465,1990 c -298,-8 -344,-15 -302,-47 23,-19 62,-22 326,-24 264,-3 265,-3 274,19 8,17 6,27 -8,42 -10,11 -21,19 -24,18 -3,-1 -123,-5 -266,-8 z"
       id="path3083"
       inkscape:connector-curvature="0" />
  </g>
  <path
     style="fill:#000000;fill-opacity:1;stroke:none"
     d="m 83.236432,64.008134 c -14.428526,0.27105 -28.932214,-0.32476 -43.31369,0.75328 -3.043475,0.46366 -3.721662,3.77788 -3.174542,6.43876 0.172071,41.339086 -0.411825,82.693656 0.520121,124.022426 1.25797,3.96529 6.2935,2.27422 9.344278,2.72616 3.104518,-0.45229 7.821916,0.80701 9.792659,-2.29571 1.141244,-15.81241 0.174249,-31.79205 1.56037,-47.54642 0.361629,-3.68784 4.045672,-5.99926 6.923016,-7.47901 16.51824,-0.21353 33.081476,0.45121 49.573106,-0.39458 3.95443,-0.40427 3.20849,-5.57748 3.65879,-8.41164 0.74657,-20.93908 0.45211,-41.920916 -0.0768,-62.861676 0.31068,-2.41863 -1.40243,-4.38035 -3.88694,-4.25212 -10.2672,-0.99306 -20.618497,-0.61716 -30.920408,-0.69947 z m -5.81103,18.67062 c 5.921573,0.49467 13.512263,-1.69802 17.845598,3.62292 2.38908,2.31862 3.48434,5.28432 2.88758,8.60894 -0.32565,6.794226 0.65859,13.832446 -0.57393,20.500016 -2.19425,3.6771 -5.891329,7.47831 -10.581812,6.52843 -7.90187,-0.39779 -16.156036,0.8377 -23.853914,-0.82502 -2.303873,-1.16988 -4.479293,-3.41322 -5.598106,-5.57786 -0.0352,-8.78231 -0.07031,-17.564616 -0.105311,-26.346926 2.554647,-3.88799 6.686026,-7.16429 11.622057,-6.45669 2.784831,-0.0856 5.57209,-0.0409 8.357838,-0.0538 z"
     id="path8564"
     inkscape:connector-curvature="0" />
  <path
     style="fill:#000000;fill-opacity:1;stroke:none"
     d="m 193.86121,64.079874 c -10.57974,0.33173 -21.27661,-0.2336 -31.78131,1.02231 -3.78626,1.34306 -1.98749,6.57915 -2.62768,9.54098 -0.22568,38.911566 -0.35718,77.831666 0.0809,116.741286 0.11747,2.30031 -0.31509,6.41236 3.1028,6.31322 5.16506,0.34596 10.7482,0.69226 15.60369,-1.14786 1.61772,-4.50277 0.83745,-9.72572 1.34605,-14.49111 0.4063,-11.80885 0.40417,-23.62638 0.39367,-35.4407 1.87676,-3.09248 4.40984,-6.57553 8.50133,-6.09799 8.56885,-0.11953 17.25879,-0.65093 25.77299,0.3049 2.76764,1.43669 5.57419,4.1342 6.15368,7.22792 0.3144,15.7124 -0.61442,31.5151 0.84107,47.16977 0.32594,3.68936 5.1185,1.99148 7.60456,2.51094 3.43966,-0.52876 8.16654,1.18862 10.79703,-1.73973 1.43915,-8.54734 0.52484,-17.40181 0.9136,-26.0599 -0.0122,-33.48374 0.51968,-66.97747 -0.0886,-100.455526 0.32776,-2.52359 -1.39054,-4.78547 -4.01751,-4.60936 -14.16694,-0.93613 -28.40312,-0.83033 -42.59627,-0.78915 z m 5.64961,18.58094 c 5.59955,0.47945 12.05686,-1.11441 16.96677,2.20604 2.40734,2.41054 4.82658,5.25559 3.92782,8.9497 0,7.138236 0,14.276476 0,21.414716 -2.49391,2.98954 -4.88107,7.23613 -9.4687,6.56425 -8.34631,-0.044 -16.90941,0.74485 -25.12844,-0.55593 -3.67847,-1.45001 -6.17363,-5.3303 -5.70342,-9.38015 -0.23397,-7.70947 -0.0809,-15.424626 -0.12555,-23.136506 2.23827,-3.32758 5.51527,-6.25864 9.77263,-5.89591 3.24874,-0.19461 6.5059,-0.15263 9.75889,-0.16621 z"
     id="path8566"
     inkscape:connector-curvature="0" />
  <path
     style="fill:#000000;fill-opacity:1;stroke:none"
     d="m 284.16532,64.528254 c -3.75893,3.71142 -2.0422,9.53434 -2.09843,14.22267 0.0742,2.20646 1.13225,4.86281 3.89196,3.90989 16.62951,-0.0831 33.25676,0.25621 49.878,0.75328 3.33447,2.18843 6.93304,5.13062 6.63604,9.54157 0.82119,5.28575 -0.25012,10.939056 1.39896,16.034136 2.28284,3.89688 7.62945,1.83265 11.26335,2.20604 2.36458,-0.50635 6.9944,0.74311 7.29966,-2.79791 1.62619,-13.209476 1.28257,-26.650216 0.63624,-39.918146 -0.26368,-3.11492 -3.53084,-5.06572 -6.51901,-4.22056 -23.93762,0 -47.87523,0 -71.81284,0 l -0.51967,0.2436 -0.0543,0.0254 z"
     id="path8568"
     inkscape:connector-curvature="0" />
  <path
     style="fill:#000000;fill-opacity:1;stroke:none"
     d="m 318.18853,121.97493 c -3.00312,-0.42283 -6.09434,1.58656 -5.70342,4.8784 0.23878,4.55033 -1.78482,10.58445 2.31366,13.86397 5.36163,-0.63776 11.2163,0.7591 16.28523,-1.32721 2.8173,-3.00772 1.04901,-7.82342 1.48863,-11.53239 0.45714,-3.12082 -1.73419,-6.18157 -5.07569,-5.82896 -3.09848,-0.14223 -6.20791,-0.10705 -9.30841,-0.0538 z"
     id="path8570"
     inkscape:connector-curvature="0" />
  <path
     style="fill:#000000;fill-opacity:1;stroke:none"
     d="m 288.81055,150.70725 c -2.82733,-0.0855 -7.24716,0.55981 -6.78283,4.39129 -0.82233,13.52927 -1.08771,27.20218 0.21852,40.69799 0.85316,2.72093 4.78522,1.50439 6.90508,2.04462 23.14918,0.58763 46.34566,0.58574 69.48126,-0.14348 2.13924,-0.0299 4.4489,-1.09398 3.83735,-3.62186 -0.20174,-4.31613 0.95293,-9.10116 -0.86009,-13.12969 -3.1938,-2.06971 -7.58452,-0.81418 -11.20955,-1.34515 -13.74372,-0.19345 -27.48879,-0.26532 -41.2332,-0.39457 -4.42519,-2.50997 -7.41873,-7.18896 -6.9701,-12.35667 -0.54996,-4.98142 0.23167,-10.41019 -1.40567,-15.13811 -3.73639,-1.28164 -8.06104,-0.90827 -11.98077,-1.00437 z"
     id="path8572"
     inkscape:connector-curvature="0" />
</svg>
