<?xml version="1.0" encoding="UTF-8" standalone="no"?>
<svg
   xmlns:dc="http://purl.org/dc/elements/1.1/"
   xmlns:cc="http://creativecommons.org/ns#"
   xmlns:rdf="http://www.w3.org/1999/02/22-rdf-syntax-ns#"
   xmlns:svg="http://www.w3.org/2000/svg"
   xmlns="http://www.w3.org/2000/svg"
   xmlns:sodipodi="http://sodipodi.sourceforge.net/DTD/sodipodi-0.dtd"
   xmlns:inkscape="http://www.inkscape.org/namespaces/inkscape"
   version="1.0"
   width="500.49002"
   height="612.21613"
   viewBox="0 0 400.39202 489.7729"
   preserveAspectRatio="xMidYMid meet"
   id="svg2"
   inkscape:version="0.48.4 r9939"
   sodipodi:docname="c503a84ad18c9d6e0acb4598ae244cf7ad5fe175.svg">
  <defs
     id="defs26" />
  <sodipodi:namedview
     pagecolor="#ffffff"
     bordercolor="#666666"
     borderopacity="1"
     objecttolerance="10"
     gridtolerance="10"
     guidetolerance="10"
     inkscape:pageopacity="0"
     inkscape:pageshadow="2"
     inkscape:window-width="1600"
     inkscape:window-height="824"
     id="namedview24"
     showgrid="false"
     inkscape:zoom="0.41955556"
     inkscape:cx="1111.8386"
     inkscape:cy="415.08411"
     inkscape:window-x="0"
     inkscape:window-y="24"
     inkscape:window-maximized="1"
     inkscape:current-layer="svg2"
     fit-margin-top="0"
     fit-margin-left="0"
     fit-margin-right="0"
     fit-margin-bottom="0" />
  <metadata
     id="metadata4">
Created by potrace 1.10, written by Peter Selinger 2001-2011
<rdf:RDF>
  <cc:Work
     rdf:about="">
    <dc:format>image/svg+xml</dc:format>
    <dc:type
       rdf:resource="http://purl.org/dc/dcmitype/StillImage" />
  </cc:Work>
</rdf:RDF>
</metadata>
  <g
     transform="matrix(0.05570347,0,0,-0.05570347,-5.0805773,496.4154)"
     id="g6"
     style="fill:#000000;stroke:none">
    <path
       d="m 97,8896 c -10,-26 -6,-8739 4,-8758 21,-38 69,-14 69,34 0,28 5,38 43,80 11,11 30,43 43,71 23,49 51,97 121,207 15,25 44,77 63,115 19,39 45,83 57,99 13,15 34,53 48,83 15,30 35,64 45,76 19,22 33,47 110,192 23,44 50,89 61,101 10,11 19,26 19,32 0,7 11,29 24,50 12,20 26,46 29,57 4,11 18,32 31,47 14,14 28,38 32,52 3,14 10,26 15,26 5,0 9,8 9,18 0,9 14,31 30,49 17,18 30,39 30,48 0,16 38,77 52,83 4,2 15,20 24,40 41,96 60,127 79,127 12,0 21,-8 24,-20 2,-11 31,-64 65,-118 97,-156 105,-171 106,-189 0,-9 7,-24 15,-32 9,-9 36,-55 61,-103 25,-49 54,-97 65,-109 10,-11 19,-28 19,-37 0,-9 4,-18 9,-22 6,-3 20,-26 32,-50 12,-25 26,-45 29,-45 4,0 18,-22 31,-50 13,-27 27,-50 31,-50 5,0 8,-6 8,-13 0,-7 13,-31 30,-53 16,-21 30,-47 30,-56 0,-9 11,-29 24,-45 13,-15 42,-67 65,-115 22,-48 46,-90 52,-93 5,-4 14,-17 19,-28 5,-12 23,-44 40,-72 16,-27 35,-60 41,-72 7,-13 16,-23 21,-23 4,0 8,-8 8,-19 0,-10 7,-24 15,-31 8,-7 15,-18 15,-25 0,-6 9,-20 20,-30 11,-10 20,-24 20,-32 0,-7 5,-13 10,-13 6,0 10,-8 10,-18 0,-10 13,-36 29,-58 16,-21 32,-49 36,-62 10,-34 59,-27 63,9 2,14 16,40 33,58 16,18 39,53 50,79 12,26 31,61 44,77 12,17 36,60 54,97 17,37 35,69 40,73 6,3 27,40 49,83 21,43 53,97 70,121 18,24 32,50 32,57 0,7 19,41 43,76 23,35 51,80 62,101 11,20 22,37 26,37 3,0 18,28 34,63 15,34 39,76 51,94 13,17 24,36 24,42 0,6 13,33 30,59 17,27 30,52 30,56 0,4 11,22 23,39 13,18 34,52 46,76 12,24 28,50 36,58 8,8 15,21 15,29 0,8 4,14 8,14 5,0 16,19 27,43 10,23 31,55 47,71 15,17 28,36 28,43 0,14 55,120 71,137 5,6 16,-7 26,-30 10,-21 31,-58 46,-81 15,-24 27,-46 27,-51 0,-5 11,-22 25,-38 14,-16 42,-62 62,-102 19,-40 41,-76 49,-79 8,-3 14,-11 14,-18 0,-20 48,-110 75,-144 14,-16 25,-38 25,-50 0,-12 4,-21 8,-21 5,0 16,-19 27,-42 10,-24 31,-59 47,-78 15,-19 28,-39 28,-46 0,-6 16,-33 35,-60 19,-27 35,-55 35,-61 0,-7 4,-13 9,-13 5,0 13,-10 16,-22 4,-13 18,-37 31,-55 22,-29 84,-153 84,-168 0,-3 11,-21 24,-38 13,-18 34,-52 48,-77 28,-53 58,-100 75,-118 7,-7 13,-21 13,-31 0,-10 11,-30 25,-45 14,-15 37,-52 51,-83 15,-31 35,-64 44,-73 9,-9 20,-34 24,-54 6,-30 11,-36 31,-36 27,0 65,32 65,54 0,8 12,34 27,58 16,24 34,52 41,63 7,11 17,32 23,48 6,15 15,27 19,27 5,0 25,34 44,74 20,41 41,78 46,81 6,3 20,27 31,53 12,26 27,54 34,62 21,24 75,129 75,145 0,8 4,15 10,15 5,0 12,11 16,25 3,14 10,25 14,25 4,0 18,19 30,43 12,23 39,67 60,97 20,31 40,65 44,77 4,12 18,38 32,58 14,21 47,78 73,129 82,156 113,209 127,223 8,8 14,21 14,29 0,8 3,14 8,14 4,0 18,24 32,52 13,29 30,58 36,63 15,12 68,104 91,158 9,20 22,37 29,37 7,0 26,-25 40,-55 15,-30 31,-55 36,-55 4,0 8,-8 8,-18 0,-10 14,-32 30,-50 17,-18 30,-39 30,-47 0,-7 6,-20 13,-27 6,-7 21,-31 32,-53 11,-22 32,-59 48,-81 15,-23 27,-47 27,-52 0,-6 13,-30 29,-54 16,-24 45,-76 64,-115 20,-40 47,-87 60,-105 14,-18 28,-44 32,-58 4,-14 21,-41 36,-61 16,-20 29,-42 29,-48 0,-6 4,-11 9,-11 5,0 11,-8 15,-17 3,-10 15,-31 26,-48 11,-16 25,-40 31,-52 7,-13 16,-23 21,-23 4,0 8,-10 8,-23 0,-12 14,-37 30,-55 17,-18 30,-38 30,-43 0,-15 72,-159 79,-159 3,0 17,-24 31,-53 13,-28 44,-81 67,-116 24,-36 43,-70 43,-75 0,-6 14,-29 30,-50 17,-22 30,-47 30,-56 0,-25 35,-52 61,-48 17,2 25,12 29,34 4,16 16,41 28,55 24,27 62,97 62,114 0,5 14,23 30,39 17,16 30,37 30,45 0,9 16,40 35,70 19,29 35,55 35,57 0,2 17,32 38,66 21,35 49,86 61,113 32,68 53,109 61,115 9,7 70,109 70,117 0,4 9,16 19,27 10,12 34,48 51,81 18,33 36,62 40,65 4,3 17,25 29,50 31,63 45,87 64,108 10,10 17,21 17,25 0,10 63,142 70,147 4,3 25,39 46,80 22,41 47,84 57,95 10,11 30,44 44,72 15,29 29,53 33,53 4,0 17,22 29,50 15,34 27,50 40,50 10,0 29,8 41,18 29,24 16,51 -32,68 -19,6 -34,19 -36,30 -2,10 -16,35 -31,54 -15,19 -42,65 -61,103 -19,37 -37,67 -40,67 -3,0 -14,17 -25,38 -10,20 -43,78 -72,129 -29,50 -53,95 -53,101 0,5 -18,37 -40,70 -22,33 -40,66 -40,73 0,8 -14,32 -30,53 -17,22 -30,46 -30,53 0,7 -4,13 -8,13 -5,0 -18,20 -30,44 -12,24 -29,49 -37,56 -8,7 -15,19 -15,26 0,8 -4,14 -9,14 -5,0 -12,12 -16,27 -3,15 -19,43 -33,62 -15,20 -34,50 -41,66 -32,74 -133,253 -155,276 -9,9 -16,23 -16,32 0,9 -4,19 -10,22 -5,3 -18,26 -29,50 -11,24 -31,57 -45,72 -14,15 -26,33 -26,40 0,7 -16,30 -35,52 -19,21 -35,42 -35,47 0,5 217,7 500,5 276,-1 512,0 525,3 32,8 32,34 1,42 -13,3 -249,4 -525,2 -276,-2 -501,1 -501,6 0,4 14,25 30,46 17,21 30,43 30,48 0,6 16,31 34,56 19,24 43,62 54,83 10,21 35,68 56,103 21,36 42,72 47,80 4,8 23,40 43,72 19,31 37,67 41,79 4,13 25,48 45,79 21,30 47,76 59,102 12,27 25,48 29,48 5,0 19,21 32,48 13,26 26,49 30,52 10,8 70,109 70,118 0,5 11,24 25,43 14,19 37,59 51,89 36,79 52,107 80,137 13,14 24,34 24,44 0,10 7,24 15,33 8,8 15,19 15,25 0,6 13,26 30,44 16,19 30,41 30,48 0,8 12,32 27,54 15,22 37,58 49,79 14,27 31,42 55,50 31,10 34,15 37,52 3,46 -15,74 -49,74 -12,0 -26,15 -40,41 -11,23 -34,60 -50,82 -16,22 -29,45 -29,50 0,6 -12,26 -27,46 -16,20 -43,65 -61,100 -18,36 -39,70 -46,75 -7,6 -27,45 -46,86 -18,41 -46,91 -62,110 -15,19 -28,42 -28,51 0,9 -7,22 -15,29 -8,7 -15,16 -15,21 0,5 -13,28 -30,51 -16,22 -30,46 -30,51 0,6 -25,47 -55,92 -30,45 -55,86 -55,90 0,4 -13,24 -30,45 -16,21 -30,41 -30,45 0,14 -59,133 -69,139 -6,4 -22,30 -36,58 -14,28 -39,71 -55,95 -17,24 -30,48 -30,54 0,10 -30,60 -41,69 -4,3 -21,32 -39,65 -18,33 -39,68 -47,77 -8,9 -17,36 -19,60 -4,39 -1,47 25,65 16,12 32,34 36,50 3,15 10,30 13,33 13,10 52,69 52,80 0,5 5,10 10,10 6,0 10,8 10,19 0,10 15,38 33,62 19,24 49,74 67,112 18,37 36,67 41,67 4,0 11,10 14,23 12,40 69,150 92,175 12,13 25,34 29,45 4,12 24,47 45,78 22,31 39,61 39,66 0,5 16,32 35,59 19,27 35,53 35,57 0,4 17,34 37,65 21,31 55,93 76,136 21,44 48,94 61,110 13,17 27,42 31,56 4,14 20,41 35,60 15,19 30,42 33,50 4,8 20,38 36,65 52,86 71,124 71,140 0,8 9,15 19,15 48,0 83,38 60,66 -17,21 -7164,21 -7172,0 z m 990,-57 c 9,-9 5,-19 -15,-39 -15,-15 -37,-48 -50,-73 -13,-26 -28,-49 -33,-53 -6,-3 -20,-27 -30,-53 -11,-25 -31,-57 -44,-71 -12,-14 -26,-36 -30,-50 -4,-14 -27,-55 -51,-91 -24,-37 -44,-74 -44,-83 0,-9 -4,-16 -8,-16 -5,0 -16,-19 -27,-42 -10,-24 -31,-59 -47,-78 -15,-19 -28,-39 -28,-45 0,-5 -20,-41 -45,-80 -25,-38 -45,-74 -45,-80 0,-5 -16,-32 -35,-59 -19,-27 -35,-57 -35,-67 0,-9 -7,-22 -15,-29 -8,-7 -15,-18 -15,-25 0,-7 -13,-28 -30,-46 -16,-19 -30,-39 -30,-45 0,-16 -58,-123 -86,-160 -13,-17 -24,-35 -24,-41 0,-5 -14,-29 -31,-53 -17,-24 -47,-74 -66,-112 -19,-37 -39,-71 -44,-74 -11,-7 -12,-74 -1,-74 17,0 52,46 75,100 14,30 34,63 45,73 11,10 23,31 27,45 3,15 19,43 34,62 14,19 42,67 61,105 19,39 38,72 41,75 4,3 10,16 14,28 4,13 16,33 27,44 11,11 26,35 34,53 7,18 24,46 37,61 13,16 31,47 41,69 10,22 29,54 41,70 22,30 65,120 65,137 0,5 10,19 23,31 13,12 41,58 63,102 21,44 47,89 57,99 9,11 27,40 39,65 12,25 34,64 49,86 14,22 35,56 45,75 10,19 29,48 42,63 12,16 25,41 28,55 13,53 54,122 72,122 10,0 23,5 28,10 11,11 1927,16 1944,5 15,-9 12,-25 -5,-25 -8,0 -33,-34 -56,-75 -22,-41 -45,-75 -49,-75 -5,0 -13,-16 -19,-35 -5,-19 -25,-57 -44,-83 -19,-26 -42,-65 -52,-87 -10,-22 -26,-49 -36,-60 -21,-23 -79,-135 -79,-151 0,-7 -12,-25 -28,-41 -15,-17 -40,-57 -57,-89 -16,-32 -39,-72 -51,-89 -12,-16 -29,-46 -38,-65 -9,-19 -30,-57 -46,-85 -17,-27 -37,-63 -45,-80 -7,-16 -23,-40 -34,-52 -12,-12 -21,-26 -21,-30 0,-15 -61,-127 -79,-148 -10,-11 -27,-39 -37,-62 -10,-24 -21,-43 -26,-43 -4,0 -8,-6 -8,-14 0,-8 -6,-21 -13,-28 -21,-22 -47,-67 -47,-81 0,-7 -13,-31 -30,-53 -25,-33 -41,-94 -25,-94 19,0 59,39 76,74 11,23 28,55 39,71 11,17 31,53 46,80 14,28 32,57 39,65 21,24 75,129 75,145 0,8 5,15 10,15 6,0 10,8 10,18 0,11 9,27 19,36 11,10 34,46 52,82 18,35 37,64 41,64 4,0 18,23 30,50 12,28 25,50 30,50 4,0 8,6 8,14 0,8 6,21 14,29 16,15 56,87 56,99 0,4 20,38 45,75 25,37 45,72 45,79 0,17 31,72 58,102 12,14 22,29 22,35 0,15 43,97 51,97 4,0 17,19 29,43 12,23 40,68 61,99 21,32 39,61 39,65 0,17 66,142 75,143 6,0 20,-22 32,-48 12,-26 36,-69 52,-97 17,-27 35,-60 41,-73 9,-21 18,-34 48,-67 6,-7 12,-21 12,-31 0,-9 11,-32 25,-50 13,-17 42,-65 63,-106 22,-40 52,-95 67,-123 15,-27 36,-67 47,-88 11,-20 24,-39 28,-42 4,-3 17,-23 28,-44 35,-66 46,-85 75,-122 15,-20 27,-44 27,-52 0,-9 12,-29 26,-46 27,-33 94,-158 94,-177 0,-5 12,-26 26,-45 14,-19 34,-53 44,-75 10,-23 34,-63 54,-89 20,-25 36,-52 36,-59 0,-7 10,-24 23,-37 12,-14 34,-50 49,-81 16,-31 39,-65 52,-76 18,-14 23,-25 19,-41 -5,-18 -10,-21 -27,-15 -30,12 -1821,16 -1862,5 -25,-7 -36,-6 -45,5 -6,8 -23,20 -37,27 -17,8 -41,41 -70,97 -24,47 -49,92 -57,100 -7,8 -21,33 -31,55 -10,22 -30,58 -45,80 -15,22 -37,62 -49,89 -12,27 -28,55 -35,62 -7,8 -23,34 -35,59 -12,25 -26,47 -31,51 -5,3 -9,13 -9,23 0,10 -10,29 -23,43 -13,14 -33,44 -45,66 -31,60 -44,82 -74,126 -16,21 -28,44 -28,51 0,6 -12,27 -26,46 -14,19 -38,59 -53,89 -15,31 -36,69 -48,85 -11,17 -34,60 -51,97 -18,36 -37,72 -45,80 -7,7 -24,34 -37,61 -13,26 -27,47 -32,47 -4,0 -8,4 -8,9 0,6 -13,30 -30,54 -16,25 -30,49 -30,55 0,12 -81,112 -92,112 -20,0 -5,-55 28,-103 20,-28 42,-66 49,-83 7,-18 22,-41 32,-51 10,-10 29,-43 42,-73 13,-30 34,-68 46,-85 13,-16 26,-41 30,-55 4,-14 19,-42 31,-62 13,-21 24,-40 24,-43 0,-7 39,-63 58,-83 6,-7 12,-21 12,-31 0,-10 10,-29 23,-42 12,-14 28,-36 34,-49 18,-36 54,-98 86,-147 15,-24 27,-46 27,-51 0,-4 12,-24 26,-43 14,-19 43,-71 65,-117 21,-46 50,-98 63,-115 14,-18 27,-44 31,-58 3,-14 17,-38 31,-52 14,-15 36,-49 50,-77 13,-27 36,-62 49,-79 14,-16 25,-33 25,-39 0,-5 7,-15 15,-22 8,-7 15,-21 15,-31 0,-11 4,-19 9,-19 5,0 16,-11 25,-24 14,-22 14,-28 1,-53 -8,-15 -22,-47 -32,-70 -9,-24 -20,-43 -25,-43 -4,0 -8,-6 -8,-13 0,-12 -9,-26 -50,-74 -5,-7 -10,-18 -10,-26 0,-8 -13,-32 -29,-54 -16,-22 -46,-71 -67,-109 -20,-38 -40,-71 -44,-74 -3,-3 -23,-40 -43,-83 -20,-42 -48,-92 -62,-110 -14,-19 -25,-37 -25,-42 0,-4 -22,-44 -50,-90 -27,-46 -50,-86 -50,-89 0,-3 -18,-33 -40,-65 -22,-32 -40,-62 -40,-67 0,-5 -16,-34 -37,-64 -41,-63 -93,-160 -93,-176 0,-6 -7,-18 -16,-25 -9,-7 -28,-38 -42,-69 -22,-47 -50,-96 -120,-205 -7,-11 -24,-43 -37,-71 -34,-69 -57,-74 -80,-20 -45,104 -58,131 -86,169 -16,22 -29,45 -29,52 0,7 -11,24 -24,38 -14,15 -28,37 -32,49 -4,13 -18,40 -30,60 -13,21 -24,42 -24,47 0,6 -7,14 -14,18 -8,5 -36,50 -61,101 -26,51 -53,96 -61,99 -8,3 -14,12 -14,19 0,19 -42,101 -74,143 -14,19 -26,41 -26,49 0,9 -12,31 -27,51 -28,36 -33,43 -72,118 -12,23 -29,47 -37,54 -8,6 -14,18 -14,25 0,8 -4,14 -10,14 -5,0 -10,7 -10,15 0,17 -45,102 -89,166 -17,26 -31,51 -31,55 0,5 -14,29 -30,54 -17,25 -37,60 -45,77 -15,36 -66,103 -77,103 -11,0 -10,-68 1,-74 10,-7 51,-87 51,-101 0,-4 10,-22 23,-39 13,-17 41,-60 61,-96 21,-36 41,-67 45,-70 9,-6 30,-45 61,-115 13,-27 34,-65 47,-83 13,-18 34,-54 45,-80 11,-26 24,-49 28,-52 4,-3 25,-36 45,-75 21,-38 41,-72 45,-75 4,-3 23,-34 41,-70 18,-36 41,-74 50,-85 10,-11 38,-60 64,-110 25,-49 50,-92 54,-95 4,-3 16,-21 26,-40 10,-19 24,-46 32,-60 8,-14 26,-47 41,-74 15,-26 44,-73 64,-105 21,-31 38,-61 38,-66 0,-6 14,-26 31,-44 22,-25 29,-40 25,-57 -3,-12 -2,-26 4,-29 17,-11 11,-35 -9,-35 -10,0 -22,-6 -25,-12 -3,-7 -15,-26 -26,-43 -11,-16 -24,-40 -29,-52 -5,-11 -14,-24 -20,-27 -5,-4 -21,-32 -36,-63 -14,-32 -37,-72 -50,-89 -14,-18 -25,-37 -25,-42 0,-16 -32,-74 -52,-94 -11,-11 -26,-35 -34,-53 -7,-19 -18,-36 -24,-40 -5,-3 -10,-13 -10,-22 0,-8 -14,-36 -31,-62 -18,-25 -45,-70 -61,-99 -16,-29 -38,-63 -49,-75 -11,-12 -22,-33 -26,-47 -3,-14 -16,-38 -28,-55 -12,-16 -35,-55 -50,-85 -15,-30 -38,-68 -50,-85 -13,-16 -26,-41 -30,-55 -4,-13 -14,-30 -21,-38 -8,-7 -14,-20 -14,-29 0,-8 -20,-45 -45,-82 -25,-37 -45,-70 -45,-74 0,-4 -18,-34 -40,-66 -22,-32 -40,-63 -40,-68 0,-6 -13,-30 -30,-54 -27,-41 -41,-109 -22,-109 10,0 62,60 62,72 0,5 20,41 45,79 25,38 45,74 45,80 0,11 30,61 42,69 4,3 12,17 17,30 6,14 22,43 36,65 13,22 24,46 25,53 0,7 9,22 20,34 27,29 90,136 90,153 0,8 6,18 13,22 12,7 36,46 52,83 6,16 17,34 58,97 15,24 27,47 27,51 0,5 8,20 19,33 24,31 81,136 81,150 0,6 14,31 30,56 17,24 30,48 30,54 0,5 3,9 8,9 4,0 19,21 32,47 14,26 35,58 47,72 12,13 25,36 28,49 3,14 19,44 35,66 16,23 38,66 50,97 25,69 53,98 75,79 8,-7 15,-17 15,-23 0,-5 17,-35 39,-66 21,-31 42,-68 46,-81 4,-14 15,-34 25,-45 21,-24 70,-115 70,-131 0,-5 13,-23 30,-39 17,-16 30,-34 30,-41 0,-14 59,-137 70,-144 4,-3 24,-36 44,-74 21,-38 51,-87 67,-109 16,-22 29,-45 29,-50 0,-6 11,-24 24,-41 13,-17 38,-60 56,-96 18,-36 39,-72 47,-81 8,-9 29,-48 47,-87 19,-38 48,-89 65,-112 17,-24 31,-51 31,-62 0,-10 4,-18 9,-18 5,0 13,-10 17,-22 3,-12 19,-39 35,-61 16,-22 29,-45 29,-51 0,-7 13,-27 30,-46 16,-19 29,-38 30,-42 0,-4 16,-33 35,-65 19,-32 35,-60 35,-63 0,-3 -435,-4 -967,-3 l -967,3 -13,44 c -10,35 -13,214 -11,847 l 3,803 440,1 c 420,2 485,5 485,25 0,25 -95,31 -501,28 -413,-3 -420,-3 -425,17 -2,11 -3,382 -2,825 3,748 4,808 20,833 23,34 22,45 -2,98 -19,43 -20,69 -20,851 l 0,808 448,3 c 246,1 456,3 468,5 11,1 25,-3 31,-9 z m 4067,-10 c 22,-10 33,-10 48,0 24,15 1946,17 1961,2 6,-6 -6,-25 -32,-50 -22,-22 -41,-48 -41,-57 0,-9 -12,-33 -27,-53 -16,-20 -36,-52 -47,-71 -10,-19 -35,-60 -55,-90 -20,-30 -54,-90 -75,-133 -21,-42 -43,-80 -48,-83 -6,-4 -19,-25 -30,-48 -10,-22 -28,-54 -38,-71 -11,-16 -29,-48 -41,-70 -12,-22 -41,-73 -65,-112 -24,-40 -44,-76 -44,-81 0,-4 -12,-24 -26,-43 -14,-19 -33,-50 -43,-69 -58,-113 -73,-140 -81,-145 -5,-3 -23,-35 -41,-70 -17,-36 -35,-65 -39,-65 -4,0 -22,-30 -40,-67 -18,-38 -41,-76 -51,-86 -11,-10 -19,-26 -19,-35 0,-10 -17,-47 -38,-83 -21,-35 -41,-73 -45,-83 -7,-18 -27,-13 -27,8 0,12 -79,173 -100,206 -6,8 -33,56 -61,105 -28,50 -55,92 -60,93 -5,2 -9,9 -9,15 0,18 -59,130 -74,142 -7,6 -23,33 -37,60 -23,47 -29,58 -54,88 -5,7 -21,35 -34,62 -13,28 -33,64 -45,80 -12,17 -32,53 -45,80 -13,28 -37,66 -53,86 -15,20 -28,44 -28,53 0,9 -11,34 -25,56 -14,22 -25,43 -25,47 0,4 -9,16 -19,27 -10,12 -34,48 -51,81 -18,33 -36,62 -40,65 -4,3 -22,32 -40,65 -18,33 -38,67 -45,75 -7,8 -24,38 -38,65 -31,62 -63,93 -79,77 -8,-8 -5,-22 12,-54 13,-24 30,-56 38,-73 9,-16 35,-59 59,-94 24,-36 43,-69 43,-74 0,-6 12,-25 26,-44 14,-18 35,-54 46,-80 11,-26 34,-65 49,-86 16,-22 29,-48 29,-57 0,-10 7,-23 15,-30 8,-7 15,-17 15,-22 0,-6 14,-30 30,-55 17,-24 30,-48 30,-52 0,-5 7,-14 15,-21 8,-7 15,-19 15,-26 0,-8 18,-41 40,-73 22,-32 40,-63 40,-69 0,-5 20,-37 45,-70 25,-33 45,-65 45,-72 0,-6 13,-31 30,-55 16,-24 45,-77 64,-119 19,-42 46,-90 59,-108 13,-18 34,-54 46,-80 12,-25 28,-49 36,-52 8,-3 15,-15 15,-26 0,-11 4,-20 9,-20 5,0 13,-12 19,-27 5,-16 22,-41 36,-57 32,-34 32,-74 1,-66 -11,2 -442,5 -957,5 -1023,0 -980,-3 -921,56 15,15 39,49 53,76 13,26 34,62 46,78 12,17 29,46 37,66 8,19 26,48 41,64 14,15 26,33 26,40 0,17 29,74 62,119 15,21 28,47 28,58 0,10 4,18 10,18 5,0 13,12 16,27 4,15 11,32 16,38 5,5 18,21 29,35 11,14 34,52 51,85 16,33 33,62 38,65 4,3 24,36 43,74 20,38 40,72 45,75 5,3 27,42 47,86 21,44 48,94 61,110 12,17 32,54 45,83 12,28 26,52 30,52 4,0 14,12 22,28 42,81 60,113 68,118 5,3 25,36 44,74 19,38 39,71 45,75 5,3 10,19 10,36 0,59 -46,26 -85,-62 -11,-24 -30,-55 -43,-68 -13,-14 -26,-38 -29,-53 -3,-15 -9,-28 -13,-28 -4,0 -12,-10 -19,-22 -6,-13 -20,-36 -31,-53 -11,-16 -24,-39 -29,-50 -5,-11 -21,-38 -37,-60 -36,-54 -74,-125 -74,-141 0,-7 -13,-28 -28,-46 -16,-18 -43,-62 -61,-98 -18,-36 -42,-74 -52,-86 -11,-11 -19,-26 -19,-33 0,-15 -25,-61 -62,-115 -16,-21 -28,-45 -28,-53 0,-7 -4,-13 -10,-13 -5,0 -13,-12 -16,-27 -4,-15 -13,-34 -21,-41 -7,-7 -13,-22 -13,-32 0,-10 -6,-20 -13,-23 -7,-2 -21,-22 -32,-43 -11,-22 -33,-60 -50,-86 -65,-102 -75,-120 -75,-132 0,-8 -7,-19 -15,-26 -20,-17 -105,-187 -105,-211 0,-10 -6,-19 -13,-19 -13,0 -60,71 -72,109 -3,11 -11,21 -16,21 -5,0 -9,11 -9,25 0,13 -13,39 -29,57 -15,18 -32,44 -36,58 -4,14 -27,54 -51,91 -24,36 -44,71 -44,77 0,7 -15,35 -34,62 -19,28 -47,76 -62,108 -14,31 -35,66 -45,78 -11,11 -35,52 -55,90 -19,37 -41,75 -49,84 -8,8 -22,33 -32,55 -10,22 -32,60 -48,85 -17,25 -39,65 -50,90 -10,25 -36,71 -57,102 -21,32 -38,62 -38,66 0,5 -13,28 -30,50 -16,23 -30,44 -30,46 0,3 -13,25 -30,49 -16,25 -30,47 -30,50 0,4 -13,26 -30,50 -16,25 -30,50 -30,56 0,7 -21,34 -46,61 -36,39 -42,50 -30,57 24,14 1926,6 1960,-8 z M 4110,7092 c 0,-9 -56,-108 -62,-110 -4,-2 -8,-10 -8,-19 0,-8 -13,-28 -30,-45 -16,-16 -30,-38 -30,-48 0,-10 -7,-25 -15,-34 -8,-8 -15,-19 -15,-23 0,-5 -12,-25 -26,-44 -14,-19 -32,-49 -40,-67 -7,-19 -25,-47 -39,-64 -14,-16 -25,-38 -25,-48 0,-9 -7,-23 -15,-30 -8,-7 -15,-19 -15,-26 0,-8 -12,-33 -27,-57 -32,-49 -68,-111 -86,-147 -6,-13 -22,-35 -34,-49 -13,-13 -23,-29 -23,-35 0,-6 -19,-40 -42,-76 -23,-36 -59,-99 -80,-140 -21,-41 -45,-81 -52,-90 -7,-8 -21,-35 -30,-60 -10,-25 -26,-54 -36,-65 -10,-11 -31,-47 -46,-80 -16,-32 -39,-70 -51,-83 -12,-13 -25,-34 -29,-46 -3,-11 -17,-35 -30,-52 -12,-17 -31,-50 -41,-73 -10,-22 -22,-41 -28,-41 -6,0 -26,30 -44,68 -51,104 -63,125 -88,152 -12,13 -25,36 -28,50 -3,14 -16,37 -29,51 -12,13 -37,54 -55,91 -18,37 -42,75 -52,84 -10,9 -19,22 -19,28 0,15 -55,121 -77,149 -10,13 -31,53 -48,88 -16,35 -38,73 -49,84 -10,11 -26,39 -36,61 -10,23 -23,45 -29,48 -6,4 -22,30 -37,59 -15,29 -33,64 -41,80 -8,15 -18,27 -23,27 -9,0 -70,119 -70,136 0,5 -15,30 -33,56 -18,25 -42,66 -52,89 -11,24 -22,46 -25,49 -14,14 -50,71 -50,80 0,14 -31,63 -47,73 -7,4 -13,18 -13,30 l 0,22 950,0 c 523,0 950,-1 950,-3 z m 2027,-2 c 1,0 -14,-24 -33,-52 -19,-29 -34,-58 -34,-64 0,-6 -11,-23 -25,-38 -14,-15 -34,-46 -44,-69 -11,-23 -31,-59 -44,-79 -29,-42 -97,-177 -97,-192 0,-6 -12,-22 -26,-35 -14,-13 -28,-37 -31,-53 -3,-15 -9,-28 -14,-28 -4,0 -11,-10 -15,-22 -4,-13 -24,-45 -44,-73 -21,-27 -41,-60 -45,-72 -3,-13 -11,-23 -16,-23 -6,0 -19,-20 -30,-45 -11,-24 -24,-47 -29,-50 -6,-3 -10,-13 -10,-22 0,-8 -13,-32 -30,-53 -16,-21 -30,-42 -30,-48 0,-16 -46,-103 -74,-141 -14,-19 -26,-41 -26,-48 0,-14 -26,-59 -47,-81 -7,-7 -13,-20 -13,-28 0,-8 -4,-14 -8,-14 -5,0 -16,-18 -25,-39 -10,-21 -31,-54 -47,-72 -16,-19 -32,-44 -35,-57 -3,-13 -16,-40 -29,-60 -13,-20 -26,-47 -30,-59 -6,-18 -35,-40 -41,-31 -1,2 -21,44 -45,93 -24,50 -59,108 -77,129 -18,22 -33,46 -33,53 0,7 -16,36 -35,63 -19,27 -35,54 -35,60 0,5 -4,10 -10,10 -5,0 -10,8 -10,18 0,10 -11,34 -25,53 -14,19 -44,71 -65,116 -22,45 -44,84 -49,87 -5,4 -26,41 -46,84 -20,42 -43,81 -51,85 -8,4 -14,13 -14,18 0,6 -24,48 -53,92 -30,45 -57,94 -61,110 -3,15 -11,27 -16,27 -6,0 -10,6 -10,13 0,6 -20,43 -45,82 -25,38 -45,76 -45,83 0,8 -12,28 -26,45 -14,17 -38,56 -51,87 -14,30 -39,71 -54,90 -16,19 -29,42 -29,50 0,9 -13,31 -30,50 -16,19 -29,40 -30,45 0,7 324,9 957,8 527,-2 959,-3 960,-3 z m -1947,-29 c 0,-10 9,-30 20,-44 11,-14 33,-52 47,-84 15,-32 39,-76 55,-97 15,-21 28,-44 28,-51 0,-7 12,-30 28,-51 15,-22 36,-55 46,-74 10,-19 32,-54 48,-78 15,-24 28,-47 28,-52 0,-4 3,-10 8,-12 8,-3 52,-90 52,-103 0,-4 14,-24 30,-45 17,-21 37,-55 46,-75 8,-20 28,-55 44,-77 17,-23 30,-46 30,-53 0,-7 12,-30 27,-51 14,-21 45,-75 68,-119 23,-44 59,-105 79,-135 20,-30 36,-60 36,-66 0,-6 11,-23 25,-38 14,-15 25,-33 25,-41 0,-8 5,-17 10,-20 6,-4 17,-21 24,-40 8,-18 23,-42 33,-52 10,-10 27,-38 38,-63 10,-25 32,-60 47,-78 15,-18 28,-42 28,-53 0,-20 -3,-21 -47,-13 -50,9 -1761,13 -1848,4 -46,-5 -50,-3 -53,17 -2,14 8,32 32,53 19,18 38,45 41,61 4,16 11,29 16,29 5,0 9,6 9,13 0,6 16,34 35,61 19,27 35,55 35,63 0,7 5,13 10,13 6,0 10,7 10,15 0,9 6,18 14,21 8,3 19,18 25,32 12,32 54,106 69,125 6,7 30,51 53,97 23,47 52,98 65,113 13,16 24,35 24,44 0,9 18,43 40,76 22,33 43,70 46,83 3,13 10,24 15,24 5,0 9,6 9,13 0,6 11,22 25,35 13,13 29,38 35,57 6,19 16,35 21,35 5,0 9,7 9,15 0,19 40,95 50,95 4,0 18,24 30,53 12,28 35,68 51,89 15,20 36,56 45,80 10,23 28,56 41,71 13,16 26,40 30,55 6,25 12,34 39,65 6,7 15,24 19,37 14,45 55,60 55,21 z m 2040,-51 c 5,-8 21,-40 35,-70 14,-30 29,-57 33,-60 4,-3 18,-27 32,-55 14,-27 42,-75 63,-106 20,-31 37,-59 37,-63 0,-9 43,-70 53,-74 4,-2 7,-9 7,-17 0,-7 7,-18 15,-25 8,-7 15,-21 15,-31 0,-9 7,-24 15,-33 8,-8 15,-20 15,-26 0,-7 14,-29 30,-50 17,-21 30,-42 30,-48 0,-5 7,-15 15,-22 8,-7 15,-19 15,-28 0,-8 6,-23 14,-31 8,-9 31,-48 50,-88 20,-39 40,-74 45,-77 5,-3 21,-29 36,-58 15,-29 35,-62 44,-73 9,-11 25,-38 35,-60 23,-46 87,-158 96,-165 12,-10 40,-60 40,-71 0,-6 12,-28 28,-48 15,-20 36,-54 47,-76 10,-22 34,-59 53,-83 21,-26 32,-51 30,-65 -3,-24 -7,-24 -78,-7 -53,13 -1788,8 -1832,-4 -25,-7 -28,-6 -28,15 0,14 10,36 23,49 12,14 31,43 41,65 11,22 39,69 62,105 23,36 45,75 48,87 4,11 13,24 21,27 8,3 15,12 15,20 0,8 3,16 8,18 4,2 18,26 31,53 14,28 35,61 48,75 13,14 23,31 23,38 0,15 55,119 76,142 7,9 23,38 35,65 12,27 35,67 50,88 16,22 29,44 29,50 0,5 18,35 39,67 22,31 49,79 61,106 13,27 29,53 36,59 7,5 33,48 57,95 24,47 56,103 70,124 15,21 27,44 27,51 0,6 16,34 35,61 19,27 35,55 35,63 0,7 13,32 28,55 15,22 36,58 46,80 l 18,38 19,-33 c 11,-19 24,-41 29,-49 z m -4060,43 c 6,-16 14,-35 20,-43 5,-8 26,-46 46,-85 19,-38 41,-77 48,-85 6,-8 21,-33 31,-55 21,-42 24,-46 55,-84 11,-13 20,-30 20,-38 0,-7 4,-13 9,-13 5,0 12,-12 16,-27 3,-15 10,-30 13,-33 4,-3 16,-23 27,-44 11,-22 25,-45 31,-51 7,-6 22,-34 34,-61 13,-27 35,-67 50,-89 23,-34 48,-75 109,-185 4,-8 16,-31 26,-50 10,-19 22,-37 26,-40 5,-3 27,-41 49,-85 22,-43 51,-93 63,-109 13,-17 31,-49 41,-71 10,-22 28,-53 40,-70 11,-16 32,-52 46,-79 14,-27 33,-58 42,-67 9,-10 29,-43 44,-74 14,-31 32,-59 40,-62 8,-3 14,-19 14,-35 0,-28 -2,-30 -27,-22 -46,13 -1758,17 -1832,4 -35,-6 -66,-9 -68,-6 -9,9 6,54 24,72 20,19 26,30 63,100 14,27 32,56 41,65 9,9 29,41 44,70 14,30 33,61 40,69 7,8 34,56 60,105 26,50 52,97 59,105 19,25 46,77 46,90 0,6 11,26 24,43 13,18 34,55 47,82 13,28 29,55 35,60 7,6 26,37 44,70 18,33 43,74 55,90 13,17 35,55 49,86 15,31 36,72 49,90 12,19 31,52 42,74 11,22 29,54 41,70 26,38 64,112 64,126 0,6 14,27 30,46 17,18 30,42 30,52 0,10 7,24 15,31 8,7 15,17 15,22 0,15 40,68 51,68 5,0 14,-12 19,-27 z m 947,-1699 c 2,-7 -12,-29 -31,-50 -20,-22 -36,-46 -36,-54 0,-8 -16,-35 -35,-59 -19,-24 -35,-49 -35,-55 0,-18 -37,-86 -59,-110 -11,-12 -23,-33 -26,-48 -4,-15 -17,-38 -30,-52 -13,-14 -29,-37 -37,-53 -36,-70 -92,-170 -108,-193 -10,-14 -25,-41 -33,-62 -8,-20 -25,-46 -37,-58 -12,-12 -30,-41 -40,-66 -11,-25 -33,-65 -50,-89 -16,-24 -30,-48 -30,-54 0,-11 -59,-112 -71,-121 -3,-3 -9,-15 -13,-27 -4,-13 -11,-23 -16,-23 -4,0 -11,-12 -15,-27 -3,-16 -19,-44 -34,-63 -15,-19 -35,-53 -45,-75 -10,-22 -29,-53 -41,-70 -12,-16 -37,-59 -54,-95 -18,-36 -39,-72 -47,-81 -8,-8 -14,-30 -14,-47 0,-32 -12,-40 -37,-24 -7,4 -28,38 -47,75 -19,38 -45,83 -58,100 -13,18 -32,52 -43,77 -10,25 -24,52 -31,60 -6,8 -29,47 -49,85 -21,39 -47,84 -59,100 -12,17 -32,53 -45,80 -13,28 -34,63 -45,80 -25,36 -42,63 -55,90 -5,11 -21,37 -35,58 -14,21 -26,42 -26,46 0,5 -7,14 -15,21 -8,7 -15,19 -15,27 0,14 -39,75 -52,81 -5,2 -8,10 -8,18 0,15 -21,57 -62,121 -15,23 -30,53 -34,67 -3,14 -9,26 -13,26 -3,0 -15,17 -26,38 -11,20 -32,56 -47,78 -16,23 -28,45 -28,49 0,4 -20,38 -45,75 -25,37 -45,72 -45,78 0,6 -18,32 -40,57 -22,25 -40,53 -40,61 0,12 133,14 948,17 521,1 956,2 966,2 11,0 21,-5 23,-11 z m 2025,-2 c 5,-5 -7,-25 -27,-47 -20,-21 -43,-55 -52,-76 -8,-22 -18,-39 -22,-39 -4,0 -25,-35 -46,-77 -21,-43 -44,-83 -49,-89 -6,-6 -20,-28 -31,-49 -20,-40 -30,-54 -52,-80 -7,-7 -34,-55 -60,-107 -26,-51 -60,-111 -75,-132 -15,-21 -28,-47 -28,-56 0,-9 -10,-25 -21,-36 -12,-10 -35,-48 -52,-84 -17,-36 -40,-78 -52,-95 -12,-16 -38,-63 -58,-103 -20,-39 -48,-84 -62,-99 -14,-15 -25,-35 -25,-45 0,-9 -7,-23 -15,-32 -8,-8 -15,-19 -15,-24 0,-4 -13,-26 -30,-48 -16,-21 -30,-45 -30,-52 0,-7 -15,-34 -33,-60 -18,-26 -41,-67 -52,-92 -11,-25 -22,-47 -25,-50 -16,-15 -40,-62 -40,-79 0,-35 -18,-32 -41,6 -13,21 -25,40 -28,43 -4,3 -17,28 -30,55 -13,28 -34,64 -46,80 -12,17 -32,52 -44,80 -12,27 -28,56 -36,65 -7,8 -27,43 -44,77 -17,34 -42,74 -56,89 -14,15 -25,32 -25,38 0,16 -59,129 -73,141 -7,6 -18,21 -24,35 -21,42 -61,111 -75,128 -19,25 -38,60 -38,72 0,6 -16,32 -35,57 -19,25 -35,50 -35,55 0,15 -58,128 -75,144 -8,9 -15,21 -15,29 0,7 -7,15 -15,19 -8,3 -15,12 -15,19 0,19 -30,77 -39,77 -4,0 -18,21 -31,48 -13,26 -40,72 -61,102 -20,30 -40,65 -43,77 -4,13 -25,42 -48,65 -33,35 -38,44 -26,52 18,13 1937,11 1950,-2 z m 2016,-6 c 2,-8 -12,-32 -30,-53 -18,-21 -42,-56 -53,-78 -11,-22 -32,-58 -47,-79 -16,-21 -28,-43 -28,-48 0,-4 -12,-27 -27,-51 -41,-63 -51,-80 -62,-104 -5,-11 -15,-24 -20,-28 -6,-3 -11,-13 -11,-22 0,-9 -7,-24 -15,-33 -17,-19 -103,-162 -146,-245 -17,-33 -41,-73 -53,-90 -11,-16 -30,-48 -41,-70 -11,-22 -29,-54 -42,-70 -12,-17 -26,-41 -32,-55 -6,-14 -15,-32 -20,-40 -4,-8 -16,-31 -26,-50 -10,-19 -21,-37 -25,-40 -12,-9 -80,-128 -80,-139 0,-6 -4,-11 -9,-11 -5,0 -25,-33 -46,-72 -20,-40 -42,-80 -49,-88 -7,-8 -24,-37 -38,-65 -55,-109 -70,-135 -79,-135 -5,0 -9,8 -9,18 0,9 -10,33 -23,52 -13,19 -34,58 -48,85 -13,28 -36,66 -51,86 -15,20 -28,43 -28,51 0,8 -13,34 -30,56 -16,23 -30,46 -30,51 0,5 -7,14 -15,21 -8,7 -15,23 -15,36 0,13 -4,24 -9,24 -5,0 -13,12 -19,28 -5,15 -20,38 -34,52 -23,24 -58,88 -58,107 0,4 -10,19 -22,33 -13,14 -34,48 -47,75 -13,28 -35,65 -49,84 -27,37 -59,95 -117,211 -20,41 -54,100 -74,130 -20,30 -47,75 -60,100 -13,25 -29,49 -37,53 -8,4 -14,17 -14,27 0,11 -4,20 -9,20 -5,0 -13,10 -17,23 -3,12 -24,48 -45,79 -22,32 -39,64 -39,72 0,8 -13,25 -28,38 -37,31 -46,46 -34,61 8,9 232,11 974,10 835,-2 963,-4 966,-17 z m -3977,-58 c 12,-24 28,-47 35,-51 8,-4 14,-17 14,-27 0,-11 4,-20 9,-20 5,0 12,-13 16,-28 3,-15 16,-39 28,-52 13,-14 34,-47 47,-75 14,-27 39,-71 57,-97 17,-27 37,-64 43,-83 6,-19 15,-35 20,-35 4,0 27,-39 50,-86 24,-47 60,-111 81,-142 22,-31 39,-62 39,-67 0,-6 13,-26 28,-45 16,-19 36,-53 46,-75 10,-22 31,-58 46,-81 15,-22 42,-72 61,-110 18,-38 46,-85 61,-105 15,-20 28,-45 28,-54 0,-10 12,-34 28,-54 15,-20 41,-63 58,-97 17,-33 43,-73 58,-89 14,-15 26,-34 26,-41 0,-7 16,-34 36,-59 20,-26 32,-51 27,-55 -4,-4 -51,-3 -103,2 -52,5 -488,8 -968,6 -479,-2 -872,0 -872,3 0,4 7,9 15,13 8,3 15,11 15,18 1,7 14,29 30,48 17,19 30,42 30,51 0,9 9,24 19,33 16,15 81,134 81,149 0,3 11,18 25,33 14,15 28,39 32,53 3,14 12,32 20,39 7,7 13,21 13,30 0,9 16,37 35,61 19,24 46,67 60,97 14,29 36,65 50,80 14,15 25,35 25,45 0,10 6,24 13,31 24,27 137,219 151,258 3,8 10,22 15,30 6,8 18,34 27,58 10,23 21,42 25,42 4,0 17,19 29,43 12,23 42,71 66,108 24,36 44,69 44,74 0,4 11,22 24,40 13,17 35,53 48,81 28,58 78,144 84,144 2,0 13,-19 25,-42 z m 2037,-14 c 12,-20 22,-42 22,-49 0,-8 5,-17 10,-20 6,-3 19,-25 30,-49 10,-23 26,-49 35,-56 8,-7 15,-18 15,-25 0,-8 3,-15 8,-17 4,-1 16,-21 27,-43 23,-47 57,-99 68,-103 4,-2 7,-13 7,-23 0,-11 16,-41 35,-66 19,-25 35,-50 35,-55 0,-13 60,-131 69,-138 4,-3 14,-17 22,-32 53,-100 63,-118 70,-118 5,0 19,-24 33,-52 13,-29 36,-68 50,-87 14,-19 26,-41 26,-48 0,-7 4,-13 9,-13 5,0 12,-13 16,-28 3,-15 16,-39 28,-52 26,-29 77,-123 77,-143 0,-8 10,-27 23,-43 12,-15 38,-58 57,-95 19,-37 45,-79 57,-93 13,-14 25,-36 29,-50 3,-13 19,-36 35,-52 66,-63 126,-59 -931,-59 -884,0 -960,1 -960,16 0,9 14,31 30,49 17,18 30,39 30,47 0,8 13,32 29,52 16,20 43,65 61,101 18,36 41,73 51,83 11,10 19,26 19,36 0,10 17,45 39,77 21,33 55,91 76,129 20,39 48,84 60,101 13,17 27,43 31,58 3,14 10,26 15,26 5,0 9,9 9,19 0,10 7,21 15,24 8,3 23,25 35,49 25,52 38,74 68,111 12,16 22,33 22,39 0,17 50,119 75,153 12,17 32,50 44,75 13,25 27,47 31,50 4,3 25,37 45,75 21,39 41,72 46,75 4,3 24,39 45,80 21,41 41,77 44,80 4,3 9,13 13,23 10,28 40,19 65,-19 z M 2120,3605 c 0,-6 -10,-15 -22,-20 -13,-6 -34,-31 -48,-56 -14,-25 -35,-56 -47,-69 -13,-13 -27,-38 -34,-57 -6,-18 -15,-33 -20,-33 -5,0 -9,-6 -9,-14 0,-7 -9,-25 -21,-40 -11,-14 -33,-50 -47,-78 -15,-29 -40,-73 -56,-98 -16,-24 -38,-64 -48,-88 -11,-24 -33,-63 -49,-87 -16,-23 -29,-52 -29,-64 0,-12 -4,-21 -8,-21 -5,0 -14,-10 -21,-22 -6,-13 -20,-36 -31,-53 -11,-16 -23,-37 -27,-45 -4,-8 -21,-35 -39,-60 -17,-25 -41,-64 -53,-87 -11,-23 -32,-58 -46,-78 -13,-21 -36,-63 -51,-94 -14,-31 -36,-69 -49,-86 -12,-16 -32,-52 -43,-78 -12,-26 -30,-59 -41,-74 -11,-14 -33,-51 -47,-82 -15,-31 -30,-58 -33,-61 -16,-12 -41,-61 -41,-80 0,-20 -16,-26 -35,-12 -19,13 -55,71 -55,87 0,15 -27,65 -42,75 -4,3 -11,17 -17,30 -22,53 -150,260 -160,260 -5,0 -12,12 -16,27 -3,15 -10,30 -13,33 -10,7 -52,95 -52,107 0,6 -10,21 -23,35 -13,14 -31,45 -41,71 -9,25 -24,51 -33,58 -8,7 -19,22 -24,34 -5,11 -13,27 -18,35 -5,8 -17,32 -27,53 -10,20 -22,37 -25,37 -4,0 -22,29 -39,65 -18,36 -38,71 -44,78 -16,15 -59,88 -84,143 -11,22 -33,60 -51,84 -17,24 -31,51 -31,61 0,10 -6,24 -13,31 -17,17 -77,116 -77,126 0,10 -54,72 -63,72 -18,0 -5,-71 17,-97 13,-15 27,-39 31,-53 4,-14 17,-38 30,-55 12,-16 25,-40 29,-52 4,-13 11,-23 16,-23 5,0 11,-13 15,-29 3,-16 16,-40 29,-53 12,-13 34,-45 47,-73 13,-27 27,-51 32,-53 4,-2 7,-11 7,-21 0,-9 12,-33 26,-52 14,-19 38,-59 53,-90 15,-31 37,-68 49,-83 11,-15 24,-37 28,-49 3,-12 17,-36 29,-53 13,-17 40,-62 61,-100 20,-38 40,-71 44,-74 9,-6 80,-141 80,-153 0,-4 11,-20 25,-35 14,-15 41,-59 60,-98 19,-39 41,-77 50,-84 8,-7 15,-20 15,-29 0,-9 10,-31 23,-50 12,-19 27,-42 32,-50 6,-9 19,-30 31,-46 24,-35 56,-97 51,-101 -2,-2 -33,1 -70,7 -40,6 -223,9 -466,7 -327,-2 -402,-1 -406,10 -11,29 -5,1589 6,1623 6,19 12,39 14,44 4,14 1955,14 1955,0 z m 2010,3 c 0,-7 -11,-23 -24,-36 -14,-12 -37,-44 -52,-70 -15,-26 -33,-51 -40,-57 -6,-5 -20,-29 -30,-52 -10,-24 -21,-43 -26,-43 -4,0 -8,-8 -8,-17 -1,-10 -14,-34 -30,-53 -17,-19 -30,-42 -30,-51 0,-9 -7,-22 -15,-29 -8,-7 -15,-16 -15,-20 0,-5 -16,-32 -35,-61 -19,-30 -35,-59 -35,-65 0,-16 -30,-74 -62,-118 -15,-21 -28,-43 -28,-48 0,-8 -71,-122 -140,-224 -15,-23 -31,-52 -35,-65 -10,-30 -65,-132 -75,-139 -4,-3 -17,-27 -29,-54 -13,-26 -36,-66 -52,-89 -16,-22 -29,-44 -29,-49 0,-4 -12,-27 -27,-51 -31,-48 -41,-65 -73,-127 -13,-25 -34,-59 -47,-76 -13,-17 -23,-38 -23,-47 0,-10 -7,-17 -15,-17 -8,0 -15,8 -15,19 0,10 -7,24 -15,31 -8,7 -15,18 -15,25 0,7 -6,18 -14,24 -7,6 -16,24 -19,40 -3,15 -17,39 -31,52 -14,13 -26,29 -26,36 0,12 -57,114 -69,123 -3,3 -17,27 -31,53 -14,27 -34,59 -45,70 -11,12 -27,38 -36,57 -44,97 -135,266 -156,292 -19,21 -60,95 -74,131 -6,15 -15,27 -19,27 -5,0 -15,12 -23,28 -48,94 -63,119 -79,141 -9,13 -29,49 -44,80 -14,31 -36,70 -48,86 -13,17 -35,55 -49,85 -59,120 -135,230 -159,230 -15,0 -8,-67 8,-80 8,-8 29,-41 45,-74 17,-33 34,-63 38,-66 4,-3 24,-39 45,-80 22,-41 43,-77 48,-78 4,-2 18,-24 29,-50 12,-25 27,-52 35,-59 8,-8 14,-19 14,-25 0,-6 11,-25 24,-42 13,-17 33,-54 46,-81 12,-28 33,-64 45,-81 13,-16 31,-48 40,-69 9,-22 24,-49 34,-60 11,-11 33,-49 51,-85 18,-36 43,-79 56,-96 13,-17 24,-38 24,-46 0,-9 7,-21 15,-28 8,-7 15,-20 15,-29 0,-9 16,-34 35,-55 19,-22 35,-46 35,-53 0,-7 5,-13 10,-13 6,0 10,-8 10,-18 0,-11 13,-37 28,-58 33,-45 62,-102 62,-119 0,-7 6,-18 14,-24 8,-7 33,-43 56,-82 22,-38 46,-69 51,-69 6,0 9,-10 7,-22 -2,-17 -8,-22 -23,-19 -43,10 -1784,11 -1841,2 -34,-5 -63,-5 -68,0 -12,11 10,55 45,89 15,14 30,36 34,50 4,14 11,27 14,30 13,10 48,67 91,148 12,23 26,45 31,48 5,3 18,25 29,49 11,24 24,47 30,50 5,3 10,14 10,24 0,9 12,33 26,52 14,19 37,59 52,89 14,30 36,69 48,85 11,17 31,50 43,74 12,24 28,50 36,58 8,8 15,21 15,29 0,8 4,14 9,14 5,0 13,10 17,23 3,12 23,47 43,77 20,30 47,78 60,105 13,28 35,64 48,82 13,18 37,60 52,94 16,33 36,68 44,77 8,9 22,34 31,56 9,21 35,68 59,105 23,36 53,87 66,112 44,85 -45,78 1049,79 771,0 972,-3 972,-12 z m 2024,6 c 30,-4 46,-12 46,-21 0,-12 26,-60 40,-73 3,-3 19,-32 36,-65 54,-106 106,-199 135,-243 16,-24 29,-49 29,-55 0,-7 13,-28 30,-47 16,-19 29,-40 30,-47 0,-6 3,-13 8,-15 10,-4 42,-67 42,-82 0,-7 11,-26 25,-42 14,-16 39,-57 55,-91 17,-35 39,-72 50,-83 11,-11 28,-39 37,-63 10,-23 29,-60 44,-82 14,-22 35,-58 45,-80 10,-22 26,-46 36,-53 10,-7 18,-20 18,-27 0,-8 14,-37 30,-63 17,-27 30,-53 30,-58 0,-5 14,-27 30,-48 17,-22 30,-45 30,-52 0,-7 3,-14 8,-16 4,-1 16,-21 27,-42 11,-22 25,-45 31,-51 7,-6 22,-31 34,-56 13,-24 36,-59 52,-77 16,-19 28,-38 26,-43 -2,-6 -369,-11 -971,-12 -783,-2 -968,0 -972,11 -2,7 11,27 30,43 19,17 35,36 35,41 0,6 17,36 38,67 20,31 50,81 65,113 16,31 37,64 47,73 10,9 22,30 25,45 3,16 17,40 29,53 27,29 86,134 86,152 0,7 13,30 29,52 16,23 39,63 52,89 12,27 35,64 50,82 16,18 29,43 29,56 0,13 7,26 15,30 8,3 15,13 15,23 0,10 14,33 30,52 17,18 30,41 30,50 0,9 14,31 30,50 17,18 30,38 30,44 0,6 11,25 25,43 14,18 25,39 25,47 0,8 13,32 29,55 17,22 47,73 68,112 21,40 52,98 70,129 17,31 41,75 53,98 25,49 19,74 -12,46 -27,-24 -139,-197 -162,-251 -11,-23 -25,-47 -33,-53 -11,-10 -73,-132 -73,-145 0,-2 -16,-24 -35,-50 -19,-25 -35,-54 -35,-65 0,-10 -4,-19 -9,-19 -5,0 -13,-10 -17,-22 -4,-13 -17,-37 -30,-53 -12,-17 -28,-41 -34,-55 -12,-28 -20,-41 -73,-122 -20,-31 -37,-61 -37,-66 0,-5 -7,-15 -15,-22 -13,-11 -85,-150 -85,-165 0,-3 -14,-24 -30,-47 -16,-22 -30,-45 -30,-50 0,-6 -20,-40 -45,-77 -25,-37 -45,-70 -45,-74 0,-4 -12,-26 -27,-50 -15,-23 -40,-66 -55,-95 -14,-28 -36,-64 -47,-78 -12,-15 -21,-33 -21,-40 0,-8 -8,-14 -17,-14 -18,0 -35,23 -83,115 -15,28 -41,71 -58,96 -18,26 -32,51 -32,56 0,6 -13,28 -29,50 -16,22 -32,49 -35,61 -4,12 -12,22 -17,22 -5,0 -9,6 -9,13 0,8 -13,32 -28,53 -15,21 -45,79 -67,127 -21,48 -42,90 -47,93 -5,3 -20,28 -34,55 -13,27 -32,57 -42,67 -9,10 -30,43 -45,75 -16,32 -36,66 -45,75 -9,10 -34,53 -56,95 -21,43 -53,100 -71,127 -18,27 -38,65 -45,85 -6,19 -15,35 -20,35 -5,0 -27,38 -50,85 -23,46 -49,90 -57,97 -8,6 -23,31 -34,53 -19,40 -75,93 -86,81 -7,-7 28,-96 37,-96 4,0 15,-19 25,-42 9,-24 31,-65 49,-93 18,-27 40,-67 49,-87 10,-20 22,-40 27,-43 6,-3 21,-30 35,-58 13,-29 33,-61 43,-72 16,-18 40,-60 80,-140 8,-16 25,-43 36,-60 31,-44 56,-93 56,-109 0,-7 12,-26 26,-41 14,-15 37,-54 51,-87 14,-32 29,-58 33,-58 3,0 17,-21 29,-47 12,-27 29,-61 37,-76 9,-15 21,-38 28,-51 6,-13 18,-30 26,-39 32,-35 40,-47 40,-58 0,-6 20,-41 44,-78 24,-36 47,-77 51,-91 4,-14 15,-34 25,-45 10,-11 29,-42 43,-70 14,-27 34,-59 46,-69 12,-11 21,-26 21,-35 0,-15 -84,-16 -917,-16 -505,0 -938,-2 -963,-5 -42,-5 -45,-3 -48,20 -2,18 7,35 33,60 19,18 35,40 35,49 0,8 12,30 28,50 15,20 32,45 38,56 41,75 52,94 77,126 15,20 27,43 27,51 0,9 7,21 15,28 8,7 15,18 15,25 0,7 7,18 15,25 9,7 36,55 61,106 25,51 54,103 65,115 10,12 19,27 19,34 0,18 30,75 40,75 4,0 25,35 46,77 22,43 46,85 55,94 9,9 34,52 56,95 22,44 51,92 66,108 15,16 27,37 27,47 0,9 20,48 45,86 25,37 45,75 45,84 0,9 8,23 19,33 10,9 27,36 37,59 10,23 21,44 24,47 3,3 14,23 25,45 31,65 54,93 78,98 36,7 1910,8 1961,1 z M 1096,1877 c 3,-8 -9,-29 -26,-46 -16,-18 -30,-39 -30,-46 0,-7 -7,-18 -15,-25 -8,-7 -15,-20 -15,-30 0,-10 -6,-20 -13,-23 -7,-2 -23,-26 -36,-53 -13,-27 -34,-63 -46,-79 -12,-17 -32,-53 -45,-80 -13,-27 -33,-63 -45,-80 -12,-16 -33,-52 -46,-80 -13,-27 -27,-51 -31,-53 -5,-2 -8,-11 -8,-20 0,-9 -14,-31 -30,-49 -17,-18 -30,-38 -30,-46 0,-8 -14,-34 -31,-57 -18,-24 -45,-70 -60,-101 -16,-32 -34,-61 -40,-64 -5,-4 -21,-31 -34,-61 C 502,855 480,816 467,798 454,780 426,729 405,685 383,641 356,595 344,582 332,570 319,547 315,532 311,517 305,503 302,500 288,490 253,433 220,367 201,329 178,284 168,267 l -16,-32 -6,25 c -4,14 -5,383 -4,820 l 3,795 465,5 c 256,3 469,6 473,8 4,1 10,-4 13,-11 z m 6074,-8 c 0,-6 -14,-27 -31,-46 -16,-19 -41,-58 -54,-87 -14,-28 -38,-66 -55,-85 -16,-18 -30,-40 -30,-48 0,-13 -28,-63 -41,-73 -4,-3 -23,-36 -44,-75 -21,-38 -41,-74 -46,-80 -5,-5 -9,-16 -9,-25 -1,-8 -14,-31 -30,-50 -17,-19 -30,-41 -30,-48 0,-8 -13,-31 -29,-51 -16,-20 -38,-58 -50,-85 -13,-26 -36,-66 -52,-89 -16,-22 -29,-44 -29,-50 0,-5 -13,-29 -30,-54 -16,-24 -30,-48 -30,-53 0,-4 -4,-10 -8,-12 -5,-1 -26,-39 -48,-82 -21,-44 -49,-91 -61,-104 -13,-14 -23,-33 -23,-43 0,-10 -13,-33 -29,-52 -16,-18 -46,-67 -66,-109 -19,-42 -42,-79 -50,-82 -8,-3 -15,-13 -15,-23 0,-18 -86,-173 -95,-173 -2,0 -16,24 -30,52 -15,29 -41,80 -60,113 -19,33 -48,89 -66,125 -17,36 -43,78 -56,95 -14,16 -36,54 -50,84 -14,30 -42,79 -63,110 -21,31 -41,66 -44,79 -4,12 -12,22 -17,22 -5,0 -9,6 -9,14 0,8 -6,21 -13,28 -22,23 -47,67 -47,82 0,8 -11,28 -25,44 -14,17 -37,57 -52,89 -15,32 -32,63 -38,68 -7,6 -19,24 -28,40 -8,17 -30,59 -48,95 -18,36 -36,68 -41,71 -5,3 -15,17 -22,30 -49,92 -90,159 -98,159 -5,0 -8,8 -8,18 0,11 -11,32 -25,48 -14,16 -39,57 -55,90 -16,34 -40,71 -54,82 -26,20 -34,48 -16,54 5,2 446,2 980,0 702,-1 970,-5 970,-13 z m -4045,2 c 3,-5 -6,-18 -20,-29 -14,-11 -38,-47 -55,-80 -16,-33 -36,-66 -43,-74 -7,-7 -24,-35 -37,-63 -14,-27 -34,-63 -46,-80 -12,-16 -32,-52 -45,-80 -13,-27 -31,-57 -40,-66 -9,-9 -28,-39 -42,-65 -34,-67 -48,-91 -85,-148 -18,-28 -32,-54 -32,-58 0,-5 -18,-37 -40,-70 -22,-34 -40,-68 -40,-75 0,-7 -13,-28 -30,-46 -16,-19 -30,-38 -30,-41 0,-17 -52,-114 -75,-140 -14,-16 -25,-37 -25,-47 0,-10 -5,-21 -10,-24 -6,-4 -17,-23 -26,-43 -8,-20 -24,-46 -34,-57 -10,-11 -32,-45 -47,-75 -16,-30 -41,-74 -56,-97 -15,-24 -27,-47 -27,-51 0,-5 -13,-27 -30,-50 -16,-22 -32,-53 -36,-67 -16,-63 -49,-40 -104,73 -17,35 -37,65 -45,69 -8,3 -15,11 -15,19 0,19 -118,238 -151,283 -10,13 -30,48 -45,79 -14,30 -43,81 -64,111 -20,31 -48,77 -60,104 -13,26 -26,47 -30,47 -4,0 -17,21 -30,48 -13,26 -32,60 -44,76 -24,36 -56,97 -56,109 0,4 -13,25 -29,45 -16,20 -32,48 -36,62 -4,13 -14,30 -21,38 -8,7 -14,21 -14,31 0,10 -10,29 -22,43 -13,13 -38,55 -57,92 -19,38 -41,70 -48,73 -7,3 -13,11 -13,18 0,6 -9,22 -20,35 -11,13 -20,29 -20,37 0,8 -13,28 -30,46 -16,18 -30,36 -30,41 0,5 -7,14 -17,21 -46,34 -17,35 972,35 582,0 976,-4 980,-9 z m 2021,-3 c 4,-6 -4,-19 -20,-30 -14,-11 -38,-45 -53,-76 -15,-32 -40,-73 -55,-93 -15,-20 -28,-44 -28,-53 0,-9 -10,-27 -22,-42 -13,-14 -30,-38 -38,-54 -54,-102 -64,-120 -70,-120 -4,0 -16,-19 -29,-42 -20,-39 -28,-54 -53,-98 -4,-8 -12,-25 -17,-37 -6,-11 -14,-24 -19,-27 -5,-3 -26,-39 -46,-81 -20,-41 -41,-75 -46,-75 -5,0 -14,-18 -20,-40 -6,-21 -21,-52 -34,-67 -12,-15 -44,-67 -69,-115 -26,-47 -60,-108 -77,-134 -16,-26 -30,-52 -30,-56 0,-5 -18,-33 -40,-62 -22,-29 -40,-60 -40,-68 0,-9 -7,-21 -15,-28 -8,-7 -15,-16 -15,-21 0,-5 -13,-28 -30,-51 -16,-22 -30,-49 -30,-58 0,-10 -6,-23 -14,-29 -8,-6 -24,-34 -35,-62 -12,-28 -27,-49 -34,-46 -16,5 -85,119 -86,142 -1,11 -15,34 -31,52 -17,18 -30,37 -30,43 0,18 -40,92 -71,131 -16,20 -29,43 -29,50 0,8 -14,32 -30,53 -17,22 -30,46 -30,53 0,7 -4,13 -9,13 -5,0 -12,12 -16,27 -3,15 -10,30 -13,33 -4,3 -16,23 -27,44 -11,22 -25,45 -32,51 -6,7 -26,39 -43,71 -18,33 -38,66 -45,74 -7,8 -24,40 -38,70 -15,30 -38,70 -52,89 -14,19 -25,43 -25,52 0,10 -5,21 -10,24 -6,3 -20,27 -31,53 -12,26 -25,49 -29,52 -4,3 -22,32 -40,65 -18,33 -38,67 -45,75 -7,8 -25,38 -39,65 -13,28 -34,60 -46,73 -12,12 -35,49 -51,82 -16,32 -43,72 -60,88 -18,16 -29,35 -25,41 10,16 1952,16 1962,-1 z"
       id="path8"
       inkscape:connector-curvature="0" />
    <path
       d="m 230,7151 c -33,-9 -38,-37 -8,-45 39,-10 1774,-7 1802,4 38,14 32,36 -11,44 -52,8 -1752,6 -1783,-3 z"
       id="path10"
       inkscape:connector-curvature="0" />
    <path
       d="m 7225,8615 c -10,-22 -20,-1268 -10,-1322 3,-18 10,-33 14,-33 15,0 16,54 11,720 -3,432 -8,648 -15,635 z"
       id="path12"
       inkscape:connector-curvature="0" />
    <path
       d="m 6758,7160 c -474,-5 -511,-8 -472,-41 14,-11 103,-15 488,-19 261,-3 477,-1 484,4 18,13 15,44 -7,56 -11,5 -21,9 -23,8 -2,-1 -213,-5 -470,-8 z"
       id="path14"
       inkscape:connector-curvature="0" />
    <path
       d="m 7215,6968 c -10,-70 0,-1241 10,-1263 16,-32 20,167 17,763 -2,498 -9,623 -27,500 z"
       id="path16"
       inkscape:connector-curvature="0" />
    <path
       d="m 7226,5073 c -10,-32 -11,-1287 -1,-1303 7,-12 10,-10 15,10 6,27 2,1301 -4,1308 -2,2 -7,-5 -10,-15 z"
       id="path18"
       inkscape:connector-curvature="0" />
    <path
       d="m 7226,3492 c -3,-5 -7,-308 -8,-673 -1,-489 1,-669 10,-684 10,-17 12,-9 13,45 3,167 -1,1314 -5,1317 -2,2 -7,0 -10,-5 z"
       id="path20"
       inkscape:connector-curvature="0" />
    <path
       d="m 7226,1623 c -4,-26 -7,-358 -9,-738 -2,-608 0,-690 13,-690 13,0 15,87 12,734 -1,404 -4,736 -6,738 -2,3 -7,-17 -10,-44 z"
       id="path22"
       inkscape:connector-curvature="0" />
  </g>
  <path
     style="fill:#000000;fill-opacity:0;stroke:none"
     d="m 335.0741,476.94731 c -2.23551,-4.21306 -7.43448,-13.40564 -11.55326,-20.42793 -4.11879,-7.02234 -8.51384,-14.62666 -9.76677,-16.8986 -1.25294,-2.27192 -3.69986,-6.49657 -5.4376,-9.3881 -1.73774,-2.89154 -4.05997,-6.9472 -5.16051,-9.01258 -2.04393,-3.83583 -3.88259,-6.97572 -6.81687,-11.64124 -0.90929,-1.44577 -3.11858,-5.16346 -4.90954,-8.26153 -1.79096,-3.09808 -3.93047,-6.3933 -4.75447,-7.32272 l -1.49819,-1.68986 54.2507,0 c 43.19782,0 54.13689,0.19127 53.69206,0.93881 -0.30726,0.51635 -2.28763,3.64259 -4.40083,6.9472 -2.11321,3.30461 -5.66834,9.21911 -7.90031,13.14334 -2.23198,3.92422 -9.39679,16.34078 -15.9218,27.59236 -6.52501,11.25157 -11.86366,20.68813 -11.86366,20.97017 0,0.28208 -0.47978,1.04642 -1.06619,1.69856 -1.16894,1.29994 -5.45081,8.60413 -8.83898,15.07786 -3.57739,6.83521 -3.50274,6.85121 -8.05378,-1.72574 l 0,0 z"
     id="path3771"
     inkscape:connector-curvature="0" />
  <path
     style="fill:#333333;fill-opacity:0;stroke:none"
     d="m 62.299329,192.90149 c 0.742683,-1.23923 3.714918,-6.13982 6.604965,-10.8902 2.890043,-4.75038 7.38124,-12.52373 9.980435,-17.2741 2.599195,-4.75038 7.516857,-13.36866 10.928137,-19.15173 6.844438,-11.60322 14.072944,-24.25387 17.165784,-30.04193 3.92884,-7.35259 5.79841,-10.52829 6.77881,-11.51471 0.82588,-0.83095 1.79161,0.43897 5.71151,7.51048 2.59466,4.68079 5.29544,9.35545 6.00172,10.38815 0.70629,1.03268 2.36253,3.8325 3.68054,6.22181 3.67337,6.65914 31.74186,55.07541 35.26076,60.82245 1.7117,2.79554 3.11223,5.33033 3.11229,5.63286 4e-5,0.30254 -23.97938,0.55006 -53.2876,0.55006 l -53.287688,0 1.350337,-2.25314 0,0 z"
     id="path3773"
     inkscape:connector-curvature="0" />
  <path
     style="fill:#333333;fill-opacity:0;stroke:none"
     d="m 61.306805,194.8795 c -1.07e-4,-0.15132 2.987069,-5.22089 6.638173,-11.26572 3.651104,-6.04483 8.76679,-14.87726 11.368191,-19.62764 2.6014,-4.75038 7.336948,-13.03069 10.523441,-18.40068 3.186494,-5.37 8.343664,-14.32624 11.46039,-19.90278 3.11673,-5.57653 7.17333,-12.82638 9.01467,-16.11079 1.84133,-3.28441 3.65095,-6.0622 4.02138,-6.17287 0.37042,-0.11067 2.53233,3.24308 4.80426,7.45279 2.27192,4.2097 4.84196,8.70429 5.71119,9.98797 0.86924,1.28368 2.64455,4.27293 3.94513,6.64277 4.34768,7.92206 28.02448,48.78193 33.62765,58.03242 3.04378,5.02509 5.5342,9.24973 5.53425,9.3881 6e-5,0.13836 -23.99584,0.25156 -53.32422,0.25156 -29.328361,0 -53.324394,-0.12381 -53.324505,-0.27513 l 0,0 z"
     id="path3775"
     inkscape:connector-curvature="0" />
  <path
     style="fill:#666666;fill-opacity:0;stroke:none"
     d="m 61.306805,194.8795 c -1.07e-4,-0.15132 2.987069,-5.22089 6.638173,-11.26572 3.651104,-6.04483 8.76679,-14.87726 11.368191,-19.62764 2.6014,-4.75038 7.336948,-13.03069 10.523441,-18.40068 3.186494,-5.37 8.343664,-14.32624 11.46039,-19.90278 3.11673,-5.57653 7.17333,-12.82638 9.01467,-16.11079 1.84133,-3.28441 3.65095,-6.0622 4.02138,-6.17287 0.37042,-0.11067 2.53233,3.24308 4.80426,7.45279 2.27192,4.2097 4.84196,8.70429 5.71119,9.98797 0.86924,1.28368 2.64455,4.27293 3.94513,6.64277 4.34768,7.92206 28.02448,48.78193 33.62765,58.03242 3.04378,5.02509 5.5342,9.24973 5.53425,9.3881 6e-5,0.13836 -23.99584,0.25156 -53.32422,0.25156 -29.328361,0 -53.324394,-0.12381 -53.324505,-0.27513 l 0,0 z"
     id="path3777"
     inkscape:connector-curvature="0" />
  <path
     style="fill:#666666;fill-opacity:0;stroke:none"
     d="m 61.306805,194.8795 c -1.07e-4,-0.15132 2.987069,-5.22089 6.638173,-11.26572 3.651104,-6.04483 8.76679,-14.87726 11.368191,-19.62764 2.6014,-4.75038 7.336948,-13.03069 10.523441,-18.40068 3.186494,-5.37 8.343664,-14.32624 11.46039,-19.90278 3.11673,-5.57653 7.17333,-12.82638 9.01467,-16.11079 1.84133,-3.28441 3.65095,-6.0622 4.02138,-6.17287 0.37042,-0.11067 2.53233,3.24308 4.80426,7.45279 2.27192,4.2097 4.84196,8.70429 5.71119,9.98797 0.86924,1.28368 2.64455,4.27293 3.94513,6.64277 4.34768,7.92206 28.02448,48.78193 33.62765,58.03242 3.04378,5.02509 5.5342,9.24973 5.53425,9.3881 6e-5,0.13836 -23.99584,0.25156 -53.32422,0.25156 -29.328361,0 -53.324394,-0.12381 -53.324505,-0.27513 l 0,0 z"
     id="path3779"
     inkscape:connector-curvature="0" />
  <path
     style="fill:#666666;fill-opacity:0;stroke:none"
     d="m 61.306805,194.8795 c -1.07e-4,-0.15132 2.987069,-5.22089 6.638173,-11.26572 3.651104,-6.04483 8.76679,-14.87726 11.368191,-19.62764 2.6014,-4.75038 7.336948,-13.03069 10.523441,-18.40068 3.186494,-5.37 8.343664,-14.32624 11.46039,-19.90278 3.11673,-5.57653 7.17333,-12.82638 9.01467,-16.11079 1.84133,-3.28441 3.65095,-6.0622 4.02138,-6.17287 0.37042,-0.11067 2.53233,3.24308 4.80426,7.45279 2.27192,4.2097 4.84196,8.70429 5.71119,9.98797 0.86924,1.28368 2.64455,4.27293 3.94513,6.64277 4.34768,7.92206 28.02448,48.78193 33.62765,58.03242 3.04378,5.02509 5.5342,9.24973 5.53425,9.3881 6e-5,0.13836 -23.99584,0.25156 -53.32422,0.25156 -29.328361,0 -53.324394,-0.12381 -53.324505,-0.27513 l 0,0 z"
     id="path3781"
     inkscape:connector-curvature="0" />
  <path
     style="fill:#666666;fill-opacity:0;stroke:none"
     d="m 61.306805,194.8795 c -1.07e-4,-0.15132 2.987069,-5.22089 6.638173,-11.26572 3.651104,-6.04483 8.76679,-14.87726 11.368191,-19.62764 2.6014,-4.75038 7.336948,-13.03069 10.523441,-18.40068 3.186494,-5.37 8.343664,-14.32624 11.46039,-19.90278 3.11673,-5.57653 7.17333,-12.82638 9.01467,-16.11079 1.84133,-3.28441 3.65095,-6.0622 4.02138,-6.17287 0.37042,-0.11067 2.53233,3.24308 4.80426,7.45279 2.27192,4.2097 4.84196,8.70429 5.71119,9.98797 0.86924,1.28368 2.64455,4.27293 3.94513,6.64277 4.34768,7.92206 28.02448,48.78193 33.62765,58.03242 3.04378,5.02509 5.5342,9.24973 5.53425,9.3881 6e-5,0.13836 -23.99584,0.25156 -53.32422,0.25156 -29.328361,0 -53.324394,-0.12381 -53.324505,-0.27513 l 0,0 z"
     id="path3783"
     inkscape:connector-curvature="0" />
  <path
     style="fill:#000000;fill-opacity:0;stroke:none"
     d="m 112.88877,287.34578 c -0.9686,-1.54903 -3.06263,-5.18223 -4.6534,-8.07376 -4.58962,-8.34252 -19.206323,-33.60896 -20.637964,-35.67479 -0.715665,-1.03269 -3.588658,-6.10226 -6.384428,-11.26572 -6.769028,-12.50159 -15.19022,-26.74238 -17.896597,-30.26432 -1.204969,-1.56808 -2.03983,-3.00209 -1.855242,-3.18668 0.582578,-0.58257 106.494291,-1.37082 106.494291,-0.79258 0,0.30322 -0.96577,1.96408 -2.14615,3.69081 -1.8808,2.75136 -3.75641,5.93225 -10.044,17.03391 -0.81883,1.44576 -1.79878,3.01095 -2.17766,3.4782 -0.37889,0.46724 -2.83022,4.69189 -5.44741,9.3881 -4.79954,8.61215 -5.92965,10.57751 -22.73502,39.53798 -5.09964,8.78815 -9.27208,16.64599 -9.27208,17.46187 0,2.29913 -1.30967,1.76102 -3.24434,-1.33302 z"
     id="path3785"
     inkscape:connector-curvature="0" />
  <path
     style="fill:#727272;fill-opacity:0.98550726;stroke:none"
     d="m 61.306805,194.8795 c -1.07e-4,-0.15132 2.987069,-5.22089 6.638173,-11.26572 3.651104,-6.04483 8.76679,-14.87726 11.368191,-19.62764 2.6014,-4.75038 7.336948,-13.03069 10.523441,-18.40068 3.186494,-5.37 8.343664,-14.32624 11.46039,-19.90278 3.11673,-5.57653 7.17333,-12.82638 9.01467,-16.11079 1.84133,-3.28441 3.65095,-6.0622 4.02138,-6.17287 0.37042,-0.11067 2.53233,3.24308 4.80426,7.45279 2.27192,4.2097 4.84196,8.70429 5.71119,9.98797 0.86924,1.28368 2.64455,4.27293 3.94513,6.64277 4.34768,7.92206 28.02448,48.78193 33.62765,58.03242 3.04378,5.02509 5.5342,9.24973 5.53425,9.3881 6e-5,0.13836 -23.99584,0.25156 -53.32422,0.25156 -29.328361,0 -53.324394,-0.12381 -53.324505,-0.27513 l 0,0 z"
     id="path3787"
     inkscape:connector-curvature="0" />
  <path
     style="fill:#727272;fill-opacity:0.98550726;stroke:none"
     d="m 167.58795,187.45639 c -1.45172,-2.78827 -5.01456,-8.94675 -7.91742,-13.68553 -2.90285,-4.73878 -6.83013,-11.49821 -8.72728,-15.02097 -3.95249,-7.33923 -12.8631,-22.59025 -16.54205,-28.31267 -1.37284,-2.13539 -2.49608,-4.12301 -2.49608,-4.41695 0,-0.74468 -10.47309,-19.09002 -12.14869,-21.28045 -0.7536,-0.98513 -1.37017,-2.08354 -1.37017,-2.44091 0,-0.35942 23.32439,-0.64976 52.19784,-0.64976 28.70881,0 52.18468,0.25347 52.1686,0.56328 -0.0161,0.30981 -1.19438,2.42213 -2.61845,4.69405 -1.42407,2.27193 -3.00705,4.9757 -3.51773,6.00839 -0.51069,1.03269 -2.25775,4.07443 -3.88236,6.75943 -1.62463,2.685 -5.14321,8.93747 -7.81908,13.89439 -2.67586,4.95692 -5.77811,10.36446 -6.89388,12.01677 -1.11577,1.6523 -4.67677,7.7358 -7.91334,13.51886 -7.34998,13.1329 -19.25608,33.42165 -19.61292,33.42165 -0.14711,0 -1.45526,-2.28132 -2.90699,-5.06958 l 0,0 z"
     id="path3789"
     inkscape:connector-curvature="0" />
  <path
     style="fill:#727272;fill-opacity:0.98550726;stroke:none"
     d="m 173.2129,194.46272 c -7e-5,-0.38055 0.5494,-1.29913 1.22105,-2.04129 1.88232,-2.07995 9.70411,-15.18378 19.43896,-32.56606 4.85817,-8.6746 9.57402,-16.78592 10.47968,-18.02515 0.90566,-1.23923 2.82757,-4.44996 4.2709,-7.13496 1.44333,-2.685 6.09971,-11.04979 10.34751,-18.58844 6.9927,-12.41006 9.06828,-15.3528 9.06828,-12.85694 0,0.92362 5.02497,9.98676 12.43767,22.4328 2.58324,4.33731 5.69415,9.74485 6.91314,12.01677 3.62924,6.76405 21.25675,37.20484 27.45919,47.41902 3.16985,5.2201 5.76336,9.64469 5.76336,9.83245 0,0.18774 -24.16491,0.31039 -53.6998,0.27254 -32.18941,-0.0412 -53.69985,-0.34599 -53.69994,-0.76074 l 0,0 z"
     id="path3791"
     inkscape:connector-curvature="0" />
  <path
     style="fill:#727272;fill-opacity:0.98550726;stroke:none"
     d="m 274.89447,178.01911 c -4.27848,-7.43199 -12.57139,-21.87707 -18.42869,-32.10019 -5.8573,-10.22312 -13.87919,-24.15178 -17.82641,-30.95259 l -7.17679,-12.3651 26.66762,-0.38061 c 14.66719,-0.20933 38.0068,-0.14162 51.86579,0.15046 l 25.19818,0.53107 -5.452,9.02822 c -2.99861,4.96551 -6.34515,10.94006 -7.43676,13.27678 -1.09162,2.33671 -4.66291,8.55024 -7.93621,13.80785 -3.27329,5.2576 -9.49427,15.96708 -13.82439,23.79885 -4.33012,7.83176 -8.74575,15.47918 -9.81252,16.99427 -1.06677,1.51509 -2.96763,4.78606 -4.22415,7.26882 -1.25651,2.48275 -2.63333,4.50077 -3.05959,4.48448 -0.42626,-0.0163 -4.2756,-6.11033 -8.55408,-13.54231 z"
     id="path3793"
     inkscape:connector-curvature="0" />
  <path
     style="fill:#727272;fill-opacity:0.98550726;stroke:none"
     d="m 286.39117,195.0186 c -1.5e-4,-0.3069 7.53893,-13.09659 12.97711,-22.01505 1.78106,-2.92089 4.79666,-8.18354 6.70133,-11.69478 1.90467,-3.51124 6.85055,-12.1146 10.99084,-19.11857 4.14029,-7.00397 10.74802,-18.58955 14.68384,-25.74573 3.93582,-7.15619 7.41004,-13.00609 7.72048,-12.99979 0.31045,0.006 2.4549,3.61192 4.76545,8.0125 2.31056,4.40058 6.13427,11.08104 8.49714,14.84547 2.36288,3.76444 6.27439,10.31555 8.69227,14.55803 9.5423,16.74326 27.39042,47.16599 29.23506,49.83218 1.07281,1.55063 1.95063,3.2235 1.95069,3.7175 7e-5,0.494 -23.89807,0.89818 -53.10698,0.89818 -29.20891,0 -53.10716,-0.13047 -53.10723,-0.28994 z"
     id="path3795"
     inkscape:connector-curvature="0" />
  <path
     style="fill:#727272;fill-opacity:0.98550726;stroke:none"
     d="m 103.38977,270.4387 c -6.238856,-10.94432 -13.233213,-23.00552 -15.543004,-26.80268 -2.309791,-3.79716 -5.125374,-8.81578 -6.256854,-11.1525 -1.131476,-2.33671 -5.934532,-10.66603 -10.673457,-18.50959 -4.738926,-7.84357 -8.342641,-14.53507 -8.008256,-14.87 0.854665,-0.85606 104.522881,-1.42289 104.522881,-0.5715 0,0.38321 -0.94,2.01687 -2.08889,3.63034 -1.8868,2.64975 -6.68178,10.83491 -18.07345,30.85183 -2.16097,3.79715 -9.33219,16.22422 -15.93605,27.6157 -6.60385,11.39147 -13.04033,22.73573 -14.30327,25.20946 l -2.29628,4.49769 -11.34337,-19.89875 z"
     id="path3797"
     inkscape:connector-curvature="0" />
  <path
     style="fill:#727272;fill-opacity:0.98550726;stroke:none"
     d="m 170.88305,291.68795 c -28.77078,-0.15155 -52.31051,-0.50284 -52.31051,-0.78065 0,-0.27781 1.35387,-2.78261 3.00862,-5.56624 1.65474,-2.78362 4.95166,-8.40688 7.32649,-12.49613 2.37484,-4.08924 8.66839,-14.92025 13.98566,-24.0689 5.31728,-9.14864 9.66778,-16.86253 9.66778,-17.14197 0,-0.64276 16.8793,-28.61874 17.90121,-29.66969 0.41669,-0.42855 6.55487,9.36971 13.64039,21.77391 25.37888,44.4293 31.83537,55.56952 35.76086,61.70283 2.19071,3.42283 3.83616,6.29062 3.65657,6.37286 -0.17961,0.0822 -23.86629,0.0255 -52.63707,-0.12602 l 0,0 z"
     id="path3799"
     inkscape:connector-curvature="0" />
  <path
     style="fill:#727272;fill-opacity:0.98550726;stroke:none"
     d="m 222.65451,282.7808 c -2.46397,-4.29637 -6.4407,-11.15733 -8.83717,-15.24658 -2.39647,-4.08925 -5.13759,-8.86889 -6.09138,-10.62142 -0.95379,-1.75254 -5.4419,-9.63895 -9.97359,-17.52535 -4.53168,-7.88641 -9.31984,-16.25078 -10.64036,-18.58749 -1.32051,-2.33671 -4.79688,-8.13209 -7.72525,-12.87861 l -5.32431,-8.63003 5.44699,-0.65448 c 7.01519,-0.8429 85.17917,-0.6363 93.75406,0.24781 l 6.52211,0.67246 -7.42588,12.21464 c -4.08423,6.71805 -9.68772,16.27733 -12.4522,21.24285 -2.76449,4.96551 -7.80823,13.80785 -11.20832,19.64963 -9.22876,15.85616 -10.00779,17.21734 -16.02037,27.99228 l -5.54437,9.93587 -4.47996,-7.81158 z"
     id="path3801"
     inkscape:connector-curvature="0" />
  <path
     style="fill:#727272;fill-opacity:0.98550726;stroke:none"
     d=""
     id="path3803"
     inkscape:connector-curvature="0" />
  <path
     style="fill:#727272;fill-opacity:0.98550726;stroke:none"
     d="m 335.22921,282.70002 c -2.03342,-3.63446 -5.51601,-9.95046 -7.73908,-14.03555 -2.22307,-4.08508 -4.44247,-7.92242 -4.93199,-8.52741 -0.48952,-0.60498 -1.84245,-2.77285 -3.0065,-4.81748 -1.16406,-2.04462 -5.10176,-8.9751 -8.75046,-15.40106 -8.58855,-15.12587 -19.91086,-34.28837 -22.35976,-37.84289 l -1.92369,-2.79221 3.91968,-0.64807 c 5.31354,-0.87853 92.01698,-0.69729 97.53649,0.20388 l 4.39684,0.71788 -7.66777,12.74571 c -4.21728,7.01014 -12.37847,20.8711 -18.13599,30.80213 -5.75752,9.93103 -13.96437,23.9955 -18.23745,31.25438 -4.27308,7.25888 -7.76924,13.59191 -7.76924,14.07339 0,2.37812 -1.99116,0.23696 -5.33108,-5.7327 z"
     id="path3805"
     inkscape:connector-curvature="0" />
  <path
     style="fill:#727272;fill-opacity:0.98550726;stroke:none"
     d="m 231.33665,290.60031 c 0.19473,-0.45766 3.03053,-5.35679 6.3018,-10.88695 12.89731,-21.80332 21.7185,-37.05723 27.00545,-46.69876 9.55721,-17.42899 17.51724,-30.27106 18.76323,-30.27106 0.66011,0 2.19899,1.71572 3.41973,3.81272 1.22074,2.097 5.51554,9.50544 9.54401,16.46321 4.02847,6.95776 11.4945,19.81994 16.59118,28.58262 5.09668,8.76267 10.34742,18.08297 11.66831,20.71177 1.32089,2.62881 4.47992,8.0059 7.02006,11.94911 l 4.61845,7.16946 -52.64313,0 c -28.95373,0 -52.48382,-0.37446 -52.28909,-0.83212 z"
     id="path3807"
     inkscape:connector-curvature="0" />
</svg>
