<?xml version="1.0" encoding="UTF-8" standalone="no"?>
<svg
   xmlns:dc="http://purl.org/dc/elements/1.1/"
   xmlns:cc="http://creativecommons.org/ns#"
   xmlns:rdf="http://www.w3.org/1999/02/22-rdf-syntax-ns#"
   xmlns:svg="http://www.w3.org/2000/svg"
   xmlns="http://www.w3.org/2000/svg"
   xmlns:sodipodi="http://sodipodi.sourceforge.net/DTD/sodipodi-0.dtd"
   xmlns:inkscape="http://www.inkscape.org/namespaces/inkscape"
   version="1.0"
   width="500.25497"
   height="497.36465"
   viewBox="0 0 400.20398 397.89172"
   preserveAspectRatio="xMidYMid meet"
   id="svg2"
   inkscape:version="0.48.4 r9939"
   sodipodi:docname="c59e33f52a03ce48464d9eba0eb8b734e2ceab72.svg">
  <defs
     id="defs12" />
  <sodipodi:namedview
     pagecolor="#ffffff"
     bordercolor="#666666"
     borderopacity="1"
     objecttolerance="10"
     gridtolerance="10"
     guidetolerance="10"
     inkscape:pageopacity="0"
     inkscape:pageshadow="2"
     inkscape:window-width="1600"
     inkscape:window-height="824"
     id="namedview10"
     showgrid="false"
     inkscape:zoom="0.37553238"
     inkscape:cx="914.93978"
     inkscape:cy="521.36751"
     inkscape:window-x="0"
     inkscape:window-y="24"
     inkscape:window-maximized="1"
     inkscape:current-layer="svg2"
     fit-margin-top="0"
     fit-margin-left="0"
     fit-margin-right="0"
     fit-margin-bottom="0" />
  <metadata
     id="metadata4">
Created by potrace 1.10, written by Peter Selinger 2001-2011
<rdf:RDF>
  <cc:Work
     rdf:about="">
    <dc:format>image/svg+xml</dc:format>
    <dc:type
       rdf:resource="http://purl.org/dc/dcmitype/StillImage" />
    <dc:title />
  </cc:Work>
</rdf:RDF>
</metadata>
  <g
     transform="matrix(0.05774916,0,0,-0.05774916,-1.1526936,403.08914)"
     id="g6"
     style="fill:#000000;stroke:none">
    <path
       d="m 26,6964 c -10,-27 -7,-43 15,-63 20,-19 21,-27 22,-464 2,-414 1,-446 -16,-456 -21,-14 -22,-60 -1,-75 14,-11 16,-61 17,-444 2,-325 -1,-433 -10,-436 -6,-3 -16,-14 -22,-24 -8,-16 -6,-26 10,-46 21,-26 21,-36 21,-453 0,-353 -3,-429 -14,-438 -27,-20 -29,-45 -5,-69 l 22,-22 -2,-443 c -1,-388 -3,-445 -17,-460 -20,-22 -20,-50 0,-72 14,-16 16,-67 16,-446 0,-378 -2,-428 -16,-439 -21,-15 -20,-61 1,-75 17,-10 18,-41 16,-439 -1,-422 -1,-428 -22,-449 -22,-22 -21,-31 7,-63 12,-14 14,-87 14,-462 C 62,189 61,181 41,161 19,139 13,105 29,96 34,92 1592,90 3492,90 l 3453,0 3,32 c 2,21 -2,36 -13,44 -14,10 -16,59 -16,460 0,395 2,449 15,456 21,12 21,64 0,76 -13,7 -15,59 -15,437 0,370 2,430 16,445 20,22 19,67 -1,78 -13,7 -15,60 -15,437 0,377 2,431 15,441 21,15 21,63 0,78 -13,10 -15,64 -15,455 0,385 2,446 16,461 20,22 19,67 -1,78 -13,7 -15,60 -15,437 0,377 2,431 15,441 9,6 16,24 16,39 0,15 -7,33 -16,39 -13,10 -15,64 -15,441 0,377 2,430 15,437 20,11 20,56 1,78 -14,15 -16,75 -16,461 0,388 2,445 16,455 9,7 15,26 15,48 l 0,36 -3459,0 C 346,6980 32,6979 26,6964 z m 990,-77 c 2,-2 5,-206 5,-453 l 0,-449 -433,-5 c -238,-3 -436,-4 -440,-2 -8,3 -11,905 -4,913 6,5 867,2 872,-4 z m 958,-451 c 0,-251 -2,-456 -6,-456 -5,0 -200,-1 -435,-1 -340,0 -428,3 -432,13 -3,7 -5,213 -3,458 l 2,445 436,-2 437,-2 1,-455 z m 992,451 c 6,-6 6,-898 1,-904 -6,-6 -898,-5 -904,1 -3,3 -6,802 -3,906 0,6 900,3 906,-3 z m 958,-451 c 1,-251 -2,-456 -6,-456 -5,0 -200,-1 -435,-1 -340,0 -428,3 -432,13 -3,7 -5,213 -3,458 l 2,445 437,-2 436,-2 1,-455 z m 992,451 c 3,-2 5,-206 5,-453 l 0,-449 -448,-5 c -246,-3 -452,-2 -456,1 -6,4 -12,776 -7,909 0,6 900,3 906,-3 z m 962,-443 c 1,-246 -1,-451 -6,-456 -4,-4 -201,-8 -437,-8 l -430,-1 -3,448 c -1,246 0,453 2,458 2,6 156,9 437,8 l 434,-1 3,-448 z m 954,-6 0,-453 -429,-5 c -235,-3 -432,-2 -436,1 -6,4 -12,776 -7,909 0,3 196,4 436,3 l 435,-2 1,-453 z M 1015,5900 c 7,0 9,-151 8,-436 l -2,-436 -440,-2 -441,-1 0,436 c 0,240 2,438 4,440 3,3 773,2 871,-1 z m 953,2 c 10,-7 12,-102 10,-441 l -3,-434 -438,-1 -437,-1 0,437 0,438 423,3 c 232,1 424,3 427,4 3,2 11,-1 18,-5 z m 999,-6 c 2,-2 4,-198 4,-436 l 1,-433 -457,0 -457,0 0,432 c 1,237 3,435 6,439 4,7 896,6 903,-2 z m 541,4 417,0 -2,-436 -1,-436 -436,-2 c -240,0 -436,2 -436,7 -4,153 1,861 6,868 3,6 13,8 21,5 8,-3 202,-6 431,-6 z m 1412,0 c 3,0 4,-197 3,-437 l -2,-438 -456,0 -457,0 1,438 c 0,240 0,438 1,440 0,1 873,-1 910,-3 z m 956,-3 c 7,-7 5,-857 -1,-868 -9,-13 -875,-12 -875,1 -3,146 1,863 4,868 4,7 865,6 872,-1 z m 954,3 c 3,0 4,-196 3,-436 l -1,-436 -437,0 -436,0 0,432 c 0,237 2,434 5,438 3,5 759,7 866,2 z M 1023,4506 c 1,-285 -1,-436 -8,-436 -5,0 -203,-1 -440,-1 l -430,0 -3,438 -2,438 441,-1 440,-2 2,-436 z m 952,432 c 7,-6 7,-859 1,-865 -2,-3 -199,-4 -438,-4 l -433,0 -3,438 -2,438 435,-1 c 240,-1 438,-3 440,-6 z m 998,-431 c 1,-241 -1,-437 -5,-437 -5,0 -211,-1 -459,-1 l -451,0 1,438 c 0,241 0,438 1,438 0,0 205,0 456,-1 l 455,-1 2,-436 z m 953,431 c 6,-6 7,-859 0,-865 -9,-10 -876,-8 -876,2 -1,10 0,855 0,865 0,7 869,4 876,-2 z m 994,2 c 8,0 6,-870 -2,-870 -5,0 -211,-1 -459,-1 l -451,0 1,438 c 0,241 1,438 1,438 24,0 907,-5 910,-5 z m 950,0 c 3,0 5,-196 5,-435 0,-239 -2,-435 -5,-435 -255,-5 -870,-3 -870,3 0,9 0,855 0,865 0,5 689,7 870,2 z m 963,-434 c 1,-240 0,-436 -3,-436 -3,0 -200,-1 -438,-1 l -434,0 1,435 c 0,240 0,437 1,439 0,1 196,1 436,0 l 436,-1 1,-436 z M 1017,3986 c 3,-2 4,-207 4,-456 l 0,-452 -440,-1 -441,-2 0,456 c 0,251 2,458 4,460 6,5 868,1 873,-5 z m 959,1 c 6,-6 5,-899 0,-905 -3,-3 -202,-6 -441,-6 l -435,-1 0,456 c 0,251 2,458 4,460 5,5 867,1 872,-4 z m 991,-1 c 2,-2 4,-208 4,-457 l 0,-452 -456,0 -456,1 0,451 c 0,248 2,454 4,458 5,8 896,7 904,-1 z m 960,1 c 6,-6 4,-899 -1,-905 -11,-10 -876,-7 -876,3 -3,148 1,898 4,903 4,7 866,6 873,-1 z m 990,-1 c 3,-2 4,-208 4,-456 l 0,-452 -456,0 -456,0 0,451 c 0,248 2,454 4,458 5,8 896,7 904,-1 z m 861,1 94,-2 0,-454 0,-453 -436,-2 c -285,-1 -436,2 -436,9 -3,148 1,898 4,903 4,6 526,6 774,-1 z m 940,0 113,-2 1,-453 0,-454 -437,0 -436,0 0,451 c 0,248 2,454 4,458 5,7 442,7 755,0 z M 1023,2556 c 1,-285 -1,-436 -8,-436 -5,0 -203,-1 -440,-1 l -430,0 -3,438 -2,438 441,-1 440,-2 2,-436 z m 952,432 c 7,-6 7,-859 1,-865 -2,-2 -199,-4 -438,-4 l -433,0 -3,438 -2,438 435,-1 c 240,-1 438,-3 440,-6 z m 996,-428 c 0,-238 -2,-434 -4,-436 -5,-6 -898,-6 -904,-1 -3,4 -7,838 -4,867 1,3 206,4 457,4 l 456,-1 -1,-433 z m 955,427 c 6,-5 6,-859 0,-864 -5,-5 -868,-5 -873,0 -2,3 -6,770 -3,862 0,10 866,12 876,2 z m 995,-427 c 0,-238 -2,-434 -4,-436 -5,-6 -898,-6 -904,-1 -3,3 -6,836 -3,867 0,3 205,4 456,4 l 456,-2 -1,-432 z m 952,-4 2,-436 -430,-2 c -236,-2 -434,0 -438,3 -5,4 -11,686 -7,867 0,4 196,6 436,5 l 436,-1 1,-436 z m 960,0 c 1,-240 0,-436 -3,-436 -3,0 -200,-1 -438,-1 l -434,0 1,435 c 0,240 0,437 1,439 0,1 196,1 436,0 l 436,-2 1,-435 z M 1017,2036 c 10,-10 8,-876 -2,-876 -5,0 -203,0 -440,0 l -430,-1 -3,433 c -1,238 0,438 2,443 3,10 864,11 873,1 z m 954,-436 0,-435 -435,-3 -436,-2 0,439 c 0,283 4,441 10,443 5,2 202,1 436,-2 l 426,-5 -1,-435 z m 996,436 c 2,-2 4,-199 4,-437 l 0,-434 -448,-5 c -246,-3 -452,-4 -458,-2 -7,1 -9,155 -8,440 1,240 2,439 3,442 0,6 901,2 907,-4 z m 953,4 c 3,0 5,-198 5,-440 l 0,-440 -430,-2 c -236,-2 -434,0 -438,3 -8,6 -11,864 -3,877 3,5 676,7 866,2 z m 997,-4 c 2,-2 5,-200 6,-440 l 2,-436 -453,-2 c -250,-2 -456,0 -459,4 -6,10 -6,866 0,876 5,7 896,6 904,-2 z m 960,1 c 2,-2 3,-199 4,-438 l 0,-434 -433,-5 c -238,-3 -437,-2 -441,1 -8,6 -11,865 -3,877 4,7 866,6 873,-1 z m 841,0 114,-2 1,-437 2,-438 -433,-2 c -239,-2 -436,0 -438,4 -6,10 -7,866 -1,875 5,7 445,7 755,0 z M 1017,1077 c 5,-6 5,-898 0,-904 -2,-2 -199,-4 -438,-4 l -434,0 -3,448 c -1,246 0,453 2,458 3,10 863,11 873,2 z m 957,-451 c 0,-251 -2,-456 -6,-456 -87,-3 -862,0 -865,3 -2,3 -5,727 -3,900 0,9 93,12 436,11 l 437,-2 1,-456 z m 993,450 c 5,-5 5,-897 0,-903 -6,-5 -898,-5 -903,0 -4,3 -7,815 -4,902 0,10 897,11 907,1 z m 957,-451 c 1,-250 -2,-455 -6,-455 -5,0 -200,-1 -435,-1 l -428,0 -3,458 -2,458 436,-2 437,-2 1,-456 z m 993,451 c 5,-5 5,-897 0,-903 -6,-5 -898,-5 -903,0 -4,3 -7,815 -4,902 0,10 897,11 907,1 z m 961,-451 c 1,-301 -1,-455 -8,-455 -5,0 -202,-1 -437,-1 l -428,0 -3,458 -2,458 437,-2 438,-2 3,-456 z m 952,455 c 5,-77 3,-910 -2,-910 -87,-3 -862,0 -865,3 -3,3 -6,816 -3,902 0,10 870,15 870,5 z"
       id="path8"
       inkscape:connector-curvature="0" />
  </g>
  <path
     style="fill:#949599;fill-opacity:1;fill-rule:nonzero;stroke:none"
     d="m 62.414247,87.655017 0,-25.16733 24.62927,-0.21322 c 19.793373,-0.17136 24.720103,-0.15912 25.091923,0.0623 0.36395,0.21676 0.50072,0.59137 0.64111,1.75598 0.14632,1.21372 0.17378,48.359913 0.0282,48.473543 -0.0245,0.0192 -11.37245,0.0846 -25.21758,0.14544 l -25.172963,0.11059 0,-25.167333 z"
     id="path6822"
     inkscape:connector-curvature="0" />
  <path
     style="fill:#949599;fill-opacity:1;fill-rule:nonzero;stroke:none"
     d="m 117.97825,87.885157 c 0.0774,-13.49644 0.30354,-24.70194 0.50264,-24.90112 0.46263,-0.46278 37.21618,-0.74852 45.4169,-0.35309 l 6.19809,0.29887 0,24.74716 0,24.747163 -26.12913,0 -26.12913,0 0.14063,-24.538983 z"
     id="path6840"
     inkscape:connector-curvature="0" />
  <path
     style="fill:#949599;fill-opacity:1;fill-rule:nonzero;stroke:none"
     d="m 175.4205,87.523027 0.11231,-24.90112 24.90111,-0.1123 24.90112,-0.1123 0,25.01341 0,25.013423 -25.01342,0 -25.01342,0 0.1123,-24.901113 z"
     id="path6842"
     inkscape:connector-curvature="0" />
  <path
     style="fill:#949599;fill-opacity:1;fill-rule:nonzero;stroke:none"
     d="m 62.662254,142.86847 0,-25.36707 24.857065,0.28076 c 13.671381,0.15443 24.974741,0.39843 25.118591,0.54223 0.32109,0.321 0.35277,48.73991 0.0321,49.06077 -0.12619,0.12625 -11.42956,0.36923 -25.118592,0.53996 l -24.889165,0.31042 0,-25.36707 z"
     id="path6844"
     inkscape:connector-curvature="0" />
  <path
     style="fill:#949599;fill-opacity:1;fill-rule:nonzero;stroke:none"
     d="m 117.9014,142.94025 0,-25.29666 26.09724,0 26.09724,0 0.0247,12.50493 c 0.035,17.75973 -0.0548,37.25493 -0.17218,37.37232 -0.0549,0.0549 -11.7879,0.23845 -26.07337,0.40792 l -25.97359,0.30814 0,-25.29665 z"
     id="path6846"
     inkscape:connector-curvature="0" />
  <path
     style="fill:#949599;fill-opacity:1;fill-rule:nonzero;stroke:none"
     d="m 179.12118,167.79624 -3.80585,-0.16681 0,-24.73023 0,-24.73022 6.41557,-0.32343 c 6.46715,-0.32602 43.19376,0.11261 43.60195,0.52075 0.37911,0.37907 0.23864,48.77051 -0.14268,49.15198 -0.36166,0.36182 -38.85705,0.59408 -46.06899,0.27796 z"
     id="path6848"
     inkscape:connector-curvature="0" />
  <path
     style="fill:#949599;fill-opacity:1;fill-rule:nonzero;stroke:none"
     d="m 62.662171,199.08872 8.3e-5,-26.20598 24.94301,0 24.943006,0 0.28432,5.28774 c 0.36155,6.72417 0.36058,17.18913 -0.003,33.78035 l -0.28746,13.11255 -24.939939,0.11566 -24.940048,0.11566 7.8e-5,-26.20598 z"
     id="path6850"
     inkscape:connector-curvature="0" />
  <path
     style="fill:#949599;fill-opacity:1;fill-rule:nonzero;stroke:none"
     d="m 117.90285,205.83051 c 9.3e-4,-10.58569 0.12937,-22.33099 0.28572,-26.10066 l 0.28426,-6.85395 25.70279,0.11216 25.70279,0.11216 0.11216,25.9885 0.11216,25.9885 -26.10066,0 -26.10067,0 0.001,-19.24671 z"
     id="path6852"
     inkscape:connector-curvature="0" />
  <path
     style="fill:#949599;fill-opacity:1;fill-rule:nonzero;stroke:none"
     d="m 176.94641,224.76037 -1.63108,-0.17061 0,-25.85351 0,-25.85351 24.96464,0 24.96463,0 0.31618,6.32489 c 0.1739,3.47868 0.17112,15.22244 -0.006,26.09724 l -0.32237,19.77235 -23.32738,-0.0731 c -12.83005,-0.0402 -24.06136,-0.1499 -24.95845,-0.24374 z"
     id="path6854"
     inkscape:connector-curvature="0" />
  <path
     style="fill:#949599;fill-opacity:1;fill-rule:nonzero;stroke:none"
     d="m 63.289461,265.16183 c -0.0023,-8.25325 -0.257714,-19.40981 -0.567869,-24.79237 l -0.563909,-9.78647 25.360246,0 25.360231,0 0,24.79238 0,24.79238 -24.792368,0 -24.792377,0 -0.0042,-15.00592 z"
     id="path6856"
     inkscape:connector-curvature="0" />
  <path
     style="fill:#949599;fill-opacity:1;fill-rule:nonzero;stroke:none"
     d="m 62.426406,324.31558 c 0.0014,-6.33945 0.25861,-17.69175 0.571149,-25.22733 l 0.568247,-13.70105 13.129905,0.004 c 7.221446,0.002 18.121,0.25808 24.221223,0.5692 l 11.09133,0.56567 0,24.12172 0,24.12172 -1.9573,0.52454 c -1.07651,0.28849 -12.233071,0.52988 -24.792368,0.53641 l -22.835082,0.0119 0.0028,-11.52628 z"
     id="path6858"
     inkscape:connector-curvature="0" />
  <path
     style="fill:#949599;fill-opacity:1;fill-rule:nonzero;stroke:none"
     d="m 118.09761,255.37537 0,-24.79238 26.09724,0 26.09724,0 0,16.82957 c 0,9.25626 -0.25435,20.41283 -0.56521,24.79238 l -0.56522,7.96281 -25.53202,0 -25.53203,0 0,-24.79238 z"
     id="path6860"
     inkscape:connector-curvature="0" />
  <path
     style="fill:#949599;fill-opacity:1;fill-rule:nonzero;stroke:none"
     d="m 175.51154,255.93149 0,-24.23625 4.56702,-0.54856 c 2.51185,-0.30171 13.66843,-0.55197 24.79237,-0.55612 l 20.22536,-0.008 0,24.79238 0,24.79237 -24.79237,0 -24.79238,0 0,-24.23625 z"
     id="path6862"
     inkscape:connector-curvature="0" />
  <path
     style="fill:#949599;fill-opacity:1;fill-rule:nonzero;stroke:none"
     d="m 231.18565,255.37537 0,-24.79238 25.66229,0 25.66228,0 0,24.79238 0,24.79238 -25.66228,0 -25.66229,0 0,-24.79238 z"
     id="path6864"
     inkscape:connector-curvature="0" />
  <path
     style="fill:#949599;fill-opacity:1;fill-rule:nonzero;stroke:none"
     d="m 231.18565,198.83135 0,-25.66228 25.66229,0 25.66228,0 0,25.66228 0,25.66229 -25.66228,0 -25.66229,0 0,-25.66229 z"
     id="path6866"
     inkscape:connector-curvature="0" />
  <path
     style="fill:#949599;fill-opacity:1;fill-rule:nonzero;stroke:none"
     d="m 230.65762,166.57361 c 0.29042,-0.7568 0.52803,-11.91337 0.52803,-24.79238 l 0,-23.41636 25.66229,0 25.66228,0 0,24.79237 0,24.79238 -26.19031,0 c -23.52474,0 -26.13657,-0.14004 -25.66229,-1.37601 z"
     id="path6874"
     inkscape:connector-curvature="0" />
  <path
     style="fill:#949599;fill-opacity:1;fill-rule:nonzero;stroke:none"
     d="m 290.12191,167.32655 -2.39224,-0.3624 0,-24.29964 0,-24.29964 24.79237,0 24.79238,0 0,24.79237 0,24.79238 -22.40013,-0.13034 c -12.32007,-0.0717 -23.47664,-0.29342 -24.79238,-0.49273 z"
     id="path6876"
     inkscape:connector-curvature="0" />
  <path
     style="fill:#949599;fill-opacity:1;fill-rule:nonzero;stroke:none"
     d="m 290.99182,224.72985 -3.26215,-0.34124 0.003,-11.90872 c 0.001,-6.54979 0.25861,-18.07419 0.57115,-25.60977 l 0.56824,-13.70105 24.22124,0 24.22123,0 0,25.54404 0,25.54405 -4.03601,0.55319 c -4.2043,0.57627 -36.59748,0.5146 -42.28659,-0.0805 z"
     id="path6878"
     inkscape:connector-curvature="0" />
  <path
     style="fill:#949599;fill-opacity:1;fill-rule:nonzero;stroke:none"
     d="m 288.29831,269.59228 c -0.31275,-5.81651 -0.56864,-16.97308 -0.56864,-24.79238 l 0,-14.21691 24.79237,0 24.79238,0 0,24.79238 0,24.79238 -24.22374,0 -24.22374,0 -0.56863,-10.57547 z"
     id="path6880"
     inkscape:connector-curvature="0" />
</svg>
