<?xml version="1.0" encoding="UTF-8"?>
<svg xmlns="http://www.w3.org/2000/svg" xmlns:xlink="http://www.w3.org/1999/xlink" width="280pt" height="299pt" viewBox="0 0 280 299" version="1.1">
<g id="surface1">
<path style=" stroke:none;fill-rule:nonzero;fill:rgb(0%,0%,0%);fill-opacity:1;" d="M 61.273438 8.671875 C 60.714844 9.644531 60.066406 10.757812 59.835938 11.128906 C 59.601562 11.5 59.183594 12.242188 58.953125 12.753906 C 58.671875 13.261719 58.070312 14.28125 57.558594 15.070312 C 57.09375 15.8125 56.214844 17.390625 55.609375 18.546875 C 55.007812 19.707031 54.402344 20.726562 54.21875 20.867188 C 54.03125 21.007812 53.660156 21.65625 53.382812 22.257812 C 53.148438 22.90625 52.5 24.019531 51.988281 24.808594 C 51.523438 25.550781 50.644531 27.128906 50.039062 28.285156 C 49.4375 29.445312 48.738281 30.605469 48.460938 30.929688 C 48.136719 31.253906 47.441406 32.414062 46.929688 33.480469 C 46.371094 34.59375 45.722656 35.796875 45.492188 36.167969 C 43.585938 39.230469 41.171875 43.449219 40.800781 44.238281 C 40.570312 44.792969 40.199219 45.535156 39.921875 45.90625 C 38.761719 47.761719 35.601562 53.09375 35.230469 53.976562 C 35 54.53125 34.535156 55.367188 34.257812 55.878906 C 33.933594 56.386719 33.144531 57.640625 32.492188 58.660156 C 31.84375 59.679688 30.914062 61.347656 30.40625 62.367188 C 29.894531 63.390625 29.199219 64.503906 28.917969 64.828125 C 28.59375 65.152344 28.316406 65.660156 28.316406 65.941406 C 28.316406 66.171875 27.757812 67.285156 27.0625 68.351562 C 26.320312 69.371094 25.34375 71.085938 24.835938 72.105469 C 24.324219 73.128906 23.8125 74.054688 23.628906 74.195312 C 23.488281 74.332031 22.976562 75.261719 22.421875 76.28125 C 20.515625 79.945312 19.726562 81.335938 19.171875 81.984375 C 18.847656 82.308594 18.566406 82.910156 18.566406 83.28125 C 18.566406 83.652344 18.382812 83.929688 18.101562 83.929688 C 17.269531 83.929688 17.59375 85.738281 18.519531 86.25 C 19.125 86.574219 34.488281 86.714844 65.078125 86.714844 C 115.910156 86.714844 113.167969 86.898438 111.683594 83.746094 C 111.265625 82.820312 110.710938 82.078125 110.523438 82.078125 C 110.292969 82.078125 109.96875 81.566406 109.828125 80.917969 C 109.640625 80.269531 109.316406 79.757812 109.085938 79.757812 C 108.804688 79.757812 108.621094 79.480469 108.621094 79.109375 C 108.621094 78.738281 108.34375 78.136719 108.015625 77.808594 C 107.691406 77.484375 107.273438 76.882812 107.089844 76.511719 C 106.902344 76.140625 106.347656 75.167969 105.835938 74.425781 C 105.324219 73.636719 104.675781 72.570312 104.398438 71.96875 C 104.070312 71.410156 103.652344 70.949219 103.421875 70.949219 C 103.234375 70.949219 103.050781 70.667969 103.050781 70.296875 C 103.050781 69.925781 102.773438 69.324219 102.445312 69 C 102.121094 68.675781 101.703125 68.074219 101.519531 67.703125 C 101.332031 67.332031 100.824219 66.449219 100.359375 65.800781 C 99.941406 65.105469 98.964844 63.480469 98.175781 62.183594 C 97.433594 60.886719 96.644531 59.820312 96.457031 59.820312 C 96.226562 59.820312 96.085938 59.539062 96.085938 59.167969 C 96.085938 58.796875 95.808594 58.195312 95.484375 57.871094 C 95.160156 57.546875 94.742188 56.945312 94.554688 56.574219 C 94.371094 56.203125 93.8125 55.226562 93.300781 54.484375 C 92.792969 53.699219 92.234375 52.769531 92.050781 52.398438 C 91.675781 51.566406 89.960938 49.015625 89.542969 48.691406 C 89.355469 48.550781 89.125 47.992188 88.9375 47.390625 C 88.753906 46.835938 88.382812 46.371094 88.148438 46.371094 C 87.917969 46.371094 87.730469 46.183594 87.730469 45.90625 C 87.730469 45.675781 87.175781 44.703125 86.523438 43.726562 C 85.875 42.753906 85.132812 41.503906 84.902344 40.898438 C 84.667969 40.34375 84.296875 39.878906 84.019531 39.878906 C 83.785156 39.878906 83.554688 39.601562 83.554688 39.230469 C 83.554688 38.859375 83.277344 38.257812 82.90625 37.929688 C 82.578125 37.558594 82.117188 36.820312 81.976562 36.261719 C 81.789062 35.707031 81.417969 35.242188 81.1875 35.242188 C 80.953125 35.242188 80.769531 35.054688 80.769531 34.824219 C 80.769531 34.40625 78.03125 30.003906 77.148438 28.933594 C 76.917969 28.65625 76.546875 28.007812 76.40625 27.453125 C 76.21875 26.894531 75.894531 26.429688 75.664062 26.429688 C 75.476562 26.429688 75.152344 25.921875 75.011719 25.273438 C 74.828125 24.621094 74.503906 24.113281 74.269531 24.113281 C 73.992188 24.113281 73.804688 23.925781 73.804688 23.695312 C 73.804688 23.277344 71.066406 18.871094 70.1875 17.804688 C 69.953125 17.527344 69.582031 16.878906 69.441406 16.324219 C 69.257812 15.765625 68.933594 15.300781 68.699219 15.300781 C 68.515625 15.300781 68.191406 14.929688 68.050781 14.46875 C 67.910156 14.050781 67.492188 13.261719 67.167969 12.753906 C 66.84375 12.242188 65.867188 10.710938 65.03125 9.367188 C 64.199219 8.070312 63.222656 6.957031 62.898438 6.957031 C 62.574219 6.957031 61.832031 7.742188 61.273438 8.671875 Z M 65.265625 13.820312 C 65.730469 14.792969 66.65625 16.277344 67.214844 17.15625 C 67.816406 18.039062 68.515625 19.242188 68.746094 19.800781 C 68.980469 20.402344 69.351562 20.867188 69.628906 20.867188 C 69.859375 20.867188 70.09375 21.144531 70.09375 21.515625 C 70.09375 21.886719 70.371094 22.488281 70.742188 22.816406 C 71.066406 23.183594 71.53125 23.925781 71.671875 24.484375 C 71.855469 25.039062 72.226562 25.503906 72.460938 25.503906 C 72.691406 25.503906 72.878906 25.691406 72.878906 25.96875 C 72.878906 26.199219 73.433594 27.171875 74.085938 28.148438 C 74.734375 29.121094 75.476562 30.371094 75.710938 30.929688 C 75.941406 31.53125 76.3125 31.996094 76.589844 31.996094 C 76.824219 31.996094 77.054688 32.273438 77.054688 32.644531 C 77.054688 33.015625 77.335938 33.617188 77.660156 33.945312 C 77.984375 34.269531 78.402344 34.871094 78.585938 35.242188 C 78.773438 35.613281 79.285156 36.492188 79.746094 37.144531 C 80.164062 37.839844 81.1875 39.460938 81.929688 40.761719 C 82.71875 42.058594 83.460938 43.125 83.695312 43.125 C 83.878906 43.125 84.019531 43.402344 84.019531 43.773438 C 84.019531 44.144531 84.296875 44.746094 84.621094 45.074219 C 84.945312 45.398438 85.363281 46 85.550781 46.371094 C 85.734375 46.742188 86.246094 47.621094 86.710938 48.273438 C 87.128906 48.96875 88.148438 50.589844 88.890625 51.890625 C 89.683594 53.1875 90.425781 54.253906 90.65625 54.253906 C 90.84375 54.253906 90.980469 54.53125 90.980469 54.902344 C 90.980469 55.273438 91.261719 55.878906 91.585938 56.203125 C 92.328125 57.082031 93.210938 58.425781 93.765625 59.679688 C 94 60.28125 94.417969 60.746094 94.695312 60.746094 C 94.925781 60.746094 95.160156 60.976562 95.160156 61.257812 C 95.160156 61.71875 96.921875 64.734375 99.429688 68.582031 C 99.894531 69.230469 100.449219 70.253906 100.683594 70.761719 C 100.914062 71.320312 101.285156 71.828125 101.519531 71.921875 C 101.703125 72.015625 102.402344 73.082031 103.050781 74.285156 C 103.652344 75.539062 104.351562 76.511719 104.535156 76.511719 C 104.769531 76.511719 104.90625 76.699219 104.90625 76.976562 C 104.90625 77.207031 105.835938 78.785156 106.996094 80.5 C 108.15625 82.167969 109.085938 83.652344 109.085938 83.839844 C 109.085938 84.023438 89.265625 84.164062 64.988281 84.164062 C 23.300781 84.164062 20.886719 84.117188 20.886719 83.328125 C 20.886719 82.910156 21.074219 82.539062 21.304688 82.539062 C 21.539062 82.539062 21.910156 82.078125 22.09375 81.519531 C 22.234375 80.964844 22.699219 80.222656 23.023438 79.851562 C 23.394531 79.527344 23.671875 78.921875 23.671875 78.550781 C 23.671875 78.179688 23.859375 77.902344 24.089844 77.902344 C 24.324219 77.902344 24.742188 77.347656 25.019531 76.605469 C 25.296875 75.910156 25.714844 75.027344 25.996094 74.65625 C 26.226562 74.285156 27.386719 72.292969 28.546875 70.253906 C 29.753906 68.210938 30.867188 66.21875 31.101562 65.847656 C 31.332031 65.476562 32.027344 64.222656 32.585938 63.066406 C 33.191406 61.90625 33.886719 60.746094 34.117188 60.46875 C 34.398438 60.191406 35 59.167969 35.511719 58.148438 C 36.019531 57.175781 36.71875 56.0625 37.042969 55.738281 C 37.320312 55.414062 37.597656 54.902344 37.597656 54.625 C 37.597656 54.394531 38.15625 53.28125 38.898438 52.214844 C 39.59375 51.195312 40.570312 49.476562 41.082031 48.457031 C 41.589844 47.4375 42.289062 46.324219 42.613281 46 C 42.890625 45.675781 43.167969 45.164062 43.167969 44.886719 C 43.167969 44.65625 43.773438 43.542969 44.46875 42.476562 C 45.164062 41.457031 46.234375 39.648438 46.835938 38.488281 C 47.394531 37.328125 48.277344 35.753906 48.785156 35.011719 C 49.25 34.222656 49.855469 33.15625 50.085938 32.597656 C 50.316406 32.089844 50.78125 31.484375 51.015625 31.300781 C 51.292969 31.160156 51.523438 30.605469 51.523438 30.09375 C 51.523438 29.632812 51.710938 29.214844 51.988281 29.214844 C 52.222656 29.214844 52.546875 28.703125 52.730469 28.054688 C 52.871094 27.40625 53.195312 26.894531 53.382812 26.894531 C 53.566406 26.894531 53.984375 26.339844 54.265625 25.597656 C 54.960938 23.972656 55.933594 22.304688 56.585938 21.65625 C 56.863281 21.378906 57.09375 20.773438 57.09375 20.308594 C 57.09375 19.847656 57.28125 19.476562 57.558594 19.476562 C 57.792969 19.476562 58.117188 18.964844 58.300781 18.316406 C 58.441406 17.667969 58.71875 17.15625 58.90625 17.15625 C 59.046875 17.15625 59.695312 16.042969 60.34375 14.699219 C 60.949219 13.402344 61.597656 12.195312 61.738281 12.054688 C 61.921875 11.917969 62.203125 11.40625 62.386719 10.898438 C 62.710938 10.015625 62.757812 10.015625 63.546875 11.035156 C 63.964844 11.640625 64.753906 12.890625 65.265625 13.820312 Z M 65.265625 13.820312 "/>
<path style=" stroke:none;fill-rule:nonzero;fill:rgb(0%,0%,0%);fill-opacity:1;" d="M 212.183594 22.582031 C 211.855469 22.722656 211.207031 23.183594 210.742188 23.601562 C 209.210938 25.039062 203.5 30.09375 199.835938 33.246094 C 197.792969 34.964844 195.285156 37.191406 194.265625 38.117188 C 193.242188 39.042969 190.734375 41.222656 188.695312 42.984375 C 186.652344 44.703125 184.144531 46.925781 183.125 47.855469 C 182.101562 48.78125 179.59375 50.960938 177.554688 52.722656 C 175.511719 54.441406 173.003906 56.664062 171.984375 57.59375 C 170.960938 58.519531 168.453125 60.699219 166.414062 62.460938 C 164.371094 64.175781 161.863281 66.402344 160.84375 67.332031 C 159.820312 68.257812 157.222656 70.53125 155.085938 72.339844 C 152.949219 74.148438 150.628906 76.234375 149.933594 76.882812 C 148.867188 77.996094 147.054688 79.574219 143.0625 82.957031 C 142.460938 83.46875 141.71875 83.976562 141.4375 84.070312 C 140.742188 84.300781 141.484375 86.714844 142.273438 86.714844 C 142.644531 86.714844 142.972656 86.527344 142.972656 86.296875 C 142.972656 86.066406 143.761719 85.738281 144.734375 85.554688 C 145.664062 85.367188 146.683594 85.089844 146.917969 84.859375 C 147.195312 84.671875 148.355469 84.347656 149.5625 84.210938 C 150.769531 84.023438 151.882812 83.699219 152.023438 83.515625 C 152.117188 83.28125 153.183594 82.957031 154.34375 82.820312 C 155.457031 82.632812 156.523438 82.308594 156.664062 82.121094 C 156.757812 81.890625 157.917969 81.613281 159.171875 81.425781 C 160.472656 81.242188 161.632812 80.917969 161.769531 80.683594 C 161.910156 80.40625 162.605469 80.222656 163.300781 80.222656 C 164 80.175781 165.066406 79.898438 165.714844 79.527344 C 166.367188 79.15625 167.386719 78.878906 168.039062 78.832031 C 168.6875 78.832031 169.800781 78.507812 170.542969 78.136719 C 171.238281 77.765625 172.214844 77.441406 172.632812 77.441406 C 173.328125 77.441406 174.070312 77.253906 179.921875 75.398438 C 181.265625 74.980469 182.613281 74.65625 182.9375 74.65625 C 183.308594 74.65625 184.144531 74.378906 184.792969 74.007812 C 185.445312 73.683594 186.976562 73.265625 188.183594 73.082031 C 189.34375 72.894531 190.316406 72.570312 190.316406 72.386719 C 190.316406 72.152344 191.339844 71.875 192.640625 71.691406 C 193.890625 71.503906 195.054688 71.179688 195.191406 70.949219 C 195.332031 70.667969 196.027344 70.484375 196.722656 70.484375 C 197.421875 70.4375 198.488281 70.160156 199.136719 69.789062 C 199.789062 69.417969 200.808594 69.140625 201.457031 69.09375 C 202.109375 69.09375 203.222656 68.769531 203.964844 68.398438 C 204.660156 68.027344 205.730469 67.703125 206.285156 67.703125 C 206.796875 67.703125 207.863281 67.378906 208.609375 67.007812 C 210.277344 66.125 214.410156 66.125 215.570312 67.007812 C 216.082031 67.378906 216.871094 67.703125 217.289062 67.703125 C 217.753906 67.703125 218.773438 68.074219 219.65625 68.488281 C 220.492188 68.90625 221.742188 69.511719 222.441406 69.882812 C 223.089844 70.207031 224.019531 70.484375 224.527344 70.484375 C 224.992188 70.484375 225.78125 70.808594 226.246094 71.179688 C 226.757812 71.550781 227.546875 71.875 227.964844 71.875 C 228.429688 71.875 229.355469 72.152344 230.097656 72.523438 C 232.1875 73.589844 234.742188 74.65625 235.253906 74.65625 C 235.484375 74.65625 236.320312 74.980469 237.015625 75.351562 C 237.757812 75.722656 238.6875 76.046875 239.058594 76.046875 C 239.429688 76.046875 240.171875 76.371094 240.636719 76.742188 C 241.148438 77.113281 241.9375 77.441406 242.355469 77.441406 C 242.816406 77.441406 243.839844 77.808594 244.722656 78.226562 C 245.558594 78.644531 246.808594 79.246094 247.507812 79.617188 C 248.15625 79.945312 249.085938 80.222656 249.59375 80.222656 C 250.058594 80.222656 250.847656 80.546875 251.3125 80.917969 C 251.824219 81.289062 252.613281 81.613281 253.03125 81.613281 C 253.496094 81.613281 254.421875 81.890625 255.164062 82.261719 C 257.488281 83.421875 259.945312 84.394531 260.550781 84.394531 C 260.875 84.394531 262.035156 84.8125 263.101562 85.324219 C 265.378906 86.433594 266.261719 86.480469 266.632812 85.554688 C 266.769531 85.089844 266.304688 84.257812 265.378906 83.28125 C 264.589844 82.449219 263.148438 80.871094 262.269531 79.757812 C 261.386719 78.644531 260.316406 77.394531 259.945312 76.976562 C 259.574219 76.558594 257.578125 74.238281 255.582031 71.828125 C 253.542969 69.464844 251.40625 66.960938 250.847656 66.308594 C 250.292969 65.660156 248.386719 63.480469 246.625 61.441406 C 243.050781 57.222656 242.679688 56.851562 238.269531 51.703125 C 236.550781 49.664062 234.648438 47.484375 234.089844 46.835938 C 233.582031 46.183594 231.675781 44.007812 229.914062 41.964844 C 225.316406 36.585938 225.085938 36.308594 221.558594 32.226562 C 219.839844 30.1875 217.890625 27.960938 217.335938 27.359375 C 216.730469 26.710938 215.570312 25.320312 214.78125 24.207031 C 213.34375 22.210938 213.25 22.164062 212.183594 22.582031 Z M 214.96875 27.914062 C 216.082031 29.261719 217.101562 30.464844 217.242188 30.605469 C 217.378906 30.742188 218.214844 31.765625 219.144531 32.921875 C 220.121094 34.082031 221.511719 35.753906 222.347656 36.632812 C 223.136719 37.515625 224.574219 39.183594 225.503906 40.296875 C 228.011719 43.308594 230.703125 46.417969 231.304688 47.066406 C 231.632812 47.34375 232.699219 48.597656 233.71875 49.847656 C 236.226562 52.910156 239.011719 56.109375 239.660156 56.804688 C 239.988281 57.082031 241.054688 58.335938 242.074219 59.585938 C 244.441406 62.460938 247.320312 65.800781 248.015625 66.542969 C 248.667969 67.191406 250.011719 68.769531 253.214844 72.570312 C 254.515625 74.101562 256.835938 76.699219 258.414062 78.367188 C 260.039062 80.035156 261.339844 81.519531 261.339844 81.707031 C 261.339844 82.214844 259.621094 82.167969 258.648438 81.660156 C 257.90625 81.242188 256.789062 80.730469 251.960938 78.644531 C 251.035156 78.226562 250.011719 77.902344 249.640625 77.902344 C 249.316406 77.902344 248.621094 77.578125 248.15625 77.207031 C 247.644531 76.835938 246.808594 76.511719 246.300781 76.511719 C 245.742188 76.511719 244.90625 76.1875 244.441406 75.816406 C 243.933594 75.445312 243.144531 75.121094 242.726562 75.121094 C 242.261719 75.121094 241.238281 74.75 240.359375 74.332031 C 239.523438 73.914062 238.269531 73.3125 237.574219 72.941406 C 236.921875 72.617188 236.042969 72.339844 235.667969 72.339844 C 235.253906 72.339844 234.371094 72.058594 233.628906 71.691406 C 231.539062 70.621094 228.984375 69.554688 228.476562 69.554688 C 228.242188 69.554688 227.40625 69.230469 226.710938 68.859375 C 225.96875 68.488281 225.039062 68.164062 224.667969 68.164062 C 224.296875 68.164062 223.554688 67.839844 223.089844 67.46875 C 222.578125 67.097656 221.742188 66.773438 221.234375 66.773438 C 220.675781 66.773438 219.839844 66.449219 219.375 66.078125 C 218.867188 65.707031 218.078125 65.382812 217.613281 65.382812 C 217.148438 65.382812 216.21875 65.011719 215.570312 64.59375 C 214.039062 63.621094 210.417969 63.621094 208.375 64.640625 C 207.585938 65.058594 206.425781 65.382812 205.914062 65.382812 C 205.359375 65.382812 204.335938 65.707031 203.59375 66.078125 C 202.898438 66.449219 201.875 66.773438 201.367188 66.773438 C 200.855469 66.773438 199.789062 67.050781 199 67.421875 C 197.421875 68.074219 194.589844 68.859375 191.386719 69.554688 C 190.316406 69.789062 189.066406 70.160156 188.601562 70.390625 C 187.765625 70.855469 185.492188 71.503906 181.5 72.429688 C 180.339844 72.664062 179.222656 73.082031 178.992188 73.3125 C 178.714844 73.542969 178.015625 73.730469 177.367188 73.730469 C 176.671875 73.730469 175.558594 74.054688 174.8125 74.425781 C 174.117188 74.796875 173.050781 75.121094 172.492188 75.121094 C 171.984375 75.121094 170.914062 75.445312 170.171875 75.816406 C 169.476562 76.1875 168.410156 76.511719 167.851562 76.511719 C 167.339844 76.511719 166.273438 76.835938 165.53125 77.207031 C 164.835938 77.578125 163.8125 77.902344 163.347656 77.902344 C 162.882812 77.902344 161.675781 78.179688 160.75 78.550781 C 159.773438 78.878906 157.730469 79.527344 156.199219 79.988281 C 154.667969 80.453125 152.117188 81.242188 150.539062 81.753906 C 147.613281 82.773438 146.171875 82.539062 147.796875 81.335938 C 149.609375 80.035156 158.519531 72.476562 161.304688 69.925781 C 162.328125 69 164.925781 66.726562 167.109375 64.871094 C 169.289062 63.066406 171.148438 61.394531 171.285156 61.257812 C 171.425781 61.070312 173.839844 58.984375 176.625 56.617188 C 179.457031 54.207031 181.960938 52.027344 182.195312 51.75 C 182.472656 51.472656 184.980469 49.246094 187.765625 46.882812 C 190.597656 44.46875 193.101562 42.289062 193.335938 42.011719 C 193.613281 41.734375 196.121094 39.507812 198.90625 37.097656 C 203.871094 32.832031 205.542969 31.347656 209.8125 27.453125 C 210.976562 26.386719 212.136719 25.503906 212.460938 25.503906 C 212.738281 25.503906 213.898438 26.617188 214.96875 27.914062 Z M 214.96875 27.914062 "/>
<path style=" stroke:none;fill-rule:nonzero;fill:rgb(0%,0%,0%);fill-opacity:1;" d="M 62.0625 111.613281 C 61.414062 112.265625 61.785156 113.191406 62.898438 113.609375 C 64.011719 114.027344 64.058594 114.164062 64.058594 118.710938 C 64.058594 123.300781 64.058594 123.394531 62.851562 123.808594 C 62.109375 124.136719 61.738281 124.550781 61.832031 125.109375 C 62.109375 126.5 69.164062 126.453125 69.164062 125.0625 C 69.164062 124.738281 68.609375 124.273438 67.957031 123.996094 C 66.75 123.578125 66.703125 123.53125 66.703125 118.710938 C 66.703125 113.886719 66.75 113.839844 67.957031 113.421875 C 69.304688 112.914062 69.535156 111.984375 68.421875 111.570312 C 67.445312 111.199219 62.433594 111.199219 62.0625 111.613281 Z M 62.0625 111.613281 "/>
<path style=" stroke:none;fill-rule:nonzero;fill:rgb(0%,0%,0%);fill-opacity:1;" d="M 185.351562 111.984375 C 184.5625 112.589844 184.609375 112.679688 185.953125 113.191406 L 187.441406 113.792969 L 187.488281 118.757812 C 187.53125 123.671875 187.488281 123.71875 186.371094 123.996094 C 184.933594 124.367188 184.839844 125.574219 186.28125 125.851562 C 186.835938 125.988281 189.902344 126.035156 193.101562 125.988281 C 198.070312 125.898438 198.90625 125.804688 199.046875 125.109375 C 199.136719 124.691406 198.8125 124.226562 198.257812 124.042969 C 197.328125 123.765625 197.28125 123.394531 197.28125 118.710938 C 197.28125 114.027344 197.328125 113.65625 198.257812 113.378906 C 198.8125 113.191406 199.136719 112.726562 199.046875 112.308594 C 198.90625 111.613281 198.070312 111.523438 192.546875 111.429688 C 187.765625 111.382812 186.046875 111.523438 185.351562 111.984375 Z M 193.753906 113.421875 C 194.355469 113.65625 194.496094 114.582031 194.496094 118.710938 C 194.496094 122.835938 194.355469 123.765625 193.753906 123.996094 C 192.59375 124.460938 190.875 124.320312 190.503906 123.765625 C 190.363281 123.484375 190.226562 121.214844 190.226562 118.710938 C 190.226562 116.207031 190.363281 113.933594 190.503906 113.65625 C 190.875 113.097656 192.59375 112.960938 193.753906 113.421875 Z M 193.753906 113.421875 "/>
<path style=" stroke:none;fill-rule:nonzero;fill:rgb(0%,0%,0%);fill-opacity:1;" d="M 56.351562 154.042969 C 55.886719 154.648438 54.636719 156.132812 53.613281 157.429688 C 52.59375 158.679688 51.433594 160.027344 51.0625 160.445312 C 50.273438 161.324219 49.25 162.578125 46.652344 165.777344 C 45.628906 167.027344 44.46875 168.371094 44.097656 168.789062 C 43.308594 169.671875 42.289062 170.921875 39.6875 174.121094 C 38.667969 175.375 37.507812 176.71875 37.136719 177.136719 C 36.347656 178.019531 35.324219 179.269531 32.726562 182.46875 C 31.703125 183.722656 30.542969 185.066406 30.171875 185.484375 C 29.800781 185.902344 29.058594 186.78125 28.546875 187.386719 C 28.039062 187.988281 27.015625 189.238281 26.273438 190.121094 C 23.628906 193.367188 21.539062 195.824219 20.097656 197.492188 C 18.429688 199.347656 18.148438 201.109375 19.402344 202.269531 C 19.820312 202.640625 20.703125 203.707031 21.351562 204.542969 C 22.003906 205.378906 23.257812 206.90625 24.136719 207.972656 C 25.019531 209.039062 26.597656 210.894531 27.621094 212.148438 C 28.640625 213.351562 30.21875 215.253906 31.101562 216.320312 C 31.984375 217.339844 33.5625 219.242188 34.582031 220.492188 C 35.601562 221.699219 37.183594 223.601562 38.0625 224.667969 C 38.945312 225.6875 40.523438 227.589844 41.546875 228.839844 C 42.566406 230.046875 44.144531 231.949219 45.027344 233.015625 C 45.910156 234.035156 47.488281 235.933594 48.507812 237.1875 C 49.527344 238.394531 51.109375 240.292969 51.988281 241.359375 C 52.871094 242.382812 54.355469 244.144531 55.238281 245.210938 C 57.511719 247.992188 58.628906 247.851562 61.179688 244.46875 C 62.246094 242.984375 64.011719 240.851562 65.03125 239.738281 C 66.054688 238.578125 67.863281 236.445312 68.980469 234.960938 C 70.140625 233.523438 71.71875 231.621094 72.507812 230.789062 C 73.25 230 74.828125 228.097656 75.988281 226.613281 C 77.101562 225.175781 78.679688 223.277344 79.46875 222.441406 C 80.210938 221.652344 81.789062 219.753906 82.949219 218.269531 C 84.066406 216.832031 85.644531 214.929688 86.433594 214.09375 C 87.175781 213.304688 88.800781 211.359375 89.960938 209.828125 C 91.121094 208.296875 92.328125 206.816406 92.605469 206.582031 C 94.046875 205.285156 97.480469 200.832031 97.480469 200.277344 C 97.480469 199.90625 96.921875 198.976562 96.226562 198.191406 C 95.484375 197.402344 94.089844 195.777344 93.070312 194.480469 C 90.65625 191.558594 90.054688 190.769531 87.917969 188.265625 C 86.898438 187.105469 85.273438 185.113281 84.25 183.859375 C 83.230469 182.65625 81.652344 180.753906 80.769531 179.6875 C 79.886719 178.667969 78.308594 176.765625 77.289062 175.515625 C 75.617188 173.472656 73.621094 171.109375 70.835938 167.863281 C 70.324219 167.214844 69.023438 165.636719 68.003906 164.386719 C 66.984375 163.085938 65.960938 161.835938 65.683594 161.554688 C 65.21875 161.046875 62.0625 157.335938 60.390625 155.34375 C 59.878906 154.695312 59.230469 153.90625 58.953125 153.582031 C 58.210938 152.746094 57.375 152.886719 56.351562 154.042969 Z M 59.136719 157.335938 C 59.648438 157.941406 61.367188 159.933594 62.898438 161.835938 C 64.429688 163.734375 65.960938 165.636719 66.378906 166.007812 C 66.75 166.425781 68.328125 168.28125 69.859375 170.179688 C 71.390625 172.082031 72.925781 173.984375 73.34375 174.355469 C 73.714844 174.773438 75.292969 176.628906 76.824219 178.527344 C 78.355469 180.429688 79.886719 182.332031 80.304688 182.703125 C 80.675781 183.117188 82.253906 184.972656 83.785156 186.875 C 85.316406 188.777344 86.851562 190.675781 87.269531 191.046875 C 87.640625 191.464844 88.800781 192.808594 89.820312 194.0625 C 92.558594 197.449219 93.441406 198.558594 94.277344 199.394531 C 94.972656 200.136719 94.925781 200.367188 93.441406 202.222656 C 92.558594 203.335938 90.796875 205.46875 89.496094 206.90625 C 88.242188 208.390625 86.480469 210.523438 85.597656 211.636719 C 84.714844 212.796875 83.367188 214.417969 82.578125 215.253906 C 81.789062 216.089844 80.210938 217.988281 79.050781 219.472656 C 77.9375 220.910156 76.359375 222.8125 75.570312 223.648438 C 74.828125 224.433594 73.25 226.335938 72.089844 227.820312 C 70.929688 229.304688 69.441406 231.066406 68.839844 231.761719 C 68.191406 232.457031 66.890625 233.941406 65.960938 235.101562 C 61.96875 240.109375 57.839844 244.839844 57.511719 244.839844 C 57.328125 244.839844 57.050781 244.46875 56.910156 244.003906 C 56.722656 243.585938 56.027344 242.566406 55.332031 241.777344 C 53.660156 239.832031 51.246094 236.910156 48.277344 233.246094 C 46.929688 231.578125 45.582031 230 45.304688 229.769531 C 45.027344 229.488281 43.542969 227.726562 42.007812 225.828125 C 40.476562 223.925781 38.945312 222.023438 38.527344 221.652344 C 38.15625 221.234375 36.578125 219.382812 35.046875 217.480469 C 33.515625 215.578125 31.984375 213.675781 31.566406 213.304688 C 31.195312 212.890625 29.660156 211.082031 28.175781 209.226562 C 26.691406 207.371094 24.648438 204.960938 23.671875 203.894531 C 20.796875 200.785156 20.5625 200.136719 21.910156 198.839844 C 22.511719 198.234375 23.859375 196.753906 24.835938 195.453125 C 25.855469 194.203125 27.015625 192.855469 27.386719 192.441406 C 28.175781 191.558594 29.199219 190.304688 31.796875 187.105469 C 32.816406 185.855469 33.980469 184.511719 34.351562 184.09375 C 35.140625 183.210938 36.160156 181.960938 38.761719 178.761719 C 39.78125 177.507812 40.941406 176.164062 41.3125 175.746094 C 42.101562 174.863281 43.125 173.613281 45.722656 170.414062 C 46.742188 169.160156 47.90625 167.816406 48.277344 167.398438 C 49.15625 166.425781 50.921875 164.292969 54.449219 159.839844 C 56.027344 157.894531 57.46875 156.269531 57.746094 156.269531 C 57.976562 156.269531 58.582031 156.734375 59.136719 157.335938 Z M 59.136719 157.335938 "/>
<path style=" stroke:none;fill-rule:nonzero;fill:rgb(0%,0%,0%);fill-opacity:1;" d="M 264.125 184.554688 C 263.519531 185.066406 262.59375 185.484375 262.035156 185.484375 C 261.523438 185.484375 260.875 185.667969 260.644531 185.855469 C 260.363281 186.085938 258.554688 186.734375 256.605469 187.386719 C 254.609375 187.988281 252.984375 188.636719 252.984375 188.824219 C 252.984375 189.007812 252.519531 189.195312 251.917969 189.195312 C 251.3125 189.195312 250.429688 189.519531 249.921875 189.890625 C 249.457031 190.261719 248.621094 190.585938 248.109375 190.585938 C 247.597656 190.585938 246.625 190.863281 245.929688 191.234375 C 245.230469 191.605469 244.070312 192.023438 243.28125 192.207031 C 242.492188 192.394531 241.75 192.71875 241.613281 192.949219 C 241.425781 193.179688 240.824219 193.367188 240.21875 193.367188 C 239.617188 193.367188 238.828125 193.691406 238.410156 194.0625 C 238.039062 194.433594 237.339844 194.757812 236.875 194.757812 C 236.414062 194.757812 235.484375 195.035156 234.789062 195.40625 C 234.089844 195.777344 232.929688 196.195312 232.140625 196.382812 C 231.351562 196.566406 230.609375 196.890625 230.472656 197.121094 C 230.285156 197.355469 229.683594 197.539062 229.078125 197.539062 C 228.476562 197.539062 227.6875 197.863281 227.269531 198.234375 C 226.898438 198.605469 226.199219 198.929688 225.734375 198.929688 C 225.273438 198.929688 224.34375 199.210938 223.648438 199.582031 C 222.949219 199.953125 221.789062 200.367188 221 200.554688 C 220.210938 200.738281 219.46875 201.066406 219.332031 201.296875 C 219.144531 201.527344 218.542969 201.714844 217.9375 201.714844 C 217.335938 201.714844 216.546875 202.039062 216.128906 202.410156 C 215.757812 202.78125 215.058594 203.105469 214.59375 203.105469 C 214.132812 203.105469 213.203125 203.382812 212.507812 203.753906 C 211.808594 204.125 210.648438 204.542969 209.859375 204.726562 C 209.070312 204.914062 208.328125 205.238281 208.191406 205.46875 C 208.003906 205.703125 207.402344 205.886719 206.796875 205.886719 C 206.195312 205.886719 205.40625 206.210938 204.988281 206.582031 C 204.617188 206.953125 203.917969 207.277344 203.453125 207.277344 C 202.992188 207.277344 202.0625 207.554688 201.367188 207.925781 C 200.667969 208.296875 199.507812 208.714844 198.71875 208.902344 C 197.929688 209.085938 197.1875 209.410156 197.050781 209.644531 C 196.863281 209.875 196.261719 210.058594 195.65625 210.058594 C 195.054688 210.058594 194.265625 210.386719 193.847656 210.757812 C 193.476562 211.128906 192.777344 211.453125 192.3125 211.453125 C 191.851562 211.453125 190.921875 211.730469 190.226562 212.101562 C 189.527344 212.472656 188.367188 212.890625 187.578125 213.074219 C 186.789062 213.261719 186.046875 213.585938 185.910156 213.816406 C 185.722656 214.046875 185.121094 214.234375 184.515625 214.234375 C 183.914062 214.234375 183.125 214.558594 182.707031 214.929688 C 182.335938 215.300781 181.636719 215.625 181.171875 215.625 C 180.710938 215.625 179.78125 215.902344 179.085938 216.273438 C 178.386719 216.644531 177.226562 217.0625 176.4375 217.246094 C 175.648438 217.433594 174.90625 217.757812 174.769531 217.988281 C 174.582031 218.222656 173.980469 218.40625 173.375 218.40625 C 172.773438 218.40625 171.984375 218.730469 171.566406 219.101562 C 171.195312 219.472656 170.496094 219.796875 170.03125 219.796875 C 169.570312 219.796875 168.640625 220.078125 167.945312 220.449219 C 167.246094 220.820312 166.085938 221.234375 165.296875 221.421875 C 164.507812 221.605469 163.765625 221.929688 163.628906 222.164062 C 163.441406 222.394531 162.839844 222.582031 162.234375 222.582031 C 161.632812 222.582031 160.84375 222.90625 160.425781 223.277344 C 160.054688 223.648438 159.355469 223.972656 158.890625 223.972656 C 158.429688 223.972656 157.453125 224.296875 156.710938 224.667969 C 156.015625 225.039062 155.179688 225.363281 154.945312 225.363281 C 154.4375 225.363281 151.882812 226.429688 149.792969 227.496094 C 149.050781 227.867188 148.125 228.144531 147.660156 228.144531 C 147.242188 228.144531 146.453125 228.46875 145.941406 228.839844 C 145.476562 229.210938 144.59375 229.535156 144.039062 229.535156 C 142.414062 229.535156 141.578125 230.046875 141.578125 230.972656 C 141.578125 231.992188 142.554688 232.550781 145.199219 233.015625 C 146.3125 233.199219 147.796875 233.617188 148.449219 233.988281 C 149.144531 234.359375 150.164062 234.636719 150.675781 234.636719 C 151.234375 234.636719 152.300781 234.960938 152.996094 235.332031 C 153.738281 235.703125 154.808594 236.027344 155.316406 236.027344 C 155.875 236.027344 156.941406 236.351562 157.640625 236.722656 C 158.382812 237.09375 159.449219 237.417969 159.960938 237.417969 C 160.515625 237.417969 161.585938 237.742188 162.28125 238.113281 C 163.023438 238.484375 164.136719 238.808594 164.835938 238.808594 C 165.484375 238.808594 166.179688 238.996094 166.457031 239.226562 C 166.691406 239.460938 167.804688 239.878906 168.964844 240.109375 C 172.773438 241.035156 175.230469 241.730469 176.71875 242.335938 C 177.507812 242.707031 178.667969 242.984375 179.316406 242.984375 C 179.96875 242.984375 180.617188 243.167969 180.800781 243.402344 C 180.941406 243.679688 182.007812 244.003906 183.214844 244.191406 C 184.375 244.375 185.910156 244.792969 186.558594 245.117188 C 187.207031 245.488281 188.230469 245.765625 188.738281 245.765625 C 189.296875 245.765625 190.363281 246.089844 191.0625 246.460938 C 191.804688 246.832031 192.871094 247.15625 193.429688 247.15625 C 193.984375 247.15625 194.542969 247.34375 194.726562 247.574219 C 194.960938 248.039062 197.140625 247.109375 197.699219 246.367188 C 197.839844 246.136719 200.296875 244.003906 203.082031 241.640625 C 205.914062 239.226562 208.421875 237.046875 208.652344 236.769531 C 208.933594 236.492188 211.4375 234.265625 214.222656 231.902344 C 217.054688 229.488281 219.5625 227.308594 219.792969 227.03125 C 220.074219 226.753906 222.578125 224.527344 225.363281 222.164062 C 228.195312 219.753906 230.703125 217.574219 230.933594 217.292969 C 231.214844 217.015625 233.71875 214.789062 236.503906 212.425781 C 239.335938 210.015625 241.84375 207.835938 242.074219 207.554688 C 242.355469 207.277344 244.859375 205.050781 247.644531 202.6875 C 250.476562 200.277344 252.984375 198.097656 253.214844 197.820312 C 253.496094 197.539062 254.609375 196.472656 255.769531 195.5 C 256.929688 194.480469 259.4375 192.253906 261.339844 190.539062 C 263.242188 188.867188 265.425781 186.921875 266.167969 186.320312 C 267.09375 185.53125 267.421875 184.925781 267.234375 184.417969 C 266.816406 183.351562 265.425781 183.445312 264.125 184.554688 Z M 259.855469 188.683594 C 260.316406 188.960938 260.226562 189.238281 259.390625 189.75 C 258.785156 190.167969 257.8125 190.957031 257.160156 191.511719 C 256.511719 192.070312 254.980469 193.367188 253.726562 194.433594 C 246.71875 200.367188 244.675781 202.132812 243.003906 203.660156 C 241.984375 204.589844 239.476562 206.769531 237.433594 208.53125 C 235.390625 210.246094 232.882812 212.472656 231.863281 213.398438 C 230.84375 214.328125 228.335938 216.507812 226.292969 218.269531 C 224.25 219.984375 221.742188 222.210938 220.722656 223.136719 C 219.703125 224.066406 217.195312 226.242188 215.152344 228.007812 C 213.109375 229.722656 210.601562 231.949219 209.582031 232.875 C 208.5625 233.800781 205.960938 236.074219 203.78125 237.929688 C 201.597656 239.738281 199.417969 241.683594 198.90625 242.242188 C 196.722656 244.558594 195.378906 245.257812 193.890625 244.976562 C 193.101562 244.792969 191.898438 244.421875 191.246094 244.050781 C 190.597656 243.726562 189.574219 243.449219 188.925781 243.449219 C 188.277344 243.402344 187.253906 243.121094 186.605469 242.753906 C 185.953125 242.382812 184.886719 242.101562 184.191406 242.054688 C 183.496094 242.054688 182.84375 241.871094 182.660156 241.640625 C 182.519531 241.359375 181.453125 241.035156 180.246094 240.851562 C 179.085938 240.664062 177.554688 240.246094 176.902344 239.921875 C 176.253906 239.550781 175.140625 239.273438 174.441406 239.273438 C 173.746094 239.273438 173.097656 239.089844 172.910156 238.855469 C 172.773438 238.625 171.984375 238.300781 171.148438 238.113281 C 169.753906 237.835938 167.898438 237.28125 162.929688 235.75 C 161.769531 235.378906 160.515625 235.101562 160.097656 235.101562 C 159.683594 235.101562 158.707031 234.777344 158.011719 234.40625 C 157.269531 234.035156 156.109375 233.710938 155.457031 233.710938 C 154.761719 233.710938 153.601562 233.386719 152.90625 233.015625 C 152.160156 232.644531 151.09375 232.320312 150.492188 232.320312 C 149.003906 232.320312 146.21875 231.066406 146.21875 230.417969 C 146.21875 230.140625 146.5 230 146.871094 230.140625 C 147.519531 230.417969 152.160156 229.074219 153.738281 228.144531 C 154.203125 227.867188 154.945312 227.679688 155.410156 227.679688 C 155.875 227.679688 156.664062 227.355469 157.175781 226.984375 C 157.640625 226.613281 158.476562 226.289062 159.03125 226.289062 C 159.542969 226.289062 160.378906 225.964844 160.886719 225.59375 C 161.351562 225.222656 162.1875 224.898438 162.746094 224.898438 C 163.257812 224.898438 164.089844 224.574219 164.601562 224.203125 C 165.066406 223.832031 165.902344 223.507812 166.457031 223.507812 C 166.96875 223.507812 167.804688 223.183594 168.316406 222.8125 C 168.78125 222.441406 169.570312 222.117188 169.988281 222.117188 C 170.777344 222.117188 173.097656 221.234375 175.601562 219.984375 C 176.347656 219.613281 177.273438 219.335938 177.738281 219.335938 C 178.15625 219.335938 178.945312 219.011719 179.457031 218.640625 C 179.921875 218.269531 180.710938 217.945312 181.128906 217.945312 C 181.917969 217.945312 184.238281 217.0625 186.742188 215.808594 C 187.488281 215.441406 188.414062 215.160156 188.878906 215.160156 C 189.296875 215.160156 190.085938 214.835938 190.597656 214.464844 C 191.0625 214.09375 191.851562 213.769531 192.269531 213.769531 C 193.058594 213.769531 195.378906 212.890625 197.882812 211.636719 C 198.628906 211.265625 199.554688 210.988281 200.019531 210.988281 C 200.4375 210.988281 201.226562 210.664062 201.738281 210.292969 C 202.203125 209.921875 202.992188 209.597656 203.410156 209.597656 C 204.199219 209.597656 206.519531 208.714844 209.023438 207.464844 C 209.769531 207.09375 210.695312 206.816406 211.160156 206.816406 C 211.578125 206.816406 212.367188 206.488281 212.878906 206.117188 C 213.34375 205.746094 214.132812 205.421875 214.550781 205.421875 C 215.339844 205.421875 217.660156 204.542969 220.164062 203.289062 C 220.910156 202.917969 221.835938 202.640625 222.300781 202.640625 C 222.71875 202.640625 223.507812 202.316406 224.019531 201.945312 C 224.484375 201.574219 225.316406 201.25 225.875 201.25 C 226.386719 201.25 227.222656 200.925781 227.730469 200.554688 C 228.195312 200.183594 229.03125 199.859375 229.589844 199.859375 C 230.097656 199.859375 230.933594 199.535156 231.445312 199.164062 C 231.910156 198.792969 232.746094 198.46875 233.300781 198.46875 C 233.8125 198.46875 234.648438 198.144531 235.160156 197.773438 C 235.625 197.402344 236.457031 197.078125 237.015625 197.078125 C 237.527344 197.078125 238.363281 196.753906 238.871094 196.382812 C 239.335938 196.011719 240.171875 195.683594 240.730469 195.683594 C 241.238281 195.683594 242.074219 195.359375 242.585938 194.988281 C 243.050781 194.617188 243.886719 194.292969 244.441406 194.292969 C 244.953125 194.292969 245.789062 193.96875 246.300781 193.597656 C 246.765625 193.226562 247.554688 192.902344 248.015625 192.902344 C 248.433594 192.902344 249.59375 192.484375 250.523438 191.976562 C 251.5 191.464844 252.519531 191.046875 252.796875 191.046875 C 253.355469 191.046875 255.722656 190.027344 257.625 188.960938 C 258.972656 188.171875 259.066406 188.171875 259.855469 188.683594 Z M 259.855469 188.683594 "/>
<path style=" stroke:none;fill-rule:nonzero;fill:rgb(0%,0%,0%);fill-opacity:1;" d="M 47.253906 273.449219 C 46.835938 273.960938 47.070312 274.191406 48.230469 274.65625 L 49.667969 275.164062 L 49.667969 284.996094 L 48.183594 285.550781 C 46.976562 285.96875 46.789062 286.203125 47.253906 286.664062 C 47.996094 287.40625 67.632812 287.640625 68.050781 286.945312 C 68.421875 286.339844 67.308594 285.179688 66.332031 285.179688 C 65.542969 285.179688 65.449219 284.765625 65.449219 280.082031 C 65.449219 275.398438 65.542969 274.980469 66.332031 274.980469 C 67.308594 274.980469 68.421875 273.820312 68.050781 273.21875 C 67.910156 272.984375 63.316406 272.800781 57.792969 272.800781 C 49.945312 272.800781 47.671875 272.941406 47.253906 273.449219 Z M 55.425781 274.792969 C 56.027344 275.027344 56.167969 275.953125 56.167969 280.128906 L 56.167969 285.179688 L 54.914062 285.460938 C 52.640625 286.0625 52.269531 285.320312 52.222656 280.265625 C 52.222656 277.761719 52.40625 275.398438 52.640625 275.074219 C 53.058594 274.46875 54.265625 274.332031 55.425781 274.792969 Z M 62.386719 274.792969 C 62.992188 275.027344 63.128906 275.953125 63.128906 280.128906 C 63.128906 285.136719 63.128906 285.179688 61.96875 285.460938 C 61.320312 285.597656 60.296875 285.597656 59.648438 285.460938 C 58.488281 285.179688 58.488281 285.136719 58.488281 280.128906 C 58.488281 276.511719 58.671875 274.980469 59.089844 274.839844 C 59.925781 274.46875 61.550781 274.46875 62.386719 274.792969 Z M 62.386719 274.792969 "/>
<path style=" stroke:none;fill-rule:nonzero;fill:rgb(0%,0%,0%);fill-opacity:1;" d="M 170.777344 273.402344 C 170.3125 273.960938 170.496094 274.191406 171.703125 274.65625 L 173.144531 275.164062 L 173.144531 280.171875 C 173.144531 284.765625 173.050781 285.179688 172.261719 285.179688 C 171.054688 285.179688 170.21875 286.246094 170.914062 286.945312 C 171.703125 287.730469 177.597656 287.683594 177.925781 286.851562 C 178.25 286.0625 177.414062 285.179688 176.300781 285.179688 C 175.558594 285.179688 175.464844 284.671875 175.464844 280.128906 C 175.464844 275.117188 175.464844 275.074219 176.625 274.792969 C 178.109375 274.421875 179.503906 275.117188 179.875 276.464844 C 180.058594 277.066406 180.476562 278.132812 180.800781 278.921875 C 181.128906 279.664062 181.960938 281.75 182.660156 283.558594 C 183.914062 286.757812 184.421875 287.5 185.539062 287.5 C 186.09375 287.5 187.53125 284.996094 187.53125 284.070312 C 187.53125 283.789062 187.8125 283.003906 188.183594 282.304688 C 188.554688 281.609375 188.972656 280.453125 189.15625 279.664062 C 189.34375 278.875 189.621094 278.226562 189.855469 278.226562 C 190.039062 278.226562 190.363281 277.53125 190.503906 276.648438 C 190.734375 275.488281 191.109375 274.980469 191.941406 274.792969 C 193.242188 274.46875 193.476562 273.355469 192.359375 272.941406 C 191.941406 272.800781 190.691406 272.660156 189.574219 272.660156 C 187.117188 272.660156 186.417969 273.636719 187.996094 274.886719 C 188.785156 275.488281 188.972656 276 188.738281 276.742188 C 188.554688 277.296875 188.183594 277.761719 187.949219 277.761719 C 187.71875 277.761719 187.53125 278.273438 187.53125 278.921875 C 187.53125 280.171875 186.140625 283.28125 185.539062 283.328125 C 185.351562 283.328125 184.980469 282.769531 184.703125 282.027344 C 184.421875 281.332031 183.726562 279.710938 183.078125 278.363281 C 181.730469 275.445312 181.730469 275.582031 183.03125 274.46875 C 184.703125 273.078125 183.308594 272.660156 176.996094 272.707031 C 172.726562 272.753906 171.195312 272.941406 170.777344 273.402344 Z M 170.777344 273.402344 "/>
</g>
</svg>
