<?xml version="1.0" encoding="UTF-8"?>
<svg xmlns="http://www.w3.org/2000/svg" xmlns:xlink="http://www.w3.org/1999/xlink" width="267pt" height="200pt" viewBox="0 0 267 200" version="1.1">
<g id="surface1">
<path style=" stroke:none;fill-rule:nonzero;fill:rgb(0%,0%,0%);fill-opacity:1;" d="M 7.949219 2.917969 C 3.144531 2.976562 2.402344 3.066406 2.253906 3.480469 C 2.136719 3.75 2.046875 38.273438 2.046875 80.179688 L 2.046875 156.398438 L 3.027344 156.398438 C 3.828125 156.398438 4.035156 156.28125 4.09375 155.714844 C 4.152344 155.355469 4.332031 155.058594 4.480469 155.058594 C 8.691406 154.96875 25.007812 155.089844 25.214844 155.207031 C 25.394531 155.296875 25.511719 155.65625 25.511719 155.980469 C 25.511719 156.875 27.054688 156.636719 27.292969 155.714844 L 27.441406 155.03125 L 37.914062 154.96875 L 48.414062 154.910156 L 48.5625 155.742188 C 48.710938 156.429688 48.859375 156.578125 49.484375 156.488281 C 50.019531 156.429688 50.316406 156.160156 50.433594 155.714844 L 50.582031 155.03125 L 60.757812 155.03125 C 66.335938 155.03125 71.023438 155.058594 71.171875 155.058594 C 71.320312 155.058594 71.496094 155.355469 71.554688 155.742188 C 71.617188 156.25 71.851562 156.398438 72.535156 156.398438 C 73.21875 156.398438 73.453125 156.25 73.515625 155.742188 C 73.601562 155.238281 73.8125 155.058594 74.402344 155.058594 C 74.847656 155.058594 79.476562 155.058594 84.699219 155.03125 C 89.917969 155.03125 94.371094 155.03125 94.578125 155.03125 C 94.753906 155.058594 94.933594 155.417969 94.933594 155.832031 C 94.933594 156.519531 95.023438 156.578125 96.210938 156.488281 C 97.128906 156.429688 97.453125 156.28125 97.453125 155.894531 C 97.453125 155.625 97.542969 155.328125 97.632812 155.207031 C 97.78125 155.089844 113.265625 154.96875 117.835938 155.058594 C 118.101562 155.058594 118.371094 155.355469 118.429688 155.742188 C 118.488281 156.28125 118.726562 156.429688 119.644531 156.488281 C 120.625 156.578125 120.742188 156.519531 120.742188 155.863281 C 120.742188 155.417969 120.949219 155.089844 121.277344 155.03125 C 121.542969 154.96875 126.351562 154.941406 131.957031 155 L 142.101562 155.089844 L 142.101562 155.804688 C 142.101562 156.429688 142.25 156.546875 142.992188 156.546875 C 143.734375 156.546875 143.882812 156.429688 143.882812 155.804688 C 143.882812 155.386719 144.03125 155.058594 144.179688 155.058594 C 144.359375 155.03125 149.105469 155.03125 154.769531 155.03125 L 165.09375 155.03125 L 165.242188 155.714844 C 165.363281 156.191406 165.660156 156.429688 166.191406 156.488281 C 166.84375 156.578125 166.992188 156.457031 167.082031 155.804688 L 167.171875 155.03125 L 177.703125 155 L 188.234375 155 L 188.382812 155.714844 C 188.621094 156.636719 190.164062 156.90625 190.164062 155.980469 C 190.164062 155.65625 190.28125 155.328125 190.429688 155.238281 C 190.578125 155.148438 195.355469 155.058594 201.019531 155.03125 L 211.375 155 L 211.523438 155.683594 C 211.761719 156.695312 213.390625 156.726562 213.539062 155.742188 L 213.628906 155.089844 L 223.925781 155 C 229.589844 154.941406 234.335938 155.03125 234.515625 155.148438 C 234.664062 155.269531 234.8125 155.59375 234.8125 155.894531 C 234.8125 156.25 235.109375 156.429688 235.9375 156.488281 C 236.886719 156.578125 237.097656 156.488281 237.246094 155.953125 C 237.332031 155.59375 237.6875 155.207031 238.046875 155.117188 C 238.371094 155 243.117188 154.941406 248.546875 155 C 258.101562 155.058594 258.398438 155.089844 258.398438 155.65625 C 258.398438 156.042969 258.664062 156.308594 259.136719 156.429688 C 260.148438 156.667969 260.769531 156.398438 260.769531 155.65625 C 260.769531 155.179688 260.949219 155.058594 261.777344 155.058594 C 262.964844 155.058594 263.261719 154.730469 263.023438 153.691406 C 262.875 153.125 262.640625 152.976562 261.957031 152.976562 C 261.480469 152.976562 261.007812 152.828125 260.917969 152.679688 C 260.800781 152.5 260.710938 148.242188 260.710938 143.214844 L 260.710938 134.078125 L 261.601562 133.988281 C 262.757812 133.867188 263.261719 133.242188 263.023438 132.292969 C 262.875 131.695312 262.640625 131.546875 261.957031 131.546875 C 261.480469 131.546875 261.007812 131.398438 260.917969 131.25 C 260.828125 131.070312 260.742188 126.84375 260.710938 121.785156 L 260.710938 112.648438 L 261.691406 112.5 C 262.492188 112.382812 262.726562 112.171875 262.964844 111.367188 C 263.292969 110.207031 263.171875 110.089844 261.777344 109.851562 L 260.710938 109.671875 L 260.710938 100.355469 C 260.710938 95.207031 260.828125 90.894531 260.949219 90.773438 C 261.097656 90.625 261.628906 90.476562 262.105469 90.417969 C 262.816406 90.355469 262.996094 90.179688 262.996094 89.582031 C 262.996094 88.957031 262.847656 88.808594 261.867188 88.691406 L 260.710938 88.542969 L 260.679688 78.957031 C 260.621094 68.542969 260.53125 69.046875 262.28125 69.046875 C 262.996094 69.046875 263.144531 68.929688 263.144531 68.304688 C 263.144531 67.589844 262.9375 67.46875 261.246094 67.203125 C 260.742188 67.113281 260.710938 66.667969 260.710938 57.769531 C 260.710938 52.648438 260.828125 48.332031 260.976562 48.214844 C 261.097656 48.066406 261.628906 47.917969 262.105469 47.855469 C 262.816406 47.796875 262.996094 47.617188 262.996094 47.023438 C 262.996094 46.398438 262.847656 46.25 262.015625 46.191406 C 261.480469 46.132812 260.976562 45.921875 260.886719 45.714844 C 260.800781 45.507812 260.710938 41.21875 260.679688 36.191406 C 260.621094 26.070312 260.445312 27.023438 262.402344 26.726562 C 262.816406 26.667969 262.996094 26.398438 262.996094 25.894531 C 262.996094 25.296875 262.816406 25.117188 262.105469 25.058594 C 261.628906 25 261.097656 24.851562 260.976562 24.730469 C 260.828125 24.582031 260.742188 20.269531 260.742188 15.148438 L 260.710938 5.804688 L 261.601562 5.625 C 262.875 5.355469 263.144531 5.117188 263.144531 4.226562 C 263.144531 2.917969 262.757812 2.558594 261.628906 2.828125 C 260.472656 3.066406 261.007812 3.066406 247.566406 3.066406 C 236.207031 3.09375 237.628906 3.09375 224.28125 3.035156 C 203.660156 2.945312 89.683594 2.976562 72.980469 3.066406 C 72.238281 3.09375 67.699219 3.066406 62.894531 3.007812 C 58.085938 2.976562 46.074219 2.945312 36.191406 2.945312 C 26.3125 2.917969 17.175781 2.886719 15.871094 2.886719 C 14.566406 2.855469 11.007812 2.855469 7.949219 2.917969 Z M 25.128906 5.742188 C 25.246094 5.863281 25.335938 20.625 25.246094 24.40625 C 25.214844 25 25.007812 25 14.683594 25 C 4.359375 25 4.152344 25 4.125 24.40625 C 4.035156 21.132812 4.125 5.953125 4.242188 5.773438 C 4.421875 5.476562 24.832031 5.476562 25.128906 5.742188 Z M 48.386719 5.65625 C 48.535156 6.519531 48.476562 24.792969 48.296875 24.882812 C 48.03125 25.058594 27.558594 25.058594 27.382812 24.882812 C 27.203125 24.703125 27.203125 6.042969 27.382812 5.742188 C 27.53125 5.476562 48.328125 5.417969 48.386719 5.65625 Z M 71.40625 5.742188 C 71.496094 5.863281 71.617188 21.578125 71.527344 24.464844 C 71.496094 24.96875 70.785156 25 61.144531 25 C 54.46875 25 50.699219 24.882812 50.582031 24.703125 C 50.375 24.34375 50.316406 6.101562 50.523438 5.742188 C 50.671875 5.476562 71.140625 5.507812 71.40625 5.742188 Z M 94.816406 5.742188 C 95.050781 5.953125 95.023438 24.34375 94.785156 24.703125 C 94.667969 24.882812 91.078125 25 84.402344 25 L 74.195312 25 L 73.691406 24.078125 C 73.335938 23.332031 73.304688 22.976562 73.574219 22.351562 C 73.960938 21.429688 73.839844 7.738281 73.453125 6.667969 C 73.277344 6.132812 73.367188 5.980469 73.988281 5.773438 C 74.789062 5.507812 94.546875 5.476562 94.816406 5.742188 Z M 118.519531 5.953125 C 118.84375 6.21875 118.84375 6.398438 118.488281 7.082031 C 117.984375 8.066406 117.894531 20.894531 118.371094 22.203125 C 118.605469 22.769531 118.578125 23.304688 118.371094 23.988281 L 118.015625 25 L 97.601562 25 L 97.574219 24.167969 C 97.574219 23.71875 97.574219 19.882812 97.601562 15.625 C 97.632812 11.132812 97.515625 7.558594 97.335938 7.113281 C 96.742188 5.535156 96.921875 5.507812 107.988281 5.566406 C 115.046875 5.59375 118.222656 5.714844 118.519531 5.953125 Z M 142.101562 5.980469 C 142.222656 6.160156 142.191406 6.875 142.042969 7.558594 C 141.867188 8.242188 141.808594 12.113281 141.867188 16.605469 C 141.953125 22.441406 141.925781 24.492188 141.660156 24.703125 C 141.421875 24.910156 137.535156 24.96875 131.097656 24.941406 L 120.890625 24.851562 L 120.800781 15.355469 C 120.773438 9.820312 120.863281 5.773438 121.011719 5.683594 C 121.574219 5.328125 141.894531 5.625 142.101562 5.980469 Z M 165.125 5.742188 C 165.363281 5.980469 165.273438 24.492188 165.035156 24.730469 C 164.859375 24.910156 149.492188 25.117188 144.269531 25 C 143.972656 25 143.882812 22.886719 143.882812 15.386719 C 143.882812 10.089844 143.941406 5.683594 144.003906 5.625 C 144.179688 5.445312 164.945312 5.566406 165.125 5.742188 Z M 188.355469 5.894531 C 188.441406 6.070312 188.503906 10.417969 188.441406 15.59375 L 188.355469 25 L 177.882812 25 C 168.59375 25 167.351562 24.941406 167.203125 24.523438 C 166.992188 24.019531 166.964844 5.832031 167.140625 5.625 C 167.4375 5.355469 188.175781 5.625 188.355469 5.894531 Z M 211.375 15.328125 L 211.375 25.058594 L 201.140625 25 C 195.503906 25 190.785156 24.851562 190.636719 24.703125 C 190.519531 24.582031 190.402344 20.269531 190.402344 15.148438 C 190.402344 6.964844 190.460938 5.804688 190.875 5.65625 C 191.113281 5.566406 195.828125 5.535156 201.347656 5.535156 L 211.375 5.59375 Z M 234.542969 5.742188 C 234.753906 5.953125 234.78125 24.703125 234.574219 24.882812 C 234.484375 24.96875 229.917969 25.03125 224.367188 25.03125 C 214.429688 25 214.339844 25 213.808594 24.34375 C 213.390625 23.867188 213.304688 23.421875 213.453125 22.648438 C 213.628906 21.757812 213.660156 9.105469 213.511719 6.726562 C 213.453125 6.011719 213.601562 5.804688 214.132812 5.683594 C 214.964844 5.476562 234.335938 5.535156 234.542969 5.742188 Z M 258.25 5.773438 C 259.078125 5.980469 259.167969 6.367188 258.546875 7.441406 C 257.890625 8.601562 257.921875 20.804688 258.574219 22.230469 C 259.050781 23.214844 259.050781 23.304688 258.484375 24.046875 L 257.890625 24.851562 L 247.925781 24.941406 L 237.957031 25 L 237.511719 24.136719 C 237.125 23.453125 237.125 22.945312 237.394531 21.25 C 237.71875 19.167969 237.570312 7.886719 237.183594 6.667969 C 237.035156 6.21875 237.15625 5.980469 237.628906 5.773438 C 238.3125 5.476562 257.03125 5.476562 258.25 5.773438 Z M 61.648438 26.964844 L 71.554688 26.964844 L 71.554688 36.578125 C 71.554688 41.84375 71.496094 46.25 71.40625 46.339844 C 71.109375 46.605469 50.9375 46.457031 50.640625 46.160156 C 50.34375 45.863281 50.285156 27.261719 50.582031 26.785156 C 50.699219 26.578125 50.996094 26.546875 51.292969 26.695312 C 51.5625 26.816406 56.21875 26.933594 61.648438 26.964844 Z M 165.09375 26.785156 C 165.300781 27.144531 165.363281 46.132812 165.125 46.339844 C 165.035156 46.429688 160.289062 46.519531 154.5625 46.546875 C 144.386719 46.578125 144.148438 46.578125 144.003906 45.980469 C 143.941406 45.65625 143.914062 41.21875 143.941406 36.160156 L 144.03125 26.933594 L 152.636719 27.023438 C 159.8125 27.082031 162.15625 26.992188 164.710938 26.519531 C 164.828125 26.519531 165.007812 26.605469 165.09375 26.785156 Z M 178.238281 26.964844 C 183.636719 26.964844 188.144531 27.054688 188.234375 27.144531 C 188.472656 27.351562 188.503906 46.132812 188.292969 46.339844 C 188.207031 46.429688 183.398438 46.488281 177.644531 46.488281 L 167.171875 46.488281 L 167.082031 37.171875 C 167.054688 32.023438 167.082031 27.5 167.171875 27.144531 C 167.320312 26.605469 167.46875 26.488281 167.855469 26.667969 C 168.121094 26.816406 172.808594 26.933594 178.238281 26.964844 Z M 25.277344 36.429688 C 25.304688 41.605469 25.246094 45.921875 25.15625 45.980469 C 24.949219 46.191406 4.449219 46.21875 4.242188 46.011719 C 4.125 45.894531 4.003906 27.917969 4.125 27.082031 C 4.152344 26.992188 8.898438 26.933594 14.714844 26.964844 L 25.277344 26.992188 Z M 48.503906 36.488281 C 48.535156 41.695312 48.503906 46.101562 48.445312 46.28125 C 48.355469 46.605469 27.707031 46.636719 27.382812 46.308594 C 27.261719 46.191406 27.175781 26.933594 27.292969 26.933594 C 27.292969 26.933594 32.070312 26.933594 37.882812 26.964844 L 48.503906 26.992188 Z M 95.734375 27.261719 C 96.269531 27.351562 96.949219 27.351562 97.21875 27.230469 C 97.929688 26.933594 117.6875 26.933594 118.785156 27.230469 L 119.644531 27.46875 L 118.933594 28.007812 L 118.222656 28.542969 L 118.191406 37.320312 C 118.191406 42.171875 118.101562 46.191406 118.015625 46.28125 C 117.777344 46.546875 97.898438 46.519531 97.664062 46.28125 C 97.542969 46.160156 97.515625 42.5 97.542969 38.15625 C 97.691406 28.78125 97.601562 28.09375 96.386719 27.917969 C 95.914062 27.828125 95.378906 27.945312 95.199219 28.15625 C 94.992188 28.394531 94.902344 31.546875 94.964844 37.203125 C 94.992188 42.855469 94.902344 45.980469 94.695312 46.191406 C 94.519531 46.367188 90.898438 46.488281 84.402344 46.488281 C 75.234375 46.457031 74.34375 46.429688 73.8125 45.921875 C 73.367188 45.507812 73.277344 45.207031 73.453125 44.492188 C 73.574219 44.019531 73.722656 40.417969 73.78125 36.519531 C 73.871094 30.507812 73.8125 29.285156 73.425781 28.480469 C 73.039062 27.679688 73.007812 27.5 73.367188 27.230469 C 73.8125 26.90625 94.011719 26.933594 95.734375 27.261719 Z M 142.101562 27.261719 C 142.25 27.410156 142.25 28.035156 142.074219 28.867188 C 141.867188 29.703125 141.808594 33.183594 141.867188 38.035156 C 141.953125 43.867188 141.925781 45.921875 141.660156 46.132812 C 141.421875 46.339844 137.535156 46.398438 131.097656 46.367188 L 120.890625 46.28125 L 120.742188 36.90625 C 120.65625 31.757812 120.683594 27.382812 120.800781 27.230469 C 121.039062 26.84375 141.71875 26.875 142.101562 27.261719 Z M 211.523438 27.082031 C 211.640625 28.957031 211.523438 46.21875 211.40625 46.339844 C 211.167969 46.578125 190.757812 46.519531 190.519531 46.28125 C 190.402344 46.160156 190.339844 42.382812 190.402344 37.855469 C 190.429688 33.304688 190.339844 29.105469 190.222656 28.511719 C 190.074219 27.917969 190.042969 27.320312 190.191406 27.171875 C 190.429688 26.933594 211.523438 26.816406 211.523438 27.082031 Z M 234.988281 27.292969 C 235.167969 27.46875 235.167969 27.886719 234.960938 28.453125 C 234.722656 29.046875 234.632812 32.054688 234.691406 37.707031 C 234.753906 42.320312 234.691406 46.191406 234.605469 46.308594 C 234.457031 46.429688 216.535156 46.578125 214.28125 46.457031 C 214.105469 46.429688 213.835938 46.160156 213.75 45.832031 C 213.480469 44.96875 213.390625 27.113281 213.660156 26.992188 C 214.371094 26.785156 234.753906 27.054688 234.988281 27.292969 Z M 258.988281 27.261719 C 259.167969 27.441406 259.078125 27.976562 258.691406 28.71875 C 258.160156 29.792969 258.101562 30.476562 258.101562 36.308594 C 258.101562 41.398438 258.1875 42.886719 258.546875 43.570312 C 259.136719 44.671875 259.109375 45.03125 258.425781 45.65625 C 257.921875 46.132812 256.914062 46.160156 247.953125 46.160156 L 238.074219 46.191406 L 237.539062 45.476562 C 237.066406 44.820312 237.035156 44.554688 237.363281 42.738281 C 237.71875 40.59375 237.601562 29.464844 237.183594 28.511719 C 237.066406 28.214844 236.679688 27.917969 236.355469 27.796875 C 235.789062 27.617188 235.851562 27.558594 236.859375 27.261719 C 238.3125 26.84375 258.605469 26.875 258.988281 27.261719 Z M 25.511719 48.125 C 25.632812 50.59375 25.511719 67.054688 25.394531 67.171875 C 25.277344 67.292969 6.140625 67.382812 4.152344 67.261719 C 4.035156 67.261719 4.035156 48.394531 4.125 47.976562 C 4.183594 47.796875 25.511719 47.945312 25.511719 48.125 Z M 50.847656 48.660156 C 51.324219 49.316406 52.808594 49.40625 62.003906 49.40625 L 69.863281 49.40625 L 70.960938 48.601562 C 71.851562 48.007812 72.296875 47.886719 73.15625 48.007812 C 73.75 48.09375 74.402344 48.421875 74.613281 48.71875 C 74.96875 49.195312 75.738281 49.285156 82.53125 49.433594 C 91.375 49.613281 93.835938 49.433594 94.667969 48.542969 C 95.40625 47.738281 96.832031 47.738281 97.601562 48.511719 C 98.433594 49.34375 101.609375 49.703125 108.164062 49.703125 C 111.785156 49.703125 113.328125 49.613281 113.59375 49.316406 C 113.890625 49.019531 114.066406 49.078125 114.425781 49.613281 C 114.929688 50.355469 116.144531 50.535156 116.382812 49.910156 C 116.738281 48.957031 116.828125 50.386719 116.917969 56.546875 C 116.976562 64.492188 117.035156 63.988281 116.351562 63.988281 C 115.699219 63.988281 115.078125 64.644531 114.574219 65.863281 L 114.214844 66.695312 L 105.257812 66.667969 C 100.304688 66.667969 95.734375 66.785156 95.113281 66.933594 C 92.914062 67.46875 93.003906 66.964844 93.003906 78.71875 L 93.003906 89.226562 L 93.6875 89.96875 C 94.222656 90.535156 94.785156 90.742188 96.355469 90.894531 C 98.996094 91.132812 113.03125 91.160156 113.683594 90.921875 C 114.066406 90.773438 114.335938 91.042969 114.871094 92.171875 C 115.285156 93.035156 115.757812 93.601562 116.054688 93.601562 C 116.324219 93.601562 116.648438 93.71875 116.796875 93.839844 C 117.066406 94.105469 116.945312 107.769531 116.679688 108.035156 C 116.589844 108.125 116.441406 108.007812 116.382812 107.796875 C 116.144531 107.144531 115.164062 107.441406 114.574219 108.363281 C 114.214844 108.929688 113.921875 109.167969 113.800781 108.957031 C 113.652344 108.71875 111.398438 108.632812 106.53125 108.632812 C 99.738281 108.632812 99.441406 108.660156 98.910156 109.257812 C 98.40625 109.820312 98.078125 109.851562 95.914062 109.761719 C 94.042969 109.703125 93.390625 109.554688 93.09375 109.167969 C 92.738281 108.691406 91.964844 108.660156 84.550781 108.71875 C 77.460938 108.78125 76.273438 108.867188 75.5 109.316406 C 74.226562 110.03125 71.109375 110 69.863281 109.226562 C 69.003906 108.691406 68.382812 108.660156 61.675781 108.632812 C 54.644531 108.632812 53.042969 108.75 51.710938 109.464844 C 51.351562 109.671875 50.34375 109.820312 49.453125 109.820312 L 47.851562 109.820312 L 47.613281 108.242188 C 47.40625 106.816406 47.378906 106.757812 47.140625 107.53125 C 46.8125 108.691406 46.308594 109.226562 45.777344 109.019531 C 45.539062 108.929688 42.097656 108.808594 38.152344 108.78125 C 34.234375 108.71875 30.644531 108.660156 30.199219 108.601562 C 28.65625 108.394531 28.628906 108.273438 28.539062 100.207031 C 28.480469 93.542969 28.390625 92.53125 27.855469 91.191406 L 27.261719 89.703125 L 27.855469 88.363281 C 28.421875 87.144531 28.480469 86.429688 28.480469 78.839844 L 28.480469 70.625 L 27.738281 69.523438 L 27.027344 68.453125 L 27.648438 67.382812 C 28.242188 66.367188 28.300781 65.625 28.597656 58.15625 C 28.835938 52.230469 29.042969 49.910156 29.3125 49.644531 C 29.605469 49.34375 31.683594 49.226562 38.121094 49.195312 L 46.578125 49.136719 L 46.992188 49.941406 C 47.257812 50.386719 47.4375 50.566406 47.464844 50.355469 C 47.464844 50.148438 47.675781 49.492188 47.910156 48.898438 C 48.328125 47.886719 48.414062 47.855469 49.425781 48.007812 C 50.019531 48.09375 50.640625 48.394531 50.847656 48.660156 Z M 142.933594 59.078125 L 142.992188 70 L 154.710938 69.882812 L 166.429688 69.761719 L 166.371094 79.316406 L 166.28125 88.839844 L 165.539062 88.78125 C 165.125 88.75 159.933594 88.71875 153.96875 88.691406 L 143.140625 88.660156 L 143.050781 99.40625 C 143.023438 106.488281 143.082031 110.117188 143.289062 110.117188 C 143.4375 110.117188 143.585938 110.296875 143.585938 110.507812 C 143.585938 110.804688 141.125 110.894531 131.273438 110.863281 C 119.171875 110.863281 118.964844 110.863281 118.902344 110.269531 C 118.875 109.941406 118.84375 105.148438 118.84375 99.613281 L 118.816406 89.554688 L 106.710938 89.492188 L 94.605469 89.433594 L 94.546875 78.78125 C 94.519531 71.875 94.578125 68.15625 94.785156 68.15625 C 94.964844 68.125 100.453125 68.15625 107.039062 68.15625 L 118.992188 68.183594 L 118.695312 48.066406 L 130.769531 48.09375 L 142.84375 48.125 Z M 258.839844 48.394531 C 259.285156 48.839844 259.257812 48.929688 258.78125 49.464844 C 258.308594 50 258.25 50.773438 258.25 57.558594 C 258.25 64.136719 258.308594 65.148438 258.753906 65.832031 C 259.703125 67.261719 259.375 67.292969 247.714844 67.320312 C 241.8125 67.320312 236.917969 67.230469 236.800781 67.144531 C 236.710938 67.023438 236.621094 62.738281 236.621094 57.589844 C 236.589844 49.492188 236.652344 48.214844 237.035156 48.125 C 237.273438 48.066406 242.167969 47.976562 247.925781 47.976562 C 257.121094 47.945312 258.425781 47.976562 258.839844 48.394531 Z M 168.121094 48.808594 C 168.417969 49.195312 169.753906 49.257812 176.574219 49.316406 C 181.085938 49.34375 185.269531 49.226562 186.011719 49.078125 C 189.09375 48.394531 191.140625 48.273438 191.855469 48.71875 C 192.417969 49.078125 193.960938 49.167969 200.992188 49.136719 C 206.894531 49.136719 209.65625 49.019531 210.097656 48.78125 C 210.457031 48.570312 211.554688 48.394531 212.503906 48.363281 C 214.191406 48.332031 214.222656 48.363281 214.402344 49.195312 C 214.578125 50.058594 214.578125 50.058594 215.054688 49.433594 C 215.4375 48.929688 215.675781 48.839844 216.417969 49.046875 C 216.921875 49.195312 220.453125 49.257812 224.28125 49.195312 C 231.609375 49.105469 232.914062 49.257812 233.507812 50.355469 C 233.714844 50.773438 233.832031 53.066406 233.804688 56.90625 C 233.742188 62.53125 234.011719 65.386719 234.722656 67.410156 C 234.960938 68.125 234.929688 68.632812 234.542969 69.730469 C 233.832031 71.84375 233.832031 86.605469 234.542969 88.394531 C 234.988281 89.523438 234.988281 89.730469 234.542969 91.132812 C 234.160156 92.351562 234.070312 93.988281 234.070312 99.761719 C 234.070312 104.226562 233.953125 107.113281 233.742188 107.46875 C 233.59375 107.796875 233.089844 108.214844 232.644531 108.394531 C 231.667969 108.808594 219.324219 108.988281 218.585938 108.601562 C 218.289062 108.421875 217.722656 108.511719 217.011719 108.808594 C 215.734375 109.34375 215.082031 109.195312 215.082031 108.363281 C 215.082031 107.230469 214.550781 107.441406 214.339844 108.632812 L 214.132812 109.820312 L 212.441406 109.820312 C 211.34375 109.820312 210.394531 109.613281 209.65625 109.226562 C 208.644531 108.660156 207.992188 108.632812 200.753906 108.632812 C 193.1875 108.632812 192.894531 108.660156 192.210938 109.257812 C 191.527344 109.851562 191.320312 109.882812 188.234375 109.671875 C 186.453125 109.554688 184.585938 109.433594 184.082031 109.433594 C 183.605469 109.433594 181.738281 109.316406 179.929688 109.195312 C 178.148438 109.046875 175.746094 109.078125 174.617188 109.226562 C 173.402344 109.375 172.273438 109.375 171.859375 109.195312 C 171.355469 109.019531 170.582031 109.078125 169.398438 109.375 C 166.875 110.03125 164.472656 109.96875 163.847656 109.226562 C 163.375 108.691406 162.960938 108.632812 160.023438 108.632812 C 157.351562 108.632812 156.640625 108.71875 156.3125 109.105469 C 155.957031 109.523438 155.867188 109.492188 155.246094 108.75 L 154.59375 107.917969 L 153.703125 108.570312 C 152.636719 109.375 152.546875 109.375 151.597656 108.632812 C 150.648438 107.886719 150.617188 107.886719 149.550781 108.78125 L 148.660156 109.554688 L 147.710938 108.332031 C 147.175781 107.679688 146.640625 107.144531 146.492188 107.144531 C 146.34375 107.144531 146.019531 107.617188 145.78125 108.214844 C 145.425781 109.046875 145.246094 109.226562 144.980469 108.957031 C 144.417969 108.394531 144.417969 93.75 144.953125 93.125 C 145.335938 92.707031 145.308594 92.53125 144.863281 91.726562 C 144.269531 90.683594 144.625 89.941406 145.515625 90.296875 C 145.929688 90.445312 145.988281 90.714844 145.8125 91.546875 C 145.691406 92.203125 145.753906 92.769531 145.988281 93.035156 C 146.523438 93.660156 147.148438 93.007812 147.148438 91.785156 C 147.148438 90.59375 147.949219 90.03125 149.34375 90.296875 C 149.847656 90.417969 150.46875 90.507812 150.707031 90.476562 C 150.945312 90.476562 154.058594 90.417969 157.589844 90.355469 C 165.363281 90.238281 166.429688 90.089844 167.320312 89.136719 C 168.03125 88.394531 168.03125 88.394531 168.003906 79.523438 C 168.003906 74.671875 167.914062 70.386719 167.792969 70.03125 C 167.675781 69.671875 167.140625 69.046875 166.636719 68.691406 C 165.746094 68.066406 165.363281 68.007812 160.734375 67.945312 C 158.003906 67.886719 155.394531 67.769531 154.980469 67.679688 C 154.535156 67.558594 153.941406 67.617188 153.644531 67.828125 C 152.902344 68.273438 152.160156 68.242188 151.359375 67.707031 C 150.796875 67.292969 150.648438 67.292969 149.996094 67.707031 C 148.898438 68.453125 148.007812 68.183594 147.324219 66.875 C 146.671875 65.625 145.960938 65.417969 145.960938 66.457031 C 145.960938 66.84375 145.78125 67.410156 145.542969 67.738281 C 145.128906 68.304688 145.101562 68.304688 144.863281 67.707031 C 144.742188 67.382812 144.625 63.035156 144.625 58.035156 C 144.625 49.167969 144.625 48.957031 145.21875 48.957031 C 145.632812 48.957031 145.839844 49.195312 145.902344 49.761719 C 146.019531 50.832031 147.027344 50.894531 147.503906 49.851562 C 147.917969 48.929688 149.28125 48.839844 150.023438 49.671875 C 150.5 50.269531 150.527344 50.269531 151.242188 49.671875 C 152.070312 49.019531 152.722656 48.957031 153.792969 49.433594 C 154.207031 49.644531 154.769531 49.671875 155.066406 49.582031 C 155.363281 49.464844 157.351562 49.34375 159.519531 49.316406 C 162.574219 49.257812 163.550781 49.167969 163.878906 48.808594 C 164.175781 48.511719 164.917969 48.363281 166.042969 48.363281 C 167.230469 48.363281 167.882812 48.511719 168.121094 48.808594 Z M 25.277344 69.195312 C 25.574219 69.316406 25.660156 71.191406 25.601562 78.957031 L 25.574219 88.542969 L 4.003906 88.542969 L 4.09375 80.65625 C 4.152344 76.308594 4.0625 72.082031 3.914062 71.21875 C 3.738281 70.179688 3.769531 69.554688 3.976562 69.34375 C 4.273438 69.046875 24.476562 68.898438 25.277344 69.195312 Z M 258.515625 69.34375 C 259.257812 69.613281 259.257812 69.613281 258.753906 70.59375 C 258.308594 71.429688 258.25 72.617188 258.25 79.019531 C 258.25 85.863281 258.308594 86.519531 258.8125 87.292969 C 259.285156 88.007812 259.316406 88.183594 258.960938 88.421875 C 258.722656 88.570312 253.769531 88.660156 247.597656 88.601562 L 236.652344 88.542969 L 236.621094 78.957031 C 236.589844 69.582031 236.589844 69.375 237.183594 69.257812 C 238.492188 68.988281 257.804688 69.078125 258.515625 69.34375 Z M 25.363281 90.804688 C 25.484375 90.953125 25.632812 107.410156 25.542969 109.671875 C 25.511719 109.96875 4.507812 110 4.210938 109.703125 C 4.125 109.582031 4.035156 92.410156 4.125 90.894531 C 4.152344 90.507812 25.007812 90.445312 25.363281 90.804688 Z M 258.457031 91.070312 C 259.109375 91.578125 259.109375 91.667969 258.691406 92.617188 C 258.101562 93.929688 258.039062 107.5 258.632812 108.09375 C 259.078125 108.542969 259.109375 109.40625 258.691406 109.671875 C 258.335938 109.910156 237.066406 109.941406 236.828125 109.730469 C 236.769531 109.644531 236.652344 105.507812 236.652344 100.535156 C 236.589844 92.769531 236.652344 91.457031 237.035156 91.070312 C 237.453125 90.65625 238.964844 90.59375 247.65625 90.566406 C 257.0625 90.535156 257.863281 90.566406 258.457031 91.070312 Z M 37.289062 111.339844 C 42.15625 111.339844 46.605469 111.28125 47.199219 111.160156 C 48.269531 110.953125 48.269531 110.980469 48.414062 112.113281 C 48.625 113.601562 48.503906 131.488281 48.328125 131.695312 C 48.238281 131.785156 47.171875 131.726562 45.953125 131.546875 C 43.164062 131.191406 32.574219 131.191406 29.816406 131.546875 C 28.6875 131.695312 27.621094 131.695312 27.5 131.578125 C 27.203125 131.28125 27.144531 111.785156 27.441406 111.308594 C 27.558594 111.132812 27.828125 111.042969 28.066406 111.132812 C 28.300781 111.21875 32.457031 111.308594 37.289062 111.339844 Z M 54.230469 111.636719 C 57.019531 112.023438 67.667969 111.84375 69.507812 111.367188 C 70.664062 111.070312 71.46875 111.457031 71.496094 112.292969 C 71.527344 112.5 71.527344 116.84375 71.554688 121.992188 C 71.554688 131.90625 71.527344 132.082031 70.160156 131.667969 C 69.125 131.339844 55.714844 131.191406 53.25 131.488281 C 51.945312 131.636719 50.757812 131.667969 50.640625 131.546875 C 50.34375 131.28125 50.285156 113.242188 50.582031 111.90625 C 50.730469 111.25 50.90625 111.042969 51.265625 111.132812 C 51.5625 111.21875 52.867188 111.429688 54.230469 111.636719 Z M 165.09375 111.519531 C 165.363281 112.261719 165.332031 131.28125 165.035156 131.546875 C 164.917969 131.667969 163.878906 131.667969 162.722656 131.519531 C 159.664062 131.160156 148.925781 131.191406 146.492188 131.578125 C 144.804688 131.84375 144.359375 131.816406 144.148438 131.488281 C 143.792969 130.921875 143.824219 113.007812 144.179688 112.054688 C 144.476562 111.28125 144.566406 111.25 145.902344 111.457031 C 147.800781 111.785156 162.21875 111.667969 163.316406 111.339844 C 164.621094 110.921875 164.859375 110.953125 165.09375 111.519531 Z M 171.917969 111.636719 C 175.269531 111.992188 183.695312 111.816406 186.394531 111.339844 C 187.761719 111.101562 187.847656 111.132812 188.144531 111.875 C 188.472656 112.707031 188.503906 130.566406 188.207031 131.398438 C 188.058594 131.757812 187.789062 131.84375 187.226562 131.695312 C 185.921875 131.367188 172.957031 131.191406 170.199219 131.457031 C 168.535156 131.636719 167.496094 131.605469 167.320312 131.429688 C 166.992188 131.101562 166.90625 113.511719 167.203125 111.90625 C 167.378906 111.132812 167.496094 110.980469 168.03125 111.132812 C 168.386719 111.25 170.136719 111.457031 171.917969 111.636719 Z M 211.257812 111.636719 C 211.640625 112.351562 211.703125 131.191406 211.316406 131.578125 C 211.167969 131.726562 210.070312 131.667969 208.851562 131.488281 C 207.488281 131.308594 203.542969 131.25 198.675781 131.339844 C 193.070312 131.429688 190.699219 131.367188 190.550781 131.132812 C 190.429688 130.953125 190.371094 127.320312 190.402344 123.066406 C 190.429688 118.808594 190.371094 114.851562 190.222656 114.285156 C 190.042969 113.570312 190.105469 112.945312 190.371094 112.230469 L 190.785156 111.25 L 192.863281 111.429688 C 197.3125 111.875 209.65625 111.605469 210.839844 111.042969 C 210.871094 111.011719 211.046875 111.28125 211.257812 111.636719 Z M 234.722656 112.144531 C 234.929688 112.945312 235.109375 113.09375 235.878906 113.09375 C 236.382812 113.09375 237.035156 112.945312 237.394531 112.769531 C 238.222656 112.320312 257.832031 112.320312 258.664062 112.796875 C 259.433594 113.183594 259.433594 113.332031 258.78125 114.078125 C 258.308594 114.582031 258.25 115.476562 258.160156 121.457031 C 258.070312 127.382812 258.128906 128.394531 258.574219 129.34375 C 259.050781 130.328125 259.050781 130.417969 258.574219 130.894531 C 258.128906 131.339844 257.0625 131.398438 248.8125 131.398438 C 243.742188 131.398438 239.351562 131.519531 239.082031 131.636719 C 238.757812 131.816406 238.34375 131.667969 237.808594 131.191406 C 237.007812 130.507812 237.007812 130.507812 237.363281 128.453125 C 237.570312 127.144531 237.660156 124.285156 237.570312 120.386719 C 237.453125 113.929688 237.304688 113.394531 235.96875 113.394531 C 234.753906 113.394531 234.605469 114.375 234.691406 123.15625 C 234.722656 127.796875 234.632812 131.367188 234.484375 131.546875 C 234.335938 131.695312 233.121094 131.667969 231.546875 131.488281 C 230.003906 131.308594 225.824219 131.25 221.582031 131.339844 C 217.574219 131.429688 214.105469 131.398438 213.898438 131.25 C 213.570312 131.042969 213.511719 129.40625 213.570312 122.855469 C 213.628906 117.738281 213.539062 114.433594 213.332031 113.929688 C 213.066406 113.183594 213.125 113.035156 213.75 112.617188 C 214.164062 112.351562 214.488281 111.933594 214.488281 111.726562 C 214.488281 111.367188 215.5 111.308594 220.363281 111.429688 C 223.566406 111.488281 227.957031 111.429688 230.066406 111.308594 C 232.199219 111.21875 234.039062 111.132812 234.21875 111.160156 C 234.367188 111.191406 234.605469 111.636719 234.722656 112.144531 Z M 83.957031 111.695312 C 86.804688 111.667969 90.363281 111.546875 91.847656 111.457031 L 94.578125 111.28125 L 94.785156 112.113281 C 94.875 112.558594 94.992188 116.992188 94.992188 121.992188 C 94.992188 129.105469 94.902344 131.132812 94.578125 131.429688 C 94.28125 131.726562 93.746094 131.757812 91.964844 131.488281 C 90.601562 131.308594 86.746094 131.25 81.96875 131.339844 C 74.640625 131.457031 74.167969 131.429688 73.691406 130.921875 C 73.277344 130.445312 73.246094 130.207031 73.515625 129.582031 C 74.078125 128.394531 73.988281 115.269531 73.425781 114.195312 C 73.007812 113.394531 73.039062 113.273438 73.8125 112.292969 L 74.613281 111.25 L 76.6875 111.519531 C 77.84375 111.636719 81.109375 111.726562 83.957031 111.695312 Z M 106.148438 111.785156 C 109.46875 111.90625 112.644531 111.84375 114.394531 111.636719 L 117.214844 111.308594 L 118.191406 112.320312 C 119.082031 113.273438 119.113281 113.421875 118.695312 113.839844 C 118.015625 114.523438 117.835938 128.15625 118.460938 129.433594 C 118.84375 130.207031 118.84375 130.355469 118.25 131.070312 C 117.628906 131.816406 117.597656 131.84375 115.402344 131.519531 C 113.445312 131.21875 100.363281 131.308594 98.671875 131.605469 C 98.34375 131.667969 97.898438 131.367188 97.542969 130.921875 C 97.070312 130.296875 97.011719 130 97.277344 129.523438 C 97.691406 128.78125 97.722656 115.773438 97.335938 114.375 C 97.128906 113.691406 97.1875 113.15625 97.542969 112.351562 C 98.046875 111.308594 98.078125 111.28125 99.382812 111.457031 C 100.125 111.546875 103.152344 111.695312 106.148438 111.785156 Z M 25.277344 121.636719 C 25.246094 126.667969 25.246094 130.953125 25.246094 131.101562 C 25.214844 131.308594 22.132812 131.429688 15.8125 131.398438 C 10.621094 131.398438 6.050781 131.488281 5.636719 131.605469 C 4.0625 132.054688 4.0625 132.054688 4.0625 122.054688 C 4.0625 116.964844 4.152344 112.707031 4.273438 112.589844 C 4.359375 112.5 8.542969 112.441406 13.558594 112.441406 C 18.601562 112.46875 23.167969 112.382812 23.734375 112.261719 C 24.296875 112.113281 24.890625 112.113281 25.039062 112.230469 C 25.15625 112.351562 25.277344 116.578125 25.277344 121.636719 Z M 142.015625 112.886719 C 142.28125 113.15625 142.28125 113.601562 142.074219 114.671875 C 141.746094 116.191406 141.835938 129.316406 142.191406 130.058594 C 142.3125 130.296875 142.28125 130.714844 142.101562 130.953125 C 141.894531 131.308594 140.351562 131.398438 132.402344 131.398438 C 127.210938 131.429688 122.703125 131.519531 122.375 131.636719 C 122.019531 131.785156 121.574219 131.726562 121.277344 131.488281 C 120.800781 131.132812 120.742188 130.238281 120.714844 122.023438 C 120.683594 114.492188 120.773438 112.917969 121.128906 112.648438 C 121.753906 112.203125 141.539062 112.410156 142.015625 112.886719 Z M 178.238281 133.808594 C 183.667969 133.839844 188.207031 133.929688 188.292969 134.019531 C 188.472656 134.226562 188.414062 152.261719 188.207031 152.769531 C 188.117188 153.035156 185.832031 153.09375 178.710938 153.035156 C 172.867188 152.976562 169.039062 153.035156 168.476562 153.242188 C 167.765625 153.480469 167.585938 153.453125 167.320312 152.976562 C 166.992188 152.382812 166.90625 134.613281 167.203125 133.78125 C 167.351562 133.453125 167.558594 133.363281 167.882812 133.542969 C 168.152344 133.660156 172.808594 133.808594 178.238281 133.808594 Z M 234.929688 135.386719 C 234.753906 135.832031 234.664062 139.464844 234.691406 144.40625 C 234.722656 148.957031 234.691406 152.769531 234.574219 152.855469 C 234.457031 153.007812 225.289062 153.035156 214.933594 152.976562 C 213.539062 152.945312 213.570312 153.007812 213.539062 143.332031 C 213.539062 138.304688 213.628906 134.105469 213.71875 134.019531 C 213.777344 133.929688 218.167969 133.898438 223.449219 133.898438 C 229.144531 133.929688 233.210938 133.808594 233.476562 133.660156 C 233.773438 133.453125 234.101562 133.542969 234.574219 133.988281 C 235.109375 134.492188 235.167969 134.730469 234.929688 135.386719 Z M 25.246094 134.078125 C 25.335938 135.507812 25.246094 152.738281 25.15625 152.828125 C 24.949219 153.035156 4.449219 153.066406 4.242188 152.855469 C 4.035156 152.648438 4.003906 134.40625 4.242188 134.046875 C 4.449219 133.660156 25.214844 133.691406 25.246094 134.078125 Z M 48.386719 133.929688 C 48.476562 134.285156 48.535156 152.558594 48.445312 152.828125 C 48.355469 153.125 27.679688 153.15625 27.382812 152.886719 C 27.203125 152.679688 27.203125 134.316406 27.382812 134.019531 C 27.53125 133.75 48.328125 133.691406 48.386719 133.929688 Z M 71.40625 134.046875 C 71.617188 134.226562 71.617188 152.679688 71.40625 152.886719 C 71.199219 153.066406 50.699219 153.066406 50.523438 152.855469 C 50.34375 152.679688 50.34375 134.316406 50.523438 134.019531 C 50.699219 133.75 71.140625 133.78125 71.40625 134.046875 Z M 95.082031 134.226562 C 95.40625 134.492188 95.4375 134.730469 95.230469 135.117188 C 95.050781 135.445312 94.933594 139.195312 94.933594 144.167969 C 94.933594 149.703125 94.816406 152.707031 94.636719 152.828125 C 94.457031 152.945312 89.832031 153.007812 84.34375 153.007812 C 74.847656 153.007812 74.316406 152.976562 73.78125 152.410156 C 73.277344 151.933594 73.246094 151.695312 73.542969 150.863281 C 74.046875 149.375 73.988281 136.875 73.453125 135.566406 C 73.007812 134.554688 73.15625 134.195312 74.105469 133.898438 C 74.285156 133.839844 79.003906 133.808594 84.550781 133.839844 C 91.878906 133.867188 94.785156 133.988281 95.082031 134.226562 Z M 118.460938 134.257812 C 119.230469 134.613281 119.230469 134.644531 118.753906 135.207031 C 118.28125 135.714844 118.222656 136.546875 118.222656 143.304688 C 118.222656 148.632812 118.3125 150.921875 118.578125 151.21875 C 118.84375 151.546875 118.816406 151.785156 118.398438 152.351562 L 117.894531 153.035156 L 107.867188 153.035156 C 102.351562 153.035156 97.75 152.945312 97.664062 152.828125 C 97.542969 152.738281 97.515625 149.019531 97.574219 144.554688 C 97.664062 136.25 97.484375 134.582031 96.566406 134.941406 C 96.328125 135.03125 96.0625 134.96875 95.972656 134.820312 C 95.851562 134.644531 96.121094 134.523438 96.503906 134.523438 C 96.921875 134.523438 97.367188 134.34375 97.542969 134.136719 C 97.988281 133.632812 117.273438 133.71875 118.460938 134.257812 Z M 142.132812 134.285156 C 142.28125 134.492188 142.28125 134.882812 142.164062 135.117188 C 142.042969 135.355469 141.953125 139.34375 141.925781 143.988281 C 141.925781 148.929688 141.808594 152.5 141.628906 152.679688 C 141.273438 153.035156 121.394531 153.15625 121.039062 152.796875 C 120.65625 152.410156 120.625 134.582031 120.980469 134.136719 C 121.457031 133.601562 141.777344 133.71875 142.132812 134.285156 Z M 165.15625 134.046875 C 165.449219 134.34375 165.214844 152.796875 164.886719 153.183594 C 164.679688 153.453125 164.441406 153.480469 163.996094 153.242188 C 163.613281 153.035156 160.140625 152.976562 153.792969 153.035156 C 145.988281 153.09375 144.148438 153.035156 144.03125 152.738281 C 143.855469 152.261719 143.824219 134.078125 144.003906 133.898438 C 144.179688 133.71875 164.976562 133.867188 165.15625 134.046875 Z M 211.492188 134.285156 C 211.582031 134.492188 211.613281 138.808594 211.523438 143.867188 L 211.375 153.035156 L 201.019531 153.007812 C 195.324219 153.007812 190.609375 152.917969 190.519531 152.855469 C 190.339844 152.648438 190.339844 134.34375 190.550781 134.046875 C 190.636719 133.898438 195.355469 133.808594 201.019531 133.839844 C 209.269531 133.867188 211.34375 133.957031 211.492188 134.285156 Z M 257.980469 133.929688 C 258.128906 133.929688 258.546875 134.105469 258.839844 134.34375 C 259.40625 134.761719 259.40625 134.792969 258.839844 135.417969 C 258.308594 136.011719 258.25 136.578125 258.160156 142.648438 C 258.070312 148.242188 258.128906 149.40625 258.546875 150.535156 C 259.050781 151.785156 259.050781 151.875 258.484375 152.410156 C 257.953125 152.976562 257.417969 153.007812 248.011719 153.007812 C 236.085938 153.035156 236.800781 153.273438 237.332031 149.433594 C 237.808594 146.339844 237.601562 135.863281 237.097656 135.355469 C 236.5625 134.820312 236.652344 134.582031 237.453125 134.167969 C 238.015625 133.867188 240.476562 133.808594 247.925781 133.839844 C 253.265625 133.867188 257.804688 133.898438 257.980469 133.929688 Z M 257.980469 133.929688 "/>
<path style=" stroke:none;fill-rule:nonzero;fill:rgb(0%,0%,0%);fill-opacity:1;" d="M 48.800781 69.644531 C 49.039062 70.03125 71.792969 70.03125 71.792969 69.613281 C 71.792969 69.464844 67.195312 69.34375 60.195312 69.34375 C 52.511719 69.34375 48.683594 69.433594 48.800781 69.644531 Z M 48.800781 69.644531 "/>
<path style=" stroke:none;fill-rule:nonzero;fill:rgb(0%,0%,0%);fill-opacity:1;" d="M 33.730469 74.613281 C 33.375 74.941406 33.492188 75.804688 33.96875 76.191406 C 34.207031 76.398438 34.414062 76.875 34.414062 77.230469 C 34.414062 77.589844 34.621094 78.066406 34.859375 78.273438 C 35.09375 78.480469 35.304688 79.019531 35.304688 79.464844 C 35.304688 79.910156 35.480469 80.445312 35.71875 80.65625 C 35.957031 80.832031 36.191406 81.488281 36.253906 82.082031 C 36.339844 83.15625 36.371094 83.183594 37.527344 83.183594 C 38.683594 83.183594 38.714844 83.15625 38.804688 82.144531 C 38.894531 81.070312 38.980469 80.742188 39.929688 78.71875 C 40.226562 78.066406 40.496094 77.382812 40.496094 77.203125 C 40.496094 77.023438 40.671875 76.519531 40.910156 76.101562 C 41.472656 75.058594 41.148438 74.34375 40.167969 74.464844 C 39.339844 74.554688 39.21875 74.820312 38.210938 78.71875 C 38.03125 79.375 37.855469 80.089844 37.796875 80.296875 C 37.617188 80.980469 37.082031 80.355469 37.082031 79.492188 C 37.082031 79.019531 36.875 78.480469 36.636719 78.273438 C 36.402344 78.066406 36.191406 77.589844 36.191406 77.230469 C 36.191406 76.875 35.984375 76.070312 35.75 75.476562 C 35.421875 74.671875 35.125 74.40625 34.621094 74.40625 C 34.234375 74.40625 33.820312 74.492188 33.730469 74.613281 Z M 33.730469 74.613281 "/>
<path style=" stroke:none;fill-rule:nonzero;fill:rgb(0%,0%,0%);fill-opacity:1;" d="M 71.082031 87.738281 C 70.960938 87.855469 67.640625 88.007812 63.695312 88.09375 L 56.515625 88.273438 L 64.167969 88.332031 C 68.765625 88.363281 71.792969 88.273438 71.792969 88.125 C 71.792969 87.707031 71.320312 87.46875 71.082031 87.738281 Z M 71.082031 87.738281 "/>
<path style=" stroke:none;fill-rule:nonzero;fill:rgb(0%,0%,0%);fill-opacity:1;" d="M 49.15625 88.15625 C 48.949219 88.273438 50.402344 88.363281 52.363281 88.332031 C 56.160156 88.304688 56.011719 88.183594 51.976562 88.035156 C 50.613281 87.976562 49.335938 88.035156 49.15625 88.15625 Z M 49.15625 88.15625 "/>
<path style=" stroke:none;fill-rule:nonzero;fill:rgb(0%,0%,0%);fill-opacity:1;" d="M 73.960938 95.445312 C 73.425781 95.625 73.484375 96.875 74.019531 97.320312 C 74.253906 97.53125 74.464844 98.066406 74.464844 98.511719 C 74.464844 98.957031 74.671875 99.492188 74.910156 99.703125 C 75.144531 99.910156 75.351562 100.535156 75.351562 101.070312 C 75.351562 101.636719 75.5 102.082031 75.648438 102.082031 C 75.828125 102.082031 75.945312 102.410156 75.945312 102.796875 C 75.945312 103.957031 76.273438 104.464844 76.957031 104.464844 C 77.84375 104.464844 78.320312 103.929688 78.320312 102.917969 C 78.320312 102.46875 78.46875 102.082031 78.617188 102.082031 C 78.792969 102.082031 78.914062 101.636719 78.914062 101.070312 C 78.914062 100.507812 79.121094 99.851562 79.359375 99.582031 C 79.59375 99.34375 79.804688 98.867188 79.804688 98.542969 C 79.804688 98.214844 80.011719 97.769531 80.25 97.5 C 80.722656 97.023438 80.839844 95.65625 80.425781 95.417969 C 79.65625 94.910156 78.46875 96.519531 78.140625 98.511719 C 77.757812 101.101562 77.636719 101.488281 77.253906 101.488281 C 76.984375 101.488281 76.835938 101.160156 76.835938 100.625 C 76.835938 100.148438 76.628906 99.613281 76.390625 99.40625 C 76.125 99.195312 76.007812 98.808594 76.09375 98.570312 C 76.273438 98.066406 75.203125 95.65625 74.671875 95.445312 C 74.464844 95.386719 74.136719 95.386719 73.960938 95.445312 Z M 73.960938 95.445312 "/>
<path style=" stroke:none;fill-rule:nonzero;fill:rgb(0%,0%,0%);fill-opacity:1;" d="M 82.652344 98.632812 C 81.703125 99.554688 81.582031 99.820312 81.582031 101.101562 C 81.582031 102.351562 81.730469 102.707031 82.472656 103.421875 C 83.542969 104.433594 85.261719 104.703125 86.09375 103.957031 C 86.953125 103.183594 86.714844 102.976562 84.996094 102.976562 C 83.511719 102.976562 83.363281 102.917969 83.363281 102.351562 C 83.363281 101.757812 83.480469 101.726562 84.964844 101.875 C 86.6875 102.054688 86.921875 101.875 86.921875 100.535156 C 86.921875 99.820312 84.90625 97.617188 84.222656 97.617188 C 83.957031 97.617188 83.246094 98.066406 82.652344 98.632812 Z M 85.292969 99.851562 C 85.292969 100 84.789062 100.179688 84.195312 100.238281 C 83.304688 100.328125 83.066406 100.238281 83.066406 99.851562 C 83.066406 99.464844 83.304688 99.375 84.195312 99.464844 C 84.789062 99.523438 85.292969 99.671875 85.292969 99.851562 Z M 85.292969 99.851562 "/>
<path style=" stroke:none;fill-rule:nonzero;fill:rgb(0%,0%,0%);fill-opacity:1;" d="M 88.585938 98.09375 C 88.289062 98.839844 88.378906 103.691406 88.703125 104.167969 C 88.910156 104.523438 89.089844 104.554688 89.503906 104.285156 C 89.917969 104.019531 90.039062 103.542969 90.039062 102.320312 C 90.039062 100.59375 90.484375 99.703125 91.375 99.703125 C 92.113281 99.703125 92.648438 98.957031 92.410156 98.214844 C 92.203125 97.53125 91.640625 97.441406 90.78125 97.976562 C 90.304688 98.273438 90.066406 98.273438 89.59375 97.976562 C 88.851562 97.53125 88.792969 97.53125 88.585938 98.09375 Z M 88.585938 98.09375 "/>
<path style=" stroke:none;fill-rule:nonzero;fill:rgb(0%,0%,0%);fill-opacity:1;" d="M 121.632812 76.011719 C 121.632812 76.398438 121.425781 76.875 121.1875 77.082031 C 120.921875 77.292969 120.773438 77.648438 120.863281 77.886719 C 120.949219 78.125 120.832031 78.632812 120.566406 79.046875 C 120.296875 79.433594 120.148438 80.058594 120.238281 80.386719 C 120.359375 80.832031 120.210938 81.191406 119.792969 81.546875 C 119.289062 81.964844 119.199219 82.230469 119.378906 83.15625 C 119.558594 84.136719 119.675781 84.257812 120.386719 84.167969 C 121.097656 84.078125 121.1875 83.957031 121.1875 82.886719 L 121.1875 81.695312 L 125.046875 81.695312 L 125.046875 82.796875 C 125.046875 84.167969 125.28125 84.40625 126.261719 83.957031 C 126.824219 83.71875 127.152344 83.691406 127.386719 83.929688 C 127.535156 84.078125 127.921875 84.226562 128.21875 84.226562 C 128.695312 84.226562 128.753906 83.957031 128.753906 82.054688 C 128.753906 79.671875 128.992188 79.046875 129.820312 79.226562 C 130.296875 79.316406 130.386719 79.644531 130.472656 81.785156 C 130.5625 84.167969 130.59375 84.226562 131.273438 84.226562 C 132.074219 84.226562 132.136719 84.105469 132.015625 81.636719 C 131.957031 79.820312 132.433594 78.660156 133.054688 79.167969 C 133.320312 79.40625 133.5 80.296875 133.558594 81.785156 C 133.648438 84.019531 133.679688 84.078125 134.390625 84.078125 C 135.101562 84.078125 135.132812 83.988281 135.21875 81.992188 C 135.339844 79.285156 135.132812 78.214844 134.359375 77.738281 C 133.828125 77.382812 133.589844 77.410156 132.730469 77.855469 C 131.808594 78.363281 131.71875 78.363281 131.1875 77.886719 C 130.503906 77.261719 130.117188 77.261719 129.644531 77.828125 C 129.289062 78.242188 129.199219 78.242188 128.753906 77.828125 C 127.746094 76.90625 127.269531 77.558594 127.269531 79.792969 C 127.269531 81.339844 127.179688 81.84375 126.855469 81.84375 C 126.289062 81.84375 125.90625 81.28125 125.667969 80.117188 C 125.191406 77.589844 125.074219 77.230469 124.71875 76.84375 C 124.480469 76.636719 124.304688 76.191406 124.304688 75.863281 C 124.304688 75.386719 124.09375 75.296875 122.96875 75.296875 C 121.753906 75.296875 121.632812 75.355469 121.632812 76.011719 Z M 123.414062 77.738281 C 123.414062 78.09375 123.621094 78.601562 123.886719 78.898438 C 124.511719 79.582031 124.183594 80.058594 123.117188 80.058594 C 122.019531 80.058594 121.871094 79.792969 122.285156 78.542969 C 122.464844 77.976562 122.671875 77.351562 122.703125 77.144531 C 122.878906 76.546875 123.414062 77.023438 123.414062 77.738281 Z M 123.414062 77.738281 "/>
<path style=" stroke:none;fill-rule:nonzero;fill:rgb(0%,0%,0%);fill-opacity:1;" d="M 189.273438 69.792969 C 189.480469 70.03125 189.746094 70.148438 189.894531 70.058594 C 190.042969 69.96875 195.296875 69.910156 201.585938 69.941406 C 209.238281 69.941406 213.007812 69.851562 213.007812 69.644531 C 213.007812 69.433594 209.03125 69.34375 200.960938 69.34375 C 190.3125 69.34375 188.945312 69.40625 189.273438 69.792969 Z M 189.273438 69.792969 "/>
<path style=" stroke:none;fill-rule:nonzero;fill:rgb(0%,0%,0%);fill-opacity:1;" d="M 219.621094 75.742188 C 219.535156 76.011719 219.683594 76.457031 219.949219 76.757812 C 220.214844 77.054688 220.421875 77.617188 220.421875 78.035156 C 220.421875 78.453125 220.632812 78.957031 220.867188 79.167969 C 221.105469 79.375 221.3125 79.851562 221.3125 80.207031 C 221.3125 80.566406 221.519531 81.042969 221.730469 81.25 C 221.964844 81.429688 222.203125 82.144531 222.261719 82.828125 C 222.351562 83.957031 222.441406 84.078125 223.183594 84.167969 C 224.308594 84.316406 224.875 83.75 224.875 82.589844 C 224.875 82.054688 225.082031 81.457031 225.316406 81.25 C 225.554688 81.042969 225.761719 80.566406 225.761719 80.179688 C 225.761719 79.433594 225.824219 79.226562 226.921875 77.144531 C 227.277344 76.457031 227.484375 75.742188 227.394531 75.59375 C 227.15625 75.238281 225.554688 75.207031 225.347656 75.566406 C 225.140625 75.894531 224.28125 79.019531 224.011719 80.355469 C 223.777344 81.636719 223.300781 81.605469 223.0625 80.355469 C 222.945312 79.820312 222.707031 79.257812 222.53125 79.078125 C 222.351562 78.898438 222.203125 78.394531 222.203125 77.945312 C 222.203125 77.53125 222.054688 76.757812 221.878906 76.21875 C 221.609375 75.476562 221.402344 75.296875 220.691406 75.296875 C 220.1875 75.296875 219.742188 75.476562 219.621094 75.742188 Z M 219.621094 75.742188 "/>
<path style=" stroke:none;fill-rule:nonzero;fill:rgb(0%,0%,0%);fill-opacity:1;" d="M 169.988281 98.214844 C 169.691406 98.75 169.753906 98.988281 170.257812 99.523438 C 170.613281 99.882812 170.878906 100.417969 170.878906 100.714844 C 170.878906 100.980469 171.085938 101.605469 171.324219 102.054688 C 171.5625 102.53125 171.679688 102.976562 171.59375 103.066406 C 171.472656 103.15625 171.621094 103.542969 171.886719 103.929688 C 172.15625 104.285156 172.363281 105.03125 172.363281 105.566406 C 172.363281 106.519531 172.394531 106.546875 173.699219 106.546875 C 174.945312 106.546875 175.035156 106.488281 175.035156 105.742188 C 175.035156 104.851562 175.507812 103.214844 176.101562 101.992188 C 176.339844 101.519531 176.515625 100.832031 176.515625 100.445312 C 176.515625 100.089844 176.722656 99.613281 176.960938 99.40625 C 177.230469 99.195312 177.40625 98.71875 177.347656 98.394531 C 177.230469 97.53125 175.835938 97.53125 175.6875 98.363281 C 175.625 98.691406 175.359375 99.195312 175.121094 99.464844 C 174.886719 99.730469 174.765625 100.117188 174.886719 100.269531 C 174.972656 100.445312 174.855469 101.011719 174.617188 101.546875 C 174.351562 102.054688 174.144531 102.855469 174.144531 103.332031 C 174.144531 103.867188 173.996094 104.167969 173.699219 104.167969 C 173.429688 104.167969 173.253906 103.898438 173.253906 103.453125 C 173.253906 103.066406 173.046875 102.261719 172.808594 101.667969 C 172.542969 101.070312 172.421875 100.445312 172.542969 100.269531 C 172.628906 100.089844 172.511719 99.730469 172.273438 99.464844 C 172.035156 99.195312 171.769531 98.691406 171.710938 98.363281 C 171.5625 97.5 170.40625 97.410156 169.988281 98.214844 Z M 169.988281 98.214844 "/>
<path style=" stroke:none;fill-rule:nonzero;fill:rgb(0%,0%,0%);fill-opacity:1;" d="M 187.464844 100.625 C 187.136719 101.25 187.078125 101.25 186.75 100.804688 C 186.542969 100.535156 186.039062 100.296875 185.59375 100.296875 L 184.824219 100.296875 L 184.824219 106.546875 L 185.714844 106.546875 C 186.601562 106.546875 186.601562 106.546875 186.601562 104.820312 C 186.601562 103.007812 187.136719 102.082031 188.117188 102.082031 C 188.355469 102.082031 188.710938 101.933594 188.917969 101.726562 C 189.332031 101.308594 189.390625 100.296875 189.007812 100.296875 C 188.859375 100.296875 188.53125 100.207031 188.292969 100.117188 C 187.996094 100.03125 187.699219 100.207031 187.464844 100.625 Z M 187.464844 100.625 "/>
<path style=" stroke:none;fill-rule:nonzero;fill:rgb(0%,0%,0%);fill-opacity:1;" d="M 178.800781 101.339844 C 177.523438 102.886719 177.496094 104.078125 178.742188 105.445312 C 179.660156 106.429688 179.898438 106.546875 181.261719 106.546875 C 182.539062 106.546875 182.804688 106.457031 183.011719 105.863281 C 183.398438 104.882812 183.101562 104.671875 181.589844 104.882812 C 180.136719 105.058594 179.128906 104.703125 179.632812 104.195312 C 179.808594 104.046875 180.671875 103.867188 181.558594 103.808594 C 182.984375 103.71875 183.191406 103.632812 183.28125 103.066406 C 183.339844 102.679688 183.042969 101.964844 182.539062 101.339844 C 181.382812 99.910156 179.988281 99.910156 178.800781 101.339844 Z M 181.796875 102.203125 C 182.09375 102.53125 181.441406 102.976562 180.671875 102.976562 C 179.75 102.976562 179.335938 102.589844 179.660156 102.054688 C 179.839844 101.757812 181.472656 101.875 181.796875 102.203125 Z M 181.796875 102.203125 "/>
<path style=" stroke:none;fill-rule:nonzero;fill:rgb(0%,0%,0%);fill-opacity:1;" d="M 100.957031 161.816406 C 100.421875 162.023438 100.480469 163.242188 101.015625 163.691406 C 101.253906 163.898438 101.460938 164.316406 101.460938 164.644531 C 101.460938 164.941406 101.667969 165.59375 101.90625 166.101562 C 102.171875 166.578125 102.289062 167.113281 102.171875 167.292969 C 102.082031 167.46875 102.203125 167.828125 102.4375 168.09375 C 102.707031 168.363281 102.941406 169.078125 103.003906 169.644531 C 103.089844 170.625 103.152344 170.683594 104.367188 170.773438 L 105.613281 170.863281 L 105.613281 169.644531 C 105.613281 168.839844 105.761719 168.363281 106.058594 168.273438 C 106.296875 168.15625 106.503906 167.738281 106.503906 167.292969 C 106.503906 166.84375 106.710938 166.21875 106.949219 165.894531 C 107.1875 165.59375 107.394531 165.03125 107.394531 164.703125 C 107.394531 164.34375 107.601562 163.898438 107.839844 163.691406 C 108.550781 163.09375 108.402344 161.933594 107.570312 161.726562 C 106.621094 161.488281 106.207031 161.785156 106.207031 162.648438 C 106.207031 163.035156 106.089844 163.453125 105.910156 163.542969 C 105.761719 163.632812 105.613281 164.105469 105.613281 164.554688 C 105.613281 165 105.464844 165.507812 105.285156 165.683594 C 105.109375 165.863281 104.871094 166.429688 104.753906 166.964844 C 104.515625 168.09375 104.011719 168.15625 103.894531 167.054688 C 103.863281 166.605469 103.683594 165.953125 103.535156 165.625 C 103.300781 165.03125 103.003906 163.78125 102.855469 162.707031 C 102.765625 161.875 101.84375 161.429688 100.957031 161.816406 Z M 100.957031 161.816406 "/>
<path style=" stroke:none;fill-rule:nonzero;fill:rgb(0%,0%,0%);fill-opacity:1;" d="M 121.128906 161.785156 C 120.59375 162.023438 120.65625 163.242188 121.1875 163.691406 C 121.425781 163.898438 121.632812 164.34375 121.632812 164.703125 C 121.632812 165.03125 121.839844 165.59375 122.078125 165.894531 C 122.316406 166.21875 122.523438 166.84375 122.523438 167.292969 C 122.523438 167.738281 122.730469 168.15625 122.96875 168.273438 C 123.265625 168.363281 123.414062 168.839844 123.414062 169.644531 L 123.414062 170.863281 L 124.6875 170.773438 C 125.933594 170.683594 125.933594 170.683594 126.023438 169.40625 C 126.082031 168.71875 126.230469 168.15625 126.351562 168.15625 C 126.5 168.15625 126.675781 167.707031 126.765625 167.171875 C 126.945312 165.953125 127.65625 164.078125 128.101562 163.632812 C 128.632812 163.09375 128.515625 161.964844 127.894531 161.757812 C 126.972656 161.457031 126.527344 161.875 126.144531 163.332031 C 125.933594 164.105469 125.636719 165.148438 125.488281 165.65625 C 125.3125 166.160156 125.191406 166.84375 125.191406 167.203125 C 125.191406 167.917969 124.660156 168.394531 124.480469 167.796875 C 124.453125 167.589844 124.214844 166.933594 124.007812 166.367188 C 123.800781 165.804688 123.589844 164.941406 123.5625 164.464844 C 123.503906 163.988281 123.324219 163.542969 123.175781 163.421875 C 122.996094 163.332031 122.820312 162.917969 122.789062 162.5 C 122.671875 161.757812 121.929688 161.457031 121.128906 161.785156 Z M 121.128906 161.785156 "/>
<path style=" stroke:none;fill-rule:nonzero;fill:rgb(0%,0%,0%);fill-opacity:1;" d="M 157.027344 161.964844 C 156.878906 162.171875 156.816406 164.257812 156.878906 166.605469 L 156.996094 170.863281 L 157.765625 170.773438 L 158.539062 170.683594 L 158.539062 166.429688 C 158.566406 162.707031 158.507812 162.113281 158.0625 161.875 C 157.410156 161.519531 157.351562 161.546875 157.027344 161.964844 Z M 157.027344 161.964844 "/>
<path style=" stroke:none;fill-rule:nonzero;fill:rgb(0%,0%,0%);fill-opacity:1;" d="M 160.4375 161.84375 C 159.992188 161.933594 159.933594 162.441406 159.933594 166.398438 L 159.902344 170.832031 L 161.683594 170.832031 L 161.683594 168.78125 C 161.683594 166.964844 161.773438 166.695312 162.367188 166.28125 C 163.523438 165.507812 163.910156 166.070312 163.910156 168.511719 C 163.910156 170.65625 163.910156 170.683594 164.738281 170.773438 L 165.539062 170.863281 L 165.539062 168.183594 C 165.539062 165.863281 165.449219 165.386719 164.945312 164.882812 C 164.234375 164.167969 163.105469 164.105469 162.574219 164.730469 C 162.007812 165.417969 161.683594 164.96875 161.683594 163.394531 C 161.683594 161.933594 161.417969 161.605469 160.4375 161.84375 Z M 160.4375 161.84375 "/>
<path style=" stroke:none;fill-rule:nonzero;fill:rgb(0%,0%,0%);fill-opacity:1;" d="M 111.011719 165.238281 C 111.101562 165.773438 111.070312 166.578125 110.953125 166.992188 C 110.566406 168.332031 110.894531 168.480469 114.246094 168.394531 L 117.332031 168.304688 L 117.332031 164.433594 L 114.097656 164.34375 L 110.894531 164.257812 Z M 115.523438 166.042969 C 115.609375 166.191406 115.3125 166.367188 114.871094 166.457031 C 113.859375 166.667969 112.40625 166.367188 112.613281 166.042969 C 112.824219 165.683594 115.3125 165.683594 115.523438 166.042969 Z M 115.523438 166.042969 "/>
<path style=" stroke:none;fill-rule:nonzero;fill:rgb(0%,0%,0%);fill-opacity:1;" d="M 129.730469 165.417969 C 128.367188 166.992188 128.398438 168.332031 129.820312 169.761719 C 131.066406 171.011719 132.582031 171.191406 133.765625 170.269531 C 134.804688 169.464844 134.300781 169.046875 132.285156 169.046875 C 130.917969 169.046875 130.535156 168.957031 130.535156 168.601562 C 130.535156 168.242188 130.917969 168.15625 132.3125 168.15625 C 133.648438 168.15625 134.152344 168.035156 134.269531 167.707031 C 134.777344 166.398438 133.144531 164.285156 131.632812 164.285156 C 130.917969 164.285156 130.445312 164.554688 129.730469 165.417969 Z M 132.195312 166.101562 C 132.402344 166.457031 131.75 167.023438 131.273438 166.875 C 131.125 166.816406 130.949219 166.546875 130.890625 166.28125 C 130.769531 165.714844 131.839844 165.566406 132.195312 166.101562 Z M 132.195312 166.101562 "/>
<path style=" stroke:none;fill-rule:nonzero;fill:rgb(0%,0%,0%);fill-opacity:1;" d="M 135.875 167.589844 L 135.875 170.832031 L 137.652344 170.832031 L 137.652344 168.808594 C 137.683594 166.84375 137.683594 166.816406 138.808594 166.011719 C 139.464844 165.59375 140.054688 165.296875 140.144531 165.386719 C 140.234375 165.507812 140.324219 166.757812 140.324219 168.214844 L 140.324219 170.832031 L 142.101562 170.832031 L 142.101562 168.660156 C 142.101562 166.28125 142.429688 165.59375 143.347656 166.101562 C 143.855469 166.367188 143.914062 166.695312 143.824219 168.542969 C 143.734375 170.683594 143.734375 170.683594 144.566406 170.773438 L 145.367188 170.863281 L 145.367188 168.660156 C 145.367188 167.144531 145.484375 166.339844 145.78125 166.101562 C 146.523438 165.476562 146.910156 166.457031 146.789062 168.660156 C 146.703125 170.683594 146.703125 170.683594 147.53125 170.773438 L 148.332031 170.863281 L 148.332031 168.066406 C 148.332031 165.742188 148.246094 165.179688 147.800781 164.792969 C 147.117188 164.167969 146.433594 164.136719 145.839844 164.730469 C 145.457031 165.117188 145.308594 165.117188 144.507812 164.644531 C 143.792969 164.226562 143.496094 164.195312 143.050781 164.492188 C 142.609375 164.761719 142.398438 164.761719 142.132812 164.492188 C 141.894531 164.257812 141.570312 164.257812 140.855469 164.523438 C 140.351562 164.703125 139.789062 164.761719 139.613281 164.671875 C 139.433594 164.554688 138.511719 164.433594 137.59375 164.40625 L 135.875 164.316406 Z M 135.875 167.589844 "/>
<path style=" stroke:none;fill-rule:nonzero;fill:rgb(0%,0%,0%);fill-opacity:1;" d="M 150.945312 165.089844 C 150.441406 165.65625 150.144531 166.367188 150.054688 167.320312 C 149.90625 168.601562 149.964844 168.78125 150.972656 169.761719 C 152.277344 171.042969 153.882812 171.21875 154.859375 170.238281 C 155.808594 169.285156 155.570312 169.078125 153.613281 168.988281 C 151.09375 168.867188 150.945312 168.214844 153.4375 168.09375 C 155.214844 168.007812 155.304688 167.976562 155.394531 167.203125 C 155.453125 166.667969 155.1875 166.101562 154.5625 165.355469 C 153.347656 163.988281 152.070312 163.898438 150.945312 165.089844 Z M 153.375 166.21875 C 153.375 166.84375 152.488281 167.144531 152.191406 166.636719 C 151.863281 166.132812 152.101562 165.773438 152.8125 165.773438 C 153.109375 165.773438 153.375 165.980469 153.375 166.21875 Z M 153.375 166.21875 "/>
<path style=" stroke:none;fill-rule:nonzero;fill:rgb(0%,0%,0%);fill-opacity:1;" d="M 167.675781 164.644531 C 167.46875 164.851562 167.320312 165.269531 167.320312 165.566406 C 167.320312 166.070312 167.46875 166.132812 168.359375 165.980469 C 169.722656 165.742188 169.691406 166.160156 168.210938 167.46875 C 166.875 168.660156 166.726562 169.34375 167.617188 170.238281 C 168.238281 170.863281 169.25 171.011719 169.960938 170.566406 C 170.257812 170.386719 170.703125 170.445312 171.234375 170.714844 C 172.511719 171.367188 173.28125 170.535156 172.214844 169.644531 C 171.886719 169.375 171.769531 168.691406 171.769531 167.230469 C 171.769531 165.804688 171.621094 165.089844 171.296875 164.761719 C 170.730469 164.195312 168.210938 164.105469 167.675781 164.644531 Z M 170.226562 168.363281 C 170.109375 169.019531 168.804688 169.285156 168.804688 168.660156 C 168.804688 168.09375 169.101562 167.855469 169.753906 167.855469 C 170.136719 167.855469 170.285156 168.035156 170.226562 168.363281 Z M 170.226562 168.363281 "/>
<path style=" stroke:none;fill-rule:nonzero;fill:rgb(0%,0%,0%);fill-opacity:1;" d="M 100.660156 176.398438 C 100.539062 176.667969 100.6875 177.261719 100.957031 177.738281 C 101.222656 178.242188 101.460938 178.78125 101.460938 178.988281 C 101.460938 179.195312 101.667969 179.792969 101.933594 180.296875 C 102.171875 180.832031 102.320312 181.367188 102.230469 181.519531 C 102.140625 181.667969 102.261719 181.933594 102.5 182.144531 C 102.734375 182.351562 102.941406 182.945312 102.941406 183.480469 C 102.941406 184.644531 103.507812 185.207031 104.632812 185.058594 C 105.347656 184.96875 105.464844 184.820312 105.554688 183.867188 C 105.613281 183.273438 105.851562 182.617188 106.089844 182.441406 C 106.324219 182.230469 106.503906 181.636719 106.503906 181.101562 C 106.503906 180.566406 106.710938 179.96875 106.949219 179.761719 C 107.1875 179.554688 107.394531 179.078125 107.394531 178.71875 C 107.394531 178.363281 107.601562 177.886719 107.839844 177.679688 C 108.578125 177.054688 108.285156 176.070312 107.335938 175.953125 C 106.652344 175.863281 106.445312 176.011719 106.058594 176.964844 C 105.820312 177.558594 105.613281 178.363281 105.613281 178.71875 C 105.613281 179.078125 105.40625 179.554688 105.167969 179.761719 C 104.929688 179.96875 104.722656 180.59375 104.722656 181.132812 C 104.722656 181.84375 104.574219 182.144531 104.277344 182.144531 C 103.953125 182.144531 103.832031 181.816406 103.832031 180.980469 C 103.832031 180.328125 103.714844 179.730469 103.566406 179.644531 C 103.449219 179.554688 103.238281 178.867188 103.121094 178.09375 C 103.03125 177.320312 102.796875 176.519531 102.617188 176.308594 C 102.140625 175.742188 100.894531 175.804688 100.660156 176.398438 Z M 100.660156 176.398438 "/>
<path style=" stroke:none;fill-rule:nonzero;fill:rgb(0%,0%,0%);fill-opacity:1;" d="M 132.433594 176.308594 C 132.34375 176.578125 132.460938 177.113281 132.730469 177.53125 C 132.996094 177.917969 133.203125 178.511719 133.203125 178.808594 C 133.203125 179.136719 133.410156 179.554688 133.648438 179.761719 C 133.886719 179.96875 134.09375 180.566406 134.09375 181.132812 C 134.09375 181.667969 134.269531 182.230469 134.507812 182.351562 C 134.746094 182.46875 134.984375 183.125 135.042969 183.78125 C 135.132812 184.941406 135.160156 184.96875 136.316406 184.96875 C 137.476562 184.96875 137.503906 184.941406 137.59375 183.808594 C 137.652344 183.183594 137.890625 182.46875 138.128906 182.230469 C 138.367188 181.992188 138.542969 181.429688 138.542969 180.953125 C 138.542969 180.476562 138.691406 180 138.839844 179.910156 C 139.019531 179.820312 139.136719 179.433594 139.136719 179.078125 C 139.136719 178.71875 139.402344 178.09375 139.730469 177.679688 C 140.054688 177.261719 140.324219 176.757812 140.324219 176.578125 C 140.324219 176.132812 139.019531 175.742188 138.542969 176.042969 C 138.128906 176.308594 137.355469 178.183594 137.355469 178.988281 C 137.355469 179.34375 137.238281 179.761719 137.089844 179.941406 C 136.941406 180.089844 136.761719 180.683594 136.703125 181.25 C 136.644531 181.816406 136.496094 182.292969 136.316406 182.292969 C 136.171875 182.292969 135.992188 181.816406 135.933594 181.25 C 135.875 180.683594 135.695312 180.089844 135.546875 179.910156 C 135.398438 179.761719 135.28125 179.316406 135.28125 178.867188 C 135.25 177.5 134.332031 176.042969 133.410156 175.953125 C 132.878906 175.894531 132.550781 176.011719 132.433594 176.308594 Z M 132.433594 176.308594 "/>
<path style=" stroke:none;fill-rule:nonzero;fill:rgb(0%,0%,0%);fill-opacity:1;" d="M 156.164062 176.339844 C 156.046875 176.578125 156.046875 177.171875 156.136719 177.617188 C 156.371094 178.75 155.988281 179.34375 155.453125 178.71875 C 154.832031 177.976562 154.117188 178.214844 153.140625 179.433594 C 151.746094 181.160156 151.804688 182.558594 153.375 184.078125 C 154.472656 185.179688 154.5625 185.207031 155.097656 184.730469 C 155.78125 184.105469 156.046875 184.105469 156.519531 184.730469 C 156.847656 185.207031 156.9375 185.207031 157.324219 184.820312 C 157.648438 184.492188 157.796875 183.363281 157.886719 180.207031 L 157.976562 176.042969 L 157.144531 175.953125 C 156.609375 175.894531 156.285156 176.011719 156.164062 176.339844 Z M 155.75 180.566406 C 156.078125 180.863281 156.34375 181.28125 156.34375 181.546875 C 156.34375 181.992188 155.363281 183.035156 154.980469 183.035156 C 154.683594 183.035156 153.671875 181.785156 153.671875 181.457031 C 153.671875 181.101562 154.59375 180.117188 154.917969 180.089844 C 155.039062 180.058594 155.421875 180.296875 155.75 180.566406 Z M 155.75 180.566406 "/>
<path style=" stroke:none;fill-rule:nonzero;fill:rgb(0%,0%,0%);fill-opacity:1;" d="M 109.738281 179.167969 C 108.757812 180.148438 108.578125 180.535156 108.578125 181.636719 C 108.578125 182.707031 108.757812 183.066406 109.617188 183.929688 C 110.863281 185.148438 112.554688 185.328125 113.59375 184.40625 C 114.425781 183.632812 114.097656 183.394531 112.167969 183.273438 C 109.824219 183.15625 109.824219 182.5 112.199219 182.382812 C 114.066406 182.292969 114.066406 182.292969 114.15625 181.339844 C 114.246094 180.59375 114.007812 180.148438 113.148438 179.195312 C 112.554688 178.511719 111.8125 177.976562 111.488281 177.976562 C 111.160156 177.976562 110.390625 178.511719 109.738281 179.167969 Z M 112.4375 180.207031 C 112.4375 180.507812 112.109375 180.65625 111.398438 180.65625 C 110.417969 180.65625 110.121094 180.417969 110.566406 179.96875 C 110.953125 179.554688 112.4375 179.761719 112.4375 180.207031 Z M 112.4375 180.207031 "/>
<path style=" stroke:none;fill-rule:nonzero;fill:rgb(0%,0%,0%);fill-opacity:1;" d="M 115.789062 178.332031 C 115.460938 178.898438 115.433594 184.316406 115.789062 184.730469 C 116.234375 185.328125 117.125 185.179688 117.332031 184.523438 C 117.421875 184.195312 117.421875 183.363281 117.332031 182.679688 C 117.152344 181.578125 117.242188 181.308594 117.835938 180.742188 C 118.222656 180.417969 118.785156 180.058594 119.113281 180 C 119.558594 179.941406 119.703125 179.671875 119.703125 179.019531 C 119.703125 177.945312 118.902344 177.679688 118.015625 178.453125 C 117.480469 178.988281 117.421875 178.988281 117.152344 178.480469 C 116.796875 177.886719 116.144531 177.828125 115.789062 178.332031 Z M 115.789062 178.332031 "/>
<path style=" stroke:none;fill-rule:nonzero;fill:rgb(0%,0%,0%);fill-opacity:1;" d="M 122.613281 178.480469 C 122.523438 178.660156 122.523438 179.078125 122.582031 179.34375 C 122.671875 179.792969 123.058594 179.851562 125.726562 179.851562 C 127.386719 179.851562 128.84375 179.761719 128.929688 179.671875 C 129.050781 179.582031 129.050781 179.195312 128.960938 178.808594 C 128.78125 178.15625 128.664062 178.125 125.757812 178.125 C 123.679688 178.125 122.703125 178.242188 122.613281 178.480469 Z M 122.613281 178.480469 "/>
<path style=" stroke:none;fill-rule:nonzero;fill:rgb(0%,0%,0%);fill-opacity:1;" d="M 141.570312 179.285156 C 139.9375 181.070312 139.90625 182.113281 141.480469 183.839844 C 142.757812 185.269531 143.585938 185.445312 145.101562 184.644531 C 146.40625 183.988281 146.019531 183.511719 144.089844 183.332031 C 141.894531 183.15625 141.894531 182.617188 144.089844 182.441406 L 145.8125 182.292969 L 145.871094 181.25 C 145.960938 180.03125 144.773438 178.453125 143.558594 178.125 C 142.933594 177.976562 142.609375 178.15625 141.570312 179.285156 Z M 144.328125 180.207031 C 144.328125 180.566406 143.140625 180.773438 142.519531 180.535156 C 142.25 180.445312 142.164062 180.207031 142.25 180.058594 C 142.488281 179.644531 144.328125 179.792969 144.328125 180.207031 Z M 144.328125 180.207031 "/>
<path style=" stroke:none;fill-rule:nonzero;fill:rgb(0%,0%,0%);fill-opacity:1;" d="M 147.769531 178.394531 C 147.53125 178.660156 147.441406 179.882812 147.503906 181.875 L 147.589844 184.96875 L 148.421875 185.058594 L 149.222656 185.148438 L 149.222656 180.980469 L 150.410156 180.296875 C 151.210938 179.820312 151.597656 179.40625 151.597656 178.988281 C 151.597656 178.09375 150.765625 177.828125 150.054688 178.480469 C 149.492188 178.988281 149.460938 178.988281 149.195312 178.480469 C 148.835938 177.855469 148.246094 177.828125 147.769531 178.394531 Z M 147.769531 178.394531 "/>
<path style=" stroke:none;fill-rule:nonzero;fill:rgb(0%,0%,0%);fill-opacity:1;" d="M 160.289062 179.167969 C 159.519531 180.03125 159.308594 180.535156 159.308594 181.519531 C 159.308594 183.214844 160.792969 185.117188 162.128906 185.117188 C 163.167969 185.117188 165.15625 184.019531 164.769531 183.632812 C 164.621094 183.480469 163.730469 183.332031 162.78125 183.273438 C 160.527344 183.15625 160.617188 182.617188 162.929688 182.441406 L 164.796875 182.292969 L 164.886719 181.28125 C 164.976562 180.417969 164.796875 180.089844 163.789062 179.105469 C 162.277344 177.679688 161.535156 177.707031 160.289062 179.167969 Z M 162.691406 179.941406 C 163.402344 180.207031 162.960938 180.65625 161.980469 180.65625 C 161.121094 180.65625 160.644531 180.296875 161 179.941406 C 161.238281 179.703125 162.097656 179.703125 162.691406 179.941406 Z M 162.691406 179.941406 "/>
<path style=" stroke:none;fill-rule:nonzero;fill:rgb(0%,0%,0%);fill-opacity:1;" d="M 122.523438 181.546875 L 122.523438 182.441406 L 129.078125 182.441406 L 128.992188 181.605469 L 128.902344 180.804688 L 125.726562 180.714844 L 122.523438 180.625 Z M 122.523438 181.546875 "/>
<path style=" stroke:none;fill-rule:nonzero;fill:rgb(0%,0%,0%);fill-opacity:1;" d="M 165.597656 189.96875 C 165.390625 190.207031 165.300781 191.90625 165.332031 194.492188 L 165.390625 198.660156 L 166.164062 198.75 L 166.964844 198.839844 L 167.082031 194.730469 C 167.171875 192.46875 167.113281 190.386719 166.964844 190.089844 C 166.667969 189.492188 166.042969 189.433594 165.597656 189.96875 Z M 165.597656 189.96875 "/>
<path style=" stroke:none;fill-rule:nonzero;fill:rgb(0%,0%,0%);fill-opacity:1;" d="M 103.417969 190.089844 C 103.003906 190.507812 102.351562 192.320312 102.351562 193.007812 C 102.351562 193.363281 102.140625 193.839844 101.90625 194.046875 C 101.667969 194.257812 101.460938 194.703125 101.460938 195.058594 C 101.429688 195.386719 101.253906 196.011719 101.015625 196.429688 C 100.421875 197.441406 100.480469 198.421875 101.105469 198.78125 C 101.875 199.195312 102.648438 198.632812 102.648438 197.648438 C 102.648438 196.667969 103.0625 196.429688 104.722656 196.429688 C 105.96875 196.429688 106.324219 196.757812 106.324219 197.917969 C 106.355469 198.632812 106.414062 198.660156 108.285156 198.660156 L 110.210938 198.660156 L 110.210938 196.429688 C 110.210938 194.226562 110.210938 194.195312 111.042969 194.105469 L 111.84375 194.019531 L 111.84375 198.839844 L 112.675781 198.75 C 113.476562 198.660156 113.476562 198.632812 113.476562 196.429688 C 113.476562 194.40625 113.535156 194.195312 114.066406 194.195312 C 114.601562 194.195312 114.691406 194.433594 114.808594 196.429688 C 114.957031 198.570312 114.988281 198.660156 115.699219 198.660156 C 116.410156 198.660156 116.441406 198.601562 116.53125 196.132812 C 116.621094 193.71875 116.558594 193.542969 115.847656 192.855469 L 115.105469 192.171875 L 114.039062 192.738281 C 113.058594 193.273438 112.96875 193.273438 112.703125 192.769531 C 112.347656 192.144531 111.457031 192.113281 110.921875 192.738281 C 110.566406 193.15625 110.507812 193.15625 110.183594 192.707031 C 109.972656 192.441406 109.558594 192.261719 109.261719 192.320312 C 108.816406 192.410156 108.726562 192.769531 108.640625 194.730469 C 108.578125 196.757812 108.492188 197.054688 108.046875 196.964844 C 107.71875 196.90625 107.421875 196.398438 107.246094 195.625 C 107.066406 194.941406 106.859375 194.285156 106.710938 194.167969 C 106.59375 194.046875 106.503906 193.601562 106.503906 193.183594 C 106.503906 192.796875 106.238281 191.875 105.878906 191.160156 C 105.375 190.117188 105.109375 189.882812 104.457031 189.882812 C 104.011719 189.882812 103.535156 189.96875 103.417969 190.089844 Z M 104.722656 192.855469 C 104.722656 193.394531 104.902344 193.839844 105.167969 193.929688 C 106.117188 194.316406 105.644531 194.941406 104.425781 194.941406 C 103.566406 194.941406 103.238281 194.820312 103.238281 194.492188 C 103.238281 194.257812 103.386719 194.046875 103.535156 194.046875 C 103.714844 194.046875 103.832031 193.660156 103.832031 193.214844 C 103.832031 192.738281 103.921875 192.261719 104.039062 192.171875 C 104.457031 191.726562 104.722656 191.992188 104.722656 192.855469 Z M 104.722656 192.855469 "/>
<path style=" stroke:none;fill-rule:nonzero;fill:rgb(0%,0%,0%);fill-opacity:1;" d="M 132.609375 190.832031 C 132.285156 191.367188 132.015625 192.230469 132.015625 192.738281 C 132.015625 193.242188 131.808594 193.839844 131.570312 194.046875 C 131.335938 194.257812 131.125 194.792969 131.125 195.238281 C 131.125 195.683594 130.917969 196.21875 130.683594 196.429688 C 130.117188 196.90625 130.117188 198.332031 130.652344 198.78125 C 131.335938 199.34375 132.253906 198.691406 132.371094 197.53125 C 132.460938 196.578125 132.460938 196.578125 134.09375 196.578125 L 135.726562 196.578125 L 135.8125 197.707031 C 135.902344 198.75 135.992188 198.839844 136.703125 198.75 C 137.328125 198.691406 137.535156 198.480469 137.59375 197.796875 C 137.652344 197.230469 137.535156 196.84375 137.238281 196.667969 C 136.941406 196.519531 136.761719 196.011719 136.761719 195.417969 C 136.761719 194.851562 136.554688 194.257812 136.316406 194.046875 C 136.082031 193.839844 135.875 193.332031 135.875 192.917969 C 135.875 192.5 135.636719 191.636719 135.367188 191.011719 C 134.953125 190.089844 134.714844 189.882812 134.035156 189.882812 C 133.410156 189.882812 133.054688 190.117188 132.609375 190.832031 Z M 134.09375 192.828125 C 134.09375 193.125 134.300781 193.542969 134.539062 193.75 C 135.28125 194.375 135.074219 194.941406 134.121094 194.941406 C 133.144531 194.941406 132.667969 194.464844 133.171875 193.957031 C 133.351562 193.78125 133.5 193.332031 133.5 192.945312 C 133.5 192.558594 133.648438 192.261719 133.796875 192.261719 C 133.976562 192.261719 134.09375 192.5 134.09375 192.828125 Z M 134.09375 192.828125 "/>
<path style=" stroke:none;fill-rule:nonzero;fill:rgb(0%,0%,0%);fill-opacity:1;" d="M 120.179688 192.796875 C 119.617188 193.867188 120.179688 194.078125 123.589844 193.988281 C 126.824219 193.898438 126.824219 193.898438 126.824219 193.15625 C 126.824219 192.410156 126.824219 192.410156 123.652344 192.320312 C 120.832031 192.261719 120.445312 192.292969 120.179688 192.796875 Z M 120.179688 192.796875 "/>
<path style=" stroke:none;fill-rule:nonzero;fill:rgb(0%,0%,0%);fill-opacity:1;" d="M 138.394531 192.53125 C 138.304688 192.707031 138.246094 194.105469 138.277344 195.683594 C 138.335938 197.855469 138.425781 198.601562 138.75 198.71875 C 139.523438 199.019531 139.847656 198.242188 139.878906 196.191406 C 139.878906 194.257812 139.90625 194.195312 140.621094 194.195312 C 141.332031 194.195312 141.363281 194.257812 141.363281 196.429688 C 141.363281 198.601562 141.390625 198.660156 142.101562 198.660156 C 142.816406 198.660156 142.84375 198.601562 142.933594 196.339844 C 143.023438 194.136719 143.050781 194.019531 143.675781 194.105469 C 144.269531 194.195312 144.328125 194.40625 144.476562 196.429688 C 144.625 198.570312 144.65625 198.660156 145.367188 198.660156 C 146.109375 198.660156 146.109375 198.632812 146.136719 196.191406 C 146.167969 194.167969 146.050781 193.570312 145.605469 192.976562 C 145.039062 192.292969 143.882812 191.964844 143.882812 192.53125 C 143.882812 192.679688 143.585938 192.917969 143.230469 193.035156 C 142.785156 193.15625 142.488281 193.066406 142.191406 192.679688 C 141.835938 192.203125 141.6875 192.171875 140.855469 192.5 C 140.234375 192.738281 139.789062 192.738281 139.613281 192.558594 C 139.226562 192.171875 138.632812 192.171875 138.394531 192.53125 Z M 138.394531 192.53125 "/>
<path style=" stroke:none;fill-rule:nonzero;fill:rgb(0%,0%,0%);fill-opacity:1;" d="M 147.976562 192.886719 C 147.148438 193.78125 147.324219 194.019531 148.984375 194.105469 C 149.875 194.167969 150.558594 194.34375 150.648438 194.554688 C 150.707031 194.792969 150.46875 194.941406 150.054688 194.941406 C 149.34375 194.941406 147.441406 196.605469 147.441406 197.203125 C 147.441406 197.382812 147.738281 197.796875 148.125 198.15625 C 148.6875 198.691406 149.074219 198.78125 150.707031 198.691406 C 152.160156 198.632812 152.664062 198.480469 152.722656 198.125 C 152.785156 197.886719 152.664062 197.589844 152.515625 197.46875 C 152.339844 197.382812 152.191406 196.367188 152.191406 195.269531 C 152.191406 193.691406 152.070312 193.125 151.65625 192.769531 C 150.882812 192.054688 148.628906 192.144531 147.976562 192.886719 Z M 150.855469 196.132812 C 151.09375 196.519531 150.46875 197.320312 149.933594 197.320312 C 149.429688 197.320312 149.402344 196.21875 149.90625 196.042969 C 150.46875 195.804688 150.648438 195.804688 150.855469 196.132812 Z M 150.855469 196.132812 "/>
<path style=" stroke:none;fill-rule:nonzero;fill:rgb(0%,0%,0%);fill-opacity:1;" d="M 153.792969 192.648438 C 153.703125 192.886719 153.703125 194.316406 153.734375 195.863281 L 153.820312 198.660156 L 154.652344 198.75 C 155.453125 198.839844 155.453125 198.839844 155.453125 197.023438 C 155.453125 195.476562 155.570312 195.089844 156.136719 194.613281 C 156.492188 194.316406 157.027344 194.078125 157.324219 194.046875 C 157.679688 194.046875 157.828125 193.808594 157.828125 193.15625 C 157.828125 192.410156 157.707031 192.261719 157.113281 192.261719 C 156.730469 192.261719 156.3125 192.46875 156.226562 192.738281 C 156.046875 193.214844 155.988281 193.214844 155.511719 192.738281 C 154.859375 192.171875 154 192.113281 153.792969 192.648438 Z M 153.792969 192.648438 "/>
<path style=" stroke:none;fill-rule:nonzero;fill:rgb(0%,0%,0%);fill-opacity:1;" d="M 159.398438 193.453125 C 158.035156 195.058594 158.035156 196.546875 159.398438 197.855469 C 160.199219 198.660156 160.617188 198.808594 161.742188 198.808594 C 163.253906 198.808594 164.085938 198.214844 163.492188 197.5 C 163.253906 197.230469 162.75 197.144531 161.832031 197.261719 C 160.703125 197.382812 160.496094 197.320312 160.496094 196.875 C 160.496094 196.429688 160.703125 196.367188 161.832031 196.488281 C 162.8125 196.605469 163.253906 196.519531 163.613281 196.132812 C 164.292969 195.386719 164.144531 194.730469 163.105469 193.453125 C 162.367188 192.558594 161.921875 192.261719 161.238281 192.261719 C 160.554688 192.261719 160.109375 192.558594 159.398438 193.453125 Z M 162.425781 194.492188 C 162.425781 194.851562 160.941406 195.058594 160.320312 194.820312 C 160.050781 194.730469 159.960938 194.492188 160.050781 194.34375 C 160.289062 193.929688 162.425781 194.078125 162.425781 194.492188 Z M 162.425781 194.492188 "/>
<path style=" stroke:none;fill-rule:nonzero;fill:rgb(0%,0%,0%);fill-opacity:1;" d="M 169.160156 192.945312 C 168.328125 193.808594 168.566406 194.046875 170.167969 194.046875 C 171.710938 194.046875 172.125 194.523438 170.96875 194.96875 C 169.960938 195.328125 168.507812 196.695312 168.507812 197.230469 C 168.507812 198.332031 171.085938 199.40625 171.621094 198.542969 C 171.710938 198.363281 172.183594 198.421875 172.777344 198.660156 C 173.3125 198.898438 173.847656 198.988281 173.964844 198.898438 C 174.292969 198.542969 174.144531 197.679688 173.699219 197.5 C 173.371094 197.382812 173.253906 196.84375 173.253906 195.328125 C 173.253906 193.660156 173.132812 193.183594 172.660156 192.769531 C 171.769531 192.023438 169.929688 192.113281 169.160156 192.945312 Z M 171.621094 196.132812 C 171.828125 196.488281 171.265625 197.320312 170.851562 197.320312 C 170.703125 197.320312 170.582031 196.992188 170.582031 196.578125 C 170.582031 195.832031 171.265625 195.535156 171.621094 196.132812 Z M 171.621094 196.132812 "/>
<path style=" stroke:none;fill-rule:nonzero;fill:rgb(0%,0%,0%);fill-opacity:1;" d="M 120.210938 195.742188 L 120.296875 196.578125 L 123.472656 196.667969 C 126.410156 196.726562 126.648438 196.695312 126.824219 196.132812 C 126.914062 195.804688 126.914062 195.417969 126.824219 195.238281 C 126.707031 195.058594 125.253906 194.941406 123.382812 194.941406 L 120.121094 194.941406 Z M 120.210938 195.742188 "/>
<path style="fill:none;stroke-width:1;stroke-linecap:butt;stroke-linejoin:miter;stroke:rgb(0%,0%,0%);stroke-opacity:1;stroke-miterlimit:4;" d="M 206.444215 194.873437 C 206.444215 194.873437 200.206285 293.639063 206.444215 293.639063 C 212.665686 293.639063 301.659059 293.639063 301.659059 293.639063 L 301.659059 373.734375 L 203.77787 373.734375 L 203.77787 456.4875 " transform="matrix(0.237333,0,0,0.238095,0,0)"/>
<path style="fill:none;stroke-width:1;stroke-linecap:butt;stroke-linejoin:miter;stroke:rgb(0%,0%,0%);stroke-opacity:1;stroke-miterlimit:4;" d="M 897.241485 196.957031 L 897.241485 293.852344 L 800.347832 293.852344 L 800.347832 381.9375 L 892.205056 381.9375 L 892.205056 470.022656 " transform="matrix(0.237333,0,0,0.238095,0,0)"/>
<path style="fill-rule:nonzero;fill:rgb(100%,0%,0%);fill-opacity:1;stroke-width:2.516821;stroke-linecap:butt;stroke-linejoin:miter;stroke:rgb(100%,1.960784%,1.960784%);stroke-opacity:1;stroke-miterlimit:4;" d="M 146.7148 454.748438 L 124.067328 453.3375 L 122.092258 431.94375 C 121.005969 420.180469 119.738632 383.939063 119.277783 351.405469 C 118.833392 318.888281 118.339624 290.571094 118.207953 288.4875 C 117.631891 279.185156 124.264835 213.921094 126.091775 211.099219 C 128.90625 206.767969 193.491046 206.653125 197.803283 210.967969 C 199.465634 212.641406 201.062149 212.920313 201.358409 211.607813 C 201.65467 210.278906 202.510534 228.457031 203.251185 252 L 204.600816 294.7875 L 251.788536 295.460156 L 298.976255 296.149219 L 298.976255 365.957812 L 290.582207 367.532813 C 285.97371 368.385938 265.449438 369.173438 244.974544 369.255469 C 224.499649 369.353906 206.197331 370.026563 204.288097 370.748438 C 201.555916 371.798438 200.798806 380.198438 200.749429 410.189063 C 200.683594 437.899219 199.745435 449.514844 197.325974 452.714063 C 193.754389 457.422656 191.104503 457.521094 146.7148 454.748438 Z M 166.778222 339.461719 C 169.148306 332.882812 171.682979 323.711719 172.423631 319.085156 C 173.542837 311.899219 173.065528 310.783594 169.131847 311.538281 C 166.169242 312.1125 163.700404 315.820312 162.284937 321.857813 C 161.050518 327.042188 159.207119 331.275 158.186666 331.275 C 157.166213 331.275 154.960718 326.746875 153.298367 321.201563 C 151.109331 313.917188 148.920295 311.144531 145.34871 311.144531 C 139.028485 311.144531 139.160156 314.310938 146.122279 331.275 C 156.310349 356.032031 160.244031 357.607031 166.778222 339.461719 Z M 166.778222 339.461719 " transform="matrix(0.237333,0,0,0.238095,0,0)"/>
<path style="fill-rule:nonzero;fill:rgb(100%,0%,0%);fill-opacity:1;stroke-width:2.516821;stroke-linecap:butt;stroke-linejoin:miter;stroke:rgb(0%,0%,0%);stroke-opacity:1;stroke-miterlimit:4;" d="M 892.945708 419.360156 L 892.945708 379.099219 L 802.339361 379.099219 L 802.339361 296.034375 L 897.982137 296.034375 L 897.982137 250.589063 C 897.982137 219.1875 898.805083 205.652344 900.648481 206.784375 C 902.113325 207.703125 920.070005 208.277344 940.528441 208.080469 C 968.261719 207.817969 978.400413 208.55625 980.359024 210.984375 C 986.596954 218.711719 989.082251 371.7 983.963527 433.207031 L 982.301176 453.3375 L 945.795295 454.600781 C 922.917398 455.388281 908.58168 454.9125 907.380179 453.3375 C 906.178678 451.795313 904.450492 452.500781 902.837518 455.224219 C 901.422051 457.652344 898.607575 459.6375 896.599587 459.6375 C 893.554687 459.6375 892.945708 452.861719 892.945708 419.360156 Z M 952.7245 337.722656 C 959.637245 317.936719 959.703081 316.18125 953.432233 316.18125 C 949.696059 316.18125 947.589317 319.117969 944.906513 328.125 L 941.334928 340.085156 L 938.224192 328.125 C 935.656601 318.166406 934.15884 316.18125 929.270541 316.18125 L 923.394707 316.18125 L 930.175781 335.048438 C 935.557848 350.027344 938.010226 353.932031 942.026203 353.932031 C 945.976343 353.932031 948.313509 350.404688 952.7245 337.722656 Z M 952.7245 337.722656 " transform="matrix(0.237333,0,0,0.238095,0,0)"/>
<path style="fill-rule:nonzero;fill:rgb(0%,69.019608%,31.372549%);fill-opacity:1;stroke-width:2.516821;stroke-linecap:butt;stroke-linejoin:miter;stroke:rgb(14.509804%,32.54902%,18.431373%);stroke-opacity:1;stroke-miterlimit:4;" d="M 205.341468 418.359375 L 206.098578 376.572656 L 304.012684 376.572656 L 304.012684 291.014063 L 205.851694 291.014063 L 205.851694 258.644531 C 205.851694 240.84375 206.575887 221.057813 207.448209 214.675781 C 208.847217 204.503906 209.587869 203.388281 213.570927 205.521094 C 220.302625 209.130469 297.264528 208.671094 300.918408 204.996094 C 303.189738 202.748438 305.395233 202.748438 310.349368 204.996094 C 318.809252 208.851562 392.084357 208.999219 400.478406 205.176563 C 405.037526 203.092969 408.03305 203.191406 412.460499 205.553906 C 415.982707 207.440625 430.86157 209.015625 449.509524 209.491406 C 466.659717 209.934375 482.838834 210.967969 485.472261 211.804688 C 489.768039 213.166406 490.261807 215.971875 490.261807 239.449219 C 490.261807 263.107031 489.718662 266.158594 484.567021 271.720313 C 479.053283 277.675781 477.539062 277.905469 438.119953 278.775 C 409.975202 279.398438 396.413053 280.645312 394.240476 282.827344 C 392.05144 285.009375 390.784103 299.528906 390.043452 330.717188 C 389.088834 371.224219 389.401554 375.817969 393.433989 379.164844 C 396.857444 382.003125 407.374693 383.053125 438.416213 383.676562 C 477.325097 384.464063 479.152037 384.726562 484.599939 390.501563 C 489.718662 395.915625 490.261807 398.983594 490.261807 422.428125 C 490.261807 446.299219 489.817416 448.628906 484.797446 451.7625 C 478.164501 455.913281 439.008734 457.455469 362.52414 456.585938 C 346.262728 456.389063 323.895058 456.405469 312.818206 456.602344 C 301.741354 456.799219 277.958216 456.75 259.968618 456.471094 C 241.97902 456.208594 222.146024 456.930469 215.924552 458.0625 L 204.600816 460.146094 Z M 335.136499 421.410938 C 339.218311 410.353125 340.91358 402.396094 339.498113 400.985156 C 335.646726 397.146094 331.976387 401.346094 328.371884 413.650781 L 324.981347 425.315625 L 321.985823 413.4375 C 319.253643 402.592969 313.591775 396.358594 309.872059 400.082812 C 309.049113 400.903125 311.090019 410.074219 314.381803 420.492188 C 322.232707 445.298438 326.248683 445.478906 335.136499 421.410938 Z M 364.416915 435.717188 C 367.066801 432.517969 366.441362 431.894531 360.318645 431.566406 L 353.093179 431.189063 L 360.005925 430.139063 C 364.449833 429.466406 366.93513 427.563281 366.93513 424.790625 C 366.93513 418.835156 359.874254 409.303125 355.463264 409.303125 C 350.163492 409.303125 341.769443 418.55625 341.769443 424.396875 C 341.769443 430.746094 350.34454 439.507031 356.566011 439.507031 C 359.150061 439.507031 362.688729 437.800781 364.416915 435.717188 Z M 380.62895 430.565625 C 381.55065 425.64375 383.953652 420.984375 385.945181 420.229688 C 387.953169 419.458594 389.582602 416.800781 389.582602 414.307031 C 389.582602 410.828906 387.574614 409.795313 380.77708 409.795313 L 371.971559 409.795313 L 371.971559 424.642969 C 371.971559 435.635156 372.8768 439.507031 375.46085 439.507031 C 377.468838 439.507031 379.674333 435.700781 380.62895 430.565625 Z M 380.62895 430.565625 " transform="matrix(0.237333,0,0,0.238095,0,0)"/>
<path style="fill-rule:nonzero;fill:rgb(0%,69.019608%,31.372549%);fill-opacity:1;stroke-width:2.516821;stroke-linecap:butt;stroke-linejoin:miter;stroke:rgb(17.254902%,46.27451%,0%);stroke-opacity:1;stroke-miterlimit:4;" d="M 689.826194 456.274219 C 689.102001 455.109375 681.580276 454.51875 673.071015 454.945312 C 664.578213 455.371875 656.217082 454.846875 654.505355 453.764063 C 652.777168 452.697656 649.419549 452.910938 647.016547 454.25625 C 644.53125 455.634375 640.943206 455.765625 638.671875 454.567969 C 636.482839 453.386719 633.108761 453.419531 631.117231 454.65 C 628.780065 456.09375 625.998508 455.470313 623.118197 452.861719 C 619.530153 449.613281 617.999473 449.465625 614.888738 452.041406 C 611.4982 454.846875 611.070269 451.582031 611.070269 423.445312 C 611.070269 393.35625 611.333611 391.682813 616.106698 391.682813 C 619.447858 391.682813 621.126668 390.009375 621.126668 386.646094 C 621.126668 381.986719 622.854854 381.609375 644.416038 381.461719 C 679.193732 381.232031 704.128994 378.229688 706.828257 373.947656 C 708.095593 371.929688 709.165423 353.19375 709.181882 332.292188 C 709.231259 282.253125 710.811315 283.746094 657.714844 283.303125 C 631.940177 283.089844 623.200492 282.171094 620.94562 279.464063 C 616.995479 274.689844 614.197463 274.985156 612.798455 280.317187 C 612.173016 282.728906 611.531118 267.159375 611.399447 245.7 C 611.251317 222.255469 612.024886 208.096875 613.374517 210.213281 C 614.839361 212.542969 617.160068 213.035156 620.254345 211.673438 C 626.804995 208.802344 656.85898 207.998438 784.102879 207.309375 L 895.463922 206.685938 L 895.463922 291.014063 L 846.120084 291.014063 C 802.158313 291.014063 796.940836 291.440625 798.306926 294.984375 C 799.146331 297.182813 799.821146 318.133594 799.821146 341.545313 L 799.821146 384.135938 L 890.427493 384.135938 L 890.427493 459.965625 L 884.765625 457.914844 C 879.202511 455.896875 867.862316 455.864063 749.884788 457.5375 C 717.559472 457.996875 690.533927 457.422656 689.826194 456.274219 Z M 743.136631 430.171875 C 746.296743 420.196875 748.255355 411.419531 747.498244 410.664844 C 742.577028 405.742969 734.396945 415.980469 734.396945 427.038281 C 734.396945 429.745313 733.26128 431.94375 731.878731 431.94375 C 730.496182 431.94375 729.360516 429.745313 729.360516 427.038281 C 729.360516 415.685156 719.962474 404.627344 715.897121 411.20625 C 715.238764 412.239844 717.411341 421.017188 720.719584 430.713281 C 724.011368 440.392969 726.743548 448.678125 726.776466 449.121094 C 726.809384 449.547656 729.212386 449.547656 732.125614 449.121094 C 736.256803 448.48125 738.659805 444.363281 743.136631 430.171875 Z M 771.676396 443.903906 C 772.301835 440.60625 770.70532 439.408594 765.405548 439.129688 L 758.295295 438.752344 L 765.2245 437.702344 C 774.770672 436.258594 774.984638 425.578125 765.553678 421.296094 C 759.628467 418.589063 758.361131 418.999219 752.962605 425.266406 C 745.457338 433.994531 745.490256 435.717188 753.324702 443.559375 C 760.451413 450.696094 770.343223 450.876563 771.676396 443.903906 Z M 785.847525 446.414062 C 786.390669 444.691406 787.509875 440.163281 788.332821 436.357031 C 789.172226 432.550781 791.525851 429.433594 793.583216 429.433594 C 795.640581 429.433594 797.302932 428.301563 797.302932 426.923438 C 797.302932 425.528906 797.599192 423.54375 797.94483 422.510156 C 798.290467 421.476562 793.747805 420.442969 787.871972 420.213281 L 777.173675 419.819531 L 777.173675 434.683594 C 777.173675 446.364844 777.99662 449.564063 781.025061 449.564063 C 783.148262 449.564063 785.320839 448.153125 785.847525 446.414062 Z M 785.847525 446.414062 " transform="matrix(0.237333,0,0,0.238095,0,0)"/>
<path style="fill-rule:nonzero;fill:rgb(100%,100%,0%);fill-opacity:1;stroke-width:2.516821;stroke-linecap:butt;stroke-linejoin:miter;stroke:rgb(94.509804%,100%,33.333333%);stroke-opacity:1;stroke-miterlimit:4;" d="M 502.83642 419.425781 L 502.83642 374.0625 L 399.65546 374.0625 L 399.65546 288.4875 L 503.478318 288.4875 L 502.375571 245.7 L 501.256364 202.9125 L 600.99741 202.9125 L 600.99741 296.592188 L 699.158401 292.917188 L 699.158401 371.552344 L 600.799903 371.552344 L 601.112623 417.473438 L 601.441801 463.410938 L 552.14734 464.1 L 502.83642 464.772656 Z M 512.185086 348.895312 C 513.024491 345.630469 515.608541 343.858594 519.492846 343.858594 C 523.821541 343.858594 525.500351 345.269531 525.500351 348.895312 C 525.500351 352.964063 527.179161 353.932031 534.305873 353.932031 C 542.222612 353.932031 543.111394 353.226562 543.144312 347.008594 C 543.17723 343.202344 544.279977 338.378906 545.629608 336.311719 C 547.407172 333.539062 548.081987 335.392969 548.098446 343.235156 C 548.131364 352.242188 548.937851 353.932031 553.184252 353.932031 C 557.381276 353.932031 558.253599 352.160156 558.500483 343.235156 C 558.665072 337.345313 559.274052 334.802344 559.866573 337.575 C 560.442635 340.33125 561.463088 345.154688 562.137904 348.271875 C 562.796261 351.372656 565.018215 353.932031 567.075579 353.932031 C 571.848666 353.932031 572.375351 330.028125 567.651642 327.107813 C 565.923455 326.041406 557.990256 324.942187 550.040599 324.646875 L 535.55675 324.138281 L 535.55675 333.24375 C 535.55675 344.219531 532.495392 341.5125 528.331285 326.878125 C 525.681399 317.526563 524.397604 316.18125 518.176132 316.18125 C 511.806531 316.18125 510.703783 317.444531 507.823473 328.125 C 506.062368 334.703906 503.774579 341.036719 502.754126 342.185156 C 499.857356 345.466406 503.017468 353.932031 507.148657 353.932031 C 509.189563 353.932031 511.460894 351.667969 512.185086 348.895312 Z M 512.185086 348.895312 " transform="matrix(0.237333,0,0,0.238095,0,0)"/>
</g>
</svg>
