<?xml version="1.0" encoding="UTF-8" standalone="no"?>
<svg
   xmlns:dc="http://purl.org/dc/elements/1.1/"
   xmlns:cc="http://creativecommons.org/ns#"
   xmlns:rdf="http://www.w3.org/1999/02/22-rdf-syntax-ns#"
   xmlns:svg="http://www.w3.org/2000/svg"
   xmlns="http://www.w3.org/2000/svg"
   xmlns:sodipodi="http://sodipodi.sourceforge.net/DTD/sodipodi-0.dtd"
   xmlns:inkscape="http://www.inkscape.org/namespaces/inkscape"
   version="1.0"
   width="500.19901"
   height="416.88498"
   viewBox="0 0 400.1592 333.50798"
   preserveAspectRatio="xMidYMid meet"
   id="svg3089"
   inkscape:version="0.48.4 r9939"
   sodipodi:docname="d2d79824b6a1806bff8d8dd9f2061177a4146d0e.svg">
  <defs
     id="defs3099" />
  <sodipodi:namedview
     pagecolor="#ffffff"
     bordercolor="#666666"
     borderopacity="1"
     objecttolerance="10"
     gridtolerance="10"
     guidetolerance="10"
     inkscape:pageopacity="0"
     inkscape:pageshadow="2"
     inkscape:window-width="1600"
     inkscape:window-height="824"
     id="namedview3097"
     showgrid="false"
     inkscape:zoom="0.52011019"
     inkscape:cx="252.5"
     inkscape:cy="205.625"
     inkscape:window-x="0"
     inkscape:window-y="24"
     inkscape:window-maximized="1"
     inkscape:current-layer="svg3089"
     fit-margin-top="0"
     fit-margin-left="0"
     fit-margin-right="0"
     fit-margin-bottom="0" />
  <metadata
     id="metadata3091">
Created by potrace 1.10, written by Peter Selinger 2001-2011
<rdf:RDF>
  <cc:Work
     rdf:about="">
    <dc:format>image/svg+xml</dc:format>
    <dc:type
       rdf:resource="http://purl.org/dc/dcmitype/StillImage" />
  </cc:Work>
</rdf:RDF>
</metadata>
  <g
     transform="matrix(0.10100963,0,0,-0.10100963,-11.111059,350.67961)"
     id="g3093"
     style="fill:#000000;stroke:none">
    <path
       d="m 2082,3470 -1972,-5 0,-1644 c 0,-905 2,-1646 3,-1648 2,-1 892,-3 1978,-3 l 1974,0 5,1646 c 3,1092 2,1648 -5,1652 -5,4 -898,5 -1983,2 z m -1342,-345 0,-285 -285,0 -285,0 0,285 0,285 285,0 285,0 0,-285 z m 660,0 0,-285 -300,0 -300,0 0,285 0,285 300,0 300,0 0,-285 z m 660,0 0,-285 -300,0 -300,0 0,285 0,285 300,0 300,0 0,-285 z m 630,0 0,-285 -285,0 -285,0 0,285 0,285 285,0 285,0 0,-285 z m 660,0 0,-285 -300,0 -300,0 0,285 0,285 300,0 300,0 0,-285 z m 660,0 0,-285 -300,0 -300,0 0,285 0,285 300,0 300,0 0,-285 z m -3270,-645 0,-300 -285,0 -285,0 0,300 0,300 285,0 285,0 0,-300 z m 660,0 0,-300 -300,0 -300,0 0,300 0,300 300,0 300,0 0,-300 z m 660,0 0,-300 -300,0 -300,0 0,300 0,300 300,0 300,0 0,-300 z m 630,0 0,-300 -285,0 -285,0 0,300 0,300 285,0 285,0 0,-300 z m 660,0 0,-300 -300,0 -300,0 0,300 0,300 300,0 300,0 0,-300 z m 660,0 0,-300 -300,0 -300,0 0,300 0,300 300,0 300,0 0,-300 z m -3270,-660 0,-300 -285,0 -285,0 0,300 0,300 285,0 285,0 0,-300 z m 660,0 0,-300 -300,0 -300,0 0,300 0,300 300,0 300,0 0,-300 z m 660,0 0,-300 -300,0 -300,0 0,300 0,300 300,0 300,0 0,-300 z m 630,0 0,-300 -285,0 -285,0 0,300 0,300 285,0 285,0 0,-300 z m 660,0 0,-300 -300,0 -300,0 0,300 0,300 300,0 300,0 0,-300 z m 660,0 0,-300 -300,0 -300,0 0,300 0,300 300,0 300,0 0,-300 z m -3270,-645 0,-285 -285,0 -285,0 0,285 0,285 285,0 285,0 0,-285 z m 660,0 0,-285 -300,0 -300,0 0,285 0,285 300,0 300,0 0,-285 z m 660,0 0,-285 -300,0 -300,0 0,285 0,285 300,0 300,0 0,-285 z m 630,0 0,-285 -285,0 -285,0 0,285 0,285 285,0 285,0 0,-285 z m 660,0 0,-285 -300,0 -300,0 0,285 0,285 300,0 300,0 0,-285 z m 660,0 0,-285 -300,0 -300,0 0,285 0,285 300,0 300,0 0,-285 z M 740,530 l 0,-300 -285,0 -285,0 0,300 0,300 285,0 285,0 0,-300 z m 660,0 0,-300 -300,0 -300,0 0,300 0,300 300,0 300,0 0,-300 z m 660,0 0,-300 -300,0 -300,0 0,300 0,300 300,0 300,0 0,-300 z m 630,0 0,-300 -285,0 -285,0 0,300 0,300 285,0 285,0 0,-300 z m 660,0 0,-300 -300,0 -300,0 0,300 0,300 300,0 300,0 0,-300 z m 660,0 0,-300 -300,0 -300,0 0,300 0,300 300,0 300,0 0,-300 z"
       id="path3095"
       inkscape:connector-curvature="0" />
  </g>
  <path
     style="fill:#9c9e9f;fill-opacity:1;stroke:none"
     d="m 70.424253,100.2288 0,-29.519635 29.519637,0 29.51963,0 0,29.519635 0,29.51964 -29.51963,0 -29.519637,0 0,-29.51964 z"
     id="path7516"
     inkscape:connector-curvature="0" />
  <path
     style="fill:#9c9e9f;fill-opacity:1;stroke:none"
     d="m 137.23185,100.2288 0,-29.519635 29.51964,0 29.51963,0 0,29.519635 0,29.51964 -29.51963,0 -29.51964,0 0,-29.51964 z"
     id="path8026"
     inkscape:connector-curvature="0" />
  <path
     style="fill:#9c9e9f;fill-opacity:1;stroke:none"
     d="m 204.03945,100.2288 0,-29.519635 27.96597,0 27.96597,0 0,29.519635 0,29.51964 -27.96597,0 -27.96597,0 0,-29.51964 z"
     id="path8028"
     inkscape:connector-curvature="0" />
  <path
     style="fill:#9c9e9f;fill-opacity:1;stroke:none"
     d="m 267.73972,100.2288 0,-29.519635 29.51964,0 29.51963,0 0,29.519635 0,29.51964 -29.51963,0 -29.51964,0 0,-29.51964 z"
     id="path8030"
     inkscape:connector-curvature="0" />
  <path
     style="fill:#9c9e9f;fill-opacity:1;stroke:none"
     d="m 70.424253,167.0364 0,-29.51964 29.519637,0 29.51963,0 0,29.51964 0,29.51964 -29.51963,0 -29.519637,0 0,-29.51964 z"
     id="path8032"
     inkscape:connector-curvature="0" />
  <path
     style="fill:#9c9e9f;fill-opacity:1;stroke:none"
     d="m 137.23185,167.0364 0,-29.51964 29.51964,0 29.51963,0 0,29.51964 0,29.51964 -29.51963,0 -29.51964,0 0,-29.51964 z"
     id="path8034"
     inkscape:connector-curvature="0" />
  <path
     style="fill:#9c9e9f;fill-opacity:1;stroke:none"
     d="m 204.03945,167.0364 0,-29.51964 27.96597,0 27.96597,0 0,29.51964 0,29.51964 -27.96597,0 -27.96597,0 0,-29.51964 z"
     id="path8036"
     inkscape:connector-curvature="0" />
  <path
     style="fill:#9c9e9f;fill-opacity:1;stroke:none"
     d="m 267.73972,167.0364 0,-29.51964 29.51964,0 29.51963,0 0,29.51964 0,29.51964 -29.51963,0 -29.51964,0 0,-29.51964 z"
     id="path8038"
     inkscape:connector-curvature="0" />
  <path
     style="fill:#9c9e9f;fill-opacity:1;stroke:none"
     d="m 267.73972,232.29033 0,-27.96598 29.51964,0 29.51963,0 0,27.96598 0,27.96597 -29.51963,0 -29.51964,0 0,-27.96597 z"
     id="path8040"
     inkscape:connector-curvature="0" />
  <path
     style="fill:#9c9e9f;fill-opacity:1;stroke:none"
     d="m 204.03945,232.29033 0,-27.96598 27.96597,0 27.96597,0 0,27.96598 0,27.96597 -27.96597,0 -27.96597,0 0,-27.96597 z"
     id="path8042"
     inkscape:connector-curvature="0" />
  <path
     style="fill:#9c9e9f;fill-opacity:1;stroke:none"
     d="m 137.23185,232.29033 0,-27.96598 29.51964,0 29.51963,0 0,27.96598 0,27.96597 -29.51963,0 -29.51964,0 0,-27.96597 z"
     id="path8044"
     inkscape:connector-curvature="0" />
  <path
     style="fill:#9c9e9f;fill-opacity:1;stroke:none"
     d="m 70.424253,232.29033 0,-27.96598 29.519637,0 29.51963,0 0,27.96598 0,27.96597 -29.51963,0 -29.519637,0 0,-27.96597 z"
     id="path8052"
     inkscape:connector-curvature="0" />
</svg>
