<?xml version="1.0" encoding="UTF-8" standalone="no"?>
<svg
   xmlns:dc="http://purl.org/dc/elements/1.1/"
   xmlns:cc="http://creativecommons.org/ns#"
   xmlns:rdf="http://www.w3.org/1999/02/22-rdf-syntax-ns#"
   xmlns:svg="http://www.w3.org/2000/svg"
   xmlns="http://www.w3.org/2000/svg"
   xmlns:sodipodi="http://sodipodi.sourceforge.net/DTD/sodipodi-0.dtd"
   xmlns:inkscape="http://www.inkscape.org/namespaces/inkscape"
   version="1.0"
   width="500.59897"
   height="275.98941"
   viewBox="0 0 400.47917 220.79153"
   preserveAspectRatio="xMidYMid meet"
   id="svg4405"
   inkscape:version="0.48.4 r9939"
   sodipodi:docname="dc97dbc32e593ee5ad8da75de5fdd9d15d5af2be.svg">
  <defs
     id="defs4417" />
  <sodipodi:namedview
     pagecolor="#ffffff"
     bordercolor="#666666"
     borderopacity="1"
     objecttolerance="10"
     gridtolerance="10"
     guidetolerance="10"
     inkscape:pageopacity="0"
     inkscape:pageshadow="2"
     inkscape:window-width="1600"
     inkscape:window-height="824"
     id="namedview4415"
     showgrid="false"
     inkscape:zoom="0.88638498"
     inkscape:cx="598.95986"
     inkscape:cy="266.96048"
     inkscape:window-x="0"
     inkscape:window-y="24"
     inkscape:window-maximized="1"
     inkscape:current-layer="svg4405"
     fit-margin-top="0"
     fit-margin-left="0"
     fit-margin-right="0"
     fit-margin-bottom="0" />
  <metadata
     id="metadata4407">
Created by potrace 1.10, written by Peter Selinger 2001-2011
<rdf:RDF>
  <cc:Work
     rdf:about="">
    <dc:format>image/svg+xml</dc:format>
    <dc:type
       rdf:resource="http://purl.org/dc/dcmitype/StillImage" />
  </cc:Work>
</rdf:RDF>
</metadata>
  <g
     transform="matrix(0.05546193,0,0,-0.05546193,-8.8298711,227.99257)"
     id="g4409"
     style="fill:#000000;stroke:none">
    <path
       d="m 171,4097 c -17,-21 -15,-3941 2,-3956 14,-11 7162,-16 7192,-5 13,5 15,242 15,1979 0,1602 -3,1975 -13,1984 -21,17 -7181,15 -7196,-2 z m 650,-342 0,-306 -306,0 -307,0 1,301 c 0,166 3,305 5,308 2,4 140,6 306,5 l 301,-1 0,-307 z m 630,0 0,-306 -291,0 -291,0 0,305 c 0,168 1,307 1,309 0,1 131,1 291,0 l 290,-2 0,-306 z m 660,0 0,-306 -306,0 -306,0 0,305 c 0,168 1,307 1,309 0,1 138,1 306,0 l 305,-2 0,-306 z m 660,0 0,-306 -306,0 -306,0 0,305 c 0,168 1,307 1,309 0,1 138,1 306,0 l 305,-2 0,-306 z m 660,0 1,-307 -307,1 -306,0 0,305 c 0,169 1,307 1,309 0,1 137,1 306,0 l 305,-2 0,-306 z m 660,-2 1,-308 -307,0 -307,0 1,310 c 0,171 1,310 1,310 0,0 137,-1 306,-2 l 305,-2 0,-308 z m 631,0 0,-308 -292,0 -292,0 1,310 c 0,171 1,310 1,310 0,0 131,-1 290,-2 l 291,-2 1,-308 z m 659,0 1,-308 -307,0 -307,0 1,310 c 0,171 1,310 1,310 0,0 137,-1 306,-2 l 305,-2 0,-308 z m 660,2 0,-306 -306,0 -307,-1 1,309 c 0,169 1,308 1,308 0,0 138,-1 306,-2 l 305,-2 0,-306 z m 660,0 0,-306 -306,0 -306,0 0,305 c 0,168 1,307 1,309 0,1 138,1 306,0 l 305,-2 0,-306 z m 626,302 c 2,-2 4,-140 4,-306 l 1,-302 -292,0 -291,0 0,305 c 0,168 1,307 1,309 0,3 573,-2 577,-6 z m -6506,-962 0,-306 -306,0 -306,0 0,305 c 0,168 1,307 1,309 0,1 138,1 306,0 l 305,-2 0,-306 z m 630,0 0,-306 -291,0 -291,0 0,305 c 0,168 1,307 1,309 0,1 131,1 291,0 l 290,-2 0,-306 z m 660,0 0,-306 -306,0 -306,0 0,305 c 0,168 1,307 1,309 0,1 138,1 306,0 l 305,-2 0,-306 z m 660,0 0,-306 -306,0 -306,0 0,305 c 0,168 1,307 1,309 0,1 138,1 306,0 l 305,-2 0,-306 z m 664,0 0,-307 -308,1 -308,0 0,305 c 0,169 1,307 1,309 0,1 138,1 308,0 l 307,-1 0,-307 z m 2606,0 0,-306 -308,0 -308,-1 -3,299 c -1,164 -1,302 2,308 2,6 111,9 310,8 l 307,-2 0,-306 z m 660,0 0,-306 -306,0 -306,0 0,305 c 0,168 1,307 1,309 0,1 138,1 306,0 l 305,-2 0,-306 z m 630,0 0,-306 -291,0 -291,0 0,305 c 0,168 1,307 1,309 0,1 131,1 291,0 l 290,-2 0,-306 z m -2517,290 c -43,-19 -101,-79 -123,-129 l -19,-43 -87,-6 c -66,-4 -90,-9 -97,-21 -5,-9 -16,-16 -23,-16 -8,0 -15,-4 -15,-9 0,-5 -8,-12 -19,-16 -30,-9 -108,-92 -130,-138 -16,-34 -21,-63 -21,-129 0,-85 12,-127 48,-166 6,-7 12,-18 12,-24 0,-6 16,-31 36,-55 39,-47 96,-88 138,-99 21,-5 27,-14 32,-45 6,-35 9,-38 43,-41 l 36,-3 3,-172 c 2,-136 0,-173 -10,-174 -7,-1 -25,-2 -40,-3 -32,-2 -58,-23 -58,-45 0,-10 -7,-26 -15,-37 -8,-10 -15,-33 -15,-50 0,-37 -28,-71 -88,-108 -76,-47 -182,-45 -182,4 0,24 7,28 77,41 33,6 68,20 81,32 23,21 30,61 12,72 -5,3 -10,21 -10,39 0,18 -9,45 -20,59 -11,14 -20,29 -20,35 0,5 -18,12 -39,16 -48,7 -66,44 -49,100 14,44 -1,66 -46,66 -17,0 -38,5 -46,10 -13,8 -12,14 5,46 11,21 20,43 20,50 0,8 9,20 20,28 30,22 10,31 -29,12 -19,-9 -47,-16 -63,-16 -16,0 -34,-5 -39,-10 -7,-7 -21,-5 -43,6 -38,19 -86,15 -155,-11 -45,-17 -46,-19 -46,-61 0,-23 -4,-45 -9,-49 -5,-3 -13,-19 -16,-36 -4,-19 -28,-53 -59,-83 -65,-64 -96,-126 -96,-193 0,-60 10,-71 70,-75 45,-3 45,-3 48,-43 3,-35 8,-42 41,-57 21,-10 48,-18 60,-18 20,0 22,-4 19,-37 -3,-38 -3,-38 -61,-48 -32,-5 -61,-15 -65,-21 -4,-6 -17,-14 -28,-18 -12,-4 -25,-14 -28,-24 -4,-9 -13,-28 -21,-42 -8,-14 -15,-37 -15,-53 0,-20 -7,-30 -24,-37 -13,-5 -27,-14 -31,-20 -4,-6 -20,-8 -39,-4 -28,5 -37,1 -55,-21 -11,-15 -21,-39 -21,-53 0,-28 35,-72 58,-72 8,0 31,-14 52,-30 28,-23 45,-29 63,-25 19,5 28,0 42,-21 32,-50 66,-74 102,-74 19,0 36,-6 39,-14 3,-8 18,-16 35,-20 21,-4 29,-11 29,-27 0,-28 -48,-77 -84,-85 -16,-3 -34,-10 -40,-15 -6,-5 -20,-17 -32,-27 -29,-24 -56,-85 -52,-119 2,-21 13,-33 43,-48 l 40,-20 -154,-3 c -85,-1 -155,-1 -157,0 -4,5 -5,481 -5,1601 l 1,957 683,-1 c 583,-1 678,-3 651,-14 z m 566,-1264 0,-1280 -632,-3 c -348,-2 -637,0 -642,4 -25,20 -1,22 199,18 164,-4 185,2 185,55 0,19 -3,35 -8,35 -4,0 -18,20 -32,44 -13,24 -33,47 -44,49 -61,15 -101,36 -101,54 0,10 -4,24 -8,31 -9,14 67,91 91,92 6,0 12,8 12,17 0,9 6,24 14,32 16,19 46,119 46,155 0,15 7,38 16,52 15,23 15,26 0,43 -9,9 -16,21 -16,25 0,9 -26,36 -35,36 -3,0 -29,22 -56,50 -50,48 -56,70 -20,70 10,0 32,7 47,15 16,8 37,15 47,15 9,0 17,4 17,10 0,5 11,12 24,16 13,3 36,19 52,35 26,27 71,39 87,22 4,-3 -5,-26 -19,-50 -24,-41 -24,-46 -10,-62 9,-10 16,-21 16,-25 0,-5 14,-25 30,-46 17,-21 30,-46 30,-55 0,-17 -65,-106 -82,-113 -5,-2 -8,-26 -8,-53 0,-56 24,-70 35,-19 4,16 11,32 16,35 5,4 9,15 9,26 0,11 7,22 16,26 23,9 44,-23 44,-64 0,-24 5,-33 16,-33 14,0 16,8 10,46 -3,26 -11,53 -17,60 -14,17 -1,77 14,71 7,-2 11,-18 9,-35 -4,-36 11,-42 40,-15 22,20 23,39 3,47 -9,3 -15,18 -15,37 0,20 -11,45 -30,69 -22,28 -30,49 -30,78 0,22 -6,45 -14,52 -17,14 -10,40 10,40 30,0 64,32 64,60 0,16 7,36 16,45 15,15 15,17 -1,35 -13,14 -16,28 -11,51 8,39 -6,65 -40,73 -24,6 -25,8 -10,25 9,10 16,26 16,37 0,10 7,32 15,48 19,36 21,130 3,124 -7,-3 -14,-24 -16,-49 -2,-25 -10,-47 -18,-52 -8,-4 -14,-18 -14,-30 0,-30 -15,-53 -25,-37 -9,14 2,60 15,60 6,0 10,29 10,63 0,51 -4,68 -20,82 -24,21 -27,77 -6,94 12,10 17,8 25,-8 6,-11 8,-27 5,-35 -4,-11 11,-33 47,-67 82,-78 102,-82 111,-19 2,21 8,25 33,24 17,-1 53,-3 80,-4 76,-4 173,11 179,26 3,8 12,14 20,14 8,0 27,17 42,38 16,20 33,42 38,47 35,33 49,86 49,187 0,86 -3,109 -21,143 -28,50 -28,56 4,86 60,55 74,91 74,191 0,53 -6,110 -14,133 -18,50 -94,137 -140,159 -20,9 -36,19 -36,21 0,3 47,5 105,5 l 105,0 0,-1279 z m -236,1242 c 33,-17 49,-43 27,-43 -6,0 -22,-11 -37,-25 -21,-19 -25,-30 -20,-51 4,-14 14,-33 21,-41 11,-10 12,-19 5,-33 -15,-28 -13,-30 28,-30 21,1 47,9 59,19 20,17 22,25 17,65 -4,25 -13,51 -20,57 -14,12 -19,39 -8,39 9,0 45,-39 65,-70 16,-24 24,-58 36,-148 8,-63 -13,-124 -57,-167 l -38,-37 -33,23 c -19,13 -36,26 -39,29 -9,9 -114,40 -145,42 -23,2 -31,9 -33,27 -5,34 -121,146 -160,154 -40,8 -82,35 -82,53 0,13 53,72 97,108 38,31 95,45 190,46 68,0 101,-5 127,-17 z m 49,-97 c 20,-15 28,-67 12,-73 -15,-5 -58,55 -51,73 7,17 16,17 39,0 z m -456,-116 c 21,-11 44,-20 51,-20 17,0 62,-30 62,-42 0,-5 -13,-21 -30,-35 -23,-18 -30,-33 -30,-59 0,-19 4,-34 8,-34 4,0 12,-15 17,-32 9,-30 13,-33 49,-32 45,2 56,15 54,67 -1,20 2,40 5,44 4,3 7,-3 7,-15 0,-11 9,-27 20,-35 18,-12 20,-26 21,-98 0,-71 -3,-92 -25,-136 -14,-28 -43,-65 -64,-83 -76,-64 -84,-70 -92,-70 -5,0 -16,-7 -25,-17 -22,-21 -157,-22 -183,-2 -9,8 -35,23 -57,34 -105,51 -181,164 -194,288 -4,37 -4,70 0,72 3,3 9,17 12,33 6,31 106,130 160,159 31,16 94,29 165,32 17,0 49,-8 69,-19 z m 147,-176 c 1,-51 -24,-57 -43,-12 -8,18 -16,36 -19,41 -6,11 41,26 52,17 5,-5 9,-26 10,-46 z m 263,-86 c 53,-35 61,-48 31,-48 -13,0 -34,-9 -47,-19 -22,-17 -24,-23 -18,-82 8,-73 25,-94 71,-85 39,8 53,22 62,59 12,57 23,-2 14,-75 -12,-99 -64,-179 -141,-219 -57,-29 -233,-28 -286,2 -35,19 -72,55 -73,71 0,3 33,24 73,46 143,79 188,153 191,312 0,36 5,68 11,72 16,12 68,-4 112,-34 z m 51,-96 c 20,-15 21,-23 16,-65 -4,-29 -12,-47 -20,-47 -19,0 -44,53 -44,95 0,39 13,44 48,17 z m -4377,-342 0,-291 -306,0 -306,0 0,290 c 0,160 1,292 1,294 0,1 138,1 306,0 l 305,-2 0,-291 z m 630,0 0,-291 -291,0 -291,0 0,290 c 0,160 1,292 1,294 0,1 131,1 291,0 l 290,-2 0,-291 z m 660,0 0,-291 -306,0 -306,0 0,290 c 0,160 1,292 1,294 0,1 138,1 306,0 l 305,-2 0,-291 z m 660,0 0,-291 -306,0 -306,0 0,290 c 0,160 1,292 1,294 0,1 138,1 306,0 l 305,-2 0,-291 z m 664,0 0,-292 -308,1 -308,0 0,290 c 0,160 1,292 1,294 0,1 138,1 308,0 l 307,-1 0,-292 z m 2606,0 0,-291 -308,0 -308,-1 -3,284 c -1,155 -1,287 2,293 2,6 111,9 310,8 l 307,-2 0,-291 z m 660,0 0,-291 -306,0 -306,0 0,290 c 0,160 1,292 1,294 0,1 138,1 306,0 l 305,-2 0,-291 z m 630,0 0,-291 -291,0 -291,0 0,290 c 0,160 1,292 1,294 0,1 131,1 291,0 l 290,-2 0,-291 z m -3305,-42 c 11,-18 -25,-38 -60,-31 -37,7 -51,17 -42,32 9,15 93,14 102,-1 z m -48,-60 c -6,-18 -28,-21 -28,-4 0,9 7,16 16,16 9,0 14,-5 12,-12 z m -51,-24 c 8,-21 -23,-52 -38,-37 -14,14 -2,53 17,53 8,0 17,-7 21,-16 z m 203,-30 c 0,-8 13,-27 29,-42 36,-32 51,-69 44,-104 -4,-20 -13,-28 -44,-36 -22,-6 -47,-8 -57,-7 -73,15 -74,15 -68,39 3,12 -1,31 -8,42 -10,13 -11,26 -5,42 11,29 11,32 0,32 -5,0 -17,-18 -27,-40 -10,-22 -24,-40 -31,-40 -23,0 -14,-17 22,-41 41,-28 44,-44 10,-53 -16,-4 -25,-13 -25,-25 0,-25 45,-61 76,-61 29,0 38,-14 24,-40 -17,-32 -66,-26 -102,12 l -30,33 -24,-30 c -13,-17 -24,-38 -24,-47 0,-22 26,-24 34,-3 4,12 11,12 48,-5 52,-23 60,-40 20,-40 -17,0 -37,-7 -46,-15 -22,-23 -48,-18 -86,15 -19,16 -41,29 -47,30 -41,1 10,85 64,107 44,18 55,39 28,49 -20,8 -19,42 4,88 11,20 24,50 30,66 5,16 29,43 52,59 33,25 52,31 91,31 37,0 48,-4 48,-16 z m 85,-15 c 11,-33 -9,-44 -28,-16 -9,14 -13,27 -10,31 13,13 32,5 38,-15 z m -335,-14 c 0,-12 -24,-55 -32,-55 -12,0 -10,34 4,48 12,12 28,16 28,7 z m -73,-82 c 4,-11 -1,-22 -15,-31 -26,-17 -31,-76 -7,-86 41,-15 -6,-66 -62,-66 -28,0 -33,4 -33,23 0,24 52,131 77,159 20,22 32,23 40,1 z m -2986,-378 0,-306 -306,0 -306,0 0,305 c 0,168 1,307 1,309 0,1 138,1 306,0 l 305,-2 0,-306 z m 630,0 0,-306 -291,0 -291,0 0,305 c 0,168 1,307 1,309 0,1 131,1 291,0 l 290,-2 0,-306 z m 660,0 0,-306 -306,0 -306,0 0,305 c 0,168 1,307 1,309 0,1 138,1 306,0 l 305,-2 0,-306 z m 660,0 0,-306 -306,0 -306,0 0,305 c 0,168 1,307 1,309 0,1 138,1 306,0 l 305,-2 0,-306 z m 664,0 0,-307 -308,0 -308,1 0,306 c 0,168 1,306 1,308 0,1 138,1 308,0 l 307,-1 0,-307 z m 850,299 c 14,-9 25,-24 25,-34 0,-10 7,-23 15,-30 18,-15 20,-89 3,-95 -7,-3 -42,-6 -78,-8 -62,-3 -65,-4 -63,-27 2,-17 -5,-31 -23,-44 -36,-26 -73,-24 -95,5 -18,24 -18,24 9,46 15,13 39,23 54,23 16,0 42,12 62,30 21,19 43,29 57,28 41,-5 27,24 -18,40 -44,14 -47,20 -37,60 8,27 52,30 89,6 z m 1756,-299 0,-306 -308,0 -308,-1 -3,299 c -1,164 -1,302 2,308 2,6 111,9 310,8 l 307,-2 0,-306 z m 660,0 0,-306 -306,0 -306,0 0,305 c 0,168 1,307 1,309 0,1 138,1 306,0 l 305,-2 0,-306 z m 630,0 0,-306 -291,0 -291,0 0,305 c 0,168 1,307 1,309 0,1 131,1 291,0 l 290,-2 0,-306 z m -2711,240 c 7,-8 19,-15 26,-15 19,0 18,-36 -2,-44 -8,-3 -25,-1 -36,5 -11,6 -24,7 -28,2 -11,-12 7,-53 23,-53 19,0 18,-91 -1,-98 -19,-6 -69,45 -76,76 -3,18 4,47 22,85 27,59 48,71 72,42 z m 110,-15 c 0,-32 -23,-42 -34,-14 -11,29 -6,44 14,44 16,0 20,-7 20,-30 z m -540,-9 c 0,-10 -8,-21 -17,-25 -10,-3 -24,-9 -30,-12 -9,-4 -13,3 -13,19 0,26 11,35 43,36 10,1 17,-6 17,-18 z m 545,-83 c -10,-32 -16,-37 -53,-44 -24,-5 -32,-3 -32,7 0,28 38,58 73,59 14,0 17,-5 12,-22 z m -215,-87 c 0,-21 -32,-50 -80,-72 -123,-56 -144,-60 -166,-31 -25,33 -17,42 39,42 51,1 63,6 157,67 36,24 50,22 50,-6 z m -480,-26 c 0,-8 -4,-15 -9,-15 -5,0 -14,7 -21,15 -10,13 -9,15 9,15 12,0 21,-6 21,-15 z m 138,-35 c 26,-34 28,-58 6,-67 -17,-6 -64,33 -64,54 0,7 -4,13 -10,13 -5,0 -10,7 -10,15 0,28 54,18 78,-15 z m -168,-39 c 0,-25 -8,-43 -25,-60 -25,-23 -26,-23 -45,-6 -25,23 -25,51 0,92 18,30 22,32 45,21 20,-9 25,-18 25,-47 z m 60,3 c 0,-8 5,-14 10,-14 6,0 15,-11 20,-24 22,-60 106,-70 117,-15 8,39 18,44 37,17 22,-31 21,-68 -2,-68 -21,0 -62,-43 -62,-65 0,-21 14,-19 35,5 26,29 92,27 128,-5 34,-30 34,-35 -2,-35 -17,0 -67,-20 -113,-44 -197,-103 -189,-100 -240,-91 -43,7 -80,11 -118,14 -30,2 -25,13 31,70 40,39 59,51 82,51 18,0 41,9 54,22 20,18 23,31 23,89 0,37 -4,71 -10,74 -5,3 -10,15 -10,26 0,11 5,17 10,14 6,-3 10,-13 10,-21 z m -178,-83 c -3,-32 -5,-33 -49,-35 -28,-1 -38,3 -41,17 -6,30 18,48 57,45 32,-3 36,-6 33,-27 z m 158,-26 c 0,-18 -47,-65 -65,-65 -14,0 -3,52 15,70 11,11 20,28 20,38 1,15 2,15 15,-2 8,-11 15,-29 15,-41 z m -103,-11 c 4,-10 0,-20 -10,-26 -10,-5 -17,-14 -17,-21 -1,-7 -25,-38 -55,-71 l -54,-58 -12,25 c -10,23 -9,31 11,59 22,32 107,106 123,107 4,1 10,-6 14,-15 z m -177,-37 c 0,-36 -30,-74 -49,-62 -6,3 -11,26 -11,51 0,42 1,44 30,44 27,0 30,-3 30,-33 z m 631,-117 c 11,-51 -1,-160 -17,-160 -7,0 -16,5 -19,10 -10,15 -46,12 -67,-7 -28,-26 -22,-41 19,-45 48,-4 53,-24 8,-31 -55,-9 -140,8 -166,34 -22,22 -39,74 -31,97 2,7 27,24 55,38 51,24 70,34 105,54 9,6 27,14 40,20 12,5 22,14 22,20 0,6 10,10 22,8 16,-2 24,-12 29,-38 z m -627,4 c 3,-9 6,-33 6,-53 0,-30 -5,-40 -25,-51 -21,-11 -29,-11 -50,0 -21,11 -29,11 -51,0 -23,-13 -27,-12 -35,3 -6,9 -18,17 -27,17 -18,0 -52,33 -52,49 0,6 9,13 21,16 15,5 29,-1 48,-19 31,-30 41,-26 41,16 0,43 27,34 50,-17 26,-57 44,-60 35,-5 -4,21 -4,44 0,50 9,15 32,12 39,-6 z m -2953,-339 0,-306 -306,0 -306,0 0,305 c 0,168 1,307 1,309 0,1 138,1 306,0 l 305,-2 0,-306 z m 630,0 0,-306 -291,0 -291,0 0,305 c 0,168 1,307 1,309 0,1 131,1 291,0 l 290,-2 0,-306 z m 660,0 0,-306 -306,0 -306,0 0,305 c 0,168 1,307 1,309 0,1 138,1 306,0 l 305,-2 0,-306 z m 660,0 0,-306 -306,0 -306,0 0,305 c 0,168 1,307 1,309 0,1 138,1 306,0 l 305,-2 0,-306 z m 664,0 0,-307 -308,1 -308,0 0,305 c 0,169 1,307 1,309 0,1 138,1 308,1 l 307,-2 0,-307 z m 2606,0 0,-306 -308,0 -308,-1 -3,299 c -1,164 -1,302 2,308 2,6 111,9 310,8 l 307,-2 0,-306 z m 660,0 0,-306 -306,0 -306,0 0,305 c 0,168 1,307 1,309 0,1 138,1 306,0 l 305,-2 0,-306 z m 630,0 0,-306 -291,0 -291,0 0,305 c 0,168 1,307 1,309 0,1 131,1 291,0 l 290,-2 0,-306 z m -3497,259 c 17,-7 22,-34 6,-34 -5,0 -18,-9 -28,-20 -12,-13 -25,-18 -35,-14 -24,9 -21,25 10,51 30,26 26,25 47,17 z m 229,-61 c 6,-15 20,-36 29,-47 9,-12 28,-34 41,-50 23,-28 29,-30 91,-29 67,1 67,0 61,-24 -3,-14 -19,-36 -35,-50 -17,-14 -30,-31 -30,-38 0,-7 -17,-20 -37,-28 -36,-14 -38,-14 -46,6 -12,32 -1,45 39,49 38,3 56,21 31,31 -8,3 -42,3 -76,0 -56,-5 -62,-8 -60,-27 1,-12 -2,-29 -6,-39 -7,-17 -8,-17 -21,1 -7,11 -25,23 -39,26 -30,8 -32,21 -5,36 32,17 24,26 -40,50 -47,17 -62,28 -66,47 -6,23 -11,25 -43,19 -45,-7 -81,2 -81,20 0,18 32,34 69,34 20,0 35,7 43,20 11,17 24,20 91,20 74,0 78,-1 90,-27 z m 210,-296 c 7,-19 -57,-87 -82,-87 -17,0 -21,6 -21,33 0,24 7,36 28,49 33,20 68,22 75,5 z m -353,-22 c 7,-8 20,-15 30,-15 10,0 23,-13 30,-29 6,-16 18,-32 27,-35 35,-14 -5,-26 -82,-26 -84,0 -155,20 -155,44 0,5 14,25 32,43 25,26 40,33 69,33 20,0 42,-7 49,-15 z m 200,-4 c 5,-11 10,-31 10,-45 0,-23 -4,-26 -37,-25 -29,0 -43,7 -60,29 -43,54 -41,60 21,60 44,0 57,-4 66,-19 z m 290,-37 c 21,-21 22,-27 10,-34 -8,-5 -34,-10 -57,-10 -24,0 -43,-4 -43,-10 0,-5 24,-10 54,-10 54,0 83,-14 49,-24 -30,-8 -92,-11 -99,-4 -3,4 -42,4 -85,1 -68,-5 -79,-4 -79,10 0,12 12,17 47,19 39,2 49,7 51,23 11,60 109,86 152,39 z m -283,-69 c 2,-6 -11,-22 -29,-35 -31,-24 -40,-25 -151,-23 -188,3 -179,29 11,32 80,1 95,4 110,21 17,21 53,24 59,5 z M 821,485 l 0,-307 -302,1 c -166,0 -304,2 -306,4 -2,3 -6,578 -3,607 0,3 138,4 306,3 l 305,-2 0,-306 z m 630,0 0,-306 -291,0 -291,0 0,305 c 0,168 1,307 1,309 0,1 131,1 291,0 l 290,-2 0,-306 z m 660,0 0,-306 -306,0 -306,0 0,305 c 0,168 1,307 1,309 0,1 138,1 306,0 l 305,-2 0,-306 z m 660,0 0,-306 -306,0 -306,0 0,305 c 0,168 1,307 1,309 0,1 138,1 306,0 l 305,-2 0,-306 z m 660,0 0,-306 -306,0 -306,0 0,305 c 0,168 1,307 1,309 0,1 138,1 306,0 l 306,-1 -1,-307 z m 661,2 -1,-308 -306,0 -306,0 0,303 c 0,167 0,306 1,311 0,4 138,6 306,5 l 306,-3 0,-308 z m 629,0 0,-308 -291,0 -291,0 0,303 c 0,167 0,306 0,311 1,4 132,6 292,5 l 291,-3 -1,-308 z m 660,0 0,-308 -306,0 -306,0 0,303 c 0,167 0,306 1,311 0,4 138,6 306,5 l 306,-3 -1,-308 z m 660,-2 0,-306 -306,0 -306,0 0,303 c 0,167 0,305 1,308 0,3 138,4 306,3 l 305,-2 0,-306 z m 660,0 0,-306 -306,0 -306,0 0,305 c 0,168 1,307 1,309 0,1 138,1 306,0 l 305,-2 0,-306 z m 630,4 c 0,-166 -2,-304 -4,-306 -2,-2 -133,-4 -291,-4 l -287,-1 0,306 c 0,168 1,307 1,309 0,1 131,1 291,0 l 291,-2 -1,-302 z"
       id="path4411"
       inkscape:connector-curvature="0" />
    <path
       d="m 4080,2267 c 0,-7 5,-18 12,-25 9,-9 7,-16 -7,-32 -24,-26 -10,-54 28,-58 39,-5 56,33 28,59 -12,11 -21,25 -21,32 0,7 -9,18 -20,25 -16,10 -20,10 -20,-1 z"
       id="path4413"
       inkscape:connector-curvature="0" />
  </g>
  <path
     style="fill:#0000ff;fill-opacity:1;stroke:none"
     d="m 184.4959,155.67783 c -0.42501,-32.24548 -0.42664,-99.60508 -0.003,-108.87341 l 0.32632,-7.13309 33.13644,0 c 18.22505,0 34.51087,0.14365 36.19073,0.31923 l 3.05427,0.31924 -2.37,2.13084 c -1.30351,1.17196 -2.89437,3.25037 -3.53525,4.61868 l -1.16524,2.48784 -4.46307,0.33692 c -4.16851,0.31468 -4.66779,0.47608 -7.56497,2.44545 -3.877,2.6354 -7.08364,5.92235 -8.37,8.57962 -1.25463,2.59172 -1.80728,8.34212 -1.11249,11.57559 0.67119,3.12363 3.70162,8.32067 6.49439,11.13756 1.18017,1.19037 3.3201,2.70629 4.75539,3.36871 2.2042,1.01729 2.69402,1.49707 3.15293,3.08834 0.45544,1.57925 0.83031,1.95182 2.31797,2.30363 2.19632,0.51943 2.38135,1.34762 2.38916,10.69433 0.006,7.20355 -0.16929,8.17516 -1.47505,8.17516 -0.48009,0 -1.54449,0.23412 -2.36534,0.52028 -1.55466,0.54195 -2.9366,3.15292 -4.14305,7.82769 -0.84307,3.26676 -4.94771,6.19771 -9.63699,6.88138 -2.70468,0.39432 -4.39903,-0.26521 -4.39903,-1.71234 0,-0.71637 0.54687,-1.10239 2.12742,-1.50169 6.06867,-1.53316 7.74838,-2.80019 7.21226,-5.44028 -1.39138,-6.85177 -2.18336,-8.33471 -5.12454,-9.59545 -2.01774,-0.86491 -3.45249,-2.62791 -2.9031,-3.56729 0.10635,-0.18184 0.23023,-1.27153 0.27529,-2.42152 0.0919,-2.34489 -0.30536,-2.75149 -3.12933,-3.20306 -1.04749,-0.1675 -2.02839,-0.50498 -2.1798,-0.74995 -0.2756,-0.44594 1.68202,-5.05784 2.82741,-6.66103 0.91008,-1.27382 0.30992,-1.47373 -2.14927,-0.71591 -4.29766,1.32437 -6.31592,1.64593 -7.52344,1.19867 -1.98974,-0.73699 -5.54923,-0.59654 -8.33409,0.32885 -2.81155,0.93427 -3.62434,1.86911 -3.62434,4.16861 0,2.13388 -2.11205,6.12913 -4.96144,9.38529 -3.31348,3.78649 -4.60963,6.55095 -4.69048,10.00392 -0.0783,3.34424 0.69,4.31853 3.72872,4.72854 2.02703,0.27351 2.14654,0.38615 2.66312,2.51017 0.46222,1.90053 0.82947,2.35344 2.52617,3.11542 1.09193,0.49039 2.38659,0.89751 2.87703,0.90474 1.17108,0.0172 1.62362,1.2908 0.9691,2.72731 -0.37957,0.83307 -1.11183,1.24274 -2.66531,1.49116 -3.7086,0.59302 -6.68277,2.57063 -7.85737,5.22456 -0.56801,1.28339 -1.15995,2.93427 -1.31541,3.66864 -0.36064,1.70356 -3.08998,3.42018 -5.43792,3.42018 -3.61704,0 -5.17642,4.55508 -2.45269,7.16458 0.77217,0.73978 1.61688,1.34916 1.87713,1.35418 0.26025,0.005 1.46441,0.68077 2.67591,1.5017 1.21151,0.82092 2.81747,1.49259 3.56882,1.49259 1.0107,0 1.84344,0.58256 3.20108,2.23938 1.35202,1.64996 2.38896,2.3775 3.93969,2.76416 1.15759,0.28862 2.44258,0.74832 2.85555,1.02154 0.41297,0.27322 1.3703,0.7408 2.12741,1.03906 0.77725,0.30621 1.37656,0.92713 1.37656,1.42622 0,1.31851 -2.42152,3.49612 -5.31095,4.77598 -2.71692,1.20345 -4.68289,3.3694 -5.6324,6.20534 -0.83684,2.49944 -0.72892,3.00402 0.98494,4.60501 l 1.55464,1.45225 -7.47966,0 -7.47966,0 -0.33153,-25.15352 z"
     id="path5197"
     inkscape:connector-curvature="0" />
  <path
     style="fill:#0000ff;fill-opacity:1;stroke:none"
     d="m 219.95385,180.83135 c -0.20201,-0.32686 2.92575,-0.50057 9.01358,-0.50057 5.46929,0 9.72317,-0.21419 10.29118,-0.51818 1.63038,-0.87255 1.26925,-3.72687 -0.86331,-6.82325 -1.47165,-2.13676 -2.33167,-2.84587 -4.37685,-3.60878 -1.39992,-0.52223 -2.98145,-1.53365 -3.5145,-2.24761 -0.87302,-1.16931 -0.89816,-1.43252 -0.2534,-2.65263 0.39368,-0.74499 1.65659,-2.02022 2.80646,-2.83385 2.40181,-1.69947 4.38866,-5.56385 5.25283,-10.2166 0.29472,-1.58682 0.87201,-3.7103 1.28286,-4.71883 0.69906,-1.716 0.67665,-1.95697 -0.34921,-3.75425 -0.60291,-1.05631 -2.22961,-2.82158 -3.61489,-3.92283 -1.38527,-1.10125 -2.94248,-2.5971 -3.46046,-3.32412 l -0.94177,-1.32185 3.62424,-1.16836 c 1.99333,-0.64259 3.73687,-1.31155 3.87452,-1.48656 0.13766,-0.17502 0.92605,-0.69711 1.75199,-1.1602 0.82593,-0.46309 2.26709,-1.39554 3.20257,-2.07211 1.75243,-1.26743 3.55509,-1.62726 3.55509,-0.70963 0,0.28628 -0.45051,1.40359 -1.00113,2.4829 -0.55063,1.07931 -1.00114,2.15675 -1.00114,2.39431 0,0.23756 1.03065,2.04285 2.29033,4.01174 2.62273,4.09935 2.6099,4.38452 -0.36647,8.14992 -1.61313,2.04076 -2.02206,2.97544 -2.04784,4.68063 -0.0331,2.18955 0.34504,3.28893 1.13123,3.28893 0.49363,0 2.49672,-4.24415 2.49672,-5.29005 0,-0.36172 0.23513,-0.80298 0.52249,-0.98059 0.88247,-0.5454 1.91821,0.74808 2.35087,2.93589 0.25928,1.31114 0.68443,2.08334 1.14701,2.08334 0.9171,0 0.90129,-2.97763 -0.0308,-5.80189 -0.47619,-1.44286 -0.50145,-2.24065 -0.0975,-3.07852 0.49991,-1.03688 0.54808,-0.9748 0.57914,0.74618 0.0297,1.6477 0.18336,1.87713 1.25691,1.87713 0.68926,0 1.55663,-0.47627 1.98739,-1.09127 0.69598,-0.99364 0.67612,-1.23404 -0.2219,-2.68706 -0.54244,-0.87769 -0.98625,-1.9948 -0.98625,-2.48249 0,-0.48767 -0.64262,-1.93107 -1.42805,-3.20755 -0.78542,-1.27647 -1.58682,-3.37975 -1.7809,-4.67394 -0.19408,-1.29419 -0.56511,-2.48425 -0.82452,-2.64457 -0.85726,-0.52983 -0.49137,-1.25083 0.904,-1.78134 1.75992,-0.66912 3.12947,-1.90891 3.12947,-2.83297 0,-0.39751 0.37586,-1.51483 0.83525,-2.48292 0.66032,-1.39152 0.71273,-1.95633 0.25028,-2.69684 -0.32173,-0.51517 -0.58496,-1.93705 -0.58496,-3.15974 0,-1.89112 -0.23171,-2.4044 -1.55172,-3.43747 -1.28247,-1.00368 -1.46155,-1.37912 -1.03207,-2.16369 1.12228,-2.05014 2.08322,-6.0132 2.08322,-8.59147 l 0,-2.70845 1.57073,1.32169 c 2.03087,1.70886 3.51298,1.50611 4.10326,-0.56131 l 0.45145,-1.58118 7.07377,-0.17081 c 8.29411,-0.20028 9.27816,-0.60487 13.33877,-5.48419 3.03653,-3.64876 3.48977,-5.25131 3.49327,-12.35156 0.002,-4.6672 -0.17154,-5.99307 -0.99834,-7.61372 -0.55062,-1.07931 -1.00113,-2.18909 -1.00113,-2.46618 0,-0.27709 0.99484,-1.62395 2.21076,-2.99301 1.718,-1.93438 2.34536,-3.1375 2.81462,-5.39781 0.64817,-3.12205 0.34084,-9.65321 -0.56663,-12.04168 -0.9099,-2.39483 -4.2917,-6.4298 -6.75832,-8.06362 l -2.37718,-1.57458 5.34178,0 5.34177,0 0,70.83029 0,70.8303 -34.50961,0 c -22.46645,0 -34.61757,-0.17469 -34.81898,-0.50057 z"
     id="path5199"
     inkscape:connector-curvature="0" />
  <path
     style="fill:#800080;fill-opacity:1;stroke:none"
     d="m 247.70024,86.76035 c -4.15696,-0.8127 -10.61728,-5.5757 -13.18534,-9.72116 -2.79288,-4.50837 -3.6502,-11.68589 -1.76516,-14.77787 1.47405,-2.41784 6.34482,-6.91961 8.74279,-8.08045 1.15309,-0.5582 3.69977,-1.13053 5.83278,-1.31084 3.23694,-0.27362 4.2664,-0.14777 7.09785,0.8677 1.82148,0.65326 3.82126,1.57219 4.44394,2.04206 l 1.13215,0.85433 -1.62685,1.67892 c -1.89079,1.95133 -2.09974,3.82846 -0.75084,6.74511 1.05926,2.29039 1.47502,2.62739 3.25368,2.63729 1.84,0.0102 3.37883,-1.61284 3.37883,-3.56381 l 0,-1.56921 1.12628,1.43243 c 0.99053,1.25978 1.12126,1.9845 1.08461,6.01304 -0.0369,4.05847 -0.1995,4.84993 -1.42625,6.94322 -2.8877,4.92748 -8.84544,9.44395 -13.04854,9.89188 -1.37656,0.14671 -3.30703,0.10952 -4.28993,-0.0826 l 0,0 z"
     id="path5201"
     inkscape:connector-curvature="0" />
  <path
     style="fill:#800080;fill-opacity:1;stroke:none"
     d="m 279.11209,65.68321 c -1.84077,-1.44796 -5.13028,-2.7956 -8.48465,-3.47597 -2.60281,-0.52793 -2.982,-0.77156 -3.85045,-2.47386 -1.19316,-2.33878 -5.78395,-6.59702 -8.35869,-7.75319 -3.54507,-1.59189 -4.12118,-1.93433 -4.37734,-2.60187 -0.42611,-1.11041 4.44134,-5.96551 7.14802,-7.12989 4.64016,-1.99614 13.82821,-1.86169 16.14644,0.23628 0.8567,0.7753 0.82295,0.86538 -0.70985,1.89456 -1.87961,1.26204 -2.33463,3.43334 -1.18528,5.65595 0.41722,0.80679 0.61412,2.03917 0.45709,2.86067 -0.27468,1.43686 -0.26663,1.442 1.81827,1.16236 3.16017,-0.42387 4.55885,-1.54442 4.55885,-3.65234 0,-0.96609 -0.34084,-2.57227 -0.75742,-3.56929 -0.41658,-0.99702 -0.66779,-1.9024 -0.55824,-2.01195 0.42165,-0.42165 3.36279,3.6931 3.83019,5.35858 0.91399,3.25684 1.15077,8.25374 0.48848,10.3086 -0.6241,1.93639 -3.7008,6.21012 -4.47072,6.21012 -0.21975,0 -0.98237,-0.45844 -1.6947,-1.01876 z"
     id="path5203"
     inkscape:connector-curvature="0" />
  <path
     style="fill:#800080;fill-opacity:1;stroke:none"
     d=""
     id="path5205"
     inkscape:connector-curvature="0" />
  <path
     style="fill:#800080;fill-opacity:1;stroke:none"
     d="m 261.56749,94.17854 c -1.84949,-0.43438 -5.82306,-3.1089 -5.82306,-3.91937 0,-0.21225 2.15017,-1.7862 4.77815,-3.49767 7.05828,-4.59668 8.4275,-6.84969 9.43886,-15.53139 l 0.55666,-4.77842 1.80025,0.0506 c 1.15271,0.0324 2.65467,0.63844 4.17567,1.68492 l 2.37542,1.63434 -2.03406,0.91067 c -2.47682,1.10891 -2.91686,2.43002 -2.1282,6.38939 0.57126,2.86796 1.51143,4.09684 3.13433,4.09684 1.66051,0 3.57515,-1.22701 4.27708,-2.74099 0.66579,-1.43602 0.69068,-1.33877 0.48437,1.89187 -0.42186,6.60591 -4.72666,12.64273 -9.85875,13.82538 -2.68824,0.61948 -8.50617,0.61108 -11.17672,-0.0162 l 0,0 z"
     id="path5207"
     inkscape:connector-curvature="0" />
</svg>
