<?xml version="1.0" encoding="UTF-8"?>
<svg xmlns="http://www.w3.org/2000/svg" xmlns:xlink="http://www.w3.org/1999/xlink" width="399pt" height="204pt" viewBox="0 0 399 204" version="1.1">
<g id="surface1">
<path style=" stroke:none;fill-rule:nonzero;fill:rgb(0%,0%,0%);fill-opacity:1;" d="M 65.4375 6.753906 C 65.347656 7.0625 65.125 8.394531 64.992188 9.683594 C 64.816406 11.683594 62.511719 17.726562 58.34375 27.320312 C 57.988281 28.03125 57.191406 30.164062 56.523438 31.984375 C 55.859375 33.808594 54.617188 37.050781 53.820312 39.183594 C 52.976562 41.359375 52.3125 43.269531 52.3125 43.492188 C 52.3125 43.714844 51.914062 44.871094 51.382812 46.070312 C 50.453125 48.203125 49.433594 50.824219 46.152344 59.75 C 45.132812 62.417969 44.15625 65.039062 43.933594 65.527344 C 43.535156 66.460938 40.03125 75.65625 38.4375 79.964844 C 37.949219 81.296875 37.019531 83.785156 36.308594 85.519531 C 35.601562 87.207031 34.445312 90.226562 33.738281 92.183594 C 33.027344 94.136719 32.007812 96.847656 31.476562 98.179688 C 30.945312 99.511719 30.28125 101.421875 29.925781 102.398438 C 29.613281 103.378906 28.949219 105.152344 28.460938 106.398438 C 27.972656 107.597656 25.359375 114.527344 22.65625 121.726562 C 19.949219 128.921875 17.511719 135.230469 17.289062 135.71875 C 17.023438 136.207031 16.269531 138.207031 15.5625 140.160156 C 14.851562 142.117188 13.167969 146.691406 11.75 150.378906 C 10.375 154.023438 9.042969 157.53125 8.867188 158.152344 C 7.625 161.972656 5.277344 168.148438 4.832031 168.636719 C 4.566406 168.949219 4.433594 169.660156 4.523438 170.238281 L 4.65625 171.257812 L 42.691406 171.390625 L 80.730469 171.480469 L 99.617188 152.734375 C 121.074219 131.410156 128.125 124.300781 128.125 124.035156 C 128.125 123.945312 126.792969 121.324219 125.199219 118.214844 C 123.558594 115.148438 121.25 110.707031 120.011719 108.398438 C 118.8125 106.085938 117.171875 102.976562 116.375 101.511719 C 115 98.980469 112.074219 93.382812 105.644531 80.855469 C 104.050781 77.789062 102.101562 74.101562 101.300781 72.636719 C 100.503906 71.167969 98.820312 67.96875 97.535156 65.527344 C 92.566406 56.019531 89.820312 50.777344 88.753906 48.867188 C 88.179688 47.757812 85.960938 43.582031 83.878906 39.539062 C 81.796875 35.496094 78.027344 28.296875 75.457031 23.546875 C 69.691406 12.792969 68.984375 11.417969 67.875 8.664062 C 67.03125 6.53125 65.789062 5.554688 65.4375 6.753906 Z M 66.324219 18.792969 C 66.191406 19.28125 66.367188 20.082031 66.675781 20.613281 C 67.078125 21.191406 67.386719 23.765625 67.5625 27.320312 C 67.964844 35.453125 69.027344 51.355469 69.601562 56.863281 C 70.222656 63.261719 70.890625 70.992188 71.375 78.410156 C 71.597656 81.832031 71.996094 86.539062 72.261719 88.851562 C 72.53125 91.160156 72.796875 94.269531 72.882812 95.734375 C 73.105469 99.335938 73.902344 108.085938 74.480469 113.507812 C 75.589844 124.167969 75.675781 122.878906 74.035156 123.414062 C 72.484375 123.992188 72.441406 124.96875 73.949219 125.191406 C 74.4375 125.277344 75.054688 125.589844 75.324219 125.855469 C 75.542969 126.167969 75.988281 129.1875 76.253906 132.609375 C 76.476562 136.03125 76.917969 141.136719 77.140625 143.9375 C 77.40625 146.734375 77.761719 151.535156 78.027344 154.597656 C 78.25 157.664062 78.691406 161.839844 78.957031 163.839844 C 79.222656 165.925781 79.3125 167.703125 79.089844 167.925781 C 78.867188 168.148438 63.484375 168.414062 44.910156 168.59375 C 26.335938 168.726562 10.863281 168.902344 10.550781 169.039062 C 10.242188 169.171875 9.664062 169.039062 9.308594 168.816406 C 8.734375 168.460938 8.734375 168.238281 9.222656 167.484375 C 9.53125 166.949219 9.664062 166.148438 9.53125 165.707031 C 9.222656 164.726562 10.285156 161.441406 12.414062 156.597656 C 12.902344 155.488281 14.628906 150.957031 16.136719 146.824219 C 16.800781 145.09375 17.46875 143.316406 17.6875 142.828125 C 17.910156 142.339844 18.355469 141.136719 18.753906 140.160156 C 19.109375 139.183594 20.039062 136.785156 20.792969 134.832031 C 21.546875 132.875 22.167969 131.054688 22.167969 130.789062 C 22.167969 130.519531 22.699219 129.097656 23.320312 127.675781 C 23.941406 126.210938 25.980469 121.058594 27.796875 116.171875 C 29.613281 111.285156 31.742188 105.597656 32.585938 103.511719 C 33.382812 101.421875 34.714844 98.046875 35.464844 95.957031 C 36.265625 93.871094 37.152344 91.472656 37.460938 90.628906 C 37.816406 89.78125 38.613281 87.652344 39.234375 85.960938 C 39.898438 84.230469 41.097656 81.164062 41.894531 79.078125 C 42.691406 76.988281 44.332031 72.589844 45.574219 69.304688 C 46.816406 66.015625 48.945312 60.417969 50.273438 56.863281 C 51.648438 53.308594 52.757812 50.246094 52.757812 50.066406 C 52.757812 49.890625 53.113281 48.867188 53.597656 47.847656 C 54.839844 45.003906 60.738281 28.875 60.738281 28.253906 C 60.738281 28.078125 61.046875 27.1875 61.445312 26.300781 C 61.84375 25.367188 62.421875 23.988281 62.777344 23.191406 C 63.128906 22.390625 63.398438 21.457031 63.398438 21.144531 C 63.398438 20.789062 63.707031 20.300781 64.0625 19.992188 C 64.417969 19.679688 64.726562 19.015625 64.726562 18.4375 C 64.726562 17.902344 64.859375 17.324219 65.035156 17.191406 C 65.523438 16.660156 66.589844 17.902344 66.324219 18.792969 Z M 69.601562 17.726562 C 69.601562 18.167969 69.957031 19.015625 70.445312 19.589844 C 70.890625 20.167969 71.507812 21.414062 71.820312 22.390625 C 72.128906 23.324219 72.839844 24.789062 73.414062 25.675781 C 73.992188 26.523438 74.480469 27.675781 74.480469 28.210938 C 74.480469 28.742188 74.96875 29.585938 75.589844 30.121094 C 76.210938 30.652344 76.695312 31.496094 76.695312 32.03125 C 76.695312 33.050781 77.449219 34.652344 78.25 35.316406 C 78.558594 35.539062 79.003906 36.382812 79.222656 37.09375 C 79.488281 37.851562 80.199219 39.226562 80.863281 40.160156 C 81.484375 41.09375 82.015625 42.160156 82.015625 42.515625 C 82.015625 42.914062 82.503906 43.757812 83.125 44.515625 C 83.746094 45.226562 84.234375 46.203125 84.234375 46.644531 C 84.234375 47.136719 84.632812 47.847656 85.074219 48.289062 C 85.5625 48.734375 86.363281 50.199219 86.847656 51.578125 C 87.382812 52.953125 88.179688 54.421875 88.667969 54.863281 C 89.15625 55.308594 89.554688 56.109375 89.554688 56.640625 C 89.554688 57.175781 89.953125 57.976562 90.441406 58.417969 C 90.882812 58.820312 91.503906 59.929688 91.8125 60.816406 C 92.082031 61.707031 92.878906 63.351562 93.585938 64.460938 C 94.296875 65.570312 94.875 66.683594 94.875 66.902344 C 94.875 67.125 95.492188 68.191406 96.203125 69.304688 C 96.914062 70.414062 97.535156 71.65625 97.535156 72.058594 C 97.535156 72.457031 97.84375 73.125 98.199219 73.480469 C 98.597656 73.878906 99.308594 75.078125 99.792969 76.144531 C 100.28125 77.253906 100.859375 78.277344 101.035156 78.410156 C 101.257812 78.542969 101.789062 79.609375 102.234375 80.765625 C 102.675781 81.917969 103.386719 83.207031 103.828125 83.652344 C 104.273438 84.097656 104.625 84.941406 104.625 85.5625 C 104.625 86.183594 105.113281 87.117188 105.78125 87.738281 C 106.398438 88.316406 107.109375 89.5625 107.375 90.492188 C 107.597656 91.425781 108.171875 92.582031 108.617188 93.070312 C 109.058594 93.558594 109.636719 94.757812 109.902344 95.734375 C 110.167969 96.714844 110.746094 97.734375 111.230469 98.046875 C 111.675781 98.3125 112.164062 99.246094 112.339844 100.089844 C 112.472656 100.890625 113.09375 102.042969 113.671875 102.578125 C 114.246094 103.15625 114.867188 104.265625 115 105.109375 C 115.179688 105.910156 115.753906 107.152344 116.332031 107.820312 C 116.90625 108.484375 117.484375 109.640625 117.660156 110.351562 C 117.839844 111.0625 118.457031 112.261719 119.078125 112.972656 C 119.65625 113.683594 120.144531 114.617188 120.144531 115.0625 C 120.144531 115.550781 120.765625 116.617188 121.519531 117.460938 C 122.226562 118.304688 122.980469 119.726562 123.113281 120.613281 C 123.246094 121.457031 123.558594 122.300781 123.734375 122.433594 C 123.957031 122.570312 124.132812 123.011719 124.132812 123.414062 C 124.132812 124.035156 124.042969 123.992188 123.558594 123.28125 C 122.625 122.082031 121.871094 122.878906 122.003906 124.96875 C 122.09375 126.523438 121.917969 126.921875 120.808594 127.675781 C 119.789062 128.433594 117.617188 130.566406 113.136719 135.140625 C 112.960938 135.320312 112.117188 136.164062 111.277344 137.007812 C 110.433594 137.804688 109.546875 138.738281 109.28125 139.007812 C 107.152344 141.359375 92.96875 155.042969 92.65625 155.042969 C 92.433594 155.042969 91.859375 155.578125 91.460938 156.242188 C 90.792969 157.265625 86.539062 161.574219 83.746094 164.0625 C 83.347656 164.417969 82.902344 164.996094 82.769531 165.304688 C 82.636719 165.792969 82.460938 165.792969 82.015625 165.394531 C 81.617188 165.039062 81.484375 163.394531 81.527344 159.753906 C 81.574219 156.910156 81.394531 154.242188 81.175781 153.753906 C 80.910156 153.3125 80.597656 150.289062 80.464844 147.003906 C 80.289062 143.714844 79.976562 140.160156 79.753906 139.09375 C 79.535156 138.074219 79.3125 135.539062 79.269531 133.585938 C 79.269531 131.585938 79.046875 129.367188 78.824219 128.609375 C 78.601562 127.898438 78.292969 125.054688 78.203125 122.390625 C 78.070312 119.679688 77.671875 115.816406 77.316406 113.773438 C 77.007812 111.730469 76.695312 107.953125 76.695312 105.332031 C 76.695312 102.53125 76.429688 99.644531 76.03125 98.179688 C 75.589844 96.667969 75.367188 94.136719 75.410156 91.515625 C 75.457031 89.117188 75.277344 86.761719 74.96875 86.007812 C 74.65625 85.207031 74.480469 82.363281 74.523438 78.453125 C 74.570312 73.523438 74.4375 71.925781 73.859375 70.859375 C 73.328125 69.835938 73.148438 68.191406 73.148438 63.972656 C 73.148438 60.507812 72.882812 57.484375 72.484375 55.976562 C 72.128906 54.644531 71.820312 51.621094 71.820312 49.3125 C 71.820312 47 71.597656 44.292969 71.289062 43.316406 C 71.023438 42.335938 70.757812 39.226562 70.710938 36.382812 C 70.667969 33.539062 70.488281 31.007812 70.3125 30.742188 C 70.136719 30.429688 69.78125 28.078125 69.558594 25.457031 C 69.292969 22.789062 68.984375 19.8125 68.851562 18.746094 C 68.714844 17.546875 68.804688 16.882812 69.117188 16.882812 C 69.382812 16.882812 69.601562 17.238281 69.601562 17.726562 Z M 69.601562 17.726562 "/>
<path style=" stroke:none;fill-rule:nonzero;fill:rgb(0%,0%,0%);fill-opacity:1;" d="M 63.574219 29.007812 C 63.441406 29.410156 63.441406 30.121094 63.617188 30.519531 C 63.882812 31.230469 63.972656 31.230469 64.417969 30.296875 C 64.726562 29.585938 64.726562 29.144531 64.371094 28.789062 C 64.015625 28.433594 63.796875 28.476562 63.574219 29.007812 Z M 63.574219 29.007812 "/>
<path style=" stroke:none;fill-rule:nonzero;fill:rgb(0%,0%,0%);fill-opacity:1;" d="M 62.554688 33.851562 C 62.554688 34.652344 62.464844 35.851562 62.289062 36.515625 C 61.976562 37.628906 62.066406 37.761719 63.128906 37.761719 C 64.148438 37.761719 64.238281 37.582031 64.238281 36.074219 C 64.195312 35.183594 64.238281 34.03125 64.328125 33.539062 C 64.460938 32.875 64.238281 32.609375 63.484375 32.519531 C 62.644531 32.386719 62.511719 32.5625 62.554688 33.851562 Z M 62.554688 33.851562 "/>
<path style=" stroke:none;fill-rule:nonzero;fill:rgb(0%,0%,0%);fill-opacity:1;" d="M 61.933594 39.136719 C 61.402344 39.449219 61.269531 39.9375 61.445312 40.828125 C 61.578125 41.539062 61.492188 42.46875 61.269531 42.960938 C 60.691406 44.023438 61.269531 45.003906 62.332031 44.78125 C 62.953125 44.691406 63.175781 44.246094 63.175781 43.226562 C 63.175781 42.46875 63.308594 41.671875 63.53125 41.492188 C 64.0625 40.960938 63.882812 39.226562 63.261719 38.960938 C 62.953125 38.828125 62.332031 38.917969 61.933594 39.136719 Z M 61.933594 39.136719 "/>
<path style=" stroke:none;fill-rule:nonzero;fill:rgb(0%,0%,0%);fill-opacity:1;" d="M 60.824219 45.890625 C 60.515625 46.203125 60.425781 47.136719 60.558594 48.066406 C 60.738281 48.957031 60.648438 49.757812 60.382812 49.933594 C 60.117188 50.066406 60.027344 50.601562 60.160156 51.042969 C 60.292969 51.488281 60.160156 52.023438 59.894531 52.15625 C 59.273438 52.554688 59.273438 54.953125 59.894531 55.355469 C 60.25 55.574219 60.160156 55.796875 59.671875 56.066406 C 59.273438 56.285156 58.964844 56.953125 59.007812 57.664062 C 59.050781 58.332031 58.917969 59.484375 58.742188 60.242188 C 58.5625 61.128906 58.609375 61.75 58.964844 61.972656 C 59.316406 62.195312 59.273438 62.460938 58.785156 63.039062 C 58.386719 63.484375 58.03125 64.859375 57.945312 66.414062 C 57.855469 67.882812 57.542969 69.523438 57.277344 70.058594 C 56.925781 70.726562 56.878906 71.390625 57.191406 72.144531 C 57.457031 72.945312 57.457031 73.300781 57.144531 73.300781 C 56.878906 73.300781 56.703125 73.835938 56.789062 74.5 C 56.835938 75.210938 56.65625 76.324219 56.347656 77.03125 C 55.90625 78.097656 55.949219 78.453125 56.570312 79.121094 C 57.234375 79.875 57.234375 79.964844 56.570312 80.230469 C 56.125 80.410156 55.90625 80.941406 55.949219 81.699219 C 55.992188 82.320312 55.769531 83.296875 55.503906 83.832031 C 54.75 85.207031 55.285156 86.273438 56.703125 86.097656 C 57.765625 85.960938 57.898438 85.742188 58.210938 83.386719 C 58.476562 81.609375 58.429688 80.585938 58.078125 80.1875 C 57.722656 79.742188 57.765625 79.519531 58.253906 79.210938 C 58.699219 78.988281 58.964844 77.878906 59.140625 75.96875 C 59.230469 74.367188 59.449219 72.722656 59.628906 72.28125 C 59.804688 71.835938 59.851562 70.902344 59.71875 70.234375 C 59.539062 69.390625 59.671875 68.769531 60.070312 68.414062 C 60.558594 68.015625 60.605469 67.660156 60.292969 67.082031 C 60.027344 66.59375 60.027344 66.148438 60.25 66.015625 C 60.425781 65.882812 60.738281 64.371094 60.914062 62.683594 C 61.046875 60.953125 61.402344 59.039062 61.710938 58.417969 C 62.109375 57.53125 62.109375 57.042969 61.710938 56.417969 C 61.402344 55.886719 61.355469 55.488281 61.625 55.308594 C 61.890625 55.175781 62.066406 54.289062 62.066406 53.398438 C 62.066406 52.511719 62.242188 51.445312 62.464844 51.132812 C 62.730469 50.734375 62.730469 50.15625 62.464844 49.621094 C 62.15625 49.089844 62.15625 48.601562 62.511719 48.203125 C 63.21875 47.355469 62.910156 45.582031 62.023438 45.402344 C 61.625 45.359375 61.089844 45.535156 60.824219 45.890625 Z M 60.824219 45.890625 "/>
<path style=" stroke:none;fill-rule:nonzero;fill:rgb(0%,0%,0%);fill-opacity:1;" d="M 55.503906 87.160156 C 55.195312 87.472656 54.972656 88.273438 54.972656 88.984375 C 54.972656 89.648438 54.75 90.628906 54.484375 91.117188 C 54.175781 91.738281 54.175781 92.183594 54.484375 92.582031 C 54.796875 92.980469 54.796875 93.292969 54.484375 93.605469 C 54.175781 93.914062 53.953125 95.378906 53.863281 96.933594 C 53.820312 98.492188 53.554688 100.179688 53.289062 100.710938 C 52.578125 102.042969 52.625 102.933594 53.464844 103.421875 C 54.132812 103.777344 54.132812 103.867188 53.464844 104.089844 C 52.976562 104.265625 52.757812 104.933594 52.757812 106.085938 C 52.757812 107.019531 52.535156 107.996094 52.269531 108.265625 C 51.957031 108.574219 51.914062 109.019531 52.226562 109.597656 C 52.535156 110.128906 52.535156 110.707031 52.226562 111.195312 C 52.003906 111.640625 51.871094 112.441406 51.957031 112.972656 C 52.003906 113.507812 51.871094 114.261719 51.648438 114.617188 C 51.117188 115.460938 50.984375 120.347656 51.472656 120.660156 C 51.691406 120.792969 52.269531 120.792969 52.710938 120.613281 C 53.332031 120.4375 53.554688 119.902344 53.597656 118.703125 C 53.597656 116.972656 53.863281 114.394531 54.085938 113.816406 C 54.175781 113.640625 54.308594 112.707031 54.351562 111.730469 C 54.53125 109.195312 54.75 107.863281 55.152344 106.929688 C 55.371094 106.488281 55.417969 105.554688 55.285156 104.84375 C 55.105469 104.132812 55.195312 103.421875 55.417969 103.289062 C 55.683594 103.15625 55.859375 102.265625 55.859375 101.378906 C 55.90625 98.445312 56.082031 97.070312 56.480469 96.445312 C 56.703125 96.136719 56.878906 94.625 56.925781 93.070312 C 56.925781 91.558594 57.234375 90.003906 57.542969 89.648438 C 57.945312 89.160156 57.988281 88.628906 57.632812 87.785156 C 57.191406 86.539062 56.347656 86.316406 55.503906 87.160156 Z M 55.503906 87.160156 "/>
<path style=" stroke:none;fill-rule:nonzero;fill:rgb(0%,0%,0%);fill-opacity:1;" d="M 50.894531 121.769531 C 50.453125 121.992188 50.007812 122.925781 49.832031 123.769531 C 49.652344 124.65625 49.210938 125.457031 48.8125 125.632812 C 47.835938 125.988281 44.777344 129.054688 44.777344 129.675781 C 44.777344 129.945312 44.199219 130.433594 43.445312 130.832031 C 42.738281 131.230469 42.117188 131.808594 42.117188 132.164062 C 42.117188 132.519531 41.671875 133.007812 41.1875 133.320312 C 40.652344 133.585938 38.96875 135.140625 37.371094 136.785156 C 33.828125 140.472656 34.226562 140.074219 32.097656 142.070312 C 31.121094 142.960938 30.058594 144.160156 29.746094 144.738281 C 29.480469 145.269531 28.949219 145.714844 28.550781 145.714844 C 28.195312 145.714844 27.664062 146.203125 27.398438 146.824219 C 27.132812 147.445312 26.734375 147.933594 26.554688 147.933594 C 26.199219 147.933594 24.339844 149.800781 17.644531 156.777344 C 16.226562 158.242188 15.074219 159.664062 15.074219 159.929688 C 15.074219 160.152344 14.761719 160.375 14.410156 160.375 C 14.007812 160.375 13.476562 160.90625 13.167969 161.574219 C 12.902344 162.285156 12.234375 163.171875 11.75 163.574219 C 11.082031 164.152344 10.996094 164.417969 11.394531 164.816406 C 12.058594 165.527344 12.855469 164.996094 12.855469 163.882812 C 12.855469 163.261719 13.167969 163.039062 13.964844 163.039062 C 14.761719 163.039062 15.207031 162.730469 15.515625 161.972656 C 15.738281 161.351562 16.359375 160.820312 16.933594 160.730469 C 17.601562 160.640625 18 160.242188 18.089844 159.621094 C 18.175781 159.042969 18.707031 158.507812 19.550781 158.199219 C 20.261719 157.976562 20.835938 157.488281 20.835938 157.132812 C 20.835938 156.777344 21.148438 156.375 21.5 156.199219 C 21.855469 156.066406 22.386719 155.445312 22.699219 154.820312 C 22.964844 154.199219 23.453125 153.710938 23.761719 153.710938 C 24.117188 153.710938 24.695312 153.175781 25.136719 152.554688 C 25.535156 151.933594 26.335938 151.222656 26.910156 151 C 27.53125 150.777344 27.929688 150.246094 27.929688 149.710938 C 27.929688 149.089844 28.242188 148.824219 28.859375 148.824219 C 29.480469 148.824219 29.925781 148.378906 30.28125 147.492188 C 30.589844 146.691406 31.121094 146.160156 31.566406 146.160156 C 32.054688 146.160156 32.585938 145.667969 32.808594 145.003906 C 33.074219 144.382812 33.648438 143.757812 34.136719 143.625 C 34.625 143.492188 35.023438 143.226562 35.023438 143.003906 C 35.023438 142.515625 38.925781 138.605469 39.457031 138.605469 C 39.679688 138.605469 39.988281 138.207031 40.121094 137.671875 C 40.300781 137.183594 40.917969 136.605469 41.496094 136.386719 C 42.117188 136.117188 42.558594 135.585938 42.558594 135.097656 C 42.558594 134.5625 43.046875 134.074219 43.890625 133.765625 C 44.777344 133.453125 45.21875 133.007812 45.21875 132.429688 C 45.21875 131.765625 45.484375 131.5 46.152344 131.5 C 46.726562 131.5 47.171875 131.054688 47.480469 130.253906 C 47.703125 129.589844 48.324219 128.832031 48.898438 128.609375 C 49.433594 128.34375 49.917969 127.722656 50.007812 127.1875 C 50.140625 126.433594 50.539062 126.121094 51.78125 125.945312 C 55.0625 125.367188 55.371094 124.703125 53.246094 122.570312 C 51.78125 121.101562 51.914062 121.148438 50.894531 121.769531 Z M 50.894531 121.769531 "/>
<path style=" stroke:none;fill-rule:nonzero;fill:rgb(0%,0%,0%);fill-opacity:1;" d="M 59.628906 122.96875 C 59.496094 123.101562 58.609375 123.191406 57.632812 123.144531 C 56.304688 123.058594 55.816406 123.234375 55.460938 123.902344 C 55.105469 124.523438 55.152344 124.878906 55.550781 125.191406 C 56.214844 125.765625 68.628906 125.765625 68.984375 125.191406 C 69.117188 124.96875 69.515625 125.011719 69.871094 125.324219 C 70.710938 126.035156 71.820312 125.5 71.820312 124.390625 C 71.820312 123.28125 70.710938 122.746094 69.871094 123.457031 C 69.425781 123.855469 69.160156 123.855469 68.9375 123.5 C 68.761719 123.234375 67.785156 123.058594 66.675781 123.101562 C 65.613281 123.191406 64.59375 123.101562 64.460938 122.925781 C 64.285156 122.789062 63.839844 122.835938 63.398438 123.058594 C 62.953125 123.324219 62.066406 123.324219 61.269531 123.101562 C 60.515625 122.878906 59.804688 122.835938 59.628906 122.96875 Z M 59.628906 122.96875 "/>
<path style=" stroke:none;fill-rule:nonzero;fill:rgb(0%,0%,0%);fill-opacity:1;" d="M 90.308594 76.722656 C 89.820312 77.167969 89.953125 78.632812 90.441406 78.632812 C 90.707031 78.632812 90.882812 78.144531 90.882812 77.523438 C 90.882812 76.367188 90.792969 76.234375 90.308594 76.722656 Z M 90.308594 76.722656 "/>
<path style=" stroke:none;fill-rule:nonzero;fill:rgb(0%,0%,0%);fill-opacity:1;" d="M 90.308594 93.914062 C 90.039062 94.625 90.394531 95.160156 90.925781 94.804688 C 91.460938 94.492188 91.414062 93.292969 90.925781 93.292969 C 90.707031 93.292969 90.441406 93.558594 90.308594 93.914062 Z M 90.308594 93.914062 "/>
<path style=" stroke:none;fill-rule:nonzero;fill:rgb(0%,0%,0%);fill-opacity:1;" d="M 98.332031 109.550781 C 98.242188 110.664062 98.332031 111.683594 98.507812 111.773438 C 98.730469 111.90625 98.863281 110.972656 98.863281 109.773438 C 98.863281 106.929688 98.554688 106.84375 98.332031 109.550781 Z M 98.332031 109.550781 "/>
<path style=" stroke:none;fill-rule:nonzero;fill:rgb(0%,0%,0%);fill-opacity:1;" d="M 103.738281 115.726562 C 103.738281 116.082031 103.960938 116.394531 104.183594 116.394531 C 104.449219 116.394531 104.625 116.082031 104.625 115.726562 C 104.625 115.371094 104.449219 115.0625 104.183594 115.0625 C 103.960938 115.0625 103.738281 115.371094 103.738281 115.726562 Z M 103.738281 115.726562 "/>
<path style=" stroke:none;fill-rule:nonzero;fill:rgb(0%,0%,0%);fill-opacity:1;" d="M 83.035156 123.058594 C 82.949219 123.191406 82.105469 123.28125 81.21875 123.28125 C 79.886719 123.28125 79.535156 123.457031 79.445312 124.257812 C 79.3125 125.144531 79.535156 125.234375 82.546875 125.5 C 86.316406 125.855469 109.8125 125.546875 110.210938 125.144531 C 110.390625 124.96875 110.878906 125.054688 111.320312 125.324219 C 111.941406 125.632812 112.472656 125.546875 113.273438 125.011719 C 114.335938 124.300781 114.46875 124.300781 115.265625 125.054688 C 116.066406 125.765625 116.109375 125.765625 116.640625 124.878906 C 117.171875 124.035156 117.304688 124.035156 118.015625 124.703125 C 118.859375 125.457031 120.011719 125.234375 120.453125 124.125 C 120.808594 123.144531 119.789062 122.613281 118.457031 123.101562 C 117.882812 123.324219 117.171875 123.367188 116.90625 123.191406 C 116.332031 122.789062 83.433594 122.703125 83.035156 123.058594 Z M 83.035156 123.058594 "/>
<path style=" stroke:none;fill-rule:nonzero;fill:rgb(0%,0%,0%);fill-opacity:1;" d="M 91.328125 133.054688 C 91.328125 133.453125 91.546875 133.71875 91.8125 133.628906 C 92.082031 133.542969 92.300781 133.273438 92.300781 133.054688 C 92.300781 132.832031 92.082031 132.566406 91.8125 132.476562 C 91.546875 132.386719 91.328125 132.652344 91.328125 133.054688 Z M 91.328125 133.054688 "/>
<path style=" stroke:none;fill-rule:nonzero;fill:rgb(0%,0%,0%);fill-opacity:1;" d="M 222.640625 30.386719 C 222.242188 30.609375 221.269531 31.320312 220.515625 31.941406 C 219.761719 32.5625 218.742188 33.40625 218.296875 33.761719 C 216.390625 35.316406 208.898438 41.492188 207.035156 43.09375 C 202.601562 46.824219 196.441406 51.933594 192.851562 54.820312 C 190.765625 56.507812 187.796875 58.996094 186.199219 60.375 C 184.605469 61.796875 181.679688 64.195312 179.636719 65.75 L 175.960938 68.546875 L 176.09375 107.242188 C 176.179688 128.523438 176.402344 146.203125 176.578125 146.515625 C 176.890625 147.003906 192.9375 147.089844 263.03125 147.003906 L 349.035156 146.957031 L 352.007812 144.425781 C 353.648438 143.046875 356.839844 140.425781 359.101562 138.605469 C 361.359375 136.785156 365.839844 133.097656 369.03125 130.476562 C 375.8125 124.878906 375.28125 125.324219 380.023438 121.414062 C 382.066406 119.769531 386.1875 116.394531 389.113281 113.949219 L 394.523438 109.507812 L 394.609375 79.078125 C 394.65625 62.328125 394.609375 45.226562 394.566406 41.046875 C 394.476562 34.742188 394.609375 33.183594 395.1875 32.03125 C 395.585938 31.273438 395.808594 30.429688 395.628906 30.164062 C 395.277344 29.585938 223.75 29.808594 222.640625 30.386719 Z M 352.226562 32.875 C 355.421875 32.875 365.039062 32.832031 373.6875 32.785156 C 390.3125 32.652344 391.417969 32.785156 388.269531 34.5625 C 387.472656 35.050781 386.230469 35.941406 385.476562 36.605469 C 379.136719 42.160156 375.015625 45.625 373.507812 46.734375 C 370.847656 48.691406 368.367188 50.734375 367.078125 51.976562 C 366.460938 52.597656 365.21875 53.578125 364.332031 54.152344 C 363.398438 54.6875 362.648438 55.355469 362.648438 55.574219 C 362.648438 55.84375 362.070312 56.242188 361.316406 56.464844 C 360.605469 56.730469 359.898438 57.308594 359.765625 57.796875 C 359.585938 58.285156 358.921875 58.953125 358.214844 59.308594 C 357.015625 59.929688 356.21875 60.550781 352.894531 63.617188 C 349.167969 67.039062 348.726562 67.214844 344.027344 66.859375 C 341.722656 66.683594 338.128906 66.546875 336.046875 66.59375 C 333.964844 66.683594 330.371094 66.683594 328.066406 66.683594 C 325.761719 66.683594 319.777344 66.683594 314.765625 66.726562 C 309.757812 66.726562 303.773438 66.726562 301.464844 66.683594 C 297.785156 66.683594 287.546875 66.683594 280.851562 66.726562 C 279.65625 66.769531 275.53125 66.769531 271.761719 66.726562 C 267.996094 66.726562 263.382812 66.726562 261.566406 66.726562 C 259.75 66.769531 255.757812 66.769531 252.699219 66.726562 C 249.640625 66.726562 242.371094 66.726562 236.519531 66.769531 C 226.855469 66.859375 225.699219 66.816406 224.105469 66.015625 C 222.375 65.171875 222.375 65.171875 223.308594 64.550781 C 224.105469 64.015625 224.238281 63.707031 223.839844 62.996094 C 223.574219 62.507812 223.527344 61.796875 223.707031 61.394531 C 223.972656 60.773438 224.238281 57.308594 224.328125 53.089844 C 224.328125 52.597656 224.328125 51.445312 224.328125 50.46875 C 224.371094 49.355469 224.105469 48.601562 223.617188 48.203125 C 222.90625 47.667969 222.90625 47.625 223.792969 47.355469 C 225.035156 46.957031 225.035156 46.425781 223.839844 45.582031 L 222.90625 44.957031 L 223.792969 44.378906 C 224.546875 43.890625 224.636719 43.625 224.238281 42.914062 C 223.972656 42.382812 223.527344 41.847656 223.261719 41.625 C 222.953125 41.402344 223.039062 41.09375 223.574219 40.695312 C 224.503906 39.984375 224.546875 39.359375 223.660156 38.648438 C 222.375 37.582031 221.710938 38.828125 221.84375 42.113281 C 221.886719 43.757812 221.753906 45.359375 221.488281 45.667969 C 221.179688 46.070312 221.222656 46.558594 221.621094 47.179688 C 222.019531 47.847656 222.066406 48.203125 221.710938 48.554688 C 220.957031 49.3125 221.132812 51 222.019531 51.488281 C 222.730469 51.933594 222.730469 51.933594 222.019531 51.976562 C 220.734375 51.976562 220.601562 52.953125 221.710938 53.796875 C 222.597656 54.464844 222.6875 54.730469 222.289062 55.398438 C 221.976562 55.886719 221.84375 58.109375 221.886719 60.953125 C 221.933594 63.527344 221.800781 65.925781 221.621094 66.28125 C 221.3125 66.726562 217.589844 66.859375 202.382812 66.859375 C 192.007812 66.859375 183.539062 66.726562 183.539062 66.59375 C 183.539062 66.148438 185.667969 63.972656 186.113281 63.972656 C 186.332031 63.972656 187.132812 63.351562 187.882812 62.640625 C 188.683594 61.882812 189.613281 61.304688 189.96875 61.304688 C 190.367188 61.304688 190.855469 60.816406 191.164062 60.242188 C 191.429688 59.617188 192.183594 58.90625 192.894531 58.640625 C 193.558594 58.332031 194.445312 57.621094 194.84375 57.042969 C 195.199219 56.464844 195.910156 55.976562 196.398438 55.976562 C 196.929688 55.976562 197.460938 55.53125 197.683594 54.953125 C 197.902344 54.421875 198.65625 53.664062 199.324219 53.308594 C 200.03125 52.953125 201.230469 52.066406 201.984375 51.3125 C 202.738281 50.601562 204.023438 49.445312 204.863281 48.777344 C 205.707031 48.113281 206.859375 47.136719 207.480469 46.601562 C 208.101562 46.070312 209.652344 44.871094 210.9375 43.890625 C 212.222656 42.914062 213.421875 41.847656 213.554688 41.492188 C 213.6875 41.136719 214.617188 40.382812 215.636719 39.761719 C 216.613281 39.183594 217.722656 38.292969 218.03125 37.761719 C 218.339844 37.273438 218.828125 36.871094 219.09375 36.871094 C 219.40625 36.871094 220.292969 36.25 221.089844 35.453125 C 221.886719 34.695312 222.6875 34.207031 222.863281 34.386719 C 223.039062 34.5625 222.90625 34.875 222.597656 35.050781 C 221.800781 35.539062 222.332031 37.761719 223.21875 37.761719 C 223.707031 37.761719 223.882812 37.226562 223.882812 35.761719 C 223.882812 34.339844 224.105469 33.675781 224.679688 33.363281 C 225.523438 32.917969 252.035156 32.964844 252.523438 33.453125 C 252.699219 33.585938 253.144531 33.585938 253.542969 33.363281 C 253.941406 33.183594 269.679688 32.964844 288.566406 32.964844 C 307.453125 32.917969 322.925781 32.832031 323.011719 32.785156 C 323.058594 32.695312 328.378906 32.695312 334.804688 32.742188 C 341.234375 32.785156 349.082031 32.832031 352.226562 32.875 Z M 392.085938 36.25 C 392.21875 36.605469 392.171875 38.25 391.949219 39.894531 C 391.773438 41.539062 391.640625 56.953125 391.730469 74.191406 C 391.773438 91.425781 391.730469 106.085938 391.597656 106.796875 C 391.375 107.953125 391.242188 108.042969 389.867188 107.820312 C 388.09375 107.507812 387.25 108.484375 388.09375 109.820312 C 388.625 110.75 389.023438 110.351562 382.285156 115.859375 C 380.292969 117.503906 377.585938 119.636719 376.34375 120.613281 C 375.058594 121.589844 373.375 123.058594 372.578125 123.8125 C 371.78125 124.613281 370.9375 125.277344 370.714844 125.277344 C 370.492188 125.277344 369.429688 126.078125 368.367188 127.054688 C 365.261719 129.898438 364.464844 130.566406 363.265625 131.363281 C 362.601562 131.765625 361.539062 132.609375 360.828125 133.230469 C 360.121094 133.851562 358.699219 135.097656 357.726562 135.941406 C 356.707031 136.785156 354.976562 138.339844 353.867188 139.40625 C 352.714844 140.425781 351.609375 141.226562 351.339844 141.136719 C 351.074219 141.050781 350.898438 135.808594 350.898438 125.589844 C 350.898438 112.261719 350.988281 110.128906 351.5625 109.953125 C 352.671875 109.640625 357.148438 109.550781 357.636719 109.863281 C 357.902344 110.039062 358.65625 109.996094 359.277344 109.730469 C 360.121094 109.417969 360.695312 109.464844 361.316406 109.820312 C 361.980469 110.261719 362.292969 110.261719 362.691406 109.863281 C 363.046875 109.507812 363.535156 109.464844 364.332031 109.773438 C 365.839844 110.351562 366.636719 109.996094 366.636719 108.664062 C 366.636719 107.242188 366.105469 106.929688 364.640625 107.507812 C 363.753906 107.863281 363.265625 107.820312 362.78125 107.417969 C 362.292969 107.019531 361.9375 107.019531 361.359375 107.375 C 360.917969 107.6875 360.296875 107.730469 359.988281 107.507812 C 359.367188 107.109375 354.667969 107.285156 353.246094 107.773438 C 352.804688 107.910156 352.09375 107.820312 351.695312 107.554688 C 350.941406 107.152344 350.898438 105.820312 350.898438 88.09375 L 350.898438 69.035156 L 352.804688 67.527344 C 353.824219 66.683594 355.332031 65.304688 356.085938 64.503906 C 356.839844 63.75 357.679688 63.082031 357.992188 63.082031 C 358.257812 63.082031 359.054688 62.460938 359.808594 61.707031 C 360.960938 60.460938 365.394531 56.910156 368.941406 54.332031 C 369.652344 53.796875 371.734375 52.023438 373.507812 50.421875 C 375.28125 48.824219 376.964844 47.535156 377.230469 47.535156 C 377.5 47.535156 378.03125 47.046875 378.429688 46.425781 C 378.828125 45.847656 379.449219 45.226562 379.847656 45.089844 C 380.292969 45.003906 381.886719 43.667969 383.484375 42.160156 C 385.078125 40.695312 386.851562 39.226562 387.472656 38.871094 C 388.09375 38.5625 389.023438 37.671875 389.601562 36.917969 C 390.710938 35.40625 391.640625 35.140625 392.085938 36.25 Z M 221.710938 70.457031 C 222.375 71.257812 223.617188 71.257812 224.328125 70.414062 C 224.8125 69.835938 232.085938 69.746094 286.347656 69.835938 L 347.796875 69.96875 L 347.929688 88.363281 C 348.015625 104.578125 347.929688 106.886719 347.308594 107.820312 C 346.6875 108.839844 346.6875 108.976562 347.308594 109.683594 C 347.929688 110.351562 348.015625 112.574219 348.015625 126.96875 C 348.015625 136.03125 347.882812 143.539062 347.707031 143.625 C 347.484375 143.757812 310.113281 143.9375 264.582031 143.980469 C 198.789062 144.113281 181.679688 144.027344 181.277344 143.582031 C 180.96875 143.316406 180.4375 143.046875 180.171875 143.046875 C 179.859375 143.046875 179.503906 142.871094 179.328125 142.605469 C 179.019531 142.117188 178.972656 70.726562 179.328125 70.234375 C 179.417969 70.015625 188.90625 69.835938 200.386719 69.835938 C 217.632812 69.835938 221.269531 69.96875 221.710938 70.457031 Z M 221.710938 70.457031 "/>
<path style=" stroke:none;fill-rule:nonzero;fill:rgb(0%,0%,0%);fill-opacity:1;" d="M 257.84375 38.074219 C 257.355469 38.5625 257.578125 39.09375 258.242188 39.09375 C 258.597656 39.09375 258.90625 38.917969 258.90625 38.695312 C 258.90625 38.117188 258.199219 37.71875 257.84375 38.074219 Z M 257.84375 38.074219 "/>
<path style=" stroke:none;fill-rule:nonzero;fill:rgb(0%,0%,0%);fill-opacity:1;" d="M 277.617188 38.160156 C 277.792969 38.738281 278.414062 38.871094 278.457031 38.339844 C 278.457031 38.160156 278.234375 37.9375 277.96875 37.804688 C 277.660156 37.71875 277.480469 37.894531 277.617188 38.160156 Z M 277.617188 38.160156 "/>
<path style=" stroke:none;fill-rule:nonzero;fill:rgb(0%,0%,0%);fill-opacity:1;" d="M 329.839844 39.539062 C 329.839844 40.382812 329.972656 40.472656 330.371094 40.070312 C 330.769531 39.671875 330.769531 39.40625 330.371094 39.003906 C 329.972656 38.605469 329.839844 38.695312 329.839844 39.539062 Z M 329.839844 39.539062 "/>
<path style=" stroke:none;fill-rule:nonzero;fill:rgb(0%,0%,0%);fill-opacity:1;" d="M 244.71875 39.761719 C 244.71875 40.117188 244.941406 40.425781 245.164062 40.425781 C 245.429688 40.425781 245.605469 40.117188 245.605469 39.761719 C 245.605469 39.40625 245.429688 39.09375 245.164062 39.09375 C 244.941406 39.09375 244.71875 39.40625 244.71875 39.761719 Z M 244.71875 39.761719 "/>
<path style=" stroke:none;fill-rule:nonzero;fill:rgb(0%,0%,0%);fill-opacity:1;" d="M 306.785156 39.714844 C 306.785156 40.117188 307.097656 40.425781 307.496094 40.425781 C 308.25 40.425781 308.117188 39.449219 307.320312 39.183594 C 307.007812 39.09375 306.785156 39.316406 306.785156 39.714844 Z M 306.785156 39.714844 "/>
<path style=" stroke:none;fill-rule:nonzero;fill:rgb(0%,0%,0%);fill-opacity:1;" d="M 238.070312 41.9375 C 238.070312 42.914062 238.203125 43.136719 238.558594 42.78125 C 238.914062 42.425781 238.914062 42.070312 238.558594 41.449219 C 238.160156 40.738281 238.113281 40.828125 238.070312 41.9375 Z M 238.070312 41.9375 "/>
<path style=" stroke:none;fill-rule:nonzero;fill:rgb(0%,0%,0%);fill-opacity:1;" d="M 244.453125 42.25 C 244.320312 42.515625 244.410156 42.960938 244.675781 43.226562 C 245.03125 43.582031 245.164062 43.449219 245.164062 42.738281 C 245.164062 41.671875 244.941406 41.492188 244.453125 42.25 Z M 244.453125 42.25 "/>
<path style=" stroke:none;fill-rule:nonzero;fill:rgb(0%,0%,0%);fill-opacity:1;" d="M 267.109375 43.09375 C 266.929688 43.359375 266.976562 43.804688 267.242188 44.070312 C 267.816406 44.648438 268.261719 43.890625 267.816406 43.136719 C 267.507812 42.691406 267.375 42.691406 267.109375 43.09375 Z M 267.109375 43.09375 "/>
<path style=" stroke:none;fill-rule:nonzero;fill:rgb(0%,0%,0%);fill-opacity:1;" d="M 247.160156 43.492188 C 246.890625 43.980469 247.558594 44.515625 248 44.113281 C 248.398438 43.714844 248.3125 43.09375 247.867188 43.09375 C 247.601562 43.09375 247.335938 43.269531 247.160156 43.492188 Z M 247.160156 43.492188 "/>
<path style=" stroke:none;fill-rule:nonzero;fill:rgb(0%,0%,0%);fill-opacity:1;" d="M 289.585938 43.492188 C 289.761719 44.070312 290.382812 44.203125 290.425781 43.667969 C 290.425781 43.492188 290.207031 43.269531 289.941406 43.136719 C 289.628906 43.046875 289.453125 43.226562 289.585938 43.492188 Z M 289.585938 43.492188 "/>
<path style=" stroke:none;fill-rule:nonzero;fill:rgb(0%,0%,0%);fill-opacity:1;" d="M 260.414062 44.914062 C 260.28125 45.179688 260.371094 45.625 260.636719 45.890625 C 260.992188 46.246094 261.125 46.113281 261.125 45.402344 C 261.125 44.335938 260.902344 44.160156 260.414062 44.914062 Z M 260.414062 44.914062 "/>
<path style=" stroke:none;fill-rule:nonzero;fill:rgb(0%,0%,0%);fill-opacity:1;" d="M 299.25 45.089844 C 299.25 45.492188 299.472656 45.757812 299.738281 45.667969 C 300.003906 45.582031 300.226562 45.3125 300.226562 45.089844 C 300.226562 44.871094 300.003906 44.601562 299.738281 44.515625 C 299.472656 44.425781 299.25 44.691406 299.25 45.089844 Z M 299.25 45.089844 "/>
<path style=" stroke:none;fill-rule:nonzero;fill:rgb(0%,0%,0%);fill-opacity:1;" d="M 253.363281 47.492188 C 253.054688 48.023438 253.898438 48.554688 254.472656 48.203125 C 254.960938 47.890625 254.652344 47.089844 254.03125 47.089844 C 253.808594 47.089844 253.542969 47.269531 253.363281 47.492188 Z M 253.363281 47.492188 "/>
<path style=" stroke:none;fill-rule:nonzero;fill:rgb(0%,0%,0%);fill-opacity:1;" d="M 299.292969 48.378906 C 299.25 49.578125 299.382812 49.800781 299.78125 49.402344 C 300.136719 49.046875 300.136719 48.644531 299.78125 47.890625 C 299.339844 46.914062 299.292969 46.957031 299.292969 48.378906 Z M 299.292969 48.378906 "/>
<path style=" stroke:none;fill-rule:nonzero;fill:rgb(0%,0%,0%);fill-opacity:1;" d="M 263.164062 48.777344 C 263.03125 49.046875 263.117188 49.402344 263.382812 49.535156 C 264.050781 49.976562 264.492188 49.402344 263.917969 48.824219 C 263.605469 48.511719 263.339844 48.511719 263.164062 48.777344 Z M 263.164062 48.777344 "/>
<path style=" stroke:none;fill-rule:nonzero;fill:rgb(0%,0%,0%);fill-opacity:1;" d="M 305.457031 49.089844 C 305.457031 49.488281 305.679688 49.757812 305.945312 49.667969 C 306.210938 49.578125 306.433594 49.3125 306.433594 49.089844 C 306.433594 48.867188 306.210938 48.601562 305.945312 48.511719 C 305.679688 48.421875 305.457031 48.691406 305.457031 49.089844 Z M 305.457031 49.089844 "/>
<path style=" stroke:none;fill-rule:nonzero;fill:rgb(0%,0%,0%);fill-opacity:1;" d="M 213.996094 51.355469 C 213.597656 51.753906 214.175781 52.910156 214.617188 52.597656 C 214.839844 52.464844 215.015625 52.066406 215.015625 51.710938 C 215.015625 51.089844 214.484375 50.867188 213.996094 51.355469 Z M 213.996094 51.355469 "/>
<path style=" stroke:none;fill-rule:nonzero;fill:rgb(0%,0%,0%);fill-opacity:1;" d="M 314.855469 53.132812 C 315.03125 54.066406 315.832031 54.152344 316.007812 53.175781 C 316.097656 52.734375 315.875 52.421875 315.433594 52.421875 C 314.988281 52.421875 314.765625 52.6875 314.855469 53.132812 Z M 314.855469 53.132812 "/>
<path style=" stroke:none;fill-rule:nonzero;fill:rgb(0%,0%,0%);fill-opacity:1;" d="M 275.089844 53.753906 C 274.644531 54.507812 275.621094 55.398438 276.195312 54.820312 C 276.550781 54.464844 276.460938 54.152344 276.019531 53.796875 C 275.574219 53.398438 275.308594 53.398438 275.089844 53.753906 Z M 275.089844 53.753906 "/>
<path style=" stroke:none;fill-rule:nonzero;fill:rgb(0%,0%,0%);fill-opacity:1;" d="M 229.867188 54.152344 C 229.601562 54.644531 230.265625 55.175781 230.710938 54.777344 C 231.109375 54.375 231.019531 53.753906 230.578125 53.753906 C 230.3125 53.753906 230.046875 53.933594 229.867188 54.152344 Z M 229.867188 54.152344 "/>
<path style=" stroke:none;fill-rule:nonzero;fill:rgb(0%,0%,0%);fill-opacity:1;" d="M 259.128906 54.242188 C 258.949219 54.507812 258.996094 54.910156 259.261719 55.175781 C 259.527344 55.441406 259.75 55.355469 259.925781 54.910156 C 260.238281 54.109375 259.527344 53.53125 259.128906 54.242188 Z M 259.128906 54.242188 "/>
<path style=" stroke:none;fill-rule:nonzero;fill:rgb(0%,0%,0%);fill-opacity:1;" d="M 278.855469 54.421875 C 278.855469 54.777344 279.078125 55.085938 279.300781 55.085938 C 279.566406 55.085938 279.742188 54.777344 279.742188 54.421875 C 279.742188 54.066406 279.566406 53.753906 279.300781 53.753906 C 279.078125 53.753906 278.855469 54.066406 278.855469 54.421875 Z M 278.855469 54.421875 "/>
<path style=" stroke:none;fill-rule:nonzero;fill:rgb(0%,0%,0%);fill-opacity:1;" d="M 242.726562 55.574219 C 242.28125 56.242188 242.769531 56.597656 243.613281 56.242188 C 244.011719 56.109375 244.1875 55.796875 244.054688 55.53125 C 243.699219 54.953125 243.078125 54.953125 242.726562 55.574219 Z M 242.726562 55.574219 "/>
<path style=" stroke:none;fill-rule:nonzero;fill:rgb(0%,0%,0%);fill-opacity:1;" d="M 245.828125 55.53125 C 245.652344 55.796875 245.695312 56.242188 245.960938 56.507812 C 246.226562 56.773438 246.492188 56.773438 246.714844 56.417969 C 246.890625 56.152344 246.847656 55.710938 246.582031 55.441406 C 246.316406 55.175781 246.050781 55.175781 245.828125 55.53125 Z M 245.828125 55.53125 "/>
<path style=" stroke:none;fill-rule:nonzero;fill:rgb(0%,0%,0%);fill-opacity:1;" d="M 265.558594 55.753906 C 265.558594 56.109375 265.777344 56.417969 266 56.417969 C 266.265625 56.417969 266.441406 56.109375 266.441406 55.753906 C 266.441406 55.398438 266.265625 55.085938 266 55.085938 C 265.777344 55.085938 265.558594 55.398438 265.558594 55.753906 Z M 265.558594 55.753906 "/>
<path style=" stroke:none;fill-rule:nonzero;fill:rgb(0%,0%,0%);fill-opacity:1;" d="M 252.125 56.6875 C 251.726562 57.128906 252.210938 57.753906 252.964844 57.753906 C 253.320312 57.753906 253.585938 57.441406 253.585938 57.085938 C 253.585938 56.417969 252.65625 56.152344 252.125 56.6875 Z M 252.125 56.6875 "/>
<path style=" stroke:none;fill-rule:nonzero;fill:rgb(0%,0%,0%);fill-opacity:1;" d="M 275.042969 56.910156 C 274.910156 57.175781 275 57.621094 275.265625 57.886719 C 275.621094 58.242188 275.753906 58.109375 275.753906 57.398438 C 275.753906 56.332031 275.53125 56.152344 275.042969 56.910156 Z M 275.042969 56.910156 "/>
<path style=" stroke:none;fill-rule:nonzero;fill:rgb(0%,0%,0%);fill-opacity:1;" d="M 320.441406 56.730469 C 320.308594 56.910156 320.351562 58.0625 320.484375 59.308594 L 320.796875 61.527344 L 321.0625 59.308594 C 321.328125 57.308594 320.929688 55.796875 320.441406 56.730469 Z M 320.441406 56.730469 "/>
<path style=" stroke:none;fill-rule:nonzero;fill:rgb(0%,0%,0%);fill-opacity:1;" d="M 235.410156 57.308594 C 235.410156 57.53125 235.71875 57.753906 236.074219 57.753906 C 236.429688 57.753906 236.738281 57.53125 236.738281 57.308594 C 236.738281 57.042969 236.429688 56.863281 236.074219 56.863281 C 235.71875 56.863281 235.410156 57.042969 235.410156 57.308594 Z M 235.410156 57.308594 "/>
<path style=" stroke:none;fill-rule:nonzero;fill:rgb(0%,0%,0%);fill-opacity:1;" d="M 375.148438 85.742188 C 375.148438 86.585938 375.238281 86.941406 375.371094 86.496094 C 375.460938 86.097656 375.460938 85.386719 375.371094 84.941406 C 375.238281 84.539062 375.148438 84.894531 375.148438 85.742188 Z M 375.148438 85.742188 "/>
<path style=" stroke:none;fill-rule:nonzero;fill:rgb(0%,0%,0%);fill-opacity:1;" d="M 360.339844 96.269531 C 360.207031 96.714844 360.253906 97.46875 360.429688 97.957031 C 360.695312 98.710938 360.742188 98.710938 361.007812 97.734375 C 361.140625 97.15625 361.09375 96.402344 360.917969 96.046875 C 360.605469 95.515625 360.519531 95.558594 360.339844 96.269531 Z M 360.339844 96.269531 "/>
<path style=" stroke:none;fill-rule:nonzero;fill:rgb(0%,0%,0%);fill-opacity:1;" d="M 367.964844 107.507812 C 367.566406 108.265625 367.566406 108.796875 367.921875 109.640625 C 368.410156 110.664062 368.542969 110.707031 369.164062 110.085938 C 369.652344 109.597656 370.359375 109.464844 371.558594 109.597656 C 373.199219 109.820312 373.285156 109.773438 373.285156 108.707031 C 373.285156 107.242188 372.753906 106.929688 371.335938 107.554688 C 370.359375 107.996094 370.050781 107.953125 369.339844 107.332031 C 368.5 106.574219 368.453125 106.574219 367.964844 107.507812 Z M 367.964844 107.507812 "/>
<path style=" stroke:none;fill-rule:nonzero;fill:rgb(0%,0%,0%);fill-opacity:1;" d="M 374.351562 108.21875 C 374.171875 108.976562 374.304688 109.597656 374.707031 109.996094 C 375.238281 110.574219 375.460938 110.53125 376.125 109.773438 C 376.746094 109.109375 376.789062 108.707031 376.390625 107.996094 C 375.726562 106.710938 374.707031 106.84375 374.351562 108.21875 Z M 374.351562 108.21875 "/>
<path style=" stroke:none;fill-rule:nonzero;fill:rgb(0%,0%,0%);fill-opacity:1;" d="M 378.296875 107.730469 C 377.054688 108.621094 377.011719 109.109375 378.164062 109.730469 C 378.738281 110.039062 379.316406 110.039062 379.847656 109.773438 C 380.335938 109.507812 380.867188 109.507812 381.089844 109.730469 C 381.621094 110.21875 386.675781 109.640625 386.898438 109.0625 C 386.984375 108.796875 386.71875 108.175781 386.363281 107.730469 C 385.699219 106.84375 385.699219 106.84375 385.035156 107.6875 C 384.414062 108.484375 384.371094 108.484375 383.21875 107.730469 C 382.019531 106.976562 381.976562 106.976562 381.222656 107.863281 C 380.46875 108.839844 380.46875 108.839844 379.890625 107.910156 C 379.316406 107.109375 379.183594 107.066406 378.296875 107.730469 Z M 378.296875 107.730469 "/>
<path style=" stroke:none;fill-rule:nonzero;fill:rgb(0%,0%,0%);fill-opacity:1;" d="M 221.886719 73.746094 C 221.710938 74.234375 221.800781 74.945312 222.109375 75.300781 C 222.421875 75.699219 222.464844 75.96875 222.109375 76.1875 C 221.886719 76.324219 221.667969 77.03125 221.667969 77.742188 C 221.667969 78.453125 221.886719 79.164062 222.109375 79.296875 C 222.421875 79.476562 222.421875 79.789062 222.199219 80.097656 C 221.621094 80.855469 221.578125 85.652344 222.15625 86.007812 C 222.421875 86.140625 222.421875 86.453125 222.199219 86.761719 C 221.667969 87.472656 221.667969 102.710938 222.199219 103.378906 C 222.421875 103.6875 222.421875 104 222.109375 104.175781 C 221.84375 104.355469 221.753906 105.152344 221.933594 106.175781 C 222.242188 107.953125 221.976562 108.308594 219.183594 110.394531 C 218.5625 110.886719 217.410156 111.816406 216.65625 112.484375 C 215.949219 113.195312 215.0625 113.726562 214.75 113.726562 C 214.441406 113.726562 213.953125 114.128906 213.6875 114.617188 C 213.421875 115.148438 212.710938 115.726562 212.089844 115.949219 C 211.515625 116.171875 211.027344 116.660156 211.027344 117.058594 C 211.027344 117.414062 210.539062 117.816406 209.960938 117.992188 C 209.34375 118.125 208.542969 118.75 208.144531 119.324219 C 207.789062 119.902344 207.257812 120.390625 206.949219 120.390625 C 206.683594 120.390625 206.015625 120.835938 205.441406 121.371094 C 204.863281 121.945312 203.800781 122.878906 203.046875 123.5 C 202.292969 124.125 201.183594 125.054688 200.609375 125.589844 C 200.03125 126.121094 199.144531 126.65625 198.65625 126.832031 C 198.171875 126.96875 197.636719 127.5 197.503906 127.988281 C 197.328125 128.433594 196.929688 128.832031 196.617188 128.832031 C 196.261719 128.832031 195.644531 129.320312 195.242188 129.945312 C 194.84375 130.566406 194.136719 131.054688 193.691406 131.054688 C 193.203125 131.054688 192.628906 131.542969 192.316406 132.164062 C 192.050781 132.785156 191.34375 133.410156 190.8125 133.542969 C 190.234375 133.675781 189.65625 134.207031 189.523438 134.652344 C 189.347656 135.097656 188.859375 135.496094 188.371094 135.496094 C 187.882812 135.496094 187.308594 135.984375 186.996094 136.5625 C 186.730469 137.183594 186.113281 137.71875 185.578125 137.804688 C 184.914062 137.894531 184.605469 138.296875 184.515625 139.140625 C 184.382812 140.207031 184.515625 140.382812 185.445312 140.382812 C 186.113281 140.382812 186.820312 139.9375 187.265625 139.273438 C 187.664062 138.652344 188.285156 138.160156 188.636719 138.160156 C 188.992188 138.160156 189.480469 137.761719 189.746094 137.273438 C 190.011719 136.742188 190.675781 136.386719 191.296875 136.386719 C 192.097656 136.386719 192.40625 136.164062 192.40625 135.539062 C 192.40625 135.097656 192.71875 134.476562 193.070312 134.164062 C 193.425781 133.851562 193.738281 133.765625 193.738281 133.898438 C 193.738281 134.074219 194.136719 133.984375 194.625 133.71875 C 195.109375 133.453125 195.511719 132.964844 195.511719 132.652344 C 195.511719 132.296875 195.996094 131.898438 196.574219 131.765625 C 197.195312 131.632812 197.816406 131.097656 197.949219 130.609375 C 198.125 130.03125 198.613281 129.722656 199.277344 129.722656 C 200.03125 129.722656 200.386719 129.453125 200.476562 128.699219 C 200.5625 128.078125 200.964844 127.675781 201.582031 127.589844 C 202.160156 127.5 202.824219 127.101562 203.136719 126.65625 C 203.445312 126.210938 204.109375 125.722656 204.644531 125.546875 C 205.175781 125.410156 205.796875 124.746094 206.0625 124.167969 C 206.328125 123.546875 206.949219 123.058594 207.390625 123.058594 C 207.835938 123.058594 208.457031 122.570312 208.722656 121.945312 C 209.03125 121.324219 209.609375 120.835938 210.09375 120.835938 C 210.582031 120.835938 211.070312 120.4375 211.25 119.992188 C 211.382812 119.503906 211.957031 119.058594 212.488281 118.96875 C 213.023438 118.882812 213.640625 118.394531 213.910156 117.816406 C 214.128906 117.28125 214.574219 116.839844 214.882812 116.839844 C 215.371094 116.839844 216.789062 115.726562 219.273438 113.285156 C 219.804688 112.796875 220.515625 112.394531 220.914062 112.394531 C 221.3125 112.394531 221.753906 111.90625 221.933594 111.328125 C 222.199219 110.128906 224.148438 109.597656 226.765625 110.039062 C 228.492188 110.308594 229.292969 109.332031 228.273438 108.128906 C 227.742188 107.464844 227.207031 107.464844 225.566406 108.175781 C 224.371094 108.664062 224.195312 106.976562 224.28125 97.289062 C 224.371094 92.269531 224.371094 87.871094 224.371094 87.515625 C 224.328125 87.160156 224.328125 85.429688 224.328125 83.652344 C 224.371094 81.785156 224.195312 80.363281 223.882812 80.1875 C 223.574219 80.007812 223.527344 79.699219 223.839844 79.34375 C 224.0625 79.078125 224.238281 77.523438 224.195312 75.96875 C 224.105469 73.390625 224.015625 73.078125 223.128906 72.945312 C 222.507812 72.855469 222.109375 73.078125 221.886719 73.746094 Z M 221.886719 73.746094 "/>
<path style=" stroke:none;fill-rule:nonzero;fill:rgb(0%,0%,0%);fill-opacity:1;" d="M 229.734375 107.597656 C 228.539062 108.796875 229.648438 111.019531 230.976562 110.175781 C 231.332031 109.953125 232.351562 109.863281 233.238281 109.996094 C 234.214844 110.175781 234.964844 110.085938 235.144531 109.773438 C 235.320312 109.507812 235.71875 109.417969 235.988281 109.597656 C 236.738281 110.085938 241.574219 110.128906 241.882812 109.683594 C 242.015625 109.464844 242.371094 109.417969 242.636719 109.597656 C 243.390625 110.085938 252.210938 110.128906 252.523438 109.640625 C 252.65625 109.417969 253.054688 109.464844 253.453125 109.773438 C 254.164062 110.394531 258.464844 110.351562 259.085938 109.683594 C 259.351562 109.464844 259.792969 109.550781 260.238281 109.953125 C 260.769531 110.441406 261.300781 110.53125 262.054688 110.261719 C 262.628906 110.039062 266.042969 109.90625 269.679688 109.953125 C 273.316406 110.039062 276.328125 109.863281 276.460938 109.640625 C 276.640625 109.417969 276.90625 109.417969 277.214844 109.640625 C 277.882812 110.175781 282.800781 110.175781 283.113281 109.640625 C 283.246094 109.464844 283.601562 109.417969 283.867188 109.597656 C 284.175781 109.773438 286.082031 109.996094 288.167969 110.039062 C 290.25 110.085938 292.246094 110.128906 292.601562 110.128906 C 293.265625 110.175781 297.652344 110.175781 299.472656 110.128906 C 299.960938 110.128906 301.15625 110.128906 302.085938 110.128906 C 303.0625 110.175781 304.082031 109.953125 304.394531 109.683594 C 304.703125 109.464844 305.058594 109.417969 305.191406 109.640625 C 305.457031 110.085938 321.285156 110.039062 321.726562 109.597656 C 321.859375 109.417969 322.214844 109.464844 322.480469 109.683594 C 322.746094 109.90625 324.296875 109.953125 325.984375 109.773438 C 327.625 109.597656 329.175781 109.597656 329.398438 109.730469 C 330.148438 110.21875 344.515625 109.863281 345.003906 109.375 C 345.269531 109.109375 345.355469 108.574219 345.179688 108.175781 C 345.003906 107.597656 344.601562 107.507812 343.582031 107.730469 C 342.695312 107.910156 341.941406 107.820312 341.542969 107.464844 C 341.011719 107.019531 340.65625 107.019531 339.992188 107.417969 C 339.328125 107.863281 338.972656 107.820312 338.261719 107.417969 C 337.554688 106.976562 337.199219 106.976562 336.488281 107.417969 C 335.957031 107.730469 335.335938 107.820312 335.027344 107.640625 C 334.007812 107.019531 330.105469 107.152344 329.308594 107.863281 C 328.597656 108.441406 328.511719 108.441406 328.289062 107.863281 C 327.933594 106.976562 322.703125 107.019531 322.390625 107.910156 C 322.257812 108.308594 321.992188 108.265625 321.328125 107.6875 C 320.617188 107.019531 320.265625 106.976562 319.199219 107.375 C 318.3125 107.730469 317.824219 107.730469 317.472656 107.375 C 317.070312 106.976562 316.71875 107.019531 316.097656 107.417969 C 315.433594 107.820312 314.988281 107.820312 314.144531 107.417969 C 313.304688 107.066406 312.859375 107.066406 312.371094 107.464844 C 311.886719 107.863281 311.484375 107.910156 310.777344 107.507812 C 310.113281 107.152344 309.667969 107.152344 309.226562 107.507812 C 308.824219 107.863281 308.339844 107.820312 307.496094 107.464844 C 306.519531 106.976562 306.210938 107.019531 305.589844 107.640625 C 304.925781 108.308594 304.746094 108.308594 304.082031 107.730469 C 303.507812 107.199219 303.105469 107.152344 302.132812 107.507812 C 301.246094 107.863281 300.757812 107.820312 300.269531 107.464844 C 299.828125 107.066406 299.425781 107.066406 298.671875 107.464844 C 297.964844 107.863281 297.300781 107.863281 296.5 107.554688 C 295.703125 107.242188 295.214844 107.285156 294.859375 107.640625 C 294.460938 108.042969 294.105469 107.996094 293.441406 107.597656 C 292.734375 107.152344 292.378906 107.109375 291.890625 107.554688 C 291.402344 107.953125 290.960938 107.953125 290.117188 107.554688 C 289.40625 107.242188 288.742188 107.199219 288.253906 107.464844 C 287.8125 107.6875 287.28125 107.6875 286.792969 107.375 C 286.214844 107.019531 285.683594 107.019531 284.839844 107.417969 C 283.910156 107.863281 283.46875 107.863281 283.023438 107.464844 C 282.582031 107.109375 282.09375 107.066406 281.382812 107.375 C 280.808594 107.640625 280.007812 107.6875 279.34375 107.417969 C 278.589844 107.152344 278.058594 107.242188 277.527344 107.730469 C 276.90625 108.308594 276.730469 108.308594 276.0625 107.640625 C 275.488281 107.066406 275.222656 107.019531 274.6875 107.464844 C 274.15625 107.910156 273.667969 107.910156 272.695312 107.597656 C 271.675781 107.242188 271.277344 107.285156 270.832031 107.773438 C 270.390625 108.351562 270.210938 108.351562 269.546875 107.730469 C 268.96875 107.199219 268.527344 107.152344 267.597656 107.507812 C 266.84375 107.773438 266.089844 107.820312 265.644531 107.554688 C 265.246094 107.332031 264.582031 107.332031 263.960938 107.597656 C 263.296875 107.910156 262.71875 107.863281 261.964844 107.507812 C 261.125 107.019531 260.855469 107.066406 260.238281 107.863281 C 259.570312 108.664062 259.484375 108.664062 259.039062 107.996094 C 258.507812 107.152344 254.339844 107.019531 253.496094 107.863281 C 253.097656 108.265625 252.789062 108.21875 252.257812 107.730469 C 251.679688 107.199219 251.238281 107.152344 250.304688 107.507812 C 249.464844 107.820312 248.886719 107.773438 248.265625 107.417969 C 247.644531 107.019531 247.292969 107.019531 246.847656 107.417969 C 246.359375 107.820312 245.871094 107.820312 244.765625 107.375 C 243.523438 106.929688 243.257812 106.929688 242.769531 107.597656 C 242.28125 108.265625 242.148438 108.265625 241.527344 107.6875 C 241.039062 107.199219 240.597656 107.109375 239.664062 107.464844 C 238.824219 107.820312 238.246094 107.773438 237.582031 107.375 C 236.828125 106.929688 236.605469 106.976562 236.253906 107.640625 C 235.898438 108.265625 235.632812 108.351562 235.144531 107.910156 C 234.789062 107.597656 233.859375 107.507812 232.972656 107.640625 C 232.128906 107.773438 231.332031 107.6875 231.199219 107.464844 C 230.84375 106.929688 230.355469 106.976562 229.734375 107.597656 Z M 229.734375 107.597656 "/>
<path style=" stroke:none;fill-rule:nonzero;fill:rgb(0%,0%,0%);fill-opacity:1;" d="M 182.210938 141.183594 C 182.210938 142.339844 182.699219 142.695312 183.40625 142.117188 C 184.292969 141.359375 184.117188 140.382812 183.097656 140.382812 C 182.519531 140.382812 182.210938 140.695312 182.210938 141.183594 Z M 182.210938 141.183594 "/>
<path style=" stroke:none;fill-rule:nonzero;fill:rgb(0%,0%,0%);fill-opacity:1;" d="M 243.257812 181.609375 C 241.707031 183.210938 241.617188 183.429688 241.617188 186.140625 C 241.660156 188.804688 241.75 189.160156 243.167969 190.671875 C 244.585938 192.226562 244.941406 192.359375 247.070312 192.359375 C 248.84375 192.359375 249.683594 192.136719 250.4375 191.425781 C 251.371094 190.539062 251.414062 190.40625 250.75 189.738281 C 250.085938 189.074219 249.90625 189.074219 248.664062 189.828125 C 246.980469 190.761719 246.671875 190.761719 245.605469 189.785156 C 244.320312 188.585938 244.277344 183.917969 245.519531 182.585938 C 246.492188 181.519531 247.777344 181.652344 249.242188 182.898438 C 250.21875 183.742188 251.371094 183.34375 251.371094 182.1875 C 251.371094 180.808594 249.683594 179.921875 247.160156 179.921875 C 245.117188 179.921875 244.71875 180.097656 243.257812 181.609375 Z M 243.257812 181.609375 "/>
<path style=" stroke:none;fill-rule:nonzero;fill:rgb(0%,0%,0%);fill-opacity:1;" d="M 261.300781 180.589844 C 261.125 180.945312 261.167969 181.789062 261.390625 182.5 C 261.566406 183.164062 261.65625 183.875 261.609375 184.140625 C 261.476562 184.542969 261.433594 189.652344 261.523438 191.605469 C 261.566406 192.183594 261.832031 192.359375 262.585938 192.273438 C 263.515625 192.136719 263.5625 191.871094 263.695312 188.453125 C 263.785156 186.273438 263.605469 184.496094 263.339844 184.140625 C 263.03125 183.742188 263.074219 183.429688 263.5625 183.03125 C 264.449219 182.320312 264.402344 180.542969 263.515625 180.1875 C 262.363281 179.742188 261.566406 179.878906 261.300781 180.589844 Z M 261.300781 180.589844 "/>
<path style=" stroke:none;fill-rule:nonzero;fill:rgb(0%,0%,0%);fill-opacity:1;" d="M 290.914062 180.453125 C 290.605469 180.765625 290.382812 181.296875 290.339844 181.652344 C 290.339844 182.054688 289.941406 182.941406 289.453125 183.699219 C 289.007812 184.410156 288.476562 185.339844 288.34375 185.695312 C 288.167969 186.050781 287.722656 186.71875 287.414062 187.117188 C 286.304688 188.40625 286.882812 189.429688 288.832031 189.695312 C 290.382812 189.871094 290.605469 190.09375 290.738281 191.160156 C 290.871094 192.226562 291.046875 192.40625 292.066406 192.273438 C 292.867188 192.183594 293.308594 191.828125 293.398438 191.25 C 293.488281 190.761719 293.839844 190.050781 294.195312 189.652344 C 294.773438 189.027344 294.726562 188.851562 294.152344 188.363281 C 293.664062 187.960938 293.488281 186.894531 293.488281 184.140625 C 293.488281 181.210938 293.355469 180.410156 292.777344 180.1875 C 291.800781 179.832031 291.535156 179.832031 290.914062 180.453125 Z M 290.738281 186.539062 C 290.914062 187.742188 290.160156 188.761719 289.539062 188.097656 C 288.964844 187.5625 289.496094 185.164062 290.117188 185.386719 C 290.382812 185.476562 290.695312 186.007812 290.738281 186.539062 Z M 290.738281 186.539062 "/>
<path style=" stroke:none;fill-rule:nonzero;fill:rgb(0%,0%,0%);fill-opacity:1;" d="M 253.277344 183.875 C 252.699219 184.363281 252.257812 185.03125 252.257812 185.429688 C 252.257812 186.230469 253.363281 186.40625 253.851562 185.652344 C 254.03125 185.296875 254.25 185.296875 254.605469 185.652344 C 254.960938 186.007812 254.695312 186.496094 253.675781 187.472656 C 250.972656 189.917969 252.34375 192.359375 256.46875 192.359375 C 259.21875 192.359375 259.085938 192.582031 258.949219 187.917969 C 258.816406 184.585938 258.109375 183.566406 255.757812 183.210938 C 254.695312 183.074219 253.984375 183.253906 253.277344 183.875 Z M 256.691406 188.984375 C 256.691406 190.09375 255.714844 191.25 255.226562 190.71875 C 254.828125 190.363281 254.828125 188.585938 255.226562 188.230469 C 255.847656 187.5625 256.691406 187.960938 256.691406 188.984375 Z M 256.691406 188.984375 "/>
<path style=" stroke:none;fill-rule:nonzero;fill:rgb(0%,0%,0%);fill-opacity:1;" d="M 271.007812 183.609375 C 270.742188 183.875 270.433594 184.496094 270.300781 184.898438 C 269.902344 186.050781 268.703125 185.875 268.214844 184.542969 C 267.730469 183.253906 266.578125 183.253906 265.824219 184.496094 C 265.421875 185.207031 265.558594 185.519531 266.753906 186.539062 L 268.214844 187.742188 L 266.886719 189.027344 C 265.203125 190.628906 265.246094 192.09375 266.976562 192.273438 C 267.996094 192.40625 268.171875 192.226562 268.304688 191.160156 C 268.484375 189.515625 270.035156 189.429688 270.433594 191.027344 C 270.789062 192.492188 272.472656 192.804688 272.871094 191.472656 C 273.09375 190.761719 272.871094 190.183594 272.03125 189.296875 C 270.609375 187.828125 270.609375 187.605469 271.984375 186.496094 C 272.605469 186.007812 273.09375 185.253906 273.09375 184.808594 C 273.09375 183.699219 271.585938 182.855469 271.007812 183.609375 Z M 271.007812 183.609375 "/>
<path style=" stroke:none;fill-rule:nonzero;fill:rgb(0%,0%,0%);fill-opacity:1;" d="M 275.796875 184.097656 C 274.601562 185.339844 274.910156 186.40625 276.195312 185.695312 C 277.304688 185.121094 277.527344 185.121094 277.527344 185.832031 C 277.527344 186.140625 276.949219 186.894531 276.195312 187.472656 C 274.6875 188.761719 274.554688 189.960938 275.753906 191.382812 C 276.507812 192.273438 276.949219 192.40625 279.167969 192.273438 L 281.738281 192.136719 L 281.871094 188.496094 C 282.003906 184.941406 281.960938 184.898438 280.675781 183.964844 C 278.945312 182.71875 277.039062 182.765625 275.796875 184.097656 Z M 279.300781 188.984375 C 279.300781 190.09375 278.324219 191.25 277.835938 190.71875 C 277.304688 190.226562 277.480469 188.453125 278.101562 188.230469 C 279.121094 187.785156 279.300781 187.917969 279.300781 188.984375 Z M 279.300781 188.984375 "/>
<path style=" stroke:none;fill-rule:nonzero;fill:rgb(0%,0%,0%);fill-opacity:1;" d="M 35.777344 186.050781 C 34.226562 187.652344 34.136719 187.875 34.136719 190.628906 C 34.136719 193.382812 34.226562 193.605469 35.820312 195.160156 C 37.285156 196.582031 37.773438 196.804688 39.632812 196.804688 C 42.292969 196.804688 43.445312 196.179688 43.445312 194.804688 C 43.445312 193.515625 42.382812 193.339844 41.050781 194.359375 C 38.835938 196.046875 37.238281 194.402344 37.238281 190.539062 C 37.238281 188.273438 37.417969 187.695312 38.214844 187.03125 C 39.101562 186.320312 39.367188 186.320312 40.433594 186.851562 C 42.207031 187.742188 43.890625 187.652344 43.890625 186.675781 C 43.890625 185.164062 42.472656 184.363281 39.855469 184.363281 C 37.640625 184.363281 37.285156 184.496094 35.777344 186.050781 Z M 35.777344 186.050781 "/>
<path style=" stroke:none;fill-rule:nonzero;fill:rgb(0%,0%,0%);fill-opacity:1;" d="M 53.953125 184.628906 C 53.332031 185.296875 53.644531 186.984375 54.484375 187.25 C 55.859375 187.695312 56.789062 187.03125 56.65625 185.742188 C 56.570312 184.898438 56.257812 184.542969 55.417969 184.453125 C 54.796875 184.363281 54.132812 184.453125 53.953125 184.628906 Z M 53.953125 184.628906 "/>
<path style=" stroke:none;fill-rule:nonzero;fill:rgb(0%,0%,0%);fill-opacity:1;" d="M 80.289062 185.429688 C 78.558594 187.296875 79.800781 187.875 83.214844 186.808594 C 83.921875 186.585938 84.234375 186.71875 84.453125 187.472656 C 84.808594 188.585938 84.011719 189.695312 82.859375 189.695312 C 81.527344 189.695312 81.882812 190.9375 83.257812 191.117188 C 84.277344 191.25 84.5 191.472656 84.589844 192.761719 C 84.808594 194.757812 84.144531 195.335938 82.726562 194.402344 C 81.660156 193.738281 79.355469 193.425781 79.355469 193.960938 C 79.355469 194.09375 79.753906 194.804688 80.289062 195.515625 C 81.042969 196.582031 81.484375 196.804688 83.125 196.804688 C 85.695312 196.804688 87.335938 195.382812 87.335938 193.160156 C 87.335938 192.273438 87.027344 191.339844 86.671875 191.027344 C 86.050781 190.496094 86.050781 190.363281 86.671875 189.695312 C 87.691406 188.585938 87.515625 186.453125 86.316406 185.339844 C 84.808594 183.917969 81.660156 183.964844 80.289062 185.429688 Z M 80.289062 185.429688 "/>
<path style=" stroke:none;fill-rule:nonzero;fill:rgb(0%,0%,0%);fill-opacity:1;" d="M 45.753906 188.941406 C 45.21875 189.515625 44.777344 190.226562 44.777344 190.496094 C 44.777344 191.292969 45.707031 191.160156 46.328125 190.273438 C 46.773438 189.652344 47.082031 189.605469 47.925781 190.007812 L 48.988281 190.496094 L 47.835938 190.9375 C 47.214844 191.207031 46.152344 192.050781 45.484375 192.847656 L 44.289062 194.269531 L 45.441406 195.46875 C 46.417969 196.492188 46.90625 196.667969 48.679688 196.582031 C 49.875 196.535156 51.027344 196.359375 51.339844 196.179688 C 52.089844 195.738281 51.738281 189.828125 50.9375 189.074219 C 50.585938 188.71875 49.519531 188.363281 48.5 188.183594 C 46.992188 187.960938 46.550781 188.097656 45.753906 188.941406 Z M 49.652344 193.425781 C 49.652344 194.136719 48.722656 195.027344 48.011719 195.027344 C 47.257812 195.027344 47.257812 192.9375 48.011719 192.671875 C 48.765625 192.40625 49.652344 192.804688 49.652344 193.425781 Z M 49.652344 193.425781 "/>
<path style=" stroke:none;fill-rule:nonzero;fill:rgb(0%,0%,0%);fill-opacity:1;" d="M 58.875 188.230469 C 57.722656 188.496094 57.898438 189.828125 59.183594 191.027344 C 60.515625 192.273438 60.605469 193.070312 59.449219 193.695312 C 58.296875 194.269531 57.8125 195.914062 58.5625 196.402344 C 59.671875 197.113281 60.335938 196.804688 60.824219 195.425781 C 61.355469 193.914062 62.597656 193.78125 62.863281 195.25 C 63.128906 196.535156 63.617188 196.9375 64.683594 196.582031 C 65.878906 196.226562 65.878906 194.980469 64.726562 193.914062 C 64.238281 193.472656 63.839844 192.804688 63.839844 192.40625 C 63.839844 192.003906 64.238281 191.339844 64.726562 190.894531 C 65.789062 190.007812 65.878906 188.585938 64.949219 188.183594 C 63.929688 187.828125 63.042969 188.316406 62.863281 189.382812 C 62.6875 190.761719 61.089844 190.671875 60.738281 189.296875 C 60.46875 188.140625 60.070312 187.917969 58.875 188.230469 Z M 58.875 188.230469 "/>
<path style=" stroke:none;fill-rule:nonzero;fill:rgb(0%,0%,0%);fill-opacity:1;" d="M 68.363281 188.941406 C 67.828125 189.515625 67.386719 190.226562 67.386719 190.496094 C 67.386719 191.292969 68.316406 191.160156 68.9375 190.273438 C 69.382812 189.652344 69.691406 189.605469 70.535156 189.960938 L 71.597656 190.449219 L 70.488281 191.027344 C 68.804688 191.871094 67.386719 193.339844 67.386719 194.136719 C 67.386719 195.605469 69.203125 196.667969 71.597656 196.582031 C 72.839844 196.535156 73.949219 196.449219 74.167969 196.402344 C 74.570312 196.359375 74.570312 190.09375 74.125 189.429688 C 73.015625 187.742188 69.738281 187.429688 68.363281 188.941406 Z M 72.261719 193.648438 C 72.261719 194.402344 71.464844 195.027344 70.445312 195.027344 C 70.003906 195.027344 69.914062 193.558594 70.355469 193.117188 C 70.976562 192.449219 72.261719 192.804688 72.261719 193.648438 Z M 72.261719 193.648438 "/>
<path style=" stroke:none;fill-rule:nonzero;fill:rgb(0%,0%,0%);fill-opacity:1;" d="M 53.996094 192.003906 C 53.820312 196.09375 54.265625 197.203125 55.726562 196.449219 C 56.570312 196.003906 56.570312 196.046875 56.304688 188.671875 C 56.304688 188.496094 55.816406 188.363281 55.238281 188.363281 C 54.175781 188.363281 54.132812 188.496094 53.996094 192.003906 Z M 53.996094 192.003906 "/>
</g>
</svg>
