<?xml version="1.0" encoding="UTF-8" standalone="no"?>
<svg
   xmlns:dc="http://purl.org/dc/elements/1.1/"
   xmlns:cc="http://creativecommons.org/ns#"
   xmlns:rdf="http://www.w3.org/1999/02/22-rdf-syntax-ns#"
   xmlns:svg="http://www.w3.org/2000/svg"
   xmlns="http://www.w3.org/2000/svg"
   xmlns:sodipodi="http://sodipodi.sourceforge.net/DTD/sodipodi-0.dtd"
   xmlns:inkscape="http://www.inkscape.org/namespaces/inkscape"
   version="1.0"
   width="500.75"
   height="179.43309"
   viewBox="0 0 400.6 143.54647"
   preserveAspectRatio="xMidYMid meet"
   id="svg3327"
   inkscape:version="0.48.4 r9939"
   sodipodi:docname="dfdc064f2b0832783ac1b7cf44b3b86bf8c72a28.svg">
  <defs
     id="defs3425" />
  <sodipodi:namedview
     pagecolor="#ffffff"
     bordercolor="#666666"
     borderopacity="1"
     objecttolerance="10"
     gridtolerance="10"
     guidetolerance="10"
     inkscape:pageopacity="0"
     inkscape:pageshadow="2"
     inkscape:window-width="1600"
     inkscape:window-height="824"
     id="namedview3423"
     showgrid="false"
     inkscape:zoom="0.816"
     inkscape:cx="459.35285"
     inkscape:cy="229.63327"
     inkscape:window-x="0"
     inkscape:window-y="24"
     inkscape:window-maximized="1"
     inkscape:current-layer="g3331"
     fit-margin-top="0"
     fit-margin-left="0"
     fit-margin-right="0"
     fit-margin-bottom="0" />
  <metadata
     id="metadata3329">
Created by potrace 1.10, written by Peter Selinger 2001-2011
<rdf:RDF>
  <cc:Work
     rdf:about="">
    <dc:format>image/svg+xml</dc:format>
    <dc:type
       rdf:resource="http://purl.org/dc/dcmitype/StillImage" />
  </cc:Work>
</rdf:RDF>
</metadata>
  <g
     transform="matrix(0.1,0,0,-0.1,-130,150.70837)"
     id="g3331"
     style="fill:#000000;stroke:none">
    <path
       d="m 3178.6939,1503.4276 c -2.0892,-1.5669 -3.6561,-73.1212 -3.6561,-158.2553 0,-115.4271 1.5669,-156.6884 6.7898,-163.4782 5.7453,-7.8344 25.5925,-8.879 207.351,-9.9236 l 201.0835,-1.5669 0,-290.9181 c 0.5223,-159.82216 2.0891,-292.48501 4.1783,-295.09648 2.6115,-2.08918 8.3567,-1.04459 13.0574,1.56688 8.3567,5.22295 8.879,28.20392 8.3567,294.05189 0,198.47201 1.5669,287.78431 5.2229,288.30661 3.1338,0 112.2934,0.5223 242.3448,1.0446 227.7204,1.0446 237.1217,1.5669 244.4339,10.9682 9.9236,14.102 10.9682,310.7653 1.0446,320.6889 -4.7007,4.7007 -115.4272,6.2676 -466.4092,6.2676 -253.3129,0 -462.2307,-1.5669 -463.7976,-3.6561 z m 898.8691,-160.8667 -1.5669,-138.9304 -432.9823,0.5223 c -238.1663,0 -434.0268,1.0446 -435.0714,2.0892 -1.5669,1.5668 -3.1338,231.8988 -1.5669,269.504 0,3.6561 148.854,5.2229 436.116,5.2229 l 436.1161,0 -1.0446,-138.408 z"
       id="path3333"
       inkscape:connector-curvature="0" />
    <path
       d="m 3682.7082,1443.886 c -13.5796,-5.2229 -14.6242,-18.8026 -3.1338,-34.9937 5.7453,-8.3567 6.7899,-14.102 3.1338,-18.2803 -3.1338,-3.6561 -6.2675,-29.2485 -6.7898,-57.4524 -1.0446,-40.2167 0,-52.2295 6.2675,-56.4079 9.9236,-6.2675 11.4905,-5.7452 21.9364,2.0892 7.8344,5.7453 8.3567,13.0574 4.1784,66.3314 -3.1338,48.0511 -2.6115,62.1531 3.1337,71.0321 13.0574,20.3695 -3.656,36.5606 -28.7262,27.6816 z"
       id="path3335"
       inkscape:connector-curvature="0" />
    <path
       d="m 3332.7708,1438.1408 c -4.1784,-4.1784 -6.2675,-29.7708 -6.2675,-80.9557 0,-87.7455 -1.5669,-85.134 59.5416,-85.134 57.4524,0 59.5415,2.6115 59.5415,84.6117 0,86.7009 -1.0445,87.7455 -60.5861,87.7455 -28.7262,0 -48.0511,-2.0892 -52.2295,-6.2675 z m 72.599,-19.8472 c 12.0127,-6.7898 13.5796,-32.3823 2.0891,-41.7836 -4.1783,-3.6561 -4.2001,-12.6594 -7.8344,-13.0574 -33.3886,-3.656 -17.9242,-9.4013 7.8344,-13.0573 4.7007,-3.6561 7.8345,-15.1466 7.8345,-26.637 0,-16.7135 -2.6115,-21.9364 -13.0574,-26.6371 -21.9364,-9.9236 -39.1721,1.5669 -39.1721,25.5925 0,10.9681 3.656,24.0255 7.8344,29.7708 6.2675,8.3567 6.2675,10.9681 0,20.8917 -21.4141,29.7708 3.1338,61.6308 34.4715,44.9174 z"
       id="path3337"
       inkscape:connector-curvature="0"
       sodipodi:nodetypes="ssssssccscscsccc" />
    <path
       d="m 3611.6761,1404.7139 c -13.0573,-16.1911 -14.1019,-19.8472 -8.879,-31.3377 3.1338,-7.3121 5.7453,-28.2039 5.7453,-46.4842 0,-29.7708 1.5669,-34.4714 14.1019,-44.395 17.758,-14.102 30.8154,-11.4905 28.7262,5.2229 -6.2675,48.5734 -6.7898,64.2423 -1.0446,80.9557 4.7007,13.5797 4.7007,22.4587 0,36.5606 -7.8344,23.5033 -18.8026,22.981 -38.6498,-0.5223 z"
       id="path3339"
       inkscape:connector-curvature="0" />
    <path
       d="m 3796.0462,1391.6566 c -4.7007,-8.8791 -3.6561,-13.0574 5.2229,-22.4587 8.3567,-8.879 10.9682,-19.3249 12.0128,-52.7518 1.5669,-40.739 2.0892,-41.7835 14.6242,-41.7835 12.5351,0 13.0574,1.0445 14.6243,42.8281 1.5669,43.8728 -4.1784,61.6308 -24.5479,78.8665 -10.9682,8.879 -15.1465,7.8344 -21.9363,-4.7006 z"
       id="path3341"
       inkscape:connector-curvature="0" />
    <path
       d="m 3495.2044,1385.9113 c -17.2357,-18.8026 -22.4586,-32.9045 -22.4586,-59.0193 0,-30.8154 6.2675,-41.7836 26.637,-49.0957 38.6498,-13.5796 77.8219,-2.0892 77.8219,22.4587 0,18.8026 -14.6243,21.4141 -29.2485,5.2229 -21.4141,-22.9809 -30.8154,-15.1465 -31.86,25.5925 l -0.5223,35.516 13.5797,-1.5669 c 12.5351,-1.5669 -15.3411,-16.4574 -16.3857,-31.0816 -1.0446,-12.5351 30.4876,-4.4344 38.8444,-7.0459 23.5032,-7.8344 33.4268,21.9364 16.7134,48.5734 -12.5351,19.3249 -16.7134,21.9364 -41.2613,21.9364 -15.1465,0 -24.0255,-3.1338 -31.86,-11.4905 z"
       id="path3343"
       inkscape:connector-curvature="0"
       sodipodi:nodetypes="cscscccccccsc" />
    <path
       d="m 3745.3836,1391.1343 c -4.1784,-4.1784 -6.2676,-25.0702 -6.2676,-59.5416 0,-44.3951 1.5669,-53.7964 8.3568,-56.4079 11.4904,-4.1783 28.2039,1.0446 28.7262,8.8791 0,3.656 1.0445,19.3249 1.5668,34.9937 0.5223,15.6688 2.6115,34.9937 5.223,42.8282 6.7898,22.9809 -21.9364,44.9173 -37.6052,29.2485 z"
       id="path3345"
       inkscape:connector-curvature="0" />
    <path
       d="m 3885.8808,1383.8221 c -6.7898,-15.1465 -3.656,-24.0255 7.3122,-19.8472 16.7134,6.7899 13.5796,-13.5796 -4.7007,-30.8153 -10.4459,-9.9236 -18.8026,-20.3695 -18.8026,-23.5033 0,-23.5033 24.5478,-37.6052 65.2868,-37.6052 46.4843,0 50.1403,3.656 48.0511,50.1403 -2.0891,36.0383 -3.656,40.7389 -19.3249,56.9301 -15.6688,16.1911 -20.8917,18.2803 -44.395,18.2803 -24.0256,0 -27.6816,-1.5669 -33.4269,-13.5797 z m 52.7518,-77.8219 c -8.879,-18.8026 -29.2485,-16.1911 -31.3377,4.1784 -1.5669,10.9682 1.0446,15.1465 10.4459,18.8026 18.2803,6.7898 28.7262,-5.2229 20.8918,-22.981 z"
       id="path3347"
       inkscape:connector-curvature="0" />
    <path
       d="m 1620.1666,1115.3627 c -6.7898,-2.6115 -12.0128,-7.8344 -12.0128,-11.4905 -1.5668,-65.8091 1.0446,-320.16662 3.1338,-322.2558 1.5669,-1.56688 94.0131,-4.17836 204.7395,-5.74524 l 202.128,-2.61148 -1.5668,-74.16584 -1.5669,-74.16584 14.1019,-3.65606 c 8.879,-2.08918 15.1466,-1.04459 17.7581,3.13377 2.6114,3.65606 3.1337,38.12751 1.5668,75.73272 -2.0891,48.05111 -1.0445,69.98749 2.6115,72.59896 3.1338,2.08918 113.338,3.65606 244.4339,3.13377 171.3127,0 240.2556,1.56688 245.4785,5.74524 5.7452,4.70065 7.3121,36.56063 7.3121,167.13429 0,154.07691 -0.5223,161.38901 -9.9236,166.61201 -13.0573,6.7898 -901.4805,6.7898 -918.194,0 z m 888.9455,-26.1147 c 5.223,0 5.7453,-270.02639 1.0446,-275.24933 -1.5669,-1.04459 -197.9497,-2.61148 -436.6383,-3.13377 l -433.5046,-1.04459 -1.5669,137.36349 c -1.0446,75.2104 -1.0446,138.4081 -0.5223,141.0196 1.0446,2.0891 195.8605,3.1337 433.5046,2.0891 238.1664,-0.5223 435.0715,-1.0445 437.6829,-1.0445 z"
       id="path3349"
       inkscape:connector-curvature="0" />
    <path
       d="m 2006.6647,1041.7191 c -19.8472,-12.535 -21.9364,-23.5032 -6.2676,-28.2039 6.7899,-2.0892 16.7135,0.5223 28.7262,8.879 19.3249,13.0574 22.4587,21.9364 9.4013,27.1594 -12.0127,4.7006 -13.5796,4.1783 -31.8599,-7.8345 z"
       id="path3351"
       inkscape:connector-curvature="0" />
    <path
       d="m 2165.9645,1049.0313 c -5.7452,-1.5669 -9.4013,-7.3122 -9.4013,-14.6243 0,-14.1019 1.5669,-15.1465 22.4587,-20.3695 12.0128,-2.6115 15.1465,-1.0446 20.3695,9.4013 9.9236,21.9364 -5.223,32.9046 -33.4269,25.5925 z"
       id="path3353"
       inkscape:connector-curvature="0" />
    <path
       d="m 1810.8042,1043.8083 c -1.0446,-2.0892 -2.0892,-40.739 -1.5669,-85.13401 l 0,-80.95567 14.6242,-1.56689 c 23.5033,-2.61147 30.8154,7.31213 27.1594,36.03833 -4.7007,32.90457 0,46.48423 16.1911,46.48423 11.4905,0 12.5351,-2.08918 12.5351,-22.98097 0,-13.57966 3.1337,-25.07014 7.3121,-29.2485 4.1783,-3.13377 8.3567,-10.96819 9.4013,-17.23572 1.0446,-9.40131 5.2229,-11.49048 19.8472,-11.49048 14.6242,0 18.8026,2.08917 19.8472,11.49048 1.0446,6.78983 -2.6115,14.10195 -9.9236,19.3249 -10.9682,7.31213 -16.1911,24.54785 -24.0256,77.8219 -2.0891,16.1911 -0.5223,22.4587 9.4013,32.9046 6.2676,6.7898 14.6243,12.535 18.8026,12.535 3.6561,0 6.7899,3.6561 6.7899,7.8345 0,5.7452 -5.7453,7.8344 -20.3695,7.8344 -17.758,0 -22.981,-3.1338 -36.5606,-20.3695 -8.879,-10.9682 -16.1912,-24.0256 -16.1912,-28.72622 0,-4.70065 -2.0892,-8.35671 -5.2229,-8.35671 -5.223,0 -6.7899,8.87901 -7.3121,39.17213 -0.5223,14.1019 -2.0892,15.6688 -19.8472,17.2357 -10.4459,1.0446 -19.8472,-0.5223 -20.8918,-2.6115 z"
       id="path3355"
       inkscape:connector-curvature="0" />
    <path
       d="m 2091.7987,1012.9929 c -14.102,-16.7134 -14.102,-18.80258 -6.2675,-27.68159 5.7452,-6.26753 8.3567,-19.3249 8.3567,-44.39504 0,-43.35046 12.535,-65.80913 36.5606,-65.80913 20.8918,0 25.0701,9.9236 8.879,21.93638 -10.4459,7.83442 -14.1019,16.19113 -17.2357,38.6498 -3.1338,25.07015 -1.5669,31.33768 7.8344,43.87275 8.879,12.53508 9.4013,15.66884 3.6561,19.32491 -4.1784,2.08922 -8.3567,9.92362 -9.4013,17.23572 -2.6115,18.8026 -15.1466,17.758 -32.3823,-3.1338 z"
       id="path3357"
       inkscape:connector-curvature="0" />
    <path
       d="m 2240.6527,997.32409 c -11.4905,-8.35671 -14.6243,-25.07014 -6.2676,-30.81538 3.1338,-1.56689 7.8345,2.08918 10.9682,7.83442 4.7007,8.35671 9.9236,10.44589 21.9364,9.4013 20.3695,-2.08918 25.0701,-13.05737 8.3567,-19.3249 -6.7898,-2.61147 -19.8472,-10.96819 -29.2485,-18.80261 -18.8026,-15.66884 -22.4587,-39.1721 -8.3567,-59.01929 6.7898,-9.9236 12.5351,-11.49049 41.2613,-11.49049 50.6626,0 49.618,-1.56688 49.618,57.45241 0,47.00652 -1.0446,51.70718 -11.4905,58.49701 -18.8026,12.01274 -63.1977,15.66884 -76.7773,6.26753 z m 50.6626,-70.50978 c 1.5668,-14.62425 -15.6689,-33.94915 -24.5479,-28.20391 -9.4013,5.22295 -6.7898,32.90457 3.6561,38.64981 12.535,7.83442 19.3249,4.17835 20.8918,-10.4459 z"
       id="path3359"
       inkscape:connector-curvature="0" />
    <path
       d="m 1970.104,988.96738 c -19.3249,-11.49049 -20.8917,-15.66884 -8.879,-25.59244 7.3122,-6.26754 9.9236,-5.22295 19.8472,7.31212 14.6243,18.28032 41.2613,20.3695 38.6498,2.61148 -1.0446,-6.26754 -6.2675,-13.05737 -12.0127,-14.62425 -16.1912,-4.17836 -49.618,-32.90457 -49.618,-42.30587 0,-4.17836 7.8344,-15.66884 17.758,-25.07014 16.1911,-15.66884 19.3249,-16.71343 50.6626,-15.14655 l 33.4268,1.56689 1.5669,50.66258 1.5669,50.14028 -15.6688,10.96819 c -19.325,14.10193 -54.3187,14.10193 -77.2997,-0.52229 z m 55.8856,-67.37601 c 0,-17.23573 -11.4905,-25.07015 -23.5033,-15.14655 -10.4459,8.87901 -9.9236,13.57966 2.6115,26.11473 13.5796,13.57967 20.8918,9.40131 20.8918,-10.96818 z"
       id="path3361"
       inkscape:connector-curvature="0" />
    <path
       d="m 2167.5314,993.14573 c -4.1783,-4.70065 -5.7452,-26.11473 -4.7006,-61.10847 l 1.5669,-54.31864 15.6688,0 15.6688,0 1.5669,61.63077 1.5669,61.10851 -12.5351,0 c -7.3121,0 -15.6688,-3.13381 -18.8026,-7.31217 z"
       id="path3363"
       inkscape:connector-curvature="0" />
    <path
       d="m 2620.8832,1106.4837 c -6.2676,-16.7135 -4.1784,-313.89911 2.0892,-324.34501 3.656,-5.22294 52.2294,-6.78983 235.0326,-6.26753 l 230.8542,0.52229 0.5223,-72.07666 c 0.5223,-39.69439 1.0446,-75.21043 1.5669,-78.3442 0.5223,-8.87901 24.5478,-8.87901 30.2931,0 2.0891,3.13377 3.1337,37.08292 2.0891,74.68814 -1.0446,47.00652 0,69.98748 4.1784,72.07666 3.1338,2.08918 96.6245,3.65606 207.351,3.13377 145.7202,0 203.6949,1.56688 208.9178,5.74524 5.7453,4.70065 7.3122,36.03833 7.3122,167.13429 l 0,161.38901 -13.5797,5.223 c -8.3567,3.1338 -183.3254,5.2229 -462.2308,5.2229 l -448.6511,0 -5.7452,-14.1019 z m 890.5124,-15.1466 c 7.3121,-2.6114 8.3567,-19.8472 8.3567,-137.88576 0,-95.57992 -1.5669,-136.3189 -5.7453,-138.93038 -4.1783,-2.61147 -804.3337,-4.70065 -867.5314,-2.08918 -2.6115,0 -4.1783,62.15307 -4.1783,138.40809 l 0,138.40813 422.014,1.5668 c 231.8989,0.5223 425.6702,1.5669 430.3708,2.6115 4.7007,0.5223 12.0128,-0.5223 16.7135,-2.0892 z"
       id="path3365"
       inkscape:connector-curvature="0" />
    <path
       d="m 2873.1515,1048.509 c -4.7007,-3.6561 -6.2675,-24.5479 -5.2229,-87.74553 l 1.5668,-83.04485 51.1849,-1.56689 51.1849,-1.56688 -1.5669,14.62425 c -1.5669,13.57966 -3.1338,14.62425 -30.2931,16.19113 -15.6688,1.04459 -30.2931,4.70065 -32.3823,7.83442 -2.0891,3.65606 -2.6114,32.90457 -0.5222,65.80913 3.1337,54.31862 2.6114,60.06392 -6.2676,66.33142 -10.9682,8.3567 -18.2803,8.879 -27.6816,3.1338 z"
       id="path3367"
       inkscape:connector-curvature="0" />
    <path
       d="m 3149.4454,1045.8975 c -14.102,-6.7898 -25.5925,-22.4587 -20.3695,-27.1593 7.8344,-7.8344 34.4714,-3.6561 45.4396,7.3121 11.4905,11.4905 14.6243,21.4141 6.2676,21.4141 -2.6115,0 -7.8345,1.0446 -12.0128,2.6115 -3.6561,1.5668 -12.5351,-0.5223 -19.3249,-4.1784 z"
       id="path3369"
       inkscape:connector-curvature="0" />
    <path
       d="m 3018.8717,999.41327 c -17.2357,-9.4013 -25.5924,-22.98096 -18.2803,-30.29309 3.6561,-3.65606 9.9236,-2.08918 19.3249,5.22295 17.2357,13.57966 37.6052,12.01277 37.6052,-2.61148 0,-7.31212 -4.1783,-10.96818 -13.0574,-12.01277 -26.1147,-3.65607 -49.6179,-34.47145 -42.3058,-54.84094 9.4013,-24.02556 19.8472,-29.7708 55.3632,-29.7708 39.1721,0 39.1721,-0.52229 39.1721,62.15307 0,37.60521 -1.5669,47.52881 -9.4013,54.31864 -13.0574,12.01275 -52.7518,16.19115 -68.4206,7.83442 z m 44.3951,-64.24224 c 4.7006,-11.49048 -2.0892,-33.94915 -10.4459,-33.94915 -13.5797,0 -19.8472,13.05736 -13.0574,28.20391 6.7898,15.14654 18.8026,17.75801 23.5033,5.74524 z"
       id="path3371"
       inkscape:connector-curvature="0" />
    <path
       d="m 3136.9103,996.8018 c -1.5669,-2.61148 -3.6561,-28.20391 -4.1784,-57.45241 -2.0891,-57.45242 1.0446,-66.33143 21.9364,-63.19766 12.5351,1.56689 12.5351,2.61148 12.5351,61.63077 l 0,60.06389 -14.102,1.56688 c -7.3121,1.04463 -14.6242,-0.52229 -16.1911,-2.61147 z"
       id="path3373"
       inkscape:connector-curvature="0" />
    <path
       d="m 3194.885,989.48967 c -18.8026,-20.36949 -8.879,-44.39504 23.5033,-56.40782 9.9236,-4.17836 14.1019,-8.87901 14.1019,-18.80261 0,-14.62425 -1.5669,-15.14654 -15.6688,-7.83442 -11.4905,6.26754 -26.1148,1.56689 -26.1148,-7.83442 0,-13.05736 18.8027,-23.50326 42.8282,-23.50326 20.3695,0 26.1147,2.61148 37.6052,16.19114 7.3122,8.87901 13.5797,19.3249 13.5797,23.50326 0,10.44589 -25.5925,33.42685 -37.0829,33.42685 -12.0128,0 -25.5925,14.10196 -25.5925,26.63703 0,16.71343 20.8918,12.53507 27.6816,-5.74524 4.7007,-12.53507 8.3568,-15.14654 16.7135,-12.53507 10.9682,3.65606 18.2803,11.49048 18.2803,20.89178 0,21.93638 -72.0767,31.86001 -89.8347,12.01278 z"
       id="path3375"
       inkscape:connector-curvature="0" />
    <path
       d="m 4074.9515,1078.8021 -12.0128,-4.7007 0,-156.1661 c 0,-146.2425 0.5223,-156.68839 9.9236,-165.04511 8.879,-8.35671 29.2485,-8.87901 233.4657,-8.35671 123.2616,0.52229 227.1982,0.52229 231.3766,0.52229 5.7452,-0.52229 6.7898,-14.10195 4.7006,-76.25502 -2.6115,-70.50977 -2.0892,-76.77731 6.7898,-81.47796 6.7899,-3.65606 13.5797,-3.13377 20.8918,1.04459 10.4459,5.22294 10.9682,7.83442 7.3122,72.59895 -2.0892,36.56063 -2.0892,71.03208 -0.5223,76.25502 2.6114,9.40131 11.4904,9.9236 207.8732,8.35672 112.8157,-0.5223 208.3956,0.52229 211.5294,3.13377 5.2229,3.13376 7.3121,43.87275 8.3567,165.04511 l 1.5669,160.86675 -12.5351,4.7007 c -16.1911,6.2675 -903.5698,5.7452 -918.7163,-0.5223 z m 896.7799,-159.29991 c 0,-107.07041 -1.5669,-138.40809 -6.2675,-138.93038 -39.1721,-2.08918 -862.8308,1.04459 -866.4868,3.65606 -3.1338,1.56689 -4.7007,58.497 -4.1784,138.40809 l 0.5223,135.27434 438.2052,0 438.2052,0 0,-138.40811 z"
       id="path3377"
       inkscape:connector-curvature="0" />
    <path
       d="m 4174.1875,983.74443 c -6.7898,-10.96819 -18.2803,-42.30587 -20.8918,-59.0193 -1.5669,-8.35671 -4.7007,-17.75801 -6.7898,-20.89178 -2.6115,-2.61147 -5.7453,-13.05737 -6.7899,-22.98097 -1.5668,-9.92359 -8.879,-23.50326 -16.1911,-30.29309 -15.6688,-14.10195 -16.7134,-18.8026 -6.2675,-27.15932 12.535,-10.44589 36.5606,-5.22294 38.6498,8.35672 2.0891,13.57966 9.4013,16.19113 47.0065,16.19113 26.1147,0 28.7262,-1.04459 33.4268,-14.62425 6.7899,-19.8472 19.3249,-24.02555 32.3823,-10.96819 9.9236,9.9236 10.9682,9.9236 25.0702,1.56689 14.6242,-8.35672 15.6688,-8.35672 22.4586,0.52229 4.1784,5.74524 5.7453,17.23572 4.1784,29.7708 -4.1784,28.20391 6.2675,52.22946 22.4587,52.22946 12.0127,0 12.535,-1.04459 12.535,-41.26128 0,-45.96193 6.2676,-57.9747 24.0256,-45.43963 8.3567,6.26754 9.4013,13.05737 8.3567,44.91734 -2.6115,57.45241 -24.5479,87.7455 -51.1849,70.50978 -9.9236,-6.26754 -14.6242,-6.78983 -22.4586,-2.08918 -5.223,3.65606 -13.5797,4.70065 -18.2804,3.13377 -6.7898,-2.61148 -8.3567,-11.49049 -8.3567,-47.52882 0,-26.11473 -2.0892,-45.96193 -5.7452,-47.52881 -9.4013,-6.26754 -29.7708,17.75802 -32.3823,38.12751 -5.2229,34.99374 -12.5351,64.24224 -18.8026,70.50978 -3.1338,3.13377 -5.7452,10.44589 -5.7452,16.71343 0,6.26753 -2.6115,13.57966 -6.2676,17.23572 -8.3567,8.35672 -39.1721,7.83442 -44.395,0 z m 29.7708,-57.45241 c 0,-5.74524 3.656,-16.71343 8.3567,-25.07014 13.0574,-21.41409 6.7898,-32.38227 -17.2357,-30.29309 -15.6689,1.04458 -20.3695,4.17835 -21.4141,12.53507 -1.0446,5.74524 2.0892,14.10195 6.7898,17.75802 4.1784,3.65606 7.8344,13.05736 7.8344,20.89178 0,7.31213 1.5669,15.66884 3.1338,17.23573 5.7452,5.74524 12.5351,-1.56689 12.5351,-13.05737 z"
       id="path3379"
       inkscape:connector-curvature="0" />
    <path
       d="m 4487.042,986.3559 c -4.7007,-1.56688 -5.7453,-10.96818 -3.1338,-36.03833 2.6115,-21.93637 1.5669,-35.51603 -2.6115,-40.73898 -4.7006,-5.22295 -4.1783,-8.35671 2.0892,-13.57966 11.4905,-9.4013 9.4013,-27.68162 -4.7006,-41.26128 -17.2358,-16.19113 -24.0256,-10.44589 -24.0256,20.36949 0,18.80261 2.6115,27.15932 8.879,30.81539 7.3121,4.17835 7.8344,6.78983 2.6115,18.28031 -8.3567,18.28031 -18.2803,17.23572 -34.4715,-4.17836 -10.9681,-15.14654 -13.5796,-23.50326 -13.5796,-49.61799 0,-25.59244 2.0892,-33.42686 11.4905,-42.30587 13.0573,-12.01277 25.0701,-13.57966 34.4714,-4.17835 4.7007,4.70065 10.4459,4.70065 24.5479,-0.5223 9.9236,-3.65606 20.3695,-4.70065 23.5032,-3.13377 2.6115,1.56689 5.223,26.11474 5.7453,53.79635 0,27.68162 2.0891,62.67536 4.7006,76.77732 2.6115,16.71343 2.0892,28.7262 -1.0446,32.90456 -5.2229,6.26754 -21.9363,7.83442 -34.4714,2.61147 z"
       id="path3381"
       inkscape:connector-curvature="0" />
    <path
       d="m 4674.0235,976.43231 c -3.1338,-7.83442 -4.7007,-17.23573 -3.1338,-21.41409 1.5669,-3.65606 -7.8344,-17.75801 -20.3695,-31.33767 -22.4587,-22.98097 -23.5033,-26.11474 -23.5033,-54.31865 0,-39.1721 13.5797,-51.70717 55.8856,-51.70717 32.9045,0 48.5734,6.78983 48.5734,20.89179 0,14.10195 -10.9682,15.66884 -30.2931,3.65606 -16.1911,-9.4013 -18.2803,-9.4013 -26.1147,-1.56688 -7.3122,7.31212 -7.8345,9.92359 -1.5669,19.3249 4.7006,7.83442 5.2229,12.53507 1.0446,16.71343 -7.8345,7.83442 -7.3122,28.20391 1.0446,31.33768 3.1337,1.04459 11.4904,0.52229 17.758,-2.08918 9.9236,-3.65607 11.4905,-7.31213 8.879,-19.3249 -4.1784,-19.8472 4.7006,-25.59244 21.4141,-14.62426 18.2803,12.01278 16.1911,24.54785 -7.3122,49.0957 l -20.3695,20.89179 12.5351,12.01278 c 19.3249,17.75801 14.6243,32.90456 -9.9236,34.99374 -16.7134,1.56688 -19.8472,0 -24.5478,-12.53507 z"
       id="path3383"
       inkscape:connector-curvature="0" />
    <path
       d="m 4763.3359,985.31131 c -4.7007,-3.13376 -5.7453,-9.4013 -2.6115,-21.93637 2.0892,-9.9236 3.656,-44.91734 2.6115,-77.8219 -1.0446,-49.618 0,-61.63077 6.2675,-67.37601 6.2675,-4.70066 10.9682,-5.22295 19.3249,-0.5223 10.4459,5.74524 10.4459,8.87901 9.4013,87.7455 l -1.5669,82.00026 -13.0574,1.56689 c -7.3121,0.52229 -16.1911,-1.04459 -20.3694,-3.65607 z"
       id="path3385"
       inkscape:connector-curvature="0" />
    <path
       d="m 4846.3807,929.42579 c -7.8344,-20.36949 -6.7898,-22.98097 12.0128,-22.98097 29.2485,0 34.4714,-8.35671 11.4905,-18.28031 -28.2039,-11.49048 -39.1721,-22.45867 -39.1721,-39.1721 0,-23.50326 14.1019,-31.33768 55.3632,-31.33768 21.4141,0 39.1721,2.61147 42.8282,6.26754 8.879,8.87901 7.8344,67.37601 -1.5669,89.83468 -8.879,21.41408 -9.9236,21.93637 -48.5734,26.11473 -26.1148,2.61147 -27.6816,2.08918 -32.3823,-10.44589 z m 50.6626,-62.67536 c 4.1783,-10.96819 -6.7898,-33.42686 -16.1911,-33.42686 -10.4459,0 -15.1466,18.28031 -8.3568,31.33768 6.7899,12.53507 19.8472,13.57966 24.5479,2.08918 z"
       id="path3387"
       inkscape:connector-curvature="0" />
    <path
       d="m 4554.418,930.47038 c -4.1784,-4.70066 -5.7452,-25.07015 -4.7007,-58.49701 l 1.5669,-51.70717 15.6689,0 15.6688,0 0,41.78358 0,41.78357 15.6688,2.61147 c 12.5351,2.08918 16.1912,5.74524 17.2358,17.23573 1.5669,14.10195 1.0446,14.10195 -26.6371,14.10195 -18.2803,0 -30.8153,-2.61147 -34.4714,-7.31212 z"
       id="path3389"
       inkscape:connector-curvature="0" />
    <path
       d="m 1343.3505,652.60962 c -1.5669,-4.70065 -1.5669,-66.33142 0,-137.36349 2.6114,-101.32517 1.5668,-131.09596 -3.6561,-141.01956 -8.3567,-15.14655 -5.223,-31.85997 6.7898,-32.38227 7.3121,-0.52229 2852.7734,0 3591.2981,0.5223 152.51,0 282.0391,0 288.3066,0 7.8344,0 13.0574,-4.70066 17.2357,-17.75802 7.3122,-22.98097 19.3249,-27.68162 27.1594,-10.96819 3.1337,7.31212 7.8344,13.05737 10.4459,13.05737 8.879,0 25.0701,21.41408 25.0701,33.94915 0,7.31212 -7.3121,20.36949 -16.7134,30.81538 -9.4013,9.9236 -20.3695,21.93638 -24.0256,26.63703 -13.0573,15.66884 -24.5478,7.31213 -24.5478,-18.28031 l 0,-23.50326 -20.8918,0 -20.8918,0 -1.0446,135.79661 c -0.5223,74.68813 -1.0446,138.93038 -1.0446,142.58644 -0.5223,3.13377 -6.2675,6.26753 -13.5796,6.26753 -7.3122,0 -13.0574,-3.13376 -13.5797,-6.26753 0,-3.65606 0,-67.37601 0.5223,-141.01956 l 1.0446,-134.22972 -114.3826,0 c -73.6435,0 -115.9494,2.08917 -120.65,5.74524 -4.7007,4.17835 -8.3567,4.17835 -12.5351,0 -4.1783,-4.17836 -25.5924,-6.26754 -57.9747,-6.26754 l -52.2295,0 3.6561,51.18488 c 1.5669,27.68161 3.6561,68.4206 4.1784,89.83468 0.5223,38.12751 0.5223,39.1721 -12.0128,39.1721 l -12.5351,0 0,-88.79009 0,-88.7901 -67.8983,-1.04459 c -37.6052,0 -88.7901,-1.56688 -114.9048,-2.61147 -25.5925,-0.52229 -49.618,0.5223 -53.2741,2.61147 -4.7006,2.61148 -5.2229,25.59244 -3.1337,86.70092 3.1337,81.47796 3.1337,83.04485 -8.3568,89.31238 -8.879,4.70066 -13.5796,4.70066 -19.8472,-1.04459 -6.7898,-5.22294 -7.8344,-19.3249 -6.2675,-90.35697 l 2.0892,-83.56715 -49.0957,-1.56688 c -27.1593,-0.52229 -50.6626,0.52229 -52.7518,2.61147 -2.0891,2.08918 -2.0891,41.26128 -0.5223,86.70092 1.5669,44.91734 2.6115,84.61173 1.5669,87.2232 -2.6115,7.83442 -21.9364,6.26754 -22.4586,-1.04459 -2.0892,-25.59243 2.6114,-133.18513 6.2675,-146.76479 7.3121,-25.59244 -0.5223,-29.7708 -52.2295,-29.7708 -55.8855,0 -62.6753,3.65606 -53.7963,27.15932 3.656,9.40131 8.3567,43.87275 9.9236,76.25502 2.6114,51.70717 2.0892,59.54159 -6.2676,68.9429 -5.2229,5.74524 -13.0573,10.44589 -17.2357,10.44589 -6.2675,0 -7.3121,-14.10196 -5.7452,-89.83468 l 2.0892,-90.35698 -47.0066,0 -47.0065,0 0,88.7901 c 0,74.68813 -1.0446,88.79009 -7.8344,89.83468 -18.2803,3.65606 -19.8472,-4.17836 -15.6688,-89.83468 2.0891,-45.96193 3.1337,-85.13403 1.5668,-87.74551 -1.0446,-2.08918 -25.0701,-3.65606 -53.274,-3.65606 -55.3633,0 -68.9429,5.74524 -59.0193,24.54785 6.2675,12.53507 12.0128,143.10873 6.7898,151.98774 -2.6115,4.17836 -9.9236,6.26754 -16.7134,5.22295 l -12.5351,-1.56688 1.0446,-73.12125 c 0.5223,-40.21669 1.5669,-79.91109 2.6115,-88.7901 l 1.5669,-15.66884 -41.7836,-4.17835 c -22.981,-2.08918 -47.5288,-2.61148 -53.7964,-1.04459 l -12.535,3.13377 1.5669,120.65006 c 1.5668,111.77106 1.0445,120.65007 -7.8345,127.4399 -6.7898,4.70065 -12.535,5.22294 -18.2803,2.08917 -7.3121,-4.17835 -8.3567,-18.8026 -6.2675,-127.43989 l 1.5669,-123.26154 -52.2295,0 c -37.0829,0 -52.7518,2.08918 -54.3186,6.78983 -1.0446,3.13377 -0.5223,41.78357 1.0445,84.61174 2.0892,43.35045 2.0892,81.47796 1.0446,85.13402 -2.6114,8.35672 -20.3695,8.35672 -25.5924,0 -5.2229,-9.4013 -2.0892,-116.994 4.1784,-141.54185 7.8344,-30.81538 1.5668,-34.99374 -52.7518,-34.99374 -53.2741,0 -54.3186,1.04459 -46.4842,43.87275 2.6114,15.66884 4.1783,52.75176 3.656,82.52256 -1.5668,51.18487 -2.0891,53.79635 -13.0573,55.36323 -14.102,2.08918 -13.5797,8.35672 -12.0128,-99.23598 l 1.0446,-82.52256 -54.841,0 c -59.0193,0 -62.6753,1.56688 -55.3632,27.15932 6.7898,24.54785 7.8344,144.15333 1.0446,150.94316 -6.7898,6.78983 -25.5924,2.08918 -29.2485,-7.31213 -1.5669,-5.22294 2.0892,-76.25502 8.3567,-152.51004 l 1.0446,-15.66884 -47.0065,0 -47.0065,0 0.5223,15.66884 c 0.5223,8.87901 2.6114,42.82817 4.7006,76.25502 4.7007,69.46519 2.0892,88.2678 -13.0574,88.2678 -20.8917,0 -21.414,-9.4013 -8.879,-164.52282 l 1.0446,-15.66884 -52.2294,-3.65606 c -33.4269,-2.61147 -53.7964,-2.08918 -57.4525,1.56689 -3.1337,3.13376 -5.2229,40.73898 -5.2229,92.44615 l 0,87.22321 -13.0574,0 -13.0573,0 -1.0446,-86.17862 c -0.5223,-47.52881 -1.0446,-88.79009 -1.0446,-92.44616 -0.5223,-4.17835 -14.102,-5.74524 -48.5734,-4.17835 -26.637,1.04459 -50.6626,2.08918 -53.2741,2.61147 -2.6114,0 -3.1337,34.99374 -1.0446,82.52256 2.0892,44.91734 2.0892,86.17861 0.5223,91.40156 -2.0891,4.70065 -8.879,8.87901 -16.1911,8.87901 -18.2803,0 -20.3695,-17.23572 -14.102,-101.84746 4.7007,-61.63077 4.7007,-74.16584 -1.5668,-78.86649 -8.3568,-6.78983 -100.8029,-3.65606 -108.6373,3.65606 -2.6115,2.08918 -2.0892,13.57966 1.0446,26.63703 3.1337,12.53507 6.7898,47.52881 8.3567,78.3442 2.6115,45.96193 1.5669,57.45241 -5.223,63.71995 -12.0127,12.53507 -22.4586,9.92359 -26.637,-5.74525 -1.5669,-8.35671 -1.0446,-47.52881 2.0892,-87.7455 3.1338,-40.21669 4.7006,-74.68813 3.1338,-76.77731 -3.6561,-6.78983 -110.2042,-4.70065 -112.2934,2.08918 -1.0446,3.13376 -0.5223,17.75801 1.5669,32.38227 2.0892,14.62425 4.1783,51.70717 4.1783,82.00026 0.5223,44.91734 -1.0445,56.40782 -7.3121,59.01929 -9.4013,3.65606 -21.9364,-1.04459 -25.0701,-8.87901 -1.5669,-5.22294 2.0892,-77.29961 8.3567,-152.51004 l 1.0446,-15.66884 -53.7964,-1.56688 c -29.7708,-0.52229 -57.4524,1.04459 -63.1976,4.17836 -6.2676,3.13377 -11.4905,3.13377 -13.0574,0.52229 -4.1783,-6.26753 -72.5989,-13.05736 -86.7009,-8.35671 -10.9682,3.65606 -11.4905,4.70065 -9.9236,115.42712 1.5669,114.38253 -0.5223,127.43989 -18.2803,120.65006 -7.3121,-3.13377 -8.3567,-18.80261 -8.3567,-117.5163 0,-62.67535 -1.0446,-115.42711 -2.0892,-116.4717 -1.0446,-1.04459 -25.5924,-1.04459 -53.7964,0.52229 l -51.1848,2.61147 2.6114,60.06389 c 1.0446,32.90456 2.6115,73.12125 2.6115,88.79009 0,28.20391 0,28.72621 -15.6688,28.72621 l -15.6689,0 0,-88.79009 0,-88.7901 -47.0065,-1.56688 c -29.2485,-1.04459 -51.1849,1.04459 -58.497,4.70065 -7.8344,4.17836 -13.5796,4.70065 -18.2803,1.04459 -8.879,-7.31212 -98.7137,-13.05737 -108.115,-7.31212 -5.7452,3.65606 -6.7898,21.41408 -4.7006,91.40156 l 2.0891,86.70091 -14.1019,0 c -7.8344,0 -15.1466,-2.08918 -16.1912,-5.22294 -1.0445,-4.17836 3.6561,-102.36976 7.8345,-154.07693 l 1.0446,-15.66884 -62.6754,0 -62.6754,0 1.0446,13.05737 c 1.0446,7.31213 3.6561,40.21669 6.7899,73.12125 2.6114,32.90457 6.2675,67.89831 7.8344,77.29961 3.1337,16.71343 2.6114,17.23572 -11.4905,15.66884 l -14.6243,-1.56688 0,-88.79009 0,-88.7901 -32.9045,-4.17835 c -18.2803,-2.61148 -38.6498,-3.13377 -45.4397,-1.56689 l -12.0127,3.13377 0.5223,89.83468 1.0445,90.35698 -14.1019,1.56688 c -10.9682,1.56688 -14.6243,-0.52229 -15.1466,-7.83442 0,-5.22295 -0.5222,-47.00652 -1.0445,-92.96845 l -1.0446,-83.56714 -47.0065,-1.56689 c -25.5925,-0.52229 -49.618,0.5223 -52.7518,2.61148 -3.6561,3.13376 -4.7007,28.7262 -2.0892,82.52255 3.6561,87.7455 1.0446,103.41434 -17.2357,100.80287 -10.9682,-1.56688 -11.4905,-3.65606 -13.0574,-64.24224 -1.0446,-34.47145 1.0446,-73.12125 4.1784,-85.65633 4.1783,-15.66883 4.1783,-24.54784 0.5223,-28.20391 -6.7899,-6.78983 -110.2042,-4.70065 -118.5609,2.08918 -4.1784,3.65606 -7.3121,3.13377 -9.9236,-0.52229 -4.7007,-7.31213 -108.6373,-6.78983 -116.4717,1.04459 -4.1784,4.17835 -7.8344,4.17835 -13.0574,-0.5223 -5.2229,-4.17836 -32.3823,-5.74524 -85.134,-5.22294 -42.8282,0 -88.2678,-1.04459 -101.3252,-2.61148 -39.1721,-5.74524 -38.1275,-8.35671 -37.0829,120.12777 0.5223,63.19766 2.0892,122.21695 3.6561,131.61826 2.0891,9.92359 0.5223,19.84719 -3.1338,24.54784 -8.879,10.4459 -30.8154,9.9236 -34.9937,-0.52229 z"
       id="path3397"
       inkscape:connector-curvature="0" />
    <path
       d="m 1465.5674,558.59658 c -5.7452,-5.74524 -4.1784,-139.45267 1.5669,-148.33168 13.0574,-19.8472 22.4587,25.59244 19.8472,99.23598 -1.0446,39.6944 -3.1338,49.618 -9.4013,51.18488 -4.7007,0.5223 -9.9236,0 -12.0128,-2.08918 z"
       id="path3399"
       inkscape:connector-curvature="0" />
    <path
       d="m 1588.8289,553.37364 c -1.5668,-4.17836 -2.0891,-37.08293 -0.5223,-72.07667 2.0892,-47.52881 4.7007,-67.37601 10.9682,-76.25502 l 8.3568,-12.01277 5.2229,13.05736 c 5.7452,15.66884 8.879,141.01956 3.6561,149.37627 -5.223,8.87901 -24.0256,7.83442 -27.6817,-2.08917 z"
       id="path3401"
       inkscape:connector-curvature="0" />
    <path
       d="m 1726.7147,550.76216 c -4.1783,-15.14654 2.0892,-135.79661 6.7899,-145.19791 8.879,-16.19114 17.758,19.3249 20.8917,83.04485 2.0892,36.03833 2.6115,66.85371 1.5669,69.46519 -4.7006,8.87901 -26.637,3.13377 -29.2485,-7.31213 z"
       id="path3403"
       inkscape:connector-curvature="0" />
    <path
       d="m 2370.704,553.89593 c -8.3567,-9.9236 -1.5668,-141.01956 7.8345,-148.85398 13.5796,-10.96818 19.3249,9.40131 21.9363,75.73273 2.0892,48.05111 1.5669,66.85371 -3.656,73.12125 -8.3567,9.9236 -17.758,9.9236 -26.1148,0 z"
       id="path3405"
       inkscape:connector-curvature="0" />
    <path
       d="m 2751.9791,553.89593 c -8.879,-10.44589 -5.2229,-140.49726 4.1784,-149.89857 14.102,-14.10195 19.3249,4.70066 20.8918,82.00027 2.0892,72.59895 1.5669,75.73272 -8.3567,75.73272 -5.7453,0 -13.0574,-3.65606 -16.7135,-7.83442 z"
       id="path3407"
       inkscape:connector-curvature="0" />
    <path
       d="m 4662.0107,558.07429 c -4.7007,-4.17836 -4.7007,-125.35072 -0.5223,-141.01956 2.0892,-6.78983 5.2229,-12.01278 7.8344,-12.01278 11.4905,0 17.2357,28.20391 19.3249,90.35698 l 2.0892,66.33142 -12.5351,0 c -7.3121,0 -14.6242,-1.56688 -16.1911,-3.65606 z"
       id="path3409"
       inkscape:connector-curvature="0" />
    <path
       d="m 4916.3682,557.55199 c -8.879,-6.26753 -0.5223,-141.01955 9.9236,-150.94315 7.3121,-7.83442 8.3567,-7.31213 11.4905,4.17835 1.5669,6.78984 2.0891,42.82817 1.5669,80.43338 -1.0446,55.36323 -3.1338,67.89831 -9.4014,68.9429 -4.1783,1.04459 -10.4458,0 -13.5796,-2.61148 z"
       id="path3411"
       inkscape:connector-curvature="0" />
    <path
       d="m 5039.1074,550.23987 c -4.1783,-7.83442 -5.2229,-29.2485 -3.1337,-66.33142 3.1337,-59.54159 6.2675,-73.64355 16.7134,-73.64355 10.9682,0 13.0574,13.05737 13.0574,84.08944 0,63.71995 -0.5223,67.37601 -10.4459,67.37601 -5.223,0 -13.0574,-5.22295 -16.1912,-11.49048 z"
       id="path3413"
       inkscape:connector-curvature="0" />
    <path
       d="m 5136.2542,269.76764 c -14.1019,-27.68162 0.5223,-40.21669 26.1148,-23.50326 17.2357,11.49048 28.7262,6.26753 28.7262,-13.05737 0,-12.53507 -2.6115,-16.71343 -13.0574,-19.3249 -12.5351,-3.13377 -16.1911,-15.14654 -4.7006,-15.14654 12.0127,-0.5223 17.758,-10.4459 17.758,-31.85998 0,-26.63703 -9.9236,-34.99374 -25.5925,-20.89179 -5.2229,4.70066 -15.6688,8.35672 -22.9809,8.35672 -12.0128,0 -14.102,-2.08918 -14.102,-15.66884 0,-19.8472 11.4905,-25.59244 49.618,-25.59244 45.9619,0.5223 49.0957,6.26754 48.5734,78.86649 -0.5223,48.57341 -2.0892,62.15307 -10.4459,76.25502 -9.9236,15.66884 -12.0128,16.71343 -41.2613,16.71343 -28.7262,0 -30.8153,-1.04459 -38.6498,-15.14654 z"
       id="path3415"
       inkscape:connector-curvature="0" />
    <path
       d="M 1311.4905,253.5765 C 1301.0446,243.65291 1300,237.38537 1300,185.6782 c 0,-48.5734 1.5669,-59.54159 10.9682,-75.21043 10.4459,-18.280314 12.0128,-18.802609 41.2613,-18.802609 30.2931,0 30.2931,0 41.2612,20.891789 8.8791,17.75802 10.9682,30.29309 10.9682,75.73272 0,52.22947 -0.5223,54.31865 -13.5796,64.76454 -19.3249,15.14654 -63.1977,15.14654 -79.3888,0.52229 z m 53.7963,-73.12125 0,-54.84094 -13.0573,0 c -13.0574,0 -13.0574,0.5223 -14.6243,49.0957 -1.5669,50.14029 3.1338,65.28683 19.3249,62.15306 6.7898,-1.56688 8.3567,-10.44589 8.3567,-56.40782 z"
       id="path3417"
       inkscape:connector-curvature="0" />
    <path
       d="m 3862.3776,254.0988 c -11.4905,-12.53507 -6.7899,-31.85998 7.8344,-31.85998 5.7452,0 16.1911,3.65607 22.981,8.35672 29.2485,18.80261 39.1721,-10.44589 13.0573,-36.56063 -8.879,-8.35671 -15.6688,-18.8026 -15.6688,-22.98096 0,-4.17836 -8.3567,-16.71343 -18.2803,-27.68162 -17.758,-19.8472 -21.9364,-32.90456 -14.102,-44.395044 2.0892,-3.133768 22.981,-7.312125 46.4842,-8.879009 46.4843,-2.611473 61.6308,2.089179 57.9747,20.369493 -1.5668,8.35671 -6.7898,10.44589 -31.8599,11.49048 -34.9938,2.08918 -37.6052,7.83442 -12.0128,28.20391 20.3695,16.71343 44.9173,57.45241 44.9173,75.73273 0,6.78983 -5.7452,18.28031 -13.0573,25.07014 -10.4459,10.96819 -17.2358,13.05737 -45.962,13.05737 -26.1147,0 -35.516,-2.08918 -42.3058,-9.9236 z"
       id="path3419"
       inkscape:connector-curvature="0" />
    <path
       d="m 2632.3737,236.86307 c -5.7453,-9.4013 -15.1466,-21.41408 -20.8918,-26.11473 -12.0128,-9.9236 -13.5797,-18.28031 -5.7453,-30.29309 3.6561,-6.26753 6.2676,-6.26753 15.1466,2.08918 10.4459,9.4013 10.4459,9.4013 14.1019,-4.70065 2.0892,-7.83442 2.0892,-32.38227 0,-54.84094 -3.656,-44.395046 2.0892,-56.407823 22.981,-49.617992 12.5351,4.178357 12.0128,-1.566884 10.9682,88.790092 0,40.21669 -0.5223,77.29961 -0.5223,82.52255 0,16.19114 -24.0256,10.96819 -36.0383,-7.83442 z"
       id="path3421"
       inkscape:connector-curvature="0" />
  </g>
</svg>
