<?xml version="1.0" encoding="UTF-8"?>
<svg xmlns="http://www.w3.org/2000/svg" xmlns:xlink="http://www.w3.org/1999/xlink" width="400pt" height="131pt" viewBox="0 0 400 131" version="1.1">
<g id="surface1">
<path style=" stroke:none;fill-rule:nonzero;fill:rgb(0%,0%,0%);fill-opacity:1;" d="M 224.976562 3.203125 C 224.578125 3.605469 224.445312 17.753906 224.445312 64.164062 L 224.445312 124.59375 L 225.601562 125.039062 C 227.109375 125.617188 301.332031 125.617188 302.84375 125.039062 L 304 124.59375 L 304 64.164062 C 304 17.753906 303.867188 3.605469 303.464844 3.203125 C 302.710938 2.449219 225.734375 2.449219 224.976562 3.203125 Z M 301.644531 5.027344 C 301.734375 5.160156 301.867188 101.1875 301.777344 122.8125 C 301.777344 123.125 288.976562 123.257812 264.222656 123.257812 C 239.464844 123.257812 226.667969 123.125 226.667969 122.8125 C 226.578125 98.515625 226.710938 5.160156 226.84375 4.984375 C 227.023438 4.671875 301.332031 4.761719 301.644531 5.027344 Z M 301.644531 5.027344 "/>
<path style=" stroke:none;fill-rule:nonzero;fill:rgb(0%,0%,0%);fill-opacity:1;" d="M 252.800781 60.5625 C 252.578125 60.738281 252.445312 61.316406 252.535156 61.894531 C 252.621094 62.695312 253.023438 63.007812 254 63.1875 C 255.289062 63.410156 255.332031 63.496094 255.332031 65.855469 C 255.332031 68.214844 255.289062 68.304688 254 68.527344 C 252.933594 68.703125 252.621094 69.015625 252.535156 69.996094 C 252.445312 70.75 252.578125 71.195312 252.976562 71.195312 C 259.421875 71.375 274.933594 71.105469 275.246094 70.796875 C 275.910156 70.128906 274.753906 68.613281 273.464844 68.4375 C 272.265625 68.304688 272.222656 68.214844 272.222656 65.855469 C 272.222656 63.496094 272.265625 63.410156 273.464844 63.273438 C 274.753906 63.097656 275.910156 61.585938 275.246094 60.917969 C 274.800781 60.472656 253.511719 60.117188 252.800781 60.5625 Z M 262.132812 63.320312 C 262.84375 63.898438 262.84375 67.8125 262.089844 68.4375 C 261.511719 68.925781 258.710938 68.882812 257.820312 68.347656 C 257.023438 67.859375 257.199219 63.765625 258.042969 63.273438 C 258.976562 62.742188 261.421875 62.742188 262.132812 63.320312 Z M 269.867188 63.410156 C 270.042969 63.632812 270.222656 64.742188 270.222656 65.855469 C 270.222656 66.96875 270.042969 68.082031 269.867188 68.347656 C 269.6875 68.570312 268.578125 68.792969 267.332031 68.792969 L 265.109375 68.75 L 264.976562 66.34375 C 264.890625 65.054688 264.933594 63.71875 265.066406 63.410156 C 265.289062 62.742188 269.421875 62.742188 269.867188 63.410156 Z M 269.867188 63.410156 "/>
<path style=" stroke:none;fill-rule:nonzero;fill:rgb(0%,0%,0%);fill-opacity:1;" d="M 358.667969 8.765625 C 358.089844 9.96875 357.511719 10.992188 357.332031 11.125 C 357.15625 11.257812 356.179688 12.816406 355.109375 14.59375 C 354.089844 16.375 353.066406 17.933594 352.84375 18.066406 C 352.621094 18.199219 352.445312 18.6875 352.445312 19.132812 C 352.445312 19.578125 352.265625 20.023438 352.089844 20.113281 C 351.777344 20.203125 350.753906 21.847656 347.421875 27.367188 C 347.109375 27.855469 346.355469 29.101562 345.6875 30.167969 C 344.976562 31.238281 344.445312 32.261719 344.445312 32.527344 C 344.445312 32.75 344.265625 32.929688 344.089844 32.929688 C 343.910156 32.929688 343.511719 33.460938 343.199219 34.128906 C 342.933594 34.839844 342.265625 35.953125 341.777344 36.710938 C 341.289062 37.421875 340.710938 38.445312 340.445312 38.933594 C 339.777344 40.226562 338.933594 41.558594 338.578125 41.828125 C 338.398438 41.960938 338.042969 42.582031 337.777344 43.164062 C 337.554688 43.785156 336.933594 44.851562 336.445312 45.609375 C 335.957031 46.320312 335.421875 47.257812 335.246094 47.613281 C 335.066406 47.96875 334.667969 48.546875 334.355469 48.859375 C 334.042969 49.167969 333.777344 49.746094 333.777344 50.105469 C 333.777344 50.460938 333.644531 50.726562 333.421875 50.726562 C 333.246094 50.726562 332.578125 51.660156 332 52.816406 C 331.378906 54.019531 330.753906 55.042969 330.621094 55.175781 C 330.265625 55.53125 325.777344 63.050781 325.777344 63.363281 C 325.777344 63.496094 325.199219 64.476562 324.445312 65.5 C 322.800781 67.769531 322.800781 68.390625 324.355469 70.574219 C 325.023438 71.550781 326.042969 73.285156 326.667969 74.445312 C 327.246094 75.601562 327.910156 76.535156 328.089844 76.535156 C 328.222656 76.535156 328.535156 76.980469 328.710938 77.515625 C 328.890625 78.046875 329.777344 79.648438 330.710938 81.03125 C 331.6875 82.410156 332.445312 83.65625 332.445312 83.789062 C 332.445312 83.921875 333.066406 84.945312 333.777344 86.011719 C 334.535156 87.125 335.109375 88.238281 335.109375 88.460938 C 335.109375 88.726562 335.378906 89.21875 335.6875 89.527344 C 336.042969 89.839844 336.800781 90.953125 337.378906 91.976562 C 337.957031 93 339.734375 95.980469 341.332031 98.605469 C 342.933594 101.277344 344.445312 103.769531 344.667969 104.210938 C 346.667969 107.726562 349.109375 111.511719 349.421875 111.597656 C 349.601562 111.6875 349.777344 111.957031 349.777344 112.222656 C 349.777344 112.800781 354.265625 120.320312 354.753906 120.5 C 354.933594 120.585938 355.109375 120.898438 355.109375 121.210938 C 355.109375 121.523438 355.734375 122.632812 356.445312 123.65625 C 357.199219 124.679688 358.222656 126.328125 358.710938 127.261719 C 359.957031 129.664062 361.378906 129.621094 362.578125 127.261719 C 362.890625 126.640625 363.511719 125.527344 364 124.816406 C 364.488281 124.058594 365.023438 123.167969 365.199219 122.8125 C 365.332031 122.457031 365.601562 122.054688 365.777344 121.921875 C 366.3125 121.523438 370.667969 114.003906 370.667969 113.511719 C 370.667969 113.246094 370.800781 113.023438 371.023438 113.023438 C 371.199219 113.023438 371.867188 112.089844 372.445312 110.886719 C 373.066406 109.730469 373.6875 108.707031 373.820312 108.574219 C 374.089844 108.351562 376.976562 103.632812 379.066406 99.984375 C 379.644531 98.960938 380.398438 97.847656 380.753906 97.539062 C 381.066406 97.226562 381.332031 96.738281 381.332031 96.46875 C 381.332031 96.246094 381.957031 95.136719 382.667969 94.023438 C 383.421875 92.953125 384 91.886719 384 91.621094 C 384 91.398438 384.222656 91.21875 384.445312 91.21875 C 384.710938 91.21875 384.890625 90.953125 384.890625 90.640625 C 384.890625 90.328125 385.464844 89.261719 386.222656 88.28125 C 386.933594 87.347656 387.554688 86.324219 387.554688 86.058594 C 387.554688 85.789062 387.957031 85.125 388.445312 84.542969 C 388.933594 83.964844 389.332031 83.253906 389.332031 82.941406 C 389.332031 82.632812 389.511719 82.320312 389.6875 82.230469 C 389.910156 82.140625 390.355469 81.5625 390.710938 80.894531 C 391.066406 80.273438 392.621094 77.558594 394.265625 74.890625 C 398.179688 68.390625 398.578125 67.546875 397.910156 67.324219 C 397.601562 67.191406 397.332031 66.925781 397.332031 66.65625 C 397.332031 66.078125 391.511719 56.332031 391.023438 56.15625 C 390.84375 56.066406 390.667969 55.753906 390.667969 55.445312 C 390.667969 55.132812 390.132812 54.0625 389.464844 53.128906 C 388.753906 52.152344 387.734375 50.414062 387.109375 49.257812 C 386.535156 48.101562 385.867188 47.167969 385.6875 47.167969 C 385.554688 47.167969 385.246094 46.722656 385.109375 46.144531 C 384.933594 45.609375 384.3125 44.542969 383.734375 43.742188 C 383.15625 42.984375 382.667969 42.183594 382.667969 41.960938 C 382.667969 41.738281 381.957031 40.535156 381.109375 39.203125 C 380.265625 37.910156 379.554688 36.664062 379.554688 36.441406 C 379.554688 36.222656 379.378906 36.042969 379.109375 36.042969 C 378.890625 36.042969 378.667969 35.777344 378.667969 35.417969 C 378.667969 35.0625 378.398438 34.484375 378.089844 34.175781 C 377.777344 33.863281 377.378906 33.285156 377.199219 32.929688 C 377.023438 32.570312 376.535156 31.726562 376.089844 31.105469 C 375.421875 30.082031 373.109375 26.207031 371.777344 23.941406 C 369.820312 20.558594 364.667969 12.191406 364.488281 12.015625 C 364.3125 11.878906 364 11.300781 363.734375 10.679688 C 363.023438 9.121094 360.933594 6.675781 360.265625 6.675781 C 359.957031 6.675781 359.246094 7.609375 358.667969 8.765625 Z M 363.601562 14.730469 C 364.976562 17.042969 366.3125 19.132812 366.535156 19.355469 C 366.710938 19.625 367.378906 20.78125 368 21.9375 C 368.578125 23.09375 369.246094 24.027344 369.421875 24.027344 C 369.644531 24.027344 369.777344 24.25 369.777344 24.519531 C 369.777344 25.140625 374.265625 32.660156 374.753906 32.839844 C 374.933594 32.929688 375.109375 33.238281 375.109375 33.550781 C 375.109375 33.816406 376 35.464844 377.109375 37.109375 C 378.222656 38.800781 379.109375 40.316406 379.109375 40.535156 C 379.109375 40.714844 379.378906 41.160156 379.6875 41.472656 C 380.535156 42.40625 381.289062 43.695312 381.820312 45.03125 C 382.089844 45.742188 382.488281 46.277344 382.710938 46.277344 C 382.933594 46.277344 383.109375 46.457031 383.109375 46.675781 C 383.109375 46.945312 383.734375 48.011719 384.445312 49.082031 C 385.199219 50.191406 385.777344 51.171875 385.777344 51.304688 C 385.777344 51.484375 386.398438 52.460938 387.109375 53.53125 C 387.867188 54.644531 388.445312 55.621094 388.445312 55.753906 C 388.445312 55.933594 388.976562 56.867188 389.6875 57.933594 C 390.355469 59.003906 391.109375 60.25 391.421875 60.738281 C 391.734375 61.226562 392.753906 62.964844 393.734375 64.609375 C 394.753906 66.210938 395.554688 67.8125 395.554688 68.082031 C 395.554688 68.527344 394.710938 69.996094 391.421875 75.421875 C 391.109375 75.867188 390.398438 77.070312 389.777344 78.09375 C 389.199219 79.070312 388.3125 80.585938 387.867188 81.429688 C 387.378906 82.277344 386.84375 83.078125 386.667969 83.210938 C 386.488281 83.34375 385.867188 84.324219 385.289062 85.433594 C 384.710938 86.546875 383.6875 88.238281 383.023438 89.171875 C 382.355469 90.105469 381.777344 91.175781 381.777344 91.488281 C 381.777344 91.796875 381.601562 92.109375 381.421875 92.199219 C 380.933594 92.375 377.777344 97.671875 377.777344 98.25 C 377.777344 98.515625 377.601562 98.785156 377.421875 98.871094 C 377.023438 99.007812 369.777344 110.976562 369.777344 111.421875 C 369.777344 111.597656 369.511719 112.042969 369.246094 112.398438 C 368.933594 112.757812 368.445312 113.289062 368.222656 113.601562 C 367.957031 113.914062 367.511719 114.625 367.199219 115.246094 C 366.890625 115.871094 366.265625 116.9375 365.820312 117.695312 C 365.332031 118.40625 364.535156 119.785156 364.042969 120.675781 C 361.6875 125.039062 360 127.039062 360 125.527344 C 360 125.304688 359.734375 124.816406 359.464844 124.503906 C 359.15625 124.191406 358.488281 123.125 358 122.144531 C 357.511719 121.167969 356.578125 119.519531 355.910156 118.539062 C 355.199219 117.515625 354.667969 116.582031 354.667969 116.449219 C 354.667969 116.269531 354.132812 115.335938 353.464844 114.269531 C 352.753906 113.199219 352 111.957031 351.6875 111.464844 C 348.355469 105.949219 347.332031 104.300781 347.023438 104.210938 C 346.84375 104.125 346.667969 103.855469 346.667969 103.589844 C 346.667969 103.011719 339.511719 91.042969 339.023438 90.863281 C 338.84375 90.773438 338.667969 90.464844 338.667969 90.152344 C 338.667969 89.882812 337.777344 88.238281 336.667969 86.589844 C 335.554688 84.902344 334.667969 83.386719 334.667969 83.210938 C 334.667969 83.03125 334.089844 82.054688 333.332031 81.074219 C 332.621094 80.050781 332 79.027344 332 78.847656 C 332 78.625 331.289062 77.46875 330.445312 76.269531 C 329.601562 75.066406 328.890625 73.910156 328.890625 73.6875 C 328.890625 73.464844 328.398438 72.664062 327.867188 71.90625 C 325.6875 69.015625 325.378906 68.082031 326.179688 66.566406 C 326.578125 65.8125 327.15625 65.011719 327.464844 64.832031 C 327.734375 64.65625 328 64.253906 328 63.988281 C 328 63.765625 328.621094 62.652344 329.332031 61.539062 C 330.089844 60.472656 330.667969 59.402344 330.667969 59.136719 C 330.667969 58.914062 330.84375 58.738281 331.023438 58.738281 C 331.199219 58.738281 331.601562 58.203125 331.867188 57.492188 C 332.445312 56.246094 333.378906 54.6875 333.820312 54.285156 C 333.957031 54.152344 334.535156 53.128906 335.109375 51.929688 C 335.6875 50.769531 336.3125 49.835938 336.488281 49.835938 C 336.667969 49.835938 337.023438 49.304688 337.289062 48.589844 C 337.777344 47.300781 338.710938 45.742188 339.15625 45.386719 C 339.332031 45.253906 339.910156 44.273438 340.488281 43.164062 C 341.066406 42.050781 342.089844 40.359375 342.753906 39.425781 C 343.421875 38.488281 344 37.421875 344 37.109375 C 344 36.800781 344.179688 36.488281 344.355469 36.398438 C 344.84375 36.222656 349.332031 28.699219 349.332031 28.121094 C 349.332031 27.855469 349.511719 27.589844 349.6875 27.5 C 350.179688 27.320312 353.332031 22.027344 353.332031 21.449219 C 353.332031 21.179688 353.511719 20.914062 353.6875 20.824219 C 354.089844 20.691406 359.199219 12.28125 359.6875 10.992188 C 360.222656 9.613281 360.976562 10.324219 363.601562 14.730469 Z M 363.601562 14.730469 "/>
<path style=" stroke:none;fill-rule:nonzero;fill:rgb(0%,0%,0%);fill-opacity:1;" d="M 351.511719 67.457031 C 350.84375 68.257812 351.644531 69.28125 353.023438 69.503906 C 353.910156 69.636719 354 69.90625 354 72.308594 C 354 74.890625 353.957031 74.976562 352.800781 75.113281 C 351.734375 75.246094 351.554688 75.46875 351.554688 76.578125 L 351.554688 77.914062 L 355.464844 77.78125 C 359.246094 77.648438 359.332031 77.601562 359.332031 76.535156 C 359.332031 75.777344 359.023438 75.378906 358.222656 75.199219 C 357.199219 74.933594 357.109375 74.753906 357.109375 72.085938 C 357.109375 69.414062 357.199219 69.191406 358.132812 69.058594 C 359.378906 68.882812 360.890625 70.082031 360.890625 71.285156 C 360.890625 71.730469 361.066406 72.441406 361.289062 72.886719 C 361.464844 73.285156 361.957031 74.53125 362.265625 75.644531 C 362.753906 77.160156 363.15625 77.691406 363.910156 77.78125 C 364.621094 77.914062 364.890625 77.691406 364.890625 77.113281 C 364.890625 76.667969 365.289062 75.691406 365.777344 74.976562 C 366.265625 74.222656 366.667969 73.285156 366.667969 72.84375 C 366.667969 72.441406 367.246094 71.152344 367.957031 69.996094 C 369.378906 67.726562 369.15625 66.566406 367.378906 66.835938 C 366.355469 66.96875 365.601562 68.257812 364.753906 71.417969 L 364.132812 73.644531 L 363.601562 72.308594 C 363.289062 71.550781 362.84375 70.617188 362.621094 70.214844 C 362.398438 69.773438 362.222656 68.925781 362.222656 68.304688 C 362.222656 67.28125 362.042969 67.191406 360.132812 67.144531 C 358.933594 67.144531 356.667969 67.058594 355.023438 66.96875 C 352.84375 66.878906 351.910156 66.96875 351.511719 67.457031 Z M 351.511719 67.457031 "/>
<path style=" stroke:none;fill-rule:nonzero;fill:rgb(0%,0%,0%);fill-opacity:1;" d="M 5.777344 42.984375 C 5.199219 44.496094 5.199219 118.363281 5.777344 119.875 L 6.222656 121.03125 L 83.511719 121.03125 L 84.179688 120.054688 C 84.800781 119.164062 84.890625 114.757812 84.890625 81.429688 C 84.890625 48.101562 84.800781 43.695312 84.179688 42.804688 L 83.511719 41.828125 L 6.222656 41.828125 Z M 81.820312 44.320312 C 82.042969 44.453125 82.222656 59.980469 82.222656 81.652344 L 82.222656 118.808594 L 45.332031 118.898438 C 25.023438 118.984375 8.265625 118.984375 8.042969 118.898438 C 7.601562 118.761719 7.378906 46.542969 7.777344 44.808594 L 8.042969 43.828125 L 44.710938 43.917969 C 64.890625 44.007812 81.601562 44.140625 81.820312 44.320312 Z M 81.820312 44.320312 "/>
<path style=" stroke:none;fill-rule:nonzero;fill:rgb(0%,0%,0%);fill-opacity:1;" d="M 38.710938 79.160156 C 37.820312 79.738281 38.398438 80.808594 39.867188 81.207031 C 41.464844 81.609375 41.777344 82.097656 41.777344 84.632812 C 41.777344 86.679688 41.734375 86.726562 40.222656 87.035156 C 38.355469 87.394531 38 87.792969 38.621094 88.949219 C 39.023438 89.707031 39.601562 89.796875 42.667969 89.796875 C 46.089844 89.796875 46.222656 89.75 46.488281 88.726562 C 46.84375 87.394531 46.578125 87.082031 45.023438 87.035156 C 43.957031 86.992188 43.777344 86.769531 43.644531 85.480469 C 43.378906 82.898438 43.910156 80.894531 44.800781 81.164062 C 45.867188 81.519531 46.800781 80.808594 46.578125 79.828125 C 46.445312 79.117188 45.957031 78.984375 42.890625 78.847656 C 40.933594 78.804688 39.066406 78.9375 38.710938 79.160156 Z M 38.710938 79.160156 "/>
<path style=" stroke:none;fill-rule:nonzero;fill:rgb(0%,0%,0%);fill-opacity:1;" d="M 102.800781 42.140625 C 102.132812 42.40625 102.042969 45.210938 102.667969 45.609375 C 102.933594 45.742188 103.109375 46.277344 103.109375 46.765625 C 103.109375 47.613281 104.355469 50.769531 105.332031 52.597656 C 105.601562 53.039062 105.777344 53.839844 105.777344 54.421875 C 105.777344 55 106.089844 55.84375 106.445312 56.332031 C 106.800781 56.777344 107.109375 57.492188 107.109375 57.847656 C 107.109375 58.203125 107.421875 59.09375 107.777344 59.804688 C 108.132812 60.472656 108.445312 61.363281 108.445312 61.71875 C 108.445312 62.339844 108.933594 63.675781 110.445312 66.96875 C 110.800781 67.679688 111.199219 69.015625 111.378906 69.859375 C 111.511719 70.707031 111.820312 71.597656 112 71.863281 C 112.179688 72.085938 112.488281 72.976562 112.667969 73.730469 C 112.800781 74.53125 113.109375 75.199219 113.332031 75.199219 C 113.511719 75.199219 113.820312 76.046875 114 77.070312 C 114.179688 78.09375 114.488281 79.25 114.667969 79.648438 C 115.867188 82.140625 116.445312 83.742188 117.15625 86.101562 C 117.554688 87.570312 118.132812 89.171875 118.398438 89.660156 C 118.667969 90.152344 119.289062 91.753906 119.734375 93.222656 C 120.179688 94.691406 120.800781 96.46875 121.15625 97.226562 C 121.464844 97.9375 121.867188 99.09375 122.042969 99.808594 C 122.179688 100.476562 122.488281 101.140625 122.710938 101.277344 C 122.933594 101.410156 123.109375 101.941406 123.109375 102.476562 C 123.109375 103.011719 123.378906 103.988281 123.734375 104.65625 C 124.089844 105.324219 124.488281 106.4375 124.667969 107.195312 C 124.84375 107.949219 125.15625 108.574219 125.378906 108.574219 C 125.601562 108.574219 125.777344 108.972656 125.777344 109.464844 C 125.777344 110.53125 127.554688 115.828125 128 116.136719 C 128.179688 116.269531 128.488281 117.074219 128.667969 117.917969 C 129.378906 121.253906 127.109375 121.03125 158.222656 121.03125 L 186.132812 121.03125 L 186.800781 120.007812 C 187.15625 119.476562 187.601562 118.363281 187.777344 117.5625 C 187.957031 116.761719 188.355469 115.558594 188.710938 114.890625 C 189.066406 114.222656 189.332031 113.46875 189.332031 113.199219 C 189.332031 112.890625 189.644531 112.089844 190 111.421875 C 190.355469 110.710938 190.667969 109.820312 190.667969 109.417969 C 190.667969 109.019531 190.976562 108.082031 191.332031 107.417969 C 191.6875 106.703125 192 105.769531 192 105.324219 C 192 104.925781 192.179688 104.570312 192.398438 104.570312 C 192.621094 104.570312 192.933594 103.902344 193.109375 103.101562 C 193.464844 101.363281 194.578125 97.984375 195.199219 96.824219 C 195.421875 96.382812 196 94.777344 196.488281 93.265625 C 196.933594 91.796875 197.511719 90.152344 197.777344 89.660156 C 198.445312 88.238281 200 83.519531 200 82.855469 C 200 82.542969 200.3125 81.964844 200.667969 81.609375 C 201.023438 81.207031 201.332031 80.449219 201.332031 79.871094 C 201.332031 79.292969 201.511719 78.714844 201.734375 78.539062 C 202 78.402344 202.3125 77.378906 202.488281 76.3125 C 202.621094 75.199219 202.933594 74.308594 203.109375 74.308594 C 203.332031 74.308594 203.601562 73.6875 203.777344 72.929688 C 203.957031 72.175781 204.355469 71.0625 204.710938 70.394531 C 205.066406 69.726562 205.332031 68.835938 205.332031 68.390625 C 205.332031 67.992188 205.511719 67.28125 205.777344 66.835938 C 206.578125 65.367188 208 61.894531 208 61.316406 C 208.042969 60.605469 209.421875 56.644531 210.042969 55.398438 C 210.3125 54.910156 210.890625 53.308594 211.289062 51.839844 C 211.6875 50.371094 212.222656 48.8125 212.488281 48.367188 C 212.710938 47.96875 213.199219 46.675781 213.601562 45.566406 C 214.222656 43.695312 214.222656 43.472656 213.511719 42.671875 C 212.753906 41.828125 211.332031 41.828125 158.042969 41.871094 C 127.957031 41.871094 103.066406 42.003906 102.800781 42.140625 Z M 211.246094 44.898438 C 211.511719 45.164062 211.289062 46.097656 210.753906 47.257812 C 208.933594 51.171875 208.445312 52.460938 208.445312 53.308594 C 208.445312 53.839844 208.265625 54.332031 208.042969 54.464844 C 207.820312 54.597656 207.511719 55.265625 207.378906 55.933594 C 207.199219 56.644531 206.800781 57.757812 206.488281 58.515625 C 206.132812 59.226562 205.511719 61.050781 205.066406 62.519531 C 204.621094 63.988281 204 65.589844 203.6875 66.078125 C 203.378906 66.566406 203.109375 67.367188 203.109375 67.949219 C 203.109375 68.480469 202.933594 69.015625 202.710938 69.148438 C 202.488281 69.328125 202.179688 70.214844 202 71.195312 C 201.820312 72.175781 201.554688 73.066406 201.332031 73.199219 C 201.109375 73.332031 200.535156 74.890625 200 76.667969 C 199.15625 79.515625 198.445312 81.339844 197.289062 83.742188 C 197.066406 84.144531 196.753906 85.300781 196.621094 86.324219 C 196.445312 87.304688 196.179688 88.105469 196 88.105469 C 195.777344 88.105469 195.511719 88.726562 195.332031 89.484375 C 195.15625 90.242188 194.753906 91.351562 194.398438 92.019531 C 194.042969 92.6875 193.777344 93.667969 193.777344 94.199219 C 193.777344 94.734375 193.601562 95.269531 193.378906 95.402344 C 193.15625 95.535156 192.84375 96.203125 192.710938 96.871094 C 192.535156 97.582031 192.132812 98.695312 191.820312 99.453125 C 191.464844 100.164062 190.84375 101.988281 190.398438 103.457031 C 189.957031 104.925781 189.332031 106.527344 189.023438 107.015625 C 188.710938 107.503906 188.445312 108.304688 188.445312 108.886719 C 188.445312 109.417969 188.265625 109.953125 188.042969 110.085938 C 187.820312 110.265625 187.511719 111.152344 187.332031 112.132812 C 187.15625 113.113281 186.84375 114.003906 186.621094 114.136719 C 186.445312 114.269531 186.042969 115.160156 185.777344 116.050781 C 185.554688 116.9375 185.15625 117.960938 184.976562 118.273438 C 184.667969 118.71875 178.976562 118.808594 158 118.851562 C 130.222656 118.851562 130.710938 118.851562 130.667969 117.027344 C 130.667969 116.628906 130.398438 115.960938 130.042969 115.46875 C 129.734375 114.980469 129.289062 113.867188 129.15625 113.023438 C 128.84375 111.511719 128.621094 110.84375 127.332031 107.90625 C 127.023438 107.148438 126.398438 105.371094 125.957031 103.902344 C 125.554688 102.433594 124.933594 100.742188 124.621094 100.117188 C 124.3125 99.496094 123.601562 97.582031 123.066406 95.890625 C 122.535156 94.15625 121.910156 92.597656 121.6875 92.332031 C 121.511719 92.109375 121.332031 91.621094 121.332031 91.21875 C 121.332031 90.863281 121.023438 89.972656 120.667969 89.261719 C 120.3125 88.59375 120 87.703125 120 87.347656 C 120 86.726562 119.511719 85.390625 118 82.097656 C 117.644531 81.339844 117.246094 80.050781 117.066406 79.207031 C 116.933594 78.359375 116.621094 77.378906 116.445312 76.980469 C 115.109375 74.132812 114.667969 73.019531 114.445312 71.863281 C 114.132812 70.484375 113.734375 69.328125 112.621094 66.96875 C 112.265625 66.210938 111.867188 64.964844 111.734375 64.164062 C 111.554688 63.363281 111.246094 62.609375 111.066406 62.472656 C 110.84375 62.339844 110.667969 61.808594 110.667969 61.273438 C 110.667969 60.695312 110.398438 59.894531 110.089844 59.402344 C 109.777344 58.914062 109.15625 57.3125 108.710938 55.84375 C 108.3125 54.375 107.644531 52.597656 107.289062 51.929688 C 106.933594 51.214844 106.667969 50.414062 106.667969 50.148438 C 106.621094 49.835938 106.265625 48.8125 105.777344 47.835938 C 104.800781 45.832031 104.667969 44.628906 105.332031 44.410156 C 106.398438 44.050781 210.890625 44.542969 211.246094 44.898438 Z M 211.246094 44.898438 "/>
<path style=" stroke:none;fill-rule:nonzero;fill:rgb(0%,0%,0%);fill-opacity:1;" d="M 150.667969 71.863281 C 149.867188 72.796875 150.445312 73.867188 151.734375 73.867188 C 152.355469 73.867188 152.976562 74.089844 153.15625 74.398438 C 153.421875 74.800781 153.511719 76.847656 153.378906 78.761719 C 153.332031 78.984375 152.621094 79.472656 151.777344 79.828125 C 150.933594 80.183594 150.222656 80.808594 150.222656 81.164062 C 150.222656 82.007812 149.511719 81.964844 158.222656 81.964844 C 162.132812 81.964844 165.554688 81.917969 165.777344 81.917969 C 166.042969 81.875 166.222656 81.472656 166.222656 80.984375 C 166.222656 80.363281 165.777344 80.007812 164.800781 79.738281 C 163.378906 79.382812 163.332031 79.25 163.199219 76.980469 C 163.066406 74.445312 163.421875 73.867188 165.246094 73.867188 C 166.132812 73.867188 166.265625 73.644531 166.132812 72.621094 L 166 71.417969 L 158.621094 71.285156 C 152.488281 71.195312 151.15625 71.285156 150.667969 71.863281 Z M 160.800781 76.046875 C 161.066406 79.605469 160.753906 80.09375 158.265625 80.09375 C 156.710938 80.09375 156 79.917969 155.820312 79.382812 C 155.464844 78.402344 155.464844 74.53125 155.867188 74.132812 C 156.042969 73.953125 157.199219 73.867188 158.445312 73.953125 L 160.667969 74.089844 Z M 160.800781 76.046875 "/>
</g>
</svg>
