<?xml version="1.0" encoding="UTF-8"?>
<svg xmlns="http://www.w3.org/2000/svg" xmlns:xlink="http://www.w3.org/1999/xlink" width="305pt" height="300pt" viewBox="0 0 305 300" version="1.1">
<g id="surface1">
<path style=" stroke:none;fill-rule:nonzero;fill:rgb(0%,0%,0%);fill-opacity:1;" d="M 131.550781 10.945312 C 131.214844 11.417969 131.148438 14.863281 131.347656 18.582031 C 131.550781 22.296875 131.550781 37.703125 131.347656 52.835938 L 131.011719 80.269531 L 129.195312 81.6875 C 127.375 83.109375 123.941406 88.445312 123.941406 89.863281 C 123.941406 90.269531 123.199219 91.621094 122.390625 92.769531 C 120.300781 95.539062 117.878906 100.40625 117.878906 101.6875 C 117.878906 102.230469 117.675781 102.703125 117.40625 102.703125 C 116.734375 102.703125 114.507812 106.621094 114.507812 107.769531 C 114.507812 108.3125 114.105469 109.121094 113.632812 109.59375 C 111.949219 111.285156 108.582031 117.363281 108.109375 119.460938 C 107.910156 120.675781 107.4375 121.621094 107.101562 121.621094 C 106.761719 121.621094 106.292969 122.296875 106.023438 123.109375 C 105.753906 123.988281 104.878906 125.539062 104.070312 126.6875 C 103.195312 127.769531 102.316406 129.390625 102.117188 130.203125 C 101.847656 130.945312 101.238281 132.027344 100.703125 132.433594 C 100.164062 132.90625 99.691406 133.988281 99.691406 134.863281 C 99.691406 135.742188 99.421875 136.488281 99.015625 136.488281 C 98.679688 136.488281 98.140625 137.296875 97.941406 138.3125 C 97.671875 139.324219 97.0625 140.609375 96.523438 141.082031 C 96.054688 141.554688 95.648438 142.363281 95.648438 142.90625 C 95.648438 143.378906 95.179688 143.917969 94.640625 144.1875 C 94.101562 144.390625 93.628906 144.933594 93.628906 145.472656 C 93.628906 146.824219 91.070312 151.488281 89.25 153.511719 C 88.308594 154.460938 87.566406 155.675781 87.566406 156.214844 C 87.566406 157.296875 83.523438 165.539062 82.378906 166.757812 C 81.90625 167.230469 81.503906 168.242188 81.503906 168.988281 C 81.503906 169.730469 80.425781 171.757812 79.214844 173.378906 C 77.933594 175.066406 76.519531 177.566406 76.046875 178.917969 C 75.578125 180.269531 75.039062 181.554688 74.769531 181.757812 C 73.824219 182.5 69.378906 190.40625 69.378906 191.417969 C 69.378906 192.027344 69.109375 192.636719 68.773438 192.835938 C 67.964844 193.378906 65.339844 198.445312 65.339844 199.59375 C 65.339844 200.066406 64.460938 201.488281 63.316406 202.703125 C 62.238281 203.917969 61.296875 205.203125 61.296875 205.472656 C 61.296875 206.757812 57.054688 215 55.570312 216.621094 C 54.628906 217.636719 53.753906 219.460938 53.484375 220.675781 C 53.28125 221.960938 52.875 222.972656 52.605469 222.972656 C 52 222.972656 49.171875 228.582031 49.171875 229.796875 C 49.171875 230.335938 48.363281 231.488281 47.488281 232.363281 C 46.542969 233.242188 45.601562 234.730469 45.398438 235.742188 C 45.128906 236.6875 43.78125 239.1875 42.4375 241.285156 C 39.605469 245.472656 37.046875 250.742188 37.046875 252.296875 C 37.046875 252.90625 36.777344 253.378906 36.441406 253.378906 C 35.699219 253.378906 33.679688 257.164062 33.679688 258.511719 C 33.679688 258.917969 32.332031 261.148438 30.648438 263.378906 C 28.964844 265.609375 27.617188 267.972656 27.617188 268.582031 C 27.617188 269.664062 23.238281 277.566406 22.226562 278.378906 C 21.957031 278.582031 21.554688 279.59375 21.285156 280.675781 C 21.015625 281.6875 20.34375 283.039062 19.804688 283.582031 C 19.265625 284.1875 18.859375 285.40625 18.996094 286.417969 L 19.195312 288.175781 L 27.617188 288.582031 C 32.265625 288.785156 69.445312 288.917969 110.265625 288.917969 C 168.667969 288.851562 184.699219 288.648438 185.371094 287.972656 C 185.773438 287.566406 186.652344 287.164062 187.257812 287.164062 C 187.863281 287.164062 189.546875 286.285156 191.027344 285.136719 C 192.445312 284.054688 194.195312 283.109375 194.800781 283.109375 C 195.40625 283.109375 197.023438 282.027344 198.4375 280.742188 C 199.785156 279.460938 201.402344 278.378906 202.074219 278.378906 C 202.683594 278.378906 204.230469 277.5 205.511719 276.351562 C 206.792969 275.269531 208.136719 274.054688 208.609375 273.648438 C 209.082031 273.3125 209.753906 272.972656 210.226562 272.972656 C 211.507812 272.972656 215.75 270.136719 217.433594 268.109375 C 218.308594 267.027344 219.65625 266.214844 220.398438 266.214844 C 221.878906 266.214844 225.652344 264.1875 225.652344 263.445312 C 225.652344 263.175781 226.59375 262.769531 227.671875 262.5 C 228.816406 262.230469 229.691406 261.757812 229.691406 261.417969 C 229.691406 261.082031 230.164062 260.8125 230.703125 260.8125 C 231.175781 260.8125 231.914062 260.40625 232.183594 259.933594 C 232.859375 258.851562 240.671875 254.054688 241.75 254.054688 C 242.15625 254.054688 242.492188 253.851562 242.492188 253.511719 C 242.492188 253.242188 243.636719 252.433594 244.984375 251.6875 C 246.332031 250.945312 249.429688 248.917969 251.855469 247.09375 C 254.277344 245.335938 256.703125 243.917969 257.308594 243.917969 C 257.847656 243.917969 259.53125 242.972656 260.949219 241.890625 C 262.429688 240.742188 264.046875 239.863281 264.515625 239.863281 C 264.988281 239.863281 265.394531 239.527344 265.394531 239.1875 C 265.394531 238.785156 265.796875 238.511719 266.335938 238.511719 C 266.875 238.511719 268.558594 237.433594 270.109375 236.148438 C 271.65625 234.863281 273.410156 233.785156 274.015625 233.785156 C 274.957031 233.785156 278.324219 231.554688 280.347656 229.460938 C 280.886719 228.917969 282.636719 227.90625 284.320312 227.164062 C 285.9375 226.417969 287.890625 225.136719 288.632812 224.257812 C 289.371094 223.445312 290.988281 222.363281 292.203125 221.824219 C 295.164062 220.609375 294.894531 218.511719 291.460938 216.621094 C 290.113281 215.8125 288.363281 214.1875 287.621094 212.972656 C 286.878906 211.824219 285.871094 210.8125 285.398438 210.8125 C 284.457031 210.8125 280.210938 207.09375 280.210938 206.285156 C 280.210938 205.945312 279 204.933594 277.585938 204.054688 C 276.171875 203.109375 274.417969 201.554688 273.746094 200.609375 C 273.070312 199.59375 271.65625 198.242188 270.578125 197.636719 C 269.503906 197.027344 266.539062 194.390625 264.046875 191.824219 C 261.484375 189.257812 258.925781 187.164062 258.386719 187.164062 C 257.78125 187.164062 256.90625 186.285156 256.300781 185.136719 C 255.761719 184.054688 254.414062 182.566406 253.402344 181.960938 C 252.394531 181.351562 249.632812 178.917969 247.273438 176.554688 C 244.847656 174.1875 242.625 172.296875 242.222656 172.296875 C 241.816406 172.296875 240.269531 171.082031 238.785156 169.59375 C 230.636719 161.417969 227.199219 158.3125 226.121094 157.90625 C 225.515625 157.636719 224.640625 156.6875 224.238281 155.8125 C 223.765625 154.863281 222.417969 153.648438 221.207031 153.039062 C 219.992188 152.5 216.894531 149.863281 214.269531 147.296875 C 211.640625 144.664062 209.148438 142.566406 208.8125 142.566406 C 208.476562 142.566406 207.734375 141.757812 207.128906 140.675781 C 206.523438 139.664062 204.835938 138.109375 203.421875 137.230469 C 202.007812 136.351562 200.527344 135 200.054688 134.1875 C 199.652344 133.378906 197.292969 131.214844 194.867188 129.390625 C 192.375 127.5 187.796875 123.511719 184.628906 120.539062 C 177.757812 114.054688 172.101562 108.917969 167.25 104.796875 C 165.296875 103.175781 163.546875 101.351562 163.34375 100.742188 C 163.144531 100.066406 162.265625 99.324219 161.324219 98.917969 C 160.382812 98.582031 156.878906 95.675781 153.441406 92.5 C 143.8125 83.511719 141.855469 81.757812 141.25 81.757812 C 140.980469 81.757812 139.433594 80.472656 137.882812 78.851562 L 134.988281 76.011719 L 135.121094 57.433594 L 135.257812 38.851562 L 155.800781 39.121094 C 170.820312 39.257812 176.480469 39.121094 176.816406 38.511719 C 177.152344 37.972656 177.421875 20.609375 177.21875 14.324219 C 177.152344 13.582031 173.652344 13.445312 157.214844 13.785156 C 146.304688 13.988281 137.074219 14.324219 136.738281 14.527344 C 136.402344 14.730469 135.660156 13.851562 135.121094 12.5 C 134.109375 10.066406 132.695312 9.460938 131.550781 10.945312 Z M 156.675781 19.1875 C 164.894531 19.121094 171.898438 19.257812 172.234375 19.527344 C 172.640625 19.730469 173.113281 22.09375 173.3125 24.730469 C 173.785156 29.390625 173.71875 29.59375 172.101562 30.675781 C 171.160156 31.351562 169.8125 31.6875 169.203125 31.488281 C 165.636719 30.335938 140.308594 31.417969 142.394531 32.566406 C 144.082031 33.511719 143.070312 34.324219 139.703125 34.863281 C 137.410156 35.203125 136.46875 35.066406 135.996094 34.390625 C 135.324219 33.3125 135.1875 21.417969 135.796875 19.121094 C 136.199219 17.769531 136.332031 17.703125 138.960938 18.511719 C 140.847656 19.054688 146.707031 19.257812 156.675781 19.1875 Z M 163.074219 35.136719 C 172.773438 35.136719 174.457031 35.269531 174.457031 36.148438 C 174.457031 37.027344 172.503906 37.164062 160.652344 37.164062 C 149.605469 37.164062 146.84375 36.960938 146.84375 36.285156 C 146.84375 34.796875 147.71875 34.324219 149.804688 34.730469 C 150.882812 34.933594 156.8125 35.136719 163.074219 35.136719 Z M 137.882812 83.242188 C 138.894531 83.714844 140.710938 85 141.855469 86.148438 C 144.417969 88.714844 154.320312 97.835938 158.292969 101.417969 C 164.355469 106.824219 170.753906 112.566406 172.574219 114.324219 C 173.652344 115.335938 174.996094 116.285156 175.671875 116.488281 C 176.34375 116.6875 177.289062 117.566406 177.828125 118.378906 C 178.367188 119.121094 179.445312 120.269531 180.117188 120.878906 C 180.789062 121.488281 182.003906 122.703125 182.8125 123.648438 C 185.574219 126.824219 192.039062 132.164062 193.859375 132.703125 C 194.667969 132.972656 195.339844 133.445312 195.339844 133.785156 C 195.339844 134.121094 197.226562 136.148438 199.515625 138.3125 C 201.804688 140.472656 204.835938 143.378906 206.183594 144.730469 C 207.597656 146.148438 208.945312 147.296875 209.285156 147.296875 C 209.621094 147.296875 211.640625 149.121094 213.863281 151.351562 C 216.085938 153.582031 218.175781 155.40625 218.644531 155.40625 C 219.050781 155.40625 220.332031 156.621094 221.542969 158.109375 C 222.6875 159.59375 224.4375 161.011719 225.316406 161.214844 C 226.257812 161.417969 227 162.027344 227 162.566406 C 227 163.039062 228.347656 164.59375 230.03125 166.011719 C 231.714844 167.363281 233.261719 169.054688 233.464844 169.730469 C 233.667969 170.40625 234.542969 171.148438 235.417969 171.351562 C 236.292969 171.554688 237.640625 172.636719 238.515625 173.714844 C 239.324219 174.796875 240.335938 175.675781 240.738281 175.675781 C 241.144531 175.675781 243.230469 177.5 245.386719 179.730469 C 247.476562 181.960938 249.496094 183.785156 249.765625 183.785156 C 250.101562 183.785156 251.855469 185.136719 253.539062 186.757812 C 255.289062 188.445312 257.039062 190 257.378906 190.335938 C 257.78125 190.609375 258.992188 191.824219 260.207031 193.039062 C 264.449219 197.296875 267.617188 200 268.492188 200 C 268.964844 200 269.503906 200.609375 269.769531 201.285156 C 269.972656 202.027344 270.984375 203.109375 271.925781 203.714844 C 272.871094 204.390625 274.957031 206.148438 276.507812 207.703125 C 279.808594 211.011719 286.679688 217.027344 287.957031 217.769531 C 288.496094 218.039062 288.699219 218.785156 288.496094 219.460938 C 287.824219 221.148438 284.859375 223.648438 283.511719 223.648438 C 282.773438 223.648438 282.234375 223.851562 282.234375 224.1875 C 282.234375 224.460938 281.085938 225.269531 279.742188 226.011719 C 278.324219 226.757812 276.640625 227.769531 276.035156 228.378906 C 273.878906 230.269531 272.871094 231.082031 272.464844 231.082031 C 271.320312 231.082031 266.203125 233.851562 265.125 235.066406 C 264.382812 235.878906 262.160156 237.296875 260.070312 238.242188 C 257.984375 239.257812 256.164062 240.203125 255.964844 240.472656 C 255.492188 241.011719 253.46875 242.230469 250.101562 243.917969 C 248.484375 244.730469 247.207031 245.609375 247.207031 245.945312 C 247.207031 246.621094 242.761719 249.324219 241.617188 249.324219 C 241.144531 249.390625 239.730469 250.269531 238.449219 251.351562 C 237.167969 252.5 235.824219 253.378906 235.351562 253.378906 C 234.945312 253.378906 233.871094 254.054688 232.992188 254.796875 C 232.117188 255.609375 230.636719 256.757812 229.691406 257.296875 C 228.75 257.90625 227.738281 258.785156 227.46875 259.257812 C 227.199219 259.730469 226.324219 260.136719 225.585938 260.136719 C 224.304688 260.136719 221.40625 261.6875 219.722656 263.3125 C 219.253906 263.785156 218.445312 264.1875 217.90625 264.1875 C 216.355469 264.1875 212.921875 266.488281 212.113281 268.039062 C 211.640625 268.988281 210.628906 269.59375 209.753906 269.59375 C 208.945312 269.59375 207.800781 270 207.328125 270.472656 C 206.859375 270.945312 205.242188 272.09375 203.761719 272.972656 C 202.277344 273.851562 200.929688 274.796875 200.730469 275.066406 C 200.527344 275.335938 199.179688 276.214844 197.699219 276.960938 C 196.214844 277.769531 193.320312 279.664062 191.296875 281.082031 C 186.3125 284.664062 185.4375 284.59375 185.035156 280.539062 C 184.359375 274.933594 183.351562 269.527344 182.675781 268.714844 C 182.339844 268.242188 181.867188 266.285156 181.667969 264.257812 C 181.398438 262.230469 180.925781 260.269531 180.519531 259.863281 C 180.183594 259.527344 179.847656 258.3125 179.847656 257.296875 C 179.847656 256.214844 179.445312 254.390625 178.972656 253.175781 C 178.433594 251.960938 177.828125 249.796875 177.558594 248.3125 C 177.289062 246.824219 176.816406 245.335938 176.613281 244.933594 C 176.144531 244.257812 175.066406 239.664062 173.785156 232.972656 C 173.449219 231.214844 172.910156 229.257812 172.574219 228.582031 C 172.234375 227.90625 171.695312 226.082031 171.429688 224.527344 C 171.160156 222.90625 170.753906 221.621094 170.484375 221.621094 C 170.148438 221.621094 169.742188 219.59375 169.472656 217.164062 C 169.203125 214.730469 168.734375 212.230469 168.398438 211.621094 C 168.058594 211.011719 167.589844 209.054688 167.386719 207.230469 C 167.183594 205.472656 166.710938 204.054688 166.308594 204.054688 C 165.972656 204.054688 165.703125 202.636719 165.703125 200.8125 C 165.636719 199.054688 165.230469 196.417969 164.691406 194.933594 C 164.152344 193.445312 163.679688 191.488281 163.679688 190.539062 C 163.679688 189.59375 163.210938 187.972656 162.671875 186.890625 C 162.132812 185.878906 161.660156 184.460938 161.660156 183.851562 C 161.660156 183.242188 161.257812 182.164062 160.71875 181.417969 C 160.246094 180.675781 159.640625 178.109375 159.371094 175.675781 C 159.167969 173.3125 158.628906 171.011719 158.292969 170.675781 C 157.890625 170.269531 157.621094 169.257812 157.621094 168.242188 C 157.621094 166.351562 156.003906 160.8125 154.519531 157.90625 C 153.980469 156.824219 153.578125 155 153.578125 153.785156 C 153.578125 152.566406 153.105469 150.066406 152.566406 148.242188 C 152.027344 146.417969 151.558594 144.054688 151.558594 143.039062 C 151.558594 141.960938 151.152344 140.136719 150.613281 138.988281 C 150.074219 137.769531 149.46875 135.203125 149.265625 133.175781 C 149.066406 131.214844 148.660156 129.257812 148.324219 128.785156 C 147.988281 128.378906 147.449219 126.824219 147.179688 125.335938 C 146.910156 123.851562 146.503906 122.296875 146.167969 121.960938 C 145.898438 121.554688 145.425781 119.863281 145.226562 118.109375 C 144.957031 116.351562 144.484375 114.730469 144.082031 114.527344 C 143.742188 114.257812 143.472656 112.769531 143.472656 111.082031 C 143.472656 109.390625 143.003906 106.960938 142.464844 105.609375 C 141.925781 104.324219 141.453125 102.433594 141.453125 101.417969 C 141.453125 100.40625 141.050781 99.054688 140.511719 98.3125 C 140.039062 97.566406 139.363281 95.945312 139.09375 94.664062 C 138.828125 93.378906 138.152344 91.890625 137.679688 91.351562 C 137.140625 90.8125 136.738281 88.988281 136.738281 86.824219 C 136.738281 84.59375 136.402344 83.109375 135.929688 82.90625 C 135.457031 82.703125 135.257812 82.5 135.527344 82.5 C 135.796875 82.433594 136.871094 82.835938 137.882812 83.242188 Z M 133.503906 83.917969 C 134.246094 84.527344 134.71875 86.214844 134.917969 89.1875 C 135.390625 95.675781 138.085938 106.285156 139.5 107.164062 C 139.835938 107.363281 140.105469 108.988281 140.105469 110.8125 C 140.105469 112.636719 140.511719 115.335938 141.050781 116.6875 C 141.589844 118.109375 142.195312 120.675781 142.464844 122.433594 C 142.664062 124.1875 143.136719 125.8125 143.542969 126.011719 C 143.878906 126.285156 144.148438 127.09375 144.148438 127.90625 C 144.148438 128.714844 144.617188 130.269531 145.15625 131.351562 C 145.695312 132.363281 146.167969 134.121094 146.167969 135.136719 C 146.167969 136.148438 146.640625 138.445312 147.179688 140.269531 C 147.71875 142.09375 148.1875 144.527344 148.1875 145.609375 C 148.1875 146.757812 148.59375 148.242188 149.132812 148.988281 C 149.605469 149.730469 150.210938 152.230469 150.410156 154.59375 C 150.679688 156.960938 151.152344 159.390625 151.558594 160.136719 C 151.894531 160.8125 152.230469 162.230469 152.230469 163.3125 C 152.230469 164.390625 152.632812 165.878906 153.171875 166.621094 C 153.710938 167.363281 154.320312 169.121094 154.589844 170.472656 C 154.859375 171.890625 155.328125 173.175781 155.664062 173.378906 C 156.003906 173.582031 156.273438 175.269531 156.273438 177.09375 C 156.273438 178.917969 156.742188 181.554688 157.28125 182.90625 C 157.820312 184.1875 158.292969 185.742188 158.292969 186.285156 C 158.292969 186.824219 158.695312 188.242188 159.234375 189.390625 C 159.773438 190.609375 160.382812 192.703125 160.652344 194.054688 C 160.851562 195.472656 161.324219 196.621094 161.660156 196.621094 C 162.066406 196.621094 162.335938 198.109375 162.335938 200 C 162.335938 201.824219 162.738281 204.664062 163.277344 206.214844 C 163.816406 207.835938 164.488281 210.539062 164.691406 212.363281 C 164.960938 214.121094 165.433594 215.742188 165.769531 215.945312 C 166.78125 216.554688 166.441406 219.59375 165.296875 220.066406 C 164.421875 220.40625 164.558594 220.675781 165.972656 221.890625 C 167.320312 222.972656 167.925781 224.257812 168.398438 227.296875 C 168.734375 229.527344 169.339844 231.621094 169.742188 232.027344 C 170.082031 232.363281 170.417969 233.582031 170.417969 234.664062 C 170.417969 235.742188 170.820312 237.566406 171.359375 238.714844 C 171.898438 239.933594 172.503906 242.636719 172.773438 244.730469 C 172.976562 246.890625 173.515625 248.785156 173.851562 248.988281 C 174.191406 249.257812 174.457031 250.203125 174.457031 251.214844 C 174.457031 252.230469 174.929688 253.917969 175.46875 255 C 176.007812 256.011719 176.480469 257.566406 176.480469 258.378906 C 176.480469 259.121094 176.953125 260.675781 177.488281 261.757812 C 178.027344 262.769531 178.5 264.863281 178.5 266.285156 C 178.5 267.769531 178.972656 270.066406 179.511719 271.417969 C 180.050781 272.703125 180.519531 274.527344 180.519531 275.40625 C 180.519531 276.285156 181.128906 278.175781 181.9375 279.664062 C 182.675781 281.148438 183.214844 282.972656 183.082031 283.785156 L 182.878906 285.136719 L 103.394531 285.269531 C 13.136719 285.40625 21.488281 286.011719 25.730469 279.460938 C 28.558594 275.136719 29.636719 273.175781 29.636719 272.363281 C 29.636719 271.960938 30.582031 270.269531 31.792969 268.511719 C 34.082031 265.066406 40.414062 252.972656 40.414062 251.960938 C 40.414062 251.621094 41.289062 250.066406 42.4375 248.511719 C 43.515625 247.027344 44.457031 245.335938 44.457031 244.796875 C 44.457031 244.324219 44.726562 243.917969 45.0625 243.917969 C 45.398438 243.917969 45.871094 243.039062 46.140625 241.890625 C 46.410156 240.8125 46.8125 239.863281 47.082031 239.863281 C 47.421875 239.863281 48.96875 237.296875 50.585938 234.121094 C 52.203125 230.945312 54.222656 227.09375 55.03125 225.472656 C 55.839844 223.917969 56.515625 222.230469 56.515625 221.757812 C 56.582031 221.285156 57.390625 220.066406 58.332031 218.917969 C 60.488281 216.554688 61.96875 213.785156 61.96875 212.164062 C 61.96875 211.554688 62.578125 210.335938 63.316406 209.460938 C 64.058594 208.582031 64.664062 207.5 64.664062 206.960938 C 64.664062 206.488281 65.136719 205.878906 65.675781 205.675781 C 66.214844 205.40625 66.683594 204.863281 66.683594 204.324219 C 66.683594 203.785156 66.953125 203.378906 67.292969 203.378906 C 67.628906 203.378906 68.167969 202.363281 68.367188 201.148438 C 68.636719 200 69.175781 198.511719 69.648438 197.972656 C 70.929688 196.214844 72.746094 192.769531 72.746094 191.890625 C 72.746094 191.417969 73.691406 189.933594 74.769531 188.511719 C 75.914062 187.09375 76.789062 185.675781 76.789062 185.335938 C 76.789062 184.933594 77.53125 183.3125 78.472656 181.6875 C 79.414062 180.066406 80.359375 178.175781 80.5625 177.5 C 80.832031 176.890625 81.234375 176.351562 81.4375 176.351562 C 82.042969 176.351562 84.871094 170.8125 84.871094 169.664062 C 84.871094 169.1875 85.613281 167.835938 86.488281 166.6875 C 87.363281 165.472656 88.308594 163.511719 88.578125 162.296875 C 88.777344 161.148438 89.25 160.136719 89.585938 160.136719 C 89.921875 160.136719 90.394531 159.460938 90.664062 158.648438 C 90.867188 157.835938 91.945312 156.011719 93.023438 154.527344 C 94.101562 153.039062 94.976562 151.285156 94.976562 150.609375 C 94.976562 150 95.246094 149.324219 95.515625 149.1875 C 96.390625 148.851562 101.039062 140.8125 101.039062 139.59375 C 101.039062 138.988281 101.308594 138.511719 101.644531 138.511719 C 101.980469 138.511719 102.519531 137.835938 102.722656 136.960938 C 103.597656 134.054688 105.617188 130 106.761719 129.054688 C 107.976562 128.039062 111.140625 121.621094 111.140625 120.136719 C 111.140625 119.664062 112.015625 118.242188 113.164062 117.027344 C 114.242188 115.8125 115.65625 113.378906 116.261719 111.621094 C 116.933594 109.863281 117.808594 107.972656 118.347656 107.363281 C 118.820312 106.824219 119.226562 106.082031 119.226562 105.8125 C 119.226562 105.539062 119.695312 104.863281 120.234375 104.324219 C 120.773438 103.714844 121.246094 102.566406 121.246094 101.6875 C 121.246094 100.8125 121.449219 100 121.785156 99.863281 C 122.59375 99.527344 125.285156 95.40625 125.285156 94.460938 C 125.285156 93.988281 125.757812 92.972656 126.296875 92.296875 C 126.835938 91.554688 127.308594 90.539062 127.308594 90.066406 C 127.308594 89.121094 128.183594 87.835938 130.203125 85.945312 C 130.808594 85.335938 131.347656 84.460938 131.347656 83.988281 C 131.347656 82.90625 132.15625 82.90625 133.503906 83.917969 Z M 133.503906 83.917969 "/>
<path style=" stroke:none;fill-rule:nonzero;fill:rgb(0%,0%,0%);fill-opacity:1;" d="M 172.910156 219.664062 C 171.429688 220.539062 172.035156 221.621094 174.121094 221.621094 C 176.074219 221.621094 177.019531 220.335938 175.738281 219.527344 C 174.59375 218.785156 174.390625 218.785156 172.910156 219.664062 Z M 172.910156 219.664062 "/>
<path style=" stroke:none;fill-rule:nonzero;fill:rgb(0%,0%,0%);fill-opacity:1;" d="M 180.050781 219.390625 C 179.578125 219.527344 179.175781 220.269531 179.175781 221.011719 C 179.175781 221.960938 179.644531 222.296875 181.128906 222.296875 C 183.214844 222.296875 184.96875 220.8125 184.226562 219.59375 C 183.820312 218.917969 181.53125 218.785156 180.050781 219.390625 Z M 180.050781 219.390625 "/>
<path style=" stroke:none;fill-rule:nonzero;fill:rgb(0%,0%,0%);fill-opacity:1;" d="M 186.851562 219.933594 C 186.246094 221.488281 187.460938 222.433594 189.683594 222.164062 C 191.097656 222.027344 191.636719 221.621094 191.636719 220.609375 C 191.636719 218.851562 187.460938 218.242188 186.851562 219.933594 Z M 186.851562 219.933594 "/>
<path style=" stroke:none;fill-rule:nonzero;fill:rgb(0%,0%,0%);fill-opacity:1;" d="M 195.476562 219.730469 C 194.328125 221.148438 195.609375 222.433594 197.765625 222.164062 C 199.179688 222.027344 199.71875 221.621094 199.71875 220.609375 C 199.71875 218.988281 196.621094 218.378906 195.476562 219.730469 Z M 195.476562 219.730469 "/>
<path style=" stroke:none;fill-rule:nonzero;fill:rgb(0%,0%,0%);fill-opacity:1;" d="M 202.953125 219.390625 C 201.46875 219.933594 202.007812 221.554688 203.761719 222.027344 C 206.050781 222.566406 207.464844 221.960938 207.464844 220.269531 C 207.464844 219.257812 207.058594 218.917969 205.644531 218.988281 C 204.566406 218.988281 203.355469 219.1875 202.953125 219.390625 Z M 202.953125 219.390625 "/>
<path style=" stroke:none;fill-rule:nonzero;fill:rgb(0%,0%,0%);fill-opacity:1;" d="M 211.101562 219.933594 C 210.496094 221.554688 211.777344 222.566406 213.863281 222.027344 C 215.078125 221.6875 215.546875 221.214844 215.414062 220.40625 C 215.144531 218.851562 211.640625 218.445312 211.101562 219.933594 Z M 211.101562 219.933594 "/>
<path style=" stroke:none;fill-rule:nonzero;fill:rgb(0%,0%,0%);fill-opacity:1;" d="M 217.769531 220 C 217.097656 221.890625 220.667969 223.109375 222.890625 221.6875 C 224.574219 220.609375 223.160156 218.917969 220.597656 218.917969 C 219.050781 218.917969 218.039062 219.257812 217.769531 220 Z M 217.769531 220 "/>
<path style=" stroke:none;fill-rule:nonzero;fill:rgb(0%,0%,0%);fill-opacity:1;" d="M 226.460938 219.730469 C 225.382812 220.8125 226.660156 222.296875 228.683594 222.296875 C 230.703125 222.296875 231.984375 220.8125 230.90625 219.730469 C 230.433594 219.257812 229.492188 218.917969 228.683594 218.917969 C 227.875 218.917969 226.929688 219.257812 226.460938 219.730469 Z M 226.460938 219.730469 "/>
<path style=" stroke:none;fill-rule:nonzero;fill:rgb(0%,0%,0%);fill-opacity:1;" d="M 233.332031 219.933594 C 232.792969 221.351562 233.601562 222.296875 235.417969 222.296875 C 237.640625 222.296875 239.125 221.621094 239.125 220.609375 C 239.125 218.851562 233.9375 218.175781 233.332031 219.933594 Z M 233.332031 219.933594 "/>
<path style=" stroke:none;fill-rule:nonzero;fill:rgb(0%,0%,0%);fill-opacity:1;" d="M 241.953125 220.40625 C 242.085938 221.621094 242.558594 221.960938 244.175781 221.960938 C 245.722656 221.960938 246.195312 221.6875 246.195312 220.609375 C 246.195312 219.59375 245.65625 219.1875 243.972656 219.054688 C 241.953125 218.851562 241.75 218.988281 241.953125 220.40625 Z M 241.953125 220.40625 "/>
<path style=" stroke:none;fill-rule:nonzero;fill:rgb(0%,0%,0%);fill-opacity:1;" d="M 248.890625 219.59375 C 248.082031 220.878906 249.96875 222.363281 252.191406 222.164062 C 253.738281 222.027344 254.277344 221.621094 254.277344 220.609375 C 254.277344 219.527344 253.738281 219.1875 251.785156 219.054688 C 250.441406 218.917969 249.160156 219.1875 248.890625 219.59375 Z M 248.890625 219.59375 "/>
<path style=" stroke:none;fill-rule:nonzero;fill:rgb(0%,0%,0%);fill-opacity:1;" d="M 257.511719 220 C 256.972656 221.417969 258.1875 222.433594 260.070312 222.164062 C 261.148438 222.027344 261.753906 221.417969 261.890625 220.40625 C 262.09375 219.121094 261.824219 218.917969 260.003906 218.917969 C 258.722656 218.917969 257.78125 219.324219 257.511719 220 Z M 257.511719 220 "/>
<path style=" stroke:none;fill-rule:nonzero;fill:rgb(0%,0%,0%);fill-opacity:1;" d="M 265.191406 219.390625 C 263.574219 219.796875 264.113281 221.148438 266.203125 221.890625 C 268.425781 222.703125 270.109375 222.027344 270.109375 220.269531 C 270.109375 219.257812 269.703125 218.917969 268.289062 218.988281 C 267.210938 219.054688 265.863281 219.1875 265.191406 219.390625 Z M 265.191406 219.390625 "/>
<path style=" stroke:none;fill-rule:nonzero;fill:rgb(0%,0%,0%);fill-opacity:1;" d="M 273.003906 219.390625 C 271.792969 219.863281 271.925781 220.8125 273.339844 221.554688 C 274.890625 222.363281 277.519531 221.757812 277.519531 220.609375 C 277.519531 219.257812 275.027344 218.511719 273.003906 219.390625 Z M 273.003906 219.390625 "/>
<path style=" stroke:none;fill-rule:nonzero;fill:rgb(0%,0%,0%);fill-opacity:1;" d="M 280.886719 220.203125 C 280.886719 220.609375 281.222656 221.082031 281.558594 221.285156 C 282.503906 221.890625 285.0625 221.011719 284.589844 220.203125 C 284.050781 219.390625 280.886719 219.390625 280.886719 220.203125 Z M 280.886719 220.203125 "/>
<path style=" stroke:none;fill-rule:nonzero;fill:rgb(0%,0%,0%);fill-opacity:1;" d="M 130.675781 92.296875 C 130.675781 94.390625 132.226562 94.1875 132.5625 92.027344 C 132.695312 91.011719 132.425781 90.539062 131.753906 90.539062 C 131.011719 90.539062 130.675781 91.148438 130.675781 92.296875 Z M 130.675781 92.296875 "/>
<path style=" stroke:none;fill-rule:nonzero;fill:rgb(0%,0%,0%);fill-opacity:1;" d="M 130.675781 100.40625 C 130.675781 103.445312 132.292969 103.242188 132.5625 100.136719 C 132.695312 98.511719 132.496094 97.972656 131.753906 97.972656 C 130.945312 97.972656 130.675781 98.648438 130.675781 100.40625 Z M 130.675781 100.40625 "/>
<path style=" stroke:none;fill-rule:nonzero;fill:rgb(0%,0%,0%);fill-opacity:1;" d="M 130.472656 105.878906 C 130.203125 106.082031 130.003906 107.164062 130.003906 108.242188 C 130.003906 109.664062 130.339844 110.136719 131.28125 110.136719 C 133.035156 110.136719 133.570312 109.121094 133.101562 107.027344 C 132.695312 105.472656 131.417969 104.863281 130.472656 105.878906 Z M 130.472656 105.878906 "/>
<path style=" stroke:none;fill-rule:nonzero;fill:rgb(0%,0%,0%);fill-opacity:1;" d="M 130.273438 114.527344 C 129.734375 116.824219 130.40625 118.378906 131.820312 118.109375 C 133.304688 117.835938 133.773438 115.136719 132.695312 113.785156 C 131.484375 112.363281 130.742188 112.636719 130.273438 114.527344 Z M 130.273438 114.527344 "/>
<path style=" stroke:none;fill-rule:nonzero;fill:rgb(0%,0%,0%);fill-opacity:1;" d="M 130.808594 121.082031 C 129.734375 122.164062 129.800781 126.148438 130.878906 126.488281 C 132.496094 127.09375 133.371094 126.214844 133.371094 123.988281 C 133.371094 121.417969 132.023438 119.863281 130.808594 121.082031 Z M 130.808594 121.082031 "/>
<path style=" stroke:none;fill-rule:nonzero;fill:rgb(0%,0%,0%);fill-opacity:1;" d="M 130.273438 130.136719 C 129.734375 132.09375 130.742188 133.445312 132.292969 132.90625 C 133.570312 132.433594 133.707031 130.335938 132.5625 129.1875 C 131.347656 127.972656 130.742188 128.175781 130.273438 130.136719 Z M 130.273438 130.136719 "/>
<path style=" stroke:none;fill-rule:nonzero;fill:rgb(0%,0%,0%);fill-opacity:1;" d="M 129.800781 138.988281 C 129.328125 141.824219 129.933594 142.835938 131.753906 142.433594 C 132.765625 142.296875 133.035156 141.621094 133.035156 139.527344 C 133.035156 137.296875 132.765625 136.757812 131.617188 136.621094 C 130.40625 136.417969 130.136719 136.890625 129.800781 138.988281 Z M 129.800781 138.988281 "/>
<path style=" stroke:none;fill-rule:nonzero;fill:rgb(0%,0%,0%);fill-opacity:1;" d="M 128.585938 146.214844 C 127.578125 148.3125 128.789062 150.203125 130.945312 149.863281 C 132.089844 149.730469 132.359375 149.1875 132.359375 147.296875 C 132.359375 145.335938 132.089844 144.863281 130.878906 144.730469 C 129.800781 144.59375 129.125 145 128.585938 146.214844 Z M 128.585938 146.214844 "/>
<path style=" stroke:none;fill-rule:nonzero;fill:rgb(0%,0%,0%);fill-opacity:1;" d="M 128.25 153.714844 C 127.578125 155.472656 128.585938 158.242188 129.867188 157.972656 C 130.675781 157.835938 131.078125 156.960938 131.214844 155.203125 C 131.417969 153.039062 131.214844 152.703125 130.003906 152.703125 C 129.261719 152.703125 128.453125 153.175781 128.25 153.714844 Z M 128.25 153.714844 "/>
<path style=" stroke:none;fill-rule:nonzero;fill:rgb(0%,0%,0%);fill-opacity:1;" d="M 128.25 161.011719 C 128.046875 161.621094 127.980469 162.90625 128.117188 163.988281 C 128.25 165.335938 128.65625 165.878906 129.664062 165.878906 C 130.808594 165.878906 131.011719 165.40625 131.011719 163.175781 C 131.011719 161.148438 130.742188 160.40625 129.800781 160.269531 C 129.195312 160.136719 128.453125 160.472656 128.25 161.011719 Z M 128.25 161.011719 "/>
<path style=" stroke:none;fill-rule:nonzero;fill:rgb(0%,0%,0%);fill-opacity:1;" d="M 128.25 169.1875 C 127.511719 171.082031 128.25 173.3125 129.664062 173.3125 C 130.742188 173.3125 131.011719 172.835938 131.011719 170.945312 C 131.011719 169.257812 130.675781 168.511719 129.800781 168.378906 C 129.195312 168.242188 128.453125 168.582031 128.25 169.1875 Z M 128.25 169.1875 "/>
<path style=" stroke:none;fill-rule:nonzero;fill:rgb(0%,0%,0%);fill-opacity:1;" d="M 138.488281 173.175781 C 137.546875 173.851562 137.410156 174.257812 138.019531 174.664062 C 139.027344 175.269531 140.375 174.121094 140.039062 173.039062 C 139.835938 172.5 139.363281 172.566406 138.488281 173.175781 Z M 138.488281 173.175781 "/>
<path style=" stroke:none;fill-rule:nonzero;fill:rgb(0%,0%,0%);fill-opacity:1;" d="M 128.386719 176.488281 C 127.039062 178.378906 127.039062 179.324219 128.316406 180.675781 C 129.867188 182.230469 131.347656 181.285156 131.347656 178.714844 C 131.347656 175.609375 129.800781 174.460938 128.386719 176.488281 Z M 128.386719 176.488281 "/>
<path style=" stroke:none;fill-rule:nonzero;fill:rgb(0%,0%,0%);fill-opacity:1;" d="M 128.117188 183.582031 C 125.285156 184.730469 125.960938 189.1875 128.992188 189.1875 C 130.808594 189.1875 131.6875 187.296875 131.078125 184.730469 C 130.675781 183.175781 129.933594 182.835938 128.117188 183.582031 Z M 128.117188 183.582031 "/>
<path style=" stroke:none;fill-rule:nonzero;fill:rgb(0%,0%,0%);fill-opacity:1;" d="M 126.296875 193.3125 C 125.554688 194.390625 126.566406 197.296875 127.644531 197.296875 C 129.125 197.296875 130.808594 194.527344 129.867188 193.445312 C 128.992188 192.363281 126.902344 192.296875 126.296875 193.3125 Z M 126.296875 193.3125 "/>
<path style=" stroke:none;fill-rule:nonzero;fill:rgb(0%,0%,0%);fill-opacity:1;" d="M 126.433594 199.121094 C 125.691406 199.863281 125.894531 203.714844 126.769531 204.59375 C 127.980469 205.8125 129.328125 204.257812 129.328125 201.6875 C 129.328125 200.269531 128.925781 199.324219 128.25 199.054688 C 126.972656 198.582031 126.972656 198.582031 126.433594 199.121094 Z M 126.433594 199.121094 "/>
<path style=" stroke:none;fill-rule:nonzero;fill:rgb(0%,0%,0%);fill-opacity:1;" d="M 126.230469 208.378906 C 125.554688 210.136719 126.230469 211.824219 127.644531 211.824219 C 128.722656 211.824219 128.992188 211.351562 128.992188 209.796875 C 128.992188 207.566406 126.972656 206.488281 126.230469 208.378906 Z M 126.230469 208.378906 "/>
<path style=" stroke:none;fill-rule:nonzero;fill:rgb(0%,0%,0%);fill-opacity:1;" d="M 125.960938 216.824219 C 125.960938 217.566406 125.691406 218.378906 125.285156 218.582031 C 124.007812 219.390625 124.613281 221.488281 126.230469 221.890625 C 129.125 222.636719 130.070312 221.757812 129.597656 218.988281 C 128.992188 215.8125 128.855469 215.539062 127.242188 215.539062 C 126.433594 215.539062 125.960938 216.011719 125.960938 216.824219 Z M 125.960938 216.824219 "/>
<path style=" stroke:none;fill-rule:nonzero;fill:rgb(0%,0%,0%);fill-opacity:1;" d="M 132.5625 219.730469 C 131.957031 221.351562 132.832031 222.296875 134.785156 222.296875 C 137.007812 222.296875 138.21875 220.539062 136.671875 219.527344 C 135.257812 218.648438 132.898438 218.785156 132.5625 219.730469 Z M 132.5625 219.730469 "/>
<path style=" stroke:none;fill-rule:nonzero;fill:rgb(0%,0%,0%);fill-opacity:1;" d="M 140.578125 219.863281 C 140.039062 221.214844 141.722656 222.433594 143.609375 222.164062 C 146.101562 221.824219 145.695312 219.324219 143.070312 219.054688 C 141.65625 218.917969 140.847656 219.1875 140.578125 219.863281 Z M 140.578125 219.863281 "/>
<path style=" stroke:none;fill-rule:nonzero;fill:rgb(0%,0%,0%);fill-opacity:1;" d="M 148.457031 219.933594 C 147.851562 221.417969 149.066406 222.433594 150.949219 222.164062 C 152.027344 222.027344 152.566406 221.488281 152.566406 220.609375 C 152.566406 218.851562 149.066406 218.242188 148.457031 219.933594 Z M 148.457031 219.933594 "/>
<path style=" stroke:none;fill-rule:nonzero;fill:rgb(0%,0%,0%);fill-opacity:1;" d="M 156.542969 219.933594 C 155.933594 221.417969 157.148438 222.433594 159.035156 222.164062 C 160.113281 222.027344 160.652344 221.488281 160.652344 220.609375 C 160.652344 218.851562 157.148438 218.242188 156.542969 219.933594 Z M 156.542969 219.933594 "/>
<path style=" stroke:none;fill-rule:nonzero;fill:rgb(0%,0%,0%);fill-opacity:1;" d="M 119.292969 222.636719 C 116.53125 225.609375 119.089844 227.835938 121.917969 225 C 123.535156 223.378906 123.671875 221.890625 122.1875 221.351562 C 120.839844 220.8125 121.179688 220.675781 119.292969 222.636719 Z M 119.292969 222.636719 "/>
<path style=" stroke:none;fill-rule:nonzero;fill:rgb(0%,0%,0%);fill-opacity:1;" d="M 112.960938 226.824219 C 110.671875 228.039062 110.804688 230 113.164062 230.269531 C 114.914062 230.539062 116.53125 228.917969 116.53125 226.890625 C 116.53125 225.472656 115.585938 225.472656 112.960938 226.824219 Z M 112.960938 226.824219 "/>
<path style=" stroke:none;fill-rule:nonzero;fill:rgb(0%,0%,0%);fill-opacity:1;" d="M 104.609375 231.824219 C 103.195312 233.242188 104.40625 234.460938 107.101562 234.460938 C 110.132812 234.460938 111.210938 233.3125 109.457031 231.960938 C 107.910156 230.878906 105.617188 230.8125 104.609375 231.824219 Z M 104.609375 231.824219 "/>
<path style=" stroke:none;fill-rule:nonzero;fill:rgb(0%,0%,0%);fill-opacity:1;" d="M 99.421875 235.742188 C 97.671875 237.703125 98.410156 239.054688 101.039062 238.648438 C 102.855469 238.378906 103.125 238.109375 102.925781 236.554688 C 102.65625 234.390625 100.96875 233.988281 99.421875 235.742188 Z M 99.421875 235.742188 "/>
<path style=" stroke:none;fill-rule:nonzero;fill:rgb(0%,0%,0%);fill-opacity:1;" d="M 93.425781 238.988281 C 91 240.269531 91.269531 242.164062 93.898438 242.433594 C 96.324219 242.703125 97.199219 241.890625 96.59375 239.59375 C 96.121094 237.636719 96.054688 237.566406 93.425781 238.988281 Z M 93.425781 238.988281 "/>
<path style=" stroke:none;fill-rule:nonzero;fill:rgb(0%,0%,0%);fill-opacity:1;" d="M 85.546875 243.582031 C 84.738281 245.136719 84.738281 245.472656 85.546875 245.945312 C 86.085938 246.351562 87.09375 246.621094 87.769531 246.621094 C 88.777344 246.621094 88.980469 246.148438 88.777344 244.460938 C 88.507812 241.6875 86.824219 241.214844 85.546875 243.582031 Z M 85.546875 243.582031 "/>
<path style=" stroke:none;fill-rule:nonzero;fill:rgb(0%,0%,0%);fill-opacity:1;" d="M 78.40625 248.3125 C 77.867188 249.730469 78.675781 250.675781 80.492188 250.675781 C 82.714844 250.675781 84.199219 250 84.199219 248.988281 C 84.199219 247.230469 79.011719 246.554688 78.40625 248.3125 Z M 78.40625 248.3125 "/>
<path style=" stroke:none;fill-rule:nonzero;fill:rgb(0%,0%,0%);fill-opacity:1;" d="M 72.140625 251.960938 C 71.601562 252.296875 71.398438 253.039062 71.738281 254.054688 C 72.140625 255.269531 72.546875 255.40625 73.960938 255.066406 C 76.382812 254.460938 77.460938 253.511719 76.992188 252.296875 C 76.585938 251.285156 73.621094 251.011719 72.140625 251.960938 Z M 72.140625 251.960938 "/>
<path style=" stroke:none;fill-rule:nonzero;fill:rgb(0%,0%,0%);fill-opacity:1;" d="M 65.605469 257.09375 C 65.070312 259.390625 65.539062 259.796875 68.167969 259.054688 C 71.265625 258.175781 71.265625 255.8125 68.234375 255.539062 C 66.347656 255.335938 66.011719 255.609375 65.605469 257.09375 Z M 65.605469 257.09375 "/>
<path style=" stroke:none;fill-rule:nonzero;fill:rgb(0%,0%,0%);fill-opacity:1;" d="M 80.292969 256.214844 C 80.425781 256.621094 80.964844 257.164062 81.371094 257.296875 C 81.839844 257.433594 82.042969 257.164062 81.773438 256.488281 C 81.300781 255.269531 79.886719 255 80.292969 256.214844 Z M 80.292969 256.214844 "/>
<path style=" stroke:none;fill-rule:nonzero;fill:rgb(0%,0%,0%);fill-opacity:1;" d="M 59.410156 260.945312 C 59.613281 262.703125 61.835938 263.445312 62.710938 262.09375 C 63.382812 260.945312 62.171875 259.460938 60.488281 259.460938 C 59.546875 259.460938 59.207031 259.863281 59.410156 260.945312 Z M 59.410156 260.945312 "/>
<path style=" stroke:none;fill-rule:nonzero;fill:rgb(0%,0%,0%);fill-opacity:1;" d="M 51.597656 264.527344 C 51.191406 265.609375 53.011719 266.890625 54.898438 266.890625 C 56.3125 266.890625 56.984375 264.863281 55.839844 264.121094 C 54.359375 263.175781 52.066406 263.378906 51.597656 264.527344 Z M 51.597656 264.527344 "/>
<path style=" stroke:none;fill-rule:nonzero;fill:rgb(0%,0%,0%);fill-opacity:1;" d="M 47.554688 267.90625 C 45.46875 270.066406 44.929688 271.621094 46.207031 272.09375 C 46.882812 272.363281 47.488281 272.230469 47.691406 271.757812 C 47.824219 271.285156 48.566406 270.945312 49.238281 270.945312 C 50.316406 270.945312 50.585938 270.539062 50.382812 269.121094 C 50.113281 266.960938 49.035156 266.488281 47.554688 267.90625 Z M 47.554688 267.90625 "/>
<path style=" stroke:none;fill-rule:nonzero;fill:rgb(0%,0%,0%);fill-opacity:1;" d="M 39.203125 272.433594 C 38.730469 272.90625 38.394531 273.851562 38.394531 274.527344 C 38.394531 275.675781 38.730469 275.8125 40.550781 275.40625 C 43.445312 274.796875 44.660156 273.714844 43.714844 272.566406 C 42.773438 271.417969 40.28125 271.351562 39.203125 272.433594 Z M 39.203125 272.433594 "/>
<path style=" stroke:none;fill-rule:nonzero;fill:rgb(0%,0%,0%);fill-opacity:1;" d="M 33.8125 276.488281 C 32.601562 277.703125 32.804688 279.054688 34.21875 279.054688 C 36.035156 279.054688 37.183594 277.636719 36.304688 276.554688 C 35.363281 275.472656 34.824219 275.472656 33.8125 276.488281 Z M 33.8125 276.488281 "/>
<path style=" stroke:none;fill-rule:nonzero;fill:rgb(0%,0%,0%);fill-opacity:1;" d="M 27.144531 282.230469 C 26.675781 283.242188 26.40625 284.121094 26.539062 284.257812 C 27.011719 284.730469 29.636719 282.164062 29.636719 281.285156 C 29.636719 279.730469 27.953125 280.335938 27.144531 282.230469 Z M 27.144531 282.230469 "/>
<path style=" stroke:none;fill-rule:nonzero;fill:rgb(0%,0%,0%);fill-opacity:1;" d="M 290.449219 206.214844 C 290.855469 207.433594 292.335938 207.636719 292.335938 206.488281 C 292.335938 205.878906 291.863281 205.40625 291.257812 205.40625 C 290.652344 205.40625 290.316406 205.742188 290.449219 206.214844 Z M 290.449219 206.214844 "/>
<path style=" stroke:none;fill-rule:nonzero;fill:rgb(0%,0%,0%);fill-opacity:1;" d="M 209.890625 280.945312 C 209.6875 281.351562 209.820312 281.890625 210.226562 282.09375 C 211.238281 282.769531 211.910156 281.890625 211.035156 281.011719 C 210.5625 280.539062 210.160156 280.539062 209.890625 280.945312 Z M 209.890625 280.945312 "/>
</g>
</svg>
