<?xml version="1.0" encoding="UTF-8"?>
<svg xmlns="http://www.w3.org/2000/svg" xmlns:xlink="http://www.w3.org/1999/xlink" width="402pt" height="79pt" viewBox="0 0 402 79" version="1.1">
<g id="surface1">
<path style=" stroke:none;fill-rule:nonzero;fill:rgb(0%,0%,0%);fill-opacity:1;" d="M 245.441406 3.039062 C 244.90625 3.394531 244.058594 4.738281 243.476562 6.03125 C 243.253906 6.523438 242.675781 7.328125 242.136719 7.773438 C 241.648438 8.222656 240.707031 9.652344 240.128906 10.949219 C 239.546875 12.199219 238.253906 14.121094 237.226562 15.191406 C 234.902344 17.648438 232.714844 20.910156 232.714844 21.894531 C 232.714844 22.339844 232.402344 22.96875 232 23.28125 C 230.835938 24.21875 227.488281 28.730469 226.460938 30.742188 C 225.925781 31.769531 225.296875 32.617188 225.074219 32.617188 C 224.449219 32.617188 224.628906 34.675781 225.296875 35.253906 C 225.613281 35.523438 226.011719 36.328125 226.148438 37.042969 C 226.324219 37.757812 227.175781 39.140625 228.113281 40.125 C 230.121094 42.179688 232.714844 45.800781 232.714844 46.46875 C 232.714844 46.960938 237.226562 53.351562 239.367188 55.898438 C 240.128906 56.792969 240.753906 57.777344 240.753906 58.089844 C 240.753906 58.625 242.988281 62.019531 244.503906 63.761719 C 245.933594 65.417969 246.695312 65.015625 249.0625 61.351562 C 250.265625 59.429688 251.875 57.238281 252.632812 56.433594 C 254.644531 54.425781 255.492188 53.128906 255.492188 52.011719 C 255.492188 51.476562 256.386719 50.132812 257.457031 48.972656 C 260.226562 45.980469 262.191406 43.121094 262.191406 42.046875 C 262.191406 41.554688 262.417969 41.019531 262.640625 40.886719 C 263.578125 40.304688 268 34.449219 268 33.78125 C 268 33.421875 267.644531 32.84375 267.195312 32.53125 C 265.8125 31.5 262.191406 26.453125 262.191406 25.515625 C 262.191406 25.023438 261.746094 24.261719 261.210938 23.816406 C 260.273438 23.054688 255.492188 16.355469 255.492188 15.816406 C 255.492188 15.28125 251.25 9.515625 249.867188 8.085938 C 249.015625 7.285156 248.210938 6.078125 248.078125 5.40625 C 247.542969 2.992188 247.363281 2.679688 246.648438 2.679688 C 246.246094 2.679688 245.710938 2.859375 245.441406 3.039062 Z M 247.273438 8.890625 C 249.328125 11.347656 252.367188 15.640625 252.367188 16.085938 C 252.367188 16.355469 252.679688 16.667969 253.035156 16.800781 C 253.394531 16.980469 253.707031 17.292969 253.707031 17.515625 C 253.707031 18.097656 256.699219 22.609375 258.710938 25.066406 C 259.648438 26.183594 260.40625 27.300781 260.40625 27.613281 C 260.40625 28.238281 262.996094 32.214844 263.890625 32.929688 C 264.738281 33.648438 264.335938 35.253906 262.863281 36.820312 C 262.238281 37.488281 261.746094 38.113281 261.746094 38.25 C 261.746094 38.339844 261.164062 39.277344 260.40625 40.304688 C 259.691406 41.289062 259.066406 42.359375 259.066406 42.628906 C 259.066406 42.894531 257.859375 44.503906 256.386719 46.246094 C 254.914062 47.945312 253.707031 49.6875 253.707031 50.089844 C 253.707031 50.492188 253.394531 51.074219 253.035156 51.386719 C 252.679688 51.699219 252.367188 52.191406 252.367188 52.457031 C 252.367188 52.726562 251.429688 53.933594 250.355469 55.183594 C 249.238281 56.390625 248.210938 57.777344 248.078125 58.175781 C 247.945312 58.625 247.632812 58.980469 247.410156 58.980469 C 247.183594 58.980469 247.007812 59.25 247.007812 59.609375 C 247.007812 60.769531 246.070312 60.902344 244.953125 59.832031 C 244.371094 59.292969 243.878906 58.625 243.878906 58.402344 C 243.878906 58.175781 243.300781 57.238281 242.539062 56.300781 C 241.824219 55.363281 241.199219 54.425781 241.199219 54.15625 C 241.199219 53.886719 241.066406 53.621094 240.886719 53.53125 C 240.484375 53.398438 238.519531 50.671875 238.519531 50.269531 C 238.519531 50.132812 238.207031 49.6875 237.851562 49.242188 C 235.527344 46.558594 234.5 45.175781 234.5 44.550781 C 234.5 44.191406 234.1875 43.65625 233.828125 43.34375 C 233.472656 43.03125 233.160156 42.539062 233.160156 42.269531 C 233.160156 41.957031 232.265625 40.707031 231.148438 39.5 C 230.035156 38.292969 229.140625 37.175781 229.140625 36.953125 C 229.140625 36.730469 228.828125 36.28125 228.46875 35.925781 C 228.113281 35.523438 227.800781 34.761719 227.800781 34.226562 C 227.800781 33.648438 228.113281 32.929688 228.46875 32.617188 C 228.828125 32.304688 229.140625 31.902344 229.140625 31.679688 C 229.140625 31.277344 232.089844 26.855469 232.667969 26.363281 C 232.800781 26.230469 233.160156 25.738281 233.472656 25.246094 C 236.285156 20.554688 237.851562 18.277344 239.28125 16.667969 C 240.21875 15.59375 241.378906 13.984375 241.871094 13.09375 C 243.03125 10.859375 245.355469 7.640625 245.800781 7.597656 C 246.023438 7.597656 246.648438 8.175781 247.273438 8.890625 Z M 247.273438 8.890625 "/>
<path style=" stroke:none;fill-rule:nonzero;fill:rgb(0%,0%,0%);fill-opacity:1;" d="M 20.101562 10.277344 C 19.339844 10.769531 16.972656 16.710938 16.972656 18.097656 C 16.972656 18.902344 16.660156 19.882812 16.304688 20.285156 C 15.945312 20.644531 15.632812 21.089844 15.632812 21.3125 C 15.632812 21.492188 15.050781 22.878906 14.339844 24.351562 C 11.480469 30.207031 10.273438 33.109375 10.273438 34.273438 C 10.273438 34.988281 9.378906 37.308594 8.308594 39.542969 C 7.234375 41.734375 5.941406 44.460938 5.40625 45.578125 C 4.867188 46.695312 4.242188 47.902344 4.019531 48.257812 C 3.796875 48.617188 3.304688 50.132812 2.902344 51.609375 C 2.457031 53.082031 1.921875 54.871094 1.699219 55.542969 C 1.429688 56.210938 1.296875 56.882812 1.429688 56.972656 C 1.519531 57.058594 18.625 57.238281 39.441406 57.285156 L 77.273438 57.417969 L 77.273438 56.480469 C 77.273438 55.945312 77.003906 55.273438 76.648438 55.003906 C 76.289062 54.738281 75.933594 53.933594 75.800781 53.261719 C 75.308594 50.761719 74.460938 47.988281 73.921875 47.363281 C 73.65625 47.007812 73.121094 45.980469 72.808594 45.128906 C 71.957031 42.851562 70.484375 39.632812 69.902344 38.875 C 69.589844 38.515625 69.144531 37.085938 68.832031 35.792969 C 68.5625 34.449219 67.9375 32.53125 67.492188 31.546875 C 67 30.519531 66.285156 28.910156 65.882812 27.925781 C 65.480469 26.945312 64.855469 25.558594 64.5 24.886719 C 62.890625 21.984375 62.535156 21.179688 62.535156 20.507812 C 62.535156 20.109375 62.21875 19.527344 61.863281 19.214844 C 61.507812 18.902344 61.191406 18.097656 61.191406 17.382812 C 61.191406 16.710938 61.015625 16.042969 60.792969 15.90625 C 60.566406 15.773438 60.253906 14.878906 60.078125 13.984375 C 59.941406 13.046875 59.496094 11.839844 59.136719 11.304688 L 58.511719 10.277344 L 39.484375 10.1875 C 29.035156 10.097656 20.324219 10.144531 20.101562 10.277344 Z M 57.398438 14.296875 C 57.753906 15.011719 58.066406 15.863281 58.066406 16.21875 C 58.066406 16.578125 58.378906 16.980469 58.738281 17.160156 C 59.136719 17.292969 59.40625 17.960938 59.40625 18.902344 C 59.40625 20.421875 60.253906 22.609375 62.308594 26.320312 C 62.933594 27.390625 63.425781 28.550781 63.425781 28.820312 C 63.425781 29.132812 64.050781 30.472656 64.765625 31.859375 C 65.527344 33.246094 66.105469 34.988281 66.105469 35.746094 C 66.105469 36.507812 66.285156 37.445312 66.554688 37.890625 C 66.777344 38.292969 67.222656 39.140625 67.445312 39.769531 C 67.714844 40.394531 68.429688 41.777344 69.011719 42.851562 C 69.636719 43.921875 70.125 45.085938 70.125 45.441406 C 70.125 45.800781 70.707031 47.140625 71.464844 48.480469 C 72.40625 50.132812 72.761719 51.429688 72.71875 52.636719 L 72.671875 54.425781 L 69.949219 54.648438 C 65.972656 55.003906 12.910156 55.050781 8.664062 54.691406 L 5.046875 54.425781 L 5.40625 52.769531 C 5.851562 50.535156 6.878906 47.902344 7.503906 47.273438 C 7.816406 46.960938 8.039062 46.558594 8.039062 46.335938 C 8.039062 46.15625 8.933594 44.101562 10.003906 41.867188 C 11.078125 39.589844 12.058594 37.265625 12.195312 36.640625 C 12.640625 34.496094 14.605469 29.667969 16.792969 25.335938 C 17.152344 24.621094 17.421875 23.816406 17.421875 23.457031 C 17.421875 23.144531 17.734375 22.65625 18.089844 22.339844 C 18.449219 22.027344 18.761719 21.136719 18.761719 20.375 C 18.761719 19.570312 19.074219 18.542969 19.429688 18.050781 C 19.789062 17.605469 20.101562 16.84375 20.101562 16.445312 C 20.101562 16.042969 20.457031 15.101562 20.902344 14.34375 L 21.664062 12.957031 L 56.683594 12.957031 Z M 57.398438 14.296875 "/>
<path style=" stroke:none;fill-rule:nonzero;fill:rgb(0%,0%,0%);fill-opacity:1;" d="M 95.363281 10.367188 C 95.230469 10.679688 95.183594 21.492188 95.230469 34.40625 L 95.363281 57.863281 L 148.652344 58 C 195.773438 58.089844 201.894531 58 201.894531 57.417969 C 201.894531 57.058594 201.9375 46.246094 201.9375 33.378906 L 201.9375 10.054688 L 148.738281 9.917969 C 106.441406 9.832031 95.496094 9.917969 95.363281 10.367188 Z M 199.035156 13.046875 C 199.257812 13.359375 199.347656 22.878906 199.214844 34.40625 C 198.988281 53.84375 198.945312 55.183594 198.230469 55.140625 C 197.785156 55.140625 175.003906 55.09375 147.625 55.050781 L 97.820312 54.960938 L 97.820312 34.046875 C 97.820312 22.519531 97.953125 12.957031 98.132812 12.824219 C 98.265625 12.644531 120.957031 12.511719 148.515625 12.511719 C 188.136719 12.511719 198.722656 12.644531 199.035156 13.046875 Z M 199.035156 13.046875 "/>
<path style=" stroke:none;fill-rule:nonzero;fill:rgb(0%,0%,0%);fill-opacity:1;" d="M 312.800781 14.925781 C 311.773438 15.503906 310.878906 16.488281 308.46875 19.660156 C 307.261719 21.269531 306.054688 22.789062 305.789062 23.011719 C 305.164062 23.59375 304.3125 24.976562 303.734375 26.230469 C 303.511719 26.808594 303.109375 27.257812 302.882812 27.257812 C 302.660156 27.257812 302.347656 27.613281 302.214844 28.015625 C 302.035156 28.464844 301.230469 29.625 300.382812 30.609375 C 299.488281 31.589844 298.238281 33.289062 297.613281 34.40625 C 296.945312 35.523438 296.230469 36.640625 295.960938 36.953125 C 295.691406 37.222656 294.398438 38.5625 293.101562 39.945312 C 291.761719 41.332031 290.644531 42.984375 290.511719 43.746094 C 290.332031 44.550781 289.441406 45.84375 288.367188 46.828125 C 285.507812 49.464844 283.632812 51.921875 283.632812 53.039062 L 283.632812 54.066406 L 370.644531 54.066406 L 370.910156 52.949219 C 371.046875 52.367188 372.476562 50.492188 374.082031 48.839844 C 375.734375 47.097656 377.164062 45.175781 377.433594 44.324219 C 377.65625 43.523438 378.640625 42.003906 379.621094 40.972656 C 382.660156 37.847656 383.6875 36.507812 384.667969 34.496094 C 385.160156 33.46875 385.742188 32.617188 385.921875 32.617188 C 386.097656 32.617188 387.125 31.457031 388.199219 30.027344 C 389.226562 28.640625 390.253906 27.390625 390.386719 27.257812 C 390.566406 27.121094 390.832031 26.585938 391.011719 26.09375 C 391.191406 25.558594 391.769531 24.621094 392.351562 23.996094 C 392.933594 23.371094 394.363281 21.625 395.480469 20.152344 C 396.640625 18.675781 397.980469 17.160156 398.472656 16.800781 C 399.007812 16.445312 399.320312 15.816406 399.230469 15.414062 C 399.097656 14.746094 395.835938 14.65625 356.304688 14.613281 C 332.765625 14.566406 313.203125 14.699219 312.800781 14.925781 Z M 394.40625 17.335938 C 394.40625 17.558594 393.871094 18.1875 393.246094 18.8125 C 392.621094 19.390625 391.683594 20.554688 391.144531 21.449219 C 390.65625 22.296875 388.152344 25.78125 385.605469 29.132812 C 383.0625 32.484375 381.007812 35.390625 381.007812 35.613281 C 381.007812 35.792969 380.46875 36.460938 379.84375 37.042969 C 377.835938 38.964844 375.199219 42.539062 374.351562 44.503906 C 374.128906 45.039062 373.457031 45.84375 372.878906 46.292969 C 372.296875 46.785156 371.089844 48.078125 370.152344 49.285156 L 368.457031 51.386719 L 328.253906 51.386719 C 306.191406 51.386719 288.101562 51.25 288.101562 51.117188 C 288.101562 50.984375 288.992188 49.820312 290.109375 48.570312 C 291.226562 47.273438 292.121094 46.070312 292.121094 45.890625 C 292.121094 45.308594 295.113281 41.511719 297.972656 38.425781 C 298.328125 38.027344 298.820312 37.398438 298.953125 37.042969 C 299.488281 35.925781 300.785156 34.136719 302.796875 31.679688 C 303.867188 30.339844 305.429688 28.195312 306.28125 26.945312 C 307.082031 25.648438 308.109375 24.261719 308.558594 23.816406 C 309.003906 23.371094 309.71875 22.386719 310.210938 21.671875 C 310.65625 20.910156 311.730469 19.570312 312.621094 18.632812 L 314.183594 16.980469 L 354.296875 16.980469 C 376.363281 16.980469 394.40625 17.160156 394.40625 17.335938 Z M 394.40625 17.335938 "/>
<path style=" stroke:none;fill-rule:nonzero;fill:rgb(0%,0%,0%);fill-opacity:1;" d="M 35.644531 66.757812 C 33.5 68.632812 33.367188 70.152344 35.285156 70.152344 C 36.582031 70.152344 36.582031 70.199219 36.492188 72.429688 C 36.402344 74.21875 36.582031 74.84375 37.207031 75.246094 C 38.636719 76.140625 39.128906 74.710938 39.039062 70.199219 C 38.90625 64.566406 38.503906 64.210938 35.644531 66.757812 Z M 35.644531 66.757812 "/>
<path style=" stroke:none;fill-rule:nonzero;fill:rgb(0%,0%,0%);fill-opacity:1;" d="M 144.453125 65.863281 C 142.886719 66.535156 142.21875 67.738281 142.933594 68.589844 C 143.425781 69.167969 144.988281 68.992188 145.96875 68.230469 C 146.371094 67.917969 146.507812 68.097656 146.507812 68.992188 C 146.507812 69.882812 146.015625 70.511719 144.496094 71.582031 C 141.371094 73.773438 141.949219 75.515625 145.792969 75.425781 C 148.828125 75.378906 150.304688 73.683594 148.070312 72.832031 C 146.953125 72.429688 146.507812 71.492188 147.445312 71.492188 C 148.292969 71.492188 149.230469 68.5 148.738281 67.25 C 148.425781 66.398438 146.597656 65.101562 145.925781 65.238281 C 145.882812 65.28125 145.210938 65.550781 144.453125 65.863281 Z M 144.453125 65.863281 "/>
<path style=" stroke:none;fill-rule:nonzero;fill:rgb(0%,0%,0%);fill-opacity:1;" d="M 331.335938 65.550781 C 330.890625 65.640625 330.535156 65.90625 330.535156 66.132812 C 330.535156 66.355469 329.820312 67.425781 328.96875 68.542969 C 328.121094 69.660156 327.316406 71.089844 327.136719 71.714844 C 326.871094 72.878906 327.226562 73.058594 329.28125 72.878906 C 329.683594 72.832031 330.265625 73.234375 330.578125 73.816406 C 331.695312 76.007812 332.542969 76.007812 333.4375 73.863281 C 334.015625 72.519531 334.0625 71.984375 333.617188 71.179688 C 333.300781 70.597656 333.214844 69.394531 333.347656 68.320312 C 333.703125 65.460938 333.390625 65.015625 331.335938 65.550781 Z M 331.335938 65.550781 "/>
<path style=" stroke:none;fill-rule:nonzero;fill:rgb(0%,0%,0%);fill-opacity:1;" d="M 246.738281 66.042969 C 246.46875 66.21875 246.15625 66.800781 245.980469 67.382812 C 245.667969 68.632812 246.695312 69.167969 247.722656 68.320312 C 248.390625 67.785156 248.4375 67.875 248.125 69.167969 C 247.945312 70.109375 248.035156 70.867188 248.347656 71.269531 C 248.613281 71.628906 248.703125 72.164062 248.523438 72.429688 C 248.300781 72.832031 248.035156 72.746094 247.632812 72.164062 C 247.273438 71.714844 246.738281 71.492188 246.335938 71.671875 C 245.21875 72.074219 245.667969 74.128906 247.140625 74.976562 C 248.257812 75.648438 248.480469 75.648438 249.550781 75.066406 C 250.222656 74.664062 251.070312 73.863281 251.429688 73.191406 C 252.054688 72.117188 252.054688 71.941406 251.292969 71.136719 C 250.667969 70.421875 250.625 70.019531 250.980469 69.304688 C 251.652344 68.097656 251.605469 67.785156 250.578125 66.667969 C 249.6875 65.683594 247.722656 65.371094 246.738281 66.042969 Z M 246.738281 66.042969 "/>
<path style="fill-rule:nonzero;fill:rgb(60%,60%,60%);fill-opacity:1;stroke-width:2.45098;stroke-linecap:butt;stroke-linejoin:miter;stroke:rgb(0%,0%,0%);stroke-opacity:1;stroke-miterlimit:4;" d="M 15.982101 149.227453 C 16.014896 147.5446 18.354274 141.195659 21.174644 135.130835 C 28.028801 120.422271 43.825064 82.295837 53.42307 57.315318 L 61.184556 37.099239 L 157.853312 37.099239 L 161.242129 45.065467 C 163.111445 49.447439 165.822499 56.331833 167.276411 60.375049 C 172.086346 73.72859 185.586958 106.642553 193.960617 125.438044 C 207.198869 155.13929 216.217497 152.287184 109.065269 152.287184 C 36.161964 152.287184 15.938375 151.631527 15.982101 149.227453 Z M 15.982101 149.227453 " transform="matrix(0.357333,0,0,0.357466,0,0)"/>
<path style="fill-rule:nonzero;fill:rgb(60%,60%,60%);fill-opacity:1;stroke-width:2.45098;stroke-linecap:butt;stroke-linejoin:miter;stroke:rgb(0%,0%,0%);stroke-opacity:1;stroke-miterlimit:4;" d="M 275.740438 94.698675 L 275.740438 37.099239 L 555.142986 37.099239 L 555.142986 152.287184 L 275.740438 152.287184 Z M 275.740438 94.698675 " transform="matrix(0.357333,0,0,0.357466,0,0)"/>
<path style="fill-rule:nonzero;fill:rgb(60%,60%,60%);fill-opacity:1;stroke-width:2.45098;stroke-linecap:butt;stroke-linejoin:miter;stroke:rgb(0%,0%,0%);stroke-opacity:1;stroke-miterlimit:4;" d="M 677.326259 152.877275 C 672.407008 145.140526 661.650245 129.142504 653.418698 117.318829 L 638.44231 95.824219 L 655.211491 70.745352 C 683.043523 29.122083 685.306378 26.062352 688.225134 26.062352 C 690.925257 26.062352 716.428842 60.385977 731.317776 84.077037 L 738.521747 95.518246 L 724.977408 115.94195 C 704.414937 146.965437 689.89768 166.995748 687.984637 166.973892 C 687.044514 166.952037 682.245511 160.614023 677.326259 152.877275 Z M 677.326259 152.877275 " transform="matrix(0.357333,0,0,0.357466,0,0)"/>
<path style="fill-rule:nonzero;fill:rgb(60%,60%,60%);fill-opacity:1;stroke-width:2.45098;stroke-linecap:butt;stroke-linejoin:miter;stroke:rgb(0%,0%,0%);stroke-opacity:1;stroke-miterlimit:4;" d="M 810.047662 141.840388 C 810.047662 140.966179 823.635728 122.498517 853.533844 82.732941 L 878.64389 49.34909 L 988.95537 49.34909 C 1049.626137 49.34909 1099.266849 49.917326 1099.266849 50.616693 C 1099.266849 52.518097 1043.143657 127.995105 1035.96155 135.742781 L 1029.719566 142.485117 L 919.88908 142.485117 C 859.469741 142.485117 810.047662 142.200999 810.047662 141.840388 Z M 810.047662 141.840388 " transform="matrix(0.357333,0,0,0.357466,0,0)"/>
</g>
</svg>
