<?xml version="1.0" encoding="UTF-8"?>
<svg xmlns="http://www.w3.org/2000/svg" xmlns:xlink="http://www.w3.org/1999/xlink" width="379pt" height="449pt" viewBox="0 0 379 449" version="1.1">
<g id="surface1">
<path style=" stroke:none;fill-rule:nonzero;fill:rgb(0%,0%,0%);fill-opacity:1;" d="M 34.445312 8.449219 C 18.972656 8.933594 14.683594 9.355469 11.542969 10.621094 C 10.453125 11.105469 8.640625 11.464844 7.492188 11.464844 C 5.257812 11.464844 4.410156 12.3125 5.378906 13.519531 C 5.742188 13.941406 6.585938 15.933594 7.3125 17.863281 L 8.519531 21.425781 L 6.648438 29.570312 C 5.621094 34.035156 4.472656 38.925781 4.109375 40.433594 C 2.78125 46.289062 2.78125 53.109375 4.167969 58.539062 C 5.621094 64.152344 6.34375 66.625 7.675781 70.308594 C 8.398438 72.296875 8.582031 79.902344 8.519531 117.078125 C 8.519531 146.949219 8.277344 164.03125 7.796875 169.402344 C 7.007812 177.851562 7.734375 187.503906 9.425781 191.789062 C 10.03125 193.238281 10.089844 194.144531 9.609375 194.988281 C 8.824219 196.4375 8.824219 199.515625 9.367188 216.957031 C 9.609375 224.621094 9.488281 238.019531 9.183594 247.011719 C 8.761719 257.449219 8.761719 263.789062 9.125 265.113281 C 9.425781 266.140625 9.96875 269.339844 10.273438 272.175781 C 10.875 277.367188 11.421875 280.261719 12.992188 285.753906 C 13.414062 287.382812 14.261719 290.644531 14.863281 292.996094 C 15.410156 295.289062 16.253906 297.886719 16.679688 298.730469 C 17.101562 299.574219 18.007812 301.507812 18.734375 303.074219 C 19.398438 304.644531 20.484375 306.214844 21.148438 306.574219 C 21.8125 306.9375 22.78125 308.023438 23.265625 308.988281 C 23.808594 310.015625 25.320312 311.523438 26.648438 312.429688 C 27.976562 313.335938 29.488281 314.84375 30.03125 315.808594 L 30.9375 317.558594 L 43.386719 317.257812 C 54.265625 317.015625 56.621094 316.773438 61.636719 315.445312 C 65.199219 314.480469 69.914062 313.757812 74.023438 313.574219 C 77.710938 313.335938 82.726562 312.910156 85.261719 312.550781 C 88.527344 312.128906 90.761719 312.1875 92.816406 312.671875 C 96.503906 313.515625 118.679688 313.515625 128.46875 312.671875 C 132.394531 312.308594 139.890625 311.886719 145.144531 311.644531 L 154.574219 311.28125 L 155.78125 314.058594 C 156.507812 315.566406 157.351562 316.835938 157.65625 316.835938 C 158.5625 316.835938 158.5 315.265625 157.59375 313.878906 C 157.050781 312.972656 157.050781 312.488281 157.65625 311.765625 C 158.378906 310.921875 160.433594 310.800781 172.277344 310.800781 C 187.625 310.800781 187.445312 310.738281 184.785156 314.601562 C 182.851562 317.257812 182.609375 317.4375 178.984375 317.4375 C 175.238281 317.4375 173.003906 318.464844 170.707031 321.179688 C 169.316406 322.808594 169.136719 323.472656 169.5 325.523438 C 169.679688 326.851562 170.222656 328.363281 170.585938 328.90625 C 171.007812 329.386719 171.734375 330.535156 172.15625 331.4375 C 172.882812 332.828125 172.882812 333.1875 172.035156 334.035156 C 171.492188 334.578125 170.707031 335.484375 170.285156 336.027344 C 169.859375 336.628906 168.59375 337.714844 167.566406 338.5 C 166.476562 339.222656 165.570312 340.25 165.570312 340.734375 C 165.570312 341.941406 169.921875 346.585938 172.035156 347.613281 C 176.328125 349.785156 185.570312 358.777344 187.386719 362.578125 C 188.59375 364.992188 188.59375 365.296875 187.746094 366.140625 C 186.839844 367.046875 186.597656 366.925781 184.847656 365.054688 C 183.820312 363.96875 182.730469 362.457031 182.492188 361.734375 C 182.1875 361.011719 180.917969 359.621094 179.648438 358.71875 C 178.382812 357.8125 176.808594 356.425781 176.085938 355.699219 C 172.519531 351.835938 165.992188 348.941406 167.019531 351.65625 C 167.261719 352.140625 167.566406 353.164062 167.746094 353.949219 C 167.925781 354.734375 168.472656 355.519531 169.015625 355.699219 C 169.5 355.878906 169.679688 356.363281 169.4375 356.726562 C 169.136719 357.269531 168.832031 357.207031 168.351562 356.542969 C 166.234375 353.648438 157.714844 351.714844 156.871094 354.011719 C 156.203125 355.699219 157.65625 357.148438 161.765625 359.078125 C 165.632812 360.828125 167.382812 362.21875 167.382812 363.425781 C 167.382812 364.148438 164.363281 363.363281 162.1875 362.035156 C 160.375 360.949219 157.109375 360.527344 156.324219 361.25 C 155.539062 362.035156 157.835938 365.113281 160.011719 366.320312 C 161.21875 367.046875 163.335938 368.375 164.664062 369.339844 C 165.992188 370.363281 168.472656 371.8125 170.164062 372.65625 C 171.792969 373.503906 173.847656 374.832031 174.636719 375.675781 C 176.75 377.910156 180.859375 377.789062 183.398438 375.433594 C 184.546875 374.347656 185.996094 373.5625 187.324219 373.441406 C 189.136719 373.261719 189.441406 373.441406 189.621094 374.648438 C 189.742188 375.496094 189.136719 376.761719 187.988281 378.148438 C 186.480469 379.839844 186.117188 380.804688 186.117188 382.976562 C 186.117188 385.574219 186.359375 385.996094 189.320312 388.710938 C 191.011719 390.339844 192.824219 391.667969 193.246094 391.667969 C 193.667969 391.667969 195.363281 392.332031 197.054688 393.175781 C 199.953125 394.683594 200.136719 394.683594 203.15625 393.78125 C 207.871094 392.390625 209.5 392.574219 210.167969 394.503906 C 210.46875 395.53125 210.46875 397.160156 210.167969 398.546875 C 209.804688 400.054688 209.863281 401.566406 210.285156 402.710938 C 211.195312 405.308594 211.011719 411.703125 209.984375 414.179688 C 209.078125 416.410156 205.390625 418.824219 202.855469 418.824219 C 200.980469 418.886719 193.851562 421.421875 190.828125 423.230469 C 185.8125 426.1875 183.277344 430.292969 184.0625 434.335938 C 184.484375 436.6875 188.652344 439.949219 193.003906 441.394531 C 196.691406 442.664062 197.898438 442.601562 200.859375 441.15625 C 203.941406 439.644531 206.058594 436.628906 206.058594 433.730469 C 206.058594 432.585938 206.296875 431.4375 206.660156 431.195312 C 207.507812 430.652344 209.683594 433.128906 209.742188 434.636719 C 209.804688 436.929688 212.28125 441.457031 213.609375 441.636719 C 216.691406 442.058594 218.503906 433.609375 217.960938 421.300781 C 217.71875 416.652344 217.839844 409.109375 218.203125 404.523438 C 218.746094 396.554688 218.867188 396.132812 220.4375 394.867188 C 222.3125 393.238281 225.089844 393.054688 225.636719 394.445312 C 226.300781 396.132812 226 404.523438 225.152344 409.773438 C 224.667969 412.609375 223.945312 418.945312 223.582031 423.953125 C 222.917969 431.738281 222.976562 433.488281 223.761719 436.507812 C 225.273438 442.242188 227.8125 444.777344 229.804688 442.421875 C 230.953125 441.09375 232.523438 435.964844 233.007812 431.859375 C 233.25 429.988281 233.734375 428.480469 234.09375 428.480469 C 234.457031 428.480469 235.425781 430.050781 236.210938 431.980469 C 238.023438 436.144531 240.5625 439.828125 242.433594 440.914062 C 249.082031 444.59375 253.25 445.199219 255.609375 442.664062 C 257.117188 441.035156 257.179688 441.15625 254.882812 432.886719 C 252.886719 425.707031 245.09375 417.980469 238.628906 416.773438 C 237.417969 416.59375 235.847656 415.746094 235.183594 415.023438 C 233.492188 413.210938 231.859375 407.722656 232.28125 405.308594 C 233.792969 396.375 235.0625 393.054688 237.238281 392.273438 C 238.082031 391.910156 241.949219 391.667969 245.878906 391.667969 L 252.949219 391.667969 L 255.246094 389.3125 C 257.542969 386.960938 257.542969 386.902344 257.300781 382.734375 C 257.179688 379.839844 256.753906 378.089844 256.03125 377.304688 C 255.488281 376.703125 255.003906 375.734375 255.003906 375.191406 C 255.003906 373.925781 252.40625 372.597656 248.777344 372.113281 C 246.605469 371.753906 245.757812 371.332031 245.335938 370.363281 C 245.03125 369.640625 244.789062 369.398438 244.789062 369.820312 C 244.730469 370.304688 243.21875 372.113281 241.40625 373.925781 C 238.867188 376.339844 237.601562 377.183594 236.269531 377.183594 C 233.855469 377.183594 233.550781 378.027344 235 381.167969 C 236.089844 383.460938 236.210938 384.246094 235.667969 386.117188 C 235.304688 387.324219 234.398438 389.132812 233.613281 390.039062 C 231.558594 392.574219 229.683594 392.089844 228.050781 388.652344 C 225.878906 384.0625 225.816406 383.582031 227.507812 381.769531 C 230.167969 378.875 229.625 378.269531 224.667969 378.691406 C 218.625 379.234375 218.445312 379.296875 219.59375 380.867188 C 220.078125 381.589844 221.101562 382.496094 221.890625 382.855469 C 222.613281 383.21875 223.519531 384.304688 223.824219 385.148438 C 224.367188 386.597656 224.125 387.019531 221.707031 389.195312 C 217.960938 392.632812 216.027344 392.574219 214.457031 388.953125 C 213.1875 386.117188 213.308594 384.367188 214.941406 382.496094 C 216.269531 380.984375 215.363281 380.203125 212.21875 380.140625 C 210.648438 380.140625 207.207031 379.355469 204.546875 378.453125 C 199.953125 376.941406 199.652344 376.761719 198.925781 374.46875 C 197.898438 371.449219 198.324219 360.042969 199.589844 355.398438 C 201.285156 349.363281 202.550781 340.671875 202.3125 336.148438 L 202.128906 331.621094 L 199.832031 331.742188 C 198.5625 331.800781 196.933594 332.285156 196.207031 332.828125 C 193.546875 334.699219 191.011719 333.613281 187.867188 329.328125 C 186.539062 327.457031 186.117188 326.25 186.117188 324.078125 C 186.117188 320.636719 186.660156 319.851562 191.253906 316.894531 C 193.910156 315.144531 195.300781 313.757812 196.390625 311.585938 C 198.082031 308.386719 199.710938 307.660156 202.070312 309.230469 C 202.855469 309.714844 203.640625 309.953125 203.882812 309.773438 C 204.605469 309.050781 204.246094 306.996094 203.21875 306.273438 C 202.3125 305.609375 202.3125 305.367188 203.578125 303.316406 C 206.117188 299.210938 208.050781 299.210938 211.195312 303.257812 C 212.703125 305.308594 212.765625 305.609375 212.039062 306.996094 C 211.554688 307.902344 210.46875 309.109375 209.5625 309.773438 C 207.507812 311.34375 207.445312 312.007812 209.320312 312.007812 C 210.167969 312.007812 211.011719 312.25 211.195312 312.609375 C 211.917969 313.816406 213.308594 313.214844 213.308594 311.703125 C 213.308594 308.203125 217.234375 305.367188 219.289062 307.300781 C 219.957031 307.964844 220.078125 307.902344 219.773438 306.996094 C 219.289062 305.609375 220.195312 303.800781 221.828125 302.953125 C 222.734375 302.410156 223.761719 302.53125 226.058594 303.257812 C 229.625 304.464844 230.832031 306.273438 229.746094 308.6875 C 229.140625 309.953125 228.65625 310.195312 226.359375 310.195312 C 224.789062 310.195312 223.460938 309.835938 222.976562 309.289062 C 222.554688 308.808594 221.769531 308.386719 221.164062 308.386719 C 220.257812 308.386719 220.136719 308.746094 220.378906 310.800781 C 220.800781 313.878906 218.867188 316.414062 216.511719 315.867188 C 214.636719 315.386719 214.699219 316.714844 216.570312 317.4375 C 218.140625 317.980469 220.558594 317.621094 220.558594 316.773438 C 220.558594 316.53125 221.527344 315.324219 222.796875 314.117188 C 224.789062 312.1875 225.273438 312.007812 228.65625 312.007812 C 230.710938 312.066406 233.007812 312.429688 233.855469 312.910156 C 234.699219 313.394531 235.90625 313.757812 236.511719 313.816406 C 237.175781 313.816406 238.203125 314.300781 238.867188 314.902344 C 239.777344 315.6875 240.921875 315.867188 243.765625 315.808594 C 247.328125 315.628906 247.632812 315.75 249.566406 317.738281 C 251.621094 319.851562 251.679688 319.972656 251.859375 326.066406 C 252.285156 337.535156 251.015625 339.164062 241.46875 339.164062 C 235.667969 339.164062 235.605469 339.164062 235 340.792969 C 234.214844 342.90625 234.820312 347.25 236.089844 348.335938 C 236.632812 348.757812 237.84375 350.8125 238.75 352.921875 C 239.714844 355.035156 241.40625 358.113281 242.554688 359.863281 C 243.644531 361.613281 244.730469 363.425781 244.910156 363.90625 C 245.515625 365.597656 245.273438 361.191406 244.488281 356.96875 C 244.066406 354.613281 242.976562 351.292969 242.070312 349.484375 C 241.164062 347.671875 240.5 345.5 240.621094 344.65625 C 240.804688 343.207031 241.042969 343.085938 243.523438 343.148438 C 245.152344 343.148438 247.691406 343.871094 249.867188 344.898438 C 254.820312 347.191406 257.542969 347.128906 260.199219 344.535156 C 262.132812 342.664062 262.253906 342.300781 262.253906 338.558594 C 262.253906 334.878906 262.4375 334.394531 264.128906 332.765625 C 265.457031 331.5 265.941406 330.535156 265.878906 329.207031 C 265.820312 328.242188 265.757812 327.09375 265.820312 326.730469 C 265.878906 326.429688 267.933594 325.765625 270.414062 325.34375 C 275.910156 324.4375 277 323.292969 277.601562 318.101562 C 277.84375 316.109375 278.328125 314.300781 278.691406 314.058594 C 279.054688 313.816406 280.203125 314.480469 281.230469 315.507812 C 284.429688 318.707031 289.929688 323.351562 291.257812 324.078125 C 292.347656 324.679688 292.769531 324.621094 293.433594 323.957031 C 294.160156 323.292969 294.160156 322.6875 293.617188 321 C 293.191406 319.914062 292.46875 318.402344 291.863281 317.738281 C 290.230469 315.808594 288.84375 313.335938 288.84375 312.367188 C 288.84375 311.703125 289.929688 311.585938 295.246094 311.886719 C 300.929688 312.128906 301.773438 312.066406 303.222656 310.980469 C 305.097656 309.59375 305.945312 309.53125 331.445312 308.085938 C 340.449219 307.601562 348.785156 306.996094 349.996094 306.816406 C 353.742188 306.214844 359.179688 300.722656 361.960938 294.867188 C 363.226562 292.152344 364.496094 289.011719 364.800781 287.867188 C 365.164062 286.660156 365.34375 272.539062 365.34375 254.371094 C 365.28125 223.234375 365.28125 222.929688 363.832031 218.164062 C 363.109375 215.507812 362.140625 211.949219 361.839844 210.316406 C 360.992188 206.214844 361.65625 164.089844 362.5625 160.832031 C 363.710938 156.847656 364.015625 136.632812 363.167969 124.199219 C 362.320312 112.308594 362.867188 98.730469 364.679688 87.507812 C 365.101562 84.671875 365.644531 79.964844 365.828125 77.066406 C 366.308594 70.246094 367.335938 68.074219 369.9375 68.316406 C 372.59375 68.558594 372.714844 67.832031 372.777344 52.988281 C 372.835938 39.589844 372.777344 39.40625 369.753906 39.769531 C 368.546875 39.890625 367.820312 39.46875 366.855469 38.140625 C 366.1875 37.113281 365.585938 36.148438 365.585938 35.90625 C 365.585938 35.667969 363.773438 33.191406 361.597656 30.355469 C 359.359375 27.519531 356.945312 23.898438 356.160156 22.328125 C 354.527344 18.890625 351.746094 16.414062 349.089844 16.054688 C 342.683594 15.148438 332.832031 14.726562 329.328125 15.207031 C 324.675781 15.871094 311.746094 15.449219 310.050781 14.542969 C 309.386719 14.183594 305.945312 13.878906 302.316406 13.820312 C 294.644531 13.820312 283.707031 13.035156 277.359375 12.070312 C 274.28125 11.585938 256.210938 11.285156 221.769531 11.164062 C 189.558594 11.105469 168.59375 10.742188 164.964844 10.378906 C 147.988281 8.386719 129.132812 7.726562 107.5625 8.269531 C 104.71875 8.386719 90.339844 8.328125 75.535156 8.207031 C 60.730469 8.085938 42.238281 8.207031 34.445312 8.449219 Z M 231.4375 16.054688 C 325.761719 16.355469 330.539062 16.414062 332.046875 17.261719 C 333.074219 17.863281 336.21875 18.40625 349.570312 20.21875 C 354.226562 20.882812 355.855469 23.597656 356.582031 31.683594 C 356.824219 34.640625 357.246094 39.046875 357.488281 41.398438 C 357.972656 46.226562 357.003906 52.804688 355.371094 55.882812 C 353.921875 58.539062 350.660156 61.554688 348.664062 61.917969 C 347.757812 62.160156 346.429688 63.066406 345.703125 64.03125 C 344.980469 64.996094 343.953125 65.78125 343.46875 65.78125 C 342.925781 65.78125 341.777344 66.144531 340.929688 66.625 C 334.585938 69.945312 315.851562 71.636719 303.648438 69.945312 C 295.308594 68.796875 289.144531 66.566406 286.484375 63.730469 C 285.640625 62.882812 284.671875 62.160156 284.25 62.160156 C 283.222656 62.160156 278.027344 56.304688 275.003906 51.839844 C 272.042969 47.375 270.171875 45.867188 267.875 45.867188 C 265.457031 45.867188 265.035156 46.410156 266.363281 47.917969 C 266.96875 48.640625 267.996094 50.390625 268.597656 51.839844 C 269.265625 53.347656 271.984375 56.726562 275.246094 60.046875 C 279.960938 64.875 281.46875 65.960938 286.425781 68.4375 C 289.628906 69.945312 292.527344 71.210938 292.890625 71.210938 C 293.253906 71.210938 294.339844 71.574219 295.308594 72.058594 C 299.054688 73.929688 301.894531 74.953125 306.609375 76.101562 C 318.574219 79.058594 320.867188 79.179688 322.921875 76.945312 C 323.710938 76.101562 324.675781 75.4375 325.039062 75.4375 C 326.003906 75.4375 327.515625 79.179688 327.515625 81.53125 C 327.515625 82.617188 327.878906 85.515625 328.363281 88.050781 C 328.84375 90.585938 329.691406 97.101562 330.296875 102.59375 C 330.839844 108.085938 331.566406 113.214844 331.925781 114.058594 C 332.230469 114.90625 332.773438 118.164062 333.015625 121.300781 C 333.316406 124.441406 333.738281 128.242188 333.921875 129.691406 C 334.285156 132.226562 333.800781 136.328125 332.289062 144.234375 C 330.054688 155.460938 330.234375 152.804688 331.019531 170.488281 C 331.324219 177.789062 331.925781 184.546875 332.351562 185.574219 C 332.832031 186.902344 332.894531 193.601562 332.59375 211.222656 C 332.289062 224.320312 332.109375 241.277344 332.109375 248.941406 C 332.046875 256.546875 331.804688 263.484375 331.503906 264.210938 C 331.082031 265.539062 328.058594 268.855469 325.582031 270.847656 C 324.070312 272.054688 316.820312 273.804688 311.625 274.226562 C 306.125 274.710938 304.675781 275.132812 305.824219 275.855469 C 306.304688 276.097656 306.488281 276.519531 306.304688 276.703125 C 305.761719 277.183594 281.953125 278.875 278.328125 278.695312 L 275.246094 278.511719 L 275.066406 276.28125 C 274.945312 274.589844 274.398438 273.625 272.769531 272.355469 C 271.621094 271.453125 269.144531 269.160156 267.269531 267.347656 L 263.945312 264.027344 L 264.25 260.105469 C 264.429688 257.933594 265.15625 254.554688 265.820312 252.5625 C 266.542969 250.570312 267.269531 247.132812 267.453125 244.957031 C 267.933594 240.128906 266.96875 237.714844 263.101562 234.15625 C 260.925781 232.164062 260.019531 231.742188 257.902344 231.679688 C 253.914062 231.5 251.257812 231.742188 249.082031 232.40625 C 247.511719 232.949219 247.148438 233.3125 247.511719 234.277344 C 248.175781 236.328125 247.269531 238.378906 245.699219 238.378906 C 244.550781 238.378906 244.367188 238.621094 244.609375 239.890625 C 245.273438 243.449219 242.976562 246.347656 240.5 245.019531 C 239.050781 244.234375 238.324219 240.792969 239.230469 239.042969 C 239.777344 238.140625 240.5 237.777344 242.011719 237.777344 C 244.367188 237.777344 244.789062 236.933594 242.917969 235.964844 C 241.347656 235.121094 241.828125 234.335938 244.125 233.855469 C 245.152344 233.613281 245.9375 233.191406 245.9375 232.886719 C 245.9375 231.921875 244.003906 231.5 242.796875 232.285156 C 241.164062 233.3125 240.742188 232.769531 239.59375 228.90625 C 239.050781 226.972656 237.78125 224.441406 236.816406 223.234375 C 235.847656 222.027344 235.0625 220.757812 235.0625 220.515625 C 235.0625 219.550781 229.019531 214.421875 226.722656 213.457031 C 222.554688 211.707031 216.449219 210.558594 213.429688 210.980469 C 206.660156 211.886719 201.707031 213.515625 200.558594 215.023438 C 200.375 215.328125 199.230469 216.113281 198.082031 216.835938 C 196.871094 217.558594 195.242188 219.007812 194.394531 219.972656 C 192.460938 222.265625 189.742188 227.214844 189.742188 228.300781 C 189.742188 228.785156 189.199219 230.414062 188.53125 231.921875 C 187.324219 234.578125 187.203125 234.699219 185.332031 234.335938 C 184.242188 234.15625 182.730469 233.492188 181.886719 232.886719 C 180.074219 231.621094 174.273438 231.078125 171.070312 231.863281 C 168.167969 232.585938 164.421875 237.292969 163.757812 240.976562 C 163.273438 243.511719 164.179688 249.726562 165.511719 253.046875 C 165.871094 254.011719 166.175781 257.210938 166.175781 260.167969 C 166.175781 265.539062 166.175781 265.597656 164.363281 266.625 C 163.335938 267.167969 162.367188 268.132812 162.1875 268.675781 C 162.003906 269.28125 160.796875 270.304688 159.527344 271.03125 C 157.230469 272.355469 156.386719 273.625 155.601562 277.304688 C 154.632812 281.652344 153.425781 281.832031 140.796875 280.023438 C 136.324219 279.359375 131.609375 278.816406 130.402344 278.816406 C 128.105469 278.816406 128.105469 278.816406 128.105469 276.402344 C 128.105469 275.074219 128.648438 272.476562 129.253906 270.667969 C 130.28125 267.710938 130.339844 267.226562 129.554688 266.441406 C 127.804688 264.753906 126.59375 265.355469 125.207031 268.734375 C 124.417969 270.546875 123.695312 273.445312 123.453125 275.195312 L 123.089844 278.390625 L 116.261719 278.089844 C 111.667969 277.847656 109.253906 277.96875 108.769531 278.453125 C 107.742188 279.476562 63.085938 279.359375 58.3125 278.332031 C 56.316406 277.910156 54.023438 277.425781 53.296875 277.246094 C 52.390625 277.0625 51.96875 276.640625 52.148438 276.160156 C 52.570312 275.132812 51.421875 273.988281 49.972656 273.988281 C 48.644531 273.988281 44.957031 271.332031 44.472656 270.003906 C 44.292969 269.460938 43.6875 265.539062 43.207031 261.3125 C 42.722656 257.027344 42.058594 252.863281 41.753906 252.140625 C 38.734375 244.476562 36.378906 227.277344 35.773438 209.414062 C 34.925781 184.789062 35.589844 137.414062 36.738281 135.304688 C 37.886719 133.3125 39.15625 122.507812 39.640625 111.34375 C 40.003906 102.59375 39.097656 73.808594 38.3125 69.945312 C 37.886719 67.894531 39.21875 67.351562 41.875 68.4375 C 49.007812 71.453125 61.453125 72.902344 70.15625 71.816406 C 76.320312 71.03125 81.335938 69.703125 82.847656 68.4375 C 83.328125 67.953125 84.175781 67.589844 84.660156 67.589844 C 85.140625 67.589844 86.109375 66.988281 86.835938 66.203125 C 90.519531 62.460938 93.480469 59.082031 96.503906 55.339844 C 98.316406 53.109375 100.066406 51.296875 100.308594 51.296875 C 100.550781 51.296875 101.09375 50.511719 101.457031 49.605469 C 101.878906 48.640625 103.089844 46.832031 104.238281 45.503906 C 105.386719 44.234375 106.351562 42.847656 106.351562 42.546875 C 106.351562 42.183594 107.078125 41.097656 107.921875 40.132812 L 109.433594 38.320312 L 110.761719 39.890625 C 114.148438 43.8125 115.535156 45.683594 116.625 48.039062 C 117.589844 49.96875 118.316406 50.632812 119.707031 50.933594 C 120.976562 51.175781 121.761719 51.839844 122.425781 53.226562 C 124.238281 57.273438 127.863281 62.160156 129.011719 62.160156 C 129.496094 62.160156 130.460938 62.945312 131.25 63.910156 C 133.542969 66.746094 144.117188 69.703125 150.222656 69.222656 C 156.265625 68.738281 165.027344 65.960938 166.71875 63.96875 C 168.832031 61.4375 183.941406 54.917969 187.746094 54.917969 C 188.652344 54.917969 189.742188 54.675781 190.042969 54.433594 C 190.949219 53.769531 193.003906 50.574219 193.367188 49.183594 C 193.910156 47.375 196.085938 47.375 198.625 49.304688 C 199.894531 50.210938 203.21875 53.347656 206.117188 56.246094 C 210.105469 60.289062 211.738281 61.554688 213.488281 61.859375 C 214.941406 62.160156 216.328125 63.003906 217.539062 64.332031 C 219.773438 66.925781 222.855469 67.652344 231.921875 67.652344 C 237.359375 67.652344 239.050781 67.46875 239.835938 66.746094 C 240.441406 66.203125 241.46875 65.78125 242.132812 65.78125 C 242.796875 65.78125 243.824219 65.117188 244.308594 64.332031 C 244.851562 63.546875 246.421875 62.339844 247.871094 61.617188 C 249.988281 60.589844 254.460938 56.96875 257.722656 53.589844 C 258.085938 53.226562 259.234375 52.082031 260.320312 50.996094 C 261.347656 49.847656 262.253906 48.761719 262.253906 48.519531 C 262.253906 48.28125 262.738281 47.738281 263.34375 47.3125 C 264.308594 46.589844 264.25 46.53125 262.980469 46.46875 C 262.253906 46.46875 261.167969 46.710938 260.5625 47.011719 C 260.019531 47.3125 258.628906 47.917969 257.601562 48.28125 C 255.609375 49.003906 251.980469 52.261719 251.980469 53.289062 C 251.980469 54.496094 244.910156 60.410156 242.796875 61.011719 C 239.171875 61.980469 229.078125 62.644531 224.789062 62.160156 C 220.742188 61.738281 216.933594 60.589844 216.933594 59.746094 C 216.933594 59.503906 215.300781 58.117188 213.308594 56.667969 C 211.3125 55.21875 209.683594 53.769531 209.683594 53.53125 C 209.683594 53.226562 207.628906 50.996094 205.089844 48.519531 C 199.773438 43.269531 198.746094 43.027344 193.851562 45.324219 C 189.136719 47.554688 187.625 48.398438 186.417969 49.546875 C 185.753906 50.152344 184.484375 50.875 183.519531 51.238281 C 182.609375 51.597656 181.585938 52.5625 181.160156 53.410156 C 180.796875 54.316406 179.953125 54.917969 179.289062 54.917969 C 178.625 54.917969 175.300781 56.246094 171.914062 57.933594 C 168.53125 59.566406 164.421875 61.253906 162.792969 61.617188 C 161.160156 61.980469 155.359375 62.339844 149.859375 62.339844 C 138.800781 62.402344 137.835938 62.160156 132.09375 57.996094 C 128.167969 55.039062 127.621094 54.554688 121.699219 47.191406 C 120.855469 46.167969 119.644531 45.261719 119.042969 45.261719 C 118.378906 45.261719 117.351562 44.234375 116.445312 42.667969 C 113.964844 38.503906 110.039062 34.398438 108.527344 34.398438 C 107.441406 34.398438 106.894531 35.003906 106.109375 37.054688 C 105.566406 38.5625 104.660156 40.070312 104.175781 40.496094 C 103.691406 40.917969 102.90625 42.125 102.425781 43.148438 C 102 44.234375 100.007812 46.832031 97.953125 48.945312 C 95.957031 51.054688 94.265625 53.167969 94.265625 53.589844 C 94.265625 54.011719 93.78125 54.496094 93.238281 54.738281 C 92.636719 54.917969 90.460938 56.667969 88.40625 58.660156 C 86.351562 60.589844 84.175781 62.160156 83.449219 62.160156 C 82.785156 62.160156 81.636719 62.824219 80.851562 63.667969 C 76.5625 68.253906 50.757812 68.316406 45.320312 63.730469 C 44.234375 62.882812 42.722656 62.160156 41.9375 62.160156 C 40.125 62.160156 35.53125 59.082031 32.328125 55.640625 C 31 54.195312 28.039062 51.175781 25.679688 48.882812 C 19.878906 43.210938 17.945312 39.167969 17.160156 31.019531 C 16.617188 25.226562 17.523438 23.476562 22.839844 19.855469 C 26.769531 17.140625 29.730469 15.933594 33.539062 15.511719 C 34.5625 15.390625 62.84375 15.390625 96.382812 15.511719 C 129.980469 15.628906 190.707031 15.871094 231.4375 16.054688 Z M 25.679688 63.546875 C 26.347656 64.332031 28.160156 65.78125 29.667969 66.808594 C 33.539062 69.460938 34.082031 70.246094 33.234375 71.816406 C 32.027344 74.109375 30.636719 86.238281 30.636719 95.050781 C 30.636719 99.699219 30.9375 108.808594 31.300781 115.265625 C 32.207031 130.234375 32.269531 147.492188 31.421875 150.269531 C 31.058594 151.417969 30.214844 155.460938 29.609375 159.203125 C 28.097656 167.710938 27.917969 185.515625 29.246094 189.316406 C 29.972656 191.308594 29.972656 191.910156 29.1875 193.359375 C 28.039062 195.59375 28.402344 202.835938 30.152344 211.765625 C 31.363281 217.921875 31.421875 219.070312 30.757812 222.929688 C 29.609375 229.570312 29.730469 245.742188 30.9375 250.148438 C 31.484375 252.140625 32.390625 255.941406 32.933594 258.597656 C 33.476562 261.253906 34.324219 264.933594 34.804688 266.804688 C 35.289062 268.796875 35.710938 273.625 35.832031 278.269531 C 35.953125 285.089844 35.773438 286.839844 34.804688 289.375 C 33.417969 292.875 31.421875 296.316406 30.03125 297.460938 C 28.582031 298.609375 25.921875 296.496094 24.351562 292.875 C 20.546875 284.1875 20.847656 286.71875 21.089844 261.132812 C 21.269531 240.914062 21.148438 237.476562 20.363281 235.785156 C 19.519531 234.035156 19.519531 233.25 20.242188 229.027344 C 21.269531 223.351562 21.390625 212.25 20.484375 205.792969 C 20.183594 203.316406 19.640625 197.703125 19.335938 193.421875 C 19.035156 189.074219 18.492188 181.589844 18.066406 176.761719 C 17.402344 168.917969 17.402344 167.167969 18.308594 161.675781 C 18.851562 158.234375 19.335938 153.710938 19.335938 151.65625 C 19.335938 149.425781 19.820312 146.710938 20.484375 145.019531 C 21.148438 143.269531 21.753906 139.589844 22.054688 135.726562 C 22.417969 129.8125 22.359375 129.085938 21.148438 126.671875 C 19.820312 124.140625 19.757812 123.414062 19.519531 99.9375 C 19.277344 77.851562 19.757812 65.539062 20.96875 62.402344 C 21.453125 61.132812 24.109375 61.796875 25.679688 63.546875 Z M 345.28125 78.515625 C 348.183594 80.808594 349.269531 84.308594 349.269531 91.429688 C 349.269531 95.109375 348.847656 99.636719 348.304688 102.050781 L 347.335938 106.277344 L 349.390625 109.414062 L 351.382812 112.550781 L 351.265625 121.726562 C 351.203125 128.726562 350.902344 131.683594 350.117188 134.097656 C 348.664062 138.441406 348.605469 147.976562 349.996094 153.589844 C 351.625 160.105469 352.109375 165.902344 351.445312 171.210938 C 350.960938 175.253906 351.023438 176.402344 351.867188 178.152344 C 352.472656 179.417969 352.714844 181.046875 352.53125 182.558594 C 352.351562 183.886719 352.472656 186.179688 352.835938 187.625 C 353.320312 189.917969 353.257812 190.765625 352.230469 192.875 C 350.960938 195.714844 350.660156 201.566406 351.6875 205.1875 C 352.230469 207.179688 353.320312 215.628906 353.921875 222.449219 C 354.105469 224.378906 353.863281 226.308594 353.320312 227.636719 C 352.53125 229.449219 352.53125 229.992188 353.320312 231.742188 C 353.921875 233.25 353.984375 234.214844 353.558594 235.363281 C 353.257812 236.207031 352.773438 238.320312 352.59375 240.011719 C 352.230469 242.605469 352.410156 243.570312 353.4375 245.261719 C 354.527344 247.011719 354.707031 248.21875 354.707031 254.554688 C 354.707031 259.625 354.40625 262.761719 353.742188 264.632812 C 353.015625 266.804688 352.894531 268.917969 353.136719 273.867188 C 353.863281 287.144531 353.621094 289.859375 351.382812 294.265625 C 349.753906 297.523438 348.90625 297.945312 346.371094 296.558594 C 341.292969 293.902344 337.789062 289.558594 336.941406 284.789062 C 336.519531 282.375 338.574219 268.132812 339.601562 266.082031 C 340.144531 265.113281 340.265625 258.597656 340.144531 242.0625 C 340.023438 229.570312 340.144531 218.765625 340.386719 218.101562 C 340.6875 217.199219 340.566406 216.472656 339.964844 215.871094 C 339.421875 215.386719 338.515625 213.636719 337.96875 212.007812 C 337.0625 209.535156 336.941406 207.179688 337.003906 195.53125 C 337.125 182.195312 337.726562 175.132812 339.359375 165.71875 C 339.84375 163.125 340.207031 158.117188 340.207031 154.554688 C 340.265625 151.054688 340.628906 145.984375 341.113281 143.328125 C 342.382812 136.449219 342.261719 128.605469 340.75 121.605469 C 340.085938 118.34375 339.359375 115.328125 339.117188 115.027344 C 338.9375 114.664062 338.515625 112.972656 338.332031 111.34375 C 337.367188 104.828125 335.976562 96.921875 335.433594 95.109375 C 334.527344 92.335938 333.980469 83.765625 334.585938 82.257812 C 335.3125 80.265625 339.601562 77.308594 341.777344 77.246094 C 342.804688 77.246094 344.375 77.789062 345.28125 78.515625 Z M 186.359375 236.449219 C 186.539062 236.75 186.117188 237.835938 185.511719 238.863281 C 184.363281 240.734375 184.605469 241.457031 185.933594 240.128906 C 187.203125 238.863281 189.378906 239.769531 189.984375 241.878906 C 190.769531 244.65625 189.679688 246.828125 187.445312 246.828125 C 185.390625 246.828125 184.304688 245.863281 184.304688 243.933594 C 184.304688 243.148438 183.636719 241.699219 182.792969 240.671875 C 181.101562 238.683594 180.917969 237.777344 182.007812 236.691406 C 182.851562 235.84375 185.875 235.726562 186.359375 236.449219 Z M 245.636719 254.132812 C 245.878906 254.855469 246.542969 255.882812 247.148438 256.484375 C 247.75 257.089844 248.476562 257.933594 248.71875 258.417969 C 249.019531 258.839844 250.046875 259.863281 251.074219 260.648438 C 253.433594 262.398438 254.339844 266.019531 254.398438 273.503906 C 254.398438 276.761719 254.339844 279.417969 254.277344 279.476562 C 252.648438 279.960938 239.957031 281.53125 239.351562 281.347656 C 238.203125 280.925781 238.988281 275.132812 241.46875 265.234375 C 242.011719 263.246094 242.617188 260.648438 242.917969 259.503906 C 243.21875 258.355469 243.644531 256.363281 243.824219 255.097656 C 244.246094 252.621094 245.03125 252.199219 245.636719 254.132812 Z M 186.117188 258.296875 C 186.117188 259.5625 186.417969 260.832031 186.71875 261.011719 C 187.625 261.554688 190.105469 266.746094 190.648438 269.160156 C 190.890625 270.304688 191.734375 271.875 192.519531 272.597656 C 193.308594 273.324219 193.972656 274.589844 193.972656 275.3125 C 193.972656 276.097656 194.515625 277.246094 195.242188 277.789062 C 196.027344 278.511719 196.390625 279.417969 196.269531 280.503906 L 196.085938 282.132812 L 187.144531 282.675781 C 182.25 282.917969 177.835938 283.039062 177.355469 282.796875 C 176.628906 282.554688 176.449219 281.109375 176.449219 275.074219 C 176.507812 265.355469 176.929688 263.484375 180.011719 260.769531 C 181.402344 259.5625 182.492188 258.296875 182.492188 257.875 C 182.492188 257.089844 185.027344 255.277344 185.691406 255.699219 C 185.933594 255.820312 186.117188 257.027344 186.117188 258.296875 Z M 327.273438 285.753906 C 327.878906 286.238281 328.84375 286.660156 329.328125 286.660156 C 329.871094 286.660156 332.046875 288.410156 334.164062 290.582031 C 337.367188 293.839844 337.96875 294.6875 337.425781 295.53125 C 335.734375 298.246094 330.113281 299.210938 309.386719 300.539062 C 300.445312 301.082031 290.414062 300.539062 289.265625 299.394531 C 288.902344 299.03125 289.144531 297.34375 290.113281 294.503906 C 291.257812 291.003906 291.378906 289.980469 290.777344 289.074219 C 290.351562 288.410156 290.050781 287.625 290.050781 287.324219 C 290.050781 286.117188 294.945312 285.453125 302.984375 285.574219 C 307.515625 285.632812 311.382812 285.453125 311.625 285.273438 C 311.804688 285.03125 315.1875 284.847656 319.054688 284.847656 C 324.3125 284.847656 326.367188 285.089844 327.273438 285.753906 Z M 95.777344 286.660156 C 115.054688 286.960938 129.617188 287.382812 131.429688 287.746094 C 133.121094 288.109375 138.921875 288.53125 144.359375 288.589844 L 154.269531 288.773438 L 156.023438 291.96875 L 157.714844 295.167969 L 156.566406 297.402344 C 155.902344 298.609375 155.117188 300.359375 154.816406 301.203125 C 154.210938 302.714844 154.027344 302.773438 145.507812 303.4375 C 135.902344 304.222656 104.601562 304.402344 98.496094 303.679688 C 92.636719 303.015625 80.1875 303.859375 74.628906 305.246094 C 71.363281 306.09375 66.652344 306.636719 60.125 306.878906 C 54.808594 307.117188 48.28125 307.722656 45.621094 308.203125 C 37.828125 309.652344 34.445312 309.773438 31.84375 308.6875 C 30.273438 308.023438 29.730469 307.539062 30.03125 306.9375 C 31.242188 304.886719 33.960938 301.808594 38.671875 297.039062 C 44.355469 291.308594 47.980469 288.46875 49.550781 288.46875 C 50.15625 288.46875 51.421875 288.046875 52.328125 287.566406 C 53.296875 287.082031 55.050781 286.660156 56.199219 286.660156 C 57.34375 286.660156 58.734375 286.359375 59.21875 286.054688 C 59.703125 285.695312 60.789062 285.574219 61.636719 285.816406 C 62.480469 286.054688 77.832031 286.417969 95.777344 286.660156 Z M 285.820312 287.445312 C 285.820312 287.925781 285.640625 288.46875 285.398438 288.710938 C 285.097656 288.953125 284.070312 291.246094 283.101562 293.78125 C 281.652344 297.34375 280.867188 298.609375 279.535156 299.273438 C 277.300781 300.300781 275.546875 299.515625 274.039062 296.738281 C 272.949219 294.6875 272.949219 294.503906 273.917969 293.417969 C 274.460938 292.816406 274.945312 291.910156 274.945312 291.367188 C 274.945312 290.882812 275.488281 289.738281 276.152344 288.894531 C 277.179688 287.625 278.027344 287.261719 280.5625 287.082031 C 282.316406 286.960938 284.191406 286.839844 284.792969 286.78125 C 285.335938 286.71875 285.820312 287.023438 285.820312 287.445312 Z M 271.320312 290.339844 C 271.320312 292.515625 270.050781 292.632812 269.082031 290.460938 C 268.539062 289.316406 268.476562 288.652344 268.960938 288.046875 C 269.988281 286.902344 271.320312 288.167969 271.320312 290.339844 Z M 189.078125 289.011719 C 204.847656 288.589844 203.277344 288.167969 205.089844 293.539062 C 206.117188 296.679688 205.996094 297.523438 204.304688 297.523438 C 203.699219 297.523438 202.191406 298.308594 200.980469 299.273438 L 198.804688 301.023438 L 187.507812 301.023438 C 181.222656 301.023438 174.816406 301.324219 173.246094 301.6875 C 168.832031 302.714844 159.769531 303.257812 159.285156 302.472656 C 158.5625 301.265625 159.648438 299.9375 161.824219 299.636719 C 166.476562 298.851562 169.4375 296.796875 171.976562 292.515625 C 174.089844 288.953125 175.300781 288.410156 180.316406 288.832031 C 182.308594 289.011719 186.238281 289.074219 189.078125 289.011719 Z M 258.507812 291.488281 C 260.140625 294.625 262.554688 297.34375 264.1875 297.886719 C 264.792969 298.066406 265.277344 298.546875 265.277344 298.972656 C 265.277344 299.9375 258.386719 300.480469 252.527344 299.996094 C 250.351562 299.753906 244.488281 299.9375 239.535156 300.300781 C 230.46875 300.960938 226.238281 300.84375 225.636719 299.816406 C 225.152344 299.03125 226.542969 297.523438 227.75 297.523438 C 228.71875 297.523438 232.886719 292.574219 233.671875 290.523438 C 234.277344 288.894531 236.332031 288.589844 246.84375 288.652344 L 257.117188 288.773438 Z M 161.945312 290.28125 C 161.945312 290.882812 161.402344 291.730469 160.738281 292.089844 C 159.648438 292.695312 159.527344 292.574219 159.527344 290.882812 C 159.527344 289.496094 159.769531 289.074219 160.738281 289.074219 C 161.523438 289.074219 161.945312 289.496094 161.945312 290.28125 Z M 259.476562 311.160156 C 261.105469 312.730469 260.683594 315.929688 258.570312 318.34375 C 256.152344 321.058594 254.582031 321.058594 253.433594 318.34375 C 252.222656 315.445312 252.34375 312.851562 253.792969 311.402344 C 255.246094 309.953125 258.144531 309.835938 259.476562 311.160156 Z M 268.839844 312.851562 C 269.265625 313.335938 269.503906 314.480469 269.386719 315.445312 C 269.265625 316.773438 268.839844 317.195312 267.089844 317.5 C 263.34375 318.28125 261.769531 316.292969 263.824219 313.335938 C 264.914062 311.824219 267.753906 311.523438 268.839844 312.851562 Z M 178.261719 320.757812 C 182.429688 322.929688 182.128906 328.300781 177.835938 328.300781 C 176.085938 328.300781 173.003906 326.609375 172.519531 325.40625 C 172.15625 324.378906 173.183594 322.265625 174.875 320.9375 C 176.449219 319.671875 176.144531 319.671875 178.261719 320.757812 Z M 262.195312 324.4375 C 263.160156 325.707031 263.28125 326.25 262.796875 327.578125 C 262.011719 329.628906 259.898438 331.921875 258.75 331.921875 C 257.660156 331.921875 253.191406 327.09375 253.191406 325.949219 C 253.191406 324.078125 255.125 322.871094 258.085938 322.871094 C 260.441406 322.871094 261.167969 323.171875 262.195312 324.4375 Z M 184.363281 331.863281 C 185.332031 332.828125 186.117188 333.851562 186.117188 334.15625 C 186.117188 334.457031 185.332031 335.542969 184.363281 336.628906 C 183.035156 338.078125 182.066406 338.558594 180.558594 338.558594 C 176.386719 338.558594 175.722656 334.941406 179.347656 331.980469 C 180.558594 330.957031 181.824219 330.171875 182.066406 330.113281 C 182.371094 330.113281 183.398438 330.894531 184.363281 331.863281 Z M 258.992188 334.757812 C 260.742188 337.113281 259.476562 342.421875 257.058594 343.027344 C 255.246094 343.507812 253.191406 342.484375 253.191406 341.09375 C 253.191406 339.949219 255.003906 336.085938 256.210938 334.636719 C 257.179688 333.429688 258.023438 333.492188 258.992188 334.757812 Z M 190.890625 336.570312 C 192.640625 338.742188 193.066406 340.792969 192.097656 342.542969 C 191.191406 344.292969 192.039062 345.5 193.789062 344.957031 C 195.242188 344.476562 196.390625 342.179688 196.390625 339.828125 C 196.390625 337.714844 197.535156 336.691406 199.289062 337.171875 C 201.886719 337.835938 201.765625 342.84375 199.046875 346.828125 C 197.960938 348.398438 197.597656 349.785156 197.597656 352.078125 C 197.597656 357.027344 196.992188 359.621094 195.722656 359.984375 C 193.972656 360.527344 191.796875 358.65625 190.40625 355.519531 C 189.257812 352.804688 185.089844 348.335938 180.558594 345.019531 C 179.589844 344.292969 178.863281 343.269531 178.863281 342.664062 C 178.863281 341.09375 179.46875 341.15625 183.519531 343.269531 C 184.304688 343.691406 184.96875 343.992188 185.089844 343.992188 C 185.210938 343.992188 185.511719 342.300781 185.753906 340.191406 C 186.296875 334.941406 188.472656 333.429688 190.890625 336.570312 Z M 252.464844 378.269531 C 253.671875 379.839844 253.3125 381.648438 251.4375 383.460938 C 250.472656 384.425781 249.503906 385.8125 249.324219 386.539062 C 249.082031 387.445312 248.355469 388.105469 247.269531 388.347656 C 245.394531 388.710938 242.3125 387.804688 242.3125 386.902344 C 242.3125 386.539062 241.46875 385.332031 240.441406 384.183594 C 238.445312 381.890625 238.566406 380.984375 241.042969 378.753906 C 243.460938 376.582031 250.832031 376.277344 252.464844 378.269531 Z M 198.804688 378.875 C 200.015625 379.839844 200.136719 380.203125 199.53125 381.832031 C 198.925781 383.703125 199.109375 384.667969 200.074219 384.0625 C 200.375 383.882812 200.617188 383.21875 200.617188 382.617188 C 200.617188 380.984375 202.492188 380.203125 205.210938 380.625 C 208.050781 381.046875 210.285156 383.28125 210.285156 385.574219 C 210.285156 388.347656 209.019531 389.433594 205.390625 389.738281 C 202.671875 389.917969 201.828125 389.738281 200.496094 388.652344 C 199.53125 387.925781 198.804688 386.839844 198.804688 386.175781 C 198.804688 384.667969 197.175781 384.667969 196.691406 386.238281 C 196.148438 387.925781 194.453125 387.746094 192.519531 385.695312 C 190.347656 383.398438 190.707031 381.710938 193.789062 379.476562 C 196.507812 377.484375 197.054688 377.425781 198.804688 378.875 Z M 198.804688 378.875 "/>
<path style=" stroke:none;fill-rule:nonzero;fill:rgb(0%,0%,0%);fill-opacity:1;" d="M 333.378906 26.371094 C 333.136719 26.554688 332.953125 27.460938 332.953125 28.304688 C 332.953125 31.441406 330.417969 33.917969 323.828125 37.355469 C 317.546875 40.613281 317.546875 40.613281 311.984375 40.613281 C 306.910156 40.613281 306.183594 40.433594 304.3125 39.046875 C 303.222656 38.140625 301.167969 37.054688 299.78125 36.570312 C 297.421875 35.789062 297.242188 35.789062 296.636719 36.933594 C 296.152344 37.839844 296.335938 38.746094 297.300781 40.796875 C 298.691406 43.574219 303.34375 47.675781 305.097656 47.675781 C 305.640625 47.675781 306.789062 48.160156 307.574219 48.703125 C 309.691406 50.210938 322.863281 50.269531 325.160156 48.824219 C 325.945312 48.28125 327.457031 47.675781 328.484375 47.433594 C 331.683594 46.710938 336.820312 42.183594 338.574219 38.382812 C 340.808594 33.675781 340.6875 32.226562 337.726562 28.785156 C 335.371094 26.070312 334.285156 25.46875 333.378906 26.371094 Z M 333.378906 26.371094 "/>
<path style=" stroke:none;fill-rule:nonzero;fill:rgb(0%,0%,0%);fill-opacity:1;" d="M 34.019531 31.742188 C 33.296875 33.675781 34.324219 39.167969 35.894531 41.460938 C 36.738281 42.726562 37.464844 44.054688 37.464844 44.417969 C 37.464844 45.324219 43.566406 51.296875 44.535156 51.296875 C 44.898438 51.296875 45.804688 52.082031 46.527344 53.109375 C 47.253906 54.074219 48.34375 54.917969 49.007812 54.917969 C 49.671875 54.917969 51.847656 55.703125 53.960938 56.609375 C 60.546875 59.566406 62.542969 60.046875 65.199219 59.261719 C 66.46875 58.839844 68.160156 58.539062 68.949219 58.539062 C 69.734375 58.539062 71.242188 58.117188 72.210938 57.574219 C 73.238281 57.03125 76.078125 56.125 78.496094 55.460938 C 80.972656 54.796875 83.632812 53.769531 84.355469 53.046875 C 85.082031 52.382812 86.59375 51.355469 87.679688 50.753906 C 90.640625 49.183594 90.640625 47.375 87.558594 44.175781 C 84.960938 41.460938 83.992188 41.097656 82.847656 42.484375 C 82.421875 42.96875 79.824219 44.539062 76.984375 45.984375 C 74.144531 47.433594 71.121094 49.003906 70.214844 49.488281 C 69.007812 50.152344 66.773438 50.390625 61.453125 50.332031 C 55.171875 50.269531 54.144531 50.152344 52.570312 49.003906 C 51.605469 48.28125 50.394531 47.675781 49.914062 47.675781 C 49.429688 47.675781 47.074219 45.441406 44.714844 42.667969 C 39.035156 36.089844 39.339844 36.570312 38.007812 33.492188 C 36.738281 30.65625 34.804688 29.8125 34.019531 31.742188 Z M 34.019531 31.742188 "/>
<path style=" stroke:none;fill-rule:nonzero;fill:rgb(0%,0%,0%);fill-opacity:1;" d="M 138.679688 37.054688 C 135.71875 40.011719 137.53125 44.78125 142.488281 47.132812 C 144.058594 47.855469 146.054688 49.003906 146.960938 49.605469 C 148.167969 50.453125 149.679688 50.695312 153.667969 50.695312 C 160.738281 50.695312 164.363281 49.789062 167.382812 47.132812 L 169.921875 44.960938 L 168.953125 42.246094 C 168.410156 40.734375 167.988281 39.046875 167.988281 38.441406 C 167.988281 36.933594 166.476562 37.175781 165.328125 38.925781 C 164.785156 39.769531 164 40.433594 163.578125 40.433594 C 163.152344 40.433594 161.824219 41.277344 160.554688 42.304688 C 157.050781 45.203125 154.996094 45.203125 150.101562 42.367188 C 147.804688 41.039062 145.386719 39.347656 144.722656 38.625 C 144.058594 37.898438 142.789062 36.933594 141.824219 36.449219 C 140.3125 35.605469 140.070312 35.667969 138.679688 37.054688 Z M 138.679688 37.054688 "/>
<path style=" stroke:none;fill-rule:nonzero;fill:rgb(0%,0%,0%);fill-opacity:1;" d="M 220.984375 37.839844 C 220.742188 38.019531 220.558594 38.984375 220.558594 39.890625 C 220.558594 42.0625 224.546875 46.167969 229.320312 48.882812 C 232.886719 50.933594 233.066406 50.996094 240.015625 50.996094 C 248.476562 50.996094 249.203125 50.511719 248.660156 45.683594 C 248.113281 41.277344 247.871094 40.855469 245.699219 41.339844 C 239.109375 42.726562 230.953125 41.640625 226.785156 38.804688 C 224.851562 37.476562 221.828125 36.996094 220.984375 37.839844 Z M 220.984375 37.839844 "/>
<path style=" stroke:none;fill-rule:nonzero;fill:rgb(0%,0%,0%);fill-opacity:1;" d="M 99.160156 58.660156 C 98.195312 60.773438 96.925781 64.089844 96.382812 66.082031 C 95.835938 68.074219 95.113281 70.488281 94.75 71.515625 C 94.386719 72.480469 93.964844 74.59375 93.84375 76.160156 C 93.601562 78.515625 93.722656 79.058594 94.507812 79.058594 C 95.050781 79.058594 96.019531 78.515625 96.683594 77.851562 C 98.316406 76.222656 98.917969 76.34375 99.34375 78.273438 C 99.644531 79.300781 99.523438 80.023438 98.980469 80.324219 C 97.890625 81.050781 96.199219 80.988281 95.777344 80.265625 C 94.992188 78.996094 93.722656 79.722656 93.359375 81.59375 C 93.117188 82.679688 92.695312 83.824219 92.453125 84.1875 C 92.152344 84.488281 91.789062 86.058594 91.546875 87.628906 C 91.183594 90.160156 90.941406 90.523438 89.675781 90.523438 C 88.40625 90.523438 88.222656 90.824219 88.222656 92.757812 C 88.222656 94.023438 88.648438 95.59375 89.128906 96.195312 C 89.613281 96.859375 90.035156 98.007812 90.035156 98.792969 C 90.035156 99.578125 90.339844 100.179688 90.640625 100.179688 C 91.003906 100.179688 91.246094 100.601562 91.246094 101.144531 C 91.246094 101.808594 90.941406 101.992188 90.21875 101.6875 C 89.613281 101.449219 88.222656 101.144531 87.074219 100.964844 C 85.382812 100.664062 85.082031 100.785156 85.324219 101.75 C 85.6875 103.800781 89.25 105.613281 92.996094 105.613281 C 95.171875 105.613281 96.925781 105.972656 97.832031 106.578125 C 98.980469 107.421875 100.25 107.542969 104.417969 107.242188 L 109.613281 106.9375 L 111.488281 108.871094 C 113.542969 111.042969 115.960938 111.886719 122.789062 112.792969 C 125.992188 113.277344 127.984375 113.277344 129.074219 112.851562 C 131.007812 112.070312 130.402344 111.222656 127.804688 110.921875 C 125.871094 110.742188 125.929688 110.921875 126.714844 106.035156 C 126.898438 104.585938 126.835938 103.800781 126.414062 103.800781 C 126.050781 103.800781 125.207031 103.199219 124.480469 102.472656 L 123.273438 101.144531 L 124.78125 100.359375 C 126.472656 99.457031 126.777344 97.707031 125.445312 96.558594 C 124.964844 96.195312 124.058594 94.566406 123.511719 93.058594 C 122.304688 89.738281 120.613281 87.628906 118.921875 87.386719 C 118.074219 87.265625 117.351562 86.179688 116.445312 83.585938 C 115.777344 81.59375 114.449219 78.695312 113.484375 77.1875 C 112.574219 75.679688 111.789062 73.929688 111.789062 73.386719 C 111.789062 72.84375 111.125 71.332031 110.28125 70.003906 C 109.433594 68.675781 108.164062 66.144531 107.5 64.394531 C 106.835938 62.703125 105.625 60.410156 104.902344 59.445312 C 104.117188 58.417969 103.332031 57.03125 103.089844 56.246094 C 102.304688 53.953125 100.972656 54.796875 99.160156 58.660156 Z M 101.15625 67.109375 C 102.363281 71.636719 100.914062 76.582031 98.917969 74.894531 C 98.316406 74.472656 97.890625 74.472656 97.46875 74.894531 C 96.625 75.738281 95.476562 75.074219 95.476562 73.808594 C 95.476562 73.144531 95.835938 72.960938 96.925781 73.265625 C 98.558594 73.6875 99.101562 72.539062 99.101562 68.738281 C 99.101562 65.660156 100.429688 64.574219 101.15625 67.109375 Z M 106.351562 70.367188 C 106.351562 71.515625 106.773438 73.265625 107.257812 74.230469 C 107.800781 75.316406 107.921875 76.101562 107.5625 76.34375 C 107.199219 76.523438 106.957031 77.429688 106.957031 78.332031 C 107.015625 79.84375 107.078125 79.84375 107.800781 78.875 C 108.226562 78.332031 108.890625 77.851562 109.253906 77.851562 C 110.097656 77.851562 111.1875 79.84375 111.1875 81.289062 C 111.125 82.316406 111.125 82.316406 110.523438 81.289062 C 109.855469 80.144531 108.164062 79.902344 108.164062 80.988281 C 108.164062 81.351562 108.527344 82.136719 109.011719 82.617188 C 109.433594 83.160156 109.976562 84.730469 110.21875 86.179688 C 110.703125 89.5 109.613281 90.042969 106.652344 87.75 L 104.480469 86.117188 L 104.601562 77.308594 C 104.660156 72.480469 104.839844 68.316406 104.960938 68.015625 C 105.566406 67.046875 106.351562 68.375 106.351562 70.367188 Z M 97.289062 83.886719 C 97.289062 85.695312 98.074219 86.117188 99.585938 85.214844 C 100.007812 84.910156 100.1875 84.246094 99.945312 83.703125 C 99.34375 82.136719 100.851562 82.496094 101.578125 84.128906 C 102.121094 85.214844 102 85.9375 101.277344 87.445312 C 100.429688 89.074219 99.945312 89.316406 97.890625 89.316406 C 95.234375 89.316406 95.113281 89.015625 95.835938 84.308594 C 96.320312 81.652344 97.289062 81.351562 97.289062 83.886719 Z M 113.964844 84.308594 C 116.019531 87.386719 117.832031 92.9375 116.746094 92.9375 C 115.777344 92.9375 111.910156 87.988281 111.488281 86.117188 C 111.003906 84.367188 111.429688 82.679688 112.335938 82.679688 C 112.636719 82.679688 113.363281 83.402344 113.964844 84.308594 Z M 109.917969 92.636719 C 111.667969 93.78125 113.363281 94.75 113.664062 94.75 C 113.964844 94.75 115.054688 95.292969 116.140625 95.957031 C 117.230469 96.621094 118.738281 97.164062 119.40625 97.164062 C 120.613281 97.164062 121.457031 98.1875 121.457031 99.636719 C 121.457031 99.9375 120.3125 100.179688 118.921875 100.179688 C 117.046875 100.179688 115.535156 99.636719 113.601562 98.371094 C 112.09375 97.402344 110.582031 96.558594 110.21875 96.558594 C 109.917969 96.558594 108.828125 95.714844 107.863281 94.75 C 106.894531 93.722656 105.746094 92.9375 105.324219 92.9375 C 104.902344 92.9375 104.539062 92.394531 104.539062 91.730469 C 104.539062 89.921875 106.230469 90.222656 109.917969 92.636719 Z M 101.214844 91.671875 C 101.398438 92.03125 100.550781 92.457031 99.402344 92.695312 C 97.105469 93.121094 96.320312 92.816406 96.984375 91.792969 C 97.46875 90.945312 100.730469 90.945312 101.214844 91.671875 Z M 95.171875 98.066406 C 95.171875 98.671875 94.871094 99.273438 94.507812 99.394531 C 93.722656 99.636719 92.875 97.945312 93.421875 97.101562 C 93.964844 96.195312 95.171875 96.859375 95.171875 98.066406 Z M 107.257812 102.59375 C 107.621094 103.199219 103.511719 105.371094 102.96875 104.828125 C 102.726562 104.585938 102.847656 103.742188 103.210938 102.957031 C 103.691406 101.871094 104.175781 101.628906 105.386719 101.808594 C 106.292969 101.992188 107.078125 102.351562 107.257812 102.59375 Z M 122.847656 107.664062 C 122.125 108.628906 121.640625 108.871094 121.339844 108.386719 C 120.429688 107.058594 120.855469 106.214844 122.367188 106.214844 C 123.9375 106.214844 123.9375 106.214844 122.847656 107.664062 Z M 122.847656 107.664062 "/>
<path style=" stroke:none;fill-rule:nonzero;fill:rgb(0%,0%,0%);fill-opacity:1;" d="M 217.539062 70.066406 C 217.539062 71.089844 217.78125 71.753906 218.140625 71.515625 C 218.503906 71.332031 218.746094 70.488281 218.746094 69.644531 C 218.746094 68.859375 218.503906 68.195312 218.140625 68.195312 C 217.839844 68.195312 217.539062 69.039062 217.539062 70.066406 Z M 217.539062 70.066406 "/>
<path style=" stroke:none;fill-rule:nonzero;fill:rgb(0%,0%,0%);fill-opacity:1;" d="M 226.359375 73.746094 C 225.757812 75.4375 224.667969 80.625 224.609375 82.015625 C 224.425781 83.945312 226.058594 84.910156 228.234375 84.128906 C 229.5625 83.703125 229.984375 83.039062 230.46875 80.867188 C 230.773438 79.359375 231.011719 77.066406 231.074219 75.738281 C 231.132812 73.386719 231.074219 73.324219 228.839844 73.144531 C 227.386719 73.023438 226.480469 73.203125 226.359375 73.746094 Z M 226.359375 73.746094 "/>
<path style=" stroke:none;fill-rule:nonzero;fill:rgb(0%,0%,0%);fill-opacity:1;" d="M 290.472656 79.417969 C 287.875 80.386719 285.882812 82.378906 285.820312 84.128906 C 285.820312 84.789062 285.457031 85.757812 285.035156 86.238281 C 284.308594 87.144531 282.800781 90.523438 281.953125 93.121094 C 281.46875 94.628906 279.898438 95.050781 278.628906 93.902344 C 277.664062 93 277.480469 93.121094 275.972656 95.414062 C 275.066406 96.738281 274.339844 98.128906 274.339844 98.429688 C 274.339844 98.671875 273.492188 99.816406 272.464844 100.84375 C 270.351562 103.015625 268.902344 106.035156 268.902344 108.328125 C 268.902344 110.136719 266.96875 112.25 265.277344 112.25 C 264.371094 112.25 263.945312 111.765625 263.703125 110.5 C 263.464844 109.535156 262.554688 108.027344 261.648438 107.121094 C 260.078125 105.613281 260.019531 105.308594 260.320312 101.6875 C 260.683594 96.980469 259.957031 95.652344 255.425781 92.636719 C 250.410156 89.316406 242.738281 88.957031 240.804688 91.972656 C 239.59375 93.84375 240.199219 95.171875 242.675781 96.078125 C 245.273438 96.980469 245.578125 97.886719 244.367188 101.265625 C 243.523438 103.800781 243.523438 104.40625 244.429688 108.144531 C 245.03125 110.378906 245.335938 112.671875 245.152344 113.15625 C 244.910156 113.636719 243.765625 114.542969 242.496094 115.207031 C 241.226562 115.8125 239.230469 117.320312 238.082031 118.527344 C 236.027344 120.699219 236.027344 120.699219 237.054688 122.449219 C 238.265625 124.5625 238.386719 125.527344 237.296875 125.527344 C 236.816406 125.527344 235.96875 126.070312 235.363281 126.734375 C 234.457031 127.761719 234.398438 128.183594 234.941406 129.449219 C 235.667969 131.019531 239.109375 132.769531 241.589844 132.769531 C 242.433594 132.769531 243.644531 133.191406 244.246094 133.792969 C 244.851562 134.339844 245.9375 135.0625 246.664062 135.425781 C 248.839844 136.511719 249.625 138.683594 249.382812 142.726562 C 249.082031 147.3125 248.175781 150.632812 246.785156 152.140625 C 245.816406 153.226562 245.816406 153.46875 246.90625 156.605469 C 248.175781 160.410156 249.261719 160.648438 249.261719 157.148438 C 249.261719 155.039062 249.445312 154.796875 250.953125 154.617188 C 252.101562 154.496094 252.949219 154.796875 253.554688 155.519531 C 254.582031 156.910156 254.582031 157.148438 254.398438 145.742188 C 254.277344 134.761719 254.519531 133.191406 256.515625 132.285156 C 257.359375 131.925781 258.570312 130.65625 259.355469 129.570312 C 260.078125 128.421875 261.46875 126.976562 262.4375 126.371094 C 264.066406 125.285156 265.878906 122.691406 265.878906 121.363281 C 265.878906 121 264.792969 120.09375 263.464844 119.371094 C 259.113281 116.898438 261.046875 115.386719 265.578125 117.679688 C 268.054688 118.949219 269.144531 120.519531 268.296875 121.605469 C 267.996094 121.90625 268.054688 125.464844 268.296875 129.449219 C 268.597656 133.433594 268.902344 139.347656 269.023438 142.667969 C 269.144531 148.519531 269.144531 148.582031 267.511719 149.789062 C 266.605469 150.453125 265.878906 151.234375 265.878906 151.539062 C 265.878906 152.441406 270.230469 154.011719 270.957031 153.289062 C 271.320312 152.925781 276.273438 152.683594 283.644531 152.625 C 290.351562 152.625 297.847656 152.382812 300.324219 152.140625 C 304.675781 151.71875 305.761719 151.839844 309.207031 153.46875 C 309.992188 153.832031 310.777344 153.953125 310.957031 153.710938 C 311.199219 153.527344 311.320312 146.40625 311.320312 137.957031 C 311.382812 124.742188 311.199219 122.328125 310.355469 121.0625 C 309.144531 119.128906 309.085938 116.234375 310.292969 115.265625 C 311.5625 114.242188 311.441406 112.613281 309.992188 111.34375 C 309.328125 110.742188 308.785156 109.777344 308.785156 109.234375 C 308.785156 108.6875 307.394531 106.15625 305.761719 103.621094 C 303.769531 100.542969 302.558594 98.007812 302.378906 96.316406 C 302.136719 94.871094 301.351562 92.636719 300.566406 91.308594 C 299.78125 90.042969 298.511719 87.75 297.664062 86.179688 C 296.820312 84.609375 295.851562 83.222656 295.488281 82.980469 C 295.1875 82.800781 294.886719 81.652344 294.886719 80.507812 C 294.886719 78.152344 294.339844 78.03125 290.472656 79.417969 Z M 292.890625 83.585938 C 293.617188 84.066406 294.402344 85.394531 294.582031 86.480469 C 294.824219 87.507812 295.308594 88.773438 295.730469 89.257812 C 296.457031 90.222656 297.726562 94.386719 298.511719 98.371094 C 299.539062 104.101562 301.230469 107.421875 303.101562 107.421875 C 303.585938 107.421875 304.128906 108.144531 304.3125 108.992188 C 304.976562 111.707031 303.828125 111.949219 290.65625 111.707031 C 286.847656 111.648438 282.257812 111.828125 280.441406 112.191406 C 276.816406 112.914062 274.824219 112.371094 276.394531 111.101562 C 276.9375 110.621094 277.359375 109.957031 277.359375 109.472656 C 277.359375 109.050781 278.269531 107.179688 279.414062 105.25 C 280.5625 103.378906 282.074219 99.9375 282.859375 97.523438 C 283.585938 95.171875 284.976562 92.273438 285.882812 91.128906 C 287.089844 89.558594 287.511719 88.351562 287.453125 86.660156 C 287.332031 83.160156 290.050781 81.59375 292.890625 83.585938 Z M 253.070312 94.566406 C 257.300781 97.34375 257.601562 98.128906 255.546875 102.050781 C 254.035156 105.070312 254.339844 105.972656 257.300781 107.121094 C 259.113281 107.84375 259.777344 108.570312 260.320312 110.199219 C 260.925781 112.128906 260.863281 112.25 259.355469 112.613281 C 256.816406 113.09375 255.96875 113.699219 254.882812 115.929688 C 253.371094 118.886719 253.492188 119.671875 255.304688 119.25 C 256.515625 118.949219 257.542969 119.3125 259.535156 120.757812 C 261.046875 121.84375 262.253906 122.933594 262.253906 123.171875 C 262.253906 124.199219 258.265625 128.183594 256.394531 128.90625 C 255.367188 129.390625 254.339844 129.992188 254.15625 130.292969 C 253.914062 130.597656 252.285156 131.199219 250.472656 131.621094 C 247.207031 132.347656 247.085938 132.347656 245.457031 130.777344 C 244.488281 129.871094 243.039062 129.148438 242.191406 129.148438 C 240.078125 129.148438 239.535156 128.183594 241.105469 127.214844 C 242.617188 126.25 242.617188 125.285156 241.042969 123.171875 C 239.414062 120.941406 240.199219 119.191406 243.21875 118.648438 C 245.03125 118.285156 245.515625 117.800781 246.90625 114.964844 C 247.992188 112.613281 248.898438 111.527344 249.925781 111.285156 C 252.042969 110.742188 251.921875 108.328125 249.746094 107.300781 C 247.691406 106.335938 247.269531 103.980469 248.597656 101.265625 C 249.988281 98.492188 249.804688 97.464844 247.449219 95.714844 C 246.242188 94.808594 245.515625 93.78125 245.699219 93.421875 C 246.242188 92.515625 251.015625 93.300781 253.070312 94.566406 Z M 278.570312 100.058594 C 278.570312 100.964844 277.601562 103.136719 276.453125 104.886719 C 275.246094 106.578125 274.039062 108.6875 273.734375 109.535156 C 273.132812 111.164062 271.5 111.585938 270.957031 110.199219 C 270.414062 108.808594 277.058594 97.464844 278.027344 98.128906 C 278.328125 98.308594 278.570312 99.152344 278.570312 100.058594 Z M 305.339844 115.8125 C 305.761719 116.234375 306.125 118.40625 306.125 121.183594 C 306.183594 123.714844 306.488281 127.578125 306.851562 129.75 C 307.332031 133.132812 307.273438 133.914062 306.367188 135.484375 C 305.097656 137.71875 303.648438 144.476562 304.25 145.441406 C 304.492188 145.863281 304.3125 146.40625 303.890625 146.710938 C 302.921875 147.253906 297.90625 146.769531 297 145.984375 C 295.914062 144.960938 294.523438 145.503906 293.375 147.375 C 292.769531 148.460938 291.984375 149.546875 291.621094 149.789062 C 290.714844 150.390625 284.492188 150.390625 283.523438 149.789062 C 282.375 149.003906 281.589844 145.5625 281.589844 141.21875 C 281.589844 136.089844 282.4375 134.820312 286.242188 134.398438 C 289.808594 133.976562 292.769531 135.542969 293.375 138.078125 C 293.554688 138.984375 294.28125 140.371094 294.886719 141.21875 L 296.09375 142.726562 L 295.730469 139.710938 C 295.550781 138.019531 294.824219 135.121094 294.160156 133.191406 C 292.648438 128.90625 290.777344 128 288.539062 130.597656 C 286.96875 132.40625 284.007812 132.707031 282.800781 131.199219 C 282.316406 130.71875 281.289062 130.355469 280.441406 130.476562 C 278.933594 130.65625 278.871094 130.777344 278.992188 134.277344 C 278.992188 136.269531 279.296875 139.40625 279.65625 141.21875 C 280.441406 145.742188 279.839844 146.769531 276.574219 146.527344 L 274.039062 146.347656 L 273.734375 142.121094 C 273.554688 139.769531 273.070312 137.296875 272.648438 136.570312 C 271.742188 134.882812 271.742188 133.070312 272.769531 130.113281 C 273.3125 128.542969 273.492188 126.070312 273.253906 122.570312 C 273.011719 118.164062 273.132812 117.199219 274.039062 116.472656 C 276.03125 114.84375 303.707031 114.179688 305.339844 115.8125 Z M 305.339844 115.8125 "/>
<path style=" stroke:none;fill-rule:nonzero;fill:rgb(0%,0%,0%);fill-opacity:1;" d="M 287.875 140.855469 C 287.269531 142.425781 288.117188 143.632812 289.75 143.632812 C 291.140625 143.632812 291.320312 143.390625 291.140625 141.941406 C 290.957031 140.070312 288.480469 139.226562 287.875 140.855469 Z M 287.875 140.855469 "/>
<path style=" stroke:none;fill-rule:nonzero;fill:rgb(0%,0%,0%);fill-opacity:1;" d="M 237.296875 83.464844 C 237.054688 84.066406 236.875 85.152344 236.875 85.878906 C 236.933594 87.085938 236.996094 87.085938 237.539062 86.117188 C 237.902344 85.515625 238.082031 84.429688 237.960938 83.703125 C 237.78125 82.496094 237.722656 82.496094 237.296875 83.464844 Z M 237.296875 83.464844 "/>
<path style=" stroke:none;fill-rule:nonzero;fill:rgb(0%,0%,0%);fill-opacity:1;" d="M 212.101562 92.335938 C 212.101562 93 212.402344 93.542969 212.703125 93.542969 C 213.066406 93.542969 213.308594 93 213.308594 92.335938 C 213.308594 91.671875 213.066406 91.128906 212.703125 91.128906 C 212.402344 91.128906 212.101562 91.671875 212.101562 92.335938 Z M 212.101562 92.335938 "/>
<path style=" stroke:none;fill-rule:nonzero;fill:rgb(0%,0%,0%);fill-opacity:1;" d="M 219.167969 97.585938 C 218.929688 97.765625 218.746094 98.851562 218.746094 99.9375 C 218.746094 101.566406 219.050781 102.050781 220.195312 102.351562 C 222.128906 102.835938 222.976562 102.230469 222.976562 100.480469 C 222.976562 98.25 220.4375 96.316406 219.167969 97.585938 Z M 219.167969 97.585938 "/>
<path style=" stroke:none;fill-rule:nonzero;fill:rgb(0%,0%,0%);fill-opacity:1;" d="M 231.4375 101.6875 C 231.4375 102.171875 231.738281 102.59375 232.039062 102.59375 C 232.402344 102.59375 232.644531 102.171875 232.644531 101.6875 C 232.644531 101.207031 232.402344 100.785156 232.039062 100.785156 C 231.738281 100.785156 231.4375 101.207031 231.4375 101.6875 Z M 231.4375 101.6875 "/>
<path style=" stroke:none;fill-rule:nonzero;fill:rgb(0%,0%,0%);fill-opacity:1;" d="M 207.992188 103.800781 C 207.566406 104.464844 207.445312 105.007812 207.75 105.007812 C 208.351562 105.007812 209.683594 103.679688 209.683594 103.078125 C 209.683594 102.171875 208.777344 102.59375 207.992188 103.800781 Z M 207.992188 103.800781 "/>
<path style=" stroke:none;fill-rule:nonzero;fill:rgb(0%,0%,0%);fill-opacity:1;" d="M 59.640625 112.671875 C 58.855469 113.398438 59.21875 114.664062 60.125 114.664062 C 60.609375 114.664062 61.03125 114.121094 61.03125 113.457031 C 61.03125 112.25 60.367188 111.886719 59.640625 112.671875 Z M 59.640625 112.671875 "/>
<path style=" stroke:none;fill-rule:nonzero;fill:rgb(0%,0%,0%);fill-opacity:1;" d="M 211.738281 114.542969 C 210.890625 115.085938 207.265625 122.691406 207.265625 123.898438 C 207.265625 126.128906 210.953125 126.855469 211.375 124.683594 C 211.496094 124.078125 212.523438 122.390625 213.671875 120.878906 C 216.207031 117.621094 216.328125 115.449219 214.15625 114.664062 C 212.339844 113.941406 212.582031 113.941406 211.738281 114.542969 Z M 211.738281 114.542969 "/>
<path style=" stroke:none;fill-rule:nonzero;fill:rgb(0%,0%,0%);fill-opacity:1;" d="M 53.296875 117.199219 C 52.269531 118.222656 52.390625 120.578125 53.660156 122.085938 C 55.109375 123.957031 58.433594 123.59375 58.976562 121.542969 C 59.460938 119.550781 58.917969 118.285156 57.40625 118.285156 C 56.742188 118.285156 56.015625 117.863281 55.835938 117.378906 C 55.410156 116.292969 54.265625 116.234375 53.296875 117.199219 Z M 53.296875 117.199219 "/>
<path style=" stroke:none;fill-rule:nonzero;fill:rgb(0%,0%,0%);fill-opacity:1;" d="M 62.238281 122.449219 C 62.238281 122.75 62.664062 123.292969 63.148438 123.714844 C 63.871094 124.320312 64.234375 124.320312 64.960938 123.714844 C 65.441406 123.292969 65.683594 122.75 65.503906 122.449219 C 65.082031 121.726562 62.238281 121.726562 62.238281 122.449219 Z M 62.238281 122.449219 "/>
<path style=" stroke:none;fill-rule:nonzero;fill:rgb(0%,0%,0%);fill-opacity:1;" d="M 192.460938 123.113281 C 191.796875 124.140625 192.761719 125.042969 193.730469 124.257812 C 194.214844 123.898438 194.574219 123.355469 194.574219 123.050781 C 194.574219 122.328125 192.945312 122.390625 192.460938 123.113281 Z M 192.460938 123.113281 "/>
<path style=" stroke:none;fill-rule:nonzero;fill:rgb(0%,0%,0%);fill-opacity:1;" d="M 220.558594 123.777344 C 220.558594 125.226562 221.949219 125.042969 222.25 123.535156 C 222.371094 122.933594 222.070312 122.507812 221.527344 122.507812 C 220.921875 122.507812 220.558594 123.050781 220.558594 123.777344 Z M 220.558594 123.777344 "/>
<path style=" stroke:none;fill-rule:nonzero;fill:rgb(0%,0%,0%);fill-opacity:1;" d="M 67.679688 124.621094 C 67.679688 125.164062 68.101562 125.707031 68.585938 125.890625 C 69.070312 126.128906 69.492188 126.855469 69.492188 127.578125 C 69.492188 128.242188 70.09375 129.628906 70.882812 130.597656 C 72.574219 132.707031 74.628906 132.347656 75.59375 129.871094 C 76.199219 128.363281 76.015625 128.0625 73.601562 126.007812 C 70.882812 123.59375 67.679688 122.871094 67.679688 124.621094 Z M 67.679688 124.621094 "/>
<path style=" stroke:none;fill-rule:nonzero;fill:rgb(0%,0%,0%);fill-opacity:1;" d="M 68.101562 132.585938 C 67.859375 132.769531 67.679688 133.734375 67.679688 134.699219 C 67.679688 136.089844 67.921875 136.390625 69.1875 136.390625 C 70.457031 136.390625 70.699219 136.089844 70.699219 134.640625 C 70.699219 133.613281 70.335938 132.769531 69.734375 132.527344 C 68.585938 132.105469 68.585938 132.105469 68.101562 132.585938 Z M 68.101562 132.585938 "/>
<path style=" stroke:none;fill-rule:nonzero;fill:rgb(0%,0%,0%);fill-opacity:1;" d="M 196.390625 135.726562 C 195 138.320312 197.113281 141.21875 199.652344 140.253906 C 200.859375 139.769531 201.585938 137.113281 200.800781 135.847656 C 199.832031 134.339844 197.175781 134.277344 196.390625 135.726562 Z M 196.390625 135.726562 "/>
<path style=" stroke:none;fill-rule:nonzero;fill:rgb(0%,0%,0%);fill-opacity:1;" d="M 60.730469 135.785156 C 60.246094 136.570312 61.09375 138.199219 62 138.199219 C 63.148438 138.199219 63.085938 136.027344 61.9375 135.605469 C 61.453125 135.363281 60.910156 135.484375 60.730469 135.785156 Z M 60.730469 135.785156 "/>
<path style=" stroke:none;fill-rule:nonzero;fill:rgb(0%,0%,0%);fill-opacity:1;" d="M 317 144.597656 C 316.335938 146.285156 316.640625 150.210938 317.425781 150.691406 C 317.847656 150.933594 318.8125 152.203125 319.660156 153.410156 C 322.078125 157.089844 323.164062 156.367188 322.921875 151.355469 C 322.800781 147.917969 322.378906 147.253906 320.507812 147.253906 C 319.480469 147.253906 319.054688 146.890625 319.054688 146.105469 C 319.054688 144.476562 317.484375 143.328125 317 144.597656 Z M 317 144.597656 "/>
<path style=" stroke:none;fill-rule:nonzero;fill:rgb(0%,0%,0%);fill-opacity:1;" d="M 63.75 144.839844 C 63.933594 145.140625 64.535156 145.441406 65.019531 145.441406 C 65.503906 145.441406 65.867188 145.140625 65.867188 144.839844 C 65.867188 144.476562 65.320312 144.234375 64.597656 144.234375 C 63.933594 144.234375 63.570312 144.476562 63.75 144.839844 Z M 63.75 144.839844 "/>
<path style=" stroke:none;fill-rule:nonzero;fill:rgb(0%,0%,0%);fill-opacity:1;" d="M 70.09375 148.398438 C 70.09375 148.699219 70.761719 149.363281 71.605469 149.90625 C 72.753906 150.691406 73.117188 150.691406 73.117188 150.089844 C 73.117188 149.667969 72.816406 149.003906 72.390625 148.582031 C 71.546875 147.734375 70.09375 147.613281 70.09375 148.398438 Z M 70.09375 148.398438 "/>
<path style=" stroke:none;fill-rule:nonzero;fill:rgb(0%,0%,0%);fill-opacity:1;" d="M 172.640625 148.21875 C 172.398438 148.460938 172.21875 149.0625 172.21875 149.605469 C 172.21875 150.269531 172.398438 150.332031 172.882812 149.847656 C 173.246094 149.484375 173.488281 148.882812 173.304688 148.460938 C 173.183594 148.097656 172.882812 147.976562 172.640625 148.21875 Z M 172.640625 148.21875 "/>
<path style=" stroke:none;fill-rule:nonzero;fill:rgb(0%,0%,0%);fill-opacity:1;" d="M 184.304688 150.269531 C 184.304688 150.570312 183.335938 151.71875 182.1875 152.863281 C 179.648438 155.339844 178.925781 158.054688 180.375 159.503906 C 181.523438 160.648438 183.519531 159.988281 184.121094 158.234375 C 184.304688 157.691406 185.390625 156.0625 186.539062 154.675781 C 188.835938 151.777344 188.957031 151.175781 187.386719 150.269531 C 185.875 149.484375 184.304688 149.484375 184.304688 150.269531 Z M 184.304688 150.269531 "/>
<path style=" stroke:none;fill-rule:nonzero;fill:rgb(0%,0%,0%);fill-opacity:1;" d="M 258.871094 151.71875 C 258.386719 153.046875 258.808594 155.277344 259.714844 155.582031 C 260.199219 155.703125 260.441406 155.039062 260.441406 153.347656 C 260.441406 150.933594 259.535156 150.027344 258.871094 151.71875 Z M 258.871094 151.71875 "/>
<path style=" stroke:none;fill-rule:nonzero;fill:rgb(0%,0%,0%);fill-opacity:1;" d="M 77.46875 153.410156 C 77.769531 154.3125 80.367188 154.855469 80.367188 154.011719 C 80.367188 153.410156 78.976562 152.683594 77.832031 152.683594 C 77.527344 152.683594 77.347656 153.046875 77.46875 153.410156 Z M 77.46875 153.410156 "/>
<path style=" stroke:none;fill-rule:nonzero;fill:rgb(0%,0%,0%);fill-opacity:1;" d="M 239.109375 154.917969 C 238.929688 155.21875 238.988281 156.425781 239.230469 157.632812 C 239.65625 160.167969 240.863281 160.046875 241.164062 157.511719 C 241.46875 155.277344 239.957031 153.46875 239.109375 154.917969 Z M 239.109375 154.917969 "/>
<path style=" stroke:none;fill-rule:nonzero;fill:rgb(0%,0%,0%);fill-opacity:1;" d="M 289.386719 154.734375 C 289.265625 154.855469 283.707031 155.277344 277.058594 155.703125 C 265.515625 156.367188 264.851562 156.484375 262.253906 158.117188 C 260.261719 159.324219 258.085938 159.988281 254.097656 160.53125 C 249.261719 161.195312 245.273438 162.519531 240.5 165.054688 C 238.808594 165.960938 238.324219 168.859375 239.894531 168.433594 C 240.378906 168.316406 241.890625 167.953125 243.21875 167.652344 C 244.550781 167.347656 247.027344 166.746094 248.660156 166.261719 C 250.351562 165.78125 253.433594 164.996094 255.609375 164.453125 C 257.78125 163.910156 260.503906 163.003906 261.648438 162.519531 C 265.277344 160.953125 270.957031 160.46875 289.808594 160.105469 C 306.304688 159.867188 308.542969 159.925781 314.464844 161.074219 C 319.296875 161.976562 321.351562 162.160156 322.199219 161.675781 C 323.347656 161.074219 323.347656 161.011719 322.257812 159.804688 C 320.324219 157.632812 317.726562 156.789062 311.867188 156.246094 C 308.664062 155.941406 304.554688 155.460938 302.742188 155.160156 C 299.417969 154.617188 289.871094 154.3125 289.386719 154.734375 Z M 289.386719 154.734375 "/>
<path style=" stroke:none;fill-rule:nonzero;fill:rgb(0%,0%,0%);fill-opacity:1;" d="M 82.964844 155.519531 C 83.511719 155.640625 84.476562 155.640625 85.082031 155.519531 C 85.625 155.339844 85.140625 155.21875 83.992188 155.21875 C 82.847656 155.21875 82.363281 155.339844 82.964844 155.519531 Z M 82.964844 155.519531 "/>
<path style=" stroke:none;fill-rule:nonzero;fill:rgb(0%,0%,0%);fill-opacity:1;" d="M 192.28125 157.632812 C 191.3125 158.597656 191.375 159.324219 192.460938 159.324219 C 192.945312 159.324219 193.367188 159.203125 193.367188 159.082031 C 193.367188 158.960938 193.546875 158.417969 193.730469 157.875 C 194.152344 156.726562 193.308594 156.605469 192.28125 157.632812 Z M 192.28125 157.632812 "/>
<path style=" stroke:none;fill-rule:nonzero;fill:rgb(0%,0%,0%);fill-opacity:1;" d="M 187.265625 163.910156 C 186.539062 164.753906 186.597656 164.875 187.566406 164.695312 C 188.230469 164.574219 188.835938 164.089844 189.015625 163.667969 C 189.320312 162.640625 188.230469 162.761719 187.265625 163.910156 Z M 187.265625 163.910156 "/>
<path style=" stroke:none;fill-rule:nonzero;fill:rgb(0%,0%,0%);fill-opacity:1;" d="M 166.417969 168.617188 C 165.8125 171.210938 166.296875 172.296875 168.289062 172.296875 C 169.980469 172.296875 170.101562 172.175781 170.101562 169.882812 C 170.101562 167.710938 169.921875 167.46875 168.472656 167.289062 C 167.140625 167.109375 166.71875 167.410156 166.417969 168.617188 Z M 166.417969 168.617188 "/>
<path style=" stroke:none;fill-rule:nonzero;fill:rgb(0%,0%,0%);fill-opacity:1;" d="M 182.492188 168.675781 C 182.492188 169.160156 182.792969 169.582031 183.09375 169.582031 C 183.457031 169.582031 183.699219 169.160156 183.699219 168.675781 C 183.699219 168.195312 183.457031 167.773438 183.09375 167.773438 C 182.792969 167.773438 182.492188 168.195312 182.492188 168.675781 Z M 182.492188 168.675781 "/>
<path style=" stroke:none;fill-rule:nonzero;fill:rgb(0%,0%,0%);fill-opacity:1;" d="M 148.953125 177.609375 C 148.710938 178.210938 148.652344 178.875 148.894531 179.058594 C 149.496094 179.660156 149.980469 178.816406 149.679688 177.609375 C 149.4375 176.582031 149.4375 176.582031 148.953125 177.609375 Z M 148.953125 177.609375 "/>
<path style=" stroke:none;fill-rule:nonzero;fill:rgb(0%,0%,0%);fill-opacity:1;" d="M 293.738281 181.289062 C 292.769531 182.316406 292.40625 183.28125 292.589844 184.730469 C 292.769531 186.601562 292.589844 186.78125 290.957031 187.082031 C 287.996094 187.566406 285.035156 189.4375 285.519531 190.523438 C 286.003906 191.789062 284.792969 192.515625 282.195312 192.515625 C 281.046875 192.515625 279.113281 192.757812 277.964844 193.117188 C 276.636719 193.480469 275.667969 193.480469 275.308594 193.117188 C 274.460938 192.273438 271.078125 192.394531 270.230469 193.238281 C 269.386719 194.082031 269.265625 196.136719 270.050781 196.136719 C 270.351562 196.136719 271.4375 196.921875 272.40625 197.886719 C 273.734375 199.273438 275.246094 199.878906 279.054688 200.722656 C 281.773438 201.324219 284.007812 201.988281 284.007812 202.292969 C 284.007812 202.59375 283.28125 203.074219 282.4375 203.378906 C 280.925781 203.980469 280.925781 204.101562 281.773438 205.371094 C 282.316406 206.214844 283.464844 206.816406 284.976562 207 L 287.332031 207.300781 L 287.511719 212.066406 C 287.632812 215.871094 287.511719 217.015625 286.667969 217.921875 C 285.640625 219.007812 285.699219 219.1875 286.910156 221.421875 C 288.84375 224.800781 288.660156 225.101562 285.097656 225.164062 C 281.46875 225.164062 277.90625 226.25 277.480469 227.398438 C 277.359375 227.820312 278.207031 228.542969 279.355469 229.027344 C 280.5625 229.507812 281.894531 230.472656 282.375 231.136719 C 283.765625 233.128906 286.484375 234.15625 290.535156 234.15625 L 294.28125 234.15625 L 295.429688 231.5625 C 296.09375 230.171875 296.757812 228.542969 296.941406 227.941406 C 297.242188 226.972656 297.90625 226.914062 302.257812 227.035156 C 305.519531 227.15625 307.273438 227.457031 307.453125 227.941406 C 307.574219 228.484375 306.910156 228.722656 305.15625 228.722656 C 300.867188 228.722656 298.753906 230.835938 301.53125 232.34375 C 302.257812 232.707031 303.042969 233.613281 303.34375 234.398438 C 304.191406 236.691406 313.375 238.078125 316.640625 236.390625 C 317.90625 235.726562 318.148438 235.300781 317.96875 233.191406 C 317.726562 230.414062 318.875 228.722656 320.988281 228.722656 C 324.433594 228.722656 327.816406 224.378906 327.816406 220.035156 C 327.757812 216.292969 327.214844 215.265625 325.703125 216.050781 C 324.976562 216.414062 324.132812 217.4375 323.710938 218.34375 C 323.347656 219.25 322.800781 220.09375 322.5625 220.277344 C 321.835938 220.820312 312.226562 219.429688 310.777344 218.585938 C 310.050781 218.222656 307.695312 217.863281 305.519531 217.863281 C 303.285156 217.863281 299.902344 217.4375 297.90625 216.835938 C 294.523438 215.929688 294.28125 215.75 294.28125 214.121094 C 294.28125 213.09375 294.824219 211.828125 295.671875 211.042969 C 297.542969 209.292969 298.511719 207.421875 298.511719 205.550781 C 298.511719 204.707031 298.996094 203.738281 299.597656 203.4375 C 300.203125 203.136719 301.046875 202.171875 301.53125 201.324219 C 302.558594 199.335938 304.070312 199.335938 306.789062 201.386719 C 308.359375 202.59375 309.144531 202.835938 309.871094 202.410156 C 311.078125 201.628906 311.867188 198.792969 311.441406 196.921875 C 311.261719 196.195312 311.382812 194.628906 311.804688 193.480469 C 312.347656 191.851562 312.289062 191.125 311.683594 190.160156 C 310.65625 188.472656 309.570312 188.59375 306.425781 190.703125 C 303.34375 192.816406 302.195312 192.9375 300.382812 191.429688 C 299.417969 190.644531 298.996094 189.4375 298.753906 186.480469 C 298.328125 182.4375 297.242188 179.839844 295.914062 179.839844 C 295.429688 179.839844 294.460938 180.503906 293.738281 181.289062 Z M 296.273438 194.929688 L 297.363281 197.039062 L 295.066406 199.03125 C 293.375 200.542969 293.011719 201.144531 293.554688 201.6875 C 294.582031 202.714844 294.460938 205.792969 293.375 206.152344 C 292.890625 206.394531 291.5 206.09375 290.292969 205.488281 C 288.296875 204.585938 288.238281 204.402344 289.085938 203.4375 C 289.628906 202.835938 290.050781 201.929688 290.050781 201.386719 C 290.050781 200.84375 290.535156 200.117188 291.140625 199.816406 C 292.105469 199.335938 292.226562 198.671875 291.984375 195.835938 L 291.683594 192.394531 L 293.433594 192.636719 C 294.703125 192.757812 295.488281 193.359375 296.273438 194.929688 Z M 287.332031 196.738281 C 287.574219 197.101562 286.789062 197.34375 285.398438 197.28125 C 283.585938 197.28125 283.34375 197.160156 284.308594 196.738281 C 285.941406 196.015625 286.910156 196.015625 287.332031 196.738281 Z M 293.074219 221.785156 C 292.347656 222.628906 292.164062 222.628906 291.199219 221.722656 C 290.535156 221.121094 290.050781 219.851562 290.050781 218.828125 L 290.050781 216.957031 L 291.984375 218.886719 C 293.617188 220.515625 293.796875 220.9375 293.074219 221.785156 Z M 298.511719 221.179688 C 299.054688 221.84375 299.113281 222.328125 298.632812 222.808594 C 297.90625 223.535156 296.699219 222.929688 296.699219 221.785156 C 296.699219 221.363281 296.214844 220.820312 295.671875 220.699219 C 294.945312 220.515625 295.125 220.394531 296.152344 220.335938 C 297.0625 220.335938 298.085938 220.699219 298.511719 221.179688 Z M 305.15625 222.507812 C 306.003906 223.113281 307.574219 223.59375 308.601562 223.59375 C 309.691406 223.59375 310.535156 223.835938 310.414062 224.199219 C 310.292969 224.800781 304.191406 224.679688 303.222656 224.078125 C 302.621094 223.714844 302.621094 221.484375 303.222656 221.484375 C 303.464844 221.484375 304.371094 221.964844 305.15625 222.507812 Z M 314.828125 224.800781 C 314.828125 225.285156 314.585938 225.707031 314.222656 225.707031 C 313.917969 225.707031 313.617188 225.285156 313.617188 224.800781 C 313.617188 224.320312 313.917969 223.898438 314.222656 223.898438 C 314.585938 223.898438 314.828125 224.320312 314.828125 224.800781 Z M 314.828125 224.800781 "/>
<path style=" stroke:none;fill-rule:nonzero;fill:rgb(0%,0%,0%);fill-opacity:1;" d="M 155.480469 183.28125 C 155.296875 183.886719 154.816406 184.789062 154.390625 185.273438 C 153.96875 185.753906 153.242188 187.445312 152.761719 189.015625 C 151.792969 192.152344 152.15625 193.117188 154.453125 193.117188 C 156.082031 193.117188 156.871094 192.214844 157.351562 189.679688 C 157.59375 188.652344 158.199219 187.445312 158.683594 187.023438 C 159.710938 186.179688 159.769531 183.945312 158.804688 182.980469 C 157.714844 181.894531 155.902344 182.074219 155.480469 183.28125 Z M 155.480469 183.28125 "/>
<path style=" stroke:none;fill-rule:nonzero;fill:rgb(0%,0%,0%);fill-opacity:1;" d="M 171.613281 183.160156 C 171.613281 183.644531 171.914062 184.066406 172.21875 184.066406 C 172.582031 184.066406 172.820312 183.644531 172.820312 183.160156 C 172.820312 182.679688 172.582031 182.253906 172.21875 182.253906 C 171.914062 182.253906 171.613281 182.679688 171.613281 183.160156 Z M 171.613281 183.160156 "/>
<path style=" stroke:none;fill-rule:nonzero;fill:rgb(0%,0%,0%);fill-opacity:1;" d="M 145.027344 184.125 C 145.027344 184.789062 145.328125 185.152344 145.628906 184.972656 C 145.992188 184.789062 146.234375 184.1875 146.234375 183.703125 C 146.234375 183.222656 145.992188 182.859375 145.628906 182.859375 C 145.328125 182.859375 145.027344 183.402344 145.027344 184.125 Z M 145.027344 184.125 "/>
<path style=" stroke:none;fill-rule:nonzero;fill:rgb(0%,0%,0%);fill-opacity:1;" d="M 139.585938 193.421875 C 139.585938 193.902344 139.890625 194.324219 140.191406 194.324219 C 140.554688 194.324219 140.796875 193.902344 140.796875 193.421875 C 140.796875 192.9375 140.554688 192.515625 140.191406 192.515625 C 139.890625 192.515625 139.585938 192.9375 139.585938 193.421875 Z M 139.585938 193.421875 "/>
<path style=" stroke:none;fill-rule:nonzero;fill:rgb(0%,0%,0%);fill-opacity:1;" d="M 164.785156 193.480469 C 164.542969 193.722656 164.363281 194.324219 164.363281 194.867188 C 164.363281 195.53125 164.542969 195.59375 165.027344 195.109375 C 165.390625 194.746094 165.632812 194.144531 165.449219 193.722656 C 165.328125 193.359375 165.027344 193.238281 164.785156 193.480469 Z M 164.785156 193.480469 "/>
<path style=" stroke:none;fill-rule:nonzero;fill:rgb(0%,0%,0%);fill-opacity:1;" d="M 67.375 195.53125 C 67.132812 195.894531 67.132812 196.921875 67.375 197.886719 C 67.679688 199.335938 67.496094 199.816406 66.109375 200.78125 C 64.054688 202.109375 58.613281 207.664062 58.613281 208.386719 C 58.613281 208.628906 57.40625 211.34375 55.894531 214.359375 C 53.054688 220.15625 52.449219 223.714844 54.082031 225.101562 C 55.289062 226.128906 56.199219 225.34375 56.199219 223.171875 C 56.199219 221.785156 56.4375 221.421875 57.105469 221.722656 C 57.648438 221.90625 59.160156 221.242188 60.609375 220.214844 C 62.664062 218.707031 63.207031 218.527344 63.328125 219.308594 C 63.570312 220.457031 66.046875 220.578125 67.015625 219.492188 C 67.4375 218.886719 67.4375 218.464844 67.015625 218.042969 C 65.625 216.65625 67.132812 215.871094 70.277344 216.292969 C 73.417969 216.65625 75.535156 215.6875 75.535156 213.9375 C 75.535156 212.609375 77.46875 211.523438 80.851562 210.921875 C 83.691406 210.4375 84.296875 210.078125 84.597656 208.871094 C 85.019531 207.121094 87.5 206.214844 90.460938 206.757812 C 92.996094 207.238281 94.871094 206.578125 94.871094 205.128906 C 94.871094 203.859375 93.601562 203.617188 91.789062 204.644531 C 90.820312 205.128906 90.21875 205.066406 89.128906 204.34375 C 87.074219 203.015625 86.410156 203.136719 84.113281 205.308594 C 82.484375 206.9375 81.636719 207.300781 79.582031 207.300781 C 77.40625 207.300781 77.042969 207.480469 76.863281 208.6875 C 76.742188 209.414062 75.714844 210.742188 74.566406 211.585938 C 72.816406 212.972656 72.148438 213.09375 69.855469 212.792969 C 67.921875 212.492188 67.015625 212.609375 66.652344 213.15625 C 65.925781 214.300781 58.613281 218.644531 58.132812 218.222656 C 57.707031 217.742188 59.703125 211.828125 60.789062 210.558594 C 61.273438 210.078125 61.636719 209.351562 61.636719 209.050781 C 61.636719 208.75 62.359375 207.78125 63.207031 207 C 64.054688 206.152344 65.5625 204.585938 66.652344 203.5 C 67.679688 202.472656 68.949219 201.566406 69.492188 201.566406 C 70.519531 201.566406 74.445312 199.695312 75.898438 198.550781 C 76.441406 198.007812 77.710938 197.945312 79.644531 198.1875 C 81.214844 198.429688 83.148438 198.730469 83.992188 198.792969 C 85.988281 198.972656 90.761719 200.421875 91.546875 201.085938 C 91.847656 201.324219 92.816406 201.566406 93.722656 201.566406 C 94.808594 201.566406 96.078125 202.292969 97.46875 203.679688 C 99.464844 205.671875 102.121094 206.515625 102.121094 205.1875 C 102.121094 204.164062 98.859375 201.566406 97.53125 201.566406 C 96.804688 201.566406 96.019531 201.144531 95.835938 200.660156 C 95.65625 200.117188 93.78125 198.910156 91.730469 197.945312 C 88.285156 196.316406 87.316406 196.136719 81.757812 196.136719 C 78.375 196.136719 74.929688 196.378906 74.144531 196.679688 C 73.054688 197.101562 72.210938 196.980469 70.761719 196.074219 C 68.585938 194.746094 67.921875 194.6875 67.375 195.53125 Z M 67.375 195.53125 "/>
<path style=" stroke:none;fill-rule:nonzero;fill:rgb(0%,0%,0%);fill-opacity:1;" d="M 77.648438 200.902344 C 77.285156 201.207031 76.136719 201.566406 74.992188 201.6875 C 72.332031 201.929688 71.910156 203.136719 74.324219 203.5 C 77.226562 203.921875 82.785156 203.316406 82.785156 202.53125 C 82.785156 201.867188 80.066406 200.359375 78.859375 200.359375 C 78.496094 200.359375 77.953125 200.601562 77.648438 200.902344 Z M 77.648438 200.902344 "/>
<path style=" stroke:none;fill-rule:nonzero;fill:rgb(0%,0%,0%);fill-opacity:1;" d="M 135.960938 202.53125 C 135.960938 203.378906 136.203125 203.921875 136.566406 203.679688 C 136.929688 203.5 137.171875 202.773438 137.171875 202.109375 C 137.171875 201.507812 136.929688 200.964844 136.566406 200.964844 C 136.261719 200.964844 135.960938 201.6875 135.960938 202.53125 Z M 135.960938 202.53125 "/>
<path style=" stroke:none;fill-rule:nonzero;fill:rgb(0%,0%,0%);fill-opacity:1;" d="M 158.921875 203.136719 C 158.921875 203.980469 159.164062 204.523438 159.527344 204.28125 C 159.890625 204.101562 160.132812 203.378906 160.132812 202.714844 C 160.132812 202.109375 159.890625 201.566406 159.527344 201.566406 C 159.226562 201.566406 158.921875 202.292969 158.921875 203.136719 Z M 158.921875 203.136719 "/>
<path style=" stroke:none;fill-rule:nonzero;fill:rgb(0%,0%,0%);fill-opacity:1;" d="M 145.628906 205.972656 C 144.664062 206.457031 144.058594 207.359375 143.9375 208.386719 C 143.757812 209.714844 144.058594 210.136719 145.386719 210.621094 C 148.105469 211.707031 150.101562 208.6875 148.167969 206.394531 C 147.261719 205.371094 146.960938 205.308594 145.628906 205.972656 Z M 145.628906 205.972656 "/>
<path style=" stroke:none;fill-rule:nonzero;fill:rgb(0%,0%,0%);fill-opacity:1;" d="M 134.148438 207.964844 C 134.148438 209.230469 134.390625 209.957031 134.753906 209.714844 C 135.117188 209.535156 135.355469 208.566406 135.355469 207.542969 C 135.355469 206.578125 135.117188 205.792969 134.753906 205.792969 C 134.449219 205.792969 134.148438 206.757812 134.148438 207.964844 Z M 134.148438 207.964844 "/>
<path style=" stroke:none;fill-rule:nonzero;fill:rgb(0%,0%,0%);fill-opacity:1;" d="M 70.882812 207.964844 C 70.398438 209.230469 72.269531 211.101562 73.175781 210.195312 C 74.023438 209.351562 73.296875 207 72.148438 207 C 71.667969 207 71.121094 207.421875 70.882812 207.964844 Z M 70.882812 207.964844 "/>
<path style=" stroke:none;fill-rule:nonzero;fill:rgb(0%,0%,0%);fill-opacity:1;" d="M 96.503906 208.265625 C 95.597656 208.988281 94.507812 209.59375 94.085938 209.652344 C 90.820312 210.257812 87.621094 212.851562 87.621094 214.90625 C 87.621094 216.472656 89.25 216.351562 90.097656 214.664062 C 90.460938 213.9375 90.882812 213.273438 90.941406 213.15625 C 91.367188 212.671875 97.769531 210.621094 98.917969 210.621094 C 100.308594 210.621094 100.851562 209.714844 100.429688 208.023438 C 100.066406 206.636719 98.558594 206.757812 96.503906 208.265625 Z M 96.503906 208.265625 "/>
<path style=" stroke:none;fill-rule:nonzero;fill:rgb(0%,0%,0%);fill-opacity:1;" d="M 86.410156 209.414062 C 86.410156 210.078125 86.714844 210.621094 87.015625 210.621094 C 87.378906 210.621094 87.621094 210.078125 87.621094 209.414062 C 87.621094 208.75 87.378906 208.207031 87.015625 208.207031 C 86.714844 208.207031 86.410156 208.75 86.410156 209.414062 Z M 86.410156 209.414062 "/>
<path style=" stroke:none;fill-rule:nonzero;fill:rgb(0%,0%,0%);fill-opacity:1;" d="M 64.054688 209.714844 C 63.691406 210.195312 63.507812 210.859375 63.75 211.222656 C 64.292969 212.066406 66.46875 210.859375 66.46875 209.714844 C 66.46875 208.566406 65.019531 208.566406 64.054688 209.714844 Z M 64.054688 209.714844 "/>
<path style=" stroke:none;fill-rule:nonzero;fill:rgb(0%,0%,0%);fill-opacity:1;" d="M 79.523438 216.59375 C 78.253906 217.5 76.804688 219.007812 76.320312 219.851562 C 75.351562 221.722656 75.050781 221.785156 72.753906 220.578125 C 71.789062 220.09375 70.457031 219.671875 69.734375 219.671875 C 68.464844 219.671875 66.46875 221.363281 66.46875 222.449219 C 66.46875 223.59375 62.664062 225.285156 59.945312 225.34375 C 58.070312 225.40625 57.042969 225.707031 56.558594 226.429688 C 55.59375 228 56.863281 229.085938 58.613281 228.121094 C 59.703125 227.578125 60.125 227.636719 61.09375 228.484375 C 62.421875 229.628906 61.757812 230.050781 67.800781 224.621094 C 70.398438 222.328125 70.820312 222.144531 72.210938 222.808594 C 73.054688 223.171875 73.722656 223.777344 73.722656 224.078125 C 73.722656 224.621094 75.535156 224.441406 77.46875 223.59375 C 78.253906 223.292969 78.675781 223.535156 79.160156 224.558594 C 79.460938 225.34375 80.003906 226.429688 80.308594 226.914062 C 80.609375 227.398438 81.335938 229.449219 82 231.441406 C 82.605469 233.433594 83.8125 236.207031 84.78125 237.597656 C 85.6875 238.921875 86.59375 240.976562 86.773438 242.121094 C 87.015625 243.207031 87.800781 245.441406 88.585938 247.132812 C 89.3125 248.761719 90.15625 251.175781 90.398438 252.441406 C 90.820312 254.917969 92.695312 256.363281 94.507812 255.699219 C 96.078125 255.097656 95.597656 252.140625 93.238281 247.371094 C 90.339844 241.699219 88.222656 236.871094 88.222656 236.027344 C 88.222656 234.457031 86.109375 229.449219 84.597656 227.515625 C 82.847656 225.164062 80.972656 220.9375 80.972656 219.070312 C 80.972656 218.042969 81.394531 217.863281 83.328125 217.863281 C 86.109375 217.863281 87.074219 216.835938 85.503906 215.628906 C 83.875 214.480469 82.179688 214.722656 79.523438 216.59375 Z M 79.523438 216.59375 "/>
<path style=" stroke:none;fill-rule:nonzero;fill:rgb(0%,0%,0%);fill-opacity:1;" d="M 153.96875 216.414062 C 153.667969 216.65625 153.484375 217.679688 153.484375 218.707031 C 153.484375 219.972656 153.667969 220.335938 154.148438 219.851562 C 154.511719 219.492188 154.695312 218.464844 154.574219 217.558594 C 154.453125 216.65625 154.210938 216.171875 153.96875 216.414062 Z M 153.96875 216.414062 "/>
<path style=" stroke:none;fill-rule:nonzero;fill:rgb(0%,0%,0%);fill-opacity:1;" d="M 130.523438 224.015625 C 130.523438 225.164062 130.644531 225.222656 131.128906 224.5 C 131.914062 223.351562 131.914062 222.691406 131.128906 222.691406 C 130.824219 222.691406 130.523438 223.292969 130.523438 224.015625 Z M 130.523438 224.015625 "/>
<path style=" stroke:none;fill-rule:nonzero;fill:rgb(0%,0%,0%);fill-opacity:1;" d="M 139.164062 224.015625 C 137.59375 226.128906 136.261719 232.648438 137.109375 234.035156 C 137.410156 234.519531 138.316406 234.757812 139.285156 234.640625 C 140.855469 234.457031 141.097656 234.09375 141.761719 231.136719 C 142.851562 226.550781 142.789062 224.078125 141.640625 223.65625 C 140.25 223.113281 139.828125 223.171875 139.164062 224.015625 Z M 139.164062 224.015625 "/>
<path style=" stroke:none;fill-rule:nonzero;fill:rgb(0%,0%,0%);fill-opacity:1;" d="M 129.132812 227.335938 C 128.46875 227.941406 128.648438 229.929688 129.3125 229.929688 C 129.675781 229.929688 129.917969 229.269531 129.917969 228.421875 C 129.917969 226.855469 129.796875 226.671875 129.132812 227.335938 Z M 129.132812 227.335938 "/>
<path style=" stroke:none;fill-rule:nonzero;fill:rgb(0%,0%,0%);fill-opacity:1;" d="M 150.28125 232.164062 C 149.617188 232.769531 149.800781 235.363281 150.464844 235.363281 C 150.828125 235.363281 151.066406 234.519531 151.066406 233.550781 C 151.066406 231.679688 150.949219 231.441406 150.28125 232.164062 Z M 150.28125 232.164062 "/>
<path style=" stroke:none;fill-rule:nonzero;fill:rgb(0%,0%,0%);fill-opacity:1;" d="M 125.085938 242.121094 C 125.085938 243.269531 125.207031 243.328125 125.6875 242.605469 C 126.472656 241.457031 126.472656 240.792969 125.6875 240.792969 C 125.386719 240.792969 125.085938 241.398438 125.085938 242.121094 Z M 125.085938 242.121094 "/>
<path style=" stroke:none;fill-rule:nonzero;fill:rgb(0%,0%,0%);fill-opacity:1;" d="M 131.429688 249.242188 C 130.582031 251.898438 133.90625 254.070312 135.839844 252.140625 C 136.867188 251.113281 136.746094 248.820312 135.597656 248.398438 C 133.664062 247.675781 131.792969 248.035156 131.429688 249.242188 Z M 131.429688 249.242188 "/>
<path style=" stroke:none;fill-rule:nonzero;fill:rgb(0%,0%,0%);fill-opacity:1;" d="M 142.972656 253.648438 C 142.667969 254.554688 142.609375 255.519531 142.851562 255.699219 C 143.515625 256.363281 143.9375 255.398438 143.695312 253.648438 L 143.453125 251.960938 Z M 142.972656 253.648438 "/>
<path style=" stroke:none;fill-rule:nonzero;fill:rgb(0%,0%,0%);fill-opacity:1;" d="M 118.015625 253.828125 C 117.53125 255.097656 118.800781 256.363281 119.707031 255.460938 C 120.492188 254.675781 120.007812 252.863281 119.042969 252.863281 C 118.679688 252.863281 118.257812 253.285156 118.015625 253.828125 Z M 118.015625 253.828125 "/>
</g>
</svg>
