<?xml version="1.0" encoding="UTF-8"?>
<svg xmlns="http://www.w3.org/2000/svg" xmlns:xlink="http://www.w3.org/1999/xlink" width="400pt" height="195pt" viewBox="0 0 400 195" version="1.1">
<g id="surface1">
<path style=" stroke:none;fill-rule:nonzero;fill:rgb(0%,0%,0%);fill-opacity:1;" d="M 42.933594 4.757812 C 42.535156 5.914062 42.222656 7.472656 42.222656 8.273438 C 42.222656 9.074219 42 10.273438 41.734375 10.988281 C 41.464844 11.652344 40.976562 13.609375 40.621094 15.34375 C 40.265625 17.035156 39.6875 19.660156 39.332031 21.128906 C 38.179688 26.152344 37.332031 30.023438 36.667969 33.136719 C 36.355469 34.828125 35.734375 37.542969 35.378906 39.140625 C 34.976562 40.742188 34.355469 43.546875 33.957031 45.371094 C 33.109375 49.550781 32.222656 53.597656 31.332031 57.601562 C 30.976562 59.292969 30.445312 61.917969 30.179688 63.382812 C 29.910156 64.851562 29.511719 66.453125 29.332031 66.941406 C 29.15625 67.429688 28.753906 69.03125 28.445312 70.5 C 28.132812 71.96875 27.644531 74.460938 27.289062 76.0625 C 26.933594 77.660156 26.355469 80.332031 26 82.066406 C 25.644531 83.753906 24.753906 87.980469 24 91.40625 C 22.089844 99.902344 21.554688 102.394531 20.667969 106.53125 C 19.867188 110.308594 19.023438 114.089844 17.957031 118.761719 C 17.601562 120.363281 17.023438 123.03125 16.667969 124.765625 C 16.3125 126.457031 15.734375 129.257812 15.332031 130.992188 C 14.933594 132.683594 14.3125 135.484375 13.957031 137.21875 C 12.933594 142.113281 12.132812 145.851562 11.332031 149.230469 C 10.976562 150.921875 10.355469 153.722656 10 155.457031 C 9.6875 157.148438 9.066406 159.949219 8.667969 161.683594 C 8.265625 163.375 7.644531 166.175781 7.289062 167.910156 C 6.355469 172.492188 5.554688 176.097656 4 183.035156 C 3.199219 186.460938 2.535156 189.664062 2.535156 190.152344 C 2.445312 191.042969 2.753906 191.042969 43.6875 191.175781 C 77.777344 191.265625 84.933594 191.175781 85.15625 190.683594 C 85.289062 190.328125 85.15625 189.171875 84.890625 188.105469 C 84.222656 185.613281 83.246094 181.210938 82.445312 177.253906 C 82.089844 175.519531 81.464844 172.804688 81.109375 171.160156 C 79.957031 166 79.109375 162.261719 78.445312 159.015625 C 78.089844 157.28125 77.511719 154.613281 77.15625 153.011719 C 74.3125 140.421875 73.15625 135.042969 71.820312 128.546875 C 71.023438 124.722656 70.398438 121.875 68.445312 113.203125 C 66.976562 106.664062 66.265625 103.414062 65.15625 97.855469 C 64.753906 96.03125 64.132812 93.230469 63.734375 91.628906 C 63.378906 90.027344 62.753906 87.3125 62.445312 85.625 C 62.089844 83.890625 61.464844 81.175781 61.109375 79.53125 C 59.957031 74.371094 59.109375 70.632812 58.445312 67.386719 C 58.089844 65.652344 57.511719 62.851562 57.109375 61.160156 C 56.710938 59.425781 56.222656 57.023438 56 55.824219 C 55.777344 54.578125 55.246094 52.308594 54.890625 50.707031 C 53.777344 46.082031 53.023438 42.65625 52.535156 40.253906 C 51.554688 35.582031 50.179688 29.089844 49.777344 27.578125 C 49.554688 26.734375 48.976562 24.019531 48.445312 21.574219 C 47.910156 19.125 47.246094 16.101562 46.890625 14.902344 C 45.777344 10.808594 45.332031 8.453125 45.332031 6.714844 C 45.332031 4.714844 44.667969 2.667969 44.042969 2.667969 C 43.820312 2.667969 43.332031 3.601562 42.933594 4.757812 Z M 44.890625 16.324219 C 45.109375 17.746094 45.554688 20.417969 45.910156 22.238281 C 46.3125 24.0625 46.933594 27.175781 47.289062 29.132812 C 47.6875 31.089844 48.3125 33.984375 48.710938 35.582031 C 49.066406 37.183594 49.644531 39.765625 50 41.367188 C 50.3125 42.96875 50.933594 45.769531 51.332031 47.59375 C 51.734375 49.417969 52.355469 52.21875 52.710938 53.820312 C 53.066406 55.421875 53.644531 58.089844 54 59.824219 C 54.355469 61.515625 54.933594 64.230469 55.289062 65.832031 C 58.222656 78.863281 59.421875 84.289062 60.621094 90.292969 C 61.023438 92.117188 61.644531 94.921875 62 96.519531 C 62.398438 98.121094 62.976562 100.792969 63.332031 102.527344 C 63.644531 104.214844 64.265625 107.019531 64.667969 108.753906 C 65.066406 110.445312 65.6875 113.15625 66 114.757812 C 66.355469 116.359375 66.933594 119.027344 67.289062 120.761719 C 67.644531 122.453125 68.265625 125.253906 68.667969 126.988281 C 69.066406 128.679688 69.644531 131.484375 70 133.21875 C 70.355469 134.90625 70.976562 137.710938 71.378906 139.445312 C 72.800781 145.804688 73.378906 148.429688 74 151.453125 C 74.355469 153.144531 74.933594 155.945312 75.332031 157.679688 C 75.734375 159.371094 76.3125 162.171875 76.667969 163.910156 C 77.023438 165.597656 77.644531 168.3125 78.042969 169.914062 C 78.890625 173.339844 79.867188 178.097656 80.488281 181.476562 C 80.710938 182.8125 81.246094 184.769531 81.644531 185.835938 C 82.089844 187.039062 82.222656 187.882812 81.910156 188.195312 C 81.644531 188.460938 67.332031 188.550781 43.511719 188.507812 C 10.089844 188.371094 5.554688 188.285156 5.644531 187.707031 C 5.957031 185.570312 6.753906 182.011719 7.066406 181.253906 C 7.289062 180.765625 7.734375 179.164062 8 177.699219 C 8.3125 176.230469 8.800781 173.738281 9.15625 172.136719 C 9.464844 170.535156 10.042969 167.957031 10.398438 166.355469 C 10.800781 164.753906 11.421875 161.953125 11.777344 160.128906 C 12.132812 158.304688 12.710938 155.5 13.066406 153.902344 C 13.421875 152.300781 14.042969 149.585938 14.445312 147.894531 C 14.800781 146.160156 15.421875 143.359375 15.777344 141.667969 C 16.089844 139.933594 16.710938 137.265625 17.066406 135.664062 C 17.464844 134.0625 18.089844 131.261719 18.488281 129.4375 C 19.601562 123.964844 20.3125 120.675781 21.777344 114.089844 C 24.222656 103.148438 25.378906 97.898438 26.488281 92.519531 C 26.800781 90.917969 27.378906 88.335938 27.777344 86.734375 C 28.132812 85.132812 28.753906 82.421875 29.109375 80.730469 C 29.464844 78.996094 30.042969 76.195312 30.445312 74.503906 C 30.84375 72.769531 31.421875 69.96875 31.777344 68.277344 C 32.398438 65.296875 33.023438 62.582031 34.445312 56.132812 C 34.84375 54.488281 35.421875 51.730469 35.777344 50.039062 C 36.132812 48.304688 36.710938 45.503906 37.109375 43.8125 C 37.867188 40.566406 38.710938 36.695312 39.734375 31.667969 C 40.089844 30.023438 40.753906 26.777344 41.246094 24.464844 C 41.734375 22.152344 42.3125 19.347656 42.445312 18.238281 C 42.800781 15.921875 43.910156 13.078125 44.265625 13.476562 C 44.398438 13.609375 44.710938 14.902344 44.890625 16.324219 Z M 44.890625 16.324219 "/>
<path style=" stroke:none;fill-rule:nonzero;fill:rgb(0%,0%,0%);fill-opacity:1;" d="M 180.089844 3.648438 C 179.777344 3.957031 179.554688 5.335938 179.554688 6.761719 C 179.554688 8.183594 179.289062 10.097656 178.933594 10.988281 C 178.132812 13.167969 176.445312 20.550781 176.445312 21.929688 C 176.445312 22.507812 176.3125 23.128906 176.132812 23.308594 C 175.910156 23.484375 175.554688 24.773438 175.289062 26.152344 C 174.355469 30.691406 172.890625 37.542969 171.332031 44.390625 C 170.976562 46.035156 170.355469 48.75 170 50.484375 C 169.644531 52.175781 169.066406 54.976562 168.667969 56.710938 C 168.265625 58.402344 167.6875 61.203125 167.332031 62.9375 C 166.710938 65.917969 166.089844 68.632812 164.667969 75.039062 C 164.265625 76.726562 163.6875 79.441406 163.332031 81.175781 C 162.976562 82.867188 162.398438 85.667969 162 87.402344 C 161.601562 89.09375 161.023438 91.804688 160.667969 93.40625 C 160 96.742188 159.246094 100.125 157.332031 108.753906 C 155.246094 118.09375 154.710938 120.453125 153.957031 124.097656 C 152.535156 131.125 152.042969 133.351562 151.109375 137.21875 C 150.621094 139.398438 150 142.113281 149.777344 143.226562 C 149.554688 144.335938 149.066406 146.605469 148.667969 148.339844 C 148.265625 150.03125 147.6875 152.832031 147.332031 154.566406 C 146.710938 157.59375 146.132812 160.214844 144.710938 166.578125 C 144.3125 168.265625 143.6875 171.070312 143.332031 172.804688 C 142.976562 174.496094 142.398438 177.296875 142 179.03125 C 140.800781 184.324219 139.957031 188.328125 139.6875 189.796875 L 139.464844 191.265625 L 222.222656 191.265625 L 222.222656 190.242188 C 222.222656 189.664062 221.820312 187.4375 221.289062 185.214844 C 220.355469 181.210938 219.734375 178.277344 218.488281 172.136719 C 218.089844 170.3125 217.464844 167.378906 217.066406 165.6875 C 215.734375 159.726562 213.464844 149.496094 211.820312 141.667969 C 211.464844 139.933594 210.84375 137.132812 210.445312 135.441406 C 210.042969 133.707031 209.464844 130.90625 209.109375 129.214844 C 208.753906 127.480469 208.179688 124.8125 207.777344 123.210938 C 206.800781 118.851562 205.820312 114.445312 205.109375 110.976562 C 204.753906 109.242188 204.179688 106.441406 203.777344 104.75 C 203.378906 103.015625 202.890625 100.746094 202.667969 99.636719 C 202.445312 98.523438 201.867188 95.808594 201.332031 93.628906 C 200.800781 91.40625 200.132812 88.335938 199.777344 86.734375 C 198.753906 81.488281 197.464844 75.617188 195.109375 65.164062 C 193.777344 59.203125 193.332031 57.066406 191.820312 50.039062 C 191.464844 48.304688 190.84375 45.503906 190.445312 43.8125 C 190.042969 42.078125 189.464844 39.277344 189.109375 37.585938 C 188.753906 35.851562 188.179688 33.136719 187.777344 31.449219 C 186.398438 25.355469 185.777344 22.417969 185.289062 20.015625 C 185.023438 18.679688 184.3125 15.703125 183.734375 13.476562 C 183.15625 11.207031 182.535156 7.960938 182.398438 6.226562 C 182.132812 3.734375 181.957031 3.113281 181.378906 3.113281 C 180.933594 3.113281 180.398438 3.335938 180.089844 3.648438 Z M 182.222656 17.390625 C 182.445312 18.949219 182.933594 21.617188 183.289062 23.351562 C 183.644531 25.042969 184.132812 27.753906 184.445312 29.355469 C 184.710938 30.957031 185.109375 32.648438 185.332031 33.136719 C 185.601562 33.625 185.957031 35.226562 186.222656 36.695312 C 186.621094 39.277344 187.421875 43.101562 188.710938 48.707031 C 189.023438 50.171875 189.601562 52.886719 190 54.710938 C 190.398438 56.535156 191.023438 59.335938 191.378906 60.9375 C 192.179688 64.363281 193.023438 68.367188 193.957031 72.945312 C 194.355469 74.769531 194.976562 77.574219 195.378906 79.175781 C 195.734375 80.777344 196.355469 83.445312 196.667969 85.179688 C 197.023438 86.871094 197.644531 89.628906 198 91.273438 C 199.15625 96.433594 200 100.167969 200.667969 103.414062 C 201.023438 105.105469 201.601562 107.910156 202 109.644531 C 202.398438 111.332031 202.890625 113.558594 203.066406 114.535156 C 204.179688 120.230469 205.023438 123.964844 205.332031 124.765625 C 205.554688 125.253906 205.910156 126.855469 206.179688 128.324219 C 206.800781 131.703125 207.601562 135.574219 210.667969 149.230469 C 212.132812 155.8125 212.84375 159.105469 213.957031 164.574219 C 214.355469 166.398438 214.976562 169.203125 215.378906 170.804688 C 215.734375 172.402344 216.3125 175.074219 216.667969 176.808594 C 217.464844 180.945312 218.445312 184.949219 219.066406 186.503906 C 219.332031 187.214844 219.464844 187.972656 219.289062 188.195312 C 219.15625 188.417969 203.511719 188.59375 180.800781 188.59375 L 142.578125 188.59375 L 142.800781 187.394531 C 142.890625 186.683594 143.421875 184.546875 143.957031 182.589844 C 144.488281 180.632812 145.109375 178.007812 145.332031 176.808594 C 145.777344 174.40625 146.667969 170.089844 147.734375 165.464844 C 148.089844 163.863281 148.710938 161.0625 149.109375 159.238281 C 149.511719 157.414062 150.089844 154.703125 150.398438 153.234375 C 151.601562 147.941406 152.445312 143.847656 152.933594 141.222656 C 153.199219 139.757812 153.554688 138.15625 153.777344 137.664062 C 153.957031 137.175781 154.398438 135.574219 154.667969 134.105469 C 155.6875 129.035156 156.398438 125.65625 157.109375 122.542969 C 157.511719 120.808594 158.089844 118.003906 158.445312 116.316406 C 159.109375 113.113281 159.957031 109.242188 161.15625 104.082031 C 161.511719 102.480469 162.089844 99.769531 162.445312 98.078125 C 162.800781 96.34375 163.378906 93.542969 163.777344 91.851562 C 164.179688 90.117188 164.753906 87.449219 165.109375 85.847656 C 165.734375 82.644531 166.800781 77.839844 167.820312 73.390625 C 168.179688 71.789062 168.667969 69.300781 168.933594 67.832031 C 169.199219 66.363281 169.554688 64.851562 169.6875 64.496094 C 169.957031 63.828125 170.398438 61.917969 171.777344 55.378906 C 173.199219 48.792969 173.6875 46.527344 175.109375 40.03125 C 178.445312 24.730469 178.976562 22.195312 179.554688 18.058594 C 180.3125 12.855469 181.511719 12.542969 182.222656 17.390625 Z M 182.222656 17.390625 "/>
<path style=" stroke:none;fill-rule:nonzero;fill:rgb(0%,0%,0%);fill-opacity:1;" d="M 71.246094 6.894531 C 71.109375 7.292969 71.246094 8.628906 71.511719 9.917969 C 71.820312 11.207031 72.3125 13.523438 72.667969 15.125 C 74 21.660156 75.066406 26.554688 77.332031 36.695312 C 78.800781 43.234375 79.511719 46.480469 80.621094 52.042969 C 81.023438 53.863281 81.644531 56.667969 82.042969 58.269531 C 82.398438 59.871094 83.023438 62.539062 83.332031 64.273438 C 83.6875 65.964844 84.265625 68.722656 84.667969 70.367188 C 86.265625 77.574219 86.710938 79.53125 87.066406 81.664062 C 87.289062 82.910156 87.6875 84.777344 87.957031 85.757812 C 88.535156 87.890625 89.199219 90.960938 91.109375 100.300781 C 91.378906 101.769531 91.820312 103.371094 92 103.859375 C 92.222656 104.351562 92.578125 105.953125 92.84375 107.417969 C 93.464844 110.800781 94.265625 114.667969 97.332031 128.324219 C 98.800781 134.90625 99.511719 138.199219 100.621094 143.671875 C 101.023438 145.492188 101.644531 148.296875 102.042969 149.898438 C 102.398438 151.5 102.976562 154.167969 103.332031 155.902344 C 103.644531 157.59375 104.265625 160.394531 104.667969 162.128906 C 105.066406 163.820312 105.6875 166.578125 106.042969 168.222656 C 107.464844 175.074219 108 177.386719 108.667969 180.144531 C 109.421875 183.078125 110.84375 190.152344 111.332031 193.132812 C 111.464844 194.109375 111.867188 194.820312 112.179688 194.820312 C 112.800781 194.820312 113.464844 192.730469 114.488281 187.484375 C 114.800781 185.75 115.421875 183.078125 115.777344 181.476562 C 116.84375 177.207031 117.734375 173.203125 118.445312 169.691406 C 119.066406 166.753906 119.464844 165.019531 121.109375 157.546875 C 121.511719 155.902344 122 153.367188 122.265625 151.898438 C 122.535156 150.429688 122.933594 148.828125 123.109375 148.339844 C 123.289062 147.851562 123.6875 146.25 124 144.78125 C 124.3125 143.3125 124.800781 140.824219 125.15625 139.222656 C 125.511719 137.621094 126.089844 134.90625 126.445312 133.21875 C 126.800781 131.484375 127.6875 127.300781 128.445312 123.875 C 130.355469 115.335938 130.890625 112.890625 131.777344 108.753906 C 133.421875 100.925781 133.777344 99.277344 134.445312 96.519531 C 134.84375 94.921875 135.421875 92.207031 135.777344 90.515625 C 136.132812 88.78125 136.710938 85.980469 137.109375 84.289062 C 137.777344 81.355469 138.3125 78.863281 139.734375 72.058594 C 140.089844 70.457031 140.667969 67.742188 141.066406 66.050781 C 141.511719 64.316406 142.132812 61.515625 142.488281 59.824219 C 142.84375 58.089844 143.421875 55.421875 143.777344 53.820312 C 144.179688 52.21875 144.753906 49.417969 145.15625 47.59375 C 146.179688 42.523438 146.933594 39.054688 148.445312 32.246094 C 151.957031 16.679688 153.421875 9.429688 153.511719 7.5625 L 153.554688 6.449219 L 112.535156 6.316406 C 75.867188 6.226562 71.511719 6.316406 71.246094 6.894531 Z M 150.667969 9.429688 C 150.621094 9.742188 150.3125 11.296875 149.957031 12.898438 C 149.601562 14.5 148.976562 17.082031 148.621094 18.679688 C 148.265625 20.28125 147.644531 22.90625 147.289062 24.554688 C 146.933594 26.242188 146.398438 28.910156 146.042969 30.558594 C 145.6875 32.246094 145.066406 34.960938 144.667969 36.695312 C 144.3125 38.386719 143.6875 41.1875 143.332031 42.921875 C 142.976562 44.613281 142.398438 47.328125 142 48.929688 C 141.644531 50.527344 141.023438 53.332031 140.621094 55.15625 C 139.601562 60.09375 138.890625 63.5625 137.332031 70.5 C 135.464844 78.90625 134.890625 81.441406 134 85.625 C 133.246094 89.183594 132.667969 91.71875 131.378906 97.632812 C 130.976562 99.324219 130.355469 102.125 130 103.859375 C 129.6875 105.550781 129.066406 108.265625 128.710938 109.867188 C 128.3125 111.464844 127.6875 114.269531 127.332031 116.09375 C 126.667969 119.382812 126 122.453125 124.667969 128.414062 C 124.265625 130.105469 123.6875 132.816406 123.332031 134.550781 C 123.023438 136.242188 122.398438 138.957031 122.042969 140.554688 C 121.644531 142.15625 121.023438 144.960938 120.621094 146.785156 C 120.265625 148.609375 119.6875 151.410156 119.332031 153.011719 C 119.023438 154.613281 118.179688 158.480469 117.511719 161.683594 C 116.84375 164.84375 116.179688 167.867188 116 168.355469 C 115.6875 169.246094 115.15625 171.691406 114 177.917969 C 112.890625 183.878906 112.667969 184.636719 112.222656 184.726562 C 112 184.769531 111.644531 183.703125 111.464844 182.367188 C 111.289062 181.035156 110.84375 178.410156 110.488281 176.585938 C 110.132812 174.761719 109.511719 171.738281 109.15625 169.914062 C 108.800781 168.089844 108.179688 165.152344 107.777344 163.464844 C 106.890625 159.773438 106 155.722656 105.109375 151.453125 C 104.753906 149.71875 104.179688 146.917969 103.777344 145.226562 C 103.378906 143.492188 102.800781 140.691406 102.445312 139 C 102.089844 137.265625 101.511719 134.597656 101.109375 132.996094 C 100.132812 128.859375 99.15625 124.367188 98.445312 120.761719 C 98.089844 119.027344 97.511719 116.359375 97.15625 114.757812 C 94 100.792969 92.621094 94.429688 91.957031 90.738281 C 91.734375 89.40625 91.332031 87.671875 91.066406 86.914062 C 90.84375 86.113281 90.445312 84.511719 90.222656 83.355469 C 89.820312 81.132812 88.933594 76.90625 87.734375 71.613281 C 87.332031 70.011719 86.753906 67.386719 86.398438 65.695312 C 86.042969 64.050781 85.511719 61.382812 85.15625 59.691406 C 84.800781 58.046875 84.179688 55.289062 83.777344 53.597656 C 83.378906 51.863281 82.800781 49.0625 82.445312 47.371094 C 82.089844 45.636719 81.511719 42.921875 81.109375 41.234375 C 79.777344 35.183594 79.199219 32.605469 78.445312 29.132812 C 78.042969 27.175781 77.421875 24.375 77.066406 22.90625 C 76.753906 21.4375 76.179688 18.816406 75.820312 17.125 C 75.464844 15.390625 74.933594 13.300781 74.710938 12.453125 C 74.445312 11.609375 74.222656 10.453125 74.222656 9.917969 L 74.222656 8.894531 L 112.445312 8.894531 C 142.753906 8.894531 150.667969 9.03125 150.667969 9.429688 Z M 150.667969 9.429688 "/>
<path style=" stroke:none;fill-rule:nonzero;fill:rgb(0%,0%,0%);fill-opacity:1;" d="M 209.023438 6.9375 C 208.890625 7.292969 208.976562 8.050781 209.246094 8.585938 C 209.464844 9.117188 209.910156 10.765625 210.179688 12.230469 C 210.445312 13.699219 210.976562 16.28125 211.332031 18.015625 C 212.089844 21.21875 212.800781 24.640625 213.957031 30.023438 C 214.3125 31.714844 214.933594 34.515625 215.332031 36.25 C 215.734375 37.941406 216.3125 40.742188 216.667969 42.476562 C 217.023438 44.167969 217.644531 46.972656 218.042969 48.707031 C 218.710938 51.730469 219.246094 54.222656 220.621094 60.714844 C 220.976562 62.40625 221.601562 65.207031 222 66.941406 C 222.398438 68.632812 222.976562 71.433594 223.332031 73.167969 C 223.6875 74.859375 224.3125 77.574219 224.710938 79.175781 C 225.066406 80.777344 225.6875 83.355469 226 84.957031 C 227.246094 91.050781 228.355469 96.210938 230.667969 106.53125 C 232.132812 113.066406 232.84375 116.316406 233.957031 121.875 C 234.355469 123.699219 234.976562 126.5 235.378906 128.101562 C 235.734375 129.703125 236.355469 132.371094 236.667969 134.105469 C 237.023438 135.796875 237.644531 138.597656 238 140.335938 C 238.398438 142.023438 239.023438 144.738281 239.378906 146.339844 C 239.734375 147.941406 240.3125 150.609375 240.667969 152.34375 C 241.023438 154.035156 241.601562 156.835938 242 158.570312 C 242.398438 160.261719 242.890625 162.664062 243.109375 163.820312 C 243.644531 166.578125 244.84375 171.960938 245.378906 173.738281 C 245.644531 174.539062 246 176.140625 246.222656 177.296875 C 247.109375 182.144531 247.644531 184.457031 248.265625 186.28125 C 248.621094 187.304688 248.890625 188.816406 248.890625 189.617188 C 248.890625 191.484375 250.179688 194.820312 250.933594 194.820312 C 251.289062 194.820312 251.601562 193.933594 251.777344 192.242188 C 251.910156 190.863281 252.222656 188.90625 252.445312 187.925781 C 252.667969 186.949219 252.976562 185.347656 253.109375 184.371094 C 253.289062 183.390625 253.554688 182.414062 253.6875 182.144531 C 253.867188 181.921875 254.222656 180.589844 254.488281 179.253906 C 255.464844 174.671875 256.445312 170.136719 257.109375 167.246094 C 257.511719 165.644531 258.089844 162.839844 258.488281 161.015625 C 259.6875 155.011719 260.890625 149.585938 263.820312 136.554688 C 264.179688 134.953125 264.753906 132.238281 265.109375 130.546875 C 265.464844 128.8125 266.042969 126.144531 266.398438 124.542969 C 266.753906 122.941406 267.378906 120.140625 267.777344 118.316406 C 268.179688 116.492188 268.800781 113.691406 269.109375 112.089844 C 269.421875 110.488281 270.042969 107.773438 270.445312 106.085938 C 270.84375 104.351562 271.464844 101.546875 271.820312 99.859375 C 272.621094 96.078125 273.464844 92.027344 274.445312 87.847656 C 274.800781 86.113281 275.421875 83.3125 275.777344 81.621094 C 276.089844 79.886719 276.710938 77.21875 277.066406 75.617188 C 277.464844 74.015625 278.089844 71.210938 278.488281 69.390625 C 279.601562 63.828125 280.3125 60.582031 281.777344 54.042969 C 283.554688 46.171875 284.179688 43.367188 285.109375 38.921875 C 285.511719 36.960938 286.132812 34.160156 286.445312 32.691406 C 288.222656 24.6875 288.578125 23.085938 289.109375 20.460938 C 289.867188 16.945312 290.890625 12.453125 291.554688 9.828125 C 291.820312 8.761719 291.910156 7.515625 291.777344 7.074219 C 291.511719 6.273438 290.265625 6.226562 250.398438 6.226562 C 213.511719 6.226562 209.289062 6.316406 209.023438 6.9375 Z M 288.890625 9.5625 C 288.890625 9.917969 288.621094 11.074219 288.265625 12.097656 C 287.910156 13.167969 287.421875 15.125 287.15625 16.457031 C 286.667969 18.816406 286.089844 21.574219 284.667969 27.890625 C 284.265625 29.578125 283.6875 32.292969 283.332031 34.027344 C 282.976562 35.71875 282.398438 38.519531 282 40.253906 C 281.601562 41.945312 281.023438 44.746094 280.667969 46.480469 C 280.3125 48.171875 279.734375 50.886719 279.378906 52.484375 C 279.023438 54.085938 278.398438 56.667969 278.042969 58.269531 C 276.753906 64.050781 275.957031 67.875 275.554688 70.011719 C 275.332031 71.167969 274.933594 72.769531 274.710938 73.570312 C 274.445312 74.324219 274.042969 76.0625 273.820312 77.394531 C 273.289062 80.464844 272.445312 84.332031 270.667969 92.296875 C 268.753906 100.835938 268.089844 103.773438 267.332031 107.417969 C 266.445312 111.824219 265.644531 115.515625 264.3125 121.429688 C 263.6875 124.234375 263.066406 127.125 262.890625 127.878906 C 262.753906 128.589844 262.3125 130.503906 261.957031 132.105469 C 261.601562 133.707031 261.023438 136.375 260.667969 138.109375 C 260.042969 141.136719 259.464844 143.757812 258.042969 150.121094 C 257.644531 151.808594 257.023438 154.613281 256.667969 156.347656 C 256.355469 158.039062 255.734375 160.75 255.378906 162.351562 C 254.976562 163.953125 254.355469 166.84375 253.957031 168.800781 C 253.601562 170.757812 252.976562 173.738281 252.621094 175.472656 C 252.3125 177.164062 251.820312 179.875 251.554688 181.433594 C 251.289062 183.035156 251.023438 184.414062 250.890625 184.503906 C 250.578125 184.8125 249.464844 181.699219 249.109375 179.65625 C 248.976562 178.585938 248.398438 175.785156 247.910156 173.472656 C 246.933594 168.800781 246.179688 165.152344 245.15625 160.128906 C 244.753906 158.304688 244.132812 155.5 243.734375 153.902344 C 243.378906 152.300781 242.753906 149.585938 242.445312 147.894531 C 242.089844 146.160156 241.511719 143.492188 241.15625 141.890625 C 239.957031 136.464844 239.023438 132.328125 238.398438 129.214844 C 238.042969 127.480469 237.464844 124.8125 237.066406 123.210938 C 236.710938 121.609375 236.089844 118.894531 235.777344 117.203125 C 235.421875 115.46875 234.84375 112.800781 234.445312 111.199219 C 233.464844 106.839844 232.488281 102.4375 231.777344 98.96875 C 231.421875 97.234375 230.84375 94.5625 230.488281 92.964844 C 227.6875 80.597656 226.800781 76.417969 225.15625 68.5 C 224.800781 66.898438 224.222656 64.09375 223.777344 62.273438 C 222.042969 54.578125 219.820312 44.390625 218.488281 37.808594 C 218.089844 35.984375 217.464844 33.183594 217.066406 31.582031 C 216.710938 29.980469 216.089844 27.265625 215.777344 25.574219 C 214.710938 20.417969 214 17.347656 212.132812 9.875 L 211.910156 8.894531 L 250.398438 8.894531 C 283.910156 8.894531 288.890625 8.984375 288.890625 9.5625 Z M 288.890625 9.5625 "/>
<path style=" stroke:none;fill-rule:nonzero;fill:rgb(0%,0%,0%);fill-opacity:1;" d="M 299.644531 143.890625 L 299.777344 191.265625 L 346.445312 191.265625 C 372.132812 191.265625 393.378906 191.265625 393.6875 191.265625 C 394.132812 191.265625 394.222656 181.65625 394.132812 144.027344 L 394 96.742188 L 346.753906 96.609375 L 299.554688 96.519531 Z M 390.535156 100.214844 C 390.621094 100.300781 390.710938 120.183594 390.710938 144.382812 L 390.710938 188.371094 L 302.578125 188.371094 L 302.621094 144.335938 C 302.621094 120.097656 302.667969 100.214844 302.667969 100.078125 C 302.667969 99.8125 390.265625 99.945312 390.535156 100.214844 Z M 390.535156 100.214844 "/>
</g>
</svg>
