<?xml version="1.0" encoding="UTF-8"?>
<svg xmlns="http://www.w3.org/2000/svg" xmlns:xlink="http://www.w3.org/1999/xlink" width="501pt" height="167pt" viewBox="0 0 501 167" version="1.1">
<g id="surface1">
<path style=" stroke:none;fill-rule:nonzero;fill:rgb(0%,0%,0%);fill-opacity:1;" d="M 252.78125 8.351562 C 250.777344 8.796875 250.054688 11.355469 251.28125 13.636719 C 252.113281 15.140625 252.171875 15.753906 251.613281 17.867188 C 251.222656 19.203125 250.722656 20.539062 250.5 20.875 C 250.277344 21.152344 249.886719 22.488281 249.664062 23.824219 C 249.441406 25.160156 248.941406 26.941406 248.496094 27.722656 C 248.050781 28.558594 247.714844 29.671875 247.714844 30.28125 C 247.714844 31.285156 246.269531 36.238281 245.488281 37.851562 C 245.265625 38.355469 244.878906 39.800781 244.65625 41.136719 C 244.433594 42.417969 243.929688 44.199219 243.484375 44.980469 C 243.039062 45.8125 242.707031 47.261719 242.707031 48.207031 C 242.707031 49.097656 242.484375 50.101562 242.207031 50.433594 C 241.648438 50.933594 240.871094 53.71875 239.867188 58.5625 C 239.589844 60.007812 238.976562 61.902344 238.53125 62.738281 C 238.085938 63.570312 237.695312 64.851562 237.695312 65.464844 C 237.695312 66.132812 237.308594 67.414062 236.863281 68.246094 C 236.417969 69.136719 236.027344 70.640625 236.027344 71.644531 C 236.027344 72.589844 235.804688 73.535156 235.527344 73.703125 C 235.246094 73.925781 234.859375 75.09375 234.636719 76.429688 C 234.414062 77.710938 234.023438 78.992188 233.800781 79.324219 C 233.578125 79.601562 233.242188 80.9375 233.019531 82.164062 C 232.855469 83.445312 232.296875 85.171875 231.851562 86.0625 C 231.40625 86.953125 231.015625 88.453125 231.015625 89.34375 C 231.015625 90.292969 230.792969 91.292969 230.515625 91.570312 C 230.015625 92.074219 229.511719 93.742188 228.121094 99.644531 C 227.789062 101.035156 227.34375 102.425781 227.0625 102.761719 C 226.785156 103.09375 226.394531 104.597656 226.230469 106.101562 C 226.007812 107.605469 225.617188 109.164062 225.28125 109.550781 C 225.003906 109.941406 224.558594 111.167969 224.28125 112.335938 C 223.613281 115.621094 222.609375 119.292969 222.109375 120.519531 C 221.832031 121.128906 221.496094 122.578125 221.273438 123.691406 C 221.109375 124.804688 220.605469 126.476562 220.160156 127.308594 C 219.714844 128.144531 219.328125 129.648438 219.328125 130.59375 C 219.328125 131.484375 219.105469 132.488281 218.824219 132.820312 C 218.324219 133.265625 217.769531 135.046875 216.433594 140.835938 C 216.152344 142.226562 215.652344 143.5625 215.375 143.84375 C 215.097656 144.175781 214.875 145.179688 214.875 146.070312 C 214.875 149.519531 213.816406 151.859375 212.089844 152.472656 C 208.863281 153.585938 208.695312 158.09375 211.8125 159.597656 C 213.425781 160.375 213.703125 160.375 215.097656 159.484375 C 215.875 158.929688 216.542969 158.316406 216.542969 158.09375 C 216.542969 157.871094 233.410156 157.648438 254.0625 157.59375 C 287.683594 157.535156 291.636719 157.648438 292.304688 158.425781 C 294.921875 161.601562 299.542969 159.597656 298.984375 155.589844 C 298.761719 154.140625 297.871094 153.082031 296.371094 152.527344 C 295.703125 152.25 295.035156 151.414062 294.867188 150.46875 C 294.699219 149.632812 294.144531 147.40625 293.640625 145.566406 C 293.140625 143.730469 292.472656 141.113281 292.195312 139.777344 C 291.914062 138.386719 291.46875 137.164062 291.191406 136.996094 C 290.96875 136.773438 290.523438 135.382812 290.300781 133.878906 C 290.078125 132.320312 289.746094 130.816406 289.464844 130.539062 C 289.242188 130.203125 288.796875 128.867188 288.464844 127.476562 C 288.128906 126.085938 287.460938 123.578125 286.960938 121.910156 C 286.460938 120.238281 285.792969 117.566406 285.515625 116.066406 C 285.179688 114.507812 284.734375 113.003906 284.457031 112.726562 C 284.234375 112.390625 283.84375 111.277344 283.621094 110.21875 C 283.175781 107.9375 281.785156 103.207031 281.117188 101.589844 C 280.839844 100.980469 280.503906 99.476562 280.335938 98.308594 C 280.171875 97.082031 279.78125 95.96875 279.503906 95.800781 C 279.222656 95.578125 278.777344 94.132812 278.554688 92.519531 C 278.332031 90.902344 278 89.457031 277.722656 89.34375 C 277.5 89.179688 277.109375 87.898438 276.886719 86.5625 C 276.71875 85.171875 276.328125 83.890625 276.050781 83.722656 C 275.773438 83.554688 275.550781 82.609375 275.550781 81.664062 C 275.550781 80.660156 275.214844 79.378906 274.769531 78.769531 C 274.382812 78.15625 273.878906 76.484375 273.65625 75.039062 C 273.433594 73.589844 273.046875 72.253906 272.765625 72.089844 C 272.542969 71.921875 272.15625 70.53125 271.933594 69.027344 C 271.710938 67.523438 271.375 66.132812 271.097656 65.964844 C 270.875 65.796875 270.484375 64.574219 270.316406 63.183594 C 270.09375 61.84375 269.703125 60.566406 269.371094 60.398438 C 269.09375 60.175781 268.871094 59.230469 268.871094 58.28125 C 268.8125 57.28125 268.367188 55.5 267.757812 54.273438 C 267.144531 53.050781 266.699219 51.378906 266.644531 50.488281 C 266.644531 49.65625 266.421875 48.542969 266.140625 47.984375 C 265.363281 46.59375 263.859375 41.414062 263.859375 40.246094 C 263.859375 39.691406 263.46875 38.578125 263.082031 37.742188 C 262.636719 36.851562 262.078125 35.015625 261.855469 33.621094 C 261.632812 32.175781 261.132812 30.339844 260.742188 29.558594 C 260.296875 28.78125 259.964844 27.445312 259.964844 26.609375 C 259.964844 25.773438 259.742188 24.996094 259.460938 24.828125 C 259.238281 24.660156 258.851562 23.546875 258.628906 22.378906 C 258.460938 21.152344 257.902344 19.871094 257.457031 19.484375 C 256.34375 18.59375 256.34375 14.808594 257.457031 13.917969 C 258.570312 13.027344 258.515625 11.132812 257.292969 9.6875 C 256.179688 8.292969 254.675781 7.847656 252.78125 8.351562 Z M 255.121094 18.425781 C 255.398438 19.484375 255.898438 21.710938 256.289062 23.378906 C 256.679688 25.050781 257.125 26.832031 257.292969 27.277344 C 258.628906 31.117188 259.40625 34.011719 259.40625 35.179688 C 259.40625 35.90625 259.742188 36.960938 260.1875 37.574219 C 260.574219 38.1875 261.078125 39.914062 261.300781 41.414062 C 261.464844 42.917969 261.855469 44.421875 262.132812 44.757812 C 262.355469 45.089844 262.800781 46.316406 262.96875 47.539062 C 263.191406 48.707031 263.582031 50.101562 263.859375 50.601562 C 264.136719 51.101562 264.527344 52.4375 264.695312 53.550781 C 264.863281 54.71875 265.25 55.667969 265.53125 55.667969 C 265.863281 55.667969 266.085938 56.613281 266.085938 57.726562 C 266.085938 58.894531 266.476562 60.507812 266.867188 61.34375 C 267.3125 62.234375 267.867188 64.015625 268.089844 65.410156 C 268.257812 66.800781 268.648438 68.082031 268.925781 68.246094 C 269.203125 68.414062 269.425781 69.195312 269.425781 70.027344 C 269.480469 70.863281 269.816406 72.144531 270.261719 72.921875 C 270.707031 73.703125 271.039062 75.09375 271.097656 75.984375 C 271.097656 76.929688 271.429688 78.15625 271.875 78.769531 C 272.265625 79.378906 272.765625 81.050781 272.933594 82.496094 C 273.15625 83.945312 273.546875 85.617188 273.769531 86.117188 C 274.714844 88.007812 276.105469 92.851562 276.105469 94.242188 C 276.105469 94.96875 276.496094 95.914062 276.941406 96.304688 C 277.386719 96.691406 277.777344 97.863281 277.777344 98.917969 C 277.777344 99.976562 278.109375 101.648438 278.554688 102.59375 C 279.335938 104.375 280.226562 107.546875 281.0625 111.332031 C 281.285156 112.390625 281.785156 113.839844 282.117188 114.507812 C 282.507812 115.175781 282.785156 116.398438 282.785156 117.289062 C 282.785156 118.179688 283.121094 119.347656 283.566406 119.960938 C 283.957031 120.574219 284.457031 122.242188 284.625 123.691406 C 284.847656 125.136719 285.234375 126.808594 285.457031 127.308594 C 286.40625 129.203125 287.796875 134.046875 287.796875 135.382812 C 287.796875 136.105469 288.1875 137.21875 288.632812 137.832031 C 289.078125 138.386719 289.464844 139.613281 289.464844 140.558594 C 289.464844 141.449219 289.855469 142.953125 290.300781 143.84375 C 290.746094 144.675781 291.136719 145.789062 291.136719 146.292969 C 291.136719 146.738281 291.691406 148.183594 292.304688 149.519531 C 293.53125 151.914062 293.53125 151.914062 292.417969 153.640625 L 291.359375 155.367188 L 216.820312 155.367188 L 215.820312 153.527344 C 214.984375 151.859375 214.929688 151.636719 215.707031 151.078125 C 216.210938 150.691406 216.765625 149.464844 216.933594 148.296875 C 217.101562 147.070312 217.433594 145.847656 217.710938 145.566406 C 217.933594 145.234375 218.378906 143.953125 218.714844 142.785156 C 220.160156 136.941406 220.605469 135.4375 221.332031 133.765625 C 221.777344 132.820312 222.109375 131.152344 222.109375 130.09375 C 222.109375 129.035156 222.5 127.867188 222.945312 127.476562 C 223.390625 127.085938 223.78125 126.140625 223.78125 125.417969 C 223.78125 124.082031 224.613281 121.1875 226.394531 116.175781 C 226.785156 115.0625 227.121094 113.394531 227.121094 112.558594 C 227.121094 111.722656 227.507812 110.554688 227.953125 109.996094 C 228.398438 109.386719 228.789062 108.105469 228.789062 107.101562 C 228.789062 106.15625 229.179688 104.597656 229.625 103.761719 C 230.070312 102.871094 230.460938 101.589844 230.460938 100.921875 C 230.460938 100.253906 230.683594 99.585938 230.960938 99.421875 C 231.238281 99.253906 231.628906 97.972656 231.796875 96.582031 C 232.019531 95.191406 232.574219 93.410156 233.019531 92.519531 C 233.410156 91.683594 233.800781 90.125 233.800781 89.066406 C 233.800781 87.953125 234.078125 86.785156 234.414062 86.449219 C 234.746094 86.117188 235.246094 84.835938 235.527344 83.667969 C 236.304688 80.046875 237.25 76.597656 238.03125 74.761719 C 238.476562 73.8125 238.808594 72.3125 238.808594 71.421875 C 238.808594 70.585938 239.199219 69.359375 239.644531 68.804688 C 240.089844 68.191406 240.480469 66.910156 240.480469 65.910156 C 240.480469 64.90625 240.703125 63.960938 240.980469 63.738281 C 241.316406 63.570312 241.703125 62.289062 241.925781 60.953125 C 242.09375 59.5625 242.484375 58.28125 242.761719 58.171875 C 242.984375 58.003906 243.375 56.667969 243.597656 55.222656 C 243.820312 53.773438 244.320312 52.105469 244.710938 51.492188 C 245.15625 50.878906 245.488281 49.597656 245.488281 48.652344 C 245.488281 47.707031 245.878906 46.148438 246.324219 45.3125 C 246.769531 44.421875 247.160156 43.03125 247.160156 42.195312 C 247.160156 41.359375 247.382812 40.582031 247.660156 40.359375 C 247.996094 40.191406 248.382812 38.910156 248.605469 37.464844 C 248.828125 36.070312 249.332031 34.234375 249.71875 33.457031 C 250.164062 32.675781 250.5 31.230469 250.5 30.28125 C 250.5 29.390625 250.722656 28.390625 251.058594 28.054688 C 251.726562 27.386719 252.671875 23.214844 253.117188 19.039062 C 253.449219 15.753906 254.398438 15.417969 255.121094 18.425781 Z M 255.121094 18.425781 "/>
<path style=" stroke:none;fill-rule:nonzero;fill:rgb(0%,0%,0%);fill-opacity:1;" d="M 48.875 10.074219 C 47.652344 11.355469 47.59375 14.082031 48.707031 15.03125 C 49.878906 15.976562 49.765625 18.535156 48.429688 20.988281 C 47.816406 22.15625 47.316406 23.660156 47.316406 24.328125 C 47.316406 24.996094 47.09375 25.664062 46.816406 25.828125 C 46.539062 25.996094 46.148438 27.277344 45.980469 28.667969 C 45.757812 30.003906 45.367188 31.285156 45.089844 31.453125 C 44.867188 31.617188 44.476562 33.011719 44.253906 34.570312 C 44.03125 36.128906 43.53125 38.074219 43.085938 38.855469 C 42.640625 39.691406 42.308594 41.027344 42.308594 41.863281 C 42.308594 42.695312 42.085938 43.476562 41.804688 43.644531 C 41.527344 43.867188 41.136719 45.035156 40.914062 46.371094 C 40.691406 47.652344 40.300781 48.929688 40.078125 49.265625 C 39.855469 49.542969 39.523438 50.878906 39.300781 52.105469 C 39.132812 53.382812 38.578125 55.109375 38.132812 56 C 37.6875 56.890625 37.296875 58.28125 37.296875 59.171875 C 37.296875 60.007812 37.074219 61.121094 36.796875 61.679688 C 36.128906 62.902344 34.679688 67.636719 34.234375 70.308594 C 34.011719 71.421875 33.621094 72.535156 33.34375 72.644531 C 33.121094 72.8125 32.730469 74.148438 32.507812 75.59375 C 32.34375 77.042969 31.953125 78.488281 31.675781 78.824219 C 31.394531 79.15625 30.949219 80.550781 30.671875 81.886719 C 29.78125 85.949219 28.890625 89.289062 28.445312 90.179688 C 28.167969 90.679688 27.777344 92.128906 27.554688 93.464844 C 27.332031 94.746094 26.832031 96.527344 26.386719 97.304688 C 25.941406 98.140625 25.605469 99.253906 25.605469 99.867188 C 25.605469 100.8125 24.4375 104.933594 23.324219 107.714844 C 23.101562 108.328125 22.769531 109.773438 22.546875 110.886719 C 22.378906 112 21.878906 113.671875 21.433594 114.507812 C 20.988281 115.339844 20.597656 116.675781 20.597656 117.402344 C 20.597656 118.679688 19.203125 123.46875 18.3125 125.304688 C 18.089844 125.808594 17.757812 127.367188 17.535156 128.8125 C 17.3125 130.203125 16.921875 131.539062 16.644531 131.652344 C 16.421875 131.820312 16.03125 133.097656 15.808594 134.546875 C 15.585938 135.9375 15.085938 137.773438 14.695312 138.554688 C 14.25 139.332031 13.917969 140.667969 13.917969 141.449219 C 13.917969 142.226562 13.75 143.0625 13.527344 143.285156 C 13.136719 143.675781 12.300781 146.90625 11.300781 151.582031 C 11.078125 152.695312 10.519531 153.363281 9.351562 153.75 C 7.570312 154.363281 6.511719 156.367188 7.070312 157.925781 C 8.183594 161.097656 11.410156 161.878906 13.636719 159.429688 L 14.972656 157.980469 L 51.882812 157.925781 L 88.789062 157.816406 L 90.070312 159.316406 C 92.519531 162.210938 96.304688 160.820312 96.304688 157.089844 C 96.304688 155.8125 95.914062 155.085938 94.910156 154.417969 C 92.851562 153.082031 91.292969 150.1875 91.292969 147.683594 C 91.292969 146.515625 91.070312 145.289062 90.738281 144.957031 C 90.457031 144.675781 89.957031 143.285156 89.679688 141.949219 C 88.621094 136.996094 87.898438 134.433594 87.339844 133.933594 C 87.0625 133.601562 86.839844 132.652344 86.839844 131.761719 C 86.839844 130.871094 86.507812 129.371094 86.0625 128.421875 C 85.617188 127.421875 85.003906 125.527344 84.726562 124.136719 C 84.390625 122.746094 83.722656 120.238281 83.222656 118.570312 C 82.71875 116.898438 82.109375 114.394531 81.828125 113.058594 C 81.496094 111.722656 81.050781 110.332031 80.714844 109.996094 C 80.4375 109.609375 80.046875 108.214844 79.824219 106.878906 C 79.601562 105.488281 79.269531 104.097656 79.046875 103.816406 C 78.824219 103.484375 78.378906 102.148438 78.042969 100.757812 C 76.652344 94.855469 76.152344 93.1875 75.652344 92.683594 C 75.371094 92.40625 75.148438 91.40625 75.148438 90.457031 C 75.148438 89.566406 74.761719 88.066406 74.316406 87.230469 C 73.871094 86.394531 73.367188 84.726562 73.144531 83.613281 C 72.757812 81.382812 71.421875 76.652344 70.695312 74.871094 C 70.417969 74.257812 70.085938 72.757812 69.917969 71.585938 C 69.75 70.363281 69.417969 69.25 69.136719 69.082031 C 68.859375 68.914062 68.414062 67.414062 68.191406 65.855469 C 67.96875 64.238281 67.636719 62.792969 67.355469 62.625 C 67.132812 62.457031 66.746094 61.234375 66.578125 59.839844 C 66.355469 58.503906 65.964844 57.226562 65.632812 57.058594 C 65.351562 56.835938 65.128906 56.054688 65.128906 55.222656 C 65.128906 54.386719 64.742188 52.996094 64.296875 52.105469 C 63.851562 51.269531 63.460938 49.878906 63.460938 49.042969 C 63.460938 48.261719 63.125 46.925781 62.679688 46.09375 C 62.234375 45.3125 61.734375 43.53125 61.511719 42.195312 C 61.289062 40.859375 60.898438 39.523438 60.675781 39.246094 C 60.453125 38.910156 60.0625 37.628906 59.839844 36.351562 C 59.617188 35.015625 59.230469 33.84375 58.949219 33.621094 C 58.671875 33.457031 58.449219 32.507812 58.449219 31.5625 C 58.449219 30.5625 58.058594 29.226562 57.613281 28.558594 C 57.167969 27.945312 56.667969 26.332031 56.445312 24.996094 C 56.222656 23.660156 55.890625 22.265625 55.609375 21.988281 C 55.386719 21.65625 54.886719 20.261719 54.554688 18.816406 C 53.996094 16.589844 53.996094 16.03125 54.777344 14.917969 C 55.945312 13.25 55.890625 12.136719 54.496094 10.355469 C 53.105469 8.574219 50.324219 8.460938 48.875 10.074219 Z M 53.050781 20.429688 C 53.550781 24.550781 54.496094 28.558594 55.109375 29.167969 C 55.445312 29.503906 55.667969 30.617188 55.667969 31.730469 C 55.667969 32.789062 56 34.179688 56.445312 34.792969 C 56.835938 35.402344 57.335938 37.074219 57.558594 38.519531 C 57.78125 39.96875 58.171875 41.304688 58.503906 41.472656 C 58.785156 41.695312 59.007812 42.417969 59.007812 43.199219 C 59.007812 43.976562 59.339844 45.257812 59.785156 46.09375 C 60.175781 46.925781 60.675781 48.707031 60.84375 50.042969 C 61.011719 51.378906 61.398438 52.660156 61.679688 52.828125 C 61.957031 52.996094 62.347656 54.332031 62.511719 55.777344 C 62.738281 57.226562 63.125 58.894531 63.347656 59.394531 C 64.296875 61.289062 65.6875 66.132812 65.6875 67.46875 C 65.6875 68.191406 66.078125 69.304688 66.523438 69.917969 C 66.96875 70.472656 67.355469 71.699219 67.355469 72.644531 C 67.355469 73.535156 67.746094 74.984375 68.136719 75.816406 C 68.582031 76.707031 69.136719 78.488281 69.359375 79.882812 C 69.527344 81.273438 69.917969 82.554688 70.195312 82.71875 C 70.472656 82.886719 70.695312 83.667969 70.695312 84.503906 C 70.695312 85.335938 71.03125 86.507812 71.476562 87.117188 C 71.867188 87.730469 72.367188 89.457031 72.476562 90.960938 C 72.644531 92.460938 73.035156 93.796875 73.3125 94.019531 C 73.648438 94.1875 74.035156 95.578125 74.257812 97.136719 C 74.425781 98.640625 74.871094 100.144531 75.148438 100.421875 C 75.484375 100.757812 75.707031 101.480469 75.707031 102.148438 C 75.707031 102.761719 76.097656 103.984375 76.542969 104.875 C 76.988281 105.710938 77.375 107.269531 77.375 108.214844 C 77.375 109.164062 77.710938 110.441406 78.15625 111.054688 C 78.546875 111.667969 79.046875 113.226562 79.269531 114.5625 C 79.4375 115.898438 79.824219 117.402344 80.105469 117.902344 C 80.605469 118.902344 81.550781 122.355469 82.332031 125.972656 C 82.609375 127.144531 83.109375 128.421875 83.445312 128.757812 C 83.777344 129.089844 84.058594 130.203125 84.058594 131.207031 C 84.058594 132.265625 84.390625 133.765625 84.835938 134.601562 C 85.28125 135.4375 85.78125 137.328125 86.003906 138.777344 C 86.226562 140.222656 86.617188 141.558594 86.894531 141.726562 C 87.175781 141.894531 87.398438 142.5625 87.398438 143.230469 C 87.398438 143.953125 87.730469 144.957031 88.175781 145.566406 C 88.566406 146.179688 89.066406 147.738281 89.234375 149.074219 C 89.402344 150.46875 89.957031 151.804688 90.570312 152.25 C 91.515625 152.972656 91.515625 153.082031 90.402344 154.195312 L 89.179688 155.421875 L 51.492188 155.421875 C 12.246094 155.421875 12.859375 155.421875 12.804688 153.195312 C 12.804688 152.859375 13.304688 151.582031 13.917969 150.46875 C 14.527344 149.296875 15.03125 147.796875 15.03125 147.128906 C 15.03125 146.460938 15.253906 145.789062 15.53125 145.566406 C 15.863281 145.402344 16.253906 144.121094 16.476562 142.671875 C 16.699219 141.28125 17.199219 139.445312 17.589844 138.664062 C 18.035156 137.886719 18.371094 136.4375 18.371094 135.492188 C 18.371094 134.601562 18.59375 133.601562 18.871094 133.265625 C 19.371094 132.765625 19.929688 130.984375 21.375 124.972656 C 21.710938 123.414062 22.324219 121.632812 22.710938 120.964844 C 23.046875 120.296875 23.378906 118.902344 23.378906 117.902344 C 23.378906 116.84375 23.601562 115.785156 23.882812 115.453125 C 24.214844 115.175781 24.660156 113.949219 24.996094 112.726562 C 26.441406 106.992188 26.886719 105.378906 27.609375 103.707031 C 28.054688 102.761719 28.390625 101.144531 28.390625 100.089844 C 28.390625 99.03125 28.667969 97.917969 29.003906 97.582031 C 29.335938 97.25 29.835938 95.96875 30.117188 94.800781 C 30.894531 91.183594 31.839844 87.730469 32.34375 86.730469 C 32.621094 86.226562 33.011719 84.726562 33.175781 83.386719 C 33.398438 82.050781 33.902344 80.492188 34.289062 79.882812 C 34.734375 79.269531 35.070312 77.878906 35.070312 76.820312 C 35.070312 75.707031 35.292969 74.59375 35.570312 74.316406 C 35.90625 73.980469 36.351562 72.757812 36.683594 71.53125 C 38.019531 66.1875 38.632812 64.183594 39.300781 62.511719 C 39.746094 61.566406 40.078125 60.0625 40.078125 59.171875 C 40.078125 58.28125 40.359375 57.28125 40.746094 56.890625 C 41.082031 56.558594 41.582031 55.222656 41.804688 53.886719 C 42.363281 50.65625 43.421875 46.703125 44.03125 45.535156 C 44.3125 45.035156 44.699219 43.53125 44.867188 42.195312 C 45.089844 40.859375 45.589844 39.300781 45.980469 38.6875 C 46.425781 38.074219 46.761719 37.019531 46.761719 36.292969 C 46.761719 35.125 47.539062 32.230469 48.875 28.390625 C 49.152344 27.609375 50.324219 22.65625 51.046875 19.316406 C 51.546875 16.867188 52.714844 17.535156 53.050781 20.429688 Z M 53.050781 20.429688 "/>
<path style=" stroke:none;fill-rule:nonzero;fill:rgb(0%,0%,0%);fill-opacity:1;" d="M 352.425781 10.074219 C 351.421875 11.023438 351.199219 11.632812 351.480469 12.96875 C 351.644531 13.917969 352.203125 15.085938 352.648438 15.585938 C 353.707031 16.753906 353.707031 17.480469 352.703125 18.3125 C 352.3125 18.648438 351.8125 19.929688 351.589844 21.097656 C 351.421875 22.265625 350.867188 23.9375 350.421875 24.828125 C 349.976562 25.71875 349.585938 27.109375 349.585938 27.945312 C 349.585938 28.78125 349.363281 29.558594 349.085938 29.726562 C 348.808594 29.894531 348.417969 31.171875 348.25 32.566406 C 348.027344 33.902344 347.636719 35.179688 347.304688 35.347656 C 347.027344 35.570312 346.804688 36.515625 346.804688 37.464844 C 346.746094 38.464844 346.300781 40.246094 345.691406 41.472656 C 345.078125 42.695312 344.632812 44.367188 344.578125 45.257812 C 344.578125 46.09375 344.355469 47.207031 344.074219 47.761719 C 343.464844 48.875 342.070312 53.496094 341.515625 56.222656 C 341.292969 57.28125 340.902344 58.449219 340.625 58.785156 C 340.347656 59.117188 339.957031 60.621094 339.789062 62.125 C 339.566406 63.628906 339.234375 65.128906 338.953125 65.410156 C 338.507812 65.964844 338.007812 67.914062 336.671875 73.480469 C 336.339844 74.871094 335.894531 76.261719 335.613281 76.542969 C 335.390625 76.875 335.003906 78.265625 334.78125 79.601562 C 334.558594 80.9375 334.054688 82.664062 333.609375 83.445312 C 333.21875 84.222656 332.886719 85.558594 332.886719 86.449219 C 332.886719 87.285156 332.664062 88.398438 332.386719 88.957031 C 331.660156 90.234375 330.269531 94.96875 329.769531 97.695312 C 329.546875 98.917969 329.046875 100.421875 328.65625 101.035156 C 328.210938 101.648438 327.875 102.703125 327.875 103.429688 C 327.875 104.710938 326.484375 109.550781 325.59375 111.390625 C 325.371094 111.890625 325.039062 113.449219 324.816406 114.894531 C 324.59375 116.289062 324.203125 117.625 323.925781 117.734375 C 323.703125 117.902344 323.3125 119.238281 323.089844 120.683594 C 322.921875 122.132812 322.53125 123.578125 322.253906 123.914062 C 321.976562 124.246094 321.53125 125.640625 321.253906 126.976562 C 320.25 131.539062 319.472656 134.378906 319.027344 134.992188 C 318.746094 135.269531 318.359375 136.773438 318.136719 138.332031 C 317.914062 139.835938 317.410156 141.558594 316.964844 142.171875 C 316.519531 142.785156 316.1875 144.121094 316.1875 145.121094 C 316.1875 146.125 315.964844 147.40625 315.6875 147.960938 C 315.351562 148.464844 314.960938 149.800781 314.796875 150.914062 C 314.574219 152.527344 314.128906 153.140625 312.789062 153.640625 C 310.007812 154.808594 309.285156 157.371094 311.121094 159.652344 C 312.625 161.378906 315.519531 161.320312 317.023438 159.484375 L 318.136719 158.039062 L 392.171875 158.039062 L 393.285156 159.429688 C 395.457031 162.15625 400.1875 160.652344 400.242188 157.203125 C 400.242188 156.035156 398.460938 154.03125 396.792969 153.472656 C 396.234375 153.304688 395.679688 152.414062 395.511719 151.582031 C 395.34375 150.746094 394.953125 149.242188 394.675781 148.296875 C 394.34375 147.351562 394.121094 145.847656 394.121094 144.957031 C 394.121094 144.066406 393.785156 142.785156 393.339844 142.171875 C 392.894531 141.558594 392.28125 139.835938 392.003906 138.277344 C 391.671875 136.773438 391.003906 134.15625 390.5 132.488281 C 390 130.816406 389.332031 128.3125 389.054688 126.976562 C 388.777344 125.640625 388.332031 124.246094 388.050781 123.914062 C 387.773438 123.578125 387.382812 122.132812 387.21875 120.683594 C 386.996094 119.238281 386.605469 117.902344 386.328125 117.734375 C 386.105469 117.566406 385.714844 116.175781 385.492188 114.671875 C 385.269531 113.171875 384.878906 111.777344 384.601562 111.554688 C 384.324219 111.390625 384.101562 110.722656 384.101562 110.054688 C 384.101562 109.386719 383.710938 108.105469 383.265625 107.214844 C 382.820312 106.378906 382.429688 104.988281 382.429688 104.152344 C 382.429688 103.371094 382.097656 102.035156 381.652344 101.203125 C 381.207031 100.421875 380.703125 98.640625 380.480469 97.304688 C 380.257812 95.96875 379.871094 94.632812 379.648438 94.355469 C 379.425781 94.019531 379.035156 92.742188 378.8125 91.460938 C 378.589844 90.125 378.199219 88.957031 377.921875 88.734375 C 377.644531 88.566406 377.421875 87.621094 377.421875 86.671875 C 377.421875 85.671875 377.03125 84.167969 376.585938 83.277344 C 376.140625 82.386719 375.582031 80.660156 375.414062 79.378906 C 375.191406 78.15625 374.804688 76.820312 374.582031 76.484375 C 374.300781 76.152344 373.855469 74.761719 373.578125 73.425781 C 372.632812 69.082031 371.851562 66.242188 371.296875 65.242188 C 371.019531 64.742188 370.628906 63.125 370.460938 61.621094 C 370.292969 60.175781 369.90625 59.007812 369.625 59.007812 C 369.402344 59.007812 369.015625 57.78125 368.792969 56.222656 C 368.570312 54.71875 368.234375 53.328125 367.957031 53.160156 C 367.734375 52.996094 367.34375 51.769531 367.175781 50.378906 C 366.953125 49.042969 366.566406 47.761719 366.230469 47.59375 C 365.953125 47.371094 365.730469 46.425781 365.730469 45.480469 C 365.730469 44.476562 365.339844 42.976562 364.894531 42.085938 C 364.449219 41.191406 363.894531 39.46875 363.726562 38.1875 C 363.503906 36.960938 363.167969 35.625 362.890625 35.347656 C 362.667969 35.015625 362.277344 33.679688 362.054688 32.398438 C 361.832031 31.117188 361.445312 29.894531 361.222656 29.726562 C 360.941406 29.558594 360.71875 28.78125 360.71875 27.945312 C 360.664062 27.109375 360.21875 25.441406 359.605469 24.214844 C 358.996094 22.992188 358.550781 21.265625 358.492188 20.429688 C 358.492188 19.59375 358.105469 18.757812 357.660156 18.59375 C 356.546875 18.148438 356.601562 16.753906 357.769531 15.476562 C 358.269531 14.917969 358.660156 13.695312 358.660156 12.804688 C 358.660156 9.296875 354.988281 7.683594 352.425781 10.074219 Z M 356.324219 19.59375 C 356.488281 22.65625 356.878906 24.773438 357.378906 25.273438 C 357.714844 25.605469 357.9375 26.554688 357.9375 27.386719 C 357.9375 28.222656 358.269531 29.894531 358.714844 31.007812 C 359.605469 33.566406 361.054688 38.578125 361.554688 41.027344 C 361.777344 42.027344 362.167969 42.976562 362.445312 43.140625 C 362.722656 43.363281 362.945312 44.3125 362.945312 45.257812 C 362.945312 46.257812 363.28125 47.707031 363.726562 48.542969 C 364.171875 49.320312 364.671875 51.101562 364.894531 52.382812 C 365.117188 53.71875 365.507812 55.164062 365.730469 55.667969 C 366.621094 57.503906 367.957031 62.289062 367.957031 63.570312 C 367.957031 64.296875 368.289062 65.351562 368.734375 65.964844 C 369.125 66.578125 369.625 68.304688 369.847656 69.804688 C 370.070312 71.308594 370.460938 72.921875 370.683594 73.425781 C 371.628906 75.316406 372.964844 80.105469 372.964844 81.441406 C 372.964844 82.21875 373.355469 83.222656 373.800781 83.722656 C 374.246094 84.167969 374.636719 85.394531 374.636719 86.394531 C 374.636719 87.398438 374.96875 88.898438 375.414062 89.679688 C 375.804688 90.457031 376.308594 92.296875 376.53125 93.6875 C 376.753906 95.132812 377.140625 96.414062 377.476562 96.582031 C 377.753906 96.804688 377.976562 97.640625 377.976562 98.472656 C 377.976562 99.308594 378.367188 100.476562 378.8125 101.089844 C 379.257812 101.648438 379.648438 102.984375 379.648438 103.984375 C 379.648438 104.988281 379.980469 106.378906 380.316406 107.046875 C 380.703125 107.714844 381.316406 109.496094 381.652344 111.054688 C 383.097656 117.066406 383.65625 118.847656 384.15625 119.347656 C 384.433594 119.683594 384.65625 120.851562 384.65625 121.964844 C 384.65625 123.132812 385.046875 124.414062 385.492188 124.914062 C 385.9375 125.363281 386.328125 126.53125 386.328125 127.476562 C 386.328125 128.480469 386.660156 130.039062 387.105469 130.984375 C 387.886719 132.765625 388.832031 136.050781 389.667969 139.890625 C 389.890625 141.058594 390.390625 142.339844 390.722656 142.671875 C 391.058594 143.007812 391.335938 144.007812 391.335938 144.898438 C 391.335938 145.734375 391.78125 147.515625 392.394531 148.796875 C 394.007812 152.472656 394.175781 153.363281 393.394531 154.417969 C 392.671875 155.367188 390.613281 155.421875 354.875 155.421875 C 320.863281 155.367188 317.078125 155.308594 316.632812 154.476562 C 316.074219 153.585938 316.742188 150.914062 318.191406 148.183594 C 318.636719 147.351562 318.96875 145.902344 318.96875 144.957031 C 318.96875 144.066406 319.25 143.007812 319.582031 142.671875 C 319.917969 142.339844 320.417969 141.058594 320.640625 139.890625 C 321.476562 135.992188 322.367188 132.765625 322.867188 131.820312 C 323.199219 131.316406 323.589844 129.816406 323.757812 128.480469 C 323.980469 127.144531 324.480469 125.585938 324.871094 124.972656 C 325.316406 124.359375 325.648438 123.023438 325.648438 121.910156 C 325.707031 120.851562 326.039062 119.347656 326.484375 118.570312 C 326.929688 117.789062 327.265625 116.511719 327.320312 115.675781 C 327.320312 114.839844 327.542969 114.0625 327.820312 113.839844 C 328.15625 113.671875 328.542969 112.335938 328.765625 110.886719 C 328.988281 109.441406 329.492188 107.769531 329.878906 107.160156 C 330.324219 106.546875 330.660156 105.042969 330.660156 103.761719 C 330.660156 102.480469 330.9375 101.3125 331.273438 101.203125 C 331.605469 101.089844 332.105469 100.03125 332.328125 98.808594 C 333.164062 94.855469 334.113281 91.628906 334.890625 89.789062 C 335.335938 88.84375 335.671875 87.175781 335.671875 86.117188 C 335.671875 85.003906 335.949219 84.058594 336.28125 83.945312 C 336.5625 83.835938 337.007812 82.609375 337.171875 81.273438 C 337.339844 79.882812 337.675781 78.488281 337.953125 78.210938 C 338.175781 77.878906 338.621094 76.597656 338.953125 75.429688 C 340.402344 69.582031 340.847656 68.082031 341.570312 66.410156 C 342.015625 65.464844 342.351562 64.074219 342.351562 63.292969 C 342.351562 62.511719 342.738281 61.175781 343.183594 60.34375 C 343.628906 59.453125 344.019531 58.058594 344.019531 57.226562 C 344.019531 56.390625 344.242188 55.609375 344.519531 55.386719 C 344.855469 55.222656 345.246094 53.941406 345.46875 52.492188 C 345.691406 51.101562 346.191406 49.265625 346.582031 48.484375 C 347.027344 47.707031 347.359375 46.148438 347.359375 45.089844 C 347.359375 44.03125 347.75 42.640625 348.195312 42.085938 C 348.640625 41.472656 349.03125 40.523438 349.03125 39.914062 C 349.03125 38.910156 349.976562 35.683594 351.644531 31.007812 C 352.035156 29.894531 352.371094 28.222656 352.371094 27.386719 C 352.371094 26.554688 352.648438 25.550781 352.980469 25.21875 C 353.261719 24.9375 353.707031 23.214844 353.871094 21.488281 C 354.152344 18.925781 354.375 18.371094 355.210938 18.371094 C 355.933594 18.371094 356.265625 18.816406 356.324219 19.59375 Z M 356.324219 19.59375 "/>
<path style=" stroke:none;fill-rule:nonzero;fill:rgb(0%,0%,0%);fill-opacity:1;" d="M 452.347656 9.796875 C 451.121094 11.023438 451.234375 14.027344 452.625 15.808594 C 453.628906 17.089844 453.628906 17.3125 452.902344 17.589844 C 452.402344 17.757812 452.011719 18.480469 452.011719 19.148438 C 452.011719 19.761719 451.625 21.042969 451.179688 21.933594 C 450.734375 22.769531 450.34375 24.046875 450.34375 24.714844 C 450.34375 25.328125 449.953125 26.609375 449.507812 27.5 C 449.0625 28.390625 448.507812 30.117188 448.339844 31.394531 C 448.117188 32.621094 447.726562 33.957031 447.503906 34.289062 C 447.226562 34.625 446.78125 36.015625 446.503906 37.351562 C 445.722656 41.027344 444.722656 44.644531 444.21875 45.925781 C 443.941406 46.539062 443.550781 48.039062 443.386719 49.265625 C 443.164062 50.488281 442.773438 51.769531 442.496094 52.105469 C 442.214844 52.4375 441.769531 53.828125 441.492188 55.164062 C 441.214844 56.5 440.546875 59.007812 440.046875 60.675781 C 439.542969 62.347656 438.875 64.851562 438.542969 66.242188 C 438.207031 67.636719 437.761719 69.027344 437.484375 69.304688 C 437.261719 69.640625 436.871094 71.03125 436.648438 72.367188 C 436.425781 73.703125 435.925781 75.429688 435.480469 76.207031 C 435.089844 76.988281 434.757812 78.101562 434.757812 78.65625 C 434.757812 79.769531 433.253906 84.949219 432.53125 86.339844 C 432.25 86.839844 431.863281 88.453125 431.640625 89.957031 C 431.417969 91.460938 430.914062 93.1875 430.527344 93.796875 C 430.082031 94.410156 429.746094 95.46875 429.746094 96.191406 C 429.746094 97.527344 428.355469 102.371094 427.464844 104.207031 C 427.1875 104.765625 426.964844 105.878906 426.964844 106.714844 C 426.90625 107.605469 426.460938 109.273438 425.851562 110.5 C 425.238281 111.722656 424.792969 113.394531 424.738281 114.171875 C 424.738281 115.007812 424.347656 116.398438 423.902344 117.234375 C 423.457031 118.125 423.066406 119.515625 423.066406 120.296875 C 423.066406 121.074219 422.898438 121.910156 422.675781 122.132812 C 422.230469 122.523438 421.5625 124.859375 420.117188 131.09375 C 419.726562 132.597656 419.113281 134.433594 418.726562 135.101562 C 418.390625 135.769531 418.058594 136.941406 418.058594 137.71875 C 418.058594 138.554688 417.835938 139.613281 417.554688 140.167969 C 416.554688 142.226562 415.273438 146.90625 415.273438 148.628906 C 415.273438 151.023438 413.824219 153.304688 411.878906 154.03125 C 410.484375 154.585938 410.261719 154.921875 410.261719 156.867188 C 410.261719 159.484375 411.542969 160.875 413.992188 160.875 C 415.21875 160.875 416.050781 160.429688 416.777344 159.484375 L 417.777344 158.039062 L 491.816406 158.039062 L 493.039062 159.429688 C 493.929688 160.488281 494.820312 160.875 496.15625 160.875 C 497.769531 160.875 498.214844 160.597656 498.773438 159.207031 C 499.71875 156.925781 499.050781 154.921875 497.101562 153.917969 C 495.765625 153.195312 495.433594 152.695312 495.433594 151.136719 C 495.433594 150.132812 495.210938 149.132812 494.933594 148.964844 C 494.652344 148.742188 494.265625 147.351562 494.042969 145.847656 C 493.820312 144.34375 493.429688 142.953125 493.152344 142.730469 C 492.871094 142.5625 492.648438 141.78125 492.648438 140.949219 C 492.648438 140.113281 492.261719 138.722656 491.816406 137.832031 C 491.371094 136.996094 490.980469 135.605469 490.980469 134.769531 C 490.980469 133.988281 490.644531 132.652344 490.199219 131.820312 C 489.753906 131.039062 489.253906 129.257812 489.03125 127.921875 C 488.808594 126.585938 488.417969 125.25 488.195312 124.972656 C 487.808594 124.46875 487.140625 121.910156 485.914062 116.398438 C 485.636719 115.0625 485.191406 113.671875 484.914062 113.335938 C 484.632812 113.003906 484.246094 111.554688 484.023438 110.054688 C 483.800781 108.605469 483.410156 107.324219 483.1875 107.160156 C 482.910156 106.992188 482.574219 105.824219 482.351562 104.488281 C 482.128906 103.207031 481.738281 101.871094 481.515625 101.589844 C 481.292969 101.257812 480.90625 99.976562 480.683594 98.695312 C 480.460938 97.359375 480.070312 96.191406 479.789062 95.96875 C 479.511719 95.800781 479.289062 94.855469 479.289062 93.910156 C 479.289062 92.90625 478.898438 91.40625 478.453125 90.570312 C 478.007812 89.734375 477.507812 88.066406 477.339844 86.953125 C 477.117188 85.839844 476.785156 84.390625 476.5625 83.777344 C 475.449219 80.996094 474.28125 76.875 474.28125 75.929688 C 474.28125 75.316406 473.945312 74.203125 473.5 73.367188 C 473.054688 72.589844 472.554688 70.808594 472.332031 69.472656 C 472.164062 68.136719 471.773438 66.578125 471.496094 65.964844 C 470.660156 63.960938 469.269531 59.117188 469.269531 58.058594 C 469.269531 57.503906 468.9375 56.390625 468.492188 55.609375 C 468.101562 54.832031 467.601562 52.996094 467.378906 51.601562 C 467.15625 50.15625 466.765625 48.875 466.542969 48.707031 C 466.265625 48.597656 465.875 47.261719 465.652344 45.871094 C 465.429688 44.421875 465.09375 42.863281 464.816406 42.363281 C 464.203125 41.027344 462.703125 35.625 462.3125 33.234375 C 462.144531 32.121094 461.753906 31.171875 461.476562 31.171875 C 461.199219 31.171875 460.808594 30.003906 460.585938 28.5 C 460.417969 27.054688 460.03125 25.605469 459.808594 25.328125 C 459.585938 24.996094 459.195312 23.882812 458.972656 22.824219 C 458.75 21.765625 458.191406 20.375 457.800781 19.761719 C 456.800781 18.3125 456.800781 15.921875 457.859375 15.03125 C 459.136719 13.972656 458.914062 11.1875 457.46875 9.964844 C 455.910156 8.683594 453.515625 8.628906 452.347656 9.796875 Z M 455.410156 19.316406 C 456.078125 21.042969 457.355469 25.71875 458.191406 29.503906 C 458.46875 30.839844 458.972656 32.230469 459.25 32.507812 C 459.585938 32.84375 459.808594 33.957031 459.808594 35.070312 C 459.808594 36.128906 460.195312 37.742188 460.640625 38.632812 C 461.085938 39.523438 461.644531 41.191406 461.8125 42.417969 C 462.035156 43.585938 462.421875 44.699219 462.644531 44.867188 C 462.925781 45.035156 463.148438 45.8125 463.148438 46.59375 C 463.148438 47.371094 463.480469 48.765625 463.925781 49.710938 C 464.371094 50.710938 464.871094 52.492188 465.039062 53.664062 C 465.207031 54.886719 465.539062 56 465.820312 56.167969 C 466.097656 56.335938 466.488281 57.726562 466.652344 59.230469 C 466.875 60.730469 467.265625 62.234375 467.542969 62.570312 C 467.824219 62.902344 468.210938 64.238281 468.433594 65.519531 C 468.65625 66.855469 469.046875 68.023438 469.324219 68.246094 C 469.605469 68.414062 469.828125 69.359375 469.828125 70.363281 C 469.828125 71.363281 470.214844 72.644531 470.660156 73.257812 C 471.105469 73.8125 471.496094 75.207031 471.496094 76.261719 C 471.496094 77.375 471.832031 78.710938 472.277344 79.324219 C 472.664062 79.9375 473.167969 81.605469 473.390625 83.054688 C 473.613281 84.503906 474 85.839844 474.335938 86.003906 C 474.613281 86.226562 474.835938 87.0625 474.835938 87.898438 C 474.835938 88.734375 475.226562 89.902344 475.671875 90.515625 C 476.117188 91.070312 476.507812 92.460938 476.507812 93.519531 C 476.507812 94.578125 476.839844 96.136719 477.285156 96.972656 C 477.730469 97.75 478.230469 99.53125 478.453125 100.8125 C 478.675781 102.148438 479.066406 103.59375 479.289062 104.097656 C 480.179688 105.933594 481.515625 110.722656 481.515625 112 C 481.515625 112.726562 481.851562 113.78125 482.296875 114.394531 C 482.6875 115.007812 483.1875 116.675781 483.355469 118.125 C 483.578125 119.570312 483.964844 121.242188 484.246094 121.742188 C 484.855469 122.96875 486.359375 128.199219 486.804688 130.648438 C 487.027344 131.652344 487.417969 132.488281 487.695312 132.488281 C 487.972656 132.488281 488.195312 133.378906 488.195312 134.492188 C 488.195312 135.605469 488.53125 137.273438 488.976562 138.21875 C 489.699219 139.890625 490.144531 141.394531 491.59375 147.238281 C 491.925781 148.464844 492.425781 149.578125 492.707031 149.800781 C 493.484375 150.246094 493.929688 153.75 493.316406 154.640625 C 492.929688 155.253906 485.746094 155.421875 455.128906 155.421875 C 419.839844 155.421875 417.386719 155.367188 416.332031 154.417969 C 415.441406 153.585938 415.382812 153.304688 415.996094 152.582031 C 416.441406 152.082031 417.332031 149.800781 418.058594 147.515625 C 418.726562 145.234375 419.503906 142.894531 419.78125 142.339844 C 420.0625 141.839844 420.449219 140.167969 420.671875 138.722656 C 420.839844 137.273438 421.339844 135.605469 421.730469 134.992188 C 422.175781 134.378906 422.511719 133.042969 422.511719 131.929688 C 422.511719 130.871094 422.898438 129.480469 423.34375 128.925781 C 423.789062 128.3125 424.179688 127.144531 424.179688 126.308594 C 424.179688 125.472656 424.402344 124.636719 424.679688 124.414062 C 425.015625 124.246094 425.40625 122.910156 425.628906 121.464844 C 425.851562 120.015625 426.351562 118.347656 426.742188 117.734375 C 427.1875 117.121094 427.519531 115.621094 427.519531 114.339844 C 427.519531 112.949219 427.855469 111.722656 428.355469 111.332031 C 428.800781 110.945312 429.191406 109.832031 429.191406 108.773438 C 429.191406 107.769531 429.414062 106.824219 429.691406 106.65625 C 429.96875 106.433594 430.359375 105.320312 430.582031 104.039062 C 430.804688 102.816406 431.304688 101.089844 431.75 100.3125 C 432.195312 99.476562 432.53125 97.917969 432.53125 96.859375 C 432.53125 95.800781 432.917969 94.410156 433.363281 93.855469 C 433.808594 93.242188 434.199219 91.960938 434.199219 90.960938 C 434.199219 89.957031 434.421875 89.011719 434.699219 88.84375 C 434.980469 88.621094 435.367188 87.453125 435.589844 86.117188 C 435.8125 84.835938 436.203125 83.5 436.425781 83.222656 C 436.648438 82.886719 437.039062 81.550781 437.261719 80.160156 C 437.484375 78.769531 438.039062 77.152344 438.429688 76.542969 C 438.875 75.929688 439.210938 74.648438 439.210938 73.703125 C 439.210938 72.757812 439.601562 71.199219 440.046875 70.363281 C 440.492188 69.472656 440.878906 68.191406 440.878906 67.523438 C 440.878906 66.855469 441.101562 66.1875 441.382812 66.019531 C 441.660156 65.855469 442.050781 64.574219 442.214844 63.183594 C 442.4375 61.789062 442.996094 60.007812 443.441406 59.117188 C 443.832031 58.28125 444.21875 56.722656 444.21875 55.609375 C 444.21875 54.554688 444.5 53.382812 444.832031 53.050781 C 445.167969 52.714844 445.667969 51.4375 445.945312 50.265625 C 446.726562 46.648438 447.671875 43.199219 448.449219 41.359375 C 448.894531 40.414062 449.230469 38.910156 449.230469 38.019531 C 449.230469 37.128906 449.507812 36.128906 449.898438 35.738281 C 450.230469 35.402344 450.734375 34.066406 450.957031 32.730469 C 451.179688 31.394531 451.847656 28.945312 452.347656 27.277344 C 452.847656 25.605469 453.40625 22.769531 453.515625 20.988281 C 453.792969 17.535156 454.460938 16.921875 455.410156 19.316406 Z M 455.410156 19.316406 "/>
<path style=" stroke:none;fill-rule:nonzero;fill:rgb(0%,0%,0%);fill-opacity:1;" d="M 109.273438 72.367188 C 108.214844 72.8125 107.992188 73.3125 107.992188 75.429688 C 107.992188 77.710938 108.160156 78.101562 109.664062 78.933594 C 111.109375 79.714844 111.332031 80.105469 111 81.273438 C 110.332031 83.777344 110.109375 142.226562 110.777344 147.460938 L 111.332031 152.25 L 109.664062 153.695312 C 106.492188 156.367188 107.828125 160.875 111.835938 160.875 C 113.171875 160.875 113.839844 160.542969 114.507812 159.316406 L 115.339844 157.816406 L 152.082031 157.925781 L 188.820312 158.039062 L 189.933594 159.484375 C 190.714844 160.488281 191.550781 160.875 192.828125 160.875 C 196.449219 160.875 197.785156 157.035156 195 154.640625 L 193.441406 153.363281 L 193.554688 116.453125 L 193.664062 79.546875 L 195.054688 78.433594 C 197.003906 76.875 197.003906 74.480469 195 72.921875 C 193.109375 71.476562 191.046875 71.753906 189.101562 73.703125 C 187.875 74.871094 187.375 75.039062 185.535156 74.703125 C 184.367188 74.480469 168.894531 74.316406 151.136719 74.316406 C 125.695312 74.316406 118.570312 74.480469 117.566406 75.039062 C 116.453125 75.707031 116.175781 75.59375 114.449219 73.757812 C 112.558594 71.753906 111.5 71.476562 109.273438 72.367188 Z M 190.214844 78.433594 C 190.824219 79.378906 190.992188 85.671875 190.992188 116.621094 C 191.046875 149.855469 190.9375 153.695312 190.15625 154.53125 C 189.324219 155.308594 185.480469 155.421875 152.136719 155.421875 C 116.957031 155.421875 115.007812 155.367188 114.0625 154.363281 C 113.058594 153.417969 113.003906 151.46875 113.003906 116.398438 C 112.949219 80.328125 113.003906 79.4375 114.0625 78.265625 C 115.175781 77.097656 115.175781 77.097656 152.304688 77.210938 C 188.765625 77.320312 189.433594 77.320312 190.214844 78.433594 Z M 190.214844 78.433594 "/>
</g>
</svg>
