<?xml version="1.0" encoding="UTF-8" standalone="no"?>
<svg
   xmlns:dc="http://purl.org/dc/elements/1.1/"
   xmlns:cc="http://creativecommons.org/ns#"
   xmlns:rdf="http://www.w3.org/1999/02/22-rdf-syntax-ns#"
   xmlns:svg="http://www.w3.org/2000/svg"
   xmlns="http://www.w3.org/2000/svg"
   xmlns:sodipodi="http://sodipodi.sourceforge.net/DTD/sodipodi-0.dtd"
   xmlns:inkscape="http://www.inkscape.org/namespaces/inkscape"
   version="1.0"
   width="500.11697"
   height="89.095428"
   viewBox="0 0 400.09358 71.276343"
   preserveAspectRatio="xMidYMid meet"
   id="svg3122"
   inkscape:version="0.48.4 r9939"
   sodipodi:docname="ea4f4ba34b56467c4d7cc4e789dd2af609b16517.svg">
  <defs
     id="defs3158" />
  <sodipodi:namedview
     pagecolor="#ffffff"
     bordercolor="#666666"
     borderopacity="1"
     objecttolerance="10"
     gridtolerance="10"
     guidetolerance="10"
     inkscape:pageopacity="0"
     inkscape:pageshadow="2"
     inkscape:window-width="1600"
     inkscape:window-height="824"
     id="namedview3156"
     showgrid="false"
     fit-margin-top="0"
     fit-margin-left="0"
     fit-margin-right="0"
     fit-margin-bottom="0"
     inkscape:zoom="0.42933333"
     inkscape:cx="538.36683"
     inkscape:cy="102.51248"
     inkscape:window-x="0"
     inkscape:window-y="24"
     inkscape:window-maximized="1"
     inkscape:current-layer="svg3122" />
  <metadata
     id="metadata3124">
Created by potrace 1.10, written by Peter Selinger 2001-2011
<rdf:RDF>
  <cc:Work
     rdf:about="">
    <dc:format>image/svg+xml</dc:format>
    <dc:type
       rdf:resource="http://purl.org/dc/dcmitype/StillImage" />
  </cc:Work>
</rdf:RDF>
</metadata>
  <g
     transform="matrix(0.04643108,0,0,-0.04643108,-8.9642343,82.647322)"
     id="g3126"
     style="fill:#000000;stroke:none">
    <path
       d="m 693,1772 c -13,-8 -21,-331 -9,-351 9,-15 53,-14 62,1 4,6 6,37 5,70 l -2,58 65,0 c 81,0 126,24 151,80 17,38 17,43 2,75 -27,58 -67,75 -172,75 -49,0 -95,-4 -102,-8 z m 183,-50 c 27,-18 35,-51 19,-82 -16,-30 -17,-31 -83,-28 l -67,3 4,50 c 1,28 5,53 8,58 5,9 105,9 119,-1 z"
       id="path3128"
       inkscape:connector-curvature="0" />
    <path
       d="m 2031,1730 c -133,-85 -118,-283 26,-339 22,-9 54,-11 101,-6 47,4 72,3 76,-4 10,-15 56,-14 56,2 0,7 -7,23 -16,35 -14,21 -14,25 5,58 40,67 21,175 -41,230 -66,61 -138,69 -207,24 z m 164,-66 c 20,-20 36,-47 37,-62 4,-61 -4,-108 -22,-126 -19,-19 -20,-19 -39,-2 -25,23 -52,14 -48,-16 5,-50 -71,-21 -102,39 -16,31 -13,124 4,147 24,32 68,56 103,56 24,0 41,-9 67,-36 z"
       id="path3130"
       inkscape:connector-curvature="0" />
    <path
       d="m 3548,1753 c -25,-2 -51,-10 -57,-16 -7,-10 -16,-255 -12,-334 1,-17 40,-26 56,-13 11,9 13,26 8,70 -6,57 -5,59 20,65 43,11 80,-8 113,-58 46,-70 64,-87 94,-87 57,0 43,36 -47,128 -20,21 -15,35 20,57 28,18 32,26 35,72 2,43 -1,55 -20,73 -48,46 -82,53 -210,43 z m 146,-69 c 19,-19 21,-64 3,-88 -9,-12 -27,-17 -67,-18 -95,-1 -90,-4 -90,55 0,30 3,57 7,60 14,15 131,7 147,-9 z"
       id="path3132"
       inkscape:connector-curvature="0" />
    <path
       d="m 5073,1741 c -81,-37 -98,-115 -34,-158 19,-13 46,-26 60,-29 58,-12 112,-37 122,-56 17,-31 -23,-68 -73,-68 -39,0 -41,2 -101,70 -25,29 -51,22 -55,-13 -10,-85 149,-138 243,-82 87,50 81,131 -11,174 -26,13 -64,25 -83,28 -38,6 -71,28 -71,48 0,22 36,45 72,45 25,0 44,-8 66,-30 36,-34 57,-38 71,-12 14,27 -12,60 -66,83 -56,24 -87,24 -140,0 z"
       id="path3134"
       inkscape:connector-curvature="0" />
    <path
       d="m 6498,1743 c -21,-26 -1,-42 59,-45 l 58,-3 0,-145 c 0,-80 1,-151 3,-157 1,-7 13,-13 26,-13 14,0 28,6 33,13 4,6 8,77 8,157 l 0,145 50,3 c 70,4 76,7 66,34 -8,22 -12,23 -150,24 -104,0 -145,-3 -153,-13 z"
       id="path3136"
       inkscape:connector-curvature="0" />
    <path
       d="m 8023,1736 c -4,-8 -6,-75 -3,-149 4,-117 8,-138 25,-157 52,-58 138,-68 211,-25 23,13 45,32 49,42 11,27 21,272 12,289 -10,18 -51,18 -66,0 -7,-9 -9,-42 -5,-103 11,-148 -11,-203 -79,-203 -66,0 -71,12 -77,172 l -5,143 -27,3 c -15,2 -30,-3 -35,-12 z"
       id="path3138"
       inkscape:connector-curvature="0" />
    <path
       d="m 580,1193 c -36,-13 -50,-36 -50,-84 0,-57 23,-79 83,-79 31,0 44,6 65,30 l 26,30 659,0 659,0 36,-31 c 30,-27 41,-30 75,-26 22,3 44,12 48,19 5,7 12,19 17,26 7,10 143,13 676,13 l 668,-1 29,-31 c 26,-28 34,-31 71,-26 30,4 48,13 61,31 l 19,26 662,0 662,0 26,-30 c 21,-24 34,-30 67,-30 39,0 48,5 74,43 11,16 52,17 687,17 499,0 676,-3 679,-11 9,-29 43,-49 80,-49 33,0 43,5 61,30 l 21,30 666,0 665,0 28,-30 c 37,-40 89,-41 127,-4 22,22 25,32 20,67 -11,78 -84,103 -142,47 l -31,-30 -662,0 -663,-1 -35,31 c -45,39 -78,39 -114,0 l -29,-31 -674,0 -675,0 -31,32 c -27,26 -37,30 -64,25 -18,-3 -41,-17 -52,-31 l -21,-25 -666,0 -666,0 -30,30 c -41,40 -81,40 -119,0 l -29,-31 -668,0 c -678,0 -696,1 -696,36 0,13 -30,25 -67,25 -11,0 -36,-14 -55,-31 l -33,-30 -659,1 -659,0 -34,30 c -32,29 -60,35 -93,23 z"
       id="path3140"
       inkscape:connector-curvature="0" />
    <path
       d="m 7839,811 c -13,-15 -34,-31 -47,-35 -26,-8 -46,-41 -38,-62 9,-23 33,-16 60,18 l 25,32 7,-28 c 4,-16 4,-75 1,-131 -7,-110 2,-141 39,-133 18,3 19,15 24,176 3,95 4,177 2,182 -7,20 -50,9 -73,-19 z"
       id="path3142"
       inkscape:connector-curvature="0" />
    <path
       d="m 8050,815 c -29,-31 -42,-113 -33,-210 5,-61 10,-74 39,-102 65,-66 169,-32 193,61 24,98 7,222 -37,256 -18,15 -40,20 -82,20 -47,0 -60,-4 -80,-25 z m 120,-35 c 12,-12 20,-34 21,-57 3,-151 -10,-193 -61,-193 -42,0 -60,40 -60,130 0,117 47,173 100,120 z"
       id="path3144"
       inkscape:connector-curvature="0" />
    <path
       d="m 8387,808 c -18,-18 -41,-37 -51,-43 -24,-14 -26,-48 -2,-53 10,-2 23,3 28,12 5,9 16,16 25,16 14,0 15,-14 10,-120 -4,-98 -2,-123 10,-135 19,-19 37,-19 53,0 10,12 11,45 7,133 -4,64 -3,136 2,159 14,70 -26,85 -82,31 z"
       id="path3146"
       inkscape:connector-curvature="0" />
    <path
       d="m 8600,810 c -32,-35 -45,-113 -34,-211 6,-51 12,-67 41,-95 27,-28 41,-34 74,-34 91,0 129,54 129,184 0,139 -32,186 -128,186 -47,0 -58,-4 -82,-30 z m 121,-29 c 21,-17 24,-29 27,-108 3,-106 -9,-137 -55,-141 -49,-5 -63,24 -63,133 0,91 8,117 40,128 24,9 27,8 51,-12 z"
       id="path3148"
       inkscape:connector-curvature="0" />
    <path
       d="m 248,587 c -69,-59 -73,-133 -12,-187 44,-38 77,-47 108,-27 27,18 36,13 36,-20 0,-29 -33,-63 -61,-63 -11,0 -33,14 -49,31 -18,20 -34,30 -44,26 -24,-9 -19,-51 9,-77 33,-31 108,-34 147,-5 49,37 58,64 58,176 l 0,102 -42,39 c -54,50 -97,52 -150,5 z m 122,-46 c 5,-11 10,-36 10,-56 0,-55 -15,-75 -55,-75 -45,0 -70,35 -62,86 8,48 23,64 63,64 23,0 37,-6 44,-19 z"
       id="path3150"
       inkscape:connector-curvature="0" />
    <path
       d="m 535,580 c -35,-36 -39,-44 -44,-112 -9,-109 0,-153 37,-191 28,-27 40,-32 81,-32 39,0 55,5 75,24 59,56 53,148 -13,200 -43,34 -63,38 -81,16 -14,-17 -36,-20 -44,-6 -3,5 1,25 9,45 13,31 20,36 50,36 19,0 38,-6 42,-14 14,-23 48,-37 61,-24 20,20 14,35 -25,67 -55,45 -98,43 -148,-9 z M 636,442 c 6,-4 16,-17 23,-29 32,-61 -11,-136 -68,-118 -24,7 -55,77 -46,104 13,43 59,65 91,43 z"
       id="path3152"
       inkscape:connector-curvature="0" />
    <path
       d="m 824,602 c -47,-38 -56,-66 -56,-171 1,-146 26,-185 117,-185 89,0 125,52 125,179 0,127 -46,195 -132,195 -18,0 -43,-8 -54,-18 z m 95,-51 c 38,-24 36,-219 -2,-246 -29,-20 -43,-19 -67,5 -17,17 -20,33 -20,119 0,77 4,103 16,115 17,17 51,21 73,7 z"
       id="path3154"
       inkscape:connector-curvature="0" />
  </g>
</svg>
