<?xml version="1.0" encoding="UTF-8"?>
<svg xmlns="http://www.w3.org/2000/svg" xmlns:xlink="http://www.w3.org/1999/xlink" width="349pt" height="329pt" viewBox="0 0 349 329" version="1.1">
<g id="surface1">
<path style=" stroke:none;fill-rule:nonzero;fill:rgb(0%,0%,0%);fill-opacity:1;" d="M 17.886719 13.679688 C 17.761719 13.96875 17.722656 36.097656 17.761719 62.839844 L 17.886719 111.464844 L 102.710938 111.589844 C 160.726562 111.632812 187.78125 111.546875 188.355469 111.261719 C 189.136719 110.808594 189.136719 109.898438 189.136719 62.511719 C 189.136719 25.464844 189.015625 14.050781 188.644531 13.679688 C 187.902344 12.9375 18.132812 12.980469 17.886719 13.679688 Z M 185.929688 16.402344 C 186.175781 16.648438 186.425781 91.5625 186.257812 108.25 C 186.257812 108.664062 169.320312 108.789062 102.996094 108.789062 L 19.734375 108.789062 L 19.734375 62.511719 C 19.734375 37.046875 19.816406 16.113281 19.902344 16.03125 C 20.230469 15.699219 185.601562 16.070312 185.929688 16.402344 Z M 185.929688 16.402344 "/>
<path style=" stroke:none;fill-rule:nonzero;fill:rgb(0%,0%,0%);fill-opacity:1;" d="M 286.789062 17.636719 C 286.542969 17.800781 283.789062 22.253906 280.621094 27.527344 C 277.457031 32.800781 272.976562 40.21875 270.671875 44.007812 C 268.328125 47.800781 266.3125 51.179688 266.191406 51.507812 C 266.027344 51.839844 265.082031 53.40625 264.09375 54.929688 C 263.148438 56.453125 262.324219 57.894531 262.324219 58.101562 C 262.324219 58.308594 262.078125 58.71875 261.792969 59.007812 C 261.050781 59.75 258.625 63.789062 258.625 64.242188 C 258.625 64.449219 258.378906 64.902344 258.089844 65.191406 C 257.804688 65.480469 252.375 74.339844 246.085938 84.886719 C 239.792969 95.4375 234.40625 104.296875 234.121094 104.542969 C 233.832031 104.871094 233.625 106.148438 233.667969 107.839844 L 233.75 110.640625 L 237.65625 110.929688 C 239.792969 111.054688 262.574219 111.382812 288.269531 111.671875 C 313.925781 111.917969 336.007812 112.289062 337.28125 112.453125 C 338.554688 112.621094 339.707031 112.660156 339.832031 112.578125 C 340.160156 112.207031 340.078125 110.230469 339.667969 109.777344 C 339.460938 109.570312 338.761719 108.375 338.0625 107.140625 C 335.964844 103.222656 334.445312 100.464844 332.222656 96.425781 C 331.03125 94.28125 329.511719 91.480469 328.851562 90.246094 C 328.152344 89.007812 327.453125 87.773438 327.289062 87.566406 C 327.125 87.320312 326.425781 86.125 325.769531 84.886719 C 325.109375 83.652344 323.546875 80.847656 322.355469 78.707031 C 320.09375 74.710938 319.355469 73.347656 317.011719 69.023438 C 316.3125 67.664062 315.078125 65.519531 314.296875 64.242188 C 313.515625 62.964844 312.898438 61.8125 312.898438 61.644531 C 312.898438 61.480469 312.445312 60.699219 311.953125 59.832031 C 311.417969 59.007812 310.1875 56.824219 309.199219 55.011719 C 308.210938 53.199219 307.0625 51.054688 306.609375 50.273438 C 306.15625 49.488281 304.882812 47.140625 303.730469 45.121094 C 302.578125 43.0625 301.222656 40.589844 300.648438 39.558594 C 300.113281 38.527344 299.332031 37.128906 298.917969 36.46875 C 298.550781 35.769531 297.726562 34.40625 297.191406 33.378906 C 294.683594 28.804688 293.328125 26.371094 291.558594 23.28125 C 290.53125 21.46875 289.378906 19.449219 289.050781 18.75 C 288.394531 17.511719 287.53125 17.058594 286.789062 17.636719 Z M 288.679688 23.488281 C 293.328125 32.058594 295.753906 36.46875 299.742188 43.472656 C 302.292969 48.007812 304.800781 52.457031 305.292969 53.363281 C 305.785156 54.269531 308.292969 58.71875 310.84375 63.253906 C 313.394531 67.785156 316.023438 72.523438 316.722656 73.761719 C 317.382812 74.996094 318.082031 76.191406 318.246094 76.441406 C 318.410156 76.644531 319.191406 78.046875 319.972656 79.53125 C 322.683594 84.558594 324.125 87.152344 325.109375 88.679688 C 325.644531 89.542969 326.058594 90.328125 326.058594 90.449219 C 326.058594 90.53125 327.453125 93.085938 329.183594 96.09375 C 330.910156 99.105469 332.964844 102.769531 333.746094 104.253906 C 334.566406 105.738281 335.472656 107.261719 335.800781 107.632812 C 336.542969 108.457031 336.292969 109.898438 335.472656 109.613281 C 335.144531 109.488281 329.265625 109.363281 322.355469 109.324219 C 300.070312 109.160156 245.425781 108.375 240.246094 108.128906 C 237.449219 108.003906 235.1875 107.714844 235.1875 107.511719 C 235.1875 107.140625 236.710938 104.75 237.246094 104.253906 C 237.367188 104.132812 241.066406 98.074219 245.46875 90.738281 C 249.867188 83.445312 253.8125 76.933594 254.183594 76.316406 C 254.59375 75.699219 255.089844 74.832031 255.335938 74.378906 C 255.542969 73.925781 255.992188 73.183594 256.242188 72.730469 C 256.527344 72.277344 257.351562 71 258.089844 69.847656 C 258.789062 68.734375 261.667969 63.996094 264.464844 59.339844 C 267.300781 54.683594 270.261719 49.859375 271.042969 48.625 C 273.921875 44.09375 285.761719 24.269531 285.761719 23.984375 C 285.761719 23.363281 287.078125 21.796875 287.488281 21.921875 C 287.734375 22.003906 288.269531 22.707031 288.679688 23.488281 Z M 288.679688 23.488281 "/>
<path style=" stroke:none;fill-rule:nonzero;fill:rgb(0%,0%,0%);fill-opacity:1;" d="M 82.273438 127.535156 C 81.574219 128.359375 81 129.183594 81 129.390625 C 81 129.925781 82.933594 129.925781 83.261719 129.390625 C 83.386719 129.144531 83.960938 128.980469 84.496094 128.980469 C 85.03125 128.980469 85.605469 129.144531 85.730469 129.390625 C 86.097656 129.96875 87.578125 129.886719 87.578125 129.269531 C 87.578125 128.484375 85.152344 126.09375 84.332031 126.09375 C 83.878906 126.09375 82.972656 126.753906 82.273438 127.535156 Z M 82.273438 127.535156 "/>
<path style=" stroke:none;fill-rule:nonzero;fill:rgb(0%,0%,0%);fill-opacity:1;" d="M 267.300781 127.621094 C 266.601562 128.484375 266.027344 129.308594 266.027344 129.472656 C 266.027344 130.132812 266.972656 130.257812 267.875 129.636719 C 269.152344 128.8125 270.097656 128.8125 271 129.636719 C 271.78125 130.339844 272.605469 130.132812 272.605469 129.183594 C 272.605469 128.359375 270.179688 126.09375 269.316406 126.09375 C 268.90625 126.09375 268 126.796875 267.300781 127.621094 Z M 267.300781 127.621094 "/>
<path style=" stroke:none;fill-rule:nonzero;fill:rgb(0%,0%,0%);fill-opacity:1;" d="M 258.871094 127.042969 C 258.460938 127.332031 258.214844 127.949219 258.296875 128.402344 C 258.378906 128.980469 258.789062 129.183594 259.859375 129.183594 C 260.925781 129.183594 261.339844 128.980469 261.421875 128.402344 C 261.585938 127.703125 260.597656 126.507812 259.859375 126.507812 C 259.734375 126.507812 259.28125 126.753906 258.871094 127.042969 Z M 258.871094 127.042969 "/>
<path style=" stroke:none;fill-rule:nonzero;fill:rgb(0%,0%,0%);fill-opacity:1;" d="M 128.53125 127.578125 C 128.078125 128.03125 127.957031 128.527344 128.160156 129.308594 C 128.367188 129.925781 128.488281 133.140625 128.488281 136.480469 C 128.449219 142.867188 128.53125 143.070312 130.421875 142.660156 C 131 142.535156 131.121094 141.628906 131.246094 135.242188 C 131.367188 129.226562 131.285156 127.867188 130.792969 127.414062 C 129.96875 126.753906 129.3125 126.796875 128.53125 127.578125 Z M 128.53125 127.578125 "/>
<path style=" stroke:none;fill-rule:nonzero;fill:rgb(0%,0%,0%);fill-opacity:1;" d="M 239.671875 127.824219 C 238.929688 129.226562 239.917969 130.214844 242.054688 130.214844 L 243.945312 130.214844 L 243.699219 136.355469 C 243.410156 143.070312 243.410156 143.070312 245.835938 142.617188 L 246.785156 142.453125 L 246.660156 136.4375 L 246.496094 130.421875 L 248.140625 130.296875 C 250.03125 130.132812 250.8125 129.597656 250.8125 128.484375 C 250.8125 127.414062 250.441406 127.332031 244.890625 127.207031 C 240.617188 127.125 240 127.207031 239.671875 127.824219 Z M 239.671875 127.824219 "/>
<path style=" stroke:none;fill-rule:nonzero;fill:rgb(0%,0%,0%);fill-opacity:1;" d="M 313.886719 127.332031 C 313.679688 127.535156 313.558594 130.875 313.597656 135.035156 L 313.640625 142.371094 L 315.039062 142.496094 L 316.394531 142.617188 L 316.433594 135.078125 C 316.476562 129.96875 316.351562 127.453125 316.023438 127.25 C 315.40625 126.796875 314.378906 126.835938 313.886719 127.332031 Z M 313.886719 127.332031 "/>
<path style=" stroke:none;fill-rule:nonzero;fill:rgb(0%,0%,0%);fill-opacity:1;" d="M 45.84375 127.742188 C 45.722656 127.949219 45.558594 131.328125 45.515625 135.242188 L 45.433594 142.371094 L 47.242188 142.496094 L 49.011719 142.617188 L 48.765625 139.570312 C 48.476562 136.765625 48.519531 136.480469 49.21875 136.3125 C 50.53125 135.941406 52.589844 136.4375 52.792969 137.179688 C 52.917969 137.550781 53.289062 138.910156 53.65625 140.1875 C 54.316406 142.578125 54.316406 142.578125 55.960938 142.578125 C 57.890625 142.578125 57.933594 142.289062 56.332031 139.28125 C 54.808594 136.4375 54.808594 135.941406 56.332031 134.417969 C 57.277344 133.429688 57.5625 132.8125 57.5625 131.574219 C 57.523438 129.886719 57.113281 129.144531 55.507812 128.03125 C 54.726562 127.496094 53.574219 127.332031 50.285156 127.332031 C 47.984375 127.332031 46.011719 127.496094 45.84375 127.742188 Z M 53.617188 130.214844 C 54.851562 130.667969 55.054688 132.027344 53.988281 133.183594 C 53.328125 133.925781 50.574219 134.210938 49.175781 133.675781 C 48.351562 133.386719 48.269531 130.378906 49.050781 130.09375 C 49.914062 129.722656 52.546875 129.804688 53.617188 130.214844 Z M 53.617188 130.214844 "/>
<path style=" stroke:none;fill-rule:nonzero;fill:rgb(0%,0%,0%);fill-opacity:1;" d="M 111.671875 129.597656 C 110.5625 130.792969 110.070312 131.039062 108.671875 131.039062 C 105.589844 131.039062 103.449219 133.71875 104.640625 136.109375 C 105.421875 137.675781 105.421875 138.003906 104.640625 138.867188 C 104.148438 139.40625 104.109375 139.816406 104.4375 140.683594 C 104.765625 141.589844 104.683594 141.878906 104.027344 142.453125 C 102.875 143.441406 102.996094 144.019531 104.558594 145.214844 C 105.710938 146.121094 106.410156 146.285156 108.671875 146.285156 C 111.632812 146.285156 114.265625 145.171875 114.347656 143.894531 C 114.550781 140.96875 113.441406 140.144531 109.496094 140.105469 C 106.617188 140.105469 105.382812 139.570312 106.535156 138.828125 C 106.863281 138.621094 107.808594 138.457031 108.628906 138.457031 C 110.5625 138.457031 112.90625 137.054688 113.152344 135.777344 C 113.277344 135.242188 113.113281 134.128906 112.824219 133.304688 C 112.371094 131.90625 112.371094 131.78125 113.277344 131.453125 C 114.714844 130.914062 115.292969 129.597656 114.46875 128.8125 C 113.566406 127.867188 113.113281 127.988281 111.671875 129.597656 Z M 110.441406 134.089844 C 111.589844 134.953125 110.726562 136.148438 108.835938 136.3125 C 107.726562 136.398438 107.273438 136.230469 106.945312 135.613281 C 106.039062 133.964844 108.671875 132.8125 110.441406 134.089844 Z M 111.222656 142.578125 C 111.796875 142.785156 112.167969 143.15625 112.042969 143.402344 C 111.714844 143.9375 106.203125 143.9375 105.875 143.441406 C 105.257812 142.371094 109.082031 141.753906 111.222656 142.578125 Z M 111.222656 142.578125 "/>
<path style=" stroke:none;fill-rule:nonzero;fill:rgb(0%,0%,0%);fill-opacity:1;" d="M 297.851562 128.566406 C 297.398438 128.773438 296.699219 129.390625 296.328125 129.96875 C 295.753906 130.832031 295.300781 131.039062 293.820312 131.039062 C 290.242188 131.039062 288.515625 133.800781 290.121094 136.890625 C 290.738281 138.085938 290.738281 138.210938 290.078125 138.703125 C 289.546875 139.117188 289.421875 139.609375 289.585938 140.683594 C 289.75 141.835938 289.628906 142.207031 288.96875 142.660156 C 286.832031 144.101562 289.875 146.285156 294.027344 146.285156 C 298.632812 146.285156 301.140625 143.527344 298.714844 141.136719 C 297.851562 140.230469 297.355469 140.105469 294.601562 140.105469 C 291.847656 140.105469 291.476562 140.023438 291.601562 139.363281 C 291.683594 138.828125 292.257812 138.621094 293.820312 138.457031 C 297.398438 138.085938 299.25 136.066406 298.136719 133.675781 C 297.480469 132.195312 297.5625 131.945312 298.917969 131.246094 C 301.015625 130.175781 300.03125 127.742188 297.851562 128.566406 Z M 295.136719 133.757812 C 296.164062 134.046875 296.328125 135.203125 295.464844 135.941406 C 295.136719 136.230469 294.230469 136.398438 293.492188 136.3125 C 292.382812 136.230469 292.09375 135.984375 292.011719 135.078125 C 291.929688 134.296875 292.09375 133.925781 292.628906 133.800781 C 293.738281 133.511719 294.109375 133.511719 295.136719 133.757812 Z M 296.246094 142.578125 C 297.972656 143.238281 297.027344 143.8125 294.191406 143.8125 C 291.601562 143.8125 290.449219 143.238281 291.558594 142.535156 C 292.339844 142.042969 294.929688 142.082031 296.246094 142.578125 Z M 296.246094 142.578125 "/>
<path style=" stroke:none;fill-rule:nonzero;fill:rgb(0%,0%,0%);fill-opacity:1;" d="M 72.078125 129.84375 C 71.953125 130.546875 71.585938 131.203125 71.296875 131.328125 C 70.515625 131.617188 70.554688 132.316406 71.421875 133.511719 C 71.953125 134.253906 72.160156 135.367188 72.160156 137.675781 C 72.160156 141.671875 72.859375 142.703125 75.410156 142.496094 C 76.765625 142.414062 77.136719 142.207031 77.21875 141.464844 C 77.300781 140.804688 77.011719 140.394531 76.148438 139.941406 C 75.078125 139.40625 74.875 138.992188 74.628906 137.054688 C 74.339844 134.625 74.542969 133.925781 75.449219 133.925781 C 76.105469 133.925781 77.300781 132.8125 77.300781 132.234375 C 77.300781 132.027344 76.847656 131.65625 76.273438 131.371094 C 75.738281 131.121094 75.121094 130.378906 74.875 129.761719 C 74.585938 128.855469 74.214844 128.566406 73.394531 128.566406 C 72.53125 128.566406 72.285156 128.8125 72.078125 129.84375 Z M 72.078125 129.84375 "/>
<path style=" stroke:none;fill-rule:nonzero;fill:rgb(0%,0%,0%);fill-opacity:1;" d="M 61.46875 132.730469 C 59.90625 134.296875 59.824219 134.5 59.824219 137.015625 C 59.824219 139.488281 59.949219 139.777344 61.265625 141.136719 C 62.457031 142.371094 62.910156 142.578125 64.59375 142.578125 C 66.28125 142.578125 66.773438 142.371094 68.089844 141.136719 C 69.28125 140.023438 69.527344 139.570312 69.160156 139.199219 C 68.746094 138.785156 68.335938 138.828125 67.308594 139.238281 C 65.046875 140.144531 64.183594 140.230469 63.113281 139.527344 C 60.851562 138.042969 62.496094 136.890625 66.238281 137.34375 C 68.789062 137.675781 69.488281 137.386719 69.488281 136.109375 C 69.488281 134.871094 68.871094 133.636719 67.515625 132.152344 C 66.691406 131.285156 66.074219 131.039062 64.757812 131.039062 C 63.320312 131.039062 62.828125 131.285156 61.46875 132.730469 Z M 66.898438 134.089844 C 67.472656 134.664062 66.320312 135.160156 64.511719 135.160156 C 63.03125 135.160156 62.496094 134.996094 62.496094 134.582031 C 62.496094 134.253906 62.828125 133.882812 63.238281 133.757812 C 64.019531 133.554688 66.609375 133.757812 66.898438 134.089844 Z M 66.898438 134.089844 "/>
<path style=" stroke:none;fill-rule:nonzero;fill:rgb(0%,0%,0%);fill-opacity:1;" d="M 82.234375 131.328125 C 81.082031 131.535156 78.945312 133.386719 78.945312 134.171875 C 78.945312 134.996094 80.261719 135.242188 81 134.542969 C 81.945312 133.675781 84.042969 133.347656 85.070312 133.882812 C 86.261719 134.542969 85.769531 135.160156 84.042969 135.160156 C 82.605469 135.160156 79.398438 136.519531 78.863281 137.386719 C 78.246094 138.332031 78.574219 140.0625 79.601562 141.300781 C 80.425781 142.289062 81 142.578125 82.152344 142.578125 C 83.015625 142.578125 84 142.289062 84.453125 141.960938 C 85.113281 141.464844 85.316406 141.464844 86.097656 141.960938 C 86.550781 142.289062 87.332031 142.578125 87.824219 142.578125 C 88.648438 142.578125 88.6875 142.453125 88.484375 138.128906 C 88.402344 135.695312 88.113281 133.386719 87.90625 132.976562 C 87.457031 132.109375 85.152344 131 84 131.082031 C 83.589844 131.121094 82.808594 131.246094 82.234375 131.328125 Z M 85.277344 137.46875 C 86.179688 137.796875 86.097656 139.15625 85.152344 139.691406 C 83.632812 140.476562 81 140.105469 81 139.035156 C 81 137.796875 83.589844 136.808594 85.277344 137.46875 Z M 85.277344 137.46875 "/>
<path style=" stroke:none;fill-rule:nonzero;fill:rgb(0%,0%,0%);fill-opacity:1;" d="M 91.976562 131.328125 C 91.8125 131.453125 91.691406 134.046875 91.691406 137.097656 L 91.691406 142.578125 L 93.128906 142.578125 C 93.992188 142.578125 94.570312 142.371094 94.609375 142.042969 C 94.609375 141.792969 94.609375 140.230469 94.570312 138.582031 C 94.488281 134.832031 94.980469 133.839844 96.746094 134.007812 L 98.0625 134.128906 L 98.1875 138.332031 L 98.308594 142.578125 L 101.148438 142.578125 L 101.148438 138.085938 C 101.148438 133.839844 101.105469 133.511719 100.078125 132.316406 C 98.886719 130.875 96.707031 130.546875 95.800781 131.65625 C 95.351562 132.195312 95.1875 132.195312 94.445312 131.65625 C 93.5 131 92.429688 130.875 91.976562 131.328125 Z M 91.976562 131.328125 "/>
<path style=" stroke:none;fill-rule:nonzero;fill:rgb(0%,0%,0%);fill-opacity:1;" d="M 116.113281 131.617188 C 115.992188 131.945312 115.949219 134.089844 116.03125 136.355469 C 116.15625 140.023438 116.277344 140.558594 117.140625 141.507812 C 118.335938 142.785156 120.226562 142.90625 121.417969 141.878906 C 122.160156 141.175781 122.199219 141.175781 122.734375 141.878906 C 122.980469 142.246094 123.71875 142.578125 124.335938 142.578125 L 125.449219 142.578125 L 125.324219 136.890625 L 125.199219 131.246094 L 122.734375 131.246094 L 122.691406 134.128906 C 122.652344 138.25 122.609375 138.375 121.707031 139.28125 C 120.71875 140.269531 119.9375 140.3125 119.035156 139.40625 C 118.457031 138.828125 118.375 138.042969 118.457031 134.996094 L 118.621094 131.246094 L 117.472656 131.121094 C 116.773438 131.039062 116.277344 131.203125 116.113281 131.617188 Z M 116.113281 131.617188 "/>
<path style=" stroke:none;fill-rule:nonzero;fill:rgb(0%,0%,0%);fill-opacity:1;" d="M 135.398438 132.234375 C 132.808594 134.582031 132.765625 138.785156 135.316406 141.300781 C 137.824219 143.855469 141.8125 142.535156 143.25 138.703125 C 143.949219 136.890625 143.949219 136.726562 143.25 134.953125 C 141.769531 131.039062 138.070312 129.761719 135.398438 132.234375 Z M 140.371094 134.832031 C 140.742188 135.324219 141.03125 136.148438 141.03125 136.683594 C 141.03125 137.878906 140.207031 139.691406 139.632812 139.691406 C 139.386719 139.691406 138.769531 139.816406 138.316406 139.941406 C 136.261719 140.476562 134.78125 136.4375 136.382812 134.664062 C 137.332031 133.59375 139.589844 133.675781 140.371094 134.832031 Z M 140.371094 134.832031 "/>
<path style=" stroke:none;fill-rule:nonzero;fill:rgb(0%,0%,0%);fill-opacity:1;" d="M 251.472656 131.410156 C 251.347656 131.617188 251.183594 134.171875 251.140625 137.054688 L 251.019531 142.371094 L 253.898438 142.371094 L 253.773438 139.074219 C 253.648438 135.574219 253.855469 135.078125 255.871094 133.800781 C 257.105469 133.015625 257.351562 131.699219 256.324219 131.285156 C 255.953125 131.121094 255.335938 131.285156 254.964844 131.617188 C 254.390625 132.152344 254.183594 132.152344 253.527344 131.617188 C 252.582031 130.957031 251.800781 130.875 251.472656 131.410156 Z M 251.472656 131.410156 "/>
<path style=" stroke:none;fill-rule:nonzero;fill:rgb(0%,0%,0%);fill-opacity:1;" d="M 258.914062 131.328125 C 258.789062 131.535156 258.625 134.046875 258.585938 137.015625 L 258.417969 142.371094 L 261.257812 142.371094 L 261.257812 136.933594 C 261.296875 132.730469 261.175781 131.410156 260.761719 131.246094 C 259.941406 130.957031 259.117188 131 258.914062 131.328125 Z M 258.914062 131.328125 "/>
<path style=" stroke:none;fill-rule:nonzero;fill:rgb(0%,0%,0%);fill-opacity:1;" d="M 266.972656 131.492188 C 265.78125 131.824219 263.96875 133.59375 263.96875 134.378906 C 263.96875 135.078125 265.695312 135.242188 266.191406 134.542969 C 266.765625 133.757812 269.644531 133.304688 270.507812 133.839844 C 271.414062 134.460938 270.632812 135.160156 269.070312 135.160156 C 268.289062 135.160156 266.929688 135.53125 266.027344 135.984375 C 263.355469 137.34375 262.859375 139.199219 264.628906 141.300781 C 265.449219 142.332031 266.027344 142.578125 267.257812 142.578125 C 268.125 142.578125 269.027344 142.332031 269.316406 141.960938 C 269.601562 141.628906 270.054688 141.339844 270.34375 141.339844 C 270.632812 141.339844 271.082031 141.628906 271.371094 141.960938 C 271.660156 142.289062 272.316406 142.578125 272.808594 142.578125 C 273.714844 142.578125 273.757812 142.535156 273.550781 137.921875 C 273.34375 133.839844 273.222656 133.183594 272.398438 132.359375 C 271.371094 131.246094 268.988281 130.875 266.972656 131.492188 Z M 270.300781 137.46875 C 271.082031 137.757812 271.164062 138.910156 270.464844 139.609375 C 269.769531 140.3125 267.054688 140.230469 266.476562 139.527344 C 266.066406 139.035156 266.148438 138.746094 266.808594 138.085938 C 267.671875 137.21875 269.070312 136.972656 270.300781 137.46875 Z M 270.300781 137.46875 "/>
<path style=" stroke:none;fill-rule:nonzero;fill:rgb(0%,0%,0%);fill-opacity:1;" d="M 277.003906 131.328125 C 276.882812 131.535156 276.796875 134.128906 276.757812 137.136719 L 276.714844 142.617188 L 278.277344 142.496094 L 279.800781 142.371094 L 279.675781 139.28125 C 279.472656 135.117188 279.964844 133.925781 281.816406 133.925781 C 282.597656 133.925781 283.335938 134.171875 283.417969 134.417969 C 283.542969 134.707031 283.5 136.683594 283.378906 138.785156 L 283.171875 142.617188 L 284.777344 142.496094 C 286.132812 142.371094 286.378906 142.246094 286.335938 141.425781 C 286.335938 140.929688 286.296875 138.867188 286.253906 136.851562 C 286.171875 133.636719 286.050781 133.101562 285.144531 132.109375 C 284.078125 130.957031 281.816406 130.628906 280.910156 131.535156 C 280.539062 131.90625 280.171875 131.90625 279.390625 131.535156 C 278.15625 130.957031 277.25 130.914062 277.003906 131.328125 Z M 277.003906 131.328125 "/>
<path style=" stroke:none;fill-rule:nonzero;fill:rgb(0%,0%,0%);fill-opacity:1;" d="M 301.511719 131.328125 C 301.140625 131.453125 300.976562 132.730469 300.976562 135.53125 C 300.976562 139.035156 301.097656 139.734375 301.921875 140.96875 C 302.660156 142.082031 303.15625 142.414062 304.429688 142.496094 C 305.417969 142.578125 306.238281 142.414062 306.730469 141.960938 C 307.347656 141.382812 307.472656 141.382812 307.964844 141.960938 C 308.253906 142.289062 308.910156 142.578125 309.488281 142.578125 L 310.472656 142.578125 L 310.351562 136.890625 L 310.226562 131.246094 L 307.761719 131.246094 L 307.71875 134.914062 C 307.71875 138.210938 307.59375 138.664062 306.773438 139.324219 C 304.59375 141.09375 303.730469 139.941406 303.894531 135.488281 C 303.976562 133.59375 303.894531 131.824219 303.730469 131.535156 C 303.402344 131.039062 302.414062 130.914062 301.511719 131.328125 Z M 301.511719 131.328125 "/>
<path style=" stroke:none;fill-rule:nonzero;fill:rgb(0%,0%,0%);fill-opacity:1;" d="M 320.382812 132.441406 C 318.902344 133.839844 318.863281 133.925781 318.863281 136.765625 C 318.863281 139.488281 318.945312 139.734375 320.257812 141.09375 C 321.410156 142.289062 322.027344 142.578125 323.21875 142.578125 C 327.414062 142.578125 330.167969 138.003906 328.277344 134.210938 C 326.507812 130.75 323.097656 129.96875 320.382812 132.441406 Z M 325.644531 134.707031 C 326.222656 135.859375 326.179688 138.167969 325.480469 139.074219 C 325.152344 139.527344 324.414062 139.816406 323.589844 139.816406 C 321.945312 139.816406 321.121094 138.828125 321.121094 136.890625 C 321.121094 134.664062 321.738281 133.925781 323.589844 133.925781 C 324.78125 133.925781 325.316406 134.128906 325.644531 134.707031 Z M 325.644531 134.707031 "/>
<path style=" stroke:none;fill-rule:nonzero;fill:rgb(0%,0%,0%);fill-opacity:1;" d="M 263.355469 182.589844 L 245.671875 182.917969 L 244.851562 183.949219 C 244.398438 184.527344 243.578125 185.886719 243 186.957031 C 242.425781 188.03125 240.371094 191.78125 238.394531 195.242188 C 236.382812 198.742188 234.777344 201.667969 234.777344 201.75 C 234.777344 201.832031 234.039062 203.113281 233.132812 204.59375 C 232.226562 206.078125 231.488281 207.398438 231.488281 207.519531 C 231.488281 207.683594 230.871094 208.839844 230.132812 210.117188 C 229.351562 211.394531 227.664062 214.359375 226.347656 216.75 C 225.03125 219.140625 223.347656 222.109375 222.648438 223.34375 C 221.949219 224.582031 220.261719 227.546875 218.949219 229.9375 C 217.632812 232.328125 216.152344 234.921875 215.617188 235.746094 L 214.710938 237.230469 L 220.261719 246.667969 C 245.425781 289.277344 246.453125 290.882812 247.769531 291.171875 C 248.429688 291.296875 261.09375 291.171875 275.851562 290.925781 C 290.613281 290.675781 303.730469 290.511719 305.003906 290.554688 C 308.089844 290.675781 308.828125 290.386719 309.773438 288.78125 C 310.925781 286.761719 314.542969 280.210938 315.570312 278.355469 C 316.023438 277.449219 317.710938 274.484375 319.273438 271.761719 C 320.792969 269.042969 322.5625 265.871094 323.179688 264.757812 C 325.234375 260.964844 326.550781 258.578125 327.289062 257.339844 C 327.703125 256.640625 328.484375 255.28125 329.015625 254.25 C 329.59375 253.21875 330.992188 250.625 332.222656 248.480469 C 333.417969 246.339844 334.898438 243.617188 335.511719 242.503906 C 336.128906 241.351562 337.035156 239.785156 337.527344 239.003906 C 339.460938 235.746094 339.460938 235.871094 338.0625 233.894531 C 337.324219 232.90625 336.746094 231.957031 336.746094 231.792969 C 336.746094 231.667969 334.15625 227.175781 330.992188 221.902344 C 327.824219 216.585938 325.234375 212.175781 325.234375 212.054688 C 325.234375 211.722656 309.117188 184.816406 308.089844 183.457031 L 307.101562 182.136719 L 294.066406 182.21875 C 286.914062 182.21875 273.097656 182.425781 263.355469 182.589844 Z M 306.15625 185.1875 C 306.238281 185.269531 315.695312 201.296875 317.832031 205.007812 C 319.847656 208.46875 334.609375 233.109375 335.761719 234.882812 C 336.378906 235.871094 336.335938 236.035156 334.527344 239.125 C 331.894531 243.578125 322.5625 260.058594 318.738281 267.023438 C 317.957031 268.507812 316.847656 270.402344 316.3125 271.226562 C 315.777344 272.09375 315.367188 272.875 315.367188 272.957031 C 315.367188 273.082031 314.75 274.234375 314.007812 275.554688 C 313.226562 276.871094 311.460938 280.046875 310.019531 282.601562 C 307.347656 287.378906 306.484375 288.285156 305.046875 287.832031 C 304.59375 287.667969 291.601562 287.792969 276.222656 288.039062 L 248.222656 288.535156 L 247.523438 287.628906 C 247.152344 287.132812 246.496094 286.0625 246.042969 285.238281 C 245.632812 284.371094 244.769531 282.890625 244.191406 281.859375 C 243.164062 280.128906 229.390625 256.804688 228.609375 255.484375 C 228.402344 255.15625 227.5 253.550781 226.554688 251.984375 C 222.648438 245.226562 220.222656 241.144531 219.113281 239.496094 C 218.453125 238.507812 217.917969 237.5625 217.917969 237.3125 C 217.917969 237.109375 218.414062 236.160156 219.03125 235.171875 C 219.644531 234.222656 220.550781 232.699219 221.042969 231.792969 C 223.800781 226.640625 224.582031 225.238281 225.527344 223.757812 C 226.101562 222.851562 226.554688 222.027344 226.554688 221.941406 C 226.554688 221.820312 227.128906 220.75 227.828125 219.554688 C 228.527344 218.359375 229.636719 216.421875 230.214844 215.308594 C 230.832031 214.15625 232.269531 211.558594 233.421875 209.539062 C 235.886719 205.089844 236.957031 203.195312 239.382812 198.824219 C 240.410156 197.011719 242.179688 193.796875 243.328125 191.695312 C 244.523438 189.636719 245.46875 187.742188 245.46875 187.574219 C 245.46875 187.371094 245.921875 186.792969 246.453125 186.296875 C 247.195312 185.597656 247.730469 185.433594 248.796875 185.597656 C 249.578125 185.722656 262.40625 185.597656 277.332031 185.269531 C 300.398438 184.816406 305.828125 184.816406 306.15625 185.1875 Z M 306.15625 185.1875 "/>
<path style=" stroke:none;fill-rule:nonzero;fill:rgb(0%,0%,0%);fill-opacity:1;" d="M 99.296875 194.992188 C 85.277344 195.160156 66.609375 195.445312 57.808594 195.652344 L 41.816406 195.941406 L 40.828125 198.414062 C 40.253906 199.773438 39.511719 201.628906 39.183594 202.535156 C 38.8125 203.441406 38.28125 204.757812 37.992188 205.5 C 37.664062 206.203125 37.417969 206.945312 37.417969 207.191406 C 37.417969 207.398438 37.128906 208.136719 36.800781 208.757812 C 36.46875 209.417969 36.183594 210.238281 36.183594 210.570312 C 36.183594 210.941406 36.019531 211.394531 35.855469 211.601562 C 35.648438 211.847656 35.15625 212.917969 34.742188 214.074219 C 34.332031 215.183594 33.386719 217.78125 32.605469 219.839844 C 31.824219 221.859375 30.632812 225.035156 29.972656 226.847656 C 28.535156 230.597656 27.589844 233.070312 27.097656 234.265625 C 26.726562 235.210938 24.382812 241.3125 23.027344 244.976562 C 22.492188 246.339844 21.792969 248.273438 21.378906 249.304688 C 20.515625 251.53125 14.71875 266.652344 13.402344 270.113281 C 7.769531 284.867188 5.34375 291.625 5.425781 292.160156 C 5.550781 292.65625 6.660156 292.820312 11.511719 293.027344 C 20.148438 293.355469 161.710938 293.480469 170.140625 293.148438 C 177.871094 292.820312 177.625 292.945312 176.800781 290.347656 C 176.597656 289.648438 175.898438 287.378906 175.238281 285.363281 C 174.582031 283.300781 173.472656 279.714844 172.730469 277.324219 C 171.992188 274.9375 171.128906 272.339844 170.839844 271.558594 C 170.554688 270.773438 169.894531 268.714844 169.402344 267.023438 C 168.90625 265.335938 168.375 263.5625 168.167969 263.109375 C 168.003906 262.65625 167.429688 260.882812 166.933594 259.195312 C 165.660156 254.910156 164.878906 252.519531 164.425781 251.695312 C 164.222656 251.28125 164.054688 250.582031 164.054688 250.128906 C 164.054688 249.71875 163.808594 248.726562 163.480469 247.984375 C 163.152344 247.246094 162.289062 244.691406 161.589844 242.300781 C 160.847656 239.910156 159.738281 236.40625 159.121094 234.46875 C 158.503906 232.535156 157.558594 229.566406 157.066406 227.878906 C 156.574219 226.1875 155.996094 224.457031 155.792969 224.085938 C 155.585938 223.675781 155.421875 223.015625 155.421875 222.644531 C 155.421875 222.230469 155.175781 221.40625 154.847656 220.832031 C 154.558594 220.253906 154.1875 219.058594 154.023438 218.191406 C 153.859375 217.367188 153.570312 216.339844 153.367188 215.96875 C 153.160156 215.597656 152.585938 213.90625 152.132812 212.21875 C 151.640625 210.527344 151.105469 208.757812 150.898438 208.304688 C 150.691406 207.851562 150.40625 206.820312 150.242188 206.035156 C 150.117188 205.253906 149.828125 204.390625 149.664062 204.183594 C 149.5 203.933594 149.214844 203.113281 149.046875 202.328125 C 148.882812 201.546875 148.597656 200.679688 148.433594 200.472656 C 148.265625 200.226562 148.019531 199.402344 147.855469 198.621094 C 147.734375 197.835938 147.238281 196.558594 146.789062 195.816406 L 145.964844 194.5 L 135.398438 194.582031 C 129.558594 194.621094 113.316406 194.789062 99.296875 194.992188 Z M 145.308594 198.703125 C 145.636719 199.445312 146.5 202 147.199219 204.390625 C 147.9375 206.777344 149.046875 210.324219 149.707031 212.300781 C 150.363281 214.238281 150.898438 216.089844 150.898438 216.421875 C 150.898438 216.710938 151.144531 217.453125 151.472656 218.070312 C 151.804688 218.648438 152.171875 219.925781 152.339844 220.832031 C 152.503906 221.777344 152.75 222.601562 152.953125 222.726562 C 153.160156 222.851562 153.40625 223.675781 153.570312 224.582031 C 153.734375 225.488281 154.023438 226.3125 154.230469 226.476562 C 154.433594 226.597656 154.597656 227.136719 154.597656 227.671875 C 154.597656 228.207031 154.847656 229.277344 155.175781 230.019531 C 155.460938 230.761719 156.328125 233.316406 157.066406 235.707031 C 157.804688 238.097656 158.917969 241.597656 159.535156 243.535156 C 160.148438 245.472656 161.097656 248.441406 161.589844 250.128906 C 162.082031 251.820312 162.617188 253.589844 162.78125 254.042969 C 163.480469 255.855469 164.46875 259.113281 164.46875 259.648438 C 164.46875 259.976562 164.714844 260.71875 165.042969 261.335938 C 165.371094 261.914062 165.742188 263.191406 165.90625 264.097656 C 166.070312 265.046875 166.316406 265.871094 166.523438 265.992188 C 166.6875 266.117188 166.976562 266.902344 167.140625 267.722656 C 167.304688 268.589844 167.550781 269.457031 167.757812 269.703125 C 167.921875 269.910156 168.210938 270.816406 168.332031 271.722656 C 168.496094 272.585938 168.785156 273.617188 168.992188 273.988281 C 169.195312 274.359375 169.773438 276.046875 170.222656 277.738281 C 170.71875 279.425781 171.25 281.199219 171.457031 281.652344 C 172.15625 283.382812 173.925781 289.109375 173.925781 289.6875 C 173.925781 290.222656 164.054688 290.304688 91.484375 290.304688 C 10.238281 290.304688 9.046875 290.304688 9.046875 289.523438 C 9.046875 289.070312 9.375 287.957031 9.828125 287.050781 C 11.101562 284.167969 12.089844 281.570312 18.667969 263.933594 C 21.296875 256.886719 23.601562 250.828125 23.847656 250.457031 C 24.054688 250.046875 24.257812 249.511719 24.257812 249.261719 C 24.257812 249.015625 24.503906 248.234375 24.835938 247.53125 C 25.121094 246.792969 25.78125 245.101562 26.273438 243.742188 C 26.765625 242.382812 27.34375 240.980469 27.507812 240.652344 C 27.710938 240.28125 28 239.414062 28.125 238.671875 C 28.289062 237.972656 28.617188 237.273438 28.824219 237.148438 C 29.027344 236.984375 29.191406 236.570312 29.191406 236.199219 C 29.234375 235.828125 29.5625 234.757812 30.015625 233.851562 C 30.46875 232.945312 30.796875 231.875 30.835938 231.503906 C 30.835938 231.132812 31.003906 230.71875 31.207031 230.554688 C 31.414062 230.433594 31.699219 229.773438 31.867188 229.070312 C 32.03125 228.371094 32.398438 227.339844 32.730469 226.722656 C 33.058594 226.105469 33.304688 225.320312 33.304688 224.953125 C 33.304688 224.582031 33.429688 224.167969 33.59375 224.003906 C 33.757812 223.878906 36.019531 218.070312 38.609375 211.105469 L 43.378906 198.496094 L 63.9375 198.332031 C 75.242188 198.207031 93.582031 198 104.640625 197.835938 C 115.742188 197.671875 129.269531 197.507812 134.78125 197.464844 L 144.730469 197.382812 Z M 145.308594 198.703125 "/>
<path style=" stroke:none;fill-rule:nonzero;fill:rgb(0%,0%,0%);fill-opacity:1;" d="M 275.605469 301.019531 C 273.097656 302.542969 272.523438 305.140625 274.988281 303.90625 C 275.605469 303.617188 276.59375 303.121094 277.210938 302.875 C 278.445312 302.296875 278.855469 301.554688 278.527344 300.609375 C 278.195312 299.742188 277.621094 299.824219 275.605469 301.019531 Z M 275.605469 301.019531 "/>
<path style=" stroke:none;fill-rule:nonzero;fill:rgb(0%,0%,0%);fill-opacity:1;" d="M 103.738281 301.265625 C 102.914062 301.761719 102.382812 302.460938 102.382812 302.957031 C 102.382812 303.699219 102.585938 303.78125 103.820312 303.574219 C 105.546875 303.285156 107.355469 302.050781 107.191406 301.226562 C 107.066406 300.277344 105.21875 300.277344 103.738281 301.265625 Z M 103.738281 301.265625 "/>
<path style=" stroke:none;fill-rule:nonzero;fill:rgb(0%,0%,0%);fill-opacity:1;" d="M 55.136719 301.804688 C 54.808594 302.175781 54.683594 302.875 54.851562 303.453125 C 55.054688 304.316406 55.382812 304.480469 57.027344 304.605469 L 58.960938 304.730469 L 58.839844 310.828125 L 58.714844 316.925781 L 60.523438 316.800781 C 62.210938 316.679688 62.292969 316.597656 62.25 315.441406 C 62.210938 314.742188 62.128906 312.0625 62.046875 309.46875 L 61.882812 304.730469 L 63.113281 304.605469 C 65.828125 304.359375 66.199219 304.152344 66.199219 302.875 L 66.199219 301.636719 L 61.796875 301.636719 C 59.332031 301.636719 56.988281 301.515625 56.496094 301.390625 C 56 301.265625 55.425781 301.433594 55.136719 301.804688 Z M 55.136719 301.804688 "/>
<path style=" stroke:none;fill-rule:nonzero;fill:rgb(0%,0%,0%);fill-opacity:1;" d="M 120.0625 301.804688 C 119.28125 302.792969 120.265625 303.78125 121.871094 303.617188 C 122.9375 303.535156 123.144531 303.328125 123.144531 302.460938 C 123.144531 301.597656 122.9375 301.390625 121.871094 301.308594 C 121.089844 301.226562 120.390625 301.433594 120.0625 301.804688 Z M 120.0625 301.804688 "/>
<path style=" stroke:none;fill-rule:nonzero;fill:rgb(0%,0%,0%);fill-opacity:1;" d="M 234.820312 301.597656 C 234.367188 301.886719 234.242188 303.453125 234.242188 309.34375 L 234.242188 316.679688 L 236.011719 316.800781 L 237.738281 316.925781 L 237.449219 313.875 C 237.121094 310.332031 237.121094 310.332031 240.738281 310.703125 L 242.796875 310.910156 L 242.628906 313.917969 L 242.507812 316.925781 L 244.070312 316.800781 L 245.671875 316.679688 L 245.550781 311.734375 C 245.46875 309.015625 245.589844 305.839844 245.835938 304.730469 C 246.167969 302.957031 246.125 302.542969 245.507812 301.925781 C 244.972656 301.390625 244.480469 301.265625 243.617188 301.472656 L 242.464844 301.761719 L 242.710938 304.5625 C 243 307.820312 242.628906 308.230469 239.835938 308.230469 C 237.328125 308.230469 237.121094 307.902344 237.449219 304.8125 C 237.695312 302.378906 237.65625 302.089844 236.914062 301.679688 C 235.886719 301.144531 235.558594 301.144531 234.820312 301.597656 Z M 234.820312 301.597656 "/>
<path style=" stroke:none;fill-rule:nonzero;fill:rgb(0%,0%,0%);fill-opacity:1;" d="M 290.492188 303.535156 C 289.914062 304.152344 289.460938 304.8125 289.460938 304.976562 C 289.460938 305.183594 288.515625 305.347656 287.367188 305.347656 C 285.597656 305.347656 285.105469 305.554688 284.078125 306.542969 C 282.71875 307.902344 282.597656 308.847656 283.5 310.992188 C 284.078125 312.3125 284.078125 312.558594 283.5 313.175781 C 283.089844 313.628906 282.964844 314.289062 283.128906 315.15625 C 283.335938 316.144531 283.214844 316.515625 282.71875 316.71875 C 282.347656 316.886719 282.0625 317.421875 282.0625 318.078125 C 282.0625 319.605469 284.160156 320.59375 287.449219 320.59375 C 292.054688 320.59375 294.5625 317.832031 292.136719 315.441406 C 291.273438 314.535156 290.777344 314.414062 288.066406 314.414062 C 286.253906 314.414062 284.859375 314.207031 284.691406 313.960938 C 284.28125 313.257812 285.351562 312.765625 287.203125 312.765625 C 290.449219 312.765625 292.628906 310.332031 291.558594 307.984375 C 290.902344 306.5 290.984375 305.757812 291.847656 305.757812 C 293.535156 305.757812 294.191406 303.65625 292.792969 302.875 C 291.683594 302.296875 291.601562 302.339844 290.492188 303.535156 Z M 288.804688 308.066406 C 289.175781 308.191406 289.460938 308.726562 289.460938 309.261719 C 289.460938 310.292969 288.765625 310.703125 286.996094 310.703125 C 285.761719 310.703125 284.777344 309.589844 285.269531 308.765625 C 285.804688 307.941406 287.613281 307.613281 288.804688 308.066406 Z M 289.914062 316.925781 C 291.3125 317.667969 290.328125 318.121094 287.367188 318.121094 C 285.1875 318.121094 284.527344 317.996094 284.527344 317.542969 C 284.527344 317.214844 284.777344 316.84375 285.0625 316.761719 C 285.96875 316.347656 289.09375 316.472656 289.914062 316.925781 Z M 289.914062 316.925781 "/>
<path style=" stroke:none;fill-rule:nonzero;fill:rgb(0%,0%,0%);fill-opacity:1;" d="M 260.394531 305.222656 C 259.570312 305.554688 259.777344 306.460938 261.09375 308.3125 C 262.695312 310.496094 262.65625 311.652344 260.84375 313.875 C 259.324219 315.773438 259.117188 317.089844 260.433594 317.089844 C 260.96875 317.089844 261.542969 316.433594 262.203125 315.113281 C 262.738281 314.042969 263.476562 313.175781 263.804688 313.175781 C 264.136719 313.175781 264.667969 313.917969 265.039062 314.824219 C 265.863281 316.800781 266.890625 317.503906 268.082031 316.886719 L 268.945312 316.433594 L 268 314.90625 C 267.507812 314.082031 266.644531 312.765625 266.148438 311.980469 C 265.613281 311.199219 265.203125 310.457031 265.203125 310.292969 C 265.203125 310.167969 265.863281 309.261719 266.644531 308.355469 C 268.207031 306.5 268.453125 305.59375 267.425781 305.183594 C 266.5625 304.851562 265.863281 305.46875 265.203125 306.996094 C 264.710938 308.191406 263.558594 308.726562 263.558594 307.777344 C 263.558594 307.078125 261.914062 304.933594 261.378906 304.976562 C 261.09375 304.976562 260.640625 305.101562 260.394531 305.222656 Z M 260.394531 305.222656 "/>
<path style=" stroke:none;fill-rule:nonzero;fill:rgb(0%,0%,0%);fill-opacity:1;" d="M 66.691406 305.839844 C 66.363281 306.171875 66.199219 308.066406 66.199219 311.570312 C 66.199219 316.761719 66.199219 316.800781 67.183594 316.96875 C 69.078125 317.339844 69.40625 316.761719 69.160156 313.589844 C 68.910156 310.210938 69.40625 308.890625 71.171875 308.273438 C 72.117188 307.941406 72.367188 307.613281 72.367188 306.625 C 72.367188 305.183594 71.503906 304.933594 70.023438 305.964844 C 69.242188 306.5 69.117188 306.5 68.910156 305.964844 C 68.625 305.222656 67.390625 305.140625 66.691406 305.839844 Z M 66.691406 305.839844 "/>
<path style=" stroke:none;fill-rule:nonzero;fill:rgb(0%,0%,0%);fill-opacity:1;" d="M 74.996094 306.832031 C 74.214844 307.65625 73.640625 308.5625 73.722656 308.808594 C 73.96875 309.550781 75.242188 309.589844 76.023438 308.890625 C 77.011719 307.984375 79.066406 307.65625 80.136719 308.191406 C 81.328125 308.847656 80.835938 309.46875 79.109375 309.46875 C 77.054688 309.46875 74.050781 310.949219 73.597656 312.1875 C 72.984375 313.753906 73.105469 314.246094 74.257812 315.609375 C 75.492188 317.089844 77.464844 317.339844 79.4375 316.144531 C 80.589844 315.484375 80.671875 315.484375 81.042969 316.183594 C 81.289062 316.554688 81.945312 316.886719 82.523438 316.886719 C 83.550781 316.886719 83.589844 316.84375 83.304688 314.699219 C 83.179688 313.546875 83.054688 311.40625 83.054688 309.960938 C 83.054688 307.777344 82.890625 307.203125 82.027344 306.378906 C 81.207031 305.511719 80.628906 305.347656 78.738281 305.347656 C 76.640625 305.347656 76.355469 305.46875 74.996094 306.832031 Z M 80.382812 312.105469 C 81.164062 312.683594 81.164062 312.683594 80.382812 313.589844 C 79.273438 314.824219 76.3125 314.617188 76.148438 313.257812 C 75.941406 311.773438 78.820312 310.949219 80.382812 312.105469 Z M 80.382812 312.105469 "/>
<path style=" stroke:none;fill-rule:nonzero;fill:rgb(0%,0%,0%);fill-opacity:1;" d="M 86.632812 305.675781 C 86.46875 305.882812 86.304688 309.304688 86.222656 313.300781 C 86.097656 320.386719 86.097656 320.550781 86.960938 320.71875 C 87.457031 320.800781 88.277344 320.71875 88.769531 320.511719 C 89.511719 320.265625 89.675781 319.976562 89.46875 319.152344 C 89.347656 318.574219 89.101562 317.625 88.976562 317.050781 C 88.6875 316.019531 88.769531 315.976562 89.882812 316.226562 C 92.964844 316.96875 93.375 316.96875 94.238281 316.226562 C 95.433594 315.113281 96.214844 313.09375 96.214844 310.949219 C 96.214844 308.765625 95.800781 307.53125 94.570312 306.253906 C 93.789062 305.429688 93.375 305.304688 91.9375 305.511719 C 91.03125 305.636719 90.085938 305.757812 89.839844 305.800781 C 89.636719 305.800781 88.855469 305.71875 88.15625 305.554688 C 87.414062 305.386719 86.757812 305.429688 86.632812 305.675781 Z M 93.335938 309.015625 C 93.910156 310.128906 93.871094 312.476562 93.253906 313.300781 C 92.964844 313.671875 92.226562 314.082031 91.648438 314.207031 C 89.386719 314.742188 87.90625 311.320312 89.46875 309.136719 C 90.292969 307.941406 92.71875 307.859375 93.335938 309.015625 Z M 93.335938 309.015625 "/>
<path style=" stroke:none;fill-rule:nonzero;fill:rgb(0%,0%,0%);fill-opacity:1;" d="M 100.902344 306.253906 C 99.132812 307.613281 98.761719 308.273438 98.433594 310.167969 C 97.898438 313.835938 100.121094 316.886719 103.367188 316.886719 C 104.765625 316.886719 105.421875 316.597656 106.738281 315.484375 C 108.054688 314.332031 108.261719 313.960938 107.808594 313.546875 C 107.398438 313.09375 107.066406 313.09375 105.957031 313.546875 C 103.695312 314.453125 102.832031 314.535156 101.765625 313.835938 C 99.460938 312.3125 101.148438 311.238281 105.054688 311.691406 C 106.246094 311.816406 107.5625 311.816406 107.890625 311.691406 C 109.496094 311.074219 107.972656 307.160156 105.710938 305.964844 C 103.984375 305.101562 102.296875 305.183594 100.902344 306.253906 Z M 105.589844 308.4375 C 106.121094 308.972656 104.808594 309.507812 103.203125 309.386719 C 101.351562 309.261719 100.53125 308.480469 101.847656 308.109375 C 102.667969 307.859375 105.257812 308.066406 105.589844 308.4375 Z M 105.589844 308.4375 "/>
<path style=" stroke:none;fill-rule:nonzero;fill:rgb(0%,0%,0%);fill-opacity:1;" d="M 110.277344 305.839844 C 109.125 306.996094 110.441406 308.230469 112.867188 308.230469 C 113.851562 308.230469 114.757812 308.394531 114.921875 308.601562 C 115.046875 308.808594 114.097656 310.003906 112.824219 311.199219 C 110.480469 313.382812 109.289062 315.359375 109.660156 316.347656 C 109.824219 316.71875 110.972656 316.886719 113.894531 316.886719 C 117.636719 316.886719 117.964844 316.800781 118.210938 316.019531 C 118.621094 314.742188 117.800781 314.207031 115.621094 314.289062 C 112.414062 314.414062 112.371094 314.042969 115.375 310.785156 C 117.554688 308.394531 118.046875 307.613281 117.921875 306.707031 C 117.800781 305.554688 117.800781 305.554688 114.304688 305.429688 C 111.921875 305.347656 110.644531 305.46875 110.277344 305.839844 Z M 110.277344 305.839844 "/>
<path style=" stroke:none;fill-rule:nonzero;fill:rgb(0%,0%,0%);fill-opacity:1;" d="M 120.511719 305.882812 C 120.183594 306.292969 120.0625 308.109375 120.144531 311.570312 L 120.265625 316.679688 L 121.460938 316.800781 C 122.117188 316.886719 122.773438 316.761719 122.898438 316.554688 C 123.023438 316.308594 123.0625 313.753906 122.9375 310.867188 C 122.734375 305.882812 122.691406 305.554688 121.871094 305.429688 C 121.417969 305.347656 120.800781 305.59375 120.511719 305.882812 Z M 120.511719 305.882812 "/>
<path style=" stroke:none;fill-rule:nonzero;fill:rgb(0%,0%,0%);fill-opacity:1;" d="M 127.957031 306.007812 C 126.761719 306.832031 125.40625 309.550781 125.40625 311.117188 C 125.40625 312.683594 126.761719 315.402344 127.957031 316.226562 C 129.476562 317.296875 131.984375 317.050781 133.671875 315.691406 C 136.550781 313.300781 136.632812 309.550781 133.917969 306.664062 C 132.847656 305.554688 132.355469 305.347656 130.75 305.347656 C 129.722656 305.347656 128.449219 305.636719 127.957031 306.007812 Z M 132.5625 309.136719 C 133.875 310.992188 133.011719 313.589844 130.875 314.207031 C 130.175781 314.371094 129.640625 314.164062 128.902344 313.421875 C 126.929688 311.445312 127.957031 308.230469 130.546875 308.230469 C 131.53125 308.230469 132.148438 308.519531 132.5625 309.136719 Z M 132.5625 309.136719 "/>
<path style=" stroke:none;fill-rule:nonzero;fill:rgb(0%,0%,0%);fill-opacity:1;" d="M 250.195312 306.789062 C 247.851562 309.261719 247.8125 312.886719 250.074219 315.484375 C 251.101562 316.636719 251.59375 316.886719 252.910156 316.886719 C 255.128906 316.886719 257.804688 315.15625 257.804688 313.710938 C 257.804688 313.011719 256.15625 313.050781 255.171875 313.792969 C 254.0625 314.617188 252.292969 314.578125 251.511719 313.671875 C 249.949219 311.980469 251.183594 311.28125 255.089844 311.734375 C 257.1875 311.941406 257.761719 311.859375 258.214844 311.320312 C 258.667969 310.785156 258.625 310.414062 258.007812 309.015625 C 256.242188 305.140625 252.664062 304.109375 250.195312 306.789062 Z M 254.964844 308.273438 C 256.242188 308.933594 255.460938 309.46875 253.238281 309.46875 C 251.757812 309.46875 251.222656 309.304688 251.222656 308.890625 C 251.222656 307.859375 253.484375 307.488281 254.964844 308.273438 Z M 254.964844 308.273438 "/>
<path style=" stroke:none;fill-rule:nonzero;fill:rgb(0%,0%,0%);fill-opacity:1;" d="M 272.605469 306.210938 C 270.878906 307.242188 271.125 306.996094 270.796875 308.148438 C 270.382812 309.46875 271.496094 309.757812 272.851562 308.683594 C 273.960938 307.777344 276.058594 307.570312 277.085938 308.191406 C 277.992188 308.765625 277.210938 309.46875 275.605469 309.46875 C 273.632812 309.46875 271.125 310.664062 270.589844 311.859375 C 269.890625 313.339844 270.054688 314.246094 271.207031 315.609375 C 272.027344 316.636719 272.605469 316.886719 273.839844 316.886719 C 274.703125 316.886719 275.605469 316.636719 275.894531 316.265625 C 276.550781 315.441406 277.785156 315.484375 278.113281 316.308594 C 278.402344 317.089844 280.253906 316.925781 280.089844 316.144531 C 280.046875 315.855469 279.921875 313.710938 279.882812 311.445312 C 279.757812 307.488281 279.71875 307.242188 278.609375 306.335938 C 277.167969 305.058594 274.578125 305.015625 272.605469 306.210938 Z M 276.882812 311.773438 C 277.664062 312.0625 277.746094 313.21875 277.046875 313.917969 C 276.101562 314.867188 272.605469 314.414062 272.605469 313.339844 C 272.605469 312.105469 275.195312 311.117188 276.882812 311.773438 Z M 276.882812 311.773438 "/>
<path style=" stroke:none;fill-rule:nonzero;fill:rgb(0%,0%,0%);fill-opacity:1;" d="M 296.699219 306.210938 C 293.984375 308.355469 293.574219 312.0625 295.753906 314.90625 C 296.988281 316.515625 297.273438 316.679688 299.125 316.800781 C 300.894531 316.886719 301.34375 316.761719 302.496094 315.730469 C 305.167969 313.257812 305.210938 309.097656 302.621094 306.5 C 301.140625 305.015625 298.386719 304.894531 296.699219 306.210938 Z M 301.304688 308.726562 C 302.003906 309.425781 301.921875 312.96875 301.179688 313.589844 C 300.277344 314.332031 298.632812 314.207031 297.6875 313.382812 C 296.660156 312.476562 296.574219 310.042969 297.5625 308.972656 C 298.304688 308.148438 300.5625 307.984375 301.304688 308.726562 Z M 301.304688 308.726562 "/>
<path style=" stroke:none;fill-rule:nonzero;fill:rgb(0%,0%,0%);fill-opacity:1;" d="M 307.101562 305.429688 C 307.101562 305.511719 307.019531 308.109375 306.9375 311.238281 L 306.8125 316.925781 L 308.335938 316.800781 L 309.816406 316.679688 L 309.652344 313.671875 C 309.570312 311.859375 309.734375 310.167969 310.019531 309.425781 C 310.472656 308.3125 310.71875 308.191406 312.035156 308.3125 L 313.515625 308.4375 L 313.394531 312.640625 L 313.3125 316.886719 L 316.640625 316.886719 L 316.351562 312.230469 C 316.1875 309.425781 315.859375 307.242188 315.53125 306.707031 C 314.75 305.46875 313.105469 305.101562 311.335938 305.757812 C 310.308594 306.128906 309.816406 306.128906 309.488281 305.800781 C 309.117188 305.429688 307.226562 305.140625 307.101562 305.429688 Z M 307.101562 305.429688 "/>
<path style=" stroke:none;fill-rule:nonzero;fill:rgb(0%,0%,0%);fill-opacity:1;" d="M 320.546875 306.996094 C 319.273438 308.4375 319.066406 308.933594 319.066406 310.746094 C 319.066406 316.0625 323.464844 318.699219 327.289062 315.648438 C 330.167969 313.382812 330.25 309.054688 327.414062 306.582031 C 326.304688 305.554688 325.644531 305.347656 324.042969 305.347656 C 322.234375 305.347656 321.902344 305.511719 320.546875 306.996094 Z M 326.058594 309.015625 C 326.261719 309.46875 326.46875 310.414062 326.46875 311.117188 C 326.46875 313.09375 325.808594 314 324.328125 314 C 323.632812 314 322.683594 313.710938 322.273438 313.300781 C 321.328125 312.476562 321.289062 309.796875 322.191406 308.890625 C 323.097656 307.941406 325.523438 308.027344 326.058594 309.015625 Z M 326.058594 309.015625 "/>
</g>
</svg>
