<?xml version="1.0" encoding="UTF-8"?>
<svg xmlns="http://www.w3.org/2000/svg" xmlns:xlink="http://www.w3.org/1999/xlink" width="300pt" height="120pt" viewBox="0 0 300 120" version="1.1">
<g id="surface1">
<path style=" stroke:none;fill-rule:nonzero;fill:rgb(0%,0%,0%);fill-opacity:1;" d="M 100.601562 5.035156 C 100.265625 5.199219 100 5.566406 100 5.800781 C 100 6.035156 99.699219 6.632812 99.332031 7.101562 L 98.632812 7.964844 L 99.332031 8.332031 C 99.964844 8.667969 100.035156 8.898438 99.800781 11 C 99.601562 13.035156 99.667969 13.300781 100.234375 13.601562 C 101.433594 14.265625 101.765625 13.601562 101.601562 11.035156 C 101.433594 8.898438 101.5 8.601562 102.066406 8.300781 C 102.566406 8.035156 102.632812 7.832031 102.332031 7.5 C 102.066406 7.167969 102.066406 6.898438 102.367188 6.398438 C 103.199219 5.101562 102.035156 4.199219 100.601562 5.035156 Z M 100.601562 5.035156 "/>
<path style=" stroke:none;fill-rule:nonzero;fill:rgb(0%,0%,0%);fill-opacity:1;" d="M 114.300781 5.199219 C 113.933594 5.667969 113.964844 5.800781 114.5 6.199219 C 115.265625 6.765625 115.398438 6.765625 116.132812 6.234375 C 116.699219 5.800781 116.699219 5.765625 116.167969 5.234375 C 115.464844 4.535156 114.867188 4.5 114.300781 5.199219 Z M 114.300781 5.199219 "/>
<path style=" stroke:none;fill-rule:nonzero;fill:rgb(0%,0%,0%);fill-opacity:1;" d="M 121.734375 5.066406 C 121.5 5.300781 121.332031 5.898438 121.332031 6.398438 C 121.332031 7.265625 121.234375 7.332031 120.101562 7.332031 C 118.367188 7.367188 117.667969 8 117.464844 9.734375 C 117.132812 13 118.300781 14.199219 121.367188 13.734375 L 123.167969 13.5 L 123.066406 11.167969 C 123 9.867188 123.101562 8.167969 123.300781 7.332031 C 123.566406 6.101562 123.535156 5.734375 123.101562 5.265625 C 122.464844 4.566406 122.265625 4.535156 121.734375 5.066406 Z M 121.332031 8.964844 C 122.101562 10.433594 121.632812 12.332031 120.5 12.332031 C 119.332031 12.332031 118.765625 10.734375 119.464844 9.367188 C 120.101562 8.199219 120.832031 8.035156 121.332031 8.964844 Z M 121.332031 8.964844 "/>
<path style=" stroke:none;fill-rule:nonzero;fill:rgb(0%,0%,0%);fill-opacity:1;" d="M 145.433594 5.066406 C 145.234375 5.300781 145 5.867188 144.933594 6.332031 C 144.832031 7.066406 144.632812 7.167969 143.367188 7.265625 C 141.5 7.398438 140.699219 8.300781 140.667969 10.265625 C 140.667969 12.035156 141.433594 13.601562 142.433594 13.832031 C 142.832031 13.933594 143.964844 13.898438 144.964844 13.765625 L 146.765625 13.5 L 146.800781 9.167969 C 146.832031 5.464844 146.765625 4.832031 146.300781 4.734375 C 146 4.699219 145.601562 4.832031 145.433594 5.066406 Z M 145.332031 10.398438 C 145.332031 12 144.035156 12.898438 143.066406 11.933594 C 142.367188 11.234375 142.566406 9.433594 143.433594 8.832031 C 144.132812 8.332031 144.199219 8.367188 144.765625 9.035156 C 145.066406 9.433594 145.332031 10.035156 145.332031 10.398438 Z M 145.332031 10.398438 "/>
<path style=" stroke:none;fill-rule:nonzero;fill:rgb(0%,0%,0%);fill-opacity:1;" d="M 192.734375 5.066406 C 192.566406 5.300781 192.332031 5.867188 192.265625 6.332031 C 192.167969 7.066406 191.964844 7.167969 190.734375 7.265625 C 188.765625 7.398438 188.167969 8.367188 188.433594 10.933594 C 188.699219 13.5 189.464844 14.132812 191.800781 13.832031 C 192.734375 13.699219 193.632812 13.464844 193.800781 13.332031 C 193.964844 13.167969 194.132812 11.632812 194.167969 9.933594 C 194.199219 8.234375 194.332031 6.601562 194.464844 6.300781 C 194.601562 5.964844 194.5 5.535156 194.167969 5.199219 C 193.5 4.566406 193.199219 4.535156 192.734375 5.066406 Z M 192.464844 9.601562 C 192.867188 11.066406 192.300781 12.332031 191.199219 12.332031 C 190.199219 12.332031 189.933594 11.964844 189.933594 10.464844 C 189.933594 8.199219 191.867188 7.5 192.464844 9.601562 Z M 192.464844 9.601562 "/>
<path style=" stroke:none;fill-rule:nonzero;fill:rgb(0%,0%,0%);fill-opacity:1;" d="M 233.800781 5.035156 C 233.667969 5.265625 233.566406 5.832031 233.535156 6.300781 C 233.5 7.101562 233.367188 7.167969 231.933594 7.265625 C 230.066406 7.398438 229.332031 8.167969 229.332031 10.035156 C 229.332031 13.464844 230.132812 14.167969 233.5 13.765625 L 235.5 13.5 L 235.535156 9.332031 C 235.601562 5.199219 235.464844 4.699219 234.433594 4.667969 C 234.234375 4.667969 233.933594 4.832031 233.800781 5.035156 Z M 233.464844 9.199219 C 233.800781 10.066406 233.699219 11.5 233.265625 11.933594 C 232.632812 12.566406 232.066406 12.398438 231.464844 11.5 C 231 10.800781 231 10.5 231.332031 9.667969 C 231.800781 8.566406 233.101562 8.265625 233.464844 9.199219 Z M 233.464844 9.199219 "/>
<path style=" stroke:none;fill-rule:nonzero;fill:rgb(0%,0%,0%);fill-opacity:1;" d="M 248.265625 4.898438 C 247.601562 5.066406 247.464844 5.5 247.132812 8.066406 C 246.898438 10.167969 247.199219 10.464844 248.699219 9.632812 C 249.566406 9.199219 250.332031 9.765625 250.332031 10.832031 C 250.332031 12.035156 249.535156 12.5 248.367188 12 C 247.265625 11.566406 246.667969 11.765625 246.667969 12.566406 C 246.667969 13.800781 248.933594 14.398438 250.800781 13.667969 C 251.300781 13.5 251.898438 12.832031 252.199219 12.199219 C 252.699219 11.167969 252.699219 10.933594 252.265625 9.800781 C 251.867188 8.867188 251.464844 8.433594 250.632812 8.167969 C 249.167969 7.667969 248.898438 6.667969 250.234375 6.667969 C 252.601562 6.632812 252.535156 4.867188 250.132812 4.765625 C 249.433594 4.765625 248.566406 4.800781 248.265625 4.898438 Z M 248.265625 4.898438 "/>
<path style=" stroke:none;fill-rule:nonzero;fill:rgb(0%,0%,0%);fill-opacity:1;" d="M 253.765625 5.464844 C 252.964844 6.167969 252.898438 6.367188 253.167969 7.199219 C 253.464844 8.066406 253.699219 8.167969 255.167969 8.265625 C 256.566406 8.332031 256.898438 8.234375 257.265625 7.667969 C 257.832031 6.699219 257.5 5.765625 256.332031 5.167969 C 255.066406 4.5 254.867188 4.535156 253.765625 5.464844 Z M 253.765625 5.464844 "/>
<path style=" stroke:none;fill-rule:nonzero;fill:rgb(0%,0%,0%);fill-opacity:1;" d="M 18.800781 5.398438 C 18.632812 5.632812 18.5 7.632812 18.5 9.832031 C 18.5 13.101562 18.601562 13.832031 19 13.898438 C 19.898438 14.066406 20.433594 13.433594 20.464844 12.101562 C 20.5 10.832031 20.5 10.832031 22.132812 10.632812 C 24.066406 10.433594 24.667969 9.765625 24.667969 7.765625 C 24.667969 5.632812 23.867188 5 21.199219 5 C 19.898438 5 18.964844 5.167969 18.800781 5.398438 Z M 23.167969 7.832031 C 23.167969 8.199219 21.199219 8.464844 20.433594 8.199219 C 20.167969 8.101562 20.066406 7.832031 20.167969 7.667969 C 20.433594 7.199219 23.167969 7.367188 23.167969 7.832031 Z M 23.167969 7.832031 "/>
<path style=" stroke:none;fill-rule:nonzero;fill:rgb(0%,0%,0%);fill-opacity:1;" d="M 178.265625 5.234375 C 177.898438 5.332031 177.667969 5.699219 177.667969 6.132812 C 177.667969 6.535156 177.5 7.035156 177.265625 7.265625 C 177 7.535156 177 7.765625 177.367188 8.199219 C 177.667969 8.535156 177.832031 9.566406 177.867188 10.867188 C 177.867188 13.167969 178.332031 14 179.535156 14 C 180.132812 14 180.332031 13.832031 180.332031 13.234375 C 180.332031 12.800781 180.199219 12.332031 180.035156 12.167969 C 179.867188 11.964844 179.667969 11.167969 179.632812 10.367188 C 179.535156 9.300781 179.667969 8.832031 180.101562 8.5 C 180.800781 8 180.832031 7.464844 180.199219 7.234375 C 179.933594 7.132812 179.667969 6.632812 179.601562 6.132812 C 179.5 5.167969 179.199219 5 178.265625 5.234375 Z M 178.265625 5.234375 "/>
<path style=" stroke:none;fill-rule:nonzero;fill:rgb(0%,0%,0%);fill-opacity:1;" d="M 210.265625 5.234375 C 209.867188 5.332031 209.667969 5.699219 209.667969 6.332031 C 209.667969 7.5 208.566406 8.300781 207.832031 7.667969 C 207.566406 7.464844 206.464844 7.332031 205.101562 7.398438 L 202.832031 7.5 L 202.832031 13.5 L 203.765625 13.601562 C 204.667969 13.699219 204.667969 13.699219 204.667969 11.601562 C 204.667969 9.265625 205.167969 8.167969 206.101562 8.535156 C 206.566406 8.699219 206.667969 9.167969 206.667969 11.167969 C 206.667969 13.667969 207 14.234375 208.167969 13.800781 C 208.566406 13.632812 208.667969 12.964844 208.667969 10.800781 C 208.667969 9.265625 208.800781 8 208.964844 8 C 209.667969 8 209.964844 9.035156 209.898438 10.964844 C 209.832031 13.167969 210.332031 14 211.734375 14 C 212.699219 14 212.898438 12.964844 212.066406 12.398438 C 211.035156 11.734375 211 8.832031 212 8.5 C 212.765625 8.265625 212.898438 7.5 212.199219 7.234375 C 211.933594 7.132812 211.667969 6.632812 211.601562 6.132812 C 211.5 5.167969 211.199219 5 210.265625 5.234375 Z M 210.265625 5.234375 "/>
<path style=" stroke:none;fill-rule:nonzero;fill:rgb(0%,0%,0%);fill-opacity:1;" d="M 27.5 7.300781 L 26.167969 7.5 L 25.898438 10.300781 C 25.667969 13.132812 25.867188 14 26.867188 14 C 27.535156 14 27.800781 13.332031 27.699219 11.898438 C 27.566406 9.699219 27.898438 8.832031 29.066406 8.398438 C 29.933594 8.066406 30.035156 7.933594 29.667969 7.5 C 29.433594 7.234375 29.167969 7.035156 29.035156 7.035156 C 28.933594 7.066406 28.234375 7.199219 27.5 7.300781 Z M 27.5 7.300781 "/>
<path style=" stroke:none;fill-rule:nonzero;fill:rgb(0%,0%,0%);fill-opacity:1;" d="M 32.367188 7.234375 C 32.101562 7.332031 31.535156 7.800781 31.101562 8.265625 C 30.066406 9.367188 30 12 31 13 C 32.433594 14.433594 35.265625 14.066406 36.167969 12.300781 C 36.667969 11.367188 37.332031 11 37.332031 11.667969 C 37.332031 11.867188 37.699219 12.398438 38.167969 12.867188 C 38.832031 13.535156 39.199219 13.667969 40.132812 13.5 C 41 13.332031 41.300781 13.398438 41.464844 13.867188 C 41.601562 14.199219 41.464844 14.667969 41.167969 14.964844 C 40.699219 15.433594 40.535156 15.433594 39.5 14.867188 C 37.832031 13.964844 36.765625 14.601562 37.667969 16 C 37.898438 16.367188 38.566406 16.5 40.132812 16.5 C 43.132812 16.5 43.300781 16.234375 43.332031 11.433594 C 43.332031 9.398438 43.199219 7.632812 43.035156 7.535156 C 42.898438 7.433594 41.898438 7.300781 40.898438 7.265625 C 39.332031 7.199219 38.898438 7.332031 38.167969 8 C 37.699219 8.433594 37.332031 8.964844 37.332031 9.234375 C 37.332031 9.898438 37.101562 9.765625 35.933594 8.5 C 34.867188 7.367188 33.332031 6.800781 32.367188 7.234375 Z M 34.535156 9.867188 C 35 11.734375 33.167969 13.234375 32.332031 11.699219 C 31.867188 10.765625 31.898438 9.933594 32.535156 9.066406 C 32.933594 8.464844 33.167969 8.398438 33.667969 8.667969 C 34.035156 8.867188 34.433594 9.398438 34.535156 9.867188 Z M 41.332031 8.964844 C 41.800781 9.867188 41.765625 11.765625 41.265625 12.265625 C 40.300781 13.234375 39 12.199219 39 10.5 C 39 8.667969 40.601562 7.632812 41.332031 8.964844 Z M 41.332031 8.964844 "/>
<path style=" stroke:none;fill-rule:nonzero;fill:rgb(0%,0%,0%);fill-opacity:1;" d="M 45.933594 7.234375 L 44.667969 7.367188 L 44.667969 10.535156 C 44.667969 13.332031 44.734375 13.667969 45.265625 13.667969 C 46.234375 13.667969 46.601562 13.035156 46.433594 11.566406 C 46.234375 9.632812 46.765625 8.332031 47.800781 8.332031 C 48.234375 8.332031 48.667969 8.566406 48.800781 8.832031 C 49 9.367188 50.667969 9.535156 50.667969 9.035156 C 50.667969 8.601562 51.5 8.367188 52 8.667969 C 52.566406 9 51.265625 10.332031 50.367188 10.332031 C 49.035156 10.332031 48.667969 10.699219 48.667969 12 C 48.667969 13.066406 48.800781 13.300781 49.601562 13.632812 C 50.167969 13.832031 51.132812 13.898438 52.167969 13.734375 L 53.832031 13.5 L 53.734375 10.667969 C 53.667969 9.101562 53.464844 7.699219 53.332031 7.535156 C 52.964844 7.167969 50.035156 7.234375 49.535156 7.632812 C 49.300781 7.832031 48.933594 7.765625 48.535156 7.464844 C 48.167969 7.199219 47.699219 7.035156 47.535156 7.066406 C 47.332031 7.101562 46.601562 7.167969 45.933594 7.234375 Z M 52.167969 11.667969 C 52.167969 11.933594 51.832031 12.199219 51.433594 12.265625 C 50.699219 12.367188 50.367188 11.734375 50.898438 11.199219 C 51.300781 10.832031 52.167969 11.132812 52.167969 11.667969 Z M 52.167969 11.667969 "/>
<path style=" stroke:none;fill-rule:nonzero;fill:rgb(0%,0%,0%);fill-opacity:1;" d="M 61.867188 7.234375 C 61.734375 7.367188 60.300781 7.433594 58.632812 7.398438 C 57 7.332031 55.667969 7.433594 55.667969 7.566406 C 55.5 10.132812 55.632812 13.433594 55.933594 13.734375 C 56.601562 14.398438 57 13.632812 57 11.734375 C 57 9.464844 57.734375 8.035156 58.535156 8.699219 C 58.898438 9 59 9.699219 58.933594 11.234375 C 58.867188 12.832031 58.964844 13.433594 59.332031 13.667969 C 60.464844 14.398438 60.832031 13.898438 61 11.433594 C 61.265625 7.367188 62.667969 7.132812 62.667969 11.167969 C 62.667969 13.765625 62.898438 14.234375 63.964844 13.667969 C 64.535156 13.367188 64.601562 13.035156 64.535156 11.066406 C 64.5 9.765625 64.265625 8.5 63.964844 8.101562 C 63.433594 7.367188 62.265625 6.867188 61.867188 7.234375 Z M 61.867188 7.234375 "/>
<path style=" stroke:none;fill-rule:nonzero;fill:rgb(0%,0%,0%);fill-opacity:1;" d="M 72.535156 7.699219 C 70.898438 9 71.464844 10.199219 74.167969 11.199219 C 75.535156 11.699219 75.132812 12.167969 73.367188 12.167969 C 71.566406 12.167969 71.234375 12.765625 72.632812 13.464844 C 73.765625 14.066406 74.933594 14.132812 76.132812 13.667969 C 77.867188 13 78.066406 10.832031 76.398438 10.464844 C 74.832031 10.167969 73.265625 9.332031 73.433594 8.898438 C 73.632812 8.300781 74.535156 8.234375 75.101562 8.832031 C 75.964844 9.667969 77.667969 9.367188 77.066406 8.464844 C 76.601562 7.765625 75.167969 7 74.300781 7 C 73.832031 7 73.035156 7.300781 72.535156 7.699219 Z M 72.535156 7.699219 "/>
<path style=" stroke:none;fill-rule:nonzero;fill:rgb(0%,0%,0%);fill-opacity:1;" d="M 83.199219 7.300781 L 81.566406 7.5 L 81.535156 11.898438 C 81.464844 16.535156 81.535156 16.800781 82.964844 16.433594 C 83.535156 16.300781 83.667969 16 83.667969 14.964844 C 83.667969 13.699219 83.699219 13.667969 84.933594 13.667969 C 85.632812 13.667969 86.535156 13.433594 86.933594 13.132812 C 87.566406 12.699219 87.667969 12.332031 87.667969 10.535156 C 87.667969 8.699219 87.566406 8.332031 86.933594 7.933594 C 85.832031 7.234375 85.066406 7.101562 83.199219 7.300781 Z M 85.199219 8.601562 C 85.765625 8.964844 86.035156 10.535156 85.667969 11.464844 C 85.433594 12.066406 85.101562 12.332031 84.535156 12.332031 C 83.832031 12.332031 83.667969 12.132812 83.464844 11.167969 C 83.332031 10.332031 83.433594 9.734375 83.800781 9.167969 C 84.367188 8.300781 84.601562 8.199219 85.199219 8.601562 Z M 85.199219 8.601562 "/>
<path style=" stroke:none;fill-rule:nonzero;fill:rgb(0%,0%,0%);fill-opacity:1;" d="M 94.832031 7.332031 C 93.332031 7.933594 92.667969 8.964844 92.667969 10.601562 C 92.699219 12.367188 93.132812 13.167969 94.464844 13.667969 C 95.765625 14.132812 96.734375 14.101562 97.632812 13.464844 C 98.632812 12.734375 98.066406 12.167969 96.332031 12.167969 C 94.464844 12.167969 94.667969 11.535156 96.566406 11.332031 C 98.132812 11.167969 98.167969 11.132812 98.265625 10 C 98.398438 8.035156 96.566406 6.632812 94.832031 7.332031 Z M 96.5 9.332031 C 96.5 9.933594 96.300781 10.199219 95.734375 10.265625 C 94.832031 10.398438 94.398438 9.535156 95 8.800781 C 95.632812 8.066406 96.5 8.367188 96.5 9.332031 Z M 96.5 9.332031 "/>
<path style=" stroke:none;fill-rule:nonzero;fill:rgb(0%,0%,0%);fill-opacity:1;" d="M 104.132812 8.132812 C 102.933594 9.332031 102.699219 10.398438 103.332031 12.234375 C 103.898438 13.832031 106.398438 14.566406 107.765625 13.535156 C 108.800781 12.734375 108.433594 12.332031 106.667969 12.332031 C 105.433594 12.332031 105 12.199219 105 11.867188 C 105 11.5 105.5 11.332031 106.765625 11.265625 C 108.332031 11.167969 108.5 11.101562 108.632812 10.332031 C 108.765625 9.234375 107.765625 7.433594 106.867188 7.199219 C 105.632812 6.867188 105.300781 6.964844 104.132812 8.132812 Z M 106.832031 9.332031 C 106.832031 10 106.667969 10.167969 106 10.167969 C 105.066406 10.167969 104.632812 9.101562 105.398438 8.632812 C 106.167969 8.132812 106.832031 8.464844 106.832031 9.332031 Z M 106.832031 9.332031 "/>
<path style=" stroke:none;fill-rule:nonzero;fill:rgb(0%,0%,0%);fill-opacity:1;" d="M 126.433594 7.234375 C 125.265625 7.464844 124.332031 8.898438 124.332031 10.464844 C 124.332031 12.464844 124.964844 13.433594 126.433594 13.765625 C 128.167969 14.199219 129.234375 13.832031 130 12.566406 C 131.765625 9.699219 129.667969 6.601562 126.433594 7.234375 Z M 128.132812 8.832031 C 129.367188 10.066406 128.964844 12.332031 127.535156 12.332031 C 126.101562 12.332031 125.535156 10.464844 126.535156 9.066406 C 127.132812 8.199219 127.433594 8.167969 128.132812 8.832031 Z M 128.132812 8.832031 "/>
<path style=" stroke:none;fill-rule:nonzero;fill:rgb(0%,0%,0%);fill-opacity:1;" d="M 132.667969 7.300781 C 131.667969 7.566406 131.035156 9.101562 131.535156 9.933594 C 131.734375 10.234375 132.535156 10.734375 133.300781 11.035156 C 135.066406 11.667969 134.933594 12.167969 133.035156 12.167969 C 131.332031 12.167969 130.964844 12.699219 132.066406 13.464844 C 132.898438 14.066406 134.535156 14.167969 135.800781 13.667969 C 137.734375 12.933594 137.632812 10.332031 135.699219 10.332031 C 135.167969 10.332031 134.332031 10 133.832031 9.601562 C 133.035156 8.964844 133 8.867188 133.5 8.601562 C 133.867188 8.367188 134.234375 8.433594 134.632812 8.800781 C 135.300781 9.398438 136.535156 9.5 136.867188 8.964844 C 137.464844 7.964844 134.5 6.765625 132.667969 7.300781 Z M 132.667969 7.300781 "/>
<path style=" stroke:none;fill-rule:nonzero;fill:rgb(0%,0%,0%);fill-opacity:1;" d="M 149.433594 7.5 C 147.566406 8.800781 147.765625 12.867188 149.699219 13.667969 C 150.964844 14.199219 152.867188 13.832031 153.5 12.898438 C 154.199219 11.898438 154.167969 8.867188 153.433594 8.167969 C 152.265625 7 150.566406 6.699219 149.433594 7.5 Z M 152.066406 9.5 C 152.601562 10.699219 152.066406 12.132812 151.035156 12.265625 C 150.132812 12.398438 149.667969 11.867188 149.667969 10.601562 C 149.667969 9.234375 150 8.667969 150.867188 8.667969 C 151.398438 8.667969 151.800781 8.933594 152.066406 9.5 Z M 152.066406 9.5 "/>
<path style=" stroke:none;fill-rule:nonzero;fill:rgb(0%,0%,0%);fill-opacity:1;" d="M 155.632812 7.964844 L 154.5 9 L 155.734375 10.167969 C 156.5 10.867188 157.332031 11.332031 157.832031 11.332031 C 158.367188 11.332031 158.667969 11.535156 158.667969 11.867188 C 158.667969 12.332031 158.398438 12.398438 157.035156 12.199219 C 155.066406 11.933594 154.5 12.433594 155.667969 13.398438 C 156.800781 14.332031 159.167969 14.199219 160.167969 13.167969 C 161.535156 11.832031 161.066406 10.535156 159.101562 10.234375 C 157.566406 9.964844 156.464844 9.265625 156.800781 8.734375 C 157.132812 8.167969 158.332031 8.234375 158.535156 8.832031 C 158.800781 9.464844 160.667969 9.5 160.667969 8.898438 C 160.667969 8.132812 159.433594 7.300781 158.066406 7.101562 C 156.933594 6.933594 156.601562 7.066406 155.632812 7.964844 Z M 155.632812 7.964844 "/>
<path style=" stroke:none;fill-rule:nonzero;fill:rgb(0%,0%,0%);fill-opacity:1;" d="M 166.367188 7.234375 C 164.234375 8.132812 163.667969 11.132812 165.234375 13 C 166.035156 13.964844 166.265625 14.066406 167.566406 13.898438 C 170.265625 13.601562 170.667969 12.234375 168.101562 12.199219 C 166.300781 12.167969 166.199219 11.535156 168 11.398438 C 168.964844 11.332031 169.601562 11.066406 169.898438 10.667969 C 170.332031 10.066406 170.398438 10.066406 172.367188 10.800781 C 173.464844 11.199219 174.367188 11.699219 174.332031 11.867188 C 174.332031 12.035156 173.535156 12.167969 172.566406 12.167969 C 171.234375 12.167969 170.832031 12.300781 170.734375 12.734375 C 170.667969 13.132812 170.964844 13.398438 171.898438 13.632812 C 174.332031 14.332031 176.035156 13.832031 176.433594 12.367188 C 176.667969 11.464844 175.800781 10.332031 174.867188 10.332031 C 173.867188 10.332031 172.464844 9.234375 172.800781 8.734375 C 173.132812 8.199219 173.832031 8.234375 174.332031 8.832031 C 174.800781 9.398438 175.867188 9.5 176.132812 9.035156 C 176.234375 8.867188 176.066406 8.398438 175.734375 7.964844 C 174.800781 6.832031 172.300781 6.898438 171.035156 8.132812 L 170.101562 9.035156 L 169.464844 8.199219 C 168.832031 7.332031 167.265625 6.867188 166.367188 7.234375 Z M 168.265625 8.734375 C 168.765625 9.234375 168.167969 10.332031 167.332031 10.332031 C 166.5 10.332031 166.234375 9.832031 166.667969 9 C 167.066406 8.265625 167.667969 8.132812 168.265625 8.734375 Z M 168.265625 8.734375 "/>
<path style=" stroke:none;fill-rule:nonzero;fill:rgb(0%,0%,0%);fill-opacity:1;" d="M 215.433594 7.234375 C 213.734375 7.566406 212.800781 10.234375 213.632812 12.433594 C 214.066406 13.566406 215.734375 14.167969 217.265625 13.800781 C 218.167969 13.566406 218.5 13.332031 218.5 12.832031 C 218.5 12.265625 218.265625 12.167969 217.101562 12.167969 C 215.132812 12.167969 215.132812 11.535156 217.101562 11.398438 L 218.667969 11.300781 L 218.667969 9.867188 C 218.667969 9.101562 218.464844 8.234375 218.265625 7.933594 C 217.765625 7.332031 216.535156 7.035156 215.433594 7.234375 Z M 217 8.832031 C 217.566406 9.5 217.167969 10.332031 216.332031 10.332031 C 215.964844 10.332031 215.566406 10.101562 215.464844 9.832031 C 215.265625 9.332031 215.832031 8.332031 216.332031 8.332031 C 216.464844 8.332031 216.765625 8.566406 217 8.832031 Z M 217 8.832031 "/>
<path style=" stroke:none;fill-rule:nonzero;fill:rgb(0%,0%,0%);fill-opacity:1;" d="M 221.066406 7.332031 C 220.667969 7.5 220.167969 8.035156 219.933594 8.5 C 219.601562 9.234375 219.667969 9.464844 220.300781 10.132812 C 220.734375 10.566406 221.566406 11.035156 222.199219 11.132812 C 222.933594 11.300781 223.332031 11.566406 223.332031 11.898438 C 223.332031 12.332031 223.066406 12.367188 221.667969 12.199219 C 220.132812 12 220 12.035156 220 12.632812 C 220 13.632812 221.199219 14.101562 223.101562 13.867188 C 225.035156 13.667969 225.765625 13.101562 225.765625 11.832031 C 225.765625 10.765625 225.367188 10.464844 223.667969 10.199219 C 222.332031 10 221.464844 9.265625 221.832031 8.667969 C 222.132812 8.199219 222.535156 8.234375 223.132812 8.867188 C 223.800781 9.5 225.5 9.367188 225.5 8.667969 C 225.5 8.101562 223.5 7 222.5 7.035156 C 222.132812 7.035156 221.5 7.167969 221.066406 7.332031 Z M 221.066406 7.332031 "/>
<path style=" stroke:none;fill-rule:nonzero;fill:rgb(0%,0%,0%);fill-opacity:1;" d="M 237.699219 7.964844 C 236.832031 8.867188 236.667969 9.300781 236.667969 10.632812 C 236.667969 11.898438 236.832031 12.433594 237.535156 13.167969 C 238.265625 13.964844 238.566406 14.066406 239.898438 13.898438 C 242.234375 13.632812 242.964844 12.464844 242.699219 9.332031 C 242.632812 8.332031 241.535156 7.464844 239.898438 7.167969 C 238.867188 6.964844 238.601562 7.066406 237.699219 7.964844 Z M 240.464844 9.199219 C 241.066406 10.734375 240.464844 12.332031 239.300781 12.332031 C 238.667969 12.332031 238.332031 11.667969 238.332031 10.5 C 238.332031 9.234375 238.699219 8.667969 239.5 8.667969 C 239.933594 8.667969 240.367188 8.898438 240.464844 9.199219 Z M 240.464844 9.199219 "/>
<path style=" stroke:none;fill-rule:nonzero;fill:rgb(0%,0%,0%);fill-opacity:1;" d="M 262.300781 7.199219 C 261.699219 7.367188 260.933594 8.800781 261.234375 9.132812 C 261.632812 9.5 262.433594 9.332031 262.832031 8.800781 C 263.101562 8.398438 263.433594 8.332031 264 8.5 L 264.800781 8.765625 L 263.867188 9.535156 C 263.367188 9.964844 262.632812 10.332031 262.199219 10.332031 C 261.199219 10.332031 260.667969 10.933594 260.667969 12.066406 C 260.667969 13.566406 261.800781 14.066406 264.367188 13.765625 C 266.300781 13.535156 266.5 13.433594 266.464844 12.734375 C 266.367188 9.332031 266.265625 8.433594 265.898438 7.964844 C 265.464844 7.398438 263.265625 6.933594 262.300781 7.199219 Z M 264.464844 11.5 C 264.699219 12.101562 263.632812 12.734375 263.035156 12.332031 C 262.765625 12.199219 262.667969 11.832031 262.765625 11.535156 C 263.035156 10.867188 264.199219 10.832031 264.464844 11.5 Z M 264.464844 11.5 "/>
<path style=" stroke:none;fill-rule:nonzero;fill:rgb(0%,0%,0%);fill-opacity:1;" d="M 269.101562 7.234375 L 267.667969 7.367188 L 267.667969 9.667969 C 267.667969 10.898438 267.601562 12.132812 267.5 12.398438 C 267.398438 12.632812 267.535156 13.132812 267.800781 13.5 C 268.199219 14.066406 268.332031 14.066406 268.800781 13.699219 C 269.234375 13.332031 269.300781 12.898438 269.132812 11.765625 C 268.933594 10.367188 269.433594 8.332031 270 8.332031 C 271.101562 8.332031 271.332031 8.800781 271.332031 11 C 271.332031 13.5 271.800781 14.300781 272.800781 13.566406 C 273.332031 13.167969 273.367188 12.800781 273.167969 10.566406 C 273.035156 9.167969 272.765625 7.867188 272.535156 7.699219 C 272 7.265625 270.734375 7.101562 269.101562 7.234375 Z M 269.101562 7.234375 "/>
<path style=" stroke:none;fill-rule:nonzero;fill:rgb(0%,0%,0%);fill-opacity:1;" d="M 275.800781 7.667969 C 273.832031 8.933594 274.035156 12.933594 276.066406 13.632812 C 278.035156 14.332031 279.535156 13.898438 280.433594 12.332031 C 282.265625 9.234375 278.765625 5.699219 275.800781 7.667969 Z M 278.535156 9.464844 C 278.898438 10.933594 278.566406 12.167969 277.765625 12.265625 C 276.800781 12.398438 276.199219 11.265625 276.5 9.800781 C 276.667969 8.867188 276.832031 8.667969 277.5 8.667969 C 278.101562 8.667969 278.367188 8.898438 278.535156 9.464844 Z M 278.535156 9.464844 "/>
<path style=" stroke:none;fill-rule:nonzero;fill:rgb(0%,0%,0%);fill-opacity:1;" d="M 66.066406 7.734375 C 65.035156 8.765625 66.234375 9.832031 67.332031 8.832031 C 68.234375 8.035156 69.167969 8.398438 68.667969 9.367188 C 68.398438 9.832031 68.398438 10.332031 68.632812 11 C 69.035156 12.199219 68.433594 12.898438 67.535156 12.234375 C 67 11.832031 67 11.765625 67.464844 11.367188 C 68.300781 10.667969 68.101562 10.265625 66.933594 10.398438 C 65.898438 10.5 65.832031 10.601562 65.734375 11.898438 C 65.632812 13.035156 65.765625 13.367188 66.332031 13.667969 C 66.699219 13.867188 67.367188 13.933594 67.765625 13.800781 C 68.167969 13.667969 69.035156 13.535156 69.667969 13.535156 L 70.832031 13.5 L 70.699219 10.667969 C 70.632812 9.101562 70.535156 7.734375 70.433594 7.566406 C 70.199219 7.167969 66.5 7.300781 66.066406 7.734375 Z M 66.066406 7.734375 "/>
<path style=" stroke:none;fill-rule:nonzero;fill:rgb(0%,0%,0%);fill-opacity:1;" d="M 88.667969 10.464844 C 88.667969 13.734375 88.898438 14.234375 90.101562 13.601562 C 90.566406 13.367188 90.667969 12.867188 90.667969 11.035156 C 90.667969 8.765625 90.667969 8.734375 91.699219 8.367188 C 93.167969 7.867188 92.566406 7.332031 90.464844 7.332031 L 88.667969 7.332031 Z M 88.667969 10.464844 "/>
<path style=" stroke:none;fill-rule:nonzero;fill:rgb(0%,0%,0%);fill-opacity:1;" d="M 109.898438 7.535156 C 109.765625 7.667969 109.667969 9.101562 109.667969 10.699219 C 109.667969 12.964844 109.765625 13.632812 110.167969 13.800781 C 111.332031 14.234375 111.667969 13.667969 111.667969 11.332031 C 111.667969 9 111.898438 8.5 113.167969 8.265625 C 113.535156 8.199219 113.800781 8 113.765625 7.832031 C 113.667969 7.433594 110.265625 7.199219 109.898438 7.535156 Z M 109.898438 7.535156 "/>
<path style=" stroke:none;fill-rule:nonzero;fill:rgb(0%,0%,0%);fill-opacity:1;" d="M 114.265625 10.066406 C 114.132812 12.933594 114.367188 14 115.132812 14 C 116.035156 14 116.234375 13.132812 116.066406 10.234375 C 115.933594 7.464844 115.867188 7.332031 115.167969 7.332031 C 114.433594 7.332031 114.367188 7.464844 114.265625 10.066406 Z M 114.265625 10.066406 "/>
<path style=" stroke:none;fill-rule:nonzero;fill:rgb(0%,0%,0%);fill-opacity:1;" d="M 181.566406 7.765625 C 181.5 8 181.5 9.265625 181.601562 10.601562 C 181.800781 13.667969 182.332031 14.167969 185.035156 13.800781 C 186.035156 13.667969 187 13.464844 187.167969 13.332031 C 187.367188 13.167969 187.5 11.800781 187.5 10.265625 L 187.5 7.5 L 186.5 7.5 C 185.535156 7.5 185.5 7.566406 185.566406 8.832031 C 185.601562 9.566406 185.566406 10.667969 185.464844 11.265625 C 185.332031 12.234375 185.199219 12.367188 184.398438 12.265625 C 183.535156 12.167969 183.5 12.101562 183.398438 9.734375 C 183.300781 7.464844 183.265625 7.332031 182.535156 7.332031 C 182.101562 7.332031 181.667969 7.535156 181.566406 7.765625 Z M 181.566406 7.765625 "/>
<path style=" stroke:none;fill-rule:nonzero;fill:rgb(0%,0%,0%);fill-opacity:1;" d="M 195.867188 8.066406 C 195.199219 9.035156 195.699219 9.601562 196.734375 9.101562 C 198.867188 8.066406 200.367188 8.433594 199.035156 9.699219 C 198.601562 10.101562 197.867188 10.332031 197.035156 10.332031 C 195.667969 10.332031 195.332031 10.699219 195.332031 12.199219 C 195.332031 13.535156 196.535156 14.035156 199.101562 13.765625 L 201.332031 13.566406 L 201.332031 11.101562 C 201.332031 7.601562 201.132812 7.332031 198.5 7.332031 C 196.667969 7.332031 196.300781 7.433594 195.867188 8.066406 Z M 199.5 11.667969 C 199.5 12 199.101562 12.199219 198.265625 12.265625 C 197.332031 12.332031 197 12.234375 197 11.867188 C 197 11.398438 197.964844 11.035156 199 11.132812 C 199.265625 11.167969 199.5 11.398438 199.5 11.667969 Z M 199.5 11.667969 "/>
<path style=" stroke:none;fill-rule:nonzero;fill:rgb(0%,0%,0%);fill-opacity:1;" d="M 4.035156 23.464844 C 3.765625 23.800781 3.765625 24 4.132812 24.300781 C 4.464844 24.566406 21.035156 24.667969 68.464844 24.667969 L 132.367188 24.667969 L 132.367188 33 C 132.367188 37.566406 132.367188 41.433594 132.332031 41.601562 C 132.332031 41.734375 103.601562 41.832031 68.464844 41.832031 C 8.667969 41.832031 4.535156 41.867188 4.199219 42.398438 C 4.035156 42.699219 3.964844 43.101562 4.132812 43.234375 C 4.265625 43.367188 33.199219 43.5 68.398438 43.5 L 132.398438 43.5 L 132.367188 51.234375 C 132.367188 55.5 132.367188 59.101562 132.332031 59.234375 C 132.332031 59.398438 103.5 59.5 68.265625 59.5 L 4.167969 59.5 L 4.167969 61.167969 L 68.265625 61.167969 C 103.5 61.167969 132.332031 61.234375 132.332031 61.332031 C 132.332031 61.433594 132.367188 65.066406 132.398438 69.433594 L 132.433594 77.332031 L 4.332031 77.332031 L 4.132812 78.199219 C 4 78.765625 4.066406 79.167969 4.367188 79.367188 C 4.632812 79.535156 32.132812 79.667969 68.667969 79.667969 L 132.5 79.632812 L 132.464844 80.667969 C 132.464844 81.199219 132.433594 85.167969 132.398438 89.398438 L 132.332031 97.167969 L 68.933594 97.066406 C 34.035156 97.035156 5.167969 97.066406 4.765625 97.167969 C 3.867188 97.367188 3.734375 98.332031 4.601562 98.367188 C 7.035156 98.5 131.398438 98.332031 131.632812 98.167969 C 132.367188 97.734375 132.5 99.367188 132.332031 107.066406 C 132.199219 114.066406 132.101562 115.132812 131.667969 115 C 130.765625 114.699219 5.167969 114.5 4.765625 114.800781 C 4.535156 114.964844 4.332031 115.367188 4.332031 115.699219 C 4.332031 116.332031 7.699219 116.332031 149.234375 116.234375 C 245.433594 116.199219 294.132812 116.066406 294.234375 115.832031 C 294.601562 114.601562 295.035156 114.632812 254.367188 114.667969 C 232.699219 114.667969 214.535156 114.765625 213.964844 114.898438 L 213 115.101562 L 213.066406 106.632812 C 213.167969 99.332031 213.234375 98.167969 213.667969 98.265625 C 213.933594 98.332031 231.964844 98.433594 253.765625 98.535156 C 281.464844 98.632812 293.566406 98.566406 294.035156 98.300781 C 294.566406 98.035156 294.632812 97.867188 294.300781 97.464844 C 293.964844 97.035156 288.566406 97 253.464844 97.066406 L 213 97.167969 L 212.933594 89.398438 C 212.898438 85.167969 212.867188 81.199219 212.867188 80.632812 L 212.832031 79.632812 L 253.367188 79.667969 C 297.199219 79.699219 295.265625 79.765625 294.332031 78 L 293.964844 77.332031 L 253.433594 77.332031 L 212.898438 77.367188 L 212.933594 69.433594 C 212.964844 65.066406 213 61.433594 213 61.332031 C 213 61.234375 231.265625 61.167969 253.566406 61.167969 L 294.167969 61.167969 L 294.167969 59.5 L 253.566406 59.5 C 231.265625 59.5 213 59.433594 213 59.332031 C 213 59.234375 212.964844 55.667969 212.964844 51.367188 L 212.933594 43.535156 L 253.265625 43.601562 C 288.199219 43.632812 293.667969 43.566406 294.199219 43.167969 C 294.800781 42.699219 294.800781 42.632812 294.265625 42.234375 C 293.800781 41.867188 286.433594 41.800781 253.332031 41.800781 C 225.964844 41.832031 213 41.734375 213 41.5 C 213 41.332031 212.964844 37.433594 212.964844 32.898438 L 212.933594 24.632812 L 253.265625 24.667969 C 275.433594 24.667969 293.832031 24.601562 294.132812 24.464844 C 294.800781 24.199219 294.832031 23.464844 294.132812 23.199219 C 293.867188 23.101562 228.566406 23 149.035156 23 C 27.234375 23 4.367188 23.066406 4.035156 23.464844 Z M 211.367188 33 C 211.367188 37.566406 211.367188 41.464844 211.332031 41.601562 C 211.332031 42.035156 134 41.933594 134 41.535156 C 134 38.964844 133.964844 24.800781 134 24.667969 C 134 24.566406 151.398438 24.535156 172.699219 24.566406 L 211.367188 24.667969 Z M 211.367188 51.300781 C 211.367188 55.535156 211.367188 59.101562 211.332031 59.234375 C 211.332031 59.535156 134 59.601562 134 59.332031 C 133.964844 59 133.964844 43.832031 134 43.667969 C 134 43.566406 151.398438 43.5 172.699219 43.535156 L 211.398438 43.566406 Z M 211.332031 61.332031 C 211.332031 61.433594 211.367188 65.066406 211.398438 69.433594 L 211.433594 77.332031 L 133.898438 77.332031 L 133.933594 69.433594 C 133.964844 65.066406 134 61.433594 134 61.332031 C 134 61.234375 151.398438 61.167969 172.667969 61.167969 C 193.933594 61.167969 211.332031 61.234375 211.332031 61.332031 Z M 211.464844 80.667969 C 211.464844 81.199219 211.433594 85.167969 211.398438 89.398438 L 211.332031 97.167969 L 134.035156 97.167969 L 133.933594 88.5 C 133.867188 83.734375 133.832031 79.765625 133.867188 79.667969 C 133.898438 79.566406 151.398438 79.535156 172.734375 79.566406 L 211.5 79.667969 Z M 211.332031 107.035156 C 211.199219 114.066406 211.101562 115.132812 210.667969 115 C 210.398438 114.898438 193.035156 114.832031 172.066406 114.832031 L 134 114.832031 L 134 98.433594 L 172.199219 98.398438 C 193.199219 98.398438 210.5 98.300781 210.601562 98.167969 C 211.332031 97.464844 211.5 99.433594 211.332031 107.035156 Z M 211.332031 107.035156 "/>
<path style=" stroke:none;fill-rule:nonzero;fill:rgb(0%,0%,0%);fill-opacity:1;" d="M 149.601562 29.101562 C 149.035156 30.167969 149.765625 31.332031 151 31.332031 C 152.300781 31.332031 152.433594 31.699219 152.035156 34.464844 C 151.667969 37.035156 151.765625 37.566406 152.734375 37.867188 C 153.867188 38.234375 154.132812 37.535156 154.035156 34.332031 C 153.964844 31.398438 153.964844 31.367188 154.800781 31.132812 C 155.265625 31.035156 155.765625 31.035156 155.933594 31.132812 C 156.101562 31.234375 156.300781 32.5 156.398438 33.964844 C 156.601562 37.433594 156.832031 37.699219 159.632812 37.566406 L 161.832031 37.464844 L 161.933594 34.832031 C 162.035156 31.734375 161.832031 30.667969 161.167969 30.667969 C 160.535156 30.667969 160.199219 32.035156 160.464844 33.5 C 160.632812 34.398438 160.535156 34.800781 160 35.332031 C 158.898438 36.433594 158.332031 35.699219 158.332031 33.300781 C 158.332031 31.5 158.265625 31.265625 157.5 30.933594 C 156.964844 30.699219 156.667969 30.300781 156.667969 29.800781 C 156.667969 28.699219 156.199219 28.535156 152.898438 28.5 C 150.300781 28.464844 149.898438 28.535156 149.601562 29.101562 Z M 149.601562 29.101562 "/>
<path style=" stroke:none;fill-rule:nonzero;fill:rgb(0%,0%,0%);fill-opacity:1;" d="M 189.898438 28.566406 C 189.765625 28.667969 189.667969 29 189.667969 29.265625 C 189.667969 29.535156 189.464844 30.199219 189.199219 30.765625 C 188.964844 31.367188 188.398438 32.765625 188 33.898438 C 187.601562 35.035156 187.066406 36.132812 186.800781 36.367188 C 186.132812 36.898438 186.832031 38.066406 187.765625 37.933594 C 188.234375 37.867188 188.566406 37.464844 188.765625 36.765625 C 189.101562 35.632812 189.800781 35.332031 191.5 35.667969 C 192.234375 35.800781 192.535156 36.066406 192.601562 36.601562 C 192.765625 37.699219 194.167969 38.300781 194.898438 37.566406 C 195.5 36.964844 195.367188 36.566406 193.699219 33.800781 C 193.367188 33.234375 192.964844 32.167969 192.832031 31.398438 C 192.464844 29.234375 190.800781 27.632812 189.898438 28.566406 Z M 191.5 32.800781 C 191.5 33.535156 191.035156 33.765625 190.367188 33.367188 C 189.734375 32.964844 190.167969 31.933594 190.898438 32.066406 C 191.234375 32.132812 191.5 32.464844 191.5 32.800781 Z M 191.5 32.800781 "/>
<path style=" stroke:none;fill-rule:nonzero;fill:rgb(0%,0%,0%);fill-opacity:1;" d="M 163.832031 30.964844 C 163.433594 31.632812 163.433594 37.332031 163.867188 37.667969 C 164.234375 38 165.332031 37.800781 165.332031 37.367188 C 165.367188 37.265625 165.398438 36.234375 165.433594 35.101562 C 165.5 32.867188 165.734375 32.433594 167 32.265625 C 167.832031 32.167969 167.832031 32.167969 167.832031 34.832031 C 167.832031 37.5 167.832031 37.5 168.734375 37.601562 C 169.632812 37.699219 169.632812 37.699219 169.734375 35.265625 C 169.832031 33.101562 169.898438 32.832031 170.5 32.832031 C 171.101562 32.832031 171.167969 33.066406 171.199219 35.101562 C 171.265625 37.601562 171.667969 38.367188 172.601562 37.800781 C 173.035156 37.5 173.167969 36.933594 173.167969 35.234375 C 173.167969 32.832031 173.535156 32.132812 174.632812 32.5 C 175.265625 32.699219 175.332031 32.964844 175.332031 35.199219 C 175.332031 37.601562 175.367188 37.699219 176.101562 37.601562 C 176.800781 37.5 176.832031 37.398438 176.734375 34.667969 C 176.632812 32.300781 176.5 31.734375 175.933594 31.234375 C 175.234375 30.632812 174.167969 30.464844 173.867188 30.933594 C 173.699219 31.234375 166 31.132812 164.765625 30.832031 C 164.367188 30.734375 163.964844 30.800781 163.832031 30.964844 Z M 163.832031 30.964844 "/>
<path style=" stroke:none;fill-rule:nonzero;fill:rgb(0%,0%,0%);fill-opacity:1;" d="M 179.433594 31.066406 C 178.433594 31.566406 178.132812 32.566406 178.800781 33.300781 C 179.300781 33.832031 179.300781 33.933594 178.832031 34.332031 C 178.265625 34.800781 178.167969 36.101562 178.667969 37 C 178.933594 37.5 179.367188 37.601562 181.300781 37.566406 L 183.632812 37.535156 L 183.535156 34.699219 C 183.464844 32.234375 183.367188 31.832031 182.699219 31.265625 C 181.832031 30.601562 180.566406 30.535156 179.433594 31.066406 Z M 181.566406 32.898438 C 181.765625 33.433594 180.367188 33.832031 179.898438 33.367188 C 179.601562 33.066406 179.632812 32.898438 180 32.667969 C 180.632812 32.265625 181.398438 32.367188 181.566406 32.898438 Z M 181.601562 34.898438 C 181.535156 35.234375 181.167969 35.535156 180.734375 35.601562 C 180.167969 35.699219 180 35.535156 180 35.035156 C 180 34.5 180.199219 34.332031 180.867188 34.332031 C 181.5 34.332031 181.699219 34.5 181.601562 34.898438 Z M 181.601562 34.898438 "/>
<path style=" stroke:none;fill-rule:nonzero;fill:rgb(0%,0%,0%);fill-opacity:1;" d="M 167.132812 47.066406 C 164.5 50.066406 165.734375 55.667969 169 55.667969 C 169.464844 55.667969 170 55.535156 170.199219 55.398438 C 170.765625 55.035156 171.667969 51.933594 171.535156 50.832031 C 171.101562 47.535156 170.398438 46.332031 168.898438 46.332031 C 168.167969 46.332031 167.566406 46.601562 167.132812 47.066406 Z M 169.601562 48.632812 C 170.132812 48.964844 170.265625 52.535156 169.734375 53.066406 C 169.566406 53.234375 169.066406 53.332031 168.632812 53.265625 C 167.898438 53.167969 167.832031 52.964844 167.734375 51.234375 C 167.601562 48.734375 168.300781 47.800781 169.601562 48.632812 Z M 169.601562 48.632812 "/>
<path style=" stroke:none;fill-rule:nonzero;fill:rgb(0%,0%,0%);fill-opacity:1;" d="M 174.132812 46.601562 C 172.699219 47.601562 172.167969 50.464844 173.265625 51.433594 C 173.566406 51.699219 174.433594 52 175.167969 52.066406 C 176.066406 52.132812 176.5 52.332031 176.5 52.667969 C 176.5 53.035156 176.035156 53.199219 174.765625 53.265625 C 172.867188 53.367188 172.632812 53.667969 173.535156 54.933594 C 174.367188 56.132812 175.867188 55.898438 177.398438 54.332031 C 178.601562 53.066406 178.667969 52.832031 178.667969 50.898438 C 178.667969 48.898438 178.601562 48.734375 177.398438 47.566406 C 176.199219 46.367188 174.964844 46 174.132812 46.601562 Z M 176.265625 48.632812 C 176.867188 49 176.667969 50.332031 175.933594 50.765625 C 175.066406 51.332031 173.667969 50.535156 173.667969 49.535156 C 173.667969 48.535156 175.234375 47.964844 176.265625 48.632812 Z M 176.265625 48.632812 "/>
<path style=" stroke:none;fill-rule:nonzero;fill:rgb(0%,0%,0%);fill-opacity:1;" d="M 168.167969 64.234375 C 166 64.765625 165 68.332031 166.199219 71.199219 C 166.898438 72.832031 167.535156 73.300781 169.066406 73.332031 C 170.199219 73.332031 170.398438 73.199219 171 72 C 171.398438 71.199219 171.667969 70.035156 171.667969 69.035156 C 171.667969 67.367188 170.632812 64.332031 170.035156 64.332031 C 169.867188 64.332031 169.535156 64.265625 169.265625 64.199219 C 169.035156 64.132812 168.535156 64.167969 168.167969 64.234375 Z M 169.933594 68.734375 C 170.035156 70.734375 169.964844 70.964844 169.332031 71.167969 C 168.167969 71.535156 167.667969 70.765625 167.667969 68.667969 C 167.667969 66.5 167.800781 66.265625 169 66.398438 C 169.800781 66.5 169.832031 66.632812 169.933594 68.734375 Z M 169.933594 68.734375 "/>
<path style=" stroke:none;fill-rule:nonzero;fill:rgb(0%,0%,0%);fill-opacity:1;" d="M 174.566406 65.535156 C 173.535156 66.5 173.367188 66.800781 173.699219 67.199219 C 173.898438 67.464844 174.367188 67.667969 174.734375 67.667969 C 175.332031 67.667969 175.367188 67.867188 175.265625 70.398438 C 175.167969 73.167969 175.167969 73.167969 176 73.167969 L 176.832031 73.167969 L 176.832031 68.832031 C 176.832031 63.832031 176.632812 63.566406 174.566406 65.535156 Z M 174.566406 65.535156 "/>
<path style=" stroke:none;fill-rule:nonzero;fill:rgb(0%,0%,0%);fill-opacity:1;" d="M 173.699219 84.199219 C 172.601562 85.132812 172.265625 86.667969 173.167969 86.667969 C 173.464844 86.667969 173.765625 86.433594 173.867188 86.167969 C 174 85.867188 174.5 85.667969 175.199219 85.667969 C 176.101562 85.667969 176.332031 85.800781 176.332031 86.300781 C 176.332031 87.265625 175.265625 88.964844 174.5 89.199219 C 173.300781 89.566406 172.667969 90.398438 172.667969 91.566406 L 172.667969 92.699219 L 175.566406 92.601562 C 178.132812 92.5 178.5 92.433594 178.601562 91.867188 C 178.800781 90.964844 178.035156 90.632812 176.367188 90.867188 C 174.933594 91.035156 174.898438 91.035156 175.332031 90.433594 C 175.601562 90.101562 176.464844 89.167969 177.265625 88.367188 C 179.101562 86.535156 179.066406 85.601562 177.167969 84.265625 C 175.5 83.132812 174.964844 83.101562 173.699219 84.199219 Z M 173.699219 84.199219 "/>
<path style=" stroke:none;fill-rule:nonzero;fill:rgb(0%,0%,0%);fill-opacity:1;" d="M 168.601562 84.265625 C 168.367188 84.566406 167.765625 85.035156 167.265625 85.234375 C 166.734375 85.464844 166.332031 85.765625 166.332031 85.898438 C 166.332031 86.5 166.867188 86.933594 167.667969 87.035156 C 168.464844 87.167969 168.5 87.265625 168.535156 89.5 C 168.535156 92.566406 168.566406 92.667969 169.300781 92.667969 C 170.464844 92.667969 170.699219 91.898438 170.632812 88.035156 C 170.566406 84.832031 170.5 84.265625 169.964844 84 C 169.167969 83.566406 169.101562 83.566406 168.601562 84.265625 Z M 168.601562 84.265625 "/>
<path style=" stroke:none;fill-rule:nonzero;fill:rgb(0%,0%,0%);fill-opacity:1;" d="M 167.101562 101.601562 C 166.464844 102 165.667969 104.199219 165.667969 105.601562 C 165.667969 106.300781 165.898438 107.566406 166.199219 108.433594 C 166.667969 109.765625 166.898438 110.035156 167.964844 110.367188 C 168.898438 110.632812 169.433594 110.632812 169.933594 110.367188 C 170.667969 109.964844 171.667969 107.433594 171.667969 105.898438 C 171.667969 104.765625 171.035156 102.367188 170.566406 101.734375 C 170.234375 101.300781 167.734375 101.199219 167.101562 101.601562 Z M 169.667969 103.535156 C 170.035156 104.464844 170.101562 107 169.800781 107.800781 C 169.566406 108.433594 168.632812 108.5 168.066406 107.933594 C 167.464844 107.332031 167.566406 104 168.234375 103.265625 C 168.964844 102.464844 169.300781 102.5 169.667969 103.535156 Z M 169.667969 103.535156 "/>
<path style=" stroke:none;fill-rule:nonzero;fill:rgb(0%,0%,0%);fill-opacity:1;" d="M 173.234375 101.933594 C 172.601562 102.632812 172.464844 104.332031 173.035156 104.332031 C 173.265625 104.332031 173.765625 103.964844 174.199219 103.5 C 175.132812 102.5 175.398438 102.464844 176.132812 103.300781 C 176.699219 103.898438 176.699219 104 175.964844 105.234375 C 175.566406 105.933594 174.667969 106.933594 173.933594 107.433594 C 172.800781 108.234375 172.632812 108.5 172.734375 109.433594 L 172.832031 110.5 L 175 110.601562 C 177.964844 110.699219 178.667969 110.5 178.667969 109.535156 C 178.667969 108.632812 178.132812 108.332031 176.464844 108.332031 C 175.667969 108.332031 175.332031 108.167969 175.332031 107.832031 C 175.332031 107.566406 175.535156 107.332031 175.765625 107.332031 C 176 107.332031 176.765625 106.765625 177.433594 106.066406 C 179.035156 104.433594 179.101562 103.035156 177.699219 102.035156 C 176.433594 101.132812 174 101.066406 173.234375 101.933594 Z M 173.234375 101.933594 "/>
<path style=" stroke:none;fill-rule:nonzero;fill:rgb(0%,0%,0%);fill-opacity:1;" d="M 39.832031 28.765625 C 39.765625 29 39.667969 31 39.566406 33.234375 C 39.433594 37.398438 39.566406 38 40.734375 38 C 41.535156 38 41.933594 37.101562 41.765625 35.667969 L 41.601562 34.433594 L 43.132812 34.265625 C 45.101562 34.035156 46 33.234375 46 31.765625 C 46 29.464844 45.035156 28.699219 41.964844 28.5 C 40.601562 28.398438 39.933594 28.5 39.832031 28.765625 Z M 44.167969 31.667969 C 44.167969 31.964844 43.800781 32.199219 43.234375 32.265625 C 41.933594 32.433594 41.300781 32.132812 41.535156 31.5 C 41.832031 30.765625 44.167969 30.933594 44.167969 31.667969 Z M 44.167969 31.667969 "/>
<path style=" stroke:none;fill-rule:nonzero;fill:rgb(0%,0%,0%);fill-opacity:1;" d="M 230 28.800781 C 229.535156 29.265625 229.566406 30.5 230.101562 30.933594 C 230.300781 31.132812 230.964844 31.332031 231.5 31.398438 L 232.5 31.5 L 232.398438 34.535156 C 232.265625 37.832031 232.433594 38.199219 233.898438 37.832031 C 234.734375 37.632812 234.734375 37.632812 234.632812 34.601562 C 234.535156 32.101562 234.601562 31.535156 235.035156 31.234375 C 236.132812 30.535156 236.667969 31.199219 236.667969 33.132812 C 236.667969 34.167969 236.898438 35.566406 237.199219 36.300781 L 237.734375 37.632812 L 240.035156 37.632812 C 241.300781 37.632812 242.332031 37.535156 242.367188 37.398438 C 242.367188 37.265625 242.398438 35.898438 242.433594 34.367188 C 242.5 31.234375 242.132812 30.234375 241.101562 30.867188 C 240.632812 31.167969 240.5 31.667969 240.5 33.035156 C 240.5 35.066406 240.234375 35.667969 239.300781 35.667969 C 238.632812 35.667969 238.5 35.234375 238.632812 33.535156 C 238.765625 32.066406 238.398438 31.101562 237.667969 30.898438 C 237.234375 30.800781 237 30.464844 237 29.898438 C 237 29.433594 236.800781 28.933594 236.601562 28.800781 C 235.964844 28.398438 230.398438 28.398438 230 28.800781 Z M 230 28.800781 "/>
<path style=" stroke:none;fill-rule:nonzero;fill:rgb(0%,0%,0%);fill-opacity:1;" d="M 268.535156 28.867188 C 268.132812 29.898438 268.300781 37.234375 268.765625 37.566406 C 269 37.734375 270.234375 37.800781 271.601562 37.699219 C 273.5 37.535156 274.167969 37.332031 274.535156 36.832031 C 275.066406 36.101562 275.132812 35.066406 274.699219 33.867188 C 274.5 33.367188 274.5 32.632812 274.667969 32 C 275.035156 30.734375 274.632812 29.5 273.667969 29 C 273.265625 28.800781 272 28.566406 270.832031 28.5 C 269.167969 28.367188 268.699219 28.433594 268.535156 28.867188 Z M 272.964844 31.300781 C 273.800781 31.832031 273 32.332031 271.300781 32.332031 C 270.167969 32.332031 269.667969 32.199219 269.667969 31.898438 C 269.667969 31.632812 269.765625 31.332031 269.898438 31.234375 C 270.199219 30.898438 272.433594 30.964844 272.964844 31.300781 Z M 273.066406 34.367188 C 273.765625 34.734375 273.765625 34.765625 273.167969 35.199219 C 272.265625 35.867188 270.035156 35.800781 269.765625 35.132812 C 269.367188 34.101562 271.601562 33.601562 273.066406 34.367188 Z M 273.066406 34.367188 "/>
<path style=" stroke:none;fill-rule:nonzero;fill:rgb(0%,0%,0%);fill-opacity:1;" d="M 48.667969 30.964844 L 47.5 31.167969 L 47.234375 34.132812 C 47 36.601562 47.035156 37.167969 47.433594 37.601562 C 48.464844 38.601562 49 37.867188 49 35.398438 C 49 33.066406 49.332031 32.332031 50.367188 32.332031 C 51.167969 32.332031 51.464844 31.734375 51 31.167969 C 50.566406 30.632812 50.5 30.632812 48.667969 30.964844 Z M 48.667969 30.964844 "/>
<path style=" stroke:none;fill-rule:nonzero;fill:rgb(0%,0%,0%);fill-opacity:1;" d="M 52.632812 31.601562 C 50.800781 33.234375 51.332031 36.566406 53.601562 37.632812 C 55.066406 38.332031 55.5 38.101562 57.367188 35.699219 L 58.234375 34.601562 L 59.167969 36.167969 C 59.898438 37.433594 60 37.800781 59.632812 38.035156 C 59.367188 38.199219 59.066406 38.332031 58.933594 38.332031 C 58.398438 38.332031 58.699219 39.066406 59.433594 39.699219 C 59.867188 40.066406 60.699219 40.300781 61.566406 40.332031 C 62.800781 40.332031 63.035156 40.199219 63.667969 39.199219 C 64.265625 38.199219 64.332031 37.632812 64.265625 34.601562 L 64.167969 31.167969 L 62.5 30.964844 C 59.898438 30.667969 59.300781 31.035156 58.535156 33.464844 C 58.367188 34 58.199219 33.898438 57.464844 32.800781 C 57 32.066406 56.367188 31.300781 56.066406 31.066406 C 55.167969 30.398438 53.765625 30.601562 52.632812 31.601562 Z M 55.667969 33 C 55.867188 33.398438 56 34.101562 55.933594 34.601562 C 55.765625 36.199219 53.332031 35.867188 53.332031 34.265625 C 53.332031 32.535156 54.933594 31.667969 55.667969 33 Z M 62.300781 32.632812 C 62.734375 32.933594 62.898438 35 62.5 35.632812 C 62.132812 36.265625 61.035156 36.035156 60.5 35.199219 C 60.035156 34.535156 60.035156 34.234375 60.367188 33.601562 C 61 32.398438 61.5 32.132812 62.300781 32.632812 Z M 62.667969 37.667969 C 62.667969 38.167969 62.433594 38.332031 61.734375 38.332031 C 60.433594 38.332031 60.167969 37.964844 61.066406 37.433594 C 62.167969 36.832031 62.667969 36.898438 62.667969 37.667969 Z M 62.667969 37.667969 "/>
<path style=" stroke:none;fill-rule:nonzero;fill:rgb(0%,0%,0%);fill-opacity:1;" d="M 67.5 30.933594 C 66.765625 31 66.101562 31.167969 66 31.332031 C 65.898438 31.464844 65.832031 32.933594 65.832031 34.566406 C 65.832031 37.398438 65.867188 37.5 66.632812 37.601562 C 67.601562 37.765625 68 37.167969 67.765625 35.933594 C 67.433594 34.265625 67.933594 32.699219 68.867188 32.464844 C 69.464844 32.300781 69.667969 32.066406 69.601562 31.566406 C 69.5 30.800781 69.332031 30.734375 67.5 30.933594 Z M 67.5 30.933594 "/>
<path style=" stroke:none;fill-rule:nonzero;fill:rgb(0%,0%,0%);fill-opacity:1;" d="M 71.433594 31.167969 C 70.667969 31.699219 70.398438 33.132812 71 33.5 C 71.199219 33.632812 71.132812 34 70.832031 34.464844 C 69.734375 36.101562 71.167969 38.433594 72.765625 37.601562 C 73.101562 37.433594 73.832031 37.332031 74.433594 37.398438 L 75.5 37.5 L 75.433594 34.699219 C 75.398438 32.832031 75.234375 31.765625 74.933594 31.433594 C 74.167969 30.699219 72.265625 30.535156 71.433594 31.167969 Z M 73.566406 32.898438 C 73.699219 33.300781 72.433594 33.867188 72.101562 33.535156 C 72 33.433594 72 33.132812 72.132812 32.832031 C 72.367188 32.234375 73.367188 32.265625 73.566406 32.898438 Z M 73.667969 34.832031 C 73.667969 35.132812 73.433594 35.433594 73.132812 35.566406 C 72.535156 35.800781 71.832031 35.199219 72.132812 34.699219 C 72.5 34.132812 73.667969 34.265625 73.667969 34.832031 Z M 73.667969 34.832031 "/>
<path style=" stroke:none;fill-rule:nonzero;fill:rgb(0%,0%,0%);fill-opacity:1;" d="M 78.433594 30.933594 L 76.699219 31.035156 L 76.601562 33.933594 C 76.464844 37.5 76.535156 37.734375 77.632812 37.601562 C 78.464844 37.5 78.5 37.433594 78.398438 35.5 C 78.265625 33.101562 78.800781 32.132812 80 32.5 C 80.734375 32.734375 80.734375 32.867188 80.566406 34.933594 C 80.332031 37.398438 80.667969 38.199219 81.699219 37.667969 C 82.199219 37.367188 82.300781 36.964844 82.234375 35.167969 C 82.199219 33.535156 82.300781 32.898438 82.667969 32.667969 C 83.632812 32.066406 84.066406 32.964844 83.933594 35.300781 C 83.832031 37.464844 83.832031 37.5 84.765625 37.601562 L 85.667969 37.699219 L 85.667969 34.699219 C 85.667969 31.832031 85.632812 31.667969 84.832031 31.132812 C 84.132812 30.667969 83.832031 30.667969 83 31 C 82.367188 31.265625 81.699219 31.300781 81.101562 31.132812 C 80.601562 30.964844 79.398438 30.867188 78.433594 30.933594 Z M 78.433594 30.933594 "/>
<path style=" stroke:none;fill-rule:nonzero;fill:rgb(0%,0%,0%);fill-opacity:1;" d="M 88.265625 30.898438 C 87.964844 30.964844 87.566406 31.464844 87.367188 32 C 87.101562 32.800781 87.132812 33.066406 87.601562 33.332031 C 88.101562 33.667969 88.101562 33.734375 87.433594 34.199219 C 86.535156 34.832031 86.5 35.332031 87.199219 36.699219 C 87.667969 37.632812 87.832031 37.699219 89.433594 37.632812 C 92.367188 37.535156 92.265625 37.601562 92.101562 35.066406 C 91.898438 31.867188 91.765625 31.5 90.832031 31.066406 C 89.964844 30.667969 89.300781 30.632812 88.265625 30.898438 Z M 90.300781 32.632812 C 90.667969 32.867188 90.632812 33 90.066406 33.300781 C 89.066406 33.832031 88.667969 33.765625 88.667969 33 C 88.667969 32.300781 89.464844 32.101562 90.300781 32.632812 Z M 90.5 34.632812 C 90.734375 35.035156 89.699219 36.066406 89.199219 35.898438 C 89 35.832031 88.800781 35.464844 88.734375 35.066406 C 88.632812 34.464844 88.800781 34.332031 89.464844 34.332031 C 89.933594 34.332031 90.367188 34.464844 90.5 34.632812 Z M 90.5 34.632812 "/>
<path style=" stroke:none;fill-rule:nonzero;fill:rgb(0%,0%,0%);fill-opacity:1;" d="M 94.265625 31.167969 C 93.765625 31.433594 93.265625 32 93.132812 32.398438 C 92.933594 33.132812 92.964844 33.167969 95.234375 35 C 95.464844 35.199219 95.800781 35.332031 96 35.332031 C 96.167969 35.332031 96.332031 35.464844 96.332031 35.667969 C 96.332031 36.132812 95.800781 36.101562 95 35.601562 C 94.535156 35.300781 94.265625 35.265625 93.964844 35.566406 C 92.964844 36.566406 95 38.167969 96.734375 37.765625 C 98.5 37.332031 99.367188 34.734375 97.933594 34.101562 L 97.167969 33.765625 L 97.933594 33.367188 C 98.832031 32.898438 98.867188 32.300781 98.035156 31.535156 C 97.167969 30.734375 95.332031 30.566406 94.265625 31.167969 Z M 96.535156 32.699219 C 96.632812 32.898438 96.601562 33.167969 96.464844 33.332031 C 96.066406 33.699219 94.566406 33.101562 94.832031 32.667969 C 95.101562 32.234375 96.234375 32.234375 96.535156 32.699219 Z M 96.535156 32.699219 "/>
<path style=" stroke:none;fill-rule:nonzero;fill:rgb(0%,0%,0%);fill-opacity:1;" d="M 245.601562 30.933594 C 244.699219 31 244 31.132812 243.964844 31.265625 C 243.964844 31.398438 243.933594 32.832031 243.898438 34.5 L 243.832031 37.5 L 244.765625 37.601562 L 245.667969 37.699219 L 245.667969 35.199219 C 245.667969 32.800781 245.699219 32.667969 246.464844 32.464844 C 247.867188 32.132812 248.101562 32.535156 247.867188 35.035156 C 247.632812 37.101562 247.699219 37.332031 248.332031 37.667969 C 249.566406 38.332031 250 37.601562 249.765625 35.199219 C 249.632812 33.566406 249.699219 33.066406 250.132812 32.699219 C 251.234375 31.800781 251.667969 32.464844 251.667969 35.132812 C 251.667969 37.765625 252.035156 38.367188 253.199219 37.535156 C 253.632812 37.199219 253.734375 36.800781 253.566406 35.667969 C 253.332031 33.867188 253.765625 32.667969 254.667969 32.667969 C 255.265625 32.667969 255.332031 32.867188 255.332031 34.933594 C 255.332031 37.398438 255.734375 38.167969 256.734375 37.632812 C 257.234375 37.367188 257.332031 36.898438 257.332031 34.734375 C 257.332031 31.964844 257.199219 31.632812 256.101562 31.035156 C 255.5 30.734375 255.101562 30.765625 254.199219 31.132812 C 253.464844 31.433594 252.964844 31.5 252.734375 31.265625 C 252.398438 30.933594 248.464844 30.734375 245.601562 30.933594 Z M 245.601562 30.933594 "/>
<path style=" stroke:none;fill-rule:nonzero;fill:rgb(0%,0%,0%);fill-opacity:1;" d="M 259.398438 31.199219 C 259 31.464844 258.667969 32.066406 258.667969 32.464844 C 258.667969 33.464844 259.535156 33.867188 259.765625 32.964844 C 259.933594 32.332031 261.300781 32.066406 261.765625 32.566406 C 262.167969 32.933594 261.300781 33.667969 260.464844 33.667969 C 259.265625 33.667969 258.265625 34.800781 258.535156 35.933594 C 258.898438 37.433594 259.332031 37.765625 260.867188 37.566406 C 261.632812 37.5 262.464844 37.535156 262.734375 37.699219 C 263.035156 37.867188 263.464844 37.800781 263.832031 37.566406 C 264.300781 37.199219 264.332031 36.933594 264.066406 35.898438 C 263.867188 35.234375 263.800781 34.367188 263.898438 34 C 264.535156 31.632812 261.5 29.734375 259.398438 31.199219 Z M 261.800781 34.632812 C 261.898438 34.765625 261.765625 35.167969 261.535156 35.5 C 261 36.265625 260 35.933594 260 35 C 260 34.5 260.234375 34.332031 260.800781 34.332031 C 261.265625 34.332031 261.699219 34.464844 261.800781 34.632812 Z M 261.800781 34.632812 "/>
<path style=" stroke:none;fill-rule:nonzero;fill:rgb(0%,0%,0%);fill-opacity:1;" d="M 17.199219 46.867188 C 16.800781 47.867188 16.964844 54.832031 17.398438 55.265625 C 17.832031 55.699219 21.601562 55.800781 22.199219 55.398438 C 22.398438 55.265625 23.101562 54.398438 23.765625 53.464844 C 24.765625 52 24.898438 51.601562 24.699219 50.632812 C 24.332031 49.035156 23.464844 47.464844 22.601562 46.867188 C 21.535156 46.132812 17.5 46.132812 17.199219 46.867188 Z M 22.5 49.199219 C 23.464844 50.265625 23.566406 51.535156 22.734375 52.601562 C 22.234375 53.265625 21.867188 53.367188 20.5 53.265625 L 18.867188 53.167969 L 18.800781 51 C 18.800781 49.800781 18.832031 48.734375 18.898438 48.566406 C 18.964844 48.433594 19.632812 48.332031 20.367188 48.332031 C 21.367188 48.332031 21.898438 48.535156 22.5 49.199219 Z M 22.5 49.199219 "/>
<path style=" stroke:none;fill-rule:nonzero;fill:rgb(0%,0%,0%);fill-opacity:1;" d="M 50.566406 46.566406 C 50.5 46.699219 50.5 48.734375 50.601562 51.066406 C 50.734375 55.066406 50.800781 55.332031 51.398438 55.332031 C 52.035156 55.332031 52.066406 55.199219 51.867188 53.367188 C 51.699219 51.800781 51.734375 51.300781 52.167969 50.867188 C 53.464844 49.601562 54.464844 50.765625 54.265625 53.398438 C 54.199219 54.699219 54.300781 55.167969 54.734375 55.433594 C 55.632812 56.035156 55.800781 55.5 55.734375 52.566406 C 55.632812 49.433594 55.101562 48.667969 53.167969 48.667969 C 52.132812 48.667969 52.035156 48.566406 51.933594 47.601562 C 51.832031 46.566406 50.933594 45.898438 50.566406 46.566406 Z M 50.566406 46.566406 "/>
<path style=" stroke:none;fill-rule:nonzero;fill:rgb(0%,0%,0%);fill-opacity:1;" d="M 84.699219 50.832031 C 84.667969 55.101562 84.699219 55.332031 85.300781 55.332031 C 85.667969 55.332031 86.035156 55.234375 86.101562 55.066406 C 86.167969 54.933594 86.132812 53.398438 86 51.667969 C 85.867188 49.699219 85.898438 48.300781 86.101562 47.964844 C 86.566406 47.234375 86.167969 46.332031 85.367188 46.332031 C 84.765625 46.332031 84.734375 46.632812 84.699219 50.832031 Z M 84.699219 50.832031 "/>
<path style=" stroke:none;fill-rule:nonzero;fill:rgb(0%,0%,0%);fill-opacity:1;" d="M 107.332031 47.5 C 107.332031 48.667969 107.265625 48.734375 106.464844 48.535156 C 104.300781 47.964844 102.800781 50.867188 103.832031 53.566406 C 104.535156 55.367188 105.234375 55.765625 107.167969 55.433594 L 108.667969 55.167969 L 108.765625 50.832031 C 108.832031 46.566406 108.832031 46.5 108.101562 46.398438 C 107.433594 46.300781 107.332031 46.433594 107.332031 47.5 Z M 107.332031 51.035156 C 107.566406 51.398438 107.632812 52.101562 107.535156 52.566406 C 107.332031 53.265625 107.167969 53.367188 106.066406 53.265625 C 105 53.167969 104.832031 53.035156 104.734375 52.234375 C 104.667969 51.699219 104.800781 51.066406 105.035156 50.800781 C 105.601562 50.101562 106.933594 50.234375 107.332031 51.035156 Z M 107.332031 51.035156 "/>
<path style=" stroke:none;fill-rule:nonzero;fill:rgb(0%,0%,0%);fill-opacity:1;" d="M 248.535156 47.734375 C 247.199219 49.132812 247.265625 49.632812 248.800781 49.667969 C 249.367188 49.667969 249.398438 49.867188 249.167969 52.464844 C 248.964844 55.101562 249 55.265625 249.632812 55.5 C 250 55.601562 250.464844 55.632812 250.632812 55.535156 C 250.800781 55.398438 250.933594 53.367188 250.898438 50.898438 C 250.832031 45.800781 250.632812 45.566406 248.535156 47.734375 Z M 248.535156 47.734375 "/>
<path style=" stroke:none;fill-rule:nonzero;fill:rgb(0%,0%,0%);fill-opacity:1;" d="M 253.800781 47.734375 C 253.066406 48.832031 252.832031 49.535156 252.832031 50.832031 C 252.832031 55.332031 256.667969 57.464844 258.332031 53.832031 C 259.199219 51.898438 259.167969 49.867188 258.234375 48 C 257.566406 46.632812 257.367188 46.5 256.132812 46.398438 C 254.867188 46.300781 254.699219 46.398438 253.800781 47.734375 Z M 256.699219 48.667969 C 257.199219 48.964844 257.332031 49.398438 257.332031 50.800781 C 257.332031 52.765625 256.867188 53.464844 255.601562 53.265625 C 254.898438 53.167969 254.832031 52.964844 254.734375 51.035156 C 254.601562 48.464844 255.132812 47.832031 256.699219 48.667969 Z M 256.699219 48.667969 "/>
<path style=" stroke:none;fill-rule:nonzero;fill:rgb(0%,0%,0%);fill-opacity:1;" d="M 26.898438 48.699219 C 26.132812 49.132812 25.332031 50.964844 25.332031 52.199219 C 25.332031 52.699219 25.632812 53.601562 26 54.199219 C 27.234375 56.167969 29.167969 56.132812 30.101562 54.167969 C 31 52.300781 30.832031 50.601562 29.699219 49.367188 C 28.699219 48.300781 27.933594 48.101562 26.898438 48.699219 Z M 29.101562 50.832031 C 29.132812 51 28.667969 51.199219 28.101562 51.265625 C 27.066406 51.367188 26.699219 51.066406 27.234375 50.535156 C 27.566406 50.199219 29 50.433594 29.101562 50.832031 Z M 29 52.667969 C 29.398438 52.933594 29.398438 53 28.898438 53.199219 C 28.167969 53.464844 27.234375 53.101562 27.5 52.667969 C 27.765625 52.265625 28.332031 52.234375 29 52.667969 Z M 29 52.667969 "/>
<path style=" stroke:none;fill-rule:nonzero;fill:rgb(0%,0%,0%);fill-opacity:1;" d="M 32.734375 48.867188 C 31.332031 49.832031 32.035156 52.066406 33.832031 52.398438 C 34.832031 52.566406 34.5 53.132812 33.265625 53.332031 C 32.398438 53.464844 32.199219 53.632812 32.265625 54.167969 C 32.398438 55.035156 33.265625 55.667969 34.234375 55.667969 C 35.199219 55.667969 36.667969 54.265625 36.667969 53.332031 C 36.667969 52.433594 35.566406 51.398438 34.433594 51.265625 C 33.132812 51.132812 33.566406 50.5 35 50.5 C 36.535156 50.5 36.765625 49.566406 35.367188 48.867188 C 34.101562 48.199219 33.667969 48.199219 32.734375 48.867188 Z M 32.734375 48.867188 "/>
<path style=" stroke:none;fill-rule:nonzero;fill:rgb(0%,0%,0%);fill-opacity:1;" d="M 39.066406 48.867188 C 38.167969 49.464844 37.332031 51.035156 37.332031 52.035156 C 37.332031 53 38.867188 55.265625 39.734375 55.535156 C 41.132812 55.964844 41.832031 55.433594 42.433594 53.535156 C 43.066406 51.464844 42.765625 49.964844 41.601562 48.898438 C 40.765625 48.199219 40.035156 48.167969 39.066406 48.867188 Z M 41.5 50.832031 C 41.5 51 40.933594 51.199219 40.265625 51.265625 C 39.066406 51.367188 38.699219 51.101562 39.234375 50.535156 C 39.601562 50.199219 41.5 50.433594 41.5 50.832031 Z M 41.132812 52.535156 C 41.867188 52.800781 41.464844 53.332031 40.5 53.332031 C 39.667969 53.332031 39.199219 52.933594 39.566406 52.535156 C 39.832031 52.265625 40.464844 52.265625 41.132812 52.535156 Z M 41.132812 52.535156 "/>
<path style=" stroke:none;fill-rule:nonzero;fill:rgb(0%,0%,0%);fill-opacity:1;" d="M 46.566406 48.535156 C 46.464844 48.632812 45.867188 48.734375 45.234375 48.734375 C 43.832031 48.734375 43.667969 49.101562 43.667969 52.699219 C 43.667969 54.667969 43.765625 55.300781 44.167969 55.464844 C 45.300781 55.898438 45.632812 55.332031 45.734375 52.898438 C 45.832031 50.734375 45.898438 50.5 46.535156 50.398438 C 47.832031 50.199219 48.433594 51.234375 48.234375 53.234375 C 48.066406 54.734375 48.132812 55.066406 48.667969 55.332031 C 49.667969 55.867188 49.933594 55.066406 49.667969 52.367188 C 49.464844 50.234375 49.300781 49.765625 48.535156 49.101562 C 47.632812 48.332031 46.964844 48.132812 46.566406 48.535156 Z M 46.566406 48.535156 "/>
<path style=" stroke:none;fill-rule:nonzero;fill:rgb(0%,0%,0%);fill-opacity:1;" d="M 57.699219 49.300781 C 56.832031 50.101562 56.667969 50.535156 56.667969 51.765625 C 56.667969 53.167969 57.398438 54.632812 58.5 55.398438 C 59.5 56.132812 61.667969 55.234375 61.667969 54.101562 C 61.667969 53.898438 61.898438 53.566406 62.167969 53.332031 C 62.433594 53.101562 62.667969 52.566406 62.667969 52.132812 C 62.667969 51.265625 63.464844 51.035156 63.765625 51.800781 C 63.867188 52.066406 64.332031 52.332031 64.832031 52.398438 C 66.035156 52.535156 65.898438 53.132812 64.601562 53.332031 C 63.332031 53.535156 63.035156 54.300781 63.867188 55.167969 C 64.632812 55.898438 66.464844 55.632812 67.535156 54.632812 C 68.464844 53.765625 68.535156 53.101562 67.800781 52.300781 C 67.398438 51.867188 67.367188 51.566406 67.632812 51.035156 C 68.199219 50 68.101562 49.699219 66.933594 49 C 65.300781 48 64.535156 48.167969 63.234375 49.734375 C 62.101562 51.101562 62.066406 51.101562 61.832031 50.300781 C 61.167969 48.132812 59.398438 47.699219 57.699219 49.300781 Z M 60.964844 51.398438 C 61.601562 52.5 61.035156 53.332031 59.632812 53.332031 C 58.300781 53.332031 57.765625 52.265625 58.5 51.132812 C 59.199219 50.066406 60.300781 50.199219 60.964844 51.398438 Z M 65.800781 50.535156 C 66.632812 50.832031 66.433594 51.332031 65.5 51.332031 C 64.964844 51.332031 64.667969 51.132812 64.667969 50.832031 C 64.667969 50.300781 64.964844 50.199219 65.800781 50.535156 Z M 65.800781 50.535156 "/>
<path style=" stroke:none;fill-rule:nonzero;fill:rgb(0%,0%,0%);fill-opacity:1;" d="M 73.035156 48.867188 C 72.398438 49.332031 72.300781 49.601562 72.5 50.566406 C 72.667969 51.433594 72.566406 51.898438 72.132812 52.367188 C 71.667969 52.898438 71.632812 53.132812 72 53.964844 C 72.632812 55.5 73 55.667969 75.433594 55.433594 L 77.667969 55.234375 L 77.5 53.035156 C 77.199219 49.734375 77.066406 49.398438 76 48.832031 C 74.765625 48.199219 74 48.199219 73.035156 48.867188 Z M 75.5 51 C 75.5 51.601562 74.398438 51.867188 73.933594 51.398438 C 73.734375 51.199219 73.699219 50.898438 73.832031 50.667969 C 74.167969 50.132812 75.5 50.398438 75.5 51 Z M 75.601562 52.699219 C 75.734375 53.367188 74.367188 53.800781 73.765625 53.265625 C 73.433594 53 73.398438 52.800781 73.734375 52.433594 C 74.234375 51.832031 75.464844 52 75.601562 52.699219 Z M 75.601562 52.699219 "/>
<path style=" stroke:none;fill-rule:nonzero;fill:rgb(0%,0%,0%);fill-opacity:1;" d="M 78.867188 48.566406 C 78.535156 48.898438 78.632812 55.265625 78.964844 55.464844 C 79.132812 55.601562 79.5 55.566406 79.800781 55.464844 C 80.199219 55.300781 80.265625 54.898438 80.132812 53.398438 C 79.898438 51.132812 80.433594 50.101562 81.632812 50.5 C 82.332031 50.699219 82.367188 50.898438 82.300781 52.933594 C 82.234375 55 82.265625 55.167969 82.933594 55.265625 C 83.632812 55.367188 83.667969 55.265625 83.667969 52.699219 C 83.667969 50.367188 83.566406 49.933594 82.867188 49.101562 C 82.132812 48.265625 81.964844 48.199219 81.066406 48.535156 C 80.5 48.734375 79.867188 48.800781 79.601562 48.632812 C 79.300781 48.464844 79 48.433594 78.867188 48.566406 Z M 78.867188 48.566406 "/>
<path style=" stroke:none;fill-rule:nonzero;fill:rgb(0%,0%,0%);fill-opacity:1;" d="M 92.867188 48.832031 C 92.433594 49.167969 92.066406 49.199219 91.667969 49 C 91.367188 48.832031 90.367188 48.734375 89.464844 48.800781 L 87.832031 48.867188 L 87.667969 51.867188 C 87.464844 54.867188 87.800781 56.035156 88.667969 55.5 C 88.933594 55.332031 89 54.699219 88.832031 53.535156 C 88.667969 52.101562 88.734375 51.632812 89.265625 51 C 89.800781 50.332031 90 50.265625 90.433594 50.601562 C 90.800781 50.933594 90.867188 51.5 90.765625 53.132812 C 90.601562 54.867188 90.667969 55.265625 91.132812 55.433594 C 92.300781 55.898438 92.632812 55.367188 92.734375 52.898438 C 92.832031 50.601562 92.867188 50.5 93.667969 50.5 C 94.464844 50.5 94.5 50.601562 94.601562 52.667969 C 94.699219 55.464844 94.832031 55.867188 95.5 55.332031 C 95.898438 55 95.964844 54.398438 95.800781 52.199219 C 95.5 48.632812 94.566406 47.535156 92.867188 48.832031 Z M 92.867188 48.832031 "/>
<path style=" stroke:none;fill-rule:nonzero;fill:rgb(0%,0%,0%);fill-opacity:1;" d="M 98 48.964844 C 97.265625 49.566406 97.234375 49.699219 97.632812 50.433594 C 98 51.132812 98 51.433594 97.566406 52.265625 C 97 53.464844 97.199219 54.898438 98 55.332031 C 98.332031 55.535156 99.433594 55.535156 100.535156 55.398438 C 102.234375 55.167969 102.5 55.066406 102.398438 54.5 C 102.367188 54.132812 102.265625 52.867188 102.167969 51.699219 C 102.066406 49.933594 101.898438 49.433594 101.265625 48.933594 C 100.265625 48.167969 99.035156 48.199219 98 48.964844 Z M 100.5 51 C 100.5 51.601562 99.367188 51.800781 98.667969 51.332031 C 98.234375 51.035156 98.234375 50.964844 98.667969 50.667969 C 99.367188 50.199219 100.5 50.398438 100.5 51 Z M 100.566406 52.535156 C 100.667969 52.832031 100.566406 53.199219 100.300781 53.367188 C 99.667969 53.765625 99.566406 53.734375 98.800781 53.167969 C 98.265625 52.734375 98.234375 52.632812 98.667969 52.332031 C 99.433594 51.832031 100.332031 51.933594 100.566406 52.535156 Z M 100.566406 52.535156 "/>
<path style=" stroke:none;fill-rule:nonzero;fill:rgb(0%,0%,0%);fill-opacity:1;" d="M 111.132812 48.933594 C 109.535156 50.234375 109.234375 52.234375 110.367188 54.132812 C 112.234375 57.300781 115.765625 54.933594 115.132812 50.964844 C 114.964844 50.066406 114.632812 49.433594 114 49 C 112.867188 48.199219 112.066406 48.167969 111.132812 48.933594 Z M 113.5 50.867188 C 113.800781 51.167969 114 51.800781 113.933594 52.300781 C 113.867188 53 113.632812 53.199219 112.734375 53.265625 C 110.867188 53.464844 110.066406 52.199219 111.234375 50.933594 C 111.898438 50.199219 112.765625 50.167969 113.5 50.867188 Z M 113.5 50.867188 "/>
<path style=" stroke:none;fill-rule:nonzero;fill:rgb(0%,0%,0%);fill-opacity:1;" d="M 117.300781 48.765625 C 115.898438 49.800781 116.300781 51.800781 118.035156 52.398438 C 119.199219 52.800781 119 53.332031 117.632812 53.332031 C 116.898438 53.332031 116.667969 53.5 116.667969 53.964844 C 116.667969 55.867188 119.167969 56.265625 120.699219 54.601562 C 121.765625 53.398438 121.933594 52.5 121.132812 52.199219 C 120.699219 52.035156 120.632812 51.699219 120.765625 50.832031 C 120.933594 49.898438 120.800781 49.5 120.265625 49 C 119.464844 48.265625 118.101562 48.132812 117.300781 48.765625 Z M 119.601562 50.898438 C 119.667969 51.167969 119.398438 51.332031 118.867188 51.332031 C 118 51.332031 117.535156 50.933594 117.898438 50.535156 C 118.265625 50.167969 119.433594 50.464844 119.601562 50.898438 Z M 119.601562 50.898438 "/>
<path style=" stroke:none;fill-rule:nonzero;fill:rgb(0%,0%,0%);fill-opacity:1;" d="M 248.433594 64.332031 C 246.734375 65 246.132812 69.265625 247.332031 71.898438 C 247.933594 73.234375 248.066406 73.332031 249.234375 73.332031 C 250.765625 73.300781 251.566406 72.765625 252.035156 71.398438 C 252.464844 70.101562 253.234375 69.800781 253.535156 70.765625 C 254.035156 72.398438 255 73.332031 256.167969 73.332031 C 257.101562 73.332031 257.464844 73.101562 258.167969 72.101562 C 258.632812 71.398438 259 70.5 259 70.066406 C 259 68.566406 256.035156 66.832031 255.566406 68.066406 C 255.367188 68.667969 255.035156 68.265625 254.933594 67.300781 C 254.832031 66.566406 254.933594 66.5 256.601562 66.398438 C 257.535156 66.332031 258.332031 66.167969 258.332031 66 C 258.332031 64.765625 256.898438 63.832031 255.535156 64.199219 C 254.734375 64.398438 253.332031 66.699219 253.332031 67.867188 C 253.332031 68.433594 253.234375 68.398438 252.667969 67.667969 C 252.300781 67.199219 252 66.601562 252 66.300781 C 252 64.898438 249.898438 63.765625 248.433594 64.332031 Z M 250.832031 67.332031 C 251.101562 67.867188 251.332031 68.535156 251.332031 68.832031 C 251.332031 69.765625 250.332031 71.332031 249.734375 71.332031 C 248.734375 71.332031 248.332031 70.601562 248.332031 68.832031 C 248.332031 67.898438 248.5 66.964844 248.734375 66.734375 C 249.433594 66.035156 250.300781 66.300781 250.832031 67.332031 Z M 256.933594 69.433594 C 257.632812 69.964844 257.398438 70.964844 256.5 71.199219 C 255.332031 71.5 254.667969 71.132812 254.667969 70.234375 C 254.667969 68.832031 255.667969 68.464844 256.933594 69.433594 Z M 256.933594 69.433594 "/>
<path style=" stroke:none;fill-rule:nonzero;fill:rgb(0%,0%,0%);fill-opacity:1;" d="M 52.898438 64.566406 C 52.800781 64.734375 52.699219 66.699219 52.632812 69 L 52.5 73.167969 L 53.5 73.167969 C 54.5 73.167969 54.5 73.132812 54.5 71.332031 L 54.5 69.5 L 56.167969 69.332031 C 57.566406 69.199219 57.832031 69.066406 57.933594 68.398438 C 58.035156 67.734375 57.898438 67.667969 56.433594 67.667969 C 55.566406 67.667969 54.632812 67.535156 54.367188 67.367188 C 53.5 66.800781 54.367188 66.332031 56.234375 66.332031 C 57.5 66.332031 58.300781 66.167969 58.734375 65.800781 C 59.265625 65.265625 59.332031 65.300781 59.601562 65.964844 C 59.734375 66.367188 59.734375 68 59.601562 69.601562 C 59.300781 73.066406 59.367188 73.398438 60.566406 73.265625 L 61.5 73.167969 L 61.398438 70.332031 C 61.332031 68.765625 61.132812 67.367188 61 67.234375 C 60.867188 67.066406 60.964844 66.5 61.234375 65.964844 C 61.5 65.433594 61.632812 64.867188 61.535156 64.699219 C 61.300781 64.332031 53.101562 64.234375 52.898438 64.566406 Z M 52.898438 64.566406 "/>
<path style=" stroke:none;fill-rule:nonzero;fill:rgb(0%,0%,0%);fill-opacity:1;" d="M 62.632812 64.566406 C 62.632812 64.765625 62.632812 72.035156 62.667969 73.066406 C 62.667969 73.234375 62.898438 73.332031 63.167969 73.332031 C 63.601562 73.332031 63.667969 72.601562 63.667969 68.832031 C 63.667969 65.066406 63.601562 64.332031 63.167969 64.332031 C 62.898438 64.332031 62.667969 64.433594 62.632812 64.566406 Z M 62.632812 64.566406 "/>
<path style=" stroke:none;fill-rule:nonzero;fill:rgb(0%,0%,0%);fill-opacity:1;" d="M 70.167969 66.734375 C 69.300781 67.398438 69.199219 67.398438 68.832031 66.898438 C 68.566406 66.535156 67.964844 66.332031 67.132812 66.332031 C 65 66.332031 64.832031 66.601562 64.734375 70.167969 L 64.601562 73.332031 L 65.464844 73.332031 C 66.265625 73.332031 66.300781 73.265625 66.398438 70.898438 C 66.5 68.601562 66.535156 68.5 67.332031 68.5 C 68.132812 68.5 68.167969 68.566406 68.167969 70.832031 C 68.167969 73.101562 68.199219 73.167969 69 73.167969 C 69.800781 73.167969 69.832031 73.101562 69.832031 70.832031 L 69.832031 68.5 L 71.832031 68.5 L 71.734375 70.898438 C 71.601562 73.332031 71.632812 73.332031 72.464844 73.332031 C 73.332031 73.332031 73.332031 73.300781 73.332031 70.832031 C 73.332031 68.199219 72.800781 66.601562 71.832031 66.199219 C 71.101562 65.933594 71.234375 65.898438 70.167969 66.734375 Z M 70.167969 66.734375 "/>
<path style=" stroke:none;fill-rule:nonzero;fill:rgb(0%,0%,0%);fill-opacity:1;" d="M 75.066406 67.632812 C 74.234375 69.101562 74.167969 69.898438 74.734375 71.234375 C 75.398438 72.765625 76.035156 73.332031 77.132812 73.332031 C 78.234375 73.332031 79.367188 72.367188 79.5 71.367188 C 79.535156 71.066406 79.667969 70.398438 79.800781 69.898438 C 80.035156 69.167969 79.898438 68.699219 79.167969 67.667969 C 78.367188 66.535156 78.066406 66.332031 77 66.332031 C 75.933594 66.332031 75.699219 66.5 75.066406 67.632812 Z M 78.832031 70.832031 C 78.832031 71.199219 76.867188 71.464844 76.101562 71.199219 C 75.832031 71.101562 75.734375 70.832031 75.832031 70.667969 C 76.101562 70.199219 78.832031 70.367188 78.832031 70.832031 Z M 78.832031 70.832031 "/>
<path style=" stroke:none;fill-rule:nonzero;fill:rgb(0%,0%,0%);fill-opacity:1;" d="M 81.199219 67.066406 C 80.898438 67.464844 80.667969 67.933594 80.667969 68.101562 C 80.667969 68.765625 82.101562 70.167969 82.933594 70.332031 C 84.300781 70.601562 83.964844 71.167969 82.433594 71.265625 C 80.933594 71.367188 80.699219 71.734375 81.464844 72.734375 C 81.734375 73.101562 82.367188 73.332031 83.066406 73.332031 C 85.167969 73.332031 86.398438 71.035156 85.101562 69.601562 C 84.667969 69.101562 84.601562 68.832031 84.898438 68.398438 C 85.132812 68 85.132812 67.601562 84.898438 67.066406 C 84.398438 66 81.933594 66 81.199219 67.066406 Z M 81.199219 67.066406 "/>
<path style=" stroke:none;fill-rule:nonzero;fill:rgb(0%,0%,0%);fill-opacity:1;" d="M 54.667969 83.832031 C 54.398438 84.167969 54.332031 85 54.464844 86.566406 C 54.601562 87.867188 54.535156 89.035156 54.367188 89.332031 C 54 89.898438 54.035156 89.933594 53.167969 88.199219 C 50.800781 83.601562 50.699219 83.5 49.5 83.800781 L 48.632812 84.035156 L 48.734375 88.265625 L 48.832031 92.5 L 49.667969 92.5 C 50.464844 92.5 50.5 92.433594 50.601562 90 C 50.699219 87.199219 51.101562 86.398438 51.667969 87.867188 C 51.867188 88.398438 52.132812 88.898438 52.265625 89 C 52.398438 89.101562 52.867188 89.898438 53.332031 90.832031 C 54.132812 92.433594 55.167969 93.132812 55.632812 92.367188 C 55.933594 91.898438 56.066406 84.734375 55.800781 83.933594 C 55.566406 83.199219 55.234375 83.167969 54.667969 83.832031 Z M 54.667969 83.832031 "/>
<path style=" stroke:none;fill-rule:nonzero;fill:rgb(0%,0%,0%);fill-opacity:1;" d="M 75.765625 83.765625 C 75.5 84.199219 75.601562 91.964844 75.898438 92.433594 C 76 92.566406 76.300781 92.5 76.566406 92.265625 C 76.898438 92 77 91.5 76.898438 90.667969 C 76.800781 90.035156 76.832031 88.398438 77 87.035156 C 77.132812 85.667969 77.199219 84.367188 77.101562 84.132812 C 76.867188 83.535156 76.066406 83.300781 75.765625 83.765625 Z M 75.765625 83.765625 "/>
<path style=" stroke:none;fill-rule:nonzero;fill:rgb(0%,0%,0%);fill-opacity:1;" d="M 248.332031 83.765625 C 247.101562 84.734375 246.667969 85.800781 246.667969 88 C 246.667969 90.933594 247.433594 92.464844 248.964844 92.601562 C 250.800781 92.800781 251.601562 92.433594 251.832031 91.332031 C 251.964844 90.800781 252.199219 90.265625 252.367188 90.167969 C 252.898438 89.832031 252.699219 87.132812 252.035156 85.601562 C 251.199219 83.667969 249.5 82.832031 248.332031 83.765625 Z M 250.867188 87 C 251.601562 89.234375 249.933594 91.734375 248.765625 90.132812 C 248.234375 89.398438 248.199219 87.199219 248.699219 86.300781 C 249.265625 85.234375 250.433594 85.601562 250.867188 87 Z M 250.867188 87 "/>
<path style=" stroke:none;fill-rule:nonzero;fill:rgb(0%,0%,0%);fill-opacity:1;" d="M 254.601562 83.898438 C 254.300781 84.234375 253.964844 85.035156 253.832031 85.667969 C 253.734375 86.300781 253.535156 87.101562 253.464844 87.433594 C 253.199219 88.265625 254.234375 88.535156 255 87.832031 C 255.566406 87.332031 255.800781 87.300781 256.5 87.601562 C 257.398438 88.035156 257.667969 89.535156 256.933594 90.265625 C 256.367188 90.832031 255.101562 90.765625 254.734375 90.101562 C 254.367188 89.464844 253.332031 89.734375 253.332031 90.433594 C 253.332031 90.699219 253.632812 91.300781 254.035156 91.800781 C 254.566406 92.464844 255 92.667969 256 92.667969 C 257.132812 92.667969 257.433594 92.5 258.167969 91.433594 C 258.632812 90.734375 259 89.699219 259 89.132812 C 259 87.832031 257.800781 86.433594 256.566406 86.265625 C 255.132812 86.101562 255.332031 85.5 256.933594 85.398438 C 258.398438 85.300781 258.800781 84.601562 257.933594 83.734375 C 257.332031 83.132812 255.199219 83.234375 254.601562 83.898438 Z M 254.601562 83.898438 "/>
<path style=" stroke:none;fill-rule:nonzero;fill:rgb(0%,0%,0%);fill-opacity:1;" d="M 57.765625 86.601562 C 56.5 88.035156 56.367188 89.132812 57.332031 90.964844 C 58.035156 92.367188 58.5 92.667969 60.167969 92.667969 C 62.464844 92.667969 63.5 88.734375 61.800781 86.464844 C 60.566406 84.867188 59.234375 84.933594 57.765625 86.601562 Z M 60.800781 87.535156 C 61.566406 87.832031 61.5 89.765625 60.699219 90.464844 C 59.898438 91.199219 58.832031 90.734375 58.535156 89.5 C 58.132812 87.898438 59.234375 86.933594 60.800781 87.535156 Z M 60.800781 87.535156 "/>
<path style=" stroke:none;fill-rule:nonzero;fill:rgb(0%,0%,0%);fill-opacity:1;" d="M 63.199219 85.601562 C 63.101562 85.765625 63.300781 86.800781 63.699219 87.867188 C 64.066406 88.964844 64.5 90.300781 64.699219 90.867188 C 64.867188 91.464844 65.234375 92.132812 65.535156 92.367188 C 66.234375 92.933594 66.734375 92.332031 67.464844 89.898438 C 67.765625 88.867188 68.132812 88 68.265625 88 C 68.433594 88 68.699219 88.699219 68.933594 89.535156 C 69.832031 92.867188 72.433594 93.699219 74.300781 91.234375 C 74.632812 90.800781 74.667969 90.566406 74.367188 90.199219 C 74.101562 89.867188 74.066406 89.667969 74.332031 89.5 C 75.066406 89.066406 74.667969 87.464844 73.566406 86.398438 C 72.199219 85.066406 71.433594 85.066406 70.199219 86.332031 C 69 87.535156 68.667969 87.601562 68.667969 86.535156 C 68.667969 86.066406 68.535156 85.632812 68.367188 85.535156 C 67.964844 85.265625 66.933594 86.898438 66.667969 88.167969 C 66.367188 89.632812 65.933594 89.398438 65.101562 87.332031 C 64.433594 85.601562 63.632812 84.898438 63.199219 85.601562 Z M 73.265625 87.5 C 73.632812 87.867188 72.800781 88.332031 71.800781 88.332031 C 70.667969 88.332031 70.167969 87.601562 71.101562 87.199219 C 71.464844 87.035156 73.035156 87.265625 73.265625 87.5 Z M 72.933594 90.332031 C 72.433594 91.167969 71.234375 91.101562 71.066406 90.234375 C 70.964844 89.765625 71.199219 89.667969 72.132812 89.667969 C 73.265625 89.667969 73.300781 89.699219 72.933594 90.332031 Z M 72.933594 90.332031 "/>
<path style=" stroke:none;fill-rule:nonzero;fill:rgb(0%,0%,0%);fill-opacity:1;" d="M 79.199219 86.035156 C 78.132812 86.867188 78.332031 87.332031 79.832031 87.332031 C 81.367188 87.332031 81.632812 87.898438 80.234375 88.167969 C 79.535156 88.300781 78.800781 88.765625 78.398438 89.300781 C 77.800781 90.101562 77.800781 90.300781 78.199219 91.265625 C 78.765625 92.632812 79.300781 92.832031 81.433594 92.464844 L 83.167969 92.167969 L 83.101562 89.566406 C 83.035156 86.464844 82.5 85.332031 81.035156 85.332031 C 80.5 85.332031 79.699219 85.632812 79.199219 86.035156 Z M 81.765625 89.566406 C 82.066406 89.832031 81.035156 91 80.464844 91 C 79.898438 91 79.566406 90.398438 79.800781 89.832031 C 79.964844 89.332031 81.367188 89.132812 81.765625 89.566406 Z M 81.765625 89.566406 "/>
<path style=" stroke:none;fill-rule:nonzero;fill:rgb(0%,0%,0%);fill-opacity:1;" d="M 85.199219 86.167969 C 84.566406 87.132812 84.5 88.464844 85.101562 88.898438 C 85.300781 89.101562 85.964844 89.398438 86.5 89.566406 C 87.800781 89.964844 88.066406 91 86.867188 91 C 86.398438 91 85.933594 90.832031 85.832031 90.667969 C 85.5 90.101562 84.667969 90.300781 84.667969 90.933594 C 84.667969 92.601562 87.5 93.265625 89.132812 91.964844 C 89.632812 91.566406 90 90.964844 90 90.5 C 90 89.632812 88.699219 88.535156 87.234375 88.167969 C 85.898438 87.832031 86.132812 87.332031 87.632812 87.332031 C 89.265625 87.332031 89.632812 86.832031 88.601562 86 C 87.464844 85.066406 85.867188 85.132812 85.199219 86.167969 Z M 85.199219 86.167969 "/>
<path style=" stroke:none;fill-rule:nonzero;fill:rgb(0%,0%,0%);fill-opacity:1;" d="M 69.265625 101.234375 C 68.433594 101.433594 68.535156 102.234375 69.398438 102.464844 C 70.300781 102.667969 70.832031 102.234375 70.566406 101.535156 C 70.332031 101 70.265625 100.964844 69.265625 101.234375 Z M 69.265625 101.234375 "/>
<path style=" stroke:none;fill-rule:nonzero;fill:rgb(0%,0%,0%);fill-opacity:1;" d="M 254.800781 101.332031 C 253.933594 101.667969 253.734375 102.199219 253.464844 104.535156 C 253.265625 106.199219 253.300781 106.332031 253.964844 106.332031 C 254.332031 106.332031 254.667969 106.199219 254.667969 106.035156 C 254.667969 105.5 255.933594 105.265625 256.667969 105.667969 C 257.5 106.101562 257.601562 107.832031 256.800781 108.132812 C 255.898438 108.5 255 108.367188 254.800781 107.832031 C 254.566406 107.300781 253.5 107.167969 253.199219 107.632812 C 252.867188 108.167969 253.601562 109.601562 254.5 110.199219 C 255.832031 111.066406 257.398438 110.601562 258.265625 109.035156 C 259.601562 106.667969 258.867188 104.332031 256.800781 104.332031 C 256.265625 104.332031 255.632812 104.199219 255.367188 104.035156 C 254.601562 103.535156 255.535156 102.667969 256.800781 102.667969 C 257.367188 102.667969 258.066406 102.5 258.332031 102.332031 C 258.765625 102.035156 258.734375 101.933594 258.199219 101.5 C 257.464844 100.964844 255.898438 100.867188 254.800781 101.332031 Z M 254.800781 101.332031 "/>
<path style=" stroke:none;fill-rule:nonzero;fill:rgb(0%,0%,0%);fill-opacity:1;" d="M 42.867188 101.601562 C 42.601562 102.035156 42.5 109.832031 42.765625 110.234375 C 43.101562 110.765625 44.332031 110.367188 44.367188 109.699219 C 44.464844 108.765625 44.300781 106.199219 44.132812 105.566406 C 43.832031 104.566406 45.300781 104.867188 45.699219 105.898438 C 46.199219 107.234375 48.601562 110.332031 49.132812 110.332031 C 49.464844 110.332031 49.601562 109.300781 49.765625 106.066406 C 49.867188 103.734375 49.832031 101.699219 49.667969 101.535156 C 49.5 101.367188 49.132812 101.332031 48.832031 101.464844 C 48.332031 101.632812 48.300781 102.035156 48.5 104.332031 C 48.632812 105.933594 48.601562 107 48.433594 107 C 47.933594 107 46.832031 105.601562 46.167969 104.167969 C 45.867188 103.433594 45.265625 102.5 44.898438 102.066406 C 44.234375 101.332031 43.199219 101.101562 42.867188 101.601562 Z M 42.867188 101.601562 "/>
<path style=" stroke:none;fill-rule:nonzero;fill:rgb(0%,0%,0%);fill-opacity:1;" d="M 60.667969 101.867188 C 60.667969 102.167969 60.898438 102.332031 61.234375 102.265625 C 62.066406 102.101562 62.167969 101.332031 61.367188 101.332031 C 60.964844 101.332031 60.667969 101.535156 60.667969 101.867188 Z M 60.667969 101.867188 "/>
<path style=" stroke:none;fill-rule:nonzero;fill:rgb(0%,0%,0%);fill-opacity:1;" d="M 73.5 101.667969 C 73.234375 102.101562 74.167969 102.464844 74.832031 102.199219 C 75.101562 102.101562 75.332031 101.867188 75.332031 101.667969 C 75.332031 101.234375 73.765625 101.234375 73.5 101.667969 Z M 73.5 101.667969 "/>
<path style=" stroke:none;fill-rule:nonzero;fill:rgb(0%,0%,0%);fill-opacity:1;" d="M 81.667969 101.832031 C 81.667969 102.234375 81.898438 102.332031 82.5 102.265625 C 82.964844 102.199219 83.367188 102 83.367188 101.832031 C 83.367188 101.632812 82.964844 101.464844 82.5 101.398438 C 81.898438 101.332031 81.667969 101.433594 81.667969 101.832031 Z M 81.667969 101.832031 "/>
<path style=" stroke:none;fill-rule:nonzero;fill:rgb(0%,0%,0%);fill-opacity:1;" d="M 248.5 102.464844 C 247.066406 103.734375 247.066406 104.667969 248.535156 104.667969 L 249.433594 104.667969 L 249.199219 107.132812 C 249.035156 109.167969 249.066406 109.699219 249.535156 110.132812 C 249.964844 110.566406 250.167969 110.601562 250.535156 110.300781 C 250.898438 110 251 109.066406 250.964844 106.199219 C 250.867188 100.699219 250.734375 100.5 248.5 102.464844 Z M 248.5 102.464844 "/>
<path style=" stroke:none;fill-rule:nonzero;fill:rgb(0%,0%,0%);fill-opacity:1;" d="M 58 102.035156 C 58 102.265625 57.734375 102.734375 57.433594 103.066406 C 56.898438 103.667969 56.898438 103.765625 57.433594 104.667969 C 57.867188 105.367188 58 106.234375 57.933594 107.699219 C 57.867188 109.332031 57.964844 109.832031 58.464844 110.167969 C 59.667969 111.066406 60.398438 110.066406 59.601562 108.566406 C 59.398438 108.167969 59.167969 107.398438 59.101562 106.898438 C 59 105.832031 59.933594 103.933594 60.433594 104.234375 C 60.601562 104.332031 60.667969 105.699219 60.632812 107.300781 C 60.535156 109.800781 60.601562 110.167969 61.101562 110.265625 C 61.601562 110.367188 61.667969 110 61.667969 106.832031 L 61.667969 103.265625 L 60.867188 103.464844 C 60.332031 103.601562 59.898438 103.433594 59.464844 102.964844 C 59.132812 102.566406 58.867188 102.167969 58.933594 102.035156 C 59 101.933594 58.800781 101.800781 58.535156 101.734375 C 58.234375 101.667969 58 101.800781 58 102.035156 Z M 58 102.035156 "/>
<path style=" stroke:none;fill-rule:nonzero;fill:rgb(0%,0%,0%);fill-opacity:1;" d="M 51.964844 103.933594 C 50.933594 104.832031 50.832031 105.132812 50.867188 106.601562 C 50.964844 109.566406 52.332031 111 54.5 110.464844 C 55.667969 110.167969 56.667969 108.398438 56.667969 106.601562 C 56.667969 105.367188 56.5 104.964844 55.667969 104.234375 C 54.132812 102.832031 53.265625 102.765625 51.964844 103.933594 Z M 54.632812 105.367188 C 55.800781 105.765625 55.933594 106.464844 55.132812 107.601562 C 54.464844 108.535156 52.832031 108.601562 52.332031 107.699219 C 51.800781 106.667969 51.933594 105.800781 52.765625 105.398438 C 53.167969 105.199219 53.5 105.035156 53.535156 105.035156 C 53.566406 105 54.035156 105.167969 54.632812 105.367188 Z M 54.632812 105.367188 "/>
<path style=" stroke:none;fill-rule:nonzero;fill:rgb(0%,0%,0%);fill-opacity:1;" d="M 69.464844 103.265625 C 68.734375 103.765625 68.367188 104.800781 68.734375 105.433594 C 68.898438 105.800781 68.964844 106.535156 68.867188 107.132812 C 68.667969 108.132812 68.601562 108.167969 66.832031 108.234375 C 65.167969 108.300781 64.933594 108.234375 64.667969 107.535156 C 64.5 107.101562 64.464844 106.433594 64.566406 106.035156 C 64.734375 105.300781 65.066406 105.234375 66.933594 105.332031 C 68.167969 105.398438 68.367188 104.765625 67.398438 103.898438 C 66 102.632812 63.300781 103.800781 62.800781 105.898438 C 62.535156 106.867188 63.132812 108.832031 63.933594 109.734375 C 64.601562 110.5 66.898438 110.535156 67.734375 109.765625 C 68.300781 109.265625 68.367188 109.265625 69 109.832031 C 69.332031 110.132812 69.867188 110.332031 70.167969 110.199219 C 70.601562 110.035156 70.667969 109.464844 70.601562 106.601562 C 70.5 103.367188 70.265625 102.699219 69.464844 103.265625 Z M 69.464844 103.265625 "/>
<path style=" stroke:none;fill-rule:nonzero;fill:rgb(0%,0%,0%);fill-opacity:1;" d="M 73.367188 103.234375 C 72.566406 103.566406 71.632812 104.667969 71.867188 105.035156 C 72 105.265625 72.566406 105.332031 73.199219 105.234375 C 74.699219 104.964844 74.632812 105.464844 73.101562 106.234375 C 71.964844 106.765625 71.832031 107 71.734375 108.199219 C 71.601562 110 72.132812 110.398438 74.566406 110.265625 L 76.5 110.167969 L 76.464844 107.800781 C 76.464844 104.035156 75.367188 102.433594 73.367188 103.234375 Z M 75 107.601562 C 75 108.066406 74.234375 108.667969 73.632812 108.667969 C 72.933594 108.667969 72.535156 108.132812 72.832031 107.667969 C 73.066406 107.265625 75 107.199219 75 107.601562 Z M 75 107.601562 "/>
<path style=" stroke:none;fill-rule:nonzero;fill:rgb(0%,0%,0%);fill-opacity:1;" d="M 85.035156 104.167969 C 84.464844 104.800781 83.867188 105.332031 83.699219 105.332031 C 83.535156 105.332031 83.300781 105.535156 83.199219 105.734375 C 83.101562 105.964844 83.066406 105.601562 83.167969 104.933594 C 83.332031 103.832031 83.265625 103.667969 82.601562 103.5 C 82.167969 103.398438 80.964844 103.367188 79.867188 103.433594 L 77.898438 103.535156 L 77.832031 106.601562 C 77.765625 109.933594 77.933594 110.464844 78.867188 110.265625 C 79.433594 110.167969 79.5 109.867188 79.398438 107.964844 C 79.300781 105.933594 79.367188 105.734375 80.132812 105.199219 C 81.535156 104.300781 81.667969 104.5 81.667969 107.300781 C 81.667969 108.800781 81.832031 110.066406 82 110.167969 C 82.5 110.464844 83.332031 109.699219 83.332031 108.964844 C 83.332031 107.898438 83.933594 107.964844 84.601562 109.167969 C 85.765625 111.132812 88.066406 111.035156 89.332031 108.933594 C 90 107.832031 90.199219 105.832031 89.734375 105.066406 C 89.265625 104.367188 87.234375 103 86.632812 103 C 86.332031 103 85.601562 103.535156 85.035156 104.167969 Z M 87.699219 105.332031 C 88.433594 105.734375 88.566406 107.300781 87.933594 107.933594 C 87.367188 108.5 85.765625 108.433594 85.535156 107.800781 C 84.765625 105.800781 85.964844 104.433594 87.699219 105.332031 Z M 87.699219 105.332031 "/>
<path style=" stroke:none;fill-rule:nonzero;fill:rgb(0%,0%,0%);fill-opacity:1;" d="M 92.367188 103.234375 C 91.734375 103.5 90.832031 104.433594 90.535156 105.167969 C 90.265625 105.898438 91.464844 107.332031 92.367188 107.332031 C 93.265625 107.332031 94.035156 107.699219 93.800781 108.035156 C 93.699219 108.199219 92.964844 108.332031 92.132812 108.332031 C 90.398438 108.332031 90.199219 108.898438 91.535156 109.964844 C 92.667969 110.867188 93.667969 110.867188 94.800781 109.964844 C 96.398438 108.699219 95.765625 106.734375 93.566406 106.199219 C 92.199219 105.867188 92.632812 105.167969 94.066406 105.265625 C 95.667969 105.398438 95.867188 104.898438 94.632812 103.867188 C 93.601562 103 93.234375 102.898438 92.367188 103.234375 Z M 92.367188 103.234375 "/>
</g>
</svg>
