<?xml version="1.0" encoding="UTF-8"?>
<svg xmlns="http://www.w3.org/2000/svg" xmlns:xlink="http://www.w3.org/1999/xlink" width="399pt" height="366pt" viewBox="0 0 399 366" version="1.1">
<g id="surface1">
<path style=" stroke:none;fill-rule:nonzero;fill:rgb(0%,0%,0%);fill-opacity:1;" d="M 105.507812 14.34375 C 104.941406 14.980469 105.636719 15.871094 106.714844 15.871094 C 107.21875 15.871094 107.597656 15.425781 107.597656 14.917969 C 107.597656 13.964844 106.269531 13.582031 105.507812 14.34375 Z M 105.507812 14.34375 "/>
<path style=" stroke:none;fill-rule:nonzero;fill:rgb(0%,0%,0%);fill-opacity:1;" d="M 91.964844 16.945312 C 90.828125 17.707031 90.507812 18.535156 90.507812 20.628906 C 90.507812 22.46875 90.191406 23.484375 89.5625 23.738281 C 89.054688 23.929688 88.609375 24.753906 88.609375 25.644531 C 88.609375 26.53125 88.292969 27.417969 87.980469 27.609375 C 87.597656 27.863281 87.472656 28.5625 87.660156 29.199219 C 87.851562 29.832031 87.726562 30.527344 87.34375 30.78125 C 87.027344 30.972656 86.710938 31.863281 86.710938 32.753906 C 86.710938 33.640625 86.269531 34.464844 85.761719 34.65625 C 85.191406 34.910156 84.8125 35.863281 84.8125 36.878906 C 84.8125 38.082031 84.496094 38.71875 83.863281 38.71875 C 83.230469 38.71875 82.914062 39.351562 82.914062 40.625 C 82.914062 42.527344 82.597656 43.160156 80.257812 45.761719 C 79.558594 46.460938 79.117188 47.988281 79.117188 49.445312 C 79.117188 51.03125 78.796875 52.046875 78.167969 52.300781 C 77.660156 52.492188 77.214844 53.378906 77.214844 54.269531 C 77.214844 55.285156 76.839844 55.855469 76.269531 55.855469 C 75.761719 55.855469 75.320312 56.234375 75.320312 56.742188 C 75.320312 57.1875 74.9375 57.949219 74.433594 58.332031 C 73.992188 58.714844 73.421875 60.742188 73.167969 62.835938 C 72.914062 64.933594 72.472656 66.773438 72.15625 66.960938 C 71.773438 67.214844 71.519531 68.488281 71.519531 69.882812 C 71.519531 71.914062 71.140625 72.742188 69.621094 74.070312 C 68.609375 74.898438 67.726562 76.167969 67.726562 76.804688 C 67.726562 77.5 67.28125 78.261719 66.648438 78.578125 C 65.890625 79.023438 65.699219 79.722656 66.015625 81.496094 C 66.328125 83.339844 66.144531 83.914062 65.128906 84.417969 C 64.496094 84.796875 63.925781 85.75 63.925781 86.511719 C 63.925781 87.339844 63.164062 88.414062 62.089844 89.113281 C 60.507812 90.195312 60.253906 90.832031 59.941406 94.449219 C 59.75 96.667969 59.304688 98.824219 58.925781 99.207031 C 58.542969 99.585938 58.230469 100.792969 58.230469 101.871094 C 58.230469 103.140625 57.597656 104.539062 56.332031 105.871094 C 55.320312 107.015625 54.433594 108.667969 54.433594 109.550781 C 54.433594 110.503906 54.050781 111.078125 53.421875 111.078125 C 52.660156 111.078125 52.46875 111.648438 52.59375 113.613281 C 52.722656 115.265625 52.46875 116.40625 51.839844 116.914062 C 50.253906 118.25 48.738281 121.105469 48.738281 122.820312 C 48.738281 123.832031 48.355469 124.40625 47.785156 124.40625 C 47.21875 124.40625 46.835938 124.976562 46.835938 125.992188 C 46.835938 126.882812 46.394531 127.769531 45.890625 127.960938 C 45.382812 128.214844 44.9375 129.167969 44.9375 130.121094 C 44.9375 131.132812 44.621094 132.148438 44.308594 132.339844 C 43.925781 132.59375 43.800781 133.292969 43.988281 133.929688 C 44.179688 134.558594 44.054688 135.257812 43.671875 135.511719 C 43.355469 135.703125 43.039062 136.59375 43.039062 137.484375 C 43.039062 138.367188 42.597656 139.195312 42.089844 139.386719 C 41.457031 139.640625 41.140625 140.65625 41.140625 142.175781 C 41.140625 143.511719 40.699219 144.90625 40.191406 145.351562 C 39.6875 145.796875 39.242188 146.492188 39.242188 146.875 C 39.242188 147.257812 38.417969 148.523438 37.34375 149.667969 C 35.949219 151.253906 35.441406 152.394531 35.441406 154.238281 C 35.441406 155.757812 35.125 156.777344 34.496094 157.03125 C 33.988281 157.222656 33.542969 158.109375 33.542969 159 C 33.542969 159.949219 33.167969 160.585938 32.660156 160.585938 C 31.773438 160.585938 30.632812 165.792969 31.265625 166.867188 C 31.457031 167.183594 31.203125 167.566406 30.695312 167.820312 C 30.128906 168.011719 29.75 168.964844 29.75 170.039062 C 29.75 171.246094 29.367188 171.945312 28.609375 172.136719 C 27.65625 172.390625 27.53125 172.964844 27.722656 174.800781 C 27.910156 176.644531 27.65625 177.339844 26.519531 178.355469 C 25.699219 178.992188 24.621094 179.5625 24.238281 179.628906 C 22.71875 179.628906 23.417969 181.402344 25.316406 182.164062 C 26.328125 182.609375 27.339844 183.5 27.53125 184.132812 C 27.910156 185.210938 28.609375 185.339844 34.496094 185.339844 C 40.570312 185.339844 41.015625 185.273438 41.328125 184.007812 C 41.582031 183.054688 42.027344 182.800781 42.851562 183.054688 C 43.480469 183.246094 46.074219 183.4375 48.671875 183.5 C 52.40625 183.625 53.484375 183.4375 54.113281 182.609375 C 54.75 181.71875 56.015625 181.53125 61.015625 181.53125 C 65.890625 181.53125 67.21875 181.339844 67.472656 180.578125 C 67.789062 179.816406 69.179688 179.628906 74.367188 179.628906 C 78.359375 179.628906 81.078125 179.375 81.332031 178.929688 C 81.585938 178.546875 82.21875 178.421875 82.722656 178.609375 C 83.296875 178.863281 84.117188 178.675781 84.625 178.292969 C 85.253906 177.722656 85.890625 177.722656 86.902344 178.167969 C 88.738281 179.054688 91.585938 179.121094 92.09375 178.355469 C 92.28125 177.976562 95.257812 177.722656 98.675781 177.722656 C 103.421875 177.722656 105.066406 177.46875 105.699219 176.773438 C 106.269531 176.074219 107.914062 175.820312 112.472656 175.820312 C 117.15625 175.820312 118.484375 175.628906 118.738281 174.867188 C 119.054688 174.101562 120.449219 173.914062 125.636719 173.914062 C 131.269531 173.914062 132.21875 173.785156 132.410156 172.835938 C 132.597656 171.882812 133.421875 171.757812 139.121094 171.945312 C 144.625 172.074219 145.574219 171.945312 145.574219 171.121094 C 145.574219 170.230469 146.585938 170.105469 152.15625 170.105469 C 157.410156 170.105469 158.800781 169.914062 159.121094 169.15625 C 159.375 168.390625 160.765625 168.203125 165.828125 168.203125 C 171.015625 168.203125 172.160156 168.011719 172.160156 167.25 C 172.160156 166.484375 173.296875 166.296875 178.484375 166.296875 C 183.550781 166.296875 184.941406 166.109375 185.195312 165.347656 C 185.511719 164.582031 186.90625 164.394531 192.09375 164.394531 C 195.953125 164.394531 198.800781 164.140625 199.054688 163.757812 C 199.308594 163.375 200.007812 163.25 200.703125 163.441406 C 201.398438 163.695312 202.347656 163.441406 202.917969 162.867188 C 203.421875 162.300781 204.246094 161.855469 204.753906 161.855469 C 205.894531 161.855469 204.816406 158.746094 202.410156 155 C 201.464844 153.476562 200.636719 151.636719 200.636719 150.875 C 200.636719 149.859375 199.878906 149.160156 197.980469 148.210938 C 194.5625 146.621094 193.042969 145.097656 192.980469 143.257812 C 192.980469 142.367188 191.96875 141.039062 190.195312 139.640625 C 188.359375 138.113281 187.410156 136.910156 187.347656 135.832031 C 187.347656 134.878906 186.523438 133.609375 185.449219 132.65625 C 184.375 131.832031 183.550781 130.625 183.550781 129.992188 C 183.550781 128.976562 181.527344 126.3125 180.703125 126.3125 C 179.753906 126.3125 177.855469 123.578125 177.855469 122.183594 C 177.855469 121.042969 177.535156 120.597656 176.714844 120.597656 C 175.070312 120.597656 173.042969 118.121094 172.535156 115.519531 C 172.28125 113.996094 171.523438 112.851562 170.257812 112.03125 C 169.117188 111.265625 168.359375 110.1875 168.359375 109.296875 C 168.359375 107.523438 166.839844 106.0625 163.421875 104.414062 C 161.273438 103.394531 160.765625 102.824219 160.765625 101.367188 C 160.765625 100.414062 160.511719 99.652344 160.195312 99.652344 C 159.246094 99.652344 156.964844 95.523438 156.964844 93.8125 C 156.964844 92.734375 156.273438 91.84375 154.4375 90.765625 C 153.042969 89.878906 151.777344 88.734375 151.589844 88.097656 C 151.398438 87.53125 149.941406 85.878906 148.421875 84.480469 C 146.460938 82.640625 145.574219 81.371094 145.574219 80.230469 C 145.574219 79.339844 144.625 77.371094 143.550781 75.976562 C 141.207031 72.996094 135.382812 67.28125 134.6875 67.28125 C 134.371094 67.28125 134.183594 66.515625 134.183594 65.632812 C 134.183594 64.613281 133.546875 63.472656 132.664062 62.773438 C 131.773438 62.078125 130.445312 60.488281 129.6875 59.15625 C 128.925781 57.886719 127.472656 56.042969 126.460938 55.09375 C 125.507812 54.140625 124.6875 52.746094 124.625 51.917969 C 124.625 50.96875 123.613281 49.636719 121.839844 48.242188 C 120.320312 47.035156 119.054688 45.636719 119.054688 45.253906 C 118.992188 44.808594 118.167969 43.667969 117.09375 42.714844 C 115.765625 41.574219 115.191406 40.433594 115.128906 39.097656 C 115.128906 37.574219 114.5 36.625 112.34375 34.910156 C 110.890625 33.707031 108.925781 31.609375 108.167969 30.339844 C 107.34375 29.007812 106.144531 27.800781 105.507812 27.546875 C 103.484375 26.910156 101.902344 24.816406 101.902344 22.914062 C 101.902344 21.898438 101.460938 20.753906 100.953125 20.308594 C 100.449219 19.863281 100.003906 19.234375 100.003906 18.914062 C 100.003906 17.707031 97.15625 15.933594 95.257812 15.933594 C 94.246094 15.933594 92.726562 16.375 91.964844 16.945312 Z M 100.003906 30.910156 C 100.003906 31.734375 100.257812 32.371094 100.570312 32.371094 C 100.953125 32.371094 101.585938 33.132812 102.03125 34.082031 C 102.46875 35.097656 103.484375 36.117188 104.308594 36.496094 C 105.253906 36.941406 105.699219 37.636719 105.699219 38.84375 C 105.699219 40.179688 106.207031 40.75 108.042969 41.699219 C 109.371094 42.335938 110.699219 43.414062 111.082031 44.113281 C 111.398438 44.875 112.789062 46.589844 114.117188 47.921875 C 115.890625 49.761719 116.457031 50.84375 116.269531 51.917969 C 116.082031 53.0625 116.777344 54.269531 119.371094 56.996094 C 121.269531 59.027344 122.789062 60.804688 122.789062 61.0625 C 122.789062 61.316406 123.675781 61.949219 124.6875 62.523438 C 126.015625 63.21875 126.585938 63.980469 126.585938 65.125 C 126.585938 65.949219 127.027344 66.835938 127.535156 67.027344 C 128.042969 67.28125 128.488281 67.851562 128.488281 68.296875 C 128.488281 68.804688 128.925781 69.375 129.433594 69.566406 C 129.941406 69.816406 130.382812 70.515625 130.382812 71.152344 C 130.382812 71.851562 130.828125 72.550781 131.335938 72.742188 C 131.839844 72.996094 132.28125 73.371094 132.28125 73.753906 C 132.28125 74.390625 135.066406 77.117188 137.21875 78.578125 C 138.105469 79.152344 138.546875 79.914062 138.292969 80.609375 C 137.976562 81.6875 141.839844 86.324219 143.105469 86.324219 C 143.613281 86.324219 143.929688 87.277344 143.738281 88.414062 C 143.675781 88.671875 144.496094 89.75 145.574219 90.765625 C 146.585938 91.78125 147.472656 93.113281 147.472656 93.6875 C 147.472656 94.257812 148.742188 95.96875 150.324219 97.496094 C 152.21875 99.332031 153.171875 100.730469 153.171875 101.8125 C 153.171875 102.695312 153.488281 103.460938 153.863281 103.460938 C 155.382812 103.460938 158.867188 106.824219 158.867188 108.347656 C 158.867188 109.296875 159.941406 111.011719 161.714844 112.914062 C 163.296875 114.566406 164.5625 116.40625 164.5625 116.976562 C 164.5625 117.929688 166.585938 119.394531 169.179688 120.34375 C 170.132812 120.660156 170.324219 121.167969 170.003906 122.566406 C 169.75 123.898438 169.878906 124.40625 170.511719 124.40625 C 171.652344 124.40625 173.679688 127.449219 174.054688 129.800781 C 174.308594 131.195312 175.007812 131.957031 177.09375 132.976562 C 178.738281 133.738281 179.753906 134.6875 179.753906 135.324219 C 179.753906 135.957031 180.257812 136.972656 180.890625 137.667969 C 183.867188 140.847656 185.449219 143.066406 185.449219 144.148438 C 185.449219 145.351562 188.421875 148.523438 189.5625 148.523438 C 190.953125 148.523438 191.714844 149.921875 191.082031 151.191406 C 190.578125 152.078125 190.703125 152.460938 191.589844 152.777344 C 193.042969 153.347656 195.324219 155.503906 195.765625 156.839844 C 196.019531 157.730469 195.699219 157.792969 193.488281 157.347656 C 189.121094 156.523438 185.640625 156.648438 185.195312 157.730469 C 184.941406 158.492188 183.550781 158.683594 178.613281 158.683594 C 173.800781 158.683594 172.160156 158.9375 171.523438 159.632812 C 170.953125 160.332031 169.371094 160.585938 165.132812 160.585938 C 160.511719 160.585938 159.4375 160.773438 158.929688 161.664062 C 158.421875 162.554688 157.535156 162.742188 153.105469 162.554688 C 150.195312 162.492188 147.597656 162.238281 147.285156 162.046875 C 147.03125 161.855469 146.269531 162.171875 145.640625 162.742188 C 144.8125 163.503906 143.421875 163.695312 138.929688 163.503906 C 135.382812 163.3125 132.917969 163.503906 132.410156 163.949219 C 131.902344 164.394531 129.308594 164.582031 126.078125 164.519531 C 122.09375 164.394531 120.066406 164.648438 118.738281 165.347656 C 117.535156 165.980469 115.191406 166.296875 111.710938 166.296875 C 107.34375 166.296875 106.332031 166.484375 105.382812 167.566406 C 104.371094 168.648438 103.734375 168.773438 99.75 168.457031 C 96.332031 168.136719 94.6875 168.328125 92.785156 169.089844 C 91.457031 169.664062 88.671875 170.105469 86.648438 170.105469 C 84.179688 170.105469 82.789062 170.421875 82.46875 170.992188 C 81.898438 172.011719 80.316406 172.199219 73.609375 172.074219 C 69.9375 172.011719 68.992188 171.820312 68.992188 171.058594 C 68.992188 169.976562 67.976562 169.785156 67.40625 170.675781 C 67.21875 171.058594 67.535156 171.566406 68.101562 171.882812 C 70.507812 173.21875 68.164062 173.914062 61.460938 173.914062 C 55.320312 173.914062 54.558594 174.039062 54.304688 175.054688 C 53.988281 176.074219 53.355469 176.199219 48.164062 175.945312 C 42.789062 175.691406 42.21875 175.753906 41.015625 177.023438 C 40.125 178.039062 39.179688 178.355469 37.785156 178.230469 C 35.886719 178.039062 35.761719 177.847656 35.570312 175.3125 C 35.441406 173.34375 35.632812 172.519531 36.394531 172.265625 C 37.152344 171.945312 37.28125 171.375 37.027344 170.105469 C 36.707031 168.710938 36.898438 168.328125 37.914062 168.011719 C 38.925781 167.757812 39.242188 167.183594 39.242188 165.410156 C 39.242188 164.140625 39.558594 163.121094 39.875 163.121094 C 40.253906 163.121094 40.507812 162.675781 40.507812 162.171875 C 40.507812 161.664062 41.078125 160.964844 41.773438 160.585938 C 42.597656 160.140625 43.039062 159.25 43.039062 158.046875 C 43.039062 157.09375 43.417969 156.078125 43.863281 155.886719 C 44.371094 155.695312 44.308594 155.382812 43.480469 154.875 C 42.40625 154.175781 42.40625 154.109375 43.546875 152.460938 C 44.242188 151.511719 45.253906 149.539062 45.890625 148.082031 C 46.519531 146.621094 47.535156 145.285156 48.164062 145.160156 C 49.175781 144.90625 49.242188 144.527344 48.671875 142.75 C 48.164062 140.910156 48.292969 140.464844 49.429688 139.511719 C 50.253906 138.8125 50.636719 137.988281 50.382812 137.355469 C 50.128906 136.65625 50.445312 136.210938 51.265625 136.019531 C 52.15625 135.765625 52.53125 135.132812 52.53125 133.929688 C 52.53125 132.976562 52.976562 131.832031 53.484375 131.386719 C 53.988281 130.941406 54.433594 130.054688 54.433594 129.421875 C 54.433594 128.722656 54.6875 128.214844 55.003906 128.214844 C 55.886719 128.214844 58.230469 122.949219 58.230469 120.851562 C 58.230469 119.832031 58.671875 118.441406 59.179688 117.804688 C 59.6875 117.105469 60.125 115.519531 60.125 114.1875 C 60.125 112.914062 60.570312 111.523438 61.078125 111.078125 C 61.582031 110.632812 62.027344 109.871094 62.027344 109.359375 C 62.027344 108.855469 62.914062 107.140625 63.925781 105.550781 C 65.128906 103.777344 65.699219 102.253906 65.507812 101.558594 C 65.253906 100.730469 65.570312 100.160156 66.457031 99.652344 C 67.40625 99.144531 67.660156 98.570312 67.34375 97.496094 C 67.089844 96.289062 67.28125 95.84375 68.292969 95.523438 C 69.308594 95.207031 69.621094 94.574219 69.621094 93.050781 C 69.621094 91.84375 70.066406 90.578125 70.574219 90.132812 C 71.078125 89.6875 71.519531 88.734375 71.519531 87.972656 C 71.519531 87.277344 71.964844 86.070312 72.472656 85.433594 C 72.976562 84.734375 73.421875 82.960938 73.421875 81.496094 C 73.421875 79.660156 73.738281 78.707031 74.433594 78.453125 C 74.9375 78.261719 75.320312 77.5625 75.191406 76.925781 C 74.9375 75.53125 77.46875 72.996094 79.117188 72.996094 C 80.378906 72.996094 80.886719 71.40625 79.8125 70.960938 C 79.496094 70.835938 79.050781 70.007812 78.796875 69.058594 C 78.484375 67.726562 78.613281 67.34375 79.6875 66.960938 C 80.570312 66.707031 81.015625 66.011719 81.015625 64.996094 C 81.015625 64.042969 81.394531 63.472656 82.027344 63.472656 C 82.851562 63.472656 82.976562 63.027344 82.722656 61.695312 C 82.40625 60.296875 82.789062 59.410156 84.5625 57.507812 C 86.207031 55.664062 86.648438 54.777344 86.332031 53.570312 C 86.078125 52.554688 86.269531 51.917969 86.902344 51.667969 C 87.726562 51.351562 87.789062 51.097656 87.15625 50.078125 C 86.519531 49 86.582031 48.683594 87.535156 48.175781 C 88.101562 47.796875 88.609375 46.90625 88.609375 46.082031 C 88.609375 45.253906 89.054688 44.242188 89.5625 43.796875 C 90.066406 43.351562 90.507812 42.082031 90.507812 40.941406 C 90.507812 39.671875 90.890625 38.71875 91.457031 38.464844 C 91.964844 38.273438 92.410156 37.449219 92.410156 36.5625 C 92.410156 35.734375 92.847656 34.910156 93.355469 34.65625 C 93.863281 34.464844 94.304688 33.640625 94.304688 32.753906 C 94.304688 31.925781 94.75 31.035156 95.320312 30.847656 C 95.828125 30.65625 96.203125 29.960938 96.078125 29.386719 C 96.015625 28.753906 96.140625 27.863281 96.457031 27.417969 C 97.21875 26.214844 100.003906 28.945312 100.003906 30.910156 Z M 81.015625 56.808594 C 81.015625 57.316406 80.570312 57.761719 80.066406 57.761719 C 79.050781 57.761719 78.796875 56.996094 79.558594 56.300781 C 80.257812 55.535156 81.015625 55.789062 81.015625 56.808594 Z M 52.53125 126.820312 C 52.53125 127.640625 51.773438 128.214844 51.140625 127.832031 C 50.507812 127.449219 51.078125 126.3125 51.964844 126.3125 C 52.277344 126.3125 52.53125 126.566406 52.53125 126.820312 Z M 40.253906 157.855469 C 39.558594 158.554688 39.179688 157.601562 39.6875 156.394531 C 40.125 155.253906 40.191406 155.253906 40.378906 156.332031 C 40.507812 156.964844 40.445312 157.664062 40.253906 157.855469 Z M 128.488281 167.566406 C 128.488281 167.882812 127.914062 168.203125 127.21875 168.203125 C 126.523438 168.203125 125.953125 167.882812 125.953125 167.566406 C 125.953125 167.183594 126.523438 166.929688 127.21875 166.929688 C 127.914062 166.929688 128.488281 167.183594 128.488281 167.566406 Z M 113.609375 169.472656 C 113.421875 169.785156 112.410156 170.105469 111.335938 170.105469 C 110.320312 170.105469 109.5 170.359375 109.5 170.738281 C 109.5 171.058594 108.738281 171.375 107.789062 171.3125 L 106.015625 171.246094 L 107.789062 170.550781 C 108.738281 170.167969 109.5 169.664062 109.5 169.34375 C 109.5 169.089844 110.507812 168.835938 111.773438 168.835938 C 113.101562 168.835938 113.863281 169.089844 113.609375 169.472656 Z M 113.609375 169.472656 "/>
<path style=" stroke:none;fill-rule:nonzero;fill:rgb(0%,0%,0%);fill-opacity:1;" d="M 139.558594 87.53125 C 139.183594 88.226562 140.128906 88.988281 140.765625 88.414062 C 141.332031 87.84375 141.207031 86.957031 140.574219 86.957031 C 140.195312 86.957031 139.8125 87.210938 139.558594 87.53125 Z M 139.558594 87.53125 "/>
<path style=" stroke:none;fill-rule:nonzero;fill:rgb(0%,0%,0%);fill-opacity:1;" d="M 138.613281 93.558594 C 138.613281 94.449219 138.929688 95.335938 139.246094 95.523438 C 139.625 95.714844 139.875 95.207031 139.875 94.320312 C 139.875 93.433594 139.625 92.542969 139.246094 92.351562 C 138.867188 92.160156 138.613281 92.667969 138.613281 93.558594 Z M 138.613281 93.558594 "/>
<path style=" stroke:none;fill-rule:nonzero;fill:rgb(0%,0%,0%);fill-opacity:1;" d="M 145.574219 101.175781 C 145.574219 102.824219 146.523438 103.90625 147.09375 102.953125 C 147.535156 102.1875 146.839844 99.652344 146.144531 99.652344 C 145.824219 99.652344 145.574219 100.351562 145.574219 101.175781 Z M 145.574219 101.175781 "/>
<path style=" stroke:none;fill-rule:nonzero;fill:rgb(0%,0%,0%);fill-opacity:1;" d="M 164.5625 121.996094 C 164.5625 122.4375 164.878906 123.265625 165.195312 123.769531 C 165.703125 124.53125 165.828125 124.339844 165.828125 122.949219 C 165.828125 121.996094 165.574219 121.230469 165.195312 121.230469 C 164.878906 121.230469 164.5625 121.613281 164.5625 121.996094 Z M 164.5625 121.996094 "/>
<path style=" stroke:none;fill-rule:nonzero;fill:rgb(0%,0%,0%);fill-opacity:1;" d="M 166.777344 127.769531 C 166.523438 128.402344 166.460938 129.101562 166.714844 129.292969 C 167.347656 129.929688 167.851562 129.039062 167.539062 127.769531 C 167.285156 126.691406 167.285156 126.691406 166.777344 127.769531 Z M 166.777344 127.769531 "/>
<path style=" stroke:none;fill-rule:nonzero;fill:rgb(0%,0%,0%);fill-opacity:1;" d="M 177.21875 144.082031 C 177.21875 144.402344 177.664062 144.71875 178.171875 144.71875 C 178.675781 144.71875 179.121094 144.402344 179.121094 144.082031 C 179.121094 143.703125 178.675781 143.449219 178.171875 143.449219 C 177.664062 143.449219 177.21875 143.703125 177.21875 144.082031 Z M 177.21875 144.082031 "/>
<path style=" stroke:none;fill-rule:nonzero;fill:rgb(0%,0%,0%);fill-opacity:1;" d="M 169.371094 149.730469 C 168.929688 150.429688 170.449219 151.066406 172.472656 151.066406 C 174.308594 151.066406 175.070312 150.046875 173.679688 149.539062 C 172.222656 148.96875 169.75 149.09375 169.371094 149.730469 Z M 169.371094 149.730469 "/>
<path style=" stroke:none;fill-rule:nonzero;fill:rgb(0%,0%,0%);fill-opacity:1;" d="M 181.648438 152.269531 C 181.648438 153.285156 183.550781 154.367188 184.628906 153.921875 C 185.703125 153.539062 185.703125 153.476562 184.5625 152.585938 C 183.167969 151.574219 181.648438 151.382812 181.648438 152.269531 Z M 181.648438 152.269531 "/>
<path style=" stroke:none;fill-rule:nonzero;fill:rgb(0%,0%,0%);fill-opacity:1;" d="M 73.101562 163.757812 C 72.914062 164.074219 73.292969 164.394531 74.050781 164.394531 C 74.8125 164.394531 75.191406 164.074219 75.003906 163.757812 C 74.8125 163.375 74.367188 163.121094 74.050781 163.121094 C 73.738281 163.121094 73.292969 163.375 73.101562 163.757812 Z M 73.101562 163.757812 "/>
<path style=" stroke:none;fill-rule:nonzero;fill:rgb(0%,0%,0%);fill-opacity:1;" d="M 107.851562 16.753906 C 107.34375 18.089844 108.042969 19.863281 108.863281 19.359375 C 109.179688 19.171875 109.5 18.40625 109.5 17.773438 C 109.5 16.183594 108.355469 15.488281 107.851562 16.753906 Z M 107.851562 16.753906 "/>
<path style=" stroke:none;fill-rule:nonzero;fill:rgb(0%,0%,0%);fill-opacity:1;" d="M 265.578125 16.375 C 265.390625 16.753906 265.515625 17.265625 265.894531 17.453125 C 266.84375 18.089844 267.476562 17.265625 266.65625 16.4375 C 266.210938 15.996094 265.828125 15.996094 265.578125 16.375 Z M 265.578125 16.375 "/>
<path style=" stroke:none;fill-rule:nonzero;fill:rgb(0%,0%,0%);fill-opacity:1;" d="M 264.945312 24.4375 C 264.691406 25.324219 263.808594 26.40625 262.980469 26.789062 C 261.96875 27.226562 261.398438 28.054688 261.398438 28.878906 C 261.398438 29.707031 260.960938 30.65625 260.453125 31.101562 C 259.816406 31.609375 259.503906 33.007812 259.503906 35.226562 C 259.503906 37.003906 259.3125 38.71875 259.058594 38.972656 C 258.742188 39.226562 258.488281 40.050781 258.425781 40.8125 C 257.859375 45.636719 257.351562 47.667969 256.589844 48.300781 C 256.023438 48.746094 255.703125 50.269531 255.703125 52.171875 C 255.703125 54.332031 255.449219 55.351562 254.757812 55.601562 C 254.25 55.855469 253.804688 56.679688 253.804688 57.507812 C 253.804688 58.394531 253.359375 59.21875 252.855469 59.410156 C 252.160156 59.726562 251.90625 60.804688 251.90625 63.472656 C 251.90625 66.136719 251.65625 67.214844 250.957031 67.535156 C 250.324219 67.726562 250.007812 68.742188 250.007812 70.453125 C 250.007812 72.296875 249.753906 72.996094 249.058594 72.996094 C 248.492188 72.996094 248.109375 73.5625 248.109375 74.578125 C 248.109375 75.46875 247.664062 76.359375 247.15625 76.550781 C 246.464844 76.863281 246.210938 77.941406 246.210938 80.671875 C 246.210938 83.46875 245.957031 84.417969 245.324219 84.417969 C 244.753906 84.417969 244.3125 85.433594 244.058594 87.402344 C 243.871094 89.113281 243.554688 91.460938 243.363281 92.667969 C 243.234375 93.875 242.917969 96.289062 242.664062 97.9375 C 242.472656 99.652344 241.90625 101.175781 241.398438 101.367188 C 240.890625 101.558594 240.515625 102.378906 240.515625 103.207031 C 240.515625 104.09375 240.070312 104.921875 239.5625 105.113281 C 238.871094 105.367188 238.617188 106.441406 238.617188 108.855469 C 238.617188 111.011719 238.296875 112.476562 237.667969 112.980469 C 237.160156 113.425781 236.714844 114.757812 236.714844 115.964844 C 236.714844 117.296875 236.335938 118.25 235.769531 118.441406 C 235.132812 118.695312 234.816406 119.710938 234.816406 121.550781 C 234.816406 123.386719 234.503906 124.40625 233.867188 124.660156 C 233.234375 124.851562 232.921875 125.867188 232.921875 127.515625 C 232.921875 129.039062 232.601562 130.121094 232.03125 130.308594 C 231.523438 130.496094 230.957031 132.023438 230.765625 133.738281 C 230.578125 135.386719 230.195312 137.605469 230.003906 138.6875 C 229.820312 139.703125 229.5 141.988281 229.3125 143.765625 C 229.121094 145.605469 228.613281 147.191406 228.046875 147.511719 C 226.589844 148.332031 230.132812 151 232.667969 151.066406 C 233.867188 151.066406 234.816406 151.445312 235.070312 152.015625 C 235.324219 152.714844 236.335938 152.96875 238.617188 152.96875 C 240.890625 152.96875 241.90625 153.222656 242.160156 153.921875 C 242.410156 154.429688 243.234375 154.875 244.058594 154.875 C 244.945312 154.875 245.765625 155.320312 245.957031 155.824219 C 246.210938 156.457031 247.222656 156.777344 249.121094 156.777344 C 251.148438 156.777344 251.90625 157.03125 251.90625 157.730469 C 251.90625 158.429688 252.667969 158.683594 255.007812 158.683594 C 256.96875 158.683594 258.363281 159 258.871094 159.632812 C 259.3125 160.140625 260.453125 160.585938 261.464844 160.585938 C 262.664062 160.585938 263.300781 160.902344 263.300781 161.539062 C 263.300781 162.300781 264.125 162.492188 267.035156 162.492188 C 269.121094 162.492188 271.019531 162.804688 271.210938 163.121094 C 271.464844 163.503906 272.160156 163.628906 272.792969 163.441406 C 273.429688 163.25 274.121094 163.375 274.375 163.757812 C 274.566406 164.074219 276.023438 164.394531 277.605469 164.394531 C 279.628906 164.394531 280.386719 164.648438 280.386719 165.347656 C 280.386719 166.046875 281.148438 166.296875 283.171875 166.296875 C 284.816406 166.296875 286.210938 166.675781 286.71875 167.25 C 287.160156 167.757812 288.363281 168.203125 289.375 168.203125 C 290.453125 168.203125 291.339844 168.582031 291.59375 169.21875 C 291.84375 169.976562 292.730469 170.167969 295.515625 170.039062 C 298.429688 169.914062 299.125 170.039062 299.25 170.929688 C 299.375 171.628906 300.070312 172.011719 301.339844 172.011719 C 302.542969 172.011719 303.171875 172.328125 303.171875 172.964844 C 303.171875 173.660156 303.871094 173.914062 305.707031 173.914062 C 307.414062 173.914062 308.425781 174.230469 308.617188 174.867188 C 308.871094 175.5 309.945312 175.820312 312.035156 175.820312 C 313.9375 175.820312 315.328125 176.199219 315.832031 176.773438 C 316.277344 177.277344 317.351562 177.722656 318.300781 177.722656 C 319.25 177.722656 320.324219 178.039062 320.640625 178.355469 C 321.085938 178.800781 322.222656 178.863281 324.125 178.421875 C 326.339844 177.910156 326.972656 177.976562 327.414062 178.738281 C 327.667969 179.183594 328.746094 179.628906 329.753906 179.628906 C 331.023438 179.628906 331.65625 179.945312 331.65625 180.578125 C 331.65625 181.339844 332.480469 181.53125 335.390625 181.53125 C 338.113281 181.53125 339.1875 181.785156 339.503906 182.484375 C 339.695312 182.992188 340.519531 183.4375 341.339844 183.4375 C 342.222656 183.4375 343.238281 183.882812 343.679688 184.386719 C 344.125 184.894531 345.203125 185.339844 346.152344 185.339844 C 347.097656 185.339844 348.113281 185.847656 348.617188 186.609375 C 349.378906 187.875 349.503906 187.8125 351.910156 185.273438 C 353.617188 183.5 354.441406 182.039062 354.441406 180.894531 C 354.441406 179.945312 354.820312 178.800781 355.328125 178.421875 C 356.210938 177.65625 356.972656 173.21875 356.972656 169.027344 C 356.972656 167.882812 357.289062 166.804688 357.609375 166.613281 C 357.984375 166.421875 358.238281 165.410156 358.238281 164.328125 C 358.238281 163.121094 358.554688 162.492188 359.191406 162.492188 C 359.949219 162.492188 360.136719 161.664062 360.136719 158.683594 C 360.136719 155.695312 360.328125 154.875 361.085938 154.875 C 361.785156 154.875 362.039062 154.175781 362.039062 152.332031 C 362.039062 150.621094 362.355469 149.605469 362.984375 149.414062 C 363.621094 149.160156 363.933594 148.144531 363.933594 146.558594 C 363.933594 144.90625 364.25 143.894531 364.886719 143.703125 C 365.515625 143.449219 365.832031 142.429688 365.832031 140.847656 C 365.832031 139.195312 366.152344 138.179688 366.785156 137.988281 C 367.289062 137.734375 367.734375 136.847656 367.734375 135.832031 C 367.734375 134.878906 368.175781 133.738281 368.679688 133.292969 C 369.25 132.847656 369.632812 131.449219 369.632812 129.800781 C 369.632812 128.148438 370.011719 126.757812 370.582031 126.3125 C 371.152344 125.867188 371.53125 124.46875 371.53125 123.074219 C 371.53125 121.738281 371.84375 120.46875 372.164062 120.277344 C 372.542969 120.023438 372.859375 118.949219 372.859375 117.867188 C 372.859375 113.105469 373.554688 109.171875 374.441406 109.171875 C 375.011719 109.171875 375.328125 108.410156 375.328125 106.949219 C 375.328125 105.550781 375.707031 104.539062 376.28125 104.347656 C 376.910156 104.09375 377.226562 103.078125 377.226562 101.238281 C 377.226562 99.585938 377.609375 98.257812 378.175781 97.75 C 378.746094 97.304688 379.125 95.90625 379.125 94.511719 C 379.125 92.734375 379.378906 92.035156 380.074219 92.035156 C 380.773438 92.035156 381.027344 91.269531 381.027344 89.242188 C 381.027344 87.339844 381.339844 86.324219 381.972656 86.070312 C 382.609375 85.878906 382.921875 84.863281 382.921875 83.214844 C 382.921875 81.6875 383.238281 80.609375 383.8125 80.417969 C 384.632812 80.105469 385.328125 75.976562 385.457031 71.277344 C 385.457031 70.515625 385.769531 69.695312 386.085938 69.503906 C 386.46875 69.3125 386.722656 67.980469 386.722656 66.515625 C 386.722656 64.550781 386.976562 63.917969 387.988281 63.660156 C 389.316406 63.28125 389.757812 61.570312 388.558594 61.570312 C 388.113281 61.570312 387.164062 60.871094 386.339844 59.980469 C 385.265625 58.777344 384.441406 58.460938 383.304688 58.777344 C 382.480469 58.96875 381.59375 58.839844 381.402344 58.460938 C 381.148438 58.078125 379.253906 57.761719 377.164062 57.761719 C 374.253906 57.761719 373.429688 57.570312 373.429688 56.808594 C 373.429688 56.234375 372.859375 55.855469 371.84375 55.855469 C 370.960938 55.855469 370.078125 55.410156 369.886719 54.90625 C 369.632812 54.269531 368.617188 53.953125 366.785156 53.953125 C 364.949219 53.953125 363.933594 53.632812 363.683594 53 C 363.429688 52.363281 362.414062 52.046875 360.519531 52.046875 C 358.621094 52.046875 357.609375 51.730469 357.355469 51.097656 C 357.164062 50.523438 356.210938 50.144531 355.074219 50.144531 C 353.9375 50.144531 352.988281 49.761719 352.796875 49.191406 C 352.480469 48.492188 351.40625 48.242188 348.746094 48.242188 C 346.085938 48.242188 345.011719 47.988281 344.695312 47.289062 C 344.503906 46.78125 343.621094 46.335938 342.730469 46.335938 C 341.71875 46.335938 341.148438 45.953125 341.148438 45.382812 C 341.148438 44.683594 340.390625 44.433594 338.367188 44.433594 C 336.78125 44.433594 335.328125 44.113281 335.136719 43.796875 C 334.882812 43.414062 333.683594 43.160156 332.417969 43.160156 C 327.796875 43.226562 324.0625 42.460938 324.0625 41.445312 C 324.0625 40.75 323.304688 40.558594 320.453125 40.6875 C 317.414062 40.8125 316.71875 40.6875 316.59375 39.796875 C 316.464844 39.097656 315.769531 38.71875 314.820312 38.71875 C 313.9375 38.71875 313.109375 38.273438 312.921875 37.765625 C 312.667969 37.132812 311.65625 36.816406 309.753906 36.816406 C 307.734375 36.816406 306.972656 36.5625 306.972656 35.863281 C 306.972656 35.164062 306.214844 34.910156 303.871094 34.910156 C 301.90625 34.910156 300.515625 34.589844 300.011719 33.957031 C 299.566406 33.453125 298.429688 33.007812 297.414062 33.007812 C 296.210938 33.007812 295.578125 32.6875 295.578125 32.054688 C 295.578125 31.289062 294.757812 31.101562 291.78125 31.101562 C 288.808594 31.101562 287.984375 30.910156 287.984375 30.152344 C 287.984375 29.515625 287.351562 29.199219 286.148438 29.199219 C 285.070312 29.199219 284.0625 28.878906 283.808594 28.5 C 283.554688 28.054688 282.289062 27.925781 280.324219 28.179688 C 278.488281 28.433594 277.160156 28.308594 276.90625 27.925781 C 276.714844 27.609375 275.703125 27.292969 274.757812 27.292969 C 273.742188 27.292969 272.601562 26.847656 272.160156 26.34375 C 271.71875 25.835938 270.511719 25.390625 269.5 25.390625 C 268.171875 25.390625 267.539062 25.007812 267.289062 24.117188 C 266.84375 22.34375 265.390625 22.535156 264.945312 24.4375 Z M 272.160156 33.640625 C 272.984375 34.335938 274.25 34.910156 275.011719 34.910156 C 275.832031 34.910156 276.78125 35.289062 277.160156 35.796875 C 277.605469 36.371094 278.933594 36.625 280.960938 36.496094 C 283.425781 36.371094 284.125 36.5625 284.378906 37.386719 C 284.628906 38.464844 290.007812 40.371094 291.972656 40.050781 C 292.539062 39.988281 294.058594 40.496094 295.199219 41.191406 C 296.339844 41.953125 298.367188 42.527344 299.628906 42.527344 C 303.742188 42.527344 310.898438 43.988281 311.210938 44.875 C 311.402344 45.316406 312.417969 45.699219 313.554688 45.699219 C 314.820312 45.699219 315.769531 46.144531 316.339844 46.96875 C 316.972656 47.988281 317.792969 48.242188 320.515625 48.242188 C 322.984375 48.242188 323.996094 48.492188 324.3125 49.191406 C 324.503906 49.761719 325.453125 50.144531 326.46875 50.144531 C 327.480469 50.144531 328.679688 50.589844 329.125 51.097656 C 329.632812 51.730469 331.089844 52.046875 333.363281 52.046875 C 335.773438 52.046875 336.847656 52.300781 337.101562 53 C 337.355469 53.507812 338.046875 53.953125 338.683594 53.953125 C 339.3125 53.953125 340.894531 54.398438 342.222656 54.96875 C 346.53125 56.871094 347.097656 57.0625 350.328125 57.441406 C 352.035156 57.695312 354.882812 58.394531 356.53125 59.027344 C 358.367188 59.726562 360.390625 60.042969 361.71875 59.851562 C 363.367188 59.597656 363.875 59.726562 364.1875 60.742188 C 364.503906 61.695312 365.074219 61.886719 366.976562 61.695312 C 368.617188 61.503906 369.632812 61.757812 370.199219 62.457031 C 370.707031 63.027344 371.53125 63.472656 372.164062 63.472656 C 372.796875 63.472656 373.429688 63.917969 373.683594 64.425781 C 373.9375 65.058594 374.945312 65.378906 376.910156 65.378906 C 378.492188 65.378906 379.757812 65.695312 379.757812 66.078125 C 379.757812 66.773438 377.542969 72.488281 376.53125 74.390625 C 376.214844 75.023438 375.960938 75.976562 375.960938 76.613281 C 375.960938 77.179688 375.519531 78.199219 374.945312 78.832031 C 374.1875 79.59375 373.746094 81.5625 373.554688 84.863281 C 373.429688 87.589844 372.859375 90.578125 372.417969 91.527344 C 371.910156 92.480469 371.53125 94.066406 371.53125 95.015625 C 371.53125 95.96875 371.089844 97.367188 370.582031 98.003906 C 370.078125 98.699219 369.632812 100.222656 369.632812 101.429688 C 369.632812 102.570312 369.1875 103.96875 368.679688 104.476562 C 368.175781 105.046875 367.734375 106.25 367.734375 107.269531 C 367.734375 108.285156 367.289062 109.171875 366.785156 109.425781 C 366.152344 109.617188 365.832031 110.632812 365.832031 112.285156 C 365.832031 113.867188 365.515625 114.886719 364.886719 115.140625 C 364.25 115.332031 363.933594 116.34375 363.933594 117.867188 C 363.933594 120.722656 362.414062 125.421875 361.085938 126.757812 C 360.582031 127.261719 360.136719 128.59375 360.136719 129.675781 C 360.074219 130.816406 359.695312 132.402344 359.191406 133.292969 C 358.683594 134.179688 358.300781 136.210938 358.238281 137.796875 C 358.238281 139.449219 357.792969 141.796875 357.289062 143.003906 C 356.78125 144.273438 356.339844 146.304688 356.339844 147.511719 C 356.339844 148.839844 355.960938 149.792969 355.390625 150.046875 C 354.820312 150.238281 354.441406 151.191406 354.441406 152.394531 C 354.441406 153.539062 354 154.9375 353.429688 155.570312 C 352.671875 156.394531 352.605469 156.964844 353.109375 157.984375 C 354.125 159.820312 354 160.457031 352.351562 162.109375 C 351.59375 162.867188 350.515625 164.773438 350.007812 166.359375 C 349.503906 167.882812 348.746094 169.785156 348.242188 170.613281 C 347.667969 171.503906 347.414062 172.964844 347.667969 174.546875 C 348.113281 178.167969 346.65625 178.863281 342.605469 177.023438 C 340.894531 176.265625 339.3125 175.246094 339.058594 174.800781 C 338.746094 174.292969 337.539062 173.914062 336.148438 173.914062 C 333.300781 173.914062 328.871094 172.457031 327.480469 171.058594 C 326.90625 170.484375 325.390625 170.105469 323.679688 170.105469 C 322.160156 170.105469 320.386719 169.851562 319.757812 169.535156 C 318.113281 168.710938 314.566406 167.503906 311.71875 166.867188 C 310.328125 166.484375 308.871094 165.792969 308.425781 165.21875 C 307.855469 164.519531 307.097656 164.328125 305.769531 164.582031 C 304.632812 164.839844 303.554688 164.648438 303.050781 164.203125 C 302.605469 163.757812 301.402344 163.375 300.324219 163.25 C 293.804688 162.617188 292.035156 162.238281 291.59375 161.472656 C 291.339844 160.964844 290.328125 160.585938 289.375 160.585938 C 288.425781 160.585938 286.972656 160.203125 286.082031 159.757812 C 284.628906 159 281.78125 158.175781 274.25 156.140625 C 272.730469 155.757812 271.273438 154.9375 270.894531 154.238281 C 270.328125 153.222656 269.566406 152.96875 266.90625 152.96875 C 265.007812 152.902344 263.109375 152.523438 262.414062 152.015625 C 261.71875 151.511719 260.640625 151.066406 260.007812 151.066406 C 259.375 151.066406 258.171875 150.683594 257.414062 150.175781 C 255.449219 148.96875 248.300781 148.332031 247.855469 149.347656 C 247.664062 149.859375 247.15625 149.539062 246.273438 148.523438 C 245.574219 147.636719 244.816406 147.191406 244.5625 147.445312 C 244.3125 147.636719 243.171875 147.320312 242.035156 146.558594 C 240.890625 145.859375 239.5625 145.351562 239.125 145.414062 C 237.222656 145.667969 236.714844 145.222656 236.714844 143.511719 C 236.714844 142.429688 236.96875 141.476562 237.285156 141.289062 C 237.539062 141.101562 237.980469 139.828125 238.234375 138.433594 C 238.425781 137.101562 239.058594 135.832031 239.5625 135.578125 C 240.199219 135.386719 240.515625 134.371094 240.515625 132.847656 C 240.515625 131.515625 240.957031 129.867188 241.464844 129.230469 C 241.96875 128.53125 242.410156 127.007812 242.410156 125.804688 C 242.410156 122.820312 244.375 114.757812 245.390625 113.550781 C 245.828125 113.042969 246.210938 111.078125 246.210938 109.296875 C 246.210938 106.695312 246.527344 105.742188 247.792969 104.347656 C 248.867188 103.207031 249.375 101.933594 249.375 100.351562 C 249.375 99.078125 249.945312 96.984375 250.640625 95.652344 C 251.339844 94.386719 251.90625 92.289062 251.90625 91.085938 C 251.90625 89.6875 252.285156 88.671875 252.855469 88.480469 C 253.359375 88.226562 253.804688 87.277344 253.804688 86.324219 C 253.804688 85.304688 254.121094 84.289062 254.4375 84.097656 C 255.261719 83.59375 255.261719 81.054688 254.4375 80.230469 C 254.058594 79.847656 254.4375 78.960938 255.578125 77.753906 C 256.84375 76.359375 257.539062 74.515625 258.363281 70.453125 C 258.996094 67.46875 259.503906 64.425781 259.503906 63.597656 C 259.503906 62.773438 260.386719 60.296875 261.464844 58.015625 C 262.980469 54.714844 263.300781 53.316406 262.980469 51.476562 C 262.664062 49.636719 262.855469 48.808594 263.871094 47.667969 C 264.628906 46.84375 265.199219 45.507812 265.199219 44.683594 C 265.199219 43.859375 265.765625 42.90625 266.464844 42.527344 C 267.410156 42.019531 267.664062 41.445312 267.410156 40.558594 C 267.097656 39.734375 267.347656 38.972656 268.046875 38.464844 C 268.867188 37.890625 268.929688 37.386719 268.492188 36.117188 C 267.792969 34.335938 268.554688 32.371094 269.882812 32.371094 C 270.328125 32.371094 271.339844 32.941406 272.160156 33.640625 Z M 272.160156 33.640625 "/>
<path style=" stroke:none;fill-rule:nonzero;fill:rgb(0%,0%,0%);fill-opacity:1;" d="M 269.628906 65.695312 C 269.628906 66.644531 269.882812 67.214844 270.261719 66.960938 C 270.640625 66.773438 270.894531 66.199219 270.894531 65.695312 C 270.894531 65.1875 270.640625 64.613281 270.261719 64.425781 C 269.882812 64.171875 269.628906 64.742188 269.628906 65.695312 Z M 269.628906 65.695312 "/>
<path style=" stroke:none;fill-rule:nonzero;fill:rgb(0%,0%,0%);fill-opacity:1;" d="M 255.832031 106.0625 C 255.957031 106.441406 256.339844 106.695312 256.652344 106.695312 C 256.96875 106.695312 257.351562 106.441406 257.476562 106.0625 C 257.605469 105.679688 257.222656 105.367188 256.652344 105.367188 C 256.085938 105.367188 255.703125 105.679688 255.832031 106.0625 Z M 255.832031 106.0625 "/>
<path style=" stroke:none;fill-rule:nonzero;fill:rgb(0%,0%,0%);fill-opacity:1;" d="M 115.191406 25.898438 C 115.191406 26.214844 116.269531 27.609375 117.664062 29.070312 C 119.371094 30.847656 120.320312 31.417969 120.765625 30.972656 C 121.207031 30.527344 120.636719 29.578125 118.867188 27.863281 C 116.332031 25.453125 115.191406 24.882812 115.191406 25.898438 Z M 115.191406 25.898438 "/>
<path style=" stroke:none;fill-rule:nonzero;fill:rgb(0%,0%,0%);fill-opacity:1;" d="M 244.691406 39.164062 C 243.992188 39.859375 244.3125 40.625 245.261719 40.625 C 245.765625 40.625 246.210938 40.371094 246.210938 40.050781 C 246.210938 39.226562 245.199219 38.652344 244.691406 39.164062 Z M 244.691406 39.164062 "/>
<path style=" stroke:none;fill-rule:nonzero;fill:rgb(0%,0%,0%);fill-opacity:1;" d="M 362.039062 39.671875 C 361.59375 40.179688 360.832031 40.625 360.390625 40.625 C 359.882812 40.625 359.503906 41.070312 359.503906 41.574219 C 359.503906 42.082031 360.074219 42.527344 360.773438 42.527344 C 361.46875 42.527344 362.039062 42.207031 362.039062 41.828125 C 362.039062 41.382812 362.476562 40.75 363.113281 40.304688 C 363.746094 39.859375 363.875 39.417969 363.492188 39.164062 C 363.113281 38.90625 362.476562 39.164062 362.039062 39.671875 Z M 362.039062 39.671875 "/>
<path style=" stroke:none;fill-rule:nonzero;fill:rgb(0%,0%,0%);fill-opacity:1;" d="M 125.320312 41.253906 C 125.320312 41.574219 125.890625 41.890625 126.652344 41.890625 C 127.34375 41.890625 127.726562 41.574219 127.535156 41.253906 C 127.34375 40.878906 126.714844 40.625 126.207031 40.625 C 125.699219 40.625 125.320312 40.878906 125.320312 41.253906 Z M 125.320312 41.253906 "/>
<path style=" stroke:none;fill-rule:nonzero;fill:rgb(0%,0%,0%);fill-opacity:1;" d="M 348.871094 41.320312 C 349 41.699219 349.378906 41.953125 349.695312 41.953125 C 350.007812 41.953125 350.390625 41.699219 350.515625 41.320312 C 350.644531 40.941406 350.261719 40.625 349.695312 40.625 C 349.125 40.625 348.746094 40.941406 348.871094 41.320312 Z M 348.871094 41.320312 "/>
<path style=" stroke:none;fill-rule:nonzero;fill:rgb(0%,0%,0%);fill-opacity:1;" d="M 243.871094 54.332031 C 243.425781 55.472656 244.945312 56.742188 245.828125 55.855469 C 246.527344 55.160156 245.894531 53.316406 244.945312 53.316406 C 244.5625 53.316406 244.121094 53.761719 243.871094 54.332031 Z M 243.871094 54.332031 "/>
<path style=" stroke:none;fill-rule:nonzero;fill:rgb(0%,0%,0%);fill-opacity:1;" d="M 232.921875 94.195312 C 232.347656 94.890625 232.347656 95.460938 232.921875 96.542969 C 233.550781 97.621094 233.804688 97.75 234.25 97.050781 C 235.578125 94.953125 234.375 92.480469 232.921875 94.195312 Z M 232.921875 94.195312 "/>
<path style=" stroke:none;fill-rule:nonzero;fill:rgb(0%,0%,0%);fill-opacity:1;" d="M 375.644531 140.273438 C 375.136719 141.101562 375.898438 142.304688 376.65625 141.859375 C 377.417969 141.351562 377.417969 139.640625 376.65625 139.640625 C 376.28125 139.640625 375.835938 139.894531 375.644531 140.273438 Z M 375.644531 140.273438 "/>
<path style=" stroke:none;fill-rule:nonzero;fill:rgb(0%,0%,0%);fill-opacity:1;" d="M 198.867188 142.242188 C 198.992188 142.621094 199.375 142.875 199.691406 142.875 C 200.007812 142.875 200.382812 142.621094 200.511719 142.242188 C 200.636719 141.859375 200.261719 141.542969 199.691406 141.542969 C 199.121094 141.542969 198.738281 141.859375 198.867188 142.242188 Z M 198.867188 142.242188 "/>
<path style=" stroke:none;fill-rule:nonzero;fill:rgb(0%,0%,0%);fill-opacity:1;" d="M 222.15625 154.238281 C 222.15625 154.554688 222.601562 154.875 223.109375 154.875 C 223.617188 154.875 224.058594 154.554688 224.058594 154.238281 C 224.058594 153.855469 223.617188 153.601562 223.109375 153.601562 C 222.601562 153.601562 222.15625 153.855469 222.15625 154.238281 Z M 222.15625 154.238281 "/>
<path style=" stroke:none;fill-rule:nonzero;fill:rgb(0%,0%,0%);fill-opacity:1;" d="M 218.363281 157.730469 C 218.363281 158.300781 218.933594 158.683594 219.945312 158.683594 C 220.957031 158.683594 221.527344 158.300781 221.527344 157.730469 C 221.527344 157.15625 220.957031 156.777344 219.945312 156.777344 C 218.933594 156.777344 218.363281 157.15625 218.363281 157.730469 Z M 218.363281 157.730469 "/>
<path style=" stroke:none;fill-rule:nonzero;fill:rgb(0%,0%,0%);fill-opacity:1;" d="M 265.515625 170.804688 C 264.882812 171.757812 265.707031 172.390625 266.527344 171.566406 C 266.972656 171.121094 266.972656 170.738281 266.589844 170.484375 C 266.210938 170.292969 265.707031 170.421875 265.515625 170.804688 Z M 265.515625 170.804688 "/>
<path style=" stroke:none;fill-rule:nonzero;fill:rgb(0%,0%,0%);fill-opacity:1;" d="M 18.355469 177.722656 C 18.355469 178.546875 18.796875 178.992188 19.621094 178.992188 C 20.761719 178.992188 20.824219 178.800781 20.253906 177.722656 C 19.875 177.023438 19.304688 176.453125 18.988281 176.453125 C 18.609375 176.453125 18.355469 177.023438 18.355469 177.722656 Z M 18.355469 177.722656 "/>
<path style=" stroke:none;fill-rule:nonzero;fill:rgb(0%,0%,0%);fill-opacity:1;" d="M 243.992188 180.640625 C 243.425781 181.53125 242.351562 181.65625 238.109375 181.59375 C 233.804688 181.53125 232.921875 181.65625 232.921875 182.484375 C 232.921875 183.5 231.019531 183.753906 225.199219 183.4375 C 222.917969 183.371094 222.097656 183.5625 221.78125 184.320312 C 221.464844 185.148438 220.324219 185.339844 215.769531 185.339844 C 211.207031 185.339844 210.132812 185.527344 210.132812 186.292969 C 210.132812 187.054688 209.121094 187.246094 204.753906 187.246094 C 200.511719 187.246094 199.246094 187.433594 198.992188 188.195312 C 198.679688 188.957031 197.347656 189.148438 192.726562 189.148438 C 188.296875 189.148438 186.652344 189.402344 186.082031 190.101562 C 185.511719 190.800781 183.929688 191.054688 179.753906 191.054688 C 175.382812 191.054688 174.117188 191.238281 173.800781 192.003906 C 173.550781 192.765625 172.28125 192.957031 168.105469 192.957031 C 165.066406 192.957031 162.539062 193.273438 162.347656 193.589844 C 162.09375 193.972656 160.449219 194.289062 158.675781 194.226562 C 156.839844 194.226562 152.917969 194.355469 149.816406 194.609375 C 144.5625 194.984375 144.179688 195.113281 142.09375 197.210938 C 140.003906 199.300781 139.875 199.621094 139.875 203.808594 C 139.875 207.300781 139.6875 208.191406 138.929688 208.191406 C 138.167969 208.191406 137.976562 209.140625 137.976562 212.949219 C 137.976562 216.757812 137.789062 217.710938 137.03125 217.710938 C 136.273438 217.710938 136.082031 218.535156 136.082031 221.453125 C 136.082031 224.5 135.890625 225.328125 135.003906 225.582031 C 133.992188 225.898438 133.863281 226.660156 134.054688 231.164062 C 134.246094 235.355469 134.117188 236.433594 133.292969 236.878906 C 132.535156 237.324219 132.28125 238.464844 132.28125 241.765625 C 132.28125 245.066406 132.027344 246.207031 131.335938 246.527344 C 130.636719 246.78125 130.382812 247.925781 130.382812 251.289062 C 130.382812 253.699219 130.132812 255.917969 129.75 256.109375 C 129.433594 256.300781 129.308594 258.523438 129.5625 261.441406 C 129.816406 264.871094 129.6875 266.519531 129.179688 266.835938 C 128.800781 267.089844 128.488281 269.1875 128.488281 271.980469 C 128.488281 275.46875 128.234375 276.675781 127.535156 276.996094 C 126.839844 277.246094 126.585938 278.324219 126.585938 280.800781 C 126.585938 283.277344 126.332031 284.289062 125.636719 284.609375 C 124.878906 284.863281 124.6875 286.132812 124.6875 290.386719 C 124.6875 294.765625 124.496094 295.78125 123.738281 295.78125 C 122.976562 295.78125 122.789062 296.667969 122.789062 300.035156 C 122.789062 302.699219 122.46875 304.605469 121.902344 305.238281 C 121.394531 305.808594 120.824219 307.140625 120.636719 308.222656 C 120.257812 309.933594 120.449219 310.316406 122.660156 311.839844 C 123.988281 312.789062 125.570312 313.550781 126.269531 313.550781 C 126.90625 313.550781 128.359375 314.25 129.5 315.140625 C 130.636719 316.03125 132.027344 316.726562 132.597656 316.726562 C 133.105469 316.726562 133.738281 317.171875 133.929688 317.679688 C 134.183594 318.1875 135.066406 318.632812 136.082031 318.632812 C 137.09375 318.632812 137.976562 319.078125 138.230469 319.585938 C 138.421875 320.089844 139.121094 320.535156 139.8125 320.535156 C 140.511719 320.535156 141.839844 321.234375 142.789062 322.121094 C 143.738281 323.011719 145.195312 323.898438 146.015625 324.089844 C 146.839844 324.34375 147.472656 324.851562 147.472656 325.359375 C 147.472656 325.929688 148.167969 326.25 149.371094 326.25 C 150.636719 326.25 151.269531 326.566406 151.269531 327.199219 C 151.269531 327.832031 151.90625 328.152344 152.917969 328.152344 C 154.6875 328.152344 158.867188 330.4375 158.867188 331.386719 C 158.867188 331.707031 159.5625 331.960938 160.449219 331.960938 C 161.332031 331.960938 162.21875 332.40625 162.410156 332.914062 C 162.664062 333.421875 163.484375 333.867188 164.3125 333.867188 C 165.195312 333.867188 166.015625 334.308594 166.207031 334.816406 C 166.460938 335.386719 167.410156 335.769531 168.421875 335.769531 C 169.433594 335.769531 170.257812 336.085938 170.257812 336.53125 C 170.257812 336.976562 171.523438 337.925781 173.105469 338.625 C 174.625 339.257812 176.082031 340.210938 176.207031 340.65625 C 176.398438 341.101562 177.21875 341.480469 178.109375 341.480469 C 178.929688 341.480469 179.753906 341.925781 180.007812 342.433594 C 180.195312 342.941406 181.144531 343.386719 182.09375 343.386719 C 183.046875 343.386719 184.4375 343.832031 185.066406 344.339844 C 185.765625 344.847656 186.90625 345.289062 187.601562 345.289062 C 188.359375 345.289062 189.5 346.113281 190.195312 347.195312 C 191.082031 348.523438 191.96875 349.097656 193.234375 349.097656 C 194.308594 349.097656 194.941406 349.414062 194.941406 350.050781 C 194.941406 350.683594 195.578125 351.003906 196.84375 351.003906 C 197.917969 351.003906 198.738281 351.320312 198.738281 351.765625 C 198.738281 352.207031 200.007812 353.09375 201.589844 353.730469 C 203.171875 354.429688 204.4375 355.320312 204.4375 355.824219 C 204.4375 356.394531 205.132812 356.714844 206.335938 356.714844 C 207.601562 356.714844 208.234375 357.03125 208.234375 357.667969 C 208.234375 358.238281 208.804688 358.621094 209.75 358.621094 C 210.578125 358.621094 212.09375 359.066406 213.042969 359.570312 C 214.058594 360.078125 215.515625 360.523438 216.335938 360.523438 C 217.160156 360.523438 217.726562 360.902344 217.726562 361.476562 C 217.726562 362.046875 218.296875 362.429688 219.308594 362.429688 C 220.199219 362.429688 221.144531 362.933594 221.527344 363.695312 C 222.21875 364.964844 222.347656 364.902344 224.691406 362.617188 C 226.019531 361.285156 227.984375 359.570312 229.058594 358.746094 C 230.132812 357.921875 231.019531 356.96875 231.019531 356.648438 C 231.019531 355.574219 256.652344 330.058594 257.730469 330.058594 C 258.679688 330.058594 270.074219 318.886719 271.085938 316.851562 C 271.84375 315.457031 274.691406 312.917969 275.578125 312.851562 C 276.148438 312.789062 280.453125 308.285156 288.425781 299.398438 C 289.25 298.449219 290.328125 297.6875 290.703125 297.621094 C 291.910156 297.558594 301.277344 286.832031 301.277344 285.5625 C 301.277344 284.671875 301.71875 284.355469 303.171875 284.355469 C 305.261719 284.355469 305.578125 283.660156 304.125 282.453125 C 303.617188 282.007812 303.171875 280.992188 303.171875 280.167969 C 303.171875 279.214844 302.796875 278.644531 302.222656 278.644531 C 301.589844 278.644531 301.277344 278.007812 301.277344 276.804688 C 301.277344 275.722656 300.960938 274.707031 300.578125 274.515625 C 300.199219 274.261719 300.070312 273.691406 300.261719 273.1875 C 300.640625 272.234375 297.859375 266.710938 296.464844 265.570312 C 295.957031 265.1875 295.578125 264.234375 295.578125 263.472656 C 295.578125 262.710938 295.136719 261.953125 294.628906 261.761719 C 294.121094 261.507812 293.683594 260.679688 293.683594 259.855469 C 293.683594 258.96875 293.238281 258.144531 292.730469 257.953125 C 292.226562 257.699219 291.78125 256.808594 291.78125 255.855469 C 291.78125 254.714844 291.210938 253.824219 289.882812 252.9375 C 288.554688 252.046875 287.984375 251.160156 287.984375 249.953125 C 287.984375 249 287.664062 248.050781 287.351562 247.859375 C 286.972656 247.605469 286.84375 246.90625 287.035156 246.273438 C 287.226562 245.636719 287.097656 244.9375 286.71875 244.6875 C 286.402344 244.496094 286.082031 243.542969 286.082031 242.589844 C 286.082031 241.382812 285.515625 240.496094 284.1875 239.609375 C 282.859375 238.71875 282.289062 237.828125 282.289062 236.5625 C 282.289062 235.480469 281.96875 234.847656 281.335938 234.847656 C 280.769531 234.847656 280.386719 234.273438 280.386719 233.261719 C 280.386719 232.371094 279.945312 231.484375 279.441406 231.292969 C 278.933594 231.039062 278.488281 230.214844 278.488281 229.390625 C 278.488281 228.628906 277.792969 227.164062 276.90625 226.214844 C 276.023438 225.261719 275.132812 223.800781 274.945312 222.980469 C 274.691406 222.152344 274.1875 221.519531 273.679688 221.519531 C 273.109375 221.519531 272.792969 220.820312 272.792969 219.679688 C 272.792969 218.597656 272.476562 217.582031 272.160156 217.390625 C 271.78125 217.136719 271.65625 216.4375 271.84375 215.808594 C 272.03125 215.171875 271.910156 214.472656 271.527344 214.21875 C 271.210938 214.027344 270.894531 213.074219 270.894531 212.125 C 270.894531 210.917969 270.328125 210.027344 268.996094 209.140625 C 267.792969 208.378906 267.097656 207.300781 267.097656 206.410156 C 267.097656 205.648438 266.65625 204.828125 266.148438 204.636719 C 265.578125 204.382812 265.199219 203.429688 265.199219 202.410156 C 265.199219 201.207031 264.882812 200.574219 264.246094 200.574219 C 263.617188 200.574219 263.300781 199.9375 263.300781 198.667969 C 263.300781 197.589844 262.980469 196.765625 262.476562 196.765625 C 261.652344 196.765625 258.550781 190.734375 258.550781 189.019531 C 258.550781 188.449219 258.363281 187.75 258.109375 187.5 C 257.792969 187.246094 257.605469 186.226562 257.605469 185.210938 C 257.605469 184.257812 257.351562 183.4375 257.097656 183.4375 C 256.78125 183.4375 255.703125 182.609375 254.691406 181.53125 C 253.046875 179.816406 252.476562 179.691406 248.742188 179.628906 C 245.574219 179.628906 244.4375 179.882812 243.992188 180.640625 Z M 250.511719 190.289062 C 251.59375 191.304688 252.921875 193.144531 253.488281 194.355469 C 253.996094 195.621094 254.691406 196.828125 255.070312 197.082031 C 255.386719 197.273438 255.703125 198.035156 255.703125 198.730469 C 255.703125 199.429688 256.148438 200.128906 256.652344 200.320312 C 257.160156 200.574219 257.605469 201.527344 257.605469 202.476562 C 257.605469 203.492188 257.921875 204.507812 258.234375 204.699219 C 258.617188 204.953125 258.742188 205.648438 258.550781 206.21875 C 258.363281 206.917969 258.871094 208 259.816406 209.078125 C 260.707031 210.027344 261.398438 211.363281 261.398438 212.0625 C 261.398438 212.757812 261.84375 213.457031 262.351562 213.648438 C 262.855469 213.902344 263.300781 214.726562 263.300781 215.554688 C 263.300781 216.375 263.871094 217.328125 264.5625 217.710938 C 265.453125 218.21875 265.765625 218.789062 265.515625 219.617188 C 265.324219 220.246094 265.515625 221.011719 265.957031 221.328125 C 266.84375 221.898438 268.046875 223.675781 268.996094 225.773438 C 269.3125 226.597656 269.882812 227.230469 270.261719 227.230469 C 270.578125 227.230469 270.894531 228.054688 270.894531 229.136719 C 270.894531 230.152344 271.210938 231.039062 271.59375 231.039062 C 272.03125 231.039062 272.160156 231.671875 271.910156 232.5625 C 271.71875 233.453125 271.78125 234.339844 272.160156 234.527344 C 272.476562 234.71875 272.792969 235.734375 272.792969 236.816406 C 272.792969 237.828125 273.109375 238.65625 273.429688 238.65625 C 274.503906 238.65625 276.59375 241.132812 276.59375 242.464844 C 276.59375 243.097656 277.160156 243.988281 277.792969 244.371094 C 278.617188 244.75 278.871094 245.445312 278.679688 246.273438 C 278.488281 247.035156 278.742188 247.671875 279.375 247.925781 C 279.945312 248.113281 280.386719 248.9375 280.386719 249.699219 C 280.386719 250.460938 281.214844 251.796875 282.289062 252.617188 C 283.300781 253.507812 284.125 254.84375 284.1875 255.664062 C 284.1875 256.425781 284.628906 257.253906 285.136719 257.445312 C 285.644531 257.699219 286.082031 258.652344 286.082031 259.601562 C 286.082031 260.617188 286.402344 261.632812 286.78125 261.886719 C 287.160156 262.078125 287.351562 262.773438 287.226562 263.34375 C 287.035156 263.917969 287.414062 265.1875 288.046875 266.269531 C 288.746094 267.28125 289.5 268.804688 289.820312 269.503906 C 290.136719 270.261719 290.894531 271.027344 291.464844 271.28125 C 292.164062 271.535156 292.347656 272.042969 292.097656 272.933594 C 291.84375 273.753906 292.035156 274.328125 292.667969 274.582031 C 293.238281 274.769531 293.683594 275.660156 293.683594 276.488281 C 293.683594 277.308594 294.25 278.261719 295.011719 278.644531 C 295.703125 279.089844 296.148438 279.722656 296.023438 280.230469 C 295.832031 280.671875 296.085938 281.625 296.53125 282.324219 C 297.476562 283.660156 297.222656 284.355469 295.640625 284.355469 C 295.074219 284.355469 293.804688 285.242188 292.792969 286.261719 C 291.78125 287.339844 290.703125 288.164062 290.390625 288.164062 C 290.136719 288.164062 289.882812 288.609375 289.882812 289.117188 C 289.882812 289.625 289.628906 290.070312 289.3125 290.070312 C 289 290.070312 288.046875 291.148438 287.289062 292.417969 C 285.644531 295.144531 283.488281 297.6875 282.730469 297.6875 C 281.96875 297.6875 276.652344 301.75 276.59375 302.316406 C 276.59375 302.570312 275.769531 303.652344 274.691406 304.667969 C 273.679688 305.679688 272.792969 306.824219 272.792969 307.140625 C 272.792969 308.285156 266.589844 314.125 264.945312 314.570312 C 264.0625 314.757812 263.300781 315.203125 263.300781 315.585938 C 263.300781 315.902344 262.476562 316.914062 261.527344 317.867188 C 260.515625 318.820312 259.503906 320.089844 259.3125 320.722656 C 259.058594 321.296875 258.363281 321.996094 257.792969 322.25 C 257.160156 322.441406 255.703125 323.644531 254.503906 324.851562 C 253.296875 326.058594 250.832031 328.023438 248.996094 329.167969 C 246.019531 331.070312 242.410156 335.132812 242.410156 336.53125 C 242.410156 337.484375 235.769531 343.386719 233.488281 344.527344 C 231.84375 345.289062 230.832031 346.429688 230.003906 348.273438 C 229.3125 349.796875 228.550781 351.003906 228.171875 351.066406 C 227.855469 351.066406 226.527344 352.332031 225.320312 353.859375 C 222.980469 356.777344 221.71875 357.347656 221.144531 355.761719 C 220.890625 355.257812 220.070312 354.8125 219.246094 354.8125 C 218.425781 354.8125 217.726562 354.492188 217.726562 354.175781 C 217.726562 353.792969 217.097656 353.222656 216.335938 352.90625 C 214.1875 351.957031 212.414062 350.8125 211.84375 349.859375 C 211.589844 349.476562 210.640625 349.097656 209.878906 349.097656 C 209.058594 349.097656 208.234375 348.652344 207.984375 348.148438 C 207.792969 347.640625 206.96875 347.195312 206.082031 347.195312 C 205.257812 347.195312 204.4375 346.75 204.183594 346.242188 C 203.992188 345.734375 203.171875 345.289062 202.347656 345.289062 C 201.527344 345.289062 200.320312 344.847656 199.625 344.339844 C 198.992188 343.832031 197.664062 343.386719 196.78125 343.386719 C 195.828125 343.386719 194.941406 342.941406 194.6875 342.433594 C 194.5 341.925781 193.679688 341.480469 192.917969 341.480469 C 192.09375 341.414062 190.765625 340.59375 189.878906 339.578125 C 189.058594 338.496094 188.105469 337.675781 187.792969 337.675781 C 187.476562 337.675781 186.148438 336.847656 184.8125 335.769531 C 183.484375 334.75 181.839844 333.867188 181.144531 333.867188 C 180.449219 333.867188 179.5625 333.421875 179.121094 332.914062 C 178.675781 332.40625 177.855469 331.960938 177.21875 331.960938 C 176.589844 331.960938 175.953125 331.515625 175.699219 331.007812 C 175.511719 330.503906 174.5625 330.058594 173.613281 330.058594 C 172.664062 330.058594 171.269531 329.613281 170.640625 329.105469 C 169.941406 328.597656 168.742188 328.152344 167.980469 328.152344 C 167.222656 328.152344 166.460938 327.707031 166.207031 327.199219 C 166.015625 326.695312 165.195312 326.25 164.3125 326.25 C 163.484375 326.25 162.664062 325.804688 162.410156 325.296875 C 162.21875 324.789062 161.523438 324.34375 160.890625 324.34375 C 160.257812 324.34375 158.359375 323.074219 156.710938 321.488281 C 155.007812 319.898438 153.105469 318.632812 152.535156 318.632812 C 151.90625 318.632812 151.269531 318.1875 151.015625 317.679688 C 150.828125 317.171875 150.003906 316.726562 149.117188 316.726562 C 148.296875 316.726562 147.472656 316.285156 147.222656 315.777344 C 147.03125 315.269531 146.207031 314.824219 145.386719 314.824219 C 144.5625 314.824219 143.359375 314.378906 142.660156 313.871094 C 142.03125 313.363281 140.703125 312.917969 139.8125 312.917969 C 138.867188 312.917969 137.976562 312.476562 137.726562 311.96875 C 137.535156 311.460938 136.710938 311.015625 135.828125 311.015625 C 135.003906 311.015625 134.183594 310.570312 133.929688 310.0625 C 133.738281 309.554688 132.851562 309.113281 131.964844 309.113281 C 131.082031 309.113281 130.382812 308.792969 130.382812 308.476562 C 130.382812 308.09375 129.6875 307.523438 128.800781 307.078125 C 127.089844 306.316406 127.28125 305.304688 129.179688 305.304688 C 130.253906 305.304688 130.382812 304.859375 130.382812 300.605469 C 130.382812 297.050781 130.636719 295.84375 131.335938 295.527344 C 132.09375 295.273438 132.28125 294.003906 132.28125 289.816406 C 132.28125 285.6875 132.472656 284.417969 133.234375 284.105469 C 133.929688 283.851562 134.183594 282.769531 134.183594 280.296875 C 134.183594 277.816406 134.4375 276.804688 135.128906 276.488281 C 135.828125 276.234375 136.082031 275.089844 136.082031 271.726562 C 136.082031 268.296875 136.335938 267.152344 137.09375 266.710938 C 137.917969 266.269531 138.105469 265.25 137.917969 261.316406 C 137.664062 257.253906 137.789062 256.425781 138.738281 255.855469 C 139.625 255.289062 139.875 254.269531 139.875 250.84375 C 139.941406 248.113281 140.257812 246.144531 140.828125 245.382812 C 141.394531 244.6875 141.777344 242.71875 141.777344 240.941406 C 141.839844 239.035156 142.21875 237.199219 142.789062 236.433594 C 143.421875 235.546875 143.738281 233.707031 143.738281 230.40625 C 143.738281 222.660156 144.121094 218.917969 144.878906 218.15625 C 145.257812 217.773438 145.574219 215.425781 145.574219 212.882812 C 145.574219 209.519531 145.824219 208.253906 146.460938 208 C 146.96875 207.808594 147.472656 206.855469 147.597656 205.839844 C 147.789062 204.316406 148.042969 204.0625 149.5625 204.253906 C 150.507812 204.382812 152.027344 204 152.851562 203.492188 C 153.800781 202.855469 155.828125 202.476562 158.230469 202.476562 C 161.082031 202.476562 162.15625 202.222656 162.410156 201.527344 C 162.726562 200.761719 163.992188 200.574219 168.421875 200.574219 C 172.980469 200.574219 174.054688 200.382812 174.054688 199.621094 C 174.054688 198.855469 175.132812 198.667969 179.691406 198.667969 C 183.867188 198.667969 185.511719 198.414062 186.082031 197.71875 C 186.652344 197.019531 188.234375 196.765625 192.476562 196.765625 C 196.652344 196.765625 198.171875 196.511719 198.550781 195.875 C 198.929688 195.238281 200.828125 194.859375 205.066406 194.609375 C 211.019531 194.226562 212.601562 194.097656 225.136719 193.144531 C 228.804688 192.828125 231.90625 192.320312 232.414062 191.8125 C 232.855469 191.367188 235.070312 191.054688 238.425781 191.054688 C 242.980469 191.054688 243.742188 190.925781 244.3125 189.78125 C 245.324219 187.941406 248.109375 188.128906 250.511719 190.289062 Z M 250.511719 190.289062 "/>
<path style=" stroke:none;fill-rule:nonzero;fill:rgb(0%,0%,0%);fill-opacity:1;" d="M 244.691406 197.082031 C 244.5 197.652344 244.691406 198.035156 245.261719 198.035156 C 246.273438 198.035156 246.527344 197.019531 245.640625 196.511719 C 245.324219 196.320312 244.945312 196.574219 244.691406 197.082031 Z M 244.691406 197.082031 "/>
<path style=" stroke:none;fill-rule:nonzero;fill:rgb(0%,0%,0%);fill-opacity:1;" d="M 270.894531 251.035156 C 270.894531 251.605469 271.210938 251.984375 271.59375 251.859375 C 271.972656 251.734375 272.285156 251.351562 272.285156 251.035156 C 272.285156 250.714844 271.972656 250.335938 271.59375 250.207031 C 271.210938 250.082031 270.894531 250.460938 270.894531 251.035156 Z M 270.894531 251.035156 "/>
<path style=" stroke:none;fill-rule:nonzero;fill:rgb(0%,0%,0%);fill-opacity:1;" d="M 147.597656 260.363281 C 147.980469 261.507812 149.371094 261.695312 149.371094 260.617188 C 149.371094 260.046875 148.925781 259.601562 148.359375 259.601562 C 147.789062 259.601562 147.472656 259.917969 147.597656 260.363281 Z M 147.597656 260.363281 "/>
<path style=" stroke:none;fill-rule:nonzero;fill:rgb(0%,0%,0%);fill-opacity:1;" d="M 284.1875 277.753906 C 284.1875 278.324219 284.5 278.644531 284.945312 278.515625 C 286.082031 278.136719 286.273438 276.742188 285.199219 276.742188 C 284.628906 276.742188 284.1875 277.183594 284.1875 277.753906 Z M 284.1875 277.753906 "/>
<path style=" stroke:none;fill-rule:nonzero;fill:rgb(0%,0%,0%);fill-opacity:1;" d="M 284.1875 285.308594 C 284.1875 285.878906 284.5 286.261719 284.882812 286.132812 C 285.261719 286.007812 285.578125 285.625 285.578125 285.308594 C 285.578125 284.988281 285.261719 284.609375 284.882812 284.480469 C 284.5 284.355469 284.1875 284.734375 284.1875 285.308594 Z M 284.1875 285.308594 "/>
<path style=" stroke:none;fill-rule:nonzero;fill:rgb(0%,0%,0%);fill-opacity:1;" d="M 161.394531 310.949219 C 161.394531 311.714844 161.714844 312.285156 162.03125 312.285156 C 162.410156 312.285156 162.664062 311.902344 162.664062 311.394531 C 162.664062 310.886719 162.410156 310.25 162.03125 310.0625 C 161.714844 309.871094 161.394531 310.25 161.394531 310.949219 Z M 161.394531 310.949219 "/>
<path style=" stroke:none;fill-rule:nonzero;fill:rgb(0%,0%,0%);fill-opacity:1;" d="M 159.183594 317.296875 C 158.800781 317.996094 159.753906 318.757812 160.382812 318.1875 C 160.957031 317.613281 160.828125 316.726562 160.195312 316.726562 C 159.8125 316.726562 159.4375 316.980469 159.183594 317.296875 Z M 159.183594 317.296875 "/>
<path style=" stroke:none;fill-rule:nonzero;fill:rgb(0%,0%,0%);fill-opacity:1;" d="M 199.054688 336.339844 C 198.679688 337.039062 199.625 337.796875 200.261719 337.230469 C 200.828125 336.65625 200.703125 335.769531 200.070312 335.769531 C 199.691406 335.769531 199.308594 336.023438 199.054688 336.339844 Z M 199.054688 336.339844 "/>
<path style=" stroke:none;fill-rule:nonzero;fill:rgb(0%,0%,0%);fill-opacity:1;" d="M 210.832031 336.402344 C 210.765625 337.675781 211.96875 338.941406 213.296875 338.878906 C 213.933594 338.878906 213.804688 338.625 212.851562 338.179688 C 212.09375 337.796875 211.335938 337.039062 211.207031 336.46875 C 210.957031 335.578125 210.894531 335.578125 210.832031 336.402344 Z M 210.832031 336.402344 "/>
<path style=" stroke:none;fill-rule:nonzero;fill:rgb(0%,0%,0%);fill-opacity:1;" d="M 361.402344 182.164062 C 360.894531 182.484375 360.710938 182.929688 360.894531 183.183594 C 361.53125 183.753906 363.304688 182.992188 363.304688 182.164062 C 363.304688 181.402344 362.667969 181.339844 361.402344 182.164062 Z M 361.402344 182.164062 "/>
<path style=" stroke:none;fill-rule:nonzero;fill:rgb(0%,0%,0%);fill-opacity:1;" d="M 18.355469 183.183594 C 18.355469 184.257812 19.746094 184.070312 20.125 182.929688 C 20.253906 182.484375 19.9375 182.164062 19.371094 182.164062 C 18.796875 182.164062 18.355469 182.609375 18.355469 183.183594 Z M 18.355469 183.183594 "/>
<path style=" stroke:none;fill-rule:nonzero;fill:rgb(0%,0%,0%);fill-opacity:1;" d="M 99.875 182.929688 C 100.449219 183.5 100.824219 183.5 101.394531 182.929688 C 101.96875 182.355469 101.839844 182.164062 100.632812 182.164062 C 99.433594 182.164062 99.304688 182.355469 99.875 182.929688 Z M 99.875 182.929688 "/>
<path style=" stroke:none;fill-rule:nonzero;fill:rgb(0%,0%,0%);fill-opacity:1;" d="M 119.433594 183.882812 C 118.613281 184.703125 118.992188 187.246094 119.941406 187.246094 C 120.574219 187.246094 120.886719 186.609375 120.886719 185.339844 C 120.886719 183.5 120.320312 182.929688 119.433594 183.882812 Z M 119.433594 183.882812 "/>
<path style=" stroke:none;fill-rule:nonzero;fill:rgb(0%,0%,0%);fill-opacity:1;" d="M 306.152344 183.816406 C 305.578125 184.449219 306.273438 185.339844 307.351562 185.339844 C 307.855469 185.339844 308.238281 184.894531 308.238281 184.386719 C 308.238281 183.4375 306.90625 183.054688 306.152344 183.816406 Z M 306.152344 183.816406 "/>
<path style=" stroke:none;fill-rule:nonzero;fill:rgb(0%,0%,0%);fill-opacity:1;" d="M 318.367188 184.386719 C 318.367188 184.894531 318.804688 185.339844 319.3125 185.339844 C 319.820312 185.339844 320.265625 184.894531 320.265625 184.386719 C 320.265625 183.882812 319.820312 183.4375 319.3125 183.4375 C 318.804688 183.4375 318.367188 183.882812 318.367188 184.386719 Z M 318.367188 184.386719 "/>
<path style=" stroke:none;fill-rule:nonzero;fill:rgb(0%,0%,0%);fill-opacity:1;" d="M 313.109375 184.449219 C 312.539062 185.019531 313.363281 186.671875 314 186.226562 C 314.3125 186.039062 314.566406 185.464844 314.566406 184.957031 C 314.566406 184.070312 313.808594 183.753906 313.109375 184.449219 Z M 313.109375 184.449219 "/>
<path style=" stroke:none;fill-rule:nonzero;fill:rgb(0%,0%,0%);fill-opacity:1;" d="M 357.921875 185.464844 C 358.554688 187.371094 358.621094 187.5 359.820312 186.992188 C 361.023438 186.546875 360.582031 185.65625 358.746094 184.640625 C 357.609375 184.007812 357.542969 184.132812 357.921875 185.464844 Z M 357.921875 185.464844 "/>
<path style=" stroke:none;fill-rule:nonzero;fill:rgb(0%,0%,0%);fill-opacity:1;" d="M 267.097656 188.128906 C 267.097656 189.464844 268.425781 190.101562 268.996094 189.082031 C 269.3125 188.640625 269.375 188.003906 269.25 187.75 C 268.679688 186.863281 267.097656 187.179688 267.097656 188.128906 Z M 267.097656 188.128906 "/>
<path style=" stroke:none;fill-rule:nonzero;fill:rgb(0%,0%,0%);fill-opacity:1;" d="M 141.777344 189.402344 C 141.777344 190.734375 143.042969 191.304688 143.867188 190.480469 C 144.433594 189.910156 144.371094 189.59375 143.675781 189.148438 C 142.347656 188.257812 141.777344 188.382812 141.777344 189.402344 Z M 141.777344 189.402344 "/>
<path style=" stroke:none;fill-rule:nonzero;fill:rgb(0%,0%,0%);fill-opacity:1;" d="M 281.148438 189.527344 C 281.398438 190.863281 282.542969 190.988281 282.796875 189.59375 C 282.917969 188.957031 282.605469 188.511719 281.96875 188.511719 C 281.335938 188.511719 281.023438 188.894531 281.148438 189.527344 Z M 281.148438 189.527344 "/>
<path style=" stroke:none;fill-rule:nonzero;fill:rgb(0%,0%,0%);fill-opacity:1;" d="M 136.207031 191.75 C 136.335938 192.128906 136.710938 192.382812 137.03125 192.382812 C 137.347656 192.382812 137.726562 192.128906 137.855469 191.75 C 137.976562 191.367188 137.601562 191.054688 137.03125 191.054688 C 136.457031 191.054688 136.082031 191.367188 136.207031 191.75 Z M 136.207031 191.75 "/>
<path style=" stroke:none;fill-rule:nonzero;fill:rgb(0%,0%,0%);fill-opacity:1;" d="M 280.515625 214.917969 C 280.769531 216.25 281.90625 216.375 282.160156 214.980469 C 282.289062 214.347656 281.96875 213.902344 281.335938 213.902344 C 280.707031 213.902344 280.386719 214.28125 280.515625 214.917969 Z M 280.515625 214.917969 "/>
<path style=" stroke:none;fill-rule:nonzero;fill:rgb(0%,0%,0%);fill-opacity:1;" d="M 293.804688 241.636719 C 294.121094 243.226562 295.578125 243.417969 295.578125 241.890625 C 295.578125 241.132812 295.199219 240.5625 294.566406 240.5625 C 293.996094 240.5625 293.683594 241.007812 293.804688 241.636719 Z M 293.804688 241.636719 "/>
<path style=" stroke:none;fill-rule:nonzero;fill:rgb(0%,0%,0%);fill-opacity:1;" d="M 307.796875 242.210938 C 307.289062 243.542969 308.617188 244.875 309.566406 243.925781 C 310.390625 243.097656 309.882812 241.195312 308.871094 241.195312 C 308.492188 241.195312 308.046875 241.636719 307.796875 242.210938 Z M 307.796875 242.210938 "/>
<path style=" stroke:none;fill-rule:nonzero;fill:rgb(0%,0%,0%);fill-opacity:1;" d="M 305.390625 292.671875 C 304.753906 293.625 305.578125 294.257812 306.402344 293.433594 C 306.84375 292.988281 306.84375 292.605469 306.464844 292.351562 C 306.085938 292.160156 305.578125 292.289062 305.390625 292.671875 Z M 305.390625 292.671875 "/>
<path style=" stroke:none;fill-rule:nonzero;fill:rgb(0%,0%,0%);fill-opacity:1;" d="M 309.316406 292.351562 C 308.808594 292.859375 309.378906 293.878906 310.199219 293.878906 C 310.515625 293.878906 310.769531 293.433594 310.769531 292.925781 C 310.769531 291.972656 310.007812 291.652344 309.316406 292.351562 Z M 309.316406 292.351562 "/>
<path style=" stroke:none;fill-rule:nonzero;fill:rgb(0%,0%,0%);fill-opacity:1;" d="M 110.253906 300.222656 C 110.253906 301.429688 110.382812 301.941406 110.574219 301.304688 C 110.699219 300.730469 110.699219 299.714844 110.574219 299.082031 C 110.382812 298.507812 110.253906 299.015625 110.253906 300.222656 Z M 110.253906 300.222656 "/>
<path style=" stroke:none;fill-rule:nonzero;fill:rgb(0%,0%,0%);fill-opacity:1;" d="M 295.578125 308.160156 C 295.578125 308.667969 296.023438 309.113281 296.53125 309.113281 C 297.03125 309.113281 297.476562 308.667969 297.476562 308.160156 C 297.476562 307.652344 297.03125 307.207031 296.53125 307.207031 C 296.023438 307.207031 295.578125 307.652344 295.578125 308.160156 Z M 295.578125 308.160156 "/>
<path style=" stroke:none;fill-rule:nonzero;fill:rgb(0%,0%,0%);fill-opacity:1;" d="M 117.722656 319.519531 C 117.722656 319.960938 118.292969 320.535156 118.992188 320.722656 C 119.941406 320.980469 120.257812 320.722656 120.257812 319.839844 C 120.257812 319.078125 119.8125 318.632812 118.992188 318.632812 C 118.292969 318.632812 117.722656 319.011719 117.722656 319.519531 Z M 117.722656 319.519531 "/>
<path style=" stroke:none;fill-rule:nonzero;fill:rgb(0%,0%,0%);fill-opacity:1;" d="M 282.289062 321.105469 C 282.289062 321.867188 282.667969 322.441406 283.300781 322.441406 C 283.871094 322.441406 284.1875 321.996094 284.0625 321.359375 C 283.742188 319.773438 282.289062 319.585938 282.289062 321.105469 Z M 282.289062 321.105469 "/>
<path style=" stroke:none;fill-rule:nonzero;fill:rgb(0%,0%,0%);fill-opacity:1;" d="M 138.359375 329.867188 C 137.601562 330.625 137.976562 331.960938 138.929688 331.960938 C 139.4375 331.960938 139.875 331.578125 139.875 331.070312 C 139.875 329.992188 138.992188 329.292969 138.359375 329.867188 Z M 138.359375 329.867188 "/>
<path style=" stroke:none;fill-rule:nonzero;fill:rgb(0%,0%,0%);fill-opacity:1;" d="M 140.957031 333.101562 C 139.8125 334.308594 139.496094 335.769531 140.382812 335.769531 C 141.140625 335.703125 143.675781 333.359375 143.675781 332.660156 C 143.675781 331.578125 142.09375 331.832031 140.957031 333.101562 Z M 140.957031 333.101562 "/>
<path style=" stroke:none;fill-rule:nonzero;fill:rgb(0%,0%,0%);fill-opacity:1;" d="M 268.996094 334.816406 C 268.996094 335.324219 269.4375 335.769531 269.945312 335.769531 C 270.449219 335.769531 270.894531 335.324219 270.894531 334.816406 C 270.894531 334.308594 270.449219 333.867188 269.945312 333.867188 C 269.4375 333.867188 268.996094 334.308594 268.996094 334.816406 Z M 268.996094 334.816406 "/>
<path style=" stroke:none;fill-rule:nonzero;fill:rgb(0%,0%,0%);fill-opacity:1;" d="M 163.550781 345.035156 C 163.738281 345.605469 163.929688 346.429688 163.929688 346.941406 C 163.929688 347.449219 164.496094 347.828125 165.195312 347.828125 C 166.777344 347.828125 166.839844 346.050781 165.386719 344.910156 C 163.867188 343.765625 163.105469 343.832031 163.550781 345.035156 Z M 163.550781 345.035156 "/>
<path style=" stroke:none;fill-rule:nonzero;fill:rgb(0%,0%,0%);fill-opacity:1;" d="M 254.058594 345.605469 C 253.613281 347.382812 254.503906 348.90625 255.640625 348.210938 C 256.652344 347.574219 256.527344 345.605469 255.386719 344.65625 C 254.628906 344.019531 254.4375 344.210938 254.058594 345.605469 Z M 254.058594 345.605469 "/>
<path style=" stroke:none;fill-rule:nonzero;fill:rgb(0%,0%,0%);fill-opacity:1;" d="M 170.640625 345.734375 C 169.941406 346.429688 170.257812 347.195312 171.207031 347.195312 C 171.714844 347.195312 172.160156 346.941406 172.160156 346.621094 C 172.160156 345.796875 171.144531 345.222656 170.640625 345.734375 Z M 170.640625 345.734375 "/>
<path style=" stroke:none;fill-rule:nonzero;fill:rgb(0%,0%,0%);fill-opacity:1;" d="M 240.890625 358.367188 C 240.640625 359 240.769531 359.757812 241.082031 360.078125 C 241.527344 360.523438 241.90625 360.394531 242.160156 359.632812 C 242.410156 359 242.289062 358.238281 241.96875 357.921875 C 241.527344 357.476562 241.144531 357.601562 240.890625 358.367188 Z M 240.890625 358.367188 "/>
<path style=" stroke:none;fill-rule:nonzero;fill:rgb(0%,0%,0%);fill-opacity:1;" d="M 191.144531 361.476562 C 191.144531 361.984375 191.589844 362.429688 192.09375 362.429688 C 192.597656 362.429688 193.042969 361.984375 193.042969 361.476562 C 193.042969 360.96875 192.597656 360.523438 192.09375 360.523438 C 191.589844 360.523438 191.144531 360.96875 191.144531 361.476562 Z M 191.144531 361.476562 "/>
<path style="fill-rule:nonzero;fill:rgb(0%,50.196078%,0%);fill-opacity:1;stroke-width:3.050848;stroke-linecap:butt;stroke-linejoin:miter;stroke:rgb(0%,0%,0%);stroke-opacity:1;stroke-miterlimit:4;" d="M 72.324396 345.461897 C 71.367785 343.900252 74.646491 334.784249 79.62241 325.198984 C 84.598328 315.613718 88.663924 305.905367 88.663924 303.62829 C 88.663924 301.343519 90.608003 295.589283 92.976386 290.842807 C 102.627354 271.495341 114.044965 245.255099 119.175175 230.615644 C 122.176156 222.068911 128.841572 205.790883 133.994926 194.436267 C 139.155995 183.081651 144.864801 168.249875 146.685447 161.480185 C 148.513808 154.718188 151.993093 148.417761 154.423193 147.479235 C 156.845578 146.548403 158.828231 143.178944 158.828231 139.978727 C 158.828231 136.786202 161.520627 128.354861 164.783904 121.238994 C 168.06261 114.123126 174.26515 98.806703 178.577613 87.19053 C 189.432058 57.919314 191.291277 56.188427 200.309647 66.896846 C 204.344384 71.704864 207.653948 76.266712 207.653948 77.043688 C 207.653948 77.828357 212.452431 83.559515 218.323243 89.790707 C 224.20177 96.014206 229.007967 102.899288 229.007967 105.099437 C 229.007967 107.291894 231.27606 110.961373 234.045603 113.269222 C 238.697508 117.131023 254.643591 137.001602 270.782539 159.041558 C 274.462404 164.080362 276.715068 170.180775 275.781601 172.604017 C 274.709271 175.411899 275.59645 176.511974 278.242559 175.619606 C 280.803807 174.758009 289.999613 184.82023 302.227257 201.852155 C 324.345022 232.677323 328.83492 237.962297 332.954518 237.962297 C 334.505153 237.962297 335.500337 238.993136 335.15318 240.25476 C 334.196569 243.731919 344.402988 261.748526 348.908315 264.502559 C 351.083833 265.848804 356.098325 271.749204 360.055916 277.634219 C 364.005792 283.503848 368.742558 289.704268 370.578633 291.419769 C 376.611452 297.035535 381.811094 308.136288 378.408954 308.136288 C 376.65774 308.136288 352.271882 310.859549 324.229303 314.175159 C 296.186724 317.506154 254.018708 322.414179 230.527744 325.083591 C 207.03678 327.753003 179.086776 332.053295 168.417481 334.630393 C 153.636304 338.207559 147.256328 338.515272 141.616953 335.945867 C 135.823287 333.307226 133.879207 333.484161 132.621727 336.761307 C 131.580256 339.469183 123.263915 341.677025 109.076761 343.038655 C 97.011123 344.200273 84.204883 345.854231 80.609879 346.715828 C 77.014874 347.585118 73.288721 347.023541 72.324396 345.461897 Z M 148.158936 323.391169 C 149.200407 321.706439 148.590954 320.337115 146.808881 320.337115 C 145.034522 320.337115 143.576462 321.706439 143.576462 323.391169 C 143.576462 325.068206 144.185916 326.445222 144.926518 326.445222 C 145.667119 326.445222 147.117465 325.068206 148.158936 323.391169 Z M 100.37469 303.420583 C 105.481756 292.212131 104.764298 290.981278 97.813442 298.981821 C 91.387178 306.390015 89.99855 311.190341 94.272439 311.190341 C 95.684212 311.190341 98.43061 307.690104 100.37469 303.420583 Z M 366.289314 302.543601 C 366.289314 298.574101 362.663451 295.927767 359.716473 297.750968 C 356.561201 299.697254 359.276741 305.089927 363.419482 305.089927 C 365.000976 305.089927 366.289314 303.943696 366.289314 302.543601 Z M 344.935295 295.93546 C 344.935295 294.25073 342.188897 292.881407 338.833045 292.881407 C 335.477193 292.881407 332.730795 294.25073 332.730795 295.93546 C 332.730795 297.612497 335.477193 298.981821 338.833045 298.981821 C 342.188897 298.981821 344.935295 297.612497 344.935295 295.93546 Z M 354.092528 283.734632 C 354.092528 282.049903 352.711614 280.680579 351.037546 280.680579 C 349.355762 280.680579 347.990278 282.049903 347.990278 283.734632 C 347.990278 285.403976 349.355762 286.780993 351.037546 286.780993 C 352.711614 286.780993 354.092528 285.403976 354.092528 283.734632 Z M 332.730795 253.217178 C 332.730795 251.540141 331.357595 250.163124 329.683527 250.163124 C 328.001743 250.163124 326.628544 251.540141 326.628544 253.217178 C 326.628544 254.901907 328.001743 256.271231 329.683527 256.271231 C 331.357595 256.271231 332.730795 254.901907 332.730795 253.217178 Z M 328.472334 238.793122 C 325.371064 235.685219 322.809816 240.362459 325.355635 244.478123 C 327.284285 247.586026 327.994029 247.593719 329.0355 244.485816 C 329.737529 242.370288 329.490662 239.808576 328.472334 238.793122 Z M 129.852185 228.807829 C 130.885942 227.138485 129.597603 225.761469 126.982353 225.761469 C 124.367103 225.761469 122.222443 227.138485 122.222443 228.807829 C 122.222443 230.492559 123.518496 231.861883 125.092275 231.861883 C 126.673769 231.861883 128.810714 230.492559 129.852185 228.807829 Z M 293.070024 201.536749 C 293.070024 199.959719 291.696825 197.821112 290.022757 196.78258 C 288.340973 195.744048 286.975489 197.036443 286.975489 199.652005 C 286.975489 202.267567 288.340973 204.406174 290.022757 204.406174 C 291.696825 204.406174 293.070024 203.113779 293.070024 201.536749 Z M 277.818256 184.581752 C 277.818256 182.058504 276.445057 179.996826 274.770988 179.996826 C 273.089205 179.996826 271.716005 182.058504 271.716005 184.581752 C 271.716005 187.089615 273.089205 189.151293 274.770988 189.151293 C 276.445057 189.151293 277.818256 187.089615 277.818256 184.581752 Z M 158.828231 163.403393 C 158.828231 162.664881 157.462746 161.203243 155.780963 160.164711 C 154.106894 159.126179 152.733695 159.733913 152.733695 161.510956 C 152.733695 163.295693 154.106894 164.749638 155.780963 164.749638 C 157.462746 164.749638 158.828231 164.141904 158.828231 163.403393 Z M 184.764724 106.784167 C 183.730967 105.099437 181.586307 103.730114 180.012529 103.730114 C 178.431035 103.730114 177.134982 105.099437 177.134982 106.784167 C 177.134982 108.461204 179.279641 109.830528 181.894892 109.830528 C 184.510142 109.830528 185.806195 108.461204 184.764724 106.784167 Z M 184.764724 106.784167 " transform="matrix(0.506345,0,0,0.507778,0,0)"/>
<path style="fill-rule:nonzero;fill:rgb(50.196078%,0%,50.196078%);fill-opacity:1;stroke-width:3.050848;stroke-linecap:butt;stroke-linejoin:miter;stroke:rgb(0%,0%,0%);stroke-opacity:1;stroke-miterlimit:4;" d="M 676.971776 346.277337 C 674.904262 344.200273 618.186507 326.699086 601.206667 322.891135 C 582.205602 318.637 539.613283 305.297634 535.748267 302.397437 C 533.989338 301.081963 524.330656 298.32793 514.255385 296.266252 C 482.378649 289.758118 471.470201 285.227041 472.203088 278.811222 C 473.198272 270.102938 488.141457 212.899058 491.242727 205.937047 C 492.73936 202.575281 496.22636 191.597613 498.988187 181.527699 C 513.244772 129.54725 521.900556 100.822224 526.822472 89.129123 C 529.136853 83.621057 531.034645 76.266712 531.034645 72.789553 C 531.034645 68.012306 532.346127 66.966081 536.380864 68.527726 C 539.312413 69.666264 545.838967 71.381765 550.868887 72.343369 C 555.898808 73.29728 561.399319 75.082016 563.073388 76.305176 C 564.747457 77.536029 573.673252 80.282369 582.90763 82.397897 C 599.40145 86.205848 645.881929 100.137562 669.851198 108.468897 C 676.562902 110.792131 691.660378 114.83856 703.409717 117.446429 C 715.159057 120.054298 729.701082 124.493061 735.726186 127.324022 L 746.680921 132.455139 L 741.234412 150.894852 C 738.233432 161.026308 732.840925 179.612184 729.253635 192.205346 C 725.65863 204.790816 720.597851 221.945825 717.99803 230.338703 C 715.405924 238.73158 709.936271 257.948268 705.855246 273.049292 C 695.263097 312.205795 693.720177 317.544618 689.48486 329.491583 C 687.409632 335.361212 685.264973 341.884731 684.74038 343.984874 C 683.760626 347.86206 679.741318 349.039063 676.971776 346.277337 Z M 537.136895 127.954834 C 537.136895 126.377804 535.771411 125.085409 534.081913 125.085409 C 532.407844 125.085409 531.034645 127.224015 531.034645 129.84727 C 531.034645 132.455139 532.407844 133.747535 534.081913 132.709003 C 535.771411 131.670471 537.136895 129.539557 537.136895 127.954834 Z M 537.136895 127.954834 " transform="matrix(0.506345,0,0,0.507778,0,0)"/>
<path style="fill-rule:nonzero;fill:rgb(0%,100%,100%);fill-opacity:1;stroke-width:3.050848;stroke-linecap:butt;stroke-linejoin:miter;stroke:rgb(0%,0%,0%);stroke-opacity:1;stroke-miterlimit:4;" d="M 432.256878 696.185689 C 430.775674 693.793219 409.305936 682.592459 387.651048 672.899494 C 381.772521 670.283932 370.408912 664.029661 362.385726 659.013937 C 354.370254 653.998212 344.379844 649.044029 340.198529 647.997805 C 336.02493 646.943887 324.314163 640.728081 314.177176 634.17379 C 304.040189 627.627192 287.114351 618.34964 276.560776 613.5647 L 257.37456 604.864109 L 261.409297 579.300837 C 263.623388 565.238344 267.44983 545.490851 269.918503 535.420937 C 275.627309 512.096278 283.179904 469.108746 287.037205 437.875858 C 290.516491 409.758566 292.37571 402.711934 296.325587 402.711934 C 299.504003 402.711934 342.690346 395.711459 380.021306 389.149476 C 393.444714 386.787777 421.587583 383.225997 442.563587 381.233554 C 463.531875 379.233419 482.36322 376.263986 484.399875 374.625414 C 489.391222 370.602064 502.166603 384.541471 506.911084 399.188618 C 511.73271 414.081936 527.069339 444.499384 530.965214 446.899547 C 532.68557 447.961158 534.081913 451.176761 534.081913 454.038493 C 534.081913 456.907919 536.797453 464.031479 540.107017 469.878029 C 543.408867 475.72458 554.533323 497.349123 564.809174 517.935135 L 583.501655 555.368444 L 572.045471 568.05392 C 565.74264 575.031316 546.116692 594.563411 528.419395 611.47225 C 510.722097 628.373396 483.666987 654.905966 468.291785 670.422403 C 441.545259 697.424235 435.628159 701.647598 432.256878 696.185689 Z M 424.256835 666.983708 C 424.256835 666.345203 422.197037 664.129668 419.682076 662.037219 C 415.93278 658.921623 415.107317 659.129329 415.107317 663.191143 C 415.107317 665.906712 417.159401 668.137632 419.682076 668.137632 C 422.197037 668.137632 424.256835 667.61452 424.256835 666.983708 Z M 396.800566 662.037219 C 396.800566 660.352489 396.191113 658.983165 395.458225 658.983165 C 394.717623 658.983165 393.259564 660.352489 392.225807 662.037219 C 391.19205 663.714255 391.793789 665.083579 393.568148 665.083579 C 395.350221 665.083579 396.800566 663.714255 396.800566 662.037219 Z M 323.581276 613.218522 C 323.581276 611.541485 322.208077 610.164469 320.534008 610.164469 C 318.852225 610.164469 317.479026 611.541485 317.479026 613.218522 C 317.479026 614.903252 318.852225 616.264883 320.534008 616.264883 C 322.208077 616.264883 323.581276 614.903252 323.581276 613.218522 Z M 564.600879 561.353465 C 564.600879 559.676429 563.991426 558.307105 563.250824 558.307105 C 562.510222 558.307105 561.059877 559.676429 560.018406 561.353465 C 558.984649 563.030502 559.586388 564.407519 561.368461 564.407519 C 563.14282 564.407519 564.600879 563.030502 564.600879 561.353465 Z M 564.600879 546.098584 C 564.600879 544.42924 563.991426 543.052224 563.250824 543.052224 C 562.510222 543.052224 561.059877 544.42924 560.018406 546.098584 C 558.984649 547.775621 559.586388 549.152638 561.368461 549.152638 C 563.14282 549.152638 564.600879 547.775621 564.600879 546.098584 Z M 296.125007 512.542462 C 296.125007 510.857732 294.751808 509.496101 293.070024 509.496101 C 291.388241 509.496101 290.022757 510.857732 290.022757 512.542462 C 290.022757 514.219499 291.388241 515.596515 293.070024 515.596515 C 294.751808 515.596515 296.125007 514.219499 296.125007 512.542462 Z M 540.184163 494.24122 C 540.184163 492.556491 538.818679 491.187167 537.136895 491.187167 C 535.462827 491.187167 534.081913 492.556491 534.081913 494.24122 C 534.081913 495.918257 535.462827 497.287581 537.136895 497.287581 C 538.818679 497.287581 540.184163 495.918257 540.184163 494.24122 Z M 488.326607 389.164861 C 488.326607 388.42635 486.953408 386.972405 485.271625 385.933873 C 483.597556 384.895341 482.224357 385.495382 482.224357 387.280118 C 482.224357 389.057162 483.597556 390.503414 485.271625 390.503414 C 486.953408 390.503414 488.326607 389.903373 488.326607 389.164861 Z M 488.326607 389.164861 " transform="matrix(0.506345,0,0,0.507778,0,0)"/>
</g>
</svg>
