<?xml version="1.0" encoding="UTF-8"?>
<svg xmlns="http://www.w3.org/2000/svg" xmlns:xlink="http://www.w3.org/1999/xlink" width="199pt" height="197pt" viewBox="0 0 199 197" version="1.1">
<g id="surface1">
<path style=" stroke:none;fill-rule:nonzero;fill:rgb(0%,0%,0%);fill-opacity:1;" d="M 2.453125 4.605469 C 2.179688 5.0625 2.222656 194.265625 2.496094 194.71875 C 2.859375 195.3125 191.011719 195.128906 191.511719 194.539062 C 192.144531 193.714844 192.007812 5.105469 191.375 4.652344 C 190.691406 4.242188 2.722656 4.148438 2.453125 4.605469 Z M 4.992188 99.6875 C 4.992188 163.9375 4.855469 192.941406 4.539062 192.804688 C 4.175781 192.714844 4.039062 163.621094 4.085938 99.867188 C 4.085938 48.839844 4.085938 6.929688 4.085938 6.703125 C 4.085938 6.519531 4.3125 6.382812 4.539062 6.382812 C 4.855469 6.382812 4.992188 37.804688 4.992188 99.6875 Z M 26.964844 7.433594 C 27.644531 7.933594 27.6875 8.253906 27.191406 10.214844 C 26.828125 11.675781 26.734375 14.820312 26.871094 19.882812 C 27.007812 24.441406 26.917969 27.496094 26.691406 27.632812 C 26.417969 27.816406 22.515625 27.910156 17.976562 27.863281 C 13.4375 27.816406 9.167969 27.953125 8.535156 28.226562 C 7.714844 28.546875 7.21875 28.5 6.855469 28.136719 C 6.308594 27.589844 6.128906 7.707031 6.671875 7.160156 C 6.808594 6.976562 11.257812 6.839844 16.566406 6.839844 C 23.648438 6.839844 26.371094 6.976562 26.964844 7.433594 Z M 49.703125 17.511719 L 49.703125 27.910156 L 39.71875 27.910156 L 29.730469 27.863281 L 29.503906 18.011719 C 29.367188 12.585938 29.460938 7.84375 29.640625 7.480469 C 29.957031 6.929688 31.683594 6.839844 39.855469 6.929688 L 49.703125 7.066406 Z M 72.765625 17.328125 C 72.71875 22.984375 72.671875 27.679688 72.671875 27.816406 C 72.628906 28.136719 52.609375 27.953125 52.335938 27.632812 C 52.203125 27.496094 52.109375 22.9375 52.109375 17.511719 C 52.109375 9.621094 52.203125 7.570312 52.699219 7.25 C 53.0625 7.023438 57.738281 6.886719 63.09375 6.976562 L 72.808594 7.066406 Z M 95.277344 7.25 C 95.777344 7.570312 95.867188 9.578125 95.867188 17.558594 C 95.824219 23.027344 95.734375 27.589844 95.597656 27.679688 C 95.324219 27.953125 75.351562 28 75.125 27.726562 C 75.035156 27.632812 74.898438 23.074219 74.851562 17.601562 C 74.804688 9.621094 74.941406 7.570312 75.398438 7.25 C 76.214844 6.75 94.460938 6.75 95.277344 7.25 Z M 118.609375 7.386719 C 119.246094 7.890625 119.292969 8.253906 118.929688 9.578125 C 118.609375 10.535156 118.472656 14.457031 118.566406 19.242188 C 118.609375 23.667969 118.566406 27.453125 118.382812 27.589844 C 118.019531 28 99.589844 28 99 27.589844 C 98.683594 27.40625 98.5 24.214844 98.5 18.652344 C 98.5 13.316406 98.320312 9.621094 98.003906 9.074219 C 97.640625 8.300781 97.683594 8.027344 98.363281 7.480469 C 99.5 6.613281 117.476562 6.566406 118.609375 7.386719 Z M 141.714844 7.386719 C 142.304688 7.890625 142.351562 8.574219 142.03125 11.855469 C 141.804688 14 141.761719 18.46875 141.894531 21.753906 C 142.125 26.128906 142.078125 27.816406 141.667969 27.863281 C 137.175781 28.046875 121.921875 27.816406 121.652344 27.542969 C 121.425781 27.316406 121.199219 22.753906 121.152344 17.417969 C 121.0625 9.484375 121.199219 7.570312 121.695312 7.25 C 122.742188 6.613281 140.851562 6.75 141.714844 7.386719 Z M 164.273438 7.25 C 164.773438 7.570312 164.910156 9.578125 164.863281 17.328125 C 164.863281 22.800781 164.683594 27.179688 164.410156 27.453125 C 164.003906 27.863281 144.394531 28.226562 144.300781 27.816406 C 144.167969 26.769531 144.167969 7.160156 144.300781 7.023438 C 144.664062 6.65625 163.640625 6.886719 164.273438 7.25 Z M 187.289062 7.386719 C 187.515625 7.707031 187.605469 12.449219 187.46875 17.96875 L 187.242188 27.910156 L 177.394531 28 C 169.539062 28.046875 167.453125 27.910156 167.269531 27.453125 C 166.90625 26.539062 167 7.480469 167.363281 7.160156 C 167.496094 6.976562 171.992188 6.839844 177.257812 6.839844 C 184.472656 6.839844 187.015625 6.976562 187.289062 7.386719 Z M 189.738281 17.558594 C 189.738281 23.804688 189.558594 27.816406 189.285156 27.816406 C 188.921875 27.816406 188.378906 8.847656 188.742188 7.753906 C 188.832031 7.480469 189.105469 7.296875 189.332031 7.296875 C 189.558594 7.296875 189.738281 11.628906 189.738281 17.558594 Z M 27.097656 30.917969 C 27.554688 31.191406 27.554688 31.691406 27.191406 33.0625 C 26.871094 34.246094 26.734375 37.757812 26.871094 42.730469 C 27.097656 50.160156 27.054688 50.617188 26.238281 50.890625 C 25.738281 51.027344 22.96875 51.027344 20.0625 50.847656 C 17.160156 50.710938 13.074219 50.753906 11.03125 50.9375 C 8.578125 51.210938 7.082031 51.164062 6.808594 50.890625 C 6.535156 50.617188 6.355469 46.515625 6.355469 40.496094 L 6.355469 30.554688 L 16.476562 30.554688 C 22.015625 30.554688 26.828125 30.734375 27.097656 30.917969 Z M 49.839844 40.675781 L 49.703125 50.847656 L 29.730469 50.847656 L 29.503906 41.132812 C 29.367188 35.796875 29.367188 31.238281 29.414062 31.007812 C 29.503906 30.734375 33.453125 30.554688 39.765625 30.554688 L 49.929688 30.554688 Z M 72.765625 40.8125 L 72.765625 50.847656 L 62.6875 50.890625 C 56.96875 50.890625 52.519531 50.753906 52.335938 50.480469 C 52.15625 50.207031 52.019531 31.921875 52.203125 30.644531 C 52.203125 30.597656 56.832031 30.597656 62.460938 30.644531 L 72.765625 30.78125 Z M 95.867188 30.871094 C 95.960938 31.101562 95.914062 35.660156 95.777344 41.042969 L 95.550781 50.847656 L 75.125 50.847656 L 74.898438 41.042969 C 74.761719 35.660156 74.714844 31.101562 74.804688 30.871094 C 74.898438 30.691406 79.617188 30.554688 85.335938 30.554688 C 91.058594 30.554688 95.777344 30.691406 95.867188 30.871094 Z M 118.882812 30.964844 C 119.335938 31.28125 119.382812 31.554688 118.929688 32.378906 C 118.566406 33.0625 118.429688 35.933594 118.519531 41.769531 C 118.609375 46.378906 118.519531 50.300781 118.335938 50.480469 C 117.792969 50.984375 98.957031 51.027344 98.636719 50.527344 C 98.5 50.253906 98.410156 46.195312 98.457031 41.40625 C 98.546875 35.113281 98.410156 32.558594 98.003906 32.058594 C 97.546875 31.511719 97.546875 31.328125 98.09375 30.964844 C 98.910156 30.460938 118.019531 30.417969 118.882812 30.964844 Z M 142.167969 31.691406 C 142.078125 32.195312 141.988281 36.710938 141.941406 41.726562 L 141.851562 50.847656 L 121.425781 50.847656 L 121.199219 41.042969 C 121.0625 35.660156 121.015625 31.101562 121.105469 30.871094 C 121.199219 30.691406 126.007812 30.597656 131.773438 30.644531 C 142.03125 30.78125 142.304688 30.828125 142.167969 31.691406 Z M 164.863281 40.449219 C 164.863281 45.738281 164.773438 50.300781 164.636719 50.527344 C 164.457031 50.753906 159.871094 50.890625 154.289062 50.890625 L 144.167969 50.847656 L 144.167969 40.90625 C 144.121094 35.433594 144.210938 30.828125 144.300781 30.734375 C 144.4375 30.644531 149.113281 30.597656 154.695312 30.644531 L 164.863281 30.78125 Z M 187.5625 30.871094 C 187.652344 31.101562 187.652344 35.660156 187.5625 41.085938 L 187.425781 50.9375 L 177.347656 50.890625 L 167.269531 50.847656 L 167.132812 40.675781 L 167.042969 30.554688 L 177.210938 30.554688 C 182.839844 30.554688 187.46875 30.691406 187.5625 30.871094 Z M 189.738281 40.585938 C 189.738281 46.695312 189.558594 50.617188 189.285156 50.617188 C 188.921875 50.617188 188.378906 31.785156 188.742188 30.871094 C 188.832031 30.691406 189.058594 30.554688 189.332031 30.554688 C 189.558594 30.554688 189.738281 34.613281 189.738281 40.585938 Z M 27.234375 54.3125 C 27.460938 54.585938 27.417969 55.496094 27.191406 56.273438 C 26.691406 58.097656 26.691406 69.453125 27.191406 71.730469 C 27.460938 72.824219 27.417969 73.511719 27.144531 73.738281 C 26.871094 73.875 22.152344 74.011719 16.613281 74.011719 L 6.582031 74.058594 L 6.445312 64.296875 C 6.398438 58.917969 6.398438 54.3125 6.535156 54.039062 C 6.761719 53.355469 26.828125 53.582031 27.234375 54.3125 Z M 49.703125 63.886719 L 49.703125 74.058594 L 39.71875 73.964844 C 34.226562 73.964844 29.640625 73.921875 29.503906 73.921875 C 29.277344 73.875 29.414062 54.769531 29.6875 54.039062 C 29.777344 53.765625 33.5 53.628906 39.765625 53.671875 L 49.703125 53.71875 Z M 72.808594 63.933594 L 72.855469 74.195312 L 62.640625 74.058594 C 57.011719 73.964844 52.335938 73.921875 52.203125 73.921875 C 52.066406 73.875 51.972656 69.359375 51.972656 63.84375 C 51.972656 55.453125 52.066406 53.808594 52.65625 53.71875 C 53.019531 53.628906 57.648438 53.628906 63.003906 53.628906 L 72.71875 53.671875 Z M 95.640625 53.992188 C 95.777344 54.082031 95.914062 58.1875 96.003906 63.023438 C 96.050781 67.855469 96.1875 72.324219 96.277344 72.964844 L 96.457031 74.101562 L 74.714844 74.101562 L 74.851562 64.070312 C 74.898438 58.554688 75.125 53.945312 75.351562 53.808594 C 75.851562 53.492188 95.324219 53.671875 95.640625 53.992188 Z M 118.382812 54.039062 C 118.519531 54.175781 118.609375 57.730469 118.519531 61.925781 C 118.429688 67.855469 118.566406 70 119.109375 71.59375 C 119.652344 73.144531 119.652344 73.691406 119.246094 73.964844 C 118.472656 74.46875 98.410156 74.421875 97.683594 73.921875 C 97.140625 73.601562 97.183594 73.28125 97.820312 72.050781 C 98.457031 70.820312 98.546875 69.316406 98.457031 62.382812 C 98.363281 56.957031 98.5 54.082031 98.820312 53.902344 C 99.453125 53.492188 118.019531 53.628906 118.382812 54.039062 Z M 141.441406 53.765625 C 141.804688 53.808594 141.988281 56.410156 142.03125 62.566406 C 142.03125 67.398438 142.125 71.960938 142.214844 72.734375 L 142.304688 74.101562 L 131.410156 74.101562 C 120.742188 74.101562 120.515625 74.101562 120.699219 73.191406 C 120.789062 72.6875 120.96875 68.175781 121.015625 63.203125 C 121.105469 58.097656 121.332031 53.992188 121.605469 53.855469 C 121.921875 53.628906 137.8125 53.582031 141.441406 53.765625 Z M 164.636719 53.992188 C 165.046875 54.402344 165 73.875 164.546875 73.875 C 164.320312 73.921875 159.597656 73.964844 154.105469 74.058594 L 144.074219 74.195312 L 144.167969 63.886719 C 144.257812 58.234375 144.300781 53.582031 144.300781 53.582031 C 151.246094 53.582031 164.5 53.855469 164.636719 53.992188 Z M 187.289062 53.945312 C 187.425781 54.039062 187.515625 58.644531 187.515625 64.117188 L 187.5625 74.058594 L 177.394531 74.011719 L 167.269531 74.011719 L 167.132812 64.253906 C 167.089844 58.917969 167.089844 54.3125 167.226562 54.039062 C 167.363281 53.582031 186.835938 53.445312 187.289062 53.945312 Z M 189.738281 63.84375 C 189.738281 70.226562 189.558594 73.875 189.285156 73.875 C 189.015625 73.875 188.832031 70.226562 188.832031 63.84375 C 188.832031 57.457031 189.015625 53.808594 189.285156 53.808594 C 189.558594 53.808594 189.738281 57.457031 189.738281 63.84375 Z M 71.582031 76.429688 C 71.71875 76.839844 71.582031 77.613281 71.265625 78.160156 C 70.949219 78.664062 70.496094 79.710938 70.3125 80.488281 C 69.949219 81.855469 68.816406 85.183594 68.132812 86.871094 C 67.40625 88.605469 66.636719 90.976562 66.273438 92.570312 C 66.046875 93.4375 65.546875 94.898438 65.183594 95.808594 L 64.503906 97.449219 L 58.691406 97.3125 C 55.515625 97.222656 52.699219 97.132812 52.429688 97.132812 C 51.882812 97.132812 51.929688 77.160156 52.519531 76.566406 C 52.746094 76.335938 56.785156 76.109375 61.507812 76.019531 C 66.273438 75.972656 70.402344 75.882812 70.722656 75.789062 C 71.039062 75.746094 71.402344 76.019531 71.582031 76.429688 Z M 26.828125 76.703125 C 26.828125 77.023438 26.871094 81.398438 26.917969 86.414062 C 26.964844 91.433594 27.097656 95.855469 27.234375 96.21875 C 27.417969 96.8125 26.054688 96.949219 17.25 97.132812 C 11.621094 97.269531 6.898438 97.3125 6.71875 97.222656 C 6.492188 97.132812 6.355469 92.390625 6.355469 86.597656 L 6.355469 76.15625 L 16.566406 76.15625 C 24.421875 76.15625 26.78125 76.292969 26.828125 76.703125 Z M 49.839844 86.6875 L 49.703125 97.175781 L 29.730469 97.175781 L 29.597656 86.6875 L 29.503906 76.15625 L 49.929688 76.15625 Z M 164.546875 76.609375 C 164.730469 76.882812 164.863281 81.628906 164.910156 87.097656 L 165 97.132812 L 155.378906 97.222656 C 150.066406 97.269531 145.347656 97.3125 144.9375 97.3125 C 144.210938 97.359375 144.121094 96.675781 143.984375 89.699219 C 143.894531 83.496094 144.03125 81.71875 144.574219 80.578125 C 144.9375 79.847656 145.253906 78.9375 145.253906 78.570312 C 145.253906 78.207031 145.484375 77.523438 145.710938 77.023438 C 146.164062 76.199219 146.753906 76.15625 155.242188 76.15625 C 161.007812 76.15625 164.367188 76.335938 164.546875 76.609375 Z M 187.46875 76.929688 C 187.5625 87.738281 187.46875 96.8125 187.289062 96.996094 C 187.199219 97.132812 182.613281 97.222656 177.167969 97.175781 L 167.269531 97.175781 L 167.132812 87.238281 C 167.089844 81.765625 167.132812 77.066406 167.226562 76.746094 C 167.40625 76.292969 169.765625 76.15625 177.484375 76.15625 C 186.699219 76.15625 187.46875 76.199219 187.46875 76.929688 Z M 189.738281 86.917969 C 189.738281 94.03125 189.605469 97.175781 189.242188 97.039062 C 188.96875 96.949219 188.785156 96.722656 188.785156 96.539062 C 188.832031 96.355469 188.832031 91.796875 188.832031 86.414062 C 188.832031 80.167969 189.015625 76.609375 189.285156 76.609375 C 189.558594 76.609375 189.738281 80.351562 189.738281 86.917969 Z M 96.914062 78.800781 C 97.183594 78.800781 102.132812 78.707031 107.941406 78.570312 C 115.34375 78.433594 118.746094 78.527344 119.15625 78.890625 C 119.652344 79.300781 119.652344 79.757812 119.0625 81.445312 C 118.519531 83.085938 118.382812 85 118.566406 90.335938 C 118.699219 95.71875 118.609375 97.132812 118.15625 97.132812 C 117.839844 97.175781 113.480469 97.175781 108.488281 97.175781 C 103.496094 97.175781 99.136719 97.175781 98.820312 97.132812 C 98.410156 97.132812 98.320312 95.535156 98.457031 90.199219 C 98.59375 83.269531 98.09375 79.574219 97.003906 79.941406 C 96.050781 80.257812 95.734375 82.765625 95.867188 89.835938 L 95.960938 96.902344 L 85.972656 97.132812 C 80.527344 97.269531 75.714844 97.3125 75.351562 97.222656 C 74.761719 97.085938 74.671875 95.71875 74.535156 88.648438 C 74.445312 83.269531 74.578125 79.894531 74.898438 79.300781 C 75.441406 78.34375 74.578125 78.390625 96.914062 78.800781 Z M 141.171875 79.53125 C 141.171875 80.121094 140.898438 80.851562 140.535156 81.125 C 140.171875 81.398438 139.808594 82.21875 139.671875 82.902344 C 139.445312 84 136.222656 93.984375 135.269531 96.492188 C 134.90625 97.40625 134.679688 97.449219 128.1875 97.269531 C 124.464844 97.175781 121.378906 96.996094 121.289062 96.902344 C 121.152344 96.765625 121.105469 93.484375 121.152344 89.609375 C 121.242188 85.136719 121.0625 81.902344 120.699219 80.851562 C 120.289062 79.53125 120.289062 79.164062 120.789062 78.84375 C 121.152344 78.617188 125.871094 78.433594 131.320312 78.433594 L 141.171875 78.433594 Z M 72.992188 92.160156 L 72.855469 97.359375 L 70.949219 97.496094 C 69.269531 97.632812 68.996094 97.496094 68.996094 96.722656 C 68.996094 96.265625 69.269531 95.261719 69.632812 94.53125 C 70.3125 93.210938 71.449219 89.652344 71.945312 87.375 C 72.535156 84.546875 73.128906 87.054688 72.992188 92.160156 Z M 142.441406 93.300781 L 142.304688 97.359375 L 140.535156 97.496094 C 138.992188 97.632812 138.808594 97.542969 139.128906 96.8125 C 139.355469 96.355469 139.582031 95.351562 139.71875 94.53125 C 139.808594 93.710938 140.171875 92.800781 140.535156 92.527344 C 140.898438 92.253906 141.171875 91.523438 141.171875 90.976562 C 141.171875 89.425781 141.667969 88.332031 142.167969 88.832031 C 142.394531 89.058594 142.53125 91.066406 142.441406 93.300781 Z M 26.601562 99.59375 C 26.964844 99.730469 27.054688 102.195312 26.871094 107.710938 C 26.734375 112.410156 26.871094 116.285156 27.144531 117.289062 C 27.507812 118.609375 27.460938 119.113281 27.007812 119.476562 C 26.601562 119.796875 23.015625 120.023438 16.476562 120.023438 L 6.582031 120.070312 L 6.445312 110.082031 C 6.398438 104.609375 6.398438 99.914062 6.535156 99.640625 C 6.671875 99.230469 25.375 99.183594 26.601562 99.59375 Z M 63.640625 99.230469 C 63.957031 99.550781 63.414062 101.828125 62.1875 104.882812 C 61.644531 106.253906 61.050781 107.984375 60.824219 108.761719 C 60.644531 109.488281 60.28125 110.628906 60.054688 111.269531 C 59.78125 111.90625 59.238281 113.640625 58.828125 115.144531 C 58.375 116.648438 57.648438 118.609375 57.195312 119.476562 C 56.46875 120.890625 56.195312 121.074219 54.832031 120.9375 C 51.972656 120.617188 52.066406 120.980469 52.066406 110.128906 C 52.109375 104.65625 52.292969 100.050781 52.519531 99.824219 C 52.699219 99.640625 54.832031 99.367188 57.195312 99.273438 C 59.554688 99.230469 61.914062 99.09375 62.460938 99.046875 C 62.960938 99 63.503906 99.046875 63.640625 99.230469 Z M 72.765625 109.445312 C 72.71875 115.097656 72.671875 119.886719 72.671875 120.070312 C 72.628906 120.296875 71.492188 120.296875 70.132812 120.160156 C 68.679688 119.976562 66.410156 120.070312 64.683594 120.390625 C 63.050781 120.707031 61.597656 120.84375 61.460938 120.707031 C 61.1875 120.433594 62.597656 115.78125 63.140625 115.144531 C 63.367188 114.917969 63.550781 114.371094 63.550781 113.914062 C 63.550781 113.503906 63.820312 112.453125 64.183594 111.632812 C 65.230469 109.078125 66.863281 103.972656 67.5 101.234375 C 67.953125 99.320312 68.542969 98.910156 70.765625 99.046875 L 72.855469 99.183594 Z M 134.179688 99.640625 C 134.316406 100.003906 134.132812 100.734375 133.726562 101.328125 C 133.316406 101.875 133 102.648438 133 103.058594 C 133 103.425781 132.683594 104.335938 132.320312 105.066406 C 131.957031 105.75 131.636719 106.707031 131.636719 107.117188 C 131.636719 107.527344 131.320312 108.441406 130.957031 109.171875 C 130.59375 109.855469 130.277344 110.8125 130.277344 111.222656 C 130.277344 111.632812 129.957031 112.546875 129.59375 113.273438 C 129.230469 113.960938 128.914062 114.824219 128.914062 115.144531 C 128.914062 115.464844 128.460938 116.921875 127.914062 118.335938 L 126.960938 120.9375 L 124.421875 120.617188 C 123.011719 120.433594 121.695312 120.160156 121.46875 119.933594 C 121.152344 119.613281 121.105469 114.917969 121.199219 100.003906 C 121.199219 99.59375 122.742188 99.410156 126.554688 99.273438 C 129.457031 99.230469 132.320312 99.09375 132.910156 99.046875 C 133.453125 99 134.042969 99.273438 134.179688 99.640625 Z M 141.941406 99.730469 C 142.125 100.1875 142.214844 104.976562 142.078125 110.355469 L 141.851562 120.160156 L 137.992188 120.253906 C 135.859375 120.34375 133.636719 120.433594 133 120.480469 C 132.136719 120.570312 131.820312 120.390625 131.730469 119.566406 C 131.636719 118.976562 131.910156 118.019531 132.273438 117.425781 C 132.683594 116.832031 133 115.964844 133 115.507812 C 133 115.054688 133.316406 114.097656 133.679688 113.367188 C 134.042969 112.683594 134.359375 111.722656 134.359375 111.3125 C 134.359375 110.902344 134.679688 109.992188 135.042969 109.261719 C 135.40625 108.578125 135.722656 107.621094 135.722656 107.210938 C 135.722656 106.800781 136.039062 105.886719 136.402344 105.15625 C 136.765625 104.472656 137.085938 103.46875 137.085938 103.015625 C 137.085938 102.558594 137.449219 101.464844 137.902344 100.597656 C 138.539062 99.230469 138.902344 98.957031 140.125 98.957031 C 141.078125 98.957031 141.714844 99.230469 141.941406 99.730469 Z M 164.683594 99.640625 C 165 99.914062 164.863281 119.523438 164.59375 119.796875 C 164.457031 119.976562 160.507812 120.023438 155.785156 119.976562 C 150.839844 119.933594 146.753906 120.070312 146.074219 120.34375 C 145.164062 120.664062 144.757812 120.664062 144.527344 120.296875 C 144.257812 119.839844 143.9375 99.550781 144.167969 99.273438 C 144.347656 99.09375 164.546875 99.457031 164.683594 99.640625 Z M 187.46875 109.035156 C 187.605469 114.414062 187.5625 119.066406 187.425781 119.429688 C 187.199219 119.933594 185.246094 120.070312 177.210938 120.023438 L 167.269531 120.023438 L 167.132812 109.71875 L 167.042969 99.410156 L 176.667969 99.320312 C 181.976562 99.230469 186.5625 99.183594 186.789062 99.230469 C 187.0625 99.230469 187.335938 103.015625 187.46875 109.035156 Z M 49.839844 109.71875 L 49.703125 120.023438 L 39.71875 120.023438 L 29.730469 119.976562 L 29.597656 109.71875 L 29.503906 99.410156 L 49.929688 99.410156 Z M 95.777344 99.867188 C 95.960938 103.152344 95.777344 119.613281 95.640625 119.796875 C 95.503906 119.886719 90.828125 120.023438 85.246094 120.023438 L 75.125 120.070312 L 75.078125 114.871094 C 75.035156 112 74.988281 107.710938 74.941406 105.339844 C 74.898438 102.96875 74.851562 100.644531 74.851562 100.1875 C 74.898438 99.457031 75.714844 99.410156 85.335938 99.410156 C 91.964844 99.410156 95.777344 99.59375 95.777344 99.867188 Z M 118.882812 100.234375 C 119.15625 100.78125 119.15625 101.28125 118.882812 101.738281 C 118.609375 102.101562 118.472656 106.023438 118.566406 110.902344 C 118.609375 115.601562 118.519531 119.566406 118.335938 119.75 C 117.882812 120.207031 99.363281 120.070312 98.863281 119.566406 C 98.546875 119.25 98.273438 105.113281 98.5 99.960938 C 98.5 99.550781 100.816406 99.410156 108.488281 99.410156 C 117.613281 99.410156 118.472656 99.457031 118.882812 100.234375 Z M 189.738281 109.945312 C 189.738281 116.832031 189.605469 120.34375 189.285156 120.160156 C 189.015625 119.976562 188.832031 116.058594 188.832031 109.945312 C 188.832031 101.191406 188.96875 99.410156 189.605469 99.410156 C 189.695312 99.410156 189.738281 104.15625 189.738281 109.945312 Z M 55.425781 125.496094 C 54.878906 127.046875 54.242188 128.960938 54.015625 129.738281 C 53.019531 133.113281 52.066406 135.4375 51.65625 135.4375 C 51.113281 135.4375 51.566406 123.582031 52.109375 123.035156 C 52.746094 122.394531 55.515625 121.847656 56.015625 122.257812 C 56.195312 122.441406 55.96875 123.898438 55.425781 125.496094 Z M 67.769531 122.578125 C 70.449219 122.667969 72.628906 122.851562 72.628906 123.035156 C 72.765625 125.039062 72.855469 143.554688 72.71875 143.917969 C 72.628906 144.285156 70.8125 144.375 66.589844 144.191406 C 63.230469 144.101562 59.191406 144.191406 57.421875 144.464844 C 55.515625 144.785156 54.109375 144.832031 53.835938 144.558594 C 53.335938 144.054688 53.835938 142.277344 56.058594 136.121094 C 56.96875 133.613281 57.875 130.921875 58.058594 130.191406 C 58.238281 129.417969 58.648438 128.371094 58.917969 127.820312 C 59.238281 127.273438 59.464844 126.363281 59.464844 125.816406 C 59.464844 125.269531 59.917969 124.128906 60.417969 123.261719 C 61.144531 122.074219 61.597656 121.800781 62.140625 122.074219 C 62.550781 122.257812 65.046875 122.488281 67.769531 122.578125 Z M 126.191406 123.582031 C 126.191406 124.3125 125.917969 125.449219 125.554688 126.179688 C 124.691406 127.957031 123.921875 130.332031 123.46875 132.382812 C 123.285156 133.339844 122.878906 134.386719 122.605469 134.664062 C 122.332031 134.9375 122.105469 135.621094 122.105469 136.210938 C 122.105469 136.804688 121.742188 137.625 121.289062 138.082031 C 120.789062 138.585938 120.199219 139.953125 119.882812 141.183594 C 119.5625 142.414062 119.15625 143.601562 118.929688 143.875 C 118.699219 144.148438 114.980469 144.285156 108.941406 144.238281 C 99.726562 144.148438 99.273438 144.101562 98.230469 143.144531 C 97.277344 142.230469 97.230469 142.09375 97.867188 141.136719 C 98.410156 140.269531 98.546875 138.492188 98.457031 131.878906 C 98.410156 127.367188 98.5 123.488281 98.636719 123.261719 C 98.773438 123.078125 103.3125 122.898438 108.714844 122.941406 C 119.472656 122.988281 119.699219 123.035156 118.835938 125.542969 C 118.246094 127.183594 118.699219 135.253906 119.472656 137.125 C 119.972656 138.355469 120.015625 138.308594 120.335938 135.664062 C 120.5625 134.160156 120.742188 130.832031 120.789062 128.277344 C 120.878906 123.078125 121.0625 122.714844 123.832031 122.214844 C 125.964844 121.847656 126.191406 121.984375 126.191406 123.582031 Z M 18.019531 122.898438 C 25.738281 122.898438 26.734375 122.988281 27.191406 123.671875 C 27.507812 124.21875 27.554688 124.859375 27.234375 125.632812 C 26.644531 127.230469 26.644531 139.132812 27.234375 140.726562 C 28.144531 143.054688 27.554688 143.191406 17.75 143.191406 C 12.847656 143.191406 8.535156 143.371094 8.171875 143.644531 C 6.582031 144.648438 6.355469 143.417969 6.355469 133.386719 C 6.355469 128.003906 6.492188 123.351562 6.628906 122.941406 C 6.855469 122.394531 7.21875 122.304688 8.125 122.578125 C 8.761719 122.761719 13.210938 122.898438 18.019531 122.898438 Z M 141.441406 122.898438 C 142.03125 123.078125 142.078125 142.414062 141.488281 143.007812 C 141.304688 143.191406 138.308594 143.328125 134.859375 143.234375 C 128.414062 143.097656 124.828125 143.691406 124.828125 144.785156 C 124.828125 145.789062 127.144531 146.109375 134.589844 146.109375 L 141.851562 146.152344 L 141.851562 156.09375 C 141.894531 161.703125 141.714844 166.171875 141.488281 166.308594 C 140.761719 166.765625 122.015625 166.539062 121.605469 166.128906 C 120.878906 165.398438 120.835938 149.621094 121.5625 149.347656 C 121.832031 149.253906 122.105469 148.753906 122.105469 148.296875 C 122.105469 147.796875 122.515625 146.882812 123.011719 146.246094 C 123.511719 145.605469 123.921875 144.421875 123.921875 143.507812 C 123.921875 142.597656 124.148438 141.730469 124.375 141.59375 C 124.648438 141.457031 124.828125 140.863281 124.828125 140.316406 C 124.828125 139.769531 125.148438 138.722656 125.511719 137.992188 C 125.871094 137.308594 126.191406 136.394531 126.191406 136.03125 C 126.191406 135.664062 126.464844 134.707031 126.78125 133.933594 C 127.78125 131.652344 128.503906 129.417969 128.960938 127.457031 C 129.230469 126.5 129.59375 125.449219 129.777344 125.175781 C 130.003906 124.949219 130.277344 124.175781 130.457031 123.488281 L 130.730469 122.257812 L 135.859375 122.53125 C 138.628906 122.625 141.171875 122.804688 141.441406 122.898438 Z M 156.964844 123.035156 C 161.414062 122.898438 164.457031 122.988281 164.59375 123.214844 C 165.046875 123.945312 164.863281 142.367188 164.457031 142.78125 C 164.046875 143.191406 144.394531 143.601562 144.300781 143.191406 C 144.074219 141.730469 144.167969 123.625 144.4375 123.078125 C 144.710938 122.441406 145.121094 122.394531 147.160156 122.761719 C 148.476562 123.035156 152.882812 123.125 156.964844 123.035156 Z M 187.242188 122.667969 C 187.605469 123.214844 187.605469 142.734375 187.289062 143.054688 C 186.878906 143.464844 167.816406 143.234375 167.40625 142.824219 C 167.179688 142.597656 167.089844 138.035156 167.132812 132.65625 L 167.269531 122.898438 L 174.988281 123.035156 C 179.253906 123.078125 183.519531 122.941406 184.519531 122.714844 C 185.519531 122.488281 186.472656 122.304688 186.652344 122.257812 C 186.835938 122.257812 187.105469 122.441406 187.242188 122.667969 Z M 50.023438 130.011719 C 50.429688 138.902344 50.113281 142.503906 48.933594 143.644531 C 48.117188 144.421875 47.890625 144.421875 46.4375 143.78125 C 45.164062 143.28125 43.121094 143.144531 37.265625 143.234375 L 29.730469 143.371094 L 29.597656 133.613281 C 29.550781 128.230469 29.550781 123.625 29.6875 123.351562 C 29.777344 123.078125 33.363281 122.898438 39.765625 122.941406 L 49.703125 122.988281 Z M 95.597656 123.261719 C 95.777344 123.398438 95.867188 127.410156 95.824219 132.199219 C 95.777344 137.808594 95.914062 140.910156 96.1875 141.136719 C 96.867188 141.546875 96.777344 142.324219 96.003906 143.371094 C 95.414062 144.148438 94.597656 144.191406 85.566406 144.191406 C 79.164062 144.238281 75.578125 144.054688 75.261719 143.738281 C 74.804688 143.28125 74.671875 123.855469 75.125 123.171875 C 75.304688 122.804688 95.234375 122.898438 95.597656 123.261719 Z M 189.738281 133.203125 C 189.738281 139.769531 189.605469 143.144531 189.285156 142.960938 C 189.015625 142.78125 188.832031 138.949219 188.832031 132.882812 C 188.832031 126.683594 189.015625 123.125 189.285156 123.125 C 189.558594 123.125 189.738281 126.773438 189.738281 133.203125 Z M 48.160156 145.5625 C 48.253906 146.335938 48.253906 146.425781 47.890625 147.886719 C 47.617188 148.9375 47.707031 149.117188 48.480469 149.117188 C 48.976562 149.117188 49.523438 149.390625 49.75 149.664062 C 49.976562 149.984375 50.066406 153.90625 49.929688 158.421875 L 49.703125 166.539062 L 29.730469 166.539062 L 29.597656 156.640625 C 29.550781 150.394531 29.640625 146.519531 29.957031 146.152344 C 30.277344 145.742188 31.09375 145.699219 33 146.015625 C 35.90625 146.519531 44.757812 146.152344 46.390625 145.46875 C 47.84375 144.921875 48.117188 144.921875 48.160156 145.5625 Z M 18.113281 146.152344 L 26.917969 146.152344 L 26.917969 156.050781 C 26.917969 161.523438 26.828125 166.082031 26.691406 166.265625 C 26.507812 166.402344 21.96875 166.539062 16.476562 166.582031 L 6.582031 166.582031 L 6.445312 157.054688 C 6.398438 151.808594 6.445312 147.019531 6.582031 146.472656 C 6.808594 145.515625 7.035156 145.425781 8.078125 145.742188 C 8.761719 145.972656 13.253906 146.152344 18.113281 146.152344 Z M 155.105469 146.109375 C 160.144531 146.152344 164.367188 146.289062 164.546875 146.472656 C 164.910156 146.839844 165 165.898438 164.636719 166.265625 C 164.5 166.402344 159.871094 166.539062 154.289062 166.539062 L 144.167969 166.582031 L 144.121094 156.597656 C 144.121094 151.125 144.167969 146.335938 144.300781 146.015625 C 144.394531 145.652344 144.757812 145.5625 145.210938 145.742188 C 145.617188 145.925781 150.066406 146.109375 155.105469 146.109375 Z M 179.074219 146.199219 C 182.339844 146.015625 185.472656 145.835938 186.109375 145.789062 L 187.242188 145.699219 L 187.46875 155.503906 C 187.605469 160.882812 187.5625 165.582031 187.425781 165.945312 C 187.199219 166.445312 185.246094 166.582031 177.210938 166.539062 L 167.269531 166.539062 L 167.132812 156.640625 C 167.089844 150.394531 167.179688 146.519531 167.496094 146.152344 C 167.816406 145.742188 168.585938 145.699219 170.539062 146.015625 C 171.992188 146.289062 175.851562 146.335938 179.074219 146.199219 Z M 189.738281 156.277344 C 189.738281 163.894531 189.605469 166.492188 189.242188 166.128906 C 188.878906 165.761719 188.742188 162.570312 188.785156 156.140625 C 188.878906 147.429688 188.96875 145.925781 189.558594 145.925781 C 189.648438 145.925781 189.738281 150.578125 189.738281 156.277344 Z M 72.765625 157.644531 C 72.71875 162.34375 72.671875 166.308594 72.671875 166.445312 C 72.628906 166.765625 52.609375 166.582031 52.335938 166.265625 C 52.203125 166.128906 52.019531 162.753906 51.972656 158.832031 C 51.972656 154.863281 51.746094 151.171875 51.566406 150.621094 C 51.246094 149.800781 51.382812 149.527344 52.109375 149.253906 C 52.65625 149.027344 57.511719 148.9375 62.960938 148.980469 L 72.855469 149.027344 Z M 96.457031 149.664062 C 96.640625 149.847656 96.550781 150.667969 96.230469 151.582031 C 95.914062 152.539062 95.777344 155.683594 95.824219 159.605469 C 95.867188 163.117188 95.777344 166.128906 95.640625 166.265625 C 95.1875 166.71875 75.761719 166.582031 75.304688 166.128906 C 75.078125 165.898438 74.851562 162.023438 74.804688 157.554688 C 74.804688 150.484375 74.898438 149.347656 75.488281 149.164062 C 76.484375 148.800781 96.09375 149.253906 96.457031 149.664062 Z M 118.429688 149.390625 C 119.335938 149.574219 119.425781 149.800781 119.15625 150.851562 C 118.519531 153.269531 118.382812 163.710938 118.972656 164.441406 C 119.425781 164.988281 119.382812 165.261719 118.835938 165.855469 C 118.203125 166.445312 116.660156 166.582031 108.488281 166.582031 C 103.222656 166.582031 98.773438 166.445312 98.636719 166.265625 C 98.457031 166.128906 98.363281 163.027344 98.457031 159.425781 C 98.546875 154.226562 98.410156 152.582031 97.867188 151.488281 C 97.140625 150.074219 97.367188 149.527344 98.820312 149.074219 C 99.636719 148.800781 117.15625 149.074219 118.429688 149.390625 Z M 27.507812 169.320312 C 27.644531 169.410156 27.507812 170.503906 27.191406 171.644531 C 26.828125 173.105469 26.734375 176.386719 26.871094 181.496094 C 27.007812 186.558594 26.917969 189.382812 26.644531 189.65625 C 26.328125 189.976562 22.558594 190.160156 16.25 190.160156 L 6.355469 190.160156 L 6.355469 179.761719 C 6.355469 174.015625 6.445312 169.226562 6.535156 169.136719 C 6.808594 168.863281 27.234375 169.046875 27.507812 169.320312 Z M 49.839844 179.625 L 49.929688 190.160156 L 29.503906 190.160156 L 29.503906 179.761719 C 29.503906 174.015625 29.597656 169.226562 29.6875 169.136719 C 29.777344 169.046875 34.363281 169 39.808594 169 L 49.703125 169.046875 Z M 72.765625 179.488281 L 72.808594 189.933594 L 62.867188 190.070312 C 57.105469 190.113281 52.746094 189.976562 52.519531 189.75 C 52.019531 189.246094 51.839844 169.226562 52.335938 169.046875 C 52.519531 169 57.195312 168.953125 62.6875 169 L 72.71875 169.046875 Z M 95.550781 169.183594 C 96.050781 169.183594 96.050781 188.289062 95.597656 189.519531 C 95.371094 190.070312 93.734375 190.160156 85.246094 190.070312 L 75.125 189.933594 L 74.898438 179.761719 C 74.761719 174.152344 74.804688 169.457031 74.988281 169.273438 C 75.214844 169.046875 90.285156 168.953125 95.550781 169.183594 Z M 118.835938 169.367188 C 119.15625 169.546875 119.15625 170.140625 118.882812 171.144531 C 118.609375 171.917969 118.472656 176.296875 118.566406 180.8125 C 118.65625 185.324219 118.519531 189.292969 118.335938 189.566406 C 117.746094 190.480469 99 190.386719 98.683594 189.519531 C 98.320312 188.519531 98.230469 169.183594 98.59375 169.046875 C 99.363281 168.816406 118.429688 169.089844 118.835938 169.367188 Z M 141.851562 179.488281 L 141.851562 189.933594 L 131.546875 190.070312 C 123.421875 190.160156 121.199219 190.070312 121.199219 189.613281 C 120.925781 174.199219 121.015625 169.183594 121.605469 169.089844 C 121.96875 169 126.691406 168.953125 132.046875 169 L 141.851562 169.046875 Z M 164.773438 169.183594 C 165.183594 169.183594 164.910156 189.292969 164.5 189.703125 C 163.910156 190.296875 144.394531 190.523438 144.210938 189.933594 C 144.121094 189.566406 144.210938 168.953125 144.300781 168.953125 C 145.484375 168.953125 164.636719 169.136719 164.773438 169.183594 Z M 187.289062 169.273438 C 187.46875 169.503906 187.605469 183.457031 187.46875 189.476562 C 187.46875 190.070312 186.152344 190.160156 177.394531 190.070312 L 167.269531 189.933594 L 167.132812 179.898438 C 167.089844 174.382812 167.089844 169.683594 167.226562 169.410156 C 167.40625 168.953125 186.789062 168.816406 187.289062 169.273438 Z M 189.738281 179.441406 C 189.738281 185.738281 189.558594 189.703125 189.285156 189.703125 C 188.878906 189.703125 188.378906 169.777344 188.785156 169.367188 C 189.558594 168.589844 189.738281 170.414062 189.738281 179.441406 Z M 165.226562 192.257812 C 167.226562 192.988281 163.59375 193.351562 154.46875 193.351562 C 145.027344 193.351562 143.394531 193.167969 144.03125 192.074219 C 144.300781 191.710938 164.140625 191.847656 165.226562 192.257812 Z M 50.066406 192.667969 C 49.929688 193.125 7.671875 193.578125 6.445312 193.125 C 6.128906 192.988281 5.992188 192.714844 6.128906 192.441406 C 6.492188 191.800781 50.203125 192.03125 50.066406 192.667969 Z M 72.992188 192.53125 C 72.808594 192.988281 70.359375 193.167969 63.050781 193.261719 C 53.246094 193.398438 51.292969 193.261719 51.292969 192.441406 C 51.292969 192.167969 55.378906 191.984375 62.234375 191.984375 C 70.765625 191.984375 73.128906 192.121094 72.992188 192.53125 Z M 119.609375 192.441406 C 120.109375 193.261719 116.703125 193.351562 95.824219 193.261719 C 79.617188 193.167969 74.714844 192.988281 74.578125 192.578125 C 74.398438 192.121094 79.253906 191.984375 96.867188 191.984375 C 110.210938 191.984375 119.425781 192.167969 119.609375 192.441406 Z M 142.304688 192.667969 C 142.304688 193.167969 123.148438 193.578125 121.289062 193.125 C 120.699219 192.988281 120.378906 192.667969 120.515625 192.441406 C 120.925781 191.800781 142.304688 192.03125 142.304688 192.667969 Z M 189.738281 192.441406 C 189.738281 193.078125 186.289062 193.351562 176.710938 193.351562 C 167.953125 193.351562 166.046875 193.125 166.90625 192.257812 C 167.363281 191.847656 189.738281 191.984375 189.738281 192.441406 Z M 189.738281 192.441406 "/>
<path style="fill-rule:nonzero;fill:rgb(60%,60%,60%);fill-opacity:1;stroke-width:0.808978;stroke-linecap:butt;stroke-linejoin:miter;stroke:rgb(0%,0%,0%);stroke-opacity:1;stroke-miterlimit:4;" d="M 206.790829 265.106678 C 205.725895 262.515466 206.016332 218.090102 207.092023 217.008645 C 208.404366 215.691624 326.612045 215.423937 327.924388 216.740958 C 328.580559 217.404822 328.483747 218.935993 327.558653 222.523001 C 326.601288 226.227792 326.289337 231.677903 326.289337 245.212167 C 326.289337 255.009518 326.074199 263.60763 325.805276 264.314324 C 325.364243 265.43861 322.223226 265.588515 298.78392 265.588515 C 275.344614 265.588515 272.203596 265.43861 271.77332 264.314324 C 271.504397 263.60763 271.278502 255.29862 271.278502 245.843909 C 271.278502 223.197573 269.761778 215.798699 265.910804 219.653395 C 264.071372 221.484375 263.21082 234.07638 263.770179 250.82289 L 264.25424 265.588515 L 245.644786 265.588515 C 235.414965 265.588515 222.625 265.82408 217.225031 266.12389 C 208.070901 266.616434 207.371702 266.541482 206.790829 265.106678 Z M 206.790829 265.106678 " transform="matrix(0.363139,0,0,0.364815,0,0)"/>
<path style="fill-rule:nonzero;fill:rgb(60%,60%,60%);fill-opacity:1;stroke-width:0.808978;stroke-linecap:butt;stroke-linejoin:miter;stroke:rgb(0%,0%,0%);stroke-opacity:1;stroke-miterlimit:4;" d="M 340.778894 265.802665 L 334.625942 265.52427 L 334.055826 245.137214 C 333.743876 233.915768 333.119975 223.133328 332.689698 221.173858 C 332.130339 218.679013 332.151853 217.340577 332.775754 216.719543 C 333.356627 216.130631 342.747409 215.745162 361.12021 215.552427 C 392.132381 215.220495 390.443546 214.835025 386.850738 221.516497 C 385.893373 223.283233 382.246781 233.541006 378.750785 244.312738 C 375.244033 255.073763 371.812579 264.442814 371.124136 265.138801 C 370.080716 266.177427 367.854036 266.370162 358.387955 266.241672 C 352.084406 266.145305 344.156564 265.95257 340.778894 265.802665 Z M 340.778894 265.802665 " transform="matrix(0.363139,0,0,0.364815,0,0)"/>
<path style="fill-rule:nonzero;fill:rgb(60%,60%,60%);fill-opacity:1;stroke-width:0.808978;stroke-linecap:butt;stroke-linejoin:miter;stroke:rgb(0%,0%,0%);stroke-opacity:1;stroke-miterlimit:4;" d="M 279.238615 328.120241 C 274.505575 327.884676 272.935066 327.509914 272.547817 326.524826 C 272.278894 325.807424 271.827104 313.825746 271.536668 299.884597 C 271.04185 275.439404 271.074121 274.51856 272.569331 273.908233 C 274.90358 272.955266 325.267431 273.115879 326.117227 274.09026 C 326.999293 275.086056 326.117227 326.706853 325.202889 327.627697 C 324.525204 328.302268 290.511856 328.666323 279.238615 328.120241 Z M 279.238615 328.120241 " transform="matrix(0.363139,0,0,0.364815,0,0)"/>
<path style="fill-rule:nonzero;fill:rgb(60%,60%,60%);fill-opacity:1;stroke-width:0.808978;stroke-linecap:butt;stroke-linejoin:miter;stroke:rgb(0%,0%,0%);stroke-opacity:1;stroke-miterlimit:4;" d="M 206.96294 301.554965 C 206.629476 286.628728 206.618719 274.165213 206.930669 273.843988 C 207.715923 273.062341 248.247959 272.601919 256.520022 273.276491 L 263.189306 273.822573 L 263.189306 327.649112 L 258.219614 328.173779 C 255.487359 328.462881 242.966316 328.687738 230.402246 328.687738 L 207.55457 328.687738 Z M 206.96294 301.554965 " transform="matrix(0.363139,0,0,0.364815,0,0)"/>
<path style="fill-rule:nonzero;fill:rgb(60%,60%,60%);fill-opacity:1;stroke-width:0.808978;stroke-linecap:butt;stroke-linejoin:miter;stroke:rgb(0%,0%,0%);stroke-opacity:1;stroke-miterlimit:4;" d="M 212.631831 394.34605 L 207.780465 393.810676 L 207.253376 389.367069 C 206.575691 383.670685 206.425094 341.815117 207.070509 339.405933 L 207.565327 337.58566 L 232.338489 337.596367 C 245.967494 337.607075 258.434752 337.821225 260.037531 338.088912 L 262.952654 338.570749 L 263.393687 362.42703 C 263.684124 378.241989 264.125157 386.583122 264.727544 387.172034 C 266.158213 388.617544 265.770964 390.566307 263.630339 392.568607 C 261.672582 394.410295 261.371388 394.43171 239.567133 394.64586 C 227.422582 394.77435 215.299545 394.635152 212.631831 394.34605 Z M 212.631831 394.34605 " transform="matrix(0.363139,0,0,0.364815,0,0)"/>
<path style="fill-rule:nonzero;fill:rgb(60%,60%,60%);fill-opacity:1;stroke-width:0.808978;stroke-linecap:butt;stroke-linejoin:miter;stroke:rgb(0%,0%,0%);stroke-opacity:1;stroke-miterlimit:4;" d="M 277.463725 394.206853 C 274.021514 393.767846 272.171325 393.050444 270.708386 391.583518 C 268.890468 389.763246 268.793656 389.377776 269.783291 387.643163 C 270.600817 386.20836 270.977308 379.923065 271.278502 362.534105 C 271.504397 349.781488 271.988458 339.041878 272.36495 338.667116 C 272.730685 338.303062 284.821451 337.992544 299.23571 337.992544 C 329.043106 337.992544 328.591316 337.906885 326.988536 343.67822 C 326.407663 345.734058 326.257067 350.959312 326.547503 358.218988 C 327.020807 369.654584 328.376178 377.267608 330.021985 377.802982 C 331.226759 378.199159 331.829146 373.348668 332.818781 355.392211 C 333.733119 338.709946 334.163395 337.37151 339.025518 336.011659 C 347.544991 333.656012 348.674466 335.604775 344.931062 346.205187 C 343.54342 350.145543 341.359768 356.644987 340.079695 360.649588 C 336.30402 372.459946 334.604428 376.957091 333.03392 379.30203 C 332.216394 380.511977 330.635129 384.270305 329.527167 387.653871 C 327.709249 393.189641 327.268216 393.853506 325.073807 394.313928 C 321.706894 395.042037 283.261699 394.945669 277.463725 394.206853 Z M 277.463725 394.206853 " transform="matrix(0.363139,0,0,0.364815,0,0)"/>
<path style="fill-rule:nonzero;fill:rgb(60%,60%,60%);fill-opacity:1;stroke-width:0.808978;stroke-linecap:butt;stroke-linejoin:miter;stroke:rgb(0%,0%,0%);stroke-opacity:1;stroke-miterlimit:4;" d="M 149.209092 395.930758 C 147.606313 394.881424 148.133401 392.868417 156.330166 368.808693 C 160.288709 357.201777 164.107412 345.701935 164.828125 343.249921 C 165.538081 340.808614 166.82891 337.971129 167.70022 336.943211 L 169.259972 335.090815 L 183.857098 336.193687 C 191.892509 336.804013 198.733904 337.58566 199.067368 337.917592 C 199.411589 338.260232 199.691269 351.152046 199.691269 366.581536 L 199.691269 394.624445 L 177.037217 395.106282 C 164.580716 395.363261 153.468829 395.823683 152.360867 396.123493 C 151.252905 396.423303 149.832993 396.326935 149.209092 395.930758 Z M 149.209092 395.930758 " transform="matrix(0.363139,0,0,0.364815,0,0)"/>
<path style="fill-rule:nonzero;fill:rgb(60%,60%,60%);fill-opacity:1;stroke-width:0.808978;stroke-linecap:butt;stroke-linejoin:miter;stroke:rgb(0%,0%,0%);stroke-opacity:1;stroke-miterlimit:4;" d="M 170.572315 326.171478 C 171.196215 323.773001 172.594614 319.447176 173.681062 316.556155 C 176.800565 308.247145 180.597754 296.800841 183.986181 285.493734 C 185.707286 279.754521 187.718829 274.39007 188.471812 273.565593 C 189.515232 272.398477 190.988929 272.066545 194.968986 272.066545 L 200.110788 272.066545 L 199.89565 300.548461 L 199.691269 329.030378 L 189.97778 329.116037 C 184.642352 329.158867 177.833229 329.501507 174.853565 329.865562 L 169.442839 330.518718 Z M 170.572315 326.171478 " transform="matrix(0.363139,0,0,0.364815,0,0)"/>
<path style="fill-rule:nonzero;fill:rgb(60%,60%,60%);fill-opacity:1;stroke-width:0.808978;stroke-linecap:butt;stroke-linejoin:miter;stroke:rgb(0%,0%,0%);stroke-opacity:1;stroke-miterlimit:4;" d="M 191.19331 266.412992 C 190.139133 265.73842 190.28973 264.785454 192.290515 259.34605 C 193.570587 255.887532 195.582129 249.698604 196.776146 245.597636 C 197.970163 241.507376 199.153423 237.941783 199.411589 237.684803 C 200.358197 236.742544 201.003612 249.088277 200.455009 257.525777 L 199.89565 266.220257 L 196.959014 266.702094 C 193.086526 267.344543 192.623979 267.323128 191.19331 266.412992 Z M 191.19331 266.412992 " transform="matrix(0.363139,0,0,0.364815,0,0)"/>
<path style="fill-rule:nonzero;fill:rgb(60%,60%,60%);fill-opacity:1;stroke-width:0.808978;stroke-linecap:butt;stroke-linejoin:miter;stroke:rgb(0%,0%,0%);stroke-opacity:1;stroke-miterlimit:4;" d="M 341.660961 330.015466 C 338.767352 329.490799 335.949042 328.773398 335.389683 328.420051 C 334.615185 327.938214 334.378533 321.513721 334.378533 300.837563 L 334.378533 273.886818 L 336.831109 273.394273 C 338.186479 273.126586 345.823885 272.655457 353.805512 272.355647 C 369.865578 271.756028 370.510992 271.948763 368.112202 276.638642 C 367.466787 277.902126 365.799466 282.39927 364.401068 286.628728 C 363.013427 290.847478 361.496702 295.39816 361.034155 296.736596 C 360.571608 298.075032 357.774812 306.351919 354.816661 315.142766 C 350.825848 327.028077 349.126256 331.096923 348.190405 331.043385 C 347.491206 331.000555 344.55457 330.540133 341.660961 330.015466 Z M 341.660961 330.015466 " transform="matrix(0.363139,0,0,0.364815,0,0)"/>
</g>
</svg>
