<?xml version="1.0" encoding="UTF-8" standalone="no"?>
<svg
   xmlns:dc="http://purl.org/dc/elements/1.1/"
   xmlns:cc="http://creativecommons.org/ns#"
   xmlns:rdf="http://www.w3.org/1999/02/22-rdf-syntax-ns#"
   xmlns:svg="http://www.w3.org/2000/svg"
   xmlns="http://www.w3.org/2000/svg"
   xmlns:sodipodi="http://sodipodi.sourceforge.net/DTD/sodipodi-0.dtd"
   xmlns:inkscape="http://www.inkscape.org/namespaces/inkscape"
   version="1.0"
   width="500.00101"
   height="182.12161"
   viewBox="0 0 400.00081 145.69729"
   preserveAspectRatio="xMidYMid meet"
   id="svg3427"
   inkscape:version="0.48.4 r9939"
   sodipodi:docname="febab8d1dfe5165ca33535172f88ba4c958b37d6.svg">
  <defs
     id="defs3539" />
  <sodipodi:namedview
     pagecolor="#ffffff"
     bordercolor="#666666"
     borderopacity="1"
     objecttolerance="10"
     gridtolerance="10"
     guidetolerance="10"
     inkscape:pageopacity="0"
     inkscape:pageshadow="2"
     inkscape:window-width="1600"
     inkscape:window-height="824"
     id="namedview3537"
     showgrid="false"
     inkscape:zoom="0.816"
     inkscape:cx="204.01565"
     inkscape:cy="105.5265"
     inkscape:window-x="0"
     inkscape:window-y="24"
     inkscape:window-maximized="1"
     inkscape:current-layer="g3431"
     fit-margin-top="0"
     fit-margin-left="0"
     fit-margin-right="0"
     fit-margin-bottom="0" />
  <metadata
     id="metadata3429">
Created by potrace 1.10, written by Peter Selinger 2001-2011
<rdf:RDF>
  <cc:Work
     rdf:about="">
    <dc:format>image/svg+xml</dc:format>
    <dc:type
       rdf:resource="http://purl.org/dc/dcmitype/StillImage" />
  </cc:Work>
</rdf:RDF>
</metadata>
  <g
     transform="matrix(0.1,0,0,-0.1,-122,150.62309)"
     id="g3431"
     style="fill:#000000;stroke:none">
    <path
       d="m 3408.5438,1502.5632 c -2.0958,-1.5718 -3.6677,-75.9729 -3.6677,-164.5207 0,-156.1373 0.5239,-161.9008 10.4791,-167.1404 6.8113,-3.6676 74.401,-5.2395 200.1493,-5.2395 l 190.1942,0.524 1.5718,-259.87975 c 1.0479,-229.49059 2.0958,-259.87975 9.4312,-263.02346 4.1916,-1.57186 10.479,-0.52395 13.0988,2.0958 3.1436,3.14371 5.2394,99.55071 4.7155,263.02346 0,243.11335 0,257.25995 8.9072,257.25995 5.2395,0 112.1255,0 237.8738,0 207.4846,0 229.4906,0.524 235.778,8.3833 9.9551,12.0509 13.6227,313.3227 4.1916,324.8497 -5.2395,6.2874 -76.4969,7.3353 -457.9333,7.3353 -248.3528,0 -453.2177,-1.5719 -454.7895,-3.6677 z m 891.2407,-160.853 c 0.524,-74.925 -0.5239,-137.7991 -3.1436,-140.4189 -4.7155,-4.7156 -844.6092,-5.7635 -857.184,-1.0479 -7.3354,2.6198 -8.3833,19.3862 -8.3833,137.7991 0,74.4011 1.5719,136.7513 3.6677,138.3232 1.5719,2.0958 197.0056,3.1437 433.3076,2.6197 l 430.1638,-1.5718 1.5718,-135.7034 z"
       id="path3433"
       inkscape:connector-curvature="0" />
    <path
       d="m 3580.3997,1444.9286 c -11.5269,-1.0479 -23.0538,-4.1916 -25.1496,-6.8114 -5.7635,-5.2395 -7.3354,-152.4698 -1.5719,-161.377 2.6198,-4.1915 17.8143,-6.2873 44.012,-6.2873 36.1525,0 41.392,1.5719 54.4909,14.1466 12.0508,11.527 14.6705,18.3384 14.6705,38.2485 0,13.0987 -2.6197,26.7215 -6.2874,30.3892 -4.7155,4.7155 -3.6677,11.0029 3.6677,27.2454 7.3353,16.7664 8.3832,23.5778 3.6676,34.0568 -11.5269,25.1497 -41.392,35.6287 -87.4998,30.3892 z m 53.967,-47.1557 c 1.5718,-14.1466 -0.524,-18.3382 -11.5269,-23.0538 -16.2425,-7.3353 -28.2934,-3.1437 -34.0568,12.0509 -7.3354,19.9101 2.0958,31.4371 24.6256,29.3413 17.8143,-1.5719 19.3862,-3.1437 20.9581,-18.3384 z m 0,-70.7333 c 1.5718,-20.4342 -0.524,-25.6736 -8.9071,-30.3892 -18.3384,-9.4311 -36.6766,-1.0479 -40.3443,18.3383 -4.7156,26.7215 5.2395,40.3443 28.2933,38.2485 18.8623,-1.5719 19.3862,-2.0959 20.9581,-26.1976 z"
       id="path3435"
       inkscape:connector-curvature="0" />
    <path
       d="m 3895.2943,1440.213 c -9.955,-9.4311 -9.955,-10.479 -3.1437,-23.5777 6.2874,-11.0031 26.1976,-13.0989 35.6287,-3.6677 9.4311,9.431 7.3353,24.1017 -3.6677,30.3892 -14.1466,7.3352 -19.3861,6.8113 -28.8173,-3.1438 z"
       id="path3437"
       inkscape:connector-curvature="0" />
    <path
       d="m 3832.4202,1405.1083 c -13.6227,-18.3383 -17.8143,-35.1048 -8.3832,-35.1048 3.1437,0 5.2395,-15.1945 5.2395,-35.6287 0,-30.389 1.5719,-37.2004 13.0988,-49.7753 13.6227,-14.1466 30.9131,-18.3382 36.6766,-9.431 1.5718,3.1436 8.9072,3.1436 18.3382,-0.524 29.3413,-9.9551 31.961,-5.2395 30.3892,54.4909 l -1.5719,53.967 -15.7185,0 -15.7185,0 -2.6198,-47.1557 c -2.6198,-48.7274 -6.2873,-53.9669 -24.6257,-38.2484 -8.3831,6.8114 -8.9071,62.8742 -1.0479,70.7334 7.3353,7.3353 -4.7156,53.9669 -14.1466,53.9669 -3.6677,0 -12.5749,-7.8592 -19.9102,-17.2903 z"
       id="path3439"
       inkscape:connector-curvature="0" />
    <path
       d="m 4101.7311,1380.4826 c -9.9551,-8.3832 -15.7185,-16.7665 -13.6227,-19.9101 5.2395,-8.3833 16.2424,-7.8593 24.1017,1.5719 3.6677,4.1915 12.5748,6.8112 21.482,5.7633 17.8144,-1.5718 27.2454,-8.3831 12.0509,-8.3831 -5.7635,0 -15.7186,-7.3354 -23.0538,-16.2426 -7.3354,-8.9072 -18.3384,-18.3382 -24.6258,-20.958 -16.7664,-6.2874 -15.1946,-18.8622 4.1916,-36.6766 14.1467,-13.6226 19.9102,-15.1945 49.2515,-15.1945 19.9101,0 34.5807,2.6198 37.7244,6.8113 3.1437,3.1437 5.2395,24.6258 5.2395,46.6317 0,36.6766 -1.5718,41.916 -13.6227,53.443 -8.9072,7.8593 -22.006,13.0988 -37.7245,14.6707 -20.434,2.0957 -26.7215,0.5238 -41.3921,-11.527 z m 57.6346,-65.4939 c 0,-19.9101 -15.7185,-29.3413 -28.8173,-18.3383 -11.5269,9.4311 -9.4311,16.2425 6.2874,29.3413 17.8143,14.1466 22.5299,12.0508 22.5299,-11.003 z"
       id="path3441"
       inkscape:connector-curvature="0" />
    <path
       d="m 3714.0073,1378.9107 c -16.7665,-12.0509 -17.8144,-14.1467 -18.8623,-46.1076 -1.5719,-31.4371 -0.524,-34.0569 15.1946,-47.6796 22.5299,-19.3862 58.6826,-20.4341 75.9729,-2.0958 16.7664,17.8144 15.1946,26.1975 -4.1916,22.0059 -8.3833,-1.5718 -22.5299,-4.7155 -31.4371,-6.2874 -14.1466,-3.1437 -15.7185,-2.0958 -15.7185,10.479 0,13.0988 1.0479,13.6228 31.4371,13.6228 l 31.4371,0 0,23.0538 c 0,18.8622 -2.6198,25.1496 -13.6228,34.0568 -18.8622,14.6706 -47.6795,14.1467 -70.2094,-1.0479 z m 47.1556,-19.3861 c 7.3353,-13.6228 2.6197,-20.9581 -13.0989,-20.9581 -6.8112,0 -14.1466,2.0958 -15.7184,5.2395 -4.7156,7.3353 6.8113,26.1975 15.7184,26.1975 4.1917,0 9.9551,-4.7155 13.0989,-10.4789 z"
       id="path3443"
       inkscape:connector-curvature="0" />
    <path
       d="m 3964.9798,1385.7221 c -2.6197,-2.0958 -5.7634,-27.7694 -6.8113,-57.1106 -1.5719,-51.8713 -1.048,-53.443 11.003,-56.0628 24.6257,-6.2874 29.3412,0.524 25.6736,34.5807 -3.6677,31.4371 5.2395,62.8741 18.3382,62.8741 9.4312,0 15.7186,-27.7694 14.1467,-62.3502 -1.5718,-31.437 -0.5239,-34.5806 8.9071,-36.1525 22.53,-3.1437 27.2456,8.3831 24.1019,57.6346 -2.0958,25.6736 -5.7635,48.2035 -9.9551,52.3951 -6.8114,6.8114 -75.449,9.9551 -85.4041,4.1916 z"
       id="path3445"
       inkscape:connector-curvature="0" />
    <path
       d="m 2503.6802,1124.2705 c -3.1437,-6.2874 -5.2395,-68.6376 -5.2395,-165.0446 l 0,-155.08952 12.5748,-7.85927 c 11.003,-7.33531 40.3442,-8.38322 236.302,-7.33531 122.6045,0.52395 224.775,-1.04791 226.8708,-2.61976 1.5719,-2.09581 2.6198,-33.53287 1.5719,-69.68549 -1.5719,-69.16156 0.5239,-76.49687 22.0059,-70.7334 9.9551,2.61975 10.479,5.23951 7.3353,72.8292 -3.1437,63.92203 -2.6197,69.6855 5.7635,69.6855 4.7155,0.52395 96.9309,0.52395 204.8649,0 177.0955,-0.52396 196.4816,0.52395 205.3888,8.38321 9.4311,8.38322 9.955,18.86225 9.955,162.94879 0,96.40705 -2.0958,158.23325 -5.2395,164.52065 -5.2394,9.955 -16.2424,9.955 -461.0769,9.955 -444.8346,0 -455.8375,0 -461.077,-9.955 z m 898.5761,-160.32903 0,-136.2273 -434.8794,0 -434.8794,0 -1.5718,133.08359 c -1.0479,97.45494 0.5239,134.65544 4.7155,137.27524 3.6677,2.0958 199.6254,3.1436 436.4513,3.1436 l 430.1638,-1.0478 0,-136.22733 z"
       id="path3447"
       inkscape:connector-curvature="0" />
    <path
       d="m 2721.6439,1057.7287 c -1.5718,-4.7156 -3.1437,-41.9161 -3.1437,-83.30822 0,-57.63461 1.5719,-75.97291 7.3352,-80.68846 4.7156,-4.19162 23.5779,-5.76346 51.3473,-4.71557 39.8202,1.57186 43.4879,2.61977 45.0598,12.57483 2.0958,13.09878 -17.2904,20.43409 -40.8683,15.19459 -24.1017,-5.23951 -28.2933,5.76346 -24.6256,71.78129 1.5718,34.58074 1.0479,62.35014 -2.0959,68.11364 -6.2873,11.527 -28.8173,12.5749 -33.0088,1.0479 z"
       id="path3449"
       inkscape:connector-curvature="0" />
    <path
       d="m 2992.5266,1057.2048 c -17.2904,-11.527 -15.7185,-31.9611 2.0958,-36.1527 11.003,-3.1437 16.2425,-1.0479 26.1975,10.4791 16.7665,19.9101 16.2426,34.5808 -2.0958,34.0568 -8.3831,0 -19.9101,-3.6677 -26.1975,-8.3832 z"
       id="path3451"
       inkscape:connector-curvature="0" />
    <path
       d="m 2862.0628,1004.8096 c -6.8114,-7.33527 -12.5749,-16.76638 -12.5749,-20.43404 0,-9.95508 19.3862,-9.43112 23.0538,1.0479 2.0959,5.76346 8.9072,7.33532 22.53,6.28741 20.4341,-1.57185 25.6736,-11.00297 7.8592,-13.62273 -5.7634,-1.0479 -19.9101,-9.95507 -31.961,-19.91014 -26.7215,-23.05384 -27.7694,-37.72447 -4.7155,-57.11067 15.1945,-13.09877 18.8622,-13.62273 45.5837,-10.47902 16.2425,2.0958 30.9131,4.71556 33.5329,6.28742 2.0958,1.04789 3.6677,22.00594 3.6677,46.63164 0,36.67658 -2.0958,47.1556 -11.003,59.20643 -8.9072,12.0509 -14.6706,14.6707 -37.2006,15.1946 -22.0059,0.524 -28.2934,-1.5718 -38.7723,-13.0988 z m 54.4909,-70.2094 c -1.0479,-15.19458 -3.6677,-17.81433 -14.6707,-17.81433 -17.8143,0 -19.9101,15.19458 -4.1916,31.43706 14.6707,15.19458 21.4821,10.47903 18.8623,-13.62273 z"
       id="path3453"
       inkscape:connector-curvature="0" />
    <path
       d="m 3074.2629,1015.2887 c -7.8592,-1.0479 -19.3861,-7.8593 -26.1975,-15.1946 -14.6706,-15.71854 -21.482,-15.71854 -28.2934,-1.04791 -3.1437,6.81141 -9.431,12.57481 -14.6706,13.62271 -18.8623,3.6677 -23.0538,-7.3353 -23.5778,-61.82622 -0.5239,-47.1556 0.524,-52.91906 9.4311,-57.63461 11.527,-6.28742 31.4371,1.0479 31.4371,11.00297 0,11.52692 15.1946,9.95507 27.7694,-2.61976 19.3862,-19.38619 45.0598,-18.33829 69.1616,2.61976 9.9551,8.90717 18.3382,19.38619 18.3382,23.05384 0,8.90717 -20.434,25.14966 -50.2993,39.29634 -23.0538,11.52692 -27.7694,22.00594 -11.003,25.14965 4.7156,1.04791 15.1947,-3.14371 23.054,-8.90717 15.1945,-11.00297 38.2483,-10.47902 38.2483,1.57186 -0.5239,7.33531 -36.1525,35.10474 -44.0118,34.05684 -3.1437,-0.524 -12.0509,-2.0958 -19.3863,-3.1437 z m -27.7694,-54.49094 c 6.2874,-5.76346 19.3863,-14.67063 28.8173,-19.91014 22.006,-12.05088 26.7215,-26.72151 8.3833,-26.72151 -7.3354,0 -15.7185,3.66766 -19.9101,8.38322 -4.7156,5.76346 -11.527,7.33531 -21.482,5.23951 -12.5749,-2.61976 -15.7186,-0.52396 -19.9102,10.47902 -3.6677,8.90717 -3.1437,16.76644 0,23.57781 6.8114,12.57481 9.9551,12.57481 24.1017,-1.04791 z"
       id="path3455"
       inkscape:connector-curvature="0" />
    <path
       d="m 4304.5001,1130.5579 c -2.0958,-1.5718 -3.6676,-77.0208 -3.6676,-166.61643 0,-135.70334 1.0479,-165.04461 7.3353,-169.76016 5.7635,-4.71556 64.97,-6.28742 231.0624,-5.23951 125.7483,0.52395 224.7751,-1.04791 226.8708,-3.66766 2.0958,-2.61976 2.6198,-36.67658 1.0479,-75.44896 -2.6196,-55.01486 -1.5718,-72.30525 3.6677,-78.59266 5.2395,-5.76347 8.9072,-6.28742 16.2425,-2.09581 7.8592,5.23951 8.9071,14.67063 6.8114,82.78427 -1.0479,61.30228 0,76.49687 5.2395,77.02082 4.1916,0 96.9309,0 206.9607,-0.52395 169.2361,-0.52396 200.1493,0.52395 205.9127,6.81136 7.3354,8.90717 11.527,321.18199 4.1917,332.70899 -3.1437,4.7155 -100.5987,6.2873 -456.3614,6.2873 -248.3529,0 -453.7417,-1.5718 -455.3136,-3.6676 z M 5195.741,967.08517 c 0.524,-89.59564 -0.5239,-135.17938 -4.1916,-138.84704 -6.8114,-6.81136 -839.3697,-8.90717 -858.232,-2.61976 l -11.5268,4.71557 2.6197,132.03567 c 1.5719,82.78429 4.7155,133.08359 7.8592,135.17939 3.1437,2.0958 198.5776,3.1437 433.8315,3.1437 l 428.0681,-0.5239 1.5719,-133.08363 z"
       id="path3457"
       inkscape:connector-curvature="0" />
    <path
       d="m 4398.8113,1025.7677 c -2.0958,-1.5719 -3.6676,-8.3832 -3.6676,-14.6706 0,-6.8114 -3.6677,-14.67066 -8.3833,-18.86228 -5.7634,-4.71555 -7.3352,-11.52692 -5.2394,-21.482 2.0958,-11.00297 0,-17.29038 -7.3353,-23.57779 -6.8114,-5.76346 -10.4791,-15.71853 -10.4791,-26.7215 0,-9.43113 -3.6677,-23.05385 -8.3831,-29.86522 -4.7156,-6.81137 -6.8114,-17.29039 -4.7156,-23.05385 6.2873,-19.91014 34.0568,-18.86224 34.0568,1.57185 0,18.33829 10.479,24.10176 42.964,24.10176 29.8652,0 30.9131,-0.52396 34.0568,-15.71854 3.6677,-18.86224 15.1945,-26.7215 30.9131,-20.95804 19.3862,7.33531 20.4341,22.00594 2.0958,36.67658 -11.5269,9.43112 -15.7186,17.29038 -15.7186,29.34126 0,8.90717 -3.6676,19.38618 -8.3831,23.5778 -5.7635,4.71555 -7.3353,11.52692 -5.2395,22.52989 1.5718,9.95508 0,19.91014 -4.7156,26.19756 -4.1916,5.76342 -7.8593,14.14672 -7.8593,19.38622 0,12.0508 -44.0119,22.0059 -53.967,11.5269 z m 39.8204,-61.82623 c 9.431,-45.58376 8.9071,-47.1556 -17.2905,-47.1556 -20.434,0 -23.5778,1.57184 -25.1496,11.52692 -1.0479,8.38322 2.0958,13.62272 11.5269,18.33829 12.0509,5.23951 13.6227,7.85926 10.479,24.10174 -3.1437,15.19459 -2.0958,17.2904 6.2874,15.71854 6.8114,-1.0479 11.003,-8.38322 14.1468,-22.52989 z"
       id="path3459"
       inkscape:connector-curvature="0" />
    <path
       d="m 4706.8945,1023.1479 c -1.5717,-3.6676 -2.0957,-18.3383 -1.5717,-32.48493 1.0479,-16.76644 -0.524,-26.19755 -4.7156,-27.76941 -3.6677,-1.57185 -6.8114,1.04791 -6.8114,5.76346 0,12.05088 -19.3861,10.47903 -35.6287,-2.61975 -13.0987,-9.95508 -14.1466,-13.62273 -12.5747,-42.96399 1.0479,-18.33829 5.2394,-36.15263 9.431,-40.86819 4.1916,-4.19161 7.3354,-11.00297 7.3354,-14.14667 0,-7.33532 16.2424,-16.24249 25.1496,-13.09879 8.9072,3.14371 7.8593,26.19756 -1.5719,29.86522 -11.0029,4.1916 -11.5268,76.49686 -0.5239,76.49686 15.1946,0 25.6736,-26.19755 22.0059,-56.06277 -2.0957,-16.24249 -1.0478,-32.48497 2.0958,-38.24843 6.2874,-11.52692 31.4371,-14.67063 31.4371,-3.66766 0,3.14371 0.5239,41.91609 1.5718,84.88008 l 1.048,78.59267 -17.2904,1.5718 c -10.4791,1.048 -17.8144,-1.0478 -19.3863,-5.2395 z"
       id="path3461"
       inkscape:connector-curvature="0" />
    <path
       d="m 4890.8014,1014.2408 c -7.3353,-13.6228 -7.3353,-15.71856 0,-18.33832 15.1947,-5.76346 27.7694,-3.1437 41.9161,8.90712 17.8143,15.7186 13.0988,24.6258 -13.6227,24.6258 -17.2904,0 -22.0059,-2.0958 -28.2934,-15.1946 z"
       id="path3463"
       inkscape:connector-curvature="0" />
    <path
       d="m 4985.1126,1020.0042 c -5.7634,-17.8143 1.5719,-27.24542 21.482,-27.24542 17.2905,0 17.8144,0.52395 16.2425,17.29042 -1.5718,14.6706 -3.6676,16.7664 -18.3383,18.3382 -12.5748,1.048 -17.2903,-0.5239 -19.3862,-8.3832 z"
       id="path3465"
       inkscape:connector-curvature="0" />
    <path
       d="m 5063.7053,972.84864 c -8.9071,-10.47903 -11.5269,-27.24546 -3.1437,-27.24546 2.6197,0 6.8113,3.66766 9.4311,8.38321 3.1437,5.76346 10.4791,7.33532 25.1496,6.28742 25.1497,-2.09581 24.6257,-8.90717 -1.5718,-17.81434 -22.0059,-7.85927 -37.7244,-25.14965 -38.2484,-41.91608 0,-16.76645 15.1946,-44.0119 25.1497,-44.53585 21.4819,-1.57186 61.8262,2.0958 66.0177,5.76346 2.0958,2.61976 5.2396,25.14965 6.2875,51.34721 2.6197,44.01189 2.0958,47.1556 -9.4311,54.49092 -6.8114,4.1916 -25.1497,9.43111 -41.3922,11.00297 -24.6256,3.14371 -30.9131,2.0958 -38.2484,-5.76346 z m 53.443,-64.96994 c -1.5719,-19.91014 -3.1436,-22.5299 -14.6706,-22.5299 -16.2426,0 -19.3862,13.09877 -7.3354,30.91311 13.6228,21.482 24.1018,17.81434 22.006,-8.38321 z"
       id="path3467"
       inkscape:connector-curvature="0" />
    <path
       d="m 4513.0327,970.22888 c -1.0479,-3.14371 -0.524,-29.86521 1.5718,-58.68252 3.1438,-45.0598 5.2396,-52.39511 13.6228,-53.96697 16.2425,-3.14371 21.482,7.85927 19.9101,44.01189 -1.5718,35.62868 6.2875,54.49091 23.5778,54.49091 7.3353,0 8.3832,-6.81135 8.9072,-62.87412 l 0.524,-34.05682 17.2903,-1.57186 16.7665,-1.57185 0,51.3472 0,51.34722 -16.7665,8.90717 c -20.958,10.47901 -82.2603,12.57482 -85.404,2.61975 z"
       id="path3469"
       inkscape:connector-curvature="0" />
    <path
       d="m 4776.0561,973.37259 c -4.7155,-7.33532 -3.6676,-103.21837 1.0479,-110.55369 2.6198,-4.19161 11.003,-6.28741 19.3862,-5.23951 l 15.1946,1.57186 2.6198,49.77535 c 2.6198,46.1077 3.1437,49.77536 14.6706,52.39511 6.8114,1.57185 12.5748,5.23951 13.0988,7.85927 1.0479,6.28741 -62.3502,9.95507 -66.0179,4.19161 z"
       id="path3471"
       inkscape:connector-curvature="0" />
    <path
       d="m 4865.1278,964.46542 c -9.9551,-14.67063 -8.9072,-72.30526 1.0479,-90.64354 18.3383,-35.10473 79.1166,-27.76942 79.1166,9.43111 0,17.2904 -5.2395,18.86224 -23.5778,6.81137 -15.7184,-9.95507 -28.8173,-6.28742 -28.8173,7.85926 0,12.05088 18.8622,19.3862 35.6287,14.14669 25.1497,-8.38323 37.7245,36.15262 15.7185,55.01486 -8.9071,6.81136 -20.434,9.43112 -41.3921,9.95507 -25.6736,0 -30.9131,-1.57185 -37.7245,-12.57482 z m 56.5867,-15.71854 c 0,-15.71853 -16.2424,-23.05385 -26.7215,-12.57483 -12.5748,12.57483 -5.7634,26.19756 12.051,24.10176 10.4789,-1.04791 14.6705,-4.71556 14.6705,-11.52693 z"
       id="path3473"
       inkscape:connector-curvature="0" />
    <path
       d="m 4990.8761,973.89653 c -2.0958,-2.0958 -3.6676,-27.7694 -3.6676,-57.11066 0,-56.06277 4.7155,-69.16155 23.0538,-62.35019 11.5269,4.19161 13.6228,16.76644 12.0509,72.8292 -1.0479,46.10771 -1.0479,47.1556 -14.1467,48.72746 -7.3354,1.0479 -15.1946,0 -17.2904,-2.09581 z"
       id="path3475"
       inkscape:connector-curvature="0" />
    <path
       d="m 1336.3171,1112.2196 c -8.9071,-8.9072 -8.9071,-324.32571 0,-333.23288 4.7156,-4.71555 66.0179,-6.28741 244.1613,-6.28741 l 237.8738,0 -2.0958,-59.73042 c -0.524,-33.00893 -0.524,-60.77833 1.0479,-62.35019 7.8592,-6.81136 25.6736,-8.38321 29.8652,-2.61975 2.0958,3.66766 4.1916,33.00892 4.1916,64.44598 l 0,57.63462 193.8619,1.57186 c 174.9997,1.0479 194.3858,2.0958 200.6733,9.95507 8.3832,11.52692 9.4311,311.22702 1.0479,326.94542 -5.2395,9.9552 -16.2426,9.9552 -454.7896,9.9552 -342.664,0 -451.1219,-1.5719 -455.8375,-6.2875 z m 888.6212,-171.33198 -1.5719,-134.13148 -421.7807,-1.57186 c -232.1103,-0.52396 -426.4962,0 -432.2596,1.0479 -9.9551,2.61976 -10.4791,6.81137 -9.9551,137.79915 l 0.5239,135.17937 426.4962,2.6197 c 244.1613,1.5719 429.116,0.524 433.3076,-2.0958 4.7156,-3.6676 6.2875,-35.1047 5.2396,-138.84698 z"
       id="path3477"
       inkscape:connector-curvature="0" />
    <path
       d="m 1515.5084,1022.624 c -1.0479,-3.6677 -1.5718,-42.96401 -1.0479,-87.49984 l 1.5719,-81.21242 15.7185,0 15.7185,0 0,36.15262 c 0,30.91312 1.5719,36.67658 11.527,43.48794 15.1945,10.47903 22.5299,4.71556 22.5299,-16.76643 0,-9.95508 2.6197,-19.38619 5.2395,-20.95805 3.1437,-1.57185 5.2395,-9.95507 5.2395,-17.81434 0,-24.6257 22.5299,-36.15262 37.2005,-18.33828 5.2395,6.81136 5.2395,11.00297 0,24.6257 -3.6677,9.43112 -8.3832,25.6736 -11.003,36.67658 -2.0958,11.00297 -7.8592,23.05385 -13.0987,26.7215 -13.0988,9.43112 -5.7635,36.15263 14.1466,52.91902 19.9102,16.7665 16.7665,30.3892 -7.3353,27.7694 -13.0987,-1.0478 -20.4341,-6.2874 -31.437,-22.5298 -7.8593,-11.52698 -14.6707,-25.67365 -15.7186,-31.43712 -1.0479,-5.76346 -5.2395,-10.47901 -9.4311,-10.47901 -6.2874,0 -7.3353,5.76346 -6.2874,28.29335 1.5718,29.34128 -2.6198,37.20058 -21.482,37.20058 -5.2395,0 -10.479,-3.1438 -12.0509,-6.8114 z"
       id="path3479"
       inkscape:connector-curvature="0" />
    <path
       d="m 1697.3195,1016.8605 c -15.1946,-15.7185 -10.4791,-24.10172 12.5748,-24.10172 13.6227,0 20.4341,3.1437 26.7215,13.09882 4.1916,6.8113 6.8114,15.1945 4.7156,18.3382 -6.2875,9.9551 -31.9611,5.7635 -44.0119,-7.3353 z"
       id="path3481"
       inkscape:connector-curvature="0" />
    <path
       d="m 1856.0766,1022.1 c -6.8113,-18.3382 0,-26.72147 21.482,-26.72147 18.3383,0 20.9581,1.57185 22.5299,12.57487 1.0479,6.8113 -1.0479,14.6706 -5.2395,16.7664 -11.003,7.3353 -35.6287,5.2395 -38.7724,-2.6198 z"
       id="path3483"
       inkscape:connector-curvature="0" />
    <path
       d="m 1808.921,1009.5252 c -7.3353,-5.2395 -28.2933,-36.67656 -28.2933,-42.44003 0,-2.61975 3.6676,-6.28741 7.8593,-7.85927 6.2874,-2.0958 7.8592,-10.47902 7.3353,-35.62867 -1.0479,-22.5299 1.5718,-38.24843 7.3353,-49.77535 11.003,-20.95805 16.7664,-24.10176 33.0089,-20.4341 16.2425,4.19161 16.2425,16.76644 -0.524,32.48497 -11.0029,9.95507 -13.0987,16.76644 -13.0987,41.39213 0,25.67362 1.5718,29.86522 13.0987,35.10473 12.5749,5.76346 13.0988,5.76346 2.6198,13.09878 -5.7635,4.1916 -10.479,13.09877 -10.479,19.38619 0,12.57482 -10.479,20.43412 -18.8623,14.67062 z"
       id="path3485"
       inkscape:connector-curvature="0" />
    <path
       d="m 1945.6723,978.08814 c -5.7635,-1.0479 -14.6706,-7.33532 -19.9102,-14.67063 -8.9071,-12.05087 -8.9071,-12.57483 0.524,-12.57483 5.2395,0 12.0509,2.61976 15.1946,5.76347 6.8113,6.81136 39.2963,4.19161 41.9161,-3.14371 0.5239,-2.61976 -8.9072,-9.43111 -22.006,-15.19458 -15.7185,-6.28741 -26.7215,-15.19458 -31.961,-25.14965 -7.8593,-14.67064 -7.3353,-17.81434 0.5239,-35.62868 5.2396,-11.52693 14.1467,-21.48199 20.4341,-23.05385 15.7186,-4.1916 57.1107,-3.66765 64.446,1.04791 3.6677,2.0958 6.2874,22.52989 7.3353,51.87115 1.5719,43.48794 0.524,49.77536 -8.9071,58.68253 -10.4791,9.43112 -44.5359,15.71854 -67.5897,12.05087 z m 41.9161,-72.30525 c 0,-18.33829 -1.5719,-20.43409 -13.0988,-20.43409 -16.2425,0 -19.3862,13.09877 -7.3353,31.43707 12.0508,18.33829 20.4341,13.62272 20.4341,-11.00298 z"
       id="path3487"
       inkscape:connector-curvature="0" />
    <path
       d="m 1675.8375,972.32468 c 0,-2.61975 -4.7156,-6.81136 -10.4791,-8.38321 -5.7634,-1.57186 -10.479,-6.81137 -10.479,-11.00297 0,-9.95508 17.8144,-9.43113 26.1976,1.04789 4.7155,5.23951 13.6227,7.33532 25.6736,6.28742 22.5299,-2.09581 25.1496,-11.00297 4.1916,-14.67063 -19.3862,-3.66767 -50.8233,-34.58078 -50.8233,-50.29931 0,-6.81136 2.0958,-12.57482 4.7156,-12.57482 3.1437,0 8.3832,-6.28742 12.0509,-14.14669 6.2874,-13.09877 9.955,-14.67062 36.6765,-16.24248 48.2035,-2.61976 51.3473,1.0479 51.3473,57.11066 0,45.0598 -0.524,47.15561 -13.0988,51.87117 -7.3353,2.61976 -13.0988,7.33531 -13.0988,10.47902 0,3.14371 -13.6227,5.23951 -31.4371,5.23951 -17.2904,0 -31.437,-2.0958 -31.437,-4.71556 z m 51.3472,-64.44598 c -1.5719,-18.86225 -3.6677,-23.05385 -14.1467,-24.10176 -6.8114,-1.04789 -14.6706,0.52396 -17.2904,3.14371 -7.3353,7.33532 12.0509,42.44005 23.5778,42.96399 7.8593,0 9.4311,-3.66765 7.8593,-22.00594 z"
       id="path3489"
       inkscape:connector-curvature="0" />
    <path
       d="m 1862.888,973.37259 c -1.5718,-2.61977 -3.6677,-27.76941 -4.1916,-55.53882 -1.0479,-40.86818 0,-52.91906 6.8114,-59.20648 6.8113,-6.81136 10.479,-7.33532 19.3862,-2.0958 10.479,5.23951 11.0029,8.90717 9.955,61.82622 l -1.5718,56.06277 -14.1467,1.57186 c -7.3353,1.0479 -14.6706,-0.52395 -16.2425,-2.61975 z"
       id="path3491"
       inkscape:connector-curvature="0" />
    <path
       d="m 1264.5358,631.23252 c -2.0958,-3.14371 -3.1437,-66.01785 -3.1437,-140.4189 0,-73.87711 0,-143.03865 -1.0479,-152.99373 l -1.0479,-18.33828 1920.2808,-0.52395 c 1056.2855,0 1924.4724,-1.57186 1929.712,-3.66766 4.7156,-1.57185 8.9071,-8.38322 8.9071,-14.14668 0,-5.76346 3.6676,-12.05088 8.3832,-14.14668 12.0509,-4.71557 46.6316,16.76643 45.5838,28.29336 -0.5239,5.23951 2.6197,11.52692 6.8113,13.62272 12.5749,6.81137 8.3833,23.05386 -9.431,37.72449 -9.4312,7.85926 -20.9582,20.43409 -25.6736,27.7694 -11.527,19.91014 -28.8174,18.86225 -27.2456,-1.57184 1.5719,-33.53288 -2.0957,-39.82029 -23.5778,-38.24844 l -19.3861,1.57185 2.0958,129.41593 c 2.0958,120.50875 1.5719,129.93987 -7.3353,133.08358 -11.527,4.71556 -25.1497,-12.05088 -21.482,-26.72151 1.5718,-5.76346 3.1437,-59.73042 3.6677,-120.50875 l 1.5718,-110.02974 -117.889,-1.04789 c -64.446,-0.52396 -121.0327,1.04789 -125.2243,3.66765 -5.7635,3.66766 -6.2875,7.33532 -1.0479,17.81433 9.4311,20.95805 14.6706,142.5147 6.2874,152.46978 -8.3833,10.47902 -24.1017,9.95507 -28.2934,-0.52395 -5.2395,-13.09878 -3.6676,-107.93393 2.0958,-138.32309 4.1917,-21.482 3.6677,-29.34126 -1.0479,-32.48497 -3.6676,-2.0958 -25.6735,-4.19161 -49.2514,-4.19161 l -42.44,0 0.5239,90.64354 c 0.524,86.97588 0,90.11959 -9.9551,90.11959 -9.955,0 -10.4789,-3.14371 -9.955,-90.64354 l 0.524,-91.16749 -66.0179,1.57185 c -36.1526,0.52395 -85.928,-0.52395 -110.5536,-2.61975 -25.6737,-2.09581 -47.6797,-1.57186 -51.8713,1.0479 -5.7634,4.1916 -6.8113,23.5778 -6.2873,95.3591 l 1.0479,89.59563 -14.6707,-1.57184 -14.6706,-1.57186 -0.5239,-88.02379 c 0,-48.2035 -2.0958,-89.59564 -5.2396,-91.69144 -2.6197,-2.0958 -27.2454,-2.61975 -54.4909,-1.0479 l -49.7754,2.61975 2.6198,34.05683 c 1.5718,18.86223 2.6197,57.11067 2.6197,85.92798 0,43.48794 -1.5718,52.91906 -8.9072,57.63461 -17.8143,11.00299 -22.0059,-2.61975 -20.434,-72.8292 0.5239,-35.62867 3.1437,-72.30525 5.7635,-80.68847 2.6197,-9.95507 2.0958,-17.29038 -1.5719,-20.95804 -8.3832,-8.38322 -91.1675,-7.85926 -93.7873,0.52395 -1.5718,3.66766 -0.5239,17.81434 2.0958,31.43707 2.6198,13.09878 3.6677,51.34721 3.1438,83.83218 -1.5719,55.01486 -2.0958,59.20647 -12.051,59.20647 -9.955,0 -10.4789,-3.66765 -10.4789,-89.07169 l 0,-89.07169 -125.7483,-1.04789 c -69.1616,-0.52396 -148.8021,-2.09582 -176.5715,-3.14371 -35.6287,-1.57186 -51.3472,-0.52395 -51.8712,3.66766 -0.5239,3.1437 0,57.63462 0.524,121.0327 1.0479,96.407 -0.524,116.8411 -6.8114,122.0806 -17.8143,14.67064 -20.4341,-3.66766 -18.8622,-125.74826 l 2.0958,-116.8411 -51.8711,-1.57185 c -31.9611,-1.0479 -53.9671,0.52396 -58.1586,4.19161 -4.7156,4.19161 -10.4791,4.19161 -16.7665,1.0479 -13.0987,-7.33531 -222.1552,-7.33531 -230.5385,-0.52395 -4.1916,3.66766 -4.7156,9.43112 -2.0958,16.76644 2.6198,6.28741 5.2395,42.96399 6.2874,81.73636 2.0959,62.87414 1.048,70.73341 -7.3353,75.97291 -16.7664,10.47903 -19.9101,-4.71555 -17.2903,-80.68846 1.5718,-38.77239 3.6676,-76.49687 4.1916,-83.83218 1.5717,-13.09878 1.0479,-13.09878 -42.4401,-14.67063 -24.1017,-1.0479 -46.1077,0.52396 -48.2035,2.61976 -2.0958,2.0958 -2.0958,39.82028 0.524,82.78428 4.1915,79.1166 1.5718,96.93094 -13.0988,96.93094 -14.6706,0 -16.7664,-18.33828 -12.5748,-96.93094 2.0957,-42.964 2.0957,-80.16453 0.5238,-81.73638 -5.7633,-5.23952 -86.4519,-9.43112 -97.4548,-5.23952 -9.9551,3.66766 -10.479,9.95508 -10.479,92.73936 l -0.524,88.54773 -13.0987,0 -13.0988,0 -0.524,-88.02379 c -0.524,-48.72745 -3.1437,-90.64353 -5.7635,-93.2633 -3.1437,-3.1437 -25.1496,-3.1437 -58.6825,0 -29.8652,2.61977 -59.2065,3.14371 -65.4938,1.04791 -5.7635,-2.61975 -28.8173,-3.66766 -50.2994,-2.61975 -21.482,1.0479 -42.9639,2.0958 -47.6795,2.0958 -7.3354,0 -8.3833,10.47903 -7.8593,90.64354 0.5239,86.97588 0,90.11959 -9.955,90.11959 -9.9551,0 -10.4791,-3.14371 -9.9551,-90.64354 l 0.5239,-90.64355 -134.1315,0.52396 c -73.8771,0.52395 -149.326,-0.52396 -168.1883,-2.61976 -28.8173,-3.1437 -35.6287,-2.61975 -45.5837,5.76346 -10.479,8.90717 -11.003,12.57483 -6.8114,34.05682 2.6198,13.09879 5.2396,63.92205 5.7635,112.12554 0.524,73.87711 -0.5239,89.59564 -6.8114,93.78725 -4.7156,2.61976 -11.5269,3.66766 -16.2424,1.57185 -6.8114,-2.61975 -7.3354,-18.33828 -4.7156,-123.65245 2.0958,-101.64652 1.5719,-121.03271 -4.7156,-121.55667 -34.0568,-1.57184 -97.4549,2.09582 -102.1705,6.28742 -4.1915,3.14371 -4.7155,12.05088 -1.5718,27.24546 2.0958,12.05088 4.1916,49.77536 4.7155,83.83217 0,52.39511 -1.0479,62.35019 -8.3831,64.96994 -13.0988,4.71556 -24.1019,-13.09878 -20.9581,-35.10472 1.5718,-9.95508 3.1437,-46.63165 4.1916,-81.21242 l 1.5718,-62.87414 -89.0716,-2.0958 c -101.1226,-2.0958 -119.9848,-2.0958 -214.82,0.52395 l -68.1136,1.57185 0,89.07169 c 0,85.40404 -0.524,89.07169 -10.479,89.07169 -9.9551,0 -10.4791,-3.66765 -10.4791,-89.07169 l 0,-88.54774 -13.0987,-3.66766 c -22.5299,-6.2874 -67.0658,-5.2395 -71.7813,2.09582 -2.0959,3.1437 -4.1917,45.05979 -4.1917,92.73934 l 0,86.45193 -15.7185,0 -15.7185,0 0,-91.69144 0,-91.69145 -44.0119,-1.0479 c -33.0089,-1.0479 -47.6796,0.52395 -57.1107,6.81136 -11.003,7.33533 -13.6227,7.33533 -20.958,0.52396 -7.3353,-6.28742 -18.8623,-7.33532 -67.0658,-3.66766 -32.4849,2.09581 -67.0657,2.09581 -77.5447,0.52395 -11.003,-1.57185 -36.6766,-2.61975 -57.6347,-1.57185 l -38.2484,1.57185 0.524,90.11959 c 0.5239,86.97588 0,90.11959 -9.9551,90.11959 -9.9551,0 -10.479,-3.66765 -10.479,-89.07169 l 0,-89.07169 -70.7334,-0.52394 c -38.7724,0 -86.452,-2.09581 -105.3142,-4.19161 -24.1017,-2.61976 -36.1526,-2.09581 -38.7724,2.0958 -2.0958,3.1437 -3.1437,67.06574 -2.6197,141.99075 l 0.5239,135.70333 -15.7185,0 c -8.3832,0 -17.2904,-2.61975 -18.8623,-5.2395 z"
       id="path3499"
       inkscape:connector-curvature="0" />
    <path
       d="m 1382.4248,534.30156 c -4.7155,-5.76346 -5.7634,-26.19756 -4.1916,-73.35316 2.0958,-67.06574 7.3354,-85.40403 21.482,-71.78129 9.4312,9.95506 12.0509,142.51469 2.6198,148.27816 -9.4311,6.28741 -12.5748,5.76346 -19.9102,-3.14371 z"
       id="path3501"
       inkscape:connector-curvature="0" />
    <path
       d="m 1648.0681,538.49317 c -5.7635,-5.23952 -4.1917,-139.371 1.5718,-148.27817 7.3353,-11.52692 10.479,-4.71556 15.7185,31.96102 11.527,78.59267 2.6198,136.75124 -17.2903,116.31715 z"
       id="path3503"
       inkscape:connector-curvature="0" />
    <path
       d="m 1775.9121,537.44527 c -11.0029,-7.33531 -6.2874,-143.56261 5.7635,-155.61349 8.3832,-8.38321 9.4311,-8.38321 14.6706,5.76347 3.1437,8.38321 4.7156,43.48794 4.1916,83.30823 -1.0479,56.06277 -3.1437,68.63759 -9.4311,69.68549 -4.1916,1.04791 -11.003,-0.52395 -15.1946,-3.1437 z"
       id="path3505"
       inkscape:connector-curvature="0" />
    <path
       d="m 2156.8246,537.96922 c -8.3832,-1.57186 -9.4311,-8.90717 -9.4311,-61.30228 0,-61.82623 5.2395,-86.45194 17.2903,-86.45194 9.9551,0 14.1467,27.24546 14.1467,92.2154 0,55.01487 -2.0958,60.25437 -22.0059,55.53882 z"
       id="path3507"
       inkscape:connector-curvature="0" />
    <path
       d="m 2279.4292,537.44527 c -9.4312,-5.76347 -6.8114,-138.3231 3.1437,-148.27816 14.1466,-14.14668 19.3861,4.71555 21.482,75.44895 1.0479,53.44302 0,69.16155 -5.2396,72.82921 -8.9072,5.76346 -11.003,5.76346 -19.3861,0 z"
       id="path3509"
       inkscape:connector-curvature="0" />
    <path
       d="m 2657.1979,538.49317 c -5.2395,-1.57186 -6.8114,-19.3862 -6.2874,-63.39809 0.5239,-68.63759 3.6676,-86.45193 16.2424,-89.07168 11.527,-2.0958 15.7186,27.24546 13.6228,98.5028 -1.5719,56.06277 -4.1916,62.35019 -23.5778,53.96697 z"
       id="path3511"
       inkscape:connector-curvature="0" />
    <path
       d="m 3553.1543,538.49317 c -5.2396,-1.57186 -6.8114,-19.3862 -6.2875,-63.39809 0.524,-68.63759 3.6677,-86.45193 16.2426,-89.07168 11.5268,-2.0958 15.7185,27.24546 13.6226,98.5028 -1.5718,56.06277 -4.1916,62.35019 -23.5777,53.96697 z"
       id="path3513"
       inkscape:connector-curvature="0" />
    <path
       d="m 3664.2319,534.82551 c -8.9071,-6.28741 -9.4311,-12.57483 -6.2875,-70.20945 3.1438,-59.73043 8.3833,-84.88008 18.8623,-84.88008 7.8593,0 10.479,13.62273 14.1467,80.68847 2.6197,49.77536 2.0958,67.58969 -3.1437,73.87711 -7.8592,9.43112 -11.003,9.95507 -23.5778,0.52395 z"
       id="path3515"
       inkscape:connector-curvature="0" />
    <path
       d="m 3923.5877,531.6818 c -6.8113,-12.57483 -1.5719,-127.84406 6.2874,-143.5626 4.7156,-8.90717 5.7635,-8.90717 13.6228,-1.0479 12.0508,11.52693 16.7664,143.5626 5.7634,150.37397 -11.5269,7.33531 -19.9102,5.2395 -25.6736,-5.76347 z"
       id="path3517"
       inkscape:connector-curvature="0" />
    <path
       d="m 4053.0036,538.49317 c -4.7155,-4.19161 -4.7155,-115.26925 -0.5239,-137.27519 2.0958,-10.47903 6.2874,-16.24249 12.5747,-16.24249 12.5749,0 15.7186,19.3862 15.7186,91.69145 0,49.2514 -1.5718,59.73042 -8.3832,62.35017 -10.479,4.19162 -15.1945,4.19162 -19.3862,-0.52394 z"
       id="path3519"
       inkscape:connector-curvature="0" />
    <path
       d="m 4543.9458,532.72971 c -7.3353,-7.33532 -8.3832,-16.24249 -5.2395,-65.49389 3.1437,-54.49091 8.3832,-77.02082 18.3383,-77.02082 7.3353,0 10.479,20.43409 11.0029,73.35316 1.0479,70.7334 1.0479,71.7813 -7.8592,75.44895 -4.1916,1.57186 -11.5269,-1.04789 -16.2425,-6.2874 z"
       id="path3521"
       inkscape:connector-curvature="0" />
    <path
       d="m 4915.9511,534.30156 c -5.2396,-12.57483 0,-143.03865 5.7634,-148.80212 3.1438,-3.1437 8.3833,-3.66766 13.0989,-0.52395 11.0029,6.81137 14.6705,145.65841 4.1916,152.46978 -10.4791,6.81136 -19.9102,5.76346 -23.0539,-3.14371 z"
       id="path3523"
       inkscape:connector-curvature="0" />
    <path
       d="m 2777.7067,528.5381 c -6.2875,-16.24248 3.1437,-124.17641 11.5268,-132.55964 4.1917,-4.1916 9.4312,-5.76346 11.527,-3.66765 4.7156,4.19161 11.0029,121.55666 7.8593,135.70333 -3.1437,11.52693 -26.1977,12.05088 -30.9131,0.52396 z"
       id="path3525"
       inkscape:connector-curvature="0" />
    <path
       d="m 3044.3977,466.71186 c 1.5719,-72.8292 6.8114,-91.69143 20.9581,-77.54475 4.7156,4.71555 6.8114,27.7694 6.8114,75.97291 l 0,69.16154 -14.6707,1.57186 -15.1945,1.57185 2.0957,-70.73341 z"
       id="path3527"
       inkscape:connector-curvature="0" />
    <path
       d="m 5011.3102,249.27216 c -13.0988,-14.67063 -8.9072,-34.05683 7.8593,-36.15263 9.955,-1.04789 14.6706,1.57186 19.3861,12.05088 9.4312,20.43409 24.1018,15.19458 26.1976,-8.90717 1.5718,-17.29039 0,-19.91014 -11.5269,-23.05385 -17.2904,-4.19161 -17.2904,-16.76643 -0.5239,-23.05385 11.5268,-4.19161 13.0987,-7.85926 13.0987,-31.43706 0,-23.5778 -1.0479,-26.19756 -12.0508,-26.19756 -6.2875,0 -14.6707,4.71556 -18.3384,11.00297 -8.9071,13.62273 -29.3412,11.52693 -31.4371,-3.66765 -1.0479,-5.76347 3.6677,-16.76644 9.4312,-24.625706 9.4311,-12.050875 15.1945,-14.14668 36.6766,-14.14668 43.4879,0 51.3472,14.14668 51.3472,94.311196 -0.524,75.44896 -5.2395,83.83218 -51.3472,83.83218 -22.53,0 -31.961,-2.61976 -38.7724,-9.95507 z"
       id="path3529"
       inkscape:connector-curvature="0" />
    <path
       d="M 1231.003,228.31411 C 1221.5719,215.21533 1220,205.26027 1220,152.86516 c 0,-74.925012 1.5719,-77.020817 52.3951,-77.020817 48.7275,0 52.3951,5.239511 52.3951,78.592667 0,43.48794 -2.0958,58.15857 -8.9071,68.11364 -12.5749,18.86224 -16.7665,20.95805 -47.1556,20.95805 -24.1018,0 -28.2934,-1.57186 -37.7245,-15.19459 z m 54.4909,-71.25735 c 0,-53.96696 -0.524,-57.634617 -10.479,-57.634617 -9.4312,0 -10.4791,4.191607 -12.0509,51.871157 -1.5719,58.68252 0,67.58969 13.0988,64.96994 8.3832,-1.57185 9.4311,-8.38322 9.4311,-59.20648 z"
       id="path3531"
       inkscape:connector-curvature="0" />
    <path
       d="m 3752.7796,230.40992 c -8.3832,-12.57482 -6.2874,-34.05682 3.6677,-34.05682 3.1437,0 14.6707,5.23951 26.1975,12.05087 17.8144,9.95507 21.482,10.47902 25.6736,3.66767 11.003,-17.2904 5.7635,-27.76942 -46.6316,-89.59565 -8.9072,-10.47902 -16.2425,-25.149652 -16.2425,-31.961016 0,-12.574826 1.0479,-13.098777 50.8233,-16.766436 51.8711,-3.667657 63.3981,-0.52395 57.6346,14.670632 -2.6197,6.287412 -11.003,8.383217 -31.961,8.383217 -15.7186,0 -29.8652,2.095805 -31.4371,4.715563 -2.0958,2.61975 7.3354,14.14668 20.4341,25.6736 14.1467,12.57483 23.5778,25.14965 23.5778,31.96102 0,6.28741 3.1437,12.57482 7.3353,14.14668 15.1946,5.76346 15.1946,28.29336 0,49.77536 -13.6227,19.91014 -14.6706,20.43409 -47.1555,20.43409 -29.3413,0 -34.0569,-1.57186 -41.9162,-13.09878 z"
       id="path3533"
       inkscape:connector-curvature="0" />
    <path
       d="m 2542.9766,217.31114 c -5.2396,-5.76346 -12.0509,-10.47902 -15.7186,-10.47902 -8.3833,0 -21.482,-15.19458 -26.1976,-30.38916 -4.1916,-14.14668 9.4312,-21.482 24.6257,-12.05088 13.0988,7.85926 14.1468,3.66766 15.7186,-56.58672 1.5719,-51.871159 7.3353,-63.922034 27.2455,-56.586719 7.8593,3.143707 8.3831,13.098778 7.3353,88.547739 -1.5719,81.73637 -2.0958,85.40403 -12.5749,86.97588 -5.7634,1.0479 -14.6706,-3.1437 -20.434,-9.43112 z"
       id="path3535"
       inkscape:connector-curvature="0" />
  </g>
</svg>
