<?xml version="1.0" encoding="UTF-8" standalone="no"?>
<svg
   xmlns:dc="http://purl.org/dc/elements/1.1/"
   xmlns:cc="http://creativecommons.org/ns#"
   xmlns:rdf="http://www.w3.org/1999/02/22-rdf-syntax-ns#"
   xmlns:svg="http://www.w3.org/2000/svg"
   xmlns="http://www.w3.org/2000/svg"
   xmlns:sodipodi="http://sodipodi.sourceforge.net/DTD/sodipodi-0.dtd"
   xmlns:inkscape="http://www.inkscape.org/namespaces/inkscape"
   version="1.0"
   width="500.25397"
   height="126.05965"
   viewBox="0 0 400.20317 100.84772"
   preserveAspectRatio="xMidYMid meet"
   id="svg3651"
   inkscape:version="0.48.4 r9939"
   sodipodi:docname="ff7dfafc51c6806ad994afe326fbf78c068369d5.svg">
  <defs
     id="defs3695" />
  <sodipodi:namedview
     pagecolor="#ffffff"
     bordercolor="#666666"
     borderopacity="1"
     objecttolerance="10"
     gridtolerance="10"
     guidetolerance="10"
     inkscape:pageopacity="0"
     inkscape:pageshadow="2"
     inkscape:window-width="1600"
     inkscape:window-height="824"
     id="namedview3693"
     showgrid="false"
     inkscape:zoom="0.816"
     inkscape:cx="351.58923"
     inkscape:cy="81.442082"
     inkscape:window-x="0"
     inkscape:window-y="24"
     inkscape:window-maximized="1"
     inkscape:current-layer="svg3651"
     fit-margin-top="0"
     fit-margin-left="0"
     fit-margin-right="0"
     fit-margin-bottom="0" />
  <metadata
     id="metadata3653">
Created by potrace 1.10, written by Peter Selinger 2001-2011
<rdf:RDF>
  <cc:Work
     rdf:about="">
    <dc:format>image/svg+xml</dc:format>
    <dc:type
       rdf:resource="http://purl.org/dc/dcmitype/StillImage" />
  </cc:Work>
</rdf:RDF>
</metadata>
  <g
     transform="matrix(0.0449362,0,0,-0.0449362,-2.4420617,105.15071)"
     id="g3655"
     style="fill:#000000;stroke:none">
    <path
       d="m 7958,2273 c -46,-37 -87,-71 -93,-75 -5,-5 -56,-46 -112,-93 -57,-46 -114,-92 -128,-101 -44,-29 -28,-84 25,-84 54,0 52,11 50,-387 -1,-308 1,-371 13,-376 8,-3 270,-6 584,-6 640,-1 599,-6 595,73 -7,148 -19,653 -15,663 2,6 16,14 31,18 70,17 70,56 -1,121 -50,46 -148,134 -246,220 -25,22 -57,52 -71,68 -33,36 -58,32 -120,-24 -25,-22 -48,-40 -51,-40 -3,0 -30,-22 -59,-50 -29,-27 -58,-50 -64,-50 -10,0 -47,32 -168,146 -26,24 -56,44 -67,44 -11,0 -58,-30 -103,-67 z m 146,-19 c 21,-19 36,-38 32,-41 -3,-3 -14,1 -24,10 -10,10 -22,17 -27,17 -5,0 -16,7 -26,16 -17,15 -20,14 -48,-17 -17,-18 -34,-30 -38,-26 -8,9 65,77 81,77 6,0 28,-16 50,-36 z m 497,-15 c 24,-24 17,-39 -8,-18 -32,27 -69,39 -82,26 -6,-6 -14,-8 -18,-4 -3,4 2,15 13,26 17,17 22,17 47,4 15,-8 37,-23 48,-34 z m -121,-6 c 0,-13 -50,-56 -57,-50 -3,4 5,18 18,32 24,25 39,32 39,18 z m -528,-40 c -7,-3 -22,-14 -32,-26 -11,-11 -23,-17 -27,-14 -3,4 -4,8 -2,10 2,2 17,13 33,25 16,12 32,19 35,16 3,-4 0,-9 -7,-11 z m 148,-15 c 70,-62 188,-158 193,-158 5,0 154,121 220,178 12,11 22,13 31,7 35,-25 191,-154 240,-198 17,-15 39,-30 48,-33 10,-3 18,-12 18,-20 0,-13 -70,-15 -560,-13 -393,2 -560,6 -560,14 0,10 19,29 52,50 29,19 123,93 188,149 36,30 71,55 79,56 7,0 30,-15 51,-32 z m 101,-7 c 43,-42 47,-51 24,-51 -8,0 -15,7 -15,15 0,8 -7,15 -15,15 -8,0 -15,7 -15,15 0,8 -7,15 -15,15 -8,0 -15,7 -15,15 0,23 9,19 51,-24 z m 457,21 c 2,-7 -3,-12 -12,-12 -9,0 -16,7 -16,16 0,17 22,14 28,-4 z m -273,-47 c -31,-25 -45,-31 -45,-17 0,10 63,52 69,46 3,-3 -8,-16 -24,-29 z m 332,-22 c -9,-8 -57,39 -50,50 2,4 16,-4 30,-18 14,-14 23,-28 20,-32 z m -837,7 c 0,-5 -6,-10 -14,-10 -8,0 -17,-7 -20,-16 -3,-8 -10,-12 -16,-9 -6,4 -1,14 12,25 26,22 38,25 38,10 z m 450,-29 c 0,-10 -42,-23 -49,-15 -7,6 20,24 37,24 6,0 12,-4 12,-9 z m -575,-76 c -31,-25 -45,-31 -45,-17 0,10 63,52 69,46 3,-3 -8,-16 -24,-29 z m -55,-40 c 0,-8 -7,-15 -15,-15 -16,0 -20,12 -8,23 11,12 23,8 23,-8 z m 1192,0 c 0,-5 -5,-11 -11,-13 -6,-2 -11,4 -11,13 0,9 5,15 11,13 6,-2 11,-8 11,-13 z m -61,-95 c 1,-3 2,-159 4,-346 l 3,-341 -116,-6 c -64,-3 -157,-3 -207,1 l -90,7 -1,167 c 0,92 -2,169 -5,171 -2,2 -70,7 -151,10 -170,7 -160,14 -158,-103 1,-41 1,-114 1,-162 l -1,-88 -186,0 -186,0 5,339 c 3,187 8,345 12,351 5,9 147,11 541,8 294,-2 534,-5 535,-8 z m -463,-379 c 11,-6 14,-44 15,-155 0,-81 -4,-150 -9,-154 -5,-4 -56,-5 -114,-2 l -105,5 -3,145 c -1,79 0,150 2,157 6,15 192,19 214,4 z"
       id="path3657"
       inkscape:connector-curvature="0" />
    <path
       d="m 8019,2100 c -9,-9 -22,-19 -29,-22 -11,-3 -11,-13 0,-49 13,-45 14,-46 57,-46 32,0 43,4 43,15 0,9 7,23 16,33 19,21 13,46 -13,56 -10,4 -22,12 -26,20 -11,18 -29,15 -48,-7 z m 41,-55 c 0,-8 -7,-15 -15,-15 -8,0 -15,7 -15,15 0,8 7,15 15,15 8,0 15,-7 15,-15 z"
       id="path3659"
       inkscape:connector-curvature="0" />
    <path
       d="m 8491,2085 c -25,-26 -31,-38 -23,-47 5,-7 12,-24 14,-38 2,-16 9,-24 18,-21 8,2 30,3 48,2 26,-1 32,2 32,18 0,11 5,23 10,26 18,11 11,44 -12,56 -13,7 -27,18 -31,25 -11,20 -18,17 -56,-21 z m 49,-40 c 0,-8 -4,-15 -9,-15 -13,0 -22,16 -14,24 11,11 23,6 23,-9 z"
       id="path3661"
       inkscape:connector-curvature="0" />
    <path
       d="m 7872,1823 c -5,-10 -13,-57 -17,-104 -8,-110 -1,-119 88,-116 34,2 68,6 75,10 16,11 17,198 0,215 -7,7 -39,12 -75,12 -49,0 -64,-4 -71,-17 z m 107,-42 c 11,-7 8,-13 -13,-26 -32,-21 -33,-38 -5,-57 21,-13 21,-15 4,-31 -34,-35 -50,-18 -51,56 -1,66 0,67 25,67 14,0 32,-4 40,-9 z"
       id="path3663"
       inkscape:connector-curvature="0" />
    <path
       d="m 8197,1822 c -13,-14 -17,-38 -17,-105 0,-108 7,-117 95,-117 90,0 96,8 89,123 -4,51 -9,95 -13,98 -3,4 -35,10 -71,13 -57,6 -68,5 -83,-12 z m 128,-58 c 0,-15 -6,-18 -27,-16 -16,1 -28,-2 -28,-8 0,-17 -19,-11 -30,10 -16,30 -4,40 43,37 34,-2 42,-7 42,-23 z m -1,-75 c 19,-17 -3,-37 -44,-37 -44,-1 -61,17 -40,43 12,14 65,11 84,-6 z"
       id="path3665"
       inkscape:connector-curvature="0" />
    <path
       d="m 8556,1811 c -14,-15 -16,-35 -14,-112 l 3,-94 70,-7 c 98,-10 105,-2 105,119 0,91 -1,94 -26,103 -44,17 -119,12 -138,-9 z m 92,-30 c 23,-14 10,-46 -19,-49 -33,-4 -48,26 -23,45 21,15 25,16 42,4 z m 7,-111 c 0,-21 -4,-25 -29,-23 -36,3 -39,6 -31,33 10,32 60,24 60,-10 z"
       id="path3667"
       inkscape:connector-curvature="0" />
    <path
       d="m 7870,1498 c -19,-7 -21,-14 -18,-115 l 3,-108 65,-7 c 101,-10 110,0 110,117 0,64 -4,96 -12,102 -19,12 -125,20 -148,11 z m 100,-48 c 11,-7 12,-14 5,-26 -6,-9 -14,-16 -18,-15 -4,0 -20,1 -37,1 -41,0 -43,37 -2,43 15,2 29,5 32,5 3,1 12,-3 20,-8 z m 8,-107 c 3,-21 -1,-23 -42,-23 -47,0 -62,10 -52,36 4,11 18,14 48,12 36,-2 44,-7 46,-25 z"
       id="path3669"
       inkscape:connector-curvature="0" />
    <path
       d="m 8557,1497 c -13,-9 -17,-32 -18,-109 -1,-53 2,-101 5,-107 10,-15 149,-14 164,1 17,17 16,192 0,205 -21,17 -133,24 -151,10 z m 102,-46 c 8,-5 11,-16 8,-26 -9,-23 -80,-17 -85,7 -2,11 5,18 20,21 38,7 42,7 57,-2 z m 8,-92 c 22,-22 2,-39 -43,-39 -40,0 -44,2 -44,25 0,22 4,25 38,25 21,0 43,-5 49,-11 z"
       id="path3671"
       inkscape:connector-curvature="0" />
    <path
       d="m 2956,1685 c -11,-9 -41,-15 -69,-15 -42,0 -53,-4 -75,-30 -15,-16 -34,-30 -44,-30 -10,0 -25,-12 -35,-27 -9,-16 -30,-43 -45,-61 -15,-18 -28,-37 -28,-43 0,-20 -45,-48 -77,-49 -59,0 -91,-28 -138,-123 -24,-48 -42,-94 -39,-101 8,-21 83,-27 110,-10 20,13 21,19 12,45 -8,23 -6,37 6,63 20,41 25,46 108,80 65,27 70,27 136,16 63,-12 88,-11 185,6 24,4 43,2 53,-7 19,-16 147,-16 196,0 30,10 44,9 90,-6 69,-24 75,-28 83,-60 3,-16 16,-38 27,-50 24,-26 20,-58 -7,-58 -14,0 -21,8 -23,26 -3,24 -6,26 -65,27 -61,2 -74,-3 -138,-50 -13,-9 -32,-8 -85,5 -80,20 -152,21 -241,6 -49,-9 -63,-15 -63,-29 0,-22 71,-29 248,-26 l 123,2 6,-28 c 10,-51 92,-104 143,-93 35,8 88,60 97,94 8,34 21,42 59,35 48,-9 61,15 43,74 -14,42 -18,47 -42,44 -24,-3 -27,0 -27,27 0,16 5,33 11,36 17,11 -31,55 -60,55 -14,0 -34,7 -44,15 -11,7 -25,11 -32,9 -13,-6 -80,96 -87,132 -2,11 -13,20 -24,22 -12,2 -34,16 -49,33 -24,24 -37,29 -74,29 -25,0 -55,7 -65,15 -24,19 -36,18 -60,0 z m -3,-100 c -3,-38 -20,-125 -26,-131 -3,-3 -44,-3 -91,1 -103,9 -108,19 -43,83 64,64 78,72 122,69 33,-2 40,-5 38,-22 z m 171,-7 c 43,-33 80,-96 74,-125 -2,-10 -11,-16 -19,-14 -8,3 -48,7 -89,10 l -75,6 -3,64 c -2,35 -1,70 2,77 10,25 67,16 110,-18 z m 204,-394 c 4,-37 -18,-59 -52,-50 -30,7 -38,28 -26,62 8,21 15,25 42,22 29,-3 33,-7 36,-34 z"
       id="path3673"
       inkscape:connector-curvature="0" />
    <path
       d="m 2563,1241 c -24,-47 -16,-122 15,-154 17,-17 34,-22 71,-22 56,0 82,18 112,77 16,31 17,38 4,48 -8,7 -15,20 -15,30 0,28 -40,47 -107,52 l -63,4 -17,-35 z m 130,-45 c 21,-16 21,-25 0,-48 -29,-32 -83,-18 -83,22 0,37 48,52 83,26 z"
       id="path3675"
       inkscape:connector-curvature="0" />
    <path
       d="m 265,1128 c -3,-7 -4,-148 -2,-313 l 2,-300 27,-3 27,-3 3,141 3,141 295,0 c 162,0 300,0 306,0 8,-1 10,-37 6,-129 -4,-118 -3,-129 13,-136 33,-12 40,11 40,140 l 0,126 305,0 305,0 2,-132 c 2,-142 5,-160 27,-160 23,0 28,34 25,167 l -4,125 310,0 310,0 -4,-125 c -3,-131 2,-167 24,-167 22,0 27,36 24,167 l -4,125 310,0 310,-1 0,-128 c 1,-157 1,-163 20,-163 29,0 35,36 28,164 -3,73 -2,126 3,126 5,1 144,1 309,1 l 300,1 0,-136 c 1,-138 7,-162 38,-150 25,9 29,38 19,159 -5,61 -6,114 -1,119 5,6 533,11 609,6 3,0 5,-62 5,-137 l 0,-138 25,0 25,0 5,138 5,138 303,1 c 167,0 305,-2 307,-4 2,-1 0,-59 -5,-128 -8,-116 -7,-126 11,-145 35,-36 44,-8 44,141 l 0,135 308,2 c 199,1 307,-2 308,-8 0,-5 0,-70 -1,-143 -1,-115 1,-133 15,-139 30,-11 36,19 33,155 l -3,134 310,0 310,0 -4,-125 c -3,-131 2,-167 24,-167 22,0 27,36 24,167 l -4,125 310,0 310,0 -3,-112 c -4,-129 2,-180 24,-180 23,0 26,21 28,161 l 1,131 305,0 305,-1 0,-133 c 1,-154 7,-173 45,-148 13,8 15,51 15,285 l 1,276 -24,6 c -12,3 -26,2 -30,-1 -3,-4 -7,-59 -7,-122 l 0,-115 -295,0 c -162,0 -301,0 -308,1 -11,0 -14,28 -12,138 3,173 4,164 -22,160 -23,-3 -23,-5 -23,-151 l 0,-148 -304,0 c -167,0 -306,3 -309,6 -4,3 -6,70 -7,148 0,135 -1,142 -20,142 -19,0 -20,-7 -20,-142 0,-78 -3,-144 -6,-148 -4,-3 -143,-6 -310,-6 l -304,0 0,148 c 0,141 -1,148 -20,148 -19,0 -20,-7 -22,-143 -1,-79 -3,-146 -6,-148 -2,-3 -141,-5 -308,-5 l -304,0 -1,138 c -1,171 0,163 -23,163 -35,0 -39,-20 -31,-155 4,-71 4,-134 0,-138 -3,-4 -141,-8 -306,-8 l -299,-1 -3,152 -3,151 -27,-3 -27,-3 -1,-142 c 0,-79 -3,-146 -6,-149 -8,-7 -596,-6 -608,1 -6,4 -8,16 -6,28 3,12 7,75 11,139 l 6,117 -26,7 c -14,3 -29,3 -32,0 -4,-4 -7,-72 -7,-152 l -1,-145 -295,0 c -162,0 -301,1 -307,1 -9,0 -12,35 -12,135 1,139 -2,155 -27,155 -11,0 -14,-16 -15,-67 0,-38 -1,-103 -2,-146 l -2,-78 -308,-2 c -199,-1 -307,2 -308,8 -1,6 -2,73 -3,150 -1,133 -2,140 -21,140 -19,0 -20,-7 -20,-148 l 0,-148 -310,0 -310,0 0,148 c 0,146 0,148 -22,151 -14,2 -23,-2 -24,-10 0,-7 0,-75 1,-150 1,-76 -2,-138 -7,-138 -4,0 -143,-1 -308,-1 l -300,0 0,148 c 0,142 -1,148 -21,151 -36,5 -41,-16 -33,-158 4,-74 6,-136 4,-138 -1,-2 -139,-3 -306,-3 l -304,0 -3,150 -3,151 -25,0 c -13,0 -27,-6 -29,-12 z"
       id="path3677"
       inkscape:connector-curvature="0" />
  </g>
  <text
     xml:space="preserve"
     style="font-size:15.81754398px;font-style:normal;font-variant:normal;font-weight:bold;font-stretch:normal;text-align:center;line-height:125%;letter-spacing:0px;word-spacing:0px;text-anchor:middle;fill:#000000;fill-opacity:1;stroke:none;font-family:Arial;-inkscape-font-specification:Arial Bold"
     x="40.291389"
     y="98.101891"
     id="text3729"
     sodipodi:linespacing="125%"><tspan
       sodipodi:role="line"
       id="tspan3731"
       x="40.291389"
       y="98.101891">1</tspan></text>
  <text
     xml:space="preserve"
     style="font-size:15.81754398px;font-style:normal;font-variant:normal;font-weight:bold;font-stretch:normal;text-align:center;line-height:125%;letter-spacing:0px;word-spacing:0px;text-anchor:middle;fill:#000000;fill-opacity:1;stroke:none;font-family:Arial;-inkscape-font-specification:Arial Bold"
     x="10.333922"
     y="98.322166"
     id="text3733"
     sodipodi:linespacing="125%"><tspan
       sodipodi:role="line"
       id="tspan3735"
       x="10.333922"
       y="98.322166">0,5</tspan></text>
  <text
     xml:space="preserve"
     style="font-size:15.81754398px;font-style:normal;font-variant:normal;font-weight:bold;font-stretch:normal;text-align:center;line-height:125%;letter-spacing:0px;word-spacing:0px;text-anchor:middle;fill:#000000;fill-opacity:1;stroke:none;font-family:Arial;-inkscape-font-specification:Arial Bold"
     x="190.29901"
     y="98.322166"
     id="text3737"
     sodipodi:linespacing="125%"><tspan
       sodipodi:role="line"
       id="tspan3739"
       x="190.29901"
       y="98.322166">3,5</tspan></text>
</svg>
